<?xml version="1.0" encoding="iso-8859-1"?>
<!-- Generator: Adobe Illustrator 17.1.0, SVG Export Plug-In . SVG Version: 6.00 Build 0)  -->
<!DOCTYPE svg PUBLIC "-//W3C//DTD SVG 1.1//EN" "http://www.w3.org/Graphics/SVG/1.1/DTD/svg11.dtd">
<svg version="1.1" id="&#x421;&#x43B;&#x43E;&#x439;_1"
	 xmlns="http://www.w3.org/2000/svg" xmlns:xlink="http://www.w3.org/1999/xlink" x="0px" y="0px" viewBox="0 0 299.014 322.504"
	 style="enable-background:new 0 0 299.014 322.504;" xml:space="preserve">
<g>
	<path style="fill:#BB9F63;" d="M218.079,131.992c6.183,5.397,10.141,12.276,13.326,19.69c0.17,0.396,0.422,0.756,0.897,1.593
		c0.132-3.548-1.554-6.012-2.604-8.658c-0.592-1.492-1.235-2.965-1.855-4.446c1.271,1.948,2.901,3.752,3.754,5.869
		c4.527,11.233,7.339,22.767,5.311,35.019c-1.439,8.693-4.039,16.939-9.265,24.166c-1.458,2.016-2.865,4.154-5.462,4.939
		c-3.664,2.579-6.221,4.378-9.885,6.957c-3.192,1.315-10.081,3.415-9.462,3.047c-4.42,1.167-8.919,2.042-13.403,2.947
		c-0.677,0.137-1.455-0.23-2.187-0.363c2.557-1.145,5.131-1.463,7.648-2.034c9.069-2.055,17.653-5.106,23.986-12.442
		c7.237-8.383,11.585-17.895,13.007-29.059c1.72-13.51-2.049-25.344-8.562-36.84c-7.243-12.785-30.62-24.403-48.19-16.388
		c-1.61,0.734-3.323,1.238-4.959,1.917c-5.299,2.201-9.707,5.559-13.359,10.01c-4.589,5.593-7.762,11.949-9.625,18.829
		c-2.912,10.756-2.489,21.649-0.343,32.533c1.267,6.426,4.06,12.043,8.478,16.811c4.045,4.366,8.627,8.109,13.858,11.013
		c4.16,2.31,8.388,4.389,13.282,4.608c0.41,0.018,0.798,0.551,1.195,0.844c-1.921,0.688-3.74,0.906-5.284,0.354
		c-4.99-1.785-10.059-3.501-14.765-5.896c-7.19-3.659-12.447-9.439-16.012-16.708c-3.837-7.824-6.146-16.093-7.225-24.698
		c-0.361,21.972,8.094,38.95,28.236,49.361c-0.737,0.027-1.298-0.08-1.804-0.31c-10.243-4.659-17.95-12.154-22.739-22.176
		c-7.342-15.365-8.868-31.627-4.358-48.027c5.03-18.289,17.252-30.25,34.933-36.772c1.235-0.456,2.488-0.864,3.174-1.1
		c-2.129-1.137-4.653-2.195-6.826-3.746c-1.476-1.053-2.014-2.953-1.284-4.827c0.761-1.955,2.181-3.085,4.32-3.104
		c-0.18,0.69-0.542,1.138-0.998,1.447c-1.493,1.012-2.358,2.33-1.782,4.142c0.555,1.746,2.032,2.406,3.733,2.712
		c5.014,0.902,9.358-1.769,10.201-6.813c0.369-2.21,0.171-4.841-0.713-6.871c-2.375-5.459-6.218-9.632-12.102-11.642
		c-7.345-2.508-14.894-3.946-22.625-3.942c-6.805,0.004-13.649,0.183-20.406,0.921c-8.95,0.978-17.991,1.925-26.707,4.057
		c-13.908,3.401-26.505,10.004-38.135,18.352c-7.595,5.452-14.822,11.326-20.813,18.599c-10.598,12.865-14.443,28.281-16.505,44.266
		c-0.85,6.589-0.688,13.305-1.088,19.957c-0.075,1.252,0.462,2.91-1.531,3.838c-0.441-13.758-0.31-27.126,3.028-40.365
		c2.312-9.171,5.587-17.748,11.473-25.209c1.815-2.3,3.747-4.508,5.723-6.876c-7.647,1.484-13.038-0.773-17.193-7.125
		c-2.346-3.587-2.154-7.354-0.224-10.948c1.822-3.394,6.676-4.342,9.621-2.023c0.565,0.445,0.629,1.525,1.076,2.716
		c-1.141-0.135-1.616-0.065-1.95-0.25c-4.193-2.314-6.763,0.828-6.261,5.202c0.401,3.493,2.766,5.693,5.701,7.411
		c0.786-1.797-0.048-4.461,2.85-4.755c0.22,0.285,0.384,0.4,0.387,0.52c0.02,0.711,0.008,1.423-0.002,2.135
		c-0.047,3.441,1.079,4.491,4.563,4.259c3.243-0.216,5.578-1.758,6.941-4.731c1.386-3.024,2.103-6.222,1.634-9.502
		c-1.018-7.132-9.593-14.383-16.806-12.112c-2.515,0.792-5.006,1.657-7.782,2.58c-0.396-1.036-0.784-2.048-1.299-3.394
		c1.877-0.601,3.387-1.468,4.915-1.501c4.261-0.09,8.65-0.427,12.771,0.407c8.857,1.792,15.291,11.069,10.944,20.319
		c-0.307,0.654-0.384,1.416-0.78,2.944c11.139-9.158,22.582-16.112,35.029-21.486c12.626-5.451,25.899-7.748,39.488-8.843
		c-5.775-0.161-11.537-0.342-17.282-0.115c-7.24,0.287-14.463,0.984-21.7,1.364c-7.685,0.404-15.381,0.593-23.067,0.975
		c-4.433,0.221-8.857,0.627-13.283,0.969c-12.342,0.954-24.517-1.176-36.76-2.017c-0.539-0.037-1.043-0.567-2.275-1.278
		c3.519-0.224,6.167-0.37,8.812-0.566c10.768-0.8,21.534-1.623,32.302-2.421c1.772-0.131,3.551-0.163,5.325-0.272
		c12.115-0.746,24.227-1.542,36.346-2.213c2.195-0.121,4.417,0.282,6.629,0.408c6.198,0.354,12.399,1.011,18.594,0.965
		c11.698-0.086,23.392-0.746,35.09-0.84c6.496-0.052,12.994,0.633,19.496,0.84c4.39,0.14,8.788,0.027,13.236,0.027
		c0.251-1.315,0.565-2.319,0.617-3.336c0.383-7.392,0.885-14.783,1.013-22.18c0.141-8.146-0.089-16.297-0.13-24.447
		c-0.006-1.177-0.07-2.426,0.296-3.505c0.224-0.66,1.262-1.519,1.857-1.463c0.841,0.079,1.996,0.75,2.318,1.477
		c0.448,1.013,0.316,2.311,0.316,3.488c-0.001,7.112,0.055,14.226-0.091,21.336c-0.085,4.129-0.639,8.247-0.749,12.377
		c-0.137,5.134-0.033,10.275-0.033,15.403c2.468,0,4.42,0,7.155,0c-1.199-1.093-1.899-1.628-2.475-2.273
		c-3.813-4.272-2.82-9.772,1.997-12.831c2.255-1.432,4.046,0.001,6.267,0.64c-2.185-4.669-4.415-4.564-10.414,0.164
		c0-2.486-0.243-4.843,0.069-7.124c0.308-2.252-2.584-4.682,0.674-7.168c1.884,4.35,6.089,5.295,9.608,7.268
		c2.191,1.229,4.251,2.69,6.542,4.158c-0.541-2.652-2.22-4.176-4.361-5.296c-2.227-1.165-4.521-2.206-6.722-3.417
		c-3.525-1.939-4.866-5.028-4.478-9.016c1.241,3.566,4.061,5.34,7.19,6.866c2.124,1.036,4.219,2.175,6.18,3.487
		c3.366,2.253,5.541,5.431,5.774,9.521c0.307,5.364,0.255,10.738-4.809,15.327c6.033,0.343,11.294,0.642,17.225,0.978
		c-2.954-1.651-5.392-2.697-7.45-4.247c-2.448-1.844-3.965-4.469-3.628-7.69c0.796-7.608,10.548-12.771,17.293-9.224
		c4.56,2.398,5.779,9.766,2.254,13.485c-1.162,1.226-2.517,1.638-3.997,0.848c-1.297-0.693-3.02-1.295-2.294-3.573
		c1.468,0.801,2.725,1.487,3.904,2.13c3.079-2.654,3.739-5.957,1.973-9.087c-1.472-2.61-4.383-3.744-7.682-2.55
		c-1.888,0.683-3.806,1.736-5.25,3.107c-4.808,4.564-3.537,11.041,2.647,13.573c4.283,1.754,8.799,2.598,13.465,2.067
		c3.901-0.444,7.792-2.202,11.516,1.051c1.015,0.887,3.17,0.379,4.756,0.722c2.796,0.604,4.328,2.805,4.015,5.505
		c-0.294,2.536-2.078,4.285-4.751,4.391c-1.309,0.052-2.657-0.165-3.946-0.448c-5.912-1.3-11.791-2.752-17.721-3.963
		c-1.99-0.406-4.193-1.771-6.103,0.59c-0.34,0.42-1.686,0.05-2.565,0.004c-3.831-0.198-7.664-0.607-11.492-0.57
		c-5.105,0.049-9.487,2.148-13.113,5.698c-2.029,1.987-3.781,4.253-3.864,7.265c-0.077,2.81-0.122,5.643,0.145,8.435
		c0.401,4.199,5.126,7.614,9.351,6.871c2.202-0.387,3.397-1.826,4.028-4.587c-1.126,0.569-1.608,0.838-2.111,1.062
		c-4.007,1.779-6.348,1.082-8.821-2.301c-3.087-4.222-1.441-14.205,3.738-16.477c4.767-2.091,9.539-4.07,14.915-3.555
		c3.24,0.31,6.487,0.565,9.715,0.974c2.349,0.298,4.346-0.015,5.305-2.356c3.045,0.767,5.748,1.527,8.486,2.12
		c4.762,1.031,9.521,2.125,14.331,2.874c3.191,0.497,5.013-0.93,6.024-3.93c1.005-2.981,0.471-6.958-1.787-7.56
		c-4.721-1.258-8.789-4.727-14.034-4.162c-2.355,0.254-4.723,0.414-7.089,0.528c-0.912,0.044-1.836-0.159-3.055-0.279
		c7.38-7.405,8.208-12.905,3.313-18.227c-2.482-2.698-5.417-3.974-8.977-4.162c-5.445-0.288-9.17,2.613-12.148,7.056
		c-2.061-3.288-3.846-6.134-5.853-9.335c3.553,0.993,4.137,4.222,5.965,6.864c2.805-3.618,5.883-5.925,10.297-5.93
		c4.087-0.005,8.018,0.333,11.304,3.055c4.754,3.937,5.598,12.068,1.677,18.594c2.047-0.353,3.754-0.669,5.468-0.937
		c4.91-0.769,5.735-0.398,8.409,3.77c0.791,0.134,1.663,0.291,2.537,0.429c5.098,0.806,7.113,3.713,5.987,8.777
		c-0.286,1.288-0.689,2.586-1.268,3.766c-1.913,3.898-4.423,5.043-8.683,4.069c-1.439-0.329-2.861-0.737-4.285-1.128
		c-5.243-1.44-10.484-2.889-15.666-4.318c-2.284,4.116-2.894,4.362-7.093,2.88c-0.973-0.344-1.878-0.881-2.849-1.232
		c-4.816-1.741-9.567-1.725-14.183,0.678c-2.491,1.297-5.083,2.462-7.377,4.052c-1.217,0.844-2.317,2.352-2.708,3.77
		c-0.496,1.799-0.421,3.833-0.223,5.727c0.245,2.336,1.566,4.188,3.779,5.098c2.223,0.914,4.008-0.172,5.564-1.708
		c0.558-0.551,1.074-1.143,1.542-1.644c-1.825-2.617-4.392-0.335-6.335-1.495c3.675-3.721,6.488-3.597,9.064,0.22
		c2.77,4.103,1.081,8.567-4.032,10.58c-1.221,0.48-2.486,0.849-4.41,1.497c24.317,5.584,39.398,23.712,40.998,42.839
		c-1.316,0.36-2.665,0.73-4.02,1.102c-8.864-36.557-35.153-46.265-58.211-44.025c-20.141,1.956-41.411,19.996-42.334,34.636
		c1.48-2.507,2.835-5.329,4.68-7.781c1.945-2.585,4.199-4.995,6.609-7.157c3.191-2.864,6.559-5.559,10.046-8.056
		c3.722-2.666,7.618-5.055,12.305-5.835c12.353-2.056,24.14-0.606,35.317,5.246C213.679,128.906,217.613,131.585,218.079,131.992z
		 M170.977,85.815c6.832,1.956,12.68,5.612,16.253,12.12c2.927,5.331,2.08,11.067-2.288,15.329c-0.795,0.776-1.685,1.455-3.11,2.675
		c3.185-0.417,5.641-0.739,8.077-1.058c-0.215-9.989-0.426-19.796-0.648-30.117c-11.686-0.267-23.511-3.04-35.223-2.571
		C159.492,83.33,165.341,84.201,170.977,85.815z M213.365,68.675c1.362-3.336,0.417-6.978-2.797-8.896
		c-3.375-2.014-7.009-3.596-11.046-5.626c-0.259,2.273-0.467,4.101-0.744,6.531c1.76-0.666,3.015-1.254,4.331-1.616
		c2.747-0.755,5.47,0.589,6.13,2.91c0.842,2.958-0.701,4.599-3.725,3.922c-0.541-0.121-1.037-0.44-1.466-0.628
		c-3.637,2.706-4.555,5.109-2.914,7.331c2.509,3.398,7.238,3.828,10.404,1.229c-1.906-0.163-4.096-0.351-6.287-0.539
		c0.14-0.286,0.28-0.571,0.42-0.857C209.795,73.198,211.949,72.145,213.365,68.675z M195.854,83.907c0,3.479,0,6.786,0,11.293
		c4.717-5.886,10.133-8.912,16.083-11.293C206.666,83.907,201.395,83.907,195.854,83.907z M258.156,86.334
		c-0.131-2.17-1.738-2.366-3.392-2.454c-1.326-0.07-2.654-0.103-3.982-0.109c-3.227-0.015-6.454-0.005-10.389-0.005
		C251.623,88.079,254.249,88.447,258.156,86.334z M233.79,188.132c2.312-5.559,3.025-13.343,1.853-22.659
		C234.992,173.427,234.369,181.051,233.79,188.132z M202.418,116.179c-2.847-2.158-4.881-3.699-7.043-5.338
		c-0.155,1.258-0.297,2.408-0.487,3.952C197.33,115.243,199.421,115.628,202.418,116.179z M226.992,202.733
		c2.916-2.912,4.023-4.98,5.056-10.09C230.437,195.857,228.826,199.072,226.992,202.733z"/>
	<path style="fill:#BB9F63;" d="M109.102,281.211c2.874-1.386,2.363-3.211,2.373-4.743c0.069-10.069,0.027-20.139,0.096-30.207
		c0.217-31.835,0.464-63.669,0.714-95.503c0.007-0.854,0.18-1.706,0.297-2.75c2.317,0.654,4.4,1.241,6.961,1.963
		c0,1.005,0.005,2.305-0.001,3.606c-0.03,6.22,0.152,12.449-0.139,18.657c-0.617,13.143-1.546,26.272-2.208,39.413
		c-0.238,4.725-0.204,9.475-0.07,14.207c0.386,13.614,0.882,27.225,1.349,40.836c0.05,1.447,0.193,2.891,0.878,4.381
		c0.167-0.898,0.476-1.795,0.479-2.693c0.022-8.723-0.082-17.446-0.002-26.168c0.088-9.616,0.3-19.232,0.516-28.846
		c0.319-14.207,0.727-28.412,1.024-42.619c0.142-6.81,0.118-13.623,0.166-20.435c0.01-1.438,0.001-2.876,0.001-4.646
		c-3.64-0.166-6.825-0.312-10.392-0.475c-0.454,4.272-1.157,8.337-1.271,12.419c-0.388,13.905-0.717,27.816-0.773,41.726
		c-0.036,9.026,0.528,18.054,0.652,27.083c0.061,4.434-0.265,8.874-0.425,13.311c-0.032,0.887-0.22,1.784-0.138,2.658
		c1.075,11.543-0.874,23.048-0.398,34.581C108.842,278.206,108.971,279.444,109.102,281.211z"/>
	<path style="fill:#BB9F63;" d="M75.129,22.313c2.34-0.092,4.698-0.409,7.018-0.233c7.063,0.534,11.926,4.777,16.029,10.061
		c3.629,4.673,5.555,10.116,6.231,15.921c0.786,6.756,1.24,13.55,1.826,20.328c0.201,2.328,0.364,4.659,0.56,7.177
		c-1.585,0.159-3.176,0.319-4.767,0.479c0.002,0.179,0.003,0.358,0.005,0.537c19.309,0.338,38.618,0.675,57.928,1.013
		c0.075-0.23,0.151-0.459,0.226-0.689c-1.567-0.867-3.511-1.412-4.598-2.688c-1.161-1.363-1.957-3.381-2.095-5.177
		c-0.138-1.792,0.288-3.953,1.254-5.441c2.372-3.654,8.594-3.958,13.421-0.832c1.667-5.136,5.38-8.649,9.299-12.028
		c2.915-2.513,5.658-5.224,8.574-7.736c2.925-2.519,4.097-5.628,3.934-9.446c-0.151-3.527-0.032-7.066-0.032-10.649
		c1.809,0.202,3.318,0.714,4.642,0.411c1.087-0.249,2.52-1.312,2.785-2.289c0.415-1.534-0.975-2.195-2.483-2.363
		c-0.939-0.105-1.851-0.441-2.726-1.284c1.181-0.192,2.362-0.385,4.6-0.749c-2.474-1.003-3.997-1.621-5.519-2.238
		c0.054-0.265,0.108-0.531,0.161-0.796c3.19,0.346,6.379,0.691,9.638,1.044c-0.254-0.294-0.621-1.012-1.207-1.35
		c-3.603-2.076-7.402-2.012-11.099-0.435c-2.821,1.204-4.097,3.656-4.361,6.703c-0.244,2.82,2.028,3.694,3.878,5.122
		c0.171,4.389-0.396,8.738-1.58,13.029c-0.9,3.263-2.685,5.912-5.411,7.9c-2.75,2.006-5.54,3.957-8.316,5.927
		c-2.815,1.998-5.523,4.073-5.643,7.509c-2.64-0.478-5.13-1.597-7.352-1.202c-6.094,1.083-9.41,7.183-7.676,13.191
		c0.204,0.708,0.392,1.426,0.668,2.106c0.276,0.681,0.654,1.32,1.163,2.325c-1.105,0.072-1.987,0.13-3.209,0.21
		c-0.269-8.813-0.705-17.434,1.835-25.728c2.658-8.678,9.287-13.426,17.724-15.854c4.368-1.257,8.74-1.459,13.003,0.584
		c0.579,0.277,1.311,0.235,2.116,0.363c-0.122-0.502-0.11-0.692-0.19-0.747c-6.406-4.36-17.387-3.881-23.295,0.97
		c-8.092,6.645-12.517,15.177-13.286,25.616c-0.348,4.717-0.721,9.431-1.11,14.512c-12.949,0-26.026,0-39.422,0
		c0-1.526,0.002-3.1,0-4.675c-0.01-9.188-0.404-18.342-2.902-27.257c-1.454-5.189-3.878-9.912-7.444-13.983
		C92.084,22.817,85.233,18.871,76,21.565C75.71,21.814,75.419,22.064,75.129,22.313z"/>
	<path style="fill:#BB9F63;" d="M10.244,214.554c-1.028,0.721-2.056,1.442-3.334,2.338c-0.97-1.794-1.761-3.255-2.589-4.787
		c-2.838,2.847-3.274,4.562-1.94,7.045c1.414,2.632,5.494,4.522,8.334,3.852c2.275-0.536,3.906-1.88,5.285-3.769
		c0.83-1.136,2.144-1.919,4.048-2.528c0.082-1.873,0.243-3.746,0.234-5.618c-0.089-19.41-0.244-38.82-0.285-58.231
		c-0.009-4.29,0.47-8.58,0.528-12.872c0.066-4.883-0.112-9.769-0.138-14.653c-0.029-5.445-0.007-10.891-0.007-16.574
		c-1.324,0-2.57,0-4.388,0c-0.095,2.54-0.601,4.926-0.199,7.148c2.635,14.541,2.362,29.168,1.846,43.84
		c-0.349,9.919-0.247,19.854-0.336,29.782c-0.021,2.361-0.003,4.722-0.748,7.091c-0.536-19.15-1.071-38.301-1.607-57.451
		c-0.071-0.013-0.142-0.026-0.213-0.039c-0.29,3.34-0.826,6.68-0.821,10.02c0.013,8.442,0.44,16.885,0.388,25.326
		c-0.08,12.883-0.368,25.766-0.721,38.645c-0.046,1.688-0.786,3.462-1.582,5c-1.037,2.002-3.079,2.11-5.067,1.823
		c-1.728-0.249-3.005-1.018-2.945-3.183c4.263,2.109,5,1.815,6.154-2.287L10.244,214.554z"/>
	<path style="fill:#BB9F63;" d="M233.403,119.907c-4.486-1.945-8.396-3.64-12.527-5.431c-0.145-3.08,2.13-6.377-0.491-9.298
		c-1.228-1.369-2.349-2.867-4.663-2.972c4.771,3.572,2.947,8.449,2.989,13.159c2.778,1.107,5.644,2.242,8.506,3.39
		c7.536,3.023,13.336,8.088,17.703,14.899c6.323,9.864,10.015,20.588,11.766,32.2c2.481,16.456-2.128,31.123-10.688,44.699
		c-6.931,10.994-17.493,17.459-29.923,20.789c-10.767,2.884-21.644,2.708-32.52,0.48c-1.301-0.267-2.602-0.536-3.912-0.749
		c-0.243-0.039-0.529,0.187-1.322,0.495c1.124,0.523,1.888,1.043,2.728,1.245c16.37,3.931,32.331,2.941,47.546-4.582
		c14.009-6.927,23.386-18.025,27.472-33.122c3.763-13.902,4.257-28.071,0.983-42.161c-2.586-11.133-8.516-20.393-17.131-27.912
		c-1.668-1.456-3.38-2.859-5.33-4.504c0-1.181,0.001-2.502,0-3.823c-0.002-1.507,0.014-2.903,1.759-3.702
		c0.664-0.304,1.272-1.309,1.401-2.079c0.219-1.311,0.814-1.869,1.97-2.554c2.724-1.613,2.916-2.831,1.663-6.715
		c-0.176,4.751-5.389,6.055-6.686,10.268c-0.434,1.411-1.295,2.768-1.292,4.381C233.404,117.331,233.403,118.352,233.403,119.907z"
		/>
	<path style="fill:#BB9F63;" d="M105.35,128.261c-2.184,0-4.368,0-6.984,0c0,1.828-0.565,3.694,0.109,4.815
		c1.837,3.058,4.197,5.802,6.63,9.044c0,5.971,0.301,12.486-0.057,18.965c-1.013,18.328-1.761,36.652-1.493,55.017
		c0.097,6.638-0.497,13.285-0.744,19.93c-0.083,2.218-0.096,4.439-0.092,6.659c0.019,11.101,0.054,22.202,0.082,33.303
		c0.004,1.388,0.001,2.776,0.001,4.165c0.338,0.035,0.677,0.071,1.015,0.106c0.205-0.719,0.542-1.428,0.597-2.158
		c1.822-24.247,0.915-48.508,0.53-72.775c-0.176-11.09,0.42-22.193,0.722-33.289c0.229-8.431,0.542-16.86,0.831-25.29
		c0.055-1.596,0.177-3.191,0.269-4.813c4.818-0.889,9.294-1.715,14.127-2.608c-5.557-3.197-11.425-2.131-17.136-2.698
		c3.551-0.479,7.093-1.058,10.657-1.407c3.552-0.348,7.126-0.465,10.688-1.069c-7.801-1.488-15.672-0.176-23.952-0.616
		c-0.118-1.073-0.252-2.291-0.376-3.414c1.75-0.715,3.162-1.291,4.573-1.868L105.35,128.261z"/>
	<path style="fill:#BB9F63;" d="M41.417,322.504c0.193-0.478,0.545-0.951,0.557-1.434c0.38-14.511,0.748-29.021-0.238-43.526
		c-0.17-2.508-0.074-5.036-0.038-7.555c0.147-10.37,0.185-20.743,0.519-31.107c0.295-9.167,1.034-18.319,1.375-27.485
		c0.203-5.468,0.051-10.951-0.002-16.427c-0.083-8.44-0.328-16.881-0.299-25.32c0.024-7.097,0.393-14.193,0.492-21.291
		c0.028-2.006-0.357-4.018-1.313-5.987c-0.081,0.929-0.213,1.858-0.234,2.788c-0.494,21.022-1,42.044-1.447,63.067
		c-0.16,7.554,0.224,15.141-0.33,22.662c-1.235,16.744-0.387,33.459,0.044,50.185c0.095,3.698,0.649,7.392,0.602,11.083
		c-0.104,8.14-0.474,16.276-0.692,24.414c-0.052,1.953,0.065,3.91,0.105,5.865C40.817,322.459,41.117,322.482,41.417,322.504z"/>
	<path style="fill:#BB9F63;" d="M295.653,152.059c-0.628-0.759-1.103-1.515-1.754-2.061c-0.519-0.435-1.253-0.612-2.169-1.03
		c0.346-7.745,0.753-15.415,1.002-23.091c0.117-3.627,1.734-6.395,4.386-8.62c2.236-1.876,2.302-4.112,1.193-6.823
		c-0.353,0.525-0.842,1.006-1.033,1.585c-0.556,1.683-1.592,2.771-2.877,4.06c-1.96,1.967-4.011,4.46-3.905,7.815
		c0.271,8.575,0.393,17.155,0.676,25.729c0.034,1.027,0.692,2.032,1.308,3.729c-3.479,8.34-1.87,17.801-1.755,27.179
		c0.071,5.747-0.227,11.498-0.242,17.247c-0.013,5.175,0.126,10.35,0.212,15.524c0.148,8.876,0.573,17.758,0.391,26.627
		c-0.213,10.339-0.983,20.666-1.428,31.002c-0.061,1.421-0.713,3.265,1.77,4.286c0.247-1.021,0.581-1.796,0.597-2.577
		c0.073-3.552,0.022-7.106,0.079-10.658c0.307-19.087,0.655-38.173,0.939-57.26c0.088-5.92,0.086-11.843-0.011-17.763
		c-0.038-2.349-0.588-4.688-0.661-7.039c-0.257-8.25,0.033-16.474,1.859-24.565C294.482,154.239,295.143,153.214,295.653,152.059z"
		/>
	<path style="fill:#BB9F63;" d="M128.15,127.886c0-5.85,0.014-11.291-0.043-16.731c-0.003-0.266-0.624-0.526-1.39-1.129
		c-0.378,1.098-0.92,1.948-0.921,2.8c-0.007,4.291,0.161,8.582,0.197,12.874c0.02,2.37,0.379,4.455,3.323,4.895
		c-0.922,2.763-1.789,5.207-2.544,7.684c-0.416,1.364-0.967,2.798-0.91,4.177c1.368,33.013-1.304,65.981-1.096,98.981
		c0.062,9.91-0.412,19.824-0.63,29.736c-0.031,1.409-0.004,2.82,0.769,4.39c0.261-0.438,0.713-0.859,0.757-1.318
		c1.924-20.206,2.589-40.434,1.42-60.724c-0.399-6.932-0.157-13.906-0.087-20.86c0.131-13.02,0.381-26.039,0.507-39.06
		c0.023-2.358-0.255-4.725-0.498-7.077c-0.472-4.564,0.836-8.708,3.141-12.515C132.137,130.718,131.827,129.451,128.15,127.886z"/>
	<path style="fill:#BB9F63;" d="M104.005,102.849c1.185-5.321,0.9-6.317-2.83-9.383c0.329,2.912,3.84,5.154,1.066,8.459
		c-0.338-0.873-0.565-1.358-0.715-1.866c-1.309-4.417-2.855-5.673-7.327-5.086c-2.44,0.32-4.975,1.015-7.138,2.162
		c-10.21,5.413-20.018,11.551-28.9,18.928c-5.202,4.321-10.024,9.277-14.213,14.583c-2.957,3.745-4.687,8.498-6.75,12.902
		c-5.555,11.86-8.255,24.222-6.996,37.435c0.414,4.347-0.212,8.851-0.817,13.22c-0.511,3.696-1.105,3.91-4.883,4.282
		c-0.412,0.041-0.81,0.234-1.478,0.436c0.601,0.254,0.942,0.491,1.308,0.538c5.422,0.704,6.675-0.254,6.913-5.669
		c0.208-4.73,0.321-9.471,0.26-14.204c-0.148-11.544,2.248-22.621,6.28-33.331c3.114-8.272,8.653-15.083,14.246-21.807
		c4.494-5.403,9.645-9.944,15.932-13.226c6.68-3.488,13.194-7.293,19.846-10.839c1.803-0.961,3.789-1.721,5.782-2.155
		c2.969-0.646,4.003-0.18,5.296,2.58C99.995,103.171,101.436,103.844,104.005,102.849z"/>
	<path style="fill:#BB9F63;" d="M51.371,139.639c-0.62,1.065-1.125,1.524-1.112,1.969c1.483,52.771-2.413,105.537-0.47,159.015
		c1.804-1.452,1.269-2.849,1.277-3.958c0.114-16.14,0.113-32.281,0.252-48.421c0.179-20.877,0.412-41.753,0.71-62.629
		c0.159-11.098,0.559-22.193,0.735-33.29c0.052-3.249-0.251-6.508-0.479-9.756C52.23,141.795,51.823,141.045,51.371,139.639z"/>
	<path style="fill:#BB9F63;" d="M203.877,154.81c4.015-2.761,7.759-5.914,11.654-8.854c0.416-0.314,1.064-0.321,1.605-0.471
		c-0.639,1.844-1.712,3.007-2.752,4.2c-3.206,3.678-6.444,7.329-9.581,11.064c-2.275,2.709-4.218,5.458-4.382,9.365
		c-0.147,3.493-2.25,4.753-5.765,4.505c-1.261-0.089-2.517-0.253-3.876-0.393c-0.107,1.278-0.052,2.334-0.302,3.312
		c-1.178,4.615-4.543,5.927-8.769,3.683c-3.016-1.602-4.562-4.023-4.526-6.628c-3.536-1.408-6.934-2.02-9.336-3.904
		c-3.072-2.408-5.34-5.842-8.386-9.326c2.488,0.253,4.355,0.671,6.199,0.587c5.516-0.253,10.23,1.193,13.378,5.712
		c2.435-0.136,4.565-0.255,6.634-0.37c1.106-7.585,2.86-8.921,9.154-7.478C197.989,158.091,201.113,156.711,203.877,154.81z
		 M185.37,170.057c-0.917-1.392-2.164-1.33-3.464-0.709c-2.932,1.402-4.005,6.829-1.862,9.277c2.812,3.212,7.528,2.304,8.565-2.036
		c0.682-2.854,1.858-3.781,4.586-4.256c1.713-0.298,3.254-1.875,4.753-3.032c1.607-1.241,1.674-2.901,1.169-4.809
		c-0.171-0.644,0.526-1.606,0.995-2.31c0.641-0.963,1.443-1.819,2.183-2.729c-0.386-0.282-0.701-0.594-0.765-0.548
		c-3.255,2.287-6.698,3.904-10.842,3.368c-0.29-0.037-0.652,0.486-0.981,0.749l0.146-0.148c-0.551,1.506-1.341,2.974-1.591,4.529
		c-0.307,1.904-0.992,2.911-3.031,2.534L185.37,170.057z M167.456,164.864c1.831,5.373,5.32,7.138,9.413,4.764
		C175.252,165.459,173.767,164.708,167.456,164.864z"/>
	<path style="fill:#BB9F63;" d="M10.142,214.47c1.725-1.864,1.569-4.265,1.737-6.516c1.847-24.845,0.81-49.726,0.805-74.592
		c-0.003-14.063-0.512-28.126-0.722-42.189c-0.23-15.395-0.382-30.791-0.558-46.187c-0.026-2.3-0.004-4.601-0.821-7.008
		c-0.132,0.563-0.362,1.122-0.382,1.689c-0.312,9.028-0.768,18.056-0.828,27.086c-0.042,6.203,0.531,12.407,0.723,18.614
		c0.16,5.181,0.07,10.37,0.259,15.549c0.427,11.68,0.972,23.356,1.433,35.035c0.076,1.92-0.008,3.848-0.054,5.772
		c-0.229,9.623-0.506,19.245-0.698,28.869c-0.293,14.654-0.53,29.308-0.791,43.962L10.142,214.47z"/>
	<path style="fill:#BB9F63;" d="M183.335,228.458c4.013,0.729,17.11,1.199,26.092-0.783c3.422-0.416,6.914-1.822,9.946-3.535
		c5.267-2.976,10.784-5.92,15.145-10c7.345-6.872,12.041-15.523,13.161-26.049c-1.321-0.512-2.517-0.976-4.166-1.614
		c-0.721,2.317-1.384,4.359-1.991,6.417c-2.529,8.59-6.979,15.903-14.178,21.391c-2.942,2.243-5.858,4.523-8.861,6.682
		c-5.051,3.632-10.788,5.426-16.931,6.013c-6.009,0.574-11.887,0.51-17.898,1.065C183.654,228.045,182.596,228.055,183.335,228.458z
		"/>
	<path style="fill:#BB9F63;" d="M54.525,306.127c0.078-0.698,0.219-1.396,0.226-2.094c0.226-21.777,1.069-43.571,0.492-65.327
		c-0.689-25.947,0.378-51.846,0.597-77.766c0.05-5.923,0.385-11.843,0.546-17.766c0.041-1.512,0.329-2.704,1.443-3.976
		c1.69-1.93,2.908-4.29,4.227-6.525c1.716-2.908,0.627-5.022-2.82-5.599c-0.716-0.12-1.449-0.145-2.42-0.237
		c-0.159-1.214-0.305-2.32-0.515-3.926c-1.31,1.657-1.32,3.123-1.206,4.931c1.942,0.353,3.865,0.703,6.031,1.097
		c-0.126,1.164,0.095,2.284-0.363,2.795c-1.694,1.886-2.379,4.56-3.97,6.181c-2.015,2.052-2.006,4.099-2.025,6.418
		c-0.435,52.592-0.86,105.183-1.276,157.775c-0.01,1.297,0.111,2.595,0.171,3.893C53.949,306.042,54.237,306.085,54.525,306.127z"/>
	<path style="fill:#BB9F63;" d="M75.129,22.313c0.29-0.25,0.581-0.499,0.871-0.749c4.415-3.226,9.428-3.763,14.666-3.231
		c17.845,1.813,27.41,13.024,32.408,29.042c2.301,7.375,2.361,15.151,2.675,22.83c0.053,1.285,0.007,2.575,0.738,4.019
		c0.226-0.433,0.668-0.876,0.647-1.297c-0.398-7.966-0.321-16.004-2.269-23.794c-2.654-10.612-7.661-19.902-16.899-26.222
		c-8.892-6.084-18.827-7.654-29.174-4.825c-3.299,0.902-6.557,2.825-9.219,5.024c-7.836,6.476-13.462,14.508-15.151,24.792
		c-0.931,5.668-1.647,11.374-2.36,17.075c-0.132,1.058,0.214,2.176,0.426,4.019c1.969-1.883,1.872-3.669,2.092-5.289
		c0.435-3.213,0.755-6.441,1.198-9.653c0.074-0.538,0.531-1.024,0.812-1.533l-0.113,0.098c0.386-3.342,0.521-6.738,1.218-10.014
		c0.959-4.506,3.153-8.242,7.3-10.829c2.186-1.364,3.798-3.635,5.709-5.454C72.146,24.951,73.652,23.647,75.129,22.313z"/>
	<path style="fill:#BB9F63;" d="M261.911,60.801c-0.933-0.409-1.867-0.818-2.929-1.283c7.784-1.42,13.974,0.631,19.613,5.829
		c6.983,6.436,10.288,14.636,11.619,23.695c0.768,5.227,0.737,10.574,1.005,15.87c0.096,1.898,0.015,3.806,0.015,6.332
		c1.92-3.351,1.271-6.343,1.196-9.222c-0.221-8.412-0.665-16.785-3.836-24.779c-1.991-5.02-4.921-9.384-8.262-13.551
		c-3.08-3.842-7.538-5.403-11.949-6.233c-6.451-1.215-12.993-0.916-18.794,2.954c-0.703,0.469-1.319,1.067-2.33,1.896
		c2.378-0.306,4.233-0.614,6.101-0.772c5.04-0.426,8.954,2.033,11.958,5.599c5.044,5.987,8.297,12.775,8.233,20.938
		c-0.041,5.3,0.499,10.609,0.884,15.906c0.125,1.727,0.582,3.431,1.139,5.078c0-5.653,0.122-11.31-0.046-16.958
		c-0.1-3.373-0.57-6.745-1.022-10.097c-1.138-8.45-4.922-15.365-12.02-20.313c-0.314-0.219-0.462-0.676-0.687-1.023L261.911,60.801z
		"/>
	<path style="fill:#BB9F63;" d="M286.503,160.153c-3.391,0.205-6.25,0.379-9.291,0.563c-0.285,6.124-0.557,11.698-0.762,17.274
		c-0.01,0.267,0.575,0.556,1.451,1.35c0.851-5.527-0.473-10.65,0.509-15.981c1.943,0,3.892,0,6.166,0
		c-0.239,6.135-0.029,12.213-0.823,18.158c-0.969,7.262-0.732,14.457-0.236,21.678c0.831,12.116,0.882,24.204-0.011,36.331
		c-0.542,7.362-0.335,14.78-0.426,22.173c-0.006,0.5,0.308,1.003,0.742,2.324c0.547-1.331,0.957-1.911,1-2.518
		c0.104-1.472-0.012-2.958,0.049-4.435c0.287-6.938,0.744-13.871,0.875-20.812c0.184-9.752,0.32-19.512,0.136-29.263
		c-0.242-12.867-0.491-25.722,0.591-38.567C286.68,165.962,286.503,163.464,286.503,160.153z"/>
	<path style="fill:#BB9F63;" d="M20.746,45.231c-2.691,1.118-4.183,1.737-5.899,2.45c0,10.403,0,20.833,0,31.624
		c2.46,0,4.854,0,7.688,0C23.115,67.924,21.618,56.966,20.746,45.231z"/>
	<path style="fill:#BB9F63;" d="M25.534,225.342c5.04-0.431,6.22-3.861,6.743-7.755c0.384-2.858-0.262-3.472-3.783-3.828
		c-0.711,1.025-1.449,2.086-2.46,3.542c-2.08-2.601-1.774-5.427-1.938-8.055c-0.171-2.733-0.038-5.485-0.038-8.553
		c-2.547,4.036-1.794,13.959,1.47,18.54c1.499-1.288,2.959-2.543,4.426-3.804c1.469,5.215,0.475,6.672-6.366,9.198
		c0.49,1.771,1.096,3.553,1.467,5.384c0.884,4.353-0.842,8.542-4.326,10.88c-1.316,0.884-2.563,1.081-4.148,0.465
		c-5.143-2-7.689-6.713-6.329-12.106c0.276-1.093,0.582-2.178,0.936-3.495c-2.516-0.519-4.821-0.598-6.733-1.506
		c-1.73-0.822-3.03-2.549-4.455-3.819c0.302,4.435,2.725,6.649,8.728,7.831c-0.207,1.871-0.368,3.752-0.629,5.619
		c-1.047,7.501,9.596,13.077,15.453,9.925c1.788-0.962,2.997-2.279,3.625-4.249C28.576,235.172,28.221,231.26,25.534,225.342z"/>
	<path style="fill:#BB9F63;" d="M120.236,102.126c-0.722-2.033-1.099-3.096-1.483-4.178c-0.635,0-1.224-0.181-1.45,0.028
		c-2.172,2.017-2.342,4.524-0.524,6.573c2.67,3.01,7.503,3.363,10.882,0.796c3.773-2.867,4.569-6.667,1.947-10.48
		c-3.749-5.453-9.285-7.354-15.523-6.436c-4.614,0.679-9.081,2.352-13.486,4.431c1.444-0.224,2.884-0.471,4.331-0.667
		c5.311-0.719,10.616-1.002,15.843,0.54c1.72,0.507,3.623,1.162,3.952,3.132c0.223,1.333-0.016,3.06-0.745,4.14
		C123.317,100.991,121.714,101.343,120.236,102.126z"/>
	<path style="fill:#BB9F63;" d="M271.866,268.065c0.086-1.581,0.237-3.161,0.248-4.742c0.241-33.922,0.406-67.844,0.828-101.763
		c0.028-2.278-1.993-2.957-2.265-5.07c5.738-1.634,11.71,0.019,17.239-2.33c-6.117,0-12.234,0-18.641,0
		c-0.222-1.456-0.389-2.552-0.584-3.832c-0.365,0.237-0.915,0.42-0.925,0.63c-0.056,1.112-0.288,2.363,0.119,3.32
		c0.849,1.999,2.23,3.775,3.059,5.78c0.533,1.289,0.658,2.824,0.647,4.247c-0.156,19.848-0.385,39.696-0.56,59.544
		c-0.121,13.628-0.191,27.256-0.269,40.884c-0.007,1.169,0.096,2.34,0.148,3.509C271.228,268.183,271.547,268.124,271.866,268.065z"
		/>
	<path style="fill:#BB9F63;" d="M140.771,205.22c-9.157-16.366-9.626-33.55-4.842-50.871c4.844-17.537,15.737-30.547,32.038-37.961
		c-0.438-3.255-1.196-5.988-1.063-8.676c0.15-3.038,2.471-4.777,5.906-5.806c-7.018-0.021-9.2,4.945-6.254,13.473
		c-1.422,0.784-2.952,1.575-4.431,2.452c-17.054,10.12-26.46,25.234-29.258,44.705c-1.207,8.404-1.541,16.782,0.033,25.173
		C134.115,194.174,136.764,200.013,140.771,205.22z"/>
	<path style="fill:#BB9F63;" d="M148.965,293.739c0.31-1.087,0.784-1.98,0.787-2.875c0.042-11.093,0.055-22.186-0.031-33.278
		c-0.015-1.899-0.547-3.79-0.804-5.69c-1.258-9.313,0.1-18.582,0.482-27.867c0.087-2.114,0.976-4.301-0.522-6.549
		c-2.084,0.969-1.601,2.743-1.618,4.189c-0.093,8.282-0.165,16.565-0.145,24.848c0.034,14.05,0.12,28.099,0.247,42.148
		C147.376,290.306,146.65,292.252,148.965,293.739z"/>
	<path style="fill:#BB9F63;" d="M24.736,79.793c19.309-0.779,38.196-1.542,57.083-2.304c-0.005-0.22-0.009-0.441-0.014-0.661
		c-18.392,0.333-36.783,0.665-55.466,1.003c0-4.414-0.032-8.22,0.009-12.026c0.043-3.985-0.055-7.888-1.037-11.847
		c-0.84-3.389-0.688-7.037-0.855-10.576c-0.153-3.249-0.098-6.507-0.238-9.757c-0.04-0.93-0.438-1.846-1.101-2.698
		C22.886,46.967,23.949,62.908,24.736,79.793z"/>
	<path style="fill:#BB9F63;" d="M155.756,87.9c-1.211,2.931-2.331,4.827-4.671,6.029c-1.049,0.539-1.645,2.315-2.047,3.65
		c-0.327,1.085-0.202,2.372-0.027,3.531c0.91,6.046,0.935,12.086,0.293,18.162c-0.144,1.368,0.346,2.803,0.544,4.207
		c0.326-0.02,0.651-0.039,0.976-0.059c0.227-8.878,0.453-17.756,0.665-26.036c2.088-1.821,3.944-3.058,5.251-4.724
		c0.779-0.993,0.696-2.661,1.09-4.428c7.137,0.77,14.232,2.292,20.253,7.603c-0.462-0.713-0.805-1.554-1.407-2.117
		c-3.111-2.908-6.926-4.471-10.994-5.473c-8.397-2.069-16.935-2.814-25.551-2.325c-5.138,0.292-10.257,0.926-15.371,1.831
		C135.043,87.291,145.301,86.784,155.756,87.9z"/>
	<path style="fill:#BB9F63;" d="M45.468,0c-1.859,2.681-2.091,5.659-2.064,8.634C43.527,21.8,44.2,34.983,43.725,48.125
		c-0.311,8.597-0.611,17.136,0.149,25.701c0.064,0.721,0.141,1.44,0.774,2.26c0.244-0.857,0.662-1.706,0.702-2.573
		c0.21-4.583,0.45-9.17,0.451-13.756c0.003-18.95-0.073-37.901-0.134-56.851C45.663,1.938,45.537,0.969,45.468,0z"/>
	<path style="fill:#BB9F63;" d="M269.049,115.014c0.292,0.021,6.967,3.483,10.747,4.212c2.165,0.417,4.384,0.553,6.559,0.928
		c2.168,0.375,3.582-0.484,5.004-2.78c-3.926-0.27-7.389-0.508-10.852-0.746c0.002-0.134,0.005-0.267,0.007-0.401
		c4.713-0.426,9.425-0.853,14.272-1.291c-0.31-2.752-1.964-2.48-3.356-2.498c-6.205-0.078-12.41-0.119-18.615-0.165
		c-1.901-0.014-3.803-0.002-5.876-0.002C267.409,113.724,269.049,115.014,269.049,115.014z"/>
	<path style="fill:#BB9F63;" d="M106.651,28.477c1.293,0.931,2.774,1.683,3.847,2.821c6.653,7.056,10.084,15.56,10.81,25.161
		c0.379,5.016,0.48,10.053,0.784,15.076c0.064,1.063,0.47,2.105,0.718,3.156c0.319,0.036,0.638,0.071,0.956,0.107
		c0.396-0.789,1.155-1.594,1.123-2.365c-0.111-2.647-0.461-5.288-0.79-7.922c-0.549-4.395-0.989-8.813-1.763-13.17
		c-2.234-12.58-9.42-21.799-20.002-28.52c-2.952-1.875-6.261-3.03-9.965-2.739c2.839,2.36,5.442,4.524,8.26,6.866
		c0.787-0.424,1.643-0.885,2.888-1.555c0.813,0.772,1.834,1.742,2.856,2.713C106.408,28.272,106.501,28.396,106.651,28.477z"/>
	<path style="fill:#BB9F63;" d="M175.071,59.133c1.336-1.341,2.908-2.59,4.601-3.403c3.343-1.606,5.744-4.035,7.585-7.172
		c0.351-0.598,1.059-0.986,1.644-1.51c0,7.24,0.04,14.124-0.043,21.007c-0.013,1.055-0.597,2.103-1.153,3.931
		c-2.297-3.118-0.895-7.769-5.61-8.592c-0.167,4.127,0.181,8.364-4.668,10.436C171.127,70.089,170.175,64.047,175.071,59.133z
		 M180.484,65.862c-0.411-1.651-0.086-2.996,1.393-3.821c1.659-0.926,2.764,0.238,3.827,1.304c0.376,0.377,0.734,0.772,1.719,1.812
		c0-4.989,0-9.165,0-13.276c-2.87,2.54-5.975,5.016-8.733,7.833c-1.607,1.641-2.939,3.698-3.891,5.796
		c-1.405,3.099-1.138,3.372,2.219,5.547C179.531,70.244,181.221,68.824,180.484,65.862z"/>
	<path style="fill:#BB9F63;" d="M261.799,60.666c5.831,2.192,8.027,4.618,13.711,15.378c0.305-1.126,0.301-1.985,0.721-2.499
		c1.51-1.85,3.692-1.756,5.223,0.215c3.435,4.424,5.249,9.587,6.125,15.012c0.633,3.921,0.69,7.939,0.936,11.918
		c0.099,1.593,0.016,3.197,0.758,4.841c0.145-0.886,0.383-1.768,0.421-2.658c0.393-9.123-0.43-18.054-4.721-26.32
		c-4.581-8.824-11.291-15.005-21.464-16.62c-0.474-0.075-1.062,0.562-1.596,0.867L261.799,60.666z"/>
	<path style="fill:#BB9F63;" d="M23.749,155.483c3.301-11.061,3.046-22.372,1.353-34.514c3.731,3.131,7.032,5.473,12.541,4.229
		c-3.188-1.814-5.811-2.953-8.001-4.652c-2.134-1.656-3.823-3.884-6.008-6.174c-0.298,13.944-0.587,27.505-0.877,41.065
		C23.088,155.452,23.419,155.467,23.749,155.483z"/>
	<path style="fill:#BB9F63;" d="M214.558,294.988c0.59-20.069,0.219-39.455,0.083-59.574c-1.862,2.958-2.65,13.376-2.659,29.774
		C211.974,280.922,212.798,291.878,214.558,294.988z"/>
	<path style="fill:#BB9F63;" d="M233.611,226.687c-0.181,17.363-0.371,34.725-0.514,52.088c-0.006,0.764,0.421,1.532,0.917,3.217
		c2.022-4.306,0.996-7.974,1.233-11.472c0.249-3.686,0.131-7.396,0.229-11.093c0.099-3.697,0.304-7.392,0.395-11.09
		c0.09-3.698,0.231-7.403,0.101-11.096c-0.127-3.583,0.93-7.36-1.222-10.684C234.371,226.6,233.991,226.643,233.611,226.687z"/>
	<path style="fill:#BB9F63;" d="M194.658,236.032c-1.152,1.277-1.803,1.694-1.97,2.256c-0.247,0.825-0.202,1.754-0.189,2.638
		c0.218,14.808,0.477,29.615,0.656,44.423c0.034,2.8-0.255,5.603-0.346,8.406c-0.025,0.772,0.127,1.549,0.67,2.318
		c1.786-9.869,0.491-19.819,0.762-29.714C194.507,256.596,196.002,246.81,194.658,236.032z"/>
	<path style="fill:#BB9F63;" d="M287.263,125.563c-3.497,0-6.665,0-10.141,0c0,6.086,0,11.938,0,18.276
		c3.476-5.354,2.925-11.387,4.416-17.14c1.712,0.078,3.279,0.15,4.778,0.218c-0.532,7.373-1.045,14.48-1.58,21.894
		c-2.526,0-4.827,0-7.128,0c2.32,2.244,5.055,1.796,7.657,1.436c0.583-0.08,1.233-1.536,1.386-2.437
		c0.245-1.44,0.082-2.946,0.121-4.424C286.923,137.648,287.087,131.911,287.263,125.563z"/>
	<path style="fill:#BB9F63;" d="M120.557,123.02c-3.447,0.872-5.992,1.517-8.912,2.256c0-3.943,0-7.866,0-11.789
		c-0.26-0.009-0.521-0.017-0.781-0.026c-0.349,4.93-0.699,9.86-1.09,15.38c4.533,0.555,8.663-0.048,13.379-0.549
		c0-4.937,0.065-9.623-0.07-14.304c-0.02-0.703-0.975-1.378-1.498-2.066c-0.343,0.113-0.685,0.226-1.028,0.339
		C120.557,115.835,120.557,119.409,120.557,123.02z"/>
	<path style="fill:#BB9F63;" d="M182.666,135.367c0.404,1.366,0.808,2.733,1.301,4.399c2.251,0.243,4.706,1.091,6.421-1.637
		c1.126,0.668,2.212,1.312,3.298,1.956c0.243-0.211,0.485-0.422,0.728-0.633c-0.587-1.883-1.173-3.766-1.789-5.742
		c0.696-1.524,1.423-3.116,2.129-4.662c-1.62-1.728-2.591-0.086-3.642,0.469c-1.474-1.008-0.812-3.993-4.28-3.746
		c0.371,1.437,0.464,2.719,1.015,3.758c1.655,3.123,1.349,5.901-1.48,8.924c-0.441-4.173-0.843-7.974-1.256-11.879
		c-1.416-0.401-2.391-0.232-2.409,1.419c-0.027,2.507,0.038,5.015,0.065,7.523L182.666,135.367z"/>
	<path style="fill:#BB9F63;" d="M277.223,184.04c-0.335,23.933-0.669,47.866-1.004,71.799c0.372,0.044,0.743,0.088,1.115,0.131
		c0.1-1.006,0.443-2.06,0.26-3.011c-0.911-4.722-0.242-9.402-0.077-14.131c0.547-15.67,0.73-31.353,0.958-47.032
		c0.038-2.602-0.401-5.21-0.619-7.816C277.645,184,277.434,184.02,277.223,184.04z"/>
	<path style="fill:#BB9F63;" d="M48.011,88.618c8.275,5.473,8.275,5.473,10.065,18.244c11.316-7.123,22.744-13.754,35.268-18.288
		c-6.079,0.986-11.677,3.335-17.042,6.166c-5.453,2.878-10.719,6.111-16.329,9.34c0.249-5.344-1.302-9.916-5.189-13.49
		C52.967,88.92,51.013,88.44,48.011,88.618z"/>
	<path style="fill:#BB9F63;" d="M128.404,90.415c2.559,2.901,4.044,6.059,3.691,10.005c-0.466,5.209-5.603,9.069-10.691,7.778
		c-1.562-0.397-3.165-0.866-4.56-1.642c-4.248-2.361-4.511-7.691-0.612-10.641c0.534-0.404,1.15-0.7,1.594-1.52
		c-0.818,0.098-1.763-0.037-2.433,0.33c-4.306,2.36-5.071,9.836-1.41,13.131c3.598,3.238,11.036,3.09,15.725-0.314
		c3.854-2.797,5.122-7.979,3.139-12.739C131.985,92.734,130.531,91.292,128.404,90.415z"/>
	<path style="fill:#BB9F63;" d="M31.108,97.516c9.405-1.917,12.172-1.087,14.815,4.444c2.431,5.087,2.042,7.843-1.858,11.19
		c-0.974-1.391-1.918-2.74-2.936-4.194c-1.107,2.934-0.712,4.48,1.282,5.647c1.685,0.986,3.937,0.674,5.117-1.068
		c0.88-1.3,1.554-2.869,1.85-4.409c0.704-3.66-0.399-7.036-2.393-10.083C43.308,93.427,36.324,92.79,31.108,97.516z"/>
	<path style="fill:#BB9F63;" d="M209.459,236.08c-0.387,7.049-0.716,13.057-1.035,18.876c-3.289,0-6.147,0-9.441,0
		c-0.97-5.375,0.413-11.199-0.732-16.906c-0.683,6.132-1.56,12.243-1.036,18.518c3.549,0.544,6.697,1.131,9.871,1.478
		c2.346,0.256,3.922-1.038,3.869-3.168c-0.139-5.579-0.423-11.154-0.676-16.729C210.261,237.793,210.01,237.446,209.459,236.08z"/>
	<path style="fill:#BB9F63;" d="M19.577,234.335c-2.108,1.411-3.227,0.489-4.138-1.135c-1.222-2.177-0.995-4.473,0.581-6.137
		c2.211-2.334,3.944,0.217,6.226,0.137c-1.263-0.946-2.526-1.892-3.677-2.754c-5.837,2.219-7.907,7.75-4.853,12.393
		c1.368,2.079,3.989,3.144,6.135,2.492c1.659-0.504,3.213-2.534,3.325-4.344c0.121-1.953-0.871-3.079-3.957-4.186
		C19.344,232.023,19.449,233.067,19.577,234.335z"/>
	<path style="fill:#BB9F63;" d="M161.895,70.848c-2.956,1.719-3.831,1.688-5.159-0.215c-1.368-1.96-1.016-4.07,0.977-5.849
		c2.134-1.905,5.504-1.923,8.602-0.047c2.13,1.29,3.237,4.096,2.554,6.476c-0.796,2.775-2.976,4.258-6.565,4.397
		c0.309-1.551,0.613-3.08,1.032-5.183C162.443,70.682,162.136,70.708,161.895,70.848z M163.782,65.966
		c-0.996-0.63-2.506-0.945-3.651-0.722c-1.552,0.302-1.703,1.845-1.505,3.249c0.08,0.567,0.306,1.114,0.466,1.672
		c1.561-0.465,3.169-1.475,4.404-1.134c0.911,0.251,1.335,2.266,2.025,3.589C166.455,69.298,166.075,67.416,163.782,65.966z"/>
	<path style="fill:#BB9F63;" d="M222.414,174.583c2.133,1.073,4.475,2.251,6.855,3.447c1.573-3.328-1.658-3.359-2.916-4.898
		c0.386-1.843,4.849-1.257,2.82-4.956c-2.335,1.096-4.683,2.198-7.307,3.429c-1.547-0.987-3.356-2.143-5.246-3.35
		c-1.612,2.252,0.04,3.065,1.301,4.079c-0.735,1.068-1.475,2.145-2.415,3.512C218.373,176.92,220.035,174.607,222.414,174.583z"/>
	<path style="fill:#BB9F63;" d="M266.939,115.416c-0.934-1.228-0.63-2.036-1.661-3.176c-0.426-0.471-1.2-0.627-2.387-1.205
		c0.429,4.051,1.609,6.575,5.586,7.049c-0.186,2.495-0.468,5.028,3.324,5.29c0,4.446-0.083,8.703,0.023,12.954
		c0.107,4.246,0.404,8.487,1.434,12.755c0.036-2.75,0.1-5.499,0.099-8.249c-0.001-2.951-0.078-5.901-0.096-8.852
		c-0.018-2.949-0.004-5.898-0.004-8.095c-2.049-3.144-3.977-5.132-5.609-7.636L266.939,115.416z"/>
	<path style="fill:#BB9F63;" d="M185.832,203.381c-1.959-0.498-2.762,0.188-3.116,1.801c-0.815,3.718-1.731,7.415-2.627,11.209
		c1.128,0.827,2.124,1.259,2.749-0.385c0.603-1.583,1.073-3.217,1.648-4.969c2.131,1.814,0.244,5.752,4.594,6.249
		C188.607,212.246,187.026,207.789,185.832,203.381z"/>
	<path style="fill:#BB9F63;" d="M117.525,47.088c-1.007-4.061-2.585-7.385-4.657-10.957c-1.611,1.345-2.811,2.347-4.107,3.429
		c0.815,3.091,1.582,6.002,2.505,9.501C113.427,48.38,115.41,47.755,117.525,47.088z"/>
	<path style="fill:#BB9F63;" d="M56.591,52.522c-0.484,5.382-0.968,10.763-1.501,16.687c3.339,0.559,6.595,1.105,10.05,1.684
		c0.086,1.085,0.177,2.219,0.269,3.383c0.28-0.067,0.586-0.047,0.707-0.188c0.286-0.33,0.52-0.718,0.711-1.114
		c1.888-3.9,1.212-5.05-3.082-5.266c-0.882-0.044-1.779,0.002-2.645-0.141c-1.305-0.216-2.588-0.563-4.442-0.98
		c0.117-1.606,0.308-3.289,0.347-4.974c0.07-3.008,1.32-6.096-0.529-8.993L56.591,52.522z"/>
	<path style="fill:#BB9F63;" d="M100.122,85.887c-14.883-0.664-28.805,0.4-42.734,2.259c2.64,0,5.284,0.082,7.92-0.022
		c2.955-0.116,5.9-0.449,8.854-0.595c2.807-0.138,5.625-0.087,8.431-0.246c2.95-0.167,5.969-0.157,8.814-0.832
		C94.056,85.823,96.759,88.099,100.122,85.887z"/>
	<path style="fill:#BB9F63;" d="M212.213,50.317c-10.022-5.736-13.431-14.986-13.902-26.419c-1.608,1.909-1.532,3.458-1.183,4.777
		c1.282,4.844,2.667,9.666,4.232,14.424c0.383,1.165,1.431,2.287,2.462,3.029c2.453,1.767,5.078,3.296,7.634,4.921
		C211.709,50.806,211.961,50.561,212.213,50.317z"/>
	<path style="fill:#BB9F63;" d="M110.193,66.74c1.906-13.842-2.239-32.715-10.006-37.306
		C108.855,41.097,109.217,54.008,110.193,66.74z"/>
	<path style="fill:#BB9F63;" d="M111.815,52.122c0.396,1.756,0.642,2.843,0.993,4.401c0.937-1.521,1.62-2.629,2.348-3.81
		c2.061,2.046,2.061,2.046,1.552,8.387c-0.393,0.164-0.889,0.389-1.398,0.579c-0.497,0.186-1.007,0.336-1.5,0.866
		c1.795,0.983,3.64,0.908,6.108,0.492c-0.525-4.062-1.023-7.906-1.594-12.321C116.064,51.204,114.173,51.613,111.815,52.122z"/>
	<path style="fill:#BB9F63;" d="M281.247,93.562c-0.437-0.661-0.873-1.323-1.31-1.984c-0.175,0.053-0.349,0.107-0.524,0.16
		c0.515,1.709,1.03,3.418,1.514,5.026c1.856,0,3.146,0,4.525,0c1.053-3.852-0.272-7.288-1.175-11.305
		c-1.682,0.46-3.129,0.856-4.576,1.252c-0.007,0.294-0.014,0.588-0.021,0.883c1.074,0.375,2.149,0.751,3.65,1.275
		c-0.298,1.563-0.601,3.151-0.904,4.739C282.034,93.593,281.641,93.577,281.247,93.562z"/>
	<path style="fill:#BB9F63;" d="M145.953,65.504c1.26-12.084,3.426-22.721,14.063-30.246
		C150.386,37.681,144.267,54.186,145.953,65.504z"/>
	<path style="fill:#BB9F63;" d="M285.84,111.116c0-2.807,0.081-4.993-0.019-7.17c-0.157-3.429-1.387-3.936-4.808-2.083
		c2.892,1.768,2.892,1.768,1.808,6.049c-0.475-1.55-0.786-2.562-1.096-3.574c-1.571,1.849-1.115,3.799-1.163,6.175
		C282.31,110.712,283.895,110.893,285.84,111.116z"/>
	<path style="fill:#BB9F63;" d="M112.666,67.15c-0.304,2.331-0.577,4.428-0.851,6.525c0.296,0.076,0.592,0.152,0.888,0.228
		c0.287-0.787,0.593-1.568,0.857-2.363c0.313-0.945,0.591-1.901,0.893-2.884c3.61,0.162,2.275,3.817,4.054,5.088
		c1.816-1.244,2.399-3.209,1.571-5.318C119.276,66.384,118.018,66.138,112.666,67.15z"/>
	<path style="fill:#BB9F63;" d="M105.346,128.259c0.222-0.171,0.62-0.322,0.641-0.515c1.226-11.134,1.681-22.29,0.819-33.476
		c-0.007-0.091-0.175-0.17-0.419-0.394c-1.426,0.921-0.774,2.357-0.747,3.525c0.098,4.269,0.482,8.539,0.425,12.804
		c-0.061,4.556-0.525,9.105-0.759,13.66c-0.075,1.462,0.024,2.932,0.043,4.399L105.346,128.259z"/>
	<path style="fill:#BB9F63;" d="M215.921,179.628c1.188,0.366,2.356,0.835,3.569,1.078c2.728,0.548,5.477,0.985,8.218,1.468
		c1.358,0.239,1.9-0.418,1.879-1.699c-2.742-1.398-9.64-2.297-13.453-1.757C216.063,179.021,215.992,179.325,215.921,179.628z"/>
	<path style="fill:#BB9F63;" d="M192.062,217.097c0.694-4.861-0.484-12.091-2.616-14.373c-0.196,1.038-0.51,1.807-0.45,2.547
		c0.259,3.228,0.601,6.45,0.967,9.667C190.1,216.142,190.376,217.338,192.062,217.097z"/>
	<path style="fill:#BB9F63;" d="M158.91,171.963c-4.244,0-7.851,0-11.583,0c0,0.792,0,1.344,0,2.096
		c3.652,0,7.26,0.023,10.865-0.066C158.382,173.989,158.548,173.025,158.91,171.963z"/>
	<path style="fill:#BB9F63;" d="M182.767,135.516c-0.331-2.133-0.697-4.261-0.98-6.4c-0.156-1.18-0.119-2.42-2.372-2.434
		c-0.866,4.562,1.153,8.64,2.039,13.46c1.801-1.695,1.118-3.33,1.214-4.775L182.767,135.516z"/>
	<path style="fill:#BB9F63;" d="M159.27,169.826c-3.17-2.362-6.087-2.764-12.04-2.014c0.141,0.633,0.169,1.717,0.428,1.775
		C151.296,170.404,154.932,170.111,159.27,169.826z"/>
	<path style="fill:#BB9F63;" d="M106.651,28.477c-0.151-0.081-0.243-0.205-0.278-0.371c-0.823-0.064-1.646-0.127-2.734-0.212
		c-0.054,3.821,2.575,5.608,4.452,8.164c0.948-0.862,1.673-1.521,2.505-2.278C109.222,31.933,107.937,30.205,106.651,28.477z"/>
	<path style="fill:#BB9F63;" d="M145.515,95.318c0,6.757,0,13.207,0,19.657c0.135,0.012,0.27,0.024,0.404,0.036
		c0.111-0.757,0.263-1.511,0.326-2.273c0.402-4.856,0.738-9.718,1.207-14.567C147.572,96.945,147.995,95.802,145.515,95.318z"/>
	<path style="fill:#BB9F63;" d="M158.743,176.647c-3.898-0.753-7.428-0.523-10.94-0.119c-0.302,0.035-0.48,1.144-0.728,1.786
		C150.915,179.134,155.4,178.534,158.743,176.647z"/>
	<path style="fill:#BB9F63;" d="M277.972,76.105c3.189,2.009,3.443,3.594,1.073,6.148c0.842,1.188,2.002,2.129,3.237,0.965
		c0.668-0.63,0.901-2.163,0.703-3.164c-0.278-1.402-1.05-2.74-1.779-4.008C280.438,74.713,279.368,74.744,277.972,76.105z"/>
	<path style="fill:#BB9F63;" d="M244.088,166.544c1.377-0.279,2.762-0.559,4.312-0.873c0-1.174,0-2.145,0-3.622
		c-1.372,0.134-2.722-0.022-3.813,0.437C242.704,163.277,243.301,164.793,244.088,166.544z"/>
	<path style="fill:#BB9F63;" d="M214.362,217.121"/>
	<path style="fill:#BB9F63;" d="M237.674,90.849c-2.782,6.267-2.852,7.728-0.52,9.833C238.905,97.402,237.597,94.077,237.674,90.849
		z"/>
	<path style="fill:#BB9F63;" d="M244.024,168.256c0.067,1.36,0.107,2.18,0.155,3.155c1.733,0,3.25,0,4.858,0
		c0-1.075,0-1.867,0-2.911C247.4,168.421,245.993,168.352,244.024,168.256z"/>
	<path style="fill:#BB9F63;" d="M249.31,177.804c-0.694-3.029-0.694-3.029-4.899-3.02c-0.063,0.904-0.127,1.828-0.211,3.02
		C245.928,177.804,247.423,177.804,249.31,177.804z"/>
	<path style="fill:#BB9F63;" d="M182.871,77.49c1.909,0,3.818,0,5.776,0c-0.453-3.787-1.071-4.212-3.537-2.729
		c-0.848,0.51-1.609,1.164-2.409,1.752C182.757,76.839,182.814,77.165,182.871,77.49z"/>
	<path style="fill:#BB9F63;" d="M248.697,182.01c-1.786-0.378-3.016-0.638-4.477-0.947c-0.121,1.09-0.214,1.927-0.347,3.123
		c1.448,0.317,2.787,0.611,4.426,0.97C248.449,183.965,248.551,183.159,248.697,182.01z"/>
	<path style="fill:#BB9F63;" d="M278.095,94.659c0,4.769,0,9.537,0,14.306c0.154-0.001,0.309-0.001,0.463-0.002
		c0-4.756,0-9.511,0-14.267C278.403,94.684,278.249,94.672,278.095,94.659z"/>
	<path style="fill:#BB9F63;" d="M274.128,121.896c4.585,0,9.17,0,13.754,0c0.003-0.214,0.006-0.428,0.008-0.642
		c-4.592,0-9.184,0-13.776,0C274.12,121.468,274.124,121.682,274.128,121.896z"/>
	<path style="fill:#BB9F63;" d="M189.853,162.875c0,2.457,0,4.914,0,7.637c0.948,0.112,1.801,0.406,2.581,0.272
		c2.797-0.482,4.365-1.861,4.276-3.552c-0.111-2.11-2.213-4.047-4.813-4.338c-0.716-0.08-1.459,0.08-2.189,0.129L189.853,162.875z"
		/>
	<path style="fill:#BB9F63;" d="M185.37,170.057c-3.27,0.811-4.315,1.682-4.445,3.903c-0.123,2.103,0.576,3.688,3.267,4.213
		c-0.501-1.629-1.427-3.098-1.189-4.344c0.202-1.056,1.751-1.854,2.734-2.795c-0.141-0.306-0.324-0.701-0.506-1.096L185.37,170.057z
		"/>
</g>
</svg>
