<?xml version="1.0" standalone="no"?>
<!DOCTYPE svg PUBLIC "-//W3C//DTD SVG 20010904//EN"
 "http://www.w3.org/TR/2001/REC-SVG-20010904/DTD/svg10.dtd">
<svg version="1.0" xmlns="http://www.w3.org/2000/svg"
 width="700.000000pt" height="700.000000pt" viewBox="0 0 700.000000 700.000000"
 preserveAspectRatio="xMidYMid meet">
<metadata>
Created by potrace 1.11, written by Peter Selinger 2001-2013
</metadata>
<g transform="translate(0.000000,700.000000) scale(0.100000,-0.100000)"
fill="#000000" stroke="none">
<path d="M3750 6927 c-3 -3 -25 -8 -50 -10 -25 -3 -70 -11 -100 -17 -30 -6
-111 -12 -180 -15 -170 -6 -271 -24 -435 -79 -62 -21 -124 -37 -190 -50 -21
-4 -375 -96 -460 -119 -28 -8 -59 -19 -70 -25 -37 -22 -126 -52 -135 -47 -5 3
-7 12 -3 20 3 8 2 15 -2 15 -3 0 -54 -27 -113 -59 -59 -32 -143 -78 -187 -101
-309 -162 -329 -174 -455 -282 -54 -46 -109 -91 -176 -144 -122 -98 -191 -160
-239 -217 -27 -32 -54 -56 -61 -53 -6 2 -25 -9 -40 -25 -23 -24 -26 -32 -14
-39 23 -14 -7 -63 -36 -56 -17 5 -24 -1 -37 -35 -9 -22 -13 -47 -10 -55 7 -18
-15 -45 -35 -42 -19 4 -53 -53 -40 -68 5 -8 2 -25 -9 -48 -18 -38 -27 -44 -39
-24 -5 8 -14 -2 -25 -27 -12 -27 -15 -43 -7 -52 12 -15 -20 -73 -42 -73 -20
-1 -54 -70 -34 -70 11 0 10 -9 -6 -40 -11 -22 -27 -40 -35 -40 -17 0 -46 -62
-33 -71 4 -3 -7 -48 -26 -100 -19 -52 -75 -209 -126 -349 -302 -838 -354
-1145 -241 -1435 22 -56 25 -75 16 -79 -14 -5 -14 -15 -1 -53 5 -16 13 -20 30
-17 18 3 29 -5 50 -37 30 -45 30 -46 -19 -68 l-34 -16 16 -32 c18 -37 26 -39
78 -17 36 15 39 14 59 -5 24 -25 18 -32 -46 -56 l-46 -17 13 -32 c17 -41 33
-43 95 -11 l51 26 19 -23 c21 -26 25 -38 11 -38 -8 0 -48 -24 -109 -65 -1 -1
5 -18 15 -36 10 -19 19 -35 20 -37 0 -2 30 15 66 37 35 23 67 41 70 41 3 0 14
-14 25 -32 l20 -32 -44 -28 c-24 -15 -44 -30 -44 -33 0 -3 12 -21 26 -39 l27
-33 43 30 c43 30 44 30 59 11 21 -28 19 -36 -26 -68 l-40 -28 27 -29 27 -29
33 25 c40 30 46 31 62 4 12 -19 10 -24 -23 -51 l-36 -31 27 -28 27 -28 28 21
c23 18 31 19 44 8 20 -17 19 -46 -2 -54 -14 -6 -12 -11 12 -36 15 -15 33 -26
40 -23 17 6 49 -42 40 -57 -4 -7 8 -28 27 -48 19 -21 82 -115 139 -210 130
-217 118 -197 160 -262 82 -127 291 -388 443 -554 75 -81 283 -290 334 -334
112 -98 128 -110 212 -165 167 -108 399 -206 610 -257 52 -13 119 -30 148 -38
29 -8 69 -16 90 -16 88 -4 103 -6 98 -15 -3 -5 11 -11 31 -14 23 -4 40 -2 44
5 4 7 20 8 43 4 20 -4 34 -11 31 -17 -4 -5 11 -9 34 -9 23 0 41 5 41 10 0 11
59 11 75 0 13 -9 685 -5 745 4 149 22 180 28 225 42 58 18 102 39 131 66 18
16 105 72 159 102 11 6 34 21 50 32 75 54 254 127 365 150 51 11 177 56 246
89 71 34 233 137 269 171 11 11 38 33 60 51 58 45 215 207 280 288 31 39 64
79 72 90 9 10 48 64 86 120 104 149 190 266 292 396 95 123 101 130 168 224
50 70 127 192 127 201 0 3 9 19 20 34 19 27 210 403 210 414 0 3 11 29 24 58
54 121 69 154 71 163 1 6 5 17 8 25 16 43 28 96 44 200 25 165 24 799 -1 975
-3 17 -7 57 -10 90 -4 33 -8 74 -11 90 -2 17 -7 48 -9 70 -15 119 -69 330
-111 430 -7 17 -22 53 -33 80 -40 97 -160 341 -207 420 -66 112 -207 319 -353
520 -214 295 -287 389 -355 457 -47 47 -273 201 -397 270 -25 14 -83 48 -130
75 -317 185 -482 258 -730 319 -57 14 -263 55 -300 60 -25 3 -52 7 -60 9 -8 3
-44 7 -80 10 -36 4 -76 8 -89 10 -14 3 -68 7 -120 11 -53 3 -103 12 -111 18
-15 12 -111 22 -120 13z m-35 -192 c80 -7 125 -15 125 -21 0 -2 -5 -12 -10
-22 -6 -9 -23 -47 -39 -84 -36 -82 -86 -138 -162 -183 -105 -62 -195 -80 -299
-60 -63 11 -214 66 -284 103 -64 33 -186 139 -186 160 0 14 59 34 195 68 56
13 176 35 225 40 30 4 57 8 59 10 6 6 295 -3 376 -11z m-1345 -174 c0 -5 -10
-11 -22 -14 -22 -6 -22 -6 -4 8 23 17 26 18 26 6z m3370 -457 c117 -99 276
-243 326 -295 69 -74 155 -202 282 -421 49 -84 121 -197 161 -251 87 -117 138
-206 203 -352 100 -223 134 -364 137 -556 1 -60 4 -117 5 -126 2 -10 7 -49 11
-88 4 -38 9 -82 11 -97 2 -16 1 -28 -3 -28 -15 0 -60 -45 -82 -80 l-21 -35 -1
235 c0 129 -2 242 -4 250 -1 8 -6 33 -9 55 -13 84 -36 149 -76 215 -23 38 -61
120 -84 183 -50 135 -74 178 -151 272 -42 51 -88 131 -169 295 -172 346 -252
455 -411 559 -40 27 -85 58 -100 69 l-27 22 26 10 c36 13 33 25 -16 60 -57 40
-148 149 -148 175 0 45 5 42 140 -71z m-1210 -293 c0 -43 -5 -72 -12 -78 -7
-5 -60 -18 -118 -27 -203 -35 -183 -22 -175 -119 4 -45 9 -89 10 -97 3 -15 11
-92 20 -180 8 -76 56 -444 60 -460 2 -8 7 -37 10 -63 13 -114 68 -393 113
-577 l19 -75 66 -3 c49 -2 65 0 63 10 -1 7 -5 27 -9 43 -4 17 -9 41 -11 55 -3
14 -10 50 -16 80 -6 30 -13 66 -16 80 -2 14 -7 36 -9 50 -3 14 -7 34 -9 45 -2
11 -11 54 -20 95 -8 41 -18 91 -21 110 -3 19 -10 53 -15 75 -5 22 -11 54 -14
70 -7 35 -7 38 -40 205 -14 69 -28 141 -31 160 -3 19 -10 51 -15 70 -5 19 -12
51 -15 70 -3 19 -13 70 -22 113 -18 89 -25 77 80 143 60 37 93 39 84 5 -2 -10
0 -26 5 -35 7 -12 5 -16 -8 -16 -9 0 -31 -15 -49 -33 -28 -28 -33 -40 -30 -68
2 -19 6 -63 9 -99 4 -36 15 -92 25 -125 18 -54 24 -88 36 -180 4 -33 45 -177
93 -323 16 -50 26 -94 22 -97 -4 -2 3 -26 16 -52 13 -25 24 -54 24 -64 0 -10
16 -38 35 -63 19 -25 37 -60 40 -78 3 -18 15 -69 25 -113 10 -44 21 -94 25
-111 l6 -31 152 -2 c335 -4 521 -17 662 -45 33 -7 101 -11 150 -10 107 2 102
1 102 17 0 21 15 181 18 197 2 8 6 44 9 80 4 36 9 81 11 100 3 19 7 66 10 105
4 38 8 72 10 75 1 3 6 46 9 95 4 50 9 101 11 115 2 14 7 52 10 85 3 33 8 80
11 104 4 25 8 63 10 85 1 23 5 58 8 80 7 58 -9 30 -25 -44 -17 -80 -14 -70
-24 -105 -113 -425 -157 -538 -227 -580 l-33 -19 17 27 c87 132 161 332 183
492 3 28 9 64 11 82 12 75 10 210 -3 297 -13 93 -13 95 12 151 28 63 24 63
102 -3 44 -37 52 -49 49 -71 -3 -14 -7 -75 -11 -136 -3 -60 -8 -135 -10 -165
-11 -150 -19 -257 -30 -425 -2 -33 -7 -102 -10 -153 -12 -163 -14 -195 -20
-297 -3 -55 -8 -119 -9 -142 -3 -36 0 -43 15 -44 11 -1 22 -2 27 -3 4 -1 29
-6 56 -10 l49 -8 -6 -207 c-4 -115 -9 -215 -13 -224 -7 -18 -30 -16 -97 9 -42
16 -60 11 -53 -14 3 -10 8 -57 11 -107 4 -49 8 -106 10 -125 2 -19 7 -78 10
-130 4 -52 9 -111 11 -130 3 -19 8 -186 11 -370 l5 -335 -98 -100 c-53 -55
-221 -227 -372 -382 -152 -156 -277 -281 -279 -280 -2 2 -6 23 -9 46 -6 40 -3
46 30 80 l36 37 -34 125 c-19 68 -67 237 -106 374 -39 138 -80 284 -91 325
-11 41 -24 89 -30 105 -5 17 -43 152 -85 300 -41 149 -82 293 -89 320 -52 180
-67 233 -71 254 -7 34 -12 41 -33 41 -14 0 -17 -7 -15 -37 6 -73 14 -131 33
-229 11 -55 22 -119 26 -144 3 -25 8 -56 10 -70 3 -14 7 -47 10 -75 21 -194
47 -335 102 -565 39 -164 87 -378 100 -450 9 -50 72 -356 83 -405 7 -27 14
-61 16 -75 3 -13 11 -28 17 -33 7 -4 62 -6 122 -5 l110 3 13 -50 c7 -27 14
-54 16 -60 18 -68 28 -126 23 -138 -4 -12 -77 -14 -474 -15 -258 -1 -473 2
-478 6 -15 11 -18 28 -23 138 l-4 101 26 5 c15 3 73 4 130 2 l104 -4 -8 38
c-5 20 -47 210 -94 422 -47 212 -106 480 -131 595 -25 116 -61 280 -80 365
-19 85 -36 166 -39 180 -3 14 -14 68 -26 120 -12 52 -24 104 -26 115 -2 11
-17 83 -33 160 l-29 140 -113 2 c-63 0 -194 2 -292 4 -98 1 -181 -2 -186 -7
-6 -7 -67 -266 -86 -362 -7 -39 -16 -65 -40 -117 -68 -145 -100 -219 -131
-300 -19 -49 -39 -99 -44 -110 -5 -11 -39 -85 -75 -165 -63 -135 -78 -169
-134 -293 -43 -95 -67 -178 -77 -265 -4 -29 -19 -88 -35 -130 -16 -42 -26 -78
-23 -81 3 -4 338 -5 745 -4 l739 3 0 -28 c0 -15 -6 -36 -14 -47 -14 -20 -27
-20 -881 -20 -857 0 -868 0 -881 -20 -19 -31 -72 -167 -79 -208 l-7 -37 40 0
c60 0 68 -13 66 -116 -1 -49 -2 -92 -3 -96 0 -5 -20 -6 -43 -3 -24 3 -144 4
-268 4 -495 -3 -546 -1 -561 22 -9 16 -30 116 -32 159 l-2 35 120 0 120 1 48
114 c26 63 138 342 248 620 111 278 207 519 214 535 7 17 43 107 80 200 37 94
103 260 147 370 44 110 81 209 83 220 1 11 6 37 10 58 l7 37 -118 0 c-346 1
-751 17 -1139 45 -44 4 -95 8 -113 11 -30 4 -34 1 -47 -30 -13 -31 -42 -173
-51 -251 -5 -47 -4 -206 1 -250 23 -182 207 -697 406 -1137 49 -108 89 -201
89 -205 0 -4 -11 -21 -24 -36 l-25 -29 -47 99 c-25 54 -60 127 -76 163 -17 36
-46 99 -65 140 -36 77 -149 356 -163 400 -4 14 -30 97 -58 185 -107 342 -123
427 -108 565 12 106 20 156 40 260 13 63 22 118 20 121 -2 3 -36 9 -76 13 -89
8 -143 22 -184 47 l-31 19 28 122 c16 68 31 137 34 153 3 17 10 44 15 60 5 17
14 56 20 88 13 64 14 64 87 53 37 -5 42 -4 48 16 4 13 40 118 80 233 41 116
104 296 140 400 180 518 208 588 233 581 9 -3 29 -8 45 -12 15 -3 27 -9 27
-13 0 -16 -68 -126 -78 -126 -16 0 -22 -10 -26 -43 -3 -17 -12 -46 -21 -65 -9
-19 -18 -48 -20 -63 -6 -44 -23 -115 -29 -121 -3 -3 -15 -6 -28 -7 -20 -1 -33
-31 -126 -281 -57 -154 -108 -289 -113 -300 -31 -71 -82 -216 -77 -220 16 -14
381 -91 473 -99 187 -17 350 -31 515 -42 105 -8 587 -12 597 -5 9 5 29 84 48
181 6 29 43 216 49 245 79 369 136 692 136 767 l0 86 -52 7 c-29 4 -116 9
-193 10 -212 5 -235 12 -263 87 -26 71 -33 116 -24 158 7 30 12 35 37 36 17 1
116 4 220 8 105 3 201 8 215 11 14 2 63 6 110 10 47 3 103 7 125 10 22 2 72 7
110 10 39 3 84 7 100 9 17 2 59 7 95 11 36 4 76 8 90 10 14 2 48 6 75 10 28 3
84 10 125 15 41 5 98 12 125 15 28 3 61 8 75 10 14 2 63 9 110 15 47 6 101 15
120 21 19 5 60 12 90 15 30 4 57 8 59 10 2 2 10 4 18 4 9 0 13 -18 13 -69z
m-3574 -302 c-62 -111 -191 -457 -230 -616 -34 -137 -62 -231 -132 -443 -41
-124 -79 -234 -84 -245 -21 -45 -98 -254 -113 -305 -16 -55 -20 -75 -32 -160
-3 -25 -9 -61 -12 -80 l-6 -35 -7 39 c-14 78 62 421 159 712 38 116 97 310
130 431 68 250 95 327 175 503 43 95 70 140 112 188 31 35 58 61 60 59 3 -2
-7 -24 -20 -48z m2029 -748 c3 -5 2 -12 -3 -15 -5 -3 -9 1 -9 9 0 17 3 19 12
6z m-1950 -2701 c10 -11 14 -20 9 -20 -5 0 -15 9 -22 20 -7 11 -11 20 -9 20 2
0 12 -9 22 -20z m153 -150 c18 -32 19 -40 8 -40 -8 0 -23 13 -33 30 -11 20
-23 28 -33 25 -18 -6 -45 39 -34 56 3 5 -4 26 -16 47 -19 32 -15 30 32 -20 29
-32 63 -76 76 -98z m14 -67 c17 -15 20 -15 28 -3 7 12 9 10 8 -5 -1 -11 6 -32
16 -48 14 -20 22 -25 31 -17 10 8 19 5 34 -11 l21 -23 -22 -23 c-12 -13 -27
-23 -33 -23 -16 0 -39 45 -31 59 10 16 -32 71 -49 65 -7 -3 -18 3 -24 15 -20
36 -10 42 21 14z m213 -243 c-10 -16 -29 -12 -42 10 -11 16 -10 21 4 29 13 7
21 4 31 -10 7 -10 10 -24 7 -29z m-51 -6 c9 -22 -3 -32 -14 -14 -12 19 -12 30
-1 30 5 0 12 -7 15 -16z m148 -69 c10 -21 8 -28 -8 -40 -25 -19 -26 -19 -47
11 -18 25 -18 26 0 39 27 21 42 18 55 -10z m-68 -49 c9 -14 12 -27 7 -30 -8
-5 -41 35 -41 49 0 13 19 3 34 -19z m205 -140 l61 -79 -23 -16 c-13 -9 -32
-24 -41 -33 -19 -19 -21 -17 -119 114 -54 72 -23 80 41 11 25 -27 35 -34 23
-18 -59 82 -57 76 -36 91 11 8 22 13 26 12 4 -2 35 -39 68 -82z m77 -182 c-5
-14 31 -50 41 -41 3 4 -2 16 -12 28 -16 17 -17 22 -5 29 21 13 54 -18 38 -37
-9 -11 -4 -21 21 -47 24 -25 29 -36 20 -41 -8 -5 -23 3 -40 23 -27 30 -59 35
-59 9 0 -6 -10 -1 -21 12 -19 20 -20 26 -9 47 12 21 11 27 -8 47 -33 35 -26
45 8 12 17 -16 28 -35 26 -41z m180 -146 c-15 -10 36 -58 63 -58 17 0 22 -4
17 -16 -4 -10 4 -24 21 -38 15 -11 30 -21 33 -21 9 0 60 -43 60 -50 0 -11 -50
-75 -58 -75 -4 0 -19 10 -33 22 l-27 22 26 34 26 34 -29 24 -30 25 -26 -31
c-25 -29 -26 -30 -42 -12 -16 17 -15 20 8 42 l26 24 -31 24 c-17 13 -27 28
-24 34 3 5 -4 20 -16 33 -32 34 -15 51 18 17 16 -15 23 -30 18 -34z m-58 3
c27 -24 28 -33 1 -50 -20 -12 -24 -10 -44 16 -17 20 -20 32 -13 41 14 17 29
15 56 -7z m348 -268 c-3 -3 -12 0 -21 7 -8 7 -15 10 -15 6 0 -3 25 -22 55 -42
30 -20 55 -38 55 -39 0 -5 -36 -1 -40 4 -3 3 -15 14 -27 25 -22 18 -22 18 -35
-13 -13 -30 -13 -30 -37 -12 l-24 18 28 36 c23 31 30 35 47 26 11 -6 17 -13
14 -16z m114 -97 c0 -6 14 -20 30 -29 17 -10 30 -23 30 -28 0 -6 -3 -9 -7 -7
-42 20 -63 27 -95 33 -23 3 -38 11 -38 20 0 24 16 25 41 4 25 -22 40 -9 19 17
-11 12 -10 13 4 8 9 -3 16 -11 16 -18z m110 -49 c0 -19 -10 -27 -26 -20 -21 8
-17 33 6 33 11 0 20 -6 20 -13z"/>
<path d="M3656 5591 c-4 -6 -44 -209 -62 -311 -3 -14 -7 -36 -10 -50 -2 -14
-13 -74 -24 -135 -11 -60 -22 -121 -25 -135 -3 -14 -10 -52 -16 -85 -10 -59
-30 -165 -69 -367 -10 -57 -21 -116 -24 -133 -8 -45 -15 -87 -21 -115 -3 -14
-9 -50 -15 -80 -6 -30 -12 -66 -15 -80 -10 -51 -28 -146 -31 -165 -1 -11 -10
-56 -18 -100 -8 -44 -24 -129 -36 -190 -11 -60 -23 -123 -26 -140 -2 -16 -7
-37 -9 -45 -2 -8 -6 -27 -9 -42 -21 -122 -44 -211 -83 -323 -40 -116 -341
-921 -427 -1144 -51 -131 -50 -122 -18 -117 15 2 48 5 73 5 43 1 48 4 59 33 7
18 18 47 25 63 7 17 83 203 168 415 86 212 200 495 255 630 54 135 104 272
111 305 6 33 32 164 57 290 24 127 47 242 49 256 3 14 23 118 45 230 22 112
43 218 46 234 2 17 12 64 20 105 9 41 18 86 20 100 3 14 14 72 25 130 11 58
23 116 25 130 3 14 23 117 44 230 22 113 41 216 41 230 2 20 -33 265 -46 330
-2 8 -4 22 -4 32 -1 12 -10 16 -36 16 -19 0 -37 -3 -39 -7z"/>
<path d="M3810 5005 c-7 -38 -14 -79 -16 -90 -2 -11 -11 -60 -19 -110 -9 -49
-20 -110 -25 -135 -5 -25 -12 -56 -14 -70 -9 -51 -38 -187 -58 -270 -11 -47
-22 -94 -24 -105 -2 -11 -6 -32 -10 -47 -3 -16 -2 -28 3 -29 43 -5 303 -7 321
-2 20 5 22 10 17 42 -3 20 -8 50 -10 66 -13 92 -17 120 -36 225 -11 63 -22
129 -25 145 -3 17 -24 125 -48 240 l-43 210 -13 -70z"/>
<path d="M4834 3642 c-22 -3 -22 -3 8 -100 48 -158 57 -192 47 -192 -6 0 -6
-8 1 -19 5 -11 10 -29 10 -40 0 -12 3 -21 8 -21 6 0 45 -119 44 -134 0 -3 4
-20 9 -38 57 -187 70 -241 60 -248 -9 -5 -9 -14 -1 -34 5 -15 14 -25 19 -22
15 9 35 -62 22 -77 -15 -19 -2 -54 22 -62 20 -6 20 -8 4 -12 -14 -3 -17 -11
-13 -26 3 -12 6 -26 6 -31 0 -4 9 -6 19 -3 14 3 20 -2 24 -21 3 -15 -1 -31 -8
-37 -19 -15 0 -75 24 -75 21 0 36 -41 19 -51 -7 -4 -8 -14 -3 -25 4 -11 9 -23
10 -29 28 -114 136 -489 144 -497 6 -7 77 65 371 371 80 83 99 110 95 133 -2
13 -6 106 -10 208 -7 218 -12 349 -20 521 -3 82 -1 137 6 155 6 16 11 92 11
173 -1 138 -2 145 -26 179 l-26 37 -267 1 c-229 1 -567 11 -583 18 -3 1 -15 0
-26 -2z"/>
<path d="M1110 1980 c0 -12 29 -45 35 -39 2 2 -5 15 -16 28 -10 13 -19 18 -19
11z"/>
<path d="M1950 931 c0 -6 5 -13 10 -16 6 -3 10 1 10 9 0 9 -4 16 -10 16 -5 0
-10 -4 -10 -9z"/>
</g>
</svg>
