<?xml version="1.0" encoding="utf-8"?>
<!-- Generator: Adobe Illustrator 20.0.0, SVG Export Plug-In . SVG Version: 6.00 Build 0)  -->
<svg version="1.1" id="Capa_1" xmlns="http://www.w3.org/2000/svg" xmlns:xlink="http://www.w3.org/1999/xlink" x="0px" y="0px"
	 viewBox="0 0 60 74.8" width="60" height="90" style="enable-background:new 0 0 60 74.8;" xml:space="preserve">
<style type="text/css">
	.st0{fill:#BCA064;}
	.st1{fill:#FFFFFF;}
</style>
<path class="st0" d="M30,0C13.5,0,0,13.5,0,30c0,1.9,0.2,3.8,0.5,5.6c0,0.1,0.1,0.4,0.2,1c0.5,2,1.1,4,2,5.9
	c3.3,7.6,10.4,19.3,26,31.8c0.4,0.3,0.9,0.5,1.3,0.5s0.9-0.2,1.3-0.5c15.6-12.5,22.7-24.2,26-31.8c0.9-1.9,1.6-3.9,2-5.9
	c0.1-0.6,0.2-0.9,0.2-1c0.3-1.9,0.5-3.7,0.5-5.6C60,13.5,46.5,0,30,0z M30,49.3c-10.5,0-19-8.5-19-19s8.5-19,19-19s19,8.5,19,19
	S40.5,49.3,30,49.3z"/>
<path class="st1" d="M30,11.3c-10.5,0-19,8.5-19,19s8.5,19,19,19s19-8.5,19-19S40.5,11.3,30,11.3z"/>
</svg>
