<svg version="1.1" xmlns="http://www.w3.org/2000/svg" xmlns:xlink="http://www.w3.org/1999/xlink" x="0px" y="0px"
	 viewBox="0 0 60 74.8" width="60" height="90" style="enable-background:new 0 0 60 74.8;" xml:space="preserve">
<style type="text/css">
	.st0{fill:#FFFFFF;}
	.st1{fill:#BCA064;}
</style>
<path class="st0" d="M30,4.2C15.8,4.2,4.2,15.8,4.2,30c0,1.6,0.2,3.3,0.5,4.9V35c0,0.1,0,0.3,0.1,0.7l0,0c0.4,1.8,1,3.5,1.7,5.1
	c0,0,0,0,0,0.1C9.6,47.8,16,58.4,30,70c14-11.6,20.4-22.2,23.3-29.1c0,0,0,0,0-0.1c0.8-1.6,1.3-3.4,1.7-5.1l0,0
	c0.1-0.4,0.1-0.6,0.1-0.7v-0.1c0.3-1.6,0.5-3.2,0.5-4.9C55.7,15.8,44.2,4.2,30,4.2z M30,49.3c-10.5,0-19-8.5-19-19s8.5-19,19-19
	s19,8.5,19,19S40.5,49.3,30,49.3z"/>
<path class="st1" d="M30,0C13.5,0,0,13.5,0,30c0,1.9,0.2,3.8,0.5,5.6c0,0.1,0.1,0.4,0.2,1c0.5,2,1.1,4,2,5.9
	c3.3,7.6,10.4,19.3,26,31.8c0.4,0.3,0.9,0.5,1.3,0.5s0.9-0.2,1.3-0.5c15.6-12.5,22.7-24.2,26-31.8c0.9-1.9,1.6-3.9,2-5.9
	c0.1-0.6,0.2-0.9,0.2-1c0.3-1.9,0.5-3.7,0.5-5.6C60,13.5,46.5,0,30,0z M55.3,34.9C55.3,34.9,55.2,34.9,55.3,34.9
	c0,0.2-0.1,0.4-0.2,0.8l0,0c-0.4,1.8-1,3.5-1.7,5.1c0,0,0,0,0,0.1C50.4,47.8,44,58.4,30,70C16,58.4,9.6,47.8,6.6,40.9c0,0,0,0,0-0.1
	c-0.8-1.6-1.3-3.4-1.7-5.1l0,0c-0.1-0.4-0.1-0.6-0.1-0.7v-0.1c-0.3-1.6-0.5-3.2-0.5-4.9c0-14.2,11.6-25.8,25.8-25.8
	S55.9,15.8,55.9,30C55.7,31.6,55.6,33.3,55.3,34.9z"/>
<path class="st1" d="M30,11.3c-10.5,0-19,8.5-19,19s8.5,19,19,19s19-8.5,19-19S40.5,11.3,30,11.3z M30,45.1
	c-8.2,0-14.8-6.6-14.8-14.8S21.8,15.5,30,15.5s14.8,6.6,14.8,14.8S38.2,45.1,30,45.1z"/>
</svg>
