<?xml version="1.0" encoding="utf-8"?>
<!-- Generator: Adobe Illustrator 19.2.1, SVG Export Plug-In . SVG Version: 6.00 Build 0)  -->
<svg version="1.1" id="Слой_1" xmlns="http://www.w3.org/2000/svg" xmlns:xlink="http://www.w3.org/1999/xlink" x="0px" y="0px"
	 viewBox="0 0 69.6 71.1" style="enable-background:new 0 0 69.6 71.1;" xml:space="preserve">
<style type="text/css">
	.st0{fill:#AB8232;}
</style>
<path class="st0" d="M56.6,60.8c0.6-4.9,1.2-9.8,1.7-14.8c0.3-2.9,0.7-5.7,1-8.6c0-0.4-0.2-0.8-0.4-1.2c-0.2-0.3-0.5-0.6-0.8-0.9
	c-1.7-1.6-2.5-3.5-2.6-5.9c-0.3-6.1-0.7-12.3-0.9-18.4c-0.1-1.3,0.2-2.5,0.5-3.8C56.5,1.5,59.6,0,65,0c1.6,0,2.3,0.8,2.2,2.3
	c-0.3,3.4-0.7,6.8-1,10.3c-0.4,4.4-0.9,8.8-1.3,13.2c-0.2,2.1-0.5,4.3-0.6,6.4c0,0.8,0.2,1.6,0.3,2.4c0.2,1.6,0.5,3.1,0.5,4.7
	c0.3,7.5,0.5,14.9,0.6,22.4c0.1,2.1-1.2,3.8-3.1,4.4c-1.7,0.6-3.7,0.1-4.9-1.3C56.7,63.6,56.6,62.2,56.6,60.8z M61.2,30.3
	c0.1,0,0.3,0,0.4-0.1c0.2-2.3,0.5-4.6,0.7-6.9c0.3-3.7,0.7-7.4,1-11.1c0.2-2.6,0.5-5.3,0.7-7.9c0-0.5,0.3-1.3-0.7-1.2
	c-1.8,0.1-3.5,0.6-4.4,2.4c-1,2-1.5,4.2-1.1,6.4c0.8,5.1,1.7,10.1,2.6,15.2C60.6,28.1,60.9,29.2,61.2,30.3z M61.6,61.7
	c1.1,0,2.1-0.9,2.1-2c0-1.1-0.9-2.1-2.1-2.1c-1.1,0-2.1,0.9-2.1,2C59.5,60.8,60.5,61.7,61.6,61.7z"/>
<path class="st0" d="M47.2,31.6c-0.2-0.4-0.5-0.8-0.7-1.2c-0.7-1.1-1.3-2.3-2-3.4c-3.1-4.7-8.7-5.5-13.3-2.3
	c-5.9,4.2-5.4,10.2-2.2,14.9c1.5,2.1,3.6,3.1,6.2,3.2c3.9,0.1,7.4-0.9,10.4-3.4c-2.8,5.7-9,6.7-13.9,6c-5.8-0.7-9.7-4.8-11-10.7
	c-2-9.3,5.4-16.3,13.4-16.5c2.5-0.1,4.9,0.2,7.2,1.3c2.3,1.1,4,2.7,4.8,5.2c0.6,1.9,1.1,3.8,1.6,5.7c0.1,0.3,0,0.7,0,1.1
	C47.4,31.5,47.3,31.6,47.2,31.6z"/>
<path class="st0" d="M52.8,14.1c-0.2-0.1-0.5-0.1-0.7-0.2c-3-3.1-7-3.9-10.9-4.9c-6-1.5-11.9-0.5-17.6,1.5c-0.4,0.1-0.8,0.4-1.2,0.5
	c-0.8,0.2-1.6,0.3-2-0.7c-0.3-0.9,0.1-1.6,0.9-1.9c2.2-1,4.4-2.2,6.7-2.7c4.8-1.1,9.6-1,14.2,0.7c2.7,1,5.3,2.2,7.9,3.5
	C51.8,10.7,52.9,12.5,52.8,14.1z"/>
<path class="st0" d="M67.9,35.8c0.1,1.3,0.3,2.7,0.4,4c0.4,7.9,0.9,15.8,1.3,23.7c0.1,1.1-0.1,2.2-0.4,3.2c-0.4,1.5-1.3,2.7-2.8,3.2
	c-1.6,0.5-3.2,1-4.8,1.3c-1.5,0.3-3.2-1-3.8-2.6c0.4,0.2,0.7,0.3,0.9,0.5c1.3,1.3,2.7,1.4,4.3,0.8c0.4-0.1,0.7-0.2,1.1-0.4
	c3.3-1.2,4.2-2.2,4.1-5.8c-0.1-7-0.4-14-0.5-21.1c-0.1-2.3,0-4.5,0-6.8C67.8,35.8,67.8,35.8,67.9,35.8z"/>
<path class="st0" d="M22.9,61c3.6,0.7,7.3,1.5,10.9,2.2c6.6,1.3,12.4-0.6,17.9-4.1c0.5-0.3,1-0.7,1.6-1c-3.2,3.9-7.4,6-12.3,6.7
	c-5.1,0.6-9.8-1-14.6-2.3c-1.2-0.3-2.4-0.9-3.5-1.3C22.8,61.1,22.8,61.1,22.9,61z"/>
<path class="st0" d="M9.5,69.4c1.5-0.1,2.9-0.2,4.4-0.3c2.5-0.3,3.4-1.2,3.5-3.7c0.1-1.7,0-3.4,0-5.1c0.1,0,0.3,0,0.4,0
	c0.1,2.4,0.3,4.8,0.2,7.2c0,1.4-1,2.2-2.4,2.4C13.6,70.2,11.5,70.2,9.5,69.4z"/>
<g>
	<path class="st0" d="M57,48.2c-0.6-0.6-1.3-0.4-1.8,0.1c-0.8,0.7-1.5,1.5-2.2,2.1c-4.9,4.3-10.5,6.8-17.1,6.1
		C29.6,56,24,53.7,19.3,49.3c-1.7-1.6-6.9,5.6,8.8,10c3.7,1,7.6,0.9,11.4,0.4c7-1,12.7-4.4,17.4-9.7C57.5,49.4,57.7,48.8,57,48.2z"
		/>
	<path class="st0" d="M12.8,31c-0.1-2.2,0.9-3.6,2.9-4.3c4.5-1.7,6.2-4.5,5.3-9.3C20,12,18.2,7,16.1,2.1c-2.8-6.7,1.2,13.3,0,16.8
		c-0.4,1.2-2.4,1.2-2.7-0.3C12.6,13,12.7,7.6,11.6,2.1c-0.5-2.7-1.9-1.1-2-0.5C8.9,4.9,8.3,15,7.6,18.3c-0.4,2-3.1,1.5-3-0.8
		c0.3-6.6,2-15.7,0.6-16.6C4.4,0.4,3.8,1.5,3.6,2.3c-0.3,1.2-0.7,2.4-1,3.5C1.4,10.4,0.1,15,0,19.8c-0.1,4.3,1.4,6.2,5.6,7.5
		c0.5,0.1,1,0.4,1.3,0.8c0.7,1.2,1,2.5,0.8,3.9c-0.3,1.7-2.1,25.5-2.2,29.8c0,2.1,1,3.8,3.1,4.6c3.2,1.3,6.5-1,6.7-4.8
		c0.1-2-0.1-3.9-0.1-5.9C15,55.2,13,33.7,12.8,31z M10,62.3c-1.2,0-2.1-0.8-2.1-2c0-1.1,0.9-2.1,2-2.1c1.2,0,2.1,0.8,2.1,2
		C12,61.3,11.1,62.3,10,62.3z"/>
</g>
</svg>
