<?xml version="1.0" encoding="utf-8"?>
<!-- Generator: Adobe Illustrator 19.2.1, SVG Export Plug-In . SVG Version: 6.00 Build 0)  -->
<svg version="1.1" id="Слой_1" xmlns="http://www.w3.org/2000/svg" xmlns:xlink="http://www.w3.org/1999/xlink" x="0px" y="0px"
	 viewBox="0 0 60.7 75.2" style="enable-background:new 0 0 60.7 75.2;" xml:space="preserve">
<style type="text/css">
	.st0{fill:#AB8232;}
</style>
<g>
	<path class="st0" d="M8.9,53.1c2.1,1.7,4.5,3.2,7,4.2c3,1.2,6.2,1.7,9.4,2.4c1.2,0.3,1.8,0.5,1.8,1.9c0,2.1,0.1,4.1,0.1,6.2
		c0.1,1.7,1,2.9,2.4,2.8c1.3-0.1,2.2-1.1,2.2-2.8c0-2.1-0.1-4.1-0.2-6.2c-0.1-1.1,0.2-1.5,1.4-1.6c5-0.4,9.8-1.5,14.3-3.8
		c4.1-2.1,6.8-5.3,8.2-9.6c1.4-4.1,1.4-8.2,0.5-12.4c-0.7-3.2-2.7-5.7-4.6-8.1c-7-8.5-14.2-17-21.3-25.5c-0.6-0.7-1.1-0.8-1.8,0
		C21.1,9.2,13.9,18,7.6,27.4c-2.7,3.9-3.8,8.3-3.8,12.5C3.7,45.3,5,49.8,8.9,53.1z M30.7,3.1c0.2,0.3,0.3,0.6,0.5,0.9
		c5.8,8.3,11.7,16.6,17.6,25c2.5,3.6,3.7,7.5,3.3,11.9c-0.4,5-2.4,9-7.1,11.3c-3.8,1.9-8,2.7-12.2,3.2c-1.1,0.1-1.5-0.3-1.3-1.3
		c0-0.2,0-0.5,0-0.7c0-1.8,0-1.7,1.8-1.9c6.2-0.7,11.3-3.3,14.5-9.3c-0.7,0.3-1.1,0.6-1.6,0.8c-4,2-8.1,3.7-12.7,4.1
		c-2.1,0.2-2.2,0.1-2.3-1.9c-0.1-2.8-0.1-2.7,2.7-3.2c0.7-0.1,1.4-0.3,2-0.6c3.7-1.7,6.9-4.3,10-7c-3,0.9-6,1.8-9,2.6
		c-1.5,0.4-3.1,0.5-4.7,0.7c-0.7,0.1-1.1-0.1-1-0.8c0,0,0-0.1,0-0.1c-0.4-3.9-0.4-3.9,3.2-5.6c1.5-0.7,3-1.5,4.5-2.3
		c0.9-0.5,1.7-1,2.6-1.5c-3.1,0.4-6,0.7-9,1.1c-1.1,0.1-1.4-0.2-1.6-1.4c-0.5-2.9,0-5.1,2.9-6.3c0.3-0.1,0.5-0.4,1-1
		c-1.3,0.1-2.2,0.2-3.1,0.3c-0.7,0.1-1.1-0.1-1.1-0.9C30.4,14,30.3,9,30.2,3.9C30.2,3.7,30.3,3.6,30.7,3.1z M10.4,27.2
		C16.1,19,21.9,10.8,27.7,2.6c0.2-0.2,0.3-0.5,0.4-0.8c0.1,0.1,0.3,0.2,0.4,0.2c0,0.3,0.2,0.6,0.1,0.9c-0.3,5-0.6,10-0.9,15
		c0,0.4-0.1,0.8-0.1,1.2c0,1-0.6,1.3-1.5,1.1c-1.2-0.2-2.4-0.5-3.8-0.4c1.3,0.9,2.6,1.9,4,2.7c0.7,0.4,1.1,0.9,1,1.8
		c-0.1,0.9-0.2,1.9-0.2,2.8c0,1-0.4,1.4-1.4,1.1c-2.2-0.7-4.4-1.4-6.6-2c-0.4-0.1-0.9-0.3-1.3-0.5c-0.1,0.1-0.2,0.2-0.3,0.4
		c0.3,0.3,0.5,0.7,0.9,1c2.4,1.7,4.9,3.3,7.3,4.9c0.7,0.4,1,0.8,1,1.6c-0.2,4.7,0.4,4.2-4.1,3.1c-2.8-0.7-5.4-1.8-7.8-3.3
		c-0.4-0.2-0.9-0.1-1.4-0.1c0.1,0.4,0.1,1,0.3,1.3c2.9,3.8,6.3,7,11.4,7.4c1.1,0.1,1.6,0.6,1.4,1.7c0,0.3,0,0.6,0,0.9
		c0,2.5,0.7,3-2.7,2.1c-4.6-1.2-9.2-2.7-13.2-5.4c3.5,5.4,7.7,9.9,14.7,10.3c1.1,0.1,1.6,0.5,1.5,1.7c0,0.3,0,0.7,0,1
		c0.1,1.2-0.4,1.5-1.5,1.3c-3.6-0.4-7.2-1-10.6-2.5c-6.4-2.7-8.4-7.4-8.3-13.9C6.6,34.7,7.9,30.8,10.4,27.2z"/>
	<path class="st0" d="M56.2,26.1C49.8,17.1,42.6,8.9,35.2,0.8c-0.2-0.3-0.6-0.4-0.9-0.7c-0.1,0.1-0.2,0.2-0.4,0.3
		c0.4,0.5,0.8,1,1.2,1.4c6.9,8,13.6,16,19.6,24.7c3.6,5.2,5,10.7,4,16.9c-1,6.5-4,11.8-10.1,14.8c-4.2,2-8.5,3.5-13,4.6
		c-1.6,0.4-1.6,0.6-1.5,2.3c0.1,2,0,4.1-0.1,6.2c-0.1,1.4-1,2.1-2.3,2.2c-1.2,0.1-2.4,0.1-3.5,0.1c-0.9,0-1.7,0-2.9,0
		c0.5,0.4,0.6,0.7,0.8,0.7c2.1,0.4,4.1,1,6.2,1c2.4,0.1,3.6-1.3,3.6-3.7c0-2-0.3-4-0.6-6c-0.2-1.7-0.3-1.7,1.3-2
		c4.9-1.1,9.8-2.3,14.2-4.8c1.8-1,3.6-2.3,5-3.8c3.3-3.9,4.7-8.5,5-13.6C61,35.7,59.5,30.7,56.2,26.1z"/>
	<path class="st0" d="M3.3,51.3c-2.2-3-2.8-6.5-2.6-10.2c0-0.6-0.1-1.1-0.2-2.1c-0.3,0.5-0.5,0.6-0.5,0.7C0,41,0,42.2,0,43.5
		C0.4,51.3,3.9,57.1,11,60.7c3.6,1.8,7.5,2.4,11.5,3.1c0.3,0,0.6-0.1,1-0.1c0-0.1,0-0.3,0-0.4c-1.7-0.4-3.5-0.9-5.2-1.3
		C11.8,60.4,7.1,56.5,3.3,51.3z"/>
</g>
</svg>
