<?xml version="1.0" encoding="utf-8"?>
<!-- Generator: Adobe Illustrator 19.2.1, SVG Export Plug-In . SVG Version: 6.00 Build 0)  -->
<svg version="1.1" id="Слой_1" xmlns="http://www.w3.org/2000/svg" xmlns:xlink="http://www.w3.org/1999/xlink" x="0px" y="0px"
	 viewBox="0 0 79.7 66.1" style="enable-background:new 0 0 79.7 66.1;" xml:space="preserve">
<style type="text/css">
	.st0{fill:#AB8232;}
</style>
<g>
	<path class="st0" d="M37.1,39.8c-7.6,2-10.3,9.1-10.3,12.7c0,4.4,2.1,13.6,13,13.6C51.9,64.7,55.2,56,54.2,50.6
		C52.8,43.4,45.4,38,37.1,39.8z M37.7,57.6c-2-0.5-4.4-3.7-2.4-7c1.7-2.2,6.1-4.8,8.5,0.2C45.3,54.9,42.3,58.1,37.7,57.6z"/>
	<path class="st0" d="M72.8,30.5c-1.2-2-10.1-17.9-31.8-17.9c-17.4,0-25.5,7.4-31.8,16.7C9,29.6,8.7,30,8.8,30.3
		c0.1,0.5,0.2,1.1,0.6,1.4c0.4,0.2,1,0.2,1.5,0c0.4-0.2,0.7-0.7,1-1c1.5-1.7,3-3.4,4.6-5c3.9-4,10-6.6,15.6-7.4
		c5.3-0.7,9-0.5,14.2,0.6c8.7,1.9,16.2,5.9,21.5,13.3c0.5,0.7,1,1.4,1.5,2c0.8,0.8,1.7,1.1,2.8,0.5c1-0.5,1.3-1.4,1.2-2.5
		C73.2,31.6,73,31,72.8,30.5z"/>
	<path class="st0" d="M46.8,26.4c-22.4-5.1-28.9,12.1-29.1,15.7c0,0.9,0.4,1.6,1.4,1.8c1.1,0.2,1.7-0.4,1.9-1.4
		c0.2-0.6,7.1-15.9,25.3-7.8c3.9,2.3,6.8,5.6,9.3,9.3c0.6,0.8,1.1,1.7,1.8,2.4c1,1.1,2.5,1.3,3.8,0.8c1.3-0.6,2.1-1.9,2-3.4
		C63,43.1,59.6,29.4,46.8,26.4z"/>
	<path class="st0" d="M66.3,8.1C62.4,4.8,58,2.6,53,1.5c-7.1-1.5-14.2-2-21.4-0.9C10.9,4.7,0,17.4,0,19.8c0,2.4,8-12.1,33.3-18
		c5-1.2,20-1.9,34.1,10.1C78.6,22.9,77.5,26,79.7,23.8C80.7,22.8,71.1,12.3,66.3,8.1z"/>
</g>
</svg>
