<?xml version="1.0" encoding="iso-8859-1"?>
<!-- Generator: Adobe Illustrator 17.1.0, SVG Export Plug-In . SVG Version: 6.00 Build 0)  -->
<!DOCTYPE svg PUBLIC "-//W3C//DTD SVG 1.1//EN" "http://www.w3.org/Graphics/SVG/1.1/DTD/svg11.dtd">
<svg version="1.1" id="&#x421;&#x43B;&#x43E;&#x439;_1"
	 xmlns="http://www.w3.org/2000/svg" xmlns:xlink="http://www.w3.org/1999/xlink" x="0px" y="0px" viewBox="0 0 693.594 647.867"
	 style="enable-background:new 0 0 693.594 647.867;" xml:space="preserve">
<path style="fill:#BB9F63;" d="M249.759,307.449c-0.733-1.275-2.374-2.879-2.05-3.77c1.833-5.043-1.8-6.546-5.108-8.71
	c-0.76,1.124-1.469,2.172-2.945,4.354c-2.93-8.278,2.339-14.302,2.627-20.345c-10.078-6.49-9.267,4.516-13.514,8.686
	c-3.503-4.855,2.041-8.197,0.908-12.345c-5.827-1.785-3.273,4.943-7.044,6.631c-4.943-8.665,5.883-14.912,3.973-22.635
	c-0.512-0.29-1.024-0.58-1.536-0.87c-3.281,5.1-6.562,10.201-9.842,15.301c-0.499-0.044-0.997-0.089-1.496-0.133
	c0-1.817-0.627-3.954,0.107-5.397c3.46-6.803,7.293-13.415,10.993-20.096c-0.581-0.354-1.162-0.709-1.742-1.063
	c-5.778,6.389-7.201,15.573-12.417,22.576c-2.474-2.256-4.712-4.298-6.951-6.34c-0.064,1.913,0.696,2.965,1.598,3.879
	c17.147,17.383,34.129,34.935,51.517,52.074c21.517,21.21,35.884,45.502,35.2,76.817c-0.024,1.105,0.847,2.229,1.301,3.344
	c0.469-0.019,0.937-0.038,1.405-0.057c0.551-1.539,1.184-3.054,1.642-4.62c5.856-20.003,11.108-40.205,17.651-59.981
	c12.222-36.94,30.681-71.073,48.937-105.259c5.305-9.934,5.309-9.967-6.255-9.782c-25.174,0.404-50.348,1.159-75.522,1.15
	c-13.08-0.004-26.168-1.208-39.236-2.102c-7.208-0.493-14.384-1.468-21.574-2.225c46.41,10.3,93.522,6.519,141.2,7.229
	c-1.183,2.38-2.089,4.221-3.012,6.054c-12.824,25.442-25.887,50.768-38.399,76.363c-8.932,18.272-17.166,36.888-21.381,56.972
	c-1.019,4.854-2.153,9.684-3.13,14.062c-4.173-10.345-7.866-20.823-12.642-30.781c-2.367-4.935-4.89-9.121-1.796-14.493
	c0.446-0.774,0.062-2.025,0.062-2.925c-4.396-3.198-5.487,1.292-8.628,4.672c-1.29-11.014,4.42-18.967,6.114-28.03
	c-2.327-0.404-4.329-0.752-6.281-1.091c-2.417,6.424-4.641,12.335-6.865,18.246c-0.53-0.068-1.061-0.137-1.591-0.205
	c0-2.407,0-4.815,0-8.267c-2.275,0-4.615,0-7.74,0c-1.746-1.833-4.185-4.393-6.57-6.919c2.127,0.601,4.255,1.203,6.371,1.801
	c1.006-3.429,1.958-6.413,2.748-9.439c0.787-3.015,1.411-6.073,2.201-9.529c-1.667-0.813-3.405-1.661-5.454-2.661
	c-1.169,3.727-2.192,6.698-3.016,9.723c-0.504,1.85-0.581,3.816-1.075,5.669C251.092,304.519,250.353,305.964,249.759,307.449z"/>
<path style="fill:#BB9F63;" d="M120.825,533.721c-6.495,7.805-5.204,16.131-1.725,24.458c0.498,1.193,2.136,2.371,3.457,2.691
	c23.009,5.578,46.06,10.986,69.083,16.506c13.374,3.206,26.09,6.3,37.117,16.59c19.528,18.224,41.054,34.305,61.657,51.387
	c2.674,2.217,5.001,3.253,8.543,1.925c31.113-11.663,62.37-22.949,93.402-34.822c17.292-6.616,34.239-14.134,51.672-21.383
	c1.259,2.218,2.546,4.118,3.464,6.182c1.804,4.06,4.122,5.491,9.052,4.693c14.314-2.318,28.765-3.8,43.167-5.572
	c29.854-3.673,59.695-7.456,89.571-10.943c31.462-3.672,62.959-7.041,94.438-10.576c3.029-0.34,6.032-0.92,9.873-1.517
	c-1.959-3.058-3.219-5.159-4.607-7.173c-16.353-23.739-36.027-44.676-55.699-65.592c-1.36-1.446-4.396-2.014-6.583-1.877
	c-25.276,1.584-50.54,3.374-75.805,5.131c-5.225,0.363-10.443,0.817-15.664,1.23c2.107,1.098,4.176,1.068,6.245,1.103
	c27.871,0.466,55.575-1.611,83.143-5.587c4.498-0.649,7.396,0.751,10.365,4.34c10.614,12.829,21.826,25.161,32.516,37.928
	c7.348,8.776,14.206,17.963,22.095,27.999c-4.585,0.326-7.536,0.556-10.49,0.742c-14.664,0.925-29.411,1.157-43.976,2.903
	c-27.042,3.242-53.983,7.336-80.958,11.131c-31.701,4.46-63.408,8.885-95.076,13.57c-5.115,0.757-7.965-0.039-9.886-5.389
	c-2.817-7.842-3.193-7.512-11.079-4.396c-45.866,18.128-91.783,36.13-137.626,54.316c-3.812,1.512-6.199,1.079-9.273-1.813
	c-19.885-18.707-40.054-37.112-60.032-55.72c-4.107-3.825-8.448-6.082-14.176-7.334c-30.379-6.638-60.622-13.905-90.851-21.207
	c-2.119-0.512-4.287-2.737-5.5-4.733C116.852,546.629,117.716,540.133,120.825,533.721z"/>
<path style="fill:#BB9F63;" d="M178.053,254.595c0.806-0.004,1.611-0.009,2.417-0.013c1.639-24.102,2.309-48.377-4.867-71.745
	c-7.211-23.48-23.779-41.458-38.976-60.094c-0.362,1.687-0.173,3.045,0.144,4.371c8.448,35.378,20.544,69.379,37.624,101.59
	c2.283,4.306,2.816,9.664,3.551,14.624C178.492,247.008,178.053,250.834,178.053,254.595z"/>
<path style="fill:#BB9F63;" d="M203.795,83.64c0.635,3.06,1.009,5.12,1.494,7.154c5.914,24.798,7.755,49.882,1.267,74.656
	c-5.086,19.421-12.317,38.278-18.464,57.427c-0.834,2.599-1.285,5.447-1.253,8.172c0.062,5.206,0.991,10.42,0.828,15.607
	c-0.16,5.1-1.175,10.179-1.916,15.253c-0.48,3.287,0.797,4.609,4.101,4.343c3.36-0.27,4.609-2.29,5.753-5.237
	c5.752-14.81,11.928-29.456,17.62-44.289c1.767-4.606,4.247-5.701,9.089-5.384c24.215,1.582,48.447,3.138,72.699,3.853
	c24.444,0.721,48.918,0.439,73.379,0.614c1.846,0.013,3.69,0.17,6.201,0.292c-2.945,6.118-5.501,11.427-8.057,16.736
	c0.471,0.271,0.941,0.542,1.412,0.813c3.09-4.96,6.26-9.872,9.249-14.892c3.116-5.235,2.382-6.44-3.574-6.571
	c-51.553-1.131-103.106-2.243-154.656-3.501c-3.534-0.086-5.598,0.865-6.984,4.14c-6.463,15.278-13.047,30.504-19.627,45.731
	c-0.592,1.369-1.46,2.619-2.408,4.292c-0.783-1.084-1.096-1.329-1.139-1.615c-0.104-0.693-0.148-1.409-0.103-2.109
	c1.197-18.645-0.539-37.786,9.553-54.917c1.321-2.243,1.892-4.942,2.725-7.458c9.79-29.545,16.201-59.42,9.006-90.666
	c-1.516-6.583-2.74-13.234-4.201-20.353c2.657,1.122,4.558,2.102,6.567,2.743c11.087,3.538,22.082,7.451,33.341,10.328
	c8.629,2.204,13.369-1.4,14.422-10.198c2.077-17.36-1.677-33.746-9.429-49.251c-1.058-2.117-2.907-4.222-4.931-5.407
	c-8.9-5.208-18.69-6.978-28.887-6.709c5.093,1.213,10.317,1.869,15.383,3.149c5.84,1.476,11.914,3.167,15.167,8.873
	c8.682,15.229,11.648,31.806,10.121,49.1c-0.595,6.736-3.644,8.941-10.572,8.096c-6.621-0.808-13.249-2.216-19.632-4.157
	C219.645,89.958,212.21,86.779,203.795,83.64z"/>
<path style="fill:#BB9F63;" d="M538.838,499.885c3.425-4.87,8.214-9.223,5.676-15.682c-4.711-11.989-11.435-22.726-20.835-31.704
	c-6.672-6.373-14.643-8.648-22.982-5.25c-13.215,5.384-26.055,11.713-38.914,17.933c-2.888,1.397-5.102,2.292-8.235,0.604
	c-9.075-4.892-18.768-7.201-29.154-5.895c-0.638,0.08-1.33-0.261-3.347-0.699c-0.35-14.138-0.787-28.416-0.893-42.697
	c-0.008-1.122,2.16-3.016,3.552-3.273c12.342-2.278,24.731-4.307,37.122-6.308c2.634-0.425,5.195-0.759,4.582-4.302
	c-1.246-7.206-2.741-14.335-9.359-18.911c-5.045-3.489-10.072-7.004-15.307-10.646c3.38-4.269,6.389-8.421,9.754-12.26
	c14.61-16.669,17.742-36.276,13.998-57.225c-3.854-21.563-8.873-42.918-12.745-64.478c-1.198-6.669-4.13-9.284-10.552-10.643
	c-20.544-4.348-41.008-4.739-61.581-0.814c1.567,0.216,3.164,0.407,4.702,0.188c19.758-2.812,39.209-1.632,58.18,4.745
	c1.904,0.64,4.276,2.791,4.659,4.614c5.013,23.861,10.251,47.698,14.276,71.734c2.404,14.358,3.043,29.12-7.064,41.656
	c-5.001,6.204-9.95,12.466-15.266,18.393c-3.137,3.498-3.808,5.853,0.587,8.914c4.633,3.226,9.154,6.828,12.957,10.969
	c3.659,3.983,6.337,8.867,9.984,14.13c-13.006,2.818-24.22,5.238-35.429,7.678c-8.109,1.765-8.355,1.759-8.982,10.049
	c-0.916,12.106-3.133,24.229,1.115,36.294c1.276,3.623,2.784,4.794,6.537,5.314c9.234,1.278,18.334,3.502,27.546,4.985
	c2.668,0.43,5.966,0.463,8.235-0.729c12.859-6.755,25.626-13.584,40.04-16.594c7.068-1.476,13.712-0.663,18.649,4.748
	c5.334,5.847,10.486,12.029,14.659,18.724C539.958,481.391,546.203,489.677,538.838,499.885z"/>
<path style="fill:#BB9F63;" d="M91.018,483.648c-0.415-9.122-1.154-17.438-1.034-25.741c0.069-4.797-1.769-7.236-5.775-9.51
	c-24.781-14.066-49.414-28.392-74.095-42.634c-1.227-0.708-3.013-1.156-3.546-2.222c-1.539-3.076-2.571-6.406-3.802-9.636
	c2.625-0.376,5.332-1.343,7.856-0.994c4.083,0.566,6.001-0.93,6.737-4.725c1.109-5.723,2.358-11.42,3.42-17.151
	c0.557-3.009,1.677-4.966,5.077-5.75c6.533-1.506,12.936-3.574,19.394-5.405c7.518-2.132,15.036-4.259,23.843-6.753
	c-15.581-8.731-30.39-14.909-46.98-15.772c13.931,5.098,28.918,7.276,43.154,15.606c-14.625,3.665-27.768,7.112-41,10.176
	c-3.605,0.835-5.461,2.412-6.308,5.992c-1.219,5.149-3.103,10.141-4.33,15.289c-0.721,3.023-1.846,4.37-5.246,4.491
	c-8.115,0.287-10.19,3.482-6.872,10.958c1.324,2.984,3.79,6.073,6.565,7.706c24.712,14.539,49.582,28.811,74.486,43.02
	c3.113,1.776,4.522,3.672,4.354,7.445c-0.378,8.493-0.322,17.014-0.115,25.516c0.034,1.395,1.577,3.78,2.701,3.958
	c8.716,1.384,17.52,2.208,26.26,3.455c14.773,2.108,29.521,4.399,44.279,6.613c0.029,0.396,0.058,0.793,0.088,1.189
	c-13.901,2.709-27.802,5.418-41.704,8.128c-0.014,0.556-0.028,1.111-0.042,1.667c10.87,7.919,20.806,17.12,32.025,24.559
	c0.644-0.819,1.288-1.639,1.932-2.458c-9.726-7.288-19.451-14.576-29.902-22.408c16.107-3.31,31.019-6.375,45.931-9.44
	c-0.027-0.443-0.054-0.887-0.082-1.33C142.62,492.888,116.951,488.292,91.018,483.648z"/>
<path style="fill:#BB9F63;" d="M130.708,112.415c-0.145,1.254-0.367,1.94-0.277,2.583c5.344,38.268,13.701,75.611,34.678,108.862
	c7.066,11.2,9.007,23.189,7.745,36.102c-0.345,3.529-1.626,5.013-5.068,5.316c-4.754,0.419-9.518,0.957-14.209,1.819
	c-23.828,4.375-47.636,8.856-71.443,13.341c-4.344,0.818-8.65,1.836-12.978,2.745c-4.077,0.856-8.158,1.69-12.237,2.534
	c0.053,0.202,0.105,0.403,0.158,0.605c39.242-6.901,78.483-13.802,117.983-20.748c0-0.446-0.239-1.888,0.036-3.224
	c3.237-15.714-1.289-29.569-9.297-42.981c-14.377-24.076-23.704-50.135-28.86-77.686c-1.594-8.515-3.105-17.045-4.654-25.569
	c16.692,11.808,32.02,24.512,43.523,40.826c4.09,5.801,5.57,13.574,7.626,20.625c1.163,3.987,1.077,8.338,1.553,12.525
	c1.399-15.931-0.682-31.088-12.88-42.598c-12.089-11.408-24.95-22-37.517-32.9C133.6,113.734,132.264,113.271,130.708,112.415z"/>
<path style="fill:#BB9F63;" d="M362.126,371.643c-2.481-1.5-3.786-2.566-5.281-3.148c-10.502-4.085-21.042-8.072-31.571-12.086
	c-3.884-1.481-6.493-0.414-7.658,3.748c-1.662,5.932-3.46,11.827-5.033,17.783c-0.327,1.238,0.074,2.667,0.14,4.008
	c1.443-0.218,3.075-0.073,4.299-0.711c9.74-5.078,20.076-7.418,31.031-7.251c3.179,0.049,6.372,0.058,9.534-0.205
	C358.755,373.684,359.854,372.752,362.126,371.643z"/>
<path style="fill:#BB9F63;" d="M184.181,219.919c10.981-22.112,20.044-44.82,22.308-69.621c2.256-24.716-0.586-48.767-9.861-72.023
	C205.977,126.685,207.375,174.278,184.181,219.919z"/>
<path style="fill:#BB9F63;" d="M344.646,348.384c-7.934-2.301-15.663-4.542-23.982-6.954c10.093-24.577,19.959-48.6,29.825-72.623
	c-0.836,0.024-1.157,0.245-1.294,0.55c-10.506,23.382-21.001,46.768-31.485,70.16c-1.409,3.143-0.392,4.928,2.98,5.838
	c7.677,2.071,15.288,4.385,22.944,6.537c5.339,1.501,6.437,0.385,5.173-5.06c-2.157-9.295-4.508-18.552-6.363-27.907
	c-0.9-4.539-0.862-9.265-1.248-13.906c-0.756,0.092-1.513,0.184-2.269,0.275C340.807,319.46,342.687,333.625,344.646,348.384z"/>
<path style="fill:#BB9F63;" d="M237.927,142.205c0.564,0.32,1.129,0.639,1.694,0.959c-5.777,19.987-8.679,41.28-27.2,55.473
	c0.754,0.509,1.507,1.018,2.261,1.527c5.792-6.75,13.285-12.692,16.97-20.444c5.249-11.041,7.889-23.358,11.2-35.254
	c0.694-2.493-0.542-5.523-0.889-8.306c-2.187,1.738-4.962,3.075-6.467,5.279c-12.223,17.9-21.671,37.271-29.694,57.364
	c-1.668,4.177-3.307,8.365-4.959,12.547c6.156-11.515,10.876-23.665,16.866-35.152C223.796,164.526,231.136,153.509,237.927,142.205
	z"/>
<path style="fill:#BB9F63;" d="M229.301,25.291c0.081,0.38,0.163,0.76,0.244,1.14c3.563-0.813,7.189-1.419,10.673-2.488
	c4.753-1.459,5.429-3.745,1.545-7.039c-5.093-4.32-10.562-8.288-16.248-11.795c-8.53-5.261-17.607-5.989-26.764-1.38
	c-6.904,3.476-13.745,7.077-20.927,10.784c-1.947-2.242-4-4.627-6.075-6.992c-4.856-5.534-10.66-8.66-18.274-7.136
	c-8.642,1.73-17.341,3.223-25.905,5.275c-6.582,1.577-7.018,2.83-4.88,9.841c-0.475-5.754,3.297-6.979,7.522-7.873
	c5.696-1.206,11.384-2.465,17.035-3.867c11.463-2.844,20.999-0.434,27.764,9.858c0.77,1.172,1.492,2.375,2.115,3.37
	c11.383-6.28,21.1-13.934,33.614-13.402c12.794,0.544,21.853,8.414,31.71,17.524C237.144,22.798,233.223,24.045,229.301,25.291z"/>
<path style="fill:#BB9F63;" d="M316.207,254.359c-8.345-3.026-10.049-2.453-13.38,4.346c-3.253,6.64-6.362,13.35-10.28,21.599
	c4.346-0.654,9.457,0.017,10.694-1.861C308.146,270.991,311.841,262.741,316.207,254.359z"/>
<path style="fill:#BB9F63;" d="M187.826,40.799c0.214-3.04,0.284-4.608,0.441-6.167c1.141-11.346,4.141-14.701,15.051-18.407
	c7.404-2.515,14.268-0.712,21.274,1.31c1.7,0.491,3.545,0.481,5.323,0.701c0.143-0.581,0.286-1.163,0.429-1.744
	c-1.303-0.73-2.535-1.661-3.921-2.156c-8.644-3.086-17.419-4.315-26.576-2.315C185.955,15.055,179.976,21.226,187.826,40.799z"/>
<path style="fill:#BB9F63;" d="M283.929,291.41c5.459-12.329,10.747-24.273,16.059-36.27c-8.557-0.174-8.492-0.151-11.122,7.418
	c-0.921,2.651-2.321,5.131-3.386,7.737c-2.635,6.447-5.203,12.921-8.035,19.974C280.327,290.777,282.329,291.129,283.929,291.41z"/>
<path style="fill:#BB9F63;" d="M173.966,55.493c-3.639-3.266-7.454-6.574-11.14-10.02c-6.874-6.426-13.873-12.632-23.828-13.541
	c-1.505-0.137-3.085,0.542-4.631,0.844c1.217,0.953,2.351,2.046,3.667,2.834c4.259,2.552,10.451,3.953,12.525,7.677
	C156.067,53.177,164.692,54.742,173.966,55.493z"/>
<path style="fill:#BB9F63;" d="M207.784,386.535c-4.644-1.774-8.452-4.743-11.55-4.13c-9.46,1.872-18.647,5.122-27.941,7.836
	c-0.015,0.476-0.031,0.951-0.046,1.427c2.76,0.829,5.739,2.779,8.242,2.291C186.652,391.977,196.67,389.245,207.784,386.535z"/>
<path style="fill:#BB9F63;" d="M288.78,291.281c-3.191,8.461-6.206,16.459-9.171,24.321c4.764,2.998,7.563,2.276,9.257-2.767
	c2.217-6.6,4.85-13.06,7.504-20.11C293.812,292.238,291.644,291.825,288.78,291.281z"/>
<path style="fill:#BB9F63;" d="M230.464,345.76c-3.915-7.171-17.098-15.444-25.919-12.628
	C213.335,345.675,215.965,346.982,230.464,345.76z"/>
<path style="fill:#BB9F63;" d="M194.456,95.39c0.269,0.021,0.539,0.041,0.808,0.062c-0.828-6.828-1.434-13.692-2.558-20.471
	c-0.83-5.006-3.719-5.953-8.019-2.915c-2.16,1.526-4.018,3.472-6.1,5.116c-2.837,2.24-3.185,4.531-1.286,7.776
	c4.737,8.095,9.113,16.4,13.687,24.591c0.707,1.266,1.693,2.377,2.55,3.559c0.463-0.23,0.926-0.46,1.389-0.69
	c-0.547-1.413-0.948-2.906-1.666-4.226c-4.226-7.775-8.594-15.474-12.736-23.293c-0.723-1.364-1.403-3.92-0.727-4.651
	c2.641-2.852,5.836-5.192,9.988-8.707C191.56,80.603,193.008,87.997,194.456,95.39z"/>
<path style="fill:#BB9F63;" d="M268.312,271.519c2.814-7.653,5.602-15.232,8.545-23.234c-3.096-0.78-5.217-1.315-7.695-1.939
	c-2.647,8.14-5.206,16.009-7.84,24.111C263.784,270.83,265.665,271.116,268.312,271.519z"/>
<path style="fill:#BB9F63;" d="M249.411,294.441c2.485-7.636,4.912-15.093,7.438-22.855c-2.455-0.896-4.35-1.587-6.37-2.325
	c-2.026,5.388-3.713,10.28-5.7,15.047C242.834,288.971,243.434,292.413,249.411,294.441z"/>
<path style="fill:#BB9F63;" d="M409.989,560.879c-7.487-3.314-14.114,0.955-20.841,2.777c-2.036,0.791-3.953,2.017-5.949,2.165
	c-1.718,0.127-3.353,0.869-5.64-0.855c-2.399-1.808-4.118,2.925-6.29,4.639c-0.608-1.163-1.116-2.135-1.625-3.107
	c-0.25,0.085-0.499,0.169-0.749,0.254c0.18,1.572,0.36,3.144,0.624,5.445c-1.817-0.862-3.019-1.432-4.136-1.962
	c-1.816,1.53-3.599,3.032-5.383,4.535c0.103,0.198,0.207,0.396,0.31,0.594c1.626-0.741,3.252-1.481,4.877-2.223
	c1.448,0.916,2.895,1.833,4.533,2.87c1.553-2.557,2.953-4.862,4.532-7.462c0.713,1.501,1.148,2.417,2.091,4.402
	c0.525-2.539,0.797-3.852,1.069-5.167c7.443,1.704,7.443,1.704,10.22,6.38c0.175-2.7,0.351-5.399,0.49-7.54
	C395.738,564.623,402.863,562.751,409.989,560.879z"/>
<path style="fill:#BB9F63;" d="M235.122,274.862c4.254-0.896,8.684-0.614,9.546-2.233c2.84-5.334,4.389-11.355,6.527-17.375
	c-2.183-0.434-3.857-0.766-5.62-1.117C242.327,260.578,239.109,266.957,235.122,274.862z"/>
<path style="fill:#BB9F63;" d="M286.029,258.166c2.713-5.55,5.329-10.902,7.996-16.356c-6.749-0.973-10.809,0.813-13.338,6.949
	C277.82,255.718,277.65,256.205,286.029,258.166z"/>
<path style="fill:#BB9F63;" d="M268.183,282.828c-2.273,6.739-4.325,12.819-6.472,19.184c2.496,0.752,4.278,1.289,6.409,1.93
	c2.458-6.337,4.786-12.337,7.293-18.797C272.988,284.368,271.061,283.75,268.183,282.828z"/>
<path style="fill:#BB9F63;" d="M354.754,509.033c-18.05,4.428-36.099,8.856-54.333,13.329c0.751,5.077,8.435-2.475,7.463,3.098
	c2.257-1.547,4.799-3.755,7.746-5.001c0.807-0.341,2.833,2.204,3.679,2.908C328.97,513.657,343.591,515.791,354.754,509.033z"/>
<path style="fill:#BB9F63;" d="M171.831,386.533c0.078-0.666,0.156-1.332,0.234-1.998c-1.934-0.286-4.03-1.198-5.771-0.746
	c-6.097,1.584-12.077,3.62-18.09,5.521c-4.482,1.417-8.945,2.89-13.417,4.339c0.163,0.601,0.326,1.202,0.489,1.803
	C148.046,395.125,159.464,388.682,171.831,386.533z"/>
<path style="fill:#BB9F63;" d="M329.575,539.499c-0.245-0.582-0.489-1.165-0.734-1.747c-6.605,2.363-13.147,4.927-19.835,7.025
	c-5.534,1.736-11.22,3.022-16.89,4.272c-1.245,0.275-2.709-0.444-4.26-0.741c0,1.695,0,3.185,0,5.013
	c6.845-2.09,13.272-4.238,19.815-5.943c2.123-0.553,4.548,0.053,7.513,0.151C315.242,539.27,326.449,545.379,329.575,539.499z"/>
<path style="fill:#BB9F63;" d="M227.644,521.095c-0.001-0.404-0.002-0.809-0.002-1.213c-1.983,0.142-3.971,0.231-5.947,0.441
	c-1.986,0.212-4.135,1.178-5.898,0.686c-3.063-0.855-3.065-1.177-3.347,0.391c-5.81,2.097-11.044,3.986-16.279,5.875
	c0.189,0.552,0.377,1.105,0.566,1.657c3.881-1.236,7.762-2.473,12.393-3.948c-1.238,7.151-8.497,5.308-11.773,9.625
	c1.992-0.484,3.397-0.826,4.563-1.11c0.349,1.829,0.628,3.292,0.908,4.755c1.799-4.015,1.825-8.74,6.736-7.875
	c1.734-2.647,2.614-5.699,4.367-6.331C218.291,522.476,223.048,522.007,227.644,521.095z"/>
<path style="fill:#BB9F63;" d="M207.647,345.864c0.186-0.491,0.372-0.983,0.558-1.474c-7.073-10.316-19.678-22.017-23.932-21.714
	c5.932,6.838,11.56,13.562,17.498,19.999C203.202,344.226,205.661,344.827,207.647,345.864z"/>
<path style="fill:#BB9F63;" d="M323.718,530.625c0.677,1.436,1.182,2.505,1.84,3.9c0.982-2.81,1.767-5.054,2.778-7.948
	c0.681,1.719,1.046,2.642,1.177,2.974c5.283-1.76,10.354-3.449,15.923-5.304c-3.487-1.835-6.163-3.897-9.342,0.247
	c-0.925,1.206-3.891,0.858-5.926,1.193c-0.888,0.146-1.85,0.05-2.674,0.35c-6.766,2.467-13.507,5.001-20.682,7.674
	c0.346,0.225,1.415,1.469,2.116,1.287C313.8,533.737,318.595,532.18,323.718,530.625z"/>
<path style="fill:#BB9F63;" d="M161.652,319.986c12.121,9.878,12.947,10.149,20.946,6.968
	C177.097,320.71,170.381,318.328,161.652,319.986z"/>
<path style="fill:#BB9F63;" d="M248.414,239.234c-4.935-1.375-11.23,7.672-13.564,19.966c2.311-1.108,4.526-1.426,5.156-2.598
	C242.989,251.06,245.54,245.284,248.414,239.234z"/>
<path style="fill:#BB9F63;" d="M132.087,386.595c-6.491-4.478-12.944-7.208-20.437-1.658
	C118.364,387.806,124.627,392.594,132.087,386.595z"/>
<path style="fill:#BB9F63;" d="M281.661,269.006c-2.551-0.877-4.773-1.642-7.621-2.621c-1.387,4.552-2.618,8.59-3.944,12.941
	c2.546,0.812,4.465,1.424,6.525,2.082C278.294,277.29,279.803,273.579,281.661,269.006z"/>
<path style="fill:#BB9F63;" d="M215.57,532.911c-2.604,0.638-5.157,1.263-8.792,2.154c3.622,1.179,5.696,1.854,8.223,2.676
	c1.617-4.93,7.281-4.139,11.905-5.471c4.894-1.41,9.746-2.963,14.617-4.454c-2.764-1.096-6.974-2.319-8.331-0.87
	c-4.243,4.529-10.272,2.327-14.755,5.081c-0.071,0.044-0.615-0.681-1.308-1.466c1.393-0.422,2.437-0.738,3.919-1.187
	C216.072,527.926,215.74,528.19,215.57,532.911z"/>
<path style="fill:#BB9F63;" d="M168.136,316.935c-8.095-6.602-12.544-7.593-20.646-4.896
	C153.235,317.409,160.094,318.195,168.136,316.935z"/>
<path style="fill:#BB9F63;" d="M355.072,536.73c-0.55-2.115-0.904-3.475-1.257-4.834c-1.081,0.319-2.171,0.609-3.24,0.966
	c-0.965,0.323-1.879,0.834-2.862,1.063c-4.302,1-8.621,1.927-12.036,2.682c0.331,3.778,0.553,6.323,0.821,9.379
	c1.995-1.886,4.529-3.211,5.26-5.199C343.206,536.848,350.652,533.677,355.072,536.73z"/>
<path style="fill:#BB9F63;" d="M306.692,241.41c-9.02-0.724-9.798-0.072-12.085,9.772
	C302.433,251.492,303.076,250.988,306.692,241.41z"/>
<path style="fill:#BB9F63;" d="M323.874,552.758c0.277,0.79,0.553,1.58,0.83,2.369c11.776-3.424,23.552-6.848,35.328-10.272
	c-0.152-0.674-0.304-1.348-0.455-2.023c-3.871,1.12-7.736,2.257-11.613,3.354c-4.125,1.167-8.257,2.309-12.392,3.437
	C331.677,550.686,327.774,551.715,323.874,552.758z"/>
<path style="fill:#BB9F63;" d="M327.487,507.982c-6.483-1.504-11.327-0.919-16.661,1.198c-4.612,1.831-10.232,1.124-15.319,3.61
	c2.101,1.893,3.345,3.014,3.93,3.541C307.429,509.335,317.414,510.149,327.487,507.982z"/>
<path style="fill:#BB9F63;" d="M133.886,314.057c6.293,3.128,10.765,9.529,20.012,5.503
	C146.915,317.19,142.575,310.415,133.886,314.057z"/>
<path style="fill:#BB9F63;" d="M254.464,257.634c2.402,0.514,4.224,0.904,6.502,1.392c1.267-3.893,2.433-7.475,3.777-11.601
	c-2.675,0.185-4.678,0.324-6.724,0.465C256.848,251.099,255.772,254.049,254.464,257.634z"/>
<path style="fill:#BB9F63;" d="M219.615,348.322c-0.19,0.872-0.381,1.744-0.571,2.615c5.87,1.188,11.739,2.375,18.717,3.787
	C232.854,345.038,225.546,349.347,219.615,348.322z"/>
<path style="fill:#BB9F63;" d="M143.67,397.881c4.753,4,9.591,3.925,16.549-0.257C153.464,393.93,152.452,393.946,143.67,397.881z"
	/>
<path style="fill:#BB9F63;" d="M200.667,322.152c-5.712-6.86-9.343-8.586-14.134-6.24
	C190.944,319.078,193.121,325.723,200.667,322.152z"/>
<path style="fill:#BB9F63;" d="M252.442,252.081c1.61-4.491,3.048-8.502,4.562-12.725c-3.902-0.116-3.912-0.122-7.807,7.117
	c-0.622,1.155-1.101,2.387-1.7,3.703C249.273,250.859,250.577,251.362,252.442,252.081z"/>
<path style="fill:#BB9F63;" d="M249.38,537.186c0.144,0.507,0.287,1.015,0.431,1.522c0.829-0.092,1.668-0.134,2.486-0.285
	c5.702-1.053,11.392-2.169,17.101-3.179c2.592-0.458,4.382-3.263,3.97-4.825C265.439,532.655,257.409,534.921,249.38,537.186z"/>
<path style="fill:#BB9F63;" d="M274.447,542.259c2.529,2.228,19.871-2.81,22.838-7.156
	C289.863,537.429,282.441,539.755,274.447,542.259z"/>
<path style="fill:#BB9F63;" d="M197.155,325.609c2.949,6.739,8.79,4.158,14.552,4.792
	C207.235,325.787,203.225,322.716,197.155,325.609z"/>
<path style="fill:#BB9F63;" d="M313.671,555.554c-4.161,1.129-6.877,1.705-9.476,2.616c-2.636,0.924-5.156,2.178-7.726,3.287
	c0.197,0.58,0.395,1.16,0.592,1.739c5.658-0.572,10.711-3.204,14.371-5.085c3.12,0,4.889,0,7.642,0
	C316.131,556.718,314.298,555.85,313.671,555.554z"/>
<path style="fill:#BB9F63;" d="M157.826,383.348c-0.136-0.456-0.272-0.911-0.408-1.367c-9.083-0.251-16.194,6.166-24.734,7.75
	c0.141,0.466,0.282,0.931,0.422,1.397C141.346,388.535,149.586,385.941,157.826,383.348z"/>
<path style="fill:#BB9F63;" d="M164.194,309.702c5.249,0.422,7.75,8.313,15.362,4.783
	C174.002,311.958,170.943,305.713,164.194,309.702z"/>
<path style="fill:#BB9F63;" d="M282.743,295.652c-6.876-2.498-6.876-2.498-8.562,4.487
	C280.383,302.904,280.532,302.83,282.743,295.652z"/>
<path style="fill:#BB9F63;" d="M236.536,262.896c-7.348-2.129-5.479,4.723-9.052,8.169
	C235.546,272.338,233.496,265.057,236.536,262.896z"/>
<path style="fill:#BB9F63;" d="M188.725,334.042c-2.975-5.777-7.244-3.631-11.327-3.122
	C179.937,336.644,184.116,335.244,188.725,334.042z"/>
<path style="fill:#BB9F63;" d="M92.82,376.045c0.12,0.468,0.24,0.936,0.36,1.404c6.707,1.599,11.568-3.976,17.693-4.639
	c-0.161-0.596-0.322-1.192-0.483-1.788C104.534,372.697,98.677,374.371,92.82,376.045z"/>
<path style="fill:#BB9F63;" d="M294.215,526.44c-0.125-0.374-0.251-0.748-0.376-1.123c-2.296,0.326-4.632,0.483-6.875,1.025
	c-2.117,0.512-4.175,1.336-6.185,2.195c-1.95,0.834-3.806,1.888-5.703,2.845c0.17,0.318,0.339,0.637,0.509,0.955
	C281.795,530.373,288.005,528.406,294.215,526.44z"/>
<path style="fill:#BB9F63;" d="M215.53,385.064c0.111-0.681,0.223-1.361,0.334-2.042c-4.591-1.137-8.588-5.305-15.094-1.633
	C206.29,382.764,210.91,383.914,215.53,385.064z"/>
<path style="fill:#BB9F63;" d="M226.999,355.494c-0.108,0.618-0.217,1.236-0.325,1.853c4.944,1.037,9.888,2.074,14.833,3.112
	c0.118-0.516,0.236-1.033,0.354-1.549C237.532,355.262,232.025,356.344,226.999,355.494z"/>
<path style="fill:#BB9F63;" d="M290.159,287.523c3.522,0.095,7.99,4.087,9.415-3.246
	C295.678,283.472,291.82,281.492,290.159,287.523z"/>
<path style="fill:#BB9F63;" d="M241.487,514.917c-2.102,2.443-7.758-3.072-8.617,4.466c1.826-0.763,3.139-1.311,4.232-1.768
	c0.685,2.16,1.283,4.043,1.88,5.925c0.291-0.104,0.582-0.208,0.873-0.312C240.384,520.533,240.913,517.839,241.487,514.917z"/>
<path style="fill:#BB9F63;" d="M188.292,311.827c-4.04-2.444-6.537-7.304-13.008-4.119
	C180.072,308.826,181.845,315.539,188.292,311.827z"/>
<path style="fill:#BB9F63;" d="M264.468,283.019c1.291-3.818,1.922-5.683,3.156-9.333c-3.824,1.383-6.152,2.225-8.48,3.068
	C260.604,278.472,262.065,280.191,264.468,283.019z"/>
<path style="fill:#BB9F63;" d="M194.901,527.19c-0.201-0.239-0.402-0.478-0.603-0.718c-0.789,0.41-1.578,0.819-2.367,1.229
	c-0.405-0.503-0.811-1.006-1.216-1.509c2.105-1.909,4.211-3.818,7.357-6.672c-4.419,1.866-7.655,3.233-10.232,4.321
	c1.345,2.261,2.493,4.19,3.983,6.695C193.048,529.205,193.974,528.198,194.901,527.19z"/>
<path style="fill:#BB9F63;" d="M253.275,261.538c-2.978,5.511,1.871,4.76,4.803,6.457c0.545-2.082,0.951-3.634,1.415-5.405
	C257.108,262.187,255.246,261.872,253.275,261.538z"/>
<path style="fill:#BB9F63;" d="M173.183,378.956c-0.135-0.777-0.271-1.554-0.406-2.331c-3.919,0.941-7.837,1.881-11.756,2.822
	c0.122,0.63,0.243,1.26,0.365,1.89C165.318,380.543,169.251,379.75,173.183,378.956z"/>
<path style="fill:#BB9F63;" d="M109.618,382.463c-3.765-5.4-3.765-5.4-10.446-1.537C103.484,381.56,106.551,382.011,109.618,382.463
	z"/>
<path style="fill:#BB9F63;" d="M225.743,256.417c2.614-0.861,4.305-0.903,4.724-1.655c1.133-2.03,1.725-4.362,2.532-6.574
	c-0.966,0.01-2.496-0.359-2.802,0.096C228.787,250.379,227.717,252.703,225.743,256.417z"/>
<path style="fill:#BB9F63;" d="M276.131,262.201c2.776,0.147,5.305,5.298,8.972,0.642
	C281.78,261.422,279.265,258.612,276.131,262.201z"/>
<path style="fill:#BB9F63;" d="M356.395,516.836c-0.331-0.221-0.662-0.441-0.993-0.662c-1.638,2.099-3.275,4.197-5.162,6.615
	c0.44,0.819,1.314,2.442,2.612,4.856C354.175,523.61,355.285,520.223,356.395,516.836z"/>
<path style="fill:#BB9F63;" d="M369.86,525.264c-0.493-0.906-0.868-1.904-1.497-2.704c-4.096-5.213-3.39-9.942,2.305-13.562
	c2.795-1.777,5.826-3.18,9.674-5.249c-14.152-5.323-27.48-10.336-40.809-15.35c0.186-0.513,0.371-1.027,0.557-1.54
	c1.576,0.486,3.173,0.914,4.725,1.467c11.491,4.095,22.918,8.382,34.502,12.193c2.535,0.834,5.899,0.734,8.399-0.211
	c7.553-2.857,14.869-6.342,22.218-10.417c-8.322,0-16.648,0.169-24.963-0.077c-3.68-0.109-7.362-0.93-10.995-1.666
	c-2.9-0.588-6.341-0.947-6.411-5.035c-0.071-4.129,1.899-7.312,5.88-8.528c5.057-1.545,10.221-2.847,15.425-3.769
	c3.223-0.571,5.344-1.549,5.45-5.147c0.455-15.372,1.059-30.741,1.344-46.115c0.077-4.155-0.772-8.328-1.263-13.145
	c-26.939,3.419-53.223,6.755-80.22,10.182c2.672,10.055-4.673,11.034-11.284,12.628c-5.843,1.409-11.668,3.068-17.602,3.85
	c-2.835,0.374-5.886-1.155-8.874-1.58c-1.792-0.255-3.749-0.425-5.464,0.016c-36.161,9.302-72.297,18.699-108.439,28.074
	c-9.592,2.488-19.125,5.269-28.818,7.271c-3.138,0.648-7.228,0.18-9.991-1.369c-36.627-20.528-73.096-41.339-109.601-62.087
	c-1.076-0.612-2.41-1.093-3.07-2.027c-0.708-1.002-1.357-2.757-0.926-3.647c0.407-0.838,2.314-1.479,3.457-1.342
	c6.29,0.758,8.663-0.677,9.807-6.88c0.769-4.17,1.315-8.409,1.556-12.64c0.301-5.296,2.476-8.104,7.98-9.403
	c16.505-3.896,32.872-8.379,49.292-12.64c0.775-0.201,1.532-0.468,2.543-1.977c-8.507-3.638-16.886-7.618-25.551-10.828
	c-11.431-4.234-23.112-7.791-34.616-11.839c-1.514-0.533-2.613-2.243-3.904-3.408c1.489-0.588,3.018-1.773,4.46-1.676
	c27.204,1.842,54.398,3.834,81.594,5.803c1.868,0.135,3.73,0.343,7.015,0.65c-11.833-10.24-23.254-18.357-36.574-23.524
	c-5.767-2.237-11.64-4.206-17.385-6.495c-1.46-0.582-2.618-1.922-3.914-2.914c1.523-0.911,2.959-2.401,4.581-2.642
	c14.523-2.16,29.074-4.129,43.625-6.097c25.072-3.392,50.15-6.743,75.224-10.115c3.684-0.495,7.38-1.485,11.042-1.368
	c2.797,0.09,6.274,0.776,8.21,2.549c20.916,19.147,41.73,38.414,62.216,58.019c4.617,4.418,7.856,10.275,12.783,14.829
	c-3.201-4.912-5.9-10.258-9.704-14.647c-8.238-9.505-16.833-18.725-25.665-27.685c-11.948-12.121-24.306-23.836-36.362-35.852
	c-2.265-2.258-4.305-2.664-7.496-2.174c-40.909,6.276-81.851,12.344-122.797,18.376c-2.64,0.389-5.387,0.051-8.084,0.051
	c-0.114-0.527-0.229-1.055-0.343-1.582c1.366-0.553,2.691-1.423,4.105-1.609c18.949-2.493,37.934-4.726,56.864-7.355
	c23.126-3.212,46.223-6.64,69.296-10.216c4.233-0.656,7.294,0.008,10.44,3.1c16.439,16.155,32.784,32.427,49.743,48.025
	c16.572,15.242,26.253,33.965,30.959,55.634c0.413,1.899,0.913,3.78,1.306,5.683c0.1,0.482-0.06,1.018-0.189,2.665
	c-1.135-1.517-1.849-2.252-2.302-3.124c-0.896-1.724-1.708-3.497-2.448-5.294c-9.819-23.826-26.621-41.927-46.638-57.538
	c-12.857-10.026-25.256-20.637-38.082-30.704c-2.12-1.664-5.453-2.83-8.097-2.619c-36.017,2.868-72.011,6.027-108.012,9.093
	c-5.96,0.508-11.929,0.919-19.323,1.484c2.368,1.215,3.474,1.93,4.679,2.378c16.966,6.307,32.313,15.398,45.597,27.643
	c4.438,4.091,9.441,5.051,14.849,5.839c8.561,1.247,17.113,2.552,26.608,3.973c-3.377-2.939-6.24-5.432-9.215-8.021
	c8.928-2.202,14.243,3.708,20.264,8.103c3.173,2.316,6.675,4.183,10.028,6.252c0.424-0.628,0.848-1.257,1.272-1.885
	c-8.191-6.067-16.382-12.135-24.572-18.201c5.497-3.064,9.835-0.814,13.915,2.655c7.796,6.628,15.527,13.335,23.417,19.849
	c1.665,1.374,3.897,2.061,6.549,2.22c-3.264-3.465-6.528-6.93-10.285-10.919c4.458-0.931,7.425-0.513,10.301,2.702
	c4.754,5.315,10.042,10.153,15.142,15.153c0.323,0.317,0.968,0.305,2.415,0.717c-2.08-3.053-3.739-5.488-5.397-7.922
	c0.276-0.442,0.552-0.884,0.827-1.326c2.479,1.169,5.347,1.883,7.356,3.601c4.411,3.773,8.291,8.159,12.584,12.081
	c1.863,1.702,4.208,2.875,7.517,5.074c-1.385-2.921-2.086-4.399-2.742-5.783c11.375-1.431,17.56,5.477,23.194,13.589
	c1.516,2.182,3.732,4.093,6.019,5.483c6.198,3.768,12.628,7.153,18.916,10.778c1.393,0.803,2.578,1.969,3.859,2.968
	c-0.204,0.557-0.409,1.115-0.613,1.673c-1.839-0.276-3.766-0.287-5.501-0.87c-13.069-4.393-26.086-8.942-39.16-13.319
	c-1.728-0.579-3.81-0.986-5.519-0.585c-8.174,1.916-12.13,1.468-20.589-3.158c2.409-0.855,4.485-1.592,6.561-2.329
	c-0.016-0.324-0.032-0.648-0.047-0.973c-2.04,0-4.177-0.398-6.103,0.07c-7.719,1.878-15.33,4.218-23.075,5.97
	c-2.81,0.636-5.885,0.102-8.839,0.102c-0.059-0.582-0.119-1.165-0.178-1.747c8.247-2.614,16.495-5.228,25.553-8.099
	c-6.814-4.227-11.898,3.953-18.81,0.913c4.175-1.125,7.463-2.01,10.75-2.896c-0.091-0.483-0.182-0.966-0.273-1.449
	c-8.081,1.663-16.176,3.262-24.239,5.008c-7.873,1.705-15.762,3.38-23.532,5.482c-1.808,0.489-3.007,2.899-4.751,4.007
	c-7.192,4.571-13.475,1.041-20.192-2.404c1.924-0.941,3.44-1.683,4.956-2.425c-0.134-0.531-0.269-1.062-0.403-1.592
	c-3.447,0.84-7.214,1.07-10.263,2.67c-4.074,2.137-6.929,1.751-9.719-2.213c3.829-1.34,7.574-2.651,11.295-3.953
	c-3.085-1.725-6.097-4.655-9.297-4.878c-3.812-0.266-7.81,1.713-11.684,2.865c-3.536,1.052-6.979,2.43-10.538,3.383
	c-1.134,0.304-2.509-0.291-3.773-0.475c-0.054-0.494-0.109-0.987-0.163-1.481c7.278-2.082,14.557-4.164,22.609-6.468
	c-6.611-3.948-11.878-7.306-19.703-5.367c-17.144,4.248-34.575,7.337-51.881,10.935c-0.963,0.2-1.858,0.725-3.528,1.399
	c13.248,6.288,25.84,12.276,38.442,18.243c20.309,9.616,40.645,19.176,60.919,28.865c3.447,1.647,6.304,1.909,10.33,0.811
	c27.957-7.623,56.219-14.145,84.104-22.009c19.867-5.603,38.764-3.331,57.724,3.234c2.54,0.88,5.644,0.126,8.192,0.993
	c3.483,1.186,6.658,3.258,10.018,4.838c1.905,0.895,4.006,2.409,5.865,2.209c26.75-2.879,53.475-5.998,80.203-9.079
	c1.203-0.139,2.385-0.459,4.22-0.821c-0.716-2.713-1.123-5.307-2.138-7.636c-0.476-1.093-2.191-2.465-3.228-2.374
	c-17.624,1.538-35.339,2.577-52.791,5.291c-8.548,1.329-16.613,5.818-24.866,8.958c-3.544,1.348-8.836-1.854-8.361-5.508
	c2.216-17.057,6.791-33.515,13.011-50.08c19.164,5.929,38.055,11.774,56.946,17.618c-0.16,0.801-0.32,1.602-0.479,2.403
	c-1.75-0.205-3.605-0.106-5.235-0.661c-16.549-5.639-33.062-11.385-50.537-17.431c-3.233,14.746-6.382,29.111-9.531,43.475
	c0.351,0.22,0.702,0.439,1.053,0.659c2.769-1.987,5.58-3.916,8.298-5.97c8.517-6.437,18.046-9.537,28.754-9.06
	c13.794,0.614,27.592,1.129,42.109,1.715c-0.85-1.456-1.359-2.912-2.337-3.908c-5.202-5.305-10.015-11.167-15.895-15.599
	c-18.015-13.578-23.766-31.807-20.333-53.098c3.514-21.794,8.132-43.414,12.515-65.059c0.355-1.751,2.39-4.098,4.054-4.508
	c23.858-5.875,47.898-7.01,72.128-2.223c5.109,1.009,7.617,3.556,9.095,8.741c6.737,23.636,9.774,47.804,11.282,72.216
	c1.058,17.127-4.205,31.712-17.91,42.774c-5.516,4.452-10.87,9.114-16.127,13.87c-2.569,2.324-4.745,5.08-7.367,8.676
	c9.671-1.085,16.393,1.183,15.889,11.668c5.021,0.324,9.498,0.484,13.931,1.008c0.877,0.104,1.589,1.607,3.655,3.856
	c-13.376,1.957-25.419,3.718-37.704,5.515c0,7.907-0.491,15.661,0.113,23.33c0.957,12.162,2.759,24.255,3.955,36.402
	c0.355,3.609,1.848,4.891,5.365,4.824c9.3-0.178,17.459,1.987,22.793,10.702c1.768,2.889,15.408,2.493,17.785-0.027
	c0.349-0.37,0.893-0.888,0.836-1.258c-0.988-6.371,4.277-7.586,8.178-9.455c9.883-4.734,19.905-9.188,29.968-13.53
	c7.088-3.058,13.897-2.14,18.747,4.036c5.079,6.467,9.791,13.344,13.659,20.579c1.519,2.841,1.326,7.501,0.176,10.711
	c-5.257,14.679-31.931,24.167-45.126,15.976c-5.811-3.607-10.836-8.513-16.066-13.007c-2.572-2.211-5.004-3.125-8.705-0.607
	c1.76,2.323,3.478,4.458,5.051,6.695c2.95,4.197,6.111,8.285,8.653,12.723c4.474,7.812,3.998,12.093-1.856,21.755
	c11.994,4.449,23.895,8.864,35.795,13.278c0.026,0.799,0.052,1.598,0.078,2.396c-19.956,7.613-39.913,15.225-60.591,23.114
	c2.674,6.476,5.253,12.724,7.947,19.248c16.735-2.932,33.068-5.842,49.419-8.65c40.258-6.913,80.498-13.935,120.808-20.534
	c8.168-1.337,16.608-1.057,24.927-1.416c3.501-0.151,7.013-0.025,10.52-0.025c0.355-0.477,0.71-0.953,1.065-1.43
	c-11.751-17.49-23.502-34.98-35.525-52.875c-6.225,4.278-11.613,7.951-16.972,11.667c-13.394,9.289-26.829,18.52-40.123,27.952
	c-3.447,2.446-6.68,3-10.881,2.175c-24.444-4.799-48.959-9.236-73.421-13.946c-1.529-0.294-2.811-1.867-4.208-2.845
	c1.741-0.351,3.56-1.22,5.212-0.974c23.951,3.57,47.863,7.399,71.833,10.827c2.839,0.406,6.415-0.449,8.885-1.964
	c18.57-11.387,37.003-23.004,55.342-34.762c3.56-2.283,5.655-2.275,8.141,1.415c9.784,14.521,19.776,28.901,29.767,43.281
	c2.221,3.197,4.929,6.063,7.061,9.313c0.957,1.458,1.894,3.901,1.289,5.138c-0.602,1.232-3.123,2.046-4.846,2.128
	c-11.149,0.528-22.394,0.066-33.447,1.332c-18.438,2.112-36.791,5.059-55.117,8.044c-37.173,6.055-74.301,12.386-111.454,18.569
	c-12.448,2.071-9.762,2.669-16.006-7.589c-2.287-3.757-4.489-7.567-6.886-11.616c-21.033,7.972-41.785,15.999-62.654,23.707
	c-26.7,9.861-53.508,19.431-80.234,29.222c-3.305,1.211-5.974,1.03-8.846-1.178c-16.985-13.055-34.083-25.962-51.077-39.006
	c-1.33-1.021-2.152-2.703-3.21-4.078c0.347-0.435,0.693-0.871,1.04-1.306c1.579,0.727,3.336,1.212,4.71,2.218
	c16.857,12.349,33.611,24.84,50.552,37.072c1.604,1.158,4.688,1.757,6.421,1.03c64.629-27.091,131.177-48.937,197.159-72.326
	c1.636-0.58,3.212-1.332,5.641-2.349c-10.326-3.851-19.8-7.552-29.425-10.803c-1.575-0.532-3.884,0.756-5.746,1.48
	c-13.131,5.109-25.962,11.209-39.423,15.182c-12.685,3.745-25.018,0.886-35.185-8.276c-6.447-5.81-12.632-11.911-18.962-17.851
	c-1.374-1.29-2.868-2.452-4.306-3.674L369.86,525.264z M418.06,471.978c-0.83,1.942-1.506,3.523-2.182,5.103
	c-0.981-1.454-2.105-2.835-2.894-4.387c-0.543-1.07-0.669-2.367-0.9-3.578c-4.49-23.589-6.473-47.385-5.051-71.364
	c0.629-10.611,4.747-19.875,13.204-26.873c5.461-4.52,10.638-9.39,16.18-13.804c12.17-9.694,16.351-22.342,15.517-37.566
	c-1.208-22.066-6.63-43.294-11.634-64.632c-0.751-3.2-1.59-6.38-2.491-9.978c-23.591,6.433-46.67,1.668-69.764,0.668
	c11.106-0.434,22.226-0.077,33.312-0.534c11.194-0.462,22.355-1.731,34.13-2.696c-0.863-1.452-0.97-1.894-1.215-1.992
	c-0.641-0.256-1.336-0.4-2.021-0.522c-21.375-3.789-42.706-1.997-64.067,0.284c-4.512,0.482-6.327,2.549-6.993,6.72
	c-3.403,21.289-7.335,42.503-10.28,63.854c-2.462,17.848,2.347,33.367,17.601,44.526c3.428,2.508,6.606,5.358,9.915,8.031
	c11.634,9.403,19.124,21.238,21.112,36.238c0.906,6.833,1.849,13.673,2.37,20.541c1.332,17.551,0.717,35.031-2.457,52.391
	c-0.6,3.28-1.927,4.904-5.577,4.911c-5.48,0.011-10.969,0.508-16.434,1.012c-2.765,0.255-5.814,0.596-5.643,5.134
	c22.568,6.15,44.659,2.073,67.333-1.755C434.156,475.006,431.715,473.942,418.06,471.978z M221.825,364.14
	c-1.606-1.034-2.55-1.761-3.592-2.295c-20.742-10.623-42.635-18.181-65.569-21.835c-24.591-3.918-49.37-6.801-74.147-9.363
	c-13.799-1.427-27.76-1.279-41.648-1.84c0.518,1.372,1.215,1.863,1.99,2.096c33.111,9.961,64.15,24.977,95.475,39.271
	c3.941,1.798,7.448,2.043,11.631,1.141C170.688,365.985,195.471,360.938,221.825,364.14z M135.868,435.561
	c2.406-11.585,3-9.007-5.508-13.089c-17.699-8.493-35.477-16.822-53.224-25.217c-15.796-7.472-31.594-14.941-47.346-22.39
	c-2.744,8.572-5.381,16.812-8.242,25.75c34.2,19.439,69.507,39.507,104.814,59.575c0.462-0.506,0.924-1.011,1.386-1.517
	c-1.174-1.262-2.137-2.873-3.555-3.734c-25.271-15.341-50.599-30.59-75.908-45.868c-1.439-0.869-2.825-1.826-4.236-2.743
	c0.182-0.304,0.364-0.607,0.547-0.911c27.83,15.86,55.659,31.72,83.749,47.728c1.811-3.17,3.19-5.833,4.8-8.347
	c2.494-3.897,1.357-5.964-2.646-8.164c-22.335-12.271-44.507-24.839-66.724-37.325c-1.601-0.9-3.114-1.955-4.667-2.938
	c0.25-0.437,0.5-0.874,0.749-1.311C85.15,408.537,110.441,422.013,135.868,435.561z M133.016,453.659
	c1.056-0.229,1.731-0.338,2.384-0.522c43.885-12.364,87.728-24.883,131.696-36.946c6.683-1.833,11.418-5.477,16-10.217
	c-10.483-4.404-30.268-6.94-40.297-4.848c-20.931,4.367-41.854,8.784-62.708,13.497c-13.036,2.947-25.941,6.472-38.51,9.639
	c-0.916,6.219-1.73,11.749-2.684,18.225c25.87-6.35,51.28-12.586,76.689-18.823c-1.076,1.301-2.363,1.835-3.695,2.206
	c-23.156,6.445-46.287,12.985-69.505,19.204C137.708,446.327,134.24,448.176,133.016,453.659z M384.626,517.167
	c-0.281,0.637-0.562,1.273-0.843,1.91c7.59,6.28,14.775,13.17,22.936,18.591c4.248,2.822,10.389,4.653,15.371,4.116
	c9.542-1.029,19.224-3.113,28.208-6.472c18.536-6.932,19.796-14.78,5.741-29.072c-5.436-5.527-11.491-9.577-19.783-7.728
	C418.234,502.529,401.428,509.846,384.626,517.167z M370.617,515.661c10.233,8.508,19.837,16.492,26.408,21.955
	c-4.43-4.617-11.486-11.972-18.954-19.756c2.645-2.135,3.948-3.728,5.626-4.458c15.718-6.833,31.454-13.631,47.28-20.208
	c11.759-4.887,21.049-0.582,28.584,8.648c2.56,3.136,4.922,6.532,6.801,10.11c5.623,10.713,4.422,15.322-5.314,22.49
	c-0.193,0.142-0.238,0.487-0.366,0.765c13.958-4.248,16.936-11.733,9.153-23.488c-3.223-4.867-6.997-9.366-10.351-14.151
	c-2.954-4.213-2.135-7.546,2.313-10.135c4.938-2.874,9.63-2.657,14.34,0.836c4.989,3.7,10.233,7.057,15.366,10.563
	c-4.806-5.794-10.051-10.837-14.723-16.364c-3.34-3.951-2.666-6.629,2.067-8.747c9.191-4.113,18.538-7.892,27.924-11.544
	c1.284-0.5,3.769-0.035,4.661,0.936c4.539,4.939,9.113,9.929,12.94,15.415c3.362,4.819,2.364,9.132-1.891,13.336
	c-1.333,1.317-2.83,2.469-4.516,3.926c9.734-3.14,13.315-8.273,9.469-15.863c-3.688-7.279-8.88-13.934-14.245-20.144
	c-1.687-1.952-6.293-2.67-9.18-2.079c-13.456,2.755-24.798,10.089-35.789,17.947c-0.79,0.565-1.352,1.573-1.791,2.485
	c-3.634,7.545-9.359,10.161-17.522,8.056c-1.148-0.296-2.449-0.301-3.631-0.12c-25.38,3.89-48.543,13.774-70.72,26.286
	C373.52,512.945,372.69,513.905,370.617,515.661z M500.046,497.331c7.298-0.045,16.872-3.974,20.435-8.459
	c1.279-1.61,2.382-5.385,1.529-6.327c-4.579-5.055-9.335-10.27-15.025-13.845c-2.34-1.47-7.196,0.909-10.859,1.747
	c-2.916,0.667-5.771,1.617-8.633,2.503c-13.16,4.077-13.55,5.716-3.342,15.275C489.087,492.847,494.363,496.992,500.046,497.331z
	 M388.901,387.614c0.247-0.619,0.493-1.238,0.74-1.857c-1.906-0.749-3.82-2.164-5.717-2.143
	c-14.853,0.167-29.711,0.416-44.551,1.033c-9.857,0.41-25.411,8.385-31.684,16.209C333.043,385.527,361.507,389.969,388.901,387.614
	z M211.382,368.459c16.464,5.745,32.927,11.49,49.391,17.234C245.86,375.485,230.161,367.538,211.382,368.459z M428.074,395.87
	c-0.407-3.86-0.753-7.147-1.09-10.347c-14.022-1.995-13.684-2.762-15.509,12.019C416.813,397.004,422.017,396.48,428.074,395.87z
	 M277.155,421.349c-0.144,0.743-0.288,1.486-0.433,2.229c1.996,1.323,4.102,3.918,5.97,3.756c9.538-0.826,19.014-2.364,29.536-3.791
	c-1.661-2.835-2.587-4.416-3.412-5.823c-7.593,4.408-15.124,6.435-23.556,4.258C282.676,421.311,279.863,421.534,277.155,421.349z"
	/>
<path style="fill:#BB9F63;" d="M190.971,496.861c-23.215-4.244-45.258-8.282-67.304-12.299c-8.001-1.458-16.037-2.743-23.998-4.392
	c-1.621-0.336-4.208-1.892-4.259-2.983c-0.368-7.861-0.197-15.746,0.647-23.844c0.407,0.783,1.069,1.532,1.177,2.354
	c0.392,2.985,0.648,5.991,0.866,8.995c0.835,11.499,0.775,11.946,12.364,13.18c39.127,4.168,77.445,12.596,115.778,21.089
	c16.888,3.742,33.967,6.617,51.731,10.035c-0.255-3.412-0.651-6.479-0.685-9.55c-0.193-17.18-0.31-34.362-0.424-51.543
	c-0.03-4.5,0.75-7.789,6.772-6.031c2.124,0.62,4.854-0.421,7.208-1.065c30.835-8.437,61.65-16.944,92.479-25.404
	c1.339-0.367,2.791-0.733,4.122-0.564c0.831,0.106,1.976,1.117,2.16,1.912c0.16,0.688-0.795,1.673-1.347,2.463
	c-0.166,0.238-0.641,0.251-0.964,0.39c-3.643,1.568-9.129,2.183-10.545,4.911c-3.04,5.856-3.836,12.808-1.654,19.568
	c0.577,1.788,1.084,3.599,3.229,6.564c0.752-1.37,1.204-3.175,2.354-3.967c0.881-0.607,2.643,0.064,4.014,0.166
	c-0.224,1.201-0.027,2.895-0.75,3.513c-2.273,1.945-4.844,3.56-7.382,5.173c-22.567,14.342-45.152,28.654-67.726,42.985
	c-0.592,0.376-1.113,0.862-2.845,2.22c2.766-0.26,4.232-0.397,7.243-0.68c-2.153,1.575-3.327,3.096-4.723,3.339
	c-5.585,0.97-11.267,1.387-16.851,2.366c-1.555,0.273-3.622,1.446-4.218,2.765c-4.563,10.091-14.199,11.549-23.222,14.115
	c-4.281,1.218-8.565,2.428-13.465,2.562c2.181-1.31,4.273-2.819,6.576-3.86c1.558-0.705,3.425-1.084,5.134-1.026
	c3.718,0.126,6.304-1.118,5.299-5.107c-0.984-3.907-3.685-5.56-7.692-3.087c-0.51,0.315-1.29,0.192-2.783,0.375
	c0.973-1.43,1.477-2.171,2.05-3.013c-0.005-0.005-0.144-0.296-0.331-0.331c-18.588-3.516-37.152-7.167-55.792-10.384
	c-3.868-0.668-8.154-0.323-12.006,0.583c-16.164,3.801-32.237,7.992-49.665,12.372c4.198,3.333,7.683,6.109,11.178,8.871
	c3.615,2.857,7.339,5.588,10.8,8.62c0.978,0.856,1.2,2.575,1.769,3.898c-1.399-0.166-3.189,0.166-4.134-0.577
	c-7.663-6.023-15.202-12.206-22.676-18.464c-0.967-0.81-2.117-3.131-1.861-3.377c1.166-1.119,2.715-2.133,4.284-2.49
	c14.649-3.333,29.332-6.517,44.001-9.764C186.581,498.071,188.233,497.578,190.971,496.861z M369.118,425.33
	c-26.139,8.049-52.292,16.072-78.4,24.235c-1.214,0.38-2.667,1.876-2.931,3.088c-1.197,5.492-2.831,11.076-2.779,16.613
	c0.097,10.206,1.266,20.403,2.066,31.7c29.718-16.582,57.784-32.242,85.62-47.774c-1.145-6.631-2.179-12.616-3.292-19.061
	c-14.943,4.936-29.275,9.671-43.608,14.406c1.065-1.434,2.433-2.012,3.82-2.538c12.058-4.57,24.086-9.225,36.202-13.636
	C369.409,431.054,370.528,429.063,369.118,425.33z M269.869,518.476c9.118-1.093,9.118-1.093,9.555-5.227
	c-3.349-0.692-6.734-1.392-10.297-2.128C269.395,513.784,269.617,515.983,269.869,518.476z"/>
<path style="fill:#BB9F63;" d="M120.825,533.721c-3.109,6.412-3.973,12.908-0.152,19.192c1.213,1.995,3.381,4.221,5.5,4.733
	c30.229,7.302,60.472,14.57,90.851,21.207c5.728,1.252,10.07,3.509,14.176,7.334c19.978,18.609,40.147,37.013,60.032,55.72
	c3.074,2.892,5.461,3.325,9.273,1.813c45.843-18.186,91.76-36.187,137.626-54.316c7.885-3.117,8.262-3.447,11.079,4.396
	c1.922,5.35,4.771,6.146,9.886,5.389c31.668-4.685,63.375-9.11,95.076-13.57c26.975-3.795,53.916-7.888,80.958-11.131
	c14.565-1.746,29.312-1.978,43.976-2.903c2.954-0.186,5.906-0.416,10.49-0.742c-7.888-10.035-14.746-19.222-22.095-27.999
	c-10.69-12.768-21.903-25.099-32.516-37.928c-2.969-3.588-5.867-4.989-10.365-4.34c-27.568,3.976-55.272,6.053-83.143,5.587
	c-2.068-0.035-4.138-0.005-6.245-1.103c5.221-0.412,10.439-0.866,15.664-1.23c25.265-1.757,50.529-3.547,75.805-5.131
	c2.187-0.137,5.223,0.431,6.583,1.877c19.673,20.916,39.346,41.853,55.699,65.592c1.387,2.014,2.648,4.115,4.607,7.173
	c-3.841,0.597-6.844,1.177-9.873,1.517c-31.478,3.535-62.975,6.904-94.438,10.576c-29.876,3.487-59.717,7.27-89.571,10.943
	c-14.402,1.772-28.853,3.253-43.167,5.572c-4.929,0.798-7.247-0.633-9.052-4.693c-0.917-2.064-2.205-3.964-3.464-6.182
	c-17.433,7.249-34.38,14.768-51.672,21.383c-31.032,11.873-62.289,23.159-93.402,34.822c-3.542,1.328-5.869,0.291-8.543-1.925
	c-20.603-17.083-42.128-33.163-61.657-51.387c-11.027-10.291-23.743-13.384-37.117-16.59c-23.024-5.52-46.074-10.928-69.083-16.506
	c-1.32-0.32-2.958-1.498-3.457-2.691C115.622,549.852,114.33,541.526,120.825,533.721z"/>
<path style="fill:#BB9F63;" d="M249.671,307.386c2.439,2.56,4.878,5.12,6.625,6.953c3.126,0,5.465,0,7.74,0c0,3.452,0,5.859,0,8.267
	c0.53,0.068,1.061,0.137,1.591,0.205c2.224-5.911,4.448-11.822,6.865-18.246c1.952,0.339,3.955,0.687,6.281,1.091
	c-1.694,9.063-7.404,17.016-6.114,28.03c3.141-3.38,4.232-7.87,8.628-4.672c0,0.9,0.384,2.151-0.062,2.925
	c-3.093,5.372-0.571,9.558,1.796,14.493c4.777,9.958,8.47,20.436,12.642,30.781c0.978-4.378,2.112-9.208,3.13-14.062
	c4.215-20.085,12.449-38.7,21.381-56.972c12.512-25.595,25.574-50.921,38.399-76.363c0.924-1.832,1.829-3.674,3.012-6.054
	c-47.678-0.71-94.79,3.071-141.2-7.229c7.19,0.758,14.366,1.732,21.574,2.225c13.068,0.894,26.156,2.097,39.236,2.102
	c25.174,0.008,50.348-0.746,75.522-1.15c11.564-0.186,11.559-0.152,6.255,9.782c-18.256,34.186-36.715,68.318-48.937,105.259
	c-6.543,19.775-11.795,39.977-17.651,59.981c-0.459,1.566-1.091,3.082-1.642,4.62c-0.469,0.019-0.937,0.038-1.405,0.057
	c-0.454-1.115-1.325-2.24-1.301-3.344c0.683-31.315-13.683-55.606-35.2-76.817c-17.388-17.14-34.37-34.691-51.517-52.074
	c-0.901-0.914-1.662-1.966-1.598-3.879c2.239,2.042,4.477,4.083,6.951,6.34c5.215-7.004,6.639-16.188,12.417-22.576
	c0.581,0.354,1.162,0.709,1.742,1.063c-3.7,6.68-7.533,13.293-10.993,20.096c-0.734,1.444-0.107,3.58-0.107,5.397
	c0.499,0.044,0.997,0.089,1.496,0.133c3.281-5.1,6.562-10.201,9.842-15.301c0.512,0.29,1.024,0.58,1.536,0.87
	c1.91,7.723-8.916,13.971-3.973,22.635c3.771-1.688,1.217-8.415,7.044-6.631c1.133,4.148-4.412,7.49-0.908,12.345
	c4.247-4.17,3.436-15.176,13.514-8.686c-0.288,6.044-5.557,12.068-2.627,20.345c1.475-2.181,2.184-3.229,2.945-4.354
	c3.308,2.164,6.941,3.667,5.108,8.71c-0.324,0.891,1.317,2.495,2.05,3.77L249.671,307.386z"/>
<path style="fill:#BB9F63;" d="M217.572,547.284c-0.242-2.599-0.405-4.35-0.569-6.102c0.353-0.057,0.707-0.114,1.06-0.171
	c0.393,1.976,0.786,3.952,1.256,6.318c1.251,0.326,2.935,0.765,4.945,1.289c0.975-2.82,1.711-5.494,2.939-7.919
	c0.189-0.372,2.643,0.403,3.528,0.556c-0.867,2.232-2.66,4.66-2.048,5.836c0.746,1.435,3.438,2.173,5.42,2.594
	c7.57,1.607,15.193,2.966,23.334,4.521c0.101-1.68,0.167-2.783,0.219-3.636c-2.093-0.202-3.959-0.382-7.361-0.709
	c2.283-1.328,3.18-2.119,4.217-2.41c6.305-1.767,12.643-3.421,20.188-5.438c-2.34,3.411-3.705,5.403-4.825,7.035
	c-1.146-0.614-2.481-1.938-3.329-1.677c-3.425,1.049-7.88,1.455-6.822,7.027c8.467,1.497,17.019,2.84,25.482,4.614
	c2.401,0.503,5.06,1.776,6.702,3.535c5.956,6.382,11.618,12.737,21.205,13.82c1.659,0.188,2.893,4.135,4.324,6.346
	c-1.98,0.381-3.961,1.087-5.941,1.083c-7.358-0.013-15.063-1.727-21.996-0.088c-11.725,2.773-22.676,0.84-33.915-1.567
	c-37.642-8.063-75.317-15.977-112.972-23.977c-4.139-0.88-8.222-2.025-12.36-2.908c-3.131-0.669-6.585-0.797-7.112-5.012
	c-0.57-4.551-1.76-9.454,2.181-13.001c2.671-2.404,4.92-5.197,9.958-4.254C162.336,538.053,189.514,542.48,217.572,547.284z
	 M295.587,569.708c-3.18-2.086-6.931-6.307-11.335-7.161c-42.684-8.276-85.475-15.998-128.241-23.85
	c-6.506-1.195-9.375,0.7-10.673,7.042c-0.683,3.335-0.039,5.935,4.084,6.432c2.978,0.359,5.909,1.093,8.874,1.585
	c38.194,6.344,76.391,12.667,114.584,19.016c6.158,1.024,6.813,1.979,6.022,8.608c5.393-0.951,10.69-1.885,15.301-2.698
	C294.664,575.691,295.029,573.323,295.587,569.708z M146.405,536.998c-4.234-0.838-8.005-1.831-11.839-2.227
	c-1.66-0.172-4.218,0.34-5.037,1.49c-2.819,3.957-5.469,9.112-2.173,13.165c2.102,2.584,7.225,2.711,11.632,4.148
	c-0.62-5.626-1.611-10.027,3.102-12.922c-0.299,3.511-0.573,6.731-0.848,9.95c0.402,0.005,0.803,0.011,1.204,0.016
	C143.717,546.249,144.986,541.88,146.405,536.998z M231.849,573.143c0.12-0.369,0.239-0.737,0.359-1.106
	c-28.125-6.275-56.25-12.549-84.375-18.824c-0.137,0.627-0.273,1.254-0.41,1.882C175.566,561.111,203.707,567.127,231.849,573.143z"
	/>
<path style="fill:#BB9F63;" d="M178.053,254.595c0-3.761,0.438-7.587-0.107-11.267c-0.736-4.961-1.268-10.319-3.551-14.624
	c-17.08-32.211-29.176-66.212-37.624-101.59c-0.317-1.327-0.506-2.684-0.144-4.371c15.197,18.636,31.765,36.614,38.976,60.094
	c7.176,23.368,6.506,47.643,4.867,71.745C179.665,254.586,178.859,254.59,178.053,254.595z"/>
<path style="fill:#BB9F63;" d="M203.795,83.64c8.415,3.139,15.851,6.319,23.542,8.657c6.383,1.941,13.011,3.349,19.632,4.157
	c6.929,0.845,9.978-1.36,10.572-8.096c1.527-17.294-1.438-33.87-10.121-49.1c-3.253-5.706-9.327-7.397-15.167-8.873
	c-5.066-1.281-10.29-1.936-15.383-3.149c10.198-0.269,19.987,1.502,28.887,6.709c2.024,1.185,3.873,3.29,4.931,5.407
	c7.753,15.505,11.507,31.892,9.429,49.251c-1.053,8.798-5.793,12.402-14.422,10.198c-11.259-2.876-22.255-6.79-33.341-10.328
	c-2.009-0.641-3.911-1.621-6.567-2.743c1.461,7.119,2.685,13.77,4.201,20.353c7.196,31.246,0.784,61.121-9.006,90.666
	c-0.834,2.516-1.404,5.214-2.725,7.458c-10.092,17.131-8.356,36.272-9.553,54.917c-0.045,0.7-0.001,1.416,0.103,2.109
	c0.043,0.286,0.356,0.531,1.139,1.615c0.948-1.673,1.816-2.923,2.408-4.292c6.58-15.228,13.164-30.454,19.627-45.731
	c1.385-3.275,3.449-4.226,6.984-4.14c51.55,1.258,103.103,2.37,154.656,3.501c5.956,0.131,6.69,1.335,3.574,6.571
	c-2.988,5.02-6.158,9.932-9.249,14.892c-0.471-0.271-0.941-0.542-1.412-0.813c2.556-5.309,5.111-10.618,8.057-16.736
	c-2.511-0.122-4.355-0.279-6.201-0.292c-24.461-0.175-48.934,0.107-73.379-0.614c-24.251-0.715-48.484-2.271-72.699-3.853
	c-4.842-0.316-7.322,0.779-9.089,5.384c-5.692,14.832-11.867,29.479-17.62,44.289c-1.145,2.947-2.394,4.967-5.753,5.237
	c-3.304,0.266-4.581-1.056-4.101-4.343c0.741-5.074,1.756-10.153,1.916-15.253c0.163-5.187-0.766-10.401-0.828-15.607
	c-0.032-2.725,0.418-5.573,1.253-8.172c6.147-19.149,13.377-38.006,18.464-57.427c6.488-24.774,4.647-49.857-1.267-74.656
	C204.804,88.76,204.43,86.699,203.795,83.64z"/>
<path style="fill:#BB9F63;" d="M538.838,499.885c7.365-10.208,1.12-18.494-3.832-26.439c-4.173-6.695-9.324-12.877-14.659-18.724
	c-4.937-5.411-11.581-6.224-18.649-4.748c-14.413,3.009-27.181,9.839-40.04,16.594c-2.27,1.192-5.567,1.159-8.235,0.729
	c-9.212-1.483-18.312-3.706-27.546-4.985c-3.753-0.52-5.261-1.69-6.537-5.314c-4.248-12.065-2.032-24.188-1.115-36.294
	c0.628-8.29,0.873-8.283,8.982-10.049c11.209-2.44,22.423-4.861,35.429-7.678c-3.647-5.264-6.325-10.147-9.984-14.13
	c-3.804-4.141-8.324-7.743-12.957-10.969c-4.395-3.061-3.724-5.416-0.587-8.914c5.316-5.928,10.265-12.19,15.266-18.393
	c10.107-12.537,9.468-27.298,7.064-41.656c-4.024-24.037-9.263-47.873-14.276-71.734c-0.383-1.822-2.755-3.974-4.659-4.614
	c-18.971-6.377-38.422-7.558-58.18-4.745c-1.539,0.219-3.135,0.029-4.702-0.188c20.572-3.925,41.036-3.534,61.581,0.814
	c6.422,1.359,9.354,3.974,10.552,10.643c3.872,21.56,8.891,42.915,12.745,64.478c3.744,20.949,0.612,40.555-13.998,57.225
	c-3.365,3.839-6.374,7.99-9.754,12.26c5.235,3.643,10.262,7.157,15.307,10.646c6.618,4.576,8.113,11.705,9.359,18.911
	c0.613,3.542-1.949,3.876-4.582,4.302c-12.391,2.002-24.78,4.031-37.122,6.308c-1.393,0.257-3.561,2.151-3.552,3.273
	c0.105,14.281,0.543,28.559,0.893,42.697c2.017,0.438,2.708,0.779,3.347,0.699c10.386-1.305,20.079,1.003,29.154,5.895
	c3.133,1.689,5.346,0.793,8.235-0.604c12.858-6.22,25.698-12.549,38.914-17.933c8.339-3.397,16.309-1.122,22.982,5.25
	c9.4,8.978,16.124,19.715,20.835,31.704C547.051,490.662,542.263,495.015,538.838,499.885z"/>
<path style="fill:#BB9F63;" d="M91.018,483.648c25.932,4.644,51.602,9.24,77.271,13.837c0.027,0.443,0.054,0.887,0.082,1.33
	c-14.912,3.065-29.825,6.13-45.931,9.44c10.451,7.832,20.176,15.12,29.902,22.408c-0.644,0.819-1.288,1.639-1.932,2.458
	c-11.219-7.438-21.156-16.64-32.025-24.559c0.014-0.556,0.028-1.112,0.042-1.667c13.901-2.709,27.802-5.418,41.704-8.128
	c-0.029-0.396-0.058-0.793-0.088-1.189c-14.758-2.214-29.506-4.505-44.279-6.613c-8.741-1.247-17.544-2.071-26.26-3.455
	c-1.123-0.178-2.667-2.563-2.701-3.958c-0.208-8.502-0.264-17.023,0.115-25.516c0.168-3.773-1.241-5.669-4.354-7.445
	c-24.904-14.209-49.774-28.481-74.486-43.02c-2.775-1.633-5.241-4.722-6.565-7.706c-3.318-7.476-1.243-10.671,6.872-10.958
	c3.4-0.12,4.526-1.468,5.246-4.491c1.227-5.148,3.111-10.14,4.33-15.289c0.847-3.58,2.703-5.157,6.308-5.992
	c13.232-3.064,26.375-6.51,41-10.176c-14.236-8.33-29.223-10.508-43.154-15.606c16.589,0.863,31.399,7.041,46.98,15.772
	c-8.807,2.494-16.325,4.622-23.843,6.753c-6.458,1.831-12.861,3.899-19.394,5.405c-3.401,0.784-4.52,2.742-5.077,5.75
	c-1.062,5.732-2.31,11.428-3.42,17.151c-0.736,3.796-2.653,5.291-6.737,4.725c-2.524-0.35-5.231,0.618-7.856,0.994
	c1.231,3.23,2.263,6.56,3.802,9.636c0.533,1.066,2.32,1.514,3.546,2.222c24.681,14.242,49.314,28.568,74.095,42.634
	c4.006,2.274,5.844,4.713,5.775,9.51C89.865,466.21,90.603,474.526,91.018,483.648z"/>
<path style="fill:#BB9F63;" d="M178.5,57.131c-8.795-12.905-17.607-25.141-34.229-27.943c-6.55-1.104-12.519-2.516-14.547-10.158
	c-1.069-4.03-0.087-6.666,3.901-7.829c8.563-2.497,17.353-4.469,26.12-2.021c3.827,1.068,8.407,3.487,10.3,6.682
	c5.998,10.126,11.204,20.766,16.067,31.501c2.15,4.747-1.913,12.294-7.058,14.6c-15.078,6.759-30.287,7.882-45.629,0.688
	c-10.586-4.964-18.678-21.263-15.755-32.573c0.499-1.93,2.453-3.484,3.735-5.212c1.233,1.566,2.986,2.951,3.603,4.731
	c2.084,6.007,4.838,10.203,12.412,9.566c2.62-0.221,5.675,2.357,8.198,4.131c1.834,1.29,3.32,3.222,4.614,5.105
	C157.138,58.453,166.679,60.165,178.5,57.131z M132.283,14.736c1.734,5.184,5.392,7.471,9.756,8.763
	c14.389,4.263,24.971,13.622,33.966,25.135c1.67,2.138,3.196,4.39,4.788,6.589c0.533-0.093,1.066-0.187,1.599-0.28
	c0.13-2.606,1.154-5.592,0.236-7.752c-3.926-9.238-8.122-18.395-12.882-27.225c-1.647-3.056-4.809-6.254-7.982-7.349
	C151.881,9.207,142.071,11.091,132.283,14.736z M121.472,28.538c-3.956,8.728,1.159,23.755,9.946,30.232
	c12.265,9.041,31.654,10.3,41.06,1.989c-12.356,2.163-20.519-4.079-28.339-11.432c-2.252-2.118-5.121-4.322-8.013-4.871
	c-6.841-1.297-10.39-5.437-12.523-11.523C123.1,31.5,122.278,30.179,121.472,28.538z"/>
<path style="fill:#BB9F63;" d="M130.708,112.415c1.556,0.856,2.891,1.318,3.882,2.178c12.567,10.899,25.428,21.491,37.517,32.9
	c12.197,11.511,14.279,26.667,12.88,42.598c-0.476-4.187-0.39-8.538-1.553-12.525c-2.056-7.052-3.536-14.825-7.626-20.625
	c-11.504-16.314-26.832-29.018-43.523-40.826c1.549,8.523,3.061,17.054,4.654,25.569c5.157,27.551,14.484,53.61,28.86,77.686
	c8.008,13.411,12.534,27.266,9.297,42.981c-0.275,1.336-0.036,2.778-0.036,3.224c-39.5,6.946-78.741,13.847-117.983,20.748
	c-0.053-0.202-0.105-0.403-0.158-0.605c4.079-0.844,8.161-1.678,12.237-2.534c4.327-0.909,8.633-1.927,12.978-2.745
	c23.807-4.485,47.616-8.965,71.443-13.341c4.691-0.861,9.455-1.399,14.209-1.819c3.442-0.303,4.723-1.788,5.068-5.316
	c1.263-12.913-0.679-24.902-7.745-36.102c-20.977-33.251-29.335-70.594-34.678-108.862
	C130.341,114.355,130.564,113.669,130.708,112.415z"/>
<path style="fill:#BB9F63;" d="M254.817,80.092c-0.111,1.939,0.01,3.927-0.376,5.809c-1.301,6.338-4.725,8.093-10.702,5.803
	c-11.025-4.225-22.12-8.274-33.086-12.647c-3.575-1.425-6.795-3.715-10.256-5.455c-3.869-1.945-7.711-4.044-11.776-5.472
	c-4.562-1.603-5.951-3.452-2.994-7.162c4.998-6.272,8.421-13.191,11.402-20.538c0.837-2.061,3.585-4.098,5.843-4.702
	c10.208-2.729,20.537-3.085,30.905-0.378c7.043,1.839,12.447,5.838,14.47,12.719c3.066,10.43,5.214,21.13,7.753,31.715
	C255.606,79.885,255.211,79.989,254.817,80.092z M233.59,59.535c-6.41-2.914-13.466-6.893-21.016-9.369
	c-10.604-3.479-21.17,2.801-25.127,14.358c6.578-1.394,10.671,2.328,15.062,6.194c2.607,2.295,6.391,4.315,9.753,4.501
	c11.841,0.654,21.712,5.592,31.165,12.144c5.783,4.008,8.49,2.818,8.492-4.122c0.002-12.246-1.569-24.325-6.751-35.658
	c-2.213-4.84-5.921-7.675-11.05-9.064c-10.393-2.816-20.67-2.072-30.893,0.67c-4.971,1.333-7.121,5.045-8.006,10.18
	C216.604,38.763,227.593,48.471,233.59,59.535z"/>
<path style="fill:#BB9F63;" d="M148.68,78.023c-3.8,7.093-3.641,14.643-2.159,22.186c0.952,4.846,3.625,8.747,8.234,11.108
	c9.479,4.856,19.281,8.404,31.459,8.42c-1.55-4.792-2.458-8.855-4.148-12.561c-3.66-8.028-5.913-16.935-15.403-21.099
	c-4.27-1.874-4.31-6.147-0.969-9.791c2.363-2.578,5.211-4.71,7.304-8.131c-4.386,2.187-9.35,3.705-12.944,6.81
	c-2.179,1.883-2.564,6.163-3.142,9.473c-0.447,2.559,0.319,5.312,0.031,7.922c-0.139,1.265-1.459,2.401-2.244,3.595
	c-1.054-1.152-3.094-2.395-2.998-3.442c0.525-5.713,1.575-11.377,2.457-17.145c-0.425,0.182-1.561,0.668-2.697,1.155
	c4.602-2.655,9.063-5.609,13.852-7.869c3.628-1.712,7.636-2.685,11.555-3.668c1.131-0.284,2.54,0.538,3.822,0.853
	c-0.337,1.249-0.321,2.797-1.077,3.69c-2.283,2.693-4.798,5.204-7.353,7.649c-2.828,2.706-2.944,4.607,0.114,7.746
	c8.365,8.589,14.169,18.919,17.645,30.404c2.001,6.61-0.776,10.226-7.564,9.501c-11.816-1.262-22.741-5.447-31.933-13.012
	C142.311,105.06,141.521,84.374,148.68,78.023z"/>
<path style="fill:#BB9F63;" d="M271.907,487.028c-1.709,5.466,2.991,12.887-4.295,14.382c-10.196,2.092-19.716-4.719-21.173-13.817
	c-2.034-12.7-1.173-25.347,1.578-37.906c0.981-4.477,3.321-5.89,7.875-5.485c13.404,1.193,13.345,1.041,13.72,14.712
	c0.135,4.934,0.686,9.857,1.096,14.782C271.102,478.435,271.557,483.169,271.907,487.028z M265.476,497.232
	c0-16.283,0-32.119,0-48.47c-4.871,0-9.154,0-13.314,0c-3.91,13.734-3.686,27.097,1.349,40.289
	C256.651,497.276,257.096,497.574,265.476,497.232z"/>
<path style="fill:#BB9F63;" d="M362.126,371.643c-2.272,1.108-3.372,2.041-4.541,2.138c-3.162,0.263-6.355,0.253-9.534,0.205
	c-10.954-0.167-21.29,2.173-31.031,7.251c-1.224,0.638-2.856,0.493-4.299,0.711c-0.066-1.341-0.467-2.771-0.14-4.008
	c1.573-5.955,3.372-11.85,5.033-17.783c1.166-4.161,3.775-5.228,7.658-3.748c10.529,4.014,21.069,8.001,31.571,12.086
	C358.34,369.077,359.646,370.144,362.126,371.643z"/>
<path style="fill:#BB9F63;" d="M184.181,219.919c23.194-45.641,21.796-93.234,12.447-141.643
	c9.275,23.256,12.117,47.306,9.861,72.023C204.225,175.099,195.162,197.807,184.181,219.919z"/>
<path style="fill:#BB9F63;" d="M344.646,348.384c-1.959-14.759-3.839-28.924-5.72-43.089c0.756-0.092,1.513-0.184,2.269-0.275
	c0.387,4.641,0.348,9.366,1.248,13.906c1.855,9.355,4.206,18.612,6.363,27.907c1.263,5.445,0.166,6.561-5.173,5.06
	c-7.656-2.152-15.267-4.466-22.944-6.537c-3.372-0.91-4.389-2.695-2.98-5.838c10.484-23.392,20.979-46.778,31.485-70.16
	c0.137-0.305,0.459-0.527,1.294-0.55c-9.866,24.023-19.732,48.046-29.825,72.623C328.983,343.843,336.712,346.084,344.646,348.384z"
	/>
<path style="fill:#BB9F63;" d="M237.927,142.205c-6.791,11.304-14.131,22.321-20.218,33.993
	c-5.99,11.487-10.71,23.637-16.866,35.152c1.652-4.183,3.291-8.371,4.959-12.547c8.023-20.092,17.47-39.464,29.694-57.364
	c1.505-2.204,4.28-3.54,6.467-5.279c0.347,2.783,1.582,5.813,0.889,8.306c-3.31,11.896-5.951,24.213-11.2,35.254
	c-3.685,7.752-11.178,13.694-16.97,20.444c-0.754-0.509-1.507-1.018-2.261-1.527c18.52-14.193,21.423-35.487,27.2-55.473
	C239.056,142.844,238.492,142.525,237.927,142.205z"/>
<path style="fill:#BB9F63;" d="M229.301,25.291c3.921-1.246,7.843-2.493,13.149-4.179c-9.856-9.11-18.916-16.98-31.71-17.524
	c-12.514-0.532-22.231,7.122-33.614,13.402c-0.623-0.995-1.345-2.198-2.115-3.37c-6.765-10.292-16.301-12.702-27.764-9.858
	c-5.651,1.402-11.339,2.661-17.035,3.867c-4.225,0.895-7.997,2.119-7.522,7.873c-2.138-7.011-1.702-8.264,4.88-9.841
	c8.565-2.052,17.263-3.545,25.905-5.275c7.614-1.524,13.418,1.602,18.274,7.136c2.075,2.365,4.128,4.75,6.075,6.992
	c7.182-3.707,14.023-7.309,20.927-10.784c9.156-4.61,18.234-3.881,26.764,1.38c5.686,3.507,11.155,7.475,16.248,11.795
	c3.883,3.294,3.208,5.58-1.545,7.039c-3.484,1.069-7.11,1.676-10.673,2.488C229.464,26.051,229.383,25.671,229.301,25.291z"/>
<path style="fill:#BB9F63;" d="M316.207,254.359c-4.366,8.382-8.061,16.631-12.966,24.083c-1.237,1.879-6.347,1.208-10.694,1.861
	c3.918-8.249,7.028-14.959,10.28-21.599C306.158,251.906,307.862,251.334,316.207,254.359z"/>
<path style="fill:#BB9F63;" d="M187.826,40.799c-7.85-19.574-1.871-25.745,12.02-28.78c9.156-2,17.931-0.771,26.576,2.315
	c1.387,0.495,2.618,1.426,3.921,2.156c-0.143,0.581-0.286,1.163-0.429,1.744c-1.778-0.22-3.623-0.21-5.323-0.701
	c-7.005-2.022-13.87-3.825-21.274-1.31c-10.91,3.707-13.91,7.062-15.051,18.407C188.109,36.191,188.04,37.759,187.826,40.799z"/>
<path style="fill:#BB9F63;" d="M283.929,291.41c-1.6-0.281-3.602-0.633-6.485-1.14c2.832-7.053,5.4-13.527,8.035-19.974
	c1.065-2.606,2.465-5.086,3.386-7.737c2.631-7.569,2.565-7.592,11.122-7.418C294.676,267.137,289.387,279.082,283.929,291.41z"/>
<path style="fill:#BB9F63;" d="M369.663,525.069c3.043,4.67,6.085,9.339,9.18,14.09c-5.432,6.518-14.266,5.443-17.169-2.472
	c-1.025-2.795-1.984-5.812-1.971-8.724c0.009-2.083,1.196-4.879,2.801-5.972c0.997-0.679,3.775,1.184,5.712,2.003
	c0.614,0.26,1.096,0.833,1.641,1.266C369.86,525.264,369.663,525.069,369.663,525.069z"/>
<path style="fill:#BB9F63;" d="M173.966,55.493c-9.275-0.751-17.9-2.316-23.407-12.206c-2.074-3.723-8.266-5.125-12.525-7.677
	c-1.316-0.788-2.449-1.881-3.667-2.834c1.545-0.302,3.125-0.982,4.631-0.844c9.956,0.909,16.954,7.115,23.828,13.541
	C166.513,48.919,170.327,52.227,173.966,55.493z"/>
<path style="fill:#BB9F63;" d="M207.784,386.535c-11.114,2.71-21.131,5.441-31.295,7.424c-2.503,0.488-5.482-1.462-8.242-2.291
	c0.015-0.476,0.031-0.951,0.046-1.427c9.293-2.714,18.481-5.965,27.941-7.836C199.332,381.793,203.139,384.761,207.784,386.535z"/>
<path style="fill:#BB9F63;" d="M288.78,291.281c2.863,0.545,5.032,0.957,7.59,1.444c-2.653,7.05-5.287,13.51-7.504,20.11
	c-1.694,5.043-4.493,5.765-9.257,2.767C282.574,307.74,285.589,299.742,288.78,291.281z"/>
<path style="fill:#BB9F63;" d="M230.464,345.76c-14.499,1.222-17.129-0.085-25.919-12.628
	C213.367,330.316,226.549,338.589,230.464,345.76z"/>
<path style="fill:#BB9F63;" d="M194.456,95.39c-1.448-7.394-2.896-14.788-4.67-23.848c-4.153,3.515-7.347,5.855-9.988,8.707
	c-0.677,0.731,0.004,3.286,0.727,4.651c4.142,7.819,8.51,15.518,12.736,23.293c0.718,1.32,1.119,2.813,1.666,4.226
	c-0.463,0.23-0.926,0.46-1.389,0.69c-0.857-1.183-1.843-2.293-2.55-3.559c-4.574-8.191-8.951-16.496-13.687-24.591
	c-1.899-3.245-1.551-5.536,1.286-7.776c2.083-1.644,3.94-3.59,6.1-5.116c4.3-3.038,7.19-2.091,8.019,2.915
	c1.124,6.779,1.73,13.643,2.558,20.471C194.995,95.432,194.725,95.411,194.456,95.39z"/>
<path style="fill:#BB9F63;" d="M268.312,271.519c-2.647-0.402-4.527-0.688-6.991-1.063c2.635-8.102,5.193-15.971,7.84-24.111
	c2.478,0.625,4.599,1.159,7.695,1.939C273.913,256.287,271.126,263.866,268.312,271.519z"/>
<path style="fill:#BB9F63;" d="M249.411,294.441c-5.977-2.028-6.577-5.47-4.632-10.133c1.988-4.766,3.674-9.658,5.7-15.047
	c2.02,0.737,3.915,1.429,6.37,2.325C254.323,279.348,251.896,286.805,249.411,294.441z"/>
<path style="fill:#BB9F63;" d="M409.989,560.879c-7.125,1.872-14.25,3.744-21.868,5.745c-0.139,2.141-0.314,4.841-0.49,7.54
	c-2.777-4.676-2.777-4.676-10.22-6.38c-0.272,1.315-0.544,2.628-1.069,5.167c-0.943-1.985-1.378-2.901-2.091-4.402
	c-1.579,2.6-2.979,4.905-4.532,7.462c-1.638-1.037-3.086-1.953-4.533-2.869c-1.625,0.741-3.251,1.482-4.877,2.223
	c-0.103-0.198-0.207-0.396-0.31-0.594c1.783-1.503,3.567-3.005,5.383-4.535c1.118,0.53,2.32,1.1,4.136,1.962
	c-0.264-2.301-0.444-3.873-0.624-5.445c0.25-0.085,0.499-0.169,0.749-0.254c0.508,0.972,1.017,1.944,1.625,3.107
	c2.172-1.714,3.891-6.448,6.29-4.639c2.287,1.724,3.922,0.982,5.64,0.855c1.996-0.147,3.912-1.373,5.949-2.165
	C395.875,561.833,402.502,557.565,409.989,560.879z"/>
<path style="fill:#BB9F63;" d="M235.122,274.862c3.987-7.905,7.204-14.284,10.453-20.724c1.763,0.35,3.437,0.683,5.62,1.117
	c-2.138,6.02-3.687,12.041-6.527,17.375C243.806,274.248,239.377,273.966,235.122,274.862z"/>
<path style="fill:#BB9F63;" d="M286.029,258.166c-8.379-1.961-8.209-2.448-5.342-9.407c2.529-6.137,6.589-7.923,13.338-6.949
	C291.359,247.264,288.742,252.617,286.029,258.166z"/>
<path style="fill:#BB9F63;" d="M268.183,282.828c2.878,0.922,4.805,1.54,7.23,2.317c-2.506,6.461-4.834,12.461-7.293,18.797
	c-2.131-0.642-3.913-1.178-6.409-1.93C263.859,295.648,265.91,289.567,268.183,282.828z"/>
<path style="fill:#BB9F63;" d="M354.754,509.033c-11.164,6.759-25.784,4.624-35.445,14.333c-0.846-0.704-2.873-3.249-3.679-2.908
	c-2.948,1.246-5.489,3.455-7.746,5.001c0.972-5.573-6.712,1.979-7.463-3.098C318.655,517.888,336.705,513.461,354.754,509.033z"/>
<path style="fill:#BB9F63;" d="M171.831,386.533c-12.367,2.149-23.785,8.593-36.556,8.918c-0.163-0.601-0.326-1.202-0.489-1.803
	c4.472-1.448,8.935-2.922,13.417-4.339c6.013-1.901,11.993-3.937,18.09-5.521c1.742-0.453,3.838,0.46,5.771,0.746
	C171.987,385.201,171.909,385.867,171.831,386.533z"/>
<path style="fill:#BB9F63;" d="M329.575,539.499c-3.126,5.88-14.333-0.228-14.39,8.03c-2.965-0.098-5.39-0.705-7.513-0.151
	c-6.543,1.705-12.971,3.854-19.815,5.943c0-1.828,0-3.318,0-5.013c1.551,0.297,3.015,1.016,4.26,0.741
	c5.67-1.25,11.355-2.536,16.89-4.272c6.688-2.098,13.23-4.662,19.835-7.025C329.086,538.334,329.331,538.916,329.575,539.499z"/>
<path style="fill:#BB9F63;" d="M227.644,521.095c-4.597,0.912-9.354,1.381-13.712,2.953c-1.753,0.632-2.634,3.684-4.367,6.331
	c-4.91-0.865-4.937,3.86-6.736,7.875c-0.279-1.463-0.558-2.926-0.908-4.755c-1.167,0.284-2.571,0.625-4.563,1.11
	c3.275-4.316,10.534-2.474,11.773-9.625c-4.631,1.475-8.512,2.712-12.393,3.948c-0.189-0.552-0.377-1.105-0.566-1.657
	c5.234-1.889,10.469-3.778,16.279-5.875c0.282-1.567,0.284-1.246,3.347-0.391c1.763,0.492,3.912-0.474,5.898-0.686
	c1.975-0.211,3.964-0.299,5.947-0.441C227.643,520.286,227.644,520.691,227.644,521.095z"/>
<path style="fill:#BB9F63;" d="M249.759,307.449c0.593-1.485,1.333-2.931,1.742-4.465c0.494-1.854,0.571-3.819,1.075-5.669
	c0.824-3.025,1.847-5.997,3.016-9.723c2.049,1,3.787,1.848,5.454,2.661c-0.791,3.456-1.415,6.514-2.201,9.529
	c-0.79,3.027-1.742,6.011-2.748,9.439c-2.117-0.598-4.244-1.2-6.398-1.818C249.671,307.386,249.759,307.449,249.759,307.449z"/>
<path style="fill:#BB9F63;" d="M207.647,345.864c-1.986-1.037-4.445-1.638-5.875-3.189c-5.938-6.437-11.566-13.161-17.498-19.999
	c4.253-0.302,16.858,11.398,23.932,21.714C208.019,344.881,207.833,345.373,207.647,345.864z"/>
<path style="fill:#BB9F63;" d="M323.718,530.625c-5.124,1.555-9.918,3.112-14.79,4.374c-0.7,0.181-1.77-1.062-2.116-1.287
	c7.175-2.673,13.916-5.207,20.682-7.674c0.824-0.3,1.786-0.204,2.674-0.35c2.035-0.335,5.001,0.012,5.926-1.193
	c3.178-4.144,5.854-2.082,9.342-0.247c-5.569,1.855-10.641,3.544-15.923,5.304c-0.132-0.333-0.497-1.255-1.177-2.974
	c-1.012,2.895-1.796,5.138-2.778,7.948C324.9,533.13,324.396,532.061,323.718,530.625z"/>
<path style="fill:#BB9F63;" d="M161.652,319.986c8.729-1.658,15.445,0.723,20.946,6.968
	C174.599,330.135,173.773,329.865,161.652,319.986z"/>
<path style="fill:#BB9F63;" d="M248.414,239.234c-2.874,6.049-5.424,11.825-8.408,17.368c-0.63,1.171-2.845,1.49-5.156,2.598
	C237.184,246.906,243.479,237.859,248.414,239.234z"/>
<path style="fill:#BB9F63;" d="M132.087,386.595c-7.46,6-13.723,1.211-20.437-1.658
	C119.143,379.387,125.596,382.117,132.087,386.595z"/>
<path style="fill:#BB9F63;" d="M281.661,269.006c-1.858,4.572-3.367,8.284-5.04,12.401c-2.061-0.657-3.98-1.27-6.525-2.082
	c1.326-4.351,2.557-8.389,3.944-12.941C276.888,267.365,279.11,268.129,281.661,269.006z"/>
<path style="fill:#BB9F63;" d="M215.57,532.911c0.17-4.72,0.502-4.985,5.477-3.536c-1.482,0.449-2.526,0.765-3.919,1.187
	c0.693,0.785,1.237,1.51,1.308,1.466c4.483-2.754,10.512-0.552,14.755-5.081c1.358-1.449,5.567-0.227,8.331,0.87
	c-4.871,1.491-9.723,3.044-14.617,4.454c-4.624,1.332-10.288,0.541-11.905,5.471c-2.527-0.823-4.601-1.497-8.223-2.676
	C210.413,534.174,212.967,533.549,215.57,532.911z"/>
<path style="fill:#BB9F63;" d="M168.136,316.935c-8.042,1.26-14.901,0.473-20.646-4.896
	C155.592,309.343,160.04,310.334,168.136,316.935z"/>
<path style="fill:#BB9F63;" d="M355.072,536.73c-4.42-3.054-11.865,0.118-13.314,4.057c-0.731,1.988-3.265,3.313-5.26,5.199
	c-0.267-3.056-0.49-5.602-0.821-9.379c3.414-0.755,7.733-1.682,12.036-2.682c0.983-0.228,1.897-0.74,2.862-1.063
	c1.068-0.357,2.159-0.647,3.24-0.966C354.168,533.256,354.521,534.615,355.072,536.73z"/>
<path style="fill:#BB9F63;" d="M306.692,241.41c-3.616,9.577-4.259,10.081-12.085,9.772
	C296.894,241.338,297.672,240.687,306.692,241.41z"/>
<path style="fill:#BB9F63;" d="M323.874,552.758c3.899-1.043,7.803-2.072,11.697-3.134c4.136-1.128,8.268-2.27,12.392-3.437
	c3.877-1.097,7.742-2.235,11.613-3.354c0.152,0.674,0.304,1.348,0.455,2.023c-11.776,3.424-23.552,6.848-35.328,10.272
	C324.427,554.338,324.151,553.548,323.874,552.758z"/>
<path style="fill:#BB9F63;" d="M327.487,507.982c-10.073,2.166-20.058,1.353-28.049,8.349c-0.585-0.527-1.829-1.648-3.93-3.541
	c5.086-2.486,10.707-1.778,15.319-3.61C316.16,507.063,321.004,506.478,327.487,507.982z"/>
<path style="fill:#BB9F63;" d="M133.886,314.057c8.689-3.641,13.028,3.133,20.012,5.503
	C144.651,323.586,140.18,317.185,133.886,314.057z"/>
<path style="fill:#BB9F63;" d="M254.464,257.634c1.308-3.585,2.384-6.534,3.555-9.743c2.046-0.142,4.049-0.28,6.724-0.465
	c-1.343,4.126-2.509,7.708-3.777,11.601C258.687,258.538,256.866,258.148,254.464,257.634z"/>
<path style="fill:#BB9F63;" d="M219.615,348.322c5.932,1.025,13.239-3.285,18.146,6.402c-6.978-1.412-12.848-2.599-18.717-3.787
	C219.234,350.066,219.425,349.194,219.615,348.322z"/>
<path style="fill:#BB9F63;" d="M143.67,397.881c8.782-3.935,9.794-3.951,16.549-0.257
	C153.261,401.805,148.423,401.881,143.67,397.881z"/>
<path style="fill:#BB9F63;" d="M200.667,322.152c-7.546,3.57-9.723-3.074-14.134-6.24
	C191.324,313.567,194.955,315.292,200.667,322.152z"/>
<path style="fill:#BB9F63;" d="M252.442,252.081c-1.865-0.719-3.169-1.221-4.945-1.906c0.599-1.315,1.078-2.547,1.7-3.703
	c3.895-7.239,3.905-7.233,7.807-7.117C255.49,243.579,254.052,247.59,252.442,252.081z"/>
<path style="fill:#BB9F63;" d="M249.38,537.186c8.03-2.265,16.059-4.53,23.988-6.767c0.412,1.562-1.378,4.367-3.97,4.825
	c-5.709,1.009-11.4,2.126-17.101,3.179c-0.818,0.151-1.657,0.193-2.486,0.285C249.667,538.201,249.523,537.693,249.38,537.186z"/>
<path style="fill:#BB9F63;" d="M274.447,542.259c7.994-2.505,15.416-4.831,22.838-7.156
	C294.319,539.449,276.976,544.487,274.447,542.259z"/>
<path style="fill:#BB9F63;" d="M197.155,325.609c6.07-2.892,10.079,0.178,14.552,4.792
	C205.945,329.767,200.104,332.348,197.155,325.609z"/>
<path style="fill:#BB9F63;" d="M313.671,555.554c0.627,0.297,2.46,1.164,5.403,2.557c-2.753,0-4.522,0-7.642,0
	c-3.66,1.881-8.714,4.513-14.371,5.085c-0.197-0.58-0.395-1.16-0.592-1.739c2.571-1.109,5.091-2.364,7.726-3.287
	C306.794,557.259,309.51,556.682,313.671,555.554z"/>
<path style="fill:#BB9F63;" d="M157.826,383.348c-8.24,2.593-16.48,5.187-24.72,7.78c-0.141-0.466-0.282-0.931-0.422-1.397
	c8.54-1.584,15.651-8.002,24.734-7.75C157.554,382.437,157.69,382.892,157.826,383.348z"/>
<path style="fill:#BB9F63;" d="M164.194,309.702c6.749-3.989,9.808,2.256,15.362,4.783
	C171.943,318.015,169.442,310.124,164.194,309.702z"/>
<path style="fill:#BB9F63;" d="M282.743,295.652c-2.211,7.178-2.36,7.253-8.562,4.487
	C275.867,293.154,275.867,293.154,282.743,295.652z"/>
<path style="fill:#BB9F63;" d="M236.536,262.896c-3.039,2.16-0.989,9.441-9.052,8.169
	C231.056,267.62,229.188,260.768,236.536,262.896z"/>
<path style="fill:#BB9F63;" d="M188.725,334.042c-4.609,1.202-8.788,2.602-11.327-3.122
	C181.481,330.411,185.75,328.265,188.725,334.042z"/>
<path style="fill:#BB9F63;" d="M92.82,376.045c5.857-1.674,11.714-3.348,17.571-5.022c0.161,0.596,0.322,1.192,0.483,1.788
	c-6.125,0.663-10.987,6.238-17.693,4.639C93.06,376.981,92.94,376.513,92.82,376.045z"/>
<path style="fill:#BB9F63;" d="M294.215,526.44c-6.21,1.966-12.421,3.933-18.631,5.899c-0.17-0.318-0.339-0.637-0.509-0.955
	c1.897-0.957,3.753-2.011,5.703-2.845c2.01-0.86,4.069-1.683,6.185-2.195c2.243-0.543,4.579-0.7,6.875-1.025
	C293.964,525.691,294.09,526.066,294.215,526.44z"/>
<path style="fill:#BB9F63;" d="M215.53,385.064c-4.62-1.15-9.241-2.301-14.76-3.674c6.506-3.672,10.502,0.496,15.094,1.633
	C215.753,383.703,215.642,384.384,215.53,385.064z"/>
<path style="fill:#BB9F63;" d="M226.999,355.494c5.026,0.85,10.533-0.232,14.862,3.416c-0.118,0.516-0.236,1.032-0.354,1.549
	c-4.944-1.037-9.888-2.074-14.833-3.112C226.782,356.729,226.891,356.112,226.999,355.494z"/>
<path style="fill:#BB9F63;" d="M290.159,287.523c1.662-6.032,5.519-4.052,9.415-3.246
	C298.149,291.61,293.68,287.619,290.159,287.523z"/>
<path style="fill:#BB9F63;" d="M241.487,514.917c-0.574,2.923-1.103,5.617-1.632,8.311c-0.291,0.104-0.582,0.208-0.873,0.312
	c-0.597-1.882-1.194-3.764-1.88-5.925c-1.094,0.457-2.406,1.005-4.232,1.768C233.729,511.845,239.384,517.359,241.487,514.917z"/>
<path style="fill:#BB9F63;" d="M188.292,311.827c-6.447,3.712-8.219-3.001-13.008-4.119
	C181.754,304.523,184.252,309.383,188.292,311.827z"/>
<path style="fill:#BB9F63;" d="M264.468,283.019c-2.404-2.829-3.864-4.547-5.324-6.266c2.328-0.842,4.657-1.685,8.48-3.068
	C266.39,277.336,265.759,279.201,264.468,283.019z"/>
<path style="fill:#BB9F63;" d="M194.901,527.19c-0.927,1.008-1.853,2.015-3.078,3.347c-1.491-2.505-2.638-4.434-3.983-6.695
	c2.577-1.088,5.813-2.455,10.232-4.321c-3.147,2.853-5.252,4.762-7.357,6.672c0.405,0.503,0.811,1.006,1.216,1.509
	c0.789-0.41,1.578-0.819,2.367-1.229C194.498,526.712,194.7,526.951,194.901,527.19z"/>
<path style="fill:#BB9F63;" d="M253.275,261.538c1.971,0.334,3.833,0.649,6.218,1.052c-0.464,1.771-0.87,3.323-1.415,5.405
	C255.146,266.298,250.297,267.049,253.275,261.538z"/>
<path style="fill:#BB9F63;" d="M173.183,378.956c-3.932,0.794-7.865,1.587-11.797,2.381c-0.122-0.63-0.243-1.26-0.365-1.89
	c3.919-0.941,7.837-1.881,11.756-2.822C172.912,377.402,173.048,378.179,173.183,378.956z"/>
<path style="fill:#BB9F63;" d="M109.618,382.463c-3.067-0.451-6.134-0.902-10.446-1.537
	C105.853,377.062,105.853,377.062,109.618,382.463z"/>
<path style="fill:#BB9F63;" d="M225.743,256.417c1.974-3.714,3.044-6.038,4.454-8.133c0.306-0.455,1.836-0.086,2.802-0.096
	c-0.807,2.212-1.399,4.544-2.532,6.574C230.048,255.514,228.357,255.556,225.743,256.417z"/>
<path style="fill:#BB9F63;" d="M276.131,262.201c3.135-3.589,5.649-0.778,8.972,0.642
	C281.436,267.499,278.906,262.347,276.131,262.201z"/>
<path style="fill:#BB9F63;" d="M356.395,516.836c-1.11,3.387-2.221,6.773-3.544,10.809c-1.298-2.414-2.172-4.037-2.612-4.856
	c1.887-2.418,3.525-4.516,5.162-6.615C355.733,516.395,356.064,516.616,356.395,516.836z"/>
<path style="fill:#BB9F63;" d="M443.376,304.556c8.1,30.496-8.808,51.413-33.576,62.164c-6.419,2.786-13.072,1.485-18.964-1.723
	c-26.143-14.237-35.708-31.85-31.742-60.135c20.903,0.951,41.845,1.904,63.28,2.88c0,4.746,0.036,9.815-0.023,14.883
	c-0.017,1.407-0.833,3.017-0.371,4.168c0.757,1.885,2.26,3.471,3.449,5.184c1.54-1.418,4.19-2.678,4.418-4.282
	c0.769-5.404,0.713-10.93,0.893-16.411c0.051-1.562-0.167-3.133-0.286-5.092C434.818,305.639,438.966,305.114,443.376,304.556z
	 M428.129,339.969c-2.662-2.024-4.118-3.13-5.573-4.237c-2.045,2.763-4.359,5.387-5.911,8.404c-0.312,0.607,2.265,2.701,3.51,4.109
	C422.511,345.799,424.868,343.353,428.129,339.969z"/>
<path style="fill:#BB9F63;" d="M362.197,300.894c18.311-0.861,36.622-1.727,54.934-2.578c2.672-0.124,5.181,0.006,4.128,4.648
	c-19.652,0-39.445,0-59.238,0C362.079,302.274,362.138,301.584,362.197,300.894z"/>
<path style="fill:#BB9F63;" d="M289.672,472.497c1.103-0.999,2.038-2.407,3.333-2.936c21.701-8.872,43.445-17.637,65.186-26.409
	c0.607-0.245,1.288-0.306,2.241,0.385c-23.227,10.109-46.453,20.218-69.68,30.327C290.392,473.408,290.032,472.953,289.672,472.497z
	"/>
<path style="fill:#BB9F63;" d="M281.89,568.28c-42.53-7.886-85.06-15.772-129.085-23.936c7.758-1.091,127.35,19.917,129.408,22.231
	C282.105,567.144,281.997,567.712,281.89,568.28z"/>
</svg>
