<?xml version="1.0" encoding="utf-8"?>
<!-- Generator: Adobe Illustrator 19.2.1, SVG Export Plug-In . SVG Version: 6.00 Build 0)  -->
<svg version="1.1" id="Layer_1" xmlns="http://www.w3.org/2000/svg" xmlns:xlink="http://www.w3.org/1999/xlink" x="0px" y="0px"
	 viewBox="0 0 410.5 737.9" style="enable-background:new 0 0 410.5 737.9;" xml:space="preserve">
<style type="text/css">
	.st0{fill-rule:evenodd;clip-rule:evenodd;fill:#B17D0C;}
</style>
<g>
	<path class="st0" d="M186,0c1.1,0.2,0.3,7.4,1.5,7.4C186.7,9.8,185.4,1.5,186,0z"/>
	<path class="st0" d="M187.9,9.4c1.7,1.6,2.2,15.6,0.7,5.9C188.4,13.8,187.4,11.9,187.9,9.4z"/>
	<path class="st0" d="M231.3,56.4c1-0.5,1.1,6.3,1.5,8.8C231.3,63.3,231.2,60,231.3,56.4z"/>
	<path class="st0" d="M196.8,63.8c1.2,1.3,3.8,20.9,4.3,22.9C198.2,87.1,197.4,65.6,196.8,63.8z"/>
	<path class="st0" d="M232.8,66c3.6,4.7,2.2,14.5,3.7,21.3C233.7,81.7,234.5,72.6,232.8,66z"/>
	<path class="st0" d="M200.8,90.5c1.4,1.8,2.6,13.3,4.6,16.3C203,105.7,200.5,92.2,200.8,90.5z"/>
	<path class="st0" d="M205.6,109.3c3.2,7.6,5,16.6,7.3,25C208.9,127.5,207.4,118.3,205.6,109.3z"/>
	<path class="st0" d="M339.3,173.2c0-0.7,0.9-0.6,1.5-0.7C340.7,173.2,339.8,173,339.3,173.2z"/>
	<path class="st0" d="M329,177.6c0-0.7,0.9-0.6,1.5-0.7C330.4,177.6,329.6,177.4,329,177.6z"/>
	<path class="st0" d="M323.8,179.8c0-0.7,0.9-0.6,1.5-0.7C325.3,179.8,324.4,179.6,323.8,179.8z"/>
	<path class="st0" d="M321.6,180.5c0-0.7,0.9-0.6,1.5-0.7C323.1,180.5,322.2,180.4,321.6,180.5z"/>
	<path class="st0" d="M319.4,181.3c0-0.7,0.9-0.6,1.5-0.7C320.9,181.3,320,181.1,319.4,181.3z"/>
	<path class="st0" d="M305.5,186.4c-0.5,1.5-2,2-3.7,2.2C302.3,187.2,303.8,186.7,305.5,186.4z"/>
	<path class="st0" d="M217.4,198.9c0.1-0.9,1.3-0.6,2.2-0.7C219.4,199,218.2,198.8,217.4,198.9z"/>
	<path class="st0" d="M340.7,211.4c2-1.7,7.1-0.3,10.3-0.7C349,212.3,343.9,210.9,340.7,211.4z"/>
	<path class="st0" d="M281.2,211.4c13.5,2.2,26.5,0.3,41.9,0.7c1.6-0.5,4.7,0.8,1.5,0.7c-1.7,0-3.4,0-5.1,0c-3.2,0-6.4,0-9.5,0
		c-7.4,0.3-19.5,1.4-26.4,0.7C282.3,213.5,281,213.6,281.2,211.4z"/>
	<path class="st0" d="M210.8,214.3c1.3-2.8,1.2,1.6,2.2,1.5C211.7,218.6,211.7,214.2,210.8,214.3z"/>
	<path class="st0" d="M182.8,249.6c0-0.7,0.9-0.6,1.5-0.7C184.3,249.6,183.4,249.4,182.8,249.6z"/>
	<path class="st0" d="M180.6,250.3c0-0.7,0.9-0.6,1.5-0.7C182.1,250.3,181.2,250.1,180.6,250.3z"/>
	<path class="st0" d="M171.8,253.2c0-0.7,0.9-0.6,1.5-0.7C173.3,253.2,172.4,253.1,171.8,253.2z"/>
	<path class="st0" d="M290.1,278.2C290.9,275.3,290.9,281.1,290.1,278.2L290.1,278.2z"/>
	<path class="st0" d="M290.8,280.4C291.6,277.5,291.6,283.3,290.8,280.4L290.8,280.4z"/>
	<path class="st0" d="M291.5,282.6C292.4,279.7,292.4,285.5,291.5,282.6L291.5,282.6z"/>
	<path class="st0" d="M246,286.3C246.9,283.4,246.9,289.2,246,286.3L246,286.3z"/>
	<path class="st0" d="M243.1,291.4c1.6,12.3-0.2,23-2.9,33C240.6,311.7,241.9,302.3,243.1,291.4z"/>
	<path class="st0" d="M298.1,298C299,295.1,299,300.9,298.1,298L298.1,298z"/>
	<path class="st0" d="M264.4,298.8c-0.7,1.7-1.3,3.6-4.4,2.9C260.9,300.2,262.4,299.2,264.4,298.8z"/>
	<path class="st0" d="M268.8,298.8c0.9-0.1,1.3,0.2,1.5,0.7c0.1,3.3-2.1,4.3-3.7,5.9c-3.8,14.3,3.8,27.1,0.7,36.7
		C263.8,327.6,261.6,308.5,268.8,298.8z"/>
	<path class="st0" d="M267.3,299.5c-1,1.6-2.4,3-3.7,4.4C262,302.5,265.3,299.8,267.3,299.5z"/>
	<path class="st0" d="M303.3,309.1C304.1,306.2,304.1,312,303.3,309.1L303.3,309.1z"/>
	<path class="st0" d="M282.7,323.7C283.6,320.8,283.6,326.6,282.7,323.7L282.7,323.7z"/>
	<path class="st0" d="M247.5,327.4c4.9,6.2,2.8,26.1,15.4,21.3c-7,9-10.4-5.9-14.7-8.8C249.6,336.3,247.8,331.5,247.5,327.4z"/>
	<path class="st0" d="M287.1,332.6C288,329.7,288,335.5,287.1,332.6L287.1,332.6z"/>
	<path class="st0" d="M260,333.3c1,2.9,1.1,6.7,2.2,9.5C259.6,341,257.6,335.8,260,333.3z"/>
	<path class="st0" d="M269.5,388.4c-5.8-10.4-4.3-26-2.9-42.6c-0.1,0.8-0.7-3,0.7-1.5c-0.7,8.2,0.5,15.4,0,22
		c13.4,10.8,23.7,30.5,47,33.8c-1.5,1.7-6.1,0.3-8.8,0.7c-16.9-9.2-27.5-18.6-37.5-32.3c-3.7,6.7,0.6,15.3,2.9,20.6
		c-0.5,0.6-5.1,2-4.4-0.7C266.2,385.4,268.4,388.4,269.5,388.4z"/>
	<path class="st0" d="M247.5,381.8c-1.3,0.7-1.3,2.6-2.2,3.7c-1.8-1.2,1.3-3.5,1.5-5.1c0.7,0.5,1.3,0.9,1.5,0c2.2,1.1,0.7,3.8,0,5.9
		C246.7,384.8,247,383.6,247.5,381.8z"/>
	<path class="st0" d="M260.7,387.6c3.6,0.9-3.2,2.8-2.9,5.1c-2.9-1.2-4.8,1.2-8.1,0C252.7,390.4,258.6,390.9,260.7,387.6z"/>
	<path class="st0" d="M384.1,395.7c4,3.6,3.6,19.2,4.4,25.7C385.9,413.2,386.1,402.6,384.1,395.7z"/>
	<path class="st0" d="M375.2,430.2c1.9,1.7-2,3.8-2.2,5.9C371.1,434.4,375.1,432.3,375.2,430.2z"/>
	<path class="st0" d="M304.7,435.4c-0.3-0.6,22.3,3,11,2.2C313.8,437.4,306.9,437.4,304.7,435.4z"/>
	<path class="st0" d="M348.1,436.1c3.5,0.3-1.6,2.2-1.5,3.7c3.1,0.6,4.9,1.1,6.6,1.5c4,0.9,6.2,1-2.9,0.7c-4.2-0.1-9.4-1.5-14.7-1.5
		c1.3-3.1,5.7,0.4,9.5-0.7C346.2,438.6,347.2,437.4,348.1,436.1z"/>
	<path class="st0" d="M368.6,442.7c-2.5,2.2-6.3-0.5-9.5,0C358.6,440.9,366.3,442.5,368.6,442.7z"/>
	<path class="st0" d="M232,455.9c5,1.5,9.7,1,15.4,2.9c-0.7,3.3-6.1-3-5.9,2.9c-2,0.3,0.6-4-1.5-3.7c-2.2-0.7-1.3,1.6-1.5,2.9
		c-1-1.2-4.9,1.2-6.6-0.7C232.1,457.6,232.9,458.2,232,455.9z M233.5,457.4c-0.1,0,0,0.7,0,0.7C230,462.1,237,456.8,233.5,457.4z
		 M235.7,459.6c1.3,0,1.9-0.6,2.2-1.5C236.8,458.2,235.4,458,235.7,459.6z"/>
	<path class="st0" d="M248.2,458.9c1.9-0.2,1.9,1.5,2.2,2.9c-2.3,1.9-5.2-0.2-8.1,0C243.2,458.1,250.5,463.8,248.2,458.9z"/>
	<path class="st0" d="M268.8,461.8c0.1-0.9,1.3-0.6,2.2-0.7C270.9,461.9,269.6,461.7,268.8,461.8z"/>
	<path class="st0" d="M271.7,461.1c1,1.3,4.3-1.2,5.9,0.7c-0.5,0.7-1.7,0.8-1.5,2.2C274.9,462.7,272,463.2,271.7,461.1z"/>
	<path class="st0" d="M281.2,461.8c-1.1,1.1-2.6,1.9-2.9,3.7c2.2,0.7,7.4-1.6,7.3,1.5c-9.2-0.5-17.3-2.1-27.2-2.9
		c5.4-0.8,13.5,0,18.4,0.7C279,464.4,277.5,460.5,281.2,461.8z"/>
	<path class="st0" d="M282,463.3C283.9,460.7,283.8,467,282,463.3L282,463.3z"/>
	<path class="st0" d="M398,489.7c1,3,1.2,8.1,1.4,10.1C398,501.4,398.3,491.7,398,489.7z"/>
	<path class="st0" d="M346.7,500.7c-0.5,1-6.6,1.9-7.8,2.7C340,501.3,345,500.8,346.7,500.7z"/>
	<path class="st0" d="M319.4,505.9c0-0.7,0.9-0.6,1.5-0.7C320.9,505.8,320,505.7,319.4,505.9z"/>
	<path class="st0" d="M318.7,505.9c-2.6,1.4-6.4,1.5-9.5,2.2C310.7,505.7,314.9,506,318.7,505.9z"/>
	<path class="st0" d="M339.3,510.4c0-0.7,7.5-2.5,8-2.7C347.3,508.4,339.8,510.2,339.3,510.4z"/>
	<path class="st0" d="M333.4,511.7c0-0.7,4.2-1.1,4.7-1.2C338.1,511.2,334,511.6,333.4,511.7z"/>
	<path class="st0" d="M353.9,511C352,512.5,350.2,511.1,353.9,511L353.9,511z"/>
	<path class="st0" d="M321,522.5c0-0.7,3.7-1,4.3-1.2C325.3,522,321.6,522.3,321,522.5z"/>
	<path class="st0" d="M182.1,529.4C183,526.5,183,532.3,182.1,529.4L182.1,529.4z"/>
	<path class="st0" d="M181.4,531.6C182.2,528.7,182.2,534.5,181.4,531.6L181.4,531.6z"/>
	<path class="st0" d="M345.1,535.2c-6.7,0.3-13,6.2-20.6,3.7C327.1,539.7,337.1,534.8,345.1,535.2z"/>
	<path class="st0" d="M196.8,539.6C197.7,536.7,197.7,542.5,196.8,539.6L196.8,539.6z"/>
	<path class="st0" d="M365.7,541.1c0.3,1.5-0.5,1.9-0.7,2.9c-0.6-0.4-1.2-0.8-2.2-0.7C363.4,542.2,363.9,541,365.7,541.1z"/>
	<path class="st0" d="M161.7,547.6c-5.2-1-16.5,3-19.9,0.9C148.1,548.8,156.3,545.3,161.7,547.6z"/>
	<path class="st0" d="M208.6,548.4c3.4-1.8,8.9,4.1,7.3,7.3C214.7,552.1,212.3,549.6,208.6,548.4z"/>
	<path class="st0" d="M285.7,560.2c-1.6-0.9-0.8-5.6,1.5-5.1C286.2,557.7,286.1,558.4,285.7,560.2z"/>
	<path class="st0" d="M218.1,556.5C218.9,553.6,218.9,559.4,218.1,556.5L218.1,556.5z"/>
	<path class="st0" d="M137.3,563.1c1.7,1.2-0.6,6.9,0,12.5C134.2,572.9,136.4,565.2,137.3,563.1z"/>
	<path class="st0" d="M238.7,577.1c-3-1.6-0.8-8.5-1.5-12.5C239.3,567.2,238.5,572.6,238.7,577.1z"/>
	<path class="st0" d="M240.9,567.5c1,2.4,1.7,5.2,2.2,8.1C240.6,574,239.9,570.8,240.9,567.5z"/>
	<path class="st0" d="M374.5,578.6c0-0.7,0.9-0.6,1.5-0.7C376,578.5,375.1,578.4,374.5,578.6z"/>
	<path class="st0" d="M273.2,579.3c1.3,5.6,2,11.7,5.9,14.7C273.5,595.7,272.3,584,273.2,579.3z"/>
	<path class="st0" d="M331.9,580c0-0.7,0.9-0.6,1.5-0.7C333.4,580,332.5,579.9,331.9,580z"/>
	<path class="st0" d="M329.7,580C328.1,582.3,325,579.2,329.7,580L329.7,580z"/>
	<path class="st0" d="M336.3,580.8c0-0.7,8.7-1.6,9.3-1.8C345.6,579.7,336.9,580.6,336.3,580.8z"/>
	<path class="st0" d="M349.5,581.5c0.1-0.9,1.3-0.6,2.2-0.7C351.6,581.6,350.4,581.4,349.5,581.5z"/>
	<path class="st0" d="M345.1,582.2c-0.1-1.6,2.6-0.3,3.7-0.7C348.9,583.1,346.2,581.8,345.1,582.2z"/>
	<path class="st0" d="M342.9,582.2c-0.7,1.3-2.3,1.6-4.4,1.5C339.4,582.6,341.1,582.3,342.9,582.2z"/>
	<path class="st0" d="M331.9,585.2c0-0.7,0.9-0.6,1.5-0.7C333.4,585.1,332.5,585,331.9,585.2z"/>
	<path class="st0" d="M355.4,590.3C353.8,592.5,350.7,589.5,355.4,590.3L355.4,590.3z"/>
	<path class="st0" d="M240.9,593.2c0.1-0.9,1.3-0.6,2.2-0.7C242.9,593.4,241.7,593.1,240.9,593.2z"/>
	<path class="st0" d="M394.3,597.6c-13.9,3.7-31.9,6.5-47.7,10.3c-8.5,2-17.7,3.8-25.7,2.2c18.7-3.2,44.6-8.4,67.6-13.2
		C390,594.8,393,595.8,394.3,597.6z"/>
	<path class="st0" d="M334.1,598.4c0-0.7,0.9-0.6,1.5-0.7C335.6,598.4,334.7,598.2,334.1,598.4z"/>
	<path class="st0" d="M263.8,589.6c0.8,5.5-0.9,8.2,0.9,12.1L263.8,589.6z"/>
	<path class="st0" d="M265.1,603.5c1.9,3.7,2.6,8.6,2.9,14C266.2,613.7,265.5,608.8,265.1,603.5z"/>
	<path class="st0" d="M221,606.5c1.8-2.1,6.5-1.3,10.3-1.5C231.3,606,224.1,606.1,221,606.5z"/>
	<path class="st0" d="M92.5,617.5c1.3,0,1.9,0.5,2.2,1.5c-0.3,2.5-2,0.9-0.7,3.7C92,622.3,91,619.1,92.5,617.5z"/>
	<path class="st0" d="M176.2,627c-1.2,1.4-5.1-0.8-6.6-1.5c-5,5.5-10.6,8.3-19.8,8.1c-1.7-3.4,8.1-1.7,11-2.9
		c2.4-2.2,5.6-3.7,7.3-6.6C170.6,625.3,173.8,625.8,176.2,627z"/>
	<path class="st0" d="M92.5,625.6c2.3-0.1,2.2,2.2,2.2,4.4C93.2,629.3,92.5,627.8,92.5,625.6z"/>
	<path class="st0" d="M92.5,632.9c3.9,0.5,1,3.3,2.2,5.9C93.4,637.4,92.3,635.8,92.5,632.9z"/>
	<path class="st0" d="M296.7,635.8c0-0.7,0.9-0.6,1.5-0.7C298.1,635.8,297.2,635.7,296.7,635.8z"/>
	<path class="st0" d="M298.9,636.6c0-0.7,0.9-0.6,1.5-0.7C300.3,636.5,299.4,636.4,298.9,636.6z"/>
	<path class="st0" d="M91.1,640.6c3.8,0.4-0.4,3.1,2.1,5.6C90.6,644.6,90.5,642.8,91.1,640.6z"/>
	<path class="st0" d="M90.3,649c1,0.3,3.4,0.6,2.7,2.9c-1.4-1.8-3,0.5-2,3.8c-1.5-0.7-2.2-2.2-2.2-4.4
		C90.4,651.6,90.3,650.2,90.3,649z"/>
	<path class="st0" d="M59.5,650.2c7,8,15.6,9.6,19.3,14C69.6,662.2,62.7,656.3,59.5,650.2z"/>
	<path class="st0" d="M359.8,652c-5.5,4.8-14.8,7.9-21.6,12.3C343.4,659.2,353.1,655.5,359.8,652z"/>
	<path class="st0" d="M158.6,656.4c3-2.7,9.1-2.2,14.7-2.2C171.6,656.5,163.5,655.2,158.6,656.4z"/>
	<path class="st0" d="M156.4,657.1c0-0.7,0.9-0.6,1.5-0.7C157.9,657.1,157,657,156.4,657.1z"/>
	<path class="st0" d="M60.9,672.5c0.4,2.3,2.7,2.7,4.4,3.7c1.7-0.4-0.9-1.1,0.7-2.2c2.1,0.1,4.5,0.7,5.1,0.7
		c0.7,2.3-10.6,3.5-11-0.7c-4.3-0.4-7.1,5.3-12.5,1.5C50.7,672,56.8,674.1,60.9,672.5z"/>
	<path class="st0" d="M160.8,686.5c-3.3,3.8-10.4,3.8-16.2,5.1C148.4,688.3,155.8,688.6,160.8,686.5z"/>
	<path class="st0" d="M169.2,701.9c1.7,1-4.5,5.5-6.2,6.7c-3.3,2.3-10.9,5-14.9,5.8C153.9,711.9,165.3,706.6,169.2,701.9z"/>
	<path class="st0" d="M132.2,11.6c7.2,26.7,12.8,55.3,17.6,80c10.6,54.3,31.3,101.6,48.5,151.3c2.1-0.1,3.1-1.3,5.1-1.5
		c1.6,1-3.6,1.2-4.4,2.2c8.9,21.7,18.1,43.1,27.9,63.9c3.6,5.2,9.9,11.6,10.3,17.6c-3.6,2-2.9-6.9-6.6-5.1
		c-11.5-22.7-21.7-51.3-33.8-75.6c-4.8,1.7-8.2,3.1-11.7,4.4c2.5-3.1,8-3.3,11.7-5.1c-21.2-59.2-43.5-118.7-54.3-184.3
		c-0.2-2-1.5-3.7-2.1-5.3C139.7,37.6,135.3,28.3,132.2,11.6z"/>
	<path class="st0" d="M189.3,20.5c1.4,0.1,2.3,19.9,4.1,21.9C191,44.5,189.3,20.8,189.3,20.5z"/>
	<path class="st0" d="M224,21.9c3.8,2.5,1.7,11,4.4,14.7C224.9,37.4,226.9,25.9,224,21.9z"/>
	<path class="st0" d="M193.4,43.9c0.9,1.2,4.7,16,2.7,17.7C196.6,55.2,193.4,49.7,193.4,43.9z"/>
	<path class="st0" d="M230.6,47.6C228.4,48.1,229.3,40.9,230.6,47.6L230.6,47.6z"/>
	<path class="st0" d="M241.6,110.8c3.5,16.3,6.6,33,11,48.5C247.1,144.9,243.2,129,241.6,110.8z"/>
	<path class="st0" d="M272.4,165.9c2.5-14.9,13-28.2,17.6-43.3C286.6,136.5,277.6,151.2,272.4,165.9z"/>
	<path class="st0" d="M213,135c2.9,14,10.1,31.2,14.7,44.1c0.7,2,0.2,5.6,1.5,7.3c3.8,5.1,11.8,5.7,16.9,9.5c-5,0.6-10-5.2-14.7-7.3
		c0.7,3.7,1.1,14.1,8.1,14c0.1,1.6-2.6,0.3-3.7,0.7c0.7,6.4,4.6,9.6,4.4,16.9c-2.7-5.6-3.8-12.8-6.6-18.4c-5.3,0.1-8.3-2-13.2-2.2
		c3.6-1.8,8,1.8,12.5,1.5C228.2,180.7,217.1,160,213,135z"/>
	<path class="st0" d="M227.6,185c2-0.6-21.7-9.2-30.2-14.6C201.6,172.6,223.6,184.1,227.6,185z"/>
	<path class="st0" d="M301.1,171C303.3,169,299.1,173.2,301.1,171L301.1,171z"/>
	<path class="st0" d="M344.4,171c-0.5,0.7-1.3,1.1-2.2,1.5C340.4,172.2,343.4,170.9,344.4,171z"/>
	<path class="st0" d="M298.9,172.5c-5,3.6-17.9,11.9-26.4,16.9C280.3,182.8,289.8,177.8,298.9,172.5z"/>
	<path class="st0" d="M258.5,181.3c3.5,20.3,20.5,46.9,5.9,65.4c-1.5,0-2.9,0-4.4,0c-1.4-0.2,0-4.9,2.2-5.9c-0.5,0.7-0.9,1.3,0,1.5
		c6.8-0.1,7.8-13.6,5.9-17.6C267.4,210.1,259.8,195.6,258.5,181.3z"/>
	<path class="st0" d="M318.7,181.3c-0.5,0.7-1.3,1.1-2.2,1.5C314.7,182.4,317.7,181.2,318.7,181.3z"/>
	<path class="st0" d="M315,182.7c-1,1.5-3.3,1.6-5.1,2.2C310.9,183.5,313.1,183.3,315,182.7z"/>
	<path class="st0" d="M309.2,185c-0.5,0.7-1.3,1.1-2.2,1.5C305.1,186.1,308.2,184.8,309.2,185z"/>
	<path class="st0" d="M257,186.4c1,14-12.2,28.6-9.5,47c0.8,5.5,3.8,8.6,5.9,14c-6.7,1.6-7.7-13.1-8.1-22c-0.6-2.4,1.9-1.5,2.2-2.9
		C248.5,205.7,254.9,199.5,257,186.4z M255.5,196.7c-0.2-0.6,0-1.4-0.7-1.5C255,195.8,254.8,196.7,255.5,196.7z"/>
	<path class="st0" d="M301.1,188.6c-0.5,0.7-1.3,1.1-2.2,1.5C297,189.8,300.1,188.5,301.1,188.6z"/>
	<path class="st0" d="M279.8,197.4c-1.3,0.2-1.5-0.7-0.7-0.7c7.1-2.1,11.2-4.8,16.2-5.9c3.8-0.9-3.6,2.3-5.1,2.9
		C286.7,195.1,282.4,195.6,279.8,197.4z"/>
	<path class="st0" d="M204.1,198.2c2.3,4.5,4.3,9.4,6.6,14C208.5,210.5,205.2,203.5,204.1,198.2z"/>
	<path class="st0" d="M212.2,218c1.7,1.4,3.9,5.1,5.1,8.1c0.6,1.5,3.7,8.6,0.7,3.7C216.6,227.3,214.6,223,212.2,218z"/>
	<path class="st0" d="M254.8,243c-1.3-0.7-1.3-2.6-2.2-3.7c-0.2-6.5,2.3-10.4,4.4-14.7c1.2,0.6-3.5,7.6-3.7,11.7
		C253,239.4,254.6,240.5,254.8,243z"/>
	<path class="st0" d="M237.2,228.3c3.6,0.2-1.1,0.8-0.7,2.2c-11.1,2.1-19.3,7.2-29.4,10.3c-1.4-0.6,0.8-0.4,0.7-1.5
		c4.3-0.4,6.5-2.8,10.3-3.7c0.3-0.4,3.6-1.1,1.5-1.5C224.1,233.5,232.3,230.9,237.2,228.3z"/>
	<path class="st0" d="M240.9,239.3c-3.3,4-8,6.7-11.8,10.3c1.5,4.6,3.4,8.8,5.9,12.5c-5.3-0.8-3.4-8.8-6.6-11.7
		c-5.4,3-8.6,8.1-14,11C222.6,253.3,231.7,246.2,240.9,239.3z"/>
	<path class="st0" d="M278.3,241.5c14.2,13.2,28.2,26.6,43.3,38.9C307.7,270.1,290.9,256.4,278.3,241.5z"/>
	<path class="st0" d="M178.4,251C182.4,250.2,168.3,253.3,178.4,251L178.4,251z"/>
	<path class="st0" d="M285.7,265.7C283.6,260,287.8,269.7,285.7,265.7L285.7,265.7z"/>
	<path class="st0" d="M287.1,270.1C285,264.4,289.3,274.1,287.1,270.1L287.1,270.1z"/>
	<path class="st0" d="M248.9,287.8c-0.7-2.1,1.8,3.7,2.2,5.1c2.2-0.9-0.8-2.5,0-4.4c1.7,0.2,0.7,3.2,2.2,3.7
		c1.8-0.1,0.2-2.4-0.7-2.2c1.1-2.3,2,1.9,3.7,1.5c-2.4,3.9-9.7,2-11-1.5c0.5-0.7,1.7-0.8,1.5-2.2c1.2,1,1.1,3.3,2.2,4.4
		C250.9,291.5,247.9,289.9,248.9,287.8z"/>
	<path class="st0" d="M262.2,296.6c1.4,0.5-2.2,4.3-3.7,2.2C259.1,295.9,261.1,297.9,262.2,296.6z"/>
	<path class="st0" d="M277.6,301c15.1,28.5,34.2,52.9,52.1,78.6c0.9,0.1,1.3-0.2,1.5-0.7c3.3,6.5,9.9,9.7,18.4,11
		c-0.1,1.6-3.1,0.3-4.4,0.7c-0.3,1.8,3.3-0.4,2.2,2.2c-13.3-1.4-22.7,8.2-32.3,8.8c1.2-4.3,7.9-3.9,11.8-6.6
		c0.5-0.4,5.9-4.9,5.9-5.9c-0.1-3-8.2-5.5-10.3-7.3c-10.6-8.9-24.6-25.3-31.6-34.5c2-1.2,3.7,4.2,5.1,5.9c2.4-3.3,2.1-9.2,3.7-13.2
		c-2.8,0.3-2.3,4-3.7,5.9c-1.2-0.3,3.9-10-0.7-12.5c-2.4,2-2,6.9-3.7,9.5c0.1,1.8-0.9,1.2-0.7,0c1.4-3.2,1.2-8.1,2.9-11
		c-0.9-2.3-2.5-3.9-2.9-6.6c-1.8,0.6-1,3.9-2.2,5.1c-0.6-1.3,2.6-8.6-1.5-11.7c-2.3-0.3-2.1,1.8-2.9,2.9c-1.6,1.5,0.5-3.8,2.2-3.7
		C283.8,311.9,279,308.1,277.6,301z M318.7,375.9c-0.4-3.6,1-8.9-1.5-10.3C316.3,367.8,315.2,375.7,318.7,375.9z M299.6,342.8
		c-0.1,5-4.7,12,0.7,14c0.8-3.4,0.9-7.4,2.9-9.5c-1.1,3.1-1.1,7.2-2.9,9.5c1.3,3.6,3.7,6.1,6.6,8.1c0.6-5.8,2.1-12.8,0-15.4
		C304.4,350.2,303.2,343.4,299.6,342.8z M306.2,348C307.6,350.4,304.1,344.4,306.2,348L306.2,348z M309.9,367.1
		c0.5-2.7-1.2-7.6,1.5-8.1c1,4.8-2.9,10.1,1.5,11.7c0.8-7.2,1-13-3.7-16.2C309.6,358.1,306.3,365.1,309.9,367.1z M315.8,372.9
		c-1.8-2,2.4-8.9-1.5-10.3C316.1,364.8,311.5,373,315.8,372.9z M321.6,378.1c-0.2-3.2,0.8-7.7-1.5-8.8
		C320.5,373.3,318.1,376.5,321.6,378.1z M323.1,373.7C321.8,383.9,326.2,376.7,323.1,373.7L323.1,373.7z M325.3,382.5
		c2.6,0.4,1.9-6.8,0-6.6C324.2,377.1,325.9,379.6,325.3,382.5z M330.4,385.4c-0.7-2.2-0.5-5.3-2.9-5.9
		C326.9,383.1,328.5,384.4,330.4,385.4z M334.9,387.6c-1.9-0.5-1.6-3.3-3.7-3.7C331,386.2,333.9,389,334.9,387.6z M336.3,391.3
		C333.9,392.7,339.9,389.2,336.3,391.3L336.3,391.3z"/>
	<path class="st0" d="M304.7,311.3c0.4-0.2,5.3,10.6,6.6,11C309.5,321.7,305.2,315.3,304.7,311.3z"/>
	<path class="st0" d="M273.9,320.1c4.6,6.9,9.1,13.9,14,20.6C281.7,335.7,276.2,326.4,273.9,320.1z"/>
	<path class="st0" d="M313.6,325.9c3.7,3.2,6.3,7.4,8.1,12.5C317.9,335.3,316.5,329.9,313.6,325.9z"/>
	<path class="st0" d="M238.7,393.5c-2.7-0.2-4.1,0.8-5.9,1.5c-0.5,0.7-0.9,2.4,1.4,2.4c3.4-0.4,8.8,1.2,8.9-3.2
		c1,0.2,0.6,1.8,0.7,2.9c2.7-0.1,1.8-1.1,1.5-2.9c2.4-0.7,1,2.4,2.2,2.9c2.4,0.9,0.6-2.4,2.9-1.5c1.3,4.5,8.8,5.1,11.7,2.2
		c2.7,0.9,0.1,6.3,4.4,6.6c4.2-0.7,8.1-11.4,2.2-13.2c2.2-1,2.2,0.9,4.4,4.2c5.1-0.5,3.8,6.8,3.6,11.2c-10.8,1.5-18.1,6.3-19.8,16.9
		c8.3-1.6,18.3,6.8,12.5,16.9c6.2-2.3,15.2-1.9,18.4-7.3c4,2.4,12.4,0.3,15.4,3.7c-16.8-1.6-33.8,5.6-51.4,11
		c-11.5,3.5-21.7,5.7-25,16.2c-0.9-6.3,2.3-5.4,2.4-10.6c5-0.6,10.3-4.1,15.2-4.8c-12.7-1.9-9.6-27.3,5.1-25.7
		c-1-11-11.4-14.8-19.1-16.9c-1.2-4.1,0.8-8.2,1.5-12.5c1.4-0.6,2.7-1.2,4.4-1.5c7.7-10.3,3.1-21.7,2.9-33.8c-0.1-5.7,2-9.8,0.7-14
		c-1-3.3-4.9-4.9-5.1-8.1c-0.3-4.1,3.5-7.2,4.4-9.5c0.2,4.3-2.7,5.6-2.9,9.5c7.5,4.9,4,13.7,4.4,22c0.4,7.9,3.7,16.7,1.5,25.7
		c1.1-0.9,1.1-2.8,2.2-3.7C244.4,384.3,239.6,386.9,238.7,393.5z M240.1,398.6c0,2.4,0,4.9,0,7.3c1.4-0.2,1.6,0.8,2.9,0.7
		c-1.4-4.1,2.4-8.3,0-8.8C242.9,399,241.3,398.6,240.1,398.6z M232.2,402.1c0.5,0,1.4-3,1.4-3.5c-0.5,0-0.9-0.7-1.4-0.7
		C232.2,398.4,232.2,401.6,232.2,402.1z M237.2,406c-2.2-1-1.5-5.3-0.7-7.3C231.8,398.4,235,408.7,237.2,406z M239.4,406.7
		c-2.1-1.9,1.1-8.4-1.5-8.1C237.2,400.8,236,406.6,239.4,406.7z M243.8,400.8c0,1.7,0,3.4,0,5.1c0.9-0.1,2.1,0.1,2.2-0.7
		C244.5,404.6,245.7,401.1,243.8,400.8z M246.7,406c3.1,0-0.5-3.8,0.7-6.6C244.7,399,246.1,405.1,246.7,406z M248.2,400.1
		c0,0.5,0,1,0,1.5c1.8,1.1,2.2-2.5,0.7-2.2C248.9,399.8,248.8,400.2,248.2,400.1z M251.9,406c0.9-0.5,0.3-5.6-1.5-5.9
		C251,402,249,406.4,251.9,406z M232.8,403C233.6,405.9,233.6,400.1,232.8,403L232.8,403z M255.5,406.7c0-2.2,0.4-4.8-2.2-4.4
		C252.9,405,253.6,406.5,255.5,406.7z M257,406.7c1,0,2,0,2.9,0c-0.3-1.4,1-4.4-1.5-3.7C258.2,404.4,256.9,404.9,257,406.7z
		 M260.7,406.7c3,0.4,2.3-3,0.7-3.7C261.7,404.8,260.1,404.6,260.7,406.7z M248.9,405.3C249.8,408.2,249.8,402.3,248.9,405.3
		L248.9,405.3z M250.4,406.7c-0.6,0.2-1.4,0-1.5,0.7C249.5,407.3,250.4,407.4,250.4,406.7z M241.6,408.2
		C243.8,410.2,239.6,406,241.6,408.2L241.6,408.2z M246.7,407.5c-0.6,0.2-1.4,0-1.5,0.7C245.8,408,246.7,408.2,246.7,407.5z
		 M258.5,408.2C253.8,407.3,256.9,410.4,258.5,408.2L258.5,408.2z M261.4,411.1c0.1-1.1,1-2,2.9-2.9c-1.2,0-2.4,0-3.7,0
		C261.5,410.1,258.4,411.3,261.4,411.1z M249.7,411.9c-1,0.1-2.2-3-2.9-0.7C247.7,411,249,414.1,249.7,411.9z M251.9,411.9
		c-0.6,0.2-1.4,0-1.5,0.7C251,412.4,251.9,412.6,251.9,411.9z M248.9,415.5c0.7,0,0.9,0.6,1.5,0.7c-0.1-1.2,0.1-2.5-1.5-2.2
		C248.9,414.6,248.9,415,248.9,415.5z M253.3,419.9C255.8,422.2,255.6,417.2,253.3,419.9L253.3,419.9z M252.6,420.7
		c-0.6,0.2-1.4,0-1.5,0.7C251.7,421.2,252.6,421.4,252.6,420.7z M251.9,423.6c2.3,0.3,3-0.9,3.7-2.2
		C253.1,420.9,253.1,422.9,251.9,423.6z M245.3,425.8c-0.8,2.3,1.2,1.8,1.5,2.9c2.3-0.2,2.9-2,4.4-2.9c-0.9-0.1-2.1,0.1-2.2-0.7
		c0.4,0,0.8-0.6,0-0.7C247.4,425.6,247.7,426.9,245.3,425.8z M260.7,429.5c0-2.2,2.2-2.2,2.9-3.7c-0.9-0.8-2.6-0.8-4.4-0.7
		c-0.9,2.4,2.4,0.6,1.5,2.9C259.9,428,259.8,429.3,260.7,429.5z M257,430.2c-2.6,0.4-4.9,1.2-7.3,0c0.3,1.8-1.3,1.6-0.7,3.7
		c2.9,1.4,9.8,1.3,11-1.5c-2.3-1.4-2.4-5-5.1-5.9c-0.3-1.2-3.2,1.2-3.7,2.2C251.9,430.4,256.4,428.4,257,430.2z M262.2,432.4
		c0.1-0.1,0.1-2.1,0-2.2C260.9,428,260.8,433.8,262.2,432.4z M262.9,431c2.2,0,2.7-1.7,3.7-2.9c-1-0.2-1.2-1.2-2.2-1.5
		c-0.2,1.7-2.5,1.4-2.2,3.7C262.6,430.3,263,430.3,262.9,431z M246.7,429.5c-2,0-1.6-2.3-3.7-2.2C242.3,430.2,246.4,432,246.7,429.5
		z M245.3,433.2c-0.3-2.1-2.5-2.4-3.7-3.7C240.3,431,242,434,245.3,433.2z M263.6,433.9c2.4-0.6,3.8-2,4.4-4.4
		C265.7,430,264.2,431.5,263.6,433.9z M243.8,436.8c0.6-3.3-2.4-3-3.7-4.4C239.5,435.7,241.4,436.5,243.8,436.8z M265.1,437.6
		c0.7-2.3,3.9-2,3.7-5.1C266.7,432.8,263.1,435.6,265.1,437.6z M245.3,435.4C246.1,438.3,246.1,432.5,245.3,435.4L245.3,435.4z
		 M247.5,436.8c2.9,2.3,11.7,2.1,13.2-1.5C258.2,435.5,249.3,435.6,247.5,436.8z M243.8,439c0-2.5-3.4-1.5-4.4-2.9
		C238.9,439,241.3,439,243.8,439z M263.6,442.7c0.9-2.4,6-4.3,4.4-6.6C267.4,438.4,260.3,441.3,263.6,442.7z M248.2,439
		c0,6.2,11.4,3.5,13.2,0.7c-1.2,0-0.4-2-1.5-2.2C257.8,439.8,251.8,440.4,248.2,439z M241.6,441.2c-1.2-0.1-0.6-1.9-2.2-1.5
		C238.7,441.3,241.3,443.1,241.6,441.2z M244.5,441.2C241.6,438.7,242.8,443.6,244.5,441.2L244.5,441.2z M261.4,442
		c-0.6,0.2-1.4,0-1.5,0.7C260.5,442.5,261.4,442.7,261.4,442z M241.6,443.4C242.4,446.3,242.4,440.5,241.6,443.4L241.6,443.4z
		 M243.8,444.9c0.7,0,0.9,0.6,1.5,0.7c-0.1-1.2,0.1-2.5-1.5-2.2C243.8,443.9,243.8,444.4,243.8,444.9z M246.7,447.1
		C250.3,449.2,244.3,445.7,246.7,447.1L246.7,447.1z"/>
	<path class="st0" d="M322.4,340.6C320.3,337,323.8,343,322.4,340.6L322.4,340.6z"/>
	<path class="st0" d="M356.1,381c0.9-0.1,0.6-1.3,0.7-2.2c3.3,2.5,6.7-0.3,11-0.7c0.9-2,2.1-3.8,3.7-5.1c10.2,1.8,17.2-5.1,25.7-7.3
		c-5,5.3-16.4,10.6-25,8.8c-1.1,0.1-3.8,4-0.7,3.7c-4.8,1.1-8.1,7.6-13.2,5.9c-1.7,1.6-4.7,4.4-7.3,5.9c1.9-1.9,0.6-5.3,1.5-6.6
		c-8.4-11.4-18.2-21.4-25-34.5C336.2,359.9,345.5,374.2,356.1,381z"/>
	<path class="st0" d="M305.5,350.9c1.7,2.4-2,5.8-0.7,10.3C301.5,359.3,305.5,354.2,305.5,350.9z"/>
	<path class="st0" d="M373.8,422.1c-2.4,1.2-3.8,3.5-3.7,7.3c-4.5-4.2,4.2-6.7,2.9-12.5c-2,2.2-3.7,4.6-5.1,7.3
		c0.4-3.5,0.1-13.3-1.5-19.1c-5.8,2.3-11.4,4.8-17.6,6.6c0.3,7.1,1.2,13.1,0,19.8c-2.7-3.5-4.4,4.3-7.3,5.1c2.4-8,1.2-15.7,2.9-23.5
		c-3.3-0.3-3.4,8.9-5.1,12.5c-1.8-3.6,1.8-8,2.2-11.7c-3.6,0.3-2.2,5.6-3.7,8.1c-2.2-1.5,1-3.9,0-6.6c-2.4,0.6-1.8,4.1-2.9,5.9
		c-2-0.7,1-2.3,0-4.4c-1.9,0.6-0.2,4.7-2.9,4.4c0-1.7,1.3-2.2,0.7-4.4c-0.7,0.6-1.7,0.8-2.9,0.7c-2.5,4.3-2.5,11.3-5.1,15.4
		c-1.8-5.7,2.3-11,2.2-16.9c-0.1-7.7-5.6-9.3-6.6-14.7c5.1,0.5,6.1,8.2,8.1,14c32.2-5.1,57.1-21.7,75.6-42.6
		c-7.1,11.3-16,20.7-28.6,26.4c-1,4.6-0.3,7.7-0.7,11.8c-2-0.5-5,3.6-5.1,7.3c1.9,1.8,2-4.3,5.1-3.7c-1.7,4.6,0.8,6.7,0,13.2
		c-1.8,0.3-3.5,0.8-3.7,4.4C369.2,428.4,374.6,426.1,373.8,422.1z M344.4,433.2c-0.4-2.9,5.1-3.6,2.9-5.9
		C346.9,429.3,342,430.7,344.4,433.2z M345.9,428c0.3-1.4,2.8-0.6,2.2-2.9c-3.5,0.4,1.6-4.9-2.2-5.1
		C346.1,423.9,346.1,427,345.9,428z M368.6,403.8c1.2,1.5-0.1,5.4,1.5,6.6c0.6-2.1,1.2-4.2,2.9-5.1c0.2,3.6-5,5.7-2.9,8.8
		c1.7-3.4,4.7-5.5,3.7-11.7c-2.2-0.8-2.7,3.5-3.7,1.5c0.8-0.5,3.8-2.4,2.2-2.9C371.7,402.5,369.7,402.7,368.6,403.8z"/>
	<path class="st0" d="M349.5,432.4c-1.7,2.5-5.3,3.1-5.9,6.6C342.3,436.5,346.4,432.9,349.5,432.4z"/>
	<path class="st0" d="M322.4,438.3C323.1,436.5,335.8,440.6,322.4,438.3L322.4,438.3z"/>
	<path class="st0" d="M398,488.2c-2.4-12.4-6.7-34.1-6.6-47c0-0.3-1.6-2.9,0.7,0c-0.2,3.4,0,6.4,1.5,8.1
		C394.8,462.5,395.9,475.9,398,488.2z"/>
	<path class="st0" d="M263.6,546.2c-11.3-4.1-17.9-14.8-27.2-22.8C244.7,529,254.1,539.6,263.6,546.2z"/>
	<path class="st0" d="M249.7,541.1c4.3,1.1,10,7.1,14.7,10.3c-2.5-5.2-12.5-9-16.9-14.7c-0.7,0-1.5,0-2.2,0
		c-8.6-10-20.9-16.3-29.4-26.4c8.7,7,16.7,14.7,25.7,21.3c-3.5-4.5,3.2,1.3,5.1,2.2c-1.4,1.8-2.8-2.5-5.1-2.2
		c7.2,5.1,14.4,14,22.8,15.4c-15.5-13.8-26.9-28.3-44.1-37.4c3.7,5.1,10.2,7.4,14.7,11.7c-3.6-1.1-11.9-7.6-16.6-12.4
		c-3.1-1-3.9-4.5-3.3-5.2c-1.9-3.4-11.6-7.1-9.8-10.8c0.4-0.5,3.8-0.8,9.2-0.9c0.3-10.7,1.6-15.1,13.2-16.2c0-1.7-1.3-2.2-0.7-4.4
		c3.4,3.4,2.8,10.9,6.6,14c2.9,0.1-0.2-1.1,1.5-2.2c1.9,3.4,3.9,2.2,7.3,3.7c0.9-0.2,0.7-1.5,0-1.5c2-2.4,2.3,3,4.4,2.9
		c-1.3-5.1,2.1,0.8,4.4,0.7c0.9-0.1,0.6-1.3,0.7-2.2c6.3,3.2,9.3,2,16.2,6.6c-13-0.6-26.2-2.8-38.2-6.6c2.4-5.2-6.5-3.9-8.8-6.6
		c0.2,3.2,4.4,2.5,6.6,3.7c-1.8,2-5.6-0.3-6.6-1.5c-8.3,1.3-2.6,17.3-3.7,22c3.8,3.6,9.4,5.3,15.4,6.6c1.3-2.8,0-13.5,2.2-17.6
		c-1.5,1-1.6,3.3-2.2,5.1c-1.9-2.5,1.2-6.1,2.9-7.3c-0.2,4.1-3,14,0.7,19.1c-0.5,1.3-1.3,0.1-2.2,0c0.1,1.9,2.5,1.5,4.4,1.5
		c-0.8-2.2-5.4-11.2-1.5-16.2c-2,7.5,1.8,17,8.8,19.8c4.1-1.9,8.1,0.7,11,2.2c0.7-7.3-4.1-15.1,0.7-22c-1.1,6.2-1.2,14.4,1.5,21.3
		c0.1,1.4,2.5,0.5,2.9,1.5c-1.9-4.5-6.7-15.1-2.2-22.8c-2.8,11.5,2.4,27.1,17.6,27.2c2.5-2.3-0.6-5.8,1.5-8.8
		c1.2,1.9-0.2,3.5,0.7,6.6c2.6-4.8-0.8-13.6,2.9-18.4c1.1,3.6-3.5,17,0.7,22.8c6,0.8,10.7,3,15.4,5.1c2.5-11.8-2.3-17.5,4-27.2
		c2.6-0.4,5.9-1,7.7-2.1c-1.9-0.7-8.1-1.8-13.2-1.5c0.6,1.1,2.4,1.1,3.7,1.5c-3.2,2.1-6-2-9.5-2.9c-7.4-2-19.1,1-23.5-5.9
		c2.2-0.4,4.1,2.3,3.7-1.5c4,5.1,5-0.1,9.5,4.4c2.2-0.6-1-1.8,0-3.7c1.4,1.3,2.1,3.3,3.7,4.4c0.9-0.3,1.5-0.9,1.5-2.2
		c0.7,1.3,2.3,1.6,3.7,2.2c1.1-0.3-0.3-0.9,0-2.2c2.1,2.9,4.1,1.3,7.3,2.9c0.9-0.2,0.7-1.5,0-1.5c0.6-1.5,2.6,1.8,3.7,2.2
		c1.1-0.6,2.8-0.6,2.2-2.9c1.4,0.8,1.6,2.8,2.9,3.7c2.4-1.1-1.5-1.8-0.7-3.7c3-0.3,1.1,4.2,4.4,3.7c2.2-0.6-1-1.8,0-3.7
		c2.5,0.4,1.2,4.7,4.4,4.4c1.8-0.7-1.7-2.2-0.7-4.4c2.1,1.1,1.7,4.6,4.4,5.1c2.2-0.6-1-1.8,0-3.7c1.6,1.1,1.5,3.9,3.7,4.4
		c1.5-0.4-1.1-2.8-0.7-4.4c1.9,0.7,2,3.4,3.7,4.4c1.8-1.4-0.9-3.2,0.7-5.1c1.7,2,2.6,4.7,5.1,5.9c-2.1-3.2,0.2-6.3-2.9-5.9
		c-0.4-8.2-1.8-17.3,2.9-24.2c-1.8-2.3-3.2-2.5-5.9-0.7c0.5,2.9,3.4,0,4.4,1.5c-6.2,2-13.3-1.4-20.6-0.7c1.5-2.6,10,0.2,11.8,0
		c-0.1-1-0.1-2.1,0.7-2.2c-3.5-2.1-15-1.3-21.3-2.9c9-1.2,18.7,1.1,29.4,2.2c17.4-6.6,37.4-13.7,50.7-22c-1.5-2.2-7.5,0.1-8.1-2.9
		c4.3,1.3,11.4-0.1,14.7,2.2c0,1.7,0.7,2.5-0.7,4.4c-2.9,0-7.5,2.5-11.6,5.3c-0.6,1.9-0.6,4.3-0.2,6.4c-3.4,3.5-14.1,7-18.3,9.7
		c1.9-2.4,13.8-7.3,16.9-10.4c-3.8-0.6-13.3,6.7-18,7.6c1.4-0.9,8-4.2,9.2-5.4c-9.9,3.1-21.7,10.6-32.3,15.4
		c-0.7,2.8,10.2-3.3,16.2-5.1c-4.9,2.3-9.6,5.6-15.4,7.3c0.4,4.8-0.2,6.1,1.5,8.1c9.9-3,16.9-9,26.4-12.5c-2.6,1.6-4.8,3.5-8.1,4.4
		c0.7,2.2,2.3,3.5,4.4,4.4c7.3-1.8,10.5-7.6,18.4-8.8c-0.3-1-1.3-1.2-1.5-2.2c-6.4,2.4-11.3,6.3-17.6,8.8c4.6-4.7,12.1-6.5,16.9-11
		c-1.2-1.6-4.7,1-6,1.7c4.5-4,6.5-4.6,5.5-9.3c1.3,0.9,0.4,5.6,1.3,6.9c5,1.8,12,0.3,12.1,2.2c1.1,3.3-6.4,6-9.9,8.9
		c0.6,0.7,6.2-0.8,8.1,0.7c0.8,5-2.1,6.2-5.9,6.6c-0.9,0.5-0.1,5.9-3.7,5.9c-0.5,2.3,0.7,1,0.2,3.3c-2.7,1.7,0.9,4.8-2.4,6.2
		c1.3,0.1-0.3,0.9,1.1,1c0.4,2.3,0.8,1.1,0.4,2.7c6.3,1.6,11,3.3,10.5,5.3c-0.1,2.8-5,3.6-7.6,4.7c4.8,5.2,12.2,6.9,17.8,11.3
		c-4.6,3.8-12.2,2.8-18.4,2.9c3.7,1.3,5,5.2,5.1,11c-2.9,0.1,0.2-1.1-1.5-2.2c-1.6,1.4,0,5.9-2.2,6.6c1.9,0.2,1.9-1.5,2.2-2.9
		c0.6,3.4,5,2.3,5.1-0.7c1,0.2,0.6,1.8,0.7,2.9c3.1,0.7,2-2.9,4.4-2.9c0,0.7,0,1.5,0,2.2c1.8-0.8,2.3-3.3,3.7-0.7
		c4.8-1.6,4.2-11.1,1.5-14.7c5.4,1.6,3.9,13.4-0.7,16.9c-17.1,1.6-53.7,5.3-76.3,9.2c-3.2,0.6-9.3,1.3-15,1.5
		c-2.7,1-19,4.2-13.5,17.1c-2,0.4-4.1-3.5-3.3-5.6c-1.7,0.8-0.1,6.6-0.5,8.6c3.6-1.4,8.9-1.5,11.7-2.2c11.6-3.9,24.5-3,36.7-6.6
		c2,0.7-2,1.4-0.7,3.7c-2.8,1.1-0.1-3.3-2.9-2.2c-2.5-0.5-1.2,2.7-2.9,2.9c0.3,1.6,3.6,0.3,5.1,0.7c2.1-1,1.7-4.7,4.4-5.1
		c0.1,1.8-1.2,2.3-1.5,3.7c3.9,0.5,2.4-4.4,5.9-4.4c-0.7,1.3-1.8,2.1-2.2,3.7c2.5-0.2,3.2-2.2,3.7-4.4c2.2,0.6-0.4,2.4,0,3.7
		c1.9-0.1,1.2-2.7,2.2-3.7c2.2,0.6-0.4,2.4,0,3.7c4.2,0.5,3.8-3.6,5.9-5.1c1.7,0.6-0.6,3.2-0.7,4.4c4,1.1,3.2-2.7,5.9-2.9
		c-0.4,0.6-0.8,1.2-0.7,2.2c0.7-0.5,1.1-1.3,1.5-2.2c-1-2.3-3.6,1-4.4-0.7c2-1.2,3.8-2.5,7.3-2.2c-0.4,1.8-2,2.5-2.2,4.4
		c3.3,0.6,1.4-3.9,4.4-3.7c0.5,2.3-2,1.4-1.5,3.7c3.9-0.2,2.3-1.9,2.2-5.1c1.8,2.4,3.6,0.8,2.2,4.4c1.3-0.7,1.2-2.7,2.9-2.9
		c-0.6-2.1-1.1-0.8-2.9-0.7c6.9-4.1,12.3-3.2,18.9-4.1c6.8-0.9,13.5-2.9,20.5-3.6c0,1,0.2,1.5,0.2,2.5c1-0.2,0.6-1.8,0.7-2.9
		c1.6,0,1.5-0.6,3.4-0.7c-3.1-5.2-12.4-3.8-17-7.9c6.5,2.3,19.6,4.6,19.5,8.9c0,2.6,0.2,4-1.1,4.7c-4,1.5-9.2,1.7-14.4,2.9
		c-2.4,1.3-4.3,4.4-4.3,8.2c-14,1.2-24.4,5.9-38.2,7.3c12-3.9,25.9-5.9,38.2-9.5c-6.3-0.7-16.1,1.6-22.8,2.9
		c5.9-4.9,20.5-1,24.2-8.1c-16.7,1.9-30.9,6.3-47.7,8.1c-0.7,0.7-2.6,0.4-3.4,1.1c-7.7,0.9-20,3.2-19.3,3.1
		c-11.2,1.1-23.2,1.9-29.5,6.8c10.5-2.2,19.9-2.5,31.6-4.4c2.7-0.5,2.7,1.3,0,0.7c-11.5,2.4-25.3,2.6-36,5.9
		c-5.1-2.3-9.5-7.3-6.6-15.4c-2,3.7-2.9,8.4-2.9,14c2.7,0.1,2.4,1.1,3.7-0.7c15.3,8.8,33.2-2.7,51.4-3.7c-11.7,2.7-22.9,6-35.2,8.1
		c4.5,2.9,14.2,3.8,19.3,4.3c-4.1,1.4-5.3,0.4-6.8,0.8c4.5,1.5,4.6,0.6,8.6-0.7c-4.4,7.8-9.8,1-18.2,2.9c7.9,4.4,22.3,3,31.6,0.7
		c-0.5,2.6-12,2.6-17.6,3.7c-0.5,2,1.5,1.5,1.5,2.9c21.7-6.9,49.8-7.4,70.5-15.4c-9.5,2-31.3,5.9-40.4,5.9c14-2.7,29-4.3,41.1-8.8
		c-8-1.7-21.4,3.5-30.8,5.1c0.8-3.2,16.4-4.5,23.5-6.6c-14.5,0.7-31.8,4.9-46.3,8.1c14.5-7.8,39.1-5.5,53.6-13.2
		c-2.9-0.7-9,1.8-14,1.5c3.8-2,10.5-1.2,14-3.7c-1.7-2.2-10.1,2.3-9.5,0c4.3-0.6,8.2-1.6,11.8-2.9c0.4,5.4-4.5,12.7,0.7,19.1
		c-0.7,1.5-4.1-0.2-3.7-2.2c-21.5,5.2-44.5,8.8-66.8,13.2c10.5,0.9,28-3.7,40.4-5.9c3.3-0.6,5,1.1,0.7,0.7
		c-13.2,3.4-28.2,5.1-41.9,8.1c-0.4-0.6-0.8-1.2-0.7-2.2c-1.2,2,2,5.8,1.5,9.5c20.3-3.3,37.3-5.4,55.8-10.7c3.2-0.5,6.3,0.4,2.2,0.5
		c-0.6,0.4-2.6,0.7-3.6,0.6c-0.4,0.9-0.8,1.5-1.5,3.7c2.8-0.1,2.8-3.1,5.9-2.9c-0.1,1.4-2.4,0.5-2.2,2.2c2.2,0,7.4-3.9,4.4-4.4
		c6.8-1.5,13-3.7,20.6-4.4c4.4-1.1,5.3-1.9,3.6-2.9c-3.3-2.1-10.2-2.8-13.9-4.4c3.9,0.7,13.4,1.6,17,4.5c1.4,1.4,0,4-0.1,6.5
		c-24.6,7-55.2,12.1-78.6,17.6c-1.3,0.3-7.3,3.7-7.3-2.2c4,1,3.9-2,6.6-2.2c-1.1-3-4.5,1-8.1,0c1,8.8,3.1,16.1-0.4,24.5
		c-1.3,3.1-1.9,4.6-4.6,7.9c7.8,7.8,19.9,15.3,30.1,23.6c-11.7-5.7-21.2-14.7-31.7-21.5c-18.4,22.1-51.5-2.2-72-5.9
		c0.3-1.5-0.5-1.9-0.7-2.9c-2.2,0.9-2,4.4-5.1,4.4c2.7-4.8,3.5-7.1,3.7-14c-3.5,12.4-11.7,20.1-21.3,26.4c0.3-1.6-1-1.4-2.2-1.5
		c1.9-6.4,3.9-12.7,5.9-19.1c1.6,4-0.4,10.9-1.5,14.7c0.5,1.3,4.4-8.3,4.2-10c0.3,4.6-1.7,8.9-1.3,9.3c0.2,0.2,7.9-5.2,9.5-7.3
		c5-6.7,5.6-19.7,6.6-26.4c1.1-2.2,0.6,3.2,0.7,4.4c1.8-1.3,0.4-5.8,0-7.3c2.9,4.9,1.4,17.4,0.7,23.5c6.3-2.4,6.1-15,7.3-24.2
		c0.2-1.3,0.2-8,0.7-2.2c-0.1-1.4,0.1,2.6,0,8.1c2.1-3.3-0.6-11.4,1.5-14.7c1.7,5.7-0.2,18.3-1.5,25.7c5.8-10.1,4.6-24.5,3.7-38.2
		c-2.5,1.6,1.5,9.8-2.2,10.3c0-2.4,0-4.9,0-7.3c-4.9,0-7,9.2-7.3,16.2c-2.1-2.2,0.3-6,0-8.8c-2-1-4,4.3-7.3,4.4
		c1,4.5-2.8,22.5-2.2,16.9c-0.4-5.5,1.3-9,0.7-14.7c-1.9,3.7-1.4,9.9-2.2,14.7c-2.2-2.9,0.4-8.3,0-11.8c-0.1-1.2-1.3-3,0.7-5.1
		c1.6-1.6,4.7-2,6.6-3.7c6.3-5.5,12.1-12.1,19.8-18.4c14.2-11.5,37-30.4,46.5-35.5c-10.3,4.8-38.4,24.2-50.9,35.5
		c-18,16.2-35.2,33.9-52.9,47.7c-1.9,7.7-4.1,15-7.3,21.3c-0.3-4,3.9-9.8,4.4-15.4c-5.1,6.9-7.8,16.2-13.2,22.8
		c0.4-5,6.7-10.4,8.1-16.9c-1.1-0.8-4.4,2.4-6.6,2.9c-0.1,5.8-2.5,10.6-5.1,15.4c-1.1,2.1-3.9,7.6-2.9,3.7c3.2-5.1,5-11.6,7.3-17.6
		c-7,2-6.3,11.8-10.3,16.9c-0.1-4.3,3.5-11.1,5.9-15.4c-5.4,1.2-5.4,14.2-10.3,18.4c0.2-4.2,5-10.1,5.9-16.2
		c-5.2,3.9-5.9,12.2-9.5,17.6c-1-3,3.3-7,3.7-11c-7.2-0.1-9,11.6-12.5,17.6c-0.7-3.4,3.2-8.6,4.4-12.5c-1.1-1.7-3.9,0.9-4.4,2.2
		c-1.8-1.1,1.2-3.7,2.9-3.7c-2.9-2.1-7.5,0.3-11,0c4.5-2.9,14-0.7,16.9-5.1c-1.1-1.1-5.6,0.7-8.8,0c-5.7,1.4,6.9-3.6,9.5-0.7
		c2.8-1.2,4.4-3.5,7.3-4.4c-5-1.9-10.8,0-14.7,0c3.3-1.8,12.2-3.4,15.4-0.7c17.7-13.4,33.8-28.3,49.9-43.3
		c-3.7,0.5-7.4,0.9-10.3,2.2c0.7-4.2,8-1.9,11-2.9c8.2-2.8,14.1-12.8,19.8-18.4c-6.8,0.1-11.1,2.6-16.2,4.4c1.9,1.6,4.9-1.9,8.1-1.5
		c-15.6,7.2-31.3,14.2-42.6,25.7c6.6-10.8,19-15.8,30.8-21.3c1.4-1.4-0.4-1.3,0-3.7c4-1.4,8-2.8,12.5-3.7c-0.9-1.1-2.8-1.1-3.7-2.2
		c0.8-0.7,5.6,2,8.1,0c-2.4-1.5-7.7-0.2-9.5-2.2c1-1.2,5.1,0.8,8.1,0c-2-1.1-4.3-2.1-5.9-3.7c3.7,1.8,12.1,2.4,16.9,0.7
		c1.1,2.3-5.4,3.4-7.3,5.1c8.8,0.4,12.6-10.4,20.6-13.2c-0.6-1.8-5.1,0.2-5.9-1.5c-9.4-0.8,6.2-0.8,5.9-0.7
		c8.2-1.9,21.9-15.5,22-14.7c9.4-5,16-13.2,26.1-15.1c-5.2,3.2-8.3,7.9-9.2,12.2c1.9,2.3,2.5-2.8,5.1-2.2c-0.2,1.5-2,1.4-2.2,2.9
		c3.3,0.4,4-1.9,4.4-4.4c1.5-1.9,0.4,2.9,0,3.7c3.5,0.6,4.3-1.5,4.4-4.4c2.5,0.5,0.5,2.2,0,3.7c2.5,0.6,3.5-0.4,2.9-2.9
		c2.1,0.6,0.8,1.1,0.7,2.9c2.3-0.1,3.5-1.4,3.7-3.7c2-0.5-0.5,3.5,1.5,2.9c2.7,0.5,2.9-1.5,2.9-3.7c1.7,0.2,1.7,2,0.7,2.9
		c3.3,0.8,2.6-2.3,3.7-3.7c1.8,0.1,0.2,2.5,0,2.9c3.6-2.7,4.3-9.9,1.5-13.2c2.3-0.1,2.5,1.9,2.9,3.7c3.2-1.1-3.2-4,0.7-3.7
		c1.1,2.9,1.7,6.1,1.5,10.3c4.2-1.4,1.6-8.9-0.7-11.8c7.4,0.1,1.1,12,6.6,13.2c2.4,0.7,1-2.4,2.2-2.9c1,0.2,0.6,1.8,0.7,2.9
		c2.3,0.3,3-0.9,3.7-2.2c-0.1-1.4-2.5-0.5-2.9-1.5c2.5-3.2,10.1-0.7,14.7-1.5c-3.2,1.7-9.6,0.2-11,3.7c0.5,1.6,4.2,0.4,3.7-1.5
		c2.4-0.6,1,2.4,2.9,2.2c2.3,0.4,0.3-3.6,2.9-2.9c-0.5,4.5,5.7,1.7,5.1-0.7c1.3,0.5,0.1,1.3,0,2.2c4.8,0.6,2.2-6.2,5.1-7.3
		c0.3,3.3-0.5,5.4-1.5,7.3c5.3-3,5.9-15.1-2.2-15.4c2.1,1.1,1.7,4.6,3.7,5.9c-1.3,0.8-4.1-3.2-4.4-5.9c-7.9,0.4-14.7,2-22.8,2.2
		c-1.3,0.2-1.5-0.7-0.7-0.7c1,0,2,0,2.9,0c12.4-3,29-1.9,41.1-5.1c-0.4-0.4-17.3-12-17.4-10.8c-16.1,4.8-33.2,7.8-48.7,13
		c-7.8,2.6-13,5.4-23.5,2.2c-4.9-1.5-9.9-5.5-14.7-7.3c-3.9-1.5-6.4-1-10.5-2c-1-0.2-3.3-1.4-4.2-1.7c-12.9-4.3-28-5.3-40.4-10.3
		c5.7,8,19.7,12.2,27.7,22c2.2,1.9,2.8,3.1,4,3.6c2.5,2.5,5.3,2,7.2,5.3c18-2.2,36.3-4.2,52.9-4.4c-17.9,2-34,3.1-50.7,5.1
		c-4,2.6-2.2,11.1-3.7,16.2c3.6,1.1,2.8-2.1,5.1-2.2c-0.4,0.7-1.7,2.7,0.7,2.2c2.9,0.7,0.5-3.9,2.2-4.4c2.3,0.9-1.8,4.1,1.5,4.4
		c3.4,0.7,1.4-4,2.9-5.1c2.5,1.6-1.8,6.3,3.3,4.9c-7.5,4.1-15.7,1.9-21.2,4.8c-2.3-0.8-4.8-1.4-9.2-5c-2.2-2-3.7-3.3-5.3-4.8
		c-10-7.2-18.3-18.1-27.9-26.4c-3.3-2.9-5.8-3.8-9.1-8.9c36.6,31.9,48.5,44.6,49.3,40.3c-16-17.5-36.3-31.1-54.2-46.8
		c-0.3-1.2,1.1-1.7,2-1.8c1-2.9-0.6-2.4-5.6-0.4c-0.9,3.3,5.5,6.2,7.9,8.5c-2-0.9-4-2.3-5.7-3.4c-15,2.9-21.5,0.8-29.4,4.4
		c5.5,4.8,10.9,9.7,18.4,12.5c-8,0.3-14.2-11.1-22.8-10.3c-5,3.1-6.6,5.1-8.8,9.9c2.3-17.1,26.5-15,41.8-17.3
		c-1.9-2.1-2.8-2.6-2.9-5.1c2.8-0.2,6.2-2.6,8.1-1.5c0.6-1.5,1.1-6.6-0.8-8.6c2.8,1,2.1,8,1.7,11.2c11.6,10.3,25.2,28.9,52,45.9
		c-0.3-5.1-10.7-6.4-12.5-12.5c4.2,3.7,8.6,7,13.2,10.3C263,549.2,253.9,545.8,249.7,541.1z M263.6,549.2c0.5,0,1,0,1.5,0
		c0-0.5,0-1,0-1.5c-0.5,0-1,0-1.5,0C263.6,548.2,263.6,548.7,263.6,549.2z M236.5,519.1c5.6,4.6,13.6,14.8,21.3,20.6
		c2.8,2.1,5.7,1.7,7.3,4.4c2.4,4,2,11.2-1.5,16.2c5.6-0.2,5.7-10.5,4-15.8c0.9-2.2-1.5-2.2-2.8-2.9
		C254.9,535.7,247.2,524.1,236.5,519.1z M227.6,529.4c-3.8-2.2-9.2-10.3-11.7-8.8C220.5,522.3,224.1,529,227.6,529.4z M331.2,475.7
		c12.6-5.8,29.3-11.3,37.5-19.1C355.8,462.7,342.5,468.2,331.2,475.7z M369.2,459.5c0.6-0.4,1.6-1.8,3.1-1.4
		C369,456.6,360.4,465.3,369.2,459.5z M326,574.1c0-1,0.3-1.6,0.7-2.2c-0.5,0-1,0-1.5,0C324.5,573,324.5,573.7,326,574.1z
		 M378.2,448.6c0.2,0.6,0,1.4,0.7,1.5c0-1,1.3-0.7,1.5-1.5C379.3,448.3,379.1,447.7,378.2,448.6z M368.6,454.5
		c0.2-0.9,3.9-1.8,1.5-2.9C369.9,452.4,366.2,453.4,368.6,454.5z M365,455.9c-0.4-1.1,2.9-1.8,0.7-2.2
		C365.8,454.5,362.5,455.2,365,455.9z M373,455.2c-0.6,0.2-1.4,0-1.5,0.7C372.1,455.8,373,455.9,373,455.2z M359.1,457.4
		C357.3,459.9,361.6,455.6,359.1,457.4L359.1,457.4z M354.7,460.3c0.1-1.4,2.4-0.5,2.2-2.2C355.6,457.9,352.5,459.5,354.7,460.3z
		 M351,460.3C347.2,462.1,353.5,462.2,351,460.3L351,460.3z M347.3,462.5C343.5,464.5,350.1,461.1,347.3,462.5L347.3,462.5z
		 M343.7,464C341.7,466.2,345.9,462,343.7,464L343.7,464z M337.1,467.7c1.7-0.2,3.2-0.8,3.7-2.2C339,465.7,337.6,466.2,337.1,467.7z
		 M345.9,466.2c-3.2,1.9-11.3,2.9-11,5.9C337.7,469.3,343,469,345.9,466.2z M320.9,470.6c1,0,2,0,2.9,0c-0.1-1.3,0.2-2.3,0.7-2.9
		C322.2,467.5,321,468.5,320.9,470.6z M333.4,469.1c1.7,0.2,2.8-0.2,2.9-1.5C334.6,467.5,333.6,467.8,333.4,469.1z M372.3,480.2
		c3.8-1.9,5.4-2.8,8.8-5.9C376.9,475,373.8,476.8,372.3,480.2z M228.4,480.9c-2.2-0.6,0.4-2.4,0-3.7c-1.8,0.4-3.4,1.1-5.9,0.7
		C222.7,480.3,227.6,481.6,228.4,480.9z M367.9,483.1c2.1-0.3,3.3-1.5,3.7-3.7C368.3,478.6,368.9,481.7,367.9,483.1z M363.5,483.1
		c1.2,0,0.4,2,1.5,2.2c0.9-0.7,3.2-3.6,1.5-4.4C366.2,482.4,363.7,481.6,363.5,483.1z M355.2,505.3c-1.3-3.3-1.2-9.8-1.2-13.4
		c0-3.3,0.2-7.8-3.1-10.2c-1.7,0.6-1.8,0.9-3.5,1.4c3.8,5.4,1.4,17.4,3.5,24.1C351.5,506.6,355.7,506.5,355.2,505.3z M362.8,488.2
		c4.8-1.4,12.5-2.4,16-5.3C373.1,481.4,366.7,485.8,362.8,488.2z M376,486.8c2.9-0.3,6.3,0,5.9-3.7
		C379.7,484.2,378.6,486.2,376,486.8z M361.3,487.5c0.3-1.4,2.1-1.3,1.5-3.7C360,483.8,360.6,486.4,361.3,487.5z M346.6,486.8
		c0-1-0.6-1.9-1-2.5c-3.5,2.4-12.3,3.4-11.5,7.7c0.7-1.3,2.6-1.3,3.7-2.2c0.1,0.8-1.1,1.1,0,1.5
		C340.6,489.5,343.8,488.3,346.6,486.8z M334.9,496.3c5.1-1.5,8.9-4.3,13.2-6.6C345.6,486,336.8,492.4,334.9,496.3z M358.4,486
		C356.8,491.5,359.5,482.1,358.4,486L358.4,486z M330.4,489c0-0.5-0.8-5.5-1-9.6C328.4,481.2,327.7,487.3,330.4,489z M356.1,489.7
		c0-0.4,0.1-0.9,0.7-0.7c-0.1-0.9-0.2-1.7-1.5-1.5C355.5,488.4,355.3,489.6,356.1,489.7z M357.4,492c4.5-0.5,16.6-3.1,18.6-5.3
		C372.6,487.5,359.9,490.4,357.4,492z M357.6,493.8c-2.3,0.9-1.5,1.2-1.9,3.3c5.3-1.5,17.5-1.6,20.3-8.2
		C371.4,490.8,362.4,491.9,357.6,493.8z M330.4,492.6c0.5-0.5,1.8-3.6-0.7-2.9C329.8,490.8,329.5,492.4,330.4,492.6z M334.9,492.6
		C332.9,494.9,337.1,490.6,334.9,492.6L334.9,492.6z M346.6,492.6C347.7,495.1,348.4,489.8,346.6,492.6L346.6,492.6z M214.7,501.2
		c-0.4-2.2-0.1-4.2-0.5-7.9c-2.3,0.3-4.7,0.2-6,0.6C205,494,211.8,498.3,214.7,501.2z M344.4,494.8c-0.4-1.1,2.9-1.8,0.7-2.2
		C345.2,493.4,342,494.1,344.4,494.8z M330.4,494.1C329.8,498.4,330.9,491.2,330.4,494.1L330.4,494.1z M355.6,498.3
		c-0.2,1.4-0.1,1.9-0.2,3.2c3.8-1.7,11.9-4.1,15.4-4.4c1.4,0,4.1-4.3,1.5-3.7C367,495.7,362.1,497.2,355.6,498.3z M344.4,497.8
		c2.9-0.3,5.1-0.7,3.7-2.9C347.2,496.2,345.2,496.4,344.4,497.8z M341.5,497c0.1-0.9,1.3-1.7,0-2.2
		C341.4,495.7,340.2,496.5,341.5,497z M339.3,497C337.5,499.5,341.7,495.3,339.3,497L339.3,497z M337.1,497.8
		C335.3,500.2,339.5,496,337.1,497.8L337.1,497.8z M337.8,503.6c-10.3,2.9-21.5,4.9-31.6,8.1c0.9,0.1,0.8,1.2,0.7,2.2
		c0.6,2.2,1.8-1,3.7,0c-0.2,2-3.1,1.3-3.7,2.9c7.8-0.5,17.4-4.6,25.7-4.4c-9.2,2.6-19.8,3.7-26.4,8.8c8.7-0.9,22-7.4,30.8-8.1
		c-9.5,4.2-22.2,5.2-30.1,11c15.3-2.8,29.1-11,44.1-11.7c-7.6,1.3-15.1,4.3-22.8,6.6c-7.2,2.2-16.3,2.9-20.6,8.8
		c23.8-4.1,44.3-11.6,65.4-18.4c-3.9-3.1-9.6,2.5-16.2,2.2c4.3-1.8,10.5-1.8,13.2-5.1c-5.3,0.3-10.5,4.7-14.7,3.7
		c4.7-2.4,11.7-2.5,14.7-6.6c-3.5,1.2-5.4,0.4-8.1,1.5c0.6,0.2,1.4,0,1.5,0.7c-5.6,0.7-8.9,3.8-14,5.1c-1.7-2.6-0.2-4-1.5-7.3
		c-8.1,1.5-16.6,6.4-24.2,5.9c4.1-1,9.5-2.3,14-3.7c3.8-1.2,10.9-1.8,10.3-7.3c-2.3-1-2.6,0.9-5.1,0c0.4,0,1.7,0,0,0
		C340.7,500.8,334.4,500.3,337.8,503.6z M334.9,502.2c-3.6,0.9-5,2.6-13.2,0.3c-3.8,1.7-8.6,2.4-13.2,3.4c0.6,2.1-1,1.9-0.7,3.7
		C317.5,507.8,327.6,506.4,334.9,502.2z M304.8,504.3c-1.9,0.6-6.1,15.3-3,23.6c0.4,1.1,4.4,5.4,3.7,2.2c-1.5-2.7-2.8-13-0.8-21.5
		c2.9-4.5,6.9-4.7,12.5-6.4C313,502.4,308.8,503,304.8,504.3z M360.6,503.6c3.7-1.5,12.9-1.3,11-5.9c-4.4,1.5-12.2,1.5-15.6,4.7
		c0.3,4.5,1.1,1.8,3.9,1.9c-0.3,1.2-4.7,0.7-2.1,2.4C358.9,504.9,362.7,507,360.6,503.6z M295.9,498.5c-0.6,0.2-1.5,0-1.5,0.7
		C295,499.1,295.9,499.2,295.9,498.5z M325.3,526.4c-1.2,0.1-2.5-0.1-2.2,1.5c0.5,0,1,0,1.5,0C324.6,527.1,325.2,527,325.3,526.4z
		 M308.4,532.3c3.4,4.1,27.1-6,41.7-8.7c11.7-4.1,22.7-4.8,30.3-11.2C355.3,518.2,327.4,529,308.4,532.3z M365,513.9
		c-0.6,0.2-1.4,0-1.5,0.7C364.1,514.5,364.9,514.6,365,513.9z M356.9,517.6c0.2-1.5,3.3-0.2,2.9-2.2
		C358.5,515.4,355.1,516.9,356.9,517.6z M355.4,516.9c-0.6,0.2-1.4,0-1.5,0.7C354.5,517.4,355.4,517.6,355.4,516.9z M346.6,519.8
		C341.9,519,345,522,346.6,519.8L346.6,519.8z M337.1,522.7c1.4-0.1,2.5-0.5,2.9-1.5C338.3,521.1,337.2,521.5,337.1,522.7z
		 M334.9,523.5c-1.1,0.1-2.7-0.3-2.9,0.7C332.9,525.2,334.6,525.2,334.9,523.5z M326.8,526.4c1.9-0.1,3.8-0.1,3.7-2.2
		C329.2,524.9,326.5,524.2,326.8,526.4z M318.7,527.9C315.9,525.9,315.5,530.6,318.7,527.9L318.7,527.9z M315.8,529.4
		c-0.9,0.1-2.1-0.1-2.2,0.7C314.4,530,315.6,530.2,315.8,529.4z M378.2,538.2C379,541.1,379,535.3,378.2,538.2L378.2,538.2z
		 M338.5,548.4c2.2,1.1,1.9-3.8,0.7-3.7C339.6,546.5,337.9,546.4,338.5,548.4z M356.1,546.2c-0.6,0.2-1.4,0-1.5,0.7
		C355.3,546.8,356.1,547,356.1,546.2z M400.2,559.5C401.1,562.4,401.1,556.6,400.2,559.5L400.2,559.5z M406.1,559.5
		C405.5,563.8,406.5,556.5,406.1,559.5L406.1,559.5z M396.5,560.2C392.7,562.1,399.3,558.8,396.5,560.2L396.5,560.2z M392.1,563.1
		c1,0,2,0,2.9,0c0.1-1.8-1.1-2.3-2.2-2.9C392.6,561.2,391.8,561.6,392.1,563.1z M397.3,562.4c0.7,0,1.5,0,2.2,0c0-0.7,0-1.5,0-2.2
		c-0.5,0-1,0-1.5,0C398,561.1,397.1,561.2,397.3,562.4z M401.7,560.9C402.7,563.4,403.5,558.1,401.7,560.9L401.7,560.9z
		 M388.5,562.4c1,0,1.6,0.3,2.2,0.7c0-1,0.3-1.6,0.7-2.2C390,561,388.9,561.4,388.5,562.4z M376.7,565.3c0.7,0,1.5,0,2.2,0
		c-1-1.7,1.9-2.8,0-2.9C378.3,563.1,376.7,562.5,376.7,565.3z M384.1,563.9c0.7,0,1.5,0,2.2,0c0-0.5,0-1,0-1.5c-0.7,0-1.5,0-2.2,0
		C384.1,562.9,384.1,563.4,384.1,563.9z M379.6,565.3c0.5,0,1,0,1.5,0c0.8-1.1,0.8-1.8-0.7-2.2C380.4,564.1,380,564.7,379.6,565.3z
		 M370.8,566.8c0-1,0-2,0-2.9C368,563.3,368,567.4,370.8,566.8z M371.6,566.8c1.9,0.2,3.2-0.3,2.9-2.2c-0.9,0-1-0.9-2.2-0.7
		C372.4,565.1,372.1,566.1,371.6,566.8z M368.6,566.8c-0.6,0.2-1.4,0-1.5,0.7C367.7,567.4,368.6,567.5,368.6,566.8z M282,581.5
		c1.7,1.2,3.2,2.6,5.1,3.7c-3.8-3.8-4.1-9.8-4.4-15.4C281.8,572.1,282.1,576.6,282,581.5z M276.8,583.7c-0.2-0.5,3.8-10,1.5-11
		C278.2,578,275.4,578.8,276.8,583.7z M309.9,574.9c1.1,1.2,3.3,0.8,2.9-1.5C311.5,573.5,310.4,573.9,309.9,574.9z M313.6,577.1
		c1.1-1.1,3.3-1.1,2.9-3.7c-0.7,0-1.5,0-2.2,0C315.1,575.3,311.1,576,313.6,577.1z M321.6,575.6c1,0,2,0,2.9,0
		C325.2,572.8,321.1,572.8,321.6,575.6z M317.2,577.1c0-1.5,2-0.9,1.5-2.9C317.1,573.6,315.7,576.9,317.2,577.1z M305.5,577.8
		c1.8,0.1,2.3-1.1,2.9-2.2c-1.9-1.5-3.5,0.8-4.4,0.7C304.8,576.5,305.2,577.2,305.5,577.8z M274.6,646.1c0.3-3.3-2-3.9-2.9-5.9
		c3.2-2.6-0.6-5.9-0.7-9.5c0.7,0,0.6-0.1,1.4-0.1c-3.5-10.3,4.9-16.5,3.8-24.1c3.8,2.1,2.8-2.2,3.7-4.4c7.5-2.4,10.5-9.9,25.4-6.9
		c3.6-0.5,4.2,0.6,4.7-1.2c-10.7-1.1-23.5-7-33-4.4c-2.7-3.3-0.4-10.8-1.5-14c-7.4,8.7-5.7,22.5-6.6,32.3
		c-3.4-11.7-0.1-20.7,1.5-27.9c-2.9,1.3-4.2,4.1-7.3,5.1c0.7,22.1,0.5,44.1-14,54.3c2.3,1.8,2.9,5.4,6.6,5.9c-0.7-3-3.5-3.9-3.7-7.3
		c2.7,1.9,4.6,8.6,7.3,8.1c-1.2-1.6-4.5-4.8-2.9-6.6c1.8,3.6,5.1,9.6,8.8,8.8c-0.9-1.3-3.7-4.5-2.2-5.9c2,3.2,3.5,6.8,6.6,8.8
		c-1-3.2-3.7-4.7-4.4-8.1c3.2,2.9,5,7.3,8.8,9.5c-0.5-2.7-4.6-5.6-3.7-7.3C271,647.8,273.2,647.9,274.6,646.1z M301.1,579.3
		c2.7,0.7,2.9-3.6,0.7-3.7C301.2,576.5,300.8,577.6,301.1,579.3z M300.3,576.3c-0.6,0.2-1.5,0-1.5,0.7
		C299.4,576.9,300.3,577.1,300.3,576.3z M308.4,577.8c1.3,0,1.9-0.6,2.2-1.5C309.4,576.3,308.7,576.9,308.4,577.8z M323.8,576.3
		c-1.1,0.1-2.7-0.3-2.9,0.7C322,577,323.6,577.3,323.8,576.3z M290.1,577.8C286.3,579.6,292.6,579.7,290.1,577.8L290.1,577.8z
		 M291.5,581.5c1.3-0.4,3-0.4,3.7-1.5c-1.5-0.2-1.4-2-2.9-2.2C292.5,579.5,292.1,580.6,291.5,581.5z M298.1,579.3
		C296.4,581.8,300.6,577.5,298.1,579.3L298.1,579.3z M286.4,582.2c0.9,1,3.6,1.1,3.7-0.7c-1.5-0.2-1.4-2-2.9-2.2
		C287.3,580.7,286.3,580.9,286.4,582.2z M262.2,601.3c-0.8-2.8,0.5-9.7,0-14.7c-11.8,2.3-5.3,17.8-6.6,30.8
		c-0.5,4.8-3.3,6.5-0.7,9.5c3.6-10.5,4.1-19.9,5.1-32.3C259.9,597.3,260.7,602.8,262.2,601.3z M290.1,599.8
		c-12.9,3.9-21.7,28.7-13.2,36.7c-0.7-0.6-2.5-3.8-0.7-4.4c1.1,2.8,1.2,6.7,3.7,8.1c-0.3-2.6-3.3-6.5-2.2-8.1
		c2.5,2.7,2,8.3,5.1,10.3c-8.8-17.4,0.8-38.2,19.8-41.9c-4.2-2-8.6,1.5-11.7,2.9c-0.3-1.8,4.6-2.2,2.2-3.7c-1.4,1-3.2,1.7-5.1,2.2
		C287.6,600.4,290,601.2,290.1,599.8z M406.1,600.6C406.9,603.5,406.9,597.7,406.1,600.6L406.1,600.6z M397.3,603.5
		c1.6,0.3,4.1-2.2,2.2-2.9C399.3,602.1,397.5,602,397.3,603.5z M394.3,604.3c0.7-1.3,2.7-1.2,2.9-2.9
		C396,601.6,392.9,603.7,394.3,604.3z M400.2,603.5C403.8,602.5,401.4,600.1,400.2,603.5L400.2,603.5z M389.2,605.7
		c2.4-0.3,3.2-2.2,4.4-3.7C390.3,601.5,390.6,604.5,389.2,605.7z M308.4,605.7c1-2.3-2.1-4.2-2.9-2.2
		C307.4,603.3,306.1,606.4,308.4,605.7z M381.9,606.5c2.9,0.7,6-2.2,4.4-3.7C385.2,604.4,382.3,604.2,381.9,606.5z M305.5,607.2
		c0.1-2.1,0.1-4-2.2-3.7C303.5,605.2,304,606.7,305.5,607.2z M309.9,604.3C310.7,607.2,310.7,601.4,309.9,604.3L309.9,604.3z
		 M312.8,604.3c0-0.7-1.3-0.9-1.5,0C312.2,604.2,312.5,605.3,312.8,604.3z M301.8,614.5c-1.3-2.9-1.1-11.1-4.4-9.5
		C299.8,607.3,299.2,612.5,301.8,614.5z M316.5,612.3c-0.4-3-1.4-5.4-2.9-7.3C314,608,315,610.4,316.5,612.3z M387,605.7
		C387.8,608.6,387.8,602.8,387,605.7L387,605.7z M301.1,606.5C302.9,610.2,303,603.9,301.1,606.5L301.1,606.5z M310.6,613.8
		c0.2-3.9,1-5.8-1.5-8.1C309,609,309.2,612,310.6,613.8z M365,610.9c3.4,0.4,5.6-4.1,5.1-5.1C369,608.1,365.5,608,365,610.9z
		 M297.4,610.1c-0.4-1.3-0.4-3-1.5-3.7C295.9,607.8,296.8,611.8,297.4,610.1z M307.7,616c-0.3-3.4,0.9-8.3-1.5-9.5
		C306.1,610.2,306.3,613.7,307.7,616z M316.5,607.2C318.4,611.1,315.1,604.4,316.5,607.2L316.5,607.2z M304.7,615.3
		c-0.5-2.7,1.2-7.6-1.5-8.1C304.2,611,301.2,615.1,304.7,615.3z M312.1,607.9C310.6,614.4,312.6,605.8,312.1,607.9L312.1,607.9z
		 M370.8,607.9C371.9,610.4,372.7,605.1,370.8,607.9L370.8,607.9z M295.9,613.1c0-2-1.5-6.3-2.9-4.4
		C294.3,609.8,293.6,613,295.9,613.1z M356.9,612.3c0.5-1.7,2.4-2,2.9-3.7C357.8,608.4,355.7,611.8,356.9,612.3z M293,610.9
		c-1,0-0.7-1.3-1.5-1.5C290.7,610.9,292.7,612.9,293,610.9z M347.3,615.3c2.9-0.8,7-4.2,6.6-5.9
		C352.1,611.7,348.4,612.2,347.3,615.3z M345.9,614.5c1-1,4.5-3.2,2.9-4.4C347.7,611,343,612.1,345.9,614.5z M294.5,657.9
		c23.9,0.7,27.2-25.1,23.5-45.5c0,3.9-0.3,7.5-1.5,10.3c-0.1-5.1-0.6-9.7-2.9-12.5c-1.4,5.2,1.4,8.2-2.2,8.1
		c4.2,6.4,1.2,17.3-2.2,24.2c-7.1,4.9-15.8,8.2-22.8,13.2c6,5.2,13.6-2.9,18.4-2.9C301.4,654.5,297.8,656,294.5,657.9z M311.4,613.1
		c0,1.3-2,4.3,0,5.1C312,617.6,312.9,613.5,311.4,613.1z M296.7,647.6c-6.4,0-8.3,3.5-11.9,5.3C286,654.1,293.3,650.5,296.7,647.6z
		 M298.9,612.3C298.3,616.7,299.3,609.4,298.9,612.3L298.9,612.3z M342.9,612.3C343.8,615.2,343.8,609.4,342.9,612.3L342.9,612.3z
		 M305.3,616.7c-10.3-2.8-17.7-4.2-19.5-1.7c4.5,1.3,11.3,3.2,17.3,5.1C303,619.1,304.3,618,305.3,616.7z M309.9,616.7
		c-0.1-1.9-0.4-3.5-1.5-4.4C308.9,613.8,307.2,617.4,309.9,616.7z M336.3,615.3c-0.1-1,3-2.2,0.7-2.9
		C336.7,612.8,334.1,614.5,336.3,615.3z M351,614.5c1.9-0.1,3.8-0.1,3.7-2.2C352.8,612.4,352.1,613.7,351,614.5z M316.5,613.8
		C315,620.2,317,611.7,316.5,613.8L316.5,613.8z M305.5,614.5C304.9,618.9,305.9,611.6,305.5,614.5L305.5,614.5z M329.7,616.7
		c1.5,0,2.9,0,4.4,0c0-0.7,0-1.5,0-2.2C331.9,614.5,330.4,615.2,329.7,616.7z M338.5,615.3C334.6,617.2,341.3,613.9,338.5,615.3
		L338.5,615.3z M344.4,614.5c-0.6,0.2-1.4,0-1.5,0.7C343.5,615.1,344.4,615.2,344.4,614.5z M259.2,617.5
		C260.1,620.4,260.1,614.6,259.2,617.5L259.2,617.5z M288.6,618.9c-1.4,0.7-2.5-2.2-2.9,0C286.1,619.2,288.5,620.8,288.6,618.9z
		 M294.5,620.4c-1.6,0.1-4.8-2-5.1-0.7C290.7,619.9,293.4,622.3,294.5,620.4z M258.5,620.4C259.3,623.3,259.3,617.5,258.5,620.4
		L258.5,620.4z M297.4,628.5c-5,0.1-10.2-3.5-14.7-1.5c5.8,1,11.6,2.2,16.2,4.4c-0.9,0.1-2.1-0.1-2.2,0.7c0.9,0.1,2.1-0.1,2.2,0.7
		c-5.4-1.2-11.1-2.1-16.9-2.9c3.3,3.2,10.5,2.5,14,3.7c-1.1,0.1-2.7-0.3-2.9,0.7c1.1,0.1,2.7-0.3,2.9,0.7c-4.7,0.3-9.6-3.2-13.2-1.5
		c2.5,0.7,4.6,1.8,6.6,2.9c-2.3,0.4-2.6-1.3-5.1-0.7c-0.2,1.4,0.8,1.6,0.7,2.9c1.3,0.2,3.7-2.1,4.4,0c-0.9,0.2-0.5,0.8,0,1.5
		c-1.3-0.5-2.3-0.8-2.9,0c9.2,15.7,32.1-2.6,22.8-17.6c0.1,1.8-0.4,3-1.5,3.7c-0.1-2.1,0.6-5-1.5-5.1c-0.2,0.6-0.6,0.9-1.5,0.7
		c0.5,1.7,1.9,6.8-0.7,7.3c1.7-1.8,0-3.9,0-5.9c-3.7-0.2-3.5,4.6-3.7,5.9c-0.9-0.1-2.1,0.1-2.2-0.7c2.7,0.7,1-2.9,1.5-4.4
		c-1.5-0.6-4.1-4.1-2.2-2.2C295.7,623.4,295.4,626.6,297.4,628.5z M282.7,624.8c4.3-0.2,8.8,3.4,12.5,1.5
		C291.3,626,286.2,623.1,282.7,624.8z M295.2,624.1c-0.9-0.8-2.6-0.8-4.4-0.7C290.8,625.4,295.4,626.1,295.2,624.1z M287.9,628.5
		c-0.2,2.2,4.8,3,5.9,1.5C291,630.2,289.7,629.1,287.9,628.5z M296.7,630.7C292,629.8,295.1,632.9,296.7,630.7L296.7,630.7z
		 M283.5,621.9c-0.6,0.2-1.4,0-1.5,0.7C282.6,622.4,283.4,622.6,283.5,621.9z M286.4,622.6c-0.9-0.1-1.7-1.3-2.2,0
		C285.1,622.7,285.9,623.9,286.4,622.6z M294.5,621.9c-1.1,0.1-2.7-0.3-2.9,0.7C292.6,622.5,294.2,622.9,294.5,621.9z M248.9,623.3
		C249.8,626.2,249.8,620.4,248.9,623.3L248.9,623.3z M250.4,636.6c4.5-2.1,7.7-9.4,7.3-14C256.5,628.5,253.2,632.2,250.4,636.6z
		 M290.1,624.1c1.2-2-3.2-2-2.9-0.7C288.1,623.6,288.5,624.4,290.1,624.1z M253.3,630.7c-0.7-1.4,2.2-2.5,0-2.9
		C253.1,628.2,251.5,630.6,253.3,630.7z M281.2,629.2c0.5,0,1,0,1.5,0c0-0.5,0-1,0-1.5c-0.5,0-1,0-1.5,0
		C281.2,628.2,281.2,628.7,281.2,629.2z M246.7,638c-0.4-1.1,2.5-5.8,1.5-4.4C247,633.9,244.9,637.1,246.7,638z M275.4,638.8
		C276.2,641.7,276.2,635.9,275.4,638.8L275.4,638.8z M243.8,641c0,0.5,0,1,0,1.5c0.5,0,1,0,1.5,0C245.2,641.5,245,640.7,243.8,641z
		 M251.1,643.9c-1.8-1.9-2.6-4.8-5.9-5.1C244.7,642.5,249.7,644.6,251.1,643.9z M242.3,640.2C240.3,642.5,244.6,638.2,242.3,640.2
		L242.3,640.2z M279,641.7C280.1,644.1,280.9,638.8,279,641.7L279,641.7z M285.7,643.9c0-1.3-0.6-1.9-1.5-2.2
		C284.1,643,284.8,643.6,285.7,643.9z M221,645.4C221.9,648.3,221.9,642.5,221,645.4L221,645.4z M277.6,646.1c0.5,0,1,0,1.5,0
		c0-0.5,0-1,0-1.5c-0.5,0-1,0-1.5,0C277.6,645.1,277.6,645.6,277.6,646.1z M279.8,646.1c0.5,0,1,0,1.5,0c0-0.5,0-1,0-1.5
		c-0.5,0-1,0-1.5,0C279.8,645.1,279.8,645.6,279.8,646.1z M282,649c2.2,1.1,1.9-3.8,0.7-3.7C282.1,646.2,281.7,647.3,282,649z
		 M284.9,648.3c0.1-1.4,2.4-0.5,2.2-2.2C285.8,643.8,283,647.6,284.9,648.3z M279.8,647.6C281.6,650.4,280.9,645.1,279.8,647.6
		L279.8,647.6z M287.9,649.8c0.1-1.9,2.9-1,2.9-2.9c-1,0-2,0-2.9,0C288.6,648.2,285.7,649.3,287.9,649.8z M220.3,649.8
		C221.2,652.7,221.2,646.9,220.3,649.8L220.3,649.8z M279,654.2c0.1-3.1-4.1-5.6-5.9-4.4C274.9,651.5,276.3,653.5,279,654.2z
		 M284.2,652c0.4-0.5,3-2.2,0.7-2.9C285,650,281.9,651.3,284.2,652z M219.6,652C220.4,654.9,220.4,649.1,219.6,652L219.6,652z
		 M185.1,649.8c4.3-3.1,12.6-9.8,13.2-11.7C194.2,641.8,186.7,646,185.1,649.8z"/>
	<path class="st0" d="M370.1,538.2c-0.1,1-0.1,2.1,0.7,2.2c-0.5,1.5-3.7,0.2-2.9,2.9c0.8,2.5,0.2-2,2.2-0.7
		c-0.3,1.7-0.5,3.4-2.9,2.9c-1.6-1.6-0.4-4.1,0.7-5.1c-3.2,0.3-11.3-1.2-15.4,1.5c2.5,3,6.3-3,8.8,0c-3.6,3.6-9.2,0.7-12.5,4.4
		c1.8-2-0.8-4.1,0-7.3c1.9-0.2,1.9,1.5,2.2,2.9C356.4,537.3,364.3,540.4,370.1,538.2z M350.3,543.3
		C351.1,546.2,351.1,540.4,350.3,543.3L350.3,543.3z"/>
	<path class="st0" d="M221.8,614.5c-0.4,0.4-22.1,3.2-11.7,0c1.4-0.4,4.4-1.4,5.9-1.5C216,613.1,223.5,613,221.8,614.5z"/>
	<path class="st0" d="M121.2,684.3c-0.1-0.9-1.3-0.6-2.2-0.7c13.9-7.5,29.8-10.3,40.4-19.8c-1.1,4.3-3.9,13.2-7.3,17.6
		c-0.1-3.3,3.8-8.9,5.1-13.2c-5.1,1.8-4.2,9.5-7.3,13.2c-1.1-2.4,2.3-6.5,2.9-9.5c-4.6-0.4-5,9.6-9.5,11.7c1.7-2.9,3.2-6.1,4.4-9.5
		c-2.9,0.8-3.6,3.7-5.1,5.9c-1.5-0.6,1.3-3,1.5-4.4c-10.6,1.4-17,13.4-26.4,18.4c5.5,2.6,11.5-6.5,16.2-9.5
		c-4.2,4.9-10.2,14.2-22.8,13.2c4.8,6.2,13.5,13.9,18.1,15.7c4.3,1.5,12.9,2.6,16.4,1.9c6.6-1.3-7.1,1.5-11.7,0.7
		c12.7,6.5,29.8,7.8,45.9,4.6c-1.8-0.4-2.6-1.4-4-2.9c-2.8-4.2-4.3-11.2-5.1-15.9c2.3,4.3,4.5,11.2,5.9,13.9
		c6.8,6.9,11.9,4.5,20.8,1.5c5-1.6,10.5-2.7,16.6-4.1c12.2-2.9,23.4-6.9,33.8-9.5c2.7-0.7,7.3-0.8,9.6-1.5c2.6-0.9,5-2.3,7.7-3.5
		c2.7-1.1,4.9-1.7,7.8-2.4c23.5-5.9,71.6-24.6,75.6-22.8c-19.4,6.8-48.9,15.5-69.8,22.8c-24.3,14.8-50.6,27.7-75.6,41.9
		c21.5-16.2,49-26.4,72-41.1c-30.5,10.6-64.1,18.1-96.9,26.4c8,4.5,18.8,7,24.4,14c-8.3-4.9-17.8-9.6-26.6-14
		c-30.4,2.6-53.8-7.1-66.1-25c-3,1.4-6.7,0.3-8.8,0c4.9-3.4,10.2-6.4,15.4-9.5c-9.7,1.9-17.5,11.3-28.6,8.8
		c-2.8-1.4-5.2-3.1-9.5-2.9c5.5-3.5,13.3-4.8,19.1-8.1c-4.5-4.8-11.5-7.1-16.2-11.7c-2.4,0-5.8,1.7-8.9,1.1
		c-0.4-2.6,5.2-1.9,7.4-1.9c-1.4-1.7-4.5-1.7-6.6-0.7c0.3-1,1.3-1.2,1.5-2.2c-7-3.3-13.7-10-21.9-14.1c0,0-6.3,8-13.4,8.9
		c-2.3,0.3-2.6-1.2-4.4-1.5c-2.9-0.4-2.3,4.8-5.1,2.2c-0.2-1.9,1.5-1.9,2.9-2.2c0.2-2.2-2.9-2.7,0-3.7c-0.5-1.9-3.4-1.4-4.4-2.9
		c0.8-4.1,1-1.3-1-3.2c0.1-6.2,2.2-11.7,4.5-15.8c-7.6-11-20.3-18.5-30-27.4c12,6.1,20.7,17.3,30.5,25.6c2.9-4.9,6.5-9.4,12-11.7
		c-6.4-6.8-13.2-14.4-18.1-22.6c-8.6,3.6-20.2,4-25.7,8.1c4.7-6.6,17.2-5.3,25-8.8c-2.7-6.4-8.3-9.8-11.7-15.4
		c-0.2-1.4-1.4-1.3-0.7-4.4c6.1,0.5,16.3-0.7,22.8-2.2c-3.9,5.1-13.6,2.4-19.8,3.7c5.2,9.9,12.3,18,17.6,29.4
		c5.6,2.5,8.7,10.6,16.2,15.4c8.8-5.2,9.4,10,14.7,13.2c4.4-6.9,9.2-13.3,13.2-20.6c-0.7,7.6-8.8,14.2-11.7,22
		c7.5,5.7,8.2,18.2,21.3,18.4c1.3-1.6,2.4-3.5,4.4-4.4c1.5,1.5-0.3,1.4-0.7,2.9c11.4,2,23.3-1.6,32.3-4.4c4-5.4,16-12.3,14.2-22.5
		c-1.4-7.7-13.7-13.9-16.4-21.6c-6.3,1.7-19.9-3.2-27.2,2.2c0.3,1.4,0.3,1,2.2,2.9c-2.7-0.3-3.5-2.4-5.1-3.7
		c-6.3-0.6-7.8,2.6-11.5,6.3c4-6.6,4.7-7.4,5.9-7.4c3.2,0,7.2-0.1,8.6-1.9c-1.7-1.7-6.6-0.3-9.5-0.7c0.4-3.3,3.9,0.4,5.1-1.5
		c0-3-6,1.5-5.1-3.7c2.3,1.2,6.4,0.4,6.6,3.7c0.6-1.2,2.4-4,2.2,0c5.7-4-5-1.6-5.1-4.4c7.7,0.6,16,0,22-2.9
		c-11.6,0.6-21.1,3.3-33-0.7c1.2,2.2,5.1,1.8,7.3,2.9c-0.7,4-3.9,0.9-4.4,5.1c-2.8-0.6,0-2.6-1.5-3.7c-0.5-1.7-2.8-1.6-2.9-3.7
		c-17.5-1.5-26.3-10-29.9-20.8c-3.9-0.6-6.2,1.8-9,0.3c2.3-1.1,5.4-1.4,8.8-1.5c-0.7-2.8-0.2-4.7,1.7-6c-2.7,0.3-3.3-15.6,4.1-19
		c0.4-1.8-0.6-2.5-1-3.8c7.8-9.2,12.5-18.4,27.8-15.3c-7.1-0.1-16.4,3.8-22.3,11c0.2,3.1-7.1,4.3-1.5,7.3
		c-7.9,3.2-10.7,15.1-3.7,20.6c-7.6,2.2,1.7,8.4,0.7,13.2c2,1.1,3.6,2.5,5.9,1.5c1.9,3.5,3.8,7,7.3,8.8c1.8-1.8-3.1-3.2-2.9-5.9
		c1.9,1.8,4.2,6.6,8.8,7.3c-1.3-3.3-4.2-6-6.2-8.7c1.8,0.8,3.4,3.3,4.7,4.3c-0.1-4.6,4.6,3.1,5.9,5.9c1.5-0.2,1.4-2,2.9-2.2
		c-1.9,0.6-2.9-2.6-4.4-4.4c1.3-2,2,2.9,3.7,2.9c-2.3-5.9,17.8-6.6,25-5.1c-3.2,1.7-9.5,0.3-14,0.7c1.3,1.7,5.6,0.3,8.1,0.7
		c-2.5,1-9.5,4-11.8,0c-2.2-0.5-2.2,1.3-4.4,0.7c-1.8,3.1,2,2.9,0,5.1c9.1,3.8,30.6,0,29.6-3.1c-0.2-0.8-1-1.4-2.4-1.3
		c-3.7,4.6-20,5.1-25,1.5c2.6,0.6,23.4,3.5,21.6-4.2c2.3,0.1,5.4,0.8,7.5,1.9c0.2,3.5,0.4,4.1,1,8.2c-2.8,0.4-4.1,2.3-7.3,2.2
		c3,2.2,4.9-1,7.7-1.5c6,2.8,7.1,4.2,10.5,7.4c3.7,8.2,19.6,17.7,15.4,29.2c-1.5,3.7-5.5,12.3-10,17c-0.5,0.6-1.1,1.1-2.6,2.2
		c-2.2,0.5-2.1,0.3-3.3,2.9c-9,1.7-21.1,4.3-35.2,4.4c-3.3,7.8,7.4,13.2,11,20.6c19.7-8.3,35.8-18,54.6-28.4
		c-13,9.5-27.2,17.8-42.1,25.4c-8.9-0.2-14.1,9.2-23,9c2.4,2.3,9-2,11.9-1.6c0,0.7-0.9,0.6-1.5,0.7
		C105.6,691.1,115.3,684.6,121.2,684.3z M70.5,596.2c0-1.3-0.6-1.9-1.5-2.2C69,595.2,69.6,595.9,70.5,596.2z M130,682.1
		c-6.4,3.2-13.8,9.2-16.9,13.2C119.5,691.7,125.1,687.3,130,682.1z M106.5,696.8c4.8-3.3,12.9-7.1,14.7-11
		C116.7,689.9,110.6,692.3,106.5,696.8z M58.7,641.7c-0.6,1.4-1.3,5-1.5,6.8c4,2.1,1.4,6.4-0.7,8.7c9.1,4.3,15.9,13.3,25.7,14.7
		c-1.2,0.1-2.5-0.1-2.2,1.5c5.2,0.7,6.5,5.3,11,6.6c-1.7-3.5-3.9-6.4-7.3-8.1c-0.5-2,1.5-1.5,1.5-2.9c-2.6,1.8-4.5,1.1-4.2,1.1
		c0.3-1.4,3.6-2.2,3.5-4.1c-0.6-1.6-4.7,0.3-5.1-1.5c0.5-1-1.4-0.6-0.5-2.9C69.8,657.1,67.7,646.2,58.7,641.7z M58,592.5
		c-1.3-0.7-1.2-2.7-2.9-2.9C54.9,591.2,57.6,593.8,58,592.5z M116.8,608.7c0,1.2-2,0.4-2.2,1.5c2.3,0.4,2.9-1.6,4.4,0
		c-1.5-3.1-5.1-4.2-7.3-6.6c0,8.1-13.2,2.9-16.9,7.3C102.2,610.7,110.7,607.7,116.8,608.7z M109.4,605c-0.6,0.2-1.4,0-1.5,0.7
		C108.5,605.6,109.4,605.7,109.4,605z M96.2,606.5c1.6,3.2,8.9,0.3,11-0.7C102.2,606.2,100.6,605.6,96.2,606.5z M44.1,629.2
		c1.3-0.1,2.3,0.2,2.9,0.7c0.2-1.7-0.2-2.8-1.5-2.9C45.4,628.1,44.3,628.3,44.1,629.2z M44.8,627c-9.1,2.7-14.4,16.9-14,24.2
		c2.7-2.5,2.8,0,3.6-0.5c-0.5-2,4.7-15.8,11.9-19.3c-4.7-1.4-12.1,10.3-13.3,15.5C32.9,641.8,40.9,630.2,44.8,627z M46.3,646.1
		c1.4-1.5,1-4.9,3.7-5.1c-0.4,0.4-1.7,3.5,0,3.7c0.9-4.6,4.6-10.1,0-13.2c0.2,3.6-0.5,6.4-2.2,8.1c0.9-3,0.4-7.4,1.5-10.3
		c-2,11.3-6.2,22.5-16.8,26.9c-0.8-0.3-1.1,0-2.3-1.9c-0.3,2-0.8,2.7,1.5,3.7c2.4-0.2,3.1-1.5,7.3-3.9c4.3-4,6.9-8.8,8.9-13.7
		C48.8,643.3,44.2,644.4,46.3,646.1z M38.2,660.8c9,3.3,24.8-19.8,15.4-28.6C52.9,646.2,47.2,655.2,38.2,660.8z M33.1,653.9
		c7.4-3.8,14.4-16.1,13.4-21.2C44.6,639.9,40.4,648.5,33.1,653.9z M134.4,643.2C132.3,646.8,135.8,640.8,134.4,643.2L134.4,643.2z
		 M53.5,655.2c2.6,1.1,4.6-3.7,2.6-4.8C55.4,652.9,54.4,654.4,53.5,655.2z M34.5,662.3c0-0.7-1.3-0.9-1.5,0
		C33.9,662.2,34.2,663.3,34.5,662.3z M36.7,663.7C40.3,665.8,34.3,662.4,36.7,663.7L36.7,663.7z M132.2,679.2
		C128.3,681.1,135,677.8,132.2,679.2L132.2,679.2z M95.5,694.6c2.6,0.2,4.4-0.5,5.1-2.2C99.4,693.6,95.2,691.9,95.5,694.6z
		 M88.9,695.3c1.3,0,1.9-0.6,2.2-1.5C89.8,693.8,89.2,694.4,88.9,695.3z"/>
	<path class="st0" d="M143.2,633.6c6.2-1.8,10.1,5.1,15.4,6.6c4.6-3.2,10-5.6,16.2-7.3c2.5-3,3.8-9.9,2.9-14
		c-1.5-1.2-4.6-0.8-6.6-1.5c0.5,2.4,5.1,0.8,5.9,2.9c-2.1,2.3-5.3-0.5-7.3-0.7c1.2,2.4,5.4,1.9,7.3,3.7c-6.7-0.7-13.7-0.2-17.6-6.6
		c-1.8,0.1-0.2,2.4,0.7,2.2c-9.3-1.2-21-4.3-32.3-4.4c-1.6-3.8-3.7-7.1-6.6-9.5c3.9-1.5,3.5,7.7,9.5,6.6c1.7-1.5-3.4-2.4-2.9-5.1
		c3.3,2.6,5.5,6.3,10.3,7.3c-1.4-2.8-3.3-5-5.1-7.3c3.8-0.6,4.4,8.4,10.3,8.1c0.3-1.6-3.4-5.4-5.1-7.3c3.1-0.1,7.1,7.3,9.5,8.1
		c0.4-1.4-3.2-5.1-4.4-7.3c3,0.3,5.4,7.7,8.8,8.1c0.6-2-3.3-5.9-5.1-8.1c2-1.5,3.6,3.7,5.1,5.1c-1.9-3.2-2.2-9.7-5.9-13.2
		c0.1-5.8,1.2-10.6,2.9-14.7c-1.9-5.2-9.7-4.5-12.5-8.8c5.7,2.6,12.2,4.5,15.4,9.5c1.5-1.4,1.3-2.6,0.7-4.4c2.5,0.4,1.1,3.5,0.7,5.1
		c6.3-3.2,11.1-8,12.5-16.2c-5.1-0.4-7.9,7.7-11,11.7c1.1-2.1,1.5-4.8,2.2-7.3c-6.8-0.1-12.6-2.8-16.9-7.3c0.8-2.2,2.1,1.2,2.9,1.5
		c0.9-1.2-2.8-4.1-2.2-7.3c2.9,0,5.9,0,8.8,0c-17.9-11.7-53-15.1-69.8-27.2c14.5,6.2,33.2,15.3,48.5,14c-3-4-3.7-10.6-0.7-15.4
		c3,1.9,2.8-0.9,5.1-1.5c0,1.2,0,2.4,0,3.7c4,1.5,8.1-0.4,10.3,0c-0.8,2.3-4.6,1.7-5.1,4.4c-0.5,14.5,14.8,16.1,27.9,14.7
		c-3.7-3-7.4-17.1-2.8-20.6c-1.4,4.7,0.3,13.4,3.5,19.1c2.1,0.2,2.3-1.7,4.4-1.5c0.4-2.8-1.3-3.6-0.7-6.6c-2.6,2.9,0.2,4.2-0.7,6.6
		c-3.6-4.3-4.5-12.5-3.7-19.1c1.7,1.3,0.3,5.6,0.7,8.1c2.4-2.5,0.8-8.9,2.9-11.8c2,1.2-2.1,5.1,0,6.6c0.6-1.6,3-8.3,1.5-7.3
		c-2.4-1.5,3.3-1,2.9-2.9c-4.8,7.3-3.7,21.2,2.2,27.9c1.5-1.7-1.2-5.7-2.2-7.3c2.5-3.6,0.4-10.6,2.9-15.4c0.6,7.7-3.6,20.7,3.7,25
		c-2.7-6.2-1.7-14.8,0-22c1.7,6.4-3.5,15.5,1.5,21.3c1.8-6.5-0.2-16.8,1.5-23.5c2.3,7.4-1.3,17.7,1.5,23.5c2.7-3-0.8-13.8,1.5-19.1
		c2.6,7.3-2.8,15.6,2.9,19.8c1.8-2.8-1.7-8.8,0-11.7c-0.5-3.4,0.7-11.1,0.7-3.7c0.1,5.1-0.4,10.7,0.7,14.7c1.3,0.1,1.5-0.9,2.9-0.7
		c-0.7-4.9-1.7-13.1,0.7-16.9c0.2,2.9-0.2,11.6,0,16.9c2.6-0.8,0.3-8.3,2.2-11.8c1.8,2.6-1,6.8,0,11c3.2-2.2,1.9-8.8,2.2-14
		c3,3-0.1,7.5,0.7,12.5c4.2-1.9,1.8-5.9,2.9-10.3c1.7,1.5,0.3,6.1,0.7,8.8c3.6,0.5,3-3.4,2.9-6.6c2.9-0.5-0.4,2.8,0.7,5.1
		c1,2.9,4.8,3,5.1,6.6c-1-1.2-3.5-0.9-2.9-3.7c-2,1.9,0.1,5.7,3.7,4.4c1,3.2,0.7,5.7-0.7,8.1c-9.4,0.4-18.6-1.2-24.2-8.1
		c-2.3,0.6-7.6-1.7-6.6,2.2c1.2,1.6,2-2.9,4.4-0.7c0.5,2-1.5,1.5-1.5,2.9c0.5,1.3,3.1-1.3,2.9-2.9c2.7,0.6,0.2,2.6-0.7,3.7
		c0.9,2.1,1.5-2.3,3.7-1.5c1,8.8,6.7,12.9,16.2,13.2c4.7-3.3,10.5-5.6,9.5-14.7c2.4,4.2-1.8,10.9,0.7,15.4c1.7-2.2,0.3-7.6,0.7-11
		c-0.2-7.2,1.3-2.3,0.7,2.2c0.6,1.8,1,3.9,0.7,6.6c0.9,1.1,0.6,3.3,2.9,2.9c0.8-3.3-3-17.2,2.2-16.9c-2.9,3.6-1.7,14.6,0.7,17.6
		c1.4-4.1-1.4-10.9,1.5-17.6c-2.4-4.2-8.7-4.5-10.3-9.5c-6.3-4.7-13.6-8.4-19.8-13.2c-0.8-0.1-0.4-0.7,0-0.7
		c19.4,11.4,35,26.7,55.8,36.7c-0.1,2,1.2,1.5,0,2.9c1.8,1.4,3.1,3.3,6.6,2.9c-4.4,2.6-7.9-1.8-8.8-5.1c-6.1-1.7-9.3-6.3-14.7-8.8
		c-1.7,3-0.3,9-0.7,13.2c1.1,3.1,6.5,1.9,9.5,2.9c1.7-0.5-1.1-6.6,2.2-7.3c-0.1,2.3-2.6,8.1,1.5,8.1c1.8-0.7-3-3-0.7-4.4
		c2.6,4.2,8.4,4.1,13.2,4.4c-10.2,4.8-27.4-0.1-38.2-1.5c-1.9,0-0.9-0.5-0.7-1.5c-3.3,3.7-8.3-3.3-8.8,0c-2.2-0.7-0.9-1.2,0-2.2
		c-2.9-2.9-7.4,2.7-14,0.7c-2-2.4-4.1-4.7-5.9-7.3c2.7,19.5-13.9,28.7-13.2,46.3c-1.7-1-5.1-0.3-6.6-1.5c1.1,1,6,4.7,5.9,2.2
		c0.6,2.5,0.6,5.7,2.2,8.8c2.4-1.7-1.6-3.3-0.7-5.9c2.6,1.1,2.1,5.2,4.4,6.6c2.1-1-1.3-2.5-0.7-4.4c2,1.4,2.7,4.1,4.4,5.9
		c2.4-1.3-1.9-1.9-0.7-4.4c1.5,0.7,2,3.7,4.5,3.3c-13.6,12.4-26.6,20.4-38.3,31.9c6.8-10.6,22.3-18.8,32.3-28.6
		c-1.4-1.3-3-2.4-5.9-2.2c-1.1,1.8-1.4,4.5-1.5,7.3c-7.6,2.4-13.7,6.3-21.3,8.8C155.5,638.9,148.3,635.5,143.2,633.6z M171.8,547.7
		c-1,2.1,1.3,4.4,2.2,2.2C172.6,549.8,173.5,547.5,171.8,547.7z M211.5,556.5c-2.2-0.5-2.7,0.8-4.4,0.7c0.2,1.7,1.2,2.8,0.7,5.1
		c1.5,0,2.9,0,4.4,0C212.7,559.7,211,559.2,211.5,556.5z M130.7,534.5c-1,0-2,0-2.9,0C127.6,536.9,131.2,537.4,130.7,534.5z
		 M138.1,536.7c-2.7,0.9-5.8-1.5-6.6,0C132.8,537.8,137.9,540.9,138.1,536.7z M129.2,537.4C126.3,534.8,127.5,539.8,129.2,537.4
		L129.2,537.4z M127,539.6c0.4,1.3,10.8,0.9,10.3,2.2C136,537.9,127.1,539.9,127,539.6z M168.9,539.6
		C169.7,542.5,169.7,536.7,168.9,539.6L168.9,539.6z M137.3,542.6c-3.7,0.1-5.8-1.5-9.5-1.5C128.8,543.3,135.3,543.8,137.3,542.6z
		 M168.2,542.6c0-0.4-0.1-0.9-0.7-0.7c-0.1,1.3,0.7,1.7,2.2,1.5c-0.1-0.9,0.1-2.1-0.7-2.2C168.7,541.7,168.9,542.6,168.2,542.6z
		 M128.5,546.2c2.6-0.4,9.3-0.5,8.8-1.5c-3.4-0.3-6.8-0.5-9.5-1.5C127.6,544.7,128.6,544.9,128.5,546.2z M168.2,545.5
		C167.5,549.9,168.6,542.6,168.2,545.5L168.2,545.5z M130,548.4c2,2.8,4-0.7,8.1,0C138.6,544.9,131.2,547.1,130,548.4z M163,555.8
		c-7.2-0.1-20.4-0.1-23.5-6.6c-2.2,1-5.9,0.5-7.3,2.2c1.8,3.5,5.6-1.7,8.1,0.7c-1.2,1-3.8,0.6-4.4,2.2
		C143.1,553.1,151.1,559.8,163,555.8z M125.6,551.4c2.4-0.8,4.5,2.2,5.9,0C129.7,551,126.1,548.6,125.6,551.4z M204.9,556.5
		c-0.4-1.8,0.9-5.3-0.7-5.9C203.7,552.4,203,555.8,204.9,556.5z M176.2,563.1c7.1-2.4,1.9-10.1-2.9-11c0.6,4.5-2.3-1.6-3.7,2.2
		c4.2,0.5,0.9,4,4.4,5.1c0.2-0.8,3.2-2.5,3.7-0.7c-0.9,1-3.6,0.3-3.7,2.2c2,0.4,3.7-3,5.1-0.7C178.4,561,173.9,561.7,176.2,563.1z
		 M200.5,557.3c2.4,0.9,1.8-5,0.7-5.1C200.4,554.6,201.4,554.6,200.5,557.3z M208.6,555.1c-0.6,0.2-1.4,0-1.5,0.7
		C207.7,555.6,208.5,555.8,208.6,555.1z M191.7,555.8c-0.6,0.2-1.4,0-1.5,0.7C190.8,556.4,191.6,556.5,191.7,555.8z M193.9,556.5
		C194.7,559.4,194.7,553.6,193.9,556.5L193.9,556.5z M198.3,556.5C197.6,560.9,198.7,553.6,198.3,556.5L198.3,556.5z M146.9,556.5
		c-0.9,0.1-2.1-0.1-2.2,0.7C145.5,557.1,146.7,557.4,146.9,556.5z M161.6,558.7c1.9,0.8,4.2-1.5,2.2-2.2
		C164,558.2,161.6,557.3,161.6,558.7z M202.7,559.5c1.1,1.3,1,3.9,4.4,2.9c-0.9-1.3-0.1-4.3-1.5-5.1
		C205.4,558.8,202.4,557.4,202.7,559.5z M171.1,560.9c-0.6-1.8-1.7-3.2-4.4-2.9c-0.9,0.9-0.3,2.8,0.7,3.7
		C167.8,557.4,170.5,562,171.1,560.9z M183.6,558.7C181.6,561,185.8,556.7,183.6,558.7L183.6,558.7z M196.8,560.9
		c1.3-2.8-3.9-2.9-3.7-2.2C194.4,559.4,195.3,560.5,196.8,560.9z M229.8,576.3c-1.4-5.3-0.1-13.5-0.7-17.6c-0.9,0-1-0.9-2.2-0.7
		C226.2,563,224.1,575.4,229.8,576.3z M160.1,558.7C156.2,557.9,159.2,561,160.1,558.7L160.1,558.7z M199.7,561.7
		c0.2-1.9-0.3-3.2-2.2-2.9C197.3,560.6,197.8,561.9,199.7,561.7z M200.5,561.7c0.5,0,1,0,1.5,0c0-1,0-2,0-2.9c-0.5,0-1,0-1.5,0
		C200.5,559.7,200.5,560.7,200.5,561.7z M157.1,559.5c-0.9,0.1-2.1-0.1-2.2,0.7C155.8,560.1,157,560.3,157.1,559.5z M164.5,562.4
		c0.2-0.4,1.8-2.8,0-2.9C164.3,559.9,162.7,562.3,164.5,562.4z M162.3,563.9c-2-1.1,1.3-3-0.7-3.7c-0.2,0.6-0.6,0.9-1.5,0.7
		c0,0.7,0,1.5,0,2.2C162.1,561.8,161.5,566.4,162.3,563.9z M233.5,577.1c-1.5-4.2-0.2-13.1-0.7-16.2c-1,0-1.6-0.3-2.2-0.7
		C231.3,566.1,228.6,575.4,233.5,577.1z M159.3,564.6c-3,0.2-0.4-1.5-0.7-2.9c-0.7,0-1.5,0-2.2,0
		C156.4,563.2,158.1,566.7,159.3,564.6z M149.8,563.1c0.1,1.9,0.1,3.8,2.2,3.7c0.8-0.8,0.3-3.4-0.7-4.4
		C151.1,563,150.7,563.3,149.8,563.1z M155.7,566.1c0.1-2.1,0.1-4-2.2-3.7C152.9,564.9,154.2,565.6,155.7,566.1z M167.4,569.7
		c3.3,1.8,5.4-0.6,8.1-1.5c1.8-0.4,5.3,0.9,5.9-0.7c-2.2,0-4.4,0-6.6,0c-0.6,0.6-5.7,2-5.1-0.7c1.3-0.1,2.3,0.2,2.9,0.7
		c-1.2-2.7,0.2-1.4,1.5-2.9c-1.7,0.2-0.8-2.1-2.2-2.2C170.9,565.4,168,566.4,167.4,569.7z M146.9,569c-0.1-2.4-0.4-4.5-1.5-5.9
		C144.2,564.5,144.2,569.3,146.9,569z M149.1,567.5c0-1.9,0.4-4.3-1.5-4.4C147.4,565.2,147.8,566.9,149.1,567.5z M148.3,571.2
		c8.4,2.8,18.4-2.5,18.4-8.1C163.4,568.6,151.7,565.7,148.3,571.2z M179.9,565.3c1.3-0.1,2.3,0.2,2.9,0.7
		C183.3,563.4,179.8,561.8,179.9,565.3z M177,564.6C178,567,178.8,561.7,177,564.6L177,564.6z M186.5,567.5c1.7-0.2,2.8,0.1,3.7,0.7
		C190.6,565.3,187.2,565.9,186.5,567.5z M190.2,572.7c-3,0.1-0.1,0.5,0,1.5c-1,0.7-2.7,0.7-2.9,2.2c1.5,0.4,2.4,1.5,3.7,2.2
		c0.8-3.8,0-4.5,0-8.8c-1.5-1.3-1.4,0.5-2.9-0.7C187.2,571.7,190.7,570.2,190.2,572.7z M178.4,570.5c-0.6,0.2-1.4,0-1.5,0.7
		C177.5,571,178.4,571.2,178.4,570.5z M183.6,571.2C185.4,574.1,184.7,568.8,183.6,571.2L183.6,571.2z M171.1,572.7
		c-0.7,0-1.5,0-2.2,0c0-0.7,0.6-0.9,0.7-1.5c-1,0-2,0-2.9,0C165.2,574.3,170.7,574,171.1,572.7z M161.6,587.4
		c-2,1.7-5.6-0.5-6.6,0.7c1.4,1,4.2,0.7,5.9,1.5C160.8,588.6,161.2,588,161.6,587.4z M159.3,599.8c-3.7-3.4-6.2,1.8-8.8,0
		c0.1,3.1,5.6,0.7,8.1,1.5c3.8,4.3,3.6,12.5,9.5,14.7c-0.9-14.1,4.9-21.5,12.5-27.2c-2.4,4.7-6.7,7.5-8.8,12.5
		c1.5-0.3,5.4-1.8,6.6,0c-2.4,0-5.2-0.3-5.1,2.2c0.6,2.1,3.6,1.8,5.1,2.9c0.6-4.9,4.1-9.7,6.6-14.7c2.1-4.2,7.7-11,2.2-14
		c-1.2,4.9-3.3,8.6-7.6,10.5c3.8-3.9,6.9-8.2,6.2-14.9C168.2,570.1,162.5,584.7,159.3,599.8z M165.2,577.1c2.6,0.4,3.8-0.6,4.4-2.2
		c-1.3,0.1-2.3-0.2-2.9-0.7C166.3,575.2,165.6,576,165.2,577.1z M164.5,579.3C165.6,581.7,166.3,576.4,164.5,579.3L164.5,579.3z
		 M160.8,583.7c1.4-0.3,3.2-0.3,2.9-2.2C162.4,581.8,160.6,581.8,160.8,583.7z M161.6,585.2c-1.3,0.1-2.3-0.2-2.9-0.7
		C157.4,586.5,161.8,586.5,161.6,585.2z M149.8,588.8c0.2-2.9,2.3,0.5,2.9-1.5c-1.5-0.2-2-1.5-2.9-2.2
		C150.8,587,147.6,588.2,149.8,588.8z M152.7,594c0.2-0.6,0-1.4,0.7-1.5c-0.6,3.3,3.2,2.2,5.1,2.9c-0.4-2.4,0.5-3.4,0.7-5.1
		c-1.1-0.1-4.5-1.7-6.6,0c2.7,0,3.3,2.1,5.1,2.9c-2.3,0.1-3.5-0.9-5.1-1.5C152.6,592.6,151.4,593.4,152.7,594z M150.5,592.5
		C151.4,595.4,151.4,589.6,150.5,592.5L150.5,592.5z M150.5,595.4C149.9,599.8,151,592.5,150.5,595.4L150.5,595.4z M152.7,597.6
		c0.8-2.6,4.8,1.4,5.1-0.7C156.2,595.9,150.2,594.8,152.7,597.6z M171.1,603.5C171.9,606.4,171.9,600.6,171.1,603.5L171.1,603.5z
		 M152,605.7c1.5,1.5,7.4,1,7.3-1.5C157.1,605,151.9,602.7,152,605.7z M171.1,615.3c-2.8-4.2,0.6-8.6,6.6-8.1
		c-4.7-2.9-4.3,1.4-7.3-1.5C170,607.7,168.3,617.1,171.1,615.3z M152.7,607.9C154.6,610.8,153.8,605.5,152.7,607.9L152.7,607.9z
		 M157.1,608.7c1.1-0.4,3.8,0.9,3.7-0.7C159.7,606.8,157.8,607.4,157.1,608.7z M162.3,612.3c-2.9-1-7.2-0.6-8.8-2.9
		C153.5,612.9,159.6,614.1,162.3,612.3z M177.7,612.3c1.9-4.1-4.8-3.5-5.9-2.2C173.3,611.4,175.9,611.4,177.7,612.3z M177,617.5
		c0.5-2-3.7-3.1-4.4-1.5C174.3,616.2,175.6,616.9,177,617.5z M164.5,616.7c-0.4-0.4-3.5-1.7-3.7,0
		C161.3,617.2,164.3,618.5,164.5,616.7z M166,620.4c0.5,0,1,0,1.5,0c0.4,0,0.9-0.1,0.7-0.7c-1,0-0.7-1.3-1.5-1.5
		C166.7,619.1,165.8,619.2,166,620.4z"/>
	<path class="st0" d="M122.6,696.8c2.3-2.8,5.9-4.3,9.5-5.9c-0.1,3,8-0.2,11.7-0.7C138.6,695.3,128.4,695.9,122.6,696.8z"/>
	<path class="st0" d="M200.5,649.8c-0.6-4.5,3.4-10.8,3.7-16.9c10.9-7.2,14.4-12.4,26.4-20.6c-2.6,4-5.6,7.6-10.3,9.5
		c4.4,32.9-14.7,48.9-38.2,58c20.3-11.1,40.2-24.5,37.5-56.5c-1.7-1.4-8.1,8.8-7.3,5.1C203.5,630.7,204.1,642.4,200.5,649.8z"/>
	<path class="st0" d="M255.5,459.6c1.4-0.4,8.2,0.1,11,0.7C264.5,461.4,258.3,460.3,255.5,459.6z"/>
	<path class="st0" d="M226.6,464.5c0.5,2.9,1.4,8.2,0.5,6.4C225.8,468.2,226.5,464.1,226.6,464.5z"/>
	<path class="st0" d="M293.7,467.7c0.8,0.2,8.5-0.2,9.5,2.2C300.7,468.5,295.7,469.6,293.7,467.7z"/>
	<path class="st0" d="M353.2,472.8c-1.8,1.2-14.7,7.5-20.6,9.5C337.9,479.3,346.6,475,353.2,472.8z"/>
	<path class="st0" d="M320.2,522.7c-0.4,1.1-6.9,2.4-9.5,3.7C312.4,523.8,316.6,523.6,320.2,522.7z"/>
	<path class="st0" d="M398.7,502.2c0.7,1.8,3.5,7.7,2.9,13.2C400.1,511.6,399.2,507.1,398.7,502.2z"/>
	<path class="st0" d="M310.6,511.7c2.8-1.6,7-1.8,10.3-2.9C318.3,510.6,314.8,511.5,310.6,511.7z"/>
	<path class="st0" d="M355.4,512.5c-2.2,1.9-9.1,2.5-11.3,4.4C343.5,514.1,352.5,513.8,355.4,512.5z"/>
	<path class="st0" d="M342.9,516.1c-4.1,3-11,3.2-16.2,5.1C329.2,519.5,337,516.9,342.9,516.1z"/>
	<path class="st0" d="M226.2,523.5c5.7,0.2,9.2,8.9,14.7,11.7C235.6,534.6,232.4,525.6,226.2,523.5z"/>
	<path class="st0" d="M174.8,527.9c1.4,0.3-2.7,11.3,0,15.4C171.1,543.4,173.7,531.9,174.8,527.9z"/>
	<path class="st0" d="M178.4,527.9C179.8,525.5,176.4,531.5,178.4,527.9L178.4,527.9z"/>
	<path class="st0" d="M188,533.8C190.2,531.8,186,536,188,533.8L188,533.8z"/>
	<path class="st0" d="M384.1,539.6c1.4,2,4.2-0.6,4.4-2.2c2.4,0.4,1.1,2.8,0.7,4.4c-3.4,0.4-4.4-1-6.6,0c-0.5-2.7,0.5-3.9,1.5-5.1
		c2.1-0.6,1.9,1,3.7,0.7C387.1,539.2,383.6,535.7,384.1,539.6z"/>
	<path class="st0" d="M241.6,538.2c0.6-1.7,2.6,1.3,3.7,1.5C244.7,541.3,242.7,538.4,241.6,538.2z"/>
	<path class="st0" d="M182.8,574.9c-3.5,1.9-5.7,1-11,1.5C174.8,575.2,178.7,574.8,182.8,574.9z"/>
	<path class="st0" d="M262.9,609.4c3.6,7.5,1,20.9-3.7,25C261.2,630.1,265.7,618.5,262.9,609.4z"/>
	<path class="st0" d="M335.6,579.3C335.1,577.1,342.3,578,335.6,579.3L335.6,579.3z"/>
	<path class="st0" d="M355.4,583c-0.1,0.9-1.3,0.6-2.2,0.7c-4.5,0.8-8.6,2.2-13.2,2.9c-1.5,0.8-1.6,0.8-0.7-0.7
		C345.2,585.5,349.1,583,355.4,583z"/>
	<path class="st0" d="M329.7,585.2c-7.9,2.2-16.1,4-25,5.1C311.9,587.4,321.2,586.7,329.7,585.2z"/>
	<path class="st0" d="M312.1,591c7.8-1.5,15.3-3.3,24.2-3.7C328.7,588.6,319.2,591.7,312.1,591z"/>
	<path class="st0" d="M388.5,594c-6.7,2.6-15.5,3.1-23.5,4.4C371.2,595.3,380.8,595.6,388.5,594z"/>
	<path class="st0" d="M74.9,605c1.7-1.6-1.3,2.4-3.7,1.5c1.8,3.1,6.7,3.1,9.5,5.1c0.2,2.4-0.7,3.3-2.3,5.4c2.9-6.1-7.4-6.4-9.5-9.8
		c-3.5,2.6-10.8,11.7-13.7,18.6C57.4,618.3,65.9,603.6,74.9,605z"/>
	<path class="st0" d="M190.9,621.1c0.8,1.2,2.9,2.3,1.5,3.7C191.3,624.2,191.3,622.5,190.9,621.1z"/>
	<path class="st0" d="M301.8,633.6C295.9,631.8,306.7,634.9,301.8,633.6L301.8,633.6z"/>
	<path class="st0" d="M206.3,633.6c2,3.7-1.7,8.1-2.2,11.7C203.3,642.6,206.5,636,206.3,633.6z"/>
	<path class="st0" d="M290.8,637.3c-1.5-1.8,2.6,0.5,4.4,0C294.5,639.4,292.1,637.1,290.8,637.3z"/>
	<path class="st0" d="M321.9,642.5c-1.9-0.7,13.5,1.4,15.9,2.2c6,2,10.1,3.1,20.6,7.3C347.7,648.6,332,644.8,321.9,642.5z"/>
	<path class="st0" d="M300.3,650.5c0-0.7,0.9-0.6,1.5-0.7c-3.1,2.8-7.5,4.2-11,6.6C291.3,654.7,297.2,652,300.3,650.5z"/>
	<path class="st0" d="M174.9,672.4c1.2,2.1-2.5-0.9,0.6-5L174.9,672.4z"/>
	<path class="st0" d="M31.7,673.4c1.7,1.1,15-4.2,16.1,2.5C36.5,671.9,35.3,679.2,31.7,673.4z"/>
	<path class="st0" d="M174,682.8C169.1,686.6,164.6,684.4,174,682.8L174,682.8z"/>
	<path class="st0" d="M237.2,93.2c0.8,2.1,2.1,10.8,3.9,15.2C238,106,237.3,99,237.2,93.2z"/>
	<path class="st0" d="M258.5,220.9c2.8,7.1,4.1,17.9-0.7,23.5c-2.7-0.8-2.7-7.2-2.2-8.8c1.2,0,2.4,0,3.7,0c-1.4,1.6-2,3.9-2.2,6.6
		C262.6,238.2,258.3,225.6,258.5,220.9z"/>
	<path class="st0" d="M257,251.8c-0.8,1.4-0.9,3.5-1.5,5.1c7.1,0,6.4-7.8,11.7-9.5c10,5-2.2,21.3,4.4,30.1c-0.8,2.9-2.5,4.9-5.1,5.9
		c0.9,4.8,2.8,8.5,2.9,14c-2-3.4-4.9-9.8-2.9-14.7c-1.6-1.9-5-1.9-5.1-5.1c4.1-1,4.2,0.3,7.3,1.5c2.5-2.3-0.8-10.1-2.2-13.2
		c1.1-2.7,4-12.5,1.5-16.2c-4,4.6-15.9,16.1-21.3,5.9c0.7,0.4,3.2,2.2,1.5,0.7c0.2-3.2,2.9,2,5.1,1.5c1.5-0.2,0.2-3.2,1.5-3.7
		c-0.9-2.8-6.6-0.7-8.1-2.9c-2.5,1.4-3.9,3.9-5.1,6.6c1.6,5.6,7.6,6.1,6.6,12.5c-3-1.8-3.2,1.1-2.9,4.4c-1.3,0.1-1.5-0.9-2.9-0.7
		c-0.2,2.5-1.7,6.2-3.7,8.8c0.8,2.9,1.9,5.5,5.9,5.1c-3.2,4.3-6.6-2.3-8.1-4.4c1.6-3.4,5.3-5.8,3.7-10.3c10.1-4.3-4.9-16.8,3.7-22.8
		c4.6,0.2,5.9-0.6,9.5,0c2-0.9-0.9-6.8,2.9-5.9c-0.4,5.3,2.4,6.9,6.6,5.9C261.5,251.4,259.4,251.7,257,251.8z"/>
	<path class="st0" d="M28.6,667.4c0.4,0.4,3.5,1.7,3.7,0c2.4,0.2-0.9,4.5,2.2,4.4c-0.5,1.5-3.4,0.5-3.7,2.2
		C28.6,673.4,26.7,669.9,28.6,667.4z M30.1,671.1C31.9,673.9,31.2,668.6,30.1,671.1L30.1,671.1z"/>
</g>
</svg>
