<?xml version="1.0" encoding="utf-8"?>
<!-- Generator: Adobe Illustrator 17.1.0, SVG Export Plug-In . SVG Version: 6.00 Build 0)  -->
<!DOCTYPE svg PUBLIC "-//W3C//DTD SVG 1.1//EN" "http://www.w3.org/Graphics/SVG/1.1/DTD/svg11.dtd">
<svg version="1.1" id="Слой_1" xmlns="http://www.w3.org/2000/svg" xmlns:xlink="http://www.w3.org/1999/xlink" x="0px" y="0px"
	 viewBox="223.4 18.9 507.6 520.7" enable-background="new 223.4 18.9 507.6 520.7" xml:space="preserve">
<g>
	<path fill-opacity="0.5" fill="#E8E8E8" d="M381.4,218.1c-0.6,0.7-1.2,1.1-2,1.7c6.4,10.7,15.9,17.9,26.9,23.8c0.8-0.6,1.4-1.1,1.8-1.6
		C397,236.3,387.5,228.9,381.4,218.1"/>
	<path fill-opacity="0.5" fill="#E8E8E8" d="M375.4,223.5c6.7,9.5,15.3,17.3,25.6,23.2c0.3-0.1,0.5-0.3,0.7-0.2c0.5-0.3,1.3-0.7,2-1.1
		c-10.6-6-19.6-13.7-26.4-23.6C376.7,222.2,376,222.9,375.4,223.5"/>
	<path fill-opacity="0.5" fill="#E8E8E8" d="M391.1,216.1c3.3,7.4,7.3,11.8,12.1,15.9c3.4,3,4,3.8,4.4,4.3c-9.4-5-18-11.9-23.1-21.1
		c-0.6,0.7-1.5,1.3-2.1,1.9c5.7,10.1,16,17.7,26.6,22.8c0.1,0.5,0,0.6-0.1,1c-0.2,0.6-1.1,1.4-1.9,2.2l4.4-2.5l-0.1-0.3
		c-6-10.6-12.3-26.4-16.5-34.3l-6,5.7C389,212.5,390,213.6,391.1,216.1"/>
	<path fill-opacity="0.5" fill="#E8E8E8" d="M397.5,166.6c10.9-7.6,22.1-16.4,31.4-23.8c-1.3,0.7-29.1,9.1-38.2,11C392.5,156.9,395.1,163.3,397.5,166.6
		"/>
	<path fill-opacity="0.5" fill="#E8E8E8" d="M289.7,167.3c1.9-0.1,58.3-5.3,62-5.7l0,0c19.1-5.1,82.4-23.4,82.6-23.4c1.3-0.9,7.1-5.1,12.8-8.9
		c-0.5-1.2-1.2-2.3-1.6-3.1c-10.8,3.3-90.7,26.9-97.1,28.2c-7.9,1.2-55.6,6.4-61.7,6.9C286.8,162.3,288.8,165.5,289.7,167.3"/>
	<path fill-opacity="0.5" fill="#E8E8E8" d="M398.4,247c-4.5-2.2-8.6-4.8-12.4-7.8c-5-4.1-9.1-8.8-12.7-13.7c-0.6,0.7-1.5,1.3-2.1,1.9
		c3.8,5.2,7.9,9.7,12.8,14c3,2.6,6.5,4.7,9.9,6.7c-0.7,0.2-1.4,0.2-2.1,0.4c-3.4-2.1-6.8-4.2-9.9-6.9c-4.5-3.5-9.3-7.5-13-12.1
		c-0.6,0.7-1.5,1.3-2.1,1.9c3.3,3.8,7,7.1,10.8,10.1c3.4,2.8,6.9,5.3,10.5,7.7c-0.2-0.1-0.3,0.1-0.5,0.1c-0.9,0.2-1.7,0.6-2.3,0.6
		c-3.7-2-7-4.5-10.5-7c-3.6-2.8-7.4-5.9-10.3-9.6c-0.6,0.7-1.2,1.1-1.8,1.8c3,3.5,6.3,6.6,9.9,9.4c2.8,2.1,5.7,4.3,8.8,6.3
		c-0.7,0.2-1.2,0.3-1.8,0.3c-7-3.8-12.8-9.2-17.9-15.5c-0.6,0.7-1.2,1.1-1.8,1.6c4.5,5.6,9.7,10.9,16,14.7c-0.2-0.1-0.5,0.1-0.5,0.1
		c-0.3,0.1-0.7,0.2-1,0.3c-6.2-3.4-12.2-7.8-16.3-13.3c-0.9,0.8-1.6,1.7-2.1,1.9c3.7,4.8,8.9,8.7,14.3,12c-0.6,0-1.5,0-2.3-0.1
		c-4.9-3-9.3-6.7-13-10.8c-0.6,0.7-0.8,1.2-0.4,2c-0.3-0.3-0.5-0.6-0.6-0.8L338,258.5l27,8.2l35.8-20.1
		C400,246.8,399.3,247,398.4,247"/>
	<path fill-opacity="0.5" fill="#E8E8E8" d="M450.7,278.9c16.7-10.5,23-20.1,27.6-26.2c4.6-6.1,7.5-10.7,14.5-24.4c6.5-13,12.6-23.9,14.2-29
		c1.6-5.3,3-25.4,3.4-39.8c0.3-14.4-6.7-35.6-11.6-46.3c-4.8-10.9-22.8-36-31.6-45.7c-9-9.8-10.2-11.4-11.1-11.9
		c-0.2,0.8,0.9,4.8,0.5,5.5c-0.4,0.5-2-1.9-3.4-3.6c-3.1-3.7-13.7-10.4-23.3-16.7c-9.7-6.2-22.2-11.3-34.3-12.4
		c-11.9-1-27,1.6-34.3,3.2c-7.3,1.6-26.7,4.9-36.5,5.5c-9.8,0.6-21.6,6.9-24.1,8.3c-2.5,1.2-2.2,4.3-3.7,6.6
		c-1.6,2.3-6.4,4.2-7.3,4.2c-1-0.1,2.6-3.7,4.8-6.7c2.2-3,5.3-5.4,13.4-9c8.1-3.5,18.8-5.6,23.1-6.2c4.3-0.6,21.1-3.2,34.3-6
		c13.4-2.7,34.2-1.5,40.9-0.4s19.2,8.4,25.2,12.6c6.1,4,18.6,11.9,18.6,11.9l2.9-1c0,0-13.4-9.2-19.9-14s-13.2-7-24.5-10.9
		c-4-1.4-7.9-2.2-11.3-2.8l0.5-3.1c-1-0.1-2.2-0.5-3.2-0.6l-0.2,2.9c-1-0.1-2.1-0.2-3.2-0.1l0.2-2.9c-1-0.1-2.3-0.3-3.3-0.4
		l-0.2,3.4c-0.6,0-1.5,0-2.1,0l0.1-3.8c-1-0.1-2.3-0.3-3.4-0.2l-0.3,4c-0.5,0.1-0.6,0-1.1,0.1c-0.6,0-1.5,0.2-2.2,0.2l0,0l0.4-4.1
		c-1.1,0.1-2.1,0-3.4,0l-0.3,4.6c-0.6,0-1.5,0.2-2.2,0.2l-0.7-4.7c-1.1,0.1-2.2,0.2-3.4,0l0.8,5c-1.1,0.1-2,0.2-3.2,0.5l-1-5.2
		c-1.1,0.1-2.2,0.2-3.3,0.3l0.9,5.4c-0.7,0.2-1.5,0.2-2.3,0.4l-0.9-5.6c-1.1,0.1-2.3,0.4-3.4,0.5l0.9,5.6c-1.1,0.1-2.1,0.4-3.2,0.5
		l-0.9-5.6c-1.1,0.1-2.3,0.4-3.4,0.5l0.9,5.6l-0.2-0.1c-0.7,0.2-1.4,0.2-2.1,0.4l-1.2-5.7c-1.1,0.1-2.3,0.4-3.4,0.7l1.2,5.7
		c-0.9,0.2-2.1,0.4-3.2,0.7l-1.4-5.8c-1.2,0.3-2.3,0.4-3.2,0.7l1.4,5.8c0.6,0,1.4-0.2,2-0.2c-8,1.8-17.7,4.2-23.1,5.8
		c-3,0.8-7.3,2.1-11.7,3.5c0.5-0.1,0.8-0.4,1.2-0.5l-1.7-6.3c-1.2,0.3-2.1,0.6-3.3,0.9l1.7,6.3c-0.7,0.2-1.4,0.4-2.2,0.8l-2.4-6.3
		c-0.3,0.1-0.5,0.1-0.5,0.3c-1,0.3-1.9,0.5-2.6,0.9l2.3,6.5c-1,0.3-1.9,0.7-2.9,1.2l-2.5-6.5c-1.2,0.3-2.2,0.8-3.1,1.2l2.5,6.5
		c-0.8,0.4-1.5,0.8-2.2,1l-3.9-6.1c-1,0.5-2,1.1-2.9,1.7l3.9,6.1c-0.3,0.1-0.5,0.3-0.6,0.5c-0.8,0.4-1.3,0.9-2,1.5l-4-6.4
		c-0.8,0.6-1.9,1.3-2.7,1.9l4.2,6.6c-0.6,0.7-1,1.2-1.6,1.9l-6.1-5.3c-0.7,0.9-1.6,1.7-2.3,2.5l6.4,5.6c-0.7,0.9-1.2,2-1.5,2.8
		l-6.8-5.9c-0.7,0.9-1.2,1.8-1.9,2.8l7.3,6.3c-0.2,0.8-0.4,1.4-0.4,2l-8.7-5c-0.5,0.9-1,2-1.7,2.9l11.5,6.5c1,1.8,1.8,3.3,2.3,3.7
		c0.7,0.6,0.1,1.9-1.3,4.1c-1.3,2.2-4,3.3-7.7,12c-4,8.8-4.1,11.4-6.1,15.9c-2,4.5-5.9,8.2-10.6,15.8c-4.5,7.6-8.6,19.8-11,28.3
		c-2.6,8.4-6.7,22.7-6.7,30.4c-0.1,7.9,3.7,19.5,4.7,29.4c1,9.9,11.3,25.3,16.5,33.5c5.2,8.2,12.8,12.9,17.3,16.2
		c4.5,3.3,12.4,11.1,17.5,16.2c5.1,5.2,11.2,8.1,18.6,12.1c7.2,3.7,16.9,6.2,23.9,7.9s16.4,2.4,22.2,2.9s12.9,1.8,20.8,1.8
		s10.6-0.4,15.2-0.7c4.5-0.1,10.3-2.2,16.6-4.6c6.1-2.6,9.8-1.9,16.4-4.6c6.4-2.8,7.9-7,13-9.7s11.2-5.3,16.1-8.6
		c5-3.2,8.4-6.4,10.4-9.7c1.8-3.1,3.7-4.4,7.6-8.8c4-4.6,3.7-6.6,6-10.6c2.3-4,4-5.4,9-12.7c5-7.2,7.5-11.8,9.2-16
		c1.6-4.4,1-6.9,1.7-10.6c0.6-3.4,2.2-9.2,4.1-14.8c1.9-5.6,1.5-10.5-0.7-15.4c-2.3-5-3.6-13.3-4.1-19.6c-0.4-6.3,1.7-16.1,1.1-21
		c-0.6-4.4-1.2-8.7-1.3-11.7c-0.1-0.5-0.3-1-0.6-1.7c4.2,9.4,6.9,18.8,8.4,25.8c2.3,11.4,0.9,34.9,0.2,40c-0.8,5.3-5,25.4-7.8,31.4
		c-2.9,6.2-9.3,16-12.3,20.2c-3,4.2-4.1,10.5-13,21.7c-9,11.4-17,14.5-20.8,17.2c-4,2.6-18.6,12.5-27.6,16.2
		c-9,3.7-15.6,5.5-24.6,7.2c-9.1,1.7-13.6,2.5-21.7,2.6c-8.1,0.1-7.6-0.4-17-1.1s-23.9-2.8-27.3-3.8c-3.1-1-5.9-2.2-11.9-3.8
		c-5.9-1.6-11.8-2.1-17.1-5c-5.3-2.9-6.2-7-14.1-13.3c-8-6.1-11.8-4.2-24.1-17c-12.6-12.6-20.3-31-23.4-38.1c-3.2-7-2.7-10-5-18.6
		c-2.3-8.6-3.8-20-3.3-26.4c0.5-6.5,3-9.1,3.9-14.2c0.9-5.1,2.1-12,3.2-15.3c1-3.3,2.7-6.2,7.7-16.2c5.2-10,12.4-25.3,16.7-31.7
		c4.3-6.4,6-17,5-17.7c-0.7-0.4-1.1,0.7-1.7,2.7l-9.6-5.1c-0.5,0.9-1,2-1.3,3l9.8,5.1c-0.1,0.4-0.2,0.6-0.5,0.9
		c-0.1,0.4-0.4,0.7-0.6,1.1l-9.8-4.9c-0.5,0.9-0.9,2.1-1.3,3l9.6,4.9c-0.5,0.9-0.8,1.9-1.3,2.8l-9.6-4.9c-0.5,0.9-0.9,2.1-1.3,3
		l9.4,4.8c-0.2,0.6-0.6,1.3-1,2l-9.4-4.8c-0.5,0.9-0.9,2.1-1.3,3l9.4,4.8c-0.6,1.1-1,2-1.5,2.8l-9.2-4.7c-0.5,0.9-0.9,2.1-1.3,3
		l9,4.7c-0.4,0.5-0.6,1.3-1,2l-9.1-4.5c-0.5,0.9-1,2-1.3,3l8.9,4.4c-0.5,0.9-1,1.8-1.5,2.8l-8.9-4.4c-0.4,0.7-0.7,1.5-1.1,2.2
		c-0.1,0.2-0.1,0.4-0.4,0.7l9.1,4.5c-0.4,0.7-0.6,1.3-1,2l-9-4.7c-0.5,0.9-1,1.8-1.5,3l9,4.7c-0.5,0.9-1,1.8-1.3,2.8l-9-4.7
		c-0.5,0.9-0.9,2.1-1.3,3l8.9,4.6c0.1-0.2,0.1-0.2,0.1-0.2c-1.3,2.8-2.6,5.6-3.7,8.1l-8.8-4.2c-0.3,1-0.9,2.1-1.1,3.1l8.6,4.1
		c-0.4,0.7-0.6,1.3-0.8,1.9l-8.4-3.9c-0.4,1.2-0.9,2.1-1.1,3.1l8.4,3.9c-0.3,1-0.8,1.9-1.1,2.9l-8.3-3.6c-0.3,1-0.7,2.2-1.1,3.1
		l8.1,3.7c-0.1,0.4-0.3,1-0.5,1.6l-8.6-1.8c-0.4,1.2-0.7,2.2-1,3.3l8.6,1.8c-0.3,1-0.6,2-0.8,3.2l-8.6-1.8c-0.4,1.2-0.5,2.2-0.8,3.2
		l8.6,1.8c-0.2,0.6-0.2,1.2-0.3,1.8l-9,0c-0.2,0.8-0.3,1.6-0.3,2.3c-0.1,0.4,0,0.8-0.1,1l8.9,0.2c-0.1,1-0.2,2.1-0.3,3.1l-8.9-0.2
		c-0.1,1-0.3,2.3-0.2,3.4l8.7,0.1c0,0.8,0,1.5-0.1,2.3l-8.7-0.1c-0.1,1-0.1,2.3,0,3.4l8.5,0c-0.1,1,0,2.1,0.1,3.2l-8.5,0
		c0.1,1.1,0.2,2.2,0.3,3.3l8.3,0.2c0,0.6,0,1.3,0.2,2l-8.1,1.2c0.1,1.1,0.4,2.3,0.5,3.4l7.9-1.2c0.8,5.2,1.8,10.2,3.2,14.7l-6.9,2.4
		c0.3,1,0.6,2.1,1.2,3.1l6.7-2.4c0.2,0.7,0.4,1.4,0.6,2.1l-6.3,3.2c0.3,1,0.8,2.2,1.2,3.1l6.1-3.3c0.3,1,0.7,1.9,1,2.9l-5.9,3.1
		c0.5,1,0.9,2,1.4,3l5.8-2.9c0.2,0.7,0.6,1.5,0.8,2.2l-5.6,3c0.5,1,0.9,2,1.4,3l5.6-2.8c0.3,1,0.7,1.9,1.2,2.9l-5.4,2.9
		c0.5,1,1.1,2,1.4,3l5.3-2.7c0.2,0.7,0.6,1.5,0.8,2.2l-5.2,2.9c0.5,1,1.1,2,1.4,3l4.9-2.8c0.3,1,0.9,2,1.5,2.8l-4.9,2.8
		c0.5,1,1.1,2,1.7,2.9l4.7-2.6c0.4,0.8,0.7,1.3,1.1,2l-4.7,2.6c0.5,1,1.1,2,1.7,2.9l4.4-2.5c0.5,1,1.1,1.8,1.5,2.8l-4.1,2.4
		c0.7,1.1,1.3,1.9,1.9,2.7l3.9-2.2c0.5,0.6,0.9,1.3,1.3,1.9l-3.6,2.1c0.9,1.1,1.8,1.8,2.5,2.5l3.1-1.8c0.3,0.3,0.6,0.8,0.9,1.1
		c0.5,0.6,0.8,0.9,1.3,1.5l-2.3,1.2c0.6,0.2,1,0.3,1.2,0.4c0.5,0.4,1.3,0.8,2,1.7l1.6-1c0.7,0.6,1.2,1,1.9,1.6l-1.3,0.9
		c0.5,0.4,1.2,0.8,2,1c0.4,0.1,0.9,0.5,1.2,0.8l1.1-0.7c1.1,0.6,2,1,3.1,1.8l-1.6,1c0.9,0.7,1.7,1.6,2.5,2.3l2.1-1.3
		c0.5,0.4,1.2,0.8,1.8,1.2l-2.4,1.6c0.9,0.7,1.9,1.6,2.7,2.3l2.4-1.6c0.9,0.7,1.7,1.4,2.3,2.2l-2.2,1.5c1.1,0.6,2.2,1.3,3,2l1.6-1
		c0.7,0.6,1.3,1.3,2,1.9l-1.3,0.9c1.5,1.3,2.4,2,2.4,2l1.5-0.6c3.4,3,7.1,6,12.1,8.8c3.5,1.9,8.8,3.3,14,4.7
		c11.5,3.1,25.4,5,36.1,6.9c15.7,3.1,32.2,3.2,47.7,2.1C411.7,301.5,434,289.5,450.7,278.9 M487.9,101.3c2.8,4.3,5.2,8.9,7.5,13.4
		c-1-2.2-2.3-4.5-2.3-4.5s-2.4,1.6-7.1,2.1c-4.6,0.5-7.6,0.5-12.9-3.9c-5.3-4.4-6.4-9.9-7.2-17.8c-0.6-5.1,0.9-10.6,2.6-13.5
		C468.3,77,478.8,87.5,487.9,101.3 M413.1,76.6c1.8,4,2.9,9.4,3.3,13.6c-1-2.2-1.9-4.2-2.8-6.4c-2-4.7-3.5-9.6-4.3-14.8
		C410.7,71.2,412,73.9,413.1,76.6 M410.5,82.9c2.3,5.8,4.8,11.5,7.8,17.1c0.6,2.3,0.8,4.5,0.4,6.3c-3.4-6.4-6.4-12.6-9-19.4
		c-0.8-1.7-1.5-3.6-2-5.5c-2-6.2-3.6-12.8-3.7-19.3c0.2,0.1,0.4,0.1,0.4,0.1c0.6,0.2,1.2,1,2.1,2.1
		C406.8,70.7,408.3,76.9,410.5,82.9 M471.9,209.8c-4.3,3-9.3,5.3-15,6.5c-6.7,1.8-14.7,1.3-21.9,0.2c-0.9-1.1-2-2.5-2.9-3.9
		c4.3,1.3,9,2.1,13.7,2c8.9,0.2,16.6-1.1,25.4-4.9C471.5,209.8,471.7,209.9,471.9,209.8 M465.8,208.9c0.2,0.1,0.4,0.1,0.4,0.1
		c-7,2.6-13.4,3.4-20.7,3.3c-5.4,0.1-10.5-1.3-15.3-3c-1-1.8-2-3.4-2.7-5.3c4.7,2.3,9.9,3.9,15.2,4.8
		C449.8,210.7,457.9,210.4,465.8,208.9 M462.8,206.8c-6.7,1-13.6,1-19.6-0.2c-6-1.2-12-3.2-17.4-6.1c-1-2.4-1.6-4.5-2.2-6.7
		c5.9,4.6,12.7,8.1,20.2,10.2c5.5,1.7,12,2.1,18.3,1.7C462.3,206.2,462.5,206.4,462.8,206.8 M460.5,203.7
		c-5.2,0.1-10.4-0.4-15.1-1.8c-8.7-2.4-16.7-7-22.8-12.9c-0.2-0.9,0.1-1.7,0-2.1c0.1-0.2,0.2-0.6,0.2-0.8c5.6,5.4,12.4,9.8,19.5,13
		c5.2,2.5,11.5,3.7,17.8,4.1C460.4,203.5,460.6,203.5,460.5,203.7 M459.2,200.5c-6.2-0.6-12.2-2-17.6-4.7c-6.4-3-12.2-7.1-17.3-12.1
		c0.7-1.1,1.6-2.3,2.6-3.5c5.9,6.7,13.5,12.5,22,16.3c3,1.3,6.3,2.4,10,3C458.9,200,459,200.3,459.2,200.5 M473.5,166
		c2,2.5,2,2.5,2,2.5s-0.6,0.5-1.6,1c0.3-0.1,0.3-0.3,0.6-0.5c-1.5-2-3-4.1-4.2-6.4C471.7,164.2,473.1,165.2,473.5,166 M466.2,146.5
		c0.5,1,3.5,4,5.6,7.7c-1.5,0.8-2.6,1.6-5.3,2.7c-2.7-3.2-5.2-6.9-7.7-10.5c-19.1,12.3-37.2,24.6-53.1,38.8c0.1,0.5,1,2.2,2.4,4.8
		l47.3-38.2c0,0,5.1,2.8,6.2,3.6c0,0,0.3,0.3,0.5,0.4c-0.1,0.2-0.1,0.4-0.1,0.4c-0.2-0.1-0.4-0.1-0.4-0.1c0.9,0.7,2.2,1.8,3.6,2.8
		c0.4,0.8,0.8,1.5,1.2,2.3c1.8,3.3,3.9,6.8,6.2,9.8c-0.3,0.1-0.6,0.5-0.8,0.6c-3.1-3.3-6.1-6.8-8.4-10.3c-0.9-1.3-1.8-2.7-2.6-4
		l-1.5,1.3c1,1.8,2.2,3.4,3.4,5.1c2.2,3.2,4.7,6.3,7.5,9.1c-0.3,0.3-0.6,0.5-0.9,0.8c-3.3-3.1-6.1-6.6-8.7-9.9
		c-1.8-2.5-3.4-5.1-5.1-8c-0.3,0.3-1.1,0.7-2,1.5c4,6.6,8.5,12.8,13.7,18.1c-0.3,0.3-0.9,0.8-1.2,1.1c-5.5-5.1-10.1-11.6-13.9-18.1
		c-0.8,0.4-1.6,1-2.5,1.8c4.2,6.6,8.8,13.2,14.6,18.1c-0.6,0.5-0.9,1-1.3,1.5c-5.7-5.2-10.7-11.8-14.6-18.8
		c-0.8,0.6-1.7,1.2-2.5,1.8c4.4,6.7,9.6,13.4,15.5,18.6c-0.3,0.3-0.4,0.5-0.7,0.9c-6.5-4.7-12.1-10.9-16.8-17.9
		c-0.8,0.6-1.5,1.3-2.2,1.7c5,6.9,10.9,13.4,17.5,18.2c-0.1,0.4-0.4,0.7-0.6,1.1c-7.4-4.4-13.5-11-18.6-18.1c-0.6,0.7-1.5,1.3-2,1.7
		c5.4,7.6,11.9,14.1,19.9,18.2c-0.2,0.6-0.3,1-0.5,1.6c-8.4-4-15.6-10.5-21.2-18.2c-0.6,0.5-1.2,1.1-1.8,1.6
		c6,8.3,13.7,15.3,22.9,19.6c0.1,0.5,0.2,0.9,0.2,1.4c-2.3-0.9-4.4-1.8-6.5-3.1c-7.1-4.1-13.4-10.1-18.1-16.2
		c-0.6,0.7-1.3,1.3-1.8,1.8c5.3,6.5,11.8,12.4,19.1,16.5c2.4,1.4,5.2,2.6,7.9,3.5c0.1,0.3,0,0.6,0.2,0.9c-3.2-0.6-6.2-1.5-9-2.7
		c-8.1-3.7-15.1-9.3-20.7-15.7c0.9-1,1.9-2.2,2.9-3.2l-21.7,17.8c4.9,9.2,12.9,24.4,13.9,33.1c0.7,1.1,2.1,4.3,3.6,7.7l47.8-18.1
		c-9.7,2.4-31.4,7.7-35.8,5.1c-0.5-0.4-1.1-0.7-1.6-1.1c6.4,0.7,13.3,0.4,19.6-1.1c8.4-2.2,15.6-5.5,21.4-10.8l-0.3,0.1
		c0.3-0.3,0.8-0.6,0.9-1c2.1-0.4,2.2-0.8,2.4-0.8l2.9-1.2l-2.2,10.9L429.2,238c1.1,2.7,1.9,5.1,1.9,5.7c-6,3.5-11,5.4-16.7,7.7
		c-0.6-2.1-0.9-3.5-1.1-5.5c-0.1-0.3-0.1-0.3-0.3-0.5c-6.6,4-23.5,14.6-27.1,16.7c-4.5,2.7-17.3,9.1-17.3,9.1l-3.1-0.5l0,0
		l-38.2-12.3l3-2.7l4,1.4l58.7-53.9c-0.5-0.6-0.7-1.1-1.1-1.4c-4,2-9.6,6.3-13,8.9c-9.6,6.9-17.5,11.8-25.8,19.3
		c-9.1,8.1-20.8,17.2-31.2,25.3c0.7,2.8,3,6.3,4.4,9.3c-3.5,3-5.7,5.5-8.4,7.3c-4.8-9.4-13.5-24.4-18.4-36.4c2.5-1.8,7-4.1,8.9-5.2
		c1.9,2.3,3.4,6.4,5.1,9.2c19.5-16.3,41-34.3,61-50.7c4.9-4.1,6.8-5.6,8.9-7.3c-4-6.4-7.1-15.4-11-22.2c-4.4,1-16,4.1-20.4,5.3l0,0
		c-0.6,0-7,0.6-15.6,1.4c5-0.2,9.4-0.1,12.8,0.1c-0.8,0-1.5,0-2.3-0.1c2.7,1.7,5,3.9,7.3,6.3c2.3,2.4,6.9,7.5,8.3,11.5
		c-0.6,0.7-1.3,1.3-1.7,2c-3.9-7.6-9.2-14.6-16-19.8c-1.3,0-2.8,0-4.3,0c8,5.4,13.9,13.4,18.3,22c-0.6,0.7-1.2,1.1-1.6,1.7
		c-4.4-8.8-10-17.1-17.6-23.7c-1.3,0-2.6,0.1-4.1,0c8.8,6.9,14.8,16,19.4,26c-0.4,0.5-0.9,1-1.3,1.5c-4.3-10.5-11-20-19.9-27.4
		c-1.3,0-2.6,0.1-3.9,0.1c9.8,7.7,17.1,18.2,21.5,29.6c-0.4,0.5-0.9,1-1.3,1.5c-5.4-11.7-12.8-22.5-22.4-31.2
		c-1.1,0.1-2.2,0.2-3.2,0.1c10.3,9.1,18.1,20.7,23.6,33.3c-0.4,0.5-0.7,0.9-1.1,1.4c-5.7-12.9-13.8-24.7-23.9-34.4
		c-1.3,0-2.6,0.3-3.9,0.3c11.1,10,20.1,22.6,25.9,36.5c-0.7,0.9-1.4,1.7-2.1,2.6c-2.9-8.1-6.9-15.8-11.9-22.8
		c-4-5.7-8.5-11.4-13.9-16c-1.1,0.1-2.2,0.2-3.4,0.5c6.2,4.9,11.4,11.6,15.9,18.1c4.7,7,8.5,14.8,11.3,22.7c-0.6,0.7-1.1,1.4-1.7,2
		c-3.3-8.1-7-15.6-12.1-22.7c-4.6-6.7-10.1-13.8-16.5-19.6c-1.4,0.2-2.4,0.3-3.4,0.7c7.5,6.1,13.8,14.5,18.9,22.2
		c4.8,6.8,8.1,14,11.1,21.8c-0.4,0.5-1,1.2-1.4,1.7c-3.6-7.9-7.7-15.6-12.7-22.9c-5.2-7.6-11.7-15.7-19-21.8
		c-0.7,0.2-1.2,0.5-1.5,0.8c0.6-0.5,1.8-1,3.4-1.3c-8.1,0.7-14.3,1.2-14.9,1.2c5.2,12.5,14.4,27.2,20.9,41
		c2.5,5.2,5.1,10.5,7.5,14.7c-0.6,1.1-2.7,1.1-3.6,1.3c-9.9-19.5-22.3-43.3-32.9-65.2c-3.7,0.4-7.4,0.5-11.3,1.3
		c0.8,1.5,1.2,2.9,1.7,4.8c-2.2,0.8-5.1,2.7-8,3.8c-3.6-10.5-12.4-22.6-15.8-33c2.3-1.9,4.6-3.7,7-5.4c1.9,2.1,3.1,5.9,4.8,8.7
		c30.5-2.5,60.8-5.4,91.4-8.3c1.9-0.7,3.3-1.1,4.7-1.4c-9.1-17.3-17.2-36.2-24.4-53.2c-0.1-0.5-0.2-0.7-0.3-1
		c-5.1,1.2-15,4.2-19.2,6.8c-4.7,2.8-12.5,10.9-18.8,17.4c-1.6,1.7-3.1,3.1-4.4,4.6c-6.8,6.9-18.6,22.5-18.7,22.7l-3-1.3
		c0.4-0.7,12.5-16.5,19.4-23.6c1.3-1.3,2.7-3.2,4.3-4.9c6.8-6.9,14.5-14.6,19.7-17.7c4.7-2.6,14.7-5.4,19.9-6.5
		c-2.4-6.7-2.9-8.6-2.9-12.2c6.9-2.2,13.8-3.9,20.2-4.7c0.8,1.5,1,2.9,1.4,4.7l49.4-4.8l5.5-0.7l1.5,4.1l-3.8,0.6
		c-0.4-0.1-1-0.1-1.9-0.1c0,7.7,2,15.8,4.5,23c2.9,8.6,6.8,17,11.1,25.2c-0.4,0.5-0.9,1-1.5,1.5c-4.3-7.7-7.8-15.6-10.7-23.8
		c-0.6-1.7-1.1-3.5-1.6-5.2c-1.8-6.1-3-12.7-2.8-19c-0.1-0.5,0-0.8,0-1.5c-0.8,0-1.7-0.1-2.6,0.1c-0.5,8,1.3,16.2,3.5,23.7
		c2.8,9.6,6.7,18.7,11.5,27.4c-0.5,0.3-1.3,0.7-2,0.9c-3.6-7.1-6.5-14.4-9.2-21.8c-0.7-1.9-1.3-4-1.8-6.1c-1.9-7-3.3-14.5-3.5-21.6
		c0-0.8,0-1.5,0.1-2.3c-0.8,0-1.5,0.2-2.2,0.2c-0.3,8.7,1.2,18.5,3.5,26.3c2.6,9.1,6.2,18.1,10.5,26.7c-0.7,0.2-1.5,0.6-2.2,0.8
		c-3.7-7.5-6.9-15.1-9.2-23.1c-0.5-1.9-1-3.7-1.5-5.6c-1.6-6.7-2.5-13.4-2.4-20.2c0-1.5,0.1-3.2,0.3-4.6c-0.9,0.2-1.9,0.5-2.6,0.7
		c-1,8.2,0.5,18.1,2.2,25.7c2.4,9.7,5.9,19.1,10.4,28.2c-1,0.3-2.2,0.8-3.1,1.2c-3.4-7.2-6.1-14.5-8.1-21.9c-0.5-1.9-0.9-3.9-1.4-6
		c-1.3-6.8-2.1-14.1-1.7-21c0.1-1.7,0.2-3.6,0.6-5.4c0.2,0.1,0.3-0.1,0.5-0.1l-0.5,0.1l0,0l0,0l-3.1,0.3l-1.1-1.8l-33.9,3.3
		c0.5,3.4,1.2,8.1,4.5,16.8c6.2,15.4,12.7,31.9,20.7,45c15.2-4.3,29-8.1,46.1-13.1c1.6-1,3.6-2.1,5.9-3.3c-1.9-7.2-5.8-11-8.2-18.1
		c1.9-2.2,5.2-5.7,8.6-5.7C439.8,108.3,453,126.6,466.2,146.5 M317.2,209.2c-0.1-0.3-0.4-0.1-0.8-0.2c-1.6-3.3-3.9-8.2-5.9-12.3
		c1.9,2.1,4,4.4,5.7,6.6c4.5,5.6,9,12.6,12.1,19.3c-0.3,0.1-0.6,0.5-0.8,0.6C325,217.8,321.6,212.9,317.2,209.2 M324.2,223.3
		c-1.7-0.7-3-3.5-4-6.6C321.5,218.9,323,221,324.2,223.3 M315.5,192.9c6.2,7.7,12.1,17,15.8,26.8c-0.3,0.1-0.3,0.3-0.4,0.5
		c-3.1-6.5-7.3-12.7-11.6-18.1c-2.9-3.9-6.3-7.3-9.8-10.7c-0.8-0.9-1.6-1.8-2.5-2.5c-1.3-2.7-3.2-6.3-4.3-9.8
		C307.3,183.3,311.4,188,315.5,192.9 M301.6,174.6c-0.2-1.5,0-2.8,0.5-3.7c6.7,5.3,12.4,12.5,17.3,19.1c5,6.7,9.2,14.1,12.9,21.7
		c0.8,1.5,1.4,3.2,2.2,4.7c-0.4,0.5-0.7,0.9-1.1,1.4c-3.5-8.8-8.9-17.2-14.4-24.5C313.6,186.3,308.1,180.1,301.6,174.6 M365.6,179.9
		c-0.1,0.4-0.5,0.9-0.8,1.2c-1.5-2.8-3.9-5.5-5.4-7.6c-2.3-2.8-4.8-5.3-7.6-7.4c0.2,0.1,0.4,0.1,0.5-0.1c0.8,0,1.7,0.1,2.5,0.1
		C359.7,169.8,364,173.9,365.6,179.9 M360.6,167.7c2.5,0.8,4.7,2.1,5.8,4.1c0.7,1.3,0.9,2.6,0.7,4.1
		C365.5,172.6,363.1,170,360.6,167.7 M338.7,104.6c1.1,0.7,2,1.7,3.1,2.4c0.3,1.2,0.8,2.4,1.1,3.5c-4.5-4.2-9.5-8-14.9-10.7
		c0.7-0.2,1.4-0.4,2.1-0.6C333.3,100.8,336.1,102.8,338.7,104.6 M334,98.5c3-0.6,4.8-0.9,4.8-0.9s0.6,2.1,1.6,5.2
		c-0.7-0.4-1.4-1.1-1.9-1.4C337,100.5,335.6,99.4,334,98.5 M342.5,114.1c0.7,0.6,1.3,1.3,2,1.9c0.4,1.4,0.7,2.8,0.9,4.1
		c-1.8-1.8-3.4-3.6-5.2-5.2c-5.5-5.1-12-9.8-18.8-12.8c1-0.3,1.9-0.7,3.1-1C331.2,104.1,337.2,109.1,342.5,114.1 M338.9,117.3
		c2.3,2.2,4.9,4.9,7.1,7.7c0.1,1.7,0.1,3,0.1,3s-0.2-0.1-0.6,0c-3.2-4.8-7.5-9.1-11.6-12.5c-5.5-4.4-11.5-8.6-18.1-10.8
		c0.8-0.4,1.5-0.6,2-0.9C325.8,106.5,333,111.7,338.9,117.3 M332.8,117.8c3.4,3,7,6.4,9.7,10.4c-1.1,0.1-2.1,0-3.2,0.1
		c-2.7-3.8-6.1-7.2-9.7-10.2c-5.4-4.6-11.9-8.7-18.9-10.9c0.8-0.4,1.5-0.8,2-1.1C320.1,108.2,326.9,112.8,332.8,117.8 M328.4,120.3
		c2.7,2.3,5.3,5,7.6,7.9c-1.3,0-2.3-0.1-3.4-0.2c-2.8-3.4-6.1-6.6-9.8-9.2c-5.1-3.7-11.1-7-17.2-8.9c0.8-0.4,1.3-0.9,2.4-1.4
		C315.5,110.8,322.4,115.5,328.4,120.3 M321.7,121.3c2.4,1.8,4.6,3.8,6.7,6.1c-1.4-0.4-3.1-1-4.9-1.5c-2.1-2.1-4.5-4.2-7-5.8
		c-4.7-2.9-9.7-5.5-15.1-7.2c0.5-0.3,1.1-0.7,1.6-1C309.7,113.6,316.1,117.2,321.7,121.3 M315.4,122.3c0.2,0.1,0.3,0.3,0.7,0.4
		c-1.1-0.6-2.2-1.1-3.4-1.5c-6.4-3-15.7-5.2-15.7-5.2s0.6-0.5,1.7-1.2C304.6,116.3,310.4,119.1,315.4,122.3 M381.4,90.9
		c-0.8-6.4-1.2-13-0.5-19.4c0.4-0.7,0.8-1.2,1.4-1.7c-0.8,7.5,0.1,15.8,1.1,22.3c1.7,9.9,4.8,19.2,8.9,28.4
		c-0.5,0.1-1.1,0.1-1.5,0.2C386.3,111.2,382.9,101.4,381.4,90.9 M387.9,120.7c-1-0.1-2-0.6-2.5-0.8c0,0-0.1-0.3-1.4-2.4
		c-3.1-8.6-5.2-17.2-5.8-26.6c-0.3-3.3-0.3-6.7-0.1-10.3c0.2,3.5,0.7,6.8,1,9.9C380.2,101.2,383.6,111,387.9,120.7 M387.3,97.6
		c-0.4-2.1-0.9-3.9-1.2-5.9c-1.1-7-1.7-14-1.3-21.1c0.2-1.4,0.2-2.7,0.6-4.1c0.3-0.3,0.8-0.6,1.2-1.1c-1.3,8.4,0,18.2,1.6,25.7
		c1.9,9.8,5.3,18.9,9.5,27.9c-1,0.3-1.7,0.8-2.4,1C391.9,112.7,389.2,105.3,387.3,97.6"/>
	<path fill-opacity="0.5" fill="#E8E8E8" d="M316.2,34.9c1-0.3,1.9-0.7,3.1-1l-1.6-5.4c-1.2,0.3-2.1,0.6-3.3,0.9L316.2,34.9L316.2,34.9"/>
	<path fill-opacity="0.5" fill="#E8E8E8" d="M314,35.8l-1.7-5.6c-1.2,0.3-2.1,0.6-3.3,0.9l1.6,6C311.9,36.4,312.8,36.1,314,35.8"/>
	<path fill-opacity="0.5" fill="#E8E8E8" d="M325.5,32.4l-1.6-5.4c-1.2,0.3-2.1,0.6-3.2,0.7l1.6,5.4C323.4,32.9,324.3,32.7,325.5,32.4"/>
	<path fill-opacity="0.5" fill="#E8E8E8" d="M337.5,30.1l-1.2-5.7c-1.2,0.3-2.3,0.4-3.2,0.7l1.2,5.7C335.2,30.5,336.4,30.2,337.5,30.1"/>
	<path fill-opacity="0.5" fill="#E8E8E8" d="M331.1,31.4l-1.3-5.5c-1.2,0.3-2.1,0.4-3.2,0.7l1.3,5.5C328.9,31.8,330,31.5,331.1,31.4"/>
	<path fill-opacity="0.5" fill="#E8E8E8" d="M272.1,75l-10.5-5.5c-0.5,0.9-1,2-1.5,3l10.4,5.3C270.9,76.7,271.6,75.9,272.1,75"/>
	<path fill-opacity="0.5" fill="#E8E8E8" d="M275.8,70.7l-11.5-6.5c-0.5,0.9-1,2-1.5,3l10.8,6.1C274.3,72.2,275.1,71.4,275.8,70.7"/>
	<path fill-opacity="0.5" fill="#E8E8E8" d="M226.2,199.9c0.3,1.2,0.6,2.1,0.9,3.3l6.9-2.4c-0.3-1.2-0.6-2.1-0.7-3.2L226.2,199.9z"/>
	<path fill-opacity="0.5" fill="#E8E8E8" d="M224.6,193.2c0.3,1.2,0.4,2.3,0.7,3.2l7.6-1.1c-0.3-1.2-0.4-2.3-0.5-3.4L224.6,193.2z"/>
	<path fill-opacity="0.5" fill="#E8E8E8" d="M244.6,128.8l-8.9-4.4c-0.5,0.9-0.9,2.1-1.3,3l8.8,4.2C243.8,130.7,244.3,129.8,244.6,128.8"/>
</g>
<g>
	<path fill-opacity="0.5" fill="#E8E8E8" d="M582.3,352.1c-0.1-0.5-0.5-0.6-0.9-0.5c-0.3,0.1-18.9,6.6-30.7,16.5c-14.2,12.1-19.9,25.4-20,25.6
		c-0.1,0.2-0.1,0.4,0,0.6c0,0,0.1,0.3,0.3,0.3c0.4,0.1,0.8,0,1-0.3c0.1-0.2,5.7-13,19.6-25c11.5-9.7,30-16.3,30.2-16.2
		C582.2,353,582.3,352.6,582.3,352.1"/>
	<path fill-opacity="0.5" fill="#E8E8E8" d="M580.3,357.1c-0.1-0.5-0.5-0.6-0.9-0.5c-0.2-0.1-14.2,4.6-24,12.8c-11.1,9.2-16.7,19.1-16.7,19.1
		c-0.1,0.2-0.1,0.4,0,0.6c0.1,0.3,0.1,0.3,0.3,0.3c0.4,0.1,0.8,0,1-0.3c0,0,5.5-9.7,16.4-18.7c9.7-7.9,23.3-12.6,23.5-12.5
		C580.3,357.7,580.4,357.4,580.3,357.1"/>
	<path fill-opacity="0.5" fill="#E8E8E8" d="M580.8,360.4c-0.1-0.5-0.5-0.6-0.9-0.5c-0.5,0.1-12.1,3.4-20.8,10.8c-9.4,7.8-14,15.8-14.1,16.2
		c-0.1,0.2-0.1,0.4,0,0.6c0,0,0.1,0.3,0.3,0.3c0.4,0.1,0.8,0,1-0.3c0,0,4.6-8,13.8-15.9c8.4-7.1,20-10.4,20.3-10.5
		C580.7,361.3,580.9,360.9,580.8,360.4"/>
	<path fill-opacity="0.5" fill="#E8E8E8" d="M581,363.9c-0.1-0.5-0.5-0.6-0.9-0.5c-0.3,0.1-7.4,2-14.2,6.8c-8.1,5.6-11.6,11.4-11.7,11.8
		c-0.1,0.2-0.1,0.4,0,0.6c0,0,0.1,0.3,0.3,0.3c0.4,0.1,0.8,0,1-0.3c0,0,3.5-5.8,11.3-11.3c6.7-4.6,13.7-6.5,13.8-6.7
		C580.8,364.5,581.1,364.2,581,363.9"/>
	<path fill-opacity="0.5" fill="#E8E8E8" d="M585.5,342c-0.1-0.3-0.5-0.6-0.7-0.6c-42.3,13.8-66.7,38-68.1,64.3c-0.1,0.2,0.3,0.5,0.7,0.4
		c0.3-0.1,0.8-0.4,0.8-0.6c1.2-15.9,9.3-27.7,20.9-37.9c12.3-11,30.5-20,46.2-24.8C585.5,342.9,585.6,342.5,585.5,342"/>
	<path fill-opacity="0.5" fill="#E8E8E8" d="M505,449.2c0.2,0.1,0.1,0.3,0.4,0.1c1.3,0,3.5-0.2,5.4-1.6c0.3-0.1,0.3-0.3,0.2-0.6c-0.2-0.7-0.7-1.3-1-1.8
		c-0.1-0.3-0.3-0.3-0.5-0.6c-0.1-0.3-0.1-0.5-0.2-0.7c0.1-0.2-0.1-0.3-0.3-0.3c-1.4-0.4-2.6-0.6-4-0.8c-5.1-0.9-10.1-1.8-12.5-6.6
		c-2.1-4.3,0-7,2.2-10c2.1-2.6,4.2-5.3,3.3-9.5c0.1-0.2-0.1-0.3-0.1-0.3c-0.2-0.1-0.4-0.1-0.6-0.2c-0.9-0.5-2.2-1.1-3.3-1
		c-0.2-0.1-0.3,0.1-0.3,0.3c-0.2,3.4-1.6,5.3-5.4,7.1c-0.3,0.1-0.3,0.3-0.2,0.6c0.9,3.3,0.4,8.7,0.2,10.5c0,0.6-0.4,1.4-0.7,2.2
		c-0.4,1.2-0.9,2.1-0.6,2.6c0.1,0.3,0.1,0.3,0.3,0.5c1.6,3.3,3.5,4,4.8,4.5c1,0.3,1.5,0.7,2.1,1.5c0.2,0.7,0.4,1.4,0.7,1.9
		c0.3,0.5,0.6,0.8,1.1,0.7c0,0,0,0,0.2,0.1c0.5-0.3,1.3-0.7,2-1.1c1.3-0.7,2.6-1.6,3.5-1.5C501.8,445.2,503.6,447,505,449.2"/>
	<path fill-opacity="0.5" fill="#E8E8E8" d="M586.7,347.3c0,0,0.1-0.2,0.3-0.1c0.1-0.2,0.1-0.4,0-0.6c-0.1-0.5-0.5-0.6-0.7-0.4
		c-14.8,3.8-32.6,13.6-44.2,24.4c-4.7,4.1-15.7,15.7-19.6,30.8l0,0l0,0c0,0,0.2,0.1,0.4,0.1c0,0,0.6,0,0.8-0.4
		c5.3-20.2,27.6-40.8,55.1-51.2C581.1,349,583.4,348.2,586.7,347.3"/>
	<path fill-opacity="0.5" fill="#E8E8E8" d="M583.6,337.8c0.1-0.2,0.1-0.4,0-0.6s-0.3-0.3-0.5-0.6c-0.2-0.1-0.2-0.1-0.2-0.1
		c-48.6,14.5-70.8,44.3-74.6,75.2c0,0,0.7,0.6,1.5,0c0.3-0.1,0.2-0.6,0.2-0.6c5.3-28.5,20.3-49,49.6-63.8
		C567.7,343.2,575.7,340.7,583.6,337.8C583.6,338,583.6,338,583.6,337.8"/>
	<path fill-opacity="0.5" fill="#E8E8E8" d="M581.8,367c-0.1-0.5-0.5-0.6-0.9-0.5c-0.3,0.1-5.5,1.3-9.6,4.1c-5.1,3.4-7.7,6.4-7.8,6.6s-0.2,0.6,0,0.8
		l0.1,0.3c0.3,0.3,0.8,0.2,0.9-0.2c0,0,2.4-3.1,7.5-6.3c4-2.6,9.1-3.9,9.3-3.8C581.6,367.7,581.9,367.4,581.8,367"/>
	<path fill-opacity="0.5" fill="#E8E8E8" d="M580.1,371.1c-0.1-0.5-0.5-0.6-0.9-0.5c-3.4,0.7-5.1,2.7-5.2,2.9c-0.3,0.1-0.2,0.6,0,0.8l0.1,0.3
		c0.3,0.3,0.8,0.2,0.9-0.2c0,0,1.4-1.7,4.3-2.3C579.9,371.9,580.2,371.6,580.1,371.1"/>
	<path fill-opacity="0.5" fill="#E8E8E8" d="M521.6,408c-0.1,0.2-0.3,0.1-0.1,0.4c0,0,0,0-0.1,0.2l0.1,0.3c7.7,3.6,12.6,7.7,15.3,13
		c1,1.8,1.5,3.6,1.9,5.7l0.1,0.3c0.2,0.1,0.2,0.1,0.4,0.1c0.5-0.1,0.9-0.2,1.4-0.2c0.6,0,1.3,0,1.9-0.5c0.3-0.1,0.3-0.3,0.2-0.6
		c-0.4-1.4-0.8-2.8-1.7-4.2c-1.7-3.5-4.1-6.2-6.9-8.9c-2.4-2.7-4.9-5.6-7.2-9.3c-0.2-0.1-0.1-0.3-0.3-0.3c-0.2-0.1-0.3,0.1-0.3,0.1
		c-0.7,1.1-1.8,1.6-2.9,2.5C523,407.2,522.2,407.6,521.6,408"/>
	<path fill-opacity="0.5" fill="#E8E8E8" d="M581.9,333c-0.3-0.5-0.5-0.6-0.9-0.7c-1.3,0-3.4,0.5-4.6,1l-0.7,0.2c-14.6,3.7-33.5,13.3-44,22.5
		c-6.7,5.9-12.6,12.6-16.8,18.8c-6,9.3-9.9,20.5-11.8,28.2c-0.5,1.6-1.6,6.8-1.7,8.3c-0.1,0.2,0.1,0.3,0.1,0.5
		c0.1,0.3,0.5,0.4,0.7,0.4c0.6,0.2,1.3,0,1.7-0.6l0.1-0.2c3.6-16.7,8.5-28.6,15.9-39c3.5-5.3,8.2-10.1,14.4-15.7
		c0.5-0.3,1.1-0.7,1.7-1.4s1.2-1.1,1.7-1.4c10.1-7.2,21.5-12.9,33.9-17.2c4-1.3,6.7-1.8,8.5-2.1c0.7-0.2,1.2-0.3,1.6-0.4l0.3-0.1
		C582.2,334,582.2,333.3,581.9,333"/>
	<path fill-opacity="0.5" fill="#E8E8E8" d="M490.3,419c0.1-0.2,0.1-0.2,0.1-0.4c-1.6-6.7-1.2-12.1,1-16.8c0.1-0.2,0.1-0.4-0.1-0.5
		c-0.5-0.6-0.7-1.1-1-1.8c-0.3-0.5-0.5-1.2-1.1-2c-0.2-0.1-0.1-0.3-0.3-0.3c-0.2-0.1-0.3,0.1-0.3,0.1c-9.8,10.5-11.1,23.8-10.9,36.6
		l-0.1,0.2c0,0,0.2,0.1,0.1,0.3c2.2,0.7,4.6,1,6.9,1.2l0.4,0.1c0.2,0.1,0.5-0.1,0.5-0.3c1.1-4.2,0.4-9.1-0.3-13.8
		c0.5-0.3,1-0.5,1.5-0.6C488.1,420.5,489.6,419.9,490.3,419"/>
	<path fill-opacity="0.5" fill="#E8E8E8" d="M560.6,403c-1.3-2.1-2.8-4.7-3-5l-0.1-0.3c-1.1-2-2.1-4.3-2.6-6.3c0.1-0.2-0.1-0.3-0.3-0.3
		c-1.4-0.2-4.4,0.6-5.8,2.1c-0.1,0.2-0.1,0.2-0.1,0.4c0,0,0,0-0.1,0.2c0,0,0,0,0.1,0.3c0.7,0.4,1.4,0.9,2.2,1.3
		c1.8,1,3.6,2.2,4.8,3.8c0.7,1.1,1.5,2.2,2,3.4c1.2,2.3,1.7,4.2,2,5.3c0.1,0.5,0.2,0.7,0.3,1c0.3,0.5,0.5,0.4,0.8,0.2
		c0.3-0.1,0.7-0.2,1-0.3c0.3-0.1,0.7-0.2,1-0.3l0.3-0.1c0,0,0.1-0.2-0.1-0.5C562.9,407.2,561.8,405.1,560.6,403"/>
	<path fill-opacity="0.5" fill="#E8E8E8" d="M560.7,382.8L560.7,382.8c-0.1-0.3-0.1-0.3-0.3-0.3c-0.2-0.1-0.3,0.1-0.5,0.1c-1.4,1.7-2.2,3.6-2.9,5.3
		c-0.1,0.4-0.2,0.8-0.6,1.1c-0.1,0.2-0.1,0.2,0.1,0.5l0,0c1.2,2.3,2.5,4.4,3.6,6.4c3.3,5.9,6.5,11.6,10,16.9c0,0,0,0,0.2,0.1
		c3.4,2.1,12.1,2.4,16.1-3.2c0.1-0.2,0.1-0.4-0.1-0.5c-0.5-0.6-0.9-0.7-1.4-0.4c-5.4,3.1-9.5,1.8-13.6,0.6c-0.3-0.3-0.5-0.6-0.6-0.8
		c-1-1.8-0.2-2.8,0.9-4.2c0.4-0.5,0.7-0.9,0.9-1.4c0.1-0.2,0.1-0.2-0.1-0.5c-4.4-9.5-5.7-16.9,1.3-21.8c0.1-0.2,0.3-0.1,0.1-0.4
		c0-0.6,0-1.3-0.2-2c-0.1-0.5-0.2-0.7-0.2-0.9c0.1-0.2-0.1-0.3-0.1-0.3c-0.2-0.1-0.2-0.1-0.4-0.1c-3.5,0.9-6.5,2.9-9.2,4.9
		c-0.8,0.6-1.7,1.2-2.4,1.6C561.5,383.7,561.1,383.5,560.7,382.8"/>
	<path fill-opacity="0.5" fill="#E8E8E8" d="M580.9,376.1L580.9,376.1c0.1,0.3,0.1,0.3,0.3,0.3c3.3,1.2,6.6,4.4,8.7,8.6c0.7,1.3,1.2,2.9,1.7,4.4
		c-0.1,0.2,0.1,0.3,0.1,0.3c0.2,0.1,0.2,0.1,0.5-0.1l2.2-1c0.3-0.1,0.3-0.3,0.1-0.4c-0.6-2.3-1.6-5.8-3.1-8.6c-2-4-4.4-6-7.1-6
		c-0.5,0.1-1,0.5-2.5,1.8c-0.3,0.1-0.6,0.5-0.8,0.6C581.1,375.7,581,375.9,580.9,376.1"/>
	<path fill-opacity="0.5" fill="#E8E8E8" d="M575.4,377.4c-0.1,1-0.1,2.5,0.1,3l0.1,0.3c0.5,0.4,1.4,0.9,2.2,1.1c1.1,0.6,2.4,1.2,3.6,2.2
		c1.7,1.6,2.7,3.2,3.7,5.4c0.3,0.5,0.5,1,0.8,1.5c0,0,0.1,0.3,0.3,0.3c0.2,0.1,0.2,0.1,0.5-0.1c0.3-0.1,0.3-0.3,0.6-0.5
		c0.3-0.3,0.6-0.5,1.1-0.7c0.2,0.1,0.3-0.1,0.3-0.1c0.1-0.2,0.1-0.2-0.1-0.5c-0.3-0.5-0.5-1-0.8-1.5c-3.7-7.3-7.8-10.9-12-10.5
		C575.5,377,575.5,377.2,575.4,377.4"/>
	<path fill-opacity="0.5" fill="#E8E8E8" d="M598.8,394.8c-0.2-0.1-0.4-0.1-0.4-0.1c-3.8,2-6.7,4.6-8.3,7.5c-0.1,0.2-0.1,0.2,0.1,0.5l0,0
		c0.1,0.3,0.4,0.1,0.4,0.1c1.9-0.5,2.8-1.5,3.5-2.4c0.6-0.7,1.3-1.3,2.5-1.8c2,1.7,5.9,2.2,9.4,1.6c3-0.6,5.2-2.3,6.2-4.3
		c0.1-0.2,0.1-0.4-0.1-0.5c-0.2-0.1-0.4-0.1-0.5,0.1C606.9,398.1,602.1,397.9,598.8,394.8"/>
	<path fill-opacity="0.5" fill="#E8E8E8" d="M669.5,436.8c0-0.8-1.5-0.7-1.5,0.2c-0.5,4.5-1.8,8.8-4.3,12.6c-0.5,0.9,0.9,1.1,1.3,0.6
		C667.6,446.1,668.9,441.6,669.5,436.8"/>
	<path fill-opacity="0.5" fill="#E8E8E8" d="M620.5,336C620.5,336,620.6,335.8,620.5,336c-4-10.6-10.6-19.3-19.4-26c-0.9-0.7-2.2,0.2-1.2,1.1
		c7.3,5.4,12.9,12.3,16.9,20.3l-0.2-0.1c-0.7,0.2-1.9,0.5-2.8-1.3c-2.1-6.4-6.2-10.6-12.4-14c-0.7-0.4-0.7,0.9-0.1,1
		c5.4,2.7,9,6.4,11,11.5c-0.1,0.2-0.3,0.1-0.3,0.3c-0.2,0.6-0.2,0.6-0.4,0.5c-2.7-2.5-5.1-4.3-7.6-5.9c-1.8-1.2-3.6-2.4-5.3-3.7
		c-0.2-0.1-0.2-0.1-0.4-0.1l-0.2-0.1c-0.7,0.2-1.8,0.3-2,1.1c-0.1,0.4-0.2,0.6-0.1,1l0,0c0,0,0.2,0.1,0.1,0.3
		c4.1,2.5,8,5.9,11.8,9.1c3.9,3.3,7.7,6.8,11.9,9.4c0.1,0.5,0.2,0.9,0.5,1.2c1,1.8,2.6,2.7,4.1,3.4c0.2,0.1,0.4,0.1,0.5,0.4
		c1.5,1.3,2.5,3.1,3.1,5.2c0.5,1.2,0.7,2.6,1,3.7c0,0,0,0-0.1-0.3c1.5,4.9,1.4,13,8.1,19.8c2.3,2.8,5.5,5.1,8.9,7.2
		c0.5,0.4,1.5-0.2,0.8-0.6c-4-2.3-7.4-5-10.2-8.7c-3.1-3.9-4.3-9.2-5.4-13.8c-0.5-1.9-0.9-3.5-1.2-5.1c0-0.6-0.3-1.2-0.4-1.6
		c-0.3-1.2-0.6-2.3-0.7-3.4c0.3-0.1,0.4,0.1,0.8,0.2c0.3,0.3,0.7,0.6,1.4,0.4l0.3-0.1c0.1-0.2,0.1-0.2-0.1-0.5
		c-1.2-2.5,1.6-4.4,4.7-6.3l0.3-0.1c6.6-4,15.4-7.1,20.4-6c0,0-0.2-0.1-0.3,0.1c-1.7,1.4-3.3,3.7-2.7,6c0.2,0.7,1.5,1.3,1.4,0.2
		c-0.2-2,1-4,2.4-5c0.3-0.3,0.2-0.8-0.1-1.1c0.2,0.1,0.4,0.1,0.6,0.2l0.2,0.1c0.2,0.1,0.4,0.1,0.8,0c-1.4,1.1-2.5,2.7-3.1,4.4
		c-0.2,0.8,1,1.6,1.3,0.6c0.5-1.8,1.8-3.1,3.3-3.9c0.3-0.1,0.4-0.7,0.1-1c1.2-0.3,2-0.9,2.8-1.5c0.6-0.5,0.9-0.8,1.4-1.1
		c2.5-1.2,4.1-1.5,5.8-1.4c-4.7,2-8.9,3.9-11.6,8.6c-0.4,0.5,0.5,1.9,0.9,1.1c2.5-4.6,6.6-6.3,11-8.2c0.5-0.3,0.3-1,0-1.3
		c1.4,0.2,2.9,0.9,4.4,1.8c0.6,0.2,0.9,0.5,1.5,0.7c0.2,0.1,0.4,0.1,0.5-0.1c0.1-0.2,0.1-0.4,0.1-0.4c-0.7-1.1-1.8-3.1-3-4.3
		c-4.9-4.9-10.9-2.7-17.9-0.3c-1.7,0.6-3.1,1.2-5,1.7c-5.6,0-13.5,2.1-19,4.9c-1,0.5-1.8,1.1-2.7,1.8c-1.1,0.7-2.2,1.5-3.3,1.8
		C625.4,339.6,622.9,338,620.5,336"/>
	<path fill-opacity="0.5" fill="#E8E8E8" d="M670.8,447.9c0.2,0.1,0.4,0.1,0.4,0.1c1.5-0.8,2.8-0.7,3.9-0.3c1.2,0.2,2.6,0.6,4.1-0.2l0.3-0.1
		c4.9-11.1,4.3-23.9-1.4-35.3c-1.1-2-2.4-4.1-3.9-6.3c0.1-0.2,0.3-1,0.4-1.4c0.2-0.6,0.6-1.3,0.5-1.8c0.1-0.2-0.1-0.3-0.1-0.3
		c-4.5-2.7-11.4-8.2-14.2-10.3c-0.2-0.1-0.2-0.1-0.4-0.1c-2.9,0.4-5.7-1.1-6.8-3.6c-1-1.8-0.9-3.9-0.3-5.9c0.1-0.2,0.1-0.2-0.1-0.5
		c-0.2-0.1-0.2-0.1-0.4-0.1l-1.2,0.3c-2.4,0.8-4.7,1.5-7.4,2.5c-0.2-0.1-0.3,0.1-0.3,0.3c-0.1,1.7,0,3.4-0.1,5.3
		c-0.2,8.5-0.4,17.4,3.7,27c0.1,0.3,0.2,0.7,0.3,1l0.5,1.2c0.3,0.5,0.5,1,0.5,1.2c0.2,0.7,0.4,1.6,0.3,2.4c0.2,0.9,0.4,1.6,0.2,2
		l-0.1,0.2c-0.1,0.2,0.1,0.3,0.3,0.3c0,0,5.1,0.3,5.5-0.5c0.5-0.9,0-2.8-0.4-5.7c-0.2-1.4-0.1-2.6-0.1-3.9c0.2-1.2,0.1-2.3-0.2-3.5
		c-0.1-0.5-0.3-1-0.5-1.2c-0.5-1-1.5-2.2-2.3-3c-0.8-0.9-1.4-1.7-1.9-2.7c-0.1-0.3-0.2-0.7-0.3-1c-0.5-1.9,0.1-4.5,0.6-6
		c0.2-0.8,0.4-1.2,0.6-1.3c0,0,0.6,0,0.9-0.2c0.2,0.1,0.2,0.1,0.5-0.1c5.5-0.5,10.6,1.7,15.9,6.8c-0.1,0.4,0,0.8-0.2,1.2
		c-0.3,1.6-0.3,3.1,0.2,5c0.1,0.3,0.3,0.3,0.5,0.4c0.7-0.2,1.3-0.7,1.8-1.1c0.1-0.2,0.3-0.3,0.6-0.7c0.7,1.3,1.4,2.4,2.1,3.6
		c6,11.9,7.1,23.5,3,32.1c-0.6-0.2-1.2-0.4-1.5-0.7c0.1-1.7,0.2-4.2,0-6.2c0.1-0.2-0.1-0.3-0.1-0.3c-0.2-0.1-0.4-0.1-0.6,0
		c-0.7,0.2-1,1.8-1.6,4.4c-0.5,2.2-1,4.6-1.7,6.1C670.7,447.7,670.7,447.7,670.8,447.9"/>
	<path fill-opacity="0.5" fill="#E8E8E8" d="M525.2,447.6c-0.1,0.2,0.1,0.3,0.3,0.3c0.2,0.1,17,7.3,38.7,7.5c20.7,0.1,41.2-8.8,41.4-9
		c0.3-0.1,0.4-0.5,0.3-1c-0.1-0.3-0.5-0.4-1-0.3c-0.3,0.1-20.3,9-40.8,9c-21.3-0.1-38-7.3-38.2-7.3c-0.4-0.1-0.6,0-1,0.3
		C525.1,447.1,525,447.3,525.2,447.6"/>
	<path fill-opacity="0.5" fill="#E8E8E8" d="M671.9,337.1c-2.6,0.3-4.5,2.1-5.9,4c-0.5,0.9,0.9,1.3,1.5,0.7c1.2-1.8,2.7-3.2,5-3.6
		C673.5,338,672.8,337,671.9,337.1"/>
	<path fill-opacity="0.5" fill="#E8E8E8" d="M668.1,285.5c1,2.2,2.8,7,4.3,10.3c1.5,3.5,2.6,3.4,3.5,4c1.7,1.6,3.4,3.6,5.9,7.2
		c4.7,6.3,11.7,19.2,15,26.6c3.6,8.4,7.2,19.1,10.8,26.4c3.5,7.5,5.2,14.4,7.5,19.6c1.8,4.6,5.3,4.4,8,9.5c2,3.8,1.4,6.6,1.5,10.5
		c0.3,3.9,1.2,8.7,1.5,10.5c0.2,1.5,1.3,2.1,2.5,2.5s1.8-0.3,1.8-1.8c0.2-1.2,2-12.2-2-23c-1.8-5.5-4-9.3-5.6-12.6
		s-2.9-7.9-4.8-11.7c-2.5-5.7-2.8-4.9-6.6-13.3s-8.2-23-12.6-30.8c-2-3.4-4.4-8-7.3-11.8c-1.8-2.7-6.7-8.2-9-11.1
		c-6.7-8.2-12.2-12-14.4-12.9C665.5,281.5,667.3,283.5,668.1,285.5"/>
	<path fill-opacity="0.5" fill="#E8E8E8" d="M695.4,482.3c9.5-10.1,23.3-33.7,26.6-39.8c3.3-6,2.9-11.1,4.8-15.8s2.8-7.7,2.8-7.7s0.4-1.2-0.1-1.7
		c-0.5-0.6-1.1-0.7-1.9-1.4c-0.9-0.7-2.2-1.9-2.6-1.9c-0.5,0.1-0.6,2-1.2,4.6c-0.5,2.4-0.6,4.1-1.4,6c-0.9,2.1-1.4,3.2-2.5,4.1
		c-0.6,0.5-0.6,1.1-0.7,2.2c-0.1,1-0.4,2,0.5,1.9c0.9-0.2,2.2-1,2.5-1.2c0.5-0.3,1.4-0.4,0.9,0.7c-0.6,1.3-9.2,14.7-12.7,20.5
		c-3.7,5.7-9,14.8-11.5,18.7c-2.5,4.1-3.9,7.3-5.6,9.4c-3.1,3.8-10.8,10.8-16,14.6c-5.3,4-6.4,4.9-8,7.2c-1.5,2.1-2,3.9-5.2,7.2
		c-3.1,3.1-13.2,11.1-21.8,15.6c-8.6,4.4-30.2,10.7-40.1,11.5c-19.3,1.6-19.3-0.3-22.7-1.3c-6.8-2.1-27.6-0.7-32.7-2.3
		c-2.9-0.9-10.9-3.5-18.9-7.5c-7.5-3.6-15.1-8-19.6-10.9c-5.7-3.9-19.7-15.2-24.4-20.3c-4.5-5-7.9-7.7-16.5-21
		c-8.6-13.3-11.4-27.2-12.2-31.5c-0.7-4.1-1.9-18.3-2.7-28.2c-0.8-9.9-3.1-23.6-2.9-28.3c0.3-4.6,3.4-15.2,3.8-19.4
		c0.2-4.2-1.8-3.8,0.8-16.6c2.4-12.9,5.3-16.8,5.9-17.9c0.3-0.3,0.9-0.8,1.6-1c0,0-0.1,0.2,0.1,0.3c-1.2,8.8-7.4,18-6.1,27.2
		c0.8,5-0.9,10-0.4,15.3c10.5-4.9,19.8-0.4,29.2,0.1c6.4-13.9,16.6-26.6,30.4-38c8.2-5.2,20.5-14.1,27.7-8.2
		c8.1-3.3,18.4-7,26.7-8.3c2.5-4.1,9.5-5.9,13.9-8.4c0.5-0.3,1.6-1,1.6-1.7c0-0.6-0.5-1-2-1.2c-2.2-0.5-4.7-0.1-6.8-1.6
		c-0.3-1.2-0.1-2.4-1.5-2.8c-0.6-0.2-3.9-1.4-4.8-2.3c0-0.8,0.1-1.9,0.8-2.7c0.3-0.3,5.8,0,12-0.2c0.6,0,1.5-0.2,1.7-0.6
		c-0.2-2-1.6-1.8-4.5-2.7c-3.7-1.3-8.6-2.6-9.2-3.4c-0.1-0.3,0.4-1.4,1.2-2.6c6.3,2.6,8.7,1.6,15.1,2.5c1.4,0.2,5.3,2.3,7.3,2.7
		c1.2,0.2,1.2-0.3,1.6-1c-6.6-3.7-12.3-5.9-20.6-8.2c-0.1-0.3,0.4-1.4,0.9-1.6c5.2,0.5,10.5,1.5,15.3,3.2l3.6-1.9
		c5.2,2,10,5,14.8,8.3c3.9,6.1,9.3,10.1,13.2,15.6c0.7,1.1,2.3,3,2.9,4.5c2.8,6.2-4.2,16.7-0.7,21.4c4.1,0.4,8.3-3.3,12.7-4.7
		c5.9-1.2,11.3-0.6,17.8-3.6c8.3-3.3,16.2-4.7,21.9,1.8c4,4.4,3.9,9.1,3.9,13.8c-3.9,8.6-5.2,21.3-11.4,29.7
		c-2.2,3.2-8.7,4.8-11.4,7.9c0.7,2.6-1.8,4.6-0.7,6.6c1.4,2.6,5.9,1.6,7.9,4.3c3.4,5.7,8.2,7.4,13,9.1c-0.7,3,0.9,5.4,2.4,8.2
		c7.4,14.2,8.3,31.2,1.7,40.9c-2.2,3.2-6,3.7-9.3,3.8c-0.7,2.2,0,5.8-3.4,6.2c-0.1,1,1.1,1.2,0,2.1c-3.1,1.2-4.4-4.3-6.2-4.9
		c0,1.3,0.3,2.6-0.9,3.6c-1.3-1.9-3.5-2.6-4.6-4c-3.8-5.9,4.5-12.5,2-18.6c-1.2,1.1-1.4-0.2-2.4,0.1c0,4.9-2.2,17.7-8.5,14.5
		c-1.5-3.6-4.8-8.1-7.7-11.1c-4.2,1.7-8.3,4.1-11.1,7.1c-1.9,2.2-3.2,6.3-4.5,7c-0.5,0.3-2.9-0.4-3.3-0.4c-3.9,0.3-7.5,1.6-11.5,4.2
		c-6,3.7-12.3,8.2-18.5,10.4c-5,1.7-10.6,3.2-15.5,4c-9.3,1.7-19.2,0.6-29.1,3.5l-3.3,1.8c-4.8-3.8-10.2-5.7-16-6.6
		c-0.8,0-1.3,4.3-2.2,4.3c-4.6-1-12.2,1.6-19.2,2.1c-4.6-1-11.2-4.7-16.4-5.6c-0.4-0.1-1.5,3-2.4,2.9c-0.5,0.1-3.8-0.1-4.9-1.5
		c-0.8-0.9-0.2-2-0.5-3.2c-1.6-5.8-6.2-8.3-8.6-10.5c-0.2-0.1-0.7-0.4-0.6-0.8s0.6-0.5,0.8-0.6c2.5-1.8,4.1-4.3,4.1-5.8
		c0.8-5.3-3.8-12.7-9.7-10.9c-1,0.3-1.9,0.5-2.5,0.5c-0.5,0.1-0.8,0-1.3-0.6c-0.5-0.6-0.1-1.7,0-2.8c0.9-7.2,2.6-16.1,2.2-17.9
		c0-0.8-1-2.2-1-3.1c0.5-6.5,4.7-12,4.4-18.7c-0.9-2-3.6,0.6-5.6,1.5c-2.2,0.8-7,1.1-7.1-0.7c-0.9-6.1-2.5-12.3,0.9-16.8
		c-0.1-0.3-0.1-0.5,0.1-0.4c-0.8-1.7-2.4-1.4-3.7-1.1c-1.7,4.2-2.7,8.2-1.6,13.8c5,13.7-0.2,28.1,3.1,42.6c0.2,0.9,0.4,2.1,0.8,3
		c2.2,5.6,4.6,10.8,6.6,17c1.1,3.5,1.3,6.4,4.3,9.7c3.7,3.3,3.7,6.7,5.6,9.6c3.5,5.3,10.4,10.7,14.5,14.7c3.9,4,8.2,8.7,11.9,13.5
		c1.8,2.5,7.7,7,11,8.9c17.4,9.6,34.8,11.9,54.3,13.1c4.2,0.2,8.5,0.2,11.1,2.1c8.6,6,17.3,6.3,27.9,4c4.6-1.2,6.2-1.5,9.8-2.1
		c12.5-2.4,26.5-9.2,37.5-15.7c10.3-5.8,17.4-21.2,26.8-27.1c7.1-4.5,10.7-8.5,14.2-13.6c2.1-2.8,6.5-14.5,14.6-26.1
		c2.7-4.1,5.4-8.6,7.3-13.6c1.9-5,5.1-9.8,6.2-13.9c1.3-4.9,0.2-11.1,0.7-16.4c0.2-3.6,0.9-7.2,0.8-10.2c-0.4-7.2-7.7-8.5-10.9-14
		c-1.4-2.6-1.2-2.9-1.6-5.2c-2.2-14.6-13.3-30.8-20-46.7c-2.6-6.3-5.3-12.7-9.1-17.7c-2.8-4.1-6-5.7-9.5-8c-1.4-0.9-2.3-3-3.8-3.1
		c-1-0.1-2.3,0.4-3,0.6c-2.6,0.3-4.6,0.5-7.5,1.6c-2.2,0.8-4.4,1.7-4.3,0c1.4-4.5,1.2-9.7,1.6-14.5c0.2-1.2-0.7-1.9-2.6-2.1
		c-3.1-0.5-4.2-1.7-6.9-4c-4.4-5.2-9.6-8.5-15.6-9.2c-3.3-0.4-7.9,0.6-11.1,0c-7-0.9-14-3.2-21.4-4.8c-7.4-1.6-14.9-2.2-22-3.5
		c-7.5-1.4-16.3-4.7-25.6-0.8c-20.5,8.5-40.6,14.6-59.5,29.1c-1.6,1-2.5,2-4.4,4c-6,7.8-8.5,7-9.7,8.8c-2.4,2.9,0.1,10.3,3.9,17.2
		c0.4,0.8,1.1,1.4,1.3,2.1c0.4,2.3-1.2,3.3-2.9,4.7c-0.6,0.5-0.9,1.6-1.4,1.9c0.3-0.3,0.3-1,0.7-2.2c0.3-1,0.5-1.8,0.4-2.9
		c-0.2-2.2-1.2-3.1-3.2-5.7c-1.9-2.3-2.9-3-4.5-5.6c-2.6-4.7-0.2-7.1,2.6-10.1c3-2.9,5.9-4.6,10-7.4c4.1-3,2.6-3.5,5.7-6.8
		c3.1-3.3,7-6.2,11.3-8.3c4.3-2.1,7-3.2,9.5-4.6c2.4-1.6,3-2.7,9.3-6.1c6.4-3.4,13.4-3.2,19.6-6c6.2-2.8,7.1-3.6,15.8-5
		s15.6,1.5,21.1,2.2c5.5,0.8,9.8,0.2,19.5,1.9c9.9,1.7,15.8,3.5,21.7,5.1c5.8,1.3,10.8,0.9,15.1,1.6c4.3,0.7,6.5,3.1,10.2,5
		c3.9,2,7.7,7.7,8.2,6.8c0.1-0.4-1.4-3-0.3-4.6c1.2-1.8,2.8-1.5,2.6-2.2c-0.2-0.7-10.5-5.5-18.1-7.9l0.1-0.2l-0.2-0.9
		c0,0-1.1-0.6-2.8-1.5l-0.5,1.6c-1-0.3-2-0.4-3.1-0.5l0.6-2.6c-0.9-0.5-2.1-0.9-3-1.3l-0.9,3.6c-0.8,0-1.5,0-2.3-0.3l1-4
		c-0.6-0.2-1-0.3-1.6-0.5c-0.4-0.1-1-0.3-1.6-0.3l-1,4.6c-1.2-0.2-2.3-0.3-3.1-0.3l0.8-4.7c-1-0.1-2.1-0.2-3.3-0.4l-0.9,4.4
		c-0.8-0.2-1.4-0.2-2.2-0.5l0.9-4.2c-1-0.1-2.3-0.3-3.3-0.4l-1,4c-0.6-0.2-1.2-0.2-2-0.4c-0.4-0.1-0.8,0-1.2-0.2l1.1-3.5
		c-1-0.1-2.3-0.3-3.3-0.4l-0.8,3.4c-0.8,0-1.4-0.2-2.2-0.5l0.6-3.4c-1.2-0.2-2.3-0.3-3.2-0.6l-0.6,3.4c-1-0.1-2-0.4-3.1-0.5l0.4-3.3
		c-0.8-0.2-1.6-0.5-2.2-0.7c-0.4-0.1-0.6-0.2-1-0.3l-0.7,3.8c-0.8-0.2-1.4-0.2-2.2-0.5l0.5-3.9c-1-0.3-2.2-0.5-3.2-0.8l-0.5,3.9
		c-1-0.3-2-0.4-3.1-0.5l0.5-3.9c-1-0.1-2.2-0.5-3.2-0.6l-0.7,3.8c-0.8-0.2-1.4-0.2-2.3-0.3l0,0l0.3-3.8c-1.2-0.2-2.3-0.3-3.3-0.4
		l-0.3,4c-1-0.1-2.1,0-3.2-0.1l0.2-4.2c-1.2-0.2-2.3-0.3-3.3-0.4l-0.3,4.4c-0.8,0-1.5,0-2.4,0.1l-0.6-4.9c-1-0.1-2.1,0-3.4-0.2
		l0.6,5.1c-1.3,0-2.4,0.1-3.2,0.1l-0.7-5.3c-1-0.1-2.1,0-3.4,0l0.6,5.1c-0.6,0-1.5,0-2.3-0.1l-0.6-5.1c-1.1,0.1-2.3-0.1-3.4,0
		l0.6,5.1c-0.9,0.2-2,0.2-3.2,0.5l-0.7-5.5c-0.8,0-1.5,0.2-2.2,0.2c-0.5,0.1-0.8,0-1.1,0.1l0.7,6c-0.5,0.1-0.9,0.2-1.4,0.4
		c-0.3,0.1-0.7,0.2-1,0.3l-2-6.2c-1.1,0.1-2.1,0.4-3.4,0.7l2,6.6c-1,0.3-2.1,0.6-2.9,1l-2.2-6.9c-1,0.3-2.1,0.6-3.1,1.2l2.3,7.1
		c-0.8,0.4-1.5,0.6-2,0.9l-3-6.9c-1,0.3-2,0.9-3.1,1.2l3.2,7.2c-1,0.5-1.8,1-2.8,1.5l-3.1-7.4c-1,0.5-2,0.9-3,1.4l3.3,7.4
		c-0.5,0.3-1.3,0.7-2,0.9l0,0l-3.1-7.4c-1,0.5-2,0.9-3,1.4l3.2,7.2c-1,0.3-1.8,1-2.8,1.5l-3.2-7.2c-0.3,0.1-0.8,0.4-1,0.5
		c-0.8,0.4-1.3,0.7-2,1.1l3.2,7.2c-0.5,0.3-1.3,0.7-1.8,1l-4-6.6c-1,0.5-2,1.1-2.9,1.7l4,6.6c-1,0.5-1.8,1.1-2.8,1.5l-4.2-6.6
		c-1,0.5-2,1.1-2.9,1.7l4.1,6.8c-0.6,0.5-1.3,0.7-1.8,1.1l-4.1-6.8c-1,0.5-2,1.1-2.9,1.7l4.3,6.9c-0.8,0.6-1.9,1.3-2.5,2l-4.5-7.1
		c-1.1,0.7-1.9,1.3-2.7,1.9l4.5,7.6c-0.6,0.5-0.9,1-1.3,1.5l-5.7-7.1c-0.9,0.8-1.5,1.5-2.4,2.3l5.9,7.3c-0.7,0.9-1.4,1.7-2.2,2.3
		l-6.1-7.4c-0.7,0.9-1.6,1.7-2.3,2.5l5.9,7.2c-0.5,0.3-0.9,0.8-1.4,1.1l-6.7-6.1c-0.9,0.8-1.7,1.4-2.6,2.2l6.6,5.8
		c-0.8,0.6-1.7,1.2-2.5,2l-6.4-5.8c-0.9,0.8-1.7,1.4-2.6,2.2l6.6,5.8l0,0c-0.6,0.5-0.9,1-1.3,1.5l-6.6-5.8c-0.7,0.9-1.4,1.7-1.9,2.6
		l6.6,5.8c-0.7,0.9-1.2,1.8-1.7,2.7l-6.6-5.8c-0.5,0.9-1.2,2-1.7,2.9l6.7,6.1c-0.2,0.6-0.5,0.9-0.6,1.3l-7.7-4.1c-0.5,0.9-1,2-1.5,3
		l8.1,4.2c0.5,0.6,1.6,2.4,5,4.1c1.8,1,3.4,1.5,4.8,2.5c2.8,1.9,3.1,2.4,4.1,3.4c0.6,0.8,1.1,1.4,1.1,1.8c0.1,0.3,0,0.6,0.2,0.9
		c-0.6,0-1.7,0.1-2.2-0.5c-0.7-0.6,0-1.5-0.5-1.9c-0.5-0.4-5.2-3.3-7.1-4.1c-1.7-0.7-3.4-2.1-5-2.6l-10.2-5.2c-0.6,1.1-1,2-1.3,3
		l8.5,4.3c-0.4,0.5-0.8,1.3-1,2l-8.3-4.2c-0.6,1.1-1,2-1.3,3l8.1,4.2c-0.5,0.9-1,1.8-1.5,2.8l-8.1-4.2c-0.5,0.9-1,1.8-1.3,3l7.9,4.1
		c-0.3,0.3-0.5,0.9-0.7,1.5l-8.7-2.4c-0.3,1-0.8,1.9-1.1,3.1l8.5,2.4c-0.5,0.9-0.8,1.9-1.3,3l-8.2-2.5c-0.1,0.4-0.2,0.6-0.3,1
		c-0.2,0.8-0.5,1.6-0.7,2.2l8.3,2.3c-0.2,0.6-0.3,1-0.5,1.6c-0.1,0.2-0.1,0.4-0.2,0.6l-8.2-2.5c-0.3,1-0.5,2.2-0.8,3.2l8,2.4
		c-0.4,1.2-0.7,2.2-0.7,3l-7.8-2.4c-0.1,1-0.3,2.3-0.4,3.3l7.6,2.3c0,0.6-0.2,1.2-0.1,1.9l-7.6-1c-0.1,1,0,2.1-0.2,3.4l7.6,1
		c-0.1,1,0,2.1,0.1,3.2l-7.6-1c0.1,1.1,0,2.1,0,3.4l7.6,1c-0.1,0.2,0.1,0.5,0,0.8c-0.1,0.2,0.1,0.5,0.1,0.5l-7.5,0.7
		c0.1,1.1,0,2.1,0,3.4l7.5-0.7c0.1,1.1,0,2.1,0.1,3.2l-7.5,0.7c0.1,1.1,0,2.1,0,3.4l7.5-0.7c0,0.8,0,1.5-0.1,2.3l-7.4,0.5
		c0.1,1.1,0,2.1,0,3.4l7.4-0.5c0.1,1.1,0,2.1,0.1,3.2l-7.2,0.6c0.1,1.1,0.2,2.2,0,3.4l7.2-0.6c0,0.8,0,1.5,0,2.1l-7.2,0.6
		c0.1,1.1,0.2,2.2,0.3,3.3l7-0.4c0.1,1.1,0,2.1,0.1,3.2l-7,0.4c0.1,1.1,0.2,2.2,0.3,3.3l7-0.4c0.1,0.3,0,0.6,0.2,0.9
		c0.1,0.5,0.2,0.9,0,1.3l-7,0.4c0.1,1.1,0.2,2.2,0.3,3.3l7-0.4c0.1,1.1,0.2,2.2,0.3,3.1l-7,0.4c0.1,1.1,0.2,2.2,0.3,3.3l6.8-0.5
		c0,0.6,0.2,1.4,0.2,2l-6.7,1.6c0.2,1.4,0.3,2.6,0.5,3.4l6.7-1.6c0.2,0.9,0.2,2,0.5,3.2l-6.9,1.7c0.1,1.1,0.2,2.2,0.3,3.3l7.1-1.7
		c0.2,0.7,0.2,1.5,0.2,2.2l-7,2.8c0.1,1.1,0.4,2.1,0.7,3.2l6.5-2.5c0.1,1.1,0.2,2,0.5,3.2l-6.1,2.4c0,0-0.1,0.2,0.1,0.3
		c0.3,1,0.7,1.9,1.2,2.9l5.6-2.2c0.2,0.7,0.4,1.4,0.6,2.3l-5.2,2.3c0.3,1,0.9,2,1.4,3.2l5.2-2.3c0.2,0.7,0.6,1.5,1,2.4
		c0.1,0.3,0.1,0.5,0.3,0.5l-5,2.3c0.5,1,0.9,2,1.4,3l4.9-2.1c0.2,0.7,0.6,1.5,0.8,2.2l-4.8,2.4c0.5,1,1.1,2,1.4,3l4.5-2.3
		c0.3,1,0.9,2,1.2,2.9l-4.3,2.1c0.5,1,1.1,2,1.7,2.9l4-2c0.4,0.8,0.6,1.5,1.1,2l-3.9,2.2c0.5,1,1.1,1.8,1.7,2.9l3.8-2
		c0.4,0.8,1,1.8,1.5,2.8l-3.8,2c0.5,1,1.1,1.8,1.7,2.9l3.8-2c0.4,0.8,0.9,1.3,1.1,2l-3.6,2.1c0.5,1,1.1,1.8,1.7,2.9l3.4-2.2
		c0.5,1,1,1.8,1.5,2.8l-3.4,2c0.6,0.8,1,1.6,1.5,2.2c0.1,0.3,0.3,0.3,0.5,0.6l3.2-2c0.4,0.8,1,1.6,1.5,2.2l-2.8,2.1
		c0.8,0.9,1.4,1.7,2.2,2.6l2.5-2c0.6,0.8,1.2,1.7,1.8,2.5l-2.2,1.7c0.8,0.9,1.7,1.6,2.5,2.3l1.7-1.4c0.1,0.3,0.5,0.6,0.6,0.8
		c0.3,0.3,0.5,0.6,0.8,0.9l-1.5,1.3c0.2,0.1,0.2,0.1,0.3,0.3c1.1,0.7,2.2,1.1,3,1.3l0.3-0.3c8.5,8.6,21.3,17,25.5,19.5
		c4.6,3.1,20.2,12.3,35.5,16.1s34.7,8.2,55.1,5c20.4-3.2,28.2-4.2,44.1-11.4C658.8,520.4,686,492.3,695.4,482.3 M518.8,496.7
		c-3.6-6.4-8.5-9.4-13.1-12.5c6.6-2.7,17.9,0.8,22.8-7.4c5.2,0.3,12.3-1,14.9,5.2c-1.4,2.4-2.6,5-3.6,7.5
		C533.4,493.7,524.9,498.4,518.8,496.7 M476.7,330.9L476.7,330.9L476.7,330.9L476.7,330.9z"/>
	<path fill-opacity="0.5" fill="#E8E8E8" d="M452.1,376c-0.2-0.1-0.5,0.1-0.5,0.3c-0.1,0.2,0,0.6,0,0.8c-0.1,0.2,0.1,0.5,0.3,0.5c1,0.3,1.8,0.5,2.8,0.6
		c3.8,0.9,7.7,1.9,11.5,3.5c-1.5,0.8-4,1.8-5.6,2.3l0,0l-0.3,0.1c-0.9,1.6-1.2,4.6-0.9,7.2c-0.1,0.2,0.1,0.3,0.1,0.3
		c0.2,0.1,0.2,0.1,0.4,0.1c1.2-0.5,2.4-0.8,2.9-1.2c0.3-0.1,0.4-0.7,0.5-1.6c0.1-0.4,0.1-1,0.2-1.2c0.3-0.1,1.4-0.4,2.1-0.6
		c0.5-0.1,0.7-0.2,1-0.3c0.5-0.1,0.9-0.2,0.8,0l0,0c-0.9,1.4-1.9,2.8-3.2,4.2c-1.4,1.7-2.9,3.2-3.5,5.1c-0.1,0.2-0.1,0.2,0.1,0.3
		l0,0c0.2,0.1,0.4,0.1,0.4,0.1c1.4-0.4,2.7-0.5,4-0.5l0.5-0.1c0.2,0.1,0.3-0.1,0.3-0.3c2.7-6,7-10.5,13.3-14.1l0.3-0.1
		c0.8-0.4,1.8-1.1,2.6-0.9c0.6,0.2,1.1,0.6,1.4,1.1c0.4,0.8,0.6,2.1,0.7,3.4l0,0.8c0.2,1.5,0.2,3.5,0.9,4.8c0.2,0.7,0.7,1.1,1.4,1.1
		l0,0c1.5-0.2,2.7-2.6,3.5-4.5c0.7-1.5,1.5-3.6,1.8-5.2l0,0c0.1-0.2-0.1-0.5-0.1-0.5c-0.3-0.5-0.7-0.6-1.1-0.6
		c-0.6-0.2-1-0.1-1.1-0.7c7.5-21.7,20.8-37.5,41.6-49.7c0.3-0.1,0.3-0.3,0.2-0.6c-0.1-0.3-0.3-0.3-0.6-0.2
		c-19.6,9.6-34.2,25.3-45,48.1c-1-0.1-2-0.4-3.2-0.8c-1.2-0.4-2.5-0.8-4.8-1.2c-0.8,0-1.8-0.3-2.7-0.4c-4.2-0.9-10.1-2-14.7,1.1
		c-1.8-0.3-3.7-0.5-5.6-0.6C454.2,376.2,453.1,376.1,452.1,376"/>
	<path fill-opacity="0.5" fill="#E8E8E8" d="M523.8,342c-16,12.4-24,25.6-31.3,39c-0.1,0.2-0.1,0.2,0.1,0.5c0,0,0.2,0.1,0.1,0.3
		c2.2,1.3,3.9,2.7,5.6,4.7c0.1,0.3,0.1,0.3,0.4,0.1c0.2,0.1,0.3-0.1,0.3-0.3c7.7-24.6,30.1-45.3,59.7-55.6
		c5.3-1.8,10.3-2.4,15.3-3.2c3.2-0.5,6.3-0.9,9.3-1.7l0.3-0.1c0.1-0.2,0.1-0.2,0.1-0.4c-0.1-0.5-0.4-0.8-0.5-1.2
		c-0.7-1.3-1.2-2.5-0.4-3.7c5.6-0.9,13.4-1.9,14.5-8.4c0.1-0.2-0.1-0.5-0.3-0.5c-0.6-0.2-1.7-0.7-2.4-1.4c-0.1-0.5,0.2-1.2,0.1-1.7
		c0-0.8,0.2-1.2,0-1.5l0,0c-4.4-3.1-9.2-4.9-13.1-5.5c-0.2-0.1-0.4-0.1-0.6-0.2c-1.8-0.3-3.1-0.3-3.4,0l-0.1,0.2
		c-0.1,0.4-0.1,1,0,1.3c0.1,0.3,0.3,0.3,0.5,0.4c0.6,0.2,1.2,0.4,2,0.4s1.6,0.3,2.2,0.5c2.2,0.7,4.6,1.8,5.7,4.3
		c0.1,0.3,0.2,0.7,0.5,1.2c0,0,0,0-0.1,0.2c-1.3,0.9-2.1,1.9-2.6,2.8c-0.4,0.7-0.9,1.4-1.7,2c-1.1,0.9-2.6,1.4-4.2,1.7
		c-1.6,0.4-3.2,0.7-4.6,1.8c-1.1,0.7-1.3,1.5-1.8,2.4c-0.4,0.5-0.6,1.3-1.2,2C558.7,324.2,538.3,330.2,523.8,342"/>
	<path fill-opacity="0.5" fill="#E8E8E8" d="M538.9,439.2c0.1,0.3,0.1,0.3,0.3,0.3c0.2,0.1,14.9,5.8,31.3,3.8c17.3-2,25.9-7.3,26.3-7.6
		c0.3-0.1,0.4-0.5,0.3-1c-0.1-0.3-0.5-0.4-1-0.3c0,0-8.9,5.4-25.7,7.3c-16.2,1.9-30.7-3.8-30.7-3.8c-0.4-0.1-0.6,0-0.8,0.4
		C538.8,438.7,538.7,438.9,538.9,439.2"/>
	<path fill-opacity="0.5" fill="#E8E8E8" d="M533.8,444.5c-0.4-0.1-0.7,0.2-0.8,0.4s-0.1,0.2,0.1,0.5c0.1,0.3,0.3,0.3,0.5,0.4c0.2,0.1,20.4,4.7,38,3
		s31.4-9,31.6-9.2c0.3-0.1,0.4-0.5,0.3-1l0,0c-0.1-0.3-0.5-0.4-1-0.3c0,0-13.8,7.3-31.1,8.9C554,449.1,534,444.5,533.8,444.5"/>
	<path fill-opacity="0.5" fill="#E8E8E8" d="M545.8,433.3c0,0,0.1,0.3,0.3,0.3c0.4,0.1,9,4.9,27.4,2.6c15.1-1.8,23.5-8.2,24-8.5c0.3-0.3,0.4-0.5,0-0.8
		c-0.1-0.3-0.7-0.4-1-0.1c-0.1,0.2-8.6,6.4-23.2,8.1c-18,2.2-26.4-2.3-26.6-2.3c-0.4-0.1-0.6,0-0.9,0.2
		C545.7,432.9,545.8,433.2,545.8,433.3"/>
	<path fill-opacity="0.5" fill="#E8E8E8" d="M647.7,445.2c0.3,0.5,0.7,1.1,1,1.6c0.2,0.1,0.3,0.3,0.4,0.1c0.3-0.1,0.9-0.2,1.4-0.2
		c1.5-0.2,3.4-0.5,3.3-1.8c-0.1-1.9,0.3-3.8,0.4-5.6c0.4-3.5,0.9-7.2,0-11.1c-0.1-0.3-0.3-0.3-0.5-0.4c-1.6,0.4-3.2,0.5-4.7,0.7
		c-4.4,0.6-8.6,1-13.8,3.9c0,0,0,0-0.3,0.1c-5,7.4-11.6,13.6-19.9,19c-0.3,0.1-0.3,0.3-0.2,0.6l0,0c0.1,0.3,0.1,0.3,0.4,0.1
		c1.1-0.1,2.1,0,3,0.1c1.7,0.1,3.2,0.1,5.3-0.7c1.7-0.6,3.4-2.6,5.2-4.6c1.3-1.3,2.6-2.8,4-3.9c1.1-0.7,2.2-1.7,3-2.3
		C641.9,437,644.9,441.1,647.7,445.2"/>
	<path fill-opacity="0.5" fill="#E8E8E8" d="M536.3,468.1c0.5-0.1,1,0.1,1.5,0c1.4,0.2,2.9,0.2,3.5-0.9c0.1-0.2,0.1-0.2,0.1-0.4
		c0.1-0.2-0.1-0.3-0.3-0.3c-0.6-0.2-1.4-0.4-2.2-0.7c-2.3-0.7-5.3-1.6-7.4-1.8c-2-1.7-4.3-2.2-6.8-2.9c-1-0.3-2.2-0.7-3.3-1
		c-0.1-0.3-0.3-0.3-0.5-0.6c-0.3-0.5-0.3-1.2-0.6-1.7c-0.1-0.5-0.3-1-0.4-1.4c0.1-0.2-0.1-0.3-0.1-0.3c-0.2-0.1-0.2-0.1-0.5,0.1
		c-1.8,1-2.7,1.3-3.8,1.8c-3.1-1.6-5.8-4.1-8.5-6.4c-1.2-1-2.3-2.2-3.7-3.3c-1.7-1.4-3.5-0.4-5,0.4c-1.5,0.8-2.9,1.7-4.7,1.4
		c-0.5-0.6-1.1-1.4-1.6-2.4c-0.5-1-1-1.8-1.6-2.4c-0.3-0.3-0.7-0.4-1-0.1l0,0c-0.2-0.1-0.4-0.1-0.5,0.1c-0.3,0.1-0.1,0.4-0.1,0.4
		c0.6,1.5,1.1,2.7,1.6,3.9c1,2.4,2,4.7,2.6,7c-0.1,0.2,0.1,0.3,0.3,0.3c1.6,0.5,3.2,0.8,4.8,1.2c4.2,1.1,8.5,2.2,12.5,3.8
		c0.7,0.4,1.3,1.5,1,2.2c-2.3,3.4-6.4,1.5-9.4,0.1l-0.6-0.2c-1.3-0.6-3-1.3-4.5-2.2c-0.9-0.5-2-1-3.1-1.6c-0.4-0.1-0.9-0.5-1.7-0.7
		c-2.2-1.1-5.8-2.8-6.3-3.8c0,0,0,0-0.1-0.3c1-3.3,0.5-7.3-1.8-12.3c-1.4-3-4.1-5.5-8.2-7.6c-2.7-12.3-0.2-24,7.8-35.5
		c0.1-0.2,0.1-0.2,0.1-0.4c-0.1-0.3-0.3-0.5-0.4-0.8c-0.3-0.3-0.4-0.8-0.7-1.3c-0.2-0.7-0.5-1.2-0.6-1.5c0.1-0.2-0.1-0.3-0.3-0.3
		s-0.5,0.1-0.5,0.3c-0.4,0.7-0.6,1.3-0.8,1.9c-0.3,1-0.5,1.8-1.3,2.8c-1.3,1.5-2.9,3.2-5,5.1c-0.6,0.5-0.9,0.8-1.4,1.1
		c-1.1,0.7-2.4,1.6-3,3.6c-0.4,1.2-0.3,3.8-0.3,7.4c0,6.4,0.1,15-2.1,20.9c-0.1,0.2-0.1,0.4,0.1,0.5s0.2,0.1,0.4,0.1
		c4.6-1,9.6,1.4,11.9,6c0.6,1.5,1.2,3.1,1.4,4.7c0.3,3.9-2,6.6-4.2,8.3c-0.1,0.2-0.1,0.2-0.1,0.4c0,0-0.1,0.2,0.1,0.3
		c0,0,0,0,0.2,0.1c3.8,2.9,6.2,5.5,7.4,7.8c0.8,1.5,1,3.1,0.8,4.3c-0.1,0.2-0.1,0.2,0.1,0.5c0.5,0.6,1.5,0.7,2.1,0.9
		c0.2,0.1,0.2,0.1,0.2,0.1c0.2,0.1,0.5-0.1,0.5-0.3c0.4-0.5,1-2,1.3-2.2c3.9-0.1,7.1,1.3,10.2,2.5c2.3,0.9,4.8,1.9,7.2,2.2
		c2.1,0.2,4.9-0.6,7.2-1.2c1.4-0.2,2.9-0.4,4.3-0.6c2.2-0.2,3.5-0.4,4.2-1.1c0.1-0.2,0.1-0.2,0.1-0.4s-0.1-0.3-0.3-0.3
		c-0.2-0.1-0.4-0.1-0.6-0.2c-1.7-0.7-3.6-1.5-4.5-2.9c2.4-0.1,10.1-0.1,15-0.1C534.1,468.1,535.6,468.1,536.3,468.1"/>
	<path fill-opacity="0.5" fill="#E8E8E8" d="M565.3,426.7c-0.4-0.1-0.7,0.2-0.8,0.4c-0.1,0.2-0.1,0.4,0.1,0.5c0.1,0.3,0.3,0.3,0.3,0.3
		c0.4,0.1,7.3,2,17-0.4c9.7-2.4,14.5-6.9,14.6-7.3c0.3-0.3,0.2-0.8,0-0.8c-0.3-0.3-0.8-0.2-0.8,0c0,0-4.8,4.5-14,6.8
		C572.2,428.6,565.3,426.7,565.3,426.7"/>
	<path fill-opacity="0.5" fill="#E8E8E8" d="M573.5,418.7c-0.4-0.1-0.6,0-1,0.3c-0.1,0.2-0.1,0.4,0,0.6c0.1,0.3,0.1,0.3,0.3,0.3c0.2,0.1,3,1.3,7.8,0.4
		c3.9-0.7,6.7-3.1,6.7-3.1c0.3-0.3,0.4-0.7,0.1-1c-0.1-0.3-0.5-0.4-0.8,0c0,0-2.6,2.2-6.2,2.8C576.1,419.9,573.5,418.7,573.5,418.7"
		/>
	<path fill-opacity="0.5" fill="#E8E8E8" d="M636.8,429c-0.4-3.7-1.4-7.9-3.8-13.5c0.1-1.9,0-3.6,0-5.6c0-2.1-0.2-4.3,0.1-6.6c0-1.3,0.2-2.7,0.3-4
		c0.2-2.9,0.8-6.2-0.2-8.6c-0.8-2.4-3.8-3.7-6.5-5.2c-2-1-4.3-2.2-5.2-3.3c-1.1-1.4-2.1-3-2.9-4.5c-1-1.8-1.6-3.7-2.5-5.7
		c-0.8-2.2-1.7-4.4-2.9-6.7c-0.8-1.5-1.7-2.9-2.6-4.2c-0.1-1.7,0-3.6,0.1-5.3c0.2-3.4,0.4-6.9-1-10.8c0.1-0.2-0.1-0.3-0.1-0.3
		c-1.4-0.4-2.5-1-3.9-1.4c-4.3-1.3-8.9-2.9-11.4-6.9c0,0,0,0-0.1-0.3c-0.9-0.7-1.8-1.2-2.5-1.6c-1.8-1.2-3.4-2.3-5-4.1
		c-0.2-0.9-0.2-1.5,0.1-2.3l0.1-0.2c0.1-0.2-0.1-0.3-0.3-0.5c-0.2-0.1-0.4-0.1-0.5,0.1c-0.3,0.3-0.8,0.6-1.5,0.6
		c-1,0.3-2,0.9-2.2,1.7c-0.1,0.2,0.1,0.5,0.3,0.5c2,1,3.4,2.8,4.8,5.3c0.5,1.2,1,2.2,1.6,3.7c0.5,1.2,1.2,2.5,1.6,3.7
		c0,0,0.1,0.3,0.3,0.3l0.6,0.2c4.3,0.7,11.4,1.8,13.7,6.3l0.1,0.3c1.4,3,0.1,6.7-1.5,10c-0.6,0-1.5,0.2-2.3,0.4s-1.4,0.4-2.1,0.4
		l0,0c-2-3.8-5-4.5-8-4.8c-0.2-0.1-0.5,0.1-0.5,0.3c-0.6,1.1-1.5,2.8-2.6,3c-0.7,0.2-1.3,0-1.8-0.3c-0.2-0.1-0.2-0.1-0.5,0.1
		c-0.3,0.1-0.3,0.1-0.1,0.4c0,0.6,0,1.5,0,2.1c0,1.3-0.1,2.5,0.2,3.7l0,0c0,0,0.2,0.1,0.1,0.3c1.4,0.9,3.9,1.2,5.8,0.7
		c1.4-0.4,2.6-1.4,3.1-2.5c7.4-0.5,13.5,3.3,17.6,11.1c0.8,1.5,1.4,3.2,2.1,4.9c2,5.5,0,10.7-1.7,15.5c-0.9,2.1-1.4,4-1.8,6.1
		l-0.1,0.2c0.1,0.3,0.5,1,0.9,2c0.3,0.5,0.5,1,0.7,1.3c0.7,1.3,0.9,2,0.9,2.6c-0.1,0.2,0.1,0.3,0.3,0.3c0.2,0.1,0.5-0.1,0.5-0.1
		c1.7-2,1.7-5,1.7-7.8c-0.1-2.6,0-4.9,1.1-6.5c0.9-1.4,2.1-2.1,3.4-2.2c2.5,0.1,5.5,3,7.6,6.8c0.7,1.3,1.2,2.5,1.4,3.8
		c0,4.1-3.3,7.3-5.8,10l0,0c-0.1,0.2-0.1,0.2-0.1,0.4c-0.1,0.2,0.1,0.3,0.1,0.3c2.4,1.2,5.2,4.8,7.7,9.2c0.5,1,1,2.2,1.6,3.3
		c0.3,0.5,0.3,1.2,0.4,1.6c0.2,0.7,0.2,1.4,0.4,2.1c0.4,0.8,0.9,1.1,1.8,1c0.2,0.1,0.2,0.1,0.3-0.1C637,429.3,637,429.3,636.8,429"
		/>
	<path fill-opacity="0.5" fill="#E8E8E8" d="M499.7,422.5c-0.1,0.2-0.1,0.2,0.1,0.3c0,0,0.2,0.1,0.1,0.3c1.7,0.7,3,2.2,4.2,4.5c0.7,1.3,1.3,2.7,1.9,4.2
		c0.6,1.5,1.2,3.1,2,4.7c1.1,2,2.3,3.7,3.7,4.8c0.2,0.1,0.4,0.1,0.4,0.1l2.3-1.2c0.3-0.1,0.3-0.3,0.2-0.6l0,0
		c-0.8-1.5-1.8-2.5-2.8-3.4c-0.8-0.9-1.7-1.6-2.2-2.6c-0.3-0.3-0.4-0.8-0.7-1.3c-0.8-1.5-1.3-3.4-1.9-5.1c-0.6-1.7-0.9-3.3-1.7-4.8
		s-1.6-2.6-2.8-3.4l-0.2-0.1C500.6,418.9,499.9,421.3,499.7,422.5"/>
	<path fill-opacity="0.5" fill="#E8E8E8" d="M657.2,426c-0.3-0.5-1.6-0.5-1.2,0.3c1.4,2.4,2,4.7,1.6,7.3c-0.2,0.6,1.2,1,1.2,0.2
		C659.5,431.2,658.8,428.6,657.2,426"/>
	<path fill-opacity="0.5" fill="#E8E8E8" d="M662.8,365.5c8.7-5.3,8-11.5,5.7-16l-0.1-0.3c-1.5-2.8-3.7-4.8-6.4-5.6c-2.9-0.9-6.3-0.4-9.1,1.1
		c-5.1,2.7-8.6,10-10.5,13.3c-0.4,0.5-0.5,0.9-0.6,1.3c-1,2-2.4,2.3-2.8,2.3c-0.5,0.1-1.7-0.7-2-1.2c-0.1-0.3-0.3-0.5-0.4-0.8
		c-0.1-0.3-0.1-0.3-0.3-0.3c0,0,0,0-0.1-0.3c-0.1-0.3-0.5-0.6-0.7-0.4c-0.3,0.1-0.5,0.3-0.5,0.3c-0.3,0.1-0.3,0.1-0.3,0.3
		c-0.3,0.1-0.1,0.4,0.2,0.9c0.1,0.3,0.1,0.3,0.3,0.5c0.1,0.3,0.1,0.3,0.3,0.5c0.3,0.5,1.5,2.8,2.6,4.8c0.8,1.5,1.6,3.1,1.8,3.3
		c0,0-0.1,0.2,0.1,0.3c0,0,0.1,0.3,0.3,0.5c0.3,0.5,0.5,1,1,0.9c0.3-0.1,0.8-0.4,0.8-0.6c0.1-0.2,0.1-0.4,0-0.6c0,0,0,0-0.1-0.3
		c-0.3-0.5-0.5-1-0.3-1.8c0.3-1,0.7-1.5,1.9-2.2c1.3-0.7,2.4-0.8,4.6-0.3c1.4,0.2,2.9,0.2,4.2,0.4c0.6,0,1.2,0.2,1.6,0.3
		c1,0.1,2,0.4,2,0.4l0,0c0,0,0.5-0.1,0.7-0.9c0.1-0.2,0.1-0.4,0.2-0.6c0.1-0.4,0.2-0.6,0-0.8c0,0,0,0-0.2-0.1c0,0-0.2-0.1-0.4-0.1
		c-1-0.3-3.9-1.2-5.9-4.6l-0.1-0.3c-1.9-3.6-1.1-9.1,3.3-11.6c2.1-1.3,4.5-1.4,6.6-0.8c2.2,0.7,4,2.3,5.1,4.3
		c0.1,0.3,0.1,0.3,0.3,0.5c2.3,5,0.6,9.8-3.9,12.7c-0.8,0.4-1.3,0.9-0.9,1.4l0.1,0.3c0.2,0.1,0.1,0.3,0.1,0.3
		c0.5,0.6,0.6,0.8,1.7,0.1C662.5,365.7,662.5,365.7,662.8,365.5"/>
	<path fill-opacity="0.5" fill="#E8E8E8" d="M658.3,420.2c1.6,3.1,2.6,6.3,2.6,9.8c0,0.6,1.3,0.8,1.3,0c0-3.6-0.9-6.9-2.7-10
		C659.4,419.4,658.1,419.7,658.3,420.2"/>
	<path fill-opacity="0.5" fill="#E8E8E8" d="M655,405.3c3.6,1.5,6.7,4.6,7.4,8.7c0,0.6,1.3,0.8,1.3,0c-0.6-4.3-4.2-7.9-8.2-9.6
		C654.7,404.1,654.2,405,655,405.3"/>
	<path fill-opacity="0.5" fill="#E8E8E8" d="M653.4,402c4.5,0.7,8.4,2.6,11.2,6.2c0.6,0.8,1.4-0.4,0.7-1.1c-3.1-3.9-7.4-5.9-12.3-6.7
		C652.3,400.2,652.6,402,653.4,402"/>
	<path fill-opacity="0.5" fill="#E8E8E8" d="M665.6,404.7c0.8,0.9,1.4-0.4,0.7-1.1c-3.2-3.5-8.2-5.5-12.7-6c-1-0.1-0.4,1.4,0.2,1.5
		C658.1,399.8,662.7,401.6,665.6,404.7"/>
	<path fill-opacity="0.5" fill="#E8E8E8" d="M647.6,336.8c-1.7,3.5-2.2,7.2-1.5,11.1c0.2,0.9,1.6,0.3,1.5-0.6c-0.8-3.7-0.2-7.1,1.3-10.5
		C649.6,335.9,648.1,335.9,647.6,336.8"/>
	<path fill-opacity="0.5" fill="#E8E8E8" d="M657.7,413.8c2.3,2.2,3.6,5.1,3.7,8.2c0,0.6,1.3,0.8,1.2,0.2c-0.2-3.5-1.7-6.5-4.1-8.9
		C658.1,412.6,657.1,413.2,657.7,413.8"/>
	<path fill-opacity="0.5" fill="#E8E8E8" d="M650.1,343.3c0,0.8,1.6,0.5,1.6-0.4c-0.1-2.4,0.4-4.8,1.9-6.9c0.7-0.9-1-0.9-1.4-0.4
		C650.8,338.2,650.1,340.7,650.1,343.3"/>
	<path fill-opacity="0.5" fill="#E8E8E8" d="M615.1,304c-4.5-6.3-16.9-15.4-20.8-15.9c-0.2-0.1-0.5,0.1-0.5,0.3c0,0-0.1,0.2,0.1,0.3l0.1,0.3
		c4.2,1.7,14.1,9,20.5,15.6c0.1,0.3,0.4,0.1,0.6,0.2C615.2,304.2,615.3,304.1,615.1,304"/>
	<path fill-opacity="0.5" fill="#E8E8E8" d="M590.2,296.6c0,0-0.1,0.2,0.1,0.3c0,0,0.1,0.3,0.3,0.3c5.4,1.2,13.5,5,18.5,8.2c0.2,0.1,0.4,0.1,0.5-0.1
		s0.1-0.4,0-0.6c-3.4-2.8-13.9-8.3-18.8-8.3C590.5,296.3,590.2,296.4,590.2,296.6"/>
	<path fill-opacity="0.5" fill="#E8E8E8" d="M671.5,334c-3.1,1.6-6.5,2.9-8.4,6c-0.7,0.9,0.7,1.1,1.4,0.4c1.7-2.7,4.8-3.9,7.6-5.2
		C672.6,334.8,672.6,333.5,671.5,334"/>
	<path fill-opacity="0.5" fill="#E8E8E8" d="M538.6,470.1c0.1,0.3,0.9,0.5,2.7,1c1,0.3,2.5,0.8,2.7,1l0,0c0,0-0.1,0.2-0.2,0.6c-0.3,0.1-0.4,0.5-0.2,0.8
		c0.1,0.3,0.1,0.3,0.3,0.3c0,0,0,0,0.2,0.1c1.1-0.1,2.7-0.5,4.4-1c1.9-0.5,4-1.1,5.5-1.3c1.8-0.3,4.1-0.2,6.5-0.2
		c3,0.1,6,0.1,8.9-0.5c1.8-0.3,3.4-0.7,5.3-1.2c5-1,10.4-2,14.9-3.4c0,0,0.2,0.1,0.3-0.1c0.1-0.2,0.1-0.4,0.2-0.6
		c-0.1-0.3-0.3-0.3-1.4-0.2c-0.5,0.1-0.9,0.2-1.3,0c-1.3,0-2.3-0.3-3.3-0.4c-1.4-0.2-2.6-0.6-4.2-0.2c-9.5,1.8-19.4,2-27.9,0.5
		c-0.2-0.1-0.2-0.1-0.5,0.1c-0.6,0.7-0.6,1.3-0.5,1.8s-0.1,1-0.4,1.4c-1.3,0-3,0.1-4.7,0.1c-2.2,0.2-4.5,0.1-6.5,0.2
		c0,0-0.2-0.1-0.3,0.1C538.6,469.6,538.5,469.8,538.6,470.1"/>
	<path fill-opacity="0.5" fill="#E8E8E8" d="M585.9,298.1c-0.1,0.2-0.1,0.2,0.1,0.3l0.1,0.3c1.2,0.4,2.3,0.7,3.9,1.2c5.5,1.7,12.8,4.1,18.2,7.7
		c0.2,0.1,0.4,0.1,0.5-0.1l0,0l0.3-0.1c0,0,0.1-0.2-0.1-0.5c0,0,0,0-0.1-0.3c-7-4.3-15-7.6-22.5-8.8
		C586,297.7,585.9,297.9,585.9,298.1"/>
	<path fill-opacity="0.5" fill="#E8E8E8" d="M643.4,338.7c-1.8,4.4-1.6,9.5-0.4,14c0.2,0.7,1.8,0.3,1.6-0.4c-1.3-4.2-1.2-9.3,0.4-13.3
		C645.3,338,643.6,337.9,643.4,338.7"/>
	<path fill-opacity="0.5" fill="#E8E8E8" d="M639.8,340.1c-1.9,4.8-1.9,9.7,0.5,14.5c0.5,1,1.6,0.3,1-0.5c-2.2-4.1-2.1-8.5-0.3-12.9
		C641.2,340.4,640.1,339.2,639.8,340.1"/>
	<path fill-opacity="0.5" fill="#E8E8E8" d="M634.7,344.8c-0.1,2.3-0.1,4.5,0.5,6.8s1,5,2.3,7.1c0.4,0.8,2,0.6,1.4-0.4c-1.1-1.8-1.5-4.7-2.2-6.9
		s-0.6-4.3-0.6-6.6C636.4,344.2,634.6,343.9,634.7,344.8"/>
	<path fill-opacity="0.5" fill="#E8E8E8" d="M654,379.1c-2.6-0.6-5.1-1.4-7.4-2.9c-1.6-1.1-3-2.8-4.9-3.6c-0.9-0.5-0.9,1-0.2,1.4
		c2.2,1.1,3.9,3.3,6.3,4.7c2,1,4.2,1.7,6.4,2.2C655.2,380.7,654.8,379.1,654,379.1"/>
	<path fill-opacity="0.5" fill="#E8E8E8" d="M624.3,361.5c-2.8-2.8-6.3-4.7-10-5.6c-1-0.3-0.8,1.3-0.2,1.4c3.3,1,6.9,2.5,9.3,5.2
		C624.2,363.2,624.9,362.1,624.3,361.5"/>
	<path fill-opacity="0.5" fill="#E8E8E8" d="M626.2,366.4c-3-2.8-6.2-4.9-10.1-6.3c-0.8-0.2-1.8,1-0.8,1.2c3.5,1.3,6.7,3.3,9.3,6
		C625.4,367.6,626.7,366.7,626.2,366.4"/>
	<path fill-opacity="0.5" fill="#E8E8E8" d="M618.2,370.3c5.4,2.5,11.2,6.6,15,11.2c0.6,0.8,1.2-0.5,0.7-1.1c-3.9-4.8-9.8-9.2-15.5-11.6
		C617.5,368.4,617.4,370.1,618.2,370.3"/>
	<path fill-opacity="0.5" fill="#E8E8E8" d="M622.3,356.6c-1.9-2.7-5-4.7-8.2-5.5c-1-0.3-0.8,1.2,0,1.3c2.8,0.6,5.4,2.5,7.1,4.7
		C621.9,358.2,622.9,357.5,622.3,356.6"/>
	<path fill-opacity="0.5" fill="#E8E8E8" d="M630,373.5c-3.9-4-8.2-7.4-13.2-10c-0.7-0.4-1.9,0.7-1,1.2c4.8,2.5,9.1,6,12.8,9.9
		C629.4,375,630.6,374.3,630,373.5"/>
	<path fill-opacity="0.5" fill="#E8E8E8" d="M642.1,390.7c-6.2-6.4-13.6-12.3-21.6-16.2c-0.9-0.5-1.7,0.6-0.6,1.1c7.8,3.9,15.1,9.5,21.2,15.9
		C641.9,392.1,642.9,391.5,642.1,390.7"/>
	<path fill-opacity="0.5" fill="#E8E8E8" d="M524.9,440.7c0,0,0.1-0.2,0.1-0.4c-0.2-0.9-0.4-1.6-0.8-2.4c-1.1-2-3.3-3.3-5.2-4.6c-1.6-0.9-3.1-1.8-4.2-3
		c-1-0.9-1.5-2-2.1-3c-1.4-2.6-1.5-4.9-1.7-7.8c-0.1-1.1-0.1-1.9-0.3-3.1c0.1-0.2-0.1-0.3-0.3-0.3c-0.8-0.2-1.6-0.3-2.7-0.2
		c-0.6,0-1-0.1-1.7-0.1c-0.2-0.1-0.2-0.1-0.3,0.1c-0.1,0.2-0.1,0.2-0.1,0.4c0.1,2.4,1,5,2.6,8.3c1,1.8,1.9,3.6,3.1,5.4
		c1,1.6,1.8,3.1,2.6,4.7c0.9,2,1.5,3.5,1.7,4.8c0,0,0,0-0.1,0.2c0.1,0.3,0.1,0.3,0.4,0.1c1.7-0.1,3.8,0.3,5.5,0.8
		c1,0.3,2,0.4,3.1,0.5C524.7,440.8,524.9,440.7,524.9,440.7"/>
	<path fill-opacity="0.5" fill="#E8E8E8" d="M563.5,422.7c0.3-0.1,0.1-0.4,0.2-0.6c-0.1-0.3-0.3-0.3-0.6-0.2c-6,2.2-10.6,1.9-15.8-0.8
		c-0.3-1.2-0.8-2.4-1.3-3.4c-1.2-2.3-2.8-4.1-4.4-5.8c-1.8-1.8-3.5-3.9-4.8-6.6c0-4.3,3.4-9,6.5-12.1c0.1-0.2,0.1-0.4-0.1-0.5
		c-0.1-0.3-0.3-0.3-0.4-0.1c-3.5,1.1-6.6,3.5-8,6.5c-1.2,2.6-2.3,3.4-3.1,4c-0.6,0.5-1.1,0.7-1.1,1.6c0,0.6,0,1.3,0.6,2.1
		c1.1,2,3.4,5.1,5.6,7c0.3,0.3,0.8,0.9,1.1,1.2c2.3,2.2,4.8,4.7,6.5,8c0.2,0.7,0.7,1.3,0.9,2c0,0,0.1,0.3,0.3,0.3
		C550.5,426.9,556.8,427.9,563.5,422.7"/>
	<path fill-opacity="0.5" fill="#E8E8E8" d="M640.6,380.8l-0.7-0.4c-3.7-2.6-8.8-8.9-11.1-15.6c-2-6-0.9-11.8-4.3-17.5c-0.2-0.1-0.1-0.3-0.3-0.3
		c-0.6,0-1.2-0.2-1.8,0.3c0.4,1.6,1.4,3,1.8,4.6c1.6,5.2,0.9,11,3.2,16.1c2.8,6.4,7.2,11.6,12.8,15.6c0.5,0.4,0.7,0.4,1.2,0.4
		c0.1-0.2,0.2-0.6,0-0.8C641.4,382.5,640.9,381.3,640.6,380.8"/>
	<path fill-opacity="0.5" fill="#E8E8E8" d="M598.1,324c-3-0.7-6.2-0.8-9.2,0.2c-1,0.3-0.7,1.5,0.3,1.2c2.6-0.9,5.6-0.9,8.4-0.2
		C598.3,325.4,599.1,324.1,598.1,324"/>
	<path fill-opacity="0.5" fill="#E8E8E8" d="M604.3,328.3c-4.2-1.5-8.8-1.4-13-0.1c-0.9,0.2-0.1,1.9,0.6,1.5c4-1.3,8.4-1.5,12.4-0.1
		C605,330,605,328.5,604.3,328.3"/>
	<path fill-opacity="0.5" fill="#E8E8E8" d="M609.5,333.7c-4.4-2.4-9.9-3.2-14.9-1.7c-1,0.3-0.2,1.4,0.7,1.1c4.2-1.3,9.2-0.6,13.2,1.7
		C609.3,334.9,610.4,334.2,609.5,333.7"/>
	<path fill-opacity="0.5" fill="#E8E8E8" d="M579.4,327.8c-2.8,0.2-8.8,1.4-10.9,2c-16.5,4.4-34,14-45.7,25c-7.8,7.3-14.6,17.1-19.1,26.9
		c-3.4,7.7-6,14.6-7.6,22.3c0,0-1.6,6.6-1.2,7.3l0,0c0.3,0.5,1.1,0.7,1.7,0.7c0.2,0.1,0.8,0,1.2-0.5l0.1-0.2
		c0.8-7.7,3.8-15.3,6.7-22.7l0.7-1.5c8.8-22.7,29-41.8,54.1-51.3c7.9-2.9,16.6-4.6,21-5.1c0.3-0.1,0.5-0.3,0.6-0.5
		c0.1-0.4,0.1-1-0.2-1.5C580.4,328.1,580.1,327.7,579.4,327.8"/>
	<path fill-opacity="0.5" fill="#E8E8E8" d="M604.8,453.7c0.3-0.1,0.6-0.5,0.3-1c-0.1-0.3-0.5-0.6-1-0.3c-0.3,0.1-18.4,7.7-39.4,8.1
		c-26.9,0.6-46.7-10.2-46.9-10.2c-0.4-0.1-0.8,0-1,0.3c-0.1,0.2-0.1,0.4,0,0.6c0,0,0.1,0.3,0.3,0.3c0.2,0.1,20.4,10.9,47.5,10.4
		C586.1,461.5,604.5,453.8,604.8,453.7"/>
	<path fill-opacity="0.5" fill="#E8E8E8" d="M613.5,346.9c-0.8,0-0.7,1.5-0.1,1.7c3.1,0.5,5.8,2,7.9,4.3c0.6,0.8,1.1-0.7,0.6-1.3
		C619.9,349.1,617,347.5,613.5,346.9"/>
	<path fill-opacity="0.5" fill="#E8E8E8" d="M617.2,339.9c-5.9-3.1-12.4-6.3-19.3-4.8c-0.7,0.2-0.3,1.6,0.6,1.5c6.6-1.4,12.7,1.7,18.2,4.7
		C617.9,341.8,617.9,340.3,617.2,339.9"/>
	<path fill-opacity="0.5" fill="#E8E8E8" d="M620,345.3c-4.6-3.8-10.5-6.2-16.5-6.7c-0.8,0-0.9,1.4-0.1,1.7c5.8,0.5,11.4,2.6,15.8,6.3
		C620.3,347.3,620.8,345.7,620,345.3"/>
</g>
</svg>
