<?xml version="1.0" encoding="utf-8"?>
<!-- Generator: Adobe Illustrator 17.1.0, SVG Export Plug-In . SVG Version: 6.00 Build 0)  -->
<!DOCTYPE svg PUBLIC "-//W3C//DTD SVG 1.1//EN" "http://www.w3.org/Graphics/SVG/1.1/DTD/svg11.dtd">
<svg version="1.1" id="Слой_1" xmlns="http://www.w3.org/2000/svg" xmlns:xlink="http://www.w3.org/1999/xlink" x="0px" y="0px"
	 viewBox="0 0 219.4 273.9" enable-background="new 0 0 219.4 273.9" xml:space="preserve">
<g>
	<path fill="#E8E8E8" d="M94.7,191.7c0.4,0.2,0.7,0.4,1.1,0.7c4.1-4.5,6.1-10,7.3-16c-0.4-0.3-0.7-0.5-1-0.6
		C101,181.8,98.9,187.3,94.7,191.7"/>
	<path fill="#E8E8E8" d="M98.1,193.7c3.5-4.5,5.9-9.6,7.2-15.3c-0.1-0.1-0.2-0.2-0.2-0.3c-0.2-0.2-0.5-0.5-0.8-0.8
		c-1.3,5.8-3.6,11.1-7.3,15.7C97.3,193.3,97.7,193.5,98.1,193.7"/>
	<path fill="#E8E8E8" d="M92.4,187.4c3-2.6,4.5-5.1,5.7-7.9c0.9-2,1.2-2.4,1.4-2.7c-1,5.1-3,10.1-6.6,13.8c0.4,0.2,0.8,0.5,1.2,0.7
		c3.9-4.1,6-10,6.9-15.7c0.2-0.1,0.3-0.1,0.5-0.1c0.3,0,0.8,0.3,1.3,0.6l-1.8-1.7c0,0-0.1,0.1-0.1,0.1c-4.1,4.3-10.6,9.5-13.7,12.6
		l3.5,2C91,188.9,91.4,188.3,92.4,187.4"/>
	<path fill="#E8E8E8" d="M68.3,191.5c-5.1-4-10.8-8-15.6-11.3c0.5,0.5,8.4,12.3,10.6,16.3C64.5,195.2,67.1,193.1,68.3,191.5"/>
	<path fill="#E8E8E8" d="M84,241.8c-0.3-0.9-10.8-26.5-11.5-28.2l0,0c-5.1-8.2-22.7-35.2-22.7-35.3c-0.6-0.5-3.4-2.6-6-4.7
		c-0.5,0.4-0.9,0.9-1.2,1.2c3.1,4.6,25.5,38.6,27,41.4c1.7,3.5,10.9,25.1,12,27.9C82.1,243.9,83.3,242.5,84,241.8"/>
	<path fill="#E8E8E8" d="M105.8,179.6c-0.4,2.4-1,4.7-1.9,6.9c-1.2,2.9-2.8,5.5-4.6,7.9c0.4,0.2,0.8,0.5,1.2,0.7
		c1.9-2.5,3.4-5.1,4.7-8c0.8-1.8,1.3-3.7,1.7-5.6c0.2,0.3,0.3,0.6,0.5,0.9c-0.5,1.9-1,3.8-1.8,5.6c-1,2.6-2.2,5.4-3.8,7.8
		c0.4,0.2,0.8,0.5,1.2,0.7c1.3-2.1,2.3-4.3,3.2-6.5c0.8-2,1.5-4,2.1-6c0,0.1,0.1,0.1,0.1,0.2c0.2,0.4,0.5,0.7,0.6,1
		c-0.4,2-1.1,3.9-1.8,5.9c-0.8,2.1-1.7,4.3-3,6.2c0.4,0.2,0.7,0.4,1.1,0.6c1.2-1.9,2.2-3.9,3-6c0.6-1.6,1.2-3.3,1.7-5
		c0.2,0.3,0.3,0.5,0.4,0.8c-0.8,3.8-2.5,7.3-4.7,10.6c0.4,0.2,0.7,0.4,1,0.6c2-2.9,3.7-6.1,4.6-9.6c0,0.1,0.1,0.2,0.1,0.2
		c0.1,0.1,0.2,0.3,0.3,0.4c-0.7,3.4-1.9,6.8-3.9,9.5c0.5,0.3,1,0.5,1.2,0.7c1.7-2.4,2.8-5.4,3.6-8.4c0.1,0.3,0.2,0.7,0.3,1.1
		c-0.7,2.7-1.8,5.3-3.2,7.6c0.4,0.2,0.7,0.2,1-0.1c-0.1,0.2-0.2,0.3-0.3,0.4l9.4,5.5l0-13.8l-14.5-13.9
		C105.5,178.9,105.7,179.2,105.8,179.6"/>
	<path fill="#E8E8E8" d="M113.3,150.6c-7.3-6.3-12.7-7.9-16.2-9.2c-3.5-1.3-6.1-2-13.5-3.3c-7-1.2-13-2.5-15.6-2.5
		c-2.7,0-12.3,2.2-19.1,4.1c-6.8,1.9-15.7,8.2-20,12c-4.4,3.8-13.6,15.8-16.9,21.3c-3.3,5.6-3.9,6.4-4,6.9c0.4,0,2.1-1.1,2.5-1
		c0.3,0.1-0.6,1.2-1.2,2.1c-1.3,2-2.9,7.9-4.5,13.3c-1.5,5.4-2.1,12-0.9,17.8c1.2,5.7,4.6,12.4,6.4,15.6c1.8,3.2,6.1,11.8,7.8,16.3
		c1.7,4.5,6.3,9.1,7.3,10.1c0.9,1,2.3,0.4,3.6,0.8c1.3,0.4,2.9,2.4,3,2.8c0.1,0.5-2.1-0.7-3.8-1.3c-1.7-0.6-3.3-1.7-6.1-5
		c-2.8-3.3-5.3-8-6.2-9.9c-0.9-1.9-4.5-9.4-7.7-15.2c-3.2-5.9-5.6-15.8-6-19.1c-0.4-3.3,1.2-10.2,2.3-13.6c1-3.4,2.9-10.4,2.9-10.4
		l-0.9-1.2c0,0-2.4,7.6-3.7,11.3c-1.3,3.7-1.4,7.2-1.6,13c-0.1,2.1,0.1,4,0.3,5.7L0,212.2c0.1,0.5,0.1,1.1,0.2,1.6l1.4-0.3
		c0.1,0.5,0.2,1,0.4,1.5l-1.4,0.3c0.1,0.5,0.2,1.1,0.3,1.6l1.6-0.4c0.1,0.3,0.2,0.7,0.3,1L1,218c0.1,0.5,0.2,1.1,0.4,1.6l1.9-0.4
		c0.1,0.2,0.1,0.3,0.2,0.5c0.1,0.3,0.3,0.7,0.4,1c0,0,0,0,0,0l-2,0.4c0.2,0.5,0.3,1,0.5,1.6l2.2-0.5c0.1,0.3,0.3,0.7,0.4,1l-2.1,1
		c0.2,0.5,0.4,1,0.5,1.6l2.2-1.1c0.2,0.5,0.4,0.9,0.7,1.4l-2.3,1.2c0.2,0.5,0.4,1,0.6,1.5l2.4-1.2c0.2,0.3,0.3,0.7,0.5,1L5,229.8
		c0.2,0.5,0.5,1,0.7,1.5l2.5-1.2c0.2,0.5,0.5,0.9,0.7,1.4l-2.5,1.2c0.2,0.5,0.5,1,0.7,1.5l2.5-1.2c0,0,0,0.1,0,0.1
		c0.2,0.3,0.3,0.6,0.5,0.9l-2.5,1.4c0.2,0.5,0.5,1,0.8,1.5l2.5-1.4c0.2,0.4,0.5,0.9,0.8,1.4l-2.5,1.5c0.3,0.5,0.5,1,0.8,1.4l2.5-1.5
		c-0.1-0.3-0.3-0.6-0.4-0.9c2,3.5,4.5,7.7,6,10c0.8,1.3,2,3.1,3.3,5c-0.1-0.2-0.3-0.3-0.4-0.5l-2.7,1.7c0.3,0.5,0.6,0.9,0.9,1.4
		l2.7-1.7c0.2,0.3,0.4,0.6,0.7,0.9l-2.6,2c0.1,0.1,0.1,0.2,0.2,0.2c0.3,0.4,0.5,0.8,0.8,1.1l2.7-2c0.3,0.4,0.6,0.8,1,1.2l-2.7,2.1
		c0.3,0.5,0.7,0.9,1,1.3l2.7-2.1c0.3,0.3,0.6,0.6,0.8,0.9l-2.3,2.7c0.4,0.4,0.8,0.8,1.2,1.1l2.3-2.7c0.1,0.1,0.2,0.2,0.3,0.2
		c0.3,0.3,0.6,0.5,1,0.7l-2.4,2.8c0.4,0.3,0.9,0.7,1.3,1l2.5-2.9c0.4,0.2,0.7,0.3,1.1,0.5l-1.6,3.6c0.5,0.2,1,0.5,1.5,0.7l1.7-3.8
		c0.5,0.2,1.1,0.3,1.5,0.3l-1.8,4c0.5,0.2,1,0.3,1.6,0.5l1.9-4.3c0.4,0,0.7,0,1-0.1l-1.1,4.8c0.5,0.1,1.1,0.2,1.6,0.4l1.4-6.3
		c0.7-0.7,1.3-1.3,1.4-1.6c0.2-0.4,0.9-0.3,2.1,0c1.2,0.3,2.1,1.4,6.7,1.9c4.7,0.6,5.9,0.3,8.3,0.6c2.4,0.3,4.7,1.6,8.9,2.7
		c4.2,1,10.5,1.2,14.8,1.1c4.3,0,11.6-0.1,15.2-1.2c3.7-1.1,8.6-4.5,13.1-6.4c4.5-1.9,10.2-8.9,13.3-12.5c3.1-3.6,4.2-7.8,5.1-10.4
		c0.9-2.6,3.4-7.4,5.1-10.5c1.7-3.1,2.2-6.4,3-10.4c0.7-3.9,0.5-8.8,0.3-12.3c-0.2-3.5-1.2-8-1.8-10.8c-0.6-2.8-1-6.3-2.1-10
		c-1.1-3.7-1.7-4.9-2.5-7c-0.7-2.1-2.5-4.5-4.5-7.1c-2.1-2.5-2.3-4.3-4.5-7c-2.2-2.6-4.4-2.7-6.4-4.7c-2-2-4.1-4.5-6.3-6.3
		c-2.2-1.9-4.2-3-6-3.5c-1.7-0.4-2.6-1.1-5.2-2.3c-2.7-1.2-3.6-0.8-5.8-1.3c-2.2-0.5-3.1-1.1-7.2-2.4c-4.1-1.3-6.6-1.8-8.8-2
		c-2.3-0.1-3.4,0.5-5.2,0.7c-1.7,0.2-4.6,0.3-7.5,0.2c-2.9-0.1-5.1,0.8-7.1,2.5c-2,1.8-5.7,3.6-8.6,4.7c-2.9,1.1-7.8,1.5-10,2.5
		c-2,0.9-3.9,1.8-5.3,2.3c-0.2,0.1-0.4,0.3-0.7,0.5c3.8-3.3,7.8-5.9,10.9-7.6c5-2.7,16.2-5.4,18.7-5.8c2.6-0.4,12.6-1.3,15.8-0.8
		c3.3,0.5,8.8,2.1,11.2,2.9c2.4,0.8,5.5,0.4,12,3c6.6,2.6,9.2,5.9,11,7.3c1.8,1.5,8.5,6.9,11.5,10.6c3,3.7,4.8,6.5,6.9,10.5
		c2.1,4,3.1,6,4.3,9.8c1.2,3.8,0.9,3.6,1.9,8.1c1,4.5,2.1,11.6,2.1,13.3c0,1.6-0.2,3.1-0.1,6.1c0.1,3,0.7,5.8,0.1,8.7
		c-0.6,2.9-2.4,3.9-4.2,8.5c-1.7,4.6-0.3,6.1-4.5,13.7c-4.1,7.7-11.6,13.9-14.5,16.4c-2.8,2.5-4.3,2.7-8,5
		c-3.7,2.3-8.8,4.6-11.9,5.3c-3.1,0.7-4.7-0.1-7.2,0.2c-2.5,0.3-5.9,0.7-7.6,0.7c-1.7,0-3.3-0.4-8.7-1.3c-5.4-1-13.6-2.2-17.2-3.3
		c-3.6-1.1-8.8-0.4-9,0.2c-0.1,0.4,0.5,0.4,1.5,0.4l-1,5.2c0.5,0.1,1.1,0.2,1.6,0.2l1-5.3c0.2,0,0.3,0,0.5,0.1
		c0.2,0,0.4,0.1,0.6,0.1l-0.9,5.3c0.5,0.1,1.1,0.1,1.6,0.2l0.9-5.2c0.5,0.1,1,0.1,1.5,0.2l-0.9,5.2c0.5,0.1,1.1,0.1,1.6,0.2l0.9-5.1
		c0.3,0,0.7,0.1,1.1,0.2l-0.9,5.1c0.5,0.1,1.1,0.1,1.6,0.2l0.9-5.1c0.6,0.1,1.1,0.2,1.5,0.3l-0.9,5c0.5,0.1,1.1,0.1,1.6,0.2l0.9-4.9
		c0.3,0.1,0.7,0.1,1.1,0.2l-0.8,4.9c0.5,0.1,1.1,0.2,1.6,0.2l0.8-4.8c0.5,0.1,1,0.2,1.5,0.3l-0.8,4.8c0.4,0.1,0.8,0.1,1.2,0.2
		c0.1,0,0.2,0,0.4,0.1l0.8-4.9c0.4,0.1,0.7,0.1,1.1,0.2l-0.9,4.9c0.5,0.1,1,0.2,1.6,0.3l0.9-4.9c0.5,0.1,1,0.2,1.5,0.2l-0.9,4.9
		c0.5,0.1,1.1,0.1,1.6,0.2l0.9-4.8c-0.1,0-0.1,0-0.1,0c1.5,0.2,3,0.4,4.3,0.6l-0.7,4.7c0.5,0,1.1,0.1,1.6,0.1l0.7-4.6
		c0.4,0.1,0.7,0.1,1,0.1l-0.6,4.5c0.6,0,1.1,0.1,1.6,0.1l0.6-4.5c0.5,0,1,0.1,1.5,0.1l-0.5,4.4c0.5,0,1.1,0,1.6,0.1l0.6-4.3
		c0.2,0,0.5,0,0.8,0l0.4,4.3c0.6,0,1.1,0,1.7,0l-0.4-4.3c0.5,0,1,0,1.6-0.1l0.4,4.3c0.6,0,1.1-0.1,1.6-0.1l-0.4-4.3
		c0.3,0,0.6-0.1,0.9-0.1l1.3,4.2c0.4,0,0.8-0.1,1.1-0.2c0.2,0,0.4-0.1,0.5-0.1l-1.2-4.2c0.5-0.1,1-0.2,1.5-0.3l1.2,4.2
		c0.5-0.1,1.1-0.2,1.6-0.4l-1.2-4.1c0.4-0.1,0.7-0.2,1.1-0.3l1.2,4.1c0.5-0.1,1.1-0.3,1.6-0.5l-1.2-4c0.5-0.1,1-0.3,1.5-0.5l1.2,4
		c0.5-0.2,1-0.4,1.5-0.6l-1.1-3.9c0.3-0.1,0.6-0.2,0.9-0.4l1.7,3.6c0.5-0.2,1-0.5,1.5-0.7l-1.7-3.5c2.3-1.1,4.5-2.3,6.4-3.6l2.1,2.9
		c0.4-0.3,0.9-0.6,1.3-1l-2.1-2.8c0.3-0.2,0.6-0.4,0.9-0.6l2.4,2.5c0.4-0.3,0.9-0.7,1.3-1l-2.4-2.4c0.4-0.3,0.8-0.6,1.2-0.9l2.3,2.3
		c0.4-0.4,0.8-0.7,1.2-1.1l-2.2-2.3c0.3-0.2,0.6-0.5,0.9-0.7l2.2,2.2c0.4-0.4,0.8-0.7,1.2-1.1l-2.1-2.2c0.4-0.3,0.8-0.6,1.2-1
		l2.1,2.1c0.4-0.4,0.8-0.8,1.2-1.1l-2-2.1c0.3-0.2,0.6-0.5,0.9-0.7l2.1,2c0.4-0.4,0.8-0.8,1.2-1.1l-2-1.9c0.4-0.3,0.8-0.7,1.1-1.1
		l2,1.9c0.4-0.4,0.8-0.8,1.1-1.2l-1.9-1.8c0.3-0.3,0.5-0.5,0.8-0.8l1.9,1.8c0.4-0.4,0.8-0.8,1.1-1.2l-1.8-1.7
		c0.4-0.4,0.7-0.8,1.1-1.1l1.7,1.6c0.4-0.5,0.7-0.9,1-1.3l-1.6-1.5c0.2-0.3,0.5-0.6,0.7-0.9l1.5,1.4c0.4-0.6,0.6-1.1,0.8-1.5
		l-1.3-1.2c0.1-0.2,0.3-0.4,0.4-0.6c0.2-0.3,0.3-0.5,0.5-0.8l0.9,0.9c0-0.3,0-0.5,0-0.6c0.1-0.3,0.2-0.7,0.5-1.2l-0.7-0.6
		c0.2-0.4,0.3-0.7,0.5-1.1l0.6,0.5c0.1-0.3,0.2-0.7,0.2-1.1c0-0.2,0.1-0.5,0.2-0.7l-0.5-0.4c0.1-0.6,0.2-1.1,0.4-1.7l0.7,0.6
		c0.2-0.5,0.5-1,0.7-1.5l-0.9-0.8c0.1-0.3,0.2-0.7,0.3-1l1.1,0.9c0.2-0.5,0.5-1.1,0.7-1.6l-1.1-0.9c0.2-0.5,0.4-1,0.7-1.4l1,0.8
		c0.1-0.6,0.3-1.2,0.5-1.7l-0.7-0.6c0.2-0.4,0.4-0.8,0.6-1.2l0.6,0.5c0.4-0.9,0.6-1.4,0.6-1.4l-0.5-0.6c0.9-2,1.8-4.2,2.4-6.9
		c0.4-1.9,0.3-4.6,0.2-7.2c-0.2-5.8-1.3-12.6-1.9-17.9c-0.8-7.8-3.1-15.5-5.8-22.6C129.4,165.6,120.6,156.9,113.3,150.6 M24.9,158.5
		c1.6-1.9,3.4-3.7,5.2-5.4c-0.9,0.8-1.8,1.7-1.8,1.7s1.1,0.9,2,3c0.9,2.1,1.3,3.5,0,6.6c-1.3,3.1-3.7,4.4-7.3,5.9
		c-2.3,1-5.1,1.1-6.7,0.7C16.3,171.1,19.7,164.7,24.9,158.5 M24,197c1.6-1.4,4-2.7,5.9-3.5c-0.9,0.8-1.7,1.5-2.6,2.2
		c-1.9,1.6-4,3-6.3,4.1C21.8,198.9,22.9,197.9,24,197 M27.3,197.3c2.4-1.9,4.7-3.9,6.9-6.1c1-0.6,2-1,2.9-1.1c-2.5,2.5-5,4.8-7.8,7
		c-0.7,0.6-1.5,1.2-2.3,1.7c-2.6,1.8-5.5,3.5-8.5,4.5c0-0.1,0-0.2,0-0.2c0-0.3,0.3-0.7,0.7-1.3C22.1,200.8,24.8,199.2,27.3,197.3
		 M77.9,150.5c2,1.6,3.8,3.6,5.2,6.1c1.8,2.9,2.7,6.7,3.2,10.2c-0.4,0.6-0.9,1.3-1.4,1.9c0-2.2-0.3-4.5-1-6.7
		c-1.2-4.2-2.9-7.6-5.9-11.2C78,150.7,78,150.6,77.9,150.5 M78.4,153.5c0-0.1,0-0.2,0-0.2c2.2,2.9,3.5,5.8,4.5,9.2
		c0.8,2.5,0.9,5.1,0.8,7.6c-0.7,0.7-1.3,1.4-2.1,2c0.4-2.5,0.4-5.2,0.1-7.8C81.5,160.7,80.2,157,78.4,153.5 M77.8,155.2
		c1.4,3,2.4,6.2,2.7,9.2c0.3,3,0.2,6.1-0.4,9c-1,0.8-1.9,1.4-2.8,2c1.3-3.4,2-7.1,1.9-10.9c0-2.8-0.7-5.9-1.8-8.8
		C77.6,155.5,77.7,155.4,77.8,155.2 M76.7,156.7c0.8,2.4,1.3,4.9,1.3,7.3c0.1,4.4-0.9,8.8-2.8,12.5c-0.4,0.2-0.8,0.2-1,0.3
		c-0.1,0-0.3,0-0.4,0c1.7-3.4,2.8-7.2,3.3-11c0.4-2.8,0.1-5.9-0.6-8.9C76.6,156.8,76.6,156.7,76.7,156.7 M75.4,157.8
		c0.6,3,0.8,6,0.3,8.9c-0.5,3.4-1.6,6.7-3.2,9.8c-0.6-0.2-1.3-0.4-2-0.7c2.3-3.7,3.9-8.1,4.5-12.6c0.2-1.6,0.2-3.3,0-5.1
		C75.2,158,75.3,157.9,75.4,157.8 M57.2,156c0.9-1.3,0.9-1.3,0.9-1.3s0.3,0.2,0.7,0.6c-0.1-0.1-0.2-0.1-0.3-0.2
		c-0.7,1-1.5,2-2.4,2.9C56.6,157.1,56.9,156.3,57.2,156 M49.1,162.2c0.4-0.4,1.4-2.2,2.8-3.7c0.6,0.6,1.1,1,2,2.1
		c-1.1,1.7-2.5,3.4-3.8,5.1c8.5,7.2,16.8,13.9,25.7,19.3c0.2-0.1,0.9-0.8,1.9-1.8l-24.6-16.7c0,0,0.6-2.8,0.8-3.4
		c0,0,0.1-0.2,0.1-0.3c0.1,0,0.2,0,0.2,0c0,0.1,0,0.2,0,0.2c0.2-0.5,0.5-1.3,0.8-2.1c0.3-0.3,0.6-0.6,0.9-0.9
		c1.3-1.3,2.6-2.8,3.7-4.3c0.1,0.1,0.3,0.2,0.4,0.3c-1.1,1.9-2.3,3.8-3.6,5.4c-0.5,0.6-1,1.2-1.5,1.8l0.8,0.5
		c0.7-0.7,1.3-1.5,1.9-2.3c1.2-1.5,2.3-3.1,3.2-4.8c0.2,0.1,0.3,0.2,0.5,0.3c-1,2-2.2,3.8-3.4,5.5c-0.9,1.2-1.9,2.3-3,3.5
		c0.2,0.1,0.5,0.4,1,0.7c2.5-2.8,4.8-5.8,6.5-9c0.2,0.1,0.5,0.3,0.7,0.4c-1.6,3.3-4,6.4-6.5,9.1c0.3,0.3,0.7,0.6,1.2,0.9
		c2.5-2.9,4.9-6,6.4-9.4c0.3,0.2,0.6,0.3,0.9,0.4c-1.6,3.4-4,6.7-6.7,9.5c0.4,0.3,0.8,0.6,1.2,0.9c2.5-3,4.9-6.4,6.5-9.9
		c0.2,0.1,0.3,0.1,0.5,0.2c-1.3,3.7-3.4,7.2-6,10.4c0.4,0.3,0.8,0.5,1.1,0.8c2.5-3.3,4.7-7,6-10.8c0.2,0,0.4,0.1,0.6,0.1
		c-1,4.1-3.2,7.9-5.8,11.3c0.4,0.2,0.8,0.5,1.1,0.7c2.8-3.6,4.9-7.6,5.7-11.9c0.3,0,0.5,0,0.8,0c-0.7,4.5-2.7,8.8-5.5,12.5
		c0.3,0.2,0.7,0.4,1,0.6c3-4,5.2-8.6,5.9-13.5c0.2-0.1,0.4-0.2,0.6-0.3c-0.1,1.2-0.2,2.3-0.5,3.5c-0.9,3.9-2.8,7.7-5,10.8
		c0.4,0.2,0.8,0.4,1.1,0.6c2.3-3.4,4.1-7.3,5-11.3c0.3-1.3,0.5-2.8,0.5-4.2c0.1-0.1,0.3-0.1,0.4-0.2c0.2,1.6,0.2,3.1,0,4.6
		c-0.6,4.3-2.2,8.4-4.4,11.9c-0.6-0.3-1.3-0.6-1.9-0.9l11.4,7.6c3.6-3.6,9.6-9.5,13.5-11.2c0.4-0.5,1.7-1.6,3.1-2.8L80,148.2
		c2.5,4.2,8.1,13.6,7.5,16c-0.1,0.3-0.2,0.6-0.3,0.9c-0.6-3.1-1.7-6.3-3.3-9c-2.2-3.6-4.8-6.5-8.1-8.5c0,0,0.1,0.1,0.1,0.1
		c-0.2-0.1-0.4-0.3-0.6-0.3c-0.5-0.9-0.7-0.9-0.7-1l-1-1.2l5.4-0.5l18.2,21.8c1.1-0.9,2.1-1.6,2.4-1.7c2.5,2.3,4.1,4.4,6,6.7
		c-0.9,0.6-1.5,0.9-2.4,1.3c-0.1,0.1-0.1,0.1-0.2,0.2c2.8,2.5,10.2,8.9,11.7,10.3c1.9,1.7,6.7,6.8,6.7,6.8l0.2,1.5l0,0l-0.3,19.6
		l-1.7-1l0.1-2.1l-33.6-19.8c-0.2,0.3-0.4,0.5-0.5,0.7c1.5,1.6,4.3,3.6,6,4.8c4.6,3.5,8,6.5,12.7,9.3c5.1,3.1,11,7.3,16.3,11
		c1.2-0.7,2.5-2.3,3.7-3.4c1.9,1.2,3.4,1.9,4.6,2.9c-3.7,3.6-9.5,9.8-14.4,13.8c-1.2-0.9-2.9-2.7-3.7-3.4c0.8-1.2,2.5-2.5,3.6-3.7
		C104,213.5,92.5,206,82,199c-2.6-1.7-3.6-2.4-4.7-3.1c-2.4,2.8-6.2,5.5-8.8,8.3c1.1,1.9,4.2,6.9,5.4,8.8l0,0
		c0.1,0.3,1.3,3.2,2.9,7.1c-0.8-2.3-1.4-4.4-1.8-6c0.1,0.4,0.2,0.7,0.3,1.1c0.4-1.5,1.1-2.9,1.9-4.3c0.8-1.4,2.5-4.3,4.2-5.5
		c0.4,0.2,0.8,0.4,1.2,0.5c-3,2.9-5.5,6.4-7,10.3c0.2,0.6,0.4,1.3,0.6,2c1.4-4.5,4.3-8.4,7.7-11.7c0.4,0.2,0.7,0.4,1,0.5
		c-3.5,3.3-6.6,7.1-8.6,11.6c0.2,0.6,0.4,1.2,0.6,1.9c2-5.1,5.4-9.2,9.4-12.8c0.3,0.1,0.6,0.3,0.9,0.4c-4.3,3.5-7.8,8-10,13.2
		c0.2,0.6,0.4,1.2,0.6,1.8c2.2-5.7,6.1-10.6,10.8-14.3c0.3,0.1,0.6,0.3,0.9,0.4c-4.7,4.2-8.7,9.2-11.4,14.9c0.2,0.5,0.4,1,0.5,1.5
		c2.8-6.1,7.1-11.4,12.2-15.8c0.3,0.1,0.5,0.2,0.8,0.3c-5.2,4.5-9.6,10-12.7,16.1c0.2,0.6,0.5,1.2,0.7,1.8
		c3.1-6.6,7.7-12.6,13.4-17.3c0.5,0.2,1,0.4,1.5,0.6c-3.4,2.5-6.4,5.5-9,8.8c-2.1,2.7-4.1,5.6-5.5,8.8c0.2,0.5,0.4,1,0.7,1.5
		c1.4-3.6,3.8-7,6.2-10c2.6-3.2,5.7-6.1,9-8.5c0.4,0.2,0.8,0.3,1.2,0.5c-3.3,2.7-6.3,5.5-8.9,8.9c-2.5,3.1-5,6.7-6.8,10.5
		c0.3,0.6,0.5,1.1,0.8,1.5c1.8-4.4,4.8-8.5,7.7-12c2.5-3.2,5.4-5.8,8.6-8.3c0.3,0.1,0.7,0.3,1,0.4c-3.2,2.8-6.2,5.8-8.9,9.2
		c-2.8,3.5-5.7,7.7-7.5,12c0.2,0.3,0.4,0.5,0.6,0.6c-0.3-0.2-0.7-0.7-1.1-1.4c1.5,3.7,2.6,6.5,2.7,6.8c5.1-4.2,10.7-10.6,16.2-15.6
		c2.1-1.9,4.2-3.9,5.8-5.6c0.6,0.1,0.9,1.1,1.1,1.5c-7.7,7.4-17.1,16.6-25.8,24.7c0.7,1.7,1.3,3.4,2.2,5.1c0.6-0.6,1.2-1,2-1.5
		c0.7,0.9,2,2,2.9,3.2c-4.4,3.2-8.8,9-13.2,12.1c-1.2-0.8-2.4-1.6-3.5-2.5c0.7-1.2,2.3-2.3,3.4-3.5c-5.5-13.9-11.2-27.7-16.9-41.6
		c-0.6-0.8-1-1.4-1.3-2c-6.8,6.7-14.5,13.2-21.4,19c-0.2,0.1-0.3,0.2-0.4,0.3c1.3,2.2,4.1,6.4,5.9,8c2,1.8,6.9,4.3,10.8,6.3
		c1,0.5,1.9,1,2.8,1.4c4.2,2.2,13.2,5.5,13.3,5.5l-0.2,1.6c-0.4-0.1-9.5-3.5-13.8-5.7c-0.8-0.4-1.9-0.8-2.9-1.3
		c-4.2-2.2-8.9-4.7-11.1-6.7c-1.9-1.8-4.6-6.1-5.9-8.4c-2.8,2.1-3.6,2.6-5.3,3.1c-2-2.9-3.8-5.9-5.1-8.8c0.6-0.6,1.2-0.9,2-1.3
		l-9.3-22.4l-1.1-2.5l1.7-1.3l0.8,1.7c0,0.2,0.1,0.5,0.2,0.9c3.6-1.1,7.1-3.2,10.1-5.4c3.6-2.6,7-5.6,10.2-8.8
		c0.3,0.1,0.6,0.3,0.9,0.5c-3,3.1-6.2,5.9-9.6,8.4c-0.7,0.5-1.5,1-2.2,1.5c-2.6,1.7-5.5,3.2-8.5,4c-0.2,0.1-0.4,0.1-0.7,0.2
		c0.1,0.4,0.2,0.8,0.4,1.2c3.8-0.9,7.4-2.9,10.6-5c4.1-2.7,7.8-5.8,11.2-9.3c0.2,0.2,0.5,0.5,0.7,0.8c-2.8,2.7-5.8,5.1-8.9,7.4
		c-0.8,0.6-1.7,1.2-2.6,1.7c-3,1.9-6.3,3.6-9.6,4.7c-0.4,0.1-0.7,0.2-1.1,0.3c0.1,0.4,0.3,0.7,0.4,1c4.1-1.1,8.5-3.2,11.8-5.4
		c3.9-2.5,7.6-5.5,11-8.7c0.2,0.3,0.5,0.6,0.7,0.9c-3,2.8-6.1,5.4-9.5,7.6c-0.8,0.5-1.6,1-2.4,1.5c-2.9,1.7-5.9,3.1-9.1,4
		c-0.7,0.2-1.5,0.4-2.2,0.5c0.2,0.4,0.5,0.8,0.7,1.1c4-0.7,8.4-2.8,11.7-4.7c4.2-2.5,8.1-5.5,11.7-8.9c0.3,0.4,0.7,0.9,1,1.3
		c-2.9,2.6-5.9,4.9-9.1,6.9c-0.8,0.5-1.7,1-2.6,1.5c-3,1.6-6.3,3-9.6,3.8c-0.8,0.2-1.7,0.4-2.6,0.5c0-0.1-0.1-0.1-0.1-0.2l0.1,0.2
		l0,0l0,0l0.6,1.4l-0.7,0.8l6.4,15.4c1.5-0.7,3.6-1.7,7.2-4.5c6.3-5.1,13.1-10.5,18.1-16.1c-4.2-6.5-7.9-12.4-12.7-19.7
		c-0.7-0.6-1.5-1.4-2.4-2.3c-3.1,1.9-4.3,4.3-7.3,6.4c-1.3-0.6-3.4-1.6-3.9-3.2C35,180,41.7,171.2,49.1,162.2 M99.7,223
		c-0.1,0.1,0,0.2,0,0.4c-1.3,1.2-3.3,3-4.9,4.5c0.7-1.2,1.5-2.5,2.3-3.6c2-2.9,4.6-6,7.3-8.4c0.1,0.1,0.3,0.2,0.4,0.3
		C102.6,218.1,100.8,220.4,99.7,223 M105.3,217.7c-0.1,0.9-1.2,1.9-2.5,2.8C103.6,219.6,104.4,218.6,105.3,217.7 M92.3,226.1
		c2.7-4,6.2-8.1,10.3-11.2c0.1,0.1,0.2,0.1,0.3,0.1c-2.6,2.4-4.9,5.2-6.8,8c-1.4,1.9-2.5,4-3.6,6.1c-0.3,0.5-0.6,1-0.8,1.5
		c-1.1,1-2.5,2.4-4,3.4C89,231.3,90.6,228.7,92.3,226.1 M85.7,235.2c-0.7,0.3-1.3,0.4-1.8,0.3c1.5-3.9,4.1-7.6,6.5-10.8
		c2.4-3.3,5.3-6.3,8.3-9.1c0.6-0.6,1.3-1.1,1.9-1.7c0.3,0.1,0.5,0.2,0.8,0.3c-3.6,2.9-6.8,6.6-9.4,10.2
		C89.5,227.9,87.4,231.4,85.7,235.2 M79.1,204.5c0.2,0,0.5,0.1,0.7,0.2c-1.1,1.1-2,2.6-2.8,3.6c-1,1.5-1.8,3-2.4,4.6
		c0-0.1,0-0.2-0.1-0.2c-0.1-0.4-0.2-0.8-0.3-1.2C75.2,208.7,76.5,206.1,79.1,204.5 M74.1,208.6c0-1.3,0.3-2.5,1.1-3.3
		c0.5-0.5,1.1-0.8,1.8-0.9C75.7,205.6,74.8,207.1,74.1,208.6 M47.7,227.8c0.2-0.6,0.5-1.2,0.7-1.8c0.5-0.3,1-0.7,1.5-1
		c-1.3,2.7-2.4,5.6-2.9,8.5c-0.2-0.3-0.4-0.6-0.6-0.9C46.7,230.9,47.2,229.3,47.7,227.8 M45.5,230.9c-0.7-1.3-1.1-2.1-1.1-2.1
		s0.9-0.6,2.2-1.5c-0.1,0.4-0.3,0.8-0.4,1.1C46,229.2,45.7,230,45.5,230.9 M51.6,224.7c0.2-0.4,0.4-0.8,0.6-1.2
		c0.6-0.4,1.2-0.7,1.8-1c-0.6,1.1-1.2,2.1-1.7,3.2c-1.6,3.3-2.9,7-3.3,10.6c-0.3-0.4-0.6-0.8-0.9-1.3
		C48.5,231.4,50,227.9,51.6,224.7 M53.6,225.9c0.7-1.4,1.6-3,2.6-4.4c0.8-0.3,1.4-0.5,1.4-0.5s0,0.1,0.1,0.3
		c-1.8,2.2-3.2,4.8-4.2,7.2c-1.3,3.2-2.4,6.6-2.5,10c-0.3-0.3-0.5-0.6-0.7-0.8C50.4,233.6,51.8,229.5,53.6,225.9 M54.7,228.7
		c0.9-2,2-4.2,3.5-6c0.2,0.5,0.3,1,0.5,1.5c-1.4,1.8-2.5,3.9-3.4,6c-1.4,3.2-2.4,6.8-2.4,10.4c-0.3-0.3-0.6-0.6-0.8-0.8
		C52,236,53.2,232.2,54.7,228.7 M56.5,230.4c0.7-1.6,1.6-3.2,2.6-4.7c0.2,0.6,0.3,1.1,0.4,1.6c-1.2,1.8-2.2,3.8-2.9,5.9
		c-1,2.9-1.7,6.2-1.7,9.3c-0.3-0.3-0.6-0.5-1-0.9C53.9,237.8,55.1,233.9,56.5,230.4 M57.9,233.4c0.5-1.4,1.1-2.7,1.9-4
		c0,0.7,0,1.6,0,2.5c-0.7,1.3-1.3,2.7-1.7,4.1c-0.7,2.6-1.2,5.3-1.2,8.1c-0.2-0.2-0.5-0.4-0.7-0.6C56,240.1,56.8,236.6,57.9,233.4
		 M59.3,236.2c0-0.1,0.1-0.2,0.1-0.4c-0.1,0.6-0.2,1.2-0.2,1.8c-0.5,3.4-0.2,8.1-0.2,8.1s-0.3-0.2-0.8-0.6
		C58,242.1,58.5,239,59.3,236.2 M35.2,209.8c-2.9,1.3-5.9,2.4-9,3c-0.4-0.1-0.7-0.2-1-0.4c3.6-0.7,7.4-2.3,10.3-3.7
		c4.4-2.2,8.3-5,12-8.2c0.1,0.2,0.2,0.5,0.3,0.7C44,204.6,39.9,207.6,35.2,209.8 M48.2,202.5c0.1,0.5,0,1,0,1.3c0,0-0.1,0.1-0.9,1
		c-3.6,2.7-7.3,4.9-11.6,6.5c-1.5,0.6-3.1,1.1-4.8,1.5c1.6-0.6,3.1-1.3,4.5-1.9C40.2,208.9,44.3,205.9,48.2,202.5 M37.5,206.1
		c-0.9,0.5-1.7,1-2.6,1.4c-3.1,1.5-6.3,2.8-9.7,3.6c-0.7,0.1-1.3,0.3-2,0.3c-0.2-0.1-0.4-0.3-0.7-0.4c4.1-0.6,8.5-2.6,11.8-4.4
		c4.3-2.3,8.1-5.2,11.7-8.4c0.3,0.4,0.6,0.7,0.8,1C43.9,201.8,40.8,204.1,37.5,206.1"/>
	<path fill="#E8E8E8" d="M18.3,248.3c-0.3-0.4-0.6-0.8-0.9-1.3l-2.3,1.5c0.3,0.5,0.6,0.9,0.9,1.4L18.3,248.3
		C18.3,248.3,18.3,248.3,18.3,248.3"/>
	<path fill="#E8E8E8" d="M19,249.2l-2.4,1.6c0.3,0.5,0.6,0.9,0.9,1.4l2.6-1.6C19.6,250.1,19.3,249.7,19,249.2"/>
	<path fill="#E8E8E8" d="M15.8,244.3l-2.3,1.5c0.3,0.5,0.6,0.9,0.8,1.4l2.3-1.5C16.3,245.2,16.1,244.8,15.8,244.3"/>
	<path fill="#E8E8E8" d="M13,239l-2.5,1.4c0.3,0.5,0.5,1,0.8,1.4l2.5-1.4C13.5,240,13.2,239.5,13,239"/>
	<path fill="#E8E8E8" d="M14.5,241.8l-2.4,1.4c0.3,0.5,0.5,0.9,0.8,1.4l2.4-1.4C15,242.8,14.7,242.3,14.5,241.8"/>
	<path fill="#E8E8E8" d="M43.3,263.2l-1.1,5.7c0.5,0.1,1.1,0.2,1.6,0.3l1-5.6C44.3,263.5,43.8,263.3,43.3,263.2"/>
	<path fill="#E8E8E8" d="M40.8,262.1l-1.4,6.3c0.5,0.1,1.1,0.2,1.6,0.3l1.3-5.9C41.7,262.6,41.2,262.3,40.8,262.1"/>
	<path fill="#E8E8E8" d="M108.3,266.9c0.5-0.3,0.9-0.6,1.4-0.9l-2.1-2.9c-0.5,0.3-0.9,0.6-1.4,0.8L108.3,266.9z"/>
	<path fill="#E8E8E8" d="M105.4,268.6c0.5-0.3,1-0.5,1.4-0.8l-1.6-3.4c-0.5,0.3-1,0.5-1.5,0.7L105.4,268.6z"/>
	<path fill="#E8E8E8" d="M72.4,268.4l-0.8,4.8c0.5,0.1,1.1,0.1,1.6,0.2l0.7-4.7C73.4,268.5,72.9,268.4,72.4,268.4"/>
</g>
<g>
	<path fill="#E8E8E8" d="M128.8,78.6c-0.2,0.1-0.2,0.3-0.1,0.5c0.1,0.1,5.8,7.9,12.1,12c7.7,4.9,14.7,5.7,14.8,5.7
		c0.1,0,0.2,0,0.3-0.1c0,0,0.1-0.1,0.1-0.2c0-0.2-0.1-0.4-0.3-0.4c-0.1,0-6.9-0.8-14.5-5.6c-6.2-4-11.9-11.7-11.9-11.8
		C129.2,78.5,129,78.5,128.8,78.6"/>
	<path fill="#E8E8E8" d="M131.4,78.8c-0.2,0.1-0.2,0.3-0.1,0.5c0,0.1,4.2,6,9.4,9.4c5.9,3.9,11.3,5.1,11.3,5.1c0.1,0,0.2,0,0.3-0.1
		c0.1-0.1,0.1-0.1,0.1-0.2c0-0.2-0.1-0.4-0.3-0.4c0,0-5.3-1.2-11.1-5c-5.1-3.4-9.2-9.1-9.2-9.2C131.7,78.7,131.5,78.7,131.4,78.8"/>
	<path fill="#E8E8E8" d="M132.9,78.1c-0.2,0.1-0.2,0.3-0.1,0.5c0.1,0.2,3.3,5.2,8,8.2c5,3.3,9.4,4.3,9.6,4.3c0.1,0,0.2,0,0.3-0.1
		c0,0,0.1-0.1,0.1-0.2c0-0.2-0.1-0.4-0.3-0.4c0,0-4.4-1-9.4-4.2c-4.5-2.9-7.7-7.9-7.8-8C133.3,78,133.1,78,132.9,78.1"/>
	<path fill="#E8E8E8" d="M134.5,77.5c-0.2,0.1-0.2,0.3-0.1,0.5c0.1,0.1,2,3.2,5.2,5.7c3.8,3,7,3.8,7.2,3.8c0.1,0,0.2,0,0.3-0.1
		c0,0,0.1-0.1,0.1-0.2c0-0.2-0.1-0.4-0.3-0.4c0,0-3.2-0.8-6.9-3.7c-3.1-2.5-5-5.5-5.1-5.5C134.8,77.5,134.6,77.4,134.5,77.5"/>
	<path fill="#E8E8E8" d="M123.6,78.5c-0.1,0.1-0.2,0.3-0.2,0.4c12.5,17.8,27.3,25.8,39.8,22.7c0.1,0,0.2-0.2,0.1-0.4
		c-0.1-0.1-0.3-0.3-0.4-0.3c-7.6,1.7-14.3-0.4-20.7-4.4c-6.9-4.2-13.7-11.4-18.2-18.1C124,78.4,123.8,78.4,123.6,78.5"/>
	<path fill="#E8E8E8" d="M185.2,100.9c0-0.1,0.1-0.1,0-0.2c-0.2-0.6-0.6-1.6-1.5-2.3c-0.1-0.1-0.2-0.1-0.3,0
		c-0.3,0.2-0.5,0.5-0.7,0.7c-0.1,0.1-0.1,0.2-0.2,0.3c-0.1,0.1-0.2,0.1-0.3,0.2c-0.1,0-0.1,0.1-0.1,0.2c0,0.7,0.1,1.3,0.2,2
		c0.3,2.5,0.6,5-1.3,6.8c-1.7,1.6-3.3,1-5,0.4c-1.5-0.6-3.1-1.2-4.9-0.2c-0.1,0-0.1,0.1-0.1,0.1c0,0.1,0,0.2,0,0.3
		c-0.1,0.5-0.2,1.2,0,1.7c0,0.1,0.1,0.1,0.2,0.1c1.6-0.4,2.7,0,4.1,1.5c0.1,0.1,0.2,0.1,0.3,0c1.4-0.9,4-1.4,4.9-1.6
		c0.3-0.1,0.7,0,1.1,0c0.6,0,1.1,0.1,1.3-0.1c0.1-0.1,0.1-0.1,0.2-0.2c1.3-1.2,1.4-2.2,1.4-2.9c0-0.5,0.1-0.8,0.4-1.2
		c0.3-0.2,0.6-0.4,0.8-0.6c0.2-0.2,0.3-0.4,0.2-0.6c0,0,0,0,0-0.1c-0.2-0.2-0.5-0.5-0.8-0.8c-0.5-0.5-1.1-1-1.2-1.4
		C183.8,103,184.4,101.9,185.2,100.9"/>
	<path fill="#E8E8E8" d="M125.9,77.2c0,0-0.1,0-0.1-0.1c-0.1,0-0.2,0-0.3,0.1c-0.2,0.1-0.2,0.3-0.1,0.4c3.9,6.4,11,13.3,17.7,17.2
		c2.6,1.6,9.6,5.1,17.2,4.8l0,0l0,0c0,0,0-0.1,0-0.2c0,0-0.1-0.3-0.3-0.3c-10.2,0.4-23-7.1-31.8-18.5
		C127.5,79.6,126.8,78.6,125.9,77.2"/>
	<path fill="#E8E8E8" d="M121.9,80c-0.1,0-0.2,0-0.3,0.1c-0.1,0.1-0.1,0.2-0.2,0.3c0,0.1,0,0.1,0,0.1c13.7,20.7,30.8,26.8,45.8,24.2
		c0,0,0.2-0.4-0.2-0.7c-0.1-0.1-0.3,0-0.3,0c-14.1,1.6-25.8-2.5-36.9-14.1c-3.1-3.2-5.4-6.6-7.9-9.9C122,80,122,80,121.9,80"/>
	<path fill="#E8E8E8" d="M135.8,76.7c-0.2,0.1-0.2,0.3-0.1,0.5c0.1,0.1,1.4,2.4,3.3,3.9c2.3,1.9,4.1,2.7,4.2,2.7
		c0.1,0,0.3,0,0.4-0.1c0,0,0.1-0.1,0.1-0.1c0.1-0.2,0-0.4-0.2-0.4c0,0-1.8-0.7-4-2.6c-1.8-1.5-3.1-3.7-3.1-3.8
		C136.2,76.7,136,76.6,135.8,76.7"/>
	<path fill="#E8E8E8" d="M138,76.9c-0.2,0.1-0.2,0.3-0.1,0.5c0.8,1.5,2,2,2.1,2c0.1,0.1,0.3,0,0.4-0.1c0,0,0.1-0.1,0.1-0.1
		c0.1-0.2,0-0.4-0.2-0.4c0,0-1-0.4-1.7-1.7C138.4,76.9,138.2,76.8,138,76.9"/>
	<path fill="#E8E8E8" d="M163.6,99c0.1,0,0.1,0.1,0.2,0c0,0,0,0,0.1,0c0,0,0.1-0.1,0.1-0.1c0.6-4.1,1.8-7,3.9-9
		c0.7-0.7,1.5-1.2,2.4-1.7c0,0,0.1-0.1,0.1-0.1c0-0.1,0-0.1,0-0.2c-0.1-0.2-0.2-0.4-0.3-0.6c-0.1-0.3-0.2-0.6-0.5-0.8
		c-0.1-0.1-0.2-0.1-0.3,0c-0.6,0.4-1.2,0.8-1.7,1.4c-1.4,1.3-2.3,2.8-3.2,4.5c-0.9,1.5-1.9,3.1-3.3,4.7c0,0.1-0.1,0.1-0.1,0.2
		c0,0.1,0.1,0.1,0.1,0.1c0.6,0.2,1,0.6,1.6,1C163,98.5,163.3,98.8,163.6,99"/>
	<path fill="#E8E8E8" d="M119.9,81.5c-0.2,0.2-0.2,0.3-0.2,0.5c0.2,0.6,0.7,1.5,1.1,2l0.2,0.3c3.8,6.3,11,13.8,16.8,17.4
		c3.7,2.3,7.7,4.1,11.2,5.2c5.2,1.5,11,1.7,14.9,1.5c0.8,0,3.4-0.2,4.1-0.4c0.1,0,0.1-0.1,0.2-0.1c0.1-0.1,0.1-0.3,0.1-0.4
		c0-0.3-0.2-0.6-0.5-0.7c0,0-0.1,0-0.1,0c-8.3,0.7-14.6,0.1-20.5-1.9c-3-0.9-5.9-2.4-9.4-4.5c-0.2-0.2-0.5-0.4-0.9-0.6
		c-0.4-0.2-0.7-0.4-0.9-0.6c-4.8-3.7-9.1-8.2-12.9-13.4c-1.2-1.7-1.8-2.9-2.2-3.7c-0.2-0.3-0.3-0.5-0.4-0.7c0,0-0.1-0.1-0.1-0.1
		C120.3,81.2,120,81.3,119.9,81.5"/>
	<path fill="#E8E8E8" d="M173.2,112.1c-0.1,0-0.1,0-0.2,0c-2.9,1.7-5.5,2.3-8,1.9c-0.1,0-0.2,0-0.2,0.1c-0.2,0.3-0.4,0.5-0.7,0.7
		c-0.2,0.2-0.5,0.4-0.8,0.8c0,0.1-0.1,0.1-0.1,0.2c0,0.1,0.1,0.1,0.1,0.1c6.3,3.1,12.7,1.8,18.7-0.1c0,0,0.1,0,0.1,0
		c0,0,0-0.1,0.1-0.1c0-1.1-0.2-2.3-0.4-3.4l0-0.2c0-0.1-0.1-0.2-0.2-0.2c-2.1,0.1-4.3,1.1-6.4,2.1c-0.2-0.2-0.4-0.4-0.5-0.6
		C174.2,112.9,173.7,112.3,173.2,112.1"/>
	<path fill="#E8E8E8" d="M155.7,81.5c-0.8,0.9-1.8,2-1.9,2.1l-0.1,0.1c-0.8,0.8-1.7,1.6-2.6,2.1c-0.1,0-0.1,0.1-0.1,0.2
		c0.1,0.7,0.9,2,1.8,2.4c0.1,0,0.1,0,0.2,0c0,0,0,0,0.1,0c0,0,0,0,0.1-0.1c0.1-0.4,0.2-0.8,0.3-1.2c0.2-1,0.5-2,1.1-2.8
		c0.4-0.5,0.8-1,1.3-1.4c0.9-0.9,1.7-1.4,2.2-1.7c0.2-0.1,0.3-0.2,0.4-0.3c0.2-0.2,0.1-0.3,0-0.4c-0.1-0.1-0.2-0.3-0.3-0.4
		c-0.1-0.1-0.2-0.3-0.3-0.4c0,0-0.1-0.1-0.1-0.1c0,0-0.1,0-0.2,0.1C157.3,79.8,156.5,80.6,155.7,81.5"/>
	<path fill="#E8E8E8" d="M146.2,84.3L146.2,84.3c-0.1,0.1-0.1,0.1-0.1,0.2c0,0.1,0.1,0.1,0.1,0.2c1,0.4,2,0.5,2.9,0.6
		c0.2,0,0.4,0,0.6,0.1c0.1,0,0.1,0,0.2-0.1l0,0c0.9-0.9,1.7-1.8,2.5-2.6c2.3-2.4,4.5-4.7,6.5-7.1c0,0,0,0,0-0.1
		c0.5-1.9-0.6-6-3.8-7.1c-0.1,0-0.2,0-0.2,0.1c-0.2,0.3-0.2,0.5,0,0.7c2.2,2.1,2.2,4.2,2.2,6.3c-0.1,0.2-0.2,0.3-0.3,0.4
		c-0.7,0.7-1.3,0.5-2.1,0.2c-0.3-0.1-0.5-0.2-0.8-0.2c-0.1,0-0.1,0-0.2,0.1c-3.8,3.4-7.1,5.1-10.4,2.5c-0.1,0-0.1-0.1-0.2,0
		c-0.3,0.1-0.6,0.2-0.9,0.4c-0.2,0.1-0.3,0.2-0.4,0.2c-0.1,0-0.1,0.1-0.1,0.1c0,0.1,0,0.1,0,0.2c0.9,1.5,2.3,2.6,3.6,3.6
		c0.4,0.3,0.8,0.6,1.1,0.9C146.5,83.8,146.5,84,146.2,84.3"/>
	<path fill="#E8E8E8" d="M140.2,75.8C140.2,75.8,140.2,75.8,140.2,75.8c0.1-0.1,0.1-0.1,0.1-0.2c0.1-1.7,1.1-3.7,2.8-5.3
		c0.5-0.5,1.2-1,1.8-1.4c0.1,0,0.1-0.1,0.1-0.1c0-0.1,0-0.1-0.1-0.2l-0.8-0.9c-0.1-0.1-0.2-0.1-0.2,0c-1,0.6-2.5,1.6-3.6,2.7
		c-1.6,1.5-2.2,2.9-1.8,4.2c0.1,0.2,0.4,0.4,1.2,0.9c0.1,0.1,0.3,0.2,0.4,0.3C140,75.8,140.1,75.8,140.2,75.8"/>
	<path fill="#E8E8E8" d="M141.6,78.2c0.5-0.1,1.2-0.3,1.4-0.5c0,0,0.1-0.1,0.1-0.1c0.1-0.3,0.2-0.8,0.2-1.2c0.1-0.6,0.2-1.3,0.5-2
		c0.5-1,1.1-1.7,2-2.5c0.2-0.2,0.4-0.4,0.6-0.6c0,0,0.1-0.1,0.1-0.2c0-0.1,0-0.1-0.1-0.2c-0.1-0.1-0.2-0.1-0.3-0.2
		c-0.2-0.1-0.3-0.2-0.5-0.4c0-0.1-0.1-0.1-0.1-0.1c-0.1,0-0.1,0-0.2,0.1c-0.2,0.2-0.4,0.4-0.6,0.6c-2.9,2.8-4,5.2-3.2,7.1
		C141.4,78.2,141.5,78.2,141.6,78.2"/>
	<path fill="#E8E8E8" d="M146.4,64.8c0,0.1,0,0.2,0,0.2c1.5,1.5,3.1,2.5,4.7,2.8c0.1,0,0.1,0,0.2-0.1c0,0,0,0,0,0
		c0.1-0.1,0-0.2,0-0.2c-0.5-0.8-1.1-1.1-1.6-1.3c-0.4-0.2-0.8-0.4-1.2-0.9c0.5-1.2,0.2-3.1-0.6-4.6c-0.7-1.3-1.8-2.1-2.9-2.3
		c-0.1,0-0.2,0-0.2,0.1c0,0.1,0,0.2,0.1,0.2C146.8,60.5,147.4,62.8,146.4,64.8"/>
	<path fill="#E8E8E8" d="M156,25.7c-0.4,0.1-0.1,0.8,0.3,0.7c2.2-0.4,4.4-0.4,6.5,0.2c0.5,0.1,0.4-0.6,0.1-0.7
		C160.6,25.3,158.3,25.3,156,25.7"/>
	<path fill="#E8E8E8" d="M115.8,63C115.8,63,115.7,63,115.8,63c-4.4,3.4-7.5,7.7-9.4,12.8c-0.2,0.5,0.4,1,0.7,0.4
		c1.5-4.2,3.9-7.8,7.1-10.8c0,0,0,0.1,0,0.1c0.2,0.3,0.5,0.8-0.2,1.5c-2.7,1.9-4.1,4.4-4.8,7.8c-0.1,0.4,0.5,0.2,0.5-0.1
		c0.5-2.9,1.7-5.1,3.8-6.8c0.1,0,0.1,0.1,0.2,0.1C114,68,114,68,114,68.1c-0.8,1.6-1.3,3-1.7,4.4c-0.3,1-0.6,2-1,3
		c0,0.1,0,0.1,0,0.2l0,0.1c0.2,0.3,0.4,0.8,0.8,0.8c0.2,0,0.3,0,0.5-0.1l0,0c0,0,0-0.1,0.1-0.1c0.6-2.3,1.6-4.6,2.6-6.8
		c1-2.3,2.1-4.6,2.7-6.9c0.2-0.1,0.4-0.2,0.5-0.4c0.7-0.7,0.9-1.6,1-2.4c0-0.1,0-0.2,0.1-0.3c0.4-0.9,1.1-1.6,2-2.2
		c0.5-0.4,1.1-0.7,1.6-1c0,0,0,0-0.1,0.1c2.1-1.4,5.9-2.5,8.1-6.6c1-1.5,1.6-3.3,2.1-5.2c0.1-0.3-0.3-0.7-0.4-0.3
		c-0.5,2.2-1.3,4.2-2.6,6c-1.4,2-3.7,3.3-5.7,4.5c-0.8,0.5-1.5,0.9-2.2,1.3c-0.3,0.1-0.5,0.3-0.7,0.4c-0.5,0.3-1,0.6-1.5,0.8
		c-0.1-0.1,0-0.2,0-0.4c0.1-0.2,0.2-0.4,0-0.7c0,0-0.1-0.1-0.1-0.1c-0.1,0-0.1,0-0.2,0.1c-1,0.9-2.3-0.1-3.6-1.3l-0.1-0.1
		c-2.8-2.5-5.5-6.2-5.7-8.7c0,0,0,0.1,0.1,0.1c0.9,0.6,2.2,1,3.2,0.4c0.3-0.2,0.4-0.9-0.1-0.7c-0.9,0.4-2,0.1-2.7-0.4
		c-0.2-0.1-0.4,0-0.5,0.2c0-0.1,0-0.2,0-0.3c0,0,0-0.1,0-0.1c0-0.1,0-0.2-0.1-0.4c0.7,0.5,1.6,0.8,2.5,0.8c0.4,0,0.6-0.7,0.1-0.7
		c-0.9,0-1.7-0.4-2.3-1c-0.1-0.1-0.4-0.1-0.5,0.1c-0.3-0.5-0.7-0.8-1.1-1.1c-0.3-0.2-0.5-0.3-0.7-0.5c-0.9-1-1.3-1.7-1.5-2.5
		c1.6,1.9,3.1,3.6,5.7,4.2c0.3,0.1,0.8-0.5,0.4-0.6c-2.5-0.5-3.9-2.2-5.4-4c-0.2-0.2-0.5,0-0.6,0.2c-0.1-0.7,0-1.5,0.2-2.3
		c0-0.3,0.1-0.5,0.1-0.8c0-0.1,0-0.2-0.1-0.2c-0.1,0-0.2,0-0.2,0c-0.4,0.5-1.2,1.3-1.6,2c-1.6,3,0.3,5.5,2.4,8.4
		c0.5,0.7,1,1.3,1.5,2.1c0.8,2.6,2.9,6,5,8.2c0.4,0.4,0.8,0.7,1.2,1c0.5,0.4,1,0.8,1.3,1.3C116.8,60.2,116.4,61.6,115.8,63"/>
	<path fill="#E8E8E8" d="M161,23.5c0-0.1,0-0.2,0-0.2c-0.6-0.6-0.7-1.2-0.7-1.8c-0.1-0.6-0.1-1.3-0.7-1.9c0,0-0.1-0.1-0.1-0.1
		c-5.9-0.7-11.8,1.4-16.3,5.7c-0.8,0.8-1.6,1.7-2.4,2.7c-0.1,0-0.5,0-0.7,0c-0.3,0-0.7-0.1-0.9,0c-0.1,0-0.1,0.1-0.1,0.1
		c-0.6,2.5-2.2,6.5-2.8,8.1c0,0.1,0,0.1,0,0.2c0.6,1.3,0.3,2.8-0.7,3.7c-0.7,0.7-1.7,1-2.7,1c-0.1,0-0.1,0-0.2,0.1
		c0,0.1,0,0.1,0,0.2l0.3,0.5c0.7,1,1.4,2,2.2,3.1c0,0.1,0.1,0.1,0.2,0.1c0.8-0.2,1.6-0.5,2.5-0.7c4-1.1,8.2-2.3,12.1-5.6
		c0.1-0.1,0.3-0.2,0.4-0.3l0.5-0.4c0.2-0.2,0.4-0.4,0.5-0.4c0.3-0.2,0.7-0.4,1.1-0.5c0.4-0.2,0.7-0.4,0.9-0.4c0,0,0.1,0,0.1,0
		c0.1,0,0.1-0.1,0.1-0.2c0,0-0.6-2.4-1-2.5c-0.5-0.1-1.3,0.4-2.6,1c-0.6,0.3-1.2,0.4-1.8,0.6c-0.6,0.1-1.1,0.3-1.6,0.6
		c-0.2,0.1-0.4,0.3-0.5,0.4c-0.4,0.4-0.8,1-1.1,1.5c-0.3,0.5-0.6,0.9-1,1.3c-0.1,0.1-0.3,0.2-0.4,0.3c-0.8,0.5-2.1,0.6-2.9,0.6
		c-0.4,0-0.6,0-0.7-0.1c0,0-0.1-0.3-0.2-0.4c0-0.1,0-0.1-0.1-0.2c-1-2.5-0.7-5.2,0.9-8.4c0.2,0,0.4-0.1,0.6-0.1
		c0.8-0.1,1.5-0.3,2.3-0.8c0.1-0.1,0.1-0.2,0.1-0.3c-0.2-0.3-0.5-0.5-0.8-0.7c-0.1,0-0.2-0.1-0.4-0.2c0.5-0.5,0.9-1,1.4-1.5
		c4.7-4.5,10-6.7,14.6-6c0,0.3,0,0.6-0.1,0.8c-0.8,0.2-2,0.5-2.9,0.9c-0.1,0-0.1,0.1-0.1,0.1c0,0.1,0,0.2,0.1,0.3
		c0.2,0.3,1,0.2,2.3,0.1c1.1-0.1,2.3-0.2,3.1-0.1C160.9,23.6,160.9,23.6,161,23.5"/>
	<path fill="#E8E8E8" d="M181.6,91.7c0.1,0,0.1-0.1,0.1-0.2c0-0.1,1-9-2-19.2c-2.9-9.7-10-18-10.1-18.1c-0.1-0.1-0.3-0.1-0.5,0
		c-0.1,0.1-0.1,0.3,0,0.5c0.1,0.1,7.1,8.2,10,17.8c3,10,2,18.8,2,18.9c0,0.2,0.1,0.3,0.3,0.4C181.4,91.8,181.5,91.8,181.6,91.7"/>
	<path fill="#E8E8E8" d="M109,38.8c0.5,1.2,1.6,1.8,2.7,2.2c0.5,0.1,0.5-0.6,0.1-0.8c-1-0.3-1.9-0.8-2.4-1.8
		C109.2,37.9,108.8,38.4,109,38.8"/>
	<path fill="#E8E8E8" d="M85.4,47.9c0.9-0.8,2.9-2.3,4.2-3.5c1.4-1.2,1.2-1.7,1.4-2.2c0.5-1,1.2-2.1,2.5-3.8
		c2.3-3.1,7.3-8.2,10.3-10.8c3.4-2.9,7.9-6.1,10.8-8.8c3-2.7,6-4.5,8.1-6.3c1.9-1.5,1.3-3.1,3.3-5.1c1.5-1.5,2.9-1.6,4.7-2.2
		c1.8-0.7,3.9-1.8,4.7-2.2c0.7-0.3,0.8-0.9,0.8-1.5c0-0.6-0.4-0.8-1.1-0.6c-0.6,0.1-6,0.8-10.5,4.2c-2.3,1.6-3.8,3.2-5.1,4.4
		c-1.3,1.2-3.3,2.5-4.8,3.9c-2.3,2-1.9,2-5.3,5c-3.4,3-9.6,7.1-12.6,10.3c-1.3,1.4-3.1,3.2-4.5,5.1c-1,1.2-2.9,4.3-3.9,5.8
		c-2.9,4.3-3.9,7.4-4,8.6C83.9,49.7,84.6,48.6,85.4,47.9"/>
	<path fill="#E8E8E8" d="M173.6,7.1c-6.1-3-19.1-6.1-22.4-6.8c-3.3-0.7-5.6,0.2-8.1,0c-2.5-0.2-4-0.2-4-0.2s-0.6,0-0.8,0.3
		c-0.2,0.3-0.2,0.6-0.4,1.1c-0.2,0.5-0.6,1.3-0.5,1.5c0.1,0.2,1,0,2.3-0.1c1.2-0.1,2-0.3,3-0.2c1.1,0.1,1.7,0.2,2.3,0.6
		c0.3,0.2,0.6,0.1,1.1,0c0.5-0.1,1-0.1,0.8-0.5c-0.2-0.4-0.8-0.9-0.9-1c-0.2-0.2-0.4-0.6,0.2-0.5c0.7,0.1,8.2,2.2,11.4,3
		c3.2,0.9,8.2,2.1,10.4,2.7c2.3,0.6,4,0.8,5.2,1.3c2.2,0.9,6.6,3.5,9.1,5.4c2.6,1.9,3.2,2.3,4.5,2.7c1.2,0.4,2.1,0.4,4.1,1.4
		c1.9,1,7.1,4.6,10.4,8c3.3,3.4,9.3,12.6,11.1,17.1c3.5,8.8,2.6,9.1,2.6,10.8c0,3.5,3.6,13,3.6,15.6c0,1.5-0.1,5.6-0.8,9.9
		c-0.6,4-1.6,8.2-2.3,10.7c-1,3.2-4.3,11.4-6,14.3c-1.7,2.8-2.5,4.8-7.5,10.7c-5,5.9-11.1,9.2-13,10.2c-1.8,0.9-8.3,3.5-12.8,5.3
		c-4.5,1.8-10.6,4.8-12.8,5.4c-2.2,0.5-7.6,0.6-9.6,1c-2,0.5-1.5,1.4-7.9,2c-6.4,0.7-8.6-0.1-9.2-0.2c-0.2-0.1-0.5-0.3-0.7-0.6
		c0,0,0.1,0,0.1-0.1c4.3-0.7,9.5,0.9,13.6-1c2.2-1.1,4.8-1,7.2-2c-3.8-4.2-3-9.2-4.1-13.7c-7.4-1-14.8-4-22.1-8.8
		c-3.6-3.1-9.5-7.6-7.8-11.8c-2.7-3.3-5.9-7.6-7.7-11.3c-2.3-0.6-4.1-3.6-5.9-5.3c-0.2-0.2-0.7-0.6-1-0.5c-0.3,0.1-0.4,0.4-0.3,1.1
		c0.1,1.1,0.6,2.2,0.2,3.4c-0.5,0.3-1.1,0.4-1.1,1.1c0,0.3-0.1,2-0.4,2.6c-0.4,0.1-0.9,0.2-1.4,0c-0.2-0.1-0.8-2.7-1.8-5.6
		c-0.1-0.3-0.3-0.7-0.5-0.7c-0.9,0.4-0.6,1-0.6,2.5c-0.1,1.9,0,4.4-0.3,4.8c-0.1,0.1-0.7,0-1.4-0.2c0.3-3.3-0.5-4.3-1-7.4
		c-0.1-0.7,0.3-2.8,0.2-3.8c-0.1-0.6-0.3-0.5-0.7-0.6c-0.8,3.6-1,6.6-0.9,10.8c-0.1,0.1-0.7,0-0.9-0.2c-0.5-2.5-0.8-5.1-0.7-7.6
		l-1.4-1.4c0.2-2.7,0.9-5.4,1.8-8.1c2.3-2.7,3.4-5.8,5.4-8.4c0.4-0.5,1.1-1.5,1.7-2c2.5-2.2,8.4-0.4,10.1-2.7c-0.4-2-2.7-3.4-4-5.3
		c-1.4-2.6-1.9-5.2-4.2-7.8c-2.7-3.4-4.5-6.9-2.3-10.5c1.5-2.5,3.7-3.1,5.9-3.8c4.6,0.6,10.7-0.6,15.5,1.1c1.8,0.6,3.5,3.4,5.3,4.2
		c1.1-0.7,2.4,0.2,3.2-0.6c1-1-0.1-3,0.9-4.3c2.2-2.4,2.3-4.9,2.4-7.4c1.5-0.1,2.4-1.2,3.5-2.3c5.6-5.5,13.4-8.3,18.9-6.6
		c1.8,0.6,2.6,2.3,3.1,3.8c1.1,0,2.7-0.8,3.4,0.7c0.5-0.1,0.4-0.7,1-0.3c1,1.3-1.4,2.7-1.4,3.6c0.6-0.2,1.2-0.5,1.8-0.1
		c-0.7,0.9-0.7,2-1.2,2.7c-2.2,2.6-6.5-0.3-9,1.7c0.7,0.4,0.1,0.7,0.4,1.1c2.3-0.7,8.6-1.5,8,1.9c-1.5,1.2-3.1,3.4-4.1,5.2
		c1.4,1.7,3.1,3.3,4.9,4.2c1.3,0.6,3.4,0.6,3.9,1.1c0.2,0.2,0.2,1.4,0.3,1.6c0.7,1.8,1.8,3.3,3.6,4.8c2.6,2.3,5.6,4.6,7.5,7.2
		c1.5,2.1,3,4.5,4.1,6.7c2.1,4.1,3,8.9,5.8,13.1l1.3,1.3c-1.1,2.8-1.2,5.6-0.8,8.4c0.1,0.4,2.2,0,2.3,0.4c0.2,2.3,2.5,5.5,3.7,8.7
		c0.2,2.3-0.6,5.9-0.3,8.5c0,0.2,1.6,0.3,1.7,0.7c0.1,0.2,0.5,1.8,0,2.5c-0.3,0.5-0.9,0.4-1.4,0.7c-2.5,1.6-3,4.1-3.7,5.5
		c0,0.1-0.1,0.4-0.3,0.4c-0.2,0-0.3-0.2-0.4-0.3c-1.2-0.9-2.6-1.3-3.3-1.1c-2.6,0.4-5.4,3.6-3.7,6.1c0.3,0.4,0.5,0.8,0.6,1.1
		c0.1,0.2,0.1,0.4-0.1,0.7c-0.2,0.3-0.8,0.3-1.3,0.4c-3.5,0.6-7.9,1.1-8.7,1.5c-0.4,0.1-0.9,0.8-1.3,0.9c-3.1,0.7-6.3-0.5-9.4,0.6
		c-0.8,0.7,0.8,1.6,1.5,2.4c0.7,0.9,1.5,3.1,0.7,3.4c-2.7,1.3-5.4,2.9-8,2c-0.1,0.1-0.2,0.1-0.2,0c-0.7,0.6-0.3,1.3,0,1.9
		c2.2,0.2,4.2,0.1,6.7-1.2c5.7-4.3,13.2-3.9,19.5-7.5c0.4-0.2,0.9-0.5,1.3-0.8c2.3-1.8,4.4-3.7,7-5.5c1.5-1,2.8-1.5,3.9-3.4
		c1-2.2,2.6-2.7,3.7-4c2-2.4,3.5-6.4,4.8-8.9c1.3-2.4,2.9-5.1,4.6-7.5c0.9-1.2,2.2-4.6,2.6-6.4c2-9.5,0.6-18-1.6-27.3
		c-0.5-2-1.1-4-0.6-5.5c1.6-4.9,0.5-9-2.1-13.6c-1.2-2-1.6-2.7-2.4-4.3c-2.9-5.5-8.1-11.1-12.7-15.3c-4.2-4-12.4-5.1-16.5-8.7
		c-3.1-2.7-5.5-3.8-8.4-4.7c-1.6-0.6-7.7-1-14.3-3.1c-2.3-0.7-4.8-1.3-7.4-1.5c-2.6-0.2-5.3-1-7.4-0.9c-2.5,0.1-5.2,1.5-7.8,2
		c-1.7,0.4-3.5,0.6-4.9,1.1c-3.3,1.2-2.9,4.8-5,7.1c-1,1-1.2,1-2.2,1.5c-6.5,3.1-12.5,10.6-19,16c-2.6,2.1-5.2,4.3-7,6.8
		c-1.5,1.9-1.8,3.6-2.4,5.6c-0.2,0.8-1.1,1.5-0.9,2.2c0.1,0.5,0.5,1,0.7,1.3c0.5,1.2,0.9,2.1,1.8,3.3c0.7,0.9,1.4,1.8,0.6,2
		c-2.3,0-4.7,0.8-7,1.3c-0.6,0.1-0.8,0.6-0.6,1.5c0.2,1.5-0.2,2.2-0.9,3.8c-1.8,2.8-2.6,5.7-2.1,8.6c0.3,1.6,1.4,3.6,1.6,5.2
		c0.6,3.4,0.5,7,0.8,10.7c0.3,3.7,1.1,7.3,1.5,10.8c0.4,3.7,0.1,8.3,3.3,12.1c6.9,8.4,12.6,16.9,22.1,23.7c0.7,0.6,1.3,0.9,2.5,1.5
		c4.5,1.7,4.5,3,5.5,3.3c1.7,0.7,4.8-1.5,7.5-4.3c0.3-0.3,0.5-0.7,0.8-0.9c1-0.5,1.7,0.1,2.6,0.7c0.3,0.2,0.9,0.2,1.1,0.4
		c-0.2-0.1-0.5,0-1.1,0c-0.5,0-0.9,0-1.4,0.2c-1,0.4-1.3,1-2.2,2.3c-0.8,1.2-1,1.8-2,2.9c-1.8,1.9-3.3,1.1-5.1,0.2
		c-1.8-1-3-2.1-4.9-3.6c-2-1.5-2-0.7-4-1.7c-2-1-3.9-2.4-5.5-4.1c-1.6-1.7-2.5-2.8-3.5-3.8c-1.1-0.9-1.7-1-4.2-3.5
		c-2.5-2.5-3.4-5.8-5.6-8.3c-2.2-2.5-2.7-2.8-4.6-6.7c-1.9-3.9-1.5-7.5-2-10.2c-0.4-2.7-1.3-4.6-1.9-9.4c-0.6-4.9-0.6-7.9-0.7-10.9
		c-0.2-2.9-1.1-5.2-1.4-7.3c-0.3-2.1,0.5-3.5,0.9-5.5c0.4-2.1,2.5-4.7,2-4.8c-0.2,0-1.2,1.1-2.1,0.8c-1-0.3-1.1-1.1-1.4-0.9
		c-0.3,0.2-1.1,5.7-1.1,9.6l-0.1,0l-0.4,0.2c0,0-0.1,0.6-0.3,1.5l0.8,0c0,0.5,0.1,1,0.2,1.5l-1.3,0.1c-0.1,0.5-0.1,1.1-0.2,1.6
		l1.8-0.1c0.1,0.4,0.2,0.7,0.2,1.1L80.6,72c0,0.3,0,0.5,0,0.8c0,0.2,0,0.5,0.1,0.8l2.3-0.2c0.1,0.6,0.2,1.1,0.3,1.5L81,75.2
		c0.1,0.5,0.2,1,0.3,1.6l2.2-0.2c0,0.4,0.1,0.7,0.1,1.1l-2.1,0.2c0.1,0.5,0.2,1.1,0.3,1.6l2-0.1c0,0.3,0.1,0.6,0.1,1
		c0,0.2,0.1,0.4,0.1,0.6L82.2,81c0.1,0.5,0.2,1.1,0.3,1.6l1.7-0.1c0.1,0.4,0.1,0.7,0.1,1.1l-1.7,0.2c0.1,0.6,0.2,1.1,0.2,1.6
		l1.7-0.2c0.1,0.5,0.1,1,0.2,1.5L83.1,87c0,0.4,0,0.8,0,1.1c0,0.2,0,0.3,0,0.5l1.9-0.2c0,0.4,0.1,0.7,0.1,1.1l-1.9,0.3
		c0,0.5,0.1,1.1,0.1,1.6l1.9-0.3c0,0.5,0.1,1,0.2,1.5l-1.9,0.3c0.1,0.5,0.1,1.1,0.2,1.6l1.9-0.2c0,0.4,0.1,0.7,0.2,1.1l0,0L84,95.8
		c0.1,0.6,0.2,1.1,0.3,1.6l1.9-0.4c0.1,0.5,0.3,1,0.4,1.5l-2,0.5c0.1,0.6,0.2,1.1,0.3,1.6l2.1-0.5c0.1,0.4,0.2,0.7,0.4,1.1l-2.2,1
		c0.1,0.5,0.3,1,0.4,1.6l2.3-1c0.2,0.6,0.4,1.1,0.5,1.5l-2.4,1.1c0.1,0.5,0.3,1,0.5,1.6l2.3-1c0.1,0.3,0.2,0.7,0.3,1.1l-2.3,1
		c0.2,0.5,0.3,1.1,0.5,1.6l2.3-1c0.2,0.4,0.4,0.9,0.7,1.4l-2.5,1.1c0.1,0.4,0.3,0.7,0.4,1c0.1,0.2,0.1,0.4,0.2,0.5l2.7-1.2
		c0.1,0.2,0.2,0.4,0.4,0.6c0.1,0.1,0.2,0.3,0.3,0.4l-2.6,1.8c0.2,0.5,0.5,0.9,0.8,1.5l2.8-1.9c0.3,0.4,0.6,0.9,0.9,1.2l-2.9,2
		c0.3,0.4,0.6,0.9,1,1.3l3-2.1c0.3,0.3,0.5,0.6,0.7,0.8l-2.8,2.4c0.3,0.4,0.7,0.8,1,1.3l2.9-2.5c0.4,0.4,0.7,0.7,1.1,1.1l-3,2.5
		c0.4,0.4,0.7,0.8,1.1,1.2l3-2.6c0.2,0.2,0.5,0.5,0.7,0.8c0,0,0,0,0,0l-3,2.5c0.4,0.4,0.7,0.8,1.1,1.2l2.9-2.5
		c0.3,0.4,0.7,0.7,1.1,1.1l-2.9,2.5c0.1,0.1,0.3,0.3,0.4,0.4c0.3,0.3,0.5,0.5,0.8,0.8l2.9-2.5c0.2,0.2,0.5,0.5,0.7,0.7l-2.5,2.8
		c0.4,0.4,0.8,0.8,1.2,1.1l2.5-2.8c0.4,0.4,0.8,0.7,1.1,1.1l-2.5,2.9c0.4,0.4,0.8,0.8,1.2,1.1l2.6-2.9c0.3,0.2,0.5,0.5,0.8,0.7
		l-2.6,2.9c0.4,0.4,0.8,0.8,1.2,1.1l2.6-3c0.4,0.3,0.9,0.7,1.3,0.9l-2.7,3.1c0.5,0.4,0.9,0.7,1.3,1l2.9-3.2c0.3,0.2,0.6,0.3,0.9,0.4
		l-2.5,3.7c0.5,0.3,0.9,0.5,1.4,0.8l2.6-3.8c0.5,0.2,1,0.4,1.4,0.7l-2.6,3.9c0.5,0.2,1,0.5,1.5,0.7l2.5-3.8c0.2,0.2,0.5,0.3,0.7,0.5
		l-1.9,4c0.5,0.3,0.9,0.6,1.4,0.9l1.8-3.9c0.4,0.3,0.8,0.6,1.3,0.9l-1.8,3.8c0.5,0.3,0.9,0.6,1.4,0.9l1.8-3.9c0,0,0,0,0,0
		c0.3,0.2,0.6,0.3,0.9,0.4l-1.8,3.9c0.5,0.2,1,0.4,1.5,0.5l1.8-3.9c0.5,0.2,1,0.3,1.5,0.4l-1.8,3.9c0.5,0.1,1.1,0.3,1.6,0.4l1.9-4
		c0.3,0,0.5,0.1,0.7,0.1l-0.8,4.2c0.5,0.1,1.1,0.2,1.6,0.3l0.8-4.4c0.2-0.3,0.9-1.1,1.2-2.9c0.2-1,0.2-1.8,0.5-2.6
		c0.5-1.6,0.7-1.8,1-2.4c0.3-0.4,0.5-0.7,0.7-0.8c0.1-0.1,0.3-0.1,0.4-0.2c0.1,0.3,0.3,0.8,0.1,1.1c-0.2,0.4-0.7,0.2-0.8,0.5
		c-0.1,0.3-0.8,2.9-0.9,3.9c-0.1,0.9-0.5,1.9-0.5,2.7l-1,5.5c0.6,0.1,1.1,0.2,1.6,0.2l0.8-4.6c0.3,0.1,0.7,0.2,1.1,0.2l-0.8,4.5
		c0.6,0.1,1.1,0.2,1.6,0.2l0.8-4.4c0.5,0.1,1,0.2,1.5,0.3l-0.8,4.4c0.5,0.1,1,0.2,1.6,0.2l0.8-4.3c0.2,0.1,0.5,0.1,0.8,0.1l0.1,4.4
		c0.5,0,1,0.1,1.6,0.1l-0.1-4.3c0.5,0.1,1,0.1,1.6,0.2l0,4.2c0.2,0,0.3,0,0.5,0c0.4,0,0.8,0,1.1,0l-0.1-4.2c0.3,0,0.5,0,0.8,0
		c0.1,0,0.2,0,0.3,0l0,4.2c0.5,0,1.1-0.1,1.6-0.1l0-4.1c0.6,0,1.1,0,1.5-0.1l0,4c0.5-0.1,1.1-0.2,1.6-0.3l0-3.9
		c0.3-0.1,0.6-0.1,0.9-0.2l0.6,3.7c0.5-0.1,1-0.3,1.6-0.4l-0.6-3.7c0.5-0.1,1-0.3,1.5-0.5l0.6,3.7c0.5-0.2,1-0.3,1.6-0.5l-0.6-3.7
		c0.1,0,0.2-0.1,0.4-0.1c0.1,0,0.2-0.1,0.2-0.1l1.4,3.4c0.5-0.2,1-0.3,1.6-0.5l-1.4-3.4c0.5-0.2,1-0.3,1.5-0.5l1.4,3.4
		c0.5-0.2,1-0.3,1.6-0.5l-1.4-3.4c0.4-0.1,0.7-0.2,1.1-0.3l1.3,3.4c0.5-0.2,1-0.3,1.6-0.5l-1.3-3.4c0.5-0.2,1-0.3,1.5-0.5l1.3,3.3
		c0.5-0.2,1-0.4,1.6-0.5l-1.3-3.3c0.4-0.1,0.7-0.2,1-0.3l1.3,3.3c0.5-0.2,1-0.4,1.5-0.6l-1.2-3.2c0.5-0.2,1-0.3,1.5-0.5l1.2,3.2
		c0.5-0.2,1-0.4,1.5-0.6l-1.2-3.2c0.1-0.1,0.3-0.1,0.4-0.2c0.2-0.1,0.4-0.2,0.6-0.2l1.2,3.2c0.5-0.2,1-0.4,1.5-0.6l-1.2-3.2
		c0.5-0.2,1-0.4,1.4-0.6l1.2,3.2c0.5-0.2,1-0.4,1.5-0.6l-1.2-3.1c0.3-0.1,0.6-0.3,0.9-0.4l1.7,2.9c0.6-0.3,1.2-0.5,1.5-0.7l-1.7-2.9
		c0.4-0.2,0.9-0.4,1.4-0.7l1.8,3c0.5-0.2,1-0.4,1.5-0.6l-1.8-3.1c0.3-0.2,0.7-0.3,1-0.4l2.3,2.9c0.5-0.2,0.9-0.5,1.4-0.8l-2.1-2.7
		c0.5-0.2,0.9-0.4,1.4-0.7l2,2.5c0,0,0.1,0,0.1-0.1c0.4-0.3,0.8-0.6,1.2-1l-1.8-2.3c0.3-0.2,0.6-0.4,1-0.6l1.8,2.1
		c0.4-0.3,0.8-0.7,1.3-1.1l-1.8-2.1c0.3-0.2,0.6-0.5,1-0.8c0.1-0.1,0.2-0.1,0.2-0.2l1.8,2c0.4-0.4,0.8-0.7,1.2-1.1l-1.7-2
		c0.3-0.2,0.6-0.5,0.9-0.7l1.8,1.9c0.4-0.4,0.8-0.8,1.2-1.1l-1.7-1.8c0.4-0.3,0.8-0.7,1.2-1l1.6,1.7c0.4-0.4,0.8-0.8,1.1-1.2
		l-1.5-1.6c0.3-0.3,0.6-0.5,0.8-0.8l1.6,1.5c0.4-0.4,0.7-0.8,1.1-1.2l-1.5-1.5c0.3-0.3,0.7-0.7,1.1-1.1l1.5,1.5
		c0.4-0.4,0.7-0.8,1.1-1.2l-1.5-1.5c0.3-0.3,0.5-0.6,0.8-0.8l1.5,1.4c0.4-0.4,0.7-0.8,1.1-1.2l-1.5-1.3c0.4-0.4,0.7-0.7,1.1-1.1
		l1.4,1.3c0.3-0.4,0.6-0.7,0.8-1c0.1-0.1,0.1-0.2,0.2-0.3l-1.4-1.2c0.3-0.3,0.6-0.7,0.8-1l1.4,1c0.3-0.5,0.6-0.9,0.9-1.4l-1.3-0.9
		c0.3-0.4,0.6-0.8,0.9-1.2l1.1,0.8c0.3-0.5,0.5-1,0.7-1.5l-0.9-0.6c0.1-0.1,0.2-0.3,0.3-0.4c0.1-0.2,0.2-0.3,0.3-0.5l0.8,0.5
		c0-0.1,0-0.1,0.1-0.2c0.2-0.6,0.2-1.2,0.2-1.6l-0.2-0.1c2.8-5.2,4.9-12.4,5.5-14.7c0.8-2.6,2.9-11.2,2.5-18.9
		c-0.4-7.7-1.1-17.4-5.5-26.5s-6-12.6-11.6-19C196.6,18.8,179.6,10.1,173.6,7.1 M205.5,87.7c-2.5,2.6-3.2,5.3-4,7.9
		c-2.2-2.7-2.2-8.5-6.7-9.6c-0.6-2.5-2.2-5.6,0.3-7.7c1.3,0.3,2.7,0.5,4,0.6C202,81.3,205.4,84.6,205.5,87.7 M133.9,131L133.9,131
		L133.9,131L133.9,131z"/>
	<path fill="#E8E8E8" d="M158.5,136.1c0,0.1,0.1,0.2,0.2,0.2c0.1,0,0.3-0.1,0.4-0.1c0.1,0,0.2-0.1,0.2-0.2c0-0.5,0-0.9-0.1-1.4
		c-0.1-1.9-0.2-3.9,0-5.9c0.6,0.6,1.4,1.6,1.9,2.3l0,0c0,0,0.1,0.1,0.1,0.1c0.9,0.2,2.3-0.1,3.5-0.6c0.1,0,0.1-0.1,0.1-0.1
		c0-0.1,0-0.1,0-0.2c-0.4-0.5-0.7-1-1-1.2c-0.1-0.1-0.4-0.1-0.8,0c-0.2,0-0.5,0.1-0.6,0.1c-0.1-0.1-0.4-0.6-0.6-0.9
		c-0.1-0.2-0.2-0.3-0.3-0.4c-0.1-0.2-0.2-0.4-0.1-0.4c0,0,0,0,0,0c0.8,0.2,1.6,0.5,2.4,0.9c1,0.4,1.9,0.9,2.9,0.9
		c0.1,0,0.1,0,0.1-0.1c0,0,0,0,0,0c0-0.1,0-0.2,0-0.2c-0.4-0.6-0.6-1.2-0.8-1.8l-0.1-0.2c0-0.1-0.1-0.1-0.2-0.1
		c-3.2-0.4-5.9-1.8-8.5-4.2l-0.1-0.1c-0.3-0.3-0.8-0.7-0.8-1.1c0-0.3,0.1-0.6,0.3-0.8c0.3-0.3,0.9-0.6,1.5-0.8l0.4-0.1
		c0.7-0.3,1.6-0.6,2.1-1.1c0.3-0.2,0.4-0.5,0.3-0.8c0,0,0,0,0,0c-0.3-0.7-1.6-0.9-2.6-1c-0.8-0.1-1.9-0.2-2.7-0.1c0,0,0,0,0,0
		c-0.1,0-0.2,0.1-0.2,0.1c-0.2,0.2-0.2,0.4-0.1,0.6c0,0.3,0.1,0.5-0.2,0.6c-11.2-0.4-20.5-4.4-29.2-12.4c-0.1-0.1-0.2-0.1-0.3,0
		c-0.1,0.1-0.1,0.2,0,0.3c7.3,7.8,16.7,12.4,28.9,14.2c0.1,0.5,0.1,1,0.1,1.6c0,0.6,0,1.3,0.1,2.4c0.1,0.4,0.1,0.9,0.2,1.3
		c0.2,2.1,0.5,5,2.6,6.7c0.1,0.9,0.3,1.8,0.5,2.7C158.3,135.1,158.4,135.6,158.5,136.1"/>
	<path fill="#E8E8E8" d="M132.4,107.4c8.1,5.7,15.4,7.6,22.7,9.1c0.1,0,0.1,0,0.2-0.1c0,0,0-0.1,0.1-0.1c0.3-1.2,0.7-2.2,1.4-3.3
		c0.1-0.1,0.1-0.1,0-0.2c0-0.1-0.1-0.1-0.2-0.1c-12.6-0.1-25.5-7.6-34.5-20c-1.6-2.2-2.6-4.5-3.7-6.7c-0.7-1.4-1.3-2.8-2.1-4.1
		c0,0-0.1-0.1-0.1-0.1c-0.1,0-0.1,0-0.2,0c-0.2,0.1-0.3,0.3-0.5,0.4c-0.5,0.5-1,0.9-1.7,0.7c-1.2-2.5-2.8-6-6-5.6
		c-0.1,0-0.2,0.1-0.2,0.2c0,0.3-0.1,0.9-0.3,1.3c-0.2,0.1-0.6,0.1-0.8,0.2c-0.4,0.1-0.6,0.1-0.7,0.2c0,0,0,0,0,0
		c-0.8,2.5-1,5-0.7,6.9c0,0.1,0,0.2,0,0.3c0.1,0.9,0.3,1.5,0.5,1.6c0,0,0.1,0,0.1,0c0.2,0,0.5-0.1,0.6-0.2c0.1-0.1,0.1-0.2,0.1-0.3
		c0-0.3,0-0.6-0.1-1c-0.1-0.4-0.1-0.8-0.1-1.1c0-1.1,0.2-2.4,1.2-3.3c0.1-0.1,0.3-0.2,0.5-0.4c0,0,0,0,0.1,0
		c0.6,0.5,1.2,0.7,1.7,0.8c0.4,0.1,0.8,0.2,1.2,0.5c0.6,0.4,1,1,1.4,1.7c0.4,0.7,0.8,1.4,1.5,1.9c0.5,0.4,0.9,0.4,1.4,0.5
		c0.3,0.1,0.7,0.1,1.1,0.3C119.1,93.6,124.8,102.3,132.4,107.4"/>
	<path fill="#E8E8E8" d="M175.7,86.5c0.1-0.1,0.1-0.1,0.1-0.2c0-0.1,0.6-7.8-2.7-15.2c-3.4-7.8-7.1-11.1-7.3-11.2
		c-0.1-0.1-0.3-0.1-0.5,0c-0.1,0.1-0.1,0.3,0,0.5c0,0,3.8,3.4,7.1,11c3.2,7.3,2.6,14.9,2.6,14.9c0,0.2,0.1,0.3,0.3,0.3
		C175.5,86.6,175.6,86.6,175.7,86.5"/>
	<path fill="#E8E8E8" d="M178.9,88.1c0,0.2,0.2,0.3,0.3,0.3c0.1,0,0.1,0,0.2-0.1c0.1-0.1,0.1-0.2,0.1-0.3c0-0.1-0.7-10.2-4-18.2
		c-3.3-8-8.7-13.4-8.8-13.5c-0.1-0.1-0.3-0.1-0.5,0l0,0c-0.1,0.1-0.1,0.3,0,0.5c0,0,5.4,5.4,8.6,13.3C178.2,78,178.9,88,178.9,88.1"
		/>
	<path fill="#E8E8E8" d="M172,84.1c0,0,0.1-0.1,0.1-0.2c0-0.2,1-4.9-2.7-13.2c-3-6.8-7.2-9.8-7.4-10c-0.2-0.1-0.3-0.1-0.4,0.1
		c-0.1,0.1-0.1,0.4,0.1,0.5c0.1,0,4.2,3.1,7.1,9.7c3.6,8.1,2.7,12.7,2.7,12.8c0,0.2,0.1,0.3,0.2,0.4C171.8,84.2,171.9,84.1,172,84.1
		"/>
	<path fill="#E8E8E8" d="M163,34.7c0.2-0.2,0.4-0.5,0.6-0.7c0-0.1,0.1-0.2,0-0.2c-0.1-0.1-0.2-0.4-0.3-0.6c-0.3-0.7-0.7-1.5-1.3-1.3
		c-0.9,0.3-1.8,0.4-2.7,0.6c-1.7,0.3-3.5,0.6-5.2,1.6c-0.1,0.1-0.1,0.2-0.1,0.3c0.4,0.7,0.7,1.4,1,2.1c0.9,2,1.7,3.9,3.8,5.9
		c0,0,0,0,0.1,0.1c4.2,1.3,8,3.5,11.7,6.6c0.1,0.1,0.2,0.1,0.3,0c0,0,0,0,0,0c0.1-0.1,0.1-0.1,0-0.2c-0.2-0.5-0.3-1-0.4-1.4
		c-0.2-0.8-0.4-1.5-1.1-2.4c-0.5-0.7-1.7-1.2-2.9-1.8c-0.8-0.4-1.7-0.8-2.4-1.3c-0.5-0.4-1.1-0.8-1.5-1.1
		C160,38.6,161.5,36.6,163,34.7"/>
	<path fill="#E8E8E8" d="M189.6,83.6c-0.1-0.2-0.1-0.5-0.2-0.7c-0.1-0.7-0.3-1.4-0.9-1.5c-0.1,0-0.1,0-0.2,0c-0.1,0-0.1,0.1-0.1,0.2
		c0,0.3,0,0.7,0,1.1c0,1.2,0,2.7,0.2,3.7c-0.5,1.2-0.4,2.3-0.4,3.6c0,0.5,0,1.1,0,1.7c-0.1,0.1-0.1,0.2-0.2,0.3
		c-0.2,0.2-0.5,0.3-0.7,0.5c-0.2,0.1-0.4,0.3-0.6,0.4c-0.1,0-0.1,0.1-0.1,0.1c0,0.1,0,0.1,0.1,0.2c0.7,0.7,1,1.1,1.4,1.5
		c-0.3,1.7-1.1,3.3-1.8,4.9c-0.3,0.7-0.7,1.4-1,2.2c-0.4,1,0.3,1.7,0.9,2.3c0.6,0.6,1.2,1.1,1.3,2c-0.2,0.3-0.5,0.7-0.9,1.1
		c-0.4,0.4-0.7,0.7-0.9,1.1c-0.1,0.2-0.1,0.4,0.1,0.5l0,0c0,0.1,0,0.2,0.1,0.2c0.1,0.1,0.2,0,0.2,0c0.6-0.5,1.1-0.9,1.6-1.3
		c1-0.8,1.9-1.6,2.9-2.2c0.1,0,0.1-0.1,0.1-0.2c0-0.8-0.1-1.6-0.1-2.4c-0.1-2.1-0.2-4.3,0-6.4c0.1-0.4,0.5-0.8,0.9-0.8
		c1.9,0.6,1.6,2.8,1.4,4.4l0,0.3c-0.1,0.7-0.2,1.6-0.4,2.4c-0.1,0.5-0.2,1.1-0.3,1.7c0,0.2-0.1,0.5-0.1,0.9
		c-0.2,1.2-0.5,3.1-0.9,3.5c0,0,0,0-0.1,0.1c-1.7,0-3.5,0.8-5.5,2.6c-1.2,1.1-2,2.7-2.4,4.9c-5.4,3-11.2,3.5-17.7,1.4
		c-0.1,0-0.1,0-0.2,0c-0.1,0.1-0.2,0.2-0.3,0.3c-0.1,0.2-0.3,0.3-0.5,0.5c-0.3,0.2-0.5,0.4-0.6,0.5c-0.1,0-0.1,0.1-0.1,0.2
		c0,0.1,0.1,0.2,0.2,0.2c0.4,0.1,0.7,0.1,1,0.1c0.5,0,0.9,0,1.5,0.2c0.9,0.4,1.9,0.9,3.1,1.6c0.3,0.2,0.5,0.3,0.7,0.5
		c0.5,0.4,1.1,0.9,2.1,0.9c0.6,0,1.8-0.4,3.5-0.9c3-0.9,7-2.2,10.1-2c0.1,0,0.2,0,0.2-0.1c0-0.1,0-0.1,0-0.2c-1.1-2-0.7-4.7,1.1-6.4
		c0.6-0.5,1.3-1,2-1.3c1.8-0.7,3.4,0,4.5,0.8c0.1,0,0.1,0,0.2,0c0,0,0.1,0,0.1-0.1c0,0,0,0,0-0.1c0.8-2.2,1.7-3.7,2.6-4.6
		c0.6-0.6,1.3-0.9,1.9-1c0.1,0,0.1,0,0.2-0.1c0.2-0.3,0.1-0.8,0.1-1.1c0-0.1,0-0.1,0-0.1c0-0.1-0.1-0.2-0.2-0.2
		c-0.3-0.1-1.1-0.2-1.2-0.3c-0.6-1.8-0.4-3.5-0.3-5.1c0.1-1.2,0.2-2.5,0-3.7c-0.2-1-1-2.2-1.6-3.2c-0.3-0.6-0.6-1.3-0.9-1.9
		c-0.4-1-0.7-1.6-1.1-1.8c-0.1,0-0.1,0-0.2,0c-0.1,0-0.1,0.1-0.1,0.2c0,0.1,0,0.2,0,0.3c-0.1,0.9-0.2,1.9-0.7,2.5
		c-0.4-1.1-1.5-4.7-2.2-7C189.9,84.6,189.7,83.9,189.6,83.6"/>
	<path fill="#E8E8E8" d="M166.1,75.9c0,0.2,0.2,0.3,0.3,0.3c0.1,0,0.2,0,0.2-0.1c0.1-0.1,0.1-0.2,0.1-0.2c0-0.2-0.1-3.7-2.6-7.9
		c-2.5-4.2-5.3-5.8-5.5-5.8c-0.2-0.1-0.4,0-0.4,0.1c-0.1,0.2,0,0.4,0.1,0.4c0,0,2.8,1.6,5.2,5.6C166,72.4,166.1,75.9,166.1,75.9"/>
	<path fill="#E8E8E8" d="M161.2,73.2c0,0.2,0.1,0.3,0.3,0.4c0.1,0,0.2,0,0.3-0.1c0.1-0.1,0.1-0.1,0.1-0.2c0-0.1,0.2-1.6-0.9-3.7
		c-0.9-1.7-2.4-2.7-2.4-2.7c-0.2-0.1-0.4-0.1-0.5,0.1c-0.1,0.1-0.1,0.3,0.1,0.4c0,0,1.4,0.9,2.2,2.5
		C161.4,71.8,161.2,73.2,161.2,73.2"/>
	<path fill="#E8E8E8" d="M157,42.1c-1.7,0.7-3.5,1.8-5.8,3.7c-0.9,0.2-1.7,0.5-2.6,0.8c-1,0.3-2,0.7-3.1,0.9
		c-0.6,0.2-1.3,0.3-1.9,0.4c-1.4,0.3-3,0.5-4,1.3c-1,0.7-1.2,2.3-1.5,3.8c-0.2,1.1-0.4,2.3-0.8,2.9c-0.5,0.7-1.1,1.4-1.7,2
		c-0.7,0.7-1.5,1.3-2.3,2c-0.9,0.7-1.8,1.4-2.7,2.3c-0.6,0.6-1.1,1.2-1.6,1.8c-0.8,0.3-1.7,0.5-2.5,0.7c-1.6,0.4-3.3,0.8-4.9,2
		c-0.1,0-0.1,0.1-0.1,0.1c0,0.7-0.1,1.3-0.1,2c0,2.2-0.1,4.6-1.6,6.3c0,0,0,0-0.1,0.1c-0.2,0.5-0.3,1-0.4,1.4
		c-0.3,1-0.6,1.9-1.2,2.9c-0.4,0.2-0.7,0.3-1.1,0.3l-0.1,0c-0.1,0-0.1,0.1-0.2,0.2c0,0.1,0,0.2,0.1,0.2c0.2,0.1,0.4,0.3,0.5,0.6
		c0.3,0.4,0.7,0.8,1.1,0.8c0.1,0,0.2-0.1,0.2-0.2c0.2-1.1,0.8-2,1.8-3c0.5-0.4,0.9-0.8,1.5-1.3c0.5-0.4,1-0.9,1.5-1.3
		c0,0,0.1-0.1,0.1-0.2l0-0.3c-0.3-2.1-0.8-5.6,1-7.3l0.1-0.1c1.2-1.1,3.1-1,4.9-0.7c0.1,0.3,0.3,0.7,0.5,1c0.2,0.3,0.4,0.6,0.5,0.9
		c0,0,0,0,0,0c-1.5,1.5-1.4,3-1.1,4.4c0,0.1,0.1,0.2,0.2,0.2c0.6,0.1,1.5,0.3,1.8,0.8c0.2,0.3,0.2,0.6,0.1,0.9c0,0.1,0,0.1,0.1,0.2
		c0.1,0.1,0.1,0.1,0.2,0c0.3-0.1,0.7-0.2,1-0.3c0.6-0.2,1.2-0.3,1.7-0.6c0,0,0,0,0,0c0,0,0-0.1,0.1-0.1c0.2-0.8,0-2-0.5-2.8
		c-0.4-0.6-1-1-1.6-1.1c-1.3-3.4-0.4-6.8,2.7-9.8c0.6-0.6,1.3-1.1,2-1.7c2.3-1.7,5-1.5,7.5-1.4c1.1,0.1,2.1,0.1,3.1,0
		c0,0,0.1,0,0.1,0c0.1-0.1,0.4-0.4,0.8-0.7c0.2-0.2,0.4-0.4,0.5-0.5c0.5-0.5,0.8-0.7,1.1-0.8c0.1,0,0.1-0.1,0.1-0.2
		c0-0.1-0.1-0.2-0.1-0.2c-1.2-0.5-2.6-0.1-3.9,0.3c-1.2,0.4-2.3,0.7-3.2,0.4c-0.8-0.2-1.3-0.7-1.5-1.3c-0.3-1.2,0.6-3,2.1-4.5
		c0.5-0.5,1-0.9,1.6-1.2c1.9-0.6,3.9,0.5,5.5,1.3l0,0c0.1,0,0.1,0,0.2,0c0.1,0,0.1-0.1,0.1-0.1c0.2-1.3,1.5-3.1,3.2-4.9
		c0.4-0.4,0.9-0.8,1.3-1.2c0.2-0.2,0.5-0.3,0.7-0.4c0.3-0.2,0.6-0.3,0.9-0.5c0.3-0.3,0.4-0.6,0.2-1c0-0.1,0-0.1-0.1-0.1
		C157.1,42,157.1,42,157,42.1"/>
	<path fill="#E8E8E8" d="M173.5,107.2c0.1,0,0.1,0,0.1-0.1c0,0,0-0.1,0.1-0.1c0.1-0.9,0.6-1.7,1.5-2.6c0.5-0.5,1.1-1,1.7-1.5
		c0.6-0.5,1.3-1,1.9-1.6c0.8-0.8,1.4-1.6,1.7-2.4c0-0.1,0-0.2,0-0.2l-0.9-0.9c-0.1-0.1-0.2-0.1-0.3,0l0,0c-0.6,0.6-0.9,1.2-1.2,1.8
		c-0.3,0.5-0.5,1-0.9,1.4c-0.1,0.2-0.3,0.3-0.5,0.5c-0.6,0.6-1.4,1.1-2.1,1.6c-0.7,0.5-1.4,0.9-2,1.5c-0.6,0.6-1,1.1-1.2,1.8
		c0,0,0,0.1,0,0.1C171.7,107.3,172.9,107.3,173.5,107.2"/>
	<path fill="#E8E8E8" d="M152.7,33c-0.2,0.2,0,0.8,0.3,0.5c0.9-1,1.9-1.6,3.2-1.8c0.3,0,0.3-0.7-0.1-0.6
		C154.8,31.2,153.7,31.9,152.7,33"/>
	<path fill="#E8E8E8" d="M123.6,39c-3.7-3.3-6.5-2.1-8.3-0.4l-0.1,0.1c-1.1,1.1-1.7,2.4-1.7,3.8c0,1.5,0.7,3,1.8,4.1
		c2,2,5.9,2.6,7.7,3c0.3,0.1,0.5,0.1,0.7,0.1c1.1,0.2,1.4,0.8,1.5,1c0.1,0.2-0.1,0.9-0.3,1.1c-0.1,0.1-0.2,0.2-0.3,0.3
		c-0.1,0.1-0.1,0.1-0.1,0.2c0,0,0,0-0.1,0.1c-0.1,0.1-0.2,0.3-0.1,0.4c0.1,0.1,0.2,0.2,0.2,0.2c0.1,0.1,0.1,0.1,0.2,0.1
		c0.1,0.1,0.2,0,0.4-0.2c0.1-0.1,0.1-0.1,0.2-0.2c0.1-0.1,0.1-0.1,0.2-0.2c0.2-0.2,1.1-1.1,1.9-1.9c0.6-0.6,1.2-1.2,1.3-1.3
		c0,0,0.1,0,0.1-0.1c0,0,0.1-0.1,0.2-0.2c0.2-0.2,0.4-0.4,0.3-0.6c-0.1-0.1-0.3-0.3-0.4-0.3c-0.1,0-0.2,0-0.3,0.1c0,0,0,0-0.1,0.1
		c-0.2,0.2-0.4,0.4-0.8,0.4c-0.5,0-0.8-0.1-1.3-0.6c-0.5-0.5-0.7-1-0.8-2.1c-0.1-0.7-0.3-1.4-0.4-2c-0.1-0.3-0.1-0.6-0.1-0.8
		c-0.1-0.5-0.1-1-0.1-1l0,0c0,0-0.1-0.2-0.5-0.2c-0.1,0-0.2,0-0.3,0c-0.2,0-0.3,0-0.4,0.1c0,0,0,0,0,0.1c0,0,0,0.1,0,0.2
		c0,0.5,0,2-1.3,3.4c0,0-0.1,0.1-0.1,0.1c-1.4,1.4-4.1,1.8-5.9,0.1c-0.9-0.8-1.3-1.9-1.3-3c0-1.1,0.5-2.2,1.3-3
		c0.1-0.1,0.1-0.1,0.2-0.2c2-1.8,4.5-1.7,6.5,0c0.3,0.3,0.6,0.5,0.8,0.2c0,0,0.1-0.1,0.1-0.1c0-0.1,0.1-0.1,0.1-0.1
		c0.2-0.3,0.3-0.4-0.2-0.8C123.7,39.1,123.7,39.1,123.6,39"/>
	<path fill="#E8E8E8" d="M149.8,33.3c1.2-1.2,2.6-2.1,4.2-2.6c0.3-0.1,0.2-0.7-0.2-0.6c-1.7,0.5-3.1,1.4-4.3,2.7
		C149.3,32.9,149.6,33.5,149.8,33.3"/>
	<path fill="#E8E8E8" d="M143.3,37c0.2-1.9,1.2-3.8,3-4.7c0.3-0.1,0.2-0.7-0.2-0.6c-1.9,0.9-3.1,3.1-3.3,5.2
		C142.8,37.3,143.3,37.4,143.3,37"/>
	<path fill="#E8E8E8" d="M142,38.2c-0.3-2.2,0-4.3,1.3-6.1c0.3-0.4-0.4-0.6-0.6-0.2c-1.4,2-1.7,4.3-1.4,6.7
		C141.3,39,142.1,38.6,142,38.2"/>
	<path fill="#E8E8E8" d="M141.5,32.1c0.3-0.5-0.4-0.6-0.6-0.2c-1.2,2-1.4,4.6-1,6.8c0.1,0.5,0.7,0,0.7-0.3
		C140.3,36.3,140.5,33.9,141.5,32.1"/>
	<path fill="#E8E8E8" d="M112.3,50.2c1.9,0.3,3.7,0,5.4-0.9c0.4-0.2-0.1-0.8-0.5-0.6c-1.6,0.9-3.3,1.1-5.1,0.9
		C111.6,49.4,111.8,50.1,112.3,50.2"/>
	<path fill="#E8E8E8" d="M146.9,34.5c0.7-1.4,1.9-2.4,3.3-2.9c0.3-0.1,0.2-0.7-0.1-0.6c-1.6,0.6-2.8,1.7-3.6,3.2
		C146.3,34.5,146.7,34.9,146.9,34.5"/>
	<path fill="#E8E8E8" d="M115,48.1c0.4-0.1,0-0.8-0.4-0.7c-1.1,0.4-2.3,0.5-3.5,0.1c-0.5-0.2-0.3,0.6,0,0.7
		C112.5,48.5,113.8,48.5,115,48.1"/>
	<path fill="#E8E8E8" d="M101.6,70.1c-2.3,3-4.8,10.1-4.5,12c0,0.1,0.1,0.2,0.2,0.2c0,0,0.1,0,0.1-0.1c0,0,0.1-0.1,0.1-0.1
		c0.2-2.2,2.2-7.9,4.4-11.8c0.1-0.1,0-0.2,0-0.3C101.7,70,101.6,70,101.6,70.1"/>
	<path fill="#E8E8E8" d="M101.7,82.8c0,0,0.1,0,0.1-0.1c0,0,0.1-0.1,0.1-0.2c-0.2-2.7,0.4-7,1.2-9.8c0-0.1,0-0.2-0.1-0.2
		c-0.1,0-0.2,0-0.3,0.1c-0.8,2-1.9,7.7-1.2,10C101.5,82.7,101.6,82.8,101.7,82.8"/>
	<path fill="#E8E8E8" d="M107.6,39.4c1.2,1.2,2.3,2.6,4,3.1c0.5,0.2,0.4-0.5,0-0.7c-1.5-0.4-2.5-1.7-3.5-2.8
		C107.8,38.8,107.2,39,107.6,39.4"/>
	<path fill="#E8E8E8" d="M190.2,82.2c0.1-0.1,0.1-0.5,0.1-1.4c0-0.5,0-1.3,0.1-1.4c0,0,0,0,0,0c0,0,0.1,0,0.3,0
		c0.1,0.1,0.3,0.1,0.4,0c0.1-0.1,0.1-0.1,0.1-0.2c0,0,0,0,0-0.1c-0.2-0.5-0.6-1.2-1.1-1.9c-0.5-0.8-1.1-1.7-1.4-2.4
		c-0.4-0.8-0.7-1.9-1-3c-0.4-1.4-0.8-2.8-1.5-4.1c-0.4-0.8-0.8-1.5-1.3-2.3c-1.2-2.2-2.4-4.6-3.7-6.5c0,0,0-0.1-0.1-0.1
		c-0.1,0-0.2,0-0.3,0c-0.1,0.1-0.1,0.2,0.1,0.7c0.1,0.2,0.2,0.4,0.2,0.6c0.2,0.6,0.2,1.1,0.3,1.6c0.1,0.7,0.1,1.3,0.5,2
		c2.2,4.2,3.7,8.8,4.2,13c0,0.1,0,0.1,0.1,0.2c0.4,0.2,0.7,0.1,0.9,0c0.2-0.1,0.5-0.1,0.7,0c0.2,0.6,0.5,1.4,0.7,2.2
		c0.4,1,0.7,2.1,1,3c0,0,0,0.1,0.1,0.1C190,82.3,190.1,82.3,190.2,82.2"/>
	<path fill="#E8E8E8" d="M103,84.6c0.1,0,0.1,0,0.1-0.1c0,0,0.1-0.1,0.1-0.1c0-0.6,0-1.2,0-2c0-2.8,0.1-6.6,1-9.6
		c0-0.1,0-0.2-0.1-0.2l0,0c0,0-0.1-0.1-0.1-0.1c0,0-0.1,0-0.2,0.1c0,0,0,0-0.1,0.1c-1,3.9-1.4,8.1-0.9,11.8
		C102.8,84.6,102.9,84.6,103,84.6"/>
	<path fill="#E8E8E8" d="M113.8,51.9c2.3,0.2,4.7-0.6,6.6-1.8c0.3-0.2-0.1-0.9-0.4-0.7c-1.8,1.2-4.2,1.9-6.3,1.7
		C113.2,51.1,113.4,51.9,113.8,51.9"/>
	<path fill="#E8E8E8" d="M115,53.4c2.5,0.2,4.8-0.5,6.7-2.3c0.4-0.4-0.1-0.8-0.4-0.4c-1.6,1.6-3.7,2.2-6,2
		C114.9,52.7,114.5,53.4,115,53.4"/>
	<path fill="#E8E8E8" d="M117.9,55.1c1.1-0.3,2.1-0.6,3.1-1.2c1-0.6,2.2-1.2,3-2.1c0.3-0.3,0-1-0.4-0.6c-0.7,0.8-2,1.4-2.9,2
		c-0.9,0.6-1.9,0.9-3,1.2C117.4,54.4,117.5,55.3,117.9,55.1"/>
	<path fill="#E8E8E8" d="M131.2,41.2c0.1,1.3,0.1,2.6-0.3,3.9c-0.3,0.9-0.9,1.8-1,2.8c-0.1,0.5,0.6,0.3,0.7-0.1
		c0.2-1.2,1-2.3,1.3-3.6c0.2-1.1,0.2-2.2,0.1-3.3C131.8,40.4,131.1,40.8,131.2,41.2"/>
	<path fill="#E8E8E8" d="M127.2,57.6c-0.9,1.7-1.3,3.6-1.2,5.5c0,0.5,0.7,0.2,0.7-0.1c0-1.7,0.2-3.6,1.1-5.1
		C128,57.4,127.4,57.2,127.2,57.6"/>
	<path fill="#E8E8E8" d="M129.2,56c-0.9,1.8-1.4,3.6-1.5,5.6c0,0.4,0.7,0.7,0.7,0.2c0.1-1.8,0.6-3.6,1.5-5.2
		C129.9,56.2,129.3,55.7,129.2,56"/>
	<path fill="#E8E8E8" d="M132.2,59.2c0.4-2.9,1.5-6.2,3.1-8.6c0.3-0.4-0.4-0.5-0.6-0.2c-1.7,2.5-2.9,5.9-3.2,8.9
		C131.4,59.8,132.2,59.6,132.2,59.2"/>
	<path fill="#E8E8E8" d="M125.2,59.2c-1,1.3-1.5,3-1.4,4.6c0,0.5,0.7,0.2,0.6-0.2c-0.1-1.4,0.4-2.9,1.2-4
		C126,59.2,125.5,58.8,125.2,59.2"/>
	<path fill="#E8E8E8" d="M132,53.2c-1.3,2.4-2.3,4.9-2.8,7.6c-0.1,0.4,0.6,0.8,0.7,0.3c0.5-2.6,1.5-5.1,2.8-7.4
		C132.8,53.3,132.3,52.8,132,53.2"/>
	<path fill="#E8E8E8" d="M138.3,45.1c-2.1,3.8-3.8,8.1-4.5,12.4c-0.1,0.5,0.5,0.7,0.6,0.1c0.7-4.2,2.3-8.4,4.4-12.2
		C139,45,138.6,44.6,138.3,45.1"/>
	<path fill="#E8E8E8" d="M178.4,92.8c0,0-0.1,0-0.2,0c-0.4,0.2-0.7,0.4-1,0.7c-0.8,0.8-1.1,2-1.4,3.1c-0.2,0.9-0.4,1.7-0.8,2.4
		c-0.3,0.6-0.7,1-1.1,1.4c-1,1-2.1,1.4-3.4,1.9c-0.5,0.2-0.9,0.3-1.4,0.6c-0.1,0-0.1,0.1-0.1,0.2c0,0.4,0.1,0.8,0.3,1.3
		c0.1,0.3,0.1,0.5,0.2,0.8c0,0.1,0,0.1,0.1,0.1c0.1,0,0.1,0,0.2,0c1.1-0.4,2.2-1.2,3.5-2.4c0.7-0.7,1.4-1.4,2.1-2.2
		c0.6-0.7,1.2-1.3,1.8-1.9c0.8-0.7,1.4-1.2,2-1.5c0,0,0,0,0.1,0c0.1-0.1,0.1-0.1,0-0.2c-0.3-0.8-0.4-1.8-0.4-2.7
		c0-0.5-0.1-1-0.2-1.5C178.5,92.9,178.4,92.8,178.4,92.8"/>
	<path fill="#E8E8E8" d="M164.5,77.3c-0.1-0.1-0.2,0-0.3,0c-0.1,0.1-0.1,0.2,0,0.3c1.9,2.5,2.4,4.7,1.9,7.5c-0.5,0.3-1,0.7-1.4,1.1
		c-0.9,0.9-1.5,1.9-2.1,2.9c-0.6,1.1-1.3,2.2-2.4,3.2c-2,0.6-4.7-0.3-6.6-1.3c-0.1,0-0.2,0-0.2,0.1c-0.1,0.1-0.1,0.2,0,0.2
		c1,1.5,2.6,2.6,4.2,2.8c1.4,0.2,1.9,0.6,2.3,0.9c0.3,0.2,0.5,0.4,0.9,0.3c0.3-0.1,0.6-0.2,0.9-0.6c0.8-0.8,1.9-2.3,2.5-3.6
		c0.1-0.2,0.3-0.5,0.4-0.7c0.7-1.4,1.5-2.9,2.8-4.2c0.3-0.2,0.5-0.5,0.8-0.7c0,0,0.1-0.1,0.1-0.2C168.3,82.8,167.9,79.7,164.5,77.3"
		/>
	<path fill="#E8E8E8" d="M133.9,47.2c0,0-0.1,0.4-0.1,0.4c-0.7,2.1-2.9,5.4-5.7,7.4c-2.5,1.8-5.4,2.1-7.6,4.5c0,0.1-0.1,0.1-0.1,0.2
		c0.1,0.3,0.1,0.6,0.4,0.8c0.7-0.4,1.2-1.1,1.9-1.5c2.2-1.5,5-2,7.1-3.8c2.6-2.2,4.4-5,5.5-8.2c0.1-0.3,0.1-0.4,0-0.6
		c-0.1,0-0.3,0-0.4,0.1C134.6,46.6,134.1,47,133.9,47.2"/>
	<path fill="#E8E8E8" d="M113.4,75.2c0.1,1.5,0.5,3,1.4,4.3c0.3,0.4,0.8,0.1,0.5-0.3c-0.8-1.1-1.2-2.5-1.3-3.9
		C114,74.9,113.3,74.7,113.4,75.2"/>
	<path fill="#E8E8E8" d="M114.5,71.7c-0.1,2.2,0.6,4.3,1.8,6.1c0.2,0.4,0.9-0.2,0.6-0.5c-1.2-1.7-1.9-3.7-1.8-5.8
		C115.2,71.1,114.5,71.3,114.5,71.7"/>
	<path fill="#E8E8E8" d="M116.3,68.5c-0.5,2.4-0.1,5.1,1.3,7.2c0.3,0.4,0.7-0.1,0.4-0.5c-1.2-1.8-1.6-4.2-1.1-6.4
		C116.9,68.4,116.4,68,116.3,68.5"/>
	<path fill="#E8E8E8" d="M117.8,83.4c0.5,1.3,1.9,3.9,2.5,4.8c4.4,7.1,11.4,13.9,18.2,17.8c4.5,2.6,10.1,4.4,15.3,5.1
		c4.1,0.5,7.7,0.7,11.5,0.4c0,0,3.3-0.2,3.6-0.5l0,0c0.2-0.2,0.2-0.6,0.1-0.9c0-0.1-0.1-0.4-0.4-0.5c0,0-0.1,0-0.1,0
		c-3.7,0.7-7.7,0.4-11.6,0.1l-0.8-0.1c-11.9-0.9-23.7-7.6-31.7-18c-2.5-3.3-4.5-7.1-5.4-9.1c-0.1-0.1-0.2-0.2-0.3-0.2
		c-0.2,0-0.5,0.1-0.7,0.3C117.8,82.9,117.7,83.1,117.8,83.4"/>
	<path fill="#E8E8E8" d="M173.1,53.6c-0.1-0.1-0.3-0.2-0.5,0c-0.1,0.1-0.2,0.3,0,0.5c0.1,0.1,6.2,7.5,9.4,17.3
		c4.1,12.5,1.9,23.3,1.9,23.4c0,0.2,0.1,0.4,0.3,0.4c0.1,0,0.2,0,0.3-0.1c0,0,0.1-0.1,0.1-0.2c0-0.1,2.2-11.1-1.9-23.7
		C179.4,61.2,173.2,53.7,173.1,53.6"/>
	<path fill="#E8E8E8" d="M121.9,64.7c0.1,0.4,0.8,0.1,0.8-0.2c-0.2-1.5,0.1-3,0.9-4.3c0.3-0.4-0.5-0.4-0.7-0.1
		C122,61.4,121.7,63,121.9,64.7"/>
	<path fill="#E8E8E8" d="M118.1,64c-0.6,3.2-1.2,6.7,0.5,9.7c0.2,0.3,0.8-0.1,0.6-0.5c-1.6-2.9-1-6.2-0.4-9.2
		C118.9,63.4,118.2,63.6,118.1,64"/>
	<path fill="#E8E8E8" d="M120.2,61.9c-1.1,2.7-1.4,5.8-0.8,8.7c0.1,0.4,0.8,0.2,0.8-0.2c-0.6-2.8-0.4-5.7,0.7-8.3
		C121.1,61.5,120.3,61.5,120.2,61.9"/>
</g>
</svg>
