<?xml version="1.0" encoding="utf-8"?>
<!-- Generator: Adobe Illustrator 19.2.1, SVG Export Plug-In . SVG Version: 6.00 Build 0)  -->
<svg version="1.1" id="Слой_1" xmlns="http://www.w3.org/2000/svg" xmlns:xlink="http://www.w3.org/1999/xlink" x="0px" y="0px"
	 viewBox="0 0 88.2 50.8" style="enable-background:new 0 0 88.2 50.8;" xml:space="preserve">
<style type="text/css">
	.st0{fill:#4D4435;}
	.st1{fill:#FFFFFF;}
	.st2{fill:#DCD6C3;}
	.st3{fill:#366A7E;}
</style>
<g>
	<g>
		<polygon class="st0" points="87.1,40.4 0,40.4 0,40.4 88.2,40.4 		"/>
		<rect y="40.1" class="st0" width="88.2" height="0.6"/>
	</g>
	<g>
		<g>
			<g>
				<path class="st1" d="M53.9,36.9c2.3,1.2,4.5,2,5.1,2.2c0.1,0,0.2,0.1,0.3,0.1c0.5,0.2,1.1,0.5,2.1,0.6c0.8,0.1,1.8,0.1,2.8,0.1
					c0.2,0,0.4,0,0.6,0l0.3,0c1.3-0.1,2.6-0.1,3.5-0.2c1.1-0.2,2-0.5,2.5-0.7c0.3-0.1,0.5-0.3,0.6-0.5c1.4-0.5,2.7-1.3,3.4-1.6
					l0.1-0.1c0.1-0.1,2.6-1.5,4.3-3.4c1.6-1.8,3.2-3.9,4.1-6.5l0.1-0.3c0.8-2.3,1.1-3.4,1.2-5.8c0.1-2.5-1.5-7.3-2.2-9.3
					c-0.8-2.1-3.1-5.6-3.2-5.7c-0.4-0.6-0.9-1-1.3-1.3C78,4.2,77.9,4.1,77.8,4c-0.4-0.5-0.7-0.8-0.8-0.9c-0.2-0.1-0.4-0.3-0.7-0.4
					c-0.1-0.1-0.3-0.3-0.4-0.4c-1.1-0.7-2.2-1.2-3.3-1.3c-0.6-0.1-1.2-0.1-1.6-0.1l-0.3,0c-0.2,0-0.4,0-0.7-0.1
					c-0.3,0-0.6-0.1-0.9-0.1c-0.2,0-0.3,0-0.5,0c-0.1,0-0.3,0-0.4,0c-0.1,0-0.2,0-0.4,0c-0.2,0-0.4,0-0.7,0c-0.4,0-1-0.1-1.6-0.2
					c-0.9-0.1-1.7-0.2-2.5-0.2c-0.1,0-0.2,0-0.3,0c-0.5,0-1.2,0.1-1.9,0.1c-0.3,0-0.8,0.1-1.4,0.3c-0.2,0-0.4,0.1-0.5,0.1
					c-1.8,0.4-2.7,1-3,1.2c-0.4,0.3-0.6,0.7-0.7,1c0,0-0.1,0-0.1,0c-0.7,0-1.8,0.9-2.6,1.6c-0.1,0-0.2,0.1-0.3,0.2
					c0,0-0.2,0.1-0.4,0.3c-0.1,0-0.1,0.1-0.2,0.2c-0.1,0-0.1,0.1-0.2,0.1c-0.1,0.1-0.3,0.2-0.4,0.3c0,0-0.1,0.1-0.1,0.1
					c-0.1,0-0.1,0.1-0.2,0.1c-0.1,0.1-0.1,0.2-0.2,0.2c-0.1,0.1-0.1,0.2-0.2,0.3c0,0.1-0.1,0.1-0.1,0.2c0,0,0,0,0,0.1
					C50,7,50,7,49.9,7.1c-0.1,0.1-0.2,0.2-0.2,0.4c0,0-0.1,0.1-0.1,0.1c0,0-0.1,0.1-0.1,0.1l-0.2,0.4c0,0.1-0.1,0.1-0.1,0.2
					c0,0,0,0,0,0c0,0-0.1,0.1-0.1,0.1C49,8.5,49,8.6,48.9,8.7c0,0-0.1,0.1-0.1,0.1c0,0-0.1,0.1-0.1,0.1c-0.1,0.1-0.1,0.2-0.2,0.3
					c0,0-0.1,0.1-0.1,0.1c0,0-0.1,0.1-0.1,0.1c0,0.1-0.1,0.1-0.1,0.1c0,0-0.1,0.1-0.1,0.1c0,0-0.1,0.1-0.1,0.1c0,0-0.1,0.1-0.1,0.1
					c-0.1,0.1-0.2,0.3-0.3,0.4c0,0.1-0.1,0.1-0.1,0.2c-0.1,0.1-0.1,0.1-0.1,0.2c-0.1,0.1-0.2,0.3-0.3,0.4c0,0.1-0.1,0.1-0.1,0.2
					c0,0-0.1,0.1-0.1,0.1c-0.1,0.1-0.2,0.3-0.3,0.4c0,0.1-0.1,0.1-0.1,0.2c0,0,0,0,0,0.1c0,0-0.1,0.1-0.1,0.1L46,12.6
					c0,0.1-0.1,0.1-0.1,0.2c0,0,0,0,0,0.1c0,0-0.1,0.1-0.1,0.2c-0.1,0.1-0.1,0.3-0.2,0.4c0,0,0,0.1-0.1,0.1c0,0,0,0.1-0.1,0.1
					c0,0-0.1,0.1-0.1,0.1c-0.1,0.1-0.1,0.3-0.2,0.4c0,0,0,0.1-0.1,0.1c0,0-0.1,0.1-0.1,0.1c-0.1,0.1-0.1,0.3-0.2,0.4
					c0,0.1,0,0.1-0.1,0.2c0,0,0,0.1-0.1,0.1c0,0-0.1,0.1-0.1,0.2c0,0.1-0.1,0.2-0.1,0.3l-0.1,0.1c0,0,0,0.1,0,0.1
					c0,0.1-0.1,0.2-0.1,0.3c0,0,0,0.1-0.1,0.1c-0.1,0.2-0.1,0.3-0.2,0.5c0,0,0,0.1,0,0.1l0,0c0-0.1,0-0.2,0-0.3c-0.2-2.6-1-4-1.4-5
					l-0.1-0.2c-0.5-1-0.9-1.7-2.1-3.3c-0.3-0.4-0.6-0.8-0.8-1.2c-0.8-1.1-1.4-1.9-1.8-2.3c-0.8-0.8-4.1-2.6-4.7-3
					c-2-1.1-5.2-1.5-6.6-1.6c-0.1,0-0.2,0-0.4,0c-1.9,0-5.6,0.6-7.2,1c-0.8,0.2-1.2,0.3-1.5,0.4c-0.3,0.1-0.4,0.1-0.6,0.2
					c-0.1,0-0.1,0-0.2,0c-0.2,0-0.5,0.1-0.7,0.2c0,0-1.8,1-2.7,1.4c-0.8,0.4-1.4,0.9-2.1,1.6c-0.6,0.5-1.5,1.1-1.9,1.6
					C8.9,6.5,8.8,6.6,8.6,6.8C8.5,6.9,8.4,7.1,8.3,7.2c0,0.1-0.1,0.1-0.1,0.2C8.2,7.4,8.1,7.5,8.1,7.6C8,7.7,7.9,7.8,7.8,8
					c0,0-0.1,0.1-0.1,0.1c0,0-0.1,0.1-0.1,0.1C7.6,8.4,7.5,8.5,7.4,8.6c0,0.1-0.1,0.1-0.1,0.2C7.3,8.9,7.3,9,7.2,9
					C7.1,9.2,7.1,9.3,7,9.4c0,0.1-0.1,0.2-0.1,0.2c0,0.1-0.1,0.1-0.1,0.2c-0.1,0.1-0.1,0.3-0.2,0.4c0,0.1-0.1,0.1-0.1,0.2
					c0,0.1-0.1,0.1-0.1,0.2c-0.1,0.2-0.1,0.3-0.2,0.5c0,0,0,0.1,0,0.1c0,0,0,0.1-0.1,0.2L6,11.9C6,12,6,12,5.9,12.1
					c0,0.1-0.1,0.1-0.1,0.2l-0.1,0.4c0,0.1,0,0.1,0,0.2c0,0.1,0,0.1-0.1,0.2l-0.1,0.4c0,0.1,0,0.1,0,0.2c0,0.1-0.1,0.1-0.1,0.2l0,0
					c-0.6,1.6-1.3,3.5-1.6,5.4c-0.2,1.2-0.1,2.1,0.2,2.9c0,0.1,0,0.1,0,0.2C4,22.7,4,22.9,4.1,23c0,0.1,0.1,0.3,0.1,0.4
					c0,0.1,0,0.3,0.1,0.4c0.1,0.2,0.1,0.3,0.2,0.5c0,0.1,0.1,0.2,0.1,0.2c0,0.1,0.1,0.2,0.1,0.2c0.1,0.1,0.2,0.3,0.3,0.4
					c0.1,0.1,0.1,0.2,0.2,0.2c0,0.1,0.1,0.2,0.1,0.2c0.1,0.1,0.2,0.3,0.3,0.4c0,0.1,0.1,0.1,0.1,0.2c0,0.1,0.1,0.1,0.1,0.2
					c0.1,0.1,0.2,0.2,0.3,0.4c0,0,0.1,0.1,0.1,0.1c0,0.1,0.1,0.1,0.1,0.2l0.3,0.4c0,0.1,0.1,0.1,0.1,0.1c0,0.1,0.1,0.1,0.1,0.2
					l0.3,0.3c0,0,0.1,0.1,0.1,0.1c0,0,0.1,0.1,0.1,0.1l0.3,0.3c0,0.1,0.1,0.1,0.2,0.2c0,0.1,0.1,0.1,0.1,0.2l0.2,0.3
					c0,0,0.1,0.1,0.1,0.1c0,0,0.1,0.1,0.1,0.1l0.3,0.3c0,0.1,0.1,0.1,0.1,0.1c0,0.1,0.1,0.1,0.1,0.2L9,30.6c0,0,0.1,0.1,0.1,0.1
					c0,0,0,0.1,0.1,0.1l0.3,0.3c0,0.1,0.1,0.1,0.1,0.2c0,0.1,0.1,0.1,0.1,0.2l0.3,0.4c0,0,0,0.1,0.1,0.1c0,0,0,0.1,0.1,0.1
					c0,0,0,0,0,0.1c0,0,0,0,0.1,0.1c1.2,1.6,3.4,4.2,5,5.3c3.1,2.2,6.4,2.3,8.4,2.4l0.2,0c0.5,0,0.9,0,1.3,0c1.9,0,3-0.2,3.8-0.5
					c0.2,0,0.3-0.1,0.4-0.2c0.1-0.1,0.3-0.1,0.4-0.2c0.1-0.1,0.3-0.1,0.4-0.2l0,0c0.1,0,0.2-0.1,0.2-0.1c0.1,0,0.2-0.1,0.2-0.1
					c0.1-0.1,0.2-0.2,0.4-0.3c0,0,0.1,0,0.1-0.1c0,0,0.1,0,0.1,0c0.1,0,0.2-0.1,0.4-0.1c0,0,0.1,0,0.1-0.1c0,0,0.1,0,0.1,0
					c0.2-0.1,0.3-0.1,0.5-0.2c0.1,0,0.2-0.1,0.2-0.1c3.1-0.8,5.4-3.8,6.4-5.4c0.2-0.2,0.3-0.4,0.4-0.6c0.3-0.4,0.6-0.9,0.9-1.2
					c1.2-1.6,2.3-3.4,3.2-5.7c0.1-0.3,0.2-0.6,0.3-0.9v0c0,0,0,0,0,0v0c0,0.2,0,0.3,0,0.5v0c0,0,0,0,0,0c0.1,0.8,0.2,1.3,0.5,2
					c0.2,0.4,0.3,0.8,0.3,1.2c0,0.1,0,0.1,0.1,0.2c0,0,0,0,0,0c0,0.1,0,0.2,0.1,0.3c0,0.1,0.1,0.2,0.1,0.3c0.2,0.7,0.8,1.7,2.2,3.4
					c0.2,0.2,0.3,0.4,0.4,0.6c0.3,0.4,0.6,0.8,1.4,1.6c1,1.2,2.2,1.7,3.8,2.5C53.1,36.5,53.5,36.7,53.9,36.9z"/>
				<path class="st1" d="M5.7,45.3l-0.1,0.2l-0.5-1.1L5.7,45.3z"/>
				<path class="st1" d="M77.7,45.2L77.7,45.2L77.6,45L77.7,45.2z"/>
			</g>
			<g>
				<path class="st2" d="M54.8,5.4L53,6.3c0,0-0.9,0.6-1.3,1.1c-0.4,0.5-1.5,2.5-2.3,3.4c-0.8,0.8-1.6,2.1-2,2.7
					c-0.4,0.6-1.1,1.9-1.4,2.7c-0.3,0.8-0.7,1.4-0.6,4.7c0.1,3.3,0.1,3.6,0.5,4.7c0.3,0.8,0.4,1.5,0.6,2.2c0.2,0.7,1.2,2.1,1.9,2.9
					c0.7,0.9,0.7,1,1.7,2.1c1,1.1,2.2,1.6,4.5,2.7c2.3,1.1,4.4,1.9,5,2.1c0.5,0.2,1.1,0.5,2,0.6c0.9,0.1,2.2,0.2,3.1,0.1
					c1.3-0.1,2.7-0.1,3.6-0.2c0.9-0.1,1.7-0.4,2-0.6c0.4-0.2,0.5-0.5,0.5-0.5l-1.7,0.4l-2.6,0.2l-1.9,0l-2.1-0.3l-2.4-0.9l-4.7-1.7
					l-2.8-1.9l-2.8-3l2-2.2l-3.3,0.6l-0.9-1.1l-0.2-1l-0.1-0.9L46.8,24l0.3,0.6l0.2-2.6l0.2-2.3L47,16.7l0-0.5l1.6-1.8l2.3-2.3
					l1.9-2.4l0.8-1l3.3-2.6L54.8,5.4z"/>
				<path class="st2" d="M19.4,3.4C20,3.3,20.4,3,20.9,3c0.6-0.1,1.2-0.1,1.7-0.2c1.1-0.2,2.4,0,3.5,0.1C26.7,3,27.2,3,27.7,3.3
					c0.4,0.2,0.9,0.4,1.4,0.6c0.9,0.5,1.9,0.9,2.8,1.5c0.3,0.2,0.7,0.4,1,0.5c0.3,0.2,0.6,0.4,0.9,0.6c0.3,0.2,0.7,0.3,1,0.4
					c0.3,0.1,0.9,0.3,1.2,0c-0.1-0.2-0.4-0.3-0.5-0.4c-0.2-0.2-0.3-0.4-0.5-0.6c-0.2-0.4,0.3-0.3-0.1-0.6C34.5,5,32.4,3.6,31,3.1
					c-0.6-0.2-1.3-0.4-1.9-0.6c-0.9-0.2-1.8-0.3-1.9-0.3c-0.5,0-0.7-0.1-0.9-0.1c-0.3,0-0.2-0.3-0.4-0.3c-0.7-0.1-1.3,0.2-1.9,0.2
					C23.2,2,22.6,2,22,2.2c-0.5,0.1-1.2,0.4-1.7,0.6c-0.1,0.1-1.4,0.7-1.1,0.9"/>
				<path class="st2" d="M15.1,9.3c0-0.1-0.2,0.3-0.4,0.5c-0.2,0.4-0.2,0.4-0.3,0.7c-0.2,0.6-0.3,1.3-0.2,1.9
					c0.1,0.5,0.3,0.7,0.6,1.1c0.4,0.5,1,0.6,1.5,0.8c1,0.4,1.9,0.8,2.9,1c0.6,0.1,1,0,1.4-0.4c0.2-0.1,0.3-0.3,0.4-0.5
					c0.1-0.2,0-0.6,0.1-0.9c0.1-0.8,0.2-1.8,0.3-2.6c0-0.2,0-0.5-0.1-0.6c-0.1-0.1-0.3-0.3-0.4-0.4c-0.3-0.4-0.6-0.3-1.1-0.4
					c-0.4-0.1-0.7-0.3-1.1-0.4c-0.4-0.2-0.8-0.3-1.3-0.4c-0.5-0.1-1-0.1-1.4,0C15.8,8.9,15.5,9.2,15.1,9.3"/>
				<path class="st2" d="M29.2,8.1c0,0.1,0.1,0.5,0.2,0.6c-0.7,0-0.6,0.8-0.5,1.2c0,0.3,0.1,0.5,0.2,0.8c0,0.3,0.1,0.5,0.1,0.8
					c0.2,0.9,0.6,1.8,0.8,2.7c0.1,0.5,0.5,0.8,1,1c0.2,0.1,0.5,0.1,0.8,0.1c0.3,0,0.6,0.1,0.9,0.1c0.1,0,0.3,0,0.4,0
					c0.1,0,0.2,0.1,0.3,0.1c0.3,0.1,0.6,0,0.9-0.1c0.5-0.1,0.6-0.5,1-0.9c0.1-0.1,0.3-0.1,0.3-0.2c0.1-0.1,0.1-0.3,0.2-0.4
					c0.2-0.3,0.2-0.6,0.2-1c0-0.3,0.1-0.6,0.2-0.9c0.1-0.2,0.3-0.8,0.1-1c0.1-0.1,0.1-0.4,0.1-0.6c0-0.1,0.1-0.2,0.1-0.3
					c0-0.1-0.1-0.2-0.1-0.4c0-0.5,0.4-0.8,0.4-1.4c0-0.6-0.5-0.5-0.8-0.8c-0.2-0.2-0.3-0.3-0.6-0.4c-0.2-0.1-0.4-0.2-0.6-0.2
					c-1-0.4-2.3-0.5-3.3-0.2c-0.4,0.1-0.9,0.3-1.3,0.4c-0.2,0.1-0.4,0.3-0.6,0.4C29.5,7.9,29.3,7.9,29.2,8.1"/>
				<path class="st2" d="M31.3,19.9c0.2,1.1,1.6,5.7,1.7,6c0.1,0.3,0.3,0,0.5-0.1c0.4-0.1,0.8-0.2,1.2-0.4c0.2-0.1,0.3-0.2,0.5-0.3
					c0.2-0.1,0.2-0.3,0.4-0.4c0-0.2,0.1-0.4,0.1-0.6c0-0.2,0.1-0.4,0.1-0.6c0-0.2,0-0.5,0-0.7c0-0.2-0.1-0.4-0.1-0.6
					c0-0.4,0.3-0.8,0.4-1.2c0-0.3,0-0.7,0-1.4c0-0.4-0.5-0.5-0.9-0.5c-0.2,0-0.5,0-0.7,0.1c-0.2,0-0.5,0.1-0.7,0.1
					c-0.4,0.1-0.8,0.3-1.2,0.4c-0.4,0.1-0.9,0-1.4,0L31.3,19.9z"/>
				<path class="st2" d="M24.1,20.9c-0.1,0.2-0.2,0.4-0.3,0.6c-0.2,0.6-0.4,0.8-0.6,1.4c-0.2,0.5-0.5,1.3-0.8,1.8
					c-0.2,0.4-0.2,0.5-0.4,0.9c-0.2,0.4-1.2,2.6-0.1,2.4c0.3,0,0.6-0.2,0.8-0.1c0.1,0,0.2,0.2,0.3,0.2c0.1,0,0.3,0,0.5,0
					c0.5,0.1,1.1,0.1,1.6,0.2c0.6,0.1,1.1-0.2,1.6-0.2c0.1,0,0.3,0.1,0.4,0.1c0.1,0,0.1-0.1,0.1-0.1c0.1,0,0.1,0.1,0.1,0.1
					c0.3,0,0.6,0,0.9,0c0.5,0.1,1,0.3,1.1-0.3c0.1-0.4-0.2-0.9-0.3-1.4c-0.2-0.5-0.4-0.8-0.6-1.3c-0.2-0.5-0.3-1-0.5-1.5
					c-0.2-0.5-0.4-1-0.6-1.5c-0.1-0.5-0.3-1-0.6-1.4c-0.3-0.5-0.7-0.8-1.1-1.1c-0.4-0.3-0.9,0-1.2,0.3
					C24.3,20.3,24.2,20.6,24.1,20.9z"/>
				<path class="st2" d="M15.5,18.8c-1.4-0.3-0.8,5.4-0.4,6.1c0.4,0.7,1.1-0.3,1.5-0.6c0.5-0.5,0.9-0.9,1.3-1.4
					c0.6-0.9,1.2-1.7,1.5-2.6c0.3-0.8-1.2-1-1.7-1.1c-0.4-0.1-0.9,0.1-1.4,0c-0.2,0-0.4-0.1-0.6-0.2c-0.2,0-0.4-0.2-0.6-0.2"/>
				<path class="st2" d="M64.2,5.9c-0.2,0.2-0.4,0.5-0.6,0.7c-0.1,0.1-0.2,0.3-0.2,0.4c0,0.1,0,0.2,0,0.3c0,0,0,0,0,0.1
					c0,0-0.1,0-0.1,0.1c-0.1,0.3-0.3,0.6-0.3,1c0,0.4,0,0.7,0.2,1c0.1,0.3,0.2,0.6,0.4,0.9c0.2,0.3,0.4,0.5,0.5,0.8
					c0.1,0.1,0.2,0.3,0.3,0.4c0.1,0.1,0.2,0.3,0.2,0.4c0,0,0.1,0,0.1,0c0.1,0.2,0.2,0.3,0.3,0.5c0.1,0.2,0.2,0.4,0.2,0.6
					c0,0.5-0.1,0.8-0.3,1.2c-0.2,0.3-0.5,0.6-0.9,0.7c-0.2,0.1-0.4,0.1-0.5,0.2c-0.2,0.1-0.4,0.2-0.5,0.3c0,0.1-0.3,0.3-0.4,0.5
					c-0.1,0.2-0.2,0.4-0.3,0.6c0,0.2-0.1,0.5-0.1,0.7c0,0.3,0.1,0.5,0.2,0.7c0.1,0.4,0.2,0.9,0.2,1.4c0,0.2-0.1,0.4-0.2,0.6
					c0,0.7,0,1.3-0.1,2c0,0.2,0,0.4-0.1,0.6c-0.1,0.1-0.1,0.3-0.2,0.4c-0.2,0.3-0.3,0.6-0.4,1c0,0.2,0,0.5,0.1,0.6
					c0.1,0.1,0.2,0.4,0.3,0.4c0.1,0.3,0.4,0.6,0.5,0.9c0.2,0.4,0.2,0.7,0.1,1.1c-0.1,0.4-0.1,0.9-0.1,1.3c0,0.4-0.1,0.9,0,1.3
					c0,0.2,0.1,0.4,0.1,0.5c0.1,0.2,0,0.4,0.1,0.6c0,0.4,0,0.8,0.1,1.2c0.1,0.3,0.4,0.6,0.6,0.8c0.3,0.2,0.4,0.6,0.5,0.9
					c0.2,0.8,0.2,1.7,0.9,2.2c0.2,0.1,0.4,0.2,0.6,0.3c0.3,0.1,0.5,0,0.7,0.1c0.4,0.1,0.8,0,1.2,0.1c0.5,0.1,0.9-0.2,1.3-0.3
					c0.4-0.1,0.8-0.4,1.2-0.6c0.4-0.2,0.8-0.6,1.2-0.9c0.3-0.2,0.7-0.5,1.1-0.6c0.1,0,0.1,0,0.3,0c0.1,0,0.2-0.1,0.3-0.2
					c0.2-0.1,0.3-0.2,0.5-0.3c0.2-0.2,0.5-0.4,0.7-0.5c0.3-0.3,0.5-0.5,0.8-0.8c0.2-0.2,0.4-0.4,0.5-0.7c0.1-0.2,0.3-0.5,0.4-0.7
					c0.2-0.4,0.6-0.7,0.9-1c0.4-0.4,0.8-0.8,1.2-1.1c0.4-0.4,1-0.7,1.3-1.1c0.3-0.4,0.5-1,0.6-1.4c0.1-0.4,0.3-0.9,0.5-1.3
					c0.4-0.9,0.3-1.9,0.4-2.9c0.1-0.5,0.3-0.9,0.5-1.4c0.1-0.2,0.1-0.4,0.2-0.6c0.1-0.2,0-0.4,0.1-0.7c0.1-0.5,0.6-0.5,1-0.5
					c0.2,0,0.3,0,0.5,0.2c0.2,0.1,0.2,0.3,0.2,0.5c0.2,0.8,0.2,1.7,0.2,2.6c0,0.4-0.1,0.8-0.3,1.2c-0.1,0.4-0.2,0.8-0.3,1.2
					c-0.1,0.8-0.4,1.4-0.7,2.1c-0.1,0.2-0.2,0.3-0.3,0.5c-0.1,0.2-0.1,0.4-0.3,0.5c-0.3,0.3-0.3,0.6-0.5,0.9
					c-0.2,0.3-0.3,0.6-0.5,0.9c-0.2,0.3-0.5,0.6-0.7,0.9c-0.1,0.1-0.2,0.3-0.2,0.4c-0.1,0.3-0.4,0.5-0.5,0.7c0,0-0.1,0-0.1,0
					c0,0.1-0.2,0.3-0.3,0.4c-0.1,0.1-0.2,0.2-0.3,0.3c-0.2,0.2-0.3,0.5-0.5,0.7c-0.2,0.2-0.4,0.4-0.6,0.6c-0.2,0.2-0.5,0.4-0.8,0.6
					c-0.5,0.4-1.1,0.7-1.6,1.1c-0.4,0.3-1,0.5-1.4,0.8c-0.4,0.3-0.9,0.4-1.4,0.7c-0.4,0.2-0.8,0.3-1.2,0.5c-0.7,0.3-1.6,0.3-2.3,0.5
					c-0.2,0-0.4,0.1-0.6,0.1c-0.2,0-0.4,0.1-0.6,0.1c-0.4,0-0.8,0.2-1.2,0.1c-0.2,0-0.4-0.1-0.6-0.1c-0.2,0-0.4,0-0.6,0
					c-0.2,0-0.3-0.1-0.5-0.1c-0.1,0-0.1-0.1-0.3-0.1c-0.1,0-0.2,0-0.4,0.1c-0.8,0-1.7-0.2-2.4-0.5c-0.4-0.2-0.7-0.3-1.1-0.4
					c-0.2-0.1-0.4-0.2-0.6-0.3c-0.2-0.1-0.5-0.2-0.7-0.3c-0.2-0.1-0.4-0.2-0.6-0.3c-0.2-0.1-0.4-0.3-0.6-0.4
					c-0.2-0.1-0.4-0.2-0.6-0.2c-0.2-0.1-0.4-0.3-0.5-0.4c-0.3-0.2-0.6-0.4-0.9-0.5c-0.2-0.1-0.3,0-0.4-0.1c-0.1-0.1,0-0.1-0.1-0.2
					c-0.2-0.4-0.2-0.8-0.2-1.3c0-0.5-0.2-1.2-0.2-1.7c0-0.2-0.1-0.4-0.2-0.6c-0.1-0.2,0-0.5,0-0.7c-0.1-0.6-0.2-1.2-0.3-1.7
					c-0.1-0.4-0.2-0.8-0.3-1.2c-0.1-0.5-0.1-1-0.3-1.4c-0.3-0.9-0.8-1.8-1.2-2.7c-0.3-0.7-0.7-1.5-1-2.2c-0.3-0.6-0.6-1.2-0.7-1.9
					c-0.1-0.6-0.4-1.2-0.4-1.8c0-0.3-0.1-0.5-0.1-0.8c0-0.3,0.1-0.6,0.2-0.9c0.3-0.6,0.5-1.1,0.9-1.5c0.2-0.2,0.4-0.5,0.7-0.7
					c0.3-0.3,0.6-0.5,0.9-0.8c0.5-0.5,0.8-1,1.3-1.5c0.4-0.4,0.7-0.8,1.2-1.2c0.4-0.3,0.8-0.7,1.2-1c0.6-0.3,1.2-0.6,1.8-1
					c0.4-0.2,0.8-0.4,1.1-0.6c0.3-0.2,0.7-0.3,0.9-0.5c0.3-0.3,0.4-0.6,0.7-0.9c0.4-0.3,0.9-0.5,1.4-0.7c0.6-0.2,1.2-0.4,1.8-0.4
					c0.2,0,0.4,0,0.7,0.1c0.1,0,0.2,0,0.3,0.1c0.1,0.1,0.1,0.1,0.3,0.2c0.1,0.3,0.1,0.4-0.2,0.6c-0.2,0.1-0.4,0.1-0.6,0.3
					c-0.1,0.1-0.1,0.2-0.1,0.2C64.4,5.7,64.3,5.8,64.2,5.9z"/>
				<path class="st2" d="M18.6,2.8c0,0-3.3,2-6.4,4.4c-2,1.6-2.9,2.3-3.4,4.1C8.3,13,7.1,16.6,6.9,18c-0.2,1.4,1,2.5,1.3,3.4
					c0.3,1,0.4,1.8,0.7,1.9c0.3,0.1,2.1,1.2,2.1,1.2s-1.5,1.4-1,2.1c0.3,0.4,2.4,3.5,3,4.4c0.6,0.9,2.3,3.1,3.5,3.9
					c1.2,0.9,3.6,0.8,5.6,1.1c2.1,0.3,12.5-3.8,13.5-4.1c1-0.3,5.5-12.7,5.9-13.5c1.6-3.1,0.9,5,0.9,5l-1.8,3.8l-2.3,3.3
					c0,0-2.6,5-6.5,5.7c-0.6,0.1-1.5,0.6-2,0.9c-0.5,0.4-0.7,0.4-0.8,0.5c-0.1,0.1-0.5,0.9-5.1,0.7c-1.9-0.1-5-0.1-7.9-2.1
					c-1.5-1.1-3.8-3.7-4.9-5.3c-1.1-1.6-2.1-3.7-3.4-5.5c-1.2-1.8-2.9-3-2.5-5.8c0.5-2.8,1.7-5.5,2.4-7.6c0.5-1.5,1.5-3.3,2.5-4.5
					c0.4-0.5,2.2-1.9,2.6-2.1C16.5,2.9,18.6,2.8,18.6,2.8z"/>
				<g>
					<path class="st3" d="M31.6,21.1c0,0.1,0.1,0.2,0.1,0.3c1.6-0.1,3-0.8,4.3-1.7c0-0.1,0-0.2-0.1-0.3
						C34.6,20.4,33.2,21.1,31.6,21.1z"/>
					<path class="st3" d="M31.9,22.1c1.5-0.2,2.9-0.8,4.1-1.6c0,0,0-0.1,0-0.1c0-0.1,0-0.2,0-0.3c-1.3,0.9-2.7,1.4-4.2,1.6
						C31.8,21.9,31.8,22,31.9,22.1z"/>
					<path class="st3" d="M32,19.9c1,0.1,1.8-0.2,2.5-0.5c0.5-0.2,0.7-0.2,0.8-0.2c-1.1,0.8-2.4,1.4-3.8,1.4c0,0.1,0.1,0.2,0.1,0.4
						c1.5-0.1,2.9-0.8,4.2-1.7c0,0,0.1,0,0.1,0.1c0.1,0.1,0.1,0.2,0.1,0.3l0-0.6c0,0,0,0,0,0c-1.6,0.1-3.7-0.1-4.9-0.1l0.3,1
						C31.4,19.9,31.6,19.9,32,19.9z"/>
					<path class="st3" d="M26.6,16.3c-0.2-1.7-0.6-3.5-0.9-5c0,0.2-0.7,3.9-1,5C25.2,16.3,26.1,16.4,26.6,16.3z"/>
					<path class="st3" d="M20.4,28.7c0.1-0.2,2.8-7,3-7.4h0c0.5-2.5,2.1-10.8,2.1-10.8c0-0.2-0.2-1.1-0.3-2c-0.2,0-0.3,0-0.4,0
						c-0.3,1.5-2.2,12-2.4,12.8c-0.3,1-2.5,6.7-2.8,7.5C19.7,28.7,20.2,28.7,20.4,28.7z"/>
					<path class="st3" d="M35.9,20.9c-0.5,0.4-1,0.7-1.6,1c-0.7,0.3-1.5,0.5-2.3,0.6c0,0.1,0.1,0.2,0.1,0.4c0.8-0.1,1.6-0.3,2.3-0.7
						c0.5-0.2,0.9-0.5,1.3-0.7c0,0.1-0.1,0.2-0.1,0.3c-0.4,0.3-0.9,0.5-1.4,0.7c-0.7,0.3-1.4,0.6-2.1,0.8c0,0.1,0.1,0.2,0.1,0.3
						c0.6-0.2,1.2-0.4,1.8-0.6c0.5-0.2,1-0.5,1.5-0.8c0,0,0,0,0,0.1c0,0.1,0,0.2-0.1,0.3c-0.4,0.3-0.9,0.5-1.4,0.8
						c-0.5,0.3-1.1,0.5-1.7,0.6c0,0.1,0.1,0.2,0.1,0.3c0.6-0.1,1.1-0.3,1.7-0.6c0.4-0.2,0.8-0.4,1.2-0.6c0,0.1,0,0.2-0.1,0.2
						c-0.9,0.6-1.8,0.9-2.8,1.1c0,0.1,0.1,0.2,0.1,0.3c0.9-0.2,1.8-0.5,2.6-1c0,0,0,0,0,0.1c0,0,0,0.1,0,0.1
						c-0.8,0.5-1.6,0.9-2.5,1.1c0,0.2,0.1,0.3,0.1,0.4c0.8-0.2,1.5-0.5,2.2-0.9c0,0.1-0.1,0.2-0.1,0.3c-0.6,0.4-1.3,0.7-2,0.9
						c0.1,0.1,0.1,0.2,0.2,0.2c-0.1,0-0.1,0-0.1,0l0.8,2.8l2.5-2.6L36,20.6C36,20.7,36,20.8,35.9,20.9z"/>
					<path class="st3" d="M42.6,16.7c-0.2-2.5-1-3.8-1.4-4.7c-0.4-0.9-0.8-1.5-1.9-3.1c-1.1-1.5-2-2.8-2.5-3.3
						c-0.5-0.5-2.7-1.8-4.4-2.7c-1.6-0.9-4.5-1.3-6-1.4c-1.5-0.1-5.5,0.5-7.1,1c-1.6,0.5-1.9,0.5-2,0.6c0.1,0.1,0.6,0.2,0.6,0.3
						c0,0.1-0.3,0.1-0.6,0.2c-0.6,0.1-2,1-3.3,1.7c-1.3,0.7-2.6,1.9-3.4,3.2C9.8,9.7,9.3,11.6,9,12.5c-0.2,0.9-1,3.3-1.5,4.5
						c-0.5,1.2-0.5,2.9-0.5,3.2s0.4,0.5,0.5,0.8c0.2,0.3,0.1,1,0.1,1.1c-0.1,0.1-0.3-0.5-0.5-0.9c-0.2-0.4-0.3-0.9-0.2-2.1
						c0.1-1.1,0.5-2.5,0.6-3c0.2-0.5,0.9-2.6,1.3-4.3c0.5-1.7,1.8-4,2.3-4.7c0.5-0.7,2.1-1.7,2.9-2.2c0.8-0.5,2.5-1.5,2.5-1.5l0-0.4
						c0,0-1.8,1-2.8,1.5C13,5,12.3,5.7,11.2,6.8c-0.4,0.4-0.7,0.8-1,1.1L9.9,7.7C9.8,7.8,9.8,7.9,9.7,8.1L10,8.3
						C9.9,8.4,9.8,8.5,9.8,8.6L9.4,8.4C9.4,8.5,9.3,8.6,9.2,8.8L9.6,9c0,0.1-0.1,0.2-0.1,0.3L9.1,9C9,9.1,8.9,9.3,8.8,9.4l0.4,0.3
						c0,0,0,0.1-0.1,0.1c0,0.1-0.1,0.2-0.1,0.3c0,0,0,0,0,0L8.6,9.7C8.6,9.9,8.5,10,8.4,10.1l0.5,0.3c0,0.1-0.1,0.2-0.1,0.3
						l-0.6-0.2c-0.1,0.1-0.1,0.3-0.2,0.4l0.6,0.2c0,0.1-0.1,0.3-0.1,0.4l-0.7-0.2c-0.1,0.1-0.1,0.3-0.2,0.4l0.7,0.2
						c0,0.1-0.1,0.2-0.1,0.3L7.7,12c0,0.1-0.1,0.3-0.1,0.4l0.7,0.2c0,0.1-0.1,0.3-0.1,0.4l-0.7-0.2c0,0.1-0.1,0.3-0.1,0.4L8,13.4
						c0,0,0,0,0,0c0,0.1,0,0.2-0.1,0.3l-0.7-0.2c0,0.1-0.1,0.3-0.1,0.4l0.7,0.2c0,0.1-0.1,0.3-0.1,0.4l-0.8-0.2
						c0,0.1-0.1,0.3-0.1,0.4l0.7,0.2c0-0.1,0.1-0.2,0.1-0.2c-0.3,1-0.6,2.3-0.7,3c-0.1,0.4-0.2,1-0.3,1.6c0-0.1,0-0.1,0-0.2
						l-0.8-0.2c0,0.1-0.1,0.3-0.1,0.4l0.8,0.2c0,0.1,0,0.2,0,0.3l-0.9-0.1c0,0,0,0,0,0.1c0,0.1,0,0.2-0.1,0.4l0.9,0.1
						c0,0.1,0,0.3,0,0.4l-0.9-0.1c0,0.1,0,0.3,0,0.4L6.4,21c0,0.1,0,0.2,0,0.3l-0.9,0.1c0,0.2,0,0.3,0,0.4l0.9-0.1c0,0,0,0.1,0,0.1
						c0,0.1,0,0.2,0.1,0.3l-1,0.1c0,0.1,0,0.3,0.1,0.4l1-0.1c0,0.1,0.1,0.2,0.1,0.3l-1,0.4c0,0.1,0.1,0.3,0.2,0.4l1-0.4
						c0.1,0.1,0.2,0.2,0.2,0.3l-1.1,0.4c0.1,0.1,0.1,0.3,0.2,0.4L7.5,24c0.1,0.1,0.1,0.1,0.2,0.2l-1.1,0.7c0.1,0.1,0.2,0.2,0.2,0.4
						l1.4-0.9c0.3,0,0.5,0,0.5,0c0.1,0,0.2,0.1,0.4,0.4c0.2,0.3,0.1,0.6,0.9,1.6c0.8,1,1.1,1.1,1.5,1.6c0.4,0.5,0.6,1.2,1.2,2.1
						c0.6,1,1.8,2.1,2.6,2.9c0.8,0.8,2.2,2.1,3.1,2.6c0.9,0.5,2.5,0.7,3.7,1.2c1.2,0.5,3.6,0.2,4.8,0.1c1.2-0.1,2.2-0.7,2.9-1
						c0.6-0.3,2-0.8,2.9-1.1c0.9-0.3,1.6-0.8,2.5-1.4c0.9-0.6,1.7-1.6,2.3-2.3c0.6-0.7,1.2-1.7,1.6-2.4c0.4-0.6,1-1.4,1.4-2.3
						c0.5-0.9,0.6-1.2,0.8-1.8c0.2-0.5,0.4-1.3,0.4-2.2c0.1-0.9,0.4-1.2,0.4-2.1c0.1-0.9-0.4-1.3-0.4-2.1s0-1.6,0-2.3
						c-0.1-0.7-0.2-1.4-0.5-1.7c-0.3-0.4-0.3-0.7-0.6-1.4c-0.3-0.7-0.5-0.8-0.9-1.3c-0.3-0.5-0.4-0.8-0.9-1.8c-0.5-1-0.9-1.6-1.3-2
						c-0.4-0.4-0.7-0.5-1.1-0.8c-0.4-0.3-0.9-0.8-1.5-1.3c-0.5-0.5-1.1-0.8-1.8-0.8c-0.7,0-1.7-0.4-2.5-0.7
						c-0.7-0.3-1.7-1.1-2.3-1.3c-0.5-0.2-1.1-0.4-1.4-0.5c0,0-0.1,0-0.2,0c1.3,0.1,2.6,0.3,3.5,0.5c1.4,0.4,4.1,1.9,4.6,2.3
						C35.4,5.3,37.5,7,38,7.7c0.5,0.7,1.3,2,1.6,2.6c0.3,0.6,1,1.1,1.7,2.8c0.8,1.7,0.7,2.8,0.7,3.4c0.1,0.6,0.3,2.8,0.2,4.1
						c-0.1,1.3-0.3,2.1-0.6,3.3c-0.3,1.1-0.5,1.7-1,2.6c-0.5,0.9-0.5,0.9-1.1,1.9c-0.6,1-1.7,2.6-2,2.9c-0.3,0.3-0.6,0.6-1.1,1.1
						c-0.5,0.6-0.9,1.2-1.6,1.7c-0.6,0.4-1.2,0.3-2.3,0.9c-1.2,0.6-1.2,1.1-3.4,1.8c-2.2,0.7-4.7,0.5-5.7,0.5
						c-1-0.1-1.3-0.3-2.4-0.5c-1.1-0.2-2.5-0.7-3.2-1.2c-0.7-0.4-0.9-0.9-1.4-1.3c-0.5-0.4-1.3-0.9-1.6-1.3
						c-0.3-0.3-0.6-0.7-1.4-1.8c-0.9-1.2-2.2-2.9-2.7-3.8c-0.5-0.9-1.6-1.7-1.7-1.6c-0.1,0,0,0.2,0.2,0.3l-1.1,0.8
						c0.1,0.1,0.2,0.2,0.3,0.3l1.2-0.8c0,0,0.1,0.1,0.1,0.1c0,0,0.1,0.1,0.1,0.1l-1.1,0.8c0.1,0.1,0.2,0.2,0.3,0.3l1.1-0.8
						c0.1,0.1,0.2,0.2,0.2,0.3L9,28.1c0.1,0.1,0.2,0.2,0.3,0.3l1.1-0.8c0.1,0.1,0.1,0.2,0.2,0.2l-1.1,0.8c0.1,0.1,0.2,0.2,0.3,0.3
						l1.1-0.8c0.1,0.1,0.2,0.2,0.2,0.3L10,29.3c0.1,0.1,0.2,0.2,0.3,0.3l1.1-0.8c0,0.1,0.1,0.1,0.2,0.2l-1,0.8
						c0.1,0.1,0.2,0.2,0.3,0.3l1-0.8c0.1,0.1,0.2,0.2,0.2,0.3l-1,0.8c0.1,0.1,0.1,0.2,0.2,0.3c0,0,0,0.1,0.1,0.1l1-0.8
						c0.1,0.1,0.1,0.2,0.2,0.2l-1.1,0.8c0.1,0.1,0.2,0.2,0.3,0.3l1.1-0.8c0.1,0.1,0.2,0.2,0.2,0.3l-1.1,0.8c0.1,0.1,0.2,0.2,0.3,0.3
						l1.1-0.7c0,0,0,0,0,0c0.2,0.3,0.5,0.6,0.7,0.9l-1,0.8c0.1,0.1,0.2,0.2,0.3,0.3l1-0.7c0.1,0.1,0.1,0.1,0.2,0.2l-0.9,0.8
						c0.1,0.1,0.2,0.2,0.3,0.3l0.9-0.7c0.1,0.1,0.2,0.2,0.3,0.3L14,34.2c0.1,0.1,0.2,0.2,0.3,0.3l0.9-0.7c0,0,0.1,0.1,0.1,0.1
						l-0.7,0.9c0.1,0.1,0.2,0.2,0.3,0.3l0.7-0.9c0.1,0.1,0.2,0.2,0.3,0.3l-0.7,0.9c0.1,0.1,0.2,0.2,0.3,0.3l0.7-0.9
						c0.1,0,0.1,0.1,0.2,0.1l-0.5,1c0.1,0.1,0.2,0.1,0.2,0.2c0,0,0.1,0.1,0.1,0.1l0.5-1c0.1,0.1,0.2,0.2,0.3,0.2l-0.5,1
						c0.1,0.1,0.2,0.1,0.4,0.2l0.5-1c0.1,0,0.2,0.1,0.2,0.1l-0.5,1c0.1,0.1,0.3,0.1,0.4,0.2l0.5-1c0.1,0.1,0.2,0.1,0.4,0.2l-0.5,1
						c0.1,0.1,0.3,0.1,0.4,0.2l0.5-1c0.1,0,0.2,0.1,0.2,0.1l-0.3,1c0.1,0,0.3,0.1,0.4,0.1l0.3-1c0.6,0.2,1.3,0.4,1.9,0.5L21.3,38
						c0.1,0,0.3,0,0.4,0.1l0.1-0.9c0.1,0,0.2,0,0.3,0l0,0.9c0.1,0,0.3,0,0.4,0l0-0.9c0.1,0,0.3,0,0.4,0l0,0.9c0.2,0,0.3,0,0.4,0
						l0-0.8c0.1,0,0.2,0,0.3,0l0,0.8c0.1,0,0.3,0,0.4,0l0-0.8c0.1,0,0.3,0,0.4,0l0,0.8c0.1,0,0.3,0,0.4,0l0-0.8c0.1,0,0.2,0,0.3,0
						l0,0.7c0.2,0,0.3,0,0.4,0l0-0.7c0.1,0,0.3,0,0.4,0l0,0.7c0.2,0,0.3,0,0.4,0l0-0.7c0.1,0,0.2,0,0.3,0l0,0.7c0.2,0,0.3,0,0.4,0
						l0-0.7c0.1,0,0.3,0,0.4,0l0,0.6c0.2,0,0.3,0,0.4-0.1l0-0.6c0.1,0,0.2,0,0.3,0l0,0.5c0.2,0,0.3-0.1,0.4-0.1l0-0.5
						c0.1,0,0.1,0,0.2,0c0.1,0,0.2,0,0.2-0.1l0,0.3c0.1,0,0.1-0.1,0.1-0.1c0.1-0.1,0.2-0.1,0.3-0.1l0-0.2c0.1,0,0.2-0.1,0.3-0.1
						l0,0.2c0.1,0,0.2-0.1,0.3-0.2c0,0,0.1-0.1,0.2-0.1l0-0.2c0.1-0.1,0.3-0.2,0.4-0.3l0,0.2c0.1-0.1,0.3-0.1,0.4-0.2l0-0.3
						c0.1,0,0.2-0.1,0.3-0.1l0,0.4c0.1-0.1,0.3-0.1,0.4-0.2l0-0.4c0.1-0.1,0.3-0.1,0.4-0.2l0,0.3c0.1-0.1,0.3-0.2,0.4-0.2l0-0.2
						c0.1,0,0.2-0.1,0.3-0.1l0,0.2c0.2-0.1,0.4-0.1,0.4-0.1v-0.2c0.5-0.2,1.1-0.5,1.7-0.9c0.4-0.3,0.9-0.8,1.4-1.3
						c1-1.1,2-2.6,2.9-3.7c1.3-1.6,2.2-3.5,3-5.4C42.9,22.5,42.9,19.3,42.6,16.7z M24.4,2.1C25.1,2,25.8,2,26.4,2
						c-0.3,0-0.6,0-0.6,0s0.1,0.4-0.2,0.9c-0.2,0.6-0.4,0.9-1.2,1.3c-0.8,0.4-1.5,0.2-2.5-0.2c-0.6-0.2-1.2-0.7-1.4-1.1
						C20.5,2.9,22.3,2.3,24.4,2.1z M17.2,9.2c0.6,0,1.3,0.2,1.8,0.4c-0.3,0-0.6,0-0.9-0.1c-0.6-0.1-1.3-0.2-1.9-0.4
						C16.5,9.2,16.9,9.2,17.2,9.2z M17.8,9.9c0.8,0.1,1.6,0.1,2.4,0.1c0.3,0.1,0.6,0.2,0.8,0.3c-0.9,0-1.8,0-2.8-0.1
						c-0.2,0-0.5-0.1-0.7-0.1C16.7,10,15.8,9.8,15,9.4c0,0,0,0,0,0c0,0,0.2-0.1,0.4-0.1C16.2,9.6,17,9.8,17.8,9.9z M35.9,10.3
						c0.1,0.7,0.1,1.4-0.1,2.1c-0.2,0.9-0.7,1.8-1.3,2.5c-0.2,0-0.4,0.1-0.6,0.1c0.4-0.4,0.8-0.9,1-1.5
						C35.5,12.5,35.8,11.6,35.9,10.3C35.9,10.3,35.9,10.3,35.9,10.3z M35.5,10.9C35.5,10.9,35.5,10.9,35.5,10.9
						c-0.1,0.9-0.4,1.7-0.8,2.5c-0.3,0.6-0.8,1.1-1.2,1.6c-0.3,0-0.5,0-0.8,0c0.5-0.4,1-0.9,1.5-1.5C34.8,12.8,35.2,11.9,35.5,10.9z
						 M35.1,11.1c-0.3,0.8-0.7,1.6-1.2,2.2c-0.5,0.6-1.1,1.2-1.7,1.6c-0.3,0-0.6-0.1-0.9-0.1c0.9-0.4,1.7-1,2.4-1.7
						c0.5-0.5,0.9-1.2,1.3-2C35,11.1,35,11.1,35.1,11.1z M34.6,11.2c-0.3,0.6-0.7,1.2-1.1,1.6c-0.8,0.8-1.8,1.5-2.8,1.9
						c-0.1,0-0.2-0.1-0.2-0.1c0,0,0,0-0.1-0.1c0.9-0.3,1.8-0.8,2.6-1.5C33.6,12.5,34.1,11.9,34.6,11.2
						C34.5,11.2,34.6,11.2,34.6,11.2z M34.1,11.2c-0.4,0.7-1,1.3-1.6,1.7c-0.7,0.5-1.5,1-2.4,1.3c-0.1-0.1-0.2-0.3-0.3-0.5
						c1.1-0.3,2.2-0.8,3.2-1.6c0.3-0.3,0.6-0.6,0.9-1C34.1,11.2,34.1,11.2,34.1,11.2z M31,7.5c0.4-0.1,0.4-0.1,0.4-0.1s0,0.1,0,0.2
						c0,0,0-0.1,0-0.1c-0.3,0.1-0.7,0.1-1,0.1C30.7,7.6,30.9,7.5,31,7.5z M28.4,7.2C28.5,7.2,29,7,29.6,7c0,0.2,0,0.4,0,0.8
						C29,7.9,28.5,8,27.9,8.1c0.3,2.9,0.6,5.7,1.3,8.3c0.1,0,0.3,0,0.7,0l-1.6-7.6c0,0,0.6-0.4,0.8-0.5c0,0,0,0,0.1,0c0,0,0,0,0,0
						c0,0,0,0,0,0c0.1-0.1,0.3-0.2,0.5-0.3c0.1,0,0.2,0,0.3,0c0.5,0,1-0.1,1.5-0.1c0,0,0,0.1,0,0.1c-0.6,0.2-1.1,0.3-1.7,0.4
						c-0.2,0-0.4,0-0.6,0.1l0.1,0.2c0.3,0,0.5,0,0.8-0.1c0.5-0.1,1-0.2,1.5-0.3c0,0,0,0.1,0,0.2c-0.5,0.2-1.1,0.3-1.6,0.4
						C29.6,8.9,29.2,9,28.8,9c0,0.1,0,0.2,0,0.3c1-0.1,2-0.2,2.9-0.5c0,0.1,0,0.1,0.1,0.2c-0.9,0.3-1.9,0.5-2.9,0.5
						c0,0.1,0,0.2,0.1,0.4c1-0.1,2-0.3,2.9-0.6c0,0.1,0.1,0.2,0.1,0.3c-0.9,0.4-2,0.5-3,0.6c0,0.1,0,0.3,0.1,0.4
						c1-0.1,2.1-0.3,3-0.7c0,0,0,0.1,0.1,0.1c-0.9,0.5-2,0.7-3,0.9c0,0.1,0,0.2,0.1,0.4c1.1-0.2,2.2-0.5,3.1-1c0,0,0.1,0.1,0.1,0.1
						c-0.9,0.6-2.1,0.9-3.2,1.1c0,0.1,0.1,0.2,0.1,0.3c1.2-0.2,2.3-0.5,3.3-1.2c0,0.1,0.1,0.1,0.1,0.1c-0.9,0.7-2.1,1.2-3.3,1.4
						c0,0.1,0.1,0.2,0.1,0.3c1.3-0.2,2.6-0.7,3.6-1.5c0.1,0,0.1,0,0.2,0.1c-0.2,0.2-0.5,0.4-0.7,0.6c-0.9,0.6-1.9,0.9-2.9,1.1
						c0,0.1,0.1,0.2,0.1,0.3c1.1-0.2,2.1-0.6,3-1.2c0.3-0.2,0.6-0.4,0.9-0.7c0,0,0.1,0,0.1,0c-0.3,0.3-0.5,0.6-0.8,0.9
						c-0.9,0.7-1.9,1.2-3,1.4c-0.1-0.2-0.1-0.3-0.2-0.5l0.8,3.5c1.3,0,3.5,0,4.6,0.3c0.2,0,0.6,0,1.1,0l0.7-6.6
						c-0.3,1.2-0.9,4.1-1.5,4.4c-0.1,0-0.2,0.1-0.2,0.1c0.5-0.7,0.8-1.5,1-2.3c0.2-1.1,0.3-2.1,0-3.1c0,0,0,0,0,0
						c0-0.1,0-0.1-0.1-0.2c0.1-0.3,0-0.3,0-0.3l0-0.4l1.1,0.9l-0.5,7.5c0.4,0,0.7,0.1,0.8,0.1c0,0.9,0,1.6-0.1,2.4
						c-0.3,0-0.5-0.1-0.7-0.2c0,0,0,0-0.1,0c0.1,1,0.3,3.6,0.3,4.1c0,0.7,0,2.5,0,2.5L36.7,26l0,0l-3.6,3.7l-0.1-0.5l0.4-0.4
						l-2.8-9.9c-0.1,0-0.2,0-0.2,0c0,0.6,0.2,1.5,0.3,2c0.2,1.5,0.3,2.7,0.7,4.1c0.4,1.5,0.7,3.4,1.1,5.1c0.4,0.1,0.9,0,1.3,0
						c0.1,0.6,0.3,1,0.3,1.4c-1.4,0-3.6,0.1-5.2,0c-0.1-0.4-0.1-1-0.1-1.3c0.4-0.1,0.9,0,1.4,0c-0.7-3.2-1.5-6.7-2.2-10
						c-0.2-0.8-0.2-1.1-0.3-1.5c-1,0.1-2.2-0.1-3.2,0c-0.1,0.6-0.5,2.1-0.6,2.6h0c0,0.1-0.3,0.9-0.7,1.9c0.3-0.6,0.5-1.1,0.8-1.5
						c0,0.1-0.1,0.2-0.2,0.3c0.4-0.2,0.7-0.4,1.1-0.5c0.4-0.1,1.3-0.4,1.8-0.3c0,0.1,0.1,0.2,0.1,0.3c-1.1,0-2.2,0.2-3.2,0.7
						c-0.1,0.2-0.2,0.3-0.3,0.5c1.1-0.6,2.3-0.8,3.6-0.8c0,0.1,0.1,0.2,0.1,0.3c-1.3,0-2.6,0.1-3.8,0.6C23.1,23,23,23.2,23,23.3
						c1.3-0.6,2.7-0.7,4.1-0.7c0,0.1,0.1,0.2,0.1,0.2c-1.5-0.1-3,0.1-4.3,0.7c-0.1,0.2-0.1,0.3-0.2,0.5c1.4-0.7,3.1-0.9,4.7-0.7
						c0,0.1,0.1,0.2,0.1,0.2c-1.7-0.1-3.3,0.2-4.9,0.7c-0.1,0.1-0.1,0.2-0.2,0.4c1.6-0.6,3.4-0.9,5.2-0.8c0,0.1,0.1,0.1,0.1,0.2
						c-1.8-0.1-3.6,0.1-5.3,0.7c-0.1,0.2-0.1,0.3-0.2,0.5c1.8-0.7,3.8-1,5.7-0.8c0.1,0.1,0.1,0.3,0.2,0.4c-1.1-0.1-2.2-0.1-3.3,0
						c-0.9,0.1-1.8,0.3-2.6,0.7c-0.1,0.1-0.1,0.3-0.2,0.4c0.9-0.4,2-0.6,3-0.8c1.1-0.1,2.2-0.1,3.3,0c0,0.1,0.1,0.2,0.1,0.3
						c-1.1-0.1-2.2-0.1-3.3,0.1c-1,0.1-2.2,0.4-3.2,0.7c-0.1,0.2-0.1,0.3-0.1,0.4c1.1-0.5,2.5-0.7,3.7-0.9c1.1-0.1,2.1-0.1,3.1,0
						c0,0.1,0.1,0.2,0.1,0.3c-1.1-0.1-2.2,0-3.4,0.1c-1.2,0.2-2.5,0.4-3.6,0.9c0,0.1,0,0.2,0,0.2c0-0.1,0-0.3,0-0.5
						c-0.4,1-0.7,1.7-0.7,1.8c1.7,0.1,4,0,5.9,0c0.7,0,1.5,0,2.1,0c0.1,0.1,0,0.4-0.1,0.5c-2.8,0-6.3,0-9.4,0
						c-0.2,0.5-0.4,0.9-0.5,1.4c0.2,0,0.4,0,0.6,0.1c0,0.3,0,0.7,0,1.1c-1.4-0.2-3.3,0.1-4.7-0.1c-0.1-0.4-0.2-0.7-0.2-1.1
						c0.4-0.1,0.9,0,1.3,0c1.5-3.6,2.9-7.3,4.4-11c0-0.3,0.1-0.4,0.1-0.6c-2.5,0-5.2-0.1-7.5-0.3c0,0-0.1,0-0.1,0
						c-0.2,0.7-0.4,2-0.3,2.6c0,0.7,0.5,2.1,0.9,3.2c0.1,0.3,0.2,0.5,0.3,0.8c0.4,1.2,1.5,3.4,1.5,3.5l-0.3,0.3
						c0-0.1-1.2-2.4-1.6-3.6c-0.1-0.2-0.2-0.5-0.3-0.8c-0.4-1.2-0.8-2.5-0.9-3.3c0-0.7,0.2-2,0.4-2.7c-0.9-0.1-1.2-0.1-1.6-0.4
						c0.2-0.9,0.4-1.8,0.6-2.6c0.2,0,0.4,0,0.6,0.1l2.3-5.9l0.3-0.7L15.1,9L15,9.5c0,0.1-0.1,0.1-0.1,0.2c0.9,0.4,1.9,0.7,2.9,0.8
						c1.2,0.2,2.4,0.2,3.5,0.2c0,0.1,0.1,0.2,0.1,0.3c-1.1,0-2.2,0-3.4-0.2c-0.2,0-0.5-0.1-0.7-0.1c-0.8-0.2-1.6-0.4-2.4-0.8
						c-0.1,0-0.1-0.1-0.2-0.1c0,0.1-0.1,0.2-0.1,0.3c0.9,0.5,1.9,0.8,2.9,1c1.3,0.2,2.5,0.3,3.8,0.3c0,0.1,0,0.2,0,0.3
						c-1,0-2-0.1-3-0.2c-0.3,0-0.5-0.1-0.8-0.1c-0.9-0.2-1.9-0.5-2.7-0.9c-0.1,0-0.2-0.1-0.3-0.1c0,0.1-0.1,0.2-0.1,0.3
						c1,0.5,2.2,0.9,3.2,1.1c1.2,0.2,2.4,0.3,3.7,0.4c0,0.1,0,0.2,0,0.3c-1.1,0-2.1-0.1-3.2-0.3c-0.2,0-0.5-0.1-0.7-0.2
						c-0.8-0.2-1.7-0.5-2.4-0.9c-0.2-0.1-0.4-0.2-0.5-0.3c0,0.1-0.1,0.2-0.1,0.3c0.9,0.6,2.1,1,3.1,1.2c1.3,0.3,2.5,0.4,3.8,0.4
						c0,0.1,0,0.3,0,0.4c-1,0-2-0.1-3-0.4c-0.3-0.1-0.5-0.1-0.8-0.2c-0.9-0.2-1.7-0.6-2.5-1c-0.2-0.1-0.4-0.2-0.6-0.4c0,0,0,0,0-0.1
						l0,0v0v0l-0.1,0.4l-0.3,0l-1.6,4.1c0.4,0.1,1,0.3,2.2,0.5c2.1,0.2,4.4,0.4,6.4,0.3c0.4-2,0.8-3.8,1.2-6c0-0.2,0-0.5,0-0.9
						c-0.9-0.2-1.6,0-2.5-0.1C19.4,9,19.1,8.4,19.3,8C22.4,8,25.3,7.6,28.4,7.2z M26.8,28C26.8,28,26.8,28,26.8,28
						c-0.5,0.1-1.2,0-1.8,0c0.4-0.1,0.7-0.2,1.1-0.3c0.9-0.2,2-0.3,2.9-0.3c0,0,0,0.1,0,0.1C28.3,27.6,27.5,27.7,26.8,28z M28.9,28
						c-0.2,0.2-0.6,0.1-1,0.1C28.2,28,28.5,28,28.9,28z M24.9,27.2c1.3-0.3,2.7-0.4,4-0.3c0,0,0,0.1,0,0.1c-0.9,0-1.9,0.1-2.8,0.3
						c-0.6,0.1-1.2,0.3-1.8,0.5c-0.1,0-0.3,0.1-0.4,0.1c-0.4,0-0.9,0-1.4-0.1C23.3,27.6,24.1,27.4,24.9,27.2z M22,27.7
						c-0.2-0.1-0.3-0.2-0.4-0.3c1-0.5,2.2-0.7,3.2-0.9c1.1-0.2,2.2-0.2,3.2-0.2c0.2,0,0.4,0,0.7,0c0,0.1,0.1,0.1,0.1,0.2
						c-1.2-0.1-2.5,0-3.6,0.2C24,27,23,27.3,22,27.7z M26.3,20.7c0,0,0.1,0.1,0.1,0.2c-0.4,0-0.9,0.1-1.2,0.2
						c-0.5,0.1-0.9,0.2-1.3,0.4c0,0,0,0,0-0.1c0.1-0.1,0.1-0.2,0.2-0.3C24.8,20.8,25.5,20.5,26.3,20.7z M24.6,20.6
						c0.2-0.2,0.5-0.4,0.8-0.4c0.2,0,0.4,0,0.5,0.1C25.5,20.3,25,20.4,24.6,20.6z M16.1,19.4c0.1-0.1,0.3-0.1,0.5-0.2
						c0.1,0,0.3,0.1,0.5,0.1c-0.7,0.3-1.5,0.6-2.1,1.1c0-0.1,0-0.2,0.1-0.3C15.3,19.8,15.7,19.6,16.1,19.4z M15.1,19.6
						c0.1-0.4,0.2-0.6,0.2-0.6s0.3,0,0.7,0.1c-0.1,0-0.2,0.1-0.3,0.1C15.5,19.3,15.3,19.4,15.1,19.6z M17.4,19.5
						c0.1,0,0.2-0.1,0.3-0.1c0.2,0,0.4,0.1,0.5,0.1c-0.3,0.1-0.6,0.2-0.9,0.3c-0.9,0.3-1.8,0.8-2.6,1.4c0-0.1,0-0.3,0.1-0.4
						C15.6,20.2,16.5,19.8,17.4,19.5z M17.6,20.1c0.4-0.1,0.8-0.3,1.3-0.4c0.2,0.1,0.4,0.2,0.4,0.2s0,0,0,0.1
						c-0.7,0.1-1.5,0.3-2.1,0.6c-0.8,0.4-1.7,0.8-2.3,1.4c0-0.1,0-0.2,0-0.3C15.6,21,16.6,20.5,17.6,20.1z M17.3,20.8
						c0.5-0.2,1.1-0.4,1.8-0.5c-0.1,0.1-0.1,0.2-0.2,0.4c-0.6,0.1-1.2,0.3-1.7,0.5c-0.8,0.4-1.7,0.9-2.3,1.5c0-0.1,0-0.2,0-0.3
						C15.4,21.7,16.4,21.2,17.3,20.8z M17.3,21.5c0.4-0.2,0.9-0.3,1.3-0.4c-0.1,0.1-0.1,0.3-0.2,0.4c-0.6,0.1-1.1,0.3-1.6,0.6
						c-0.7,0.4-1.5,0.9-2,1.5c0-0.1,0-0.2,0-0.3C15.5,22.4,16.4,21.9,17.3,21.5z M17,22.3c0.3-0.2,0.7-0.3,1.1-0.4
						c-0.1,0.1-0.3,0.3-0.5,0.5c-0.4,0.1-0.7,0.3-1.1,0.5c-0.6,0.4-1.2,0.8-1.7,1.3c0-0.1,0-0.2,0-0.2C15.4,23.2,16.2,22.7,17,22.3z
						 M16.8,23.1C16.8,23.1,16.8,23.1,16.8,23.1c0,0.1-0.2,0.2-0.3,0.3c-0.7,0.6-1.5,1.5-1.5,1.5s0-0.1-0.1-0.3
						C15.4,24,16.1,23.5,16.8,23.1z M17,13.7c-0.8-0.3-1.5-0.6-2.2-1.1c-0.1-0.1-0.1-0.2-0.1-0.3c0.8,0.5,1.8,0.9,2.6,1.2
						c1.2,0.4,2.5,0.6,3.8,0.6c0,0.1,0,0.1-0.1,0.2C19.6,14.3,18.3,14.1,17,13.7z M20.8,14.7c-0.1,0.1-0.2,0.2-0.2,0.2
						c0,0,0,0-0.3,0c-1.2-0.1-2.3-0.4-3.4-0.9c-0.4-0.2-0.8-0.4-1.2-0.6c0.4,0.2,0.8,0.3,1.2,0.5C18.1,14.4,19.5,14.6,20.8,14.7z
						 M18.1,13.4c-0.3-0.1-0.5-0.1-0.8-0.2c-0.9-0.3-1.7-0.6-2.5-1.1c-0.1-0.1-0.3-0.2-0.4-0.3c0-0.1,0-0.1-0.1-0.2
						c0.9,0.6,2.1,1.1,3,1.3c1.2,0.3,2.5,0.5,3.7,0.6c0,0.1,0,0.2,0,0.3C20.1,13.8,19.1,13.6,18.1,13.4z"/>
					<path class="st3" d="M6.8,17.9c0-0.1,0-0.3,0.1-0.4l-0.7-0.1c0,0.1-0.1,0.3-0.1,0.4L6.8,17.9C6.8,17.9,6.8,17.9,6.8,17.9z"/>
					<path class="st3" d="M6.8,18.2L6,18.1c0,0.1-0.1,0.3-0.1,0.4l0.8,0.2C6.7,18.5,6.7,18.3,6.8,18.2z"/>
					<path class="st3" d="M7.1,16.7l-0.7-0.1c0,0.1-0.1,0.3-0.1,0.4l0.7,0.1C7,17,7,16.8,7.1,16.7z"/>
					<path class="st3" d="M7.5,15.2L6.7,15c0,0.1-0.1,0.3-0.1,0.4l0.7,0.2C7.4,15.5,7.4,15.3,7.5,15.2z"/>
					<path class="st3" d="M7.2,16l-0.7-0.2c0,0.1-0.1,0.3-0.1,0.4l0.7,0.2C7.2,16.3,7.2,16.1,7.2,16z"/>
					<path class="st3" d="M8.8,25.3l-1.2,0.9c0.1,0.1,0.2,0.2,0.3,0.3L9,25.7C9,25.5,8.9,25.4,8.8,25.3z"/>
					<path class="st3" d="M8.5,24.6l-1.4,0.9c0.1,0.1,0.2,0.2,0.3,0.4L8.7,25C8.6,24.9,8.6,24.8,8.5,24.6z"/>
					<path class="st3" d="M20.5,37.9c0.1,0,0.3,0.1,0.4,0.1L21,37c-0.1,0-0.3-0.1-0.4-0.1L20.5,37.9z"/>
					<path class="st3" d="M19.6,37.7c0.1,0,0.3,0.1,0.4,0.1l0.3-0.9c-0.1,0-0.3-0.1-0.4-0.1L19.6,37.7z"/>
					<path class="st3" d="M13.4,31.6l-1,0.8c0.1,0.1,0.2,0.2,0.3,0.3l1-0.8C13.5,31.8,13.5,31.7,13.4,31.6z"/>
				</g>
				<g>
					<path class="st3" d="M59.7,17.3c-0.1,0-0.1,0-0.1,0.1c0,0-0.4,2.6,0.1,4.5c0.6,2.3,1.8,3.8,1.8,3.8c0,0,0,0,0.1,0
						c0,0,0,0,0.1,0c0,0,0-0.1,0-0.1c0,0-1.2-1.4-1.7-3.7c-0.5-1.9-0.1-4.4-0.1-4.4C59.8,17.3,59.8,17.3,59.7,17.3z"/>
					<path class="st3" d="M60.2,17.8c-0.1,0-0.1,0-0.1,0.1c0,0-0.3,1.9,0.1,3.5c0.4,1.8,1.2,3,1.2,3c0,0,0,0,0.1,0c0,0,0,0,0.1,0
						c0,0,0.1-0.1,0-0.1c0,0-0.8-1.2-1.2-3c-0.4-1.6-0.1-3.4-0.1-3.4C60.3,17.8,60.2,17.8,60.2,17.8z"/>
					<path class="st3" d="M60.6,17.9c0,0-0.1,0-0.1,0.1c0,0.1-0.3,1.6,0,3c0.4,1.5,1,2.5,1,2.6c0,0,0,0,0.1,0c0,0,0,0,0.1,0
						c0,0,0.1-0.1,0-0.1c0,0-0.7-1-1-2.5c-0.3-1.4,0-2.9,0-2.9C60.7,18,60.7,17.9,60.6,17.9z"/>
					<path class="st3" d="M61,18.1c0,0-0.1,0-0.1,0.1c0,0-0.2,1-0.1,2c0.2,1.3,0.6,2,0.7,2c0,0,0,0,0.1,0c0,0,0,0,0,0
						c0,0,0.1-0.1,0-0.1c0,0-0.5-0.7-0.6-2c-0.1-1,0.1-2,0.1-2C61.1,18.2,61.1,18.1,61,18.1z"/>
					<path class="st3" d="M58.8,16.3c-0.1,0-0.1,0-0.1,0c-0.9,5.7,0.5,9.9,3.4,11.6c0,0,0.1,0,0.1-0.1c0,0,0-0.1,0-0.1
						c-1.8-1.1-2.6-2.7-3.1-4.6C58.5,21.1,58.5,18.5,58.8,16.3C58.9,16.3,58.8,16.3,58.8,16.3z"/>
					<path class="st3" d="M66.3,31.8C66.4,31.8,66.4,31.8,66.3,31.8c0.1-0.2,0.2-0.5,0.2-0.7c0,0,0,0,0,0c-0.1,0-0.2,0-0.2,0
						c0,0-0.1,0-0.1,0c0,0-0.1,0-0.1,0c0,0,0,0-0.1,0c-0.1,0.1-0.2,0.3-0.3,0.4c-0.4,0.5-0.8,1.1-1.5,1.1c-0.6,0-0.8-0.4-1-0.8
						c-0.2-0.4-0.4-0.8-0.9-0.9c0,0,0,0,0,0c0,0,0,0-0.1,0c-0.1,0.1-0.2,0.2-0.3,0.3c0,0,0,0.1,0,0.1c0.4,0.2,0.5,0.5,0.5,1
						c0,0,0,0,0,0.1c0.4,0.1,1,0.5,1.2,0.6c0.1,0,0.1,0.1,0.2,0.2c0.1,0.1,0.2,0.2,0.3,0.2c0,0,0,0,0.1,0c0.5,0,0.7-0.2,0.8-0.3
						c0.1-0.1,0.2-0.1,0.3-0.2c0.1,0,0.2,0,0.3,0c0.1,0,0.1,0,0.2-0.1c0,0,0,0,0,0c0-0.1,0-0.2,0-0.3c0-0.2,0-0.4,0-0.5
						C65.7,31.9,66,31.8,66.3,31.8z"/>
					<path class="st3" d="M59.4,16.5C59.4,16.5,59.4,16.4,59.4,16.5C59.4,16.4,59.4,16.4,59.4,16.5c-0.1-0.1-0.2,0-0.2,0
						c-0.4,1.9-0.3,4.5,0.2,6.5c0.2,0.8,0.9,2.7,2.4,4.1l0,0h0c0,0,0,0,0,0c0,0,0-0.1,0-0.1c-2-1.8-3.1-5.5-2.6-9.3
						C59.3,17.2,59.3,16.9,59.4,16.5z"/>
					<path class="st3" d="M58.2,16.3C58.1,16.3,58.1,16.2,58.2,16.3c-0.1,0-0.1,0-0.2,0c0,0,0,0,0,0c-1.2,6.4,1,10.7,4.3,13
						c0,0,0.1,0,0.1-0.2c0,0,0-0.1-0.1-0.1c-3-2.3-4.4-5.2-4.4-9.4C57.9,18.4,58,17.4,58.2,16.3C58.2,16.3,58.2,16.3,58.2,16.3z"/>
					<path class="st3" d="M61.4,18.2c0,0-0.1,0-0.1,0.1c0,0-0.2,0.7-0.1,1.3c0.1,0.8,0.3,1.3,0.3,1.3c0,0,0,0.1,0.1,0.1c0,0,0,0,0,0
						c0,0,0.1-0.1,0-0.1c0,0-0.2-0.5-0.3-1.2c-0.1-0.6,0.1-1.3,0.1-1.3C61.5,18.3,61.5,18.2,61.4,18.2z"/>
					<path class="st3" d="M61.8,18.6c0,0-0.1,0-0.1,0.1c-0.1,0.4,0,0.8,0,0.8c0,0,0,0.1,0.1,0.1c0,0,0,0,0,0c0,0,0.1-0.1,0-0.1
						c0,0-0.1-0.3,0-0.6C61.9,18.7,61.8,18.6,61.8,18.6z"/>
					<path class="st3" d="M62.6,27.5C62.6,27.5,62.6,27.5,62.6,27.5C62.6,27.5,62.7,27.5,62.6,27.5C62.7,27.5,62.7,27.5,62.6,27.5
						c0.9-0.6,1.7-1,2.5-1c0.3,0,0.5,0,0.8,0.1c0,0,0,0,0,0c0,0,0,0,0,0c0-0.1,0-0.1,0.1-0.2c0-0.1,0.1-0.2,0.1-0.2c0,0,0-0.1,0-0.1
						c-0.2,0-0.4-0.1-0.6-0.1c-0.5,0-1,0.1-1.4,0.3c-0.5,0.1-0.9,0.3-1.5,0.3c0,0,0,0,0,0c0,0,0,0,0,0c0.1,0.2,0.1,0.3,0.1,0.5
						C62.6,27.3,62.6,27.4,62.6,27.5z"/>
					<path class="st3" d="M57.5,16.2c-0.1,0-0.1,0-0.1,0.1c-0.1,0.2-0.1,0.4-0.2,0.6l0,0.1c-0.4,1.9-0.4,4.6,0,6.4
						c0.3,1.1,0.7,2.2,1.2,3c0.7,1.2,1.8,2.3,2.6,3c0.1,0.1,0.7,0.6,0.9,0.7c0,0,0,0,0.1,0c0,0,0.1,0,0.1-0.1c0-0.1,0.1-0.1,0-0.2
						c0,0,0,0,0,0c-1.7-1.4-2.8-2.6-3.5-4.1c-0.4-0.7-0.7-1.5-1-2.6c0-0.1,0-0.2-0.1-0.3c0-0.1-0.1-0.2-0.1-0.3
						c-0.2-1.6-0.2-3.2,0-4.9c0.1-0.6,0.2-0.9,0.2-1.1c0-0.1,0-0.2,0.1-0.2c0,0,0,0,0,0C57.6,16.2,57.6,16.2,57.5,16.2z"/>
					<path class="st3" d="M62,31.7C62,31.7,62,31.7,62,31.7c-0.9-0.2-1.5-0.6-1.9-1.1c0,0,0,0-0.1,0c-0.1,0-0.2,0-0.3,0
						c-0.1,0-0.2,0-0.3,0c0,0,0,0,0,0c0,0,0,0,0,0c0.6,1.7,2.1,2.7,3.6,3.4c0,0,0,0,0,0c0,0,0,0,0,0c0.2-0.2,0.4-0.5,0.5-0.7l0,0
						c0,0,0-0.1,0-0.1c-0.4-0.4-1-0.6-1.6-0.8c0-0.1,0-0.1,0-0.2C62.1,32,62.1,31.9,62,31.7z"/>
					<path class="st3" d="M64.3,22.7c-0.3,0-0.7,0-0.8,0h0c-0.3,0-0.6,0-0.9-0.1c0,0,0,0-0.1,0c-0.1,0.2-0.2,0.5-0.1,0.8
						c0,0,0,0,0,0c0,0,0,0,0,0c0,0,0,0,0,0c0.1-0.1,0.2-0.1,0.3-0.2c0.2-0.1,0.5-0.3,0.7-0.3c0.2,0,0.3,0,0.5,0
						c0.3,0,0.6,0.1,0.7,0.1c0.1,0,0.1,0,0.1,0C65,23.1,65,23,65,23c0,0,0-0.1,0-0.1c0,0,0-0.1,0-0.1c0,0,0,0,0,0c0,0,0,0,0,0
						C64.9,22.7,64.6,22.7,64.3,22.7z"/>
					<path class="st3" d="M62,21.5L62,21.5C62,21.5,61.9,21.5,62,21.5C61.9,21.6,61.9,21.6,62,21.5c0.1,0.3,0.2,0.5,0.4,0.7
						c0,0,0.1,0.1,0.1,0.1c0,0,0,0,0,0h0c0.3,0,0.6,0,1,0c0.9,0,1.7-0.1,2.5-0.2c0,0,0,0,0,0c0.4-0.3,1-1.2,0.6-2c0,0,0,0-0.1,0
						c-0.1,0-0.1,0.1-0.1,0.1c0,0.8-0.4,1.2-0.7,1.6c-0.1,0-0.1,0-0.1,0c-0.2,0-0.3-0.2-0.4-0.3c0-0.1-0.1-0.1-0.1-0.2c0,0,0,0,0,0
						c-1.4-0.1-2.3-0.3-2.4-1.4c0,0,0,0,0,0c-0.1,0-0.2-0.1-0.2-0.1c0,0-0.1,0-0.1,0c0,0,0,0,0,0c0,0,0,0,0,0c-0.1,0.5,0,0.9,0,1.3
						c0,0.1,0,0.2,0.1,0.4C62.1,21.5,62.1,21.5,62,21.5z"/>
					<path class="st3" d="M62.4,18.8C62.4,18.8,62.4,18.8,62.4,18.8C62.4,18.8,62.4,18.8,62.4,18.8c0.4-0.3,0.9-0.5,1.5-0.5
						c0.2,0,0.4,0,0.6,0.1c0,0,0,0,0,0c0,0,0,0,0,0V18c0,0,0,0,0-0.1c-0.3-0.1-0.8-0.1-1.2-0.1c-0.6,0-1,0.2-1.1,0.5
						c0,0.1,0,0.1,0.1,0.4C62.3,18.7,62.4,18.7,62.4,18.8C62.4,18.8,62.4,18.8,62.4,18.8z"/>
					<path class="st3" d="M62.2,19.5c0.1,0.1,0.3,0.2,0.4,0.2c0,0,0,0,0,0c0.1,0,0.2-0.1,0.3-0.2c0.1-0.1,0.3-0.2,0.5-0.3
						c0.3-0.1,0.5-0.1,0.8-0.1c0.1,0,0.2,0,0.2,0c0,0,0,0,0,0c0,0,0,0,0,0c0,0,0-0.1,0-0.1c0,0,0-0.1,0-0.2c0,0,0,0,0,0c0,0,0,0,0,0
						c-0.1,0-0.1,0-0.2,0C63.1,18.7,62.4,19,62.2,19.5C62.2,19.5,62.2,19.5,62.2,19.5z"/>
					<path class="st3" d="M65.6,17.9C65.6,17.9,65.5,17.9,65.6,17.9c0,0.6,0.1,1.1,0.3,1.4c0,0,0,0,0,0l0,0c0,0,0,0,0,0
						c0-0.2,0-0.4-0.1-0.5c0-0.1-0.1-0.2-0.1-0.4c0.3-0.1,0.6-0.5,0.7-1c0.1-0.4,0.1-0.7-0.1-1c0,0,0,0-0.1,0c0,0,0,0,0,0.1
						C66.5,17.1,66.1,17.7,65.6,17.9z"/>
					<path class="st3" d="M74.5,12.2c-0.1-0.1-0.2,0.1-0.1,0.2c0.5,0.3,0.9,0.7,1.2,1.2c0.1,0.1,0.2,0,0.1-0.1
						C75.5,13,75.1,12.5,74.5,12.2z"/>
					<path class="st3" d="M60.1,11.9C60.1,11.9,60.1,11.9,60.1,11.9c-1.5-0.2-2.8,0.1-4.1,0.7c-0.1,0.1-0.1,0.3,0.1,0.2
						c1.1-0.5,2.2-0.8,3.3-0.7c0,0,0,0,0,0c0,0.1-0.1,0.2-0.3,0.2c-0.8-0.1-1.6,0.1-2.3,0.6c-0.1,0.1,0.1,0.1,0.1,0.1
						c0.6-0.5,1.3-0.6,2-0.6c0,0,0,0,0,0.1c0,0,0,0,0,0c-0.4,0.2-0.8,0.3-1.1,0.5c-0.2,0.1-0.5,0.3-0.8,0.4c0,0,0,0,0,0l0,0
						c0,0.1-0.1,0.2,0,0.3c0,0,0.1,0.1,0.1,0.1h0c0,0,0,0,0,0c0.5-0.3,1.1-0.6,1.8-0.8c0.6-0.2,1.2-0.5,1.8-0.8c0.1,0,0.1,0,0.2,0
						c0.2,0,0.4-0.1,0.6-0.3c0,0,0.1,0,0.1-0.1c0.2-0.1,0.5-0.1,0.8-0.1c0.2,0,0.3,0.1,0.5,0.1c0,0,0,0,0,0c0.7,0.1,1.6,0.6,2.7,0.2
						c0.5-0.1,0.9-0.3,1.3-0.6c0.1,0,0.1-0.2,0-0.1c-0.5,0.3-1,0.6-1.6,0.7c-0.6,0.1-1.3,0-1.9-0.2c-0.2-0.1-0.4-0.1-0.7-0.2
						c-0.1,0-0.1,0-0.2-0.1c-0.2,0-0.3-0.1-0.4-0.1c0,0,0,0,0.1-0.1c0,0,0.1-0.1,0.1-0.1c0,0,0,0,0,0c0,0,0,0,0,0
						c-0.4,0-0.4-0.4-0.5-0.9l0-0.1c-0.1-1,0.1-2.2,0.5-2.7c0,0,0,0,0,0c0.1,0.3,0.2,0.6,0.5,0.7c0.1,0,0.2-0.1,0.1-0.1
						c-0.3-0.1-0.4-0.3-0.4-0.6c0-0.1-0.1-0.1-0.1,0c0,0,0,0,0.1-0.1c0,0,0,0,0,0c0,0,0-0.1,0.1-0.1c0,0.2,0.1,0.4,0.3,0.6
						c0.1,0.1,0.2,0,0.1-0.1c-0.2-0.2-0.3-0.4-0.3-0.6c0-0.1-0.1-0.1-0.1-0.1c0-0.1,0-0.3,0-0.4c0-0.1,0-0.2,0-0.2
						c0-0.3,0.1-0.6,0.2-0.7c0,0.7-0.1,1.2,0.3,1.8c0,0.1,0.2,0,0.2,0c-0.4-0.6-0.3-1.1-0.3-1.8c0-0.1-0.1-0.1-0.1-0.1
						c0.1-0.2,0.3-0.3,0.5-0.4c0.1,0,0.1-0.1,0.2-0.1c0,0,0,0,0-0.1c0,0,0,0-0.1,0c-0.2,0-0.5,0-0.7,0.1c-0.8,0.3-0.9,1.1-1.1,2
						c0,0.2-0.1,0.4-0.1,0.7c-0.3,0.6-0.5,1.7-0.6,2.5c0,0.1,0,0.3,0,0.4c0,0.2,0,0.3,0,0.5C60.8,11.6,60.5,11.8,60.1,11.9z"/>
					<path class="st3" d="M75.9,12.7C75.9,12.7,75.9,12.7,75.9,12.7c0-0.3,0.1-0.4,0.2-0.5c0.1-0.1,0.2-0.3,0.2-0.5c0,0,0,0,0,0
						c-1-1.2-2.5-1.9-4.1-1.9c-0.3,0-0.6,0-0.9,0.1c0,0-0.1-0.1-0.1-0.1C71.1,9.6,71,9.6,71,9.5c0,0,0,0-0.1,0c-0.6,0.4-1.6,0.8-2,1
						c0,0,0,0,0,0c-0.1,0.4-0.5,0.6-0.8,0.6c-0.3,0-0.5-0.1-0.7-0.3c0,0,0,0-0.1,0c0,0,0,0,0,0l0,0.1c-0.1,0.3-0.1,0.6-0.1,1
						c0,0,0,0,0,0.1c0.2,0.1,0.4,0.2,0.6,0.3c1,0.5,2,1.1,3.3,1.2c0,0,0.1,0,0.1,0l0.2,0c0.1,0,0.1,0,0.2,0c0.1,0,0.2,0.1,0.3,0.1
						c0.1,0,0.2,0.1,0.2,0.1c0,0,0,0,0,0c0,0,0,0,0,0c0,0,0.3-0.6,0.3-0.7c-0.1-0.1-0.3-0.2-0.7-0.3c-0.2,0-0.3-0.1-0.4-0.2
						c-0.1-0.1-0.3-0.2-0.4-0.2c-0.1,0-0.1,0-0.2,0c-0.2,0-0.3,0-0.5,0.1c-0.1,0-0.3,0.1-0.4,0.1c0,0-0.1,0-0.1,0
						c-0.3-0.1-0.5-0.3-0.7-0.4c-0.1-0.1-0.1-0.1-0.1-0.1c0,0,0-0.1,0-0.1c0,0,0,0,0,0c0.3-0.6,0.8-1.1,1.7-1.4c0,0,0.1,0.1,0.1,0.1
						c0.2,0.1,0.3,0.2,0.6,0.3c0,0,0.1,0,0.1,0c0-0.1,0-0.2,0-0.3c0,0,0-0.1,0-0.1c0.2,0,0.4,0,0.5,0c1.7,0,3.1,0.6,3.9,1.5
						c-0.1,0.1-0.1,0.1-0.2,0.1c-0.2-0.1-0.5-0.3-0.7-0.3c0,0,0,0,0,0c0,0,0,0,0,0.1c0,0.1,0.1,0.2,0.4,0.4
						C75.5,12.3,75.7,12.5,75.9,12.7C75.8,12.7,75.9,12.7,75.9,12.7z"/>
					<path class="st3" d="M67.3,29.4C67.4,29.4,67.4,29.4,67.3,29.4c0.1,0,1.9-1.6,3.2-4c1.2-2.4,1.4-5.2,1.4-5.3c0,0,0-0.1-0.1-0.1
						c0,0-0.1,0-0.1,0.1c0,0-0.2,2.9-1.4,5.2c-1.3,2.4-3.1,3.9-3.1,4C67.3,29.3,67.3,29.3,67.3,29.4C67.3,29.4,67.3,29.4,67.3,29.4z
						"/>
					<path class="st3" d="M63.2,6.1c-0.1,0.3,0,0.6,0.1,0.9c0.1,0.1,0.2,0,0.2-0.1c-0.1-0.2-0.2-0.5-0.1-0.8C63.5,6,63.3,6,63.2,6.1
						z"/>
					<path class="st3" d="M57.1,3.5c0.3,0,1,0.1,1.4,0.1c0.5,0,0.5-0.1,0.7-0.2c0.3-0.1,0.6-0.2,1.2-0.3C61.4,3,63.3,3,64.3,3
						c1.2,0.1,2.6,0.3,3.6,0.3c1,0,2,0.2,2.7,0.3c0.6,0,0.8-0.4,1.6-0.4c0.6,0,0.8,0.2,1.3,0.4c0.5,0.2,1.1,0.4,1.3,0.4
						c0.2,0.1,0.3,0,0.4-0.1c0.1-0.1,0.1-0.2-0.1-0.3c-0.1-0.1-1.3-0.9-2.8-1.1c-0.7-0.1-1.3-0.1-1.8-0.1c-0.5,0-1.1-0.1-1.6-0.1
						c-0.8,0-0.7,0-1.9,0c-1.2-0.1-3.1-0.4-4.3-0.3c-0.5,0-1.2,0-1.8,0.1c-0.4,0.1-1.3,0.3-1.8,0.4c-1.3,0.3-2.1,0.7-2.3,0.9
						C56.5,3.6,56.8,3.5,57.1,3.5z"/>
					<path class="st3" d="M81.3,11.9c-0.6-1.7-2.5-4.6-3-5.4c-0.5-0.7-1.1-1-1.5-1.5C76.3,4.5,76,4.3,76,4.3s-0.1-0.1-0.2-0.1
						c-0.1,0-0.1,0.1-0.3,0.1c-0.1,0-0.3,0.1-0.4,0.2c0,0.1,0.2,0.2,0.4,0.4c0.2,0.2,0.4,0.3,0.6,0.5c0.2,0.2,0.3,0.3,0.3,0.5
						c0,0.1,0.1,0.1,0.2,0.2C76.9,6.2,77,6.3,77,6.2c0-0.1,0-0.3,0-0.4c0-0.1,0-0.2,0.1,0c0.1,0.1,1.2,1.9,1.6,2.7
						c0.4,0.7,1.2,1.9,1.5,2.4c0.3,0.5,0.6,0.9,0.8,1.2c0.3,0.6,0.6,1.9,0.7,2.7c0.1,0.8,0.2,1,0.3,1.3c0.2,0.3,0.3,0.5,0.5,1
						c0.2,0.5,0.5,2.2,0.5,3.4c0,1.3-0.5,4.1-1,5.3c-1,2.3-1.2,2.2-1.5,2.5c-0.6,0.7-1.7,3.1-2.2,3.6c-0.3,0.3-1.1,1-2,1.7
						c-0.8,0.7-1.8,1.3-2.4,1.6c-0.8,0.4-2.9,1.4-3.7,1.6c-0.8,0.2-1.3,0.5-3.4,0.7c-2,0.2-3.8-0.3-4.3-0.4
						c-0.5-0.2-2.2-0.9-3.4-1.3c-1.2-0.5-2.9-1-3.4-1.3c-0.5-0.3-1.5-1.3-2-1.6c-0.5-0.3-0.5,0-1.9-1.1c-1.3-1-1.6-1.6-1.7-1.7
						c0-0.1,0-0.2,0-0.2c0,0,0,0,0,0c0.9,0.7,1.6,1.9,2.8,2.3c0.6,0.2,1.1,0.7,1.7,0.9c0.1-1.5,1.1-2.3,1.7-3.3
						c-1.2-1.5-2.1-3.5-2.6-5.7c-0.1-1.3-0.4-3.2,0.7-3.7c0.1-1.1,0.3-2.5,0.6-3.5c-0.3-0.5-0.1-1.4-0.2-2.1c0-0.1,0-0.2-0.1-0.3
						c-0.1,0-0.1,0-0.3,0.2c-0.2,0.2-0.3,0.5-0.6,0.7c-0.1,0-0.3-0.1-0.4,0c-0.1,0.1-0.4,0.4-0.6,0.4c-0.1-0.1-0.2-0.1-0.3-0.2
						c0,0,0.3-0.7,0.7-1.4c0-0.1,0.1-0.2,0-0.2c-0.3-0.1-0.3,0.1-0.6,0.4c-0.4,0.3-0.8,0.8-0.9,0.9c0,0-0.1-0.1-0.2-0.3
						c0.7-0.6,0.7-0.9,1.2-1.6c0.1-0.2,0.6-0.5,0.7-0.7c0.1-0.1,0-0.1,0-0.2c-0.8,0.5-1.4,1.1-2.1,1.9c0,0-0.1-0.1-0.1-0.2
						c0.4-0.6,0.8-1.1,1.2-1.6v-0.5c0.5-0.5,1.2-0.9,1.8-1.2c0.9-0.1,1.7-0.5,2.6-0.6c0.2,0,0.5-0.1,0.7-0.1c0.9,0,1.7,1.5,2.4,1.3
						c0.3-0.5,0.1-1.1,0.2-1.7C60.6,8.9,61,8.3,61,7.4c0.1-1.1,0.4-2.1,1.5-2.4c0.7-0.2,1.3,0.1,1.8,0.4c0.8,0.9,2.1,1.9,2.7,3.1
						c0.2,0.4,0,1.3,0.2,1.8c0.3,0.1,0.4,0.5,0.7,0.5c0.4,0,0.5-0.6,1-0.6c0.9-0.1,1.3-0.5,1.8-1c0.3,0.3,0.7,0.2,1.1,0.2
						c2.1,0,4.1,0.9,4.8,2.2c0.2,0.4,0.1,0.9-0.1,1.3c0.2,0.2,0.7,0.3,0.5,0.8c0.1,0.1,0.2-0.1,0.2,0.1c-0.1,0.4-0.7,0.3-0.9,0.4
						c0.2,0.1,0.3,0.1,0.4,0.3c-0.3,0-0.5,0.3-0.7,0.3c-0.9,0.1-1.2-1.2-2-1.3c0.1,0.2-0.1,0.2-0.1,0.3c0.6,0.3,1.9,1.3,1.2,1.8
						c-0.5,0-1.2,0.1-1.7,0.2c0,0.6,0,1.2,0.2,1.7c0.1,0.3,0.5,0.7,0.5,0.9c0,0.1-0.2,0.3-0.2,0.4c-0.2,0.5-0.3,0.9-0.2,1.6
						c0.1,0.9,0.2,1.9,0.1,2.7c-0.1,0.7-0.3,1.4-0.4,2c-0.3,1.2-1,2.2-1.3,3.5V29c-0.7,0.3-1.2,0.8-1.7,1.4
						c-0.1,0.1,0.4,0.4,0.4,0.5c-0.4,0.5-0.5,1.5-0.9,2.3c-0.4,0.5-1.2,1-1.6,1.5c0,0,0.2,0.4,0.2,0.4c0,0.1-0.2,0.4-0.5,0.5
						c-0.1,0-0.2-0.1-0.4-0.1c-0.8-0.1-1.3,0.2-1.7,0.4c0,0-0.1,0.1-0.1,0c0,0,0-0.1,0-0.1c-0.1-0.4-0.3-0.7-0.4-0.8
						c-0.6-0.4-1.7-0.3-1.8,0.5c0,0.1-0.1,0.3-0.1,0.3c0,0-0.1,0.1-0.1,0.1c-0.1,0-0.2-0.1-0.3-0.2c-0.8-0.5-1.7-1.2-1.9-1.3
						c-0.1,0-0.3,0-0.4-0.1c-0.7-0.4-1.1-1.2-1.9-1.6c-0.3,0-0.1,0.4-0.2,0.7c0,0.3-0.3,0.9-0.5,0.8c-0.7-0.2-1.6-0.4-1.9-1.1
						c0,0,0,0,0,0c-0.2,0-0.3,0.2-0.4,0.4c0.4,0.4,0.8,0.8,1.5,1c1.9,0.2,3.2,1.7,5.1,2.1c0.1,0,0.3,0.1,0.4,0.1
						c0.8,0.1,1.5,0.1,2.3,0.2c0.5,0.1,0.8,0.2,1.4,0.1c0.6-0.2,1,0,1.4-0.1c0.8-0.1,1.8-0.6,2.5-0.8c0.7-0.2,1.5-0.4,2.2-0.6
						c0.4-0.1,1.3-0.5,1.7-0.7c2.1-1.4,3.4-3.3,4.7-5.5c0.3-0.5,0.5-1,0.9-1.2c1.2-0.6,1.7-1.6,2.1-3c0.1-0.6,0.2-0.8,0.3-1.2
						c0.4-1.6,0.5-3.6,0.4-5.2c-0.1-1.5-1.4-3.2-1.5-4.7c-0.1-1.1-0.3-1.7-0.7-2.4c-0.2-0.4-1.3-1.6-2.2-3.2
						c-0.3-0.6-0.7-1.1-1.1-1.6c-0.4-0.5-0.8-1.1-1.2-1.5c-0.5-0.4-1.3-0.7-1.8-1c-0.4-0.2-0.8-0.5-1.1-0.7C71.9,3.2,71.4,4,70.5,4
						c-0.4,0-0.4,0-0.7-0.1c-1.8-0.6-4.3-0.3-6.5-0.4c-0.9-0.1-1.8-0.1-2.6,0c-0.6,0.1-1,0.3-1.5,0.6c-0.2,0.1-0.5,0.1-0.6,0.3
						c-0.1,0.1-0.1,0.3-0.1,0.4c-0.1,0.3-0.2,0.6-0.3,1c0,0.3-0.1,0.6-0.2,0.5c-0.4-0.4-1-0.7-1.6-1c-0.1-0.1-0.3,0-0.4,0.2
						c-0.2,0.3-0.4,0.4-0.9,0.6c-0.9,0.2-1.5,0.6-2,1.2c-0.2,0.4-0.4,0.9-0.6,1.3c-0.5,0.7-1.2,1.4-1.8,2.2
						c-0.6,0.8-1.1,1.6-1.7,2.3c-0.6,0.8-1.5,1.6-1.6,2.9c-0.2,2.9-0.7,5.5-0.2,8.5c0,0.2,0.1,0.4,0.2,0.7c0.5,1.2,0.3,1.4,0.4,1.6
						c0.2,0.5,1.2,0.6,2.2,0.5c0.1,0,0.2,0,0.3,0c0.3,0.1,0.3,0.3,0.4,0.6c0,0.1,0.1,0.2,0.2,0.3c0,0-0.1-0.1-0.2-0.2
						c-0.1-0.1-0.2-0.2-0.3-0.2c-0.3-0.1-0.4,0-0.8,0c-0.4,0.1-0.5,0.2-0.9,0.2c-0.7,0-0.8-0.4-1-0.9c-0.2-0.5-0.2-0.9-0.3-1.6
						c-0.1-0.6-0.2-0.5-0.4-1.1c-0.2-0.5-0.3-1.2-0.3-1.8c0-0.6,0.1-1,0-1.4c0-0.4-0.1-0.5-0.1-1.4c0-0.9,0.4-1.7,0.5-2.6
						c0-0.9,0-1,0.4-2.1c0.4-1.1,1.1-1.7,1.5-2.3c0.4-0.6,0.6-1.1,1.4-2.1c0.8-1,1.3-1.6,1.9-2.2c0.5-0.6,0.7-1.2,1.1-1.7
						c0.3-0.5,0.7-0.6,1.2-0.9c0.5-0.3,1.3-0.4,1.2-0.5c0,0-0.4,0-0.6-0.2c-0.1-0.2,0-0.4-0.1-0.4c-0.1,0-1.2,0.9-2,1.6l0,0l-0.1,0
						c0,0-0.1,0.1-0.3,0.2l0.2,0.1c-0.1,0.1-0.2,0.2-0.2,0.3l-0.3-0.2C52.2,6.8,52.1,6.9,52,7l0.4,0.3c-0.1,0.1-0.1,0.2-0.2,0.3
						l-0.4-0.4c-0.1,0.1-0.1,0.1-0.1,0.2c0,0-0.1,0.1-0.1,0.2L52,7.9c-0.1,0.1-0.2,0.2-0.2,0.3l-0.5-0.4c-0.1,0.1-0.2,0.2-0.2,0.4
						l0.4,0.4c-0.1,0.1-0.1,0.2-0.2,0.2l-0.4-0.4c-0.1,0.1-0.2,0.2-0.2,0.4l0.4,0.3C51,9.3,51,9.3,50.9,9.4c0,0-0.1,0.1-0.1,0.1
						l-0.4-0.3c-0.1,0.1-0.2,0.2-0.2,0.4l0.4,0.3c-0.1,0.1-0.1,0.2-0.2,0.2L50,9.8c-0.1,0.1-0.2,0.2-0.3,0.3l0.4,0.3
						c-0.1,0.1-0.2,0.2-0.2,0.3l-0.4-0.3c-0.1,0.1-0.1,0.2-0.2,0.2c0,0-0.1,0.1-0.1,0.1l0.4,0.3c-0.1,0.1-0.1,0.2-0.2,0.2l-0.4-0.3
						c-0.1,0.1-0.2,0.2-0.3,0.3l0.4,0.3c-0.1,0.1-0.2,0.2-0.3,0.3l-0.4-0.3c-0.1,0.1-0.2,0.2-0.3,0.4l0.4,0.3
						c-0.1,0.1-0.1,0.2-0.2,0.2l0,0l-0.4-0.2c-0.1,0.1-0.2,0.2-0.2,0.4l0.4,0.3c-0.1,0.1-0.1,0.2-0.2,0.4l-0.5-0.3
						c-0.1,0.1-0.2,0.3-0.2,0.4l0.5,0.3c0,0.1-0.1,0.2-0.1,0.3l-0.6-0.2c-0.1,0.1-0.1,0.2-0.2,0.4l0.6,0.2c-0.1,0.1-0.1,0.3-0.2,0.4
						l-0.6-0.2c-0.1,0.1-0.1,0.3-0.2,0.4l0.6,0.2c0,0.1-0.1,0.2-0.1,0.3l-0.6-0.2c-0.1,0.1-0.1,0.3-0.2,0.4l0.6,0.2
						c0,0.1-0.1,0.2-0.1,0.4l-0.7-0.2c0,0.1-0.1,0.2-0.1,0.3c0,0,0,0.1-0.1,0.1l0.7,0.3c0,0.1,0,0.1,0,0.2c0,0,0,0.1,0,0.1l-0.8-0.1
						c0,0.1-0.1,0.3-0.1,0.4l0.9,0.1c0,0.1,0,0.3-0.1,0.4l-0.9-0.2c0,0.1,0,0.3-0.1,0.4l0.9,0.2c0,0.1,0,0.2,0,0.3l-1-0.1
						c0,0.1,0,0.3,0,0.4l1,0.1c0,0.1,0,0.3,0,0.4l-1-0.1c0,0.1,0,0.3,0,0.4l1,0.1c0,0.1,0,0.2,0,0.3c0,0,0,0,0,0l-1-0.1
						c0,0.1,0,0.3,0,0.4l1,0.1c0,0.1,0,0.3,0,0.4l-1-0.1c0,0,0,0.1,0,0.1c0,0.1,0,0.2,0,0.3l1,0.1c0,0.1,0,0.2,0,0.3l-1,0.1
						c0,0.1,0,0.3,0,0.4l1-0.1c0,0.1,0,0.3,0,0.4l-1,0.1c0,0.2,0,0.3,0,0.4l1-0.1c0,0.1,0,0.2,0,0.3l-1,0.1c0,0.2,0,0.3,0,0.4l1-0.1
						c0,0.1,0,0.3,0.1,0.4L45.5,24c0,0.2,0,0.3,0.1,0.4l1.1-0.1c0,0.1,0.1,0.2,0.1,0.3l-1.1,0.2c0,0.1,0.1,0.3,0.1,0.4L47,25
						c0.1,0.1,0.1,0.3,0.2,0.4L46,25.6c0.1,0.1,0.1,0.3,0.1,0.4l1.2-0.2c0,0.1,0,0.2,0,0.2l-1.1,0.4c0,0.1,0.1,0.3,0.1,0.4l1.1-0.4
						c0,0.1,0,0.3,0.1,0.4l-1,0.4c0,0.1,0.1,0.3,0.1,0.4l1.1-0.4c0,0,0,0,0,0c0,0.1,0.1,0.2,0.1,0.3L46.6,28
						c0.1,0.1,0.1,0.2,0.2,0.4l1.1-0.4c0.1,0.1,0.1,0.2,0.2,0.4L47,28.7c0.1,0.1,0.2,0.2,0.2,0.4l1.1-0.4c0,0.1,0.1,0.1,0.1,0.1
						l-0.9,0.7c0.1,0.1,0.2,0.2,0.3,0.3l1-0.7c0.1,0,0.4,0,0.8-0.3c0.2-0.2,0.4-0.3,0.6-0.4c0.4-0.2,0.5-0.2,0.6-0.3
						c0.1,0,0.2,0,0.3,0c0,0,0.1,0,0.1,0c0,0.1-0.1,0.2-0.2,0.2c-0.1,0-0.2-0.1-0.2-0.1c-0.1,0-0.7,0.4-0.9,0.6
						c-0.2,0.1-0.4,0.3-0.6,0.4L48,30.1c0.1,0.1,0.2,0.2,0.3,0.3l1-0.7c0,0.1,0.1,0.2,0.2,0.2l-1,0.7c0.1,0.1,0.2,0.2,0.3,0.3l1-0.7
						c0.1,0.1,0.2,0.2,0.2,0.3L49,31.4c0.1,0.1,0.2,0.2,0.3,0.3l0.9-0.7c0,0.1,0.1,0.1,0.1,0.2L49.5,32c0.1,0.1,0.2,0.2,0.3,0.3
						l0.8-0.8c0.1,0.1,0.2,0.2,0.3,0.3l-0.8,0.8c0,0,0.1,0.1,0.1,0.1c0.1,0.1,0.1,0.1,0.2,0.2l0.8-0.8c0,0,0.1,0.1,0.1,0.1
						c0,0,0,0,0.1,0.1l-0.8,0.8c0.1,0.1,0.2,0.2,0.3,0.3l0.7-0.8c0.1,0.1,0.2,0.2,0.3,0.3l-0.7,0.8c0.1,0.1,0.2,0.2,0.4,0.2l0.7-0.7
						c0.1,0,0.1,0.1,0.2,0.1l-0.6,0.8c0.1,0.1,0.3,0.1,0.4,0.2l0.6-0.8c0.1,0.1,0.2,0.1,0.4,0.2l-0.6,0.8c0.1,0.1,0.3,0.1,0.4,0.2
						l0.6-0.8c0,0,0.1,0,0.1,0c0,0,0,0,0.1,0l-0.4,0.9c0.1,0.1,0.3,0.1,0.4,0.2l0.4-0.9c0.1,0.1,0.2,0.1,0.4,0.2l-0.4,0.9
						c0.1,0.1,0.3,0.1,0.4,0.2l0.4-0.9c0.1,0,0.2,0.1,0.3,0.1l-0.4,0.9c0.1,0.1,0.3,0.1,0.4,0.2l0.4-0.9c0.1,0.1,0.2,0.1,0.4,0.2
						L55.6,36c0.1,0.1,0.3,0.1,0.4,0.2l0.4-0.9c0.1,0,0.2,0.1,0.3,0.1l-0.4,0.9c0.1,0.1,0.3,0.1,0.4,0.2l0.4-0.8
						c0.1,0.1,0.3,0.1,0.4,0.2L57,36.6c0.1,0.1,0.3,0.1,0.4,0.2l0.3-0.8c0,0,0.1,0,0.1,0c0.1,0,0.1,0,0.2,0.1l-0.3,0.8
						c0.1,0.1,0.3,0.1,0.4,0.2l0.3-0.8c0.1,0.1,0.3,0.1,0.4,0.2l-0.3,0.8c0.1,0.1,0.3,0.1,0.4,0.2l0.3-0.8c0.1,0,0.2,0.1,0.2,0.1
						l-0.2,0.9c0.2,0.1,0.3,0.1,0.4,0.1l0.2-0.9c0.1,0,0.3,0.1,0.4,0.1L60,37.8c0.1,0.1,0.3,0.1,0.4,0.2l0.2-0.9
						c0.1,0,0.2,0.1,0.3,0.1l-0.1,1c0.1,0,0.3,0.1,0.4,0.1l0.1-0.9c0.1,0,0.3,0.1,0.4,0.1l-0.1,0.8c0,0,0,0,0,0c0.1,0,0.3,0,0.4,0
						l0.1-0.8c0.1,0,0.2,0,0.3,0.1l0,0.7c0.1,0,0.3,0,0.4,0l0-0.7c0.1,0,0.2,0,0.3,0c0,0,0.1,0,0.1,0l0,0.7c0.1,0,0.3,0,0.4,0l0-0.7
						c0.1,0,0.2,0,0.3,0l0,0.7c0.1,0,0.3,0,0.4,0l0-0.7c0.1,0,0.3,0,0.4,0l0,0.6c0.1,0,0.3,0,0.4,0l0-0.6c0.1,0,0.2,0,0.3,0l0,0.6
						c0.1,0,0.3,0,0.4,0l0-0.6c0.1,0,0.3,0,0.4,0l0,0.6c0.1,0,0.3,0,0.4,0l0-0.5c0.1,0,0.2,0,0.3,0l0,0.5c0.1,0,0.3,0,0.4,0l0-0.5
						c0.1,0,0.3,0,0.4,0l0,0.5c0.1,0,0.2,0,0.3,0c0,0,0.1,0,0.1,0l0-0.5c0.1,0,0.2,0,0.3,0l0.1,0.4c0.1,0,0.3-0.1,0.4-0.1l-0.1-0.4
						c0.1,0,0.3,0,0.4-0.1l0.1,0.3c0.2,0,0.3-0.1,0.4-0.1L70,37.4c0,0,0.1,0,0.1,0c0.1,0,0.1,0,0.2,0l0,0.2c0,0,0,0,0,0
						c0.2-0.1,0.3-0.2,0.3-0.3l0-0.1c1.5-0.5,3.2-1.5,3.7-1.8c0.6-0.3,2.6-1.6,3.9-3.1c1.3-1.5,3-3.5,3.8-6c0.8-2.5,1.2-3.5,1.3-5.7
						C83.5,18.3,81.9,13.6,81.3,11.9z M72.6,33c-0.9,0-1.6,0.4-2.2,0.8c0.1-0.9,1.1-2,0.5-3.1c0.3-0.6,0.6-1.4,1.4-1.4
						c0.2,0.3,0.4,0.6,0.6,0.8C73.1,31.1,73.2,32.4,72.6,33z M51.1,28.1L51.1,28.1L51.1,28.1L51.1,28.1z"/>
					<path class="st3" d="M54.9,33.6C54.8,33.6,54.9,33.7,54.9,33.6c0,0.1,0.1,0.1,0.1,0.1c0,0,0.1,0,0.1,0c0.1-0.1,0.2-0.2,0.2-0.3
						c0.3-0.4,0.7-0.8,1.1-1.1c0,0.2,0,0.6-0.1,0.8l0,0c0,0,0,0,0,0c0.2,0.2,0.5,0.4,0.8,0.5c0,0,0,0,0,0c0,0,0,0,0,0
						c0-0.2,0-0.3,0-0.4c0,0-0.1-0.1-0.2-0.1c0,0-0.1-0.1-0.1-0.1c0,0,0-0.2,0-0.3c0,0,0-0.1,0-0.1c0-0.1,0-0.1,0.1-0.1c0,0,0,0,0,0
						c0.1,0.2,0.2,0.4,0.3,0.6c0.1,0.3,0.2,0.5,0.4,0.7c0,0,0,0,0,0c0,0,0,0,0,0c0,0,0,0,0,0c0-0.2,0.1-0.3,0.2-0.5l0-0.1
						c0,0,0,0,0-0.1c-0.5-0.6-0.8-1.4-0.8-2.3l0-0.1c0-0.1,0-0.3,0-0.4c0.1-0.1,0.1-0.1,0.2-0.1c0.1,0,0.3,0.1,0.4,0.1l0.1,0
						c0.2,0.1,0.4,0.2,0.6,0.2c0.1,0,0.2,0,0.2-0.1c0,0,0,0,0,0c0.1-0.2-0.1-0.5-0.3-0.7c-0.1-0.2-0.3-0.4-0.5-0.5c0,0,0,0,0,0
						c0,0,0,0-0.1,0c-0.1,0-0.1,0.1-0.1,0.1c0,0.1-0.1,0.1-0.1,0.1c-2-2.1-3.1-4.6-3.3-7.7c0,0,0,0-0.1,0c0,0-0.1,0-0.1,0.1
						c0,2.8,0.9,5.4,2.9,8c-0.1,0.1-0.2,0.2-0.3,0.3c-0.1,0.1-0.2,0.3-0.4,0.5c-0.1,0.1-0.1,0.2-0.2,0.3c-0.3,0.4-0.8,1-0.7,1.7
						c-0.1,0.2-0.3,0.4-0.4,0.6C55,33.4,54.9,33.5,54.9,33.6z"/>
					<path class="st3" d="M55.2,23.4c0.5,2.6,1.5,4.2,2.6,5.9c0,0,0,0,0,0c0,0,0,0,0,0c0.3-0.2,0.5-0.3,0.9-0.4c0,0,0,0,0,0
						c0,0,0,0,0-0.1c-2.4-2.3-3.4-6.1-2.9-10.1c0.1-0.7,0.3-1.3,0.5-1.9c0.1-0.4,0.3-0.8,0.4-1.2c0,0,0,0,0,0c0,0,0,0,0,0
						c-0.1,0-0.1,0-0.2,0c-0.2,0-0.4,0-0.5-0.2c0.2-0.7,0.6-1.6-0.1-2.2c0,0-0.1,0-0.1,0c-0.1,0.1-0.2,0.1-0.3,0.2
						c-0.1,0-0.1-0.1-0.2-0.1c-0.1-0.1-0.1-0.1-0.2-0.1c0,0,0,0,0,0c-0.6,0.3-1.1,0.8-1.4,1.2c0,0,0,0-0.1,0.1
						c-0.1,0.2-0.2,0.3-0.2,0.4c0,0,0,0,0,0c0.1,0,0.1,0.1,0.2,0.1c0,0,0.1,0,0.1,0c0,0,0.1-0.1,0.2-0.2c0.1-0.1,0.1-0.2,0.2-0.2
						c0.2-0.2,0.5-0.4,0.8-0.4c0.1,0,0.1,0,0.2,0c0,0,0,0,0,0c0,0.2,0.1,0.3,0.2,0.5c0.1,0.1,0.1,0.2,0.1,0.3c0,0.2,0,0.4-0.1,0.6
						c-0.1,0.2-0.1,0.4-0.1,0.6c0,0.2,0.1,0.2,0.2,0.3c0.1,0.1,0.1,0.1,0.2,0.2C55.2,18.3,54.7,21,55.2,23.4z"/>
					<path class="st3" d="M67.2,27.3C67.2,27.3,67.2,27.3,67.2,27.3c0.1,0,1.6-1.4,2.3-3.4c0.8-2.1,0.7-3.4,0.7-3.4
						c0,0,0-0.1-0.1-0.1c0,0-0.1,0-0.1,0.1c0,0,0.1,1.3-0.7,3.4c-0.7,2-2.2,3.3-2.2,3.3C67.1,27.2,67.1,27.3,67.2,27.3
						C67.1,27.3,67.1,27.3,67.2,27.3z"/>
					<path class="st3" d="M67.5,28.2c0,0,0,0.1,0,0.1c0,0,0,0,0.1,0c0,0,0,0,0.1,0c0,0,1.7-2.1,2.6-4.2C71,22,71,20,71,20
						c0,0,0-0.1-0.1-0.1h0c0,0-0.1,0-0.1,0.1c0,0,0,2-0.8,4.1C69.2,26.2,67.5,28.2,67.5,28.2z"/>
					<path class="st3" d="M66.9,26.2C66.9,26.2,67,26.2,66.9,26.2c0.1,0,1.1-0.8,1.9-3c0.7-1.8,0.4-3.2,0.4-3.2c0,0-0.1-0.1-0.1-0.1
						c0,0-0.1,0.1-0.1,0.1c0,0,0.2,1.3-0.4,3.1c-0.8,2.2-1.8,2.9-1.8,2.9C66.8,26.1,66.8,26.1,66.9,26.2
						C66.9,26.2,66.9,26.2,66.9,26.2z"/>
					<path class="st3" d="M74.2,15.2c0.1,0,0.2,0,0.2,0c0,0,0,0,0,0c0,0,0-0.1,0.1-0.2c0.1-0.2,0.1-0.4,0-0.5
						c-0.2-0.1-0.4-0.2-0.6-0.4c-0.4-0.3-0.8-0.5-1.3-0.6c0,0-0.1,0-0.1,0c-0.1,0.2-0.1,0.4-0.2,0.6c-0.2,0.5-0.4,1.1-0.4,1.8
						c0,0,0,0,0,0c0.5,1,0.9,2.1,1,3.4c0,0,0,0,0,0l0,0c0,0,0,0,0,0c0.1-0.1,0.1-0.2,0.2-0.3c0.1-0.2,0.2-0.4,0.2-0.6
						c0-0.2-0.1-0.5-0.2-0.9c-0.1-0.2-0.2-0.5-0.2-0.7c0-0.2-0.1-0.3-0.1-0.5C72.9,15.4,73.6,15.3,74.2,15.2z"/>
					<path class="st3" d="M70.3,29.3c0-0.1,0.1-0.1,0.1-0.2c0.1-0.2,0.2-0.3,0.1-0.5c0,0,0,0,0,0c0,0,0,0,0,0
						c-0.1,0.1-0.1,0.1-0.2,0.2c-0.2,0.2-0.5,0.5-0.6,0.7c-0.3,0.1-0.5,0.4-0.7,0.6c-0.1,0.1-0.2,0.2-0.3,0.3c0,0-0.1,0-0.1,0l0,0
						c-0.1,0-0.1,0-0.2,0c-0.1,0-0.1,0-0.2,0c0,0,0,0,0,0c0,0,0,0,0,0c0,0.3,0,0.4,0,0.5c-0.4,0.3-0.8,0.4-1.2,0.6
						c-0.2,0.1-0.4,0.1-0.6,0.2c-0.3,0.1-0.3,0.4-0.2,0.6c0,0.2,0,0.4-0.1,0.6c-0.1,0-0.2,0-0.4,0c-0.1,0-0.3,0-0.4,0
						c-0.1,0-0.1,0.1-0.1,0.1l0,0c0,0,0,0,0,0.1c0,0,0,0,0,0c0.2,0,0.4,0,0.6,0c0.3,0,0.6,0,1,0.1c0,0,0,0,0.1,0
						c0.1-0.2,0.3-0.3,0.4-0.5c0.4-0.4,0.7-0.8,1.2-1.2c0.1-0.1,0.2-0.1,0.3,0c0.3,0.5-0.2,0.8-0.5,1.1l-0.1,0.1
						c-0.2,0.1-0.3,0.3-0.5,0.4c-0.1,0.1-0.2,0.2-0.4,0.3c0,0-0.1,0.1-0.2,0.1c-0.2,0.2-0.7,0.5-0.8,0.5c0,0,0,0,0,0
						c-0.3-0.3-0.8-0.5-1.5-0.5c-0.4,0-0.9,0.1-1.4,0.5c-1.6-0.4-2.8-1.4-3.6-3c0,0,0,0,0,0c0,0-0.1,0-0.1,0c-0.1,0-0.1,0-0.2,0
						c-0.1,0-0.2,0-0.2,0c0,0,0,0-0.1,0c0,0,0,0,0,0.1c0.1,0.1,0.1,0.1,0.2,0.2c0.1,0.1,0.2,0.2,0.2,0.3c0.1,0.2,0.2,0.5,0.3,0.9
						c0,0.1,0,0.2,0,0.2c0,0.2,0,0.4,0.2,0.6c0.1,0.1,0.4,0.3,0.8,0.5c0.7,0.4,1.7,0.9,2.3,1.5c0,0,0,0,0.1,0c0,0,0,0,0,0
						c0.2-0.6,0.7-1,1.4-1c0.2,0,0.4,0,0.6,0.1c0.5,0.2,0.6,0.6,0.7,1c0,0,0,0,0,0c0,0,0,0,0,0c0,0,0,0,0,0c0.5-0.3,1-0.4,1.3-0.4
						c0.2,0,0.4,0.1,0.5,0.2c0,0,0,0,0.1,0c0.1,0,0.2-0.1,0.2-0.2c0,0,0,0,0,0c0,0,0,0,0-0.1c0-0.1-0.2-0.2-0.2-0.3
						c0.2-0.4,0.6-0.7,0.9-1c0.2-0.2,0.5-0.4,0.7-0.7c0.1-0.2,0.2-0.6,0.3-0.9c0.1-0.2,0.1-0.4,0.2-0.5c0.1-0.3,0.2-0.4,0.1-0.5
						c0,0,0,0,0,0c0,0,0,0,0,0c0,0,0,0-0.1,0.1c-0.2,0.1-0.4,0.3-0.6,0.3c0.1-0.3,0.6-1.2,0.9-1.7C70.2,29.6,70.3,29.4,70.3,29.3z"
						/>
					<path class="st3" d="M67.3,23.6c0,0,0,0.1,0,0.1c0,0,0,0,0.1,0c0,0,0,0,0.1,0c0,0,0.7-0.7,0.9-2c0.3-1.3,0-2.1,0-2.1
						c0,0-0.1-0.1-0.1-0.1c0,0-0.1,0.1-0.1,0.1c0,0,0.2,0.8,0,2C67.9,22.9,67.3,23.6,67.3,23.6z"/>
					<path class="st3" d="M66.9,22.2c0,0,0,0.1,0,0.1c0,0,0,0,0.1,0c0,0,0,0,0.1,0c0,0,0.3-0.3,0.5-0.9c0.1-0.5,0-0.9,0-1
						c0,0-0.1-0.1-0.1-0.1c0,0-0.1,0.1-0.1,0.1c0,0,0.1,0.4,0,0.9C67.2,21.9,66.9,22.2,66.9,22.2z"/>
					<path class="st3" d="M71.8,15.5c-0.4-0.2-1-0.3-1.8-0.4c-0.2-0.1-0.4-0.2-0.6-0.3c-0.2-0.1-0.5-0.2-0.8-0.4
						c-0.1-0.1-0.3-0.2-0.4-0.3c-0.3-0.2-0.7-0.4-1-0.5c-0.3,0-0.6,0.2-1,0.4c-0.2,0.2-0.5,0.4-0.7,0.4c-0.2,0-0.4,0.1-0.7,0.1
						c-0.3,0-0.5,0-0.8,0c-0.3,0-0.6-0.1-0.9-0.1c-0.2,0-0.4,0-0.6,0c-0.2-0.1-0.4-0.2-0.6-0.3c-0.4-0.2-0.8-0.4-1.3-0.5
						c0,0,0,0,0,0c-0.1,0.1-0.3,0.2-0.4,0.4c-0.4,0.4-0.8,0.9-1.5,0.9c0,0,0,0,0,0c-0.1,0.1-0.2,0.1-0.3,0.2
						c-0.2,0.1-0.5,0.3-0.8,0.3c-0.1,0-0.2-0.1-0.3-0.1l0,0c0,0,0,0-0.1,0c0,0,0,0,0,0.1c0,0.1,0,0.1,0,0.2c0,0.1,0,0.3,0.1,0.4
						c0,0,0,0,0.1,0c0.2-0.2,0.5-0.2,0.9-0.2c0.2,0,0.3,0,0.5,0c0.2,0,0.3,0,0.5,0l0,0c0,0,0,0,0,0l0-0.1c0.3-0.5,0.9-1.2,1.5-1.2h0
						c0.4,0,0.8,0.4,1.1,0.8c0,0.1-0.1,0.2-0.1,0.3c0,0.1,0,0.2-0.1,0.3h0c-0.6,0-0.8,0.3-1,0.6c0,0,0,0,0,0.1
						c0.1,0.1,0.2,0.3,0.2,0.5c0,0.1-0.1,0.2-0.2,0.2c0,0,0,0,0,0c0,0,0,0,0,0c0.1,0,0.2,0.1,0.2,0.1c0.1,0.1,0.3,0.1,0.4,0.2
						c0,0,0,0,0,0c0,0,0,0,0,0c0.2-0.1,0.4-0.4,0.4-0.6c0-0.2,0-0.4-0.1-0.5c0.4-0.9,1.2-1.4,2.3-1.4c0.2,0,0.5,0,0.7,0.1
						c0.8,0.1,1.2,0.6,1.7,1.1c0.2,0.2,0.4,0.4,0.6,0.6c0,0,0,0,0,0c0,0,0.1,0,0.3,0c0.1,0,0.1,0,0.2,0c0.2,0,0.3,0,0.4,0
						c0,0,0,0,0.1,0c0,0,0,0,0-0.1c-0.1-0.3-0.5-0.5-0.8-0.7c-0.3-0.1-0.6-0.3-0.7-0.5c-0.1-0.2-0.1-0.4,0-0.5
						c0.2-0.3,0.7-0.5,1.2-0.5c0.2,0,0.4,0,0.5,0.1c0.5,0.2,0.7,0.8,0.8,1.2l0,0c0,0,0,0,0,0c0,0,0,0,0,0c0.3-0.2,0.8-0.3,1.5-0.3
						c0.2,0,0.3,0,0.5,0c0.1,0,0.1,0,0.2,0.1c0.1,0,0.2,0.1,0.3,0.1C71.7,15.7,71.7,15.7,71.8,15.5C71.8,15.6,71.8,15.5,71.8,15.5
						C71.8,15.5,71.8,15.5,71.8,15.5z"/>
					<path class="st3" d="M63,30.9C63,30.9,63,30.9,63,30.9C63,30.9,63,30.9,63,30.9c0.3-0.1,0.5-0.2,0.8-0.2c0.2,0,0.4,0,0.6,0
						c0.2,0,0.4,0,0.6,0c0.3,0,0.6,0,0.8-0.2c0,0,0,0,0,0v-0.3c0,0,0-0.1-0.1-0.1h0c-0.2,0-0.4,0.1-0.6,0.1c-0.1,0-0.3,0.1-0.4,0.1
						c-0.1,0-0.1,0-0.2,0c-0.2,0-0.5,0-0.7-0.1c-0.2,0-0.4-0.1-0.7-0.1c-0.2,0-0.4,0-0.6,0.1c0,0,0,0,0,0
						C62.6,30.5,62.8,30.7,63,30.9z"/>
					<path class="st3" d="M72.6,13c-0.1,0-0.1,0.2,0,0.1c0.3,0,0.7,0,0.9,0.2c0.1,0,0.2-0.1,0.1-0.1C73.3,13,73,13,72.6,13z"/>
					<path class="st3" d="M66,8.8c-0.1-1.3-0.9-1.6-1.5-1.6h0c-0.4,0-0.8,0.1-1,0.4C63.2,7.9,63,8.3,63,8.7c0,0.8,0.6,1.6,0.9,2
						c0,0.1,0.1,0.1,0.1,0.2c0.2,0.2,0.1,0.4,0.1,0.5c0,0.1-0.2,0.1-0.2,0.2c0,0-0.1,0-0.1,0c0,0,0,0-0.1,0c0,0,0,0,0,0
						c0,0-0.1,0-0.1,0.1c0,0,0,0.1,0,0.1c0,0,0,0,0,0.1c0,0,0,0,0.1,0c0,0,0,0,0.1,0c0,0,0.1,0,0.1,0c0.1,0,0.4,0,0.7,0
						c0.2,0,0.5,0,0.5,0c0,0,0,0,0,0c0,0,0,0,0.1,0c0.1,0,0.2,0,0.2-0.1c0,0,0-0.1,0-0.1c0,0,0,0-0.1,0c0,0,0,0,0,0
						c-0.1,0-0.2,0-0.2-0.1c-0.1-0.1-0.1-0.2-0.1-0.3c0-0.2,0.1-0.3,0.2-0.5c0.1-0.2,0.2-0.3,0.3-0.4c0-0.1,0.1-0.1,0.1-0.2
						c0.1-0.1,0.2-0.2,0.2-0.2l0,0c0,0,0-0.1-0.1-0.1c0,0,0,0-0.1,0c0,0-0.1-0.1-0.1-0.1c0,0,0,0,0,0c0,0,0,0,0,0
						c-0.1,0.1-0.4,0.4-0.9,0.4c0,0,0,0,0,0l0,0c-0.5,0-1.1-0.4-1.1-1.1c0-0.3,0.1-0.6,0.3-0.8c0.2-0.2,0.5-0.3,0.8-0.3
						c0,0,0,0,0.1,0c0.7,0,1.2,0.5,1.2,1.2c0,0.1,0,0.2,0.1,0.2c0,0,0,0,0,0c0,0,0,0,0,0C66,9,66,9,66,8.8C66,8.9,66,8.8,66,8.8z"/>
					<path class="st3" d="M72,12.5c0.4,0,0.9,0.1,1.3,0.3c0.1,0,0.2-0.1,0.1-0.1c-0.4-0.2-0.9-0.3-1.3-0.3
						C72,12.4,71.9,12.5,72,12.5z"/>
					<path class="st3" d="M70.1,12c0.4-0.3,0.9-0.5,1.4-0.3c0.1,0,0.2-0.1,0.1-0.1C71,11.4,70.4,11.6,70.1,12
						C69.9,12,70,12.1,70.1,12z"/>
					<path class="st3" d="M69.6,12c0.3-0.5,0.8-0.8,1.4-0.9c0.1,0,0-0.2-0.1-0.2c-0.6,0.1-1.1,0.5-1.5,1C69.4,12,69.6,12.1,69.6,12z
						"/>
					<path class="st3" d="M70.6,10.8c0.1,0,0-0.2-0.1-0.1c-0.6,0.2-1.1,0.6-1.4,1.1c-0.1,0.1,0.1,0.1,0.2,0.1
						C69.6,11.3,70.1,10.9,70.6,10.8z"/>
					<path class="st3" d="M61.8,8.9c0.3,0.4,0.7,0.7,1.2,0.8c0.1,0,0.1-0.2,0-0.2c-0.5-0.1-0.8-0.4-1.1-0.8
						C61.8,8.6,61.7,8.8,61.8,8.9z"/>
					<path class="st3" d="M71.2,12.2c0.4-0.1,0.8-0.1,1.2,0.1c0.1,0,0.2-0.1,0.1-0.1c-0.4-0.2-0.8-0.2-1.3-0.1
						C71.1,12.1,71.1,12.2,71.2,12.2z"/>
					<path class="st3" d="M62.7,9c0.1,0,0.2-0.2,0.1-0.2c-0.3-0.1-0.5-0.3-0.7-0.6C62,8,61.9,8.2,62,8.3C62.1,8.6,62.4,8.8,62.7,9z"
						/>
					<path class="st3" d="M56.1,10.7c-1,0.1-2.8,1-3,1.5c0,0,0,0.1,0,0.1c0,0,0,0,0,0c0,0,0,0,0,0c0.4-0.4,1.9-1.1,3-1.4
						C56.2,10.8,56.2,10.8,56.1,10.7C56.2,10.7,56.1,10.7,56.1,10.7z"/>
					<path class="st3" d="M53.8,13.1C53.8,13.1,53.8,13.1,53.8,13.1C53.9,13.1,53.9,13.1,53.8,13.1c0.5-0.6,1.4-1.2,2.1-1.6
						c0,0,0,0,0-0.1c0,0,0,0-0.1,0C55.3,11.6,54.1,12.5,53.8,13.1C53.8,13.1,53.8,13.1,53.8,13.1z"/>
					<path class="st3" d="M62.9,6c0,0.5,0,0.9,0.2,1.3c0.1,0.1,0.2,0,0.1-0.1C63,6.8,63,6.4,63,6C63,5.9,62.9,5.8,62.9,6z"/>
					<path class="st3" d="M70.7,29.2c0.1,0,0.1-0.1,0.3-0.2c0.1-0.1,0.2-0.2,0.3-0.3c0,0,0,0,0,0c0,0,0,0,0,0.1c0,0,0,0.1,0.1,0.1
						c0,0,0,0,0.1,0c0,0,0,0,0,0c0.1-0.1,0.1-0.3,0.1-0.6c0.1-0.2,0.1-0.5,0.2-0.7c0.1-0.2,0.2-0.5,0.3-0.7c0.2-0.3,0.4-0.7,0.5-1.1
						c0.1-0.2,0.1-0.4,0.2-0.7c0.2-0.6,0.4-1.3,0.5-1.9c0,0,0,0,0,0c0,0,0,0-0.1,0c0,0-0.1,0-0.1,0.2c0,0,0,0.1-0.1,0.1
						c-0.1,0.1-0.2,0.3-0.2,0.4c-0.1,0.1-0.2,0.3-0.3,0.5c-0.3,1.2-0.9,2.3-1.6,3.2c0,0,0,0,0,0.1c0,0.1,0.1,0.1,0.2,0.2
						c0.1,0,0.1,0.1,0.1,0.1c-0.1,0.2-0.2,0.3-0.3,0.5C70.9,28.6,70.8,28.8,70.7,29.2C70.6,29.1,70.6,29.1,70.7,29.2
						C70.6,29.1,70.7,29.2,70.7,29.2z"/>
					<path class="st3" d="M53.7,13.7C53.7,13.7,53.8,13.7,53.7,13.7C53.8,13.7,53.8,13.7,53.7,13.7c0.2-0.1,0.3-0.2,0.4-0.4
						c0.5-0.5,1.2-1.2,2-1.6c0,0,0,0,0-0.1l0,0c0,0,0,0,0,0c0,0,0,0-0.1,0c0,0,0,0,0,0C55.2,12.1,54.3,12.8,53.7,13.7
						C53.7,13.7,53.7,13.7,53.7,13.7z"/>
					<path class="st3" d="M61.8,9.5c0.4,0.4,1,0.7,1.6,0.9c0.1,0,0.2-0.2,0-0.2c-0.6-0.1-1.1-0.4-1.5-0.8
						C61.8,9.2,61.7,9.4,61.8,9.5z"/>
					<path class="st3" d="M61.7,10c0.4,0.5,1,0.8,1.7,0.8c0.1,0,0.1-0.2,0-0.2c-0.6,0-1.1-0.3-1.5-0.7C61.8,9.8,61.6,9.9,61.7,10z"
						/>
					<path class="st3" d="M61.9,10.8c0.3,0.1,0.5,0.3,0.8,0.3c0.3,0.1,0.6,0.2,1,0.2c0.1,0,0.2-0.2,0-0.2c-0.3,0-0.6-0.1-0.9-0.1
						c-0.3,0-0.5-0.2-0.8-0.3C62,10.6,61.8,10.8,61.9,10.8z"/>
					<path class="st3" d="M67,10.6c-0.2,0.3-0.5,0.5-0.8,0.7c-0.2,0.1-0.5,0.2-0.7,0.3c-0.1,0.1,0.1,0.2,0.1,0.1
						c0.3-0.2,0.6-0.3,0.9-0.4c0.2-0.2,0.4-0.4,0.6-0.6C67.3,10.6,67.1,10.5,67,10.6z"/>
					<path class="st3" d="M63.3,13c-0.5,0.1-0.9,0.5-1.2,0.8c-0.1,0.1,0.1,0.2,0.2,0.1c0.3-0.3,0.7-0.6,1.1-0.8
						C63.5,13.1,63.4,13,63.3,13z"/>
					<path class="st3" d="M63.9,13.1c-0.5,0.2-0.9,0.4-1.3,0.8c-0.1,0.1,0,0.3,0.1,0.2c0.4-0.3,0.8-0.6,1.2-0.7
						C64,13.2,64,13,63.9,13.1z"/>
					<path class="st3" d="M63.9,14.2c0.6-0.5,1.4-0.9,2.2-1.1c0.1,0,0-0.2-0.1-0.2c-0.8,0.2-1.6,0.6-2.2,1.1
						C63.7,14.2,63.8,14.3,63.9,14.2z"/>
					<path class="st3" d="M62.6,12.9c-0.4,0.1-0.8,0.3-1.1,0.6c-0.1,0.1,0.1,0.2,0.2,0.1c0.2-0.3,0.6-0.5,1-0.5
						C62.7,13.1,62.7,12.9,62.6,12.9z"/>
					<path class="st3" d="M65,13c-0.7,0.2-1.3,0.5-1.9,0.9c-0.1,0.1,0,0.2,0.1,0.2c0.6-0.4,1.2-0.7,1.9-0.9C65.1,13.2,65.1,13,65,13
						z"/>
					<path class="st3" d="M67.7,12.6c-1.1,0.3-2.2,0.8-3.1,1.5c-0.1,0.1,0,0.2,0.1,0.1c0.9-0.7,2-1.2,3.1-1.5
						C67.8,12.8,67.8,12.6,67.7,12.6z"/>
					<path class="st3" d="M66.5,29C66.5,29,66.5,29,66.5,29c-0.1-0.1-0.2-0.1-0.3-0.1c-0.3,0-0.6,0.2-0.8,0.3
						c-0.2,0.1-0.4,0.3-0.6,0.3c-0.2,0-0.3,0.1-0.5,0.1l0,0c-0.4,0-0.7-0.1-1-0.3c-0.1-0.1-0.2-0.1-0.4-0.2c0,0,0,0-0.1,0
						c-0.1,0.1-0.1,0.2-0.2,0.3c0,0.1-0.1,0.1-0.1,0.2c0,0,0,0,0,0c0,0,0,0,0,0c0.3,0.1,0.6,0.2,1.1,0.2c0.3,0,0.5,0,0.8,0
						c0.2,0,0.5,0,0.7,0c0.3,0,0.5,0,0.6,0.1c0,0,0,0,0,0c0,0,0,0,0.1,0c0.1-0.2,0.3-0.4,0.4-0.6C66.4,29.3,66.5,29.2,66.5,29
						C66.5,29,66.5,29,66.5,29z"/>
					<path class="st3" d="M66.7,23.5C66.7,23.5,66.7,23.5,66.7,23.5c-0.1,0-0.1,0-0.1,0c-0.1,0.8-0.4,1.3-1,1.8c-0.2,0-0.3,0-0.5,0
						c-0.3,0-0.6,0.1-0.9,0.2c-0.3,0.1-0.6,0.2-1,0.2c-0.5-0.3-0.8-0.9-1-1.5c0,0,0,0-0.1,0c0,0,0,0,0,0c-0.1,0.5,0,1,0.3,1.3
						c0.2,0.3,0.2,0.5,0.3,0.6c0,0.1,0,0.2,0.1,0.2c0.1,0,0.1,0.1,0.3,0.1c0.3,0,0.8-0.1,1.1-0.2c0.1,0,0.1,0,0.2-0.1
						c0.4-0.1,0.8-0.3,1.3-0.3c0.1,0,0.2,0,0.3,0c0,0,0,0,0,0C66.4,25.3,67,24.6,66.7,23.5z"/>
					<path class="st3" d="M66.4,12.2l-0.1,0.1c-0.5,0.3-1.5,0.5-2.4,0.4c-0.8-0.1-1.4-0.6-2.3-0.5c0,0,0,0-0.1,0
						c0,0.1-0.1,0.1-0.1,0.2c0.2,0,0.4,0,0.6,0.1c0.7,0.1,1.3,0.5,2,0.6c0.9,0.1,1.8-0.1,2.6-0.5c0.1,0,0.1-0.1,0.1-0.1
						c0,0-0.1,0-0.1-0.1C66.7,12.3,66.5,12.2,66.4,12.2z"/>
					<path class="st3" d="M57.4,13.8c-0.3,0.3-0.4,0.7-0.5,1.1c0,0.1,0.1,0.2,0.2,0c0.1-0.4,0.2-0.7,0.5-1
						C57.6,13.9,57.5,13.7,57.4,13.8z"/>
					<path class="st3" d="M58.3,13.4c-0.4,0.4-0.7,0.9-0.8,1.5c0,0.1,0.2,0.1,0.2,0c0.1-0.5,0.3-1.1,0.7-1.4
						C58.5,13.4,58.4,13.3,58.3,13.4z"/>
					<path class="st3" d="M59.2,13.1c-0.5,0.4-1,0.9-1.1,1.6c0,0.1,0.2,0.1,0.2,0c0.1-0.6,0.5-1.1,1-1.4
						C59.3,13.2,59.3,13,59.2,13.1z"/>
					<path class="st3" d="M56.8,16.2c-0.2,0.3-0.3,1.1-0.4,1.3c-0.5,2.2-0.4,4.7,0.2,6.7c0.4,1.3,1.1,2.7,2,3.8
						c0.7,0.8,1.3,1.5,2.1,2.2c0,0,0.7,0.6,0.8,0.6h0c0.1,0,0.1-0.1,0.2-0.1c0,0,0-0.1,0-0.2c0,0,0,0,0,0c-0.8-0.5-1.5-1.3-2.2-2.1
						l-0.1-0.2c-2.1-2.3-3.1-5.8-2.7-9.2c0.1-1.1,0.4-2.2,0.6-2.7c0,0,0-0.1,0-0.1c0,0-0.1-0.1-0.2-0.1
						C56.9,16.1,56.8,16.1,56.8,16.2z"/>
					<path class="st3" d="M72.7,20.6C72.7,20.6,72.7,20.5,72.7,20.6c-0.1-0.1-0.2-0.1-0.2,0c0,0-0.2,2.6-1.4,5
						c-1.5,3.1-3.9,4.8-3.9,4.8c0,0,0,0.1,0,0.1c0,0,0,0,0.1,0c0,0,0,0,0,0c0,0,2.4-1.7,4-4.8C72.5,23.2,72.7,20.6,72.7,20.6z"/>
					<path class="st3" d="M61,13.4c-0.1,0.1,0.1,0.2,0.2,0.1c0.2-0.3,0.6-0.5,1-0.7c0.1,0,0-0.2-0.1-0.1C61.6,12.8,61.2,13,61,13.4z
						"/>
					<path class="st3" d="M60.4,12.5c-0.7,0.5-1.4,1-1.7,1.9c0,0.1,0.2,0.1,0.2,0c0.2-0.8,0.9-1.3,1.6-1.8
						C60.6,12.6,60.5,12.5,60.4,12.5z"/>
					<path class="st3" d="M61.2,12.5c-0.7,0.3-1.3,0.8-1.7,1.5c-0.1,0.1,0.1,0.2,0.2,0.1c0.4-0.6,1-1.1,1.7-1.5
						C61.4,12.6,61.3,12.5,61.2,12.5z"/>
				</g>
				<g>
					<path class="st0" d="M31.1,50.1c0,0-2.2-2-2.3-2.1c-0.1-0.1-0.1-0.1-0.1-0.2c0-0.1,0.1-0.1,0.1-0.1l1.7-0.1
						c0.1,0,0.2-0.1,0.2-0.3l0-0.3c0-0.1-0.1-0.2-0.3-0.2c0,0-1.4,0.1-1.4,0.1c-0.1,0-0.2,0-0.2,0c0-0.1,0-0.2,0.1-0.2
						c0-0.1,2.1-2.2,2.1-2.2c0.1-0.1,0.1-0.3,0-0.4l-0.2-0.2c-0.1-0.1-0.3-0.1-0.4,0l-2.9,3c0,0-0.3,0.3-0.4,0.4
						c-0.1,0.1-0.1,0.3,0,0.4c0.1,0.1,0.4,0.4,0.4,0.4l3,2.7c0.1,0.1,0.3,0.1,0.4,0l0.2-0.3C31.2,50.3,31.2,50.2,31.1,50.1z"/>
					<path class="st0" d="M59.5,50c0,0-2.2-2-2.3-2.1c-0.1-0.1-0.1-0.1-0.1-0.2c0-0.1,0.1-0.1,0.1-0.1l1.7-0.1
						c0.1,0,0.2-0.1,0.2-0.3l0-0.3c0-0.1-0.1-0.2-0.3-0.2c0,0-1.4,0.1-1.4,0.1c-0.1,0-0.2,0-0.2,0c0-0.1,0-0.2,0.1-0.2
						c0.1-0.1,2.1-2.2,2.1-2.2c0.1-0.1,0.1-0.3,0-0.4l-0.2-0.2c-0.1-0.1-0.3-0.1-0.4,0l-2.9,3c0,0-0.3,0.3-0.4,0.4
						c-0.1,0.1-0.1,0.3,0,0.4c0.1,0.1,0.4,0.4,0.4,0.4l3,2.7c0.1,0.1,0.3,0.1,0.4,0l0.2-0.3C59.6,50.3,59.6,50.1,59.5,50z"/>
					<path class="st0" d="M67.4,50c0,0-2.2-2-2.3-2.1c-0.1-0.1-0.1-0.1-0.1-0.2c0-0.1,0.1-0.1,0.1-0.1l1.7-0.1
						c0.1,0,0.2-0.1,0.2-0.3l0-0.3c0-0.1-0.1-0.2-0.3-0.2c0,0-1.4,0.1-1.4,0.1c-0.1,0-0.2,0-0.2,0c0-0.1,0-0.2,0.1-0.2
						c0.1-0.1,2.1-2.2,2.1-2.2c0.1-0.1,0.1-0.3,0-0.4L67,43.8c-0.1-0.1-0.3-0.1-0.4,0l-2.9,3c0,0-0.3,0.3-0.4,0.4
						c-0.1,0.1-0.1,0.3,0,0.4c0.1,0.1,0.4,0.4,0.4,0.4l3,2.7c0.1,0.1,0.3,0.1,0.4,0l0.2-0.3C67.5,50.3,67.5,50.1,67.4,50z"/>
					<path class="st0" d="M36.2,49.9c0,0-2.6-2.4-2.7-2.5c-0.1-0.1-0.1-0.2,0-0.3c0.1-0.1,2.6-2.6,2.6-2.6c0.1-0.1,0.1-0.3,0-0.4
						l-0.2-0.2c-0.1-0.1-0.3-0.1-0.4,0l-2.8,2.8c0,0-0.3,0.3-0.4,0.4c-0.1,0.1-0.1,0.3,0,0.4c0.1,0.1,0.4,0.4,0.4,0.4l2.8,2.6
						c0.1,0.1,0.3,0.1,0.4,0l0.2-0.2C36.4,50.2,36.3,50,36.2,49.9z"/>
					<path class="st0" d="M27,50.3l-2.9-6.4c-0.1-0.1-0.2-0.1-0.2,0l-0.2,0.5c0,0,0,0,0,0l-1.8,5.4c-0.1,0.2,0,0.3,0.3,0.2l0.5-0.1
						c0.2-0.1,0.2-0.2,0.2-0.3l1.1-3.4c0,0,0-0.1,0.1-0.1c0.1,0,0.1,0.1,0.1,0.1l2.1,4.4c0.1,0.1,0.2,0.2,0.3,0.1l0.3-0.1
						C27,50.6,27.1,50.4,27,50.3z"/>
					<path class="st0" d="M21.1,50.3l-2.9-6.4c0-0.1-0.2-0.1-0.2,0l-0.2,0.5c0,0,0,0,0,0L16,49.9c-0.1,0.2,0,0.3,0.3,0.2l0.5-0.1
						c0.2-0.1,0.2-0.2,0.2-0.3l1.1-3.4c0,0,0-0.1,0.1-0.1c0.1,0,0.1,0.1,0.1,0.1l2.1,4.4c0.1,0.1,0.2,0.2,0.3,0.1l0.3-0.1
						C21.1,50.6,21.2,50.4,21.1,50.3z"/>
					<path class="st0" d="M15.1,44L15.1,44l-2.5,2.8c0,0-0.1,0.1-0.1,0.1c-0.1,0,0-0.1,0-0.1l0.2-2.3c0-0.1-0.1-0.3-0.2-0.3l-0.4,0
						c-0.1,0-0.1,0-0.2,0.1c-0.1,0-0.1,0.1-0.1,0.2l-0.4,4.9c0,0.1,0,0.2,0.1,0.2c0,0,0,0,0,0c0,0,0,0,0.1,0
						c0.1-0.1,0.2-0.2,0.4-0.4v0l2.4-2.7c0,0,0.1-0.1,0.2-0.1c0.1,0,0.1,0.2,0.1,0.2l0,4c0,0.1,0.1,0.3,0.3,0.3l0.3,0
						c0.1,0,0.3-0.1,0.3-0.3l0-6.3C15.3,43.9,15.2,43.9,15.1,44z"/>
					<path class="st0" d="M45.4,44.1L45.4,44.1L43,47c0,0-0.1,0.1-0.1,0.1c-0.1,0,0-0.1,0-0.1l0.1-2.3c0-0.1-0.1-0.3-0.2-0.3l-0.4,0
						c-0.1,0-0.1,0-0.2,0.1c-0.1,0-0.1,0.1-0.1,0.2l-0.2,4.9c0,0.1,0,0.2,0.1,0.2c0,0,0,0,0,0c0,0,0,0,0.1,0
						c0.1-0.1,0.2-0.3,0.3-0.4v0l2.3-2.8c0,0,0.1-0.1,0.1-0.1c0.1,0,0.1,0.2,0.1,0.2l0.1,4c0,0.1,0.1,0.3,0.3,0.2l0.3,0
						c0.1,0,0.3-0.1,0.2-0.3l-0.2-6.3C45.6,44,45.5,43.9,45.4,44.1z"/>
					<path class="st0" d="M71.9,50.1l-0.6-5.8c0-0.1-0.1-0.2-0.3-0.2c0,0-0.1,0-0.1,0l0,0L69,44l0,0l-0.1,0c-0.2,0-0.3,0.1-0.3,0.3
						L68,50.1c0,0.1,0.1,0.3,0.2,0.3l0.3,0c0.1,0,0.3-0.1,0.3-0.2c0,0,0.5-4.9,0.6-5.1c0-0.2,0.2-0.2,0.2-0.2l0.7,0
						c0,0,0.2,0,0.2,0.2c0,0.2,0.5,5.2,0.5,5.2c0,0.1,0.1,0.2,0.3,0.2l0.3,0C71.8,50.3,71.9,50.2,71.9,50.1z"/>
					<path class="st0" d="M63.5,45.8c-0.1-0.1-0.5-0.3-0.5-0.3l-1.9-1c-0.2-0.1-0.5-0.3-0.6-0.3c-0.2-0.1-0.3,0-0.3,0.2l0,5.9
						c0,0.1,0.1,0.3,0.3,0.3l0.3,0c0.1,0,0.3-0.1,0.3-0.3c0,0,0-4.5,0-4.5c0-0.1,0-0.3,0.2-0.1c0.4,0.2,0.9,0.5,1,0.5
						c0.1,0.1,0,0.2,0,0.2l-0.8,0.6c-0.1,0.1-0.1,0.3,0,0.4l0.2,0.3c0.1,0.1,0.2,0.1,0.4,0l1.2-1c0,0,0.4-0.3,0.5-0.4
						c0.1-0.1,0.1-0.1,0.1-0.2C63.7,45.9,63.7,45.9,63.5,45.8z"/>
					<path class="st0" d="M54.6,44.4l-0.3,0c-0.1,0-0.3,0.1-0.3,0.2l0,0.5c0,0,0,0.2-0.2,0.2c-0.1,0-0.8,0-1.4,0.1
						c-0.2,0-0.1-0.2-0.1-0.2c0,0,0.7-1.7,0.7-1.7c0.1-0.1,0-0.3-0.1-0.3L52.5,43c-0.1-0.1-0.3,0-0.3,0.1l-0.8,2.1v0c0,0,0,0,0,0
						l-0.3,0.7l0,0C51,46.1,51,46.2,51,46.3c0,0.1,0.1,0.1,0.2,0.1c0,0,2.4-0.1,2.6-0.1c0.2,0,0.2,0.2,0.2,0.2l-0.1,4.2
						c0,0.1,0.1,0.3,0.2,0.3l0.3,0c0.1,0,0.3-0.1,0.3-0.2l0.1-5.8C54.9,44.5,54.8,44.4,54.6,44.4z"/>
					<path class="st0" d="M10.2,49.8l-1.6-2.5c0,0-0.1-0.1-0.1-0.1c0-0.1,0-0.1,0-0.1l1.5-2.8c0.1-0.1,0-0.3-0.1-0.3l-0.3-0.2
						c-0.1-0.1-0.3,0-0.3,0.1l-1.3,2.4c0,0,0,0.1-0.1,0.1c-0.1,0-0.1-0.1-0.1-0.1l-1.3-2c-0.1-0.1-0.2-0.2-0.4-0.1l-0.3,0.2
						c-0.1,0.1-0.2,0.2-0.1,0.4l1.6,2.4c0,0,0.1,0.1,0.1,0.1c0,0.1,0,0.1,0,0.1l-1.5,2.8c-0.1,0.1,0,0.3,0.1,0.3l0.3,0.2
						c0.1,0.1,0.3,0,0.3-0.1L8,48.2c0,0,0-0.1,0.1-0.1c0.1,0,0.1,0.1,0.1,0.1l1.3,2.1c0.1,0.1,0.2,0.2,0.4,0.1l0.3-0.2
						C10.3,50.1,10.3,49.9,10.2,49.8z"/>
					<path class="st0" d="M82.2,49.7l-1.6-2.5c0,0-0.1-0.1-0.1-0.1c0-0.1,0-0.1,0-0.1l1.5-2.8c0.1-0.1,0-0.3-0.1-0.3l-0.3-0.2
						c-0.1-0.1-0.3,0-0.3,0.1l-1.3,2.4c0,0,0,0.1-0.1,0.1c-0.1,0-0.1-0.1-0.1-0.1l-1.3-2c-0.1-0.1-0.2-0.2-0.4-0.1l-0.3,0.2
						c-0.1,0.1-0.2,0.2-0.1,0.4l1.6,2.4c0,0,0.1,0.1,0.1,0.1c0,0.1,0,0.1,0,0.1l-1.5,2.8c-0.1,0.1,0,0.3,0.1,0.3l0.3,0.2
						c0.1,0.1,0.3,0,0.3-0.1l1.3-2.4c0,0,0-0.1,0.1-0.1c0.1,0,0.1,0.1,0.1,0.1l1.3,2.1c0.1,0.1,0.2,0.2,0.4,0.1l0.3-0.2
						C82.3,50,82.3,49.9,82.2,49.7z"/>
					<path class="st0" d="M5.3,50.3L2.4,44c0-0.1-0.2-0.1-0.2,0L2,44.4c0,0,0,0,0,0l-1.8,5.4c-0.1,0.2,0,0.3,0.3,0.2l2.4-0.8
						l0.2-0.1c0.1,0,0.2-0.2,0.2-0.3l-0.1-0.3c0-0.1-0.2-0.2-0.3-0.2l-1.1,0.4c0,0-0.1,0-0.2,0c0-0.1,0-0.2,0-0.2s0.7-2.1,0.7-2.2
						c0-0.1,0.1-0.2,0.1-0.2c0.1,0,0.1,0.1,0.1,0.2c0,0.1,2,4.3,2,4.3c0.1,0.1,0.2,0.2,0.3,0.1l0.3-0.1C5.3,50.6,5.4,50.5,5.3,50.3z
						"/>
					<path class="st0" d="M77.5,50.3l-3-6.4c-0.1-0.1-0.2-0.1-0.2,0l-0.2,0.5c0,0,0,0,0,0l-1.8,5.4c-0.1,0.2,0,0.3,0.3,0.2l2.4-0.8
						l0.2-0.1c0.1,0,0.2-0.2,0.2-0.3l-0.1-0.3c0-0.1-0.2-0.2-0.3-0.2l-1.1,0.4c0,0-0.1,0-0.2,0c0-0.1,0-0.2,0-0.2s0.7-2.1,0.7-2.2
						c0-0.1,0.1-0.2,0.1-0.2c0.1,0,0.1,0.1,0.1,0.2c0,0.1,2,4.3,2,4.3c0.1,0.1,0.2,0.2,0.3,0.1l0.3-0.1
						C77.5,50.5,77.6,50.4,77.5,50.3z"/>
					<path class="st0" d="M87.7,50.3l-3-6.4c0-0.1-0.2-0.1-0.2,0l-0.2,0.5c0,0,0,0,0,0l-1.8,5.4c-0.1,0.2,0,0.3,0.3,0.2l2.4-0.8
						l0.2-0.1c0.1,0,0.2-0.2,0.2-0.3l-0.1-0.3c0-0.1-0.2-0.2-0.3-0.2l-1.1,0.4c0,0-0.1,0-0.2,0c0-0.1,0-0.2,0-0.2s0.7-2.1,0.7-2.2
						s0.1-0.2,0.1-0.2c0.1,0,0.1,0.1,0.1,0.2c0,0.1,2,4.3,2,4.3c0.1,0.1,0.2,0.2,0.3,0.1l0.3-0.1C87.7,50.5,87.8,50.4,87.7,50.3z"/>
				</g>
			</g>
		</g>
	</g>
</g>
</svg>
