<?xml version="1.0" encoding="utf-8"?>
<!-- Generator: Adobe Illustrator 20.0.0, SVG Export Plug-In . SVG Version: 6.00 Build 0)  -->
<svg version="1.1" id="Слой_1" xmlns="http://www.w3.org/2000/svg" xmlns:xlink="http://www.w3.org/1999/xlink" x="0px" y="0px"
	 viewBox="0 0 108.5 73.6" style="enable-background:new 0 0 108.5 73.6;" xml:space="preserve">
<style type="text/css">
	.st0{fill:#FFFFFF;}
	.st1{fill:#DCD6C3;}
	.st2{fill:#366A7E;}
	.st3{fill:#B17D0C;}
	.st4{fill:#4C4638;}
</style>
<path class="st0" d="M63.7,37.1c2.3,1.2,4.5,2,5.1,2.2c0.1,0,0.2,0.1,0.3,0.1c0.5,0.2,1.1,0.5,2.1,0.6c0.8,0.1,1.8,0.1,2.8,0.1
	c0.2,0,0.4,0,0.6,0h0.3c1.3-0.1,2.6-0.1,3.5-0.2c1.1-0.2,2-0.5,2.5-0.7c0.3-0.1,0.5-0.3,0.6-0.5c1.4-0.5,2.7-1.3,3.4-1.6L85,37
	c0.1-0.1,2.6-1.5,4.3-3.4c1.6-1.8,3.2-3.9,4.1-6.5l0.1-0.3c0.8-2.3,1.1-3.4,1.2-5.8c0.1-2.5-1.5-7.3-2.2-9.3
	c-0.8-2.1-3.1-5.6-3.2-5.7c-0.4-0.6-0.9-1-1.3-1.3c-0.2-0.1-0.3-0.2-0.4-0.3c-0.4-0.5-0.7-0.8-0.8-0.9c-0.2-0.1-0.4-0.3-0.7-0.4
	C86,3,85.8,2.8,85.7,2.7c-1.1-0.7-2.2-1.2-3.3-1.3c-0.6-0.1-1.2-0.1-1.6-0.1h-0.3c-0.2,0-0.4,0-0.7-0.1c-0.3,0-0.6-0.1-0.9-0.1
	c-0.2,0-0.3,0-0.5,0c-0.1,0-0.3,0-0.4,0s-0.2,0-0.4,0c-0.2,0-0.4,0-0.7,0c-0.4,0-1-0.1-1.6-0.2c-0.9-0.1-1.7-0.2-2.5-0.2
	c-0.1,0-0.2,0-0.3,0c-0.5,0-1.2,0.1-1.9,0.1c-0.3,0-0.8,0.1-1.4,0.3c-0.2,0-0.4,0.1-0.5,0.1c-1.8,0.4-2.7,1-3,1.2
	c-0.4,0.3-0.6,0.7-0.7,1h-0.1c-0.7,0-1.8,0.9-2.6,1.6c-0.1,0-0.2,0.1-0.3,0.2c0,0-0.2,0.1-0.4,0.3c-0.1,0-0.1,0.1-0.2,0.2
	c-0.1,0-0.1,0.1-0.2,0.1c-0.1,0.1-0.3,0.2-0.4,0.3l-0.1,0.1c-0.1,0-0.1,0.1-0.2,0.1c-0.1,0.1-0.1,0.2-0.2,0.2
	c-0.2,0.2-0.2,0.3-0.3,0.4C60,7,59.9,7,59.9,7.1c0,0,0,0,0,0.1l-0.1,0.1c-0.1,0.1-0.2,0.2-0.2,0.4l-0.1,0.1l-0.1,0.1l-0.3,0.4
	c0,0.1-0.1,0.1-0.1,0.2l0,0l-0.1,0.1c-0.1,0.1-0.2,0.2-0.2,0.3L58.6,9l-0.1,0.1c-0.1,0.1-0.1,0.2-0.2,0.3l-0.1,0.1l-0.1,0.1
	c0,0.1-0.1,0.1-0.1,0.1l-0.1,0.1l-0.1,0.1L57.7,10c-0.1,0.1-0.2,0.3-0.3,0.4c0,0.1-0.1,0.1-0.1,0.2c-0.1,0.1-0.1,0.1-0.1,0.2
	c-0.1,0.1-0.2,0.3-0.3,0.4c0,0.1-0.1,0.1-0.1,0.2l-0.1,0.1c-0.1,0.1-0.2,0.3-0.3,0.4c0,0.1-0.1,0.1-0.1,0.2c0,0,0,0,0,0.1l-0.1,0.1
	L56,12.7c0,0.1-0.1,0.1-0.1,0.2c0,0,0,0,0,0.1c0,0-0.1,0.1-0.1,0.2c-0.1,0.1-0.1,0.3-0.2,0.4c0,0,0,0.1-0.1,0.1c0,0,0,0.1-0.1,0.1
	l-0.1,0.1c-0.1,0.1-0.1,0.3-0.2,0.4c0,0,0,0.1-0.1,0.1l-0.1,0.1c-0.1,0.1-0.1,0.3-0.2,0.4c0,0.1,0,0.1-0.1,0.2c0,0,0,0.1-0.1,0.1
	c0,0-0.1,0.1-0.1,0.2c0,0.1-0.1,0.2-0.1,0.3l-0.1,0.1v0.1c0,0.1-0.1,0.2-0.1,0.3c0,0,0,0.1-0.1,0.1c-0.1,0.2-0.1,0.3-0.2,0.5v0.1
	l0,0c0-0.1,0-0.2,0-0.3c-0.2-2.6-1-4-1.4-5l-0.1-0.2c-0.5-1-0.9-1.7-2.1-3.3c-0.3-0.4-0.6-0.8-0.8-1.2C48.6,5.8,48,5,47.6,4.6
	c-0.8-0.8-4.1-2.6-4.7-3c-2-1.1-5.2-1.5-6.6-1.6c-0.1,0-0.2,0-0.4,0c-1.9,0-5.6,0.6-7.2,1c-0.8,0.2-1.2,0.3-1.5,0.4
	c-0.3,0.1-0.4,0.1-0.6,0.2c-0.1,0-0.1,0-0.2,0c-0.2,0-0.5,0.1-0.7,0.2c0,0-1.8,1-2.7,1.4c-0.8,0.4-1.4,0.9-2.1,1.6
	c-0.6,0.5-1.5,1.1-1.9,1.6c-0.2,0.1-0.3,0.2-0.5,0.4c-0.1,0.1-0.2,0.3-0.3,0.4c0,0.1-0.1,0.1-0.1,0.2C18,7.5,18,7.5,18,7.6
	c-0.1,0.1-0.2,0.3-0.3,0.4l-0.1,0.1l-0.1,0.1c-0.1,0.1-0.2,0.3-0.2,0.4c0,0.1-0.1,0.1-0.1,0.2C17.1,9.1,17,9.2,17,9.2
	c-0.1,0.1-0.1,0.3-0.2,0.4c0,0.1-0.1,0.2-0.1,0.2c0,0.1-0.1,0.1-0.1,0.2c-0.1,0.1-0.1,0.3-0.2,0.4c0,0.1-0.1,0.1-0.1,0.2
	c0,0.1-0.1,0.1-0.1,0.2c-0.1,0.3-0.1,0.4-0.2,0.6v0.1c0,0,0,0.1-0.1,0.2l-0.1,0.4c0,0.1,0,0.1-0.1,0.2c0,0.1-0.1,0.1-0.1,0.2
	l-0.1,0.4c0,0.1,0,0.1,0,0.2c0,0.1,0,0.1-0.1,0.2l-0.1,0.4c0,0.1,0,0.1,0,0.2c0,0.1-0.1,0.1-0.1,0.2l0,0c-0.6,1.6-1.3,3.5-1.6,5.4
	c-0.2,1.2-0.1,2.1,0.2,2.9c0,0.1,0,0.1,0,0.2c0,0.2,0.1,0.4,0.1,0.6c0,0.1,0.1,0.3,0.1,0.4s0,0.3,0.1,0.4c0.1,0.2,0.1,0.3,0.2,0.5
	c0,0.1,0.1,0.2,0.1,0.2c0,0.1,0.1,0.2,0.1,0.2c0.1,0.1,0.2,0.3,0.3,0.4s0.1,0.2,0.2,0.2c0,0.1,0.1,0.2,0.1,0.2
	c0.1,0.1,0.2,0.3,0.3,0.4c0,0.1,0.1,0.1,0.1,0.2s0.1,0.1,0.1,0.2c0.1,0.1,0.2,0.2,0.3,0.4L16,27c0,0.1,0.1,0.1,0.1,0.2l0.3,0.4
	c0,0.1,0.1,0.1,0.1,0.1c0,0.1,0.1,0.1,0.1,0.2l0.3,0.3l0.1,0.1l0.1,0.1l0.3,0.3c0,0.1,0.1,0.1,0.2,0.2c0,0.1,0.1,0.1,0.1,0.2
	l0.2,0.3l0.1,0.1l0.1,0.1l0.3,0.3c0,0.1,0.1,0.1,0.1,0.1c0,0.1,0.1,0.1,0.1,0.2l0.3,0.3l0.1,0.1c0,0,0,0.1,0.1,0.1l0.3,0.3
	c0,0.1,0.1,0.1,0.1,0.2s0.1,0.1,0.1,0.2l0.3,0.4c0,0,0,0.1,0.1,0.1c0,0,0,0.1,0.1,0.1c0,0,0,0,0,0.1c0,0,0,0,0.1,0.1
	c1.2,1.6,3.4,4.2,5,5.3c3.1,2.2,6.4,2.3,8.4,2.4h0.2c0.5,0,0.9,0,1.3,0c1.9,0,3-0.2,3.8-0.5c0.2,0,0.3-0.1,0.4-0.2
	c0.1-0.1,0.3-0.1,0.4-0.2c0.1-0.1,0.3-0.1,0.4-0.2l0,0c0.1,0,0.2-0.1,0.2-0.1c0.1,0,0.2-0.1,0.2-0.1c0.1-0.1,0.2-0.2,0.4-0.3
	c0,0,0.1,0,0.1-0.1h0.1c0.1,0,0.2-0.1,0.4-0.1c0,0,0.1,0,0.1-0.1h0.1c0.2-0.1,0.3-0.1,0.5-0.2c0.1,0,0.2-0.1,0.2-0.1
	c3.1-0.8,5.4-3.8,6.4-5.4c0.2-0.2,0.3-0.4,0.4-0.6c0.3-0.4,0.6-0.9,0.9-1.2c1.2-1.6,2.3-3.4,3.2-5.7c0.1-0.3,0.2-0.6,0.3-0.9l0,0
	l0,0l0,0c0,0.2,0,0.3,0,0.5l0,0l0,0c0.1,0.8,0.2,1.3,0.5,2c0.2,0.4,0.3,0.8,0.3,1.2c0,0.1,0,0.1,0.1,0.2l0,0c0,0.1,0,0.2,0.1,0.3
	c0,0.1,0.1,0.2,0.1,0.3c0.2,0.7,0.8,1.7,2.2,3.4c0.2,0.2,0.3,0.4,0.4,0.6c0.3,0.4,0.6,0.8,1.4,1.6c1,1.2,2.2,1.7,3.8,2.5
	C62.9,36.7,63.3,36.9,63.7,37.1z"/>
<path class="st0" d="M15.5,45.5l-0.1,0.2l-0.5-1.1L15.5,45.5z"/>
<path class="st0" d="M85.5,45.4L85.5,45.4l-0.2-0.2L85.5,45.4z"/>
<path class="st1" d="M64.6,5.6l-1.8,0.8c0,0-0.9,0.6-1.3,1.1C61.1,8,60,10,59.2,10.9c-0.8,0.8-1.6,2.1-2,2.7
	c-0.4,0.6-1.1,1.9-1.4,2.7c-0.3,0.8-0.7,1.4-0.6,4.7c0.1,3.3,0.1,3.6,0.5,4.7c0.3,0.8,0.4,1.5,0.6,2.2c0.2,0.7,1.2,2.1,1.9,2.9
	c0.7,0.9,0.7,1,1.7,2.1c1,1.1,2.2,1.6,4.5,2.7c2.3,1.1,4.4,1.9,5,2.1c0.5,0.2,1.1,0.5,2,0.6s2.2,0.2,3.1,0.1
	c1.3-0.1,2.7-0.1,3.6-0.2c0.9-0.1,1.7-0.4,2-0.6c0.4-0.2,0.5-0.5,0.5-0.5l-1.7,0.4l-2.6,0.2h-1.9l-2.1-0.3l-2.4-0.9l-4.7-1.7
	l-2.8-1.9l-2.8-3l2-2.2l-3.3,0.6l-0.9-1.1l-0.2-1l-0.1-0.7l-0.5-1.3l0.3,0.6l0.2-2.6l0.2-2.3l-0.5-3.1v-0.5l1.6-1.8l2.3-2.3l1.9-2.4
	l0.8-1l3.3-2.6L64.6,5.6z"/>
<path class="st1" d="M29.2,3.6c0.5-0.1,1-0.3,1.5-0.4c0.6-0.1,1.2-0.1,1.7-0.2c1.1-0.2,2.4,0,3.5,0.1c0.6,0.1,1.1,0.1,1.6,0.4
	c0.4,0.2,0.9,0.4,1.4,0.6c0.9,0.5,1.9,0.9,2.8,1.5c0.3,0.2,0.7,0.4,1,0.5c0.3,0.2,0.6,0.4,0.9,0.6c0.3,0.2,0.7,0.3,1,0.4
	s0.9,0.3,1.2,0c-0.1-0.2-0.4-0.3-0.5-0.4c-0.2-0.2-0.3-0.4-0.5-0.6c-0.2-0.4,0.3-0.3-0.1-0.6c-0.4-0.3-2.6-1.7-4-2.2
	c-0.6-0.2-1.3-0.4-1.9-0.6c-0.9-0.2-1.8-0.3-1.9-0.3c-0.5,0-0.7-0.1-0.9-0.1c-0.3,0-0.2-0.3-0.4-0.3c-0.7-0.1-1.3,0.2-1.9,0.2
	c-0.7,0-1.3,0-1.9,0.2c-0.5,0.1-1.2,0.4-1.7,0.6C30,3.1,28.7,3.7,29,3.9"/>
<path class="st1" d="M24.9,9.5c0-0.1-0.2,0.3-0.4,0.5c-0.2,0.4-0.2,0.4-0.3,0.7C24,11.3,23.9,12,24,12.6c0.1,0.5,0.3,0.7,0.6,1.1
	c0.4,0.5,1,0.6,1.5,0.8c1,0.4,1.9,0.8,2.9,1c0.6,0.1,1,0,1.4-0.4c0.2-0.1,0.3-0.3,0.4-0.5s0-0.6,0.1-0.9c0.1-0.8,0.2-1.8,0.3-2.6
	c0-0.2,0-0.5-0.1-0.6s-0.3-0.3-0.4-0.4c-0.3-0.4-0.6-0.3-1.1-0.4c-0.4-0.1-0.7-0.3-1.1-0.4c-0.4-0.2-0.8-0.3-1.3-0.4s-1-0.1-1.4,0
	C25.6,9.1,25.3,9.4,24.9,9.5"/>
<path class="st1" d="M39,8.3c0,0.1,0.1,0.5,0.2,0.6c-0.7,0-0.6,0.8-0.5,1.2c0,0.3,0.1,0.5,0.2,0.8c0,0.3,0.1,0.5,0.1,0.8
	c0.2,0.9,0.6,1.8,0.8,2.7c0.1,0.5,0.5,0.8,1,1c0.2,0.1,0.5,0.1,0.8,0.1s0.6,0.1,0.9,0.1c0.1,0,0.3,0,0.4,0c0.1,0,0.2,0.1,0.3,0.1
	c0.3,0.1,0.6,0,0.9-0.1c0.5-0.1,0.6-0.5,1-0.9c0.1-0.1,0.3-0.1,0.3-0.2c0.1-0.1,0.1-0.3,0.2-0.4c0.2-0.3,0.2-0.6,0.2-1
	c0-0.3,0.1-0.6,0.2-0.9c0.1-0.2,0.3-0.8,0.1-1c0.1-0.1,0.1-0.4,0.1-0.6c0-0.1,0.1-0.2,0.1-0.3s-0.1-0.2-0.1-0.4
	c0-0.5,0.4-0.8,0.4-1.4S46.1,8,45.8,7.7c-0.2-0.2-0.3-0.3-0.6-0.4c-0.2-0.1-0.4-0.2-0.6-0.2c-1-0.4-2.3-0.5-3.3-0.2
	C40.9,7,40.4,7.2,40,7.3c-0.2,0.1-0.4,0.3-0.6,0.4C39.3,8.1,39,8.1,39,8.3"/>
<path class="st1" d="M41.1,20.1c0.2,1.1,1.6,5.7,1.7,6c0.1,0.3,0.3,0,0.5-0.1c0.4-0.1,0.8-0.2,1.2-0.4c0.2-0.1,0.3-0.2,0.5-0.3
	c0.2-0.1,0.2-0.3,0.4-0.4c0-0.2,0.1-0.4,0.1-0.6s0.1-0.4,0.1-0.6s0-0.5,0-0.7s-0.1-0.4-0.1-0.6c0-0.4,0.3-0.8,0.4-1.2
	c0-0.3,0-0.7,0-1.4c0-0.4-0.5-0.5-0.9-0.5c-0.2,0-0.5,0-0.7,0.1c-0.2,0-0.5,0.1-0.7,0.1c-0.4,0.1-0.8,0.3-1.2,0.4s-0.9,0-1.4,0
	L41.1,20.1z"/>
<path class="st1" d="M33.9,21.1c-0.1,0.2-0.2,0.4-0.3,0.6c-0.2,0.6-0.4,0.8-0.6,1.4c-0.2,0.5-0.5,1.3-0.8,1.8
	c-0.2,0.4-0.2,0.5-0.4,0.9c-0.2,0.4-1.2,2.6-0.1,2.4c0.3,0,0.6-0.2,0.8-0.1c0.1,0,0.2,0.2,0.3,0.2s0.3,0,0.5,0
	c0.5,0.1,1.1,0.1,1.6,0.2c0.6,0.1,1.1-0.2,1.6-0.2c0.1,0,0.3,0.1,0.4,0.1c0.1,0,0.1-0.1,0.1-0.1c0.1,0,0.1,0.1,0.1,0.1
	c0.3,0,0.6,0,0.9,0c0.5,0.1,1,0.3,1.1-0.3c0.1-0.4-0.2-0.9-0.3-1.4c-0.2-0.5-0.4-0.8-0.6-1.3c-0.2-0.5-0.3-1-0.5-1.5s-0.4-1-0.6-1.5
	c-0.1-0.5-0.3-1-0.6-1.4c-0.3-0.5-0.7-0.8-1.1-1.1c-0.4-0.3-0.9,0-1.2,0.3C34.1,20.5,34,20.8,33.9,21.1z"/>
<path class="st1" d="M25.2,19c-1.4-0.3-0.8,5.4-0.4,6.1s1.1-0.3,1.5-0.6c0.5-0.5,0.9-0.9,1.3-1.4c0.6-0.9,1.2-1.7,1.5-2.6
	c0.3-0.8-1.2-1-1.7-1.1c-0.4-0.1-0.9,0.1-1.4,0c-0.2,0-0.4-0.1-0.6-0.2c-0.2,0-0.4-0.2-0.6-0.2"/>
<path class="st1" d="M74,6.1c-0.2,0.2-0.4,0.5-0.6,0.7c-0.1,0.1-0.2,0.3-0.3,0.4c0,0.1,0,0.2,0,0.3c0,0,0,0,0,0.1c0,0-0.1,0-0.1,0.1
	c-0.1,0.3-0.3,0.6-0.3,1s0,0.7,0.2,1c0.1,0.3,0.2,0.6,0.4,0.9c0.2,0.3,0.4,0.5,0.5,0.8c0.1,0.1,0.2,0.3,0.3,0.4
	c0.1,0.1,0.2,0.3,0.2,0.4h0.1c0.1,0.2,0.2,0.3,0.3,0.5c0.1,0.2,0.2,0.4,0.2,0.6c0,0.5-0.1,0.8-0.3,1.2c-0.2,0.3-0.5,0.6-0.9,0.7
	c-0.2,0.1-0.4,0.1-0.5,0.2c-0.2,0.1-0.4,0.2-0.5,0.3c0,0.1-0.3,0.3-0.4,0.5c-0.1,0.2-0.2,0.4-0.3,0.6c0,0.2-0.1,0.5-0.1,0.7
	c0,0.3,0.1,0.5,0.2,0.7c0.1,0.4,0.2,0.9,0.2,1.4c0,0.2-0.1,0.4-0.2,0.6c0,0.7,0,1.3-0.1,2c0,0.2,0,0.4-0.1,0.6
	c-0.1,0.1-0.1,0.3-0.2,0.4c-0.2,0.3-0.3,0.6-0.4,1c0,0.2,0,0.5,0.1,0.6s0.2,0.4,0.3,0.4c0.1,0.3,0.4,0.6,0.5,0.9
	c0.2,0.4,0.2,0.7,0.1,1.1s-0.1,0.9-0.1,1.3s-0.1,0.9,0,1.3c0,0.2,0.1,0.4,0.1,0.5c0.1,0.2,0,0.4,0.1,0.6c0,0.4,0,0.8,0.1,1.2
	c0.1,0.3,0.4,0.6,0.6,0.8c0.3,0.2,0.4,0.6,0.5,0.9c0.2,0.8,0.2,1.7,0.9,2.2c0.2,0.1,0.4,0.2,0.6,0.3c0.3,0.1,0.5,0,0.7,0.1
	c0.4,0.1,0.8,0,1.2,0.1c0.5,0.1,0.9-0.2,1.3-0.3s0.8-0.4,1.2-0.6c0.4-0.2,0.8-0.6,1.2-0.9c0.3-0.2,0.7-0.5,1.1-0.6
	c0.1,0,0.1,0,0.3,0c0.1,0,0.2-0.1,0.3-0.2c0.2-0.1,0.3-0.2,0.5-0.3c0.2-0.2,0.5-0.4,0.7-0.5c0.3-0.3,0.5-0.5,0.8-0.8
	c0.2-0.2,0.4-0.4,0.5-0.7c0.1-0.2,0.3-0.5,0.4-0.7c0.2-0.4,0.6-0.7,0.9-1c0.4-0.4,0.8-0.8,1.2-1.1c0.4-0.4,1-0.7,1.3-1.1
	s0.5-1,0.6-1.4s0.3-0.9,0.5-1.3c0.4-0.9,0.3-1.9,0.4-2.9c0.1-0.5,0.3-0.9,0.5-1.4c0.1-0.2,0.1-0.4,0.2-0.6s0-0.4,0.1-0.7
	c0.1-0.5,0.6-0.5,1-0.5c0.2,0,0.3,0,0.5,0.2c0.2,0.1,0.2,0.3,0.2,0.5c0.2,0.8,0.2,1.7,0.2,2.6c0,0.4-0.1,0.8-0.3,1.2
	c-0.1,0.4-0.2,0.8-0.3,1.2c-0.1,0.8-0.4,1.4-0.7,2.1c-0.1,0.2-0.2,0.3-0.3,0.5c-0.1,0.2-0.1,0.4-0.3,0.5c-0.3,0.3-0.3,0.6-0.5,0.9
	s-0.3,0.6-0.5,0.9s-0.5,0.6-0.7,0.9c-0.1,0.1-0.2,0.3-0.2,0.4c-0.1,0.3-0.4,0.5-0.5,0.7h-0.1c0,0.1-0.2,0.3-0.3,0.4
	c-0.1,0.1-0.2,0.2-0.3,0.3c-0.2,0.2-0.3,0.5-0.5,0.7s-0.4,0.4-0.6,0.6c-0.2,0.2-0.5,0.4-0.8,0.6c-0.5,0.4-1.1,0.7-1.6,1.1
	c-0.4,0.3-1,0.5-1.4,0.8s-0.9,0.4-1.4,0.7c-0.4,0.2-0.8,0.3-1.2,0.5c-0.7,0.3-1.6,0.3-2.3,0.5c-0.2,0-0.4,0.1-0.6,0.1
	s-0.4,0.1-0.6,0.1c-0.4,0-0.8,0.2-1.2,0.1c-0.2,0-0.4-0.1-0.6-0.1s-0.4,0-0.6,0s-0.3-0.1-0.5-0.1c-0.1,0-0.1-0.1-0.3-0.1
	c-0.1,0-0.2,0-0.4,0.1c-0.8,0-1.7-0.2-2.4-0.5c-0.4-0.2-0.7-0.3-1.1-0.4c-0.2-0.1-0.4-0.2-0.6-0.3s-0.5-0.2-0.7-0.3
	s-0.4-0.2-0.6-0.3s-0.4-0.3-0.6-0.4c-0.2-0.1-0.4-0.2-0.6-0.2c-0.2-0.1-0.4-0.3-0.5-0.4c-0.3-0.2-0.6-0.4-0.9-0.5
	c-0.2-0.1-0.3,0-0.4-0.1s0-0.1-0.1-0.2c-0.2-0.4-0.2-0.8-0.2-1.3s-0.2-1.2-0.2-1.7c0-0.2-0.1-0.4-0.2-0.6c-0.1-0.2,0-0.5,0-0.7
	c-0.1-0.6-0.2-1.2-0.3-1.7c-0.1-0.4-0.2-0.8-0.3-1.2c-0.1-0.5-0.1-1-0.3-1.4c-0.3-0.9-0.8-1.8-1.2-2.7c-0.3-0.7-0.7-1.5-1-2.2
	c-0.3-0.6-0.6-1.2-0.7-1.9C60.3,18.2,60,17.6,60,17c0-0.3-0.1-0.5-0.1-0.8c0-0.3,0.1-0.6,0.2-0.9c0.3-0.6,0.5-1.1,0.9-1.5
	c0.2-0.2,0.4-0.5,0.7-0.7c0.3-0.3,0.6-0.5,0.9-0.8c0.5-0.5,0.8-1,1.3-1.5c0.4-0.4,0.7-0.8,1.2-1.2c0.4-0.3,0.8-0.7,1.2-1
	c0.6-0.3,1.2-0.6,1.8-1c0.4-0.2,0.8-0.4,1.1-0.6s0.7-0.3,0.9-0.5c0.3-0.3,0.4-0.6,0.7-0.9c0.3-0.4,0.9-0.6,1.3-0.8
	c0.6-0.2,1.2-0.4,1.8-0.4c0.2,0,0.4,0,0.7,0.1c0.1,0,0.2,0,0.3,0.1C75,4.7,75,4.7,75.2,4.8c0.1,0.3,0.1,0.4-0.2,0.6
	c-0.2,0.1-0.4,0.1-0.6,0.3c-0.1,0.1-0.1,0.2-0.1,0.2C74.2,5.9,74.1,6,74,6.1z"/>
<path class="st1" d="M28.4,3c0,0-3.3,2-6.4,4.4c-2,1.6-2.9,2.3-3.4,4.1c-0.5,1.7-1.7,5.3-1.9,6.7c-0.2,1.4,1,2.5,1.3,3.4
	c0.3,1,0.4,1.8,0.7,1.9c0.3,0.1,2.1,1.2,2.1,1.2s-1.5,1.4-1,2.1c0.3,0.4,2.4,3.5,3,4.4c0.6,0.9,2.3,3.1,3.5,3.9
	c1.2,0.9,3.6,0.8,5.6,1.1c2.1,0.3,12.5-3.8,13.5-4.1s5.5-12.7,5.9-13.5c1.6-3.1,0.9,5,0.9,5l-1.8,3.8l-2.3,3.2c0,0-2.6,5-6.5,5.7
	c-0.6,0.1-1.5,0.6-2,0.9c-0.5,0.4-0.7,0.4-0.8,0.5s-0.5,0.9-5.1,0.7c-1.9-0.1-5-0.1-7.9-2.1c-1.5-1.1-3.8-3.7-4.9-5.3
	c-1.1-1.6-2.1-3.7-3.4-5.5c-1.2-1.8-2.9-3-2.5-5.8c0.5-2.8,1.7-5.5,2.4-7.6c0.7-1.4,1.7-3.3,2.7-4.5c0.4-0.5,2.2-1.9,2.6-2.1
	C26.3,3.1,28.4,3,28.4,3z"/>
<g>
	<path class="st2" d="M41.4,21.3c0,0.1,0.1,0.2,0.1,0.3c1.6-0.1,3-0.8,4.3-1.7c0-0.1,0-0.2-0.1-0.3C44.4,20.6,43,21.3,41.4,21.3z"/>
	<path class="st2" d="M41.7,22.3c1.5-0.2,2.9-0.8,4.1-1.6v-0.1c0-0.1,0-0.2,0-0.3c-1.3,0.9-2.7,1.4-4.2,1.6
		C41.6,22.1,41.6,22.2,41.7,22.3z"/>
	<path class="st2" d="M41.7,20.1c1,0.1,1.8-0.2,2.5-0.5c0.5-0.2,0.7-0.2,0.8-0.2c-1.1,0.8-2.4,1.4-3.8,1.4c0,0.1,0.1,0.2,0.1,0.4
		c1.5-0.1,2.9-0.8,4.2-1.7c0,0,0.1,0,0.1,0.1c0.1,0.1,0.1,0.2,0.1,0.3v-0.6l0,0c-1.6,0.1-3.7-0.1-4.9-0.1l0.3,1
		C41.2,20.1,41.4,20.1,41.7,20.1z"/>
	<path class="st2" d="M36.4,16.5c-0.2-1.7-0.6-3.5-0.9-5c0,0.2-0.7,3.9-1,5C35,16.5,35.9,16.6,36.4,16.5z"/>
	<path class="st2" d="M30.2,28.9c0.1-0.2,2.8-7,3-7.4l0,0c0.5-2.5,2.1-10.8,2.1-10.8c0-0.2-0.2-1.1-0.3-2c-0.2,0-0.3,0-0.4,0
		c-0.3,1.5-2.2,12-2.4,12.8c-0.3,1-2.5,6.7-2.8,7.5C29.5,28.9,30,28.9,30.2,28.9z"/>
	<path class="st2" d="M45.7,21.1c-0.5,0.4-1,0.7-1.6,1c-0.7,0.3-1.5,0.5-2.3,0.6c0,0.1,0.1,0.2,0.1,0.4c0.8-0.1,1.6-0.3,2.3-0.7
		c0.5-0.2,0.9-0.5,1.3-0.7c0,0.1-0.1,0.2-0.1,0.3c-0.4,0.3-0.9,0.5-1.4,0.7c-0.7,0.3-1.4,0.6-2.1,0.8c0,0.1,0.1,0.2,0.1,0.3
		c0.6-0.2,1.2-0.4,1.8-0.6c0.5-0.2,1-0.5,1.5-0.8c0,0,0,0,0,0.1s0,0.2-0.1,0.3c-0.4,0.3-0.9,0.5-1.4,0.8s-1.1,0.5-1.7,0.6
		c0,0.1,0.1,0.2,0.1,0.3c0.6-0.1,1.1-0.3,1.7-0.6c0.4-0.2,0.8-0.4,1.2-0.6c0,0.1,0,0.2-0.1,0.2c-0.9,0.6-1.8,0.9-2.8,1.1
		c0,0.1,0.1,0.2,0.1,0.3c0.9-0.2,1.8-0.5,2.6-1c0,0,0,0,0,0.1v0.1c-0.8,0.5-1.6,0.9-2.5,1.1c0,0.2,0.1,0.3,0.1,0.4
		c0.8-0.2,1.5-0.5,2.2-0.9c0,0.1-0.1,0.2-0.1,0.3c-0.6,0.4-1.3,0.7-2,0.9c0.1,0.1,0.1,0.2,0.2,0.2c-0.1,0-0.1,0-0.1,0l0.8,2.8
		l2.5-2.6L45.8,21C45.8,20.9,45.8,21,45.7,21.1z"/>
	<path class="st2" d="M52.4,16.9c-0.2-2.5-1-3.8-1.4-4.7s-0.8-1.5-1.9-3.1c-1.1-1.5-2-2.8-2.5-3.3S43.9,4,42.2,3.1
		c-1.6-0.9-4.5-1.3-6-1.4s-5.5,0.5-7.1,1c-1.6,0.4-1.9,0.5-2,0.5c0.1,0.1,0.6,0.2,0.6,0.3s-0.3,0.1-0.6,0.2c-0.6,0.1-2,1-3.3,1.7
		s-2.6,1.9-3.4,3.2s-1.4,3.2-1.6,4.1s-1,3.3-1.5,4.5s-0.5,2.9-0.5,3.2s0.4,0.5,0.5,0.8c0.2,0.3,0.1,1,0.1,1.1
		c-0.1,0.1-0.3-0.5-0.5-0.9c-0.2-0.4-0.3-0.9-0.2-2.1c0.1-1.1,0.5-2.5,0.6-3c0.2-0.5,0.9-2.6,1.3-4.3c0.5-1.7,1.8-4,2.3-4.7
		c0.7-0.7,2.2-1.7,3-2.1c0.8-0.5,2.5-1.5,2.5-1.5V3.3c0,0-1.8,1-2.8,1.5C22.7,5.2,22.1,5.9,21,7c-0.4,0.4-0.7,0.8-1,1.1l-0.3-0.2
		c-0.1,0.1-0.2,0.2-0.3,0.3l0.3,0.2c-0.1,0.1-0.1,0.2-0.2,0.3l-0.3-0.2C19.1,8.7,19.1,8.8,19,9l0.4,0.2c0,0.1-0.1,0.2-0.1,0.3
		l-0.5-0.3c-0.1,0.1-0.1,0.2-0.2,0.4L19,9.9c0,0,0,0.1-0.1,0.1c0,0.1-0.1,0.2-0.1,0.3l0,0L18.3,10c-0.1,0.1-0.1,0.3-0.2,0.4l0.5,0.3
		c0,0.1-0.1,0.2-0.1,0.3l-0.6-0.2c-0.1,0.1-0.1,0.3-0.2,0.4l0.6,0.2c0,0.1-0.1,0.3-0.1,0.4l-0.7-0.2c-0.1,0.1-0.1,0.3-0.2,0.4
		l0.7,0.2c0,0.1-0.1,0.2-0.1,0.3l-0.5-0.3c0,0.1-0.1,0.3-0.1,0.4l0.7,0.2c0,0.1-0.1,0.3-0.1,0.4L17.2,13c0,0.1-0.1,0.3-0.1,0.4
		l0.7,0.2l0,0c0,0.1,0,0.2-0.1,0.3L17,13.7c0,0.1-0.1,0.3-0.1,0.4l0.7,0.2c0,0.1-0.1,0.3-0.1,0.4l-0.8-0.2c0,0.1-0.1,0.3-0.1,0.4
		l0.7,0.2c0-0.1,0.1-0.2,0.1-0.2c-0.3,1-0.6,2.3-0.7,3c-0.1,0.4-0.2,1-0.3,1.6c0-0.1,0-0.1,0-0.2l-0.8-0.2c0,0.1-0.1,0.3-0.1,0.4
		l0.8,0.2c0,0.1,0,0.2,0,0.3l-0.9-0.1c0,0,0,0,0,0.1s0,0.2-0.1,0.4l0.9,0.1c0,0.1,0,0.3,0,0.4l-0.9-0.1c0,0.1,0,0.3,0,0.4l0.9,0.1
		c0,0.1,0,0.2,0,0.3l-0.9,0.1c0,0.2,0,0.3,0,0.4l0.9-0.1v0.1c0,0.1,0,0.2,0.1,0.3l-1,0.1c0,0.1,0,0.3,0.1,0.4l1-0.1
		c0,0.1,0.1,0.2,0.1,0.3l-1,0.4c0,0.1,0.1,0.3,0.2,0.4l1-0.4c0.1,0.1,0.2,0.2,0.2,0.3l-1.1,0.4c0.1,0.1,0.1,0.3,0.2,0.4l1.1-0.5
		c0.1,0.1,0.1,0.1,0.2,0.2L16.2,25c0.1,0.1,0.2,0.2,0.2,0.4l1.4-0.9c0.3,0,0.5,0,0.5,0c0.1,0,0.2,0.1,0.4,0.4
		c0.2,0.3,0.1,0.6,0.9,1.6s1.1,1.1,1.5,1.6s0.6,1.2,1.2,2.1c0.6,1,1.8,2.1,2.6,2.9c0.8,0.8,2.2,2.1,3.1,2.6s2.5,0.7,3.7,1.2
		c1.2,0.5,3.6,0.2,4.8,0.1c1.2-0.1,2.2-0.7,2.9-1c0.6-0.3,2-0.8,2.9-1.1s1.6-0.8,2.5-1.4c0.9-0.6,1.7-1.6,2.3-2.3
		c0.6-0.7,1.2-1.7,1.6-2.4c0.4-0.6,1-1.4,1.4-2.3c0.5-0.9,0.6-1.2,0.8-1.8c0.2-0.5,0.4-1.3,0.4-2.2c0.1-0.9,0.4-1.2,0.4-2.1
		c0.1-0.9-0.4-1.3-0.4-2.1s0-1.6,0-2.3c-0.1-0.7-0.2-1.4-0.5-1.7c-0.3-0.4-0.3-0.7-0.6-1.4s-0.5-0.8-0.9-1.3
		c-0.3-0.5-0.4-0.8-0.9-1.8s-0.9-1.6-1.3-2C46.7,7.4,46.4,7.3,46,7c-0.4-0.3-0.9-0.8-1.5-1.3c-0.5-0.5-1.1-0.8-1.8-0.8
		S41,4.5,40.2,4.2c-0.7-0.3-1.7-1.1-2.3-1.3c-0.5-0.2-1.1-0.4-1.4-0.5c0,0-0.1,0-0.2,0c1.3,0.1,2.6,0.3,3.5,0.5
		c1.7,0.3,4.3,1.8,4.9,2.2s2.6,2.1,3.1,2.7c0.5,0.7,1.3,2,1.6,2.6s1,1.1,1.7,2.8c0.8,1.7,0.7,2.8,0.7,3.4c0.1,0.6,0.3,2.8,0.2,4.1
		c-0.1,1.3-0.3,2.1-0.6,3.3c-0.3,1.1-0.5,1.7-1,2.6s-0.5,0.9-1.1,1.9s-1.7,2.6-2,2.9s-0.6,0.6-1.1,1.1c-0.5,0.6-0.9,1.2-1.6,1.7
		c-0.6,0.4-1.2,0.3-2.3,0.9c-1.2,0.6-1.2,1.1-3.4,1.8s-4.7,0.5-5.7,0.5c-1-0.1-1.3-0.3-2.4-0.5s-2.5-0.7-3.2-1.2
		c-0.7-0.4-0.9-0.9-1.4-1.3c-0.5-0.4-1.3-0.9-1.6-1.3c-0.3-0.3-0.6-0.7-1.4-1.8c-0.9-1.2-2.2-2.9-2.7-3.8s-1.6-1.7-1.7-1.6
		c-0.1,0,0,0.2,0.2,0.3L17.9,27c0.1,0.1,0.2,0.2,0.3,0.3l1.2-0.8l0.1,0.1l0.1,0.1l-1.1,0.8c0.1,0.1,0.2,0.2,0.3,0.3l1.1-0.8
		c0.1,0.1,0.2,0.2,0.2,0.3L19,28.1c0.1,0.1,0.2,0.2,0.3,0.3l1.1-0.8c0.1,0.1,0.1,0.2,0.2,0.2l-1.1,0.8c0.1,0.1,0.2,0.2,0.3,0.3
		l1.1-0.8c0.1,0.1,0.2,0.2,0.2,0.3L20,29.2c0.1,0.1,0.2,0.2,0.3,0.3l1.1-0.8c0,0.1,0.1,0.1,0.2,0.2l-1,0.8c0.1,0.1,0.2,0.2,0.3,0.3
		l1-0.8c0.1,0.1,0.2,0.2,0.2,0.3l-1,0.8c0.1,0.1,0.1,0.2,0.2,0.3c0,0,0,0.1,0.1,0.1l1-0.8c0.1,0.1,0.1,0.2,0.2,0.2l-1.1,0.8
		c0.1,0.1,0.2,0.2,0.3,0.3l1.1-0.8c0.1,0.1,0.2,0.2,0.2,0.3L22,31.5c0.1,0.1,0.2,0.2,0.3,0.3l1.1-0.7l0,0c0.2,0.3,0.5,0.6,0.7,0.9
		l-1,0.8c0.1,0.1,0.2,0.2,0.3,0.3l1-0.7c0.1,0.1,0.1,0.1,0.2,0.2l-0.9,0.8c0.1,0.1,0.2,0.2,0.3,0.3l0.9-0.7c0.1,0.1,0.2,0.2,0.3,0.3
		L24.3,34c0.1,0.1,0.2,0.2,0.3,0.3l0.9-0.7l0.1,0.1l-0.7,0.9c0.1,0.1,0.2,0.2,0.3,0.3l0.7-0.9c0.1,0.1,0.2,0.2,0.3,0.3l-0.7,0.9
		c0.1,0.1,0.2,0.2,0.3,0.3l0.7-0.9c0.1,0,0.1,0.1,0.2,0.1l-0.5,1c0.1,0.1,0.2,0.1,0.2,0.2l0.1,0.1l0.5-1c0.1,0.1,0.2,0.2,0.3,0.2
		l-0.5,1c0.1,0.1,0.2,0.1,0.4,0.2l0.5-1c0.1,0,0.2,0.1,0.2,0.1l-0.5,1c0.1,0.1,0.3,0.1,0.4,0.2l0.5-1c0.1,0.1,0.2,0.1,0.4,0.2
		l-0.5,1c0.1,0.1,0.3,0.1,0.4,0.2l0.5-1c0.1,0,0.2,0.1,0.2,0.1l-0.3,1c0.1,0,0.3,0.1,0.4,0.1l0.3-1c0.6,0.2,1.3,0.4,1.9,0.5
		l-0.5,1.4c0.1,0,0.3,0,0.4,0.1l0.1-0.9c0.1,0,0.2,0,0.3,0v0.9c0.1,0,0.3,0,0.4,0v-0.9c0.1,0,0.3,0,0.4,0v0.9c0.2,0,0.3,0,0.4,0
		v-0.8c0.1,0,0.2,0,0.3,0v0.8c0.1,0,0.3,0,0.4,0v-0.8c0.1,0,0.3,0,0.4,0v0.8c0.1,0,0.3,0,0.4,0v-0.8c0.1,0,0.2,0,0.3,0v0.7
		c0.2,0,0.3,0,0.4,0v-0.7c0.1,0,0.3,0,0.4,0v0.7c0.2,0,0.3,0,0.4,0v-0.7c0.1,0,0.2,0,0.3,0v0.7c0.2,0,0.3,0,0.4,0v-0.7
		c0.1,0,0.3,0,0.4,0v0.6c0.2,0,0.3,0,0.4-0.1v-0.6c0.1,0,0.2,0,0.3,0v0.5c0.2,0,0.3-0.1,0.4-0.1v-0.5c0.1,0,0.1,0,0.2,0
		c0.1,0,0.2,0,0.2-0.1v0.3c0.1,0,0.1-0.1,0.1-0.1c0.1-0.1,0.2-0.1,0.3-0.1v-0.2c0.1,0,0.2-0.1,0.3-0.1v0.2c0.1,0,0.2-0.1,0.3-0.2
		c0,0,0.1-0.1,0.2-0.1v-0.2c0.1-0.1,0.3-0.2,0.4-0.3v0.2c0.1-0.1,0.3-0.1,0.4-0.2v-0.3c0.1,0,0.2-0.1,0.3-0.1v0.4
		c0.1-0.1,0.3-0.1,0.4-0.2v-0.4c0.1-0.1,0.3-0.1,0.4-0.2v0.3c0.1-0.1,0.3-0.2,0.4-0.2v-0.2c0.1,0,0.2-0.1,0.3-0.1v0.2
		c0.2-0.1,0.4-0.1,0.4-0.1v-0.2c0.5-0.2,1.1-0.5,1.7-0.9c0.4-0.3,0.9-0.8,1.4-1.3c1-1.1,2-2.6,2.9-3.7c1.3-1.6,2.2-3.5,3-5.4
		C52.7,22.7,52.7,19.5,52.4,16.9z M34.2,2.3c0.7-0.1,1.3-0.1,2-0.1c-0.3,0-0.6,0-0.6,0s0.1,0.4-0.2,0.9C35.2,3.7,35,4,34.2,4.4
		c-0.8,0.4-1.5,0.2-2.5-0.2c-0.6-0.2-1.2-0.7-1.4-1.1C30.3,3.1,32.1,2.5,34.2,2.3z M27,9.4c0.6,0,1.3,0.2,1.8,0.4
		c-0.3,0-0.6,0-0.9-0.1c-0.6-0.1-1.3-0.2-1.9-0.4C26.3,9.4,26.7,9.4,27,9.4z M27.6,10.1c0.8,0.1,1.6,0.1,2.4,0.1
		c0.3,0.1,0.6,0.2,0.8,0.3c-0.9,0-1.8,0-2.8-0.1c-0.2,0-0.5-0.1-0.7-0.1c-0.8-0.1-1.7-0.3-2.4-0.7l0,0c0,0,0.2-0.1,0.4-0.1
		C26,9.8,26.8,10,27.6,10.1z M45.7,10.5c0.1,0.7,0.1,1.4-0.1,2.1c-0.2,0.9-0.7,1.8-1.3,2.5c-0.2,0-0.4,0.1-0.6,0.1
		c0.4-0.4,0.8-0.9,1-1.5C45.3,12.7,45.6,11.8,45.7,10.5L45.7,10.5z M45.3,11.1L45.3,11.1c-0.1,0.9-0.4,1.7-0.8,2.5
		c-0.3,0.6-0.8,1.1-1.2,1.6c-0.3,0-0.5,0-0.8,0c0.5-0.4,1-0.9,1.5-1.5C44.5,13,45,12.1,45.3,11.1z M44.9,11.3
		c-0.3,0.8-0.7,1.6-1.2,2.2c-0.5,0.6-1.1,1.2-1.7,1.6c-0.3,0-0.6-0.1-0.9-0.1c0.9-0.4,1.7-1,2.4-1.7c0.5-0.5,0.9-1.2,1.3-2
		C44.8,11.3,44.8,11.3,44.9,11.3z M44.4,11.4c-0.3,0.6-0.7,1.2-1.1,1.6c-0.8,0.8-1.8,1.5-2.8,1.9c-0.1,0-0.2-0.1-0.2-0.1
		s0,0-0.1-0.1c0.9-0.3,1.8-0.8,2.6-1.5C43.4,12.7,43.9,12.1,44.4,11.4C44.3,11.4,44.4,11.4,44.4,11.4z M43.9,11.4
		c-0.4,0.7-1,1.3-1.6,1.7c-0.7,0.5-1.5,1-2.4,1.3c-0.1-0.1-0.2-0.3-0.3-0.5c1.1-0.3,2.2-0.8,3.2-1.6c0.3-0.3,0.6-0.6,0.9-1
		C43.8,11.4,43.9,11.4,43.9,11.4z M40.8,7.7c0.4-0.1,0.4-0.1,0.4-0.1s0,0.1,0,0.2V7.7c-0.3,0.1-0.7,0.1-1,0.1
		C40.5,7.8,40.7,7.7,40.8,7.7z M38.1,7.4c0.1,0,0.7-0.2,1.2-0.2c0,0.2,0,0.4,0,0.8c-0.5,0.1-1.1,0.2-1.7,0.3
		c0.3,2.9,0.6,5.7,1.3,8.3c0.1,0,0.3,0,0.7,0L38.1,9c0,0,0.6-0.4,0.8-0.5c0,0,0,0,0.1,0l0,0l0,0c0.1-0.1,0.3-0.2,0.5-0.3
		c0.1,0,0.2,0,0.3,0c0.5,0,1-0.1,1.5-0.1v0.1c-0.6,0.2-1.1,0.3-1.7,0.4c-0.2,0-0.4,0-0.6,0.1l0.1,0.2c0.3,0,0.5,0,0.8-0.1
		c0.5-0.1,1-0.2,1.5-0.3c0,0,0,0.1,0,0.2c-0.5,0.2-1.1,0.3-1.6,0.4c-0.4,0-0.8,0.1-1.2,0.1c0,0.1,0,0.2,0,0.3c1-0.1,2-0.2,2.9-0.5
		c0,0.1,0,0.1,0.1,0.2c-0.9,0.3-1.9,0.5-2.9,0.5c0,0.1,0,0.2,0.1,0.4c1-0.1,2-0.3,2.9-0.6c0,0.1,0.1,0.2,0.1,0.3
		c-0.9,0.4-2,0.5-3,0.6c0,0.1,0,0.3,0.1,0.4c1-0.1,2.1-0.3,3-0.7c0,0,0,0.1,0.1,0.1c-0.9,0.5-2,0.7-3,0.9c0,0.1,0,0.2,0.1,0.4
		c1.1-0.2,2.2-0.5,3.1-1l0.1,0.1c-0.9,0.6-2.1,0.9-3.2,1.1c0,0.1,0.1,0.2,0.1,0.3c1.2-0.2,2.3-0.5,3.3-1.2c0,0.1,0.1,0.1,0.1,0.1
		c-0.9,0.7-2.1,1.2-3.3,1.4c0,0.1,0.1,0.2,0.1,0.3c1.3-0.2,2.6-0.7,3.6-1.5c0.1,0,0.1,0,0.2,0.1c-0.2,0.2-0.5,0.4-0.7,0.6
		c-0.9,0.6-1.9,0.9-2.9,1.1c0,0.1,0.1,0.2,0.1,0.3c1.1-0.2,2.1-0.6,3-1.2c0.3-0.2,0.6-0.4,0.9-0.7h0.1c-0.3,0.3-0.5,0.6-0.8,0.9
		c-0.9,0.7-1.9,1.2-3,1.4c-0.1-0.2-0.1-0.3-0.2-0.5l0.8,3.5c1.3,0,3.5,0,4.6,0.3c0.2,0,0.6,0,1.1,0l0.7-6.6
		c-0.3,1.2-0.9,4.1-1.5,4.4c-0.1,0-0.2,0.1-0.2,0.1c0.5-0.7,0.8-1.5,1-2.3c0.2-1.1,0.3-2.1,0-3.1l0,0c0-0.1,0-0.1-0.1-0.2
		c0.1-0.3,0-0.3,0-0.3V8.5l1.1,0.9l-0.5,7.5c0.4,0,0.7,0.1,0.8,0.1c0,0.9,0,1.6-0.1,2.4c-0.3,0-0.5-0.1-0.7-0.2c0,0,0,0-0.1,0
		c0.1,1,0.3,3.6,0.3,4.1c0,0.7,0,2.5,0,2.5l-0.4,0.4l0,0l-3.6,3.7l-0.1-0.5l0.4-0.4l-2.8-9.9c-0.1,0-0.2,0-0.2,0
		c0,0.6,0.2,1.5,0.3,2c0.2,1.5,0.3,2.7,0.7,4.1c0.4,1.5,0.7,3.4,1.1,5.1c0.4,0.1,0.9,0,1.3,0c0.1,0.6,0.3,1,0.3,1.4
		c-1.4,0-3.6,0.1-5.2,0c-0.1-0.4-0.1-1-0.1-1.3c0.4-0.1,0.9,0,1.4,0c-0.7-3.2-1.5-6.7-2.2-10c-0.2-0.8-0.2-1.1-0.3-1.5
		c-1,0.1-2.2-0.1-3.2,0c-0.1,0.6-0.5,2.1-0.6,2.6l0,0c0,0.1-0.3,0.9-0.7,1.9c0.3-0.6,0.5-1.1,0.8-1.5c0,0.1-0.1,0.2-0.2,0.3
		c0.4-0.2,0.7-0.4,1.1-0.5s1.3-0.4,1.8-0.3c0,0.1,0.1,0.2,0.1,0.3c-1.1,0-2.2,0.2-3.2,0.7c-0.1,0.2-0.2,0.3-0.3,0.5
		c1.1-0.6,2.3-0.8,3.6-0.8c0,0.1,0.1,0.2,0.1,0.3c-1.3,0-2.6,0.1-3.8,0.6c-0.1,0.2-0.2,0.3-0.2,0.5c1.3-0.6,2.7-0.7,4.1-0.7
		c0,0.1,0.1,0.2,0.1,0.2c-1.5-0.1-3,0.1-4.3,0.7c-0.1,0.2-0.1,0.3-0.2,0.5c1.4-0.7,3.1-0.9,4.7-0.7c0,0.1,0.1,0.2,0.1,0.2
		c-1.7-0.1-3.3,0.2-4.9,0.7c-0.1,0.1-0.1,0.2-0.2,0.4c1.6-0.6,3.4-0.9,5.2-0.8c0,0.1,0.1,0.1,0.1,0.2c-1.8-0.1-3.6,0.1-5.3,0.7
		c-0.1,0.2-0.1,0.3-0.2,0.5c1.8-0.7,3.8-1,5.7-0.8c0.1,0.1,0.1,0.3,0.2,0.4c-1.1-0.1-2.2-0.1-3.3,0c-0.9,0.1-1.8,0.3-2.6,0.7
		c-0.1,0.1-0.1,0.3-0.2,0.4c0.9-0.4,2-0.6,3-0.8c1.1-0.1,2.2-0.1,3.3,0c0,0.1,0.1,0.2,0.1,0.3c-1.1-0.1-2.2-0.1-3.3,0.1
		c-1,0.1-2.2,0.4-3.2,0.7c-0.1,0.2-0.1,0.3-0.1,0.4c1.1-0.5,2.5-0.7,3.7-0.9c1.1-0.1,2.1-0.1,3.1,0c0,0.1,0.1,0.2,0.1,0.3
		c-1.1-0.1-2.2,0-3.4,0.1c-1.2,0.2-2.5,0.4-3.6,0.9c0,0.1,0,0.2,0,0.2c0-0.1,0-0.3,0-0.5c-0.4,1-0.7,1.7-0.7,1.8c1.7,0.1,4,0,5.9,0
		c0.7,0,1.5,0,2.1,0c0.1,0.1,0,0.4-0.1,0.5c-2.8,0-6.3,0-9.4,0c-0.2,0.5-0.4,0.9-0.5,1.4c0.2,0,0.4,0,0.6,0.1c0,0.3,0,0.7,0,1.1
		c-1.4-0.2-3.3,0.1-4.7-0.1c-0.1-0.4-0.2-0.7-0.2-1.1c0.4-0.1,0.9,0,1.3,0c1.5-3.6,2.9-7.3,4.4-11c0-0.3,0.1-0.4,0.1-0.6
		c-2.5,0-5.2-0.1-7.5-0.3h-0.1c-0.2,0.7-0.4,2-0.3,2.6c0,0.7,0.5,2.1,0.9,3.2c0.1,0.3,0.2,0.5,0.3,0.8c0.4,1.2,1.5,3.4,1.5,3.5
		l-0.3,0.3c0-0.1-1.2-2.4-1.6-3.6c-0.1-0.2-0.2-0.5-0.3-0.8c-0.4-1.2-0.8-2.5-0.9-3.3c0-0.7,0.2-2,0.4-2.7c-0.9-0.1-1.2-0.1-1.6-0.4
		c0.2-0.9,0.4-1.8,0.6-2.6c0.2,0,0.4,0,0.6,0.1l2.1-6l0.3-0.7l0.5,0.1l-0.2,0.5c0,0.1-0.1,0.1-0.1,0.2c0.9,0.4,1.9,0.7,2.9,0.8
		c1.2,0.2,2.4,0.2,3.5,0.2c0,0.1,0.1,0.2,0.1,0.3c-1.1,0-2.2,0-3.4-0.2c-0.2,0-0.5-0.1-0.7-0.1c-0.8-0.2-1.6-0.4-2.4-0.8
		c-0.1,0-0.1-0.1-0.2-0.1c0,0.1-0.1,0.2-0.1,0.3c0.9,0.5,1.9,0.8,2.9,1c1.3,0.2,2.5,0.3,3.8,0.3c0,0.1,0,0.2,0,0.3c-1,0-2-0.1-3-0.2
		c-0.3,0-0.5-0.1-0.8-0.1c-0.9-0.2-1.9-0.5-2.7-0.9c-0.1,0-0.2-0.1-0.3-0.1c0,0.1-0.1,0.2-0.1,0.3c1,0.5,2.2,0.9,3.2,1.1
		c1.2,0.2,2.4,0.3,3.7,0.4c0,0.1,0,0.2,0,0.3c-1.1,0-2.1-0.1-3.2-0.3c-0.2,0-0.5-0.1-0.7-0.2c-0.8-0.2-1.7-0.5-2.4-0.9
		c-0.2-0.1-0.4-0.2-0.5-0.3c0,0.1-0.1,0.2-0.1,0.3c0.9,0.6,2.1,1,3.1,1.2c1.3,0.3,2.5,0.4,3.8,0.4c0,0.1,0,0.3,0,0.4
		c-1,0-2-0.1-3-0.4c-0.3-0.1-0.5-0.1-0.8-0.2c-0.9-0.2-1.7-0.6-2.5-1c-0.2-0.1-0.4-0.2-0.6-0.4c0,0,0,0,0-0.1l0,0l0,0l0,0L24,11.6
		h-0.3l-1.6,4.3c0.4,0.1,1,0.3,2.2,0.5c2.1,0.2,4.4,0.4,6.4,0.3c0.4-2,0.8-3.8,1.2-6c0-0.2,0-0.5,0-0.9c-0.9-0.2-1.6,0-2.5-0.1
		c-0.3-0.5-0.5-1.1-0.3-1.5C32.2,8.2,35.1,7.8,38.1,7.4z M36.6,28.2L36.6,28.2c-0.5,0.1-1.2,0-1.8,0c0.4-0.1,0.7-0.2,1.1-0.3
		c0.9-0.2,2-0.3,2.9-0.3v0.1C38.1,27.8,37.3,27.9,36.6,28.2z M38.7,28.2c-0.2,0.2-0.6,0.1-1,0.1C38,28.2,38.3,28.2,38.7,28.2z
		 M34.7,27.4c1.3-0.3,2.7-0.4,4-0.3v0.1c-0.9,0-1.9,0.1-2.8,0.3c-0.6,0.1-1.2,0.3-1.8,0.5c-0.1,0-0.3,0.1-0.4,0.1
		c-0.4,0-0.9,0-1.4-0.1C33.1,27.8,33.9,27.6,34.7,27.4z M31.7,27.9c-0.2-0.1-0.3-0.2-0.4-0.3c1-0.5,2.2-0.7,3.2-0.9
		c1.1-0.2,2.2-0.2,3.2-0.2c0.2,0,0.4,0,0.7,0c0,0.1,0.1,0.1,0.1,0.2c-1.2-0.1-2.5,0-3.6,0.2C33.8,27.2,32.7,27.5,31.7,27.9z
		 M36.1,20.9c0,0,0.1,0.1,0.1,0.2c-0.4,0-0.9,0.1-1.2,0.2c-0.5,0.1-0.9,0.2-1.3,0.4c0,0,0,0,0-0.1c0.1-0.1,0.1-0.2,0.2-0.3
		C34.6,21,35.3,20.7,36.1,20.9z M34.4,20.8c0.2-0.2,0.5-0.4,0.8-0.4c0.2,0,0.4,0,0.5,0.1C35.2,20.5,34.8,20.6,34.4,20.8z M25.9,19.6
		c0.1-0.1,0.3-0.1,0.5-0.2c0.1,0,0.3,0.1,0.5,0.1c-0.7,0.3-1.5,0.6-2.1,1.1c0-0.1,0-0.2,0.1-0.3C25.1,20,25.5,19.8,25.9,19.6z
		 M24.9,19.8c0.1-0.4,0.2-0.6,0.2-0.6s0.3,0,0.7,0.1c-0.1,0-0.2,0.1-0.3,0.1C25.3,19.5,25.1,19.6,24.9,19.8z M27.2,19.7
		c0.1,0,0.2-0.1,0.3-0.1c0.2,0,0.4,0.1,0.5,0.1c-0.3,0.1-0.6,0.2-0.9,0.3c-0.9,0.3-1.8,0.8-2.6,1.4c0-0.1,0-0.3,0.1-0.4
		C25.4,20.4,26.3,20,27.2,19.7z M27.4,20.3c0.4-0.1,0.8-0.3,1.3-0.4c0.2,0.1,0.4,0.2,0.4,0.2s0,0,0,0.1c-0.7,0.1-1.5,0.3-2.1,0.6
		c-0.8,0.4-1.7,0.8-2.3,1.4c0-0.1,0-0.2,0-0.3C25.3,21.2,26.4,20.7,27.4,20.3z M27.1,21c0.5-0.2,1.1-0.4,1.8-0.5
		c-0.1,0.1-0.1,0.2-0.2,0.4c-0.6,0.1-1.2,0.3-1.7,0.5c-0.8,0.4-1.7,0.9-2.3,1.5c0-0.1,0-0.2,0-0.3C25.2,21.9,26.1,21.4,27.1,21z
		 M27.1,21.7c0.4-0.2,0.9-0.3,1.3-0.4c-0.1,0.1-0.1,0.3-0.2,0.4c-0.6,0.1-1.1,0.3-1.6,0.6c-0.7,0.4-1.5,0.9-2,1.5c0-0.1,0-0.2,0-0.3
		C25.2,22.6,26.2,22.1,27.1,21.7z M26.8,22.5c0.3-0.2,0.7-0.3,1.1-0.4c-0.1,0.1-0.3,0.3-0.5,0.5c-0.4,0.1-0.7,0.3-1.1,0.5
		c-0.6,0.4-1.2,0.8-1.7,1.3c0-0.1,0-0.2,0-0.2C25.2,23.4,26,22.9,26.8,22.5z M26.6,23.3L26.6,23.3c0,0.1-0.2,0.2-0.3,0.3
		c-0.7,0.6-1.5,1.5-1.5,1.5s0-0.1-0.1-0.3C25.2,24.2,25.9,23.7,26.6,23.3z M26.8,13.9c-0.8-0.3-1.5-0.6-2.2-1.1
		c-0.1-0.1-0.1-0.2-0.1-0.3c0.8,0.5,1.8,0.9,2.6,1.2c1.2,0.4,2.5,0.6,3.8,0.6c0,0.1,0,0.1-0.1,0.2C29.4,14.5,28.1,14.3,26.8,13.9z
		 M30.6,14.9c-0.1,0.1-0.2,0.2-0.2,0.2s0,0-0.3,0c-1.2-0.1-2.3-0.4-3.4-0.9c-0.4-0.2-0.8-0.4-1.2-0.6c0.4,0.2,0.8,0.3,1.2,0.5
		C27.9,14.6,29.3,14.8,30.6,14.9z M27.9,13.6c-0.3-0.1-0.5-0.1-0.8-0.2c-0.9-0.3-1.7-0.6-2.5-1.1c-0.1-0.1-0.3-0.2-0.4-0.3
		c0-0.1,0-0.1-0.1-0.2c0.9,0.6,2.1,1.1,3,1.3c1.2,0.3,2.5,0.5,3.7,0.6c0,0.1,0,0.2,0,0.3C29.9,14,28.9,13.8,27.9,13.6z"/>
	<path class="st2" d="M16.6,18.1c0-0.1,0-0.3,0.1-0.4L16,17.6c0,0.1-0.1,0.3-0.1,0.4L16.6,18.1L16.6,18.1z"/>
	<path class="st2" d="M16.5,18.4l-0.7-0.2c0,0.1-0.1,0.3-0.1,0.4l0.8,0.2C16.5,18.7,16.5,18.5,16.5,18.4z"/>
	<path class="st2" d="M16.8,16.9l-0.7-0.2c0,0.1-0.1,0.3-0.1,0.4l0.7,0.1C16.8,17.2,16.8,17,16.8,16.9z"/>
	<path class="st2" d="M17.3,15.4l-0.8-0.2c0,0.1-0.1,0.3-0.1,0.4l0.7,0.2C17.2,15.7,17.2,15.5,17.3,15.4z"/>
	<path class="st2" d="M17,16.2L16.3,16c0,0.1-0.1,0.3-0.1,0.4l0.7,0.2C17,16.5,17,16.3,17,16.2z"/>
	<path class="st2" d="M18.6,25.5l-1.2,0.9c0.1,0.1,0.2,0.2,0.3,0.3l1.2-0.9C18.7,25.7,18.7,25.6,18.6,25.5z"/>
	<path class="st2" d="M18.3,24.8l-1.4,0.9c0.1,0.1,0.2,0.2,0.3,0.4l1.3-0.9C18.4,25.1,18.4,25,18.3,24.8z"/>
	<path class="st2" d="M30.2,38.1c0.1,0,0.3,0.1,0.4,0.1l0.1-0.9c-0.1,0-0.3-0.1-0.4-0.1L30.2,38.1z"/>
	<path class="st2" d="M29.4,37.9c0.1,0,0.3,0.1,0.4,0.1l0.3-0.9c-0.1,0-0.3-0.1-0.4-0.1L29.4,37.9z"/>
	<path class="st2" d="M23.2,31.8l-1,0.8c0.1,0.1,0.2,0.2,0.3,0.3l1-0.8C23.3,32,23.2,31.9,23.2,31.8z"/>
</g>
<g>
	<path class="st2" d="M69.5,17.5c-0.1,0-0.1,0-0.1,0.1c0,0-0.4,2.6,0.1,4.5c0.6,2.3,1.8,3.8,1.8,3.8s0,0,0.1,0c0,0,0,0,0.1,0v-0.1
		c0,0-1.2-1.4-1.7-3.7c-0.5-1.9-0.1-4.4-0.1-4.4C69.6,17.5,69.6,17.5,69.5,17.5z"/>
	<path class="st2" d="M70,18c-0.1,0-0.1,0-0.1,0.1c0,0-0.3,1.9,0.1,3.5c0.4,1.8,1.2,3,1.2,3s0,0,0.1,0c0,0,0,0,0.1,0
		c0,0,0.1-0.1,0-0.1c0,0-0.8-1.2-1.2-3c-0.4-1.6-0.1-3.4-0.1-3.4C70.1,18,70,18,70,18z"/>
	<path class="st2" d="M70.4,18.1c0,0-0.1,0-0.1,0.1s-0.3,1.6,0,3c0.4,1.5,1,2.5,1,2.6c0,0,0,0,0.1,0c0,0,0,0,0.1,0
		c0,0,0.1-0.1,0-0.1c0,0-0.7-1-1-2.5c-0.3-1.4,0-2.9,0-2.9C70.5,18.2,70.4,18.1,70.4,18.1z"/>
	<path class="st2" d="M70.8,18.3c0,0-0.1,0-0.1,0.1c0,0-0.2,1-0.1,2c0.2,1.3,0.6,2,0.7,2c0,0,0,0,0.1,0l0,0c0,0,0.1-0.1,0-0.1
		c0,0-0.5-0.7-0.6-2C70.7,19.3,70.9,18.3,70.8,18.3C70.9,18.4,70.8,18.3,70.8,18.3z"/>
	<path class="st2" d="M68.5,16.5C68.4,16.5,68.4,16.5,68.5,16.5c-1,5.7,0.4,9.9,3.3,11.6c0,0,0.1,0,0.1-0.1v-0.1
		c-1.8-1.1-2.6-2.7-3.1-4.6C68.3,21.3,68.3,18.7,68.5,16.5C68.6,16.5,68.6,16.5,68.5,16.5z"/>
	<path class="st2" d="M76.1,32C76.1,32,76.2,32,76.1,32c0.1-0.2,0.2-0.5,0.2-0.7l0,0c-0.1,0-0.2,0-0.2,0H76h-0.1c0,0,0,0-0.1,0
		c-0.1,0.1-0.2,0.3-0.3,0.4c-0.4,0.5-0.8,1.1-1.5,1.1c-0.6,0-0.8-0.4-1-0.8c-0.2-0.4-0.4-0.8-0.9-0.9l0,0c0,0,0,0-0.1,0
		c-0.1,0.1-0.2,0.2-0.3,0.3v0.1c0.4,0.2,0.5,0.5,0.5,1c0,0,0,0,0,0.1c0.4,0.1,1,0.5,1.2,0.6c0.1,0,0.1,0.1,0.2,0.2
		c0.1,0.1,0.2,0.2,0.3,0.2c0,0,0,0,0.1,0c0.5,0,0.7-0.2,0.8-0.3c0.1-0.1,0.2-0.1,0.3-0.2c0.1,0,0.2,0,0.3,0c0.1,0,0.1,0,0.2-0.1l0,0
		c0-0.1,0-0.2,0-0.3c0-0.2,0-0.4,0-0.5C75.5,32.1,75.8,32,76.1,32z"/>
	<path class="st2" d="M69.2,16.7C69.2,16.7,69.2,16.6,69.2,16.7C69.2,16.6,69.2,16.6,69.2,16.7c-0.1-0.1-0.2,0-0.2,0
		c-0.4,1.9-0.3,4.5,0.2,6.5c0.2,0.8,0.9,2.7,2.4,4.1l0,0l0,0l0,0v-0.1c-2-1.8-3.1-5.5-2.6-9.3C69.1,17.4,69.1,17.1,69.2,16.7z"/>
	<path class="st2" d="M68,16.5C67.9,16.5,67.9,16.4,68,16.5c-0.1,0-0.1,0-0.2,0l0,0c-1.2,6.4,1,10.7,4.3,13c0,0,0.1,0,0.1-0.2
		c0,0,0-0.1-0.1-0.1c-3-2.3-4.4-5.2-4.4-9.4C67.7,18.6,67.8,17.6,68,16.5L68,16.5z"/>
	<path class="st2" d="M71.2,18.4c0,0-0.1,0-0.1,0.1c0,0-0.2,0.7-0.1,1.3c0.1,0.8,0.3,1.3,0.3,1.3s0,0.1,0.1,0.1l0,0
		c0,0,0.1-0.1,0-0.1c0,0-0.2-0.5-0.3-1.2c-0.1-0.6,0.1-1.3,0.1-1.3C71.3,18.5,71.2,18.4,71.2,18.4z"/>
	<path class="st2" d="M71.6,18.8c0,0-0.1,0-0.1,0.1c-0.1,0.4,0,0.8,0,0.8s0,0.1,0.1,0.1l0,0c0,0,0.1-0.1,0-0.1c0,0-0.1-0.3,0-0.6
		C71.7,18.9,71.6,18.8,71.6,18.8z"/>
	<path class="st2" d="M72.4,27.7L72.4,27.7L72.4,27.7C72.5,27.7,72.5,27.7,72.4,27.7c0.9-0.6,1.7-1,2.5-1c0.3,0,0.5,0,0.8,0.1l0,0
		l0,0c0-0.1,0-0.1,0.1-0.2c0-0.1,0.1-0.2,0.1-0.2v-0.1c-0.2,0-0.4-0.1-0.6-0.1c-0.5,0-1,0.1-1.4,0.3c-0.5,0.1-0.9,0.3-1.5,0.3l0,0
		l0,0c0.1,0.2,0.1,0.3,0.1,0.5C72.4,27.5,72.4,27.6,72.4,27.7z"/>
	<path class="st2" d="M67.3,16.4c-0.1,0-0.1,0-0.1,0.1c-0.1,0.2-0.1,0.4-0.2,0.6v0.1c-0.4,1.9-0.4,4.6,0,6.4c0.3,1.1,0.7,2.2,1.2,3
		c0.7,1.2,1.8,2.3,2.6,3c0.1,0.1,0.7,0.6,0.9,0.7c0,0,0,0,0.1,0c0,0,0.1,0,0.1-0.1s0.1-0.1,0-0.2l0,0c-1.7-1.4-2.8-2.6-3.5-4.1
		c-0.4-0.7-0.7-1.5-1-2.6c0-0.1,0-0.2-0.1-0.3c0-0.1-0.1-0.2-0.1-0.3c-0.2-1.6-0.2-3.2,0-4.9c0.1-0.6,0.2-0.9,0.2-1.1
		c0-0.1,0-0.2,0.1-0.2l0,0C67.4,16.4,67.4,16.4,67.3,16.4z"/>
	<path class="st2" d="M71.8,31.9L71.8,31.9c-0.9-0.2-1.5-0.6-1.9-1.1c0,0,0,0-0.1,0s-0.2,0-0.3,0c-0.1,0-0.2,0-0.3,0l0,0l0,0
		c0.6,1.7,2.1,2.7,3.6,3.4l0,0l0,0c0.2-0.2,0.4-0.5,0.5-0.7l0,0v-0.1c-0.4-0.4-1-0.6-1.6-0.8c0-0.1,0-0.1,0-0.2
		C71.9,32.2,71.9,32.1,71.8,31.9z"/>
	<path class="st2" d="M74.1,22.9c-0.3,0-0.7,0-0.8,0l0,0c-0.3,0-0.6,0-0.9-0.1c0,0,0,0-0.1,0c-0.1,0.2-0.2,0.5-0.1,0.8l0,0l0,0l0,0
		c0.1-0.1,0.2-0.1,0.3-0.2c0.2-0.1,0.5-0.3,0.7-0.3s0.3,0,0.5,0c0.3,0,0.6,0.1,0.7,0.1s0.1,0,0.1,0c0.1,0,0.1-0.1,0.1-0.1V23v-0.1
		l0,0l0,0C74.7,22.9,74.4,22.9,74.1,22.9z"/>
	<path class="st2" d="M71.8,21.7L71.8,21.7C71.7,21.7,71.7,21.7,71.8,21.7C71.7,21.8,71.7,21.8,71.8,21.7c0.1,0.3,0.2,0.5,0.4,0.7
		l0.1,0.1l0,0l0,0c0.3,0,0.6,0,1,0c0.9,0,1.7-0.1,2.5-0.2l0,0c0.4-0.3,1-1.2,0.6-2c0,0,0,0-0.1,0s-0.1,0.1-0.1,0.1
		c0,0.8-0.4,1.2-0.7,1.6c-0.1,0-0.1,0-0.1,0c-0.2,0-0.3-0.2-0.4-0.3c0-0.1-0.1-0.1-0.1-0.2l0,0c-1.4-0.1-2.3-0.3-2.4-1.4l0,0
		c-0.1,0-0.2-0.1-0.2-0.1h-0.1l0,0l0,0c-0.1,0.5,0,0.9,0,1.3c0,0.1,0,0.2,0.1,0.4C71.9,21.7,71.9,21.7,71.8,21.7z"/>
	<path class="st2" d="M72.2,19L72.2,19L72.2,19c0.4-0.3,0.9-0.5,1.5-0.5c0.2,0,0.4,0,0.6,0.1l0,0l0,0v-0.4c0,0,0,0,0-0.1
		C74,18,73.5,18,73.1,18c-0.6,0-1,0.2-1.1,0.5c0,0.1,0,0.1,0.1,0.4C72.1,18.9,72.1,18.9,72.2,19L72.2,19z"/>
	<path class="st2" d="M72,19.7c0.1,0.1,0.3,0.2,0.4,0.2l0,0c0.1,0,0.2-0.1,0.3-0.2c0.1-0.1,0.3-0.2,0.5-0.3c0.3-0.1,0.5-0.1,0.8-0.1
		c0.1,0,0.2,0,0.2,0l0,0l0,0v-0.1c0,0,0-0.1,0-0.2l0,0l0,0c-0.1,0-0.1,0-0.2,0C72.8,18.9,72.2,19.2,72,19.7L72,19.7z"/>
	<path class="st2" d="M75.4,18.1C75.3,18.1,75.3,18.1,75.4,18.1c0,0.6,0.1,1.1,0.3,1.4l0,0l0,0l0,0c0-0.2,0-0.4-0.1-0.5
		c0-0.1-0.1-0.2-0.1-0.4c0.3-0.1,0.6-0.5,0.7-1c0.1-0.4,0.1-0.7-0.1-1c0,0,0,0-0.1,0c0,0,0,0,0,0.1C76.2,17.3,75.9,17.9,75.4,18.1z"
		/>
	<path class="st2" d="M84.3,12.4c-0.1-0.1-0.2,0.1-0.1,0.2c0.5,0.3,0.9,0.7,1.2,1.2c0.1,0.1,0.2,0,0.1-0.1
		C85.3,13.2,84.8,12.7,84.3,12.4z"/>
	<path class="st2" d="M69.9,12.1L69.9,12.1c-1.5-0.2-2.8,0.1-4.1,0.7c-0.1,0.1-0.1,0.3,0.1,0.2c1.1-0.5,2.2-0.8,3.3-0.7l0,0
		c0,0.1-0.1,0.2-0.3,0.2c-0.8-0.1-1.6,0.1-2.3,0.6c-0.1,0.1,0.1,0.1,0.1,0.1c0.6-0.5,1.3-0.6,2-0.6c0,0,0,0,0,0.1l0,0
		c-0.4,0.2-0.8,0.3-1.1,0.5c-0.2,0.1-0.5,0.3-0.8,0.4l0,0l0,0c0,0.1-0.1,0.2,0,0.3l0.1,0.1l0,0l0,0c0.5-0.3,1.1-0.6,1.8-0.8
		c0.6-0.2,1.2-0.5,1.8-0.8c0.1,0,0.1,0,0.2,0c0.2,0,0.4-0.1,0.6-0.3c0,0,0.1,0,0.1-0.1c0.2-0.1,0.5-0.1,0.8-0.1
		c0.2,0,0.3,0.1,0.5,0.1l0,0c0.7,0.1,1.6,0.6,2.7,0.2c0.5-0.1,0.9-0.3,1.3-0.6c0.1,0,0.1-0.2,0-0.1c-0.5,0.3-1,0.6-1.6,0.7
		c-0.6,0.1-1.3,0-1.9-0.2c-0.2-0.1-0.4-0.1-0.7-0.2c-0.1,0-0.1,0-0.2-0.1c-0.2,0-0.3-0.1-0.4-0.1c0,0,0,0,0.1-0.1l0.1-0.1l0,0l0,0
		c-0.4,0-0.4-0.4-0.5-0.9v-0.1c-0.1-1,0.1-2.2,0.5-2.7l0,0c0.1,0.3,0.2,0.6,0.5,0.7c0.1,0,0.2-0.1,0.1-0.1c-0.4,0.1-0.5-0.1-0.6-0.4
		c0-0.1-0.1-0.1-0.1,0c0,0,0,0,0.1-0.1l0,0c0,0,0-0.1,0.1-0.1c0,0.2,0.1,0.4,0.3,0.6c0.1,0.1,0.2,0,0.1-0.1
		c-0.2-0.2-0.3-0.4-0.3-0.6c0-0.1-0.1-0.1-0.1-0.1c0-0.1,0-0.3,0-0.4s0-0.2,0-0.2c0-0.3,0.1-0.6,0.2-0.7c0,0.7-0.1,1.2,0.3,1.8
		c0,0.1,0.2,0,0.2,0c-0.4-0.6-0.3-1.1-0.3-1.8c0-0.1-0.1-0.1-0.1-0.1c0.1-0.2,0.3-0.3,0.5-0.4c0.1,0,0.1-0.1,0.2-0.1c0,0,0,0,0-0.1
		c0,0,0,0-0.1,0c-0.2,0-0.5,0-0.7,0.1c-0.8,0.3-0.9,1.1-1.1,2c0,0.2-0.1,0.4-0.1,0.7c-0.3,0.6-0.5,1.7-0.6,2.5c0,0.1,0,0.3,0,0.4
		c0,0.2,0,0.3,0,0.5C70.6,11.8,70.3,12,69.9,12.1z"/>
	<path class="st2" d="M85.7,12.9L85.7,12.9c0-0.3,0.1-0.4,0.2-0.5s0.2-0.3,0.2-0.5l0,0c-1-1.2-2.5-1.9-4.1-1.9c-0.3,0-0.6,0-0.9,0.1
		L81,10c-0.1-0.1-0.1-0.1-0.2-0.2c0,0,0,0-0.1,0c-0.6,0.4-1.6,0.8-2,1l0,0c-0.1,0.4-0.5,0.6-0.8,0.6s-0.5-0.1-0.7-0.3c0,0,0,0-0.1,0
		l0,0v0.1c-0.1,0.3-0.1,0.6-0.1,1c0,0,0,0,0,0.1c0.2,0.1,0.4,0.2,0.6,0.3c1,0.5,2,1.1,3.3,1.2H81h0.2c0.1,0,0.1,0,0.2,0
		s0.2,0.1,0.3,0.1c0.1,0,0.2,0.1,0.2,0.1l0,0l0,0c0,0,0.3-0.6,0.3-0.7c-0.1-0.1-0.3-0.2-0.7-0.3c-0.2,0-0.3-0.1-0.4-0.2
		c-0.1-0.1-0.3-0.2-0.4-0.2s-0.1,0-0.2,0c-0.2,0-0.3,0-0.5,0.1c-0.1,0-0.3,0.1-0.4,0.1h-0.1c-0.3-0.1-0.5-0.3-0.7-0.4
		c-0.1-0.1-0.1-0.1-0.1-0.1v-0.1l0,0c0.3-0.6,0.8-1.1,1.7-1.4l0.1,0.1c0.2,0.1,0.3,0.2,0.6,0.3h0.1c0-0.1,0-0.2,0-0.3v-0.1
		c0.2,0,0.4,0,0.5,0c1.7,0,3.1,0.6,3.9,1.5c-0.1,0.1-0.1,0.1-0.2,0.1c-0.2-0.1-0.5-0.3-0.7-0.3l0,0c0,0,0,0,0,0.1s0.1,0.2,0.4,0.4
		C85.2,12.5,85.5,12.7,85.7,12.9C85.6,12.9,85.7,12.9,85.7,12.9z"/>
	<path class="st2" d="M77.1,29.6C77.2,29.6,77.2,29.6,77.1,29.6c0.1,0,1.9-1.6,3.2-4c1.2-2.4,1.4-5.2,1.4-5.3c0,0,0-0.1-0.1-0.1
		c0,0-0.1,0-0.1,0.1c0,0-0.2,2.9-1.4,5.2c-1.3,2.4-3.1,3.9-3.1,4C77,29.5,77,29.5,77.1,29.6L77.1,29.6z"/>
	<path class="st2" d="M73,6.3c-0.1,0.3,0,0.6,0.1,0.9c0.1,0.1,0.2,0,0.2-0.1c-0.1-0.2-0.2-0.5-0.1-0.8C73.2,6.2,73.1,6.2,73,6.3z"/>
	<path class="st2" d="M66.9,3.7c0.3,0,1,0.1,1.4,0.1c0.5,0,0.5-0.1,0.7-0.2c0.3-0.1,0.6-0.2,1.2-0.3c1-0.1,2.9-0.1,3.9-0.1
		c1.2,0.1,2.6,0.3,3.6,0.3s2,0.2,2.7,0.3c0.6,0,0.8-0.4,1.6-0.4c0.6,0,0.8,0.2,1.3,0.4c0.5,0.2,1.1,0.4,1.3,0.4
		c0.2,0.1,0.3,0,0.4-0.1s0.1-0.2-0.1-0.3c-0.1-0.1-1.3-0.9-2.8-1.1c-0.7-0.1-1.3-0.1-1.8-0.1s-1.1-0.1-1.6-0.1c-0.8,0-0.7,0-1.9,0
		c-1.2-0.1-3.1-0.4-4.3-0.3c-0.5,0-1.2,0-1.8,0.1c-0.4,0.1-1.3,0.3-1.8,0.4c-1.3,0.3-2.1,0.7-2.3,0.9C66.3,3.8,66.6,3.7,66.9,3.7z"
		/>
	<path class="st2" d="M91.1,12.1c-0.6-1.7-2.5-4.6-3-5.4c-0.5-0.7-1.1-1-1.5-1.5s-0.7-0.8-0.7-0.8s-0.1-0.1-0.2-0.1
		s-0.1,0.1-0.3,0.1c-0.1,0-0.3,0.1-0.4,0.2c0,0.1,0.2,0.2,0.4,0.4c0.2,0.2,0.4,0.3,0.6,0.5s0.3,0.3,0.3,0.5c0,0.1,0.1,0.1,0.2,0.2
		s0.2,0.2,0.2,0.1s0-0.3,0-0.4s0-0.2,0.1,0C86.9,6,88,7.8,88.4,8.6c0.4,0.7,1.2,1.9,1.5,2.4c0.3,0.5,0.6,0.9,0.8,1.2
		c0.3,0.6,0.6,1.9,0.7,2.7s0.2,1,0.3,1.3c0.2,0.3,0.3,0.5,0.5,1s0.5,2.2,0.5,3.4c0,1.3-0.5,4.1-1,5.3c-1,2.3-1.2,2.2-1.5,2.5
		c-0.6,0.7-1.7,3.1-2.2,3.6c-0.3,0.3-1.1,1-2,1.7c-0.8,0.7-1.8,1.3-2.4,1.6c-0.8,0.4-2.9,1.4-3.7,1.6c-0.8,0.2-1.3,0.5-3.4,0.7
		c-2,0.2-3.8-0.3-4.3-0.4c-0.5-0.2-2.2-0.9-3.4-1.3c-1.2-0.5-2.9-1-3.4-1.3s-1.5-1.3-2-1.6s-0.5,0-1.9-1.1c-1.3-1-1.6-1.6-1.7-1.7
		c0-0.1,0-0.2,0-0.2l0,0c0.9,0.7,1.6,1.9,2.8,2.3c0.6,0.2,1.1,0.7,1.7,0.9c0.1-1.5,1.1-2.3,1.7-3.3c-1.2-1.5-2.1-3.5-2.6-5.7
		c-0.1-1.3-0.4-3.2,0.7-3.7c0.1-1.1,0.3-2.5,0.6-3.5c-0.3-0.5-0.1-1.4-0.2-2.1c0-0.1,0-0.2-0.1-0.3c-0.1,0-0.1,0-0.3,0.2
		c-0.2,0.2-0.3,0.5-0.6,0.7c-0.1,0-0.3-0.1-0.4,0c-0.1,0.1-0.4,0.4-0.6,0.4c-0.1-0.1-0.2-0.1-0.3-0.2c0,0,0.3-0.7,0.7-1.4
		c0-0.1,0.1-0.2,0-0.2c0.2-0.1,0.2,0.1-0.1,0.4c-0.4,0.3-0.8,0.8-0.9,0.9c0,0-0.1-0.1-0.2-0.3c0.7-0.6,0.7-0.9,1.2-1.6
		c0.1-0.2,0.6-0.5,0.7-0.7c0.1-0.1,0-0.1,0-0.2c-0.8,0.5-1.4,1.1-2.1,1.9c0,0-0.1-0.1-0.1-0.2c0.4-0.6,0.8-1.1,1.2-1.6v-0.5
		c0.5-0.5,1.2-0.9,1.8-1.2c0.9-0.1,1.7-0.5,2.6-0.6c0.2,0,0.5-0.1,0.7-0.1c0.9,0,1.7,1.5,2.4,1.3c0.3-0.5,0.1-1.1,0.2-1.7
		c0.2-0.8,0.6-1.3,0.6-2.2c0.1-1.1,0.4-2.1,1.5-2.4c0.7-0.3,1.2,0,1.7,0.2c0.8,0.9,2.1,1.9,2.7,3.1c0.2,0.4,0,1.3,0.2,1.8
		c0.3,0.1,0.4,0.5,0.7,0.5c0.4,0,0.5-0.6,1-0.6c0.9-0.1,1.3-0.5,1.8-1c0.3,0.3,0.7,0.2,1.1,0.2c2.1,0,4.1,0.9,4.8,2.2
		c0.2,0.4,0.1,0.9-0.1,1.3c0.2,0.2,0.7,0.3,0.5,0.8c0.1,0.1,0.2-0.1,0.2,0.1c-0.1,0.4-0.7,0.3-0.9,0.4c0.2,0.1,0.3,0.1,0.4,0.3
		c-0.3,0-0.5,0.3-0.7,0.3c-0.9,0.1-1.2-1.2-2-1.3c0.1,0.2-0.1,0.2-0.1,0.3c0.6,0.3,1.9,1.3,1.2,1.8c-0.5,0-1.2,0.1-1.7,0.2
		c0,0.6,0,1.2,0.2,1.7c0.1,0.3,0.5,0.7,0.5,0.9c0,0.1-0.2,0.3-0.2,0.4c-0.2,0.5-0.3,0.9-0.2,1.6c0.1,0.9,0.2,1.9,0.1,2.7
		c-0.1,0.7-0.3,1.4-0.4,2c-0.3,1.2-1,2.2-1.3,3.5v0.5c-0.7,0.3-1.2,0.8-1.7,1.4c-0.1,0.1,0.4,0.4,0.4,0.5c-0.4,0.5-0.5,1.5-0.9,2.3
		c-0.4,0.5-1.2,1-1.6,1.5l0.2,0.4c0,0.1-0.2,0.4-0.5,0.5c-0.1,0-0.2-0.1-0.4-0.1c-0.8-0.1-1.3,0.2-1.7,0.4c0,0-0.1,0.1-0.1,0V36
		c-0.1-0.4-0.3-0.7-0.4-0.8c-0.6-0.4-1.7-0.3-1.8,0.5c0,0.1-0.1,0.3-0.1,0.3l-0.1,0.1c-0.1,0-0.2-0.1-0.3-0.2
		c-0.8-0.5-1.7-1.2-1.9-1.3c-0.1,0-0.3,0-0.4-0.1c-0.7-0.4-1.1-1.2-1.9-1.6c-0.3,0-0.1,0.4-0.2,0.7c0,0.3-0.3,0.9-0.5,0.8
		c-0.7-0.2-1.6-0.4-1.9-1.1l0,0c-0.2,0-0.3,0.2-0.4,0.4c0.4,0.4,0.8,0.8,1.5,1c1.9,0.2,3.2,1.7,5.1,2.1c0.1,0,0.3,0.1,0.4,0.1
		c0.8,0.1,1.5,0.1,2.3,0.2c0.5,0.1,0.8,0.2,1.4,0.1c0.6-0.2,1,0,1.4-0.1c0.8-0.1,1.8-0.6,2.5-0.8s1.5-0.4,2.2-0.6
		c0.4-0.1,1.3-0.5,1.7-0.7c2.1-1.4,3.4-3.3,4.7-5.5c0.3-0.5,0.5-1,0.9-1.2c1.2-0.6,1.7-1.6,2.1-3c0.1-0.6,0.2-0.8,0.3-1.2
		c0.4-1.6,0.5-3.6,0.4-5.2c-0.1-1.5-1.4-3.2-1.5-4.7c-0.1-1.1-0.3-1.7-0.7-2.4c-0.2-0.4-1.3-1.6-2.2-3.2C87.9,8,87.5,7.5,87.1,7
		s-0.8-1.1-1.2-1.5c-0.5-0.4-1.3-0.7-1.8-1C83.7,4.3,83.3,4,83,3.8c-1.3-0.4-1.9,0.4-2.7,0.4c-0.4,0-0.4,0-0.7-0.1
		c-1.8-0.6-4.3-0.3-6.5-0.4c-0.9-0.1-1.8-0.1-2.6,0c-0.6,0.1-1,0.3-1.5,0.6c-0.2,0.1-0.5,0.1-0.6,0.3c-0.1,0.1-0.1,0.3-0.1,0.4
		c-0.1,0.3-0.2,0.6-0.3,1c0,0.3-0.1,0.6-0.2,0.5c-0.4-0.4-1-0.7-1.6-1c-0.1-0.1-0.3,0-0.4,0.2c-0.2,0.3-0.4,0.4-0.9,0.6
		c-0.9,0.2-1.5,0.6-2,1.2c-0.2,0.4-0.4,0.9-0.6,1.3c-0.5,0.7-1.2,1.4-1.8,2.2s-1.1,1.6-1.7,2.3c-0.6,0.8-1.5,1.6-1.6,2.9
		c-0.2,2.9-0.7,5.5-0.2,8.5c0,0.2,0.1,0.4,0.2,0.7c0.5,1.2,0.3,1.4,0.4,1.6c0.2,0.5,1.2,0.6,2.2,0.5c0.1,0,0.2,0,0.3,0
		c0.3,0.1,0.3,0.3,0.4,0.6c0,0.1,0.1,0.2,0.2,0.3c0,0-0.1-0.1-0.2-0.2c-0.1-0.1-0.2-0.2-0.3-0.2c-0.3-0.1-0.4,0-0.8,0
		c-0.4,0.1-0.5,0.2-0.9,0.2c-0.7,0-0.8-0.4-1-0.9s-0.2-0.9-0.3-1.6c-0.1-0.6-0.2-0.5-0.4-1.1c-0.2-0.5-0.3-1.2-0.3-1.8
		c0-0.6,0.1-1,0-1.4c0-0.4-0.1-0.5-0.1-1.4s0.4-1.7,0.5-2.6c0-0.9,0-1,0.4-2.1s1.1-1.7,1.5-2.3s0.6-1.1,1.4-2.1
		c0.8-1,1.3-1.6,1.9-2.2c0.5-0.6,0.7-1.2,1.1-1.7c0.3-0.5,0.7-0.6,1.2-0.9s1.3-0.4,1.2-0.5c0,0-0.4,0-0.6-0.2C64.9,5.2,65,5,64.9,5
		s-1.2,0.9-2,1.6l0,0h-0.1c0,0-0.1,0.1-0.3,0.2l0.2,0.1c-0.1,0.1-0.2,0.2-0.2,0.3l-0.4-0.3C62,7,61.9,7.1,61.8,7.2l0.4,0.3
		c-0.1,0.1-0.1,0.2-0.2,0.3l-0.4-0.4c-0.1,0.1-0.1,0.1-0.1,0.2c0,0-0.1,0.1-0.1,0.2l0.5,0.4c-0.1,0.1-0.2,0.2-0.2,0.3l-0.6-0.4
		c-0.1,0.1-0.2,0.2-0.2,0.4l0.4,0.4c-0.1,0.1-0.1,0.2-0.2,0.2l-0.4-0.4c-0.1,0.1-0.2,0.2-0.2,0.4l0.4,0.3c-0.1,0.1-0.1,0.1-0.2,0.2
		l-0.1,0.1l-0.4-0.3C60.1,9.5,60,9.6,60,9.8l0.4,0.3c-0.1,0.1-0.1,0.2-0.2,0.2L59.8,10c-0.1,0.1-0.2,0.2-0.3,0.3l0.4,0.3
		c-0.1,0.1-0.2,0.2-0.2,0.3l-0.4-0.3c-0.1,0.1-0.1,0.2-0.2,0.2L59,10.9l0.4,0.3c-0.1,0.1-0.1,0.2-0.2,0.2l-0.4-0.3
		c-0.1,0.1-0.2,0.2-0.3,0.3l0.4,0.3c-0.1,0.1-0.2,0.2-0.3,0.3l-0.4-0.3c-0.1,0.1-0.2,0.2-0.3,0.4l0.4,0.3c-0.1,0.1-0.1,0.2-0.2,0.2
		l0,0l-0.4-0.2c-0.1,0.1-0.2,0.2-0.2,0.4l0.6,0.4c-0.1,0.1-0.1,0.2-0.2,0.4l-0.5-0.3c-0.1,0.1-0.2,0.3-0.2,0.4l0.5,0.3
		c0,0.1-0.1,0.2-0.1,0.3L57,14.1c-0.1,0.1-0.1,0.2-0.2,0.4l0.6,0.2c-0.1,0.1-0.1,0.3-0.2,0.4l-0.6-0.2c-0.1,0.1-0.1,0.3-0.2,0.4
		l0.6,0.2c0,0.1-0.1,0.2-0.1,0.3l-0.6-0.2c-0.1,0.1-0.1,0.3-0.2,0.4l0.6,0.2c0,0.1-0.1,0.2-0.1,0.4l-0.7-0.2c0,0.1-0.1,0.2-0.1,0.3
		c0,0,0,0.1-0.1,0.1l0.7,0.3c0,0.1,0,0.1,0,0.2v0.1l-0.8-0.1c0,0.1-0.1,0.3-0.1,0.4l0.9,0.1c0,0.1,0,0.3-0.1,0.4L55.4,18
		c0,0.1,0,0.3-0.1,0.4l0.9,0.2c0,0.1,0,0.2,0,0.3l-1-0.1c0,0.1,0,0.3,0,0.4l1,0.1c0,0.1,0,0.3,0,0.4l-1-0.1c0,0.1,0,0.3,0,0.4l1,0.1
		c0,0.1,0,0.2,0,0.3l0,0l-1-0.1c0,0.1,0,0.3,0,0.4l1,0.1c0,0.1,0,0.3,0,0.4l-1-0.1v0.1c0,0.1,0,0.2,0,0.3l1,0.1c0,0.1,0,0.2,0,0.3
		l-1,0.1c0,0.1,0,0.3,0,0.4l1-0.1c0,0.1,0,0.3,0,0.4l-1,0.1c0,0.2,0,0.3,0,0.4l1-0.1c0,0.1,0,0.2,0,0.3l-1,0.1c0,0.2,0,0.3,0,0.4
		l1-0.1c0,0.1,0,0.3,0.1,0.4h-1c0,0.2,0,0.3,0.1,0.4l1.1-0.1c0,0.1,0.1,0.2,0.1,0.3L55.5,25c0,0.1,0.1,0.3,0.1,0.4l1.2-0.3
		c0.1,0.1,0.1,0.3,0.2,0.4l-1.2,0.3c0.1,0.1,0.1,0.3,0.1,0.4l1.2-0.2c0,0.1,0,0.2,0,0.2L56,26.6c0,0.1,0.1,0.3,0.1,0.4l1.1-0.4
		c0,0.1,0,0.3,0.1,0.4l-1,0.4c0,0.1,0.1,0.3,0.1,0.4l1.1-0.4l0,0c0,0.1,0.1,0.2,0.1,0.3l-1.2,0.5c0.1,0.1,0.1,0.2,0.2,0.4l1.1-0.4
		c0.1,0.1,0.1,0.2,0.2,0.4L56.8,29c0.1,0.1,0.2,0.2,0.2,0.4l1.1-0.4c0,0.1,0.1,0.1,0.1,0.1l-0.9,0.7c0.1,0.1,0.2,0.2,0.3,0.3l1-0.7
		c0.1,0,0.4,0,0.8-0.3c0.2-0.2,0.4-0.3,0.6-0.4c0.4-0.2,0.5-0.2,0.6-0.3c0.1,0,0.2,0,0.3,0H61c0,0.1-0.1,0.2-0.2,0.2
		c-0.1,0-0.2-0.1-0.2-0.1c-0.1,0-0.7,0.4-0.9,0.6c-0.2,0.1-0.4,0.3-0.6,0.4l-1.2,0.9c0.1,0.1,0.2,0.2,0.3,0.3l1-0.7
		c0,0.1,0.1,0.2,0.2,0.2l-1,0.7c0.1,0.1,0.2,0.2,0.3,0.3l1-0.7c0.1,0.1,0.2,0.2,0.2,0.3L59,31.5c0.1,0.1,0.2,0.2,0.3,0.3l0.9-0.7
		c0,0.1,0.1,0.1,0.1,0.2l-1,0.9c0.1,0.1,0.2,0.2,0.3,0.3l0.8-0.8c0.1,0.1,0.2,0.2,0.3,0.3l-0.8,0.8l0.1,0.1c0.1,0.1,0.1,0.1,0.2,0.2
		l0.8-0.8l0.1,0.1c0,0,0,0,0.1,0.1l-0.8,0.8c0.1,0.1,0.2,0.2,0.3,0.3l0.7-0.8c0.1,0.1,0.2,0.2,0.3,0.3L61,33.9
		c0.1,0.1,0.2,0.2,0.4,0.2l0.7-0.7c0.1,0,0.1,0.1,0.2,0.1l-0.6,0.8c0.1,0.1,0.3,0.1,0.4,0.2l0.6-0.8c0.1,0.1,0.2,0.1,0.4,0.2
		l-0.6,0.8c0.1,0.1,0.3,0.1,0.4,0.2l0.6-0.8h0.1c0,0,0,0,0.1,0L63.3,35c0.1,0.1,0.3,0.1,0.4,0.2l0.4-0.9c0.1,0.1,0.2,0.1,0.4,0.2
		l-0.4,0.9c0.1,0.1,0.3,0.1,0.4,0.2l0.4-0.9c0.1,0,0.2,0.1,0.3,0.1l-0.4,0.9c0.1,0.1,0.3,0.1,0.4,0.2l0.4-0.9
		c0.1,0.1,0.2,0.1,0.4,0.2l-0.7,1c0.1,0.1,0.3,0.1,0.4,0.2l0.4-0.9c0.1,0,0.2,0.1,0.3,0.1L66,36.5c0.1,0.1,0.3,0.1,0.4,0.2l0.4-0.8
		c0.1,0.1,0.3,0.1,0.4,0.2l-0.3,0.8c0.1,0.1,0.3,0.1,0.4,0.2l0.3-0.8h0.1c0.1,0,0.1,0,0.2,0.1l-0.3,0.8c0.1,0.1,0.3,0.1,0.4,0.2
		l0.3-0.8c0.1,0.1,0.3,0.1,0.4,0.2l-0.3,0.8c0.1,0.1,0.3,0.1,0.4,0.2l0.3-0.8c0.1,0,0.2,0.1,0.2,0.1L69.1,38
		c0.2,0.1,0.3,0.1,0.4,0.1l0.2-0.9c0.1,0,0.3,0.1,0.4,0.1l-0.2,0.9c0.1,0.1,0.3,0.1,0.4,0.2l0.2-0.9c0.1,0,0.2,0.1,0.3,0.1l-0.1,1
		c0.1,0,0.3,0.1,0.4,0.1l0.1-0.9c0.1,0,0.3,0.1,0.4,0.1l-0.1,0.8l0,0c0.1,0,0.3,0,0.4,0l0.1-0.8c0.1,0,0.2,0,0.3,0.1v0.7
		c0.1,0,0.3,0,0.4,0V38c0.1,0,0.2,0,0.3,0h0.1v0.7c0.1,0,0.3,0,0.4,0V38c0.1,0,0.2,0,0.3,0v0.7c0.1,0,0.3,0,0.4,0V38
		c0.1,0,0.3,0,0.4,0v0.6c0.1,0,0.3,0,0.4,0V38c0.1,0,0.2,0,0.3,0v0.6c0.1,0,0.3,0,0.4,0V38c0.1,0,0.3,0,0.4,0v0.6c0.1,0,0.3,0,0.4,0
		v-0.5c0.1,0,0.2,0,0.3,0v0.5c0.1,0,0.3,0,0.4,0v-0.5c0.1,0,0.3,0,0.4,0v0.5c0.1,0,0.2,0,0.3,0H78v-0.5c0.1,0,0.2,0,0.3,0l0.1,0.4
		c0.1,0,0.3-0.1,0.4-0.1L78.7,38c0.1,0,0.3,0,0.4-0.1l0.1,0.3c0.2,0,0.3-0.1,0.4-0.1l-0.1-0.3h0.1c0.1,0,0.1,0,0.2,0V38l0,0
		c0.2-0.1,0.3-0.2,0.3-0.3v-0.1c1.5-0.5,3.2-1.5,3.7-1.8c0.6-0.3,2.6-1.6,3.9-3.1s3-3.5,3.8-6s1.2-3.5,1.3-5.7
		C93.3,18.5,91.7,13.8,91.1,12.1z M82.4,33.2c-0.9,0-1.6,0.4-2.2,0.8c0.1-0.9,1.1-2,0.5-3.1c0.3-0.6,0.6-1.4,1.4-1.4
		c0.2,0.3,0.4,0.6,0.6,0.8C82.9,31.3,83,32.6,82.4,33.2z M60.9,28.3L60.9,28.3L60.9,28.3L60.9,28.3z"/>
	<path class="st2" d="M64.6,33.8C64.6,33.8,64.6,33.9,64.6,33.8C64.6,33.9,64.7,33.9,64.6,33.8l0.2,0.1c0.1-0.1,0.2-0.2,0.2-0.3
		c0.3-0.4,0.7-0.8,1.1-1.1c0,0.2,0,0.6-0.1,0.8l0,0l0,0c0.2,0.2,0.5,0.4,0.8,0.5l0,0l0,0c0-0.2,0-0.3,0-0.4c0,0-0.1-0.1-0.2-0.1
		l-0.1-0.1c0,0,0-0.2,0-0.3v-0.1c0-0.1,0-0.1,0.1-0.1l0,0c0.1,0.2,0.2,0.4,0.3,0.6c0.1,0.3,0.2,0.5,0.4,0.7l0,0l0,0l0,0
		c0-0.2,0.1-0.3,0.2-0.5v-0.1c0,0,0,0,0-0.1c-0.5-0.6-0.8-1.4-0.8-2.3v-0.1c0-0.1,0-0.3,0-0.4c0.1-0.1,0.1-0.1,0.2-0.1
		s0.3,0.1,0.4,0.1h0.1c0.2,0.1,0.4,0.2,0.6,0.2c0.1,0,0.2,0,0.2-0.1l0,0c0.1-0.2-0.1-0.5-0.3-0.7c-0.1-0.2-0.3-0.4-0.5-0.5l0,0
		c0,0,0,0-0.1,0s-0.1,0.1-0.1,0.1c0,0.1-0.1,0.1-0.1,0.1c-2-2.1-3.1-4.6-3.3-7.7c0,0,0,0-0.1,0c0,0-0.1,0-0.1,0.1
		c0,2.8,0.9,5.4,2.9,8c-0.1,0.1-0.2,0.2-0.3,0.3c-0.1,0.1-0.2,0.3-0.4,0.5c-0.1,0.1-0.1,0.2-0.2,0.3c-0.3,0.4-0.8,1-0.7,1.7
		c-0.1,0.2-0.3,0.4-0.4,0.6C64.8,33.6,64.7,33.7,64.6,33.8z"/>
	<path class="st2" d="M64.9,23.6c0.5,2.6,1.5,4.2,2.6,5.9l0,0l0,0c0.3-0.2,0.5-0.3,0.9-0.4l0,0c0,0,0,0,0-0.1
		c-2.4-2.3-3.4-6.1-2.9-10.1c0.1-0.7,0.3-1.3,0.5-1.9c0.1-0.4,0.3-0.8,0.4-1.2l0,0l0,0c-0.1,0-0.1,0-0.2,0c-0.2,0-0.4,0-0.5-0.2
		c0.2-0.7,0.6-1.6-0.1-2.2h-0.1c-0.1,0.1-0.2,0.1-0.3,0.2c-0.1,0-0.1-0.1-0.2-0.1c-0.1-0.1-0.1-0.1-0.2-0.1l0,0
		c-0.6,0.3-1.1,0.8-1.4,1.2c0,0,0,0-0.1,0.1c-0.1,0.2-0.2,0.3-0.2,0.4l0,0c0.1,0,0.1,0.1,0.2,0.1h0.1c0,0,0.1-0.1,0.2-0.2
		c0.1-0.1,0.1-0.2,0.2-0.2c0.2-0.2,0.5-0.4,0.8-0.4c0.1,0,0.1,0,0.2,0l0,0c0,0.2,0.1,0.3,0.2,0.5c0.1,0.1,0.1,0.2,0.1,0.3
		c0,0.2,0,0.4-0.1,0.6s-0.1,0.4-0.1,0.6s0.1,0.2,0.2,0.3c0.1,0.1,0.1,0.1,0.2,0.2C64.9,18.5,64.4,21.2,64.9,23.6z"/>
	<path class="st2" d="M77,27.5L77,27.5c0.1,0,1.6-1.4,2.3-3.4c0.8-2.1,0.7-3.4,0.7-3.4s0-0.1-0.1-0.1c0,0-0.1,0-0.1,0.1
		c0,0,0.1,1.3-0.7,3.4c-0.7,2-2.2,3.3-2.2,3.3C76.9,27.4,76.9,27.5,77,27.5C76.9,27.5,76.9,27.5,77,27.5z"/>
	<path class="st2" d="M77.3,28.4v0.1c0,0,0,0,0.1,0c0,0,0,0,0.1,0c0,0,1.7-2.1,2.6-4.2c0.8-2.1,0.8-4.1,0.8-4.2c0,0,0-0.1-0.1-0.1
		l0,0c0,0-0.1,0-0.1,0.1c0,0,0,2-0.8,4.1C79,26.4,77.3,28.4,77.3,28.4z"/>
	<path class="st2" d="M76.7,26.4L76.7,26.4c0.1,0,1.1-0.8,1.9-3c0.7-1.9,0.5-3.2,0.5-3.2L79,20.1l-0.1,0.1c0,0,0.2,1.3-0.4,3.1
		c-0.8,2.2-1.8,2.9-1.8,2.9C76.6,26.3,76.6,26.3,76.7,26.4L76.7,26.4z"/>
	<path class="st2" d="M84,15.4c0.1,0,0.2,0,0.2,0l0,0c0,0,0-0.1,0.1-0.2c0.1-0.2,0.1-0.4,0-0.5c-0.2-0.1-0.4-0.2-0.6-0.4
		c-0.4-0.3-0.8-0.5-1.3-0.6h-0.1c-0.1,0.2-0.1,0.4-0.2,0.6c-0.2,0.5-0.4,1.1-0.4,1.8l0,0c0.5,1,0.9,2.1,1,3.4l0,0l0,0l0,0
		c0.1-0.1,0.1-0.2,0.2-0.3c0.1-0.2,0.2-0.4,0.2-0.6s-0.1-0.5-0.2-0.9c-0.1-0.2-0.2-0.5-0.2-0.7s-0.1-0.3-0.1-0.5
		C82.7,15.6,83.4,15.5,84,15.4z"/>
	<path class="st2" d="M80.1,29.5c0-0.1,0.1-0.1,0.1-0.2c0.1-0.2,0.2-0.3,0.1-0.5l0,0l0,0c-0.1,0.1-0.1,0.1-0.2,0.2
		c-0.2,0.2-0.5,0.5-0.6,0.7c-0.3,0.1-0.5,0.4-0.7,0.6c-0.1,0.1-0.2,0.2-0.3,0.3h-0.1l0,0c-0.1,0-0.1,0-0.2,0s-0.1,0-0.2,0l0,0l0,0
		c0,0.3,0,0.4,0,0.5c-0.4,0.3-0.8,0.4-1.2,0.6c-0.2,0.1-0.4,0.1-0.6,0.2c-0.3,0.1-0.3,0.4-0.2,0.6c0,0.2,0,0.4-0.1,0.6
		c-0.1,0-0.2,0-0.4,0c-0.1,0-0.3,0-0.4,0S75,33.2,75,33.2l0,0c0,0,0,0,0,0.1l0,0c0.2,0,0.4,0,0.6,0c0.3,0,0.6,0,1,0.1c0,0,0,0,0.1,0
		c0.1-0.2,0.3-0.3,0.4-0.5c0.4-0.4,0.7-0.8,1.2-1.2c0.1-0.1,0.2-0.1,0.3,0c0.3,0.5-0.2,0.8-0.5,1.1L78,32.9
		c-0.2,0.1-0.3,0.3-0.5,0.4c-0.1,0.1-0.2,0.2-0.4,0.3c0,0-0.1,0.1-0.2,0.1c-0.2,0.2-0.7,0.5-0.8,0.5l0,0c-0.3-0.3-0.8-0.5-1.5-0.5
		c-0.4,0-0.9,0.1-1.4,0.5c-1.6-0.4-2.8-1.4-3.6-3l0,0h-0.1c-0.1,0-0.1,0-0.2,0s-0.2,0-0.2,0s0,0-0.1,0c0,0,0,0,0,0.1
		c0.1,0.1,0.1,0.1,0.2,0.2s0.2,0.2,0.2,0.3c0.1,0.2,0.2,0.5,0.3,0.9c0,0.1,0,0.2,0,0.2c0,0.2,0,0.4,0.2,0.6c0.1,0.1,0.4,0.3,0.8,0.5
		c0.7,0.4,1.7,0.9,2.3,1.5c0,0,0,0,0.1,0l0,0c0.2-0.6,0.7-1,1.4-1c0.2,0,0.4,0,0.6,0.1c0.5,0.2,0.6,0.6,0.7,1l0,0l0,0l0,0
		c0.5-0.3,1-0.4,1.3-0.4c0.2,0,0.4,0.1,0.5,0.2c0,0,0,0,0.1,0s0.2-0.1,0.2-0.2l0,0c0,0,0,0,0-0.1s-0.2-0.2-0.2-0.3
		c0.2-0.4,0.6-0.7,0.9-1c0.2-0.2,0.5-0.4,0.7-0.7c0.1-0.2,0.2-0.6,0.3-0.9c0.1-0.2,0.1-0.4,0.2-0.5c0.1-0.3,0.2-0.4,0.1-0.5l0,0l0,0
		c0,0,0,0-0.1,0.1c-0.2,0.1-0.4,0.3-0.6,0.3c0.1-0.3,0.6-1.2,0.9-1.7C80,29.8,80.1,29.6,80.1,29.5z"/>
	<path class="st2" d="M77.1,23.8v0.1c0,0,0,0,0.1,0c0,0,0,0,0.1,0c0,0,0.7-0.7,0.9-2c0.3-1.3,0-2.1,0-2.1l-0.1-0.1L78,19.8
		c0,0,0.2,0.8,0,2C77.7,23.1,77.1,23.8,77.1,23.8z"/>
	<path class="st2" d="M76.7,22.4v0.1c0,0,0,0,0.1,0c0,0,0,0,0.1,0c0,0,0.3-0.3,0.5-0.9c0.1-0.5,0-0.9,0-1l-0.1-0.1l-0.1,0.1
		c0,0,0.1,0.4,0,0.9C76.9,22.1,76.7,22.4,76.7,22.4z"/>
	<path class="st2" d="M81.5,15.7c-0.4-0.2-1-0.3-1.8-0.4c-0.2-0.1-0.4-0.2-0.6-0.3s-0.5-0.2-0.8-0.4c-0.1-0.1-0.3-0.2-0.4-0.3
		c-0.3-0.2-0.7-0.4-1-0.5c-0.3,0-0.6,0.2-1,0.4c-0.2,0.2-0.5,0.4-0.7,0.4s-0.4,0.1-0.7,0.1c-0.3,0-0.5,0-0.8,0s-0.6-0.1-0.9-0.1
		c-0.2,0-0.4,0-0.6,0c-0.2-0.1-0.4-0.2-0.6-0.3c-0.4-0.2-0.8-0.4-1.3-0.5l0,0c-0.1,0.1-0.3,0.2-0.4,0.4c-0.4,0.4-0.8,0.9-1.5,0.9
		l0,0c-0.1,0.1-0.2,0.1-0.3,0.2c-0.2,0.1-0.5,0.3-0.8,0.3c-0.1,0-0.2-0.1-0.3-0.1l0,0c0,0,0,0-0.1,0c0,0,0,0,0,0.1s0,0.1,0,0.2
		c0,0.1,0,0.3,0.1,0.4c0,0,0,0,0.1,0C67.3,16,67.6,16,68,16c0.2,0,0.3,0,0.5,0s0.3,0,0.5,0l0,0l0,0v-0.1c0.3-0.5,0.9-1.2,1.5-1.2
		l0,0c0.4,0,0.8,0.4,1.1,0.8c0,0.1-0.1,0.2-0.1,0.3s0,0.2-0.1,0.3l0,0c-0.6,0-0.8,0.3-1,0.6c0,0,0,0,0,0.1c0.1,0.1,0.2,0.3,0.2,0.5
		c0,0.1-0.1,0.2-0.2,0.2l0,0l0,0c0.1,0,0.2,0.1,0.2,0.1c0.1,0.1,0.3,0.1,0.4,0.2l0,0l0,0c0.2-0.1,0.4-0.4,0.4-0.6s0-0.4-0.1-0.5
		c0.4-0.9,1.2-1.4,2.3-1.4c0.2,0,0.5,0,0.7,0.1c0.8,0.1,1.2,0.6,1.7,1.1c0.2,0.2,0.4,0.4,0.6,0.6l0,0c0,0,0.1,0,0.3,0
		c0.1,0,0.1,0,0.2,0c0.2,0,0.3,0,0.4,0c0,0,0,0,0.1,0c0,0,0,0,0-0.1c-0.1-0.3-0.5-0.5-0.8-0.7c-0.3-0.1-0.6-0.3-0.7-0.5
		s-0.1-0.4,0-0.5c0.2-0.3,0.7-0.5,1.2-0.5c0.2,0,0.4,0,0.5,0.1c0.5,0.2,0.7,0.8,0.8,1.2l0,0l0,0l0,0c0.3-0.2,0.8-0.3,1.5-0.3
		c0.2,0,0.3,0,0.5,0c0.1,0,0.1,0,0.2,0.1c0.1,0,0.2,0.1,0.3,0.1C81.5,15.9,81.5,15.9,81.5,15.7C81.6,15.8,81.6,15.7,81.5,15.7
		C81.6,15.7,81.6,15.7,81.5,15.7z"/>
	<path class="st2" d="M72.8,31.1L72.8,31.1L72.8,31.1c0.3-0.1,0.5-0.2,0.8-0.2c0.2,0,0.4,0,0.6,0s0.4,0,0.6,0c0.3,0,0.6,0,0.8-0.2
		l0,0v-0.3c0,0,0-0.1-0.1-0.1l0,0c-0.2,0-0.4,0.1-0.6,0.1c-0.1,0-0.3,0.1-0.4,0.1s-0.1,0-0.2,0c-0.2,0-0.5,0-0.7-0.1
		c-0.2,0-0.4-0.1-0.7-0.1c-0.2,0-0.4,0-0.6,0.1l0,0C72.4,30.7,72.6,30.9,72.8,31.1z"/>
	<path class="st2" d="M82.4,13.2c-0.1,0-0.1,0.2,0,0.1c0.3,0,0.7,0,0.9,0.2c0.1,0,0.2-0.1,0.1-0.1C83.1,13.2,82.7,13.2,82.4,13.2z"
		/>
	<path class="st2" d="M75.8,9c-0.1-1.3-0.9-1.6-1.5-1.6l0,0c-0.4,0-0.8,0.1-1,0.4c-0.3,0.3-0.4,0.7-0.4,1.1c0,0.8,0.6,1.6,0.9,2
		c0,0.1,0.1,0.1,0.1,0.2c0.2,0.2,0.1,0.4,0.1,0.5s-0.2,0.1-0.2,0.2h-0.1c0,0,0,0-0.1,0l0,0c0,0-0.1,0-0.1,0.1V12c0,0,0,0,0,0.1
		c0,0,0,0,0.1,0c0,0,0,0,0.1,0h0.1c0.1,0,0.4,0,0.7,0c0.2,0,0.5,0,0.5,0l0,0c0,0,0,0,0.1,0s0.2,0,0.2-0.1v-0.1c0,0,0,0-0.1,0l0,0
		c-0.1,0-0.2,0-0.2-0.1c-0.1-0.1-0.1-0.2-0.1-0.3c0-0.2,0.1-0.3,0.2-0.5s0.2-0.3,0.3-0.4c0-0.1,0.1-0.1,0.1-0.2
		c0.1-0.1,0.2-0.2,0.2-0.2l0,0c0,0,0-0.1-0.1-0.1c0,0,0,0-0.1,0L75.4,10l0,0l0,0c-0.1,0.1-0.4,0.4-0.9,0.4l0,0l0,0
		c-0.5,0-1.1-0.4-1.1-1.1c0-0.3,0.1-0.6,0.3-0.8c0.2-0.2,0.5-0.3,0.8-0.3c0,0,0,0,0.1,0c0.7,0,1.2,0.5,1.2,1.2c0,0.1,0,0.2,0.1,0.2
		l0,0l0,0C75.8,9.2,75.8,9.2,75.8,9C75.8,9.1,75.8,9,75.8,9z"/>
	<path class="st2" d="M81.8,12.7c0.4,0,0.9,0.1,1.3,0.3c0.1,0,0.2-0.1,0.1-0.1c-0.4-0.2-0.9-0.3-1.3-0.3
		C81.7,12.6,81.7,12.7,81.8,12.7z"/>
	<path class="st2" d="M79.9,12.2c0.4-0.3,0.9-0.5,1.4-0.3c0.1,0,0.2-0.1,0.1-0.1C80.8,11.6,80.2,11.8,79.9,12.2
		C79.7,12.2,79.8,12.3,79.9,12.2z"/>
	<path class="st2" d="M79.4,12.2c0.3-0.5,0.8-0.8,1.4-0.9c0.1,0,0-0.2-0.1-0.2c-0.6,0.1-1.1,0.5-1.5,1
		C79.1,12.2,79.3,12.3,79.4,12.2z"/>
	<path class="st2" d="M80.4,11c0.1,0,0-0.2-0.1-0.1c-0.6,0.2-1.1,0.6-1.4,1.1c-0.1,0.1,0.1,0.1,0.2,0.1C79.4,11.5,79.9,11.1,80.4,11
		z"/>
	<path class="st2" d="M71.6,9.1c0.3,0.4,0.7,0.7,1.2,0.8c0.1,0,0.1-0.2,0-0.2c-0.5-0.1-0.8-0.4-1.1-0.8C71.6,8.8,71.5,9,71.6,9.1z"
		/>
	<path class="st2" d="M81,12.4c0.4-0.1,0.8-0.1,1.2,0.1c0.1,0,0.2-0.1,0.1-0.1c-0.4-0.2-0.8-0.2-1.3-0.1
		C80.9,12.3,80.9,12.4,81,12.4z"/>
	<path class="st2" d="M72.5,9.2c0.1,0,0.2-0.2,0.1-0.2c-0.3-0.1-0.5-0.3-0.7-0.6c-0.1-0.1-0.2,0.1-0.1,0.1C71.9,8.8,72.2,9,72.5,9.2
		z"/>
	<path class="st2" d="M65.9,10.9c-1,0.1-2.8,1-3,1.5v0.1l0,0l0,0c0.4-0.4,1.9-1.1,3-1.4C66,11,66,11,65.9,10.9
		C66,10.9,65.9,10.9,65.9,10.9z"/>
	<path class="st2" d="M63.6,13.3L63.6,13.3C63.7,13.3,63.7,13.3,63.6,13.3c0.5-0.6,1.4-1.2,2.1-1.6c0,0,0,0,0-0.1c0,0,0,0-0.1,0
		C65.1,11.8,63.9,12.7,63.6,13.3L63.6,13.3z"/>
	<path class="st2" d="M72.7,6.2c0,0.5,0,0.9,0.2,1.3c0.1,0.1,0.2,0,0.1-0.1C72.8,7,72.8,6.6,72.7,6.2C72.8,6.1,72.7,6,72.7,6.2z"/>
	<path class="st2" d="M80.5,29.4c0.1,0,0.1-0.1,0.3-0.2c0.1-0.1,0.2-0.2,0.3-0.3l0,0c0,0,0,0,0,0.1c0,0,0,0.1,0.1,0.1c0,0,0,0,0.1,0
		l0,0c0.1-0.1,0.1-0.3,0.1-0.6c0.1-0.2,0.1-0.5,0.2-0.7s0.2-0.5,0.3-0.7c0.2-0.3,0.4-0.7,0.5-1.1c0.1-0.2,0.1-0.4,0.2-0.7
		c0.2-0.6,0.4-1.3,0.5-1.9l0,0c0,0,0,0-0.1,0c0,0-0.1,0-0.1,0.2c0,0,0,0.1-0.1,0.1c-0.1,0.1-0.2,0.3-0.2,0.4
		c-0.1,0.1-0.2,0.3-0.3,0.5c-0.3,1.2-0.9,2.3-1.6,3.2c0,0,0,0,0,0.1s0.1,0.1,0.2,0.2c0.1,0,0.1,0.1,0.1,0.1
		c-0.1,0.2-0.2,0.3-0.3,0.5C80.7,28.8,80.5,29,80.5,29.4C80.4,29.3,80.4,29.3,80.5,29.4C80.4,29.3,80.5,29.4,80.5,29.4z"/>
	<path class="st2" d="M63.5,13.9L63.5,13.9C63.6,13.9,63.6,13.9,63.5,13.9c0.2-0.1,0.3-0.2,0.4-0.4c0.5-0.5,1.2-1.2,2-1.6
		c0,0,0,0,0-0.1l0,0l0,0c0,0,0,0-0.1,0l0,0C64.9,12.3,64.1,13,63.5,13.9L63.5,13.9z"/>
	<path class="st2" d="M71.5,9.7c0.4,0.4,1,0.7,1.6,0.9c0.1,0,0.2-0.2,0-0.2c-0.6-0.1-1.1-0.4-1.5-0.8C71.6,9.4,71.5,9.6,71.5,9.7z"
		/>
	<path class="st2" d="M71.5,10.2c0.4,0.5,1,0.8,1.7,0.8c0.1,0,0.1-0.2,0-0.2c-0.6,0-1.1-0.3-1.5-0.7C71.6,10,71.4,10.1,71.5,10.2z"
		/>
	<path class="st2" d="M71.7,11c0.3,0.1,0.5,0.3,0.8,0.3c0.3,0.1,0.6,0.2,1,0.2c0.1,0,0.2-0.2,0-0.2c-0.3,0-0.6-0.1-0.9-0.1
		s-0.5-0.2-0.8-0.3C71.8,10.8,71.6,11,71.7,11z"/>
	<path class="st2" d="M76.8,10.8c-0.2,0.3-0.5,0.5-0.8,0.7c-0.2,0.1-0.5,0.2-0.7,0.3c-0.1,0.1,0.1,0.2,0.1,0.1
		c0.3-0.2,0.6-0.3,0.9-0.4c0.2-0.2,0.4-0.4,0.6-0.6C77.1,10.8,76.9,10.7,76.8,10.8z"/>
	<path class="st2" d="M73,13.2c-0.5,0.1-0.9,0.5-1.2,0.8c-0.1,0.1,0.1,0.2,0.2,0.1c0.3-0.3,0.7-0.6,1.1-0.8
		C73.2,13.3,73.2,13.2,73,13.2z"/>
	<path class="st2" d="M73.7,13.3c-0.5,0.2-0.9,0.4-1.3,0.8c-0.1,0.1,0,0.3,0.1,0.2c0.4-0.3,0.8-0.6,1.2-0.7
		C73.8,13.4,73.8,13.2,73.7,13.3z"/>
	<path class="st2" d="M73.7,14.4c0.6-0.5,1.4-0.9,2.2-1.1c0.1,0,0-0.2-0.1-0.2c-0.8,0.2-1.6,0.6-2.2,1.1
		C73.4,14.4,73.6,14.5,73.7,14.4z"/>
	<path class="st2" d="M72.4,13.1c-0.4,0.1-0.8,0.3-1.1,0.6c-0.1,0.1,0.1,0.2,0.2,0.1c0.2-0.3,0.6-0.5,1-0.5
		C72.5,13.3,72.5,13.1,72.4,13.1z"/>
	<path class="st2" d="M74.8,13.2c-0.7,0.2-1.3,0.5-1.9,0.9c-0.1,0.1,0,0.2,0.1,0.2c0.6-0.4,1.2-0.7,1.9-0.9
		C74.9,13.4,74.9,13.2,74.8,13.2z"/>
	<path class="st2" d="M77.4,12.8c-1.1,0.3-2.2,0.8-3.1,1.5c-0.1,0.1,0,0.2,0.1,0.1c0.9-0.7,2-1.2,3.1-1.5
		C77.6,13,77.6,12.8,77.4,12.8z"/>
	<path class="st2" d="M76.3,29.2L76.3,29.2c-0.1-0.1-0.2-0.1-0.3-0.1c-0.3,0-0.6,0.2-0.8,0.3c-0.2,0.1-0.4,0.3-0.6,0.3
		s-0.3,0.1-0.5,0.1l0,0c-0.4,0-0.7-0.1-1-0.3c-0.1-0.1-0.2-0.1-0.4-0.2c0,0,0,0-0.1,0c-0.1,0.1-0.1,0.2-0.2,0.3
		c0,0.1-0.1,0.1-0.1,0.2l0,0l0,0c0.3,0.1,0.6,0.2,1.1,0.2c0.3,0,0.5,0,0.8,0c0.2,0,0.5,0,0.7,0c0.3,0,0.5,0,0.6,0.1l0,0
		c0,0,0,0,0.1,0c0.1-0.2,0.3-0.4,0.4-0.6C76.2,29.5,76.2,29.4,76.3,29.2L76.3,29.2z"/>
	<path class="st2" d="M76.5,23.7L76.5,23.7C76.4,23.7,76.4,23.7,76.5,23.7c-0.2,0.8-0.5,1.3-1.1,1.8c-0.2,0-0.3,0-0.5,0
		c-0.3,0-0.6,0.1-0.9,0.2s-0.6,0.2-1,0.2c-0.5-0.3-0.8-0.9-1-1.5c0,0,0,0-0.1,0l0,0c-0.1,0.5,0,1,0.3,1.3c0.2,0.3,0.2,0.5,0.3,0.6
		c0,0.1,0,0.2,0.1,0.2s0.1,0.1,0.3,0.1c0.3,0,0.8-0.1,1.1-0.2c0.1,0,0.1,0,0.2-0.1c0.4-0.1,0.8-0.3,1.3-0.3c0.1,0,0.2,0,0.3,0l0,0
		C76.2,25.5,76.7,24.8,76.5,23.7z"/>
	<path class="st2" d="M76.2,12.4l-0.1,0.1c-0.5,0.3-1.5,0.5-2.4,0.4c-0.8-0.1-1.4-0.6-2.3-0.5c0,0,0,0-0.1,0c0,0.1-0.1,0.1-0.1,0.2
		c0.2,0,0.4,0,0.6,0.1c0.7,0.1,1.3,0.5,2,0.6c0.9,0.1,1.8-0.1,2.6-0.5c0.1,0,0.1-0.1,0.1-0.1s-0.1,0-0.1-0.1
		C76.5,12.5,76.3,12.4,76.2,12.4z"/>
	<path class="st2" d="M67.2,14c-0.3,0.3-0.4,0.7-0.5,1.1c0,0.1,0.1,0.2,0.2,0c0.1-0.4,0.2-0.7,0.5-1C67.4,14.1,67.3,13.9,67.2,14z"
		/>
	<path class="st2" d="M68.1,13.6c-0.4,0.4-0.7,0.9-0.8,1.5c0,0.1,0.2,0.1,0.2,0c0.1-0.5,0.3-1.1,0.7-1.4
		C68.3,13.6,68.1,13.5,68.1,13.6z"/>
	<path class="st2" d="M69,13.3c-0.5,0.4-1,0.9-1.1,1.6c0,0.1,0.2,0.1,0.2,0c0.1-0.6,0.5-1.1,1-1.4C69.1,13.4,69.1,13.2,69,13.3z"/>
	<path class="st2" d="M66.6,16.4c-0.2,0.3-0.3,1.1-0.4,1.3c-0.5,2.2-0.4,4.7,0.2,6.7c0.4,1.3,1.1,2.7,2,3.8c0.7,0.8,1.3,1.5,2.1,2.2
		c0,0,0.7,0.6,0.8,0.6l0,0c0.1,0,0.1-0.1,0.2-0.1c0,0,0-0.1,0-0.2l0,0c-0.8-0.5-1.5-1.3-2.2-2.1l-0.1-0.2c-2.1-2.3-3.1-5.8-2.7-9.2
		c0.1-1.1,0.4-2.2,0.6-2.7v-0.1c0,0-0.1-0.1-0.2-0.1C66.7,16.3,66.6,16.3,66.6,16.4z"/>
	<path class="st2" d="M82.5,20.8C82.5,20.8,82.4,20.7,82.5,20.8c-0.1-0.1-0.2-0.1-0.2,0c0,0-0.2,2.6-1.4,5c-1.5,3.1-3.9,4.8-3.9,4.8
		v0.1c0,0,0,0,0.1,0l0,0c0,0,2.4-1.7,4-4.8C82.3,23.4,82.5,20.8,82.5,20.8z"/>
	<path class="st2" d="M70.8,13.6c-0.1,0.1,0.1,0.2,0.2,0.1c0.2-0.3,0.6-0.5,1-0.7c0.1,0,0-0.2-0.1-0.1C71.4,13,71,13.2,70.8,13.6z"
		/>
	<path class="st2" d="M70.2,12.7c-0.7,0.5-1.4,1-1.7,1.9c0,0.1,0.2,0.1,0.2,0C68.9,13.8,69.6,13.3,70.2,12.7
		C70.4,12.8,70.2,12.7,70.2,12.7z"/>
	<path class="st2" d="M70.9,12.7c-0.7,0.3-1.3,0.8-1.7,1.5c-0.1,0.1,0.1,0.2,0.2,0.1c0.4-0.6,1-1.1,1.7-1.5
		C71.2,12.8,71,12.7,70.9,12.7z"/>
</g>
<polygon class="st3" points="53.9,72.4 51.6,73.6 52,70.9 50.2,69.1 52.7,68.7 53.9,66.4 55.1,68.7 57.7,69.1 55.8,70.9 56.3,73.6
	"/>
<polygon class="st3" points="43.1,72.4 40.9,73.6 41.3,70.9 39.4,69.1 42,68.7 43.1,66.4 44.4,68.7 46.9,69.1 45.1,70.9 45.5,73.6
	"/>
<polygon class="st3" points="64.6,72.4 62.4,73.6 62.8,70.9 60.9,69.1 63.5,68.7 64.6,66.4 65.9,68.7 68.4,69.1 66.6,70.9 67,73.6
	"/>
<path class="st4" d="M94.9,43.7l-0.5-0.5l0,0l0,0l0,0c-0.4,0.5-0.9,1.1-1.3,1.7c-0.4,0.5-0.9,1.1-1.3,1.7c0,0,0,0-0.1,0.1l0,0l0,0
	l0,0l0,0v-3.5l-1,0.2v7.5l0.9-0.1v-3.9l0,0l2.7,3.9l0.8-0.4l-2.3-3.6L94.9,43.7z"/>
<path class="st4" d="M73,50.2c0-0.1-0.1-0.1-0.1-0.2c-0.1-0.2-0.3-0.4-0.4-0.6c-0.3-0.4-0.5-1-0.9-1.4c-0.3-0.4-0.3-0.6,0-1
	s0.4-0.7,0.6-1.1c0.1-0.2,0.2-0.4,0.3-0.4l0,0l0,0c-0.4-0.4-3.3-2.3-3.5-2.4l0,0v7.7l0.9-0.1v-5.9l1.3,1l-1.1,1.8l2.2,3.3l0.6-0.4
	l0,0C73,50.2,73,50.2,73,50.2z"/>
<path class="st4" d="M88.7,48.1c-0.5-1.7-1.1-3.4-1.7-5l0,0h-0.1l-2.5,7l0.8,0.4l1.8-5l0,0l1.1,4l-1.9-0.9L86,49.3l0,0
	c0.4,0.3,3.3,1.7,3.4,1.8h0.1V51C89.4,50,89,49.1,88.7,48.1z"/>
<path class="st4" d="M107.6,50.9c-0.4-1-0.6-1.9-1-2.8c-0.5-1.7-1.1-3.4-1.7-5l0,0h-0.1l-2.5,7.1l0,0l0.8,0.4l1.8-5l0,0l1.1,4
	l-1.8-1.1l-0.2,0.7l0,0C104.4,49.5,107.3,50.9,107.6,50.9L107.6,50.9L107.6,50.9z"/>
<path class="st4" d="M3.1,43.2l-2.5,7.1l0.8,0.3l1.8-5c0.3,0.6,1.1,3.4,1.1,3.9l-1.7-0.9l0,0c0,0.1,0,0.1-0.1,0.2
	c0,0.1-0.1,0.2-0.1,0.3s0,0.1,0,0.2c0,0,0,0,0,0.1l0,0l0,0c0.4,0.3,3.3,1.7,3.4,1.8h0.1L3.1,43.2L3.1,43.2z"/>
<path class="st4" d="M83.5,45.8L83.5,45.8c-0.5-0.4-3.4-2.6-3.6-2.7l0,0l0,0c-0.1,0.4,0,7.4,0,7.6l0,0l0.8-0.1v-5.9l1.6,1.1
	c-0.1,0.1-0.1,0.2-0.2,0.2c-0.2,0.2-0.3,0.4-0.4,0.4c-0.2,0.2-0.3,0.4-0.4,0.5s-0.1,0.2-0.2,0.3l0,0l0,0c0,0.1,0,0.2,0,0.3
	c0,0.3,0,0.5,0,0.8c0,0,0,0.1,0,0.2v0.1v0.1l0,0C81.7,48.1,83.4,46,83.5,45.8L83.5,45.8z"/>
<path class="st4" d="M14.6,45L14.6,45l-1.9,0.8c0-0.4,0-0.8,0-1.2s0-0.9,0-1.4l0,0l-1,0.3v7.3l1.1-0.3v-0.4c0-0.3,0-0.5,0-0.8
	c0-0.7,0-1.4,0-2.1c0-0.2,0.1-0.4,0.3-0.4c0.4-0.3,0.9-0.4,1.3-0.7h0.1c0,0,0.2-0.1,0.2-0.2c0-0.2,0-0.4,0-0.6
	C14.6,45.2,14.6,45.1,14.6,45z"/>
<path class="st4" d="M59.5,45.1L59.5,45.1c-0.4,0.2-0.6,0.3-1,0.4c-0.4,0.2-0.7,0.3-1.1,0.4v-2.7l-1,0.3v7.4l1.1-0.3v-0.4
	c0-0.3,0-0.5,0-0.7c0-0.7,0-1.4,0-2.1c0-0.2,0.1-0.3,0.2-0.4c0.5-0.3,1-0.5,1.4-0.8c0,0,0.2-0.1,0.2-0.2
	C59.6,45.7,59.6,45.4,59.5,45.1L59.5,45.1z"/>
<path class="st4" d="M99.4,45.2V45l-0.3,0.1c-0.2,0.1-0.4,0.1-0.4,0.2c-0.1,0-0.2,0.1-0.3,0.1c-0.1,0.1-0.3,0.1-0.4,0.2
	c-0.1,0-0.1,0.1-0.2,0.1c-0.2,0.1-0.3,0.2-0.4,0.2v-2.6l-1,0.1v7.3l1.1-0.3V50c0-0.3,0-0.5,0-0.8c0-0.7,0-1.4,0-2.1
	c0-0.3,0.1-0.4,0.3-0.4c0.4-0.2,0.7-0.4,1.1-0.5c0.1-0.1,0.3-0.2,0.4-0.2l0,0c0.1,0,0.2-0.1,0.2-0.2C99.4,45.6,99.4,45.4,99.4,45.2z
	"/>
<path class="st4" d="M22.4,43.2L22.4,43.2c-0.1,0-0.2,0-0.2,0.1c-0.1,0-0.2,0.1-0.3,0.1s-0.2,0.1-0.3,0.1h-0.1l0,0l0,0
	c-0.1,0.6,0,7.1,0,7.2l0,0h3l0.5-0.9h-2.7L22.4,43.2L22.4,43.2z"/>
<polygon class="st4" points="27.1,43.2 26.1,43.5 26.1,50.8 29.2,50.8 29.7,49.9 27.1,49.9 "/>
<polygon class="st4" points="38.6,43.8 38,43.1 35.9,45.6 38.1,48.3 36.8,50.2 37.4,50.9 39.5,48.3 37.2,45.6 "/>
<path class="st4" d="M53.6,43.9l-0.5-0.8l-1.6,2.2l-1.1,1.5l0,0c0.2,0.4,2.7,3.7,2.8,3.8l0,0l0.4-0.6l-2.1-3.2L53.6,43.9z"/>
<path class="st4" d="M9.8,44.1L9.8,44.1c0-0.1-0.1-0.1-0.1-0.2c-0.1-0.1-0.1-0.2-0.2-0.3c-0.1-0.1-0.1-0.2-0.2-0.3l-0.1-0.1l0,0
	l-2.7,3.7l3,4l0.5-0.6l-2.2-3.2L9.8,44.1z"/>
<polygon class="st4" points="18.1,50.8 19.1,50.7 19.1,43.2 18.1,43.4 "/>
<path class="st4" d="M45.2,43.4c-0.1,0-0.2,0.1-0.3,0.1s-0.2,0.1-0.4,0.1c-0.1,0-0.1,0-0.2,0l0,0V51l1-0.2v-7.5l0,0
	C45.3,43.4,45.2,43.4,45.2,43.4z"/>
<path class="st4" d="M60.9,43.3L60,43.6l0,0c0,0,0,0,0,0.1v0.1c0,2.2,0,4.5,0,6.9v0.1l0,0l0,0l0,0l0,0l0,0l0,0c0.1,0,0.1,0,0.2,0
	s0.3-0.1,0.4-0.1c0.1,0,0.1,0,0.2-0.1h0.1l0,0l0,0C61,50,61,43.5,60.9,43.3L60.9,43.3z"/>
<polygon class="st4" points="14.9,50.6 15.9,50.3 15.9,43.1 14.9,43.3 "/>
<path class="st4" d="M100.8,43l-0.9,0.3v7.2l0.9-0.2l0,0C100.8,49.8,100.8,43.3,100.8,43L100.8,43z"/>
<path class="st4" d="M31.7,47.8L31.7,47.8c-0.1-0.1-0.1-0.1-0.1-0.2s0.1-0.1,0.1-0.1l1.8-0.1c0.1,0,0.2,0,0.2-0.1
	c0.1-0.1,0.1-0.2,0.1-0.2v-0.3c0-0.1,0-0.2-0.1-0.2c-0.1-0.1-0.2-0.1-0.2-0.1s-1.4,0.1-1.5,0.1l0,0c-0.1,0-0.1,0-0.1,0
	c0-0.1,0-0.1,0.1-0.2l0,0c0.1-0.1,2.2-2.2,2.2-2.3c0.1-0.1,0.1-0.1,0.1-0.2s0-0.2-0.1-0.2l-0.3-0.3c-0.1-0.1-0.1-0.1-0.2-0.1
	c-0.1,0-0.2,0-0.2,0.1l-3,3.1c0,0-0.3,0.4-0.4,0.4C30,46.9,30,47,30,47.1s0,0.2,0.1,0.2c0.1,0.1,0.4,0.4,0.4,0.4l3.1,3
	c0.1,0.1,0.1,0.1,0.2,0.1l0,0c0.1,0,0.2,0,0.2-0.1l0.3-0.3c0.1-0.1,0.1-0.2,0.1-0.2c0-0.1,0-0.2-0.1-0.2
	C34.1,50,31.8,47.8,31.7,47.8z"/>
<path class="st4" d="M64.2,47.8L64.2,47.8c-0.1-0.1-0.1-0.1-0.1-0.2s0.1-0.1,0.1-0.1l1.8-0.1c0.1,0,0.2,0,0.2-0.1
	c0.1-0.1,0.1-0.2,0.1-0.2v-0.4c0-0.1,0-0.2-0.1-0.2c-0.1-0.1-0.2-0.1-0.2-0.1s-1.4,0.1-1.5,0.1l0,0c-0.1,0-0.1,0-0.1,0
	c0-0.1,0-0.1,0.1-0.2l0,0c0.1-0.1,2.2-2.2,2.2-2.3c0.1-0.1,0.1-0.1,0.1-0.2c0-0.1,0-0.2-0.1-0.2l-0.3-0.3c-0.1-0.1-0.1-0.1-0.2-0.1
	s-0.2,0-0.2,0.1l-3,3.1c0,0-0.3,0.4-0.4,0.4c-0.1,0.1-0.1,0.2-0.1,0.3s0,0.2,0.1,0.2c0.1,0.1,0.4,0.4,0.4,0.4l3.1,2.8
	c0.1,0.1,0.1,0.1,0.2,0.1l0,0c0.1,0,0.2,0,0.2-0.1l0.3-0.3c0.1-0.1,0.1-0.2,0.1-0.2c0-0.1,0-0.2-0.1-0.2
	C66.6,49.9,64.3,47.8,64.2,47.8z"/>
<path class="st4" d="M75.3,47.8L75.3,47.8c-0.1-0.1-0.1-0.1-0.1-0.2s0.1-0.1,0.1-0.1l1.8-0.1c0.1,0,0.2,0,0.2-0.1
	c0.1-0.1,0.1-0.2,0.1-0.2v-0.4c0-0.1,0-0.2-0.1-0.2c-0.1-0.1-0.2-0.1-0.2-0.1s-1.4,0.1-1.5,0.1l0,0c-0.1,0-0.1,0-0.1,0
	c0-0.1,0-0.1,0.1-0.2l0,0c0.1-0.1,2.2-2.2,2.2-2.3c0.1-0.1,0.1-0.1,0.1-0.2s0-0.2-0.1-0.2l-0.3-0.3c-0.1-0.1-0.1-0.1-0.2-0.1
	s-0.2,0-0.2,0.1l-3,3.1c0,0-0.3,0.4-0.4,0.4c-0.1,0.1-0.1,0.2-0.1,0.3s0,0.2,0.1,0.2c0.1,0.1,0.4,0.4,0.4,0.4l3.1,2.8
	c0.1,0.1,0.1,0.1,0.2,0.1l0,0c0.1,0,0.2,0,0.2-0.1l0.3-0.3C78,50.1,78,50,78,50c0-0.1,0-0.2-0.1-0.2C77.7,50,75.3,47.9,75.3,47.8z"
	/>
</svg>
