<?xml version="1.0" encoding="utf-8"?>
<!-- Generator: Adobe Illustrator 17.1.0, SVG Export Plug-In . SVG Version: 6.00 Build 0)  -->
<!DOCTYPE svg PUBLIC "-//W3C//DTD SVG 1.1//EN" "http://www.w3.org/Graphics/SVG/1.1/DTD/svg11.dtd">
<svg version="1.1" id="Слой_1" xmlns="http://www.w3.org/2000/svg" xmlns:xlink="http://www.w3.org/1999/xlink" x="0px" y="0px"
	 viewBox="0 103.8 1280 634.3" enable-background="new 0 103.8 1280 634.3" xml:space="preserve">
<g>
	<path fill="#FFFFFF" d="M88.4,103.8c50.1,0,88.4,37.6,88.4,90.5c0,51.8-38.3,90.5-88.4,90.5S0,246.8,0,194.3
		C0,143.1,37.6,103.8,88.4,103.8z M88.4,271.5c43.1,0,73.8-33.4,73.8-77.2c0-44.5-32.4-77.2-73.8-77.2c-41.8,0-73.8,32.7-73.8,77.2
		C14.6,238.1,47,271.5,88.4,271.5z"/>
	<path fill="#FFFFFF" d="M240.8,106.3h13.9v163.2h92.9v13.2H240.8V106.3z"/>
	<path fill="#FFFFFF" d="M431.1,205.1V282h-13.9v-76.9l-62.6-99.2h16l54.3,85.9l54.3-85.9h15.3L431.1,205.1z"/>
	<path fill="#FFFFFF" d="M548.7,106.3h14.3l71,96.7l68.2-96.7h13.2v176h-13.9V127.8l-67.8,95h-2.4l-68.5-94.3v153.8h-13.9V106.3z"/>
	<path fill="#FFFFFF" d="M793.6,282.3v-176c9.7,0,33.1-0.3,43.1-0.3c48.7,0,62.6,26.8,62.6,53.2c0,27.5-18.8,53.9-62.6,53.9
		c-8.4,0-19.1-0.3-29.2-1v70.6h-13.9V282.3z M807.5,119.1v79c9.7,0.7,18.8,1.4,28.5,1.4c32,0,48.7-16.7,48.7-41.1
		c0-23-13.6-39.7-47-39.7C830.1,118.8,815.9,118.8,807.5,119.1z"/>
	<path fill="#FFFFFF" d="M969.7,106.3h13.9v176h-13.9V106.3z"/>
	<path fill="#FFFFFF" d="M1122,104.5h11.5l76.9,177.8h-15l-25.7-59.8h-84.5l-25.7,59.8h-14.3L1122,104.5z M1090.7,209.2h73.1
		l-36.5-85.6L1090.7,209.2z"/>
	<path fill="#FFFFFF" d="M1271,263.5c5.2,0,9,4.5,9,9c0,5.2-3.8,10.1-9,10.1c-5.9,0-10.1-4.9-10.1-10.1
		C1260.9,268,1265,263.5,1271,263.5z"/>
	<path fill="#FFFFFF" d="M14.3,407.9H17c12.5,0,26.8-0.7,42.4-0.7c70.6,0,98.8,40.4,98.8,86.3c0,50.4-33.7,91.2-100.9,91.2
		c-12.9,0-26.8-0.3-40.7-0.3h-2.4V407.9z M28.2,421.1v150c14.3,0.3,27.8,0.3,29.6,0.3c56.7,0,85.9-34.1,85.9-77.9
		c0-40.7-26.1-73.1-84.9-73.1C45.9,420.4,38.6,420.8,28.2,421.1z"/>
	<path fill="#FFFFFF" d="M228.6,407.9h13.9v176h-13.9V407.9z"/>
	<path fill="#FFFFFF" d="M401.2,499.1h64.7v63.3c-15.7,15.7-44.2,24-65.8,24c-52.5,0-87.3-35.5-87.3-90.5
		c0-50.4,34.1-90.5,85.6-90.5c23,0,40,5.2,54.3,16.7l-6.3,10.8c-11.5-9.7-28.2-14.3-46.6-14.3c-43.1,0-72.4,32.4-72.4,77.2
		c0,47,29.6,77.2,73.1,77.2c19.1,0,41.1-7.3,52.2-18.4v-43.1h-51.5V499.1z"/>
	<path fill="#FFFFFF" d="M538.6,407.9h13.9v176h-13.9V407.9z"/>
	<path fill="#FFFFFF" d="M611.6,407.9h144v13.2h-65.1v163.2h-13.9V421.1h-65.1L611.6,407.9L611.6,407.9z"/>
	<path fill="#FFFFFF" d="M844.1,406.5h11.5l76.9,177.8h-15l-25.7-59.8h-84.5l-25.7,59.8h-14.3L844.1,406.5z M812.7,511.2h73.1
		l-36.5-85.6L812.7,511.2z"/>
	<path fill="#FFFFFF" d="M988.1,407.9h13.9v163.2h92.9v13.2H988.1V407.9z"/>
</g>
<rect x="3.8" y="668.5" fill="#FFFFFF" width="1269.9" height="69.6"/>
</svg>
