<?xml version="1.0" encoding="utf-8"?>
<!-- Generator: Adobe Illustrator 19.2.1, SVG Export Plug-In . SVG Version: 6.00 Build 0)  -->
<svg version="1.1" id="Слой_1" xmlns="http://www.w3.org/2000/svg" xmlns:xlink="http://www.w3.org/1999/xlink" x="0px" y="0px"
	 viewBox="0 0 299 322.5" style="enable-background:new 0 0 299 322.5;" xml:space="preserve">
<style type="text/css">
	.st0{fill:#BCA064;}
</style>
<path class="st0" d="M218.1,132c6.2,5.4,10.1,12.3,13.3,19.7c0.2,0.4,0.4,0.8,0.9,1.6c0.1-3.5-1.6-6-2.6-8.7c-0.6-1.5-1.2-3-1.9-4.4
	c1.3,1.9,2.9,3.8,3.8,5.9c4.5,11.2,7.3,22.8,5.3,35c-1.4,8.7-4,16.9-9.3,24.2c-1.5,2-2.9,4.2-5.5,4.9c-3.7,2.6-6.2,4.4-9.9,7
	c-3.2,1.3-10.1,3.4-9.5,3c-4.4,1.2-8.9,2-13.4,2.9c-0.7,0.1-1.5-0.2-2.2-0.4c2.6-1.1,5.1-1.5,7.6-2c9.1-2.1,17.7-5.1,24-12.4
	c7.2-8.4,11.6-17.9,13-29.1c1.7-13.5-2-25.3-8.6-36.8c-7.2-12.8-30.6-24.4-48.2-16.4c-1.6,0.7-3.3,1.2-5,1.9
	c-5.3,2.2-9.7,5.6-13.4,10c-4.6,5.6-7.8,11.9-9.6,18.8c-2.9,10.8-2.5,21.6-0.3,32.5c1.3,6.4,4.1,12,8.5,16.8c4,4.4,8.6,8.1,13.9,11
	c4.2,2.3,8.4,4.4,13.3,4.6c0.4,0,0.8,0.6,1.2,0.8c-1.9,0.7-3.7,0.9-5.3,0.4c-5-1.8-10.1-3.5-14.8-5.9c-7.2-3.7-12.4-9.4-16-16.7
	c-3.8-7.8-6.1-16.1-7.2-24.7c-0.4,22,8.1,39,28.2,49.4c-0.7,0-1.3-0.1-1.8-0.3c-10.2-4.7-18-12.2-22.7-22.2
	c-7.3-15.4-8.9-31.6-4.4-48c5-18.3,17.3-30.2,34.9-36.8c1.2-0.5,2.5-0.9,3.2-1.1c-2.1-1.1-4.7-2.2-6.8-3.7c-1.5-1.1-2-3-1.3-4.8
	c0.8-2,2.2-3.1,4.3-3.1c-0.2,0.7-0.5,1.1-1,1.4c-1.5,1-2.4,2.3-1.8,4.1c0.6,1.7,2,2.4,3.7,2.7c5,0.9,9.4-1.8,10.2-6.8
	c0.4-2.2,0.2-4.8-0.7-6.9c-2.4-5.5-6.2-9.6-12.1-11.6c-7.3-2.5-14.9-3.9-22.6-3.9c-6.8,0-13.6,0.2-20.4,0.9c-8.9,1-18,1.9-26.7,4.1
	c-13.9,3.4-26.5,10-38.1,18.4c-7.6,5.5-14.8,11.3-20.8,18.6c-10.6,12.9-14.4,28.3-16.5,44.3c-0.8,6.6-0.7,13.3-1.1,20
	c-0.1,1.3,0.5,2.9-1.5,3.8c-0.4-13.8-0.3-27.1,3-40.4c2.3-9.2,5.6-17.7,11.5-25.2c1.8-2.3,3.7-4.5,5.7-6.9c-7.6,1.5-13-0.8-17.2-7.1
	c-2.3-3.6-2.2-7.4-0.2-10.9c1.8-3.4,6.7-4.3,9.6-2c0.6,0.4,0.6,1.5,1.1,2.7c-1.1-0.1-1.6-0.1-1.9-0.2c-4.2-2.3-6.8,0.8-6.3,5.2
	c0.4,3.5,2.8,5.7,5.7,7.4c0.8-1.8,0-4.5,2.9-4.8c0.2,0.3,0.4,0.4,0.4,0.5c0,0.7,0,1.4,0,2.1c0,3.4,1.1,4.5,4.6,4.3
	c3.2-0.2,5.6-1.8,6.9-4.7c1.4-3,2.1-6.2,1.6-9.5c-1-7.1-9.6-14.4-16.8-12.1c-2.5,0.8-5,1.7-7.8,2.6c-0.4-1-0.8-2-1.3-3.4
	c1.9-0.6,3.4-1.5,4.9-1.5c4.3-0.1,8.6-0.4,12.8,0.4c8.9,1.8,15.3,11.1,10.9,20.3c-0.3,0.7-0.4,1.4-0.8,2.9
	c11.1-9.2,22.6-16.1,35-21.5c12.6-5.5,25.9-7.7,39.5-8.8c-5.8-0.2-11.5-0.3-17.3-0.1c-7.2,0.3-14.5,1-21.7,1.4
	c-7.7,0.4-15.4,0.6-23.1,1c-4.4,0.2-8.9,0.6-13.3,1c-12.3,1-24.5-1.2-36.8-2c-0.5,0-1-0.6-2.3-1.3c3.5-0.2,6.2-0.4,8.8-0.6
	c10.8-0.8,21.5-1.6,32.3-2.4c1.8-0.1,3.6-0.2,5.3-0.3c12.1-0.7,24.2-1.5,36.3-2.2c2.2-0.1,4.4,0.3,6.6,0.4c6.2,0.4,12.4,1,18.6,1
	c11.7-0.1,23.4-0.7,35.1-0.8c6.5-0.1,13,0.6,19.5,0.8c4.4,0.1,8.8,0,13.2,0c0.3-1.3,0.6-2.3,0.6-3.3c0.4-7.4,0.9-14.8,1-22.2
	c0.1-8.1-0.1-16.3-0.1-24.4c0-1.2-0.1-2.4,0.3-3.5c0.2-0.7,1.3-1.5,1.9-1.5c0.8,0.1,2,0.8,2.3,1.5c0.4,1,0.3,2.3,0.3,3.5
	c0,7.1,0.1,14.2-0.1,21.3c-0.1,4.1-0.6,8.2-0.7,12.4c-0.1,5.1,0,10.3,0,15.4c2.5,0,4.4,0,7.2,0c-1.2-1.1-1.9-1.6-2.5-2.3
	c-3.8-4.3-2.8-9.8,2-12.8c2.3-1.4,4,0,6.3,0.6c-2.2-4.7-4.4-4.6-10.4,0.2c0-2.5-0.2-4.8,0.1-7.1c0.3-2.3-2.6-4.7,0.7-7.2
	c1.9,4.3,6.1,5.3,9.6,7.3c2.2,1.2,4.3,2.7,6.5,4.2c-0.5-2.7-2.2-4.2-4.4-5.3c-2.2-1.2-4.5-2.2-6.7-3.4c-3.5-1.9-4.9-5-4.5-9
	c1.2,3.6,4.1,5.3,7.2,6.9c2.1,1,4.2,2.2,6.2,3.5c3.4,2.3,5.5,5.4,5.8,9.5c0.3,5.4,0.3,10.7-4.8,15.3c6,0.3,11.3,0.6,17.2,1
	c-3-1.7-5.4-2.7-7.4-4.2c-2.4-1.8-4-4.5-3.6-7.7c0.8-7.6,10.5-12.8,17.3-9.2c4.6,2.4,5.8,9.8,2.3,13.5c-1.2,1.2-2.5,1.6-4,0.8
	c-1.3-0.7-3-1.3-2.3-3.6c1.5,0.8,2.7,1.5,3.9,2.1c3.1-2.7,3.7-6,2-9.1c-1.5-2.6-4.4-3.7-7.7-2.5c-1.9,0.7-3.8,1.7-5.2,3.1
	c-4.8,4.6-3.5,11,2.6,13.6c4.3,1.8,8.8,2.6,13.5,2.1c3.9-0.4,7.8-2.2,11.5,1.1c1,0.9,3.2,0.4,4.8,0.7c2.8,0.6,4.3,2.8,4,5.5
	c-0.3,2.5-2.1,4.3-4.8,4.4c-1.3,0.1-2.7-0.2-3.9-0.4c-5.9-1.3-11.8-2.8-17.7-4c-2-0.4-4.2-1.8-6.1,0.6c-0.3,0.4-1.7,0-2.6,0
	c-3.8-0.2-7.7-0.6-11.5-0.6c-5.1,0-9.5,2.1-13.1,5.7c-2,2-3.8,4.3-3.9,7.3c-0.1,2.8-0.1,5.6,0.1,8.4c0.4,4.2,5.1,7.6,9.4,6.9
	c2.2-0.4,3.4-1.8,4-4.6c-1.1,0.6-1.6,0.8-2.1,1.1c-4,1.8-6.3,1.1-8.8-2.3c-3.1-4.2-1.4-14.2,3.7-16.5c4.8-2.1,9.5-4.1,14.9-3.6
	c3.2,0.3,6.5,0.6,9.7,1c2.3,0.3,4.3,0,5.3-2.4c3,0.8,5.7,1.5,8.5,2.1c4.8,1,9.5,2.1,14.3,2.9c3.2,0.5,5-0.9,6-3.9c1-3,0.5-7-1.8-7.6
	c-4.7-1.3-8.8-4.7-14-4.2c-2.4,0.3-4.7,0.4-7.1,0.5c-0.9,0-1.8-0.2-3.1-0.3c7.4-7.4,8.2-12.9,3.3-18.2c-2.5-2.7-5.4-4-9-4.2
	c-5.4-0.3-9.2,2.6-12.1,7.1c-2.1-3.3-3.8-6.1-5.9-9.3c3.6,1,4.1,4.2,6,6.9c2.8-3.6,5.9-5.9,10.3-5.9c4.1,0,8,0.3,11.3,3.1
	c4.8,3.9,5.6,12.1,1.7,18.6c2-0.4,3.8-0.7,5.5-0.9c4.9-0.8,5.7-0.4,8.4,3.8c0.8,0.1,1.7,0.3,2.5,0.4c5.1,0.8,7.1,3.7,6,8.8
	c-0.3,1.3-0.7,2.6-1.3,3.8c-1.9,3.9-4.4,5-8.7,4.1c-1.4-0.3-2.9-0.7-4.3-1.1c-5.2-1.4-10.5-2.9-15.7-4.3c-2.3,4.1-2.9,4.4-7.1,2.9
	c-1-0.3-1.9-0.9-2.8-1.2c-4.8-1.7-9.6-1.7-14.2,0.7c-2.5,1.3-5.1,2.5-7.4,4.1c-1.2,0.8-2.3,2.4-2.7,3.8c-0.5,1.8-0.4,3.8-0.2,5.7
	c0.2,2.3,1.6,4.2,3.8,5.1c2.2,0.9,4-0.2,5.6-1.7c0.6-0.6,1.1-1.1,1.5-1.6c-1.8-2.6-4.4-0.3-6.3-1.5c3.7-3.7,6.5-3.6,9.1,0.2
	c2.8,4.1,1.1,8.6-4,10.6c-1.2,0.5-2.5,0.8-4.4,1.5c24.3,5.6,39.4,23.7,41,42.8c-1.3,0.4-2.7,0.7-4,1.1c-8.9-36.6-35.2-46.3-58.2-44
	c-20.1,2-41.4,20-42.3,34.6c1.5-2.5,2.8-5.3,4.7-7.8c1.9-2.6,4.2-5,6.6-7.2c3.2-2.9,6.6-5.6,10-8.1c3.7-2.7,7.6-5.1,12.3-5.8
	c12.4-2.1,24.1-0.6,35.3,5.2C213.7,128.9,217.6,131.6,218.1,132z M171,85.8c6.8,2,12.7,5.6,16.3,12.1c2.9,5.3,2.1,11.1-2.3,15.3
	c-0.8,0.8-1.7,1.5-3.1,2.7c3.2-0.4,5.6-0.7,8.1-1.1c-0.2-10-0.4-19.8-0.6-30.1c-11.7-0.3-23.5-3-35.2-2.6
	C159.5,83.3,165.3,84.2,171,85.8z M213.4,68.7c1.4-3.3,0.4-7-2.8-8.9c-3.4-2-7-3.6-11-5.6c-0.3,2.3-0.5,4.1-0.7,6.5
	c1.8-0.7,3-1.3,4.3-1.6c2.7-0.8,5.5,0.6,6.1,2.9c0.8,3-0.7,4.6-3.7,3.9c-0.5-0.1-1-0.4-1.5-0.6c-3.6,2.7-4.6,5.1-2.9,7.3
	c2.5,3.4,7.2,3.8,10.4,1.2c-1.9-0.2-4.1-0.4-6.3-0.5c0.1-0.3,0.3-0.6,0.4-0.9C209.8,73.2,211.9,72.1,213.4,68.7z M195.9,83.9
	c0,3.5,0,6.8,0,11.3c4.7-5.9,10.1-8.9,16.1-11.3C206.7,83.9,201.4,83.9,195.9,83.9z M258.2,86.3c-0.1-2.2-1.7-2.4-3.4-2.5
	c-1.3-0.1-2.7-0.1-4-0.1c-3.2,0-6.5,0-10.4,0C251.6,88.1,254.2,88.4,258.2,86.3z M233.8,188.1c2.3-5.6,3-13.3,1.9-22.7
	C235,173.4,234.4,181.1,233.8,188.1z M202.4,116.2c-2.8-2.2-4.9-3.7-7-5.3c-0.2,1.3-0.3,2.4-0.5,4
	C197.3,115.2,199.4,115.6,202.4,116.2z M227,202.7c2.9-2.9,4-5,5.1-10.1C230.4,195.9,228.8,199.1,227,202.7z"/>
<path class="st0" d="M109.1,281.2c2.9-1.4,2.4-3.2,2.4-4.7c0.1-10.1,0-20.1,0.1-30.2c0.2-31.8,0.5-63.7,0.7-95.5
	c0-0.9,0.2-1.7,0.3-2.7c2.3,0.7,4.4,1.2,7,2c0,1,0,2.3,0,3.6c0,6.2,0.2,12.4-0.1,18.7c-0.6,13.1-1.5,26.3-2.2,39.4
	c-0.2,4.7-0.2,9.5-0.1,14.2c0.4,13.6,0.9,27.2,1.3,40.8c0,1.4,0.2,2.9,0.9,4.4c0.2-0.9,0.5-1.8,0.5-2.7c0-8.7-0.1-17.4,0-26.2
	c0.1-9.6,0.3-19.2,0.5-28.8c0.3-14.2,0.7-28.4,1-42.6c0.1-6.8,0.1-13.6,0.2-20.4c0-1.4,0-2.9,0-4.6c-3.6-0.2-6.8-0.3-10.4-0.5
	c-0.5,4.3-1.2,8.3-1.3,12.4c-0.4,13.9-0.7,27.8-0.8,41.7c0,9,0.5,18.1,0.7,27.1c0.1,4.4-0.3,8.9-0.4,13.3c0,0.9-0.2,1.8-0.1,2.7
	c1.1,11.5-0.9,23-0.4,34.6C108.8,278.2,109,279.4,109.1,281.2z"/>
<path class="st0" d="M75.1,22.3c2.3-0.1,4.7-0.4,7-0.2c7.1,0.5,11.9,4.8,16,10.1c3.6,4.7,5.6,10.1,6.2,15.9
	c0.8,6.8,1.2,13.5,1.8,20.3c0.2,2.3,0.4,4.7,0.6,7.2c-1.6,0.2-3.2,0.3-4.8,0.5c0,0.2,0,0.4,0,0.5c19.3,0.3,38.6,0.7,57.9,1
	c0.1-0.2,0.2-0.5,0.2-0.7c-1.6-0.9-3.5-1.4-4.6-2.7c-1.2-1.4-2-3.4-2.1-5.2c-0.1-1.8,0.3-4,1.3-5.4c2.4-3.7,8.6-4,13.4-0.8
	c1.7-5.1,5.4-8.6,9.3-12c2.9-2.5,5.7-5.2,8.6-7.7c2.9-2.5,4.1-5.6,3.9-9.4c-0.2-3.5,0-7.1,0-10.6c1.8,0.2,3.3,0.7,4.6,0.4
	c1.1-0.2,2.5-1.3,2.8-2.3c0.4-1.5-1-2.2-2.5-2.4c-0.9-0.1-1.9-0.4-2.7-1.3c1.2-0.2,2.4-0.4,4.6-0.7c-2.5-1-4-1.6-5.5-2.2
	c0.1-0.3,0.1-0.5,0.2-0.8c3.2,0.3,6.4,0.7,9.6,1c-0.3-0.3-0.6-1-1.2-1.4c-3.6-2.1-7.4-2-11.1-0.4c-2.8,1.2-4.1,3.7-4.4,6.7
	c-0.2,2.8,2,3.7,3.9,5.1c0.2,4.4-0.4,8.7-1.6,13c-0.9,3.3-2.7,5.9-5.4,7.9c-2.8,2-5.5,4-8.3,5.9c-2.8,2-5.5,4.1-5.6,7.5
	c-2.6-0.5-5.1-1.6-7.4-1.2c-6.1,1.1-9.4,7.2-7.7,13.2c0.2,0.7,0.4,1.4,0.7,2.1c0.3,0.7,0.7,1.3,1.2,2.3c-1.1,0.1-2,0.1-3.2,0.2
	c-0.3-8.8-0.7-17.4,1.8-25.7c2.7-8.7,9.3-13.4,17.7-15.9c4.4-1.3,8.7-1.5,13,0.6c0.6,0.3,1.3,0.2,2.1,0.4c-0.1-0.5-0.1-0.7-0.2-0.7
	c-6.4-4.4-17.4-3.9-23.3,1c-8.1,6.6-12.5,15.2-13.3,25.6c-0.3,4.7-0.7,9.4-1.1,14.5c-12.9,0-26,0-39.4,0c0-1.5,0-3.1,0-4.7
	c0-9.2-0.4-18.3-2.9-27.3c-1.5-5.2-3.9-9.9-7.4-14c-5.8-6.7-12.7-10.6-21.9-7.9C75.7,21.8,75.4,22.1,75.1,22.3z"/>
<path class="st0" d="M10.2,214.6c-1,0.7-2.1,1.4-3.3,2.3c-1-1.8-1.8-3.3-2.6-4.8c-2.8,2.8-3.3,4.6-1.9,7c1.4,2.6,5.5,4.5,8.3,3.9
	c2.3-0.5,3.9-1.9,5.3-3.8c0.8-1.1,2.1-1.9,4-2.5c0.1-1.9,0.2-3.7,0.2-5.6c-0.1-19.4-0.2-38.8-0.3-58.2c0-4.3,0.5-8.6,0.5-12.9
	c0.1-4.9-0.1-9.8-0.1-14.7c0-5.4,0-10.9,0-16.6c-1.3,0-2.6,0-4.4,0c-0.1,2.5-0.6,4.9-0.2,7.1c2.6,14.5,2.4,29.2,1.8,43.8
	c-0.3,9.9-0.2,19.9-0.3,29.8c0,2.4,0,4.7-0.7,7.1c-0.5-19.2-1.1-38.3-1.6-57.5c-0.1,0-0.1,0-0.2,0c-0.3,3.3-0.8,6.7-0.8,10
	c0,8.4,0.4,16.9,0.4,25.3c-0.1,12.9-0.4,25.8-0.7,38.6c0,1.7-0.8,3.5-1.6,5c-1,2-3.1,2.1-5.1,1.8c-1.7-0.2-3-1-2.9-3.2
	c4.3,2.1,5,1.8,6.2-2.3L10.2,214.6z"/>
<path class="st0" d="M233.4,119.9c-4.5-1.9-8.4-3.6-12.5-5.4c-0.1-3.1,2.1-6.4-0.5-9.3c-1.2-1.4-2.3-2.9-4.7-3
	c4.8,3.6,2.9,8.4,3,13.2c2.8,1.1,5.6,2.2,8.5,3.4c7.5,3,13.3,8.1,17.7,14.9c6.3,9.9,10,20.6,11.8,32.2c2.5,16.5-2.1,31.1-10.7,44.7
	c-6.9,11-17.5,17.5-29.9,20.8c-10.8,2.9-21.6,2.7-32.5,0.5c-1.3-0.3-2.6-0.5-3.9-0.7c-0.2,0-0.5,0.2-1.3,0.5c1.1,0.5,1.9,1,2.7,1.2
	c16.4,3.9,32.3,2.9,47.5-4.6c14-6.9,23.4-18,27.5-33.1c3.8-13.9,4.3-28.1,1-42.2c-2.6-11.1-8.5-20.4-17.1-27.9
	c-1.7-1.5-3.4-2.9-5.3-4.5c0-1.2,0-2.5,0-3.8c0-1.5,0-2.9,1.8-3.7c0.7-0.3,1.3-1.3,1.4-2.1c0.2-1.3,0.8-1.9,2-2.6
	c2.7-1.6,2.9-2.8,1.7-6.7c-0.2,4.8-5.4,6.1-6.7,10.3c-0.4,1.4-1.3,2.8-1.3,4.4C233.4,117.3,233.4,118.4,233.4,119.9z"/>
<path class="st0" d="M105.3,128.3c-2.2,0-4.4,0-7,0c0,1.8-0.6,3.7,0.1,4.8c1.8,3.1,4.2,5.8,6.6,9c0,6,0.3,12.5-0.1,19
	c-1,18.3-1.8,36.7-1.5,55c0.1,6.6-0.5,13.3-0.7,19.9c-0.1,2.2-0.1,4.4-0.1,6.7c0,11.1,0.1,22.2,0.1,33.3c0,1.4,0,2.8,0,4.2
	c0.3,0,0.7,0.1,1,0.1c0.2-0.7,0.5-1.4,0.6-2.2c1.8-24.2,0.9-48.5,0.5-72.8c-0.2-11.1,0.4-22.2,0.7-33.3c0.2-8.4,0.5-16.9,0.8-25.3
	c0.1-1.6,0.2-3.2,0.3-4.8c4.8-0.9,9.3-1.7,14.1-2.6c-5.6-3.2-11.4-2.1-17.1-2.7c3.6-0.5,7.1-1.1,10.7-1.4c3.6-0.3,7.1-0.5,10.7-1.1
	c-7.8-1.5-15.7-0.2-24-0.6c-0.1-1.1-0.3-2.3-0.4-3.4C102.5,129.4,103.9,128.8,105.3,128.3L105.3,128.3z"/>
<path class="st0" d="M41.4,322.5c0.2-0.5,0.5-1,0.6-1.4c0.4-14.5,0.7-29-0.2-43.5c-0.2-2.5-0.1-5,0-7.6c0.1-10.4,0.2-20.7,0.5-31.1
	c0.3-9.2,1-18.3,1.4-27.5c0.2-5.5,0.1-11,0-16.4c-0.1-8.4-0.3-16.9-0.3-25.3c0-7.1,0.4-14.2,0.5-21.3c0-2-0.4-4-1.3-6
	c-0.1,0.9-0.2,1.9-0.2,2.8c-0.5,21-1,42-1.4,63.1c-0.2,7.6,0.2,15.1-0.3,22.7c-1.2,16.7-0.4,33.5,0,50.2c0.1,3.7,0.6,7.4,0.6,11.1
	c-0.1,8.1-0.5,16.3-0.7,24.4c-0.1,2,0.1,3.9,0.1,5.9C40.8,322.5,41.1,322.5,41.4,322.5z"/>
<path class="st0" d="M295.7,152.1c-0.6-0.8-1.1-1.5-1.8-2.1c-0.5-0.4-1.3-0.6-2.2-1c0.3-7.7,0.8-15.4,1-23.1
	c0.1-3.6,1.7-6.4,4.4-8.6c2.2-1.9,2.3-4.1,1.2-6.8c-0.4,0.5-0.8,1-1,1.6c-0.6,1.7-1.6,2.8-2.9,4.1c-2,2-4,4.5-3.9,7.8
	c0.3,8.6,0.4,17.2,0.7,25.7c0,1,0.7,2,1.3,3.7c-3.5,8.3-1.9,17.8-1.8,27.2c0.1,5.7-0.2,11.5-0.2,17.2c0,5.2,0.1,10.3,0.2,15.5
	c0.1,8.9,0.6,17.8,0.4,26.6c-0.2,10.3-1,20.7-1.4,31c-0.1,1.4-0.7,3.3,1.8,4.3c0.2-1,0.6-1.8,0.6-2.6c0.1-3.6,0-7.1,0.1-10.7
	c0.3-19.1,0.7-38.2,0.9-57.3c0.1-5.9,0.1-11.8,0-17.8c0-2.3-0.6-4.7-0.7-7c-0.3-8.2,0-16.5,1.9-24.6
	C294.5,154.2,295.1,153.2,295.7,152.1z"/>
<path class="st0" d="M128.1,127.9c0-5.9,0-11.3,0-16.7c0-0.3-0.6-0.5-1.4-1.1c-0.4,1.1-0.9,1.9-0.9,2.8c0,4.3,0.2,8.6,0.2,12.9
	c0,2.4,0.4,4.5,3.3,4.9c-0.9,2.8-1.8,5.2-2.5,7.7c-0.4,1.4-1,2.8-0.9,4.2c1.4,33-1.3,66-1.1,99c0.1,9.9-0.4,19.8-0.6,29.7
	c0,1.4,0,2.8,0.8,4.4c0.3-0.4,0.7-0.9,0.8-1.3c1.9-20.2,2.6-40.4,1.4-60.7c-0.4-6.9-0.2-13.9-0.1-20.9c0.1-13,0.4-26,0.5-39.1
	c0-2.4-0.3-4.7-0.5-7.1c-0.5-4.6,0.8-8.7,3.1-12.5C132.1,130.7,131.8,129.5,128.1,127.9z"/>
<path class="st0" d="M104,102.8c1.2-5.3,0.9-6.3-2.8-9.4c0.3,2.9,3.8,5.2,1.1,8.5c-0.3-0.9-0.6-1.4-0.7-1.9
	c-1.3-4.4-2.9-5.7-7.3-5.1c-2.4,0.3-5,1-7.1,2.2c-10.2,5.4-20,11.6-28.9,18.9c-5.2,4.3-10,9.3-14.2,14.6c-3,3.7-4.7,8.5-6.7,12.9
	c-5.6,11.9-8.3,24.2-7,37.4c0.4,4.3-0.2,8.9-0.8,13.2c-0.5,3.7-1.1,3.9-4.9,4.3c-0.4,0-0.8,0.2-1.5,0.4c0.6,0.3,0.9,0.5,1.3,0.5
	c5.4,0.7,6.7-0.3,6.9-5.7c0.2-4.7,0.3-9.5,0.3-14.2c-0.1-11.5,2.2-22.6,6.3-33.3c3.1-8.3,8.7-15.1,14.2-21.8
	c4.5-5.4,9.6-9.9,15.9-13.2c6.7-3.5,13.2-7.3,19.8-10.8c1.8-1,3.8-1.7,5.8-2.2c3-0.6,4-0.2,5.3,2.6C100,103.2,101.4,103.8,104,102.8
	z"/>
<path class="st0" d="M51.4,139.6c-0.6,1.1-1.1,1.5-1.1,2c1.5,52.8-2.4,105.5-0.5,159c1.8-1.5,1.3-2.8,1.3-4
	c0.1-16.1,0.1-32.3,0.3-48.4c0.2-20.9,0.4-41.8,0.7-62.6c0.2-11.1,0.6-22.2,0.7-33.3c0.1-3.2-0.3-6.5-0.5-9.8
	C52.2,141.8,51.8,141,51.4,139.6z"/>
<path class="st0" d="M203.9,154.8c4-2.8,7.8-5.9,11.7-8.9c0.4-0.3,1.1-0.3,1.6-0.5c-0.6,1.8-1.7,3-2.8,4.2
	c-3.2,3.7-6.4,7.3-9.6,11.1c-2.3,2.7-4.2,5.5-4.4,9.4c-0.1,3.5-2.2,4.8-5.8,4.5c-1.3-0.1-2.5-0.3-3.9-0.4c-0.1,1.3-0.1,2.3-0.3,3.3
	c-1.2,4.6-4.5,5.9-8.8,3.7c-3-1.6-4.6-4-4.5-6.6c-3.5-1.4-6.9-2-9.3-3.9c-3.1-2.4-5.3-5.8-8.4-9.3c2.5,0.3,4.4,0.7,6.2,0.6
	c5.5-0.3,10.2,1.2,13.4,5.7c2.4-0.1,4.6-0.3,6.6-0.4c1.1-7.6,2.9-8.9,9.2-7.5C198,158.1,201.1,156.7,203.9,154.8z M185.4,170.1
	c-0.9-1.4-2.2-1.3-3.5-0.7c-2.9,1.4-4,6.8-1.9,9.3c2.8,3.2,7.5,2.3,8.6-2c0.7-2.9,1.9-3.8,4.6-4.3c1.7-0.3,3.3-1.9,4.8-3
	c1.6-1.2,1.7-2.9,1.2-4.8c-0.2-0.6,0.5-1.6,1-2.3c0.6-1,1.4-1.8,2.2-2.7c-0.4-0.3-0.7-0.6-0.8-0.5c-3.3,2.3-6.7,3.9-10.8,3.4
	c-0.3,0-0.7,0.5-1,0.7l0.1-0.1c-0.6,1.5-1.3,3-1.6,4.5c-0.3,1.9-1,2.9-3,2.5L185.4,170.1z M167.5,164.9c1.8,5.4,5.3,7.1,9.4,4.8
	C175.3,165.5,173.8,164.7,167.5,164.9z"/>
<path class="st0" d="M10.1,214.5c1.7-1.9,1.6-4.3,1.7-6.5c1.8-24.8,0.8-49.7,0.8-74.6c0-14.1-0.5-28.1-0.7-42.2
	c-0.2-15.4-0.4-30.8-0.6-46.2c0-2.3,0-4.6-0.8-7c-0.1,0.6-0.4,1.1-0.4,1.7c-0.3,9-0.8,18.1-0.8,27.1c0,6.2,0.5,12.4,0.7,18.6
	c0.2,5.2,0.1,10.4,0.3,15.5c0.4,11.7,1,23.4,1.4,35c0.1,1.9,0,3.8-0.1,5.8c-0.2,9.6-0.5,19.2-0.7,28.9c-0.3,14.7-0.5,29.3-0.8,44
	L10.1,214.5z"/>
<path class="st0" d="M183.3,228.5c4,0.7,17.1,1.2,26.1-0.8c3.4-0.4,6.9-1.8,9.9-3.5c5.3-3,10.8-5.9,15.1-10c7.3-6.9,12-15.5,13.2-26
	c-1.3-0.5-2.5-1-4.2-1.6c-0.7,2.3-1.4,4.4-2,6.4c-2.5,8.6-7,15.9-14.2,21.4c-2.9,2.2-5.9,4.5-8.9,6.7c-5.1,3.6-10.8,5.4-16.9,6
	c-6,0.6-11.9,0.5-17.9,1.1C183.7,228,182.6,228.1,183.3,228.5z"/>
<path class="st0" d="M54.5,306.1c0.1-0.7,0.2-1.4,0.2-2.1c0.2-21.8,1.1-43.6,0.5-65.3c-0.7-25.9,0.4-51.8,0.6-77.8
	c0.1-5.9,0.4-11.8,0.5-17.8c0-1.5,0.3-2.7,1.4-4c1.7-1.9,2.9-4.3,4.2-6.5c1.7-2.9,0.6-5-2.8-5.6c-0.7-0.1-1.4-0.1-2.4-0.2
	c-0.2-1.2-0.3-2.3-0.5-3.9c-1.3,1.7-1.3,3.1-1.2,4.9c1.9,0.4,3.9,0.7,6,1.1c-0.1,1.2,0.1,2.3-0.4,2.8c-1.7,1.9-2.4,4.6-4,6.2
	c-2,2.1-2,4.1-2,6.4c-0.4,52.6-0.9,105.2-1.3,157.8c0,1.3,0.1,2.6,0.2,3.9C53.9,306,54.2,306.1,54.5,306.1z"/>
<path class="st0" d="M75.1,22.3c0.3-0.2,0.6-0.5,0.9-0.7c4.4-3.2,9.4-3.8,14.7-3.2c17.8,1.8,27.4,13,32.4,29
	c2.3,7.4,2.4,15.2,2.7,22.8c0.1,1.3,0,2.6,0.7,4c0.2-0.4,0.7-0.9,0.6-1.3c-0.4-8-0.3-16-2.3-23.8c-2.7-10.6-7.7-19.9-16.9-26.2
	c-8.9-6.1-18.8-7.7-29.2-4.8c-3.3,0.9-6.6,2.8-9.2,5c-7.8,6.5-13.5,14.5-15.2,24.8c-0.9,5.7-1.6,11.4-2.4,17.1
	c-0.1,1.1,0.2,2.2,0.4,4c2-1.9,1.9-3.7,2.1-5.3c0.4-3.2,0.8-6.4,1.2-9.7c0.1-0.5,0.5-1,0.8-1.5l-0.1,0.1c0.4-3.3,0.5-6.7,1.2-10
	c1-4.5,3.2-8.2,7.3-10.8c2.2-1.4,3.8-3.6,5.7-5.5C72.1,25,73.7,23.6,75.1,22.3z"/>
<path class="st0" d="M261.9,60.8c-0.9-0.4-1.9-0.8-2.9-1.3c7.8-1.4,14,0.6,19.6,5.8c7,6.4,10.3,14.6,11.6,23.7
	c0.8,5.2,0.7,10.6,1,15.9c0.1,1.9,0,3.8,0,6.3c1.9-3.4,1.3-6.3,1.2-9.2c-0.2-8.4-0.7-16.8-3.8-24.8c-2-5-4.9-9.4-8.3-13.6
	c-3.1-3.8-7.5-5.4-11.9-6.2c-6.5-1.2-13-0.9-18.8,3c-0.7,0.5-1.3,1.1-2.3,1.9c2.4-0.3,4.2-0.6,6.1-0.8c5-0.4,9,2,12,5.6
	c5,6,8.3,12.8,8.2,20.9c0,5.3,0.5,10.6,0.9,15.9c0.1,1.7,0.6,3.4,1.1,5.1c0-5.7,0.1-11.3,0-17c-0.1-3.4-0.6-6.7-1-10.1
	c-1.1-8.5-4.9-15.4-12-20.3c-0.3-0.2-0.5-0.7-0.7-1L261.9,60.8z"/>
<path class="st0" d="M286.5,160.2c-3.4,0.2-6.2,0.4-9.3,0.6c-0.3,6.1-0.6,11.7-0.8,17.3c0,0.3,0.6,0.6,1.5,1.3
	c0.9-5.5-0.5-10.6,0.5-16c1.9,0,3.9,0,6.2,0c-0.2,6.1,0,12.2-0.8,18.2c-1,7.3-0.7,14.5-0.2,21.7c0.8,12.1,0.9,24.2,0,36.3
	c-0.5,7.4-0.3,14.8-0.4,22.2c0,0.5,0.3,1,0.7,2.3c0.5-1.3,1-1.9,1-2.5c0.1-1.5,0-3,0-4.4c0.3-6.9,0.7-13.9,0.9-20.8
	c0.2-9.8,0.3-19.5,0.1-29.3c-0.2-12.9-0.5-25.7,0.6-38.6C286.7,166,286.5,163.5,286.5,160.2z"/>
<path class="st0" d="M20.7,45.2c-2.7,1.1-4.2,1.7-5.9,2.4c0,10.4,0,20.8,0,31.6c2.5,0,4.9,0,7.7,0C23.1,67.9,21.6,57,20.7,45.2z"/>
<path class="st0" d="M25.5,225.3c5-0.4,6.2-3.9,6.7-7.8c0.4-2.9-0.3-3.5-3.8-3.8c-0.7,1-1.4,2.1-2.5,3.5c-2.1-2.6-1.8-5.4-1.9-8.1
	c-0.2-2.7,0-5.5,0-8.6c-2.5,4-1.8,14,1.5,18.5c1.5-1.3,3-2.5,4.4-3.8c1.5,5.2,0.5,6.7-6.4,9.2c0.5,1.8,1.1,3.6,1.5,5.4
	c0.9,4.4-0.8,8.5-4.3,10.9c-1.3,0.9-2.6,1.1-4.1,0.5c-5.1-2-7.7-6.7-6.3-12.1c0.3-1.1,0.6-2.2,0.9-3.5c-2.5-0.5-4.8-0.6-6.7-1.5
	c-1.7-0.8-3-2.5-4.5-3.8c0.3,4.4,2.7,6.6,8.7,7.8c-0.2,1.9-0.4,3.8-0.6,5.6c-1,7.5,9.6,13.1,15.5,9.9c1.8-1,3-2.3,3.6-4.2
	C28.6,235.2,28.2,231.3,25.5,225.3z"/>
<path class="st0" d="M120.2,102.1c-0.7-2-1.1-3.1-1.5-4.2c-0.6,0-1.2-0.2-1.4,0c-2.2,2-2.3,4.5-0.5,6.6c2.7,3,7.5,3.4,10.9,0.8
	c3.8-2.9,4.6-6.7,1.9-10.5c-3.7-5.5-9.3-7.4-15.5-6.4c-4.6,0.7-9.1,2.4-13.5,4.4c1.4-0.2,2.9-0.5,4.3-0.7c5.3-0.7,10.6-1,15.8,0.5
	c1.7,0.5,3.6,1.2,4,3.1c0.2,1.3,0,3.1-0.7,4.1C123.3,101,121.7,101.3,120.2,102.1z"/>
<path class="st0" d="M271.9,268.1c0.1-1.6,0.2-3.2,0.2-4.7c0.2-33.9,0.4-67.8,0.8-101.8c0-2.3-2-3-2.3-5.1c5.7-1.6,11.7,0,17.2-2.3
	c-6.1,0-12.2,0-18.6,0c-0.2-1.5-0.4-2.6-0.6-3.8c-0.4,0.2-0.9,0.4-0.9,0.6c-0.1,1.1-0.3,2.4,0.1,3.3c0.8,2,2.2,3.8,3.1,5.8
	c0.5,1.3,0.7,2.8,0.6,4.2c-0.2,19.8-0.4,39.7-0.6,59.5c-0.1,13.6-0.2,27.3-0.3,40.9c0,1.2,0.1,2.3,0.1,3.5
	C271.2,268.2,271.5,268.1,271.9,268.1z"/>
<path class="st0" d="M140.8,205.2c-9.2-16.4-9.6-33.5-4.8-50.9c4.8-17.5,15.7-30.5,32-38c-0.4-3.3-1.2-6-1.1-8.7
	c0.2-3,2.5-4.8,5.9-5.8c-7,0-9.2,4.9-6.3,13.5c-1.4,0.8-3,1.6-4.4,2.5c-17.1,10.1-26.5,25.2-29.3,44.7c-1.2,8.4-1.5,16.8,0,25.2
	C134.1,194.2,136.8,200,140.8,205.2z"/>
<path class="st0" d="M149,293.7c0.3-1.1,0.8-2,0.8-2.9c0-11.1,0.1-22.2,0-33.3c0-1.9-0.5-3.8-0.8-5.7c-1.3-9.3,0.1-18.6,0.5-27.9
	c0.1-2.1,1-4.3-0.5-6.5c-2.1,1-1.6,2.7-1.6,4.2c-0.1,8.3-0.2,16.6-0.1,24.8c0,14,0.1,28.1,0.2,42.1
	C147.4,290.3,146.6,292.3,149,293.7z"/>
<path class="st0" d="M24.7,79.8C44,79,62.9,78.3,81.8,77.5c0-0.2,0-0.4,0-0.7c-18.4,0.3-36.8,0.7-55.5,1c0-4.4,0-8.2,0-12
	c0-4-0.1-7.9-1-11.8c-0.8-3.4-0.7-7-0.9-10.6c-0.2-3.2-0.1-6.5-0.2-9.8c0-0.9-0.4-1.8-1.1-2.7C22.9,47,23.9,62.9,24.7,79.8z"/>
<path class="st0" d="M155.8,87.9c-1.2,2.9-2.3,4.8-4.7,6c-1,0.5-1.6,2.3-2,3.6c-0.3,1.1-0.2,2.4,0,3.5c0.9,6,0.9,12.1,0.3,18.2
	c-0.1,1.4,0.3,2.8,0.5,4.2c0.3,0,0.7,0,1-0.1c0.2-8.9,0.5-17.8,0.7-26c2.1-1.8,3.9-3.1,5.3-4.7c0.8-1,0.7-2.7,1.1-4.4
	c7.1,0.8,14.2,2.3,20.3,7.6c-0.5-0.7-0.8-1.6-1.4-2.1c-3.1-2.9-6.9-4.5-11-5.5c-8.4-2.1-16.9-2.8-25.6-2.3
	c-5.1,0.3-10.3,0.9-15.4,1.8C135,87.3,145.3,86.8,155.8,87.9z"/>
<path class="st0" d="M45.5,0c-1.9,2.7-2.1,5.7-2.1,8.6c0.1,13.2,0.8,26.3,0.3,39.5c-0.3,8.6-0.6,17.1,0.1,25.7
	c0.1,0.7,0.1,1.4,0.8,2.3c0.2-0.9,0.7-1.7,0.7-2.6c0.2-4.6,0.4-9.2,0.5-13.8c0-19-0.1-37.9-0.1-56.9C45.7,1.9,45.5,1,45.5,0z"/>
<path class="st0" d="M269,115c0.3,0,7,3.5,10.7,4.2c2.2,0.4,4.4,0.6,6.6,0.9c2.2,0.4,3.6-0.5,5-2.8c-3.9-0.3-7.4-0.5-10.9-0.7
	c0-0.1,0-0.3,0-0.4c4.7-0.4,9.4-0.9,14.3-1.3c-0.3-2.8-2-2.5-3.4-2.5c-6.2-0.1-12.4-0.1-18.6-0.2c-1.9,0-3.8,0-5.9,0
	C267.4,113.7,269,115,269,115z"/>
<path class="st0" d="M106.7,28.5c1.3,0.9,2.8,1.7,3.8,2.8c6.7,7.1,10.1,15.6,10.8,25.2c0.4,5,0.5,10.1,0.8,15.1
	c0.1,1.1,0.5,2.1,0.7,3.2c0.3,0,0.6,0.1,1,0.1c0.4-0.8,1.2-1.6,1.1-2.4c-0.1-2.6-0.5-5.3-0.8-7.9c-0.5-4.4-1-8.8-1.8-13.2
	c-2.2-12.6-9.4-21.8-20-28.5c-3-1.9-6.3-3-10-2.7c2.8,2.4,5.4,4.5,8.3,6.9c0.8-0.4,1.6-0.9,2.9-1.6c0.8,0.8,1.8,1.7,2.9,2.7
	C106.4,28.3,106.5,28.4,106.7,28.5z"/>
<path class="st0" d="M175.1,59.1c1.3-1.3,2.9-2.6,4.6-3.4c3.3-1.6,5.7-4,7.6-7.2c0.4-0.6,1.1-1,1.6-1.5c0,7.2,0,14.1,0,21
	c0,1.1-0.6,2.1-1.2,3.9c-2.3-3.1-0.9-7.8-5.6-8.6c-0.2,4.1,0.2,8.4-4.7,10.4C171.1,70.1,170.2,64,175.1,59.1z M180.5,65.9
	c-0.4-1.7-0.1-3,1.4-3.8c1.7-0.9,2.8,0.2,3.8,1.3c0.4,0.4,0.7,0.8,1.7,1.8c0-5,0-9.2,0-13.3c-2.9,2.5-6,5-8.7,7.8
	c-1.6,1.6-2.9,3.7-3.9,5.8c-1.4,3.1-1.1,3.4,2.2,5.5C179.5,70.2,181.2,68.8,180.5,65.9z"/>
<path class="st0" d="M261.8,60.7c5.8,2.2,8,4.6,13.7,15.4c0.3-1.1,0.3-2,0.7-2.5c1.5-1.9,3.7-1.8,5.2,0.2c3.4,4.4,5.2,9.6,6.1,15
	c0.6,3.9,0.7,7.9,0.9,11.9c0.1,1.6,0,3.2,0.8,4.8c0.1-0.9,0.4-1.8,0.4-2.7c0.4-9.1-0.4-18.1-4.7-26.3c-4.6-8.8-11.3-15-21.5-16.6
	c-0.5-0.1-1.1,0.6-1.6,0.9L261.8,60.7z"/>
<path class="st0" d="M23.7,155.5c3.3-11.1,3-22.4,1.4-34.5c3.7,3.1,7,5.5,12.5,4.2c-3.2-1.8-5.8-3-8-4.7c-2.1-1.7-3.8-3.9-6-6.2
	c-0.3,13.9-0.6,27.5-0.9,41.1C23.1,155.5,23.4,155.5,23.7,155.5z"/>
<path class="st0" d="M214.6,295c0.6-20.1,0.2-39.5,0.1-59.6c-1.9,3-2.7,13.4-2.7,29.8C212,280.9,212.8,291.9,214.6,295z"/>
<path class="st0" d="M233.6,226.7c-0.2,17.4-0.4,34.7-0.5,52.1c0,0.8,0.4,1.5,0.9,3.2c2-4.3,1-8,1.2-11.5c0.2-3.7,0.1-7.4,0.2-11.1
	c0.1-3.7,0.3-7.4,0.4-11.1c0.1-3.7,0.2-7.4,0.1-11.1c-0.1-3.6,0.9-7.4-1.2-10.7C234.4,226.6,234,226.6,233.6,226.7z"/>
<path class="st0" d="M194.7,236c-1.2,1.3-1.8,1.7-2,2.3c-0.2,0.8-0.2,1.8-0.2,2.6c0.2,14.8,0.5,29.6,0.7,44.4c0,2.8-0.3,5.6-0.3,8.4
	c0,0.8,0.1,1.5,0.7,2.3c1.8-9.9,0.5-19.8,0.8-29.7C194.5,256.6,196,246.8,194.7,236z"/>
<path class="st0" d="M287.3,125.6c-3.5,0-6.7,0-10.1,0c0,6.1,0,11.9,0,18.3c3.5-5.4,2.9-11.4,4.4-17.1c1.7,0.1,3.3,0.1,4.8,0.2
	c-0.5,7.4-1,14.5-1.6,21.9c-2.5,0-4.8,0-7.1,0c2.3,2.2,5.1,1.8,7.7,1.4c0.6-0.1,1.2-1.5,1.4-2.4c0.2-1.4,0.1-2.9,0.1-4.4
	C286.9,137.6,287.1,131.9,287.3,125.6z"/>
<path class="st0" d="M120.6,123c-3.4,0.9-6,1.5-8.9,2.3c0-3.9,0-7.9,0-11.8c-0.3,0-0.5,0-0.8,0c-0.3,4.9-0.7,9.9-1.1,15.4
	c4.5,0.6,8.7,0,13.4-0.5c0-4.9,0.1-9.6-0.1-14.3c0-0.7-1-1.4-1.5-2.1c-0.3,0.1-0.7,0.2-1,0.3C120.6,115.8,120.6,119.4,120.6,123z"/>
<path class="st0" d="M194.1,135.4c-0.4,1.4-0.8,2.7-1.3,4.4c-2.3,0.2-4.7,1.1-6.4-1.6c-1.1,0.7-2.2,1.3-3.3,2
	c-0.2-0.2-0.5-0.4-0.7-0.6c0.6-1.9,1.2-3.8,1.8-5.7c-0.7-1.5-1.4-3.1-2.1-4.7c1.6-1.7,2.6-0.1,3.6,0.5c1.5-1,0.8-4,4.3-3.7
	c-0.4,1.4-0.5,2.7-1,3.8c-1.7,3.1-1.3,5.9,1.5,8.9c0.4-4.2,0.8-8,1.3-11.9c1.4-0.4,2.4-0.2,2.4,1.4c0,2.5,0,5-0.1,7.5L194.1,135.4z"
	/>
<path class="st0" d="M277.2,184c-0.3,23.9-0.7,47.9-1,71.8c0.4,0,0.7,0.1,1.1,0.1c0.1-1,0.4-2.1,0.3-3c-0.9-4.7-0.2-9.4-0.1-14.1
	c0.5-15.7,0.7-31.4,1-47c0-2.6-0.4-5.2-0.6-7.8C277.6,184,277.4,184,277.2,184z"/>
<path class="st0" d="M48,88.6c8.3,5.5,8.3,5.5,10.1,18.2c11.3-7.1,22.7-13.8,35.3-18.3c-6.1,1-11.7,3.3-17,6.2
	c-5.5,2.9-10.7,6.1-16.3,9.3c0.2-5.3-1.3-9.9-5.2-13.5C53,88.9,51,88.4,48,88.6z"/>
<path class="st0" d="M128.4,90.4c2.6,2.9,4,6.1,3.7,10c-0.5,5.2-5.6,9.1-10.7,7.8c-1.6-0.4-3.2-0.9-4.6-1.6
	c-4.2-2.4-4.5-7.7-0.6-10.6c0.5-0.4,1.2-0.7,1.6-1.5c-0.8,0.1-1.8,0-2.4,0.3c-4.3,2.4-5.1,9.8-1.4,13.1c3.6,3.2,11,3.1,15.7-0.3
	c3.9-2.8,5.1-8,3.1-12.7C132,92.7,130.5,91.3,128.4,90.4z"/>
<path class="st0" d="M31.1,97.5c9.4-1.9,12.2-1.1,14.8,4.4c2.4,5.1,2,7.8-1.9,11.2c-1-1.4-1.9-2.7-2.9-4.2c-1.1,2.9-0.7,4.5,1.3,5.6
	c1.7,1,3.9,0.7,5.1-1.1c0.9-1.3,1.6-2.9,1.8-4.4c0.7-3.7-0.4-7-2.4-10.1C43.3,93.4,36.3,92.8,31.1,97.5z"/>
<path class="st0" d="M209.5,236.1c-0.4,7-0.7,13.1-1,18.9c-3.3,0-6.1,0-9.4,0c-1-5.4,0.4-11.2-0.7-16.9c-0.7,6.1-1.6,12.2-1,18.5
	c3.5,0.5,6.7,1.1,9.9,1.5c2.3,0.3,3.9-1,3.9-3.2c-0.1-5.6-0.4-11.2-0.7-16.7C210.3,237.8,210,237.4,209.5,236.1z"/>
<path class="st0" d="M19.6,234.3c-2.1,1.4-3.2,0.5-4.1-1.1c-1.2-2.2-1-4.5,0.6-6.1c2.2-2.3,3.9,0.2,6.2,0.1
	c-1.3-0.9-2.5-1.9-3.7-2.8c-5.8,2.2-7.9,7.8-4.9,12.4c1.4,2.1,4,3.1,6.1,2.5c1.7-0.5,3.2-2.5,3.3-4.3c0.1-2-0.9-3.1-4-4.2
	C19.3,232,19.4,233.1,19.6,234.3z"/>
<path class="st0" d="M161.9,70.8c-3,1.7-3.8,1.7-5.2-0.2c-1.4-2-1-4.1,1-5.8c2.1-1.9,5.5-1.9,8.6,0c2.1,1.3,3.2,4.1,2.6,6.5
	c-0.8,2.8-3,4.3-6.6,4.4c0.3-1.6,0.6-3.1,1-5.2C162.4,70.7,162.1,70.7,161.9,70.8z M163.8,66c-1-0.6-2.5-0.9-3.7-0.7
	c-1.6,0.3-1.7,1.8-1.5,3.2c0.1,0.6,0.3,1.1,0.5,1.7c1.6-0.5,3.2-1.5,4.4-1.1c0.9,0.3,1.3,2.3,2,3.6C166.5,69.3,166.1,67.4,163.8,66z
	"/>
<path class="st0" d="M154.4,174.6c-2.1,1.1-4.5,2.3-6.9,3.4c-1.6-3.3,1.7-3.4,2.9-4.9c-0.4-1.8-4.8-1.3-2.8-5
	c2.3,1.1,4.7,2.2,7.3,3.4c1.5-1,3.4-2.1,5.2-3.3c1.6,2.3,0,3.1-1.3,4.1c0.7,1.1,1.5,2.1,2.4,3.5
	C158.4,176.9,156.7,174.6,154.4,174.6z"/>
<path class="st0" d="M266.9,115.4c-0.9-1.2-0.6-2-1.7-3.2c-0.4-0.5-1.2-0.6-2.4-1.2c0.4,4.1,1.6,6.6,5.6,7c-0.2,2.5-0.5,5,3.3,5.3
	c0,4.4-0.1,8.7,0,13c0.1,4.2,0.4,8.5,1.4,12.8c0-2.7,0.1-5.5,0.1-8.2c0-3-0.1-5.9-0.1-8.9c0-2.9,0-5.9,0-8.1c-2-3.1-4-5.1-5.6-7.6
	L266.9,115.4z"/>
<path class="st0" d="M190.9,203.4c2-0.5,2.8,0.2,3.1,1.8c0.8,3.7,1.7,7.4,2.6,11.2c-1.1,0.8-2.1,1.3-2.7-0.4c-0.6-1.6-1.1-3.2-1.6-5
	c-2.1,1.8-0.2,5.8-4.6,6.2C188.2,212.2,189.7,207.8,190.9,203.4z"/>
<path class="st0" d="M117.5,47.1c-1-4.1-2.6-7.4-4.7-11c-1.6,1.3-2.8,2.3-4.1,3.4c0.8,3.1,1.6,6,2.5,9.5
	C113.4,48.4,115.4,47.8,117.5,47.1z"/>
<path class="st0" d="M56.6,52.5c-0.5,5.4-1,10.8-1.5,16.7c3.3,0.6,6.6,1.1,10.1,1.7c0.1,1.1,0.2,2.2,0.3,3.4c0.3-0.1,0.6,0,0.7-0.2
	c0.3-0.3,0.5-0.7,0.7-1.1c1.9-3.9,1.2-5-3.1-5.3c-0.9,0-1.8,0-2.6-0.1c-1.3-0.2-2.6-0.6-4.4-1c0.1-1.6,0.3-3.3,0.3-5
	c0.1-3,1.3-6.1-0.5-9L56.6,52.5z"/>
<path class="st0" d="M100.1,85.9c-14.9-0.7-28.8,0.4-42.7,2.3c2.6,0,5.3,0.1,7.9,0c3-0.1,5.9-0.4,8.9-0.6c2.8-0.1,5.6-0.1,8.4-0.2
	c3-0.2,6-0.2,8.8-0.8C94.1,85.8,96.8,88.1,100.1,85.9z"/>
<path class="st0" d="M212.2,50.3c-10-5.7-13.4-15-13.9-26.4c-1.6,1.9-1.5,3.5-1.2,4.8c1.3,4.8,2.7,9.7,4.2,14.4
	c0.4,1.2,1.4,2.3,2.5,3c2.5,1.8,5.1,3.3,7.6,4.9C211.7,50.8,212,50.6,212.2,50.3z"/>
<path class="st0" d="M110.2,66.7c1.9-13.8-2.2-32.7-10-37.3C108.9,41.1,109.2,54,110.2,66.7z"/>
<path class="st0" d="M111.8,52.1c0.4,1.8,0.6,2.8,1,4.4c0.9-1.5,1.6-2.6,2.3-3.8c2.1,2,2.1,2,1.6,8.4c-0.4,0.2-0.9,0.4-1.4,0.6
	c-0.5,0.2-1,0.3-1.5,0.9c1.8,1,3.6,0.9,6.1,0.5c-0.5-4.1-1-7.9-1.6-12.3C116.1,51.2,114.2,51.6,111.8,52.1z"/>
<path class="st0" d="M281.2,93.6c-0.4-0.7-0.9-1.3-1.3-2c-0.2,0.1-0.3,0.1-0.5,0.2c0.5,1.7,1,3.4,1.5,5c1.9,0,3.1,0,4.5,0
	c1.1-3.9-0.3-7.3-1.2-11.3c-1.7,0.5-3.1,0.9-4.6,1.3c0,0.3,0,0.6,0,0.9c1.1,0.4,2.1,0.8,3.7,1.3c-0.3,1.6-0.6,3.2-0.9,4.7
	C282,93.6,281.6,93.6,281.2,93.6z"/>
<path class="st0" d="M146,65.5c1.3-12.1,3.4-22.7,14.1-30.2C150.4,37.7,144.3,54.2,146,65.5z"/>
<path class="st0" d="M285.8,111.1c0-2.8,0.1-5,0-7.2c-0.2-3.4-1.4-3.9-4.8-2.1c2.9,1.8,2.9,1.8,1.8,6c-0.5-1.6-0.8-2.6-1.1-3.6
	c-1.6,1.8-1.1,3.8-1.2,6.2C282.3,110.7,283.9,110.9,285.8,111.1z"/>
<path class="st0" d="M112.7,67.1c-0.3,2.3-0.6,4.4-0.9,6.5c0.3,0.1,0.6,0.2,0.9,0.2c0.3-0.8,0.6-1.6,0.9-2.4
	c0.3-0.9,0.6-1.9,0.9-2.9c3.6,0.2,2.3,3.8,4.1,5.1c1.8-1.2,2.4-3.2,1.6-5.3C119.3,66.4,118,66.1,112.7,67.1z"/>
<path class="st0" d="M105.3,128.3c0.2-0.2,0.6-0.3,0.6-0.5c1.2-11.1,1.7-22.3,0.8-33.5c0-0.1-0.2-0.2-0.4-0.4
	c-1.4,0.9-0.8,2.4-0.7,3.5c0.1,4.3,0.5,8.5,0.4,12.8c-0.1,4.6-0.5,9.1-0.8,13.7C105.2,125.3,105.3,126.8,105.3,128.3L105.3,128.3z"
	/>
<path class="st0" d="M160.9,179.6c-1.2,0.4-2.4,0.8-3.6,1.1c-2.7,0.5-5.5,1-8.2,1.5c-1.4,0.2-1.9-0.4-1.9-1.7
	c2.7-1.4,9.6-2.3,13.5-1.8C160.7,179,160.8,179.3,160.9,179.6z"/>
<path class="st0" d="M184.7,217.1c-0.7-4.9,0.5-12.1,2.6-14.4c0.2,1,0.5,1.8,0.5,2.5c-0.3,3.2-0.6,6.4-1,9.7
	C186.7,216.1,186.4,217.3,184.7,217.1z"/>
<path class="st0" d="M217.9,172c4.2,0,7.9,0,11.6,0c0,0.8,0,1.3,0,2.1c-3.7,0-7.3,0-10.9-0.1C218.4,174,218.2,173,217.9,172z"/>
<path class="st0" d="M194,135.5c0.3-2.1,0.7-4.3,1-6.4c0.2-1.2,0.1-2.4,2.4-2.4c0.9,4.6-1.2,8.6-2,13.5c-1.8-1.7-1.1-3.3-1.2-4.8
	L194,135.5z"/>
<path class="st0" d="M217.5,169.8c3.2-2.4,6.1-2.8,12-2c-0.1,0.6-0.2,1.7-0.4,1.8C225.5,170.4,221.8,170.1,217.5,169.8z"/>
<path class="st0" d="M106.7,28.5c-0.2-0.1-0.2-0.2-0.3-0.4c-0.8-0.1-1.6-0.1-2.7-0.2c-0.1,3.8,2.6,5.6,4.5,8.2
	c0.9-0.9,1.7-1.5,2.5-2.3C109.2,31.9,107.9,30.2,106.7,28.5z"/>
<path class="st0" d="M145.5,95.3c0,6.8,0,13.2,0,19.7c0.1,0,0.3,0,0.4,0c0.1-0.8,0.3-1.5,0.3-2.3c0.4-4.9,0.7-9.7,1.2-14.6
	C147.6,96.9,148,95.8,145.5,95.3z"/>
<path class="st0" d="M218,176.6c3.9-0.8,7.4-0.5,10.9-0.1c0.3,0,0.5,1.1,0.7,1.8C225.9,179.1,221.4,178.5,218,176.6z"/>
<path class="st0" d="M278,76.1c3.2,2,3.4,3.6,1.1,6.1c0.8,1.2,2,2.1,3.2,1c0.7-0.6,0.9-2.2,0.7-3.2c-0.3-1.4-1-2.7-1.8-4
	C280.4,74.7,279.4,74.7,278,76.1z"/>
<path class="st0" d="M244.1,166.5c1.4-0.3,2.8-0.6,4.3-0.9c0-1.2,0-2.1,0-3.6c-1.4,0.1-2.7,0-3.8,0.4
	C242.7,163.3,243.3,164.8,244.1,166.5z"/>
<path class="st0" d="M214.4,217.1"/>
<path class="st0" d="M237.7,90.8c-2.8,6.3-2.9,7.7-0.5,9.8C238.9,97.4,237.6,94.1,237.7,90.8z"/>
<path class="st0" d="M244,168.3c0.1,1.4,0.1,2.2,0.2,3.2c1.7,0,3.3,0,4.9,0c0-1.1,0-1.9,0-2.9C247.4,168.4,246,168.4,244,168.3z"/>
<path class="st0" d="M249.3,177.8c-0.7-3-0.7-3-4.9-3c-0.1,0.9-0.1,1.8-0.2,3C245.9,177.8,247.4,177.8,249.3,177.8z"/>
<path class="st0" d="M182.9,77.5c1.9,0,3.8,0,5.8,0c-0.5-3.8-1.1-4.2-3.5-2.7c-0.8,0.5-1.6,1.2-2.4,1.8
	C182.8,76.8,182.8,77.2,182.9,77.5z"/>
<path class="st0" d="M248.7,182c-1.8-0.4-3-0.6-4.5-0.9c-0.1,1.1-0.2,1.9-0.3,3.1c1.4,0.3,2.8,0.6,4.4,1
	C248.4,184,248.6,183.2,248.7,182z"/>
<path class="st0" d="M278.1,94.7c0,4.8,0,9.5,0,14.3c0.2,0,0.3,0,0.5,0c0-4.8,0-9.5,0-14.3C278.4,94.7,278.2,94.7,278.1,94.7z"/>
<path class="st0" d="M274.1,121.9c4.6,0,9.2,0,13.8,0c0-0.2,0-0.4,0-0.6c-4.6,0-9.2,0-13.8,0C274.1,121.5,274.1,121.7,274.1,121.9z"
	/>
<path class="st0" d="M189.9,162.9c0,2.5,0,4.9,0,7.6c0.9,0.1,1.8,0.4,2.6,0.3c2.8-0.5,4.4-1.9,4.3-3.6c-0.1-2.1-2.2-4-4.8-4.3
	c-0.7-0.1-1.5,0.1-2.2,0.1L189.9,162.9z"/>
<path class="st0" d="M185.4,170.1c-3.3,0.8-4.3,1.7-4.4,3.9c-0.1,2.1,0.6,3.7,3.3,4.2c-0.5-1.6-1.4-3.1-1.2-4.3
	c0.2-1.1,1.8-1.9,2.7-2.8c-0.1-0.3-0.3-0.7-0.5-1.1L185.4,170.1z"/>
</svg>
