<?xml version="1.0" encoding="utf-8"?>
<!-- Generator: Adobe Illustrator 19.2.1, SVG Export Plug-In . SVG Version: 6.00 Build 0)  -->
<svg version="1.1" id="Слой_1" xmlns="http://www.w3.org/2000/svg" xmlns:xlink="http://www.w3.org/1999/xlink" x="0px" y="0px"
	 viewBox="0 0 708.5 388" style="enable-background:new 0 0 708.5 388;" xml:space="preserve">
<style type="text/css">
	.st0{fill:#BCA064;}
</style>
<path class="st0" d="M582.6,280.4c6.2,8,4.6,16.3,0.8,24.5c-0.5,1.2-2.2,2.3-3.6,2.6c-23.2,4.7-46.4,9.3-69.6,13.9
	c-13.5,2.7-26.3,5.3-37.7,15.2c-20.2,17.5-42.3,32.8-63.5,49.1c-2.8,2.1-5.1,3.1-8.6,1.6c-30.7-12.8-61.5-25.2-92.1-38.3
	c-17-7.3-33.7-15.4-50.8-23.3c-1.3,2.2-2.7,4-3.7,6c-2,4-4.3,5.3-9.2,4.4c-14.2-2.8-28.6-4.9-42.9-7.2c-29.7-4.8-59.4-9.7-89.1-14.2
	c-31.3-4.8-62.7-9.4-94-14.1c-3-0.5-6-1.1-9.8-1.9c2.1-3,3.4-5,4.9-7c17.2-23.1,37.7-43.3,58.1-63.5c1.4-1.4,4.5-1.9,6.6-1.6
	c25.2,2.5,50.4,5.2,75.6,7.9c5.2,0.6,10.4,1.2,15.6,1.8c-2.1,1-4.2,0.9-6.3,0.9c-27.9-0.6-55.5-3.7-82.9-8.7
	c-4.5-0.8-7.4,0.5-10.5,4C58.8,245,47.1,256.9,36,269.3c-7.7,8.5-14.9,17.4-23.1,27.2c4.6,0.5,7.5,0.8,10.5,1.1
	c14.6,1.5,29.3,2.2,43.8,4.5c26.9,4.2,53.7,9.3,80.5,14.1c31.5,5.6,63,11.2,94.5,17.1c5.1,0.9,8,0.3,10.1-5c3.1-7.7,3.5-7.4,11.2-4
	c45.2,19.8,90.4,39.5,135.5,59.4c3.8,1.7,6.2,1.3,9.3-1.5c20.6-18,41.4-35.6,62.1-53.5c4.2-3.7,8.7-5.8,14.4-6.8
	c30.6-5.5,61.1-11.7,91.6-17.8c2.1-0.4,4.4-2.6,5.7-4.5C586.1,293.4,585.5,286.9,582.6,280.4z"/>
<path class="st0" d="M614.3,231.4c0.8-9.1,1.8-17.4,2-25.7c0.1-4.8,2-7.2,6.1-9.3c25.3-13.1,50.4-26.5,75.6-39.9
	c1.3-0.7,3.1-1,3.6-2.1c1.7-3,2.8-6.3,4.2-9.5c-2.6-0.5-5.3-1.5-7.8-1.3c-4.1,0.4-6-1.2-6.6-5c-0.9-5.8-1.9-11.5-2.8-17.3
	c-0.4-3-1.5-5-4.9-5.9c-6.5-1.7-12.8-4-19.2-6.1c-7.4-2.4-14.9-4.8-23.6-7.6c15.9-8.1,30.9-13.8,47.5-14c-14.1,4.6-29.2,6.2-43.7,14
	c14.5,4.2,27.5,8.1,40.6,11.7c3.6,1,5.4,2.6,6.1,6.2c1,5.2,2.7,10.2,3.8,15.4c0.6,3,1.7,4.4,5.1,4.7c8.1,0.6,10.1,3.9,6.5,11.2
	c-1.4,2.9-4,5.9-6.8,7.5c-25.2,13.6-50.6,27-76,40.2c-3.2,1.7-4.7,3.5-4.6,7.3c0.1,8.5-0.3,17-0.8,25.5c-0.1,1.4-1.7,3.7-2.8,3.9
	c-8.8,1.1-17.6,1.6-26.4,2.5c-14.8,1.6-29.7,3.3-44.5,5c0,0.4-0.1,0.8-0.1,1.2c13.8,3.2,27.6,6.4,41.4,9.7c0,0.6,0,1.1,0,1.7
	c-11.2,7.5-21.4,16.3-32.9,23.4c-0.6-0.8-1.2-1.7-1.8-2.5c10-6.9,20-13.8,30.7-21.3c-16-3.9-30.8-7.5-45.6-11.1
	c0-0.4,0.1-0.9,0.1-1.3C562.4,238.8,588.2,235.1,614.3,231.4z"/>
<path class="st0" d="M501.2,130.1c4.7-1.6,8.6-4.4,11.7-3.7c9.4,2.2,18.4,5.8,27.6,8.9c0,0.5,0,1,0,1.4c-2.8,0.7-5.8,2.6-8.3,2
	C522.1,136.3,512.2,133.2,501.2,130.1z"/>
<path class="st0" d="M480,88.5c4.2-7,17.7-14.8,26.4-11.7C497.1,89,494.5,90.2,480,88.5z"/>
<path class="st0" d="M292.7,296.8c7.6-3,14.1,1.5,20.7,3.5c2,0.9,3.9,2.2,5.9,2.4c1.7,0.2,3.3,1,5.7-0.6c2.5-1.7,4,3.1,6.1,4.9
	c0.7-1.1,1.2-2.1,1.7-3c0.2,0.1,0.5,0.2,0.7,0.3c-0.2,1.6-0.5,3.1-0.8,5.4c1.8-0.8,3.1-1.3,4.2-1.8c1.8,1.6,3.5,3.2,5.2,4.7
	c-0.1,0.2-0.2,0.4-0.3,0.6c-1.6-0.8-3.2-1.6-4.8-2.4c-1.5,0.9-3,1.7-4.6,2.7c-1.5-2.6-2.8-5-4.3-7.6c-0.8,1.5-1.2,2.4-2.3,4.3
	c-0.4-2.6-0.7-3.9-0.9-5.2c-7.5,1.4-7.5,1.4-10.4,6c-0.1-2.7-0.2-5.4-0.2-7.6C306.8,301.1,299.7,299,292.7,296.8z"/>
<path class="st0" d="M349.8,247c17.9,5.1,35.7,10.2,53.8,15.3c-0.9,5-8.3-2.8-7.6,2.8c-2.2-1.6-4.7-3.9-7.6-5.3
	c-0.8-0.4-2.9,2.1-3.8,2.8C375.4,252.6,360.7,254.2,349.8,247z"/>
<path class="st0" d="M537.1,131.4c-0.1-0.7-0.1-1.3-0.2-2c1.9-0.2,4.1-1,5.8-0.5c6,1.8,11.9,4.1,17.9,6.2c4.4,1.6,8.8,3.2,13.2,4.8
	c-0.2,0.6-0.4,1.2-0.6,1.8C560.5,140.9,549.4,134,537.1,131.4z"/>
<path class="st0" d="M373.8,278.4c0.3-0.6,0.5-1.1,0.8-1.7c6.5,2.6,13,5.4,19.6,7.8c5.5,1.9,11.1,3.4,16.7,4.9
	c1.2,0.3,2.7-0.3,4.3-0.6c-0.1,1.7-0.1,3.2-0.2,5c-6.8-2.3-13.1-4.7-19.6-6.7c-2.1-0.6-4.5-0.1-7.5-0.1
	C388.1,278.7,376.7,284.4,373.8,278.4z"/>
<path class="st0" d="M476.3,263.8c0-0.4,0-0.8,0-1.2c2,0.2,4,0.4,5.9,0.7c2,0.3,4.1,1.3,5.9,0.9c3.1-0.7,3.1-1.1,3.3,0.5
	c5.7,2.3,10.9,4.4,16.1,6.5c-0.2,0.5-0.4,1.1-0.6,1.6c-3.8-1.4-7.7-2.8-12.2-4.4c1,7.2,8.3,5.6,11.4,10.1c-2-0.6-3.4-1-4.5-1.3
	c-0.4,1.8-0.7,3.3-1.1,4.7c-1.6-4.1-1.5-8.8-6.4-8.1c-1.6-2.7-2.4-5.8-4.1-6.5C485.6,265.5,480.9,264.9,476.3,263.8z"/>
<path class="st0" d="M502.8,89.4c-0.2-0.5-0.3-1-0.5-1.5c7.4-10,20.5-21.3,24.7-20.8c-6.2,6.6-12.1,13.1-18.2,19.3
	C507.3,88,504.8,88.5,502.8,89.4z"/>
<path class="st0" d="M380,269.8c-0.7,1.4-1.3,2.5-2,3.8c-0.9-2.8-1.6-5.1-2.5-8c-0.7,1.7-1.1,2.6-1.3,2.9c-5.2-2-10.2-3.8-15.7-5.9
	c3.6-1.7,6.3-3.7,9.3,0.6c0.9,1.2,3.9,1,5.9,1.4c0.9,0.2,1.8,0.1,2.7,0.4c6.7,2.7,13.3,5.5,20.4,8.4c-0.4,0.2-1.5,1.4-2.2,1.2
	C389.8,273.3,385,271.5,380,269.8z"/>
<path class="st0" d="M549.7,65.3c-12.5,9.4-13.3,9.7-21.2,6.2C534.3,65.4,541.1,63.3,549.7,65.3z"/>
<path class="st0" d="M576.8,132.9c6.7-4.2,13.2-6.7,20.5-0.9C590.5,134.6,584,139.2,576.8,132.9z"/>
<path class="st0" d="M488,276.1c2.6,0.7,5.1,1.5,8.7,2.5c-3.7,1-5.8,1.6-8.3,2.4c-1.4-5-7.1-4.4-11.7-5.9c-4.8-1.6-9.6-3.3-14.4-5
	c2.8-1,7.1-2.1,8.4-0.6c4.1,4.7,10.2,2.7,14.6,5.6c0.1,0,0.6-0.7,1.4-1.4c-1.4-0.5-2.4-0.8-3.9-1.3C487.7,271.1,488,271.3,488,276.1
	z"/>
<path class="st0" d="M543.4,62c8.3-6.3,12.8-7.1,20.8-4.1C558.2,63,551.3,63.5,543.4,62z"/>
<path class="st0" d="M348.4,274.7c0.6-2.1,1-3.4,1.4-4.8c1.1,0.4,2.1,0.7,3.2,1.1c1,0.4,1.8,0.9,2.8,1.2c4.3,1.2,8.5,2.2,11.9,3.1
	c-0.5,3.8-0.8,6.3-1.2,9.3c-1.9-2-4.4-3.4-5.1-5.4C360.3,275.3,353,271.8,348.4,274.7z"/>
<path class="st0" d="M379,291.9c-0.3,0.8-0.6,1.6-0.9,2.3c-11.6-3.9-23.3-7.7-34.9-11.6c0.2-0.7,0.4-1.3,0.5-2
	c3.8,1.3,7.6,2.5,11.5,3.8c4.1,1.3,8.2,2.6,12.3,3.9C371.3,289.5,375.2,290.7,379,291.9z"/>
<path class="st0" d="M377.1,247c6.5-1.3,11.4-0.5,16.6,1.8c4.5,2,10.2,1.5,15.2,4.2c-2.2,1.8-3.5,2.9-4.1,3.4
	C397,249.1,387,249.5,377.1,247z"/>
<path class="st0" d="M577.7,60.4c-6.4,2.9-11.1,9.1-20.2,4.8C564.6,63,569.1,56.4,577.7,60.4z"/>
<path class="st0" d="M490.8,91.4c0.2,0.9,0.3,1.8,0.5,2.6c-5.9,1-11.8,1.9-18.8,3.1C477.6,87.7,484.8,92.2,490.8,91.4z"/>
<path class="st0" d="M564.8,143.8c-4.9,3.8-9.7,3.6-16.5-0.9C555.2,139.5,556.2,139.5,564.8,143.8z"/>
<path class="st0" d="M510.7,66c6-6.6,9.7-8.2,14.4-5.7C520.5,63.3,518.1,69.8,510.7,66z"/>
<path class="st0" d="M454,279.1c-0.2,0.5-0.3,1-0.5,1.5c-0.8-0.1-1.7-0.2-2.5-0.4c-5.7-1.3-11.3-2.6-17-3.8c-2.6-0.6-4.3-3.4-3.8-5
	C438.1,274,446.1,276.5,454,279.1z"/>
<path class="st0" d="M428.8,283.2c-2.6,2.1-19.8-3.5-22.6-8C413.6,277.8,420.9,280.4,428.8,283.2z"/>
<path class="st0" d="M514,69.6c-3.2,6.6-8.9,3.8-14.7,4.3C504,69.4,508.1,66.5,514,69.6z"/>
<path class="st0" d="M389.1,295.1c4.1,1.3,6.8,2,9.4,3c2.6,1,5.1,2.4,7.6,3.6c-0.2,0.6-0.4,1.1-0.7,1.7c-5.6-0.8-10.6-3.6-14.2-5.6
	c-3.1-0.1-4.9-0.2-7.6-0.3C386.6,296.1,388.5,295.3,389.1,295.1z"/>
<path class="st0" d="M551.2,128.7c0.2-0.5,0.3-0.9,0.5-1.4c9.1,0.1,16,6.8,24.4,8.7c-0.2,0.5-0.3,0.9-0.5,1.4
	C567.5,134.5,559.3,131.6,551.2,128.7z"/>
<path class="st0" d="M547.6,54.9c-5.3,0.2-8.1,8-15.5,4.2C537.7,56.8,541,50.7,547.6,54.9z"/>
<path class="st0" d="M522.2,78.3c3.2-5.7,7.4-3.4,11.4-2.7C530.8,81.2,526.7,79.7,522.2,78.3z"/>
<path class="st0" d="M616.4,123.8c-0.1,0.5-0.3,0.9-0.4,1.4c-6.8,1.4-11.4-4.4-17.5-5.3c0.2-0.6,0.4-1.2,0.5-1.8
	C604.9,120.1,610.6,121.9,616.4,123.8z"/>
<path class="st0" d="M409.6,266.7c0.1-0.4,0.3-0.7,0.4-1.1c2.3,0.4,4.6,0.7,6.8,1.3c2.1,0.6,4.1,1.5,6.1,2.4c1.9,0.9,3.7,2,5.6,3.1
	c-0.2,0.3-0.4,0.6-0.5,0.9C421.9,271.1,415.8,268.9,409.6,266.7z"/>
<path class="st0" d="M493.5,128.3c-0.1-0.7-0.2-1.4-0.3-2.1c4.6-1,8.8-5,15.1-1.1C502.8,126.4,498.1,127.3,493.5,128.3z"/>
<path class="st0" d="M483.1,98.3c0.1,0.6,0.2,1.2,0.3,1.9c-5,0.9-10,1.7-14.9,2.6c-0.1-0.5-0.2-1-0.3-1.6
	C472.6,97.7,478.1,99,483.1,98.3z"/>
<path class="st0" d="M462.7,257.1c2,2.5,7.9-2.8,8.4,4.8c-1.8-0.8-3.1-1.4-4.2-1.9c-0.8,2.1-1.4,4-2.1,5.9c-0.3-0.1-0.6-0.2-0.9-0.3
	C463.6,262.8,463.2,260.1,462.7,257.1z"/>
<path class="st0" d="M523.4,56.1c4.1-2.3,6.8-7.1,13.2-3.6C531.7,53.4,529.7,60.1,523.4,56.1z"/>
<path class="st0" d="M508.8,271.1c0.2-0.2,0.4-0.5,0.6-0.7c0.8,0.4,1.5,0.9,2.3,1.3c0.4-0.5,0.8-1,1.3-1.5c-2-2-4.1-4-7.1-6.9
	c4.3,2,7.5,3.5,10.1,4.7c-1.4,2.2-2.6,4.1-4.2,6.5C510.6,273.2,509.7,272.1,508.8,271.1z"/>
<path class="st0" d="M536,123.8c0.2-0.8,0.3-1.5,0.5-2.3c3.9,1.1,7.8,2.2,11.6,3.3c-0.1,0.6-0.3,1.3-0.4,1.9
	C543.8,125.6,539.9,124.7,536,123.8z"/>
<path class="st0" d="M599.4,129.6c4-5.3,4-5.3,10.5-1.1C605.6,128.9,602.5,129.3,599.4,129.6z"/>
<path class="st0" d="M347.8,254.8c0.3-0.2,0.7-0.4,1-0.6c1.6,2.2,3.1,4.3,4.9,6.8c-0.5,0.8-1.4,2.4-2.8,4.8
	C349.8,261.6,348.8,258.2,347.8,254.8z"/>
<path class="st0" d="M351.8,126.8c17,1.3,33.7,3.8,49,13.9c-6-8.1-21.2-16.6-31.1-17.4c-4.7-0.4-9.4-0.7-14.1-1
	c1.3-1.5,2.6-3,3.9-4.5c1.9,0,3.8,0,5.7,0c10.7-0.1,20.1,3.4,28.4,10.1c2.6,2.2,5.4,4.2,8.1,6.3c0.4-0.2,0.7-0.4,1.1-0.6
	c-2.6-14.5-5.2-28.9-7.9-43.8c-2.4,0.7-4.8,1.4-7.1,2.2c1-0.9,1.9-1.8,2.8-2.7c1.7-0.5,3.3-0.9,5-1.4c5.6,16.8,9.6,33.4,11.2,50.5
	c0.3,3.7-5.1,6.7-8.6,5.2c-8.1-3.4-16-8.2-24.5-9.9c-8.1-1.6-16.3-2.8-24.5-3.8C350.1,128.8,350.9,127.8,351.8,126.8z"/>
<path class="st0" d="M393.7,156.2c-3,9.9,4.3,11.2,10.8,13c5.8,1.6,11.5,3.5,17.4,4.5c2.8,0.5,5.9-0.9,8.9-1.3
	c1.8-0.2,3.8-0.3,5.5,0.2c35.8,10.6,71.6,21.4,107.3,32.1c9.5,2.8,18.9,6,28.5,8.3c3.1,0.8,7.2,0.4,10-1
	c37.4-19.2,74.6-38.6,111.8-58c1.1-0.6,2.4-1,3.1-1.9c0.7-1,1.5-2.7,1.1-3.6c-0.4-0.9-2.3-1.6-3.4-1.5c-6.3,0.5-8.6-1-9.5-7.2
	c-0.6-4.2-1-8.5-1.1-12.7c-0.1-5.3-2.2-8.2-7.6-9.7c-16.4-4.5-32.5-9.6-48.8-14.5c-0.8-0.2-1.5-0.5-2.5-2.1c8.6-3.3,17.2-7,25.9-9.9
	c11.6-3.8,23.4-6.9,35-10.6c1.5-0.5,2.7-2.1,4-3.3c-1.5-0.6-3-1.9-4.4-1.8c-27.3,0.8-54.5,1.8-81.8,2.8c-1.9,0.1-3.7,0.2-7,0.4
	c12.2-9.8,23.9-17.5,37.4-22.2c5.8-2,11.8-3.8,17.6-5.8c1.5-0.5,2.7-1.8,4-2.8c-1.5-1-2.9-2.5-4.5-2.8c-14.4-2.7-28.9-5.2-43.4-7.7
	c-24.9-4.3-49.9-8.6-74.8-12.9c-3.7-0.6-7.3-1.8-11-1.8c-2.8,0-6.3,0.5-8.3,2.2c-21.6,18.4-43.1,36.8-64.3,55.7
	c-4.8,4.2-8.2,10-13.3,14.3c3.4-4.8,6.3-10,10.2-14.3c8.6-9.2,17.5-18.1,26.7-26.7c12.4-11.7,25.2-22.9,37.7-34.5
	c2.3-2.2,4.4-2.5,7.6-1.9c40.6,7.8,81.3,15.4,122,22.9c2.6,0.5,5.4,0.2,8.1,0.3c0.1-0.5,0.3-1,0.4-1.6c-1.3-0.6-2.6-1.5-4-1.8
	c-18.8-3.2-37.7-6.1-56.6-9.5c-23-4.1-45.9-8.3-68.9-12.8c-4.2-0.8-7.3-0.3-10.5,2.7c-17,15.5-34,31.2-51.5,46.2
	c-17.1,14.6-27.5,33-33,54.5c-0.5,1.9-1.1,3.7-1.5,5.6c-0.1,0.5,0,1,0.1,2.7c1.2-1.5,1.9-2.2,2.4-3c1-1.7,1.8-3.4,2.6-5.2
	c10.7-23.4,28.2-40.9,48.7-55.8c13.2-9.5,26-19.7,39.2-29.3c2.2-1.6,5.6-2.6,8.2-2.3c35.9,4.2,71.7,8.7,107.6,13.1
	c5.9,0.7,11.9,1.4,19.3,2.2c-2.4,1.1-3.5,1.8-4.8,2.2c-17.2,5.7-32.9,14.2-46.6,25.9c-4.6,3.9-9.6,4.7-15.1,5.3
	c-8.6,0.9-17.2,1.9-26.7,3c3.5-2.8,6.4-5.2,9.5-7.7c-8.8-2.5-14.4,3.2-20.5,7.3c-3.3,2.2-6.8,3.9-10.3,5.9c-0.4-0.6-0.8-1.3-1.2-1.9
	c8.4-5.8,16.8-11.5,25.2-17.3c-5.4-3.3-9.8-1.2-14,2.1c-8,6.3-16,12.8-24.1,19c-1.7,1.3-4,1.9-6.6,2c3.4-3.3,6.8-6.7,10.7-10.5
	c-4.4-1.1-7.4-0.8-10.4,2.3c-4.9,5.1-10.4,9.8-15.7,14.6c-0.3,0.3-1,0.3-2.4,0.6c2.2-3,3.9-5.3,5.7-7.7c-0.3-0.5-0.5-0.9-0.8-1.4
	c-2.5,1.1-5.4,1.7-7.5,3.3c-4.5,3.6-8.6,7.8-13,11.6c-1.9,1.6-4.3,2.7-7.7,4.8c1.5-2.9,2.2-4.3,3-5.7c-11.3-1.9-17.8,4.8-23.7,12.7
	c-1.6,2.1-3.9,4-6.2,5.3c-6.3,3.5-12.9,6.7-19.3,10.1c-1.4,0.8-2.6,1.9-4,2.8c0.2,0.6,0.4,1.1,0.6,1.7c1.8-0.2,3.8-0.1,5.5-0.7
	c13.2-3.9,26.4-8,39.6-11.9c1.7-0.5,3.8-0.8,5.5-0.4c8.1,2.2,12.1,1.9,20.7-2.4c-2.4-0.9-4.4-1.8-6.5-2.6c0-0.3,0.1-0.6,0.1-1
	c2,0.1,4.2-0.2,6.1,0.3c7.6,2.2,15.2,4.8,22.8,6.8c2.8,0.7,5.9,0.3,8.8,0.4c0.1-0.6,0.2-1.2,0.2-1.7c-8.1-2.9-16.3-5.8-25.2-9
	c7-4,11.7,4.4,18.8,1.6c-4.1-1.3-7.4-2.3-10.6-3.3c0.1-0.5,0.2-1,0.3-1.4c8,2,16,3.9,24,5.9c7.8,2,15.6,4,23.3,6.3
	c1.8,0.6,2.9,3,4.6,4.2c7,4.8,13.4,1.5,20.3-1.7c-1.9-1-3.4-1.8-4.9-2.6c0.2-0.5,0.3-1.1,0.5-1.6c3.4,1,7.2,1.3,10.2,3
	c4,2.3,6.9,2,9.8-1.9c-3.8-1.5-7.5-2.9-11.1-4.4c3.1-1.6,6.3-4.4,9.5-4.5c3.8-0.1,7.7,2,11.6,3.3c3.5,1.2,6.9,2.7,10.4,3.8
	c1.1,0.3,2.5-0.2,3.8-0.3c0.1-0.5,0.1-1,0.2-1.5c-7.2-2.3-14.4-4.7-22.4-7.3c6.8-3.7,12.1-6.9,19.9-4.6c17,4.9,34.3,8.6,51.4,12.8
	c1,0.2,1.8,0.8,3.5,1.5c-13.5,5.8-26.3,11.3-39.1,16.8c-20.7,8.9-41.3,17.7-61.9,26.6c-3.5,1.5-6.4,1.7-10.4,0.4
	c-27.7-8.7-55.7-16.2-83.2-25.1c-19.6-6.3-38.6-4.8-57.8,1.1c-2.6,0.8-5.6-0.1-8.2,0.7c-3.5,1.1-6.8,3-10.2,4.5
	c-1.9,0.8-4.1,2.3-5.9,2c-16.6-2.4-33.1-4.9-49.7-7.4c-0.1,2.3-0.4,4.7-0.7,7C363.8,151.2,378.7,153.7,393.7,156.2z M498.2,111.9
	c-16.7,5.1-33.3,10.3-50,15.4C463.5,117.6,479.5,110.3,498.2,111.9z M575.2,116.4c-4,1.7-7.5,1.8-11.7,0.7
	c-24.5-6.2-49.1-12.2-75.5-10c1.6-1,2.6-1.7,3.7-2.2c21.1-9.8,43.3-16.6,66.3-19.4c24.7-3,49.6-5,74.4-6.6
	c13.8-0.9,27.8-0.3,41.7-0.3c-0.6,1.4-1.3,1.8-2.1,2C638.6,89.4,607,103.3,575.2,116.4z M573.6,191c-2.3-4-1.1-6,2.9-8.1
	c22.8-11.4,45.4-23.2,68.1-34.8c1.6-0.8,3.2-1.8,4.8-2.8c-0.2-0.4-0.5-0.9-0.7-1.3c-25.8,12.5-51.5,25.1-77.5,37.7
	c-2-11.7-2.7-9.1,6-12.9c18-7.8,36.1-15.5,54.1-23.2c16.1-6.9,32.1-13.8,48.1-20.6c2.4,8.7,4.8,17,7.3,26
	c-34.9,18.2-70.9,36.9-106.9,55.7c-0.4-0.5-0.9-1-1.3-1.6c1.2-1.2,2.2-2.8,3.7-3.6c25.8-14.4,51.7-28.7,77.6-43
	c1.5-0.8,2.9-1.7,4.3-2.6c-0.2-0.3-0.3-0.6-0.5-0.9c-28.4,14.8-56.8,29.6-85.5,44.6C576.4,196.3,575.1,193.6,573.6,191z
	 M425.2,146.7c10.6-4,30.5-5.8,40.4-3.4c20.8,5.1,41.5,10.3,62.2,15.8c12.9,3.4,25.7,7.4,38.1,11.1c0.7,6.2,1.3,11.8,2,18.3
	c-25.6-7.3-50.8-14.5-75.9-21.6c1,1.3,2.3,1.9,3.6,2.3c22.9,7.3,45.8,14.7,68.7,21.8c4.6,1.4,8,3.4,9,8.9c-1-0.3-1.7-0.4-2.4-0.6
	c-43.4-14-86.7-28.1-130.2-41.8C434.2,155.4,429.6,151.6,425.2,146.7z M395.4,163.2c1.8-2.8,2.7-4.3,3.6-5.7
	c7.4,4.7,14.9,7,23.4,5.1c2.6-0.6,5.4-0.2,8.1-0.3c0.1,0.7,0.2,1.5,0.3,2.2c-2,1.2-4.2,3.8-6.1,3.5
	C415.3,166.9,405.9,165,395.4,163.2z"/>
<path class="st0" d="M396.4,77.3c0.2,0.2,0.5,0.5,0.7,0.7c4.5,4.6,7.5,10.6,12.2,15.3c-3-5-5.5-10.5-9.2-15c-0.7-0.8-1.3-1.6-2-2.5
	c1-0.8,2-1.6,3-2.4c9.5,13.1,15.3,27.9,18.2,44.3c0.3,1.9,0.8,3.8,1.1,5.7c0.1,0.5-0.1,1-0.3,2.7c-1.1-1.6-1.8-2.3-2.2-3.2
	c-0.8-1.8-1.6-3.6-2.3-5.4c-5.2-14.2-13-26.5-22.4-37.5C394.4,79.1,395.4,78.2,396.4,77.3z"/>
<path class="st0" d="M31.7,291.4c0.6,1.3,3,2.2,4.8,2.3c11.1,0.9,22.4,0.9,33.4,2.6c18.3,2.8,36.6,6.4,54.8,10.1
	c36.9,7.4,73.8,15.1,110.7,22.7c12.4,2.5,9.7,3,16.3-7c2.4-3.7,4.8-7.4,7.3-11.4c20.7,8.7,41.2,17.5,61.7,26
	c26.3,10.8,52.8,21.4,79.1,32.2c3.3,1.3,5.9,1.2,8.9-0.8c17.5-12.4,35-24.7,52.5-37.1c1.4-1,2.3-2.6,3.4-4c-0.3-0.4-0.7-0.9-1-1.3
	c-1.6,0.7-3.4,1.1-4.8,2c-17.3,11.7-34.5,23.6-51.9,35.2c-1.6,1.1-4.8,1.6-6.5,0.8c-63.6-29.5-129.3-53.8-194.4-79.6
	c-1.6-0.6-3.2-1.4-5.6-2.6c10.5-3.5,20.1-6.8,29.8-9.7c1.6-0.5,3.9,0.9,5.7,1.7c12.9,5.6,25.5,12.2,38.8,16.6
	c12.5,4.2,25,1.8,35.5-7c6.7-5.6,13.1-11.4,19.6-17.1c1.4-1.2,2.8-2.3,4.3-3.4c0.5-0.9,0.9-1.8,1.6-2.6c4.3-5.1,3.8-9.8-1.8-13.6
	c-2.7-1.9-5.7-3.4-9.5-5.6c14.3-4.8,27.8-9.3,41.3-13.8c-0.2-0.5-0.3-1-0.5-1.6c-1.6,0.4-3.2,0.8-4.8,1.3
	c-11.6,3.7-23.2,7.5-34.9,10.9c-2.6,0.7-5.9,0.5-8.4-0.5c-7.4-3.1-14.6-6.9-21.8-11.2l-33-11c-9.7,1.6-15.5,1.9-17.8-0.7
	c-0.3-0.4-0.9-0.9-0.8-1.3c1.2-6.3-4-7.7-7.8-9.8c-9.7-5.1-19.6-9.9-29.4-14.6c-7-3.3-13.8-2.7-18.9,3.3c-5.3,6.3-10.3,13-14.4,20.1
	c-1.6,2.8-1.6,7.4-0.6,10.7c4.7,14.9,31,25.3,44.5,17.6c5.9-3.4,11.1-8.1,16.5-12.4c2.7-2.1,5.1-2.9,8.7-0.3
	c-1.8,2.3-3.6,4.3-5.3,6.5c-3.1,4.1-6.4,8.1-9.1,12.4c-4.8,7.6-4.4,11.9,1.1,21.8c-12.2,4-24.2,8-36.3,11.9
	c-0.1,0.8-0.1,1.6-0.2,2.4c19.7,8.3,39.3,16.7,59.7,25.3c-2.9,6.4-5.7,12.5-8.7,18.9c-16.6-3.5-32.8-7.1-49.1-10.5
	c-40-8.4-79.9-16.9-120-25c-8.1-1.6-16.6-1.7-24.9-2.3c-3.5-0.3-7-0.3-10.5-0.4c-0.3-0.5-0.7-1-1-1.5c12.4-17,24.8-34.1,37.5-51.5
	c6.1,4.5,11.3,8.4,16.5,12.3c13,9.8,26.1,19.5,39.1,29.4c3.4,2.6,6.6,3.2,10.8,2.6c24.6-3.9,49.3-7.4,73.9-11.2
	c1.5-0.2,2.9-1.8,4.3-2.7c-1.7-0.4-3.5-1.4-5.2-1.2c-24.1,2.7-48.1,5.6-72.2,8.2c-2.9,0.3-6.4-0.7-8.8-2.3
	C116,258.7,98,246.5,80.1,234c-3.5-2.4-5.6-2.5-8.2,1.1c-10.3,14.1-20.8,28.2-31.3,42.2c-2.3,3.1-5.2,5.9-7.4,9
	C32.2,287.8,31.1,290.2,31.7,291.4z M205,230c-7.3-0.3-16.7-4.6-20.1-9.2c-1.2-1.7-2.2-5.5-1.3-6.4c4.8-4.9,9.7-9.9,15.5-13.3
	c2.4-1.4,7.2,1.2,10.8,2.1c2.9,0.8,5.7,1.8,8.5,2.8c13,4.6,13.3,6.2,2.8,15.4C216.1,225.9,210.7,229.9,205,230z M253.3,269.8
	c-18.3-7.6-19.2-15.5-4.7-29.3c5.6-5.3,11.8-9.1,20.1-7c17.9,4.7,34.4,12.6,50.9,20.6c0.3,0.6,0.5,1.3,0.8,1.9
	c-7.8,6-15.3,12.6-23.6,17.7c-4.3,2.7-10.6,4.3-15.5,3.5C271.8,275.9,262.2,273.5,253.3,269.8z M234.7,245.5
	c3.4-4.7,7.3-9.1,10.9-13.8c3.1-4.1,2.4-7.5-1.9-10.2c-4.8-3.1-9.5-3-14.4,0.3c-5.1,3.5-10.5,6.7-15.7,10c5-5.6,10.4-10.5,15.3-15.8
	c3.5-3.8,2.9-6.5-1.7-8.8c-9-4.5-18.2-8.6-27.5-12.6c-1.3-0.5-3.8-0.2-4.7,0.8c-4.7,4.8-9.5,9.6-13.5,14.9c-3.5,4.7-2.7,9,1.4,13.4
	c1.3,1.4,2.7,2.6,4.4,4.1c-9.6-3.5-13-8.8-8.9-16.2c4-7.1,9.4-13.6,15-19.6c1.8-1.9,6.4-2.4,9.3-1.7c13.3,3.3,24.4,11,35.1,19.3
	c0.8,0.6,1.3,1.6,1.7,2.5c3.4,7.7,9,10.5,17.2,8.7c1.2-0.3,2.5-0.2,3.6,0c25.2,4.8,48,15.6,69.7,28.9c1,0.6,1.8,1.6,3.8,3.4
	c-10.5,8.1-20.4,15.7-27.2,21c4.6-4.5,11.9-11.5,19.7-19c-2.6-2.2-3.8-3.9-5.5-4.7c-15.5-7.4-30.9-14.8-46.5-21.9
	c-11.6-5.3-21-1.4-28.9,7.6c-2.7,3-5.2,6.3-7.2,9.9c-6,10.5-5,15.1,4.5,22.7c0.2,0.1,0.2,0.5,0.3,0.8
	C229.2,264.5,226.5,256.9,234.7,245.5z"/>
<path class="st0" d="M326.7,158.8c-1.6-0.6-3.4-1.2-5-1.8c1.3-1.4,2.7-2.8,4.1-4.2c0.8,0.3,1.6,0.5,2.4,0.8
	C327.8,155.3,327.3,157.1,326.7,158.8z"/>
<path class="st0" d="M380.9,187.7c-12.8-4.8-25.6-9.5-38.8-14.4c0.3-0.8,0.7-1.7,1-2.6c11.4,4.7,22.7,9.5,34,14.3
	C378.6,185.6,379.9,186.2,380.9,187.7z"/>
<path class="st0" d="M417.7,241.5c-24.2-14.7-47.3-28.7-70-42.5c2.2,3.5,4.4,7,6.6,10.6c13.9,9.6,27.9,19.2,41.8,28.7
	c0.6,0.4,1.1,0.9,2.8,2.3c-2.8-0.4-4.2-0.6-7.2-0.9c2.1,1.7,3.2,3.2,4.6,3.5c5.5,1.2,11.2,1.8,16.8,3c1.5,0.3,3.6,1.6,4.1,2.9
	c4.2,10.3,13.8,12.1,22.7,15c4.2,1.4,8.5,2.7,13.4,3.1c-2.1-1.4-4.2-3-6.4-4.1c-1.5-0.8-3.4-1.2-5.1-1.2c-3.7,0-6.3-1.3-5.1-5.3
	c1.1-3.9,3.9-5.4,7.8-2.8c0.5,0.3,1.3,0.2,2.8,0.5c-0.9-1.5-1.4-2.2-1.9-3.1c0,0,0.2-0.3,0.3-0.3c18.7-2.8,37.4-5.8,56.1-8.3
	c3.9-0.5,8.2,0,12,1c16,4.4,31.9,9.2,49.2,14.2c-4.3,3.2-7.9,5.8-11.5,8.5c-3.7,2.7-7.5,5.3-11.1,8.2c-1,0.8-1.3,2.5-1.9,3.8
	c1.4-0.1,3.2,0.3,4.2-0.4c7.9-5.7,15.6-11.6,23.3-17.6c1-0.8,2.2-3.1,2-3.3c-1.1-1.2-2.6-2.2-4.2-2.6c-14.5-3.9-29.1-7.6-43.6-11.4
	c-1.7-0.4-3.3-1-6-1.8c23.4-3.4,45.5-6.6,67.7-9.8c8-1.2,16.1-2.1,24.1-3.5c1.6-0.3,4.3-1.7,4.4-2.8c0.7-7.8,0.8-15.7,0.2-23.9
	c-0.4,0.8-1.1,1.5-1.3,2.3c-0.5,3-0.9,6-1.2,9c-1.3,11.5-1.2,11.9-12.8,12.7c-39.3,2.7-77.9,9.7-116.5,16.8
	c-17,3.1-34.2,5.4-52.1,8.1c0.4-3.4,0.9-6.5,1-9.5c0.8-17.2,1.6-34.3,2.3-51.5c0.2-4.5-0.5-7.8-6.5-6.3c-2.1,0.5-4.8-0.6-7.2-1.3
	c-23.1-7.3-46.2-14.5-69.3-21.8c-0.5,1.9-1.1,3.9-1.7,5.8c23.6,8.2,47.2,16.5,70.8,24.8c1.2,0.4,2.6,2,2.8,3.2
	c1,5.5,2.4,11.2,2.2,16.7C420.5,220.1,418.9,230.2,417.7,241.5z M424.9,254c3.4-0.6,6.8-1.1,10.4-1.7c-0.4,2.7-0.7,4.8-1,7.3
	C425.2,258.2,425.2,258.2,424.9,254z"/>
<path class="st0" d="M582.6,280.4c2.9,6.5,3.5,13-0.6,19.2c-1.3,1.9-3.5,4.1-5.7,4.5c-30.5,6.2-61,12.3-91.6,17.8
	c-5.8,1-10.2,3.1-14.4,6.8c-20.7,17.9-41.5,35.5-62.1,53.5c-3.2,2.8-5.6,3.1-9.3,1.5c-45.1-19.9-90.4-39.6-135.5-59.4
	c-7.8-3.4-8.1-3.7-11.2,4c-2.1,5.3-5,6-10.1,5c-31.5-5.9-63-11.4-94.5-17.1c-26.8-4.8-53.6-9.9-80.5-14.1
	c-14.5-2.3-29.2-3.1-43.8-4.5c-2.9-0.3-5.9-0.6-10.5-1.1c8.3-9.7,15.4-18.7,23.1-27.2c11.2-12.4,22.8-24.3,33.9-36.7
	c3.1-3.5,6-4.8,10.5-4c27.4,5,55,8.1,82.9,8.7c2.1,0,4.1,0.1,6.3-0.9c-5.2-0.6-10.4-1.3-15.6-1.8c-25.2-2.7-50.4-5.4-75.6-7.9
	c-2.2-0.2-5.2,0.2-6.6,1.6c-20.4,20.2-40.9,40.4-58.1,63.5c-1.5,2-2.8,4-4.9,7c3.8,0.7,6.8,1.4,9.8,1.9c31.3,4.7,62.7,9.2,94,14.1
	c29.7,4.6,59.4,9.5,89.1,14.2c14.3,2.3,28.7,4.3,42.9,7.2c4.9,1,7.3-0.4,9.2-4.4c1-2,2.4-3.9,3.7-6c17.2,7.9,33.8,16,50.8,23.3
	c30.6,13,61.4,25.4,92.1,38.3c3.5,1.5,5.9,0.5,8.6-1.6c21.2-16.3,43.3-31.6,63.5-49.1c11.4-9.9,24.2-12.5,37.7-15.2
	c23.2-4.7,46.4-9.2,69.6-13.9c1.3-0.3,3-1.4,3.6-2.6C587.2,296.7,588.8,288.4,582.6,280.4z"/>
<path class="st0" d="M568.2,279.1c5.1-0.8,7.2,2.1,9.8,4.6c3.8,3.7,2.4,8.5,1.7,13.1c-0.7,4.2-4.1,4.2-7.3,4.7
	c-4.2,0.7-8.3,1.7-12.5,2.4c-37.9,6.6-75.9,13.1-113.8,19.8c-11.3,2-22.3,3.5-34,0.3c-6.9-1.9-14.6-0.5-22-0.7
	c-2-0.1-3.9-0.8-5.9-1.3c1.5-2.2,2.9-6.1,4.6-6.2c9.6-0.7,15.5-6.9,21.7-13c1.7-1.7,4.4-2.9,6.8-3.3c8.5-1.5,17.1-2.5,25.6-3.7
	c1.3-5.5-3.2-6.1-6.6-7.3c-0.8-0.3-2.2,1-3.4,1.6c-1.1-1.7-2.3-3.7-4.6-7.2c7.5,2.3,13.7,4.2,20,6.2c1,0.3,1.9,1.2,4.1,2.6
	c-3.4,0.2-5.3,0.3-7.4,0.4c0,0.9,0,2,0.1,3.6c8.2-1.3,15.9-2.3,23.5-3.7c2-0.3,4.7-1,5.5-2.4c0.7-1.2-1-3.6-1.8-5.9
	c0.9-0.1,3.4-0.8,3.5-0.4c1.1,2.5,1.8,5.2,2.6,8c2-0.4,3.7-0.8,5-1.1c0.6-2.3,1-4.3,1.5-6.3c0.4,0.1,0.7,0.1,1.1,0.2
	c-0.2,1.7-0.5,3.5-0.8,6.1C513.7,286.6,541,283.2,568.2,279.1z M407.7,318.9c4.6,1,9.8,2.1,15.2,3.3c-0.5-6.7,0.1-7.6,6.3-8.4
	c38.4-4.9,76.8-9.8,115.2-14.8c3-0.4,5.9-1,8.9-1.3c4.1-0.3,4.9-2.9,4.3-6.3c-1.1-6.4-3.9-8.4-10.4-7.4c-43,6.3-86.1,12.4-129,19.1
	c-4.4,0.7-8.3,4.8-11.6,6.7C407.1,313.5,407.4,315.9,407.7,318.9z M560.4,296.5c0.4,0,0.8,0,1.2,0c-0.2-3.2-0.3-6.5-0.5-10
	c4.6,3.1,3.5,7.4,2.6,13c4.5-1.3,9.6-1.2,11.8-3.7c3.4-3.9,1-9.2-1.7-13.2c-0.8-1.2-3.3-1.8-5-1.7c-3.8,0.3-7.7,1.1-11.9,1.8
	C558.2,287.6,559.3,292,560.4,296.5z M555.3,300.7c-0.1-0.6-0.2-1.3-0.3-1.9c-28.3,5.2-56.7,10.5-85,15.7c0.1,0.4,0.2,0.7,0.3,1.1
	C498.6,310.7,526.9,305.7,555.3,300.7z"/>
<path class="st0" d="M614.3,231.4c-26.1,3.7-51.9,7.3-77.7,11c0,0.4-0.1,0.9-0.1,1.3c14.8,3.6,29.6,7.2,45.6,11.1
	c-10.7,7.4-20.7,14.4-30.7,21.3c0.6,0.8,1.2,1.7,1.8,2.5c11.5-7,21.8-15.8,32.9-23.4c0-0.6,0-1.1,0-1.7c-13.8-3.2-27.6-6.4-41.4-9.7
	c0-0.4,0.1-0.8,0.1-1.2c14.8-1.7,29.7-3.4,44.5-5c8.8-0.9,17.6-1.4,26.4-2.5c1.1-0.1,2.8-2.5,2.8-3.9c0.5-8.5,0.9-17,0.8-25.5
	c0-3.8,1.4-5.6,4.6-7.3c25.4-13.3,50.8-26.6,76-40.2c2.8-1.5,5.4-4.5,6.8-7.5c3.6-7.3,1.6-10.6-6.5-11.2c-3.4-0.2-4.5-1.6-5.1-4.7
	c-1-5.2-2.7-10.2-3.8-15.4c-0.7-3.6-2.5-5.3-6.1-6.2c-13.1-3.6-26.1-7.5-40.6-11.7c14.5-7.8,29.6-9.4,43.7-14
	c-16.6,0.2-31.6,5.9-47.5,14c8.7,2.8,16.1,5.2,23.6,7.6c6.4,2.1,12.7,4.4,19.2,6.1c3.4,0.9,4.4,2.9,4.9,5.9
	c0.8,5.8,1.9,11.5,2.8,17.3c0.6,3.8,2.5,5.4,6.6,5c2.5-0.3,5.2,0.8,7.8,1.3c-1.3,3.2-2.5,6.5-4.2,9.5c-0.6,1-2.4,1.4-3.6,2.1
	c-25.2,13.3-50.3,26.7-75.6,39.9c-4.1,2.1-6,4.5-6.1,9.3C616.1,214,615,222.3,614.3,231.4z"/>
<path class="st0" d="M435.1,214.8c0.6-4.9,1.3-9.8,1.6-14.7c0.9-13.6,0.8-13.5,14.3-14.2c4.6-0.2,6.9,1.3,7.7,5.8
	c2.3,12.7,2.7,25.3,0.2,37.9c-1.8,9-11.6,15.5-21.7,13c-7.2-1.8-2.3-9-3.8-14.5C433.9,224.3,434.5,219.6,435.1,214.8z M451.7,230.8
	c5.5-13,6.2-26.3,2.8-40.2c-4.2-0.2-8.4-0.3-13.3-0.5c-0.6,16.3-1.2,32.2-1.8,48.4C447.8,239.2,448.2,238.9,451.7,230.8z"/>
<path class="st0" d="M334.3,262.5c-3.2,4.6-6.4,9.1-9.7,13.7c5.2,6.7,14.1,6,17.2-1.8c1.1-2.8,2.2-5.7,2.3-8.6
	c0.1-2.1-1-4.9-2.6-6.1c-1-0.7-3.8,1-5.8,1.8c-0.6,0.2-1.1,0.8-1.7,1.2C334.1,262.7,334.3,262.5,334.3,262.5z"/>
<path class="st0" d="M480,88.5c14.4,1.8,17.1,0.5,26.4-11.7C497.7,73.7,484.2,81.5,480,88.5z"/>
<path class="st0" d="M292.7,296.8c7.1,2.1,14.1,4.3,21.6,6.5c0.1,2.1,0.1,4.8,0.2,7.6c2.9-4.6,2.9-4.6,10.4-6
	c0.2,1.3,0.4,2.6,0.9,5.2c1-1.9,1.5-2.8,2.3-4.3c1.5,2.7,2.8,5,4.3,7.6c1.7-1,3.2-1.8,4.6-2.7c1.6,0.8,3.2,1.6,4.8,2.4
	c0.1-0.2,0.2-0.4,0.3-0.6c-1.7-1.6-3.5-3.1-5.2-4.7c-1.1,0.5-2.4,1-4.2,1.8c0.3-2.3,0.6-3.9,0.8-5.4c-0.2-0.1-0.5-0.2-0.7-0.3
	c-0.5,1-1.1,1.9-1.7,3c-2.1-1.8-3.7-6.6-6.1-4.9c-2.3,1.6-4,0.8-5.7,0.6c-2-0.2-3.9-1.5-5.9-2.4
	C306.7,298.3,300.3,293.8,292.7,296.8z"/>
<path class="st0" d="M349.8,247c10.9,7.2,25.6,5.6,34.9,15.6c0.9-0.7,3-3.1,3.8-2.8c2.9,1.4,5.4,3.7,7.6,5.3
	c-0.8-5.6,6.6,2.2,7.6-2.8C385.5,257.2,367.6,252.1,349.8,247z"/>
<path class="st0" d="M537.1,131.4c12.3,2.6,23.5,9.5,36.2,10.3c0.2-0.6,0.4-1.2,0.6-1.8c-4.4-1.6-8.8-3.3-13.2-4.8
	c-5.9-2.1-11.8-4.4-17.9-6.2c-1.7-0.5-3.9,0.3-5.8,0.5C537,130.1,537,130.7,537.1,131.4z"/>
<path class="st0" d="M373.8,278.4c2.9,6,14.3,0.3,14.1,8.6c3,0,5.4-0.5,7.5,0.1c6.5,1.9,12.8,4.3,19.6,6.7c0.1-1.8,0.1-3.3,0.2-5
	c-1.6,0.2-3.1,0.9-4.3,0.6c-5.6-1.5-11.3-3-16.7-4.9c-6.6-2.3-13-5.1-19.6-7.8C374.3,277.3,374.1,277.9,373.8,278.4z"/>
<path class="st0" d="M476.3,263.8c4.6,1.1,9.3,1.7,13.6,3.5c1.7,0.7,2.5,3.8,4.1,6.5c4.9-0.7,4.8,4,6.4,8.1c0.3-1.5,0.7-2.9,1.1-4.7
	c1.2,0.3,2.5,0.7,4.5,1.3c-3.1-4.4-10.4-2.9-11.4-10.1c4.6,1.6,8.4,3,12.2,4.4c0.2-0.5,0.4-1.1,0.6-1.6c-5.2-2.1-10.3-4.2-16.1-6.5
	c-0.2-1.6-0.2-1.3-3.3-0.5c-1.8,0.4-3.9-0.6-5.9-0.9c-2-0.3-4-0.4-5.9-0.7C476.4,263,476.4,263.4,476.3,263.8z"/>
<path class="st0" d="M502.8,89.4c2-1,4.5-1.5,6-3c6.2-6.2,12-12.7,18.2-19.3c-4.2-0.5-17.3,10.8-24.7,20.8
	C502.5,88.4,502.6,88.9,502.8,89.4z"/>
<path class="st0" d="M380,269.8c5.1,1.7,9.8,3.5,14.6,4.9c0.7,0.2,1.8-1,2.2-1.2c-7.1-2.9-13.7-5.7-20.4-8.4
	c-0.8-0.3-1.8-0.3-2.7-0.4c-2-0.4-5-0.2-5.9-1.4c-3-4.3-5.8-2.3-9.3-0.6c5.5,2.1,10.5,3.9,15.7,5.9c0.1-0.3,0.5-1.2,1.3-2.9
	c0.9,2.9,1.6,5.2,2.5,8C378.7,272.2,379.3,271.2,380,269.8z"/>
<path class="st0" d="M549.7,65.3c-8.7-2-15.5,0.2-21.2,6.2C536.4,74.9,537.2,74.7,549.7,65.3z"/>
<path class="st0" d="M576.8,132.9c7.2,6.3,13.7,1.7,20.5-0.9C590,126.2,583.5,128.7,576.8,132.9z"/>
<path class="st0" d="M488,276.1c0-4.7-0.3-5-5.3-3.7c1.5,0.5,2.5,0.9,3.9,1.3c-0.7,0.8-1.3,1.5-1.4,1.4c-4.4-2.9-10.5-0.9-14.6-5.6
	c-1.3-1.5-5.6-0.4-8.4,0.6c4.8,1.7,9.6,3.4,14.4,5c4.6,1.5,10.3,0.9,11.7,5.9c2.6-0.7,4.7-1.3,8.3-2.4
	C493.1,277.5,490.6,276.8,488,276.1z"/>
<path class="st0" d="M543.4,62c8,1.6,14.9,1,20.8-4.1C556.2,54.9,551.7,55.7,543.4,62z"/>
<path class="st0" d="M348.4,274.7c4.5-2.9,11.9,0.6,13.2,4.5c0.7,2,3.1,3.4,5.1,5.4c0.4-3,0.7-5.6,1.2-9.3c-3.4-0.9-7.7-2-11.9-3.1
	c-1-0.3-1.9-0.8-2.8-1.2c-1.1-0.4-2.1-0.7-3.2-1.1C349.5,271.3,349.1,272.6,348.4,274.7z"/>
<path class="st0" d="M379,291.9c-3.9-1.2-7.7-2.4-11.6-3.6c-4.1-1.3-8.2-2.6-12.3-3.9c-3.8-1.2-7.7-2.5-11.5-3.8
	c-0.2,0.7-0.4,1.3-0.5,2c11.6,3.9,23.3,7.7,34.9,11.6C378.4,293.4,378.7,292.7,379,291.9z"/>
<path class="st0" d="M377.1,247c10,2.5,20,2.1,27.7,9.4c0.6-0.5,1.9-1.6,4.1-3.4c-5-2.7-10.6-2.2-15.2-4.2
	C388.4,246.5,383.6,245.7,377.1,247z"/>
<path class="st0" d="M577.7,60.4c-8.5-4-13.1,2.6-20.2,4.8C566.6,69.5,571.3,63.3,577.7,60.4z"/>
<path class="st0" d="M490.8,91.4c-6,0.8-13.1-3.8-18.4,5.7c7-1.2,12.9-2.1,18.8-3.1C491.1,93.2,490.9,92.3,490.8,91.4z"/>
<path class="st0" d="M564.8,143.8c-8.6-4.3-9.6-4.3-16.5-0.9C555.1,147.3,559.9,147.6,564.8,143.8z"/>
<path class="st0" d="M510.7,66c7.4,3.8,9.8-2.7,14.4-5.7C520.3,57.8,516.6,59.3,510.7,66z"/>
<path class="st0" d="M454,279.1c-7.9-2.6-15.9-5.1-23.7-7.6c-0.5,1.5,1.2,4.4,3.8,5c5.7,1.2,11.3,2.5,17,3.8
	c0.8,0.2,1.6,0.3,2.5,0.4C453.7,280.1,453.9,279.6,454,279.1z"/>
<path class="st0" d="M428.8,283.2c-7.9-2.8-15.2-5.4-22.6-8C409,279.7,426.2,285.4,428.8,283.2z"/>
<path class="st0" d="M514,69.6c-6-3.1-10.1-0.2-14.7,4.3C505.1,73.4,510.8,76.2,514,69.6z"/>
<path class="st0" d="M389.1,295.1c-0.6,0.3-2.5,1.1-5.5,2.4c2.8,0.1,4.5,0.2,7.6,0.3c3.6,2,8.5,4.8,14.2,5.6
	c0.2-0.6,0.4-1.1,0.7-1.7c-2.5-1.2-5-2.6-7.6-3.6C395.9,297,393.2,296.3,389.1,295.1z"/>
<path class="st0" d="M551.2,128.7c8.1,2.9,16.3,5.8,24.4,8.7c0.2-0.5,0.3-0.9,0.5-1.4c-8.5-1.9-15.3-8.6-24.4-8.7
	C551.5,127.8,551.4,128.3,551.2,128.7z"/>
<path class="st0" d="M547.6,54.9c-6.6-4.2-9.9,1.9-15.5,4.2C539.5,62.9,542.3,55.1,547.6,54.9z"/>
<path class="st0" d="M522.2,78.3c4.6,1.4,8.7,2.9,11.4-2.7C529.5,75,525.3,72.7,522.2,78.3z"/>
<path class="st0" d="M616.4,123.8c-5.8-1.9-11.6-3.8-17.4-5.7c-0.2,0.6-0.4,1.2-0.5,1.8c6.1,0.9,10.7,6.6,17.5,5.3
	C616.2,124.8,616.3,124.3,616.4,123.8z"/>
<path class="st0" d="M409.6,266.7c6.1,2.2,12.3,4.4,18.4,6.6c0.2-0.3,0.4-0.6,0.5-0.9c-1.9-1-3.7-2.1-5.6-3.1c-2-0.9-4-1.8-6.1-2.4
	c-2.2-0.6-4.6-0.9-6.8-1.3C409.9,265.9,409.8,266.3,409.6,266.7z"/>
<path class="st0" d="M493.5,128.3c4.7-1,9.3-2,14.9-3.1c-6.4-3.9-10.5,0.1-15.1,1.1C493.3,126.9,493.4,127.6,493.5,128.3z"/>
<path class="st0" d="M483.1,98.3c-5.1,0.7-10.5-0.6-15,2.9c0.1,0.5,0.2,1,0.3,1.6c5-0.9,10-1.7,14.9-2.6
	C483.3,99.6,483.2,99,483.1,98.3z"/>
<path class="st0" d="M462.7,257.1c0.5,2.9,0.9,5.7,1.3,8.4c0.3,0.1,0.6,0.2,0.9,0.3c0.7-1.9,1.3-3.7,2.1-5.9
	c1.1,0.5,2.4,1.1,4.2,1.9C470.6,254.3,464.8,259.6,462.7,257.1z"/>
<path class="st0" d="M523.4,56.1c6.3,3.9,8.3-2.7,13.2-3.6C530.2,49.1,527.5,53.8,523.4,56.1z"/>
<path class="st0" d="M508.8,271.1c0.9,1,1.8,2.1,3,3.5c1.6-2.4,2.8-4.3,4.2-6.5c-2.5-1.2-5.7-2.7-10.1-4.7c3,3,5.1,5,7.1,6.9
	c-0.4,0.5-0.8,1-1.3,1.5c-0.8-0.4-1.5-0.9-2.3-1.3C509.3,270.6,509.1,270.9,508.8,271.1z"/>
<path class="st0" d="M536,123.8c3.9,0.9,7.8,1.9,11.7,2.8c0.1-0.6,0.3-1.3,0.4-1.9c-3.9-1.1-7.8-2.2-11.6-3.3
	C536.4,122.2,536.2,123,536,123.8z"/>
<path class="st0" d="M599.4,129.6c3.1-0.3,6.2-0.7,10.5-1.1C603.4,124.4,603.4,124.4,599.4,129.6z"/>
<path class="st0" d="M256.7,104.1c-0.2-1.4-1.2-3.5-0.6-4.2c3.5-4.1,0.6-6.8-1.8-9.9c-1.1,0.8-2.1,1.5-4.3,3.1
	c0.1-8.8,7.1-12.6,9.5-18.2c-7.2-9.6-10.3,1-15.7,3.5c-1.6-5.8,4.7-7,5.1-11.3c-4.9-3.7-4.8,3.5-8.9,3.8c-1.6-9.8,10.7-12,11.5-19.9
	c-0.4-0.4-0.8-0.9-1.1-1.3c-4.8,3.7-9.7,7.3-14.5,11c-0.5-0.2-0.9-0.4-1.4-0.6c0.6-1.7,0.8-3.9,2-5c5.6-5.2,11.5-10.1,17.3-15.1
	c-0.4-0.5-0.8-1.1-1.3-1.6c-7.6,4-12.1,12.1-19.4,16.9c-1.5-3-2.9-5.7-4.3-8.3c-0.7,1.8-0.4,3,0.2,4.2c10.1,22.2,20,44.6,30.4,66.7
	c12.9,27.3,18,55.1,6.5,84.2c-0.4,1,0,2.4,0.1,3.6c0.4,0.1,0.9,0.3,1.3,0.4c1-1.3,2.2-2.5,3.1-3.8c12.4-16.8,24.3-33.9,37.3-50.2
	c24.2-30.4,53.3-56.1,82.3-81.9c8.4-7.5,8.4-7.5-2.5-11.3c-23.8-8.3-47.7-16.3-71.3-25c-12.3-4.5-24.1-10.2-36.1-15.5
	c-6.6-3-13-6.3-19.5-9.5c40,25.7,85.5,38.4,130,55.5c-1.9,1.8-3.4,3.2-4.9,4.6c-20.8,19.4-41.8,38.7-62.4,58.4
	c-14.7,14.1-28.8,28.7-39.7,46.1c-2.6,4.2-5.4,8.3-7.8,12.1c-0.3-11.1-0.2-22.3-1.2-33.3c-0.5-5.4-1.4-10.2,3.3-14.2
	c0.7-0.6,0.8-1.9,1.1-2.7c-3-4.5-5.6-0.7-9.7,1.4c2.6-10.8,10.7-16.3,15.4-24.2c-2-1.2-3.8-2.2-5.5-3.2c-4.5,5.2-8.6,10-12.7,14.8
	c-0.5-0.2-0.9-0.5-1.4-0.7c0.8-2.3,1.7-4.5,2.9-7.8c-2.1-0.8-4.3-1.6-7.3-2.7C259.4,110.5,258,107.3,256.7,104.1
	c1.8,1.3,3.6,2.6,5.3,3.9c2.1-2.9,4.1-5.3,5.8-7.9c1.8-2.6,3.4-5.2,5.4-8.2c-1.3-1.3-2.6-2.7-4.2-4.4c-2.4,3.1-4.4,5.5-6.2,8.1
	c-1.1,1.6-1.9,3.4-3,4.9C258.9,101.8,257.7,102.9,256.7,104.1z"/>
<path class="st0" d="M340,203.2c-1.8-2.3-2.7-3.7-3.9-4.8c-8.4-7.5-17-14.8-25.5-22.2c-3.1-2.7-6-2.6-8.5,0.9
	c-3.6,5-7.3,9.9-10.9,15c-0.7,1-0.9,2.5-1.3,3.8c1.4,0.3,2.9,1,4.3,0.8c10.9-1.4,21.4,0,31.6,3.9c3,1.1,6,2.3,9,3.1
	C336.1,203.9,337.4,203.4,340,203.2z"/>
<path class="st0" d="M331.6,175.3c-6.7-4.9-13.1-9.7-20.1-14.8c18-19.6,35.5-38.7,53.1-57.9c-0.8-0.3-1.2-0.2-1.4,0.1
	c-17.9,18.3-35.9,36.6-53.8,55c-2.4,2.5-2.1,4.5,0.8,6.5c6.5,4.6,12.8,9.4,19.3,14.1c4.5,3.3,5.9,2.6,6.6-3c1.2-9.5,2.2-19,3.7-28.4
	c0.7-4.6,2.4-9,3.6-13.5c-0.7-0.2-1.5-0.4-2.2-0.5C338,146.8,334.8,160.8,331.6,175.3z"/>
<path class="st0" d="M190,163.8c-3.7-3.3-6.3-7.4-9.4-7.9c-9.5-1.5-19.3-1.6-28.9-2.3c-0.2,0.4-0.4,0.9-0.5,1.3
	c2.3,1.7,4.4,4.6,6.9,5C168.3,161.6,178.6,162.5,190,163.8z"/>
<path class="st0" d="M298.9,102.4c-5.9,6.8-11.5,13.3-17,19.7c3.4,4.5,6.3,4.7,9.6,0.6c4.4-5.4,9.1-10.6,14-16.3
	C303.3,105,301.4,103.9,298.9,102.4z"/>
<path class="st0" d="M225.3,133.4c-1.2-8.1-10.7-20.4-20-20.8C209.3,127.4,211.3,129.5,225.3,133.4z"/>
<path class="st0" d="M286.5,76.8c5.3-6.2,10.5-12.4,16-18.9c-2.6-1.8-4.4-3-6.6-4.5c-5.3,6.7-10.4,13.2-15.7,19.9
	C282.5,74.6,284.1,75.5,286.5,76.8z"/>
<path class="st0" d="M260.8,91.8c5-6.3,9.8-12.5,14.9-18.9c-2-1.7-3.5-3-5.2-4.4c-3.8,4.4-7,8.4-10.5,12.2
	C256.6,84.4,255.9,87.8,260.8,91.8z"/>
<path class="st0" d="M254.2,68.5c4.3,0.6,8.4,2.4,9.7,1.2c4.5-4,8-9.1,12.1-14.1c-1.9-1.2-3.4-2.1-4.9-3
	C265.9,57.6,260.7,62.4,254.2,68.5z"/>
<path class="st0" d="M282.5,87.4c-4.5,5.5-8.5,10.5-12.7,15.8c2.1,1.6,3.6,2.7,5.3,4c4.5-5.1,8.8-9.9,13.3-15.1
	C286.4,90.5,284.8,89.2,282.5,87.4z"/>
<path class="st0" d="M156.2,151.4c0.3-0.6,0.6-1.2,0.9-1.8c-1.7-0.9-3.4-2.5-5.2-2.7c-6.3-0.6-12.6-0.8-18.9-1.1
	c-4.7-0.2-9.4-0.4-14.1-0.6c-0.1,0.6-0.1,1.2-0.2,1.9C130.9,151.3,143.9,149.2,156.2,151.4z"/>
<path class="st0" d="M203.9,125.6c0.3-0.4,0.7-0.8,1-1.2c-3.1-12.1-10.9-27.5-15-28.6c3.2,8.5,6.2,16.7,9.5,24.8
	C200.3,122.5,202.4,124,203.9,125.6z"/>
<path class="st0" d="M169.7,85.5c8,13.5,8.6,14,17.3,13.8C183.9,91.5,178.4,86.9,169.7,85.5z"/>
<path class="st0" d="M279,39.6c-4.2-3-13.2,3.3-19.6,14.1c2.6-0.2,4.7,0.2,5.7-0.7C269.8,48.9,274.2,44.3,279,39.6z"/>
<path class="st0" d="M118.9,137.8c-4.5-6.4-9.7-11.2-18.6-8.6C105.6,134.2,109.8,140.8,118.9,137.8z"/>
<path class="st0" d="M176.8,84.8c-5.3-9-9.2-11.5-17.7-11.7C162.6,80.1,168.8,83.2,176.8,84.8z"/>
<path class="st0" d="M145.6,70.3c4.8,5.1,6.8,12.7,16.9,12.1C156.8,77.7,155.1,69.9,145.6,70.3z"/>
<path class="st0" d="M278.3,59c2.1,1.3,3.7,2.3,5.6,3.6c2.5-3.2,4.9-6.2,7.6-9.6c-2.6-0.8-4.5-1.3-6.5-1.9
	C282.8,53.7,280.8,56.1,278.3,59z"/>
<path class="st0" d="M214.3,132.1c-0.5,0.8-1,1.5-1.4,2.3c5.1,3.1,10.2,6.3,16.3,10C227.8,133.6,219.5,135.1,214.3,132.1z"/>
<path class="st0" d="M125.9,152.3c3.1,5.4,7.6,7,15.6,5.5C136.4,152,135.5,151.7,125.9,152.3z"/>
<path class="st0" d="M205.5,101c-3-8.4-5.8-11.3-11.1-10.7C197.5,94.7,197.2,101.7,205.5,101z"/>
<path class="st0" d="M278.3,53.1c3.1-3.7,5.8-6.9,8.7-10.4c-3.6-1.5-3.6-1.5-9.8,4c-1,0.9-1.9,1.9-2.9,2.9
	C275.8,50.8,276.8,51.8,278.3,53.1z"/>
<path class="st0" d="M201,103c0.4,7.3,6.8,6.9,12,9.5C210.4,106.6,207.7,102.4,201,103z"/>
<path class="st0" d="M144.2,143.6c0-0.5,0.1-0.9,0.1-1.4c-8.4-3.4-17.3,0.2-25.9-1.3c0,0.5-0.1,1-0.1,1.5
	C126.9,142.8,135.6,143.2,144.2,143.6z"/>
<path class="st0" d="M175.6,76.7c4.8,2.2,4.4,10.5,12.8,9.8C184,82.2,183.3,75.3,175.6,76.7z"/>
<path class="st0" d="M291.7,104.4c-5.6-4.7-5.6-4.7-9.6,1.3C287,110.4,287.1,110.4,291.7,104.4z"/>
<path class="st0" d="M259.6,57.7c-6.2-4.5-6.8,2.5-11.3,4.5C255.5,66.3,256,58.7,259.6,57.7z"/>
<path class="st0" d="M190.2,108c-0.8-6.4-5.5-5.9-9.6-6.8C181.1,107.4,185.5,107.5,190.2,108z"/>
<path class="st0" d="M85.7,114.3c0,0.5-0.1,1-0.1,1.4c5.7,3.8,12.2,0.3,18.2,1.8c0.1-0.6,0.1-1.2,0.2-1.8
	C97.8,115.2,91.8,114.7,85.7,114.3z"/>
<path class="st0" d="M197.7,165.1c0.3-0.6,0.7-1.2,1-1.8c-3.9-2.7-6.2-7.9-13.6-6.7C189.9,159.8,193.8,162.5,197.7,165.1z"/>
<path class="st0" d="M218.7,141.3c-0.3,0.5-0.6,1.1-0.9,1.6c4.3,2.7,8.6,5.4,12.8,8c0.3-0.4,0.6-0.9,0.9-1.3
	C228.7,144.8,223.1,143.9,218.7,141.3z"/>
<path class="st0" d="M301.5,99.4c3.3,1.3,6.1,6.6,10,0.2C308,97.5,305.1,94.3,301.5,99.4z"/>
<path class="st0" d="M197.5,87c-2.9-3.7-3.6-9.1-10.8-8.4C190.8,81.3,190.1,88.3,197.5,87z"/>
<path class="st0" d="M278.9,86.3c2.5-3.1,3.8-4.7,6.2-7.7c-4.1,0-6.5,0-9,0C276.9,80.7,277.6,82.8,278.9,86.3z"/>
<path class="st0" d="M275.8,62.2c-4.7,4.1,0.1,5.1,2.3,7.7c1.2-1.8,2.1-3.1,3.2-4.6C279.2,64.2,277.6,63.2,275.8,62.2z"/>
<path class="st0" d="M160.1,144.8c0.1-0.8,0.3-1.6,0.4-2.3c-4-0.5-8-0.9-12-1.4c-0.1,0.6-0.2,1.3-0.3,1.9
	C152.2,143.6,156.1,144.2,160.1,144.8z"/>
<path class="st0" d="M99.2,126.1c-1.7-6.4-1.7-6.4-9.3-5C93.8,123.2,96.5,124.6,99.2,126.1z"/>
<path class="st0" d="M251.8,47.9c2.8,0.1,4.4,0.6,5,0.1c1.8-1.5,3.1-3.5,4.6-5.3c-0.9-0.3-2.2-1.2-2.7-0.9
	C256.7,43.3,254.9,45.1,251.8,47.9z"/>
<path class="st0" d="M274.1,207.4c8-15.2,17.9-29.1,29.5-42.5c14.3,11,28.5,21.8,42.7,32.6c1.2,1.7,2.6,3.3,4,4.8
	c-0.2,0.3-0.4,0.6-0.5,0.9c-1.6-0.8-3.3-1.3-4.7-2.4c-13.6-11-27.1-22.1-41.4-33.8c-8.1,12.7-16,25.1-24,37.5c0.3,0.3,0.5,0.7,0.8,1
	c3.3-0.9,6.6-1.7,9.8-2.7c10.2-3.1,20.2-2.7,30.1,1.4c10.6,4.5,21.3,8.9,32.4,13.4c0,1.1,0,2.1,0,3.2c-12.8-4.5-25.7-9-38.7-13.2
	c-9.4-3-26.7-0.9-35.3,4.3c22.2-4.3,42.2,2.9,62.2,9.7c-4.4-0.5-8.8-0.9-13.1-0.9c-7.1-1.9-14.2-3.6-21.3-5
	c-8.5-1.7-17.6-0.3-26.4-0.2C276.3,215.5,272.4,210.6,274.1,207.4z"/>
<path class="st0" d="M257,204.4c1.5,1.2,3.5,1.8,5.3,2.6c-2.5,0.4-5,0.7-7.4,1.1c-3.1-2.8-6.2-5.7-9.2-8.7
	c-4.7-4.6-9.7-8.7-15.6-11.6C239.7,191.8,248.6,197.5,257,204.4z"/>
<path class="st0" d="M0.2,109.8c0.3,1.1,1.4,2,2.2,3c27.1,32.1,54.1,64.2,81.4,96.1c2.1,2.4,5.7,4.3,8.9,4.7
	c9.8,1.5,19.7,2.2,29.6,3.1c15.1,1.5,30.2,3,45.4,4.5c0-1.3,0-2.5,0.2-3.8c0.6-4.1,2.2-7.3,4.4-10.5c-24.4-1.9-48.8-3.8-73.2-5.7
	c-0.7-0.1-1.3-0.2-2.4-0.3c3-4.7,6.9-5.3,11.8-4.8c23,2.1,45.9,3.9,68.9,5.7c0.3-0.1,0.6-0.2,0.9-0.3c0.1-0.3,0.2-0.6,0.4-0.9
	c-24-2.7-48.1-5.4-72.6-8.2c3.1-5.7,5.8-10.7,8.8-16.2c12.9,1.4,26.2,2.5,39.5,4.3c12.1,1.6,24.2,3.3,36.3,5c0,0,0.1,0,0.1,0
	c1.6-2.6,4.3-4.4,8.3-4.2c1.1,0,2,0.2,2.9,0.5c1.5-0.2,3.1-0.2,4.6-0.2c-0.8-0.1-1.7-0.2-2.5-0.3c-28.9-2.2-57.7-5.9-86.5-8.4
	c-4.2-0.4-6.7-1.6-9.4-4.3c-15.7-16.1-31.5-32.1-47.2-48.1c-9.8-10-19.5-19.9-29.8-30.4c1.8-0.1,2.8-0.2,3.8-0.1
	c17.5,2.6,34.9,5.7,52.5,7.7c8,0.9,11.8,5.9,16.6,11.8c-8.4-0.6-15.9-1.2-23.5-1.7c-0.1,0.5-0.2,1-0.4,1.4c1.1,0.6,2.2,1.6,3.4,1.7
	c3.7,0.3,7.4,0.2,11.1,0.5c4,0.3,8.5-0.2,12,1.3c2.9,1.3,4.7,5.1,7,7.8c-3.9-0.1-7.9-0.1-12-0.2c1.2,4.7,3.8,6,8.4,5.4
	c3.4-0.4,7,0.6,10.6,1c-0.1,0.5-0.1,1.1-0.2,1.6c-1.7,0.2-3.4,0.3-5.5,0.6c5.1,5.6,9.8,11,18.1,9.2c2-0.4,4-2.3,5.8-2.1
	c8,0.7,16,1.9,24,3c8.2,1.1,16.3,2.4,24.5,3.7c-0.1,0.5-0.2,1-0.2,1.5c-3.4-0.3-6.8-0.6-11.1-1c5.4,5.2,13-0.7,18,5.6
	c-9.5-0.4-18.1-0.8-26.8-1.2c-0.1,0.6-0.3,1.1-0.4,1.7c2.8,1,5.5,2.6,8.3,3c7.9,1,15.8,1.5,23.7,2.4c2,0.2,3.8,1.3,5.8,2
	c-0.1,0.3-0.2,0.6-0.3,0.9c-2.2,0-4.4-0.1-7-0.1c6.3,7.3,9.9,9,18.2,10.1c1.7,0.2,3.6,1.3,5,2.5c10.8,8.6,21.4,17.4,32.2,26
	c1.4,1.1,3.2,1.8,4.9,2.7c0.4-0.5,0.8-0.9,1.2-1.4c-0.9-1.4-1.6-2.9-2.6-4.1c-4.6-5.6-9.5-11-14-16.6c-1.7-2.1-3.1-4.7-3.8-7.2
	c-2.5-9.6-5.9-18.2-17.1-20.8c0.1,1.5,0.3,3.2,0.6,6.4c-2.3-3.2-4.1-5.1-5.3-7.4c-2.7-5.2-4.8-10.6-7.6-15.7c-1.3-2.3-3.7-4-5.7-5.9
	c-0.4,0.3-0.8,0.6-1.2,1c0.7,2.9,1.4,5.7,2.3,9.3c-1.2-0.9-1.8-1.1-2-1.5c-3.1-6.5-6.4-12.8-9-19.5c-1.6-4-4.2-5.4-8.7-6.1
	c2.1,5,4,9.4,5.9,13.8c-2.4-1.1-4.3-2.5-5.4-4.3c-5.2-8.8-10.1-17.8-15.1-26.7c-2.6-4.7-5.9-8.3-12.1-7.3c5.6,8.5,11.2,17,16.8,25.6
	c-0.6,0.4-1.2,0.9-1.8,1.3c-2.4-3.1-5.1-6.1-7.3-9.3c-4.1-6.2-7.1-13.6-16.2-14.6c1.9,3.5,3.7,6.8,5.9,10.7
	c-8.4-4.6-16-8.8-23.6-12.9c-4.8-2.6-9.2-5.2-11.9-10.6c-8.2-16.1-19.5-29.9-33.2-41.7c-1-0.8-1.8-1.9-3.6-3.8
	c7.1,2,12.9,3.7,18.6,5.3c34.8,9.6,69.7,19,104.5,28.8c2.6,0.7,5.3,3,6.7,5.3c8.6,13.9,16.5,28.1,25.1,42
	c13.4,21.6,22.9,44.4,23.9,70.1c0.1,1.9,0.2,3.9,0.5,5.8c0.1,1,0.5,1.9,1.1,3.7c0.7-1.5,1-1.9,1.1-2.4c0.3-1.9,0.5-3.9,0.7-5.8
	c3.1-22,0.4-42.9-9.8-62.9C244.6,98.8,234.9,77.9,225,57c-1.9-4-4.5-5.7-8.7-6.5c-22.9-4.6-45.7-9.4-68.6-14.3
	c-18.7-4.1-37.3-8.5-55.9-12.7c-1.4-0.3-2.9,0-4.4,0.1c-0.1,0.5-0.1,1.1-0.2,1.6c2.5,0.9,5,2.2,7.6,2.7c40.5,8.5,81,16.9,121.6,25.2
	c3.2,0.6,4.9,1.7,6.3,4.6c7.2,15.4,14.7,30.7,21.7,46.2c5.2,11.5,10.1,23.1,14.5,34.8c2.1,5.4,2.7,11.4,4,17.1
	c-3.1-6-4.1-12.6-6.9-18.3c-12.5-25.5-25.3-50.7-38.4-75.9c-1.2-2.3-4.2-4.2-6.8-5.2c-3.4-1.4-7.2-1.7-10.8-2.5
	c-24.7-5.5-49.4-11-74.1-16.5C111.7,34.1,97.4,31,83,28c-1.6-0.3-3.5,0.6-5.2,0.9c0.9,1.4,1.5,3,2.7,4.1c4.6,4.1,9.4,8,14.1,12.1
	c10.7,9.4,18.6,21,26.2,34.7c-3-1.4-4.7-2.3-6.4-3C89.5,65.5,64.7,54.2,39.8,43.1c-1.3-0.6-3.2,0-4.8,0c0.8,1.5,1.3,3.5,2.5,4.5
	c9.4,7.8,19.1,15.1,28.4,23.1c7,6,13.5,12.6,20.2,19c-1.5,1.1-2.3,1.1-3.1,1c-16.9-1.7-33.8-3.1-50.6-5.2c-5.6-0.7-8.6,1.2-10.7,6.1
	c-1.7,3.9-3.7,7.7-5.8,11.3c-3.2,5.4-5.9,6-11.6,3.1c-1-0.5-3-0.6-3.7,0.1C-0.1,106.8-0.1,108.6,0.2,109.8z M199.6,148.1
	c17.9,5.6,29.9,18.5,40.4,33.2C226.5,170.3,213.1,159.2,199.6,148.1z M50.6,53.3c-0.6-0.5-1.1-1.2-1.1-2.7c12.8,5.3,26,10,38.5,16.1
	c22.4,11,44.6,22.2,66.4,34.4c20.3,11.3,38.2,26,54,43.1c0.8,0.9,1.4,1.9,2.6,3.4c-23.6-12.1-48.6-15.9-73.7-19.5
	c-4.2-0.6-7.4-2-10.5-5.1C102.2,98.9,78.3,74.1,50.6,53.3z M10.3,112.7c5.8-7.4,11.1-14.2,16.6-21.3c12.2,12.4,24.5,24.9,36.7,37.4
	c13.8,14,27.6,28,41.2,42c6.6,6.8,6.9,4.1,0.6,14.2c-19.2-21.5-38.3-42.9-57.3-64.3c-0.4,0.3-0.8,0.6-1.2,1c1.1,1.5,2.2,3,3.4,4.4
	c16.5,19.4,33,38.8,49.7,58.1c3,3.4,3.4,5.8-0.3,8.6c-2.4,1.8-4.6,3.8-7.4,6.2c-20.8-24.7-41.5-49.2-62.1-73.7
	c-0.3,0.2-0.6,0.4-0.8,0.7c1,1.3,2,2.7,3,4C51,153,69.5,176,87.9,199.2c1,1.3,1.4,3.1,2,4.7c-0.6,0.3-1.2,0.6-1.8,0.9
	C61.9,173.8,35.7,142.8,10.3,112.7z"/>
<path class="st0" d="M256.6,104c1.4,3.2,2.8,6.5,3.8,8.8c2.9,1.1,5.1,1.9,7.3,2.7c-1.2,3.2-2,5.5-2.9,7.8c0.5,0.2,0.9,0.5,1.4,0.7
	c4.1-4.8,8.3-9.6,12.7-14.8c1.7,1,3.5,2,5.5,3.2c-4.7,7.9-12.8,13.4-15.4,24.2c4.1-2.1,6.7-5.9,9.7-1.4c-0.3,0.8-0.4,2.2-1.1,2.7
	c-4.8,4-3.8,8.8-3.3,14.2c1,11,0.9,22.1,1.2,33.3c2.4-3.8,5.2-7.9,7.8-12.1c10.9-17.4,25-32,39.7-46.1c20.6-19.7,41.6-39,62.4-58.4
	c1.5-1.4,3-2.8,4.9-4.6c-44.5-17.1-90-29.9-130-55.5c6.5,3.2,12.9,6.6,19.5,9.5c12,5.4,23.8,11,36.1,15.5
	c23.6,8.7,47.5,16.7,71.3,25c10.9,3.8,10.9,3.8,2.5,11.3c-28.9,25.8-58,51.4-82.3,81.9c-13,16.3-24.9,33.4-37.3,50.2
	c-1,1.3-2.1,2.5-3.1,3.8c-0.4-0.1-0.9-0.3-1.3-0.4c0-1.2-0.5-2.6-0.1-3.6c11.5-29.2,6.4-56.9-6.5-84.2C248.8,95.5,239,73.2,228.9,51
	c-0.5-1.2-0.9-2.4-0.2-4.2c1.4,2.7,2.8,5.4,4.3,8.3c7.3-4.8,11.8-12.9,19.4-16.9c0.4,0.5,0.8,1.1,1.3,1.6c-5.8,5-11.7,9.9-17.3,15.1
	c-1.2,1.1-1.3,3.3-2,5c0.5,0.2,0.9,0.4,1.4,0.6c4.8-3.7,9.7-7.3,14.5-11c0.4,0.4,0.8,0.9,1.1,1.3c-0.9,7.9-13.2,10-11.5,19.9
	c4.1-0.3,4-7.5,8.9-3.8c-0.4,4.3-6.7,5.5-5.1,11.3c5.4-2.4,8.5-13.1,15.7-3.5c-2.4,5.6-9.4,9.4-9.5,18.2c2.1-1.5,3.2-2.3,4.3-3.1
	c2.4,3.2,5.2,5.8,1.8,9.9C255.4,100.6,256.4,102.7,256.6,104L256.6,104z"/>
<path class="st0" d="M405.8,57.5c-48-18.9-96-37.7-143.9-56.7c-3.3-1.3-5.6-1.1-8,1.5c-11.3,12.1-22.8,24.1-34.2,36.1
	c-1,1.1-2.3,1.9-3.7,3.2c0,0-0.1,0-0.1,0.1l-0.3,0.3c-0.4,0.7-0.9,1.7-1.3,2.3l0.3,0.5c3.2,0.9,5.1-0.6,7.2-2.9
	c10.5-11.9,21.4-23.5,31.8-35.5c3.2-3.7,6-3.9,10.4-1.9c22.2,9.8,44.4,19.7,66.9,28.7c22.7,9.1,45.8,17.3,68.7,25.9
	c1.4,0.5,2.8,1.2,4.5,1.9c0.6,0.2,0.7,1,0.3,1.4c-4.3,4.1-8.1,7.8-11.8,11.5c-0.3,0.3-0.3,0.8-0.1,1.2l0,0c0.3,0.4,0.8,0.4,1.2,0.1
	c4.4-3.4,8.8-6.8,13.2-10.3C411.6,61,411.4,59.7,405.8,57.5z"/>
<path class="st0" d="M340,203.2c-2.5,0.3-3.9,0.8-5,0.4c-3.1-0.8-6.1-2-9-3.1c-10.2-3.9-20.7-5.3-31.6-3.9c-1.4,0.2-2.9-0.5-4.3-0.8
	c0.4-1.3,0.5-2.8,1.3-3.8c3.5-5,7.3-10,10.9-15c2.5-3.5,5.3-3.6,8.5-0.9c8.5,7.4,17,14.8,25.5,22.2
	C337.3,199.4,338.1,200.9,340,203.2z"/>
<path class="st0" d="M331.6,175.3c3.3-14.5,6.4-28.5,9.5-42.4c0.7,0.2,1.5,0.4,2.2,0.5c-1.2,4.5-2.9,8.9-3.6,13.5
	c-1.5,9.4-2.5,18.9-3.7,28.4c-0.7,5.5-2.1,6.2-6.6,3c-6.4-4.7-12.8-9.5-19.3-14.1c-2.9-2-3.2-4-0.8-6.5c17.9-18.3,35.8-36.7,53.8-55
	c0.2-0.2,0.6-0.3,1.4-0.1c-17.6,19.1-35.1,38.3-53.1,57.9C318.5,165.6,324.9,170.4,331.6,175.3z"/>
<path class="st0" d="M337.4,77.2c-7,6.4-13.3,12.8-20.5,18.1c-1.8,1.3-15.5-10.9-19.9-11.8c6.5-6.4,10.5-12.9,15.9-18
	C318.4,60.3,330.6,71.5,337.4,77.2z"/>
<path class="st0" d="M190,163.8c-11.4-1.3-21.7-2.2-31.9-3.8c-2.5-0.4-4.6-3.3-6.9-5c0.2-0.4,0.4-0.9,0.5-1.3
	c9.7,0.7,19.4,0.8,28.9,2.3C183.7,156.5,186.2,160.6,190,163.8z"/>
<path class="st0" d="M225.3,133.4c-14-3.9-16-6-20-20.8C214.6,113,224.1,125.3,225.3,133.4z"/>
<path class="st0" d="M286.5,76.8c-2.3-1.3-4-2.2-6.2-3.4c5.3-6.7,10.4-13.2,15.7-19.9c2.1,1.4,3.9,2.7,6.6,4.5
	C297,64.4,291.8,70.6,286.5,76.8z"/>
<path class="st0" d="M254.2,68.5c6.5-6,11.7-10.9,17-15.8c1.5,0.9,3,1.8,4.9,3c-4.1,4.9-7.6,10-12.1,14.1
	C262.6,70.9,258.5,69.1,254.2,68.5z"/>
<path class="st0" d="M282.5,87.4c2.4,1.9,4,3.1,6,4.7c-4.6,5.2-8.8,10-13.3,15.1c-1.8-1.3-3.3-2.5-5.3-4
	C274,97.9,278,92.9,282.5,87.4z"/>
<path class="st0" d="M304.6,95.7c2.4,1.9,4,3.1,6,4.7c-4.6,5.2-8.8,10-13.3,15.1c-1.8-1.3-3.3-2.5-5.3-4
	C296.1,106.2,300.1,101.2,304.6,95.7z"/>
<path class="st0" d="M156.2,151.4c-12.3-2.3-25.3-0.1-37.4-4.3c0.1-0.6,0.1-1.2,0.2-1.9c4.7,0.2,9.4,0.3,14.1,0.6
	c6.3,0.3,12.6,0.4,18.9,1.1c1.8,0.2,3.4,1.8,5.2,2.7C156.8,150.2,156.5,150.8,156.2,151.4z"/>
<path class="st0" d="M256.7,104.1c1.1-1.2,2.3-2.3,3.2-3.6c1.1-1.6,1.9-3.4,3-4.9c1.8-2.6,3.8-5,6.2-8.1c1.6,1.6,2.9,3,4.2,4.4
	c-1.9,3-3.6,5.6-5.4,8.2c-1.8,2.6-3.7,5-5.8,7.9C260.2,106.7,258.4,105.4,256.7,104.1C256.6,104,256.7,104.1,256.7,104.1z"/>
<path class="st0" d="M203.9,125.6c-1.5-1.7-3.6-3.1-4.4-5c-3.4-8.1-6.3-16.3-9.5-24.8c4.1,1.2,11.9,16.5,15,28.6
	C204.6,124.8,204.2,125.2,203.9,125.6z"/>
<path class="st0" d="M169.7,85.5c8.8,1.5,14.2,6,17.3,13.8C178.3,99.4,177.6,98.9,169.7,85.5z"/>
<path class="st0" d="M279,39.6c-4.8,4.7-9.2,9.2-13.9,13.4c-1,0.9-3.2,0.4-5.7,0.7C265.8,43,274.8,36.6,279,39.6z"/>
<path class="st0" d="M118.9,137.8c-9.1,3.1-13.3-3.6-18.6-8.6C109.2,126.5,114.4,131.3,118.9,137.8z"/>
<path class="st0" d="M176.8,84.8c-8-1.6-14.1-4.7-17.7-11.7C167.6,73.4,171.5,75.8,176.8,84.8z"/>
<path class="st0" d="M145.6,70.3c9.4-0.4,11.1,7.4,16.9,12.1C152.5,83,150.5,75.4,145.6,70.3z"/>
<path class="st0" d="M278.3,59c2.5-2.9,4.5-5.3,6.7-7.9c2,0.6,3.9,1.1,6.5,1.9c-2.7,3.4-5,6.4-7.6,9.6
	C281.9,61.3,280.4,60.3,278.3,59z"/>
<path class="st0" d="M214.3,132.1c5.2,3,13.6,1.5,14.8,12.3c-6.1-3.7-11.2-6.9-16.3-10C213.3,133.6,213.8,132.8,214.3,132.1z"/>
<path class="st0" d="M125.9,152.3c9.6-0.7,10.6-0.3,15.6,5.5C133.5,159.3,129,157.7,125.9,152.3z"/>
<path class="st0" d="M278.3,53.1c-1.5-1.3-2.6-2.2-4-3.5c1-1,1.9-2,2.9-2.9c6.2-5.4,6.2-5.4,9.8-4C284.1,46.2,281.4,49.4,278.3,53.1
	z"/>
<path class="st0" d="M201,103c6.7-0.6,9.4,3.6,12,9.5C207.8,109.9,201.5,110.3,201,103z"/>
<path class="st0" d="M144.2,143.6c-8.6-0.4-17.3-0.8-25.9-1.2c0-0.5,0.1-1,0.1-1.5c8.6,1.5,17.5-2.1,25.9,1.3
	C144.2,142.6,144.2,143.1,144.2,143.6z"/>
<path class="st0" d="M175.6,76.7c7.7-1.4,8.4,5.5,12.8,9.8C180,87.2,180.4,78.9,175.6,76.7z"/>
<path class="st0" d="M291.7,104.4c-4.6,6-4.7,6-9.6,1.3C286.1,99.7,286.1,99.7,291.7,104.4z"/>
<path class="st0" d="M259.6,57.7c-3.6,1-4.2,8.5-11.3,4.5C252.9,60.3,253.5,53.2,259.6,57.7z"/>
<path class="st0" d="M190.2,108c-4.7-0.5-9.1-0.6-9.6-6.8C184.7,102.1,189.4,101.5,190.2,108z"/>
<path class="st0" d="M85.7,114.3c6.1,0.5,12.1,0.9,18.2,1.4c-0.1,0.6-0.1,1.2-0.2,1.8c-6-1.5-12.5,2.1-18.2-1.8
	C85.6,115.3,85.7,114.8,85.7,114.3z"/>
<path class="st0" d="M197.7,165.1c-3.9-2.7-7.9-5.3-12.6-8.5c7.4-1.2,9.7,4.1,13.6,6.7C198.4,163.9,198.1,164.5,197.7,165.1z"/>
<path class="st0" d="M218.7,141.3c4.4,2.5,10,3.4,12.8,8.3c-0.3,0.4-0.6,0.9-0.9,1.3c-4.3-2.7-8.6-5.4-12.8-8
	C218.1,142.4,218.4,141.9,218.7,141.3z"/>
<path class="st0" d="M301.5,99.4c3.6-5.1,6.6-1.9,10,0.2C307.6,106,304.7,100.7,301.5,99.4z"/>
<path class="st0" d="M197.5,87c-7.3,1.3-6.7-5.7-10.8-8.4C193.9,77.9,194.5,83.3,197.5,87z"/>
<path class="st0" d="M278.9,86.3c-1.3-3.5-2.1-5.6-2.8-7.7c2.5,0,5,0,9,0C282.7,81.6,281.4,83.1,278.9,86.3z"/>
<path class="st0" d="M275.8,62.2c1.7,1,3.4,1.9,5.5,3.1c-1,1.5-2,2.8-3.2,4.6C275.9,67.4,271.1,66.4,275.8,62.2z"/>
<path class="st0" d="M160.1,144.8c-4-0.6-7.9-1.2-11.9-1.8c0.1-0.6,0.2-1.3,0.3-1.9c4,0.5,8,0.9,12,1.4
	C160.4,143.2,160.3,144,160.1,144.8z"/>
<path class="st0" d="M99.2,126.1c-2.7-1.5-5.4-3-9.3-5C97.6,119.8,97.6,119.8,99.2,126.1z"/>
<path class="st0" d="M347.8,254.8c1,3.4,2,6.9,3.1,10.9c1.4-2.4,2.3-4,2.8-4.8c-1.8-2.5-3.4-4.6-4.9-6.8
	C348.5,254.4,348.2,254.6,347.8,254.8z"/>
<path class="st0" d="M416.2,212.9c-1.1-1-1.9-2.5-3.2-3.1c-21.4-9.7-42.8-19.2-64.2-28.8c-0.6-0.3-1.3-0.4-2.3,0.3
	c22.8,11,45.7,21.9,68.5,32.9C415.4,213.8,415.8,213.4,416.2,212.9z"/>
<path class="st0" d="M420.4,308.9c42.8-6.3,85.6-12.6,129.9-19.1c-7.7-1.4-128,15.2-130.1,17.4C420.2,307.8,420.3,308.4,420.4,308.9
	z"/>
</svg>
