<?xml version="1.0" encoding="utf-8"?>
<!-- Generator: Adobe Illustrator 19.2.1, SVG Export Plug-In . SVG Version: 6.00 Build 0)  -->
<svg version="1.1" id="Слой_1" xmlns="http://www.w3.org/2000/svg" xmlns:xlink="http://www.w3.org/1999/xlink" x="0px" y="0px"
	 viewBox="0 0 1181.8 1656.7" style="enable-background:new 0 0 1181.8 1656.7;" xml:space="preserve">
<style type="text/css">
	.st0{fill:#B07D12;}
</style>
<g>
	<path class="st0" d="M917.7,1163.2c-1.7-0.5-3.5-1-5.2-1.5c10.4-50.5,23-100.7,52-144.4c29.2-43.8,75.5-70.6,119.2-99.6
		c-0.2,3.7-1.4,6.4-2.8,8.9c-38.8,67.5-84.6,129.9-140.3,185.6c-7.4,7.4-11.7,18.1-16.2,27.9
		C921.1,1147.3,919.9,1155.5,917.7,1163.2z"/>
	<path class="st0" d="M937.8,666.8v3.5c9.1,0.7,18.2,1.9,27.2,2.4C956,669.8,947,667.8,937.8,666.8z"/>
	<path class="st0" d="M907.9,989.1c-2.4,2.1-5,3.9-7.8,5.5c0.1,11.9,0.6,23.8,1.3,35.8c0.4,5.7,0,11.6,1.6,17
		c11.8,40.8-2.5,78.5-10.7,117c1.1,5.4,1.3,10.9,0.4,16.2c2.2-0.9,3.5-3.2,4-7.1c1.3-10.9,2.1-21.9,4.7-32.5
		c2.6-10.8,7.7-20.9,10.8-31.5c1.6-5.6,2.3-11.7,2-17.5C912.5,1057.7,909.1,1023.4,907.9,989.1z"/>
	<path class="st0" d="M925.5,801.5c4.6-0.1,9.3-0.2,13.9-0.3c4.7-0.1,9.4-0.9,15.8-1.6c-7.3,13.7-13.8,26.6-20.9,39.2
		c-0.6,1.1-1.2,2.1-1.8,3.2c0.3,2.6,0.5,5.2,0.7,7.8c5.9-13.4,12.7-26.6,20.1-39.5c2.2-3.9,4.2-7.9,7.4-13.8
		c-12.6,0.8-24.4,1.9-35.9,2.6C925.1,799.9,925.3,800.7,925.5,801.5z"/>
	<path class="st0" d="M992.5,946.9c32.8-16.1,66.8-30,100.3-44.7c2.6-1.2,5.8-1.3,9.7-2.1c-0.4,2.7-0.3,4.2-0.9,5.5
		c-33.7,75.3-73.4,146.9-138.1,202.4c-21.8,18.7-32.9,42.1-37.7,69.4c-0.3,1.5-0.4,2.8-0.4,4c-2.5,1.9-4.8,4.1-6.8,6.6
		c-0.3-0.1-0.6-0.3-0.8-0.4c0.3-0.9,1.6-3.7,1.8-6.6c2.1-34.2,19.9-59.9,45-82.6c45.1-40.7,80.3-88.5,107.5-141.9
		c8.4-16.5,16.6-33.1,24.9-49.7c-43,14.1-83.5,30.8-117.9,57.3c-12.2,9.4-19.9,24.5-28.4,37.7c-4.8,7.5-7.2,16.5-10.6,24.8
		C946.1,992.9,959.4,963.1,992.5,946.9z"/>
	<path class="st0" d="M922.2,1077.4c0.7,3.6,1.4,7.2,2.2,10.8C923.7,1084.6,923,1081,922.2,1077.4z"/>
	<path class="st0" d="M918.1,975.9c-1.8,3.4-3.9,6.5-6.3,9.2c0.1,30.8,4.3,61.5,10.4,92.2C915.7,1042.5,914.7,1008.8,918.1,975.9z"
		/>
	<path class="st0" d="M938.5,883.3c0.1,0.1,0.2,0.2,0.4,0.4c10.7-31.8,24.7-63,40.6-93.9c-19.6,24.6-34.5,51-45.5,79.1
		c0,3.5-0.1,6.9-0.3,10.4C935.3,880.6,936.9,881.9,938.5,883.3z"/>
	<path class="st0" d="M1171,682.8c-17.4-9.4-35.3-17.8-53.1-26.6c-15.6-7.8-30-4.9-43.7,3.5c-5.9,3.6-11.7,7.2-17.2,10.7
		c-13.4-12-26.2-23.6-39.1-34.9c-17.2-15.1-37.3-19.1-58.8-13.5c-9.4,2.5-18.8,5.4-27.9,8.7c0.9,1.5,1.6,3,2.3,4.6
		c19.1-7.8,37.7-12.4,58.4-7.4c27.4,6.5,44,28.2,65.1,48c1.9-1.7,4.2-3.7,6.5-5.6c20.6-17,42.7-16.1,65.8-3.3
		c11.4,6.3,23,12.4,34.7,18.3c8.6,4.4,16.1,9.2,11.7,20.8C1184.6,692.9,1184.4,690.1,1171,682.8z"/>
	<path class="st0" d="M937.8,660.1v3c0.1,0,0.2,0.1,0.3,0.1l1.2-2.2C938.8,660.8,938.3,660.4,937.8,660.1z"/>
	<path class="st0" d="M1020.2,718.2c1.3-6.4,2-9.6,2.6-12.9c4.1-24-0.5-32.7-22-47c-14.6-9.7-30.5-10.2-46.8-10.3
		c-4,0-8-1.2-11.9-1.8c0-1.3,0.1-2.6,0.1-3.8c3.2-0.7,6.5-1.9,9.7-2c20.5-1.1,40.2,1.8,58.9,11.5
		C1039.1,666.5,1048.5,682.8,1020.2,718.2z"/>
	<path class="st0" d="M1041.7,756.8c9.8-4.5,19.9-9,29.9-13.8c18.6-9,37.4-17.5,59.5-13.3c3.3,0.6,6.4,3,9.5,4.6
		c-3.2,1.2-6.3,2.8-9.6,3.6c-10.7,2.6-24.9,1.7-31.6,8.1C1081.8,763,1062.2,761,1041.7,756.8z"/>
	<path class="st0" d="M974.2,826.3c-0.6-0.1-1.2-0.2-1.8-0.4c5.7-13.5,11-27.2,17.4-40.5c4.7-9.8,11.5-10,19.1-1.1
		c3.8,4.5,6.7,9.6,10.3,14.2c4.9,6.3,4.3,11.2-1.7,16.8c-14.9,13.7-29.2,28.1-43.9,42.1c-2.3,2.2-5,3.8-7.6,5.8
		c-0.9-0.8-1.7-1.5-2.6-2.3c2-2.6,3.7-5.4,6.1-7.7c13.7-13.4,27.6-26.5,41.1-40.1c2.4-2.4,5.3-7.2,4.3-9.1
		c-4.1-7.5-9.6-14.2-16.6-24C989,797.7,981.6,812,974.2,826.3z"/>
	<path class="st0" d="M917.7,1163.2c2.2-7.7,3.4-15.8,6.7-23.1c4.5-9.7,8.7-20.4,16.2-27.9c55.6-55.7,101.5-118.2,140.3-185.6
		c1.5-2.5,2.6-5.2,2.8-8.9c-43.7,29-90,55.8-119.2,99.6c-29.1,43.6-41.6,93.9-52,144.4C914.2,1162.2,915.9,1162.7,917.7,1163.2z"/>
	<path class="st0" d="M907.9,989.1c-2.4,2.1-5,3.9-7.8,5.5c0.1,11.9,0.6,23.8,1.3,35.8c0.4,5.7,0,11.6,1.6,17
		c11.8,40.8-2.5,78.5-10.7,117c1.1,5.4,1.3,10.9,0.4,16.2c2.2-0.9,3.5-3.2,4-7.1c1.3-10.9,2.1-21.9,4.7-32.5
		c2.6-10.8,7.7-20.9,10.8-31.5c1.6-5.6,2.3-11.7,2-17.5C912.5,1057.7,909.1,1023.4,907.9,989.1z"/>
	<path class="st0" d="M925.5,801.5c4.6-0.1,9.3-0.2,13.9-0.3c4.7-0.1,9.4-0.9,15.8-1.6c-7.3,13.7-13.8,26.6-20.9,39.2
		c-0.6,1.1-1.2,2.1-1.8,3.2c0.3,2.6,0.5,5.2,0.7,7.8c5.9-13.4,12.7-26.6,20.1-39.5c2.2-3.9,4.2-7.9,7.4-13.8
		c-12.6,0.8-24.4,1.9-35.9,2.6C925.1,799.9,925.3,800.7,925.5,801.5z"/>
	<path class="st0" d="M1030.9,757.4c26.5-21.1,52.7-40.9,90.3-36.5c14.8,1.7,28.6,2.5,37.4-12c4.6-7.6,4-13.6-3.9-18.5
		c-17.1-10.4-35-19.8-55.4-20.1c-8.9-0.1-20.2,2-26.2,7.4c-18.9,17.1-36.3,35.8-53,54.9c-7.4,8.4-3,26.4,6.8,34.3
		c28.8,23.1,61.1,34.7,98.5,29.3c25.8-3.7,52.8-32.3,53-57.3c0-4.3-3.3-8.7-5.1-13c-3.6,2.5-8.2,4.2-10.5,7.5
		c-8,11.1-16.4,18-32.4,12.1c-5.5-2.1-13.7,1.4-20.1,3.5c-4.7,1.5-9.1,4.6-12.9,7.7C1076.4,773.2,1054.8,770.9,1030.9,757.4z
		 M1155.6,698.6c-6.8,9.6-16,12.1-26.2,12c-33.6,0-62,12.7-88.1,30.9c-4.9,3.4-9.5,7.1-14.2,10.6c-1.1-0.5-2.2-1-3.3-1.6
		c1.2-5.4,0.7-12.2,4-16.1c13.8-16.6,28.2-32.8,43.7-48c5.3-5.3,14-9.9,21.5-10.2C1116.3,675.3,1136.5,685.1,1155.6,698.6z
		 M1171,733.5c3.5,20.3-16.2,48.1-39,56c-31.8,11.1-74.5,1.8-90.1-21c25.5,12,46.8,4.1,68-6.2c6.1-3,13.6-5.8,20.2-5.1
		c15.6,1.5,25.7-4.8,33.8-16C1165.8,738.6,1168.3,736.4,1171,733.5z"/>
	<path class="st0" d="M992.5,946.9c32.8-16.1,66.8-30,100.3-44.7c2.6-1.2,5.8-1.3,9.7-2.1c-0.4,2.7-0.3,4.2-0.9,5.5
		c-33.7,75.3-73.4,146.9-138.1,202.4c-21.8,18.7-32.9,42.1-37.7,69.4c-0.3,1.5-0.4,2.8-0.4,4c-2.5,1.9-4.8,4.1-6.8,6.6
		c-0.3-0.1-0.6-0.3-0.8-0.4c0.3-0.9,1.6-3.7,1.8-6.6c2.1-34.2,19.9-59.9,45-82.6c45.1-40.7,80.3-88.5,107.5-141.9
		c8.4-16.5,16.6-33.1,24.9-49.7c-43,14.1-83.5,30.8-117.9,57.3c-12.2,9.4-19.9,24.5-28.4,37.7c-4.8,7.5-7.2,16.5-10.6,24.8
		C946.1,992.9,959.4,963.1,992.5,946.9z"/>
	<path class="st0" d="M1013.3,761c-7.2-15.9-10.6-32.2-12.8-49.1c-0.6-4.7-5.4-10.6-9.9-13.2c-16.5-9.5-34-15.9-52.7-18.4v6.7
		c17.7,2.9,34.2,9.6,49.9,18.6c10,5.8,12.5,14.7,11.5,25.8c-24.4-21.1-44.7-24.6-61.4-19.8c0,4.6-0.7,9.1-2,13.3
		c8.3-1.2,16.8-2.2,25.3-2.5c25-0.7,44.2,18.7,46.1,44.8c-13.4-6.9-24.5-1.7-36.2,3.5c-7,3.1-16.3,5-23.7,3.3
		c-11-2.5-21.7-3.2-32.3-2.6c0,0,0,0,0,0.1c1.9,4.5,3.7,9,5.4,13.6c9.4-0.7,18.8-1.4,28.2-2.2c8.6-0.7,16.9-3.5,25.4-4.9
		c9.5-1.6,19-3.6,28.7-4.1C1013.4,773.3,1017.5,770.4,1013.3,761z"/>
	<path class="st0" d="M1083.4,818.5c4.1,16.9-0.6,32.3-8.2,46.9c-4.9,9.4-12.9,15.7-24.3,17.8c-23.3,4.2-46.6,5.5-73-1.9
		c6.1-8.9,10.4-16.7,16.2-23.3c12.6-14.3,22.6-31.2,45.6-33.9c10.3-1.2,12.9-10,7.8-19.5c-3.6-6.7-8.6-12.9-11.1-21.2
		c8.2,7.2,18.1,13.3,24.1,21.9c3.6,5.2,2,14.2,1.3,21.4c-0.5,5.5-3.8,10.7-4.6,16.2c-0.4,2.7,1.8,5.8,2.8,8.8c2.9-1.7,8.1-3,8.5-5.2
		c2.2-12.1,3.2-24.3,4.6-36.7c0.8,0.6,3,2.3,5.2,4c-8.4-8.3-16.4-17-25.5-24.6c-6.9-5.7-15-10.2-22.9-14.6c-2.3-1.3-5.8-0.4-8.8-0.6
		c0,2.8-0.9,5.9,0.2,8.2c3.4,6.9,7.4,13.6,11.5,20.2c4.6,7.3,3.7,11.3-4.7,15.8c-23.1,12.5-41.6,30.2-55.8,51.7
		c-8.2,12.4-4.2,21.5,10.9,24.1c26.3,4.6,52.4,2.7,76.7-7.2C1081.6,877.9,1095.3,835.9,1083.4,818.5z"/>
	<path class="st0" d="M918.1,975.9c-1.8,3.4-3.9,6.5-6.3,9.2c0.1,30.8,4.3,61.5,10.4,92.2C915.7,1042.5,914.7,1008.8,918.1,975.9z"
		/>
	<path class="st0" d="M938.5,883.3c0.1,0.1,0.2,0.2,0.4,0.4c10.7-31.8,24.7-63,40.6-93.9c-19.6,24.6-34.5,51-45.5,79.1
		c0,3.5-0.1,6.9-0.3,10.4C935.3,880.6,936.9,881.9,938.5,883.3z"/>
	<path class="st0" d="M922.2,1077.4c0.7,3.6,1.4,7.2,2.2,10.8C923.7,1084.6,923,1081,922.2,1077.4z"/>
	<path class="st0" d="M937.8,660.1v3c0.1,0,0.2,0.1,0.3,0.1l1.2-2.2C938.8,660.8,938.3,660.4,937.8,660.1z"/>
	<path class="st0" d="M1171,682.8c-17.4-9.4-35.3-17.8-53.1-26.6c-15.6-7.8-30-4.9-43.7,3.5c-5.9,3.6-11.7,7.2-17.2,10.7
		c-13.4-12-26.2-23.6-39.1-34.9c-17.2-15.1-37.3-19.1-58.8-13.5c-9.4,2.5-18.8,5.4-27.9,8.7c0.9,1.5,1.6,3,2.3,4.6
		c19.1-7.8,37.7-12.4,58.4-7.4c27.4,6.5,44,28.2,65.1,48c1.9-1.7,4.2-3.7,6.5-5.6c20.6-17,42.7-16.1,65.8-3.3
		c11.4,6.3,23,12.4,34.7,18.3c8.6,4.4,16.1,9.2,11.7,20.8C1184.6,692.9,1184.4,690.1,1171,682.8z"/>
	<path class="st0" d="M1020.2,718.2c28.3-35.4,18.9-51.7-9.4-66.4c-18.7-9.7-38.4-12.5-58.9-11.5c-3.3,0.2-6.5,1.3-9.7,2
		c0,1.3-0.1,2.6-0.1,3.8c4,0.6,8,1.8,11.9,1.8c16.3,0.1,32.3,0.6,46.8,10.3c21.5,14.3,26.1,23,22,47
		C1022.2,708.6,1021.5,711.8,1020.2,718.2z"/>
	<path class="st0" d="M1041.7,756.8c20.5,4.1,40.1,6.2,57.8-10.8c6.6-6.4,20.9-5.5,31.6-8.1c3.3-0.8,6.4-2.4,9.6-3.6
		c-3.2-1.6-6.2-3.9-9.5-4.6c-22.1-4.2-40.8,4.3-59.5,13.3C1061.6,747.9,1051.5,752.4,1041.7,756.8z"/>
	<path class="st0" d="M974.2,826.3c7.4-14.3,14.8-28.6,23.9-46.1c7,9.8,12.5,16.5,16.6,24c1,1.9-1.9,6.7-4.3,9.1
		c-13.5,13.5-27.4,26.7-41.1,40.1c-2.3,2.3-4.1,5.1-6.1,7.7c0.9,0.8,1.7,1.5,2.6,2.3c2.5-1.9,5.3-3.6,7.6-5.8
		c14.6-14,28.9-28.4,43.9-42.1c6-5.5,6.6-10.4,1.7-16.8c-3.6-4.6-6.5-9.8-10.3-14.2c-7.6-8.9-14.4-8.7-19.1,1.1
		c-6.4,13.2-11.6,27-17.4,40.5C973,826,973.6,826.1,974.2,826.3z"/>
</g>
<g>
	<g>
		<path class="st0" d="M308.3,1562c16-11.2,15.4-29.9,15.8-46.3c0.2-11.2-5.4-23.3-10.7-33.7c-9.2-18.1-23.3-29.8-46.1-27.2
			c-5-47.8,2.4-93.5,10.9-139.6c-5.4-3.2-10.2-6.1-16-9.5c3.2-19.1,20.5-28.3,27.3-44.6c-3.3-0.6-6.5-1.2-11.7-2.2
			c4.4-9.6,8.3-17.5,11.6-25.7c5.3-13,12.7-25.9,14.3-39.5c1.2-10.8,2.8-20.3,7.9-29.7c5.3-9.8,9.4-20.3,14.3-30.3
			c18.4-37.4,39.6-72.9,62.6-110c0.6,4.6,1.5,6.9,1,8.7c-11.8,42.7-24.3,85-46.8,123.3c-17.3,29.3-32.2,60.1-48,90.4
			c-2,3.8-2.6,8.4-3.8,12.6c13.7-19.1,27.9-37.8,40.9-57.3c9-13.5,17.6-27.5,24.1-42.5c17.7-40.3,37.4-79.8,48-123.1
			c3.9-15.8,6-32.1,5.7-50.2c-3.4,3-6.9,5.8-10,9c-26.1,27.2-47.6,57.6-63,93.3c-16.8,39-35.8,76.9-53.9,115.2
			c-3.1,6.6-6.9,12.9-10.6,19.7c-6.7-11.6-0.3-21.2,3-30.6c16.8-47.3,34-94.3,51.3-141.3c5-13.5,6.5-26.2-2.9-37.6
			c-1.9-1-3.2-2.2-4.5-2.2c-24.9,0.8-45.3-9.5-63.4-27.1c-27.6-26.7-53.4-55.8-68.6-91.7c-19.5-46.1-26.3-95.2-12.5-145.5
			c2.2-7.9,1.8-8-1.8-22.4c-2.3,2.6-4.8,4.3-5.8,6.7c-11.4,25.8-37,41-43.8,71.1c-8.7,38.1-12.6,74.3,11.4,110.8
			c-8.8-0.9-15.6-0.6-21.7-2.5c-21-6.5-42.5-4.8-63.7-3.5c-18.9,1.2-35.8,8.5-49,26.3c21.5,28.9,29.9,67.7,64.4,85.1
			c-10.6,21.4-19.9,41.6-23.6,67.8c28.2-11,52.3-26.8,80.7-29.6c28.2-2.8,56.1-11.5,84.1-12c27.9-0.4,55.9,6.2,83.7,9.7
			c4.8,21.5,0,40-4.4,57.9c-6.5,26.9-15.1,53.3-22.3,80c-6.4,23.9-11.8,48-18,71.9c-2.6,10.1-6.6,19.8-9.4,29.8
			c-1.9,6.9-2.7,14.1-4,21.7c11.1,3.8,20.3,6.9,30.1,10.2c-0.5,46.1-11.7,90.6-7.3,137.2c5.6,2.3,10.6,5,16,6.3
			c29.3,6.9,43.3,23.9,42.8,55.1c-0.2,12.7-2.7,25.3-4.1,38L308.3,1562z M52.3,1063.1c9.6-30.8,33-32.3,54.2-35.1
			c2-11.6-5-14.6-10.8-15.5c-25-3.5-42.6-19.8-59.2-37.5c-9.9-10.6-18.5-22.3-23.1-36.9c16.9-12.5,35-15.6,53.5-16.7
			c23-1.3,45,5,66.9,11.3c6.7,1.9,13.5,5.7,20.3-1c2.5-9.3-0.3-17.6-5.8-25c-20.7-27.7-19.2-59.3-12.9-90.9c3-15,5.5-31.2,18.6-45
			c0,15.2-0.1,28,0,40.7c0.4,35.4,7.4,69.7,24.3,99.8c16.8,29.9,38.6,56.6,64.9,77.8c18.5,14.9,36.7,31.3,61.9,32.9
			c3.9,0.3,7.5,5.8,11.1,8.7c-3.1,10.8-5.8,20.1-9.9,34.2c-2.9-16.3-11.7-19.1-21-20.3c-23.9-3.1-47.8-6.6-71.8-8.7
			C159,1031,106.1,1039.3,52.3,1063.1z"/>
		<path class="st0" d="M308.8,1562.7c-7.1-6.7-14.7-10.3-24.8-9.9c-7.4,0.3-15.1-3.4-22.2-6.3c-2.1-0.9-2.9-5.4-5.9-11.5
			c10.7,2.8,17.9,4.7,25.2,6.6c16.9-22.7,2.9-50.8-37.1-74.2c1-43.8,2-88.8,3.1-135.4c-8.9-1.6-19.7-3.5-31.8-5.6
			c1.5,44.3,3,87.9,4.5,131.4c-7.3,5.6-14.1,9.7-19.6,15.2c-20.2,20.4-15.4,44.4,11.5,53.5c13.2,4.5,24.8,10.3,34.3,21.2
			c3.7,4.3,9,7.8,14.2,9.5c14.8,4.8,29.9,8.5,46,12.9c0.7-2.6,1.5-5.3,2.2-8L308.8,1562.7z M207.7,1503.9
			c-2.2-20.5,6.7-26.8,27.3-18c0,6.6,0,13.7,0,20.4C219.9,1509.6,219.9,1509.6,207.7,1503.9z M257.3,1497.6c-0.5,1.7-1,3.3-1.5,5
			c-3.7-0.6-7.3-1.1-13.4-2c3.6-5.2,5.4-7.9,8.1-11.8C253.3,1492.4,255.3,1495,257.3,1497.6z"/>
		<path class="st0" d="M55.9,847.9c19.8-1.7,37.4-3.1,57-4.8c-22.8-14.4-44.9-14.7-67.6-6.4c-8.4,3.1-13,11.1-10.2,19.8
			c5.6,17,12.1,33.8,26.9,44.8c1.1,0.8,2.6,1.4,3.9,1.5c1.3,0.1,2.6-0.7,5.2-1.4C61.8,885.9,51.5,870.8,55.9,847.9z"/>
		<path class="st0" d="M43.6,1045.3c8.8-23.5,7.2-27.7-12.4-38c-1.2,0.7-2.7,1.2-3.5,2.3c-3.3,4.7-6.4,9.7-10.5,15.9
			C25.7,1031.8,33.9,1038,43.6,1045.3z"/>
	</g>
	<path class="st0" d="M935.9,919.9c-2.2-5.3-7.6-7.4-15.3-5.3c-33.5,9.2-67,18.5-100.4,28c-3,0.8-6.3,2.1-8.5,4.2
		c-20,18.9-43.5,25.1-71.1,19.6c-2,7.8-4,15.5-6.2,24.1c25-2.8,49.1-5.6,71.3-8.1c14.1,5.8,21.2,15.2,26.6,27.2
		c11.7,26.3,25,51.9,36.9,78.2c6.2,13.8,11.5,28.1,15.9,42.5c2.7,8.7,3.3,18.2,4.1,27.4c2.3,25.4,7.6,50.4,5.2,76.3
		c-1.8,18.7-3.2,37.9,2.4,57c-3,2.1-5.4,4.1-8.1,5.7c-11.1,6.9-22.3,13.7-33.3,20.6c-12.8,8-20,19.3-21,34.7
		c-0.5,7.3-2.6,14.5-4.3,23.8c-21.8-23.5-42.5-45.1-62.1-67.7c-4.9-5.7-7.4-14.6-8.5-22.4c-2.1-14.2,2-27.8,6.9-41.1h30.1
		c2.6,10.2,5.5,19.7,18.3,20.6c1-1.3,2.3-2.8,4.2-5.2c-13.1-12.1-24.6-25-44.6-23.2c-9,0.8-18.2-0.7-28.4-1.3
		c-0.8-7.5-2.1-14.4-2.3-21.3c-0.6-16.3,0.1-32.8-1.2-49c-2.1-24.7,1.4-48.6,6.3-72.7c4.1-19.6,6.8-39.5,9.9-59.3
		c0.4-2.3-0.7-4.9-1.3-8.8c-12.1,5.6-5.9,19.2-14.3,25.6h-64.8c9.6-14,18.7-26.9,27.4-40c11.7-17.7,8.9-37,7.2-57h-15.2
		c2.2,18.3-4.7,33.6-12,48.8c-3.3,6.9-6.3,13.9-9.8,20.6c-1,1.9-2.9,3.3-4.5,4.9c3.5-11.6,7-23.2,10.3-34.8
		c3.2-11.3,8.4-22.4,3.8-35.3c-3.4-0.5-6.6-1.7-9.6-1.2c-20.3,3.5-40.5,7.3-60.8,11c-5.1,0.9-10.2,1.6-14.7,2.3
		c-9.3-15.6-9.3-16.4-0.8-25.9c2.6,5.2,5.3,10.3,8.4,16.4c6.9-0.4,13.5-0.1,19.7-1.5c6.8-1.5,13.3-4.6,19.9-7.1
		c23.6-8.7,47.6-9,72.3-4c3.6,28.5-1,54.5-17.8,77.8c-2.2,3.1-4.8,6-6.4,9.4c-1.2,2.6-1.2,5.7-1.7,8.4c8.3,3.6,9.6-2.3,11.7-6.3
		c15.5-29.7,25.3-61,27.3-94.8c2.1-35.8,14.1-69,28.8-101.3c3-6.5,7.1-11,14.3-11.8c8.5-1,13.6-6.4,17.7-13.1
		c13.4-21.7,20.9-45.3,22.2-70.8c0.6-12.2-5-20-19.7-27.1c-11.3-5.4-20.4-2.6-29.5,6c-17.5,16.8-28.9,37.9-43.1,57.1
		c6.9,20.5,0.8,36.6-14.7,50.1c-16,13.9-31.7,28.2-50.9,38.1c-7.2,3.7-14.2,8-21.1,12.4c-15.7,10-31.7,20-42.2,35.7
		c-19.9,29.9-38.7,60.5-58,90.8c-4.1,6.4-4.5,13.4-2.4,20.5c3.5,11.8,7.3,23.6,11.3,36.5c53.2-0.8,106.5-1.7,159.6-2.5
		c4.9,15.6,2.1,31.2,2,46.7c-0.1,39.8-5.5,79.1-9.7,118.6c-3.9,36.8-12.5,72.5-22.5,108.1c-5,17.8-13.2,31.9-26.9,43.2
		c-17.2,14.2-34.5,27.7-58.2,30.7c-37,4.7-72.7-4.6-89.9-47.7c0.5-1.3,0.8-3,1.7-4.2c17.1-23.2,27.3-49.4,32.8-77.5
		c2.5-12.7,4.5-25.9,3.9-38.7c-0.7-14-4.2-27.9-7.2-41.7c-8.1-36.6-16.5-73.1-24.9-109.5c-0.7-3-3-5.7-4.5-8.5
		c-42.8-13.3-85.1-7.2-127.7-1.4c-1.6,6.9-3.3,12.1-4.1,17.4c-4.9,35-9.7,69.9-14.3,104.9c-3.3,25.3-7.3,50.4-3,76.3
		c4.6,28.1,14,53.5,31.8,75.7c8.2,10.2,16.2,20.9,26.2,29.2c20.2,16.6,25.4,36.8,19.2,61.2c-1.2,4.6-1.6,9.5-2.2,13.5
		c-16.7,4.4-32.7,7.9-48.1,12.9c-14.9,4.8-19.8,13.9-18.5,31c16,12.1,35.7,17.1,55.5,19.2c29.9,3.1,59.8,0.6,89-7.3
		c4.2-1.1,8.3-2.7,12.2-4.6c8.6-4.3,13.1-13.3,11.9-23c-1.1-9.2-6.5-14.7-15.3-16.9c-5.8-1.4-11.7-2.5-17.5-3.6
		c-12.6-2.3-25.3-4.5-37.4-6.6c-1.5-12.7-2.5-23.5-4.2-34.2c-2.2-14.3,1.6-25.7,15.8-34.1c1.5,13.9,3,27.2,4.3,39.4
		c-4.5,3.5-7.5,5.8-12.5,9.7c13.5,3.8,23.1,11,35.5,9.9c3.7-0.3,7.6,0.4,11.4,0.8c30.8,3.2,61.6,6.5,92.4,9.8c3,0.3,6,0.9,8.6,1.3
		c0.4,1.5,0.8,2.1,0.7,2.5c3.7,0.5,7.3,1.4,10.7,2.8c1-1.8,1.9-3.5,2.8-5c-2.9-9.7-9.1-9.8-15.2-9.7c-7.6,0.1-15.3,0.5-22.9,0.6
		c-8.5,0.1-16.3-2.3-23.4-8.7c27.5-1.7,54.9-3.4,83.3-5.2c6.3-18.1,5.9-39.7,22.2-54.3c22.5-1.4,44.8-3.8,66.7,9.5
		c2.7-14.6,4.4-28.6,8-42.1c3.5-13.2,2.6-27.6,10.1-40.6c26.8,25.6,48.7,54,75.5,79.4c3.2-12.2,6.6-22.5,8.7-33.1
		c4.2-21.9,15.3-37.4,36.5-45.9c9.9-4,18.8-10.3,27.6-15.3c0.5-11,0.5-20.3,1.5-29.4c3.1-27.1,4.2-54.1-0.4-81.2
		c-8.4-49.3-18.9-97.9-42.6-142.7c-7.6-14.4-13.9-29.5-21-44.2c-3-6.3-6.6-12.4-10.3-19.2c2.9-1.4,6.3-3,9.6-4.5
		c29.3-13,58.6-26,87.9-39.2C935.7,932.6,938.6,926.4,935.9,919.9z M645.8,892.8c19.8-15.3,39.7-30.4,59.1-46.2
		c7.1-5.8,13.1-13,19.3-19.9c8.4-9.3,12.6-20.3,11.8-32.9c-0.5-8,1.9-14.7,6.4-21.3c8.3-12,15.5-24.8,24-36.6
		c4.3-6,10.4-10.6,15.2-15.4c14.7,2.9,23.9,7.9,29.2,19.5c-2.5,25.6-14.9,47.9-27.8,69.9c-2.3,3.9-6.6,7.1-10.8,9.3
		c-7.1,3.7-12.5,8.8-16,15.7c-8.8,17.4-17.9,34.8-26,52.6c-4.9,10.9-7.9,22.5-7.7,34.8c0.1,4.2-1.2,8.4-1.8,12.4
		c-19.3,1.9-38,2.2-55.9,5.8c-17.3,3.5-33.9,10.6-50.3,15.9c-10.2-8.4-4.2-18.3-6.6-26.9C619.1,915,632,903.4,645.8,892.8z
		 M653.5,1057.6c2.8-11.4,10.8-19.6,17-28.9C668.5,1040.5,664.2,1050.9,653.5,1057.6z M473.8,1375.1c-17.3,11.7-26.4,26.3-25.6,47.6
		c0.4,12.4-1.7,24.9-2.1,37.4c-0.1,3.9,1.4,7.9,2.2,12.1c24.7-0.1,46.2,6.9,68.3,13.9v13.8c-10.8,8.5-22.7,12.5-36.3,12.7
		c-31.7,0.4-63-1.2-93.7-10.1c-5.6-1.6-11-3.9-16-5.7c-0.8-14.3,0.7-17.4,11.6-20.6c13.5-4,27.2-7.1,41.8-10.8
		c0.9,6.1,1.7,11.1,2.9,18.7c3-3.6,5.1-5.2,5.8-7.3c1.2-4.1,1.9-8.5,2.3-12.8c1.2-12.4,1.8-24.9,3.1-37.4c1.8-16.6-2-31.2-14-43.4
		c-8.4-8.5-16.5-17.4-24.3-26.5c-20.5-23.9-36.4-50.3-40.9-82c-1.5-10.7-2.8-21.8-1.7-32.4c5.1-49.6,13.9-98.7,23.1-147.7
		c20.7,3.8,66.3,2.8,82-2.3c-7-3.2-12.6-1.8-17.9-2.1c-5.4-0.3-10.9-0.1-16.3-0.3c-5.9-0.2-11.8-0.5-19.2-0.8
		c16.8-12.5,58.6-10.8,89,2.8c2.5,11.9,5.2,24.6,7.8,37.3c7.5,37.2,14.5,74.5,22.6,111.6c3.1,14,0.2,27.4-2,40.5
		c-2.9,16.9-9,33.4-14.9,49.7C504.2,1350.2,490.2,1364.1,473.8,1375.1z M731,1163c1.5,9.7,1.5,9.7-14.1,13.2
		C721.5,1171.9,726.1,1167.6,731,1163z M731.9,1188c1.1,0.6,2.1,1.2,3.2,1.8c-0.4,2.4,0.1,5.9-1.2,6.9c-6.2,4.9-13.2,8.2-23.8,7.1
		C718.5,1197.6,725.2,1192.8,731.9,1188z M735,1217.5c0.6,3.5,0.9,5.5,1.3,8.1c-8.2,6-16.9,10.2-27.9,9.5
		C717,1229.4,725.6,1223.7,735,1217.5z M732.6,1349.2c-13.5,7.7-28.4,11.4-42.7,16.6c-0.5-1-0.9-2-1.4-3c14.1-8.2,28.1-16.4,45-26.3
		C733,1343.4,732.8,1345.9,732.6,1349.2z M738.8,1315.2c-12.5,4.7-25.4,9.6-38.2,14.5c11.6-11.4,23.9-21.8,41.6-27.2
		C740.8,1307.4,740,1310.7,738.8,1315.2z M743.5,1281.1c-14.1,7.3-28.5,14-43.4,19.3c-0.6-1.1-1.1-2.2-1.7-3.3
		c16-10.1,31.9-20.3,49.2-31.3C749.8,1274,747.8,1278.9,743.5,1281.1z M705.1,1267.9c4.2-2.9,6.6-4.7,9.2-6.3
		c9.1-5.6,18-11.5,27.4-16.6c2.7-1.5,6.5-0.7,9.8-1C744.3,1255.9,721.5,1266.4,705.1,1267.9z"/>
	<path class="st0" d="M663.8,804.3c-3.9-9.9-10.6-17.4-20.4-22.3c-13.6-6.9-26.2-1.4-38.4,3.4c-4-5.9-4-10.8-1-16.1
		c6.7-12.1,6.2-25.3,4.6-38.3c-3.1-24.8-28.2-41.3-53.5-30.9c-25.2,10.4-35.9,28.3-32.4,55.1c0.5,3.7,3.1,8.3-3,11.4
		c-3.9-9.4-7.4-18.2-10.8-26.4c2.9-6,6.1-11.2,8-16.8c2.1-6.1,3-12.6,4.6-19.3c2.8-1.2,5.7-2.6,8.7-3.7
		c24.9-9.5,35.4-39.6,12.8-62.5c-20.8-21-54.5-26-68.9,12c-1.5,4-2.9,8.1-4.6,12.6c-15.9,2.3-28.1,10.7-37.5,23.9
		c-16.5-5.2-31.2-2.6-41.3,11.1c-5.2,7.1-8.1,16.6-9.9,25.4c-1.9,9.1-6.7,15.2-13.3,21.3c-9.3-5.2-16.4-11-21.2-20.2
		c-7.1-13.7-15.9-26.1-34.1-26c-1.9,0-3.9-1.7-5.6-2.5c-0.9-1.9-1.8-3.2-2.2-4.8c-5.6-20.2-4.5-23.5,11.9-36
		c4.8-3.7,9.3-7.8,14.7-12.4c-16.3-5-23-2.9-27.9,9.5c-2.9,7.4-4.6,15.6-5.4,23.6c-0.9,9.2-0.2,18.5-0.2,28
		c-14.7,20.8-21,44.7-24.3,70.2c-11.5-1.5-21.4-4.2-31,2.8c-9.6,7-9.6,17.4-11.1,26.7h-17.5c-0.1,2.8-0.2,5.7-0.4,8.6
		c19.7,1.6,38.3,13.7,42.4,37.4c-12.4,10-19.3,23.7-20.7,40c-10.7-2.9-20.2-4.5-28.9,5.2c1,3.4,2.2,7.4,3,9.8
		c8-1.4,14.7-3.7,21.3-3.5c8.4,0.3,15,8.8,15,16.6c-0.1,8.6-5.8,15.1-15,16.4c-3.2,0.5-6.5-0.1-9.8,0.1c-1.5,0.1-3,0.7-5,1.3
		c0.7,2.8,1.3,5.3,2,8.4c6.6-0.3,12.4-0.6,18.3-0.9c6.4-3.6,7.3-15.5,17.1-12.2c0.9,1.1,1.5,1.5,1.6,1.9
		c1.4,14.1-6.5,23.8-21.5,27.2c-4.2,0.9-9.8-1.8-13.4,4.2c11.9,4.5,22.6,5.7,33.7-0.1c13.7-7.1,13.4-20.9,16-33.5
		c5.1,0.7,9.4,1.7,13.6,1.6c4.6-0.1,9.2-1.3,15.7-2.3c-1.4,8.1-2.8,14.3-3.4,20.6c-0.6,6.2-1.3,12.9,7.9,17c0.4-6,0.6-10.7,1-15.3
		c1.2-14.2,11.6-25.9,25.1-28.3c16.7-3,27.9,2.4,33.8,18.2c2.6,6.8,2.4,14.8,3.2,22.2c0.3,2.6-0.4,5.4-0.7,8
		c6.9-5.7,8.4-13,8.1-20.5c-0.3-7.9-1.7-15.7-2.7-24.1c4.8-0.4,9.7-0.5,14.4-1.2c4.7-0.7,9.2-2.1,13.9-3.2c2.5,4.1,4.4,7.2,7,11.5
		c-17.5,6.7-19.4,20.3-17,35.3c2.9,18.2,18,21,33.3,23.9c-2.1,5.3-3.9,9.7-5.2,13.1c-7.9,1-14.6,1.9-22.8,2.9
		c5.6,19.6,10.5,37.1,15.8,55.8c36.4-0.8,72.2-1.4,108-2.4c2.8-0.1,5.5-2.8,7.7-4c3.8-16-1.7-30-5.1-45.6c2.9-5.3,6.3-11.5,9.6-17.6
		c3.7-6.6,7.6-13.2,11-20c3.1-6.2,1-10.3-7.1-12.7c-7.3,14.4-14.6,28.8-21.4,42.3c4.7,15.6,5.8,29.9,3.3,43.7
		c-9.9,7.7-21.8,8.2-29.1,4c-11.1-6.4-20.7-3.9-31-1.9c-7.4,1.4-14.8,3.4-22.2,5.2c-5.8,1.4-11.5,3.1-17.2-0.3
		c-3.6-12.1-7.2-23.9-11-36.7c5.3-0.8,10-1.5,14.7-2.2c1.2-2.1,2.8-3.8,3.4-5.8c3.3-12.1,7.9-23.3,16.7-32.9
		c3.5-3.8,3.7-11,4.2-16.8c0.3-4-1.5-8.1-2.6-13.1c24.7-4.8,46.6-12.3,50.3-40.9c6.6,1.1,12.4,2.8,18.1,2.7c6.4,0,12.7-2.1,19.2-2.4
		c3.6-0.2,7.7,0.6,10.7,2.4c10.7,6.7,12.2,17.6,3.5,27.7c-4.4,5.1-7.9,9.9-6.1,17.5c8.9,0.2,15.6-2.7,20.2-9.4
		c4.7-6.8,8.7-14.1,13.3-21.7c-9.7-5.6-16.1-13.9-18.1-22.3c4.9-10.6,9.1-18.7,12.5-27.1c2.5-6.1,6-11.1,13-10
		c9.2,1.5,18.1,4.5,19.7,15.9c1,2.3,2,4.7,3,7c5.5,4.2,8.7-0.4,12.9-3.5c-8.1-19.7-23.3-27.5-44.7-26.6c-0.2-4.3-0.4-7.7-0.5-10.7
		c7.9-3.6,14.6-6.6,21.4-9.7c13.5,27.2,36.5,28.9,56.1,20.5C665.8,849.7,672.5,826.3,663.8,804.3z M510.6,781.1
		c0.2,21.3-12.6,37.6-33.4,42.3c-17,3.9-35.6-5.3-42.3-22.7c-3-7.8-4.6-17.5-2.7-25.4c6.9-28.4,22.9-41.6,50-35.4
		C498.6,743.7,510.4,761.6,510.6,781.1z M466.7,859.9c-30.9-7.7-35.9-6.8-55.3,9.7c-5.3-4.8-10.5-9.5-15.5-14
		c0.6-13.1,6.4-23.3,14.1-33.1c11.5-2.4,22.2-1.6,32.7,4.9c6.3,3.9,13.7,6,21.2,9.2C464.8,843.4,465.7,850.9,466.7,859.9z
		 M483.8,647.3c5.8-16.8,17.9-22.2,34.6-16c23.4,8.8,30.7,30.2,18.8,49.4c-3.9,6.3-8.6,11.2-19.2,9.8c-5.3-12.1-16.6-17.6-27.2-23.7
		C480.8,661.1,479.8,658.9,483.8,647.3z M431.2,712.4c2.1-17.1,11.2-27.8,27.2-32.7c17.3-5.2,33.3-2.2,46.9,10.2
		c1.9,1.8,4.2,4.2,4.5,6.6c1.8,13.4,3.6,26.9-6.8,39.3c-18.9-11.9-37.9-12.2-56.3-1.9C430.4,729,429.4,726.9,431.2,712.4z
		 M350.8,756.4c-0.8,16.1-11.3,25.6-24.2,33.4C334.7,778.7,342.8,767.6,350.8,756.4z M342.6,730c1.2,2.5,2,4.3,3.5,7.5
		c-8.2,11.1-17,23.1-25.9,35.1c-0.8-0.6-1.7-1.1-2.5-1.7C325.6,758,333.4,745.1,342.6,730z M314.4,736c4.1-6.4,9.5-11.9,14.4-17.8
		c-3.4,15.4-17.5,23.4-23.1,40.1C302,746.1,310.7,741.9,314.4,736z M242,792.4c1.1-7.8,6.2-13,13.7-13.9c8.9-1.1,13.1,3,18.9,18.6
		c-2.4,9.3-8.1,15.1-17.8,16.8C243.2,807.7,240.4,803.7,242,792.4z M283.8,917.8c-11.7,3-24.8-1.8-30.5-12.6
		c-6.4-12.1-8.2-24.5,2.5-35.7c18.5-14.5,26.4-15.4,44-4.8C316.7,885.2,308.8,911.2,283.8,917.8z M342.8,899.7
		c1.2,2.9,1.8,6,2.8,9.4h-27.1c3.4-15.7,4.6-31.3-6.2-45.4c-10.8-14.1-24.7-20.8-42.2-19.3c-6.2-5.1-9.6-10.7-7.3-19.3
		c11.8-4.9,23.2-10.4,36.7-10.5c10.6,0,19.1,3.2,26.4,10.5c7.3,7.3,14.3,14.8,21.6,22.3c9.8-1.4,19.8-2.7,30.2-4.2
		c2.9-10.7,5.8-21.6,9-33.1c-4.3-8-8.8-16.4-13.5-24.8c-8.3-15.1-0.4-40.7,15.3-47.7c9.6-4.3,19.2-2.1,28.1,2.6
		c4.3,2.2,8,5.5,12.7,8.9c-0.9,2.9-1.9,6.2-2.9,9.5l-3.4,2c-0.8-1.9-1.3-4.1-2.5-5.8c-6.7-9.9-15-13.3-24.5-10.2
		c-12.8,4.2-22.4,26.3-17.1,39.3c6.3,15.7,21.6,21.1,37.3,13.1c1.4-0.7,2.6-1.9,5-3.8c2.3,4.8,4.4,9.3,6.7,14
		c-31,4.4-35.2,17.3-38.8,44.6c-5.4,0.7-11.1,2.2-16.7,2.1c-10.7-0.1-18.7,3.5-24.1,13.3C342.3,877.6,337.8,887.8,342.8,899.7z
		 M416.8,771.8c-1.7,14.8-9.7,20.6-24.3,17.6c-2.1-0.4-4.1-1.1-6-1.7c-7.3-8.9-6-16.6-1.5-23.9c4.5-7.3,12.1-8.4,20-7.6
		C413.7,757.1,417.8,762.6,416.8,771.8z M396.9,911.1c-16.5,12.2-31.8,11.5-41.7-1.6c-9.6-12.7-6.3-30,7.5-40.1
		c14-10.2,28.2-6.5,39.6,10C400.3,891.2,398.6,901.3,396.9,911.1z M438.6,967c-1.8,7.5-9.7,12.4-19.1,12
		c-10.3-0.5-19.3-8.5-20.3-17.9c-1-9.9,5.2-16.3,21.1-21.2C436.5,946.8,441.6,954.7,438.6,967z M443.4,939.4
		c-18.7-0.1-36.9-17.7-37.7-36.4c-0.9-19.1,17.5-38.1,37.1-38.4c19,0.8,35.7,13.8,37.2,38.1C481.1,921.8,462.4,939.5,443.4,939.4z
		 M517.1,896.9c-20.9,1.3-41.1-21.2-40.9-44.2c0.1-16.8,20.9-34.1,41.2-34.3c23.5-0.2,39,16.4,39.2,42.1
		C558.7,877.1,544.7,895.2,517.1,896.9z M563,833.1c-10.2-11.6-20.5-23.8-37.1-25.2c-5.9-9.6-4.9-18.4-0.4-27
		c4.7-9,12.1-15.1,21.9-18.2c21.2-6.6,44.2,5.9,49.8,27.1C603,811.6,591.3,826.5,563,833.1z M592.4,763.8
		c-7.2-4.7-13.4-8.7-21.4-13.9c-9.7-0.3-21.9-3.3-33,4.1c-3-23.3,3.9-39.9,18.9-45.5c12.2-4.6,30.1,0.7,38.3,11.2
		C605.4,732.9,604.8,747.5,592.4,763.8z M650.7,843.3c-8.8,9.6-27.7,11.7-39.1,4.2c-8.2-5.3-11.9-17-8.6-29.4
		c1.9-7.3,4.7-14.4,7.4-22.5c6.3-2.3,12.8-4.6,18.6-6.7c12.2,2.6,18.9,8,24.3,16.3C662.4,819.2,662,830.9,650.7,843.3z"/>
	<path class="st0" d="M597.2,517.2c0-12.4,0-21.3,0-31.9c10.1-8.2,23.7-9,37.1-6.3c11.6,2.3,17.6,12,21,22.9c1.3,4.1,2,8.4,2.3,12.7
		c0.4,5.4,2.2,9.4,7.8,11.4c6.2-3,7-7.8,4.1-13.4c-1.7-3.3-4.7-6-6.8-9.2c-7.6-12.1-11.1-24.7-4-38.5c2.5-4.8,4.2-9.9,6.6-15.8
		c11.1,0,15.2-8.3,17.9-17.5c23-6.1,26.8-24.5,30.8-45.3c-27.9,1.1-49.3,12.8-68.8,34.3c1.2-12.7,5.2-20.4,13.7-26.1
		c12.4-8.2,25.6-14.8,40.3-16.9c8.3-1.2,16.2-7.5,26.2-2.4c-2,15.4-5.4,30.3-16,44.4c3.8,3.8,7.8,7.8,12.8,12.7
		c3,13.4,3,13.4,13.9,18.9c0,5.1-0.1,11.1,0.1,16.9c0.1,2.6-0.1,6.7,1.4,7.7c7.1,4.5,6.8,11.4,4.5,17.1c-2.3,5.7-7.3,10.4-11.6,15
		c-2.9,3.1-7.7,4.8-9.9,8.3c-2.6,4.2-3.4,9.6-4.9,14.3c13.4,6.6,13.4,6.6,22.1-13.3c5.3-2.5,11.6-5.4,16.7-7.8
		c4.7,1.9,7.9,4.3,11,4.1c4.2-0.2,8.1-2.8,12.3-3.8c7.3-1.7,15-6.4,21,3.3c1.2,1.9,6.3,1,9.2,2.3c10.4,4.8,23.3,6.3,27.6,19.9
		c0.5,1.6,3.3,2.6,5.1,3.7c7.3,4.3,14.7,8.6,22.5,13.1c-5.5,4.4-10.4,8.3-18.4,14.7c4.2,1.7,6.7,2.7,10.1,4c-7,6-12.7,11-19.3,16.7
		c-0.5,3.7-1,8.4-1.5,12.3c-10.5,8.2-20.2,15.9-30.9,24.3c-7.5,0.6-17.6-6.7-24.3,5.5c-10.2-3.4-19.7-6.5-31.2-10.3
		c2.7,6.6,5.2,12.6,8.1,19.7c-10.2,8.3-6,19.6-3.3,31.4c-12.4,6.1-14.3,16.7-10.5,30.8c-5.1-1.5-9.1-1.7-11.6-3.6
		c-9.5-7.4-19.3-9.5-31-2.3c-5.1-6.4-9.8-12.4-14.7-18.7c-4.9,2.5-8,4.1-12.1,6.2c-7.1-5.8-14.6-11.9-24.1-19.7
		c-0.3-5.7-0.7-14.2-1.1-23.3c-8.2,0-15.8,0-26.5,0c-1.4,0.8-5.5,3.2-9.7,5.6c-7-17.2-1.7-35.1-5.9-52.8c6.5-10.3,15.5-16.8,29-16.3
		c8.4,0.3,16.3-1.2,20-10.5c-2.8-6.4-7.4-9.5-14.1-9.2c-14.6,0.7-26.2-5.8-36.3-14.6C601.1,532.2,598.7,522.9,597.2,517.2z
		 M638.1,605.7c7.2-5.7,14.4-11.4,21.5-17.3c6.4-5.3,13.3-7,22.3-3.9c1.9,8.4,3.8,17.1,5.7,25.5c-9.9,7.9-17.5,15.8-20.3,29.9
		c8.6-8,12.1-18.9,24.2-17.4c9.3,12.5-7.2,22.8-3.4,34.9c4-4.7,7.8-9.1,11.6-13.5c10.9,8.2,11.9,22.1,22.2,29.4
		c-0.6-5.4-2.5-10.1-4.1-15c-0.2-0.7,0.7-1.8,1-2.4c3.3,0.3,6.5,0.7,9.7,1c0.3-0.8,0.5-1.7,0.8-2.5c-5.6-3-11.2-5.9-17.8-9.5
		c-2.3-5.3-5-11.6-7.6-17.7c11.4-6.1,18.9,4.1,29.2,5.6c-8.3-12.4-19.7-14.8-32.4-14.2c-3.8-15.4-7.3-30-10.7-43.8
		c-20.5-6.3-31.6,6.8-42.6,16.8c-5.8-0.7-10.5-1.4-15.3-1.6c-1.5-0.1-3,1-7.5,2.6c8.2,2.3,11.7,3.3,15.3,4.3c-0.5,3.2-1,6.2-1.4,9.2
		c-6.1,1-12.2,2-18.2,3c0,0.7,0.1,1.4,0.1,2.1c3.4,1,6.9,2,10.9,3.2C633.7,611.5,635.9,608.6,638.1,605.7z M756.7,600.9
		c22.7,13.8,61.8,11,67.9-5.8c0-3.6,0-7.9,0-12.5c5-2.4,9.8-4.7,11.1-5.4c4.6-9.8,7.8-16.4,11.3-23.8c-12.5-5.7-24.1-11-35.1-16
		c0.5-4.3,0.7-6.8,1-9.6c-12.6-3.5-24.7-7-39.4-11.1c-2,1.1-6.6,4.3-11.6,5.9c-4.9,1.5-10.3,1.4-16.1,2
		c-7.1,11.9-20.6,20.3-20.5,36.9c8.3,2.6,11.7-2.1,15.6-6.9c9.5-11.8,9.6-11.7,18.5-15.9c-3,6.8-5.8,13.1-9,20.3
		c4,0.3,7.1,0.6,9.4,0.8c10-7.1,15.7-18.1,29.1-23.1c-6,9.1-14.4,13.6-15.4,24.9c8.9,0.9,17.4,1.8,27.6,2.9
		c-3.8,1.5-5.8,2.3-8.2,3.3c3,4.7,5.8,9.2,8.6,13.7c-0.7,0.7-1.4,1.3-2.1,2c-6.6-4.4-13.2-8.9-20.1-13.6c-5.4,0.4-11.5-1.2-17.2,3.9
		c3.9,8.3,7.7,16.3,12.5,26.5c-12.9-6.4-18.4-17-25.8-26.9c-3,0.7-5.8,1.4-9,2.2C745.5,584.3,750.9,592.3,756.7,600.9z M689.5,478.6
		c-3.3-3.9-5.5-6.3-8.2-9.5c0.3,18.7,0.3,18.7-3.7,24.6c-2.2-2.5-4.4-4.9-6.4-7.4c-1.8-2.2-3.3-4.5-5.8-7.9
		c-1.1,16.8,0.1,20.1,11.9,33.5c12.1,13.8,13.7,30.6,4.4,47.7c-5.5,1.7-9.3-0.7-12.5-5c-3.3-4.3-6.6-8.7-10.6-12.3
		c-5.8-5.3-10-10.9-11.4-19.1c-1.1-6.6-4.6-12.8-7-19.2c-0.6,0.2-1.2,0.4-1.9,0.5c0.5,5.8,0.9,11.7,1.4,17.5
		c-4.7-3.8-8.1-8.4-10.5-13.4c-2.3-4.8-3.5-10.1-5.1-15.2c-1.8,3.2-1.2,6.3-2.4,8.5c-1.2,2.2-4.2,3.3-6.4,4.9
		c3.1,4.8,5.6,8.7,8.5,13.1c-5.3,1-9.3,1.7-14.6,2.7c6.5,7.5,14.5,2.6,21.7,5.9c1.4,1.8,3.4,4.4,6.2,7.9c-3.8,0.3-6,0.4-8.1,0.7
		c-1.7,0.2-3.3,0.7-4.9,1.1c-0.4,1.1-0.7,2.2-1.1,3.3c21.3-1.1,35.1,10.6,46.9,25.8c7.8-0.8,15.1-1.5,23-2.2c0-15.8,0-29.8,0-43.9
		c14.8-11.9,14.8-11.9,19.7-22.2c-6.8,3.1-13.2,6-20.1,9.1c-1-16.9,17.4-23.4,16.3-39.2c-3.9,4.3-7.2,7.9-12.6,13.9
		c0-10.7,0-17.9,0-28.3C693.6,464.2,691.7,470.7,689.5,478.6z M705.1,562.9c10.6-2.2,10.6-2.2,11.9-14.9c-2.9-6.3-5.1-11.6-7.8-16.6
		c-1-1.8-3.5-2.9-6.8-5.3C699.7,540.1,697.6,551.9,705.1,562.9z M721.4,595.5c-2.9,8-2,13.1,4,15.6c3,1.2,7,0.2,12.4,0.2
		c-0.8-5.8-1.4-10.2-2.1-15.1C730.2,595.9,726.1,595.7,721.4,595.5z M662.6,617.5c6.2-3.3,7.7-8,6.6-16.2
		C663.4,606.6,659.8,610.5,662.6,617.5z"/>
	<path class="st0" d="M673.7,1503.8c-18.5-22.7-23.5-48.5-18-76.3c2.8-14.2,8.5-27,22.5-35.5c11.6,1.8,24.1,2.7,36,5.9
		c14.8,4,28.1,12,38.2,23.8c11.3,13.1,13.3,34.8,3.9,53.4c-0.1-8.9-0.4-14.5-0.3-20c0.2-13.4-4.8-24.3-15.4-32.6
		c-13.5-10.6-28.2-17.4-46.1-17.6c0.8,15.8,13.8,28.6,6.9,47c-4.1-6.6-7.1-12-10.6-17c-3.6-5.2-7.8-10-13.2-16.8
		c-2.9,5.9-5.8,9.3-6.3,13.2c-2.3,16.1-5.2,32.5-0.4,48.6c2.2,7.1,5.6,14.1,9.8,20.3c5,7.2,7.4,6.9,18.2,1.2
		c-2.3-7.2-8.4-14.7-2.8-22.5c4-5.6,8.4-11.9,14.2-15.1c10.4-5.9,20.5,0.3,30.5,16.6c30.8-10.2,44.2,0.1,48.8,37.6
		c25-10.8,41.1-44,36.5-77.3c-8,9.9-14.5,20.7-28.6,25.3c2.6-12.8,12.3-20.1,16.2-31.3c-11.2-2.7-22.1-1.6-33.6,0.7
		c-3.8,12.4,1.4,27.4-11.1,37.9c-6-9,1.6-16.4,0.1-24.3c-1.4-7.3-0.3-15.2-0.3-22.5c19.3-12.2,50.4-14.2,70.3-4.8
		c0.6,0.9,1.5,1.7,1.7,2.7c5,18.2,5.8,36.8,0.7,54.7c-7.7,27.2-21.8,43.4-60.5,48.1c14.8,6.8,27.8,12.8,43.3,20
		c-10.7,7.7-19.2-2.6-25.6,1.6c-5.2,9.9-9.9,18.8-14.5,27.7c18.7,4.3,32-0.7,60.6-17.6c-0.3-15.9-6.7-28.9-19.5-39.4
		c4.8-6.2,10.1-5,15.6-1.4c16.8,10.9,24,26.3,22.1,48.7c-25.8,16.6-54.1,24.7-87.1,18.6c-6,0.9-7,7.2-8.9,12.9
		c-6.5,19.7-17.8,36-34.1,48.8c-6.8,5.4-13.9,10.7-22.3,9.6c-20.9-8.5-25.3-27-31-44.5c-3.2-9.9-5-20,0.4-28.9
		c11.3-2.6,21.6-5,33.7-7.8c3,5.4,7.2,12.8,11.3,20.1c-2,13.9-3.9,27.7-6.2,44.2c12.3-4.7,18.3-12.7,24.3-20.5
		c6-7.8,10.2-16.3,11.9-26.2c-15.7,1.1-15.7,1.1-31.8-9.9c-1.6-8.1-3.4-17.5-5.2-26.9c-28.8-5.5-33.5-15.7-35.2-36.5
		c-8.4-5.5-16.9-11.2-27-17.8c-17.1,9.1-34.6,18.8-40,41.7c10.2,0.7,17.7-9.2,28.2-5.2c-3.7,10.5-15.4,8.1-20.6,14.5
		c9.1,7.2,19.5,9.2,30.7,9c8.1-0.1,16.2,1.3,24.3,2c11.3,0.9,22.9,3.5,33.8-5.3c-0.5,2.2-0.1,5.5-1.5,6.6c-4.7,3.5-9.8,8.4-15,8.9
		c-18.8,1.5-37.6,6.3-56.6,1c-5.3-1.5-10-2.9-14.6-6.1c-8-5.5-16.7-10-25.8-15.3c6.6-20.2,17.7-37.5,28.6-54.7
		c5.1-8,14.6-10.8,24.2-13.2c6,6.8,12,13.5,17.9,20.2C671,1505.2,672.3,1504.5,673.7,1503.8z M730.1,1536.2
		c-8-7.2-8.9-15.2-5.4-25.2c3.1-1.3,7-2.8,11.6-4.7c4.2,3.7,9.9,6.4,11.5,10.7c2.4,6.4,7.2,7.3,11.3,6c4.7-1.5,9.8-5,12.4-9.1
		c4-6.5,0.6-17.2-5.4-22c-8.1-6.7-16.4-7.7-23.9-2.3c-2.9,2.1-4.9,5.5-9,10.4c-2.9-6.9-5-11.5-6.7-16.2c-1.6-4.5-4.3-7.4-9.3-7.8
		c-4.9-0.4-8.5,1.4-10.5,5.9c-1.1,2.4-1.9,5-3.3,8.9c6.1,5.4,12.2,10.7,20.2,17.8c-5.4,0-8.1-0.1-10.7,0c-2.7,0.1-5.3,0.5-7.5,0.8
		c-10.1,12.6-10.4,21.5-1.4,30.4C711.4,1547.2,719.1,1546.5,730.1,1536.2z M729,1570.7c5.5,8.9,11.1,12.6,18,10.4
		c14-4.6,27.2-11.1,37.1-22.3c7.9-9,5.2-19.4-6-23.4c-8.9-3.1-18.4-4.5-28.4-6.9c-0.5,12.3,11.8,19.6,7.8,33.3
		c-7.8-8.9-14.3-16.4-22.9-26.3C732.3,1549.7,730.6,1560.6,729,1570.7z M709.7,1587.2c-8.1,1.8-14.5,2.8-20.6,4.7
		c-1.6,0.5-2.4,3.5-4.1,6.1c9.8,5.1,16.5-2.5,24.7-1.4C709.7,1593.3,709.7,1591.4,709.7,1587.2z M716.9,1602
		c-10.2-1.4-18.4,0.7-26.5,6.2C699.9,1613.9,706.6,1612.3,716.9,1602z M698.4,1622.7c6.7,2.6,12.5,1.8,18.6-3.9
		C708.8,1615.5,703.8,1620.1,698.4,1622.7z"/>
	<path class="st0" d="M871.7,1339.3c1.3-2,2.6-4,4-5.9c-0.8-0.7-1.5-1.5-2.2-2.3c3.2-2.1,6.4-4.2,9.5-6.3
		c5.6-5.9,11.9-11.1,18.8-15.4c-0.2-0.3-0.4-0.6-0.6-1c-17.9,2.9-29.6,18.6-46.6,23.1c-5,22.2-8.8,43.2-9,64.9
		c9.4-19.2,7-41.8,16.3-61.3C865.1,1336.7,868.4,1338.1,871.7,1339.3z"/>
	<path class="st0" d="M913.6,1232.6c-1.8,21.1-1.9,42.4-2.9,63.6c-0.1,2.9,0,5.6,1.1,7.7c2.8-1.3,5.6-2.5,8.5-3.5
		c0.5-2.9,0-5.9,0-8.7c0.3-15.8,0-31.6,0.2-47.4c0-0.1,0-0.3,0-0.4c-0.5-4.3-0.9-8.6-1.1-13c-0.3-7,0-13.9,0.7-20.8
		c-0.6-7.8,0-15.6-0.3-23.3c-1.1-23.5-4.9-46.5-13.8-68.3c-8.4-20.6-17.2-41-25.6-61.7c-1.8-4.4-3.8-9.7-3.1-14
		c2.7-15.4,6.6-30.6,9.7-44.3c14.5-7.7,28.6-10.2,43.3-9.6c1.1-1.8,2.1-3.6,3.3-5.2c-17.2-0.2-34.4,1.4-51.7,6.7
		c-3.4,12.5-6.6,24.3-9.8,36.2c-1.5-0.8-3-1.1-3.3-1.9c-3.7-9.5-7.3-19.1-11-29.2c2.5-2,4.5-3.9,6.7-5.2
		c24.3-14.6,48.6-28.9,72.8-43.7c5.9-3.6,11.7-7.9,16.5-12.9c6.4-6.6,6.4-14.5,2.4-22.7c-3.8-7.7-9.7-11.3-18.3-11.1
		c-5.8,0.1-11.6-0.3-17.3-0.4c-1.4-29.6-1.4-29.6-16.5-40.2c22.2-18.5,21.9-39.6-1.2-65.8c1.7-10.4,3.5-21.1,5.3-31.8
		c1.5-8.5-0.2-16.5-5.2-23.3c-5.1-7-10.9-13.6-16.7-20c-8.7-9.7-19-14.2-32.1-8.8c-2.3,0.9-5.1,0.5-9.5,0.8c0-7.8,0.1-14.8,0-21.7
		c-0.2-12.8-5.8-22.8-15.3-31.2c-10.3-9.1-22.6-12.4-38.2-12.8c11.3-7.6,23-3.8,31.7-7.3c1.9-5.7,2.9-10.5,5.1-14.7
		c2.3-4.4,5.7-8.2,8.6-12.3c-10.7,4.6-21.8,8.1-22.5,20.6c-15.7,2-30.1,3.7-43.9,5.5c-9.3,11.3-16.5,22.6-13.8,37.5
		c0.1,0.6,1.1,1,1.9,1.7c2.5-4.4,4.9-8.6,7.6-13.1c5.7-1.6,11.4-3.3,17.2-4.7c30.3-7.5,55.5,10.9,57.9,42.2c0.4,5.3,0.6,10.6,1,16.9
		c4.8-0.6,8.4-1.3,12-1.4c3.7-0.2,8-1,11,0.6c16.6,8.5,28.7,21.4,34.4,39.4c3.2,10,3.7,20.2-2.1,29.9c-1,1.7-0.9,4.1-1.1,5.3
		c15.5,24.3,21.1,47.5-1.2,70.9c16.8,11.7,18.5,26.7,10.6,46.6c5.6,0.4,9.1,0.9,12.5,0.7c4.8-0.4,9.6-2,14.5-1.9
		c12.8,0.2,19.3,10.3,15,22.5c-2.1,6-6.1,9.8-11.8,12.8c-21.7,11.2-43.3,22.8-64.9,34.3c-5.8,3.1-11.6,6.1-17.2,9.4
		c-5.3,3.2-7.3,7.9-5,14c1,2.5,2.1,5,3.3,7.5c17,35.2,32.1,71.2,43.4,108.7C906.9,1154,916.9,1192.1,913.6,1232.6z M773.3,651.6
		c3.6-7.7,8.8-5.3,14.8-5.4C782.7,648.2,778.6,649.7,773.3,651.6z"/>
	<path class="st0" d="M523.1,365.9c2.5,3.3,5,6.6,7.5,9.9c4.4-16.2,8.3-31.3,12.7-46.2c1.7-5.7,4.3-11.2,7.3-16.3
		c2.7-4.6,6.3-9.1,13.8-7.5c-0.7,7.3-0.8,14.8-2.1,22c-7.1,42.2-0.6,83,11.5,123.6c7.9,26.4,16.4,53,15.6,81.1
		c-0.1,2.6-0.8,5.1-1.7,10.3c-11.4-9.1-20.9-17.8-31.5-24.9c-10.7-7.2-22.5-13-36.4-20.8c4.9,17.4,7.8,32.5,19.8,46.4
		c-9.9-1.7-15.2-7.4-18.5-13.6c-6.1-11.4-11-23.5-15.8-35.6c-2-5-1.4-5.3,5.1-12.3c23,7.8,44,19.9,65.9,36c-1-10-1.7-17.3-2.3-22.7
		c-7.5-7.1-13.2-12.6-19.9-19c-17.8-6.8-36.6-15.9-56.3-21.2c-28.6-7.8-57.8-16.3-87.8-4.9c-1.5,0.6-3.1,0.8-4.7,1.1
		c-0.4,0.1-0.9-0.4-2.5-1.2c0.4-15.8,18.9-13.7,24.6-24.4c-5.7-9.7-11.7-19.9-17.7-30.1c17.8-7.4,35.4-5.3,54.6-1.5
		c-6.8-19.2-12.7-36.5-9.1-55.5c19.7-4.4,34,6.2,48.9,14.7c4.1,2.3,8.3,4.6,12.4,6.9C518.9,362,521,363.9,523.1,365.9z M530.1,453.3
		c-14.7-22.5-32.4-42.8-39.9-72.3c11,10.7,19.6,18.5,25.6,29.2c12,21.4,29.1,38.6,47,55.3c8.8-5.9,4-12.5,2-17.9
		c-8.4-23.2-12-47.1-12-71.7c0-6.9,0-13.9,0-24.3c-9.7,17.4-10.6,33.2-10.8,50.4c-27.1-33.9-55.3-52.2-76.7-49.6
		c-4,26.4,5.9,49.8,17.9,72.8c-13.8,3.9-28.1-3.4-41.7,7C471.6,439.4,500.2,446.2,530.1,453.3z"/>
	<path class="st0" d="M913,673c-13.6,6.9-25.7,5.2-37.6,0.5c-7.6-27-3.1-52.9-0.5-78.7c0.6-6.5,2-12.9,2.2-19.4
		c0.4-16.9,0.2-33.8,0.5-50.6c1-59.9,2-119.8,3.2-179.6c0.1-6.4,1.9-114.7,2.8-120.8c7.1-3.6,11.1,0.3,16.5,3.7
		c1,9.4,2.2,121.1,3,130.8c4.8,54.9,2.7,109.9,3.3,164.9c0.2,14.6,2,29.3,4.3,43.7c3,18.5,2.6,36.6,0.3,55.2
		c-1.5,12.2,0.3,24.8,0.8,37.2C911.9,663.6,912.5,667.3,913,673z M884.7,664.1c1.2,0.1,2.5,0.2,3.7,0.2c0.3-2.8,1.2-5.6,0.9-8.3
		c-0.5-4.8-2.7-9.6-2.5-14.3c1.2-31,2.9-61.9,4.3-92.8c0.7-16.3,1.7-32.6,1.4-48.8c-0.5-29.9-2.6-59.8-2.7-89.6
		c-0.1-21.7,2.1-43.4,3-65.2c0.2-4.8,2.1-112.8-5.7-116c-1,15.5-2.7,132.1-2.8,146.6c-0.5,64.8-0.5,129.6-0.9,194.3
		c-0.1,11.9-1.3,23.8-2.3,35.7C879.6,625.7,881.6,644.9,884.7,664.1z"/>
	<path class="st0" d="M877.7,797.4c4.8,3.8,8.9,6.5,12.3,9.9c11.5,11.4,12,25.9,1,37.7c-5.1,5.5-11.4,9.9-17.1,14.8
		c10.7,26,3.5,48.8-17.6,56c-25.9,8.8-43.7-1.9-50-30c-26,4.1-34.6,1.7-47.8-14.5c2.6-6.6,5.4-13.9,8.7-22.2
		c4.9,19,13.1,27.6,26.1,28.3c9.9,0.6,21.9-6.6,24.5-15.8c4.8-17.1-4.3-27.7-21.9-36c13.5-1.9,17,7.5,24.5,11.6c0-4.3,0-8.2,0-12
		c-5.2-2.8-10.4-5.6-15.8-8.6c3.5-8.7,6.9-16.6,9.8-24.7c2.9-8.1,5.1-16.3,7.8-25c8.2,8.2,7.1,17.4,6,27.8c8-13.6,8.9-19.3,0.6-31.2
		c-6.8-9.9-3.3-17.7,2-25.3c6.1-8.7,14-15.9,25.8-14c21,3.2,35.8,20.8,36.3,42C893.4,778.7,887.3,788.1,877.7,797.4z M814.1,878.5
		c3.1,13.1,7.9,23.5,21.9,26.2c10.9,2.1,20.7-1.1,27.7-9.6c7.8-9.5,7-19.8-0.3-31c-12.2,2.3-23.3-1.3-33.4-10.7
		C824.6,862,819.7,869.7,814.1,878.5z M831.3,826.1c7,20.1,15.7,27.8,29,26.6c12.5-1.2,22.4-10.8,23.5-22.8
		c1.5-16.2-3.9-23.5-21-29.2c-7.8,2.4-15.5,4.8-23.5,7.2C836.7,813.8,834.1,819.6,831.3,826.1z M832.7,756.4
		c19.4-14.9,25.9-13.9,37.1,6.1c-10.6-7-20.4-9.4-30.5-0.9c2,4.5,3.9,9,5.9,13.5c16.4-6,20.6,5.7,24.6,18.4
		c13.6-13.2,11.7-25.7,5.3-39.8c-3.9-8.6-9.4-13.1-18-14c-9.8-1.1-18.4,1.7-24.2,10.2C832,751.3,832.7,753.7,832.7,756.4z"/>
	<path class="st0" d="M426.4,645.7c-3.2-2.6-4.9-3.9-6.4-5.1c1.1-16.2,8.4-29.3,18.9-41.4c-17.4-7.8-34-15.3-51.8-23.3
		c12.6-18.2,20-39,43.7-46c-11.8-15.3-16.6-32.1-17.4-50c-0.2-5.2,1-11,6.9-13.8c5.4-0.3,7.3,3.5,9.3,7.5
		c13.2,26.9,33.3,46.6,60.7,59.1c11.8,5.4,23,12,34.7,17.6c13,6.3,27.1,7.2,41.3,6.5c6.5-0.3,13.1-0.6,19.6-0.1
		c5.1,0.4,10.2,2.1,15.7,3.3c0,5.6,0,9.8,0,16c-3.3,1-7,2.8-11,3.4c-17.5,2.5-35.3,3.2-52.5,7.1c-34.8,7.9-67.5,20.6-93.6,46.4
		C439.5,637.8,433,641.1,426.4,645.7z M574.5,568.5c-19.8-4.8-36.2-7.9-52.1-12.9c-32.3-10.1-63.3-22.8-85.7-53.6
		c-8.3,14.8,4.2,23.8,6.4,34.9c-18.9,4.6-34,14.1-46.2,33.6c16.2,2.7,26.1,17.7,46.1,15.3c-9.5-7.5-16.9-13.3-25.1-19.7
		c12.1-14.2,23.3-26.2,41.7-28.6c-8.5,8-16.6,15.5-24.7,23.1c14.9,13.3,31.9,14.2,48.6,15.7C513.1,579.1,541.7,570.9,574.5,568.5z
		 M429.2,630.6c0.9,0.9,1.9,1.7,2.8,2.6c6.1-6.5,12.1-13.2,18.4-19.5c6.6-6.6,13.6-12.8,21.2-19.9c-6.7-1.7-11.9-2.9-18-4.4
		c-8.1,12.3-16.2,24.4-24,36.7C428.9,627.3,429.3,629.1,429.2,630.6z"/>
	<path class="st0" d="M819.7,510.5c-6.6-2.3-7.4-7.7-7.6-13.3c-0.2-7.6-0.1-15.3-0.3-22.9c-0.8-46.3-2.1-92.6-2.4-138.9
		c-0.1-22.3,2.2-146.6,2-168.9c-0.2-18.4-2.5-36.8-4-55.3c-0.1-0.8-1.3-1.6-3.3-3.8c-0.9,3.6-2.1,6.2-2.2,8.9
		c-1.1,39.2-3,180.4-2.8,219.6c0.2,27.1,3.4,54.2,5,81.4c1.5,25.5,2.6,51-3.9,76.6c-7.7,0.3-7.7-4.8-7.5-9.6
		c0.6-11.9,2.3-23.9,2.1-35.8c-0.6-30.5-3.2-61-2.6-91.4c0.9-47.9,3.8-197.7,5.7-245.6c0.3-6.9,1.8-12.9,8.5-16.3
		c12.3,4.4,14.6,8.5,13.9,23.2c-0.9,20.7-1.4,41.3-2.4,62c-1,21.9,1.7,145.4,5.5,166.9c1,5.9,1.1,11.9,1.2,17.9
		c0.3,28.3,0.3,56.7,0.8,85c0.2,15.2,1.2,30.5,1.6,45.7C827.2,502.1,826.8,508.1,819.7,510.5z"/>
	<path class="st0" d="M572.9,677c5.2,1.4,10.2,3,15.4,4c22.2,4.2,36.6,20.2,40.9,42.4c2.6,13.2,1,25.5-2.4,37.4
		c11.1,0.9,22,1.7,33.8,2.6c2.6-25.4,20-38.1,44.8-44.5c-1.6-5.9-3.1-11.7-5.3-20c12.3,6.5,11.5,15.9,13.1,23.5
		c-11.9,8.2-25,14.1-33.4,24c-7.9,9.2-10.9,22.7-16.6,35.6c-3.1-3.7-5.9-7.1-9.1-11c-12-6-24.6-1.2-38.5,0.9c0.5-3.6,1.1-6,1.2-8.5
		c0.5-11.3,2.7-23,0.9-33.9c-4.6-28.3-24.9-43.4-52.6-42.5c-5.3-21.5,6.2-39,30.8-45.1c2.1,2.6,4.6,5.6,7.6,9.4
		C592.4,659.8,577.4,661.5,572.9,677z"/>
	<path class="st0" d="M720.3,765.8c-1.7,13.3-3.5,26.5-5.6,42.8c-3.8,4.1-9.6,10.4-15.2,16.4c-22.1-6.2-33-30.4-24.6-55.7
		c8.8-26.4,28.9-39,61.6-28.7c-6.4,8.4-6.6,20-16.8,25.8c-1.1-5.5-2.2-11.1-3.5-17.1c-5.3,0.5-8.9,0.9-11.9,1.2
		c-2.7,5-5,9.1-7.8,14.2c3.6,2.9,6.8,5.4,9.8,7.7C711.6,769.9,716,767.8,720.3,765.8z M688.5,786c6.5-3.1,6.6-6.1,2.1-10.7
		c-2.2,1.8-4,3.4-7.1,6C685.7,783.3,687.1,784.7,688.5,786z"/>
	<path class="st0" d="M826.3,727c-4.5-3.7-9-7.4-13.9-11.4c2.9-1.1,5.2-2,8-3.1c3.5-8.8-0.7-14-8.2-17.7c-8.3,5.7-8.3,5.7-5,18.3
		c-11.2-3.5-21.2-11.7-33.9-5.9c3.9-19.9,10.5-23.7,39-23.2c-9-8.8-12.9-10.1-22.6-6.1c-11.8,4.8-20.3,12.9-20.6,26.4
		c-0.2,6.9-2.9,11.3-8.5,14.6c-3.9-6.3-5.4-12.3-2.6-19.9c4.3-12,9.2-23.4,19.7-31c13.1-9.7,33.9-5.2,48.1,9.7
		C837.6,689.9,837.9,710.4,826.3,727z"/>
	<path class="st0" d="M841.2,1268.9c-9.3,7.8-17.6,14.7-25.7,21.5c-1.4,12.3-2.7,24.1-4.2,35.8c-0.7,5.3-0.8,5.3-9.6,10.1
		c-8.1-11.6-14.5-23.5-12.6-39.4c12.6-10.3,25.6-20.9,39.3-32.2c-0.8-39.3-9.6-78-12.8-117.3
		C828.3,1186.7,839.3,1226.2,841.2,1268.9z"/>
	<path class="st0" d="M621.9,442.4c-5.5,9.7-11.1,19.3-16.5,29.1c-4.5,8.2-10.9,8.2-18.9-0.7c2.3-2.7,4.3-6,7.1-8.2
		c14.3-10.5,19.7-25.6,21.1-42.2c1.7-18.9,2.5-37.8,3.3-56.7c0.2-4.8-1.3-9.6-1.7-14.4c-0.3-3.6-0.1-7.2,2.4-11.7
		c1.3,1.9,3,3.5,3.7,5.6c5.8,16.9,12.3,33.6,16.8,50.8c5.5,20.7,2.1,39.7-16.4,54.7c-0.6-2.6-1-4.6-1.4-6.7
		c10-15.6,12.4-31.6,6.2-53.3C625.8,406.6,623.8,424.5,621.9,442.4z"/>
	<path class="st0" d="M306.7,1380.1c2.4-2.4,4.4-5.3,7.3-7.1c18.1-11,37.1-19.8,58-21.4c5.4,5.1,10.6,9.2,14.6,14.1
		c4,4.8,9,9.3,9.8,17.2c-3.8,0.8-6.7,1.9-9.7,2.1c-21.1,0.9-42.1,1.9-63.2,2.3c-5.1,0.1-10.3-2-15.4-3.1
		C307.6,1382.8,307.2,1381.5,306.7,1380.1z"/>
	<path class="st0" d="M904.2,694.7c3.9,0,7.7,0.5,11.3,1.5c-0.1-0.7-0.1-1.3-0.2-2l28.5-6.3c5.6-3.8,6.7-11.6,4-17.6
		c-2.4-5.2-8.2-8.4-15-7.2c-3.4,0.6-6.5,2.7-10.6,4.5c4.1,3.2,7,5.4,11.9,9.2c-13.5,1.7-24.3,2.5-34.9,4.6
		c-10.6,2.2-22.2,0.3-35,8.2c13.2,2.1,23.3,3.7,34.3,5.4C900.4,694.8,902.3,694.7,904.2,694.7z"/>
	<path class="st0" d="M264.2,747.7c-19.7,9.3-42.4,14.5-46.7,40.7c-1.5,0.3-2.8,0.7-4,0.9c0,0.4,0.1,0.8,0.1,1.1
		c0.1,1.8,0,3.6,0.1,5.4c3.7,0,7.5-0.5,11.4-1.4c6.5-23.5,21.9-34.2,44.5-32.6c3.8-16.4,7.4-31.4,10.9-46.5
		C271.3,723,271.3,723,264.2,747.7z"/>
	<path class="st0" d="M838.4,1513c20.8-33.7,11.1-66,8.4-97.5c-16.9-8.9-54.6-8-82,1.8c-3-3.8-6.4-8-10-12.6c2.6,0.3,5.8,0.8,9,1.1
		c3.1,0.4,6.4,1.4,9.4,0.8c19.2-3.8,38.4-6,57.8-2.4c6.8,1.2,13.6,3,21.4,4.7c4.3,30.3,10.2,59.5,1.4,89.2
		C852.2,1504,850.3,1510.4,838.4,1513z"/>
	<path class="st0" d="M802.9,1.1c9-3.2,13,1.3,13.7,6.8c3.2,25,9.6,50.1-1.3,75c0.6-10,2.3-20.1,1.6-29.9
		c-0.7-9.5-3.9-18.9-8.3-28.4c-2.1,15.6-4.6,31.2-6.2,46.9c-0.4,3.9,1.7,8.1,1.8,12.5c-6.3-6.3-13-12.8-12-22.3
		C794.3,41.2,795.9,20.7,802.9,1.1z"/>
	<path class="st0" d="M733.4,190.8c4.3-20.2,2.6-39.7-5.7-60.2c-4.1,21.3-8,41.1-4.7,63.6c-7.3-9.1-13.8-16.5-12.5-26.9
		c2.5-19.2,5.8-38.3,8.8-57.8c4.1-0.7,7.8-2.4,8.8-1.4c3.2,3.2,6.9,7.2,7.6,11.4c2,11.7,2.9,23.6,3.6,35.5
		C740.1,167.2,741.1,179.5,733.4,190.8z"/>
	<path class="st0" d="M747.4,914.3c-0.2-12.8,3.6-18,15-20.2c15.2-3,33.5,7.6,39.2,22.6c6.4,17,1.4,30.3-14.9,39.8
		c-16.2,9.4-28.4,8.6-43.5-3c0-5,0-10.3,0-18.3c4.8,5.1,8.1,8.2,11,11.7c6.9,8.4,23.9,7.8,33.1,1.4c9.4-6.7,12.7-19.4,7.8-30.4
		c-5.5-12.6-23.2-18.5-36.1-11.7C754.8,908.2,751.2,911.5,747.4,914.3z"/>
	<path class="st0" d="M724.6,202.4c11.8,2.9,14.1,9.7,14,16.9c-0.7,33.6-1.8,169.2-2.9,202.8c0,0.9-1.2,1.7-2,2.7
		c-5.2,0.2-6-3.2-5.8-7.3c0.7-16.2,2.2-32.5,1.9-48.7c-0.4-16.6-2.5-135.2-5.4-151.8c-8.2,11.6-1.4,127.5-7.1,141.9
		c-1.8-3.8-3.5-5.8-3.4-7.7c0.7-11.4,1.2-124.8,3.1-136C717.7,210.7,721.9,206.7,724.6,202.4z"/>
	<path class="st0" d="M510,613.4c11.1-8.3,23.2-8.9,32.7,0.1c8,7.6,13.6,17.6,20.1,26.4c6.3-3.4,13.3-7.2,21-11.4
		c0-6.3,0-13.6,0-21.2c-4.4-5.1-12.7-7.5-14.3-19.7c9.1,6.7,15.6,11.5,21.8,16c0,11.7,0,22.3,0,34c-4.3,0.5-9,1-13.7,1.6
		c-5.8,4.5-11.6,9-17.7,13.8c-5.6-8.6-10.3-15.7-14.9-22.9c-5.9-9.4-13.8-15.1-25.5-14.5C516.8,615.6,513.9,614.3,510,613.4z"/>
	<path class="st0" d="M887.6,214.6c-18.7-22.5-18.9-44.5-11.9-67.7c2.4-7.9,1.9-17.7,12.5-19.8c6.3,2.6,7.6,7.3,8.4,12.2
		c3.3,20.4,6.9,40.8-2.4,61c1.4-17.5,5.1-35.2-6.5-53.5c-1.7,8.6-3.2,15.3-4.2,22.2c-1.1,7-2.9,14.1-2.3,21
		C881.7,197.2,884.7,204.2,887.6,214.6z"/>
	<path class="st0" d="M671.2,1593.7c-11.5,11.5-25.4,7.1-37.5,6.1c-11.4-0.9-24.7,1.1-35.2-8.2c11.1-8.5,23.7-9.9,57.3-7.7
		C662.1,1584.4,667.6,1585.6,671.2,1593.7z M630.5,1591.7c0,0.3,0,0.7,0,1c9.3,0,18.5,0,27.8,0c0-0.3,0-0.7-0.1-1
		C649,1591.7,639.7,1591.7,630.5,1591.7z"/>
	<path class="st0" d="M337.1,635.3c5,1.5,8.3,4.7,10.2,9.7c-2.3,8-8.3,12.4-14.6,16.8c-11,7.7-11.5,8.9-14.8,25
		c6.1,1.5,12.4,2.4,18.3,4.5c5.4,1.9,10.5,5.1,15.5,7.6c1.4,7.3,2.7,13.4,4,20.3c-6.1-7.1-10.4-15-17-19.1c-7-4.3-16.3-4.9-24.2-7.1
		c-6.4-10.9-2.9-20.2,3.6-27.7c5.9-6.9,13.8-12,21.4-18.4c-0.7-4-1.4-8-2.1-12.1L337.1,635.3z"/>
	<path class="st0" d="M523.1,365.9c-2.1-1.9-4.2-3.9-6.3-5.8c-10.7-13.6-5.3-28.5-5.5-44c10,1.1,11.9,9.6,18.3,12.2
		c0,12.6,0,24.4,0,37.6C527,365.9,525,365.9,523.1,365.9z M516.5,352.6c2.7,1.8,4.2,2.8,5.7,3.8c-1.1-6.5,8.2-12.7-0.8-18.5
		C519.8,342.6,518.4,347,516.5,352.6z"/>
	<path class="st0" d="M366.2,985.7c3.6,0,7.3,0,11.5,0c6.7,27.3,13.5,53.7,16.5,81c-6.3-2.9-6.6-8.3-7.7-13.3
		c-4.5-20.5-8.9-41-13.8-61.4c-0.6-2.6-4-4.5-6.1-6.7L366.2,985.7z"/>
	<path class="st0" d="M765.8,913.3c15.9-6.8,22.2-2.3,23.2,16.6c-4.3,2-8.7,4-12.5,5.8c-12.6-5.3-12.6-5.3-14.3-18.8
		C763.3,915.7,764.5,914.5,765.8,913.3z"/>
	<path class="st0" d="M379.9,1429.7c0-3.6,0-5.2,0-8.3c13.6-2.2,26.5,2.9,39.6,3.9c1.3,0.1,2.4,2.9,4.5,5.8
		C408.2,1437.2,394.7,1430.6,379.9,1429.7z"/>
	<path class="st0" d="M765.8,913.3c-1.2,1.2-2.5,2.4-3.7,3.6c-5.1,15.4,1.8,24.9,16.6,22.6c3.6-0.5,6.9-2.8,10.3-4.2
		c-0.6,10.3-8.9,11.8-16.1,12.4c-8,0.6-14.4-4.3-18.3-11.3c-3.7-6.6-2.9-13.4,1.4-19.7C758.5,913,761.7,912,765.8,913.3z"/>
	<path class="st0" d="M483.2,619.7c-5.9,11.1-11.4,21.5-17.4,32.9c-1.4-2-3.5-3.6-3.4-5c1.5-11.8,6.7-21.6,16.4-28.7
		C479.4,618.5,480.8,619.2,483.2,619.7z"/>
	<path class="st0" d="M572.8,551.4c-9.6-4.8-17.6-9.9-24.4-18.8C562.9,534,569.6,539.1,572.8,551.4z"/>
	<path class="st0" d="M582.1,911.1c-9.5,7.9-11.8,7.2-19.5-7.4c4.2,2,7.1,3.7,10.2,4.9C575.7,909.7,578.7,910.2,582.1,911.1z"/>
	<path class="st0" d="M337.4,634.9c-6-0.8-12.1-1.5-21.5-2.7c12.2-4.4,12.2-4.6,21.1,3.1L337.4,634.9z"/>
	<path class="st0" d="M598.8,880.6c1,2.3,2,4.7,3,7c-1.3,2.8-2.5,5.6-3.8,8.4C596.5,890.5,592.8,885,598.8,880.6z"/>
	<path class="st0" d="M299.8,864.6c1.3,4.1,2.7,8.1,3.8,12.2c2.1,7.6,0.8,14.1-5,24.5c0.7-13.4,1.9-25-11.6-31.3
		c-12.1-5.6-21.1,0.1-31.2,6.9c0-3.3,0-5.4,0-7.5C274.3,855,282.2,854.1,299.8,864.6z"/>
	<path class="st0" d="M509.2,1218.7c2.3,5.9,3.6,7.8,3.8,9.8c3.9,34.2-0.4,67.3-13.6,99.1c-8.2,19.8-24.1,33.5-41.4,45.2
		c-8,5.4-18.4,4.6-26.4-0.7c-9-5.9-18.1-12.6-24.7-20.8c-9.1-11.4-16-24.6-23.6-37.1c-0.9-1.5-0.5-3.8-1.1-9.5
		c10,15.3,18,27.3,25.7,39.5c5.1,8.1,12.2,13.8,20.7,17.9c11.5,5.6,23.2,5.7,34.4-0.6c22.6-12.7,34-33.1,37.5-58.1
		c3.5-25.3,8-50.5,7-76.2C507.4,1225.5,508.1,1224,509.2,1218.7z"/>
	<path class="st0" d="M404.8,1119.2c2.1,35.8-1.5,67.2-34.5,90.5c4.6-20.3,8.7-38.1,12.7-55.8c1.1,0.2,2.1,0.3,3.2,0.5
		c-0.8,8.3-1.6,16.5-2.5,24.8c0.5,0.2,1,0.4,1.5,0.7c2.4-5.8,4.9-11.4,7-17.3c2.5-7.1,4.8-14.4,6.9-21.6
		C401.1,1134.5,402.6,1127.9,404.8,1119.2z"/>
	<path class="st0" d="M439.6,789.1c22.5,29.2,48.5,26.5,63.1-5.2c3.3,9.7-1.9,15.8-6.8,21.9c-5.3,6.6-12.2,10.8-20.4,12.5
		C458,821.7,445.2,811.8,439.6,789.1z"/>
	<path class="st0" d="M534.5,832.2c18.4,13.6,20.7,33.4,7.1,48.8c-13.5,15.3-28.6,15.9-44.9,0.1c16.3,4.6,31,5.7,39.8-8.8
		C544.4,859.4,540.9,845.6,534.5,832.2z"/>
	<path class="st0" d="M466.7,686.2c13.2-5,22.5-1.8,30.2,7.2c8.6,10,9,14,3.2,25.5c-3.1-7.2-4.6-16-9.8-21.4
		C485.1,692.2,476.3,690.6,466.7,686.2z"/>
	<path class="st0" d="M593.2,730.1c-10.8,9.6-12,9.2-20-5.3c0.6-1.3,1-3,2-4.1c1.4-1.5,3.4-2.4,6.6-4.6
		C585.8,721.1,589.5,725.6,593.2,730.1z"/>
	<path class="st0" d="M571.3,722.7c-5.6,0-8.3,0-11.4,0C563.2,714.5,563.2,714.5,571.3,722.7z"/>
	<path class="st0" d="M863.9,838.1c6.3-2.6,9.3-7.6,7.9-14.1c-2.2-9.7-10.4-12.2-20.2-13.4c14.8-6.5,20.8-3.2,28.3,14.4
		c-0.8,8.5-4.5,15.3-13,18.5c-1.6,0.6-4.2-1.3-6.3-2.1C861.6,840.3,862.8,839.2,863.9,838.1z"/>
	<path class="st0" d="M863.9,838.1c-1.1,1.1-2.3,2.2-3.4,3.3c-3.1-1.4-6.1-2.7-10.5-4.7c3.6-4.6,6-7.8,8.6-11.1
		c2.2,1.5,4.3,2.1,4.6,3.2C863.8,831.8,863.7,835,863.9,838.1z"/>
</g>
</svg>
