<?xml version="1.0" encoding="utf-8"?>
<!-- Generator: Adobe Illustrator 17.1.0, SVG Export Plug-In . SVG Version: 6.00 Build 0)  -->
<!DOCTYPE svg PUBLIC "-//W3C//DTD SVG 1.1//EN" "http://www.w3.org/Graphics/SVG/1.1/DTD/svg11.dtd">
<svg version="1.1" id="Слой_1" xmlns="http://www.w3.org/2000/svg" xmlns:xlink="http://www.w3.org/1999/xlink" x="0px" y="0px"
	 viewBox="0 0 584 273.1" enable-background="new 0 0 584 273.1" xml:space="preserve">
<path id="XMLID_171_" fill="#346a7e" opacity="0.2" d="M366.5,28.6l-13.4,6c0,0-6.6,4.7-9.7,8.4c-3.1,3.7-11.1,18.5-16.9,24.5
	c-5.8,6-11.7,15.6-14.4,20c-2.7,4.5-7.8,14-10.1,19.6c-2.3,5.6-4.9,10.5-4.3,34.6c0.6,24.1,0.9,26.4,3.9,34c2.3,6,2.9,11.3,4.3,15.7
	c1.6,5.2,8.9,15,13.8,21.2c4.9,6.2,4.9,7,12.6,15.6c7.6,8.4,16.3,11.7,32.9,20c16.5,8.4,32.3,14,36.2,15.4c3.9,1.4,8,3.9,14.8,4.5
	c6.8,0.6,15.9,1.3,22.7,1c9.1-0.4,19.8-0.8,26.1-1.7c6.2-1,12.1-2.9,14.8-4.3c2.7-1.4,3.3-3.5,3.3-3.5l-12.1,2.7l-19.1,1.4l-14,0.2
	l-15.6-2.3l-17.3-6.4l-34-12.6l-20.4-14l-20.4-22l14.5-16.1l-23.9,4.1l-6.4-8.1l-1.6-7l-1-6.2l-3.9-8.9l2,4.3l1.6-19.2l1.6-16.6
	l-3.6-22.3l-0.3-3.6l11.7-13l16.6-16.6l14-17.6l5.7-7.3L381,33.8L366.5,28.6z"/>
<path id="XMLID_153_" fill="#346a7e" opacity="0.2" d="M108.3,13.6c3.7-0.5,7.1-2.6,10.9-3c4.1-0.5,8.5-0.6,12.4-1.2c8.1-1.1,17.6-0.1,25.4,0.9
	c4,0.5,7.8,0.8,11.4,2.6c3.2,1.6,6.7,3.1,10,4.7c6.8,3.4,13.8,6.7,20.5,10.6c2.4,1.4,5,2.6,7.4,4c2.2,1.3,4.4,2.8,6.7,4.1
	c2.3,1.3,4.8,2.6,7.2,3.1c2.4,0.6,6.5,1.9,8.6,0c-0.7-1.6-2.6-2.1-4-3.2c-1.6-1.3-2.5-3-3.5-4.7c-1.7-3.1,2.5-2.4-0.4-4.3
	c-2.9-1.9-18.6-12.1-28.7-15.7c-4.1-1.5-9.6-3.2-13.9-4.3c-6.9-1.7-12.9-2.3-14.1-2.5c-3.4-0.3-5.2-0.5-6.7-0.7
	c-1.9-0.3-1.5-2.3-3.2-2.5c-5-0.6-9.3,1.2-14,1.6c-4.5,0.4-9.1,0.7-13.4,1.7c-3.9,0.9-8.5,2.7-12.1,4.5c-1,0.5-10.6,4.8-7.7,6.2"/>
<path id="XMLID_148_" fill="#346a7e" opacity="0.2" d="M76.7,56.6c-0.1-0.6-1.5,1.9-2.6,4c-1.7,3.3-1.7,3.3-2.3,5.1c-1.4,4-2.5,9.5-1.7,13.8
	c0.7,3.6,2.2,4.9,4.6,8c3,3.8,7.2,4.2,11.2,6c7.2,3.2,13.8,5.7,21.4,7.6c4,1,7.1,0.1,10.2-2.7c1.1-1,2.3-2.1,2.8-3.4
	c0.8-1.8,0.3-4.2,0.5-6.2c0.7-6.2,1.3-13.4,2-19.3c0.2-1.5,0.2-3.4-0.6-4.5c-0.5-0.7-2-1.9-2.6-2.6c-2.4-2.9-4.6-2.3-7.8-3.1
	c-2.7-0.7-5.3-1.8-7.8-3.1c-3.3-1.6-5.6-2.3-9.2-2.7c-3.4-0.4-6.9-0.8-10.4,0C81.9,54,79.3,55.9,76.7,56.6"/>
<path id="XMLID_147_" fill="#346a7e" opacity="0.2" d="M179.3,47.8c0.1,0.9,1,3.4,1.5,4c-4.8,0.1-4.1,5.6-3.7,8.9c0.2,2.1,0.9,3.6,1.2,5.7
	c0.2,2,0.6,3.8,1.1,5.7c1.7,6.7,4.2,13.2,6.1,19.8c1.1,3.8,3.8,5.7,7.5,7c1.7,0.6,3.6,0.6,5.6,0.6c2.4,0,4.4,0.8,6.7,1
	c1,0.1,2.1-0.2,3.1,0c1,0.2,1.2,0.7,2,1c2.2,0.8,4.3,0.1,6.4-0.4c3.6-0.9,4.4-4,7.3-6.2c0.6-0.5,1.8-0.7,2.4-1.3
	c0.6-0.6,1-1.9,1.5-2.6c1.7-2.5,1.3-4.1,1.7-7.1c0.2-2,1-4.6,1.7-6.6c0.6-1.5,2.1-5.8,1-7c0.8-1.1,0.4-3.2,1-4.5
	c0.2-0.6,1-1.4,1.1-2.1c0.1-0.9-0.6-1.6-0.6-2.6c0-3.6,2.9-6,2.6-9.9c-0.3-4-3.7-3.5-6.1-5.8c-1.5-1.4-2-2-4.3-2.9
	c-1.6-0.6-3-1.2-4.7-1.8c-7.6-2.8-16.7-3.4-24.4-1.5c-3.2,0.8-6.8,1.8-9.7,3.2c-1.6,0.7-2.8,1.9-4.3,2.9c-1.2,0.8-3,1.2-3.6,2.7"/>
<path id="XMLID_146_" fill="#346a7e" opacity="0.2" d="M194.7,133.9c1.3,8.4,11.4,41.7,12.2,43.7c0.8,1.9,1.8-0.3,3.6-0.6c2.9-0.6,5.9-1.4,8.7-2.7
	c1.3-0.6,2.4-1.3,3.5-2.2c1.1-0.9,1.8-2.2,3.2-2.6c0-1.4,0.4-3.1,0.6-4.6c0.2-1.4,0.5-3,0.5-4.6c0-1.7,0-3.5,0-5.2
	c0-1.7-0.5-3.2-0.5-4.7c0-3,2.5-5.5,2.7-8.5c0.2-2.2,0.3-5-0.3-10c-0.3-2.6-3.9-3.8-6.4-3.8c-1.6,0-3.3,0.3-4.9,0.6
	c-1.6,0.3-3.5,0.6-5.1,1c-2.8,0.8-5.8,2-8.4,3c-2.9,1.1-6.6,0-9.9,0L194.7,133.9z"/>
<path id="XMLID_145_" fill="#346a7e" opacity="0.2" d="M142.1,141.2c-0.7,1.6-1.5,3.1-2,4.7c-1.6,4.4-2.8,5.6-4.6,9.9c-1.4,3.3-3.9,9.1-5.8,13.1
	c-1.3,2.9-1.7,3.8-2.9,6.8c-1.1,3-8.5,19.3-0.8,17.9c1.8-0.3,4.1-1.3,6-0.5c0.7,0.3,1.4,1.3,2.2,1.5c1,0.3,2.5,0,3.5,0.1
	c3.7,0.4,7.7,1.1,11.5,1.4c4.5,0.4,7.7-1.6,11.9-1.6c1,0,2.1,0.5,3.1,0.6c0.5,0.1,0.5-0.6,1-0.6c0.5,0,0.5,0.6,1,0.6
	c2.2,0,4.4-0.1,6.4,0.4c3.7,0.9,7,2.5,8.3-2.4c0.8-3-1.3-6.9-2.3-10c-1.1-3.4-3.1-6-4.2-9.3c-1.2-3.7-2.2-7.3-3.5-10.9
	c-1.3-3.8-3.1-7.5-4.3-11.3c-1.1-3.6-2.5-7.3-4.4-10.5c-2-3.3-4.9-6.1-8-8.2c-3.1-2-6.7-0.1-9.1,2.5
	C143.8,136.9,142.9,139.4,142.1,141.2z"/>
<path id="XMLID_144_" fill="#346a7e" opacity="0.2" d="M79.3,126.1c-10.6-1.8-6,39.4-3.1,44.6c2.9,5.2,8.3-2.3,10.9-4.7c3.6-3.3,6.8-6.3,9.4-10.3
	c4.1-6.2,8.9-12.3,11.3-19.2c2-5.7-8.7-7.3-12.4-7.8c-3.2-0.4-6.6,0.4-9.9,0c-1.3-0.2-2.7-0.9-4.1-1.3c-1.3-0.3-2.8-1.6-4.2-1.3"/>
<path id="XMLID_143_" fill="#346a7e" opacity="0.2" d="M434.7,32.3c-1.5,1.7-3.1,3.4-4.3,5.1c-0.6,0.8-1.5,2.1-1.7,3c-0.1,0.6,0.2,1.3,0.1,1.9
	c0,0.2,0.4,0.3,0.2,0.8c-0.1,0.2-0.5,0.4-0.6,0.6c-1,2.1-2.2,4.5-2.5,6.9c-0.3,2.9,0.3,4.8,1.5,7.1c1.1,2,1.7,4.6,3.1,6.2
	c1.6,1.8,2.7,3.7,4,5.7c0.6,1,1.4,2,1.9,3.1c0.4,1,1.5,2,1.7,3c0.2,0.1,0.4,0.1,0.6,0.2c0.4,1.2,1.3,2.4,1.9,3.5
	c0.8,1.5,1.1,2.8,1.3,4.6c0.3,3.3-0.4,5.9-1.8,8.7c-1.3,2.5-3.7,4-6.3,5c-1.3,0.4-2.6,0.9-3.8,1.3c-1.4,0.5-2.6,1.4-3.9,1.9
	c-0.1,0.8-2.3,2.5-2.9,3.3c-1,1.4-1.4,2.8-1.8,4.4c-0.4,1.5-0.6,3.5-0.8,5c-0.2,1.9,0.8,3.4,1.2,5.1c0.8,3.2,1.6,6.9,1.2,10.5
	c-0.2,1.6-1,2.9-1.2,4.7c-0.4,4.8-0.2,9.5-0.8,14.4c-0.2,1.6,0.1,2.7-0.5,4.2c-0.4,1.1-0.9,2.1-1.5,3.2c-1.1,2.2-2.4,4.6-2.7,7
	c-0.2,1.5,0.1,3.4,0.8,4.7c0.4,0.7,1.5,2.7,2.3,2.8c0.8,2.4,2.8,4.4,3.9,6.6c1.3,2.7,1.2,5.2,0.9,8.1c-0.4,3.2-0.4,6.4-0.4,9.7
	c0,3.2-0.4,6.6,0,9.7c0.1,1.2,0.6,2.6,0.9,3.8c0.4,1.4,0.2,3.1,0.4,4.7c0.3,2.8,0.3,5.9,1.1,8.6c0.7,2.4,2.7,4.3,4.7,5.9
	c2.1,1.8,2.9,4.2,3.5,6.9c1.2,5.6,1.7,12,6.3,16.3c1.1,1,2.8,1.4,4.2,1.9c1.8,0.7,3.6,0.1,5.4,0.4c2.8,0.5,5.7,0.1,8.6,0.5
	c3.5,0.4,6.5-1.1,9.7-1.9c2.8-0.7,5.9-2.7,8.5-4.1c3.1-1.6,5.9-4.4,8.9-6.2c2.4-1.5,5-3.9,7.8-4.1c0.7,0,1,0.3,1.9-0.2
	c0.7-0.3,1.4-0.8,2-1.2c1.2-0.6,2.5-1.3,3.6-2.1c1.7-1.3,3.4-2.6,5-4c2.2-1.9,3.7-3.9,5.5-6.1c1.5-1.8,2.8-3.1,3.9-5.2
	c1-1.7,2.2-3.5,3-5.1c1.6-3.1,4.3-5,6.6-7.4c2.8-2.8,5.5-5.5,8.6-8.2c3.1-2.8,7.1-4.9,9.8-8.1c2.3-2.8,3.3-7.2,4.2-10.5
	c0.8-3.2,2-6.2,3.4-9.3c3-6.6,2.2-14,2.9-21c0.4-3.8,2-6.6,3.3-10.1c0.5-1.4,0.9-3.2,1.2-4.7c0.4-1.7,0.2-3.3,0.4-5.1
	c0.4-3.9,4.5-3.8,7.4-3.5c1.8,0.2,2.4,0,3.8,1.3c1.2,1.1,1.3,2,1.6,3.4c1.5,6.1,1.2,12.6,1.2,19c0,3.3-1.1,5.6-1.9,8.6
	c-0.8,2.7-1.5,5.5-1.9,8.5c-0.8,5.5-3.1,10.5-5.2,15.5c-0.5,1.3-1.6,2.3-2.3,3.5c-0.6,1.2-1.1,2.7-2,3.9c-1.8,2.3-2.4,4.5-3.7,6.8
	c-1.2,2.2-2.4,4.7-3.6,6.9c-1.3,2.3-3.4,4-5,6.3c-0.6,0.8-1.2,2.1-1.7,3c-0.8,1.8-3.3,3.4-3.6,5.4c-0.2,0-0.4,0.1-0.6,0.1
	c-0.3,1-1.4,2.2-2,2.9c-0.7,0.9-1.6,1.6-2.3,2.4c-1.5,1.5-2.3,3.5-4,5c-1.6,1.3-2.9,2.8-4.3,4.3c-1.6,1.8-3.7,2.8-5.7,4.1
	c-3.9,2.6-8,5.1-11.7,8.1c-3.1,2.5-7.2,3.6-10.4,6c-3.2,2.3-6.8,3.1-10.3,4.9c-2.7,1.4-5.8,2.4-8.6,3.5c-5.3,2.1-11.5,2.2-17.1,3.5
	c-1.6,0.4-3,0.4-4.7,0.4c-1.8,0-3,0.6-4.7,0.8c-2.7,0.3-6,1.6-8.9,1.1c-1.4-0.3-2.7-0.7-4.4-0.7c-1.6,0-3.1-0.2-4.7-0.4
	c-1.3-0.1-2.5-0.6-3.9-0.8c-0.7-0.1-1.1-0.5-1.9-0.4c-0.9,0-1.7,0.4-2.7,0.4c-6,0.2-12.1-1.5-17.6-3.8c-2.8-1.2-5.4-1.9-8.1-2.9
	c-1.4-0.6-2.8-1.4-4.3-1.8c-1.6-0.5-3.3-1.1-4.8-1.8c-1.5-0.8-3.1-1.1-4.6-1.9c-1.5-0.8-2.8-1.9-4.3-2.7c-1.5-0.9-3.2-1.1-4.7-1.7
	c-1.4-0.6-2.6-1.9-3.8-2.8c-2.1-1.6-4.2-2.8-6.6-3.9c-1.3-0.6-2.2-0.3-3.2-0.7c-1.1-0.4-0.3-0.5-0.8-1.6c-1.5-3-1.3-6.1-1.3-9.3
	c0-3.8-1.2-8.7-1.8-12.4c-0.3-1.4-0.8-2.9-1.2-4.3c-0.4-1.7-0.2-3.3-0.4-5.1c-0.5-4.1-1.2-8.5-2.4-12.5c-0.9-2.9-1.6-5.9-2.3-8.8
	c-0.9-3.5-1-7-1.9-10.5c-1.9-6.9-5.6-13.4-8.5-19.9c-2.4-5.4-5-10.7-7.4-16c-2.1-4.7-4-8.9-5.1-14c-1-4.6-2.7-8.7-2.6-13.4
	c0-1.9-0.4-3.6-0.4-5.5c0-2.2,0.7-4.3,1.6-6.3c1.9-4.2,3.6-7.8,6.6-11.3c1.6-1.8,3.2-3.7,4.9-5.4c2-1.9,4.4-3.8,6.4-5.9
	c3.3-3.5,6-7.4,9.3-10.9c2.8-3.1,5.2-6.1,8.5-8.8c2.9-2.3,5.7-5.4,8.9-7.2c4.4-2.4,9.1-4.3,13.3-7c2.7-1.7,5.6-2.9,8.4-4.3
	c2.2-1.1,4.8-2.1,6.7-3.8c2.1-1.9,3.1-4.6,5.1-6.5c2.6-2.4,6.6-3.9,10-4.8c4.1-1.1,8.7-2.6,12.9-2.7c1.8,0,3.3,0,5,0.4
	c0.8,0.2,1.6,0.1,2.3,0.5c0.7,0.4,1.1,0.9,1.9,1.1c0.5,1.9,0.7,3-1.1,4.2c-1.5,1-3.2,0.5-4.2,1.9c-0.4,0.5-0.4,1.1-1,1.8
	C436.3,30.8,435.4,31.5,434.7,32.3z"/>
<path id="XMLID_142_" fill="#346a7e" opacity="0.2" d="M102.1,9.4c0,0-24.4,14.5-46.7,32.1C41.1,52.9,34.4,58.4,30.8,71.1
	c-3.6,12.7-12.5,39.1-13.8,49s7,17.9,9.3,25.1c2.3,7.3,3.1,13.5,5.2,14c2,0.5,15,8.8,15,8.8s-11.2,10.1-7.3,15.6
	c2.3,3.2,17.4,25.4,21.8,31.9c4.3,6.5,16.8,22.3,25.7,28.8c8.9,6.5,26.2,5.7,41.2,7.8c15,2.1,91.4-28,98.5-30.1
	c7.1-2.1,40.2-92.8,43-98.5c11.4-22.8,6.7,36.3,6.7,36.3l-13,27.5l-17.1,23.9c0,0-19.2,36.8-47.1,41.5c-4.6,0.8-11.2,4.1-14.5,6.7
	c-3.3,2.6-5.1,2.6-6.1,3.4c-1,0.8-3.6,6.7-37.2,5.4c-13.8-0.5-36.3-0.7-57.3-15.3c-11.2-7.8-27.8-27.2-35.7-38.6
	c-7.9-11.4-15.7-26.7-24.6-39.9c-8.9-13.2-21.5-22-18.1-42.5c3.3-20.5,12.7-40.2,17.8-55.5c3.5-10.6,10.9-24.2,18-33
	c3.1-3.8,16.2-13.6,18.6-15.3C87,9.9,102.1,9.4,102.1,9.4z"/>
<g id="XMLID_96_">
	<path id="XMLID_141_" fill="#346a7e" opacity="0.2" d="M197.1,143.2c0.2,0.8,0.4,1.6,0.7,2.4c11.6-0.7,21.8-5.6,31.3-12.3
		c-0.1-0.8-0.3-1.6-0.6-2.2C219,137.8,208.8,142.7,197.1,143.2z"/>
	<path id="XMLID_140_" fill="#346a7e" opacity="0.2" d="M199.1,150.4c10.9-1.5,20.9-5.5,30.3-11.5c0-0.3,0.1-0.5,0.1-0.7c0-0.6,0-1.3-0.1-2.1
		c-9.5,6.4-19.7,10.5-30.9,11.9C198.6,148.8,198.8,149.6,199.1,150.4z"/>
	<path id="XMLID_139_" fill="#346a7e" opacity="0.2" d="M199.6,134.2c7.6,0.4,13-1.1,18.3-3.3c3.9-1.6,4.8-1.8,5.5-1.8c-8.2,5.7-17.7,10-27.4,10.3
		c0.2,0.8,0.5,1.7,0.7,2.7c10.9-0.5,21.5-5.8,30.4-12.5c0.3,0.1,0.6,0.3,0.9,0.6c0.4,0.5,0.7,1.4,0.9,2.5l-0.2-4.7
		c-0.1,0-0.2,0-0.3-0.1c-11.4,0.5-27.3-0.9-35.7-0.8l2.1,7.5C195.7,134.3,197.1,134.1,199.6,134.2z"/>
	<path id="XMLID_138_" fill="#346a7e" opacity="0.2" d="M160.8,107.7c-1.8-12.3-4.3-25.4-6.4-36.4c0.1,1.4-4.9,28.2-7,36.6
		C150.6,107.8,157,108.3,160.8,107.7z"/>
	<path id="XMLID_137_" fill="#346a7e" opacity="0.2" d="M115.5,198.3c0.7-1.6,20.4-51,21.7-54.3c0,0,0,0,0,0c3.9-18.2,15.6-78.9,15.6-79
		c-0.2-1.5-1.2-8.1-2-14.4c-1.2-0.2-2.4,0-3.2,0c-1.9,10.6-16.2,87.4-17.8,93.2c-2.3,7-18.3,49.2-20.6,54.6
		C110.1,198.4,113.7,198.1,115.5,198.3z"/>
	<path id="XMLID_136_" fill="#346a7e" opacity="0.2" d="M228.6,141.3c-3.7,2.7-7.6,5.1-11.9,7.1c-5.4,2.4-11.1,3.9-17,4.7c0.2,0.9,0.5,1.7,0.7,2.6
		c5.8-0.9,11.5-2.5,17-4.8c3.5-1.5,6.7-3.3,9.8-5.5c-0.2,0.6-0.4,1.3-0.6,2c-3.2,2-6.4,3.8-9.9,5.4c-4.9,2.3-10.2,4.5-15.6,5.8
		c0.2,0.8,0.5,1.7,0.7,2.5c4.5-1.2,8.9-2.9,13.1-4.7c3.8-1.6,7.4-3.5,10.9-5.5c0,0.1-0.1,0.3-0.1,0.4c-0.2,0.8-0.3,1.6-0.5,2.3
		c-3.3,2.2-6.8,3.9-10.3,5.7c-3.9,1.9-8.1,3.6-12.3,4.6c0.2,0.8,0.4,1.5,0.6,2.3c4.2-0.9,8.3-2.5,12.2-4.3c3-1.4,6.1-2.9,9-4.6
		c-0.1,0.6-0.3,1.1-0.4,1.6c-6.2,4.2-13.3,6.8-20.6,8.3c0.2,0.8,0.4,1.5,0.6,2.2c6.7-1.4,13.2-3.6,19.1-7c0,0.2-0.1,0.3-0.1,0.5
		c-0.1,0.3-0.1,0.6-0.2,0.9c-5.5,3.8-11.8,6.8-18.2,8c0.3,1.1,0.6,2,0.8,2.6c5.6-1.1,11.1-3.7,16.1-6.8c-0.3,0.6-0.6,1.2-1,1.8
		c-4.5,2.8-9.5,4.9-14.6,6.2c0.4,0.8,0.8,1.2,1.4,1.2c-0.4,0.1-0.7,0.2-1,0.2l5.6,20.2l18.4-19l-1.5-38.6
		C229.1,139.8,228.9,140.5,228.6,141.3z"/>
	<path id="XMLID_107_" fill="#346a7e" opacity="0.2" d="M277.5,111.1c-1.7-18.5-7.1-27.9-10.2-34.3s-5.6-10.9-14.2-22.6
		c-8.1-11-14.6-20.7-18.3-24.3c-3.6-3.6-20-13.3-31.9-19.7C191,3.7,170.4,0.6,159.3,0c-11.1-0.5-39.8,3.6-51.8,7s-14,3.6-14.8,4.1
		c0.4,0.6,4.3,1.3,4.7,2c0.3,0.5-2.5,0.9-4.4,1.4c-4.4,1-14.5,7-23.9,12.4S50.2,40.7,44.3,50.3c-6,9.6-10.1,23.3-11.9,30.1
		s-7.3,24.4-10.9,32.9s-3.4,21-3.4,23.6s2.6,3.6,3.9,6c1.3,2.3,0.9,7.2,0.4,7.9c-0.5,0.8-2-3.8-3.5-6.9s-2.3-6.7-1.8-15
		c0.5-8.3,3.4-18.1,4.7-22c1.3-3.9,6.2-18.9,9.6-31.4C34.7,63,44.5,46.2,48.4,41s15.3-12.4,21.3-15.8c6-3.4,17.9-10.6,17.9-10.6
		l0.4-2.9c0,0-13.5,7.3-20.2,10.7c-6.7,3.4-11.5,8.2-19.5,15.9c-2.9,2.8-5.2,5.6-7.2,8.3l-2.1-1.3c-0.6,0.8-1.2,1.7-1.9,2.5l2.3,1.4
		c-0.5,0.9-1,1.7-1.5,2.6l-2.4-1.5c-0.6,0.9-1.1,1.7-1.7,2.6l2.7,1.6c-0.3,0.6-0.6,1.3-0.9,1.9l-2.8-1.7c-0.5,0.9-1.1,1.8-1.6,2.7
		l3.1,1.9c-0.1,0.3-0.3,0.6-0.4,0.9c-0.3,0.6-0.5,1.3-0.8,2c0,0,0-0.1,0-0.1l-3.4-2c-0.5,0.9-1,1.9-1.5,2.8l3.7,2.2
		c-0.2,0.7-0.5,1.3-0.8,2l-4.3-1.4c-0.5,1-0.9,1.9-1.3,2.9l4.6,1.5c-0.3,0.9-0.6,1.9-1,2.8l-4.8-1.5c-0.4,1-0.8,2-1.1,2.9l4.9,1.6
		c-0.2,0.7-0.4,1.3-0.6,2l-5-1.6c-0.3,1-0.7,2-1,3l5,1.6c-0.3,1-0.6,1.9-0.9,2.8l-5.1-1.6c-0.3,1-0.6,2-0.9,3l5.1,1.6
		c0,0.1,0,0.1-0.1,0.2c-0.2,0.6-0.3,1.2-0.5,1.8l-5.3-1.3c-0.3,1-0.6,2-0.9,3l5.4,1.4c-0.2,0.9-0.5,1.9-0.7,2.9l-5.5-1.4
		c-0.3,1-0.6,2-0.9,3l5.5,1.4c0.2-0.6,0.4-1.2,0.5-1.8c-1.9,7.6-4.1,16.7-5.2,21.8c-0.6,2.9-1.4,7-2.1,11.4c0-0.4,0.1-0.8,0.1-1.2
		l-6-1.2c-0.2,1-0.4,2.1-0.6,3.1l6.1,1.3c-0.1,0.7-0.2,1.4-0.3,2.2l-6.3-0.7c0,0.2-0.1,0.3-0.1,0.5c-0.1,0.9-0.3,1.7-0.4,2.6
		l6.4,0.7c-0.1,1-0.2,2-0.3,3l-6.5-0.7c-0.1,1.1-0.2,2.1-0.3,3.1l6.6,0.7c0,0.8,0,1.6,0,2.4l-6.7,0.6c0,1.1,0,2.1,0.1,3.2l6.7-0.6
		c0,0.2,0,0.4,0.1,0.7c0.1,0.8,0.2,1.5,0.4,2.3l-7,0.7c0.1,1.1,0.3,2.1,0.6,3.1l7.4-0.7c0.3,0.7,0.6,1.4,0.9,2.1L8.9,159
		c0.4,1,0.8,1.9,1.2,2.9l7.4-3c0.5,0.9,1.1,1.8,1.7,2.5l-7.8,3.1c0.5,0.9,1,1.8,1.6,2.8l8.3-3.4c0.5,0.5,1,1,1.5,1.3l-7.9,5.2
		c0.6,0.9,1.1,1.7,1.7,2.6l10.3-6.8c1.9,0.1,3.5-0.1,4-0.3c0.8-0.3,1.6,0.8,2.9,2.9c1.3,2.1,1,4.7,6.7,11.7c5.7,7,7.8,8.3,10.6,11.9
		c2.9,3.6,4.4,8.6,8.8,15.6c4.4,7,13,15.6,18.9,21.3c6,5.7,16.1,15.3,22.6,18.7c6.5,3.4,17.9,5.2,26.7,8.6c8.8,3.4,25.9,1.3,35,0.5
		c9.1-0.8,16.3-5.2,21-7.5c4.7-2.3,14.5-5.7,21-7.8c6.5-2.1,11.7-6,17.9-10.4c6.2-4.4,12.4-11.4,16.9-16.6
		c4.4-5.2,9.1-12.7,11.9-17.4c2.9-4.7,7-10.1,10.4-16.6c3.4-6.5,4.1-9.1,6-13c1.8-3.9,2.6-9.6,3.1-15.8c0.5-6.2,2.6-9.1,3.1-15.6
		c0.5-6.5-2.6-9.6-2.6-15c0-5.4,0.3-11.7-0.3-17.1c-0.5-5.4-1.8-9.9-3.6-12.7s-2.1-4.9-4.1-10.1c-2.1-5.2-3.9-6-6.2-9.6
		c-2.3-3.6-2.9-5.7-6.7-13s-6.7-11.4-9.6-14.5c-3-3.3-5.4-3.9-8-6c-2.6-2.1-6.7-5.7-10.6-9.6s-8-5.7-13.2-6
		c-5.2-0.3-12.7-2.6-18.1-4.9c-5.4-2.3-12.7-8.3-17.1-9.9c-4-1.4-7.8-2.7-10.4-3.8c-0.3-0.1-0.9-0.2-1.6-0.3
		c9.6,0.6,18.7,2.2,25.3,4c10.5,2.9,29.6,14,33.6,16.9s19.1,15,22.9,20c3.9,5.1,9.3,14.6,11.7,18.9c2.3,4.3,7,7.9,12.6,20.1
		s4.9,20.3,5.4,24.8c0.6,4.5,2.5,20.8,1.7,29.9c-0.8,9.1-2.1,15.4-4.5,23.7s-3.7,12.4-7.2,19.2c-3.5,6.8-3.5,6.2-8.2,13.8
		s-12.6,18.9-14.8,21.2s-4.5,4.1-8.4,8.4s-6.8,8.9-11.5,12.1c-4.7,3.1-8.6,2.1-17.1,6.2c-8.6,4.1-8.6,8-24.5,13
		c-15.9,5.1-34.6,3.7-41.8,3.3c-7.2-0.4-9.5-1.9-17.7-3.7c-8.2-1.7-18.3-5.4-23.5-8.6c-5.2-3.1-6.4-6.4-10.3-9.3
		c-3.9-2.9-9.1-6.8-11.5-9.1c-2.3-2.3-4.1-4.9-10.3-13.4S48.5,194.3,45,188.1c-3.5-6.2-11.6-12.2-12.7-11.7
		c-0.7,0.3,0.2,1.2,1.4,2.5l-8.3,5.9c0.6,0.8,1.3,1.7,1.9,2.5l8.4-6.1c0.2,0.2,0.4,0.5,0.5,0.7c0.2,0.3,0.4,0.6,0.7,0.9l-8.3,6.1
		c0.7,0.8,1.3,1.6,2,2.5l8.2-6c0.6,0.7,1.2,1.5,1.8,2.4l-8.2,6c0.7,0.8,1.3,1.6,2,2.5l8.1-5.9c0.4,0.6,0.8,1.1,1.3,1.7l-8.1,5.9
		c0.7,0.8,1.3,1.6,2,2.5l8-5.8c0.6,0.9,1.2,1.7,1.8,2.4l-7.9,5.8c0.7,0.8,1.3,1.7,1.9,2.5l7.7-5.7c0.4,0.5,0.8,1.1,1.2,1.7l-7.7,5.6
		c0.7,0.8,1.3,1.7,1.9,2.5l7.6-5.6c0.6,0.8,1.1,1.6,1.8,2.4l-7.6,5.6c0.5,0.7,1,1.3,1.4,2c0.1,0.2,0.3,0.4,0.4,0.6l7.6-5.6
		c0.4,0.6,0.8,1.1,1.3,1.7l-7.8,5.5c0.6,0.8,1.2,1.7,1.9,2.5l7.8-5.5c0.6,0.8,1.2,1.6,1.8,2.4l-7.7,5.5c0.6,0.8,1.3,1.6,2,2.5
		l7.7-5.5c-0.1-0.1-0.1-0.1-0.2-0.2c1.8,2.3,3.5,4.6,5.1,6.6l-7.2,5.5c0.7,0.8,1.4,1.6,2.1,2.4l7.1-5.4c0.4,0.5,0.9,1.1,1.3,1.6
		l-6.8,5.5c0.7,0.8,1.4,1.6,2.1,2.3l6.7-5.4c0.6,0.8,1.3,1.5,1.9,2.3l-6.6,5.3c0.7,0.8,1.5,1.5,2.2,2.3l6.5-5.3
		c0.3,0.4,0.7,0.7,1,1.1l-5.2,6.6c0.8,0.7,1.5,1.5,2.3,2.2l5.2-6.6c0.7,0.7,1.5,1.3,2.2,2l-5.2,6.6c0.8,0.7,1.6,1.4,2.4,2l5.2-6.6
		c0.4,0.3,0.9,0.7,1.3,1l-3.9,7.5c0.6,0.4,1.2,0.9,1.7,1.2c0.3,0.2,0.6,0.4,0.9,0.6l3.9-7.5c0.8,0.6,1.6,1.1,2.5,1.7l-3.9,7.4
		c0.9,0.6,1.8,1.1,2.7,1.6l3.8-7.3c0.6,0.4,1.2,0.7,1.8,1.1l-3.8,7.2c0.9,0.5,1.9,1,2.8,1.4l3.7-7.1c0.9,0.4,1.8,0.9,2.7,1.3l-3.7,7
		c1,0.4,2,0.8,2.9,1.2l3.6-6.9c0.6,0.2,1.2,0.5,1.8,0.7l-2.5,7.3c1,0.3,2,0.7,3,1l2.4-7.1c4.6,1.6,9.3,2.8,13.7,3.6l-0.9,6.8
		c1.1,0.1,2.1,0.3,3.1,0.4l0.9-6.7c0.7,0.1,1.4,0.2,2.1,0.3l0.1,6.6c1.1,0.1,2.1,0.2,3.1,0.2l-0.1-6.5c1,0.1,2,0.2,3,0.3l0.1,6.3
		c1.1,0.1,2.1,0.1,3.1,0.1l-0.1-6.1c0.7,0.1,1.4,0.1,2.1,0.2l0.1,6c1.1,0,2.1,0.1,3.1,0.1l-0.1-5.8c0.9,0.1,1.9,0.2,3,0.2l0.1,5.7
		c1.1,0,2.1,0.1,3.1,0.1l-0.1-5.5c0.7,0,1.4,0.1,2.2,0.1l0.2,5.5c1.1,0,2.1,0,3.1,0l-0.2-5.3c1,0,2,0,3,0.1l0.2,5.2
		c1.1,0,2.1-0.1,3.1-0.1l-0.2-5.1c0.7,0,1.4,0,2.1,0l0.2,5c1.1-0.1,2.2-0.2,3.1-0.3l-0.2-4.8c1,0,2-0.1,3-0.2l0.2,4.6
		c1.2-0.2,2.2-0.4,3.1-0.5l-0.2-4.3c0.7-0.1,1.4-0.2,2.1-0.2l0.2,4c1.3-0.3,2.3-0.7,3.1-1.1l-0.2-3.5c0.5-0.1,0.9-0.2,1.3-0.3
		c0.6-0.1,1.1-0.3,1.6-0.4l0.1,2.5c0.4-0.4,0.6-0.6,0.8-0.8c0.5-0.4,1.3-0.6,2.3-1l-0.1-1.7c0.7-0.3,1.4-0.6,2.1-0.9l0.1,1.5
		c0.6-0.3,1.2-0.7,1.8-1.3c0.3-0.3,0.7-0.5,1.1-0.8l-0.1-1.2c0.9-0.6,1.8-1.2,2.8-1.9l0.1,1.7c1-0.4,2-0.8,3.1-1.2l-0.2-2.4
		c0.6-0.3,1.2-0.7,1.9-1l0.3,2.7c1-0.4,2.1-0.8,3-1.2l-0.3-2.8c0.9-0.4,1.9-0.7,2.9-1.1l0.3,2.4c1-0.7,2-1.2,3-1.7l-0.2-1.7
		c0.8-0.3,1.5-0.5,2.3-0.8l0.1,1.5c1.6-0.7,2.8-1.1,2.8-1.1v-1.5c3.9-1.5,8.1-3.4,12.5-6.3c3.1-2.1,6.6-6,9.9-9.7
		c7.4-8.3,14.9-19.1,21.3-27.3c9.3-11.9,16.4-25.5,22.1-39.1C279.7,153.3,279.3,129.5,277.5,111.1z M144.8,4.3
		c4.7-0.5,9.6-0.6,14.4-0.4c-2.4,0-4.7,0-4.7,0s0.4,2.6-1.2,6.8c-1.6,4.1-2.9,6.5-8.8,9.1c-6,2.6-11,1.1-18-1.5
		c-4.6-1.7-8.6-5.2-10.2-8.1C116.2,10.1,129.4,5.9,144.8,4.3z M92.3,56.2c4.1,0.2,9.1,1.7,12.8,2.9c-2.2-0.1-4.4-0.2-6.6-0.4
		c-4.7-0.4-9.6-1.2-14.1-2.7C86.8,56,89.5,56.1,92.3,56.2z M96.4,61c5.8,0.7,11.7,0.9,17.6,0.7c2.1,0.6,4.1,1.3,5.5,2.3
		c-6.7,0.2-13.4,0-20.1-0.7c-1.8-0.2-3.6-0.4-5.4-0.7c-6-1-12.3-2.5-17.8-5.1c0.1-0.1,0.2-0.3,0.3-0.3c0.4-0.4,1.3-0.6,2.6-0.8
		C84.5,59,90.5,60.4,96.4,61z M228.7,63.9c0.6,5,0.4,10-0.9,15.4c-1.5,6.4-5.2,12.9-9.2,18.3c-1.4,0.3-2.9,0.6-4.5,0.8
		c2.9-3.1,5.5-6.6,7.6-10.6c3.9-7.4,6.2-14.3,6.7-23.4C228.6,64.2,228.6,64.1,228.7,63.9z M225.4,68.7c0.1-0.1,0.3-0.2,0.4-0.3
		c-0.9,6.9-2.9,12.7-6.1,18.8c-2.3,4.5-5.5,8.3-9,11.5c-1.8,0.1-3.7,0.1-5.5,0c3.9-3,7.4-6.6,10.6-10.6
		C220,82.7,223.2,75.8,225.4,68.7z M222.3,70.1c-2.1,6-4.9,11.7-8.5,16.4c-3.6,4.7-7.9,8.7-12.6,11.9c-2.3-0.2-4.5-0.6-6.4-1
		c6.3-2.9,12.2-7.2,17.2-12.5c3.8-4,6.9-9.1,9.2-14.5C221.6,70.3,222,70.2,222.3,70.1z M218.8,70.7c-2.1,4.4-4.7,8.5-7.9,11.8
		c-5.7,6.2-13.1,10.9-20.5,13.6c-0.8-0.3-1.4-0.7-1.8-1c-0.2-0.2-0.4-0.4-0.5-0.5c6.9-2.5,13.4-6.2,19.2-10.8c4.3-3.4,8-8,11-13
		C218.5,70.7,218.7,70.7,218.8,70.7z M215.5,70.6c-3.1,4.9-6.9,9.3-11.4,12.7c-5.2,4-11.2,7.1-17.4,9.2c-0.6-1-1.2-2.2-1.8-3.5
		c8.2-2,16.2-5.9,23-11.5c2.4-2,4.7-4.4,6.7-7.1C214.9,70.5,215.2,70.6,215.5,70.6z M192.8,43.8c2.9-0.5,3-0.5,3-0.5
		s0.1,0.7,0.3,1.7c0-0.2-0.1-0.4-0.1-0.6c-2.4,0.4-4.8,0.7-7.2,0.8C190.5,44.5,192,43.9,192.8,43.8z M173.4,41.5
		c1,0.1,4.9-1.1,8.8-1.4c0.1,1.7,0.2,2.9,0,5.5c-3.8,1-7.9,1.4-12.1,2.1c2.2,21.3,4.6,41.6,9.9,60.9c0.4,0.1,2.3,0.1,5.1,0.1
		l-11.8-55.8c0,0,4.5-3,5.7-3.6c0.1,0,0.3-0.1,0.6-0.3c0.1,0.1,0.2,0.2,0.3,0.4c-0.1,0.1-0.2,0.2-0.4,0.3c1-0.5,2.3-1.2,3.8-1.9
		c0.8,0,1.6,0,2.4,0c3.5-0.1,7.2-0.4,10.8-1.1c0.1,0.3,0.1,0.6,0.2,0.9c-4,1.2-8.2,2.1-12.2,2.6c-1.5,0.2-2.9,0.3-4.4,0.5l0.5,1.8
		c1.9-0.2,3.8-0.3,5.7-0.6c3.6-0.4,7.3-1.2,10.8-2.3c0.1,0.4,0.2,0.7,0.3,1.1c-4,1.4-8.1,2.4-12,3c-2.9,0.4-5.8,0.7-8.7,0.9
		c0.1,0.4,0.2,1.2,0.4,2.3c7.2-0.5,14.4-1.6,21-3.8c0.1,0.5,0.3,1,0.5,1.6c-6.6,2.4-14,3.5-21.2,3.9c0.1,0.8,0.3,1.7,0.5,2.7
		c7.3-0.6,14.8-1.9,21.5-4.5c0.2,0.6,0.5,1.2,0.7,1.8c-6.8,2.6-14.5,3.9-21.9,4.2c0.2,0.9,0.3,1.8,0.5,2.8
		c7.5-0.8,15.2-2.3,22.2-5.1c0.1,0.3,0.3,0.6,0.4,0.9c-6.7,3.5-14.4,5.4-22.2,6.4c0.2,0.9,0.4,1.7,0.5,2.6
		c7.9-1.2,15.8-3.3,22.8-6.9c0.2,0.4,0.5,0.7,0.7,1c-6.8,4.3-15,6.7-23,7.9c0.2,0.8,0.4,1.7,0.6,2.5c8.7-1.3,17-4,23.8-8.9
		c0.3,0.4,0.7,0.7,1.1,1c-6.9,5.3-15.4,8.5-24.3,10c0.2,0.7,0.4,1.5,0.6,2.2c9.5-1.6,18.7-5,26-10.8c0.4,0.2,0.8,0.3,1.2,0.4
		c-1.7,1.5-3.4,3-5.3,4.1c-6.4,4.1-14,6.9-21.4,8.3c0.2,0.8,0.5,1.6,0.7,2.4c7.8-1.6,15.3-4.6,22.1-9c2.2-1.4,4.3-3.2,6.3-5.2
		c0.3,0.1,0.6,0.1,0.9,0.2c-1.9,2.4-4,4.5-6.2,6.3c-6.5,5.2-14.2,8.7-21.9,10.5c-0.5-1.2-1-2.5-1.4-3.9l5.7,25.6
		c9.8-0.2,25.9-0.3,33.6,2.5c1.2-0.1,4.5,0,8,0.3l5-48.1c-2.1,9.1-6.8,29.6-10.9,32.1c-0.5,0.3-1.1,0.6-1.7,0.9
		c3.4-5.2,6.2-11,7.5-16.8c1.8-7.8,2.1-15.3,0.1-22.5c0,0.1,0,0.2-0.1,0.3c-0.1-0.4-0.3-1-0.4-1.2c0.4-2,0.3-2.2,0.3-2.3l0.2-3
		l8,6.5l-4,54.4c2.7,0.3,5,0.6,5.6,0.9c0.4,6.4-0.2,11.6-0.6,17.2c-2.1-0.3-3.4-0.8-5.1-1.5c-0.1,0-0.3,0-0.4,0
		c0.6,7.2,2.2,25.9,2.4,29.8c0.3,4.8,0.3,18.3,0.3,18.3l-1.8,2.4l0,0.1l-26.5,26.7l-1-3.7l3-2.7l-20.2-72.2
		c-0.7,0.1-1.3,0.2-1.7,0.3c-0.1,4.2,1.2,10.7,1.8,14.6c1.6,11,2.3,19.7,5.1,29.8c3,11.1,5.4,24.7,7.9,36.9c2.7,0.7,6.5,0.1,9.7,0.3
		c1.1,4.2,2.2,7.2,2.5,10.1c-10,0-26.1,0.9-38.3-0.2c-0.4-2.8-0.4-7.5-0.6-9.7c2.8-0.7,6.7-0.1,10-0.3c-5.2-23.4-11-49.2-16.2-72.8
		c-1.3-5.8-1.8-8.1-2.3-10.6c-7.1,0.7-15.8-0.6-23.2-0.3c-0.9,4.1-3.4,15.1-4.3,19.3c0,0,0,0,0,0c-0.2,0.6-2.5,6.2-5.5,13.6
		c2-4.2,4-8,5.5-10.8c-0.3,0.6-0.7,1.3-1.1,2c2.6-1.5,5.4-2.7,8.3-3.5c3-0.9,9.2-2.6,13.2-1.9c0.3,0.8,0.6,1.5,0.9,2.3
		c-8,0.1-16.1,1.5-23.4,4.9c-0.6,1.1-1.2,2.4-1.9,3.7c8-4.4,17.2-5.9,26.2-5.8c0.2,0.7,0.5,1.4,0.7,2.1c-9.4-0.1-18.7,1-27.4,4.6
		c-0.5,1.1-1.1,2.3-1.7,3.4c9.5-4.4,19.7-5.5,30.1-5.2c0.2,0.6,0.4,1.2,0.7,1.8c-10.6-0.9-21.6,0.7-31.4,4.8
		c-0.5,1.1-1.1,2.3-1.6,3.4c10.5-4.9,22.6-6.6,34.1-5.4c0.2,0.6,0.5,1.2,0.7,1.8c-12.1-0.5-24.3,1.2-35.6,5.3
		c-0.4,0.9-0.8,1.8-1.2,2.7c11.9-4.7,25-6.4,37.8-5.6c0.2,0.5,0.4,1,0.6,1.5c-13.2-0.8-26.6,1-39,5.4c-0.5,1.2-1,2.3-1.4,3.4
		c13.2-5,27.5-7.1,41.5-6.1c0.4,1,0.8,1.9,1.2,2.9c-8-1-16.1-0.9-24.2,0.2c-6.5,1-13.1,2.3-19.3,4.8c-0.4,1-0.8,2-1.1,3
		c6.8-3.2,14.6-4.7,21.9-5.6c7.9-1,15.9-0.9,23.8,0.3c0.3,0.8,0.6,1.5,0.9,2.2c-8.1-0.7-16.1-0.7-24.2,0.4c-7.5,1-15.8,2.6-23.3,5.4
		c-0.4,1.1-0.7,2.2-0.9,3.2c8.3-3.6,18-5.3,26.6-6.4c7.7-1,15.3-0.8,22.9-0.1c0.3,0.6,0.5,1.2,0.8,1.8c-8.2-0.5-16.4-0.2-24.5,0.9
		c-8.5,1.1-18.2,3-26.4,6.6c-0.1,0.6-0.1,1.1,0,1.6c-0.1-0.8,0-1.9,0.3-3.4c-2.8,7.1-5,12.4-5.2,13c12.6,1.1,28.9-0.3,43.1,0
		c5.4,0.1,10.9,0.2,15.5,0c0.6,0.9-0.1,2.7-0.6,3.5c-20.5,0-45.8,0.1-68.6-0.3c-1.3,3.3-2.7,6.5-3.8,10c1.7,0.1,3,0.2,4.7,0.6
		c-0.1,2.2,0.1,5.4-0.2,8.3c-10.4-1.6-24.1,0.7-34.4-0.9c-0.6-2.6-1.1-5.3-1.5-8.2c2.6-0.7,6.3-0.1,9.4-0.3
		c10.8-26.5,21.4-53.3,32-80c0.3-1.9,0.6-3.3,0.9-4.5c-18.3,0.2-37.7-1-55-2.2c-0.4,0-0.7-0.1-1.1-0.1c-1.2,4.8-2.8,14.3-2.5,19
		c0.3,5.1,3.8,15.1,6.5,23.1c0.7,2,1.4,4,1.9,5.7c2.8,8.5,10.9,25.1,11,25.3l-2.4,1.9c-0.3-0.7-8.6-17.5-11.5-26.2
		c-0.6-1.7-1.5-3.6-2.2-5.6c-3-8.6-6.1-18.4-6.4-23.9c-0.3-5,1.8-14.5,3-19.5c-6.7-0.9-8.4-1.1-11.4-2.8c1.1-6.8,2.6-13.2,4.7-19.1
		c1.7,0,3,0.4,4.4,0.9l17.1-43.3l1.8-4.9l4,0.5l-1.3,3.4c-0.3,0.4-0.6,0.9-0.9,1.4c6.5,3.3,14.1,5,21.2,6c8.5,1.2,17.1,1.6,25.8,1.4
		c0.2,0.6,0.4,1.2,0.5,1.9c-8.2,0.3-16.4-0.1-24.5-1.2c-1.7-0.2-3.4-0.5-5.1-0.8c-5.9-1.2-11.8-2.9-17.2-5.8
		c-0.4-0.2-0.8-0.4-1.2-0.6c-0.4,0.6-0.7,1.4-1.1,2.1c6.4,3.8,14.2,5.9,21.3,7.2c9.3,1.7,18.5,2.4,27.9,2.1c0,0.7,0,1.4-0.1,2.1
		c-7.4-0.1-14.8-0.6-22.2-1.7c-2-0.3-3.9-0.6-5.9-1c-6.8-1.4-13.5-3.3-19.6-6.4c-0.7-0.3-1.3-0.7-2-1.1c-0.3,0.7-0.5,1.3-0.7,2
		c7.1,4,16,6.8,23.4,8.3c8.8,1.7,17.7,2.5,26.7,2.7c-0.1,0.7-0.2,1.5-0.2,2.2c-7.8-0.1-15.6-0.7-23.3-2.1c-1.8-0.3-3.6-0.7-5.4-1.1
		C87,74.1,80.9,72,75.4,69c-1.3-0.7-2.6-1.5-3.7-2.3c-0.2,0.8-0.4,1.7-0.5,2.5c6.5,4.4,15.4,7.3,22.5,9.1c9.1,2.2,18.5,3.1,27.9,3.3
		c-0.1,1-0.2,2.1-0.3,3.1c-7.4-0.3-14.6-1-21.8-2.6c-1.9-0.4-3.7-0.8-5.6-1.4c-6.4-1.8-12.7-4.2-18.4-7.5c-1.3-0.8-2.9-1.7-4.3-2.7
		c0-0.1,0-0.3,0-0.4l-0.1,0.3c0,0,0,0,0,0c0,0,0,0,0,0l-1,2.8l-2,0.1l-11.8,29.8c2.9,1.1,7.3,2.4,15.9,3.3
		c15.5,1.4,32.2,2.9,46.5,1.9c2.8-14.7,5.6-27.6,8.7-44.1c-0.2-1.7-0.2-3.9-0.2-6.4c-6.8-1.5-11.7,0.2-18.6-1
		c-0.9-2.5-2.5-6.8-1.2-9.7C130.1,47.5,151.1,44.3,173.4,41.5z M162.3,193c-0.2,0.1-0.4,0.3-0.5,0.5c-3.5,0-8.6-0.1-12.7-0.3
		c2.6-0.8,5.3-1.4,8-2c6.6-1.4,14.2-2.2,21.2-1.9c0.1,0.3,0.1,0.6,0.1,0.9C172.8,190.2,167.2,191,162.3,193z M177.1,193.3
		c-1.3,1.2-4.1,1-7.2,0.7C172.3,193.5,174.7,193.3,177.1,193.3z M148,187.5c9.1-2,19.5-2.9,29.2-1.8c0.1,0.2,0.2,0.4,0.2,0.6
		c-6.7-0.1-13.8,0.7-20.1,1.9c-4.5,0.9-8.9,2.2-13.2,3.6c-1,0.3-2.1,0.6-3.1,1c-2.9-0.1-6.7-0.1-10-0.5
		C136.4,190.3,142.1,188.8,148,187.5z M126.7,191.3c-1.3-0.5-2.3-1.1-2.8-2c7.3-3.3,15.8-5,23.3-6.3c7.8-1.3,15.7-1.6,23.6-1.4
		c1.6,0,3.2,0.1,4.8,0.3c0.2,0.5,0.4,1,0.6,1.4c-8.9-0.8-18.1,0.1-26.6,1.6C141.7,186.3,134,188.3,126.7,191.3z M158.4,140.1
		c0.2,0.4,0.5,0.8,0.7,1.2c-3,0-6.2,0.8-8.7,1.3c-3.3,0.7-6.4,1.7-9.4,3.1c0.1-0.1,0.2-0.3,0.2-0.4c0.4-0.6,0.8-1.3,1.3-2
		C147.5,140.7,152.7,138.9,158.4,140.1z M146,139c1.7-1.7,3.7-3,5.8-3.1c1.4-0.1,2.6,0.3,3.7,1.1C152.2,137,149,137.8,146,139z
		 M84.1,130.4c1.1-0.6,2.2-1,3.4-1.5c1.1,0.2,2.2,0.4,3.4,0.6c-5.4,2-10.7,4.5-15.3,8c0.1-0.7,0.3-1.4,0.4-2
		C78.5,133.4,81.3,131.8,84.1,130.4z M76.9,131.8c0.8-2.7,1.4-4.4,1.4-4.4s2,0.3,5,0.8c-0.7,0.3-1.4,0.7-2.1,1.1
		C79.8,130,78.3,130.8,76.9,131.8z M93.5,131.3c0.8-0.3,1.6-0.5,2.5-0.8c1.4,0.3,2.6,0.7,3.8,1c-2.3,0.6-4.5,1.4-6.6,2.2
		c-6.7,2.5-13.2,5.8-18.6,10.3c0.1-1,0.2-2,0.4-3C80.3,136.5,87,133.6,93.5,131.3z M94.7,135.6c2.9-1.1,6.1-2,9.5-2.6
		c1.6,0.7,2.6,1.1,2.6,1.1s-0.1,0.2-0.2,0.5c-5.4,0.6-10.7,2.4-15.4,4.4c-6.1,2.6-12.1,6-16.8,10.5c0-0.7,0-1.4,0.1-2.1
		C80,142.2,87.4,138.3,94.7,135.6z M92.4,141c3.9-1.7,8.4-3.1,12.9-3.7c-0.4,0.8-0.8,1.8-1.3,2.7c-4.4,0.7-8.7,2.1-12.6,3.7
		c-6.2,2.7-12.4,6.3-17.1,11.1c0-0.7,0-1.5,0-2.3C79.1,147.5,85.8,143.9,92.4,141z M92.8,145.8c3-1.3,6.4-2.4,9.8-3
		c-0.5,1-1,2-1.5,2.7c-4.1,0.9-8.1,2.4-11.8,4.3c-5.3,2.7-10.6,6.2-14.8,10.6c-0.1-0.8-0.1-1.6-0.2-2.4
		C79.3,152.5,86.1,148.7,92.8,145.8z M90.7,151.8c2.5-1.2,5.1-2.3,7.9-3c-1,1.1-2.1,2.2-3.4,3.4c-2.8,0.8-5.4,2-7.8,3.4
		c-4.4,2.6-8.8,5.8-12.4,9.6c-0.1-0.6-0.1-1.1-0.2-1.8C79.1,158.4,84.9,154.7,90.7,151.8z M88.9,157.5c0.2-0.1,0.4-0.2,0.6-0.4
		c-0.9,0.8-1.8,1.5-2.7,2.2c-5.2,4.1-11.1,10.9-11.1,10.9s-0.2-0.7-0.4-2C79.2,163.8,84.1,160.3,88.9,157.5z M90.7,88.9
		c-5.7-2-11.3-4.5-16.3-7.8c-0.4-0.6-0.7-1.3-0.9-1.9c5.9,3.9,13.3,6.7,19.2,8.6c9,2.9,18.2,4.2,27.5,4.7c-0.1,0.5-0.3,1-0.5,1.4
		C109.7,93.4,100.2,92.1,90.7,88.9z M118.4,96.1c-0.6,0.8-1.2,1.4-1.8,1.8c0,0-0.2,0-2.5,0.3c-8.5-1.1-16.7-3-24.7-6.3
		c-2.9-1.2-5.8-2.6-8.6-4.2c3,1.3,6.1,2.4,8.7,3.4C98.8,94.3,108.5,95.7,118.4,96.1z M98.9,86.8c-1.8-0.4-3.7-0.9-5.5-1.5
		c-6.3-1.9-12.5-4.5-18.1-8c-1.1-0.7-2.2-1.4-3.2-2.2c-0.1-0.5-0.3-1-0.4-1.4c6.5,4.5,15.3,7.7,22.1,9.6c8.9,2.5,18.1,3.7,27.3,4
		c-0.1,0.9-0.2,1.7-0.3,2.5C113.3,89.4,106.1,88.5,98.9,86.8z"/>
	<path id="XMLID_106_" fill="#346a7e" opacity="0.2" d="M16,119.6c0.1-0.9,0.3-1.8,0.5-2.9l-5.1-1.1c-0.2,1-0.5,2-0.7,3.1l5.3,1.1
		C16,119.7,16,119.6,16,119.6z"/>
	<path id="XMLID_105_" fill="#346a7e" opacity="0.2" d="M15.7,121.8l-5.4-1.1c-0.2,1-0.4,2.1-0.6,3.1l5.7,1.2C15.5,123.9,15.6,122.8,15.7,121.8z"
		/>
	<path id="XMLID_104_" fill="#346a7e" opacity="0.2" d="M17.9,110.7l-5.2-1.1c-0.2,1-0.5,2-0.7,3.1l5.1,1C17.4,112.8,17.7,111.7,17.9,110.7z"/>
	<path id="XMLID_103_" fill="#346a7e" opacity="0.2" d="M21.1,99.7l-5.4-1.4c-0.3,1-0.5,2-0.8,3l5.3,1.3C20.5,101.7,20.8,100.7,21.1,99.7z"/>
	<path id="XMLID_102_" fill="#346a7e" opacity="0.2" d="M19.3,105.6l-5.2-1.3c-0.3,1-0.5,2-0.8,3.1l5.2,1.3C18.8,107.6,19,106.6,19.3,105.6z"/>
	<path id="XMLID_101_" fill="#346a7e" opacity="0.2" d="M30.8,173.5l-9.1,6.5c0.6,0.8,1.2,1.7,1.9,2.5l8.9-6.4C31.8,175.2,31.3,174.3,30.8,173.5z"
		/>
	<path id="XMLID_100_" fill="#346a7e" opacity="0.2" d="M28.8,168.7l-10.3,6.8c0.6,0.8,1.2,1.7,1.8,2.6l9.6-6.3C29.4,170.6,29,169.6,28.8,168.7z"
		/>
	<path id="XMLID_99_" fill="#346a7e" opacity="0.2" d="M115.7,265.1c1,0.2,2.1,0.4,3.1,0.6l0.9-6.9c-1-0.2-2.1-0.4-3.1-0.7L115.7,265.1z"/>
	<path id="XMLID_98_" fill="#346a7e" opacity="0.2" d="M109.4,263.7c1,0.3,2,0.5,3.1,0.8l2.3-6.9c-1-0.3-2-0.6-3-0.9L109.4,263.7z"/>
	<path id="XMLID_97_" fill="#346a7e" opacity="0.2" d="M64.1,219.4l-7.4,5.6c0.7,0.8,1.3,1.6,2,2.4l7.3-5.5C65.3,221,64.7,220.1,64.1,219.4z"/>
</g>
<g id="XMLID_21_">
	<path id="XMLID_95_" fill="#346a7e" opacity="0.2" d="M402.3,115c-0.4-0.1-0.7,0.2-0.7,0.6c0,0.2-2.6,18.7,0.8,32.7c4.1,17.1,12.7,27.5,12.8,27.6
		c0.1,0.2,0.3,0.2,0.5,0.2c0.1,0,0.3-0.1,0.4-0.2c0.3-0.2,0.3-0.7,0.1-0.9c-0.1-0.1-8.5-10.3-12.6-27.1c-3.3-13.8-0.8-32-0.8-32.2
		C402.9,115.4,402.6,115,402.3,115z"/>
	<path id="XMLID_94_" fill="#346a7e" opacity="0.2" d="M405.6,118.6c-0.4-0.1-0.7,0.2-0.8,0.5c0,0.1-2.1,13.8,0.5,25.5c3,13.2,8.8,22.1,8.8,22.2
		c0.1,0.2,0.3,0.3,0.6,0.3c0.1,0,0.3,0,0.4-0.1c0.3-0.2,0.4-0.6,0.2-0.9c-0.1-0.1-5.7-8.8-8.6-21.7c-2.6-11.4-0.5-24.9-0.5-25
		C406.2,119,405.9,118.7,405.6,118.6z"/>
	<path id="XMLID_93_" fill="#346a7e" opacity="0.2" d="M408.7,119.8c-0.4-0.1-0.7,0.2-0.8,0.5c-0.1,0.5-2.3,11.6,0.1,21.9
		c2.6,11.3,7.3,18.5,7.5,18.8c0.1,0.2,0.3,0.3,0.6,0.3c0.1,0,0.3,0,0.4-0.1c0.3-0.2,0.4-0.6,0.2-0.9c0-0.1-4.8-7.3-7.3-18.3
		c-2.3-10-0.1-21.3-0.1-21.4C409.3,120.2,409,119.8,408.7,119.8z"/>
	<path id="XMLID_92_" fill="#346a7e" opacity="0.2" d="M411.5,121c-0.4-0.1-0.7,0.2-0.8,0.5c-0.1,0.3-1.5,7.1-0.4,14.9c1.3,9.3,4.7,14.6,4.9,14.8
		c0.1,0.2,0.3,0.3,0.6,0.3c0.1,0,0.2,0,0.4-0.1c0.3-0.2,0.4-0.6,0.2-0.9c0-0.1-3.4-5.3-4.7-14.3c-1.1-7.6,0.4-14.3,0.4-14.4
		C412.1,121.4,411.9,121.1,411.5,121z"/>
	<path id="XMLID_91_" fill="#346a7e" opacity="0.2" d="M395.1,107.9c-0.4,0-0.8,0.2-0.8,0.4c-6.4,41.2,3.4,71.9,24.8,84.4c0.2,0.1,0.6-0.1,0.6-0.5
		c0.1-0.3,0.1-0.8-0.2-1c-12.8-7.9-19.1-19.6-22.7-33.6c-3.8-15-3.7-33.9-1.1-49.2C395.9,108.2,395.6,107.9,395.1,107.9z"/>
	<path id="XMLID_90_" fill="#346a7e" opacity="0.2" d="M450.5,221c0.1,0,0.3-0.1,0.3-0.2c0.5-1.2,1.3-3.1,1.1-5.2c0-0.2-0.2-0.3-0.3-0.3
		c-0.8-0.1-1.3,0-1.8,0.1c-0.3,0-0.5,0.1-0.7,0.1c-0.2,0-0.4,0-0.6-0.1c-0.2-0.1-0.3,0-0.5,0.1c-0.8,0.9-1.6,2-2.5,3.1
		c-2.9,3.8-5.9,7.7-10.7,7.7c-4.5,0-5.9-3-7.5-6.2c-1.4-2.8-2.8-5.8-6.5-6.7c-0.1,0-0.2,0-0.3,0.1c-0.1,0.1-0.3,0.2-0.5,0.3
		c-0.8,0.6-1.8,1.4-2.3,2.4c-0.1,0.2,0,0.4,0.2,0.5c2.8,1.6,3.7,3.5,3.6,7.6c0,0.2,0.1,0.4,0.3,0.4c3.2,0.5,7.4,3.4,8.8,4.3
		c0.5,0.3,1,0.9,1.5,1.5c0.7,0.8,1.4,1.5,2,1.6c0.2,0,0.3,0,0.5,0c3.4,0,4.7-1.2,5.9-2.1c0.7-0.6,1.3-1.1,2.1-1.1
		c0.7,0.1,1.4,0.3,1.9,0.3c0.6,0,0.9-0.2,1.1-0.5c0-0.1,0-0.1,0-0.2c0-0.7-0.1-1.4-0.1-2.2c-0.1-1.4-0.3-2.8,0.1-3.5
		C445.9,222,448.2,221.3,450.5,221z"/>
	<path id="XMLID_89_" fill="#346a7e" opacity="0.2" d="M400.1,109.2c0-0.1-0.1-0.2-0.1-0.2c-0.1-0.1-0.2-0.2-0.5-0.3c-0.4,0-0.7,0.2-0.7,0.4
		c-3.1,14-2.5,33,1.5,47.4c1.6,5.7,6.5,20,17.4,29.6l0,0h0c0.1,0,0.2,0,0.3-0.3c0,0,0.3-0.6,0.1-0.8c-14.6-13.2-22.3-40.5-19.2-68
		C399.1,114.5,399.4,112.3,400.1,109.2z"/>
	<path id="XMLID_88_" fill="#346a7e" opacity="0.2" d="M390.9,107.7c-0.2-0.1-0.4-0.2-0.6-0.2c-0.2,0-0.4,0.1-0.7,0.2c-0.1,0-0.1,0.1-0.1,0.2
		c-8.7,47,6.9,78,31,94.5c0,0,0.9-0.3,0.7-1.3c0-0.2-0.3-0.5-0.4-0.5c-21.7-16.6-32.3-37.9-32.2-68.6c0-8.5,1.3-16.4,2.3-24.2
		C390.9,107.8,391,107.8,390.9,107.7z"/>
	<path id="XMLID_87_" fill="#346a7e" opacity="0.2" d="M414.5,121.7c-0.4-0.1-0.7,0.1-0.8,0.5c-0.1,0.2-1.3,5.2-0.8,9.8c0.6,5.8,2.1,9.2,2.2,9.4
		c0.1,0.2,0.4,0.4,0.6,0.4c0.1,0,0.2,0,0.3-0.1c0.3-0.1,0.5-0.5,0.3-0.9c0,0-1.5-3.4-2.1-9c-0.5-4.4,0.7-9.3,0.7-9.3
		C415.1,122.2,414.9,121.8,414.5,121.7z"/>
	<path id="XMLID_86_" fill="#346a7e" opacity="0.2" d="M417.3,124.8c-0.4-0.1-0.7,0.1-0.8,0.5c-0.9,3.1,0.2,5.5,0.2,5.6c0.1,0.2,0.4,0.4,0.6,0.4
		c0.1,0,0.2,0,0.3-0.1c0.3-0.1,0.5-0.5,0.3-0.9c0,0-0.9-2-0.1-4.7C417.8,125.3,417.6,124.9,417.3,124.8z"/>
	<path id="XMLID_85_" fill="#346a7e" opacity="0.2" d="M423.2,189.6c0,0.1,0.1,0.2,0.2,0.3c0,0,0.1,0,0.1,0c0.1,0,0.2,0,0.2-0.1
		c6.2-4.9,11.8-7.2,17.3-7.2c1.9,0,3.7,0.3,5.5,0.8c0.1,0,0.2,0,0.3,0c0.1-0.1,0.2-0.2,0.2-0.3c0.1-0.4,0.2-0.8,0.4-1.2
		c0.2-0.5,0.4-1.1,0.5-1.8c0-0.2-0.1-0.4-0.3-0.4c-1.4-0.3-2.8-0.4-4.2-0.4c-3.7,0-6.9,0.9-10.4,1.8c-3.3,0.9-6.7,1.8-10.7,2.1
		c-0.1,0-0.2,0.1-0.3,0.2c-0.1,0.1-0.1,0.2,0,0.4c0.5,1.2,0.6,2.2,0.8,3.5C422.9,188,423,188.7,423.2,189.6z"/>
	<path id="XMLID_84_" fill="#346a7e" opacity="0.2" d="M386.1,107c-0.4,0-0.8,0.2-0.9,0.4c-0.5,1.1-0.9,3-1.2,4.3l-0.1,0.6
		c-3.2,13.8-3.2,33.8,0,46.5c2,8.1,5.1,16,8.5,22.1c5.1,9,12.9,16.9,18.6,22c1.1,1,5,4.3,6.3,5c0.1,0.1,0.3,0.1,0.4,0.1
		c0.3,0,0.6-0.2,0.8-0.4c0.3-0.4,0.4-1.1,0.3-1.6c0-0.1-0.1-0.1-0.1-0.2c-12.4-10.1-20.4-19.3-25.8-29.9c-2.9-5.2-4.9-11.2-7-18.6
		c0-0.4-0.2-1.2-0.4-2.1c-0.2-0.8-0.4-1.6-0.4-2c-1.7-11.4-1.7-23.4,0-35.7c0.6-4,1.3-6.4,1.8-8c0.2-0.6,0.3-1.1,0.4-1.6
		c0-0.1,0-0.2,0-0.2C387,107.2,386.5,107,386.1,107z"/>
	<path id="XMLID_83_" fill="#346a7e" opacity="0.2" d="M419,220.4c0-0.1-0.1-0.2-0.3-0.2c-6.3-1.5-10.8-4.2-13.6-8.1c-0.1-0.1-0.3-0.2-0.4-0.1
		c-0.6,0.2-1.2,0.1-1.9,0.1c-0.6-0.1-1.3-0.2-2.2-0.1c-0.1,0-0.2,0.1-0.3,0.2c-0.1,0.1-0.1,0.2,0,0.3c4.6,12.6,15.2,19.4,26,24.8
		c0.1,0,0.1,0,0.2,0c0.1,0,0.2,0,0.3-0.1c1.6-1.5,2.8-3.5,4-5.3l0.2-0.3c0.1-0.2,0.1-0.4-0.1-0.5c-3.1-2.7-7.4-4.3-11.6-5.6
		c0-0.5,0-1,0-1.5C419.3,222.8,419.3,221.4,419,220.4z"/>
	<path id="XMLID_82_" fill="#346a7e" opacity="0.2" d="M435.6,154.8c-2.4,0.2-5.1,0.3-5.5,0.3l-0.2,0c-2.1,0-4.5-0.1-6.5-0.6c-0.2,0-0.3,0-0.4,0.2
		c-0.8,1.2-1.5,3.9-0.6,5.7c0,0.1,0.1,0.2,0.2,0.2c0,0,0.1,0,0.1,0c0.1,0,0.1,0,0.2,0c0.7-0.4,1.4-0.8,2.1-1.3
		c1.7-1,3.4-2.1,5.4-2.4c1.2-0.2,2.5-0.3,3.7-0.3c2.5,0,4.2,0.4,5.3,0.6c0.5,0.1,0.8,0.2,1,0.2c0.5,0,0.5-0.4,0.6-0.4
		c0-0.3,0-0.7,0-1c0-0.3,0-0.7,0-1c0-0.1,0-0.2-0.1-0.3c-0.1-0.1-0.2-0.1-0.3-0.1C440.1,154.5,437.9,154.6,435.6,154.8z"/>
	<path id="XMLID_81_" fill="#346a7e" opacity="0.2" d="M418.6,146C418.6,146,418.6,146,418.6,146c-0.1,0-0.3,0.1-0.3,0.2c-0.1,0.1-0.1,0.2,0,0.4
		c0.8,1.9,2,3.4,3.2,4.8c0.2,0.3,0.5,0.6,0.7,0.9c0.1,0.1,0.2,0.1,0.3,0.1c0,0,0,0,0,0c2.4-0.1,4.7-0.2,7-0.3
		c6.4-0.3,12.4-0.6,18.5-1.1c0.1,0,0.1,0,0.2-0.1c3.2-2,7.2-9.1,4.2-14.9c-0.1-0.1-0.2-0.2-0.4-0.2c-0.7,0-1,0.4-1,1
		c0.3,5.9-2.6,8.8-5.4,11.6c-0.4,0.1-0.7,0.1-1.1,0.1c-1.8,0-2.4-1.1-3.2-2.4c-0.3-0.5-0.5-1-0.9-1.4c-0.1-0.1-0.2-0.1-0.3-0.1
		c-9.9-0.4-16.6-2.3-17.6-10.4c0-0.1-0.1-0.2-0.2-0.3c-0.6-0.3-1.2-0.5-1.7-0.7c-0.3-0.1-0.6-0.2-0.8-0.3c-0.1-0.1-0.2-0.1-0.3,0
		c-0.1,0.1-0.2,0.1-0.2,0.3c-0.8,3.4-0.3,6.7,0.2,9.7c0.1,0.9,0.3,1.8,0.4,2.6C419.9,145.7,419.6,146,418.6,146z"/>
	<path id="XMLID_80_" fill="#346a7e" opacity="0.2" d="M421.7,126.3c0,0,0.1,0,0.1,0c0.1,0,0.2,0,0.3-0.1c2.4-2.2,6.4-3.6,10.8-3.6
		c1.5,0,2.9,0.1,4.4,0.4c0.1,0,0.2,0,0.3-0.1c0.1-0.1,0.1-0.2,0.1-0.3v-2.3c0-0.2-0.1-0.3-0.3-0.4c-2.2-0.4-5.6-1-8.7-1
		c-4.3,0-7,1.1-8,3.4c-0.2,0.4,0,1.1,0.4,2.7c0.1,0.3,0.2,0.7,0.3,1C421.5,126.1,421.6,126.2,421.7,126.3z"/>
	<path id="XMLID_79_" fill="#346a7e" opacity="0.2" d="M420.4,131.5c0.8,0.6,2.1,1.3,2.6,1.3c0.1,0,0.2,0,0.2-0.1c0.6-0.3,1.2-0.8,1.9-1.4
		c0.9-0.8,2-1.6,3.3-2.1c2.1-0.8,3.7-0.8,6.1-0.8c0.5,0,1.1,0,1.7,0c0.1,0,0.2-0.1,0.3-0.1c0.1-0.1,0.1-0.2,0.1-0.3
		c0-0.3-0.1-0.5-0.2-0.7c-0.1-0.4-0.2-0.7-0.1-1.2c0-0.1,0-0.2-0.1-0.3c-0.1-0.1-0.2-0.1-0.3-0.1c-0.5,0-1.1,0-1.6,0
		c-7.8,0-12.5,1.9-14,5.5C420.2,131.2,420.3,131.4,420.4,131.5z"/>
	<path id="XMLID_78_" fill="#346a7e" opacity="0.2" d="M444.9,119.4c-0.2,0.1-0.3,0.2-0.3,0.4c0.1,4.2,1,7.6,2.7,10.2c0.1,0.1,0.2,0.2,0.3,0.2
		c0,0,0.1,0,0.1,0c0.2,0,0.3-0.2,0.3-0.3c0.4-1.8,0-2.9-0.4-3.9c-0.3-0.9-0.6-1.7-0.5-2.9c2.3-1,4.4-4,5.3-7.2c0.7-2.8,0.4-5.3-1-7
		c-0.1-0.1-0.3-0.2-0.5-0.1c-0.2,0.1-0.3,0.2-0.2,0.4C451.3,113.8,449,117.9,444.9,119.4z"/>
	<path id="XMLID_77_" fill="#346a7e" opacity="0.2" d="M510.3,78.1c-0.7-0.5-1.2,1-0.6,1.4c3.5,2.3,6.6,5.3,8.8,9c0.5,0.8,1.4-0.3,1-0.9
		C517.2,83.7,514.1,80.5,510.3,78.1z"/>
	<path id="XMLID_76_" fill="#346a7e" opacity="0.2" d="M405.1,76c-0.1,0-0.1,0-0.2,0c-10.4-1.2-20.4,0.6-29.8,5.3c-1,0.5-0.8,2,0.4,1.5
		c7.7-3.8,15.8-5.6,24.3-5.4c0,0.1-0.1,0.1-0.1,0.2c-0.1,0.7-0.4,1.7-2.4,1.8c-6.2-0.9-11.5,0.5-16.9,4.4c-0.6,0.4,0.4,0.9,0.9,0.5
		c4.6-3.3,9.2-4.7,14.4-4.3c0,0.2,0.1,0.3,0.1,0.4c0.1,0.2,0.1,0.2,0,0.4c-3.3,1.1-5.8,2.5-8.2,3.9c-1.7,1-3.5,1.9-5.5,2.8
		c-0.1,0-0.2,0.1-0.2,0.3l-0.1,0.2c-0.2,0.6-0.5,1.6-0.1,2.2c0.2,0.3,0.4,0.4,0.7,0.5c0,0,0,0,0.1,0c0.1,0,0.1,0,0.2-0.1
		c3.8-2.4,8.4-4.2,12.8-5.9c4.4-1.8,9-3.6,12.9-6c0.4,0.1,0.9,0.2,1.3,0.2c1.8,0,3.3-1,4.7-2c0.2-0.1,0.4-0.3,0.6-0.4
		c1.8-0.7,3.6-0.8,5.8-0.4c1.2,0.2,2.4,0.5,3.6,0.8c-0.1,0-0.1,0-0.2,0c4.8,0.9,11.5,4.3,19.9,1.7c3.4-0.8,6.6-2.3,9.8-4.4
		c0.5-0.3,0.4-1.4-0.2-1c-3.6,2.4-7.3,4.1-11.7,4.9c-4.6,0.8-9.5-0.3-14-1.4c-1.7-0.4-3.3-0.8-4.8-1.1c-0.5-0.1-1.1-0.3-1.6-0.4
		c-1.1-0.2-2.3-0.5-3.2-0.9c0-0.2,0.2-0.3,0.5-0.5c0.3-0.2,0.8-0.4,0.9-0.9c0-0.1,0-0.2-0.1-0.3c-0.1-0.1-0.2-0.2-0.3-0.2
		c-2.6,0-3.1-3.1-3.4-6.6l0-0.4c-0.6-7.1,0.6-15.9,3.7-19.6c0,0.1,0,0.1,0,0.2c0.4,2.1,1.8,4.2,3.9,4.9c0.7,0.2,1.8-0.8,0.9-1.1
		c-1.9-0.6-2.9-2.4-3.3-4.2c-0.1-0.4-0.6-0.5-1-0.3c0.2-0.2,0.3-0.3,0.5-0.4c0,0,0.1-0.1,0.1-0.1c0.1-0.2,0.3-0.4,0.4-0.7
		c0.2,1.7,1.1,3.2,2.4,4.4c0.6,0.5,1.8-0.1,1-0.8c-1.3-1.1-1.9-2.8-1.9-4.5c0-0.4-0.4-0.6-0.8-0.6c0.3-1.1,0.1-2.1-0.1-3
		c-0.1-0.6-0.2-1.1-0.2-1.6c0.1-2.5,0.5-4.1,1.3-5.4c-0.3,4.8-0.6,9.1,2.2,13.3c0.4,0.5,1.7,0.4,1.3-0.3c-2.7-4-2.4-8.2-2.1-12.8
		c0-0.5-0.6-0.8-1.1-0.6c0.9-1.1,2-1.9,3.4-2.9c0.4-0.3,0.8-0.6,1.3-0.9c0.1-0.1,0.2-0.3,0.1-0.4c-0.1-0.2-0.2-0.3-0.4-0.3
		c-1.2,0-3.5,0.2-4.8,0.6c-6.1,2-6.9,7.9-7.8,14.8c-0.2,1.6-0.4,3.2-0.7,4.8c-2.3,4.7-4,12.1-4.1,18c0,1,0.1,2,0.2,2.9
		c0.2,1.2,0.3,2.4,0.1,3.4C410.2,73.4,407.7,75,405.1,76z"/>
	<path id="XMLID_75_" fill="#346a7e" opacity="0.2" d="M520.2,81.7c0.2-0.1,0.3-0.2,0.3-0.4c0-1.6,0.7-2.5,1.4-3.4c0.7-0.9,1.5-1.9,1.5-3.6
		c0-0.1,0-0.2-0.1-0.3c-7.2-8.8-18.1-13.9-30.1-13.9c-2.2,0-4.5,0.2-6.8,0.5c-0.2-0.1-0.6-0.7-0.9-1c-0.4-0.5-0.8-1-1.2-1.2
		c-0.1-0.1-0.3-0.1-0.4,0c-4.1,2.6-11.7,6.1-14.8,7.5c-0.1,0-0.2,0.1-0.2,0.2c-1,2.6-3.3,4.2-6,4.2c-1.9,0-3.7-0.8-5.1-2.3
		c-0.1-0.1-0.3-0.1-0.4-0.1c-0.1,0-0.2,0.2-0.3,0.3l-0.2,1c-0.4,2.3-0.8,4.6-1,7.2c0,0.2,0.1,0.3,0.2,0.4c1.5,0.8,2.9,1.5,4.3,2.3
		c7,3.8,14.3,7.8,24.2,8.5c0.3,0,0.6,0,1,0l1.2,0c0.5,0,1,0,1.3,0.1c0.7,0.2,1.5,0.5,2.2,0.7c0.7,0.2,1.4,0.4,1.8,0.5
		c0,0,0.1,0,0.1,0c0.1,0,0.3-0.1,0.3-0.2c0,0,2.4-4.1,1.8-4.8c-0.6-0.7-2.3-1.3-4.9-2c-1.2-0.4-2.2-1-3.2-1.6
		c-1-0.6-1.9-1.2-2.9-1.4c-0.4-0.1-0.8-0.1-1.3-0.1c-1.2,0-2.3,0.3-3.4,0.6c-1.1,0.3-2.1,0.5-3.1,0.5c-0.4,0-0.7,0-1-0.1
		c-1.8-0.4-3.7-1.9-4.9-3c-0.6-0.6-0.8-0.9-0.9-1c0-0.1,0.2-0.6,0.3-0.8c0.1-0.1,0.1-0.2,0.2-0.4c2-4.7,6-8.1,12.5-10.5
		c0.3,0.2,0.6,0.4,0.9,0.6c1.2,0.8,2.5,1.7,4.3,2c0.2,0,0.4-0.1,0.4-0.3c0.2-0.8,0-1.3-0.3-2c-0.1-0.2-0.2-0.5-0.2-0.7
		c1.3-0.1,2.7-0.1,4-0.1c12.5,0,22.8,4.1,28.2,11.3c-0.4,0.4-0.8,0.8-1.2,1c-1.4-0.9-3.4-2-5.2-2.6c-0.1,0-0.2,0-0.3,0.1
		c-0.2,0.1-0.3,0.3-0.3,0.5c0,0.7,1.1,1.6,3.1,3.2c1.6,1.3,3.5,2.8,4.4,4.1C519.8,81.7,520,81.7,520.2,81.7z"/>
	<path id="XMLID_74_" fill="#346a7e" opacity="0.2" d="M457.8,203.4c0.1,0,0.3,0,0.4-0.1c0.1-0.1,13.4-11.2,22.7-29.2
		c8.9-17.4,10.1-38.2,10.1-38.4c0-0.3-0.2-0.6-0.6-0.7c-0.3,0-0.6,0.2-0.7,0.6c0,0.2-1.2,20.8-10,37.9
		c-9.2,17.8-22.3,28.7-22.4,28.8c-0.3,0.2-0.3,0.6-0.1,0.9C457.4,203.3,457.6,203.4,457.8,203.4z"/>
	<path id="XMLID_73_" fill="#346a7e" opacity="0.2" d="M427.9,33.5c-0.9,2.3-0.3,4.7,0.9,6.7c0.4,0.8,1.5-0.3,1.1-0.9c-1-1.7-1.6-3.7-0.8-5.6
		C429.4,32.7,428.2,32.7,427.9,33.5z"/>
	<path id="XMLID_72_" fill="#346a7e" opacity="0.2" d="M383.3,14.7c2.2,0.1,7,0.7,10.5,0.8c3.5,0.1,3.9-0.8,4.9-1.2c1.9-0.8,4.4-1.4,8.5-2
		c7.4-1.2,20.9-1.6,28.6-1.2c8.6,0.5,19,2,26.6,2.3c7.6,0.3,14.3,1.7,19.5,2.1c4.7,0.4,6-2.6,11.3-2.7c4.1-0.1,6.1,1.7,9.4,3.1
		c3.4,1.4,7.9,2.7,9.3,3.2c1.4,0.5,2.3-0.2,3.1-1.1c0.8-0.9,0.4-1.6-0.6-2.3c-1-0.6-9.5-6.9-20.1-8.3c-5.3-0.7-9.5-0.6-12.9-0.8
		c-3.4-0.1-7.9-0.9-11.8-1.1c-5.8-0.3-5.2,0.3-14.1-0.1c-8.8-0.4-22.7-2.9-31.2-2.5c-3.6,0.2-8.5,0.4-13,1c-3,0.4-9.8,2.1-13.1,2.7
		c-9.7,2-15.2,5-17.1,6.6C378.7,15.3,381.1,14.6,383.3,14.7z"/>
	<path id="XMLID_68_" fill="#346a7e" opacity="0.2" d="M559.4,75.7c-4.4-12.2-18.3-33.8-21.9-39.3c-3.6-5.4-8-7.1-11.1-10.8
		c-3.1-3.6-5.3-5.6-5.3-5.6s-0.9-0.9-1.4-0.7c-0.6,0.2-1,0.5-2,0.9c-0.9,0.4-2.5,1-2.6,1.4s1.3,1.4,3.3,2.9c1.8,1.4,3.1,2.3,4.4,3.8
		c1.4,1.6,2.1,2.5,2.3,3.9c0.1,0.8,0.7,1,1.4,1.5c0.8,0.5,1.5,1.3,1.7,0.4c0.2-0.9,0.1-2.2,0-2.6c-0.1-0.5,0.1-1.4,0.9-0.3
		c0.8,1.1,8.5,13.9,11.7,19.3s8.5,13.8,10.8,17.7c2.3,3.9,4.5,6.4,5.5,8.7c1.8,4.3,4.4,13.6,5.4,19.6c1.1,6,1.4,7.5,2.5,9.7
		c1.2,2.2,2.4,3.4,3.7,7.4c1.3,4,3.7,15.7,3.8,24.9c0.1,9.1-3.9,29.8-7.5,38.4c-7,16.8-8.5,16-10.9,18.4
		c-4.7,4.8-12.4,22.8-15.7,26.4c-2,2.1-7.7,7.5-14.3,12.7c-6.1,4.8-13.1,9.3-17.5,11.8c-5.6,3.2-21.2,10.1-27.3,11.7
		c-6.1,1.6-9.8,3.3-24.6,4.9s-27.7-2-31.5-3.2c-3.8-1.2-16.1-6.2-24.8-9.7c-8.7-3.5-21.1-7.5-24.8-9.6S362.4,231,359,229
		c-3.4-2-3.9-0.1-13.6-7.7c-9.7-7.6-11.9-11.6-12.3-12.5c-0.2-0.5-0.3-1.2-0.3-1.8c0.1,0,0.2,0.1,0.3,0.1c6.8,4.8,11.9,14,20.2,16.7
		c4.5,1.5,8,4.9,12.6,6.7c0.4-10.8,8.1-16.6,12.6-24.3c-8.9-11.2-15-25.2-18.8-41.6c-0.8-9.2-3-23.3,5-26.7
		c0.7-8.2,1.9-18.4,4.4-25.8c-2.4-3.8-0.8-10.5-1.2-15.2c0-0.6-0.2-1.8-0.7-2.1c-0.4-0.3-1.1,0.1-1.9,1.1c-1.4,1.6-2.1,4-4.2,5
		c-1-0.3-2-0.8-2.9,0.1c-0.4,0.4-2.9,2.6-4.1,3c-0.6-0.4-1.4-0.9-1.9-1.8c-0.2-0.3,2.5-4.9,5-10.1c0.2-0.5,0.6-1.4,0.2-1.7
		c-1.9-0.6-2.2,0.6-4.1,2.7c-2.6,2.5-5.9,6.1-6.7,6.2c-0.2,0-0.9-0.9-1.6-2.1c4.8-4.2,5.1-6.6,8.5-11.5c0.9-1.1,4.1-3.5,5.3-5
		c0.7-0.9,0.2-1.1-0.2-1.8c-6,3.8-10.1,7.8-15.5,13.8c-0.3,0-1-1-0.9-1.5c2.7-4.2,5.6-8.1,9.1-11.4V76c3.9-3.5,8.5-6.2,13.2-8.8
		c6.8-0.6,12.4-3.4,18.8-4.4c1.2-0.2,3.5-0.6,5-0.6c6.4,0.3,12.1,10.6,17.6,9.7c2.1-3.3,0.8-8.2,1.5-12.6c1.5-5.5,4.3-9.8,4.7-16.4
		c0.9-8.3,3.1-15.5,10.8-17.6c5.4-1.4,9.3,0.7,13.2,2.6c5.5,6.9,15.6,13.5,19.9,22.3c1.6,3.3,0.3,9.4,1.8,12.9
		c2.5,0.6,3,3.5,5.3,3.5c2.7,0.1,3.9-4.2,7-4.7c6.3-0.4,9.7-3.8,13.2-7c2.2,1.9,4.9,1.5,7.9,1.5c15-0.1,29.6,6.4,34.9,16.1
		c1.7,3.2,0.6,6.7-0.9,9.4c1.5,1.5,4.8,2.5,3.8,5.6c0.8,0.4,1.5-0.4,1.8,0.9c-0.4,3.1-5.4,1.9-6.7,3.2c1.2,0.5,2.3,1,2.6,2.3
		c-2.2,0.3-3.6,1.9-5.3,2.1c-6.5,0.7-8.6-9-14.7-9.7c0.5,1.4-0.9,1.1-0.9,2.1c4.2,2.1,13.9,9.3,8.5,13.2c-3.6-0.3-8.9,0.5-12.6,1.8
		c-0.4,4.2-0.1,8.8,1.2,12.3c0.9,2.5,3.8,5.3,3.8,6.7c0,0.5-1.6,2.1-1.8,2.6c-1.4,3.4-1.9,6.9-1.5,11.4c0.6,6.7,1.7,13.8,0.9,19.9
		c-0.7,4.9-1.9,10.2-3.2,14.7c-2.5,8.4-7.6,16.3-9.4,25.8v3.5c-5.2,2.4-9.1,6.1-12.3,10.6c-0.5,0.7,3,3,2.6,3.5
		c-2.8,3.5-3.9,10.8-6.4,17c-2.7,3.4-8.7,7.3-11.8,11.3c-0.3,0.4,1.7,2.6,1.4,3.2c-0.2,0.4-1.7,3.1-3.4,3.4
		c-1.1,0.2-1.8-0.7-2.9-0.9c-5.6-1-9.7,1.7-12.4,2.7c-0.2,0.1-0.7,0.4-1,0.2c-0.3-0.2-0.2-0.6-0.2-0.9c-0.4-2.8-1.9-5.2-3.1-6
		c-4.1-3-12.3-2.2-13.3,3.5c-0.2,1-0.4,1.8-0.6,2.4c-0.1,0.3-0.4,0.7-1,0.8c-0.7,0.2-1.6-0.7-2.4-1.2c-5.6-3.8-12.4-8.9-14.1-9.5
		c-0.7-0.3-2.3,0-2.9-0.4c-5.3-3.2-8-9-13.8-11.7c-2.1-0.2-1,3.3-1.2,5.3c-0.3,2.1-2,6.3-3.5,5.6c-5.4-1.8-11.3-3.1-13.8-7.9
		c-0.2,0-0.4,0-0.3-0.3c-1.7,0-2.2,1.3-2.6,2.6c2.8,3.2,5.7,5.9,10.8,7.3c13.6,1.6,23.4,12.1,36.9,15.5c0.8,0.2,2,0.5,2.9,0.6
		c5.7,0.6,11.1,0.7,17,1.8c3.4,0.6,5.9,1.7,9.9,0.6c4.3-1.7,7.2-0.2,10.4-0.6c5.9-0.7,13.3-4.2,18.5-5.9c4.9-1.6,10.8-3.3,16.3-4.3
		c2.9-0.4,9.2-3.4,12.1-5.4c15.3-10.5,24.9-24,34.3-39.9c2-3.4,3.8-7.1,6.5-8.5c8.8-4.7,12.7-11.8,15.2-21.7c1-4.4,1.4-5.8,2.3-9.1
		c3.3-11.5,3.6-26.2,2.9-38.1c-0.6-11.1-10.3-23.7-11.3-34c-0.7-7.9-2.5-12.5-5.2-17.7c-1.4-2.9-9.4-11.6-15.7-23.4
		c-2.2-4.1-4.9-8.2-8.2-12c-3.2-3.7-6-8.3-9.1-11.1c-3.6-3.2-9.2-5-13.5-7.6c-2.9-1.8-5.6-3.8-8.2-5c-6.1-2.7-10.4,2.9-16.4,3.2
		c-2.6,0-2.9-0.2-5-0.9c-13.1-4.3-31.4-1.9-47.5-3.2c-6.5-0.5-13-1-18.8,0c-4.6,0.8-7.3,2.5-10.7,4.5c-1.4,0.8-3.6,0.6-4.2,1.9
		c-0.6,0.9-0.6,2-0.8,2.7c-0.9,2.3-1.6,4-1.8,7c-0.2,2.1-0.4,4.4-1.8,3.5c-3.3-3.1-7.5-5.2-11.4-7.6c-1.1-0.7-1.8-0.3-2.8,1.2
		c-1.6,2.4-3.2,2.8-6.3,4.1c-6.3,1.5-11.2,4.5-14.4,9.1c-1.8,2.7-2.9,6.9-4.7,9.4c-3.7,5.4-8.7,10.4-13.2,15.8
		c-4.5,5.5-8.2,11.6-12.3,17c-4.3,5.7-10.9,11.6-11.5,21.1c-1.7,20.8-5.1,40.1-1.1,62.2c0.3,1.8,0.7,2.9,1.5,5.4
		c3.9,8.4,2.2,10.2,3.1,11.9c1.5,3.3,8.6,4.3,16.1,4c0.8,0,1.6-0.3,2.3-0.2c2,0.6,2.2,2.4,2.6,4.5c0.2,0.6,1,1.5,1.1,2
		c-0.2-0.3-0.6-0.7-1.6-1.5c-0.7-0.6-1.2-1.2-2.2-1.7c-1.9-0.8-3.2-0.3-6.1,0.3c-2.7,0.6-3.8,1.1-6.7,1.3c-4.9,0.2-6.1-2.9-7.3-6.6
		c-1.2-3.7-1.3-6.8-2-11.5c-0.7-4.7-1.8-3.7-3.2-7.6c-1.4-3.9-2.2-8.6-2.2-13c0-4.4,0.4-7.2,0.1-9.9c-0.2-2.7-1-3.7-1.1-10.4
		c-0.1-6.7,3.1-12.5,3.3-19c0.2-6.5,0-7.5,2.6-15.4c2.6-7.9,7.9-12.4,10.9-16.7s4.3-8,9.9-15.5c5.6-7.5,9.8-11.7,13.5-16
		s5.4-8.7,7.8-12.1c2.4-3.3,5.3-4.2,8.6-6.5c3.3-2.3,9.7-3.2,9.1-3.9c-0.3-0.3-3.1,0-4.1-1.7c-1-1.7,0-3-0.7-3.1
		c-0.6-0.1-9,6.4-14.3,11.7l-0.2-0.1l-0.8-0.3c0,0-1,0.7-2.3,1.7l1.2,1.1c-0.6,0.8-1.2,1.6-1.7,2.4l-1.8-1.6
		c-0.8,0.7-1.6,1.4-2.4,2.1l2.6,2.3c-0.4,0.6-0.7,1.2-1.1,1.8l-3.1-2.6c-0.4,0.4-0.7,0.8-1,1.1c-0.3,0.3-0.6,0.8-1,1.3l3.3,2.8
		c-0.6,1-1.2,1.8-1.7,2.5l-3.3-2.8c-0.5,0.8-1.1,1.7-1.7,2.7l3.2,2.7c-0.4,0.6-0.8,1.1-1.2,1.7l-3.1-2.6c-0.5,0.9-1.1,1.8-1.7,2.7
		l2.9,2.4c-0.4,0.5-0.7,1-1.1,1.5c-0.2,0.3-0.4,0.6-0.7,0.9l-2.7-2.3c-0.6,0.9-1.2,1.8-1.7,2.6l2.6,2.1c-0.4,0.6-0.8,1.1-1.2,1.7
		l-2.6-1.9c-0.6,0.9-1.2,1.7-1.8,2.6l2.6,1.9c-0.6,0.8-1.2,1.6-1.8,2.4l-2.7-2c-0.5,0.6-1,1.1-1.4,1.6c-0.2,0.2-0.5,0.5-0.7,0.7
		l2.9,2.1c-0.4,0.6-0.9,1.1-1.3,1.6l-3-2.2c-0.7,0.8-1.3,1.6-2,2.4l3,2.2c-0.6,0.7-1.2,1.5-1.8,2.3l-2.9-2.2
		c-0.6,0.8-1.2,1.7-1.8,2.6l2.9,2.1c-0.4,0.5-0.8,1.1-1.2,1.8c0,0,0,0,0,0l-3.1-1.8c-0.6,0.9-1.2,1.8-1.7,2.6l3.1,1.9
		c-0.5,0.9-0.9,1.7-1.4,2.6l-3.3-2c-0.6,1-1.2,1.9-1.6,2.7L316,89c-0.3,0.7-0.6,1.3-0.9,1.9l-4.3-1.6c-0.5,0.8-1,1.8-1.6,2.8
		l4.5,1.7c-0.5,1.1-0.9,2-1.3,2.7l-4.7-1.7c-0.5,0.9-1,1.9-1.5,2.8l4.5,1.7c-0.3,0.6-0.7,1.1-1,1.8l-4.5-1.6c-0.5,1-0.9,1.9-1.4,2.8
		l4.6,1.7c-0.3,0.8-0.6,1.7-0.9,2.8l-4.9-1.8c-0.3,0.7-0.6,1.3-0.8,1.9c-0.1,0.3-0.3,0.7-0.4,1l5.3,1.9c-0.1,0.4-0.2,0.8-0.3,1.3
		c-0.1,0.3-0.1,0.6-0.2,0.9l-6-1c-0.3,0.9-0.6,1.9-0.9,3l6.4,1.1c-0.2,1-0.3,2-0.4,3l-6.6-1.1c-0.2,0.9-0.3,2-0.5,3.1l6.9,1.2
		c0,0.7,0,1.4-0.1,2.1l-7.1-0.4c-0.1,1-0.2,2-0.2,3.1l7.3,0.5c0,1,0,2,0,3l-7.5-0.5c0,1-0.1,2-0.1,3.1l7.6,0.5c0,0.7,0,1.3-0.1,2
		c0,0,0,0.1,0,0.1l-7.5-0.5c0,1,0,2.1,0,3.2l7.4,0.5c0,1,0,2,0,3l-7.3-0.5c0,0.4,0,0.7,0,1.1c0,0.7,0,1.4,0.1,2.1l7.3,0.5
		c0,0.6,0,1.3,0.1,2l-7.3,0.6c0,1.1,0.1,2.2,0.1,3.1l7.3-0.6c0,1,0.1,2,0.2,3l-7.3,0.6c0,1.1,0.1,2.2,0.1,3.1l7.4-0.6
		c0.1,0.7,0.1,1.4,0.2,2.1l-7.5,0.6c0.1,1.1,0.1,2.2,0.2,3.1l7.6-0.6c0.1,1.1,0.3,2,0.5,2.9l-7.9,0.6c0.1,1.2,0.3,2.2,0.4,3.1
		l8.3-0.6c0.2,0.6,0.5,1.2,0.7,1.8l-8.4,1.8c0.3,1,0.6,2,0.9,3l8.7-1.9c0.4,0.9,0.8,1.9,1.1,2.8l-8.8,1.9c0.4,1,0.7,2,1,3l8.5-1.8
		c0.1,0.6,0.2,1.1,0.3,1.7l-8,3c0.3,1.1,0.5,2.1,0.7,3.1l7.7-2.9c0.1,0.9,0.3,1.8,0.6,2.9l-7.6,2.9c0.2,1.1,0.5,2.1,0.8,3.1l7.7-2.9
		c0,0,0,0.1,0,0.1c0.2,0.6,0.4,1.2,0.7,1.9l-7.7,3c0.4,0.9,0.8,1.8,1.4,2.8l7.7-2.9c0.5,0.9,1,1.8,1.6,2.6l-7.7,3
		c0.6,0.9,1.1,1.8,1.8,2.7l7.8-3c0.3,0.4,0.6,0.8,0.8,1.1l-6.7,4.8c0.6,0.9,1.2,1.7,1.9,2.5l7-5c0.7,0,2.8-0.3,5.6-2.4
		c1.6-1.2,2.7-2.2,4.2-3c2.7-1.5,3.3-1.6,4.6-1.9c0.9-0.2,1.6-0.3,2.1-0.2c0.2,0,0.6,0.2,0.9,0.2c-0.2,0.5-0.7,1.5-1.2,1.7
		c-0.8,0.3-1.3-0.8-1.7-0.5c-0.5,0.3-5,3-6.4,4.2c-1.3,1.1-3.2,2-4.3,3l-8.8,6.3c0.7,0.9,1.3,1.7,1.9,2.5l7.3-5.3
		c0.3,0.5,0.7,1.1,1.1,1.8L320,213c0.7,0.9,1.4,1.8,1.9,2.5l7-5c0.5,0.8,1.1,1.6,1.7,2.4l-6.9,5c0.6,0.8,1.2,1.6,1.9,2.5l6.8-4.9
		c0.3,0.4,0.6,0.8,0.9,1.2l-5.8,6.1c0.6,0.7,1.3,1.5,2.1,2.4l5.6-6c0.6,0.8,1.3,1.6,1.9,2.3l-5.6,5.9c0.2,0.2,0.4,0.5,0.6,0.7
		c0.5,0.5,1,1.1,1.5,1.6l5.5-5.9c0.3,0.3,0.7,0.7,1,1c0.2,0.2,0.3,0.3,0.5,0.5l-5.5,5.9c0.8,0.7,1.6,1.4,2.4,2l5.4-5.7
		c0.8,0.7,1.5,1.4,2.3,2l-5.2,5.6c0.9,0.6,1.8,1.2,2.7,1.7l5.1-5.4c0.5,0.3,1,0.6,1.5,0.9l-4.1,5.9c0.9,0.5,1.8,1,2.8,1.5l4.1-5.9
		c0.8,0.4,1.7,0.9,2.7,1.4l-4.1,5.9c0.9,0.5,1.9,0.9,2.8,1.4l4.1-5.9c0.2,0.1,0.4,0.2,0.7,0.3c0.1,0.1,0.3,0.1,0.4,0.2l-2.7,6.6
		c0.9,0.5,1.9,0.9,2.8,1.4l2.6-6.5c0.9,0.4,1.8,0.9,2.7,1.4l-2.6,6.5c0.9,0.5,1.9,0.9,2.8,1.4l2.6-6.5c0.6,0.3,1.3,0.6,1.9,1
		l-2.7,6.5c0.9,0.5,1.9,0.9,2.8,1.4l2.7-6.4c0.9,0.5,1.8,0.9,2.7,1.3l-2.7,6.4c1,0.5,1.9,0.9,2.9,1.3l2.6-6.3
		c0.6,0.3,1.3,0.6,1.9,0.9l-2.6,6.2c1,0.4,1.9,0.9,2.9,1.3l2.6-6.1c0.9,0.4,1.8,0.9,2.7,1.2l-2.5,6.1c1,0.4,2,0.8,2.9,1.2l2.5-6
		c0.3,0.1,0.6,0.2,0.8,0.3c0.4,0.2,0.7,0.3,1.1,0.5l-2.5,6c1,0.4,2,0.8,2.9,1.2l2.5-6c1,0.4,1.9,0.8,2.8,1.1l-2.5,6
		c1.1,0.4,2,0.8,2.9,1.1l2.5-5.9c0.6,0.2,1.2,0.4,1.7,0.7l-1.5,6.3c1.3,0.5,2.3,0.8,3,1.1l1.5-6.3c0.9,0.3,1.8,0.6,2.8,0.9l-1.6,6.5
		c0.9,0.4,1.9,0.8,2.9,1.2l1.7-6.8c0.7,0.2,1.3,0.5,1.9,0.7l-0.7,7c1,0.3,2,0.5,3.1,0.8l0.7-6.7c0.9,0.3,1.9,0.7,2.9,1l-0.6,6.1
		c0.1,0,0.1,0,0.2,0c0.9,0.1,1.9,0.2,2.9,0.2l0.6-5.6c0.7,0.1,1.4,0.3,2.1,0.4l-0.3,5.4c1,0.1,2.1,0.1,3.1,0.2l0.3-5.2
		c0.8,0.1,1.6,0.1,2.4,0.2c0.2,0,0.4,0,0.6,0l-0.3,5.2c1.1,0.1,2.1,0.1,3.1,0.1l0.3-5.1c0.7,0.1,1.4,0.1,2.2,0.2l-0.1,5
		c1.1,0,2.1,0,3.1,0l0.1-4.8c1,0.1,2,0.1,3,0.2l-0.1,4.5c1,0,2.1-0.1,3.1-0.1l0.1-4.3c0.7,0,1.5,0,2.2,0l0.1,4.2
		c1,0,2.1-0.1,3.1-0.1l-0.1-4.1c0.9,0,1.9-0.1,3-0.1l0.1,4.1c1.1-0.1,2.1-0.1,3.1-0.2l-0.1-4c0.7,0,1.4-0.1,2.2-0.1l0.3,3.9
		c1.1-0.1,2.1-0.2,3.1-0.2l-0.3-3.8c1-0.1,2-0.1,3-0.2l0.3,3.7c0.9-0.1,1.7-0.2,2.4-0.3c0.2,0,0.4-0.1,0.7-0.1l-0.2-3.5
		c0.8-0.1,1.6-0.2,2.5-0.3l0.7,3.2c1.1-0.2,2.1-0.5,3.1-0.7l-0.6-2.9c1-0.1,2-0.3,2.9-0.5l0.5,2.5c1.1-0.3,2.1-0.7,3-1l-0.4-2.1
		c0.3-0.1,0.6-0.1,0.9-0.2c0.4-0.1,0.8-0.2,1.2-0.3l0.3,1.7c0.1-0.1,0.2-0.1,0.4-0.2c1.2-0.6,1.9-1.3,2.4-1.9l-0.1-0.5
		c10.9-3.5,23.3-10.7,27.2-12.9c4.5-2.5,18.9-11.6,28.7-22.7s21.6-25.6,27.6-43.9s8.6-25.4,9.3-41.8S563.8,87.9,559.4,75.7z
		 M496.2,229.8c-6.9,0.3-11.4,3.1-16.1,5.6c0.6-6.7,8.3-14.7,3.5-22.3c2.5-4.3,4.4-10.6,10.6-10.3c1.5,2.1,3.1,4.2,4.7,6.2
		C499.8,216.2,500.3,225.3,496.2,229.8z M339.4,194.1C339.4,194.1,339.4,194.1,339.4,194.1C339.4,194.1,339.4,194.2,339.4,194.1
		L339.4,194.1z"/>
	<path id="XMLID_67_" fill="#346a7e" opacity="0.2" d="M366.7,234.1c-0.1,0.2-0.1,0.4,0.1,0.5c0.2,0.2,0.5,0.3,0.7,0.5c0.2,0.1,0.4,0.1,0.5-0.1
		c0.6-0.7,1.2-1.4,1.8-2c2.5-2.8,5-5.7,7.9-8.1c0,1.7-0.2,4.1-0.4,5.7l0,0.1c0,0.1,0,0.2,0.1,0.3c1.1,1.5,3.3,2.9,5.6,3.8
		c0.1,0,0.2,0,0.3,0c0.1-0.1,0.2-0.2,0.2-0.3c0.2-1.3,0.3-2.3,0.2-3.1c-0.1-0.3-0.4-0.6-1.1-1c-0.4-0.2-0.7-0.5-1-0.7
		c0-0.3,0.2-1.3,0.3-2c0.1-0.3,0.2-0.7,0.2-1c0.1-0.5,0.3-0.8,0.4-0.8c0,0,0,0,0.1,0c0.9,1.4,1.5,2.9,2.1,4.4
		c0.7,1.9,1.4,3.7,2.8,5.2c0.1,0.1,0.2,0.1,0.3,0.1c0,0,0.1,0,0.1,0c0.1,0,0.2-0.1,0.3-0.3c0.3-1.3,0.8-2.5,1.3-3.6l0.2-0.4
		c0.1-0.1,0-0.3-0.1-0.4c-3.9-4.7-5.9-10.3-6.1-17.1l0-0.4c0-0.8-0.1-2.1,0.4-2.7c0.4-0.5,0.9-0.7,1.6-0.7c0.9,0,2,0.5,3.2,0.9
		l0.7,0.3c1.3,0.5,3.1,1.3,4.4,1.3c0.7,0,1.2-0.2,1.5-0.6c0,0,0,0,0-0.1c0.5-1.3-0.9-3.3-2.2-4.9c-1-1.3-2.3-2.7-3.5-3.7
		c0,0,0,0-0.1-0.1c-0.2-0.1-0.3-0.1-0.5-0.1c-0.5,0-0.7,0.4-1,0.7c-0.4,0.5-0.6,0.7-1.1,0.6c-14.9-15.6-22.5-33.3-23.9-56
		c0-0.2-0.2-0.4-0.4-0.4c-0.2,0-0.4,0.2-0.4,0.4c-0.3,20.5,6.6,39.5,21,58.1c-0.5,0.9-1.1,1.5-2,2.5c-0.8,0.8-1.8,1.8-3.1,3.5
		c-0.4,0.6-1,1.3-1.6,2.1c-2.5,3.2-5.9,7.5-5.3,12.7c-1.1,1.4-2,2.9-3,4.4C367.8,232.4,367.3,233.3,366.7,234.1z"/>
	<path id="XMLID_66_" fill="#346a7e" opacity="0.2" d="M368.9,159.5c3.7,18.7,11.2,30.9,19.2,42.9c0.1,0.1,0.2,0.2,0.3,0.2c0.1,0,0.1,0,0.2-0.1
		c2-1.2,3.9-2.2,6.3-2.6c0.1,0,0.3-0.1,0.3-0.3c0-0.1,0-0.3-0.1-0.4c-17.3-17-25.1-44.5-21-73.6c0.7-5.1,2.3-9.7,3.8-14.1
		c1-2.9,1.9-5.6,2.6-8.4c0-0.1,0-0.2-0.1-0.3c-0.1-0.1-0.2-0.2-0.3-0.2c-0.4-0.1-0.8-0.1-1.3-0.1c-1.3-0.1-2.6-0.1-3.3-1.3
		c1.8-5.1,4.1-11.9-0.8-15.8c-0.2-0.1-0.4-0.1-0.5,0c-0.4,0.4-1.4,1.1-2.2,1.4c-0.4-0.2-1-0.6-1.4-0.9c-0.7-0.5-1-0.7-1.3-0.6
		c0,0-0.1,0-0.1,0c-4.4,2.4-8.1,5.5-10.1,8.6c-0.1,0.2-0.2,0.4-0.4,0.6c-1,1.4-1.6,2.4-1.4,2.9c0,0.1,0.1,0.1,0.1,0.2
		c0.4,0.3,0.8,0.6,1.2,0.6c0.2,0,0.4-0.1,0.6-0.2c0.4-0.4,0.8-0.9,1.3-1.5c0.5-0.6,1-1.3,1.3-1.6c1.5-1.4,3.5-3,6-3
		c0.4,0,0.8,0,1.1,0.1c0,0,0,0.1,0,0.1c0.1,1.4,0.7,2.5,1.3,3.4c0.4,0.7,0.9,1.4,1,2.3c0.3,1.3-0.1,2.7-0.4,4.2
		c-0.4,1.5-0.7,3-0.5,4.6c0.2,1.1,0.7,1.8,1.2,2.5c0.4,0.5,0.8,1,1.1,1.8C368.8,122.7,365.2,142.4,368.9,159.5z"/>
	<path id="XMLID_65_" fill="#346a7e" opacity="0.2" d="M456.5,188.4c0.1,0,0.3-0.1,0.4-0.2c0.1-0.1,11.2-10,16.6-24.6c5.7-15.3,4.9-24.8,4.9-25.2
		c0-0.3-0.3-0.6-0.7-0.6c-0.3,0-0.6,0.3-0.6,0.7c0,0.1,0.8,9.6-4.8,24.6c-5.3,14.3-16.2,24-16.3,24.1c-0.3,0.2-0.3,0.6-0.1,0.9
		C456.2,188.3,456.3,188.4,456.5,188.4z"/>
	<path id="XMLID_64_" fill="#346a7e" opacity="0.2" d="M458.9,194.9c-0.2,0.3-0.2,0.7,0.1,0.9c0.1,0.1,0.3,0.1,0.4,0.1c0.2,0,0.4-0.1,0.5-0.2
		c0.1-0.1,12.6-15,18.8-30.5c6.2-15.5,5.9-30.2,5.9-30.3c0-0.3-0.3-0.6-0.6-0.6c0,0,0,0,0,0c-0.3,0-0.6,0.3-0.6,0.6
		c0,0.1,0.3,14.6-5.8,29.8C471.3,180,459,194.7,458.9,194.9z"/>
	<path id="XMLID_63_" fill="#346a7e" opacity="0.2" d="M454.7,180.1c0.1,0,0.2,0,0.3-0.1c0.3-0.2,7.9-5.5,13.8-21.8c4.9-13.4,3.2-23.2,3.1-23.6
		c-0.1-0.3-0.4-0.6-0.7-0.5c-0.3,0.1-0.6,0.4-0.5,0.7c0,0.1,1.7,9.8-3,22.9c-5.8,15.9-13.3,21.2-13.4,21.2c-0.3,0.2-0.4,0.6-0.2,0.9
		C454.3,180,454.5,180.1,454.7,180.1z"/>
	<path id="XMLID_62_" fill="#346a7e" opacity="0.2" d="M508,99.9c0.6-0.1,1.2-0.2,1.8-0.3c0.2,0,0.3-0.1,0.3-0.3c0.1-0.3,0.2-0.8,0.4-1.2
		c0.5-1.4,1-3,0-3.4c-1.6-0.8-3-1.8-4.5-2.8c-2.8-1.9-5.6-3.9-9.4-4.7c-0.2,0-0.4,0.1-0.4,0.3c-0.5,1.5-1,2.8-1.4,4.1
		c-1.5,4-2.8,7.7-2.7,13.3c0,0.1,0,0.1,0,0.2c4,7.5,6.4,15.6,7.3,24.8c0,0.2,0.2,0.3,0.3,0.3c0,0,0,0,0.1,0c0.2,0,0.3-0.1,0.4-0.2
		c0.4-1,0.8-1.7,1.3-2.5c0.8-1.4,1.5-2.7,1.7-4.7c0.2-1.6-0.7-3.9-1.6-6.3c-0.6-1.7-1.3-3.4-1.6-5c-0.3-1.2-0.5-2.5-0.6-3.5
		C498.6,101.2,503.4,100.5,508,99.9z"/>
	<path id="XMLID_61_" fill="#346a7e" opacity="0.2" d="M479.6,202.9c0.2-0.4,0.4-0.8,0.7-1.2c0.7-1.1,1.4-2.3,0.8-3.3c-0.1-0.1-0.2-0.2-0.3-0.2
		c-0.1,0-0.2,0-0.3,0.1c-0.4,0.5-0.9,1-1.5,1.5c-1.6,1.7-3.6,3.7-4.6,5.4c-2.2,1-3.6,2.6-5.3,4.4c-0.7,0.8-1.4,1.6-2.3,2.4
		c-0.2,0.1-0.4,0.1-0.7,0.1h0c-0.5,0-1.1-0.1-1.7-0.3c-0.5-0.1-0.9-0.2-1.4-0.3c-0.1,0-0.2,0-0.3,0.1c-0.1,0.1-0.1,0.2-0.1,0.3
		c0,1.8,0,2.8-0.1,4c-2.8,2-6,3.1-9,4.3c-1.4,0.5-2.9,1.1-4.3,1.7c-1.9,0.8-1.8,2.7-1.8,4.4c0.1,1.5,0.1,3.2-0.9,4.5
		c-0.7,0.2-1.7,0.3-2.8,0.3c-1,0.1-1.9,0.1-2.7,0.3c-0.4,0.1-0.6,0.4-0.5,0.8c0,0,0,0,0,0c-0.1,0.1-0.2,0.2-0.1,0.4
		c0,0.2,0.2,0.3,0.3,0.3c1.4,0.1,2.7,0.2,4,0.3c2.5,0.2,4.7,0.3,7.1,0.8c0.1,0,0.3,0,0.4-0.1c1-1.1,2.1-2.3,3.1-3.4
		c2.7-3,5.5-6.2,8.6-8.8c0.6-0.5,1.7-0.5,2.2,0.1c1.9,3.3-1.5,6-4,8l-0.5,0.4c-1.1,0.9-2.4,1.8-3.8,2.8c-0.8,0.6-1.7,1.2-2.6,1.9
		c-0.4,0.3-0.8,0.6-1.3,1c-1.8,1.4-4.7,3.7-5.9,3.7c0,0-0.1,0-0.2,0c-2.3-2.3-6-3.5-11.1-3.7c-3.2-0.1-6.4,1-9.9,3.6
		c-11.5-3-20.1-10.1-26.4-21.7c-0.1-0.1-0.2-0.2-0.3-0.2c-0.3,0-0.6,0-0.9,0c-0.4,0-0.9,0-1.3,0c-0.7,0-1.2-0.1-1.5-0.2
		c-0.2-0.1-0.4,0-0.5,0.1c-0.1,0.1-0.1,0.3,0,0.5c0.5,0.6,0.9,1,1.3,1.5c0.7,0.7,1.3,1.3,1.7,2.3c0.7,1.7,1.5,3.8,2.2,6.4
		c0.2,0.6,0.2,1.1,0.3,1.7c0.2,1.3,0.3,2.6,1.6,4.1c0.7,0.8,3,1.9,6.1,3.4c5.4,2.6,12.7,6.3,16.7,10.6c0.1,0.1,0.2,0.2,0.4,0.1
		c0.1,0,0.2-0.1,0.3-0.3c1.1-4.3,5.3-7.4,10-7.4c1.5,0,3,0.3,4.5,1c3.3,1.4,4.7,4.6,5.2,7.1c0,0.1,0.1,0.2,0.2,0.3
		c0.1,0,0.1,0,0.2,0c0.1,0,0.1,0,0.2,0c4-1.9,7.2-2.9,9.8-2.9c1.7,0,3,0.4,4,1.3c0.1,0.1,0.2,0.1,0.4,0.1c0.7-0.2,1.2-1,1.6-1.5
		c0.1-0.1,0.1-0.2,0.2-0.2c0.1-0.1,0.1-0.4,0-0.5c-0.3-0.4-1.2-1.8-1.2-2.1c1.6-3.2,4-5.4,6.4-7.5c1.8-1.6,3.6-3.2,5-5.2
		c1-1.5,1.6-4.4,2-6.6c0.4-1.4,0.9-2.7,1.3-3.8c0.7-1.9,1.2-3.2,0.9-3.9c0-0.1-0.1-0.2-0.3-0.2c-0.1,0-0.2,0-0.3,0.1
		c-0.2,0.1-0.3,0.3-0.5,0.4c-1.2,1.1-2.8,2.4-4.3,2.4c0.8-2.1,4.2-8.5,6.3-12.5C478.7,204.6,479.4,203.4,479.6,202.9z"/>
	<path id="XMLID_60_" fill="#346a7e" opacity="0.2" d="M457.3,160.9c-0.2,0.3-0.2,0.6,0,0.9c0.1,0.1,0.3,0.2,0.4,0.2c0.2,0,0.3-0.1,0.5-0.2
		c0.2-0.2,4.8-5.3,6.9-14.4c2.1-9.1,0.3-15.1,0.2-15.4c-0.1-0.3-0.4-0.5-0.8-0.4c-0.3,0.1-0.5,0.4-0.4,0.8c0,0.1,1.7,5.9-0.3,14.7
		C461.9,155.8,457.4,160.8,457.3,160.9z"/>
	<path id="XMLID_59_" fill="#346a7e" opacity="0.2" d="M454.3,150.7c-0.3,0.2-0.3,0.6-0.1,0.9c0.1,0.2,0.3,0.2,0.5,0.2c0.1,0,0.3,0,0.4-0.1
		c0.1-0.1,2.4-2,3.7-6.3c1.1-3.6,0.3-6.9,0.3-7.1c-0.1-0.3-0.4-0.5-0.7-0.5c-0.3,0.1-0.5,0.4-0.5,0.7c0,0,0.7,3.1-0.3,6.4
		C456.4,149,454.3,150.7,454.3,150.7z"/>
	<path id="XMLID_58_" fill="#346a7e" opacity="0.2" d="M490,102.1c-3.2-1.3-7.2-2.1-12.9-2.7c-1.5-0.8-3.1-1.6-4.7-2.4c-1.8-0.9-3.6-1.8-5.5-2.8
		c-1-0.6-2.1-1.3-3.1-2c-2.4-1.6-4.8-3.2-7.2-3.6c-2.2-0.4-4.7,1.5-7.1,3.2c-1.7,1.3-3.6,2.6-5.1,2.9c-1.6,0.3-3.3,0.5-5.1,0.5
		c-2,0-3.9-0.2-5.9-0.4c-2.2-0.2-4.4-0.4-6.8-0.4c-1.6,0-3.1,0.1-4.6,0.3c-1.5-0.7-3-1.5-4.3-2.3c-2.7-1.6-5.6-3.3-9.4-3.8
		c-0.1,0-0.2,0-0.3,0.1c-1,0.8-1.9,1.7-2.8,2.7c-3,3.1-6.2,6.2-10.7,6.6c0,0-0.1,0-0.1,0c-0.9,0.4-1.7,0.9-2.5,1.3
		c-1.7,1-3.4,1.9-5.5,2.4c-0.7-0.2-1.3-0.6-2-1l-0.2-0.1c-0.1-0.1-0.3-0.1-0.4,0c-0.1,0.1-0.2,0.2-0.2,0.4c0.1,0.4,0,0.9,0,1.5
		c-0.1,1-0.1,2,0.4,2.6c0.1,0.1,0.3,0.2,0.5,0c1.7-1.2,3.7-1.7,6.6-1.7c1.2,0,2.4,0.1,3.7,0.2c1.2,0.1,2.5,0.2,3.8,0.2c0,0,0,0,0,0
		c0.1,0,0.2-0.1,0.3-0.2l0.3-0.4c2.4-3.3,6.4-8.8,11.2-8.8l0.2,0c3.1,0.1,5.7,2.8,7.8,5.5c-0.3,0.6-0.5,1.4-0.7,2.1
		c-0.2,0.7-0.3,1.4-0.6,1.9c0,0,0,0-0.1,0c-4.1,0-6,2.4-7.4,4.6c-0.1,0.1-0.1,0.3,0,0.5c0.8,0.9,1.7,2.3,1.5,3.5
		c-0.1,0.6-0.5,1.1-1.1,1.5c-0.1,0.1-0.2,0.2-0.2,0.4c0,0.1,0.1,0.3,0.2,0.3c0.6,0.3,1.2,0.6,1.8,0.9c1,0.5,2,1.1,3.2,1.5
		c0,0,0.1,0,0.1,0c0.1,0,0.1,0,0.2-0.1c1.4-0.9,2.7-2.7,3-4.6c0.3-1.4,0-2.7-0.7-3.7c2.7-6.5,8.5-9.9,16.7-9.9
		c1.6,0,3.3,0.1,5.1,0.4c5.5,0.8,8.9,4.5,12.3,8.1c1.4,1.5,2.8,3,4.3,4.1c0.1,0,0.1,0.1,0.2,0.1c0.4,0.1,1.1,0.1,2,0
		c0.5,0,1,0,1.5,0c1.3,0,2.1,0.1,2.6,0.3c0.1,0.1,0.3,0,0.4-0.1c0.1-0.1,0.1-0.3,0.1-0.4c-1-2.4-3.5-3.6-5.8-4.8
		c-2.1-1.1-4.1-2.1-5-3.8c-0.8-1.4-0.9-2.7-0.3-3.8c1.2-2,4.8-3.4,8.9-3.4c1.3,0,2.6,0.1,3.8,0.4c3.3,1.7,4.7,5.8,5.9,9.1l0,0.1
		c0,0.1,0.1,0.2,0.3,0.2c0.1,0,0.2,0,0.3-0.1c2-1.5,6.2-2.4,11-2.4c1.2,0,2.3,0.1,3.4,0.2c0.5,0,1,0.2,1.6,0.4
		c0.7,0.2,1.3,0.4,1.9,0.4c0.8,0,1.3-0.3,1.6-1c0-0.1,0.1-0.2,0-0.3C490.2,102.2,490.1,102.1,490,102.1z"/>
	<path id="XMLID_57_" fill="#346a7e" opacity="0.2" d="M426,214.1c0.1,0.1,0.2,0.1,0.3,0.1c0.1,0,0.2,0,0.2-0.1c1.4-1,3.2-1.5,5.6-1.5
		c1.4,0,2.8,0.1,4.3,0.3c1.5,0.2,3.1,0.3,4.6,0.3c2.3,0,4.1-0.4,5.6-1.1c0.1-0.1,0.2-0.2,0.2-0.4v-2.4c0-0.2-0.2-0.4-0.4-0.4l-0.1,0
		c-1.6,0-2.9,0.5-4.1,0.9c-1,0.4-2,0.7-3.1,0.8c-0.4,0-0.8,0.1-1.3,0.1c-1.7,0-3.4-0.3-5.1-0.6c-1.7-0.3-3.2-0.6-4.8-0.6
		c-1.5,0-2.8,0.3-4,0.9c-0.1,0-0.2,0.1-0.2,0.2C423.4,211.8,425,213.3,426,214.1z"/>
	<path id="XMLID_56_" fill="#346a7e" opacity="0.2" d="M496.1,83.8c-0.6,0-1,1.1-0.2,1.1c2.5-0.2,4.8,0.3,6.8,1.8c0.5,0.3,1.3-0.6,0.7-1
		C501.3,84.1,498.8,83.6,496.1,83.8z"/>
	<path id="XMLID_55_" fill="#346a7e" opacity="0.2" d="M447.9,53.3c-0.6-9.5-6.3-11.6-11-11.6l-0.2,0c-3,0-5.6,1-7.5,2.9c-2,2-3.1,5-3,8.1
		c0.1,5.5,4.6,11.5,6.7,14.4c0.3,0.5,0.6,0.8,0.8,1.1c1.2,1.7,0.9,2.9,0.7,3.3c-0.2,0.4-1.3,1.1-1.8,1.2c-0.3,0-0.6,0.1-0.8,0.1
		c-0.2,0-0.3,0-0.4,0c0,0-0.1,0-0.2,0c-0.3,0-0.7,0.1-0.7,0.4c0,0.2,0,0.4,0,0.6c0,0.2,0,0.3,0,0.4c0,0.2,0.3,0.3,0.8,0.3
		c0.2,0,0.3,0,0.5,0c0.2,0,0.4,0,0.5,0c0.4,0,2.9,0,5-0.1c1.7,0,3.3-0.1,3.5-0.1c0.1,0,0.2,0,0.3,0c0.1,0,0.3,0,0.4,0
		c0.6,0,1.2,0,1.2-0.4c0-0.4,0.1-0.7-0.1-1c-0.1-0.1-0.3-0.2-0.6-0.3c0,0-0.1,0-0.2,0c-0.4,0-1.1,0-1.7-0.6c-0.7-0.7-1-1.1-0.9-2.5
		c0-1.4,0.4-2.3,1.6-4c0.7-1.1,1.5-2.3,2.1-3.2c0.3-0.5,0.6-0.9,0.8-1.3c0.6-0.9,1.1-1.6,1.1-1.6l0,0c0,0,0.1-0.5-0.4-0.9
		c-0.1-0.1-0.3-0.2-0.4-0.3c-0.3-0.2-0.5-0.4-0.7-0.4c0,0-0.1,0-0.1,0c0,0-0.1,0.1-0.2,0.2c-0.7,0.7-2.7,2.8-6.3,2.9
		c-0.1,0-0.2,0-0.3,0c0,0,0,0,0,0c-3.8,0-8.1-3-8.3-7.8c-0.1-2.3,0.7-4.4,2.1-5.9c1.5-1.6,3.5-2.4,5.8-2.4c0.1,0,0.3,0,0.4,0
		c5.1,0.2,8.6,3.6,8.9,8.6c0,0.7,0.2,1.4,0.9,1.4c0.1,0,0.1,0,0.2,0c0.1,0,0.2,0,0.3,0c0.6-0.1,0.9-0.2,0.8-1.4
		C447.9,53.6,447.9,53.5,447.9,53.3z"/>
	<path id="XMLID_54_" fill="#346a7e" opacity="0.2" d="M491.7,80.3c3.3-0.1,6.4,0.5,9.3,2c0.5,0.3,1.2-0.8,0.6-1.1c-3-1.6-6.2-2.2-9.6-2.1
		C491.5,79.2,491,80.3,491.7,80.3z"/>
	<path id="XMLID_53_" fill="#346a7e" opacity="0.2" d="M477.8,76.8c2.7-2.4,6.8-3.6,10.3-2.4c0.6,0.2,1.2-0.8,0.5-1c-3.9-1.3-8.5,0.1-11.5,2.8
		C476.6,76.6,477.2,77.3,477.8,76.8z"/>
	<path id="XMLID_52_" fill="#346a7e" opacity="0.2" d="M474.3,76.8c2.5-3.4,5.7-6,9.9-6.8c1-0.2,0.2-1.3-0.6-1.1c-4.6,0.9-8.1,3.7-10.8,7.4
		C472.4,76.9,473.9,77.4,474.3,76.8z"/>
	<path id="XMLID_51_" fill="#346a7e" opacity="0.2" d="M481.8,67.6c1-0.3,0.3-1.3-0.5-1.1c-4.3,1.2-8,4.5-10.5,8.2c-0.5,0.7,1,1,1.4,0.4
		C474.4,71.8,477.9,68.7,481.8,67.6z"/>
	<path id="XMLID_50_" fill="#346a7e" opacity="0.2" d="M417.3,53.6c2.3,3,5.1,5,8.8,6c0.9,0.2,0.9-1.3,0.2-1.5c-3.5-0.9-6-2.8-8.2-5.6
		C417.4,51.7,416.8,52.9,417.3,53.6z"/>
	<path id="XMLID_49_" fill="#346a7e" opacity="0.2" d="M486,78.1c2.9-1,5.7-0.8,8.5,0.4c0.5,0.2,1.3-0.8,0.7-1c-3-1.3-6.2-1.4-9.3-0.4
		C485.3,77.3,485.2,78.3,486,78.1z"/>
	<path id="XMLID_48_" fill="#346a7e" opacity="0.2" d="M423.9,54.4c0.8,0.4,1.1-1.2,0.4-1.5c-2.1-1-3.8-2.5-4.9-4.6c-0.4-0.9-1.2,0.4-0.9,1
		C419.7,51.6,421.6,53.3,423.9,54.4z"/>
	<path id="XMLID_47_" fill="#346a7e" opacity="0.2" d="M375.9,66.9c-7.2,1-20.1,7.6-22.1,10.7c-0.1,0.2-0.1,0.4,0.1,0.5c0.1,0.1,0.2,0.1,0.3,0.1
		c0.1,0,0.2,0,0.3-0.1c3.1-2.8,13.5-8.1,21.7-10.4c0.2-0.1,0.3-0.3,0.3-0.5C376.3,67,376.1,66.9,375.9,66.9z"/>
	<path id="XMLID_46_" fill="#346a7e" opacity="0.2" d="M359.2,84.6c0.1,0,0.1,0.1,0.2,0.1c0.1,0,0.2,0,0.3-0.1c3.3-4,9.9-9,14.7-11.9
		c0.2-0.1,0.2-0.3,0.1-0.5c-0.1-0.2-0.3-0.3-0.5-0.2c-3.8,1.7-12.9,8.2-15,12.2C358.9,84.2,359,84.5,359.2,84.6z"/>
	<path id="XMLID_45_" fill="#346a7e" opacity="0.2" d="M425.2,32.5c0,3.3-0.3,6.7,1.4,9.7c0.5,0.9,1.3-0.2,0.9-0.9c-1.5-2.6-1.1-5.6-1.1-8.5
		C426.3,31.9,425.2,31.5,425.2,32.5z"/>
	<path id="XMLID_44_" fill="#346a7e" opacity="0.2" d="M482.3,201.7c0.4,0,0.8-0.5,2.1-1.8c0.6-0.7,1.7-1.8,1.9-1.9c0,0,0.1,0,0.1,0
		c0.1,0,0.2,0.2,0.3,0.4c0.1,0.3,0.3,0.6,0.6,0.6c0.2,0,0.3-0.1,0.4-0.2c0,0,0.1-0.1,0.1-0.1c0.4-1,0.7-2.5,1-4
		c0.4-1.8,0.8-3.7,1.3-5.1c0.5-1.7,1.5-3.5,2.5-5.5c1.3-2.4,2.6-5,3.4-7.7c0.4-1.6,0.9-3.2,1.4-4.9c1.3-4.7,2.7-9.5,3.6-13.9
		c0-0.1,0-0.1,0-0.2c0-0.2-0.2-0.3-0.4-0.3c-0.3,0-0.4,0.2-0.8,1.2c-0.1,0.4-0.3,0.8-0.4,1.1c-0.5,1.1-1.1,1.9-1.8,2.6
		c-0.8,1-1.6,2-2,3.5c-2.5,8.7-6.6,17.1-11.5,23.6c-0.1,0.1-0.1,0.3-0.1,0.4c0.3,0.7,0.8,1,1.3,1.3c0.4,0.2,0.8,0.4,1,0.9
		c-0.6,1.1-1.2,2.5-1.9,4c-0.9,1.9-1.7,3.8-2.6,5.5c0,0.1,0,0.1,0,0.2C481.9,201.5,482.1,201.7,482.3,201.7z"/>
	<path id="XMLID_43_" fill="#346a7e" opacity="0.2" d="M358.5,88.9c0.1,0.1,0.2,0.1,0.3,0.1c0.1,0,0.2,0,0.3-0.1c0.8-0.8,1.7-1.7,2.7-2.7
		c3.7-3.8,8.9-9,14.2-11.9c0.2-0.1,0.2-0.3,0.2-0.4c0,0,0,0,0,0c0-0.1,0-0.2,0-0.3c0-0.1-0.2-0.2-0.4-0.2c-0.1,0-0.1,0-0.2,0.1
		c-6.6,4-12.6,9.4-17,15.1C358.4,88.6,358.4,88.8,358.5,88.9z"/>
	<path id="XMLID_42_" fill="#346a7e" opacity="0.2" d="M417,58.1c2.8,3.3,7.3,5.5,11.6,6.3c0.7,0.1,1.1-1.3,0.3-1.5c-4-0.8-8.3-2.9-11-6
		C417.3,56.2,416.5,57.5,417,58.1z"/>
	<path id="XMLID_41_" fill="#346a7e" opacity="0.2" d="M416.7,61.8c3.2,3.7,7.4,5.7,12.3,5.8c1,0,0.9-1.2,0-1.2c-4.4,0-8.1-2-10.9-5.2
		C417.6,60.6,416.1,61.1,416.7,61.8z"/>
	<path id="XMLID_40_" fill="#346a7e" opacity="0.2" d="M418.4,68c2,1,3.7,2,5.9,2.4c2.2,0.4,4.7,1.3,7,1.1c0.7-0.1,1.3-1.4,0.3-1.3
		c-2.1,0.1-4.5-0.8-6.6-1.1c-2.1-0.4-3.8-1.4-5.6-2.3C418.7,66.4,417.7,67.6,418.4,68z"/>
	<path id="XMLID_39_" fill="#346a7e" opacity="0.2" d="M455.3,66.5c-1.6,2.1-3.3,3.7-5.6,4.9c-1.7,0.9-3.6,1.3-5.1,2.4c-0.8,0.6,0.4,1.2,1,0.8
		c1.9-1.4,4.5-1.9,6.5-3.2c1.8-1.2,3.2-2.7,4.5-4.4C457.2,66.2,455.8,65.9,455.3,66.5z"/>
	<path id="XMLID_38_" fill="#346a7e" opacity="0.2" d="M428,83.8c-3.5,1.1-6.5,3.3-9,5.9c-0.7,0.7,0.7,1.3,1.2,0.7c2.3-2.5,5.1-4.6,8.3-5.6
		C429.4,84.6,428.8,83.6,428,83.8z"/>
	<path id="XMLID_37_" fill="#346a7e" opacity="0.2" d="M432.8,84.2c-3.5,1.3-6.8,3.1-9.5,5.6c-0.6,0.5,0,1.9,0.7,1.2c2.6-2.4,5.7-4.1,9-5.3
		C433.6,85.5,433.6,84,432.8,84.2z"/>
	<path id="XMLID_36_" fill="#346a7e" opacity="0.2" d="M432.8,92.7c4.3-3.5,10.3-6.6,15.8-7.7c1-0.2,0.2-1.3-0.6-1.1c-5.7,1.1-11.9,4.4-16.4,8
		C430.9,92.5,432.2,93.2,432.8,92.7z"/>
	<path id="XMLID_35_" fill="#346a7e" opacity="0.2" d="M423.2,83.3c-3,0.5-6,2.1-8,4.4c-0.7,0.8,0.6,1.2,1.1,0.6c1.8-2,4.4-3.4,7-3.8
		C424.1,84.4,424.2,83.2,423.2,83.3z"/>
	<path id="XMLID_34_" fill="#346a7e" opacity="0.2" d="M440.6,84.1c-4.9,1.6-9.7,3.7-14,6.7c-0.6,0.4-0.2,1.8,0.6,1.2c4.1-2.9,8.9-5,13.7-6.5
		C441.6,85.3,441.5,83.8,440.6,84.1z"/>
	<path id="XMLID_33_" fill="#346a7e" opacity="0.2" d="M460,81.3c-8,2.4-16,6.1-22.7,11.1c-0.8,0.6-0.2,1.6,0.6,1c6.6-5,14.4-8.6,22.3-10.9
		C461.1,82.2,461,81,460,81.3z"/>
	<path id="XMLID_32_" fill="#346a7e" opacity="0.2" d="M451.9,200.6c0-0.1-0.1-0.2-0.2-0.2c-0.7-0.3-1.5-0.4-2.2-0.4c-2.2,0-4.2,1.3-6.1,2.5
		c-1.4,0.9-2.8,1.9-4.4,2.3c-1.2,0.3-2.3,0.5-3.5,0.5h0c-2.7,0-4.8-0.9-7.2-1.9c-0.9-0.4-1.8-0.8-2.8-1.1c-0.2-0.1-0.3,0-0.4,0.1
		c-0.4,0.6-0.9,1.4-1.4,2.1c-0.3,0.5-0.5,0.9-0.8,1.3c-0.1,0.1-0.1,0.2,0,0.3c0,0.1,0.1,0.2,0.2,0.2c2.1,0.9,4.7,1.4,8,1.4
		c1.9,0,3.8-0.1,5.7-0.3c1.8-0.1,3.5-0.2,5-0.2c2,0,3.5,0.2,4.7,0.6c0,0,0.1,0,0.1,0c0.1,0,0.3-0.1,0.4-0.2c0.7-1.5,1.9-2.9,3-4.3
		c0.6-0.8,1.2-1.5,1.7-2.3C451.9,200.9,451.9,200.8,451.9,200.6z"/>
	<path id="XMLID_31_" fill="#346a7e" opacity="0.2" d="M453.4,160.7c0-0.2-0.2-0.3-0.4-0.3c-0.2,0-0.3,0.2-0.4,0.3c-0.7,5.9-2.9,9.8-7.5,12.9
		c-1.1-0.2-2.2-0.4-3.3-0.4c-2.5,0-4.6,0.6-6.7,1.2c-2.3,0.6-4.7,1.3-7.6,1.2c-3.5-1.9-6.1-6.7-7.4-10.7c-0.1-0.2-0.2-0.3-0.4-0.3
		c-0.2,0-0.3,0.1-0.4,0.3c-0.6,3.4,0.2,7,2.1,9.5c1.6,2.1,1.8,3.3,2,4.2c0.1,0.6,0.2,1.2,0.8,1.6c0.4,0.3,1.1,0.4,2,0.4
		c2.1,0,5.7-0.7,8.3-1.6c0.5-0.2,1-0.3,1.5-0.5c2.9-1,5.9-2.1,9.5-2.1c0.7,0,1.4,0,2.1,0.1c0.1,0,0.2,0,0.3-0.1
		C451.3,173.3,454.9,168.6,453.4,160.7z"/>
	<path id="XMLID_30_" fill="#346a7e" opacity="0.2" d="M451.1,78.3c0,0-0.7,0.4-0.7,0.4c-3.8,2-11.2,3.7-17.8,2.7c-5.8-0.9-10.4-4.3-16.5-3.8
		c-0.1,0-0.3,0-0.4,0.1c-0.3,0.5-0.6,1-0.6,1.6c1.5,0.3,3.1,0.1,4.6,0.5c5.1,0.8,9.6,4,14.9,4.3c6.5,0.4,12.8-1.1,18.6-4
		c0.5-0.2,0.7-0.5,0.7-0.8c-0.2-0.1-0.4-0.3-0.6-0.4C453,78.5,451.7,78.3,451.1,78.3z"/>
	<path id="XMLID_29_" fill="#346a7e" opacity="0.2" d="M385.4,89.7c-1.9,2.2-3.3,4.9-3.7,7.8c-0.1,0.9,1,1.2,1.1,0.3c0.4-2.6,1.6-5,3.4-7
		C386.8,90.1,386.1,88.9,385.4,89.7z"/>
	<path id="XMLID_28_" fill="#346a7e" opacity="0.2" d="M391.6,86.4c-3.1,2.8-5,6.8-5.6,10.9c-0.1,0.8,1.4,0.9,1.5,0.2c0.6-3.9,2.3-7.7,5.3-10.4
		C393.5,86.5,392.2,85.9,391.6,86.4z"/>
	<path id="XMLID_27_" fill="#346a7e" opacity="0.2" d="M398.4,84.3c-3.9,2.7-7,6.9-7.9,11.7c-0.2,1,1.1,0.7,1.3-0.1c0.8-4.2,3.5-8,7-10.4
		C399.5,85.1,399.3,83.7,398.4,84.3z"/>
	<path id="XMLID_26_" fill="#346a7e" opacity="0.2" d="M380.7,106.9c-1.1,2.4-2.5,7.9-2.9,9.9c-3.4,15.7-2.8,34.4,1.5,48.9
		c2.8,9.5,8.1,19.5,14.4,27.4c5,6.2,9.9,11.2,15.3,15.9c0,0,4.9,4.1,5.6,4.1l0.1,0c0.6-0.1,1.1-0.6,1.3-1.1c0.1-0.2,0.3-0.8,0.1-1.2
		c0-0.1-0.1-0.1-0.1-0.1c-5.9-4-11.2-9.7-16.2-15.2l-1-1.1c-15.2-17.1-22.6-42.2-19.8-67.1c0.9-7.9,3.3-15.8,4.6-19.7
		c0.1-0.2,0-0.5-0.1-0.7c-0.3-0.3-0.8-0.6-1.3-0.6C381.4,106.2,380.9,106.4,380.7,106.9z"/>
	<path id="XMLID_25_" fill="#346a7e" opacity="0.2" d="M496.8,139.4c0-0.3-0.2-0.6-0.6-0.7c-0.3,0-0.6,0.2-0.7,0.6c0,0.2-1.4,18.6-10,36.5
		c-11,22.7-28.4,34.8-28.6,34.9c-0.3,0.2-0.4,0.6-0.2,0.9c0.1,0.2,0.3,0.3,0.5,0.3c0.1,0,0.2,0,0.4-0.1c0.2-0.1,17.8-12.3,29-35.4
		C495.4,158.3,496.8,139.6,496.8,139.4z"/>
	<path id="XMLID_24_" fill="#346a7e" opacity="0.2" d="M411.3,86.5c-0.5,0.7,0.9,1.3,1.4,0.7c1.7-2.4,4.1-4,7-4.8c0.9-0.3-0.1-1.3-0.8-1.1
		C415.8,82.2,413.1,83.9,411.3,86.5z"/>
	<path id="XMLID_23_" fill="#346a7e" opacity="0.2" d="M407,80.4c-5.2,3.6-10.5,7.6-12.3,14c-0.2,0.7,1.3,0.9,1.5,0.2c1.6-6,6.9-9.8,11.7-13.2
		C408.8,80.8,407.6,80,407,80.4z"/>
	<path id="XMLID_22_" fill="#346a7e" opacity="0.2" d="M412.6,80.4c-5.2,2.3-9.6,6.1-12.6,11c-0.4,0.7,1,1.3,1.4,0.7c2.9-4.7,7-8.3,12.1-10.6
		C414.4,81.1,413.3,80.1,412.6,80.4z"/>
</g>
</svg>
