<?xml version="1.0" encoding="utf-8"?>
<!-- Generator: Adobe Illustrator 19.2.1, SVG Export Plug-In . SVG Version: 6.00 Build 0)  -->
<svg version="1.1" id="Слой_1" xmlns="http://www.w3.org/2000/svg"  x="0px" y="0px"
	 viewBox="0 0 97.7 66.3" style="enable-background:new 0 0 97.7 66.3;" xml:space="preserve">
<style type="text/css">
	.st0{fill:#FFFFFF;}
	.st1{fill:#DCD6C3;}
	.st2{fill:#366A7E;}
	.st3{fill:#4D4435;}
	.st4{fill:#B17D0C;}
</style>
<path class="st0" d="M58.6,37.1c2.3,1.2,4.5,2,5.1,2.2c0.1,0,0.2,0.1,0.3,0.1c0.5,0.2,1.1,0.5,2.1,0.6c0.8,0.1,1.8,0.1,2.8,0.1
	c0.2,0,0.4,0,0.6,0h0.3c1.3-0.1,2.6-0.1,3.5-0.2c1.1-0.2,2-0.5,2.5-0.7c0.3-0.1,0.5-0.3,0.6-0.5c1.4-0.5,2.7-1.3,3.4-1.6l0.1-0.1
	c0.1-0.1,2.6-1.5,4.3-3.4c1.6-1.8,3.2-3.9,4.1-6.5l0.1-0.3c0.8-2.3,1.1-3.4,1.2-5.8c0.1-2.5-1.5-7.3-2.2-9.3
	c-0.8-2.1-3.1-5.6-3.2-5.7c-0.4-0.6-0.9-1-1.3-1.3c-0.2-0.1-0.3-0.2-0.4-0.3c-0.4-0.5-0.7-0.8-0.8-0.9c-0.2-0.1-0.4-0.3-0.7-0.4
	c-0.1-0.1-0.3-0.3-0.4-0.4c-1.1-0.7-2.2-1.2-3.3-1.3c-0.6-0.1-1.2-0.1-1.6-0.1h-0.3c-0.2,0-0.4,0-0.7-0.1c-0.3,0-0.6-0.1-0.9-0.1
	c-0.2,0-0.3,0-0.5,0c-0.1,0-0.3,0-0.4,0s-0.2,0-0.4,0c-0.2,0-0.4,0-0.7,0c-0.4,0-1-0.1-1.6-0.2c-0.9-0.1-1.7-0.2-2.5-0.2
	c-0.1,0-0.2,0-0.3,0c-0.5,0-1.2,0.1-1.9,0.1c-0.3,0-0.8,0.1-1.4,0.3c-0.2,0-0.4,0.1-0.5,0.1c-1.8,0.4-2.7,1-3,1.2
	c-0.4,0.3-0.6,0.7-0.7,1h-0.1c-0.7,0-1.8,0.9-2.6,1.6c-0.1,0-0.2,0.1-0.3,0.2c0,0-0.2,0.1-0.4,0.3c-0.1,0-0.1,0.1-0.2,0.2
	c-0.1,0-0.1,0.1-0.2,0.1C56,5.9,55.8,6,55.7,6.1l-0.1,0.1c-0.1,0-0.1,0.1-0.2,0.1c-0.1,0.1-0.1,0.2-0.2,0.2C55,6.7,55,6.8,54.9,6.9
	c0,0.1-0.1,0.1-0.1,0.2c0,0,0,0,0,0.1l-0.1,0.1c-0.1,0.1-0.2,0.2-0.2,0.4l-0.1,0.1l-0.1,0.1L54,8.3c0,0.1-0.1,0.1-0.1,0.2l0,0
	l-0.1,0.1c-0.1,0.1-0.2,0.2-0.2,0.3L53.5,9l-0.1,0.1c-0.1,0.1-0.1,0.2-0.2,0.3l-0.1,0.1L53,9.6c0,0.1-0.1,0.1-0.1,0.1l-0.1,0.1
	l-0.1,0.1L52.6,10c-0.1,0.1-0.2,0.3-0.3,0.4c0,0.1-0.1,0.1-0.1,0.2c-0.1,0.1-0.1,0.1-0.1,0.2c-0.1,0.1-0.2,0.3-0.3,0.4
	c0,0.1-0.1,0.1-0.1,0.2l-0.1,0.1c-0.1,0.1-0.2,0.3-0.3,0.4c0,0.1-0.1,0.1-0.1,0.2c0,0,0,0,0,0.1l-0.1,0.1l-0.2,0.4
	c0,0.1-0.1,0.1-0.1,0.2c0,0,0,0,0,0.1c0,0-0.1,0.1-0.1,0.2c-0.1,0.1-0.1,0.3-0.2,0.4c0,0,0,0.1-0.1,0.1c0,0,0,0.1-0.1,0.1l-0.1,0.1
	c-0.1,0.1-0.1,0.3-0.2,0.4c0,0,0,0.1-0.1,0.1l-0.1,0.1c-0.1,0.1-0.1,0.3-0.2,0.4c0,0.1,0,0.1-0.1,0.2c0,0,0,0.1-0.1,0.1
	c0,0-0.1,0.1-0.1,0.2c0,0.1-0.1,0.2-0.1,0.3l-0.1,0.1v0.1c0,0.1-0.1,0.2-0.1,0.3c0,0,0,0.1-0.1,0.1c-0.1,0.2-0.1,0.3-0.2,0.5v0.1
	l0,0c0-0.1,0-0.2,0-0.3c-0.2-2.6-1-4-1.4-5l-0.1-0.2c-0.5-1-0.9-1.7-2.1-3.3c-0.3-0.4-0.6-0.8-0.8-1.2c-0.8-1.1-1.4-1.9-1.8-2.3
	c-0.8-0.8-4.1-2.6-4.7-3c-2-1.1-5.2-1.5-6.6-1.6c-0.1,0-0.2,0-0.4,0c-1.9,0-5.6,0.6-7.2,1c-0.8,0.2-1.2,0.3-1.5,0.4
	c-0.3,0.1-0.4,0.1-0.6,0.2c-0.1,0-0.1,0-0.2,0c-0.2,0-0.5,0.1-0.7,0.2c0,0-1.8,1-2.7,1.4c-0.8,0.4-1.4,0.9-2.1,1.6
	c-0.6,0.5-1.5,1.1-1.9,1.6c-0.2,0.1-0.3,0.2-0.5,0.4c-0.1,0.1-0.2,0.3-0.3,0.4c0,0.1-0.1,0.1-0.1,0.2c-0.1,0.1-0.1,0.1-0.1,0.2
	c-0.1,0.1-0.2,0.3-0.3,0.4l-0.1,0.1l-0.1,0.1c-0.1,0.1-0.2,0.3-0.2,0.4c0,0.1-0.1,0.1-0.1,0.2c-0.1,0.3-0.2,0.4-0.2,0.4
	c-0.1,0.1-0.1,0.3-0.2,0.4c0,0.1-0.1,0.2-0.1,0.2c0,0.1-0.1,0.1-0.1,0.2c-0.1,0.1-0.1,0.3-0.2,0.4c0,0.1-0.1,0.1-0.1,0.2
	c0,0.1-0.1,0.1-0.1,0.2c-0.1,0.3-0.1,0.4-0.2,0.6v0.1c0,0,0,0.1-0.1,0.2l-0.1,0.4c0,0.1,0,0.1-0.1,0.2c0,0.1-0.1,0.1-0.1,0.2
	l-0.1,0.4c0,0.1,0,0.1,0,0.2c0,0.1,0,0.1-0.1,0.2l-0.1,0.4c0,0.1,0,0.1,0,0.2c0,0.1-0.1,0.1-0.1,0.2l0,0c-0.6,1.6-1.3,3.5-1.6,5.4
	c-0.2,1.2-0.1,2.1,0.2,2.9c0,0.1,0,0.1,0,0.2c0,0.2,0.1,0.4,0.1,0.6c0,0.1,0.1,0.3,0.1,0.4s0,0.3,0.1,0.4c0.1,0.2,0.1,0.3,0.2,0.5
	c0,0.1,0.1,0.2,0.1,0.2c0,0.1,0.1,0.2,0.1,0.2c0.1,0.1,0.2,0.3,0.3,0.4s0.1,0.2,0.2,0.2c0,0.1,0.1,0.2,0.1,0.2
	c0.1,0.1,0.2,0.3,0.3,0.4c0,0.1,0.1,0.1,0.1,0.2s0.1,0.1,0.1,0.2c0.1,0.1,0.2,0.2,0.3,0.4l0.1,0.1c0,0.1,0.1,0.1,0.1,0.2l0.3,0.4
	c0,0.1,0.1,0.1,0.1,0.1c0,0.1,0.1,0.1,0.1,0.2l0.3,0.3l0.1,0.1l0.1,0.1l0.3,0.3c0,0.1,0.1,0.1,0.2,0.2c0,0.1,0.1,0.1,0.1,0.2
	l0.2,0.3l0.1,0.1l0.1,0.1l0.3,0.3c0,0.1,0.1,0.1,0.1,0.1c0,0.1,0.1,0.1,0.1,0.2l0.3,0.3l0.1,0.1c0,0,0,0.1,0.1,0.1l0.3,0.3
	c0,0.1,0.1,0.1,0.1,0.2s0.1,0.1,0.1,0.2l0.3,0.4c0,0,0,0.1,0.1,0.1c0,0,0,0.1,0.1,0.1c0,0,0,0,0,0.1c0,0,0,0,0.1,0.1
	c1.2,1.6,3.4,4.2,5,5.3c3.1,2.2,6.4,2.3,8.4,2.4h0.2c0.5,0,0.9,0,1.3,0c1.9,0,3-0.2,3.8-0.5c0.2,0,0.3-0.1,0.4-0.2
	c0.1-0.1,0.3-0.1,0.4-0.2c0.1-0.1,0.3-0.1,0.4-0.2l0,0c0.1,0,0.2-0.1,0.2-0.1c0.1,0,0.2-0.1,0.2-0.1c0.1-0.1,0.2-0.2,0.4-0.3
	c0,0,0.1,0,0.1-0.1H36c0.1,0,0.2-0.1,0.4-0.1c0,0,0.1,0,0.1-0.1h0.1c0.2-0.1,0.3-0.1,0.5-0.2c0.1,0,0.2-0.1,0.2-0.1
	c3.1-0.8,5.4-3.8,6.4-5.4c0.2-0.2,0.3-0.4,0.4-0.6c0.3-0.4,0.6-0.9,0.9-1.2c1.2-1.6,2.3-3.4,3.2-5.7c0.1-0.3,0.2-0.6,0.3-0.9l0,0
	l0,0l0,0c0,0.2,0,0.3,0,0.5l0,0l0,0c0.1,0.8,0.2,1.3,0.5,2c0.2,0.4,0.3,0.8,0.3,1.2c0,0.1,0,0.1,0.1,0.2l0,0c0,0.1,0,0.2,0.1,0.3
	c0,0.1,0.1,0.2,0.1,0.3c0.2,0.7,0.8,1.7,2.2,3.4c0.2,0.2,0.3,0.4,0.4,0.6c0.3,0.4,0.6,0.8,1.4,1.6c1,1.2,2.2,1.7,3.8,2.5
	C57.8,36.7,58.2,36.9,58.6,37.1z"/>
<path class="st0" d="M10.4,45.5l-0.1,0.2l-0.5-1.1L10.4,45.5z"/>
<path class="st0" d="M82.4,45.4L82.4,45.4l-0.2-0.2L82.4,45.4z"/>
<path class="st1" d="M59.5,5.6l-1.8,0.8c0,0-0.9,0.6-1.3,1.1C56,8,54.9,10,54.1,10.9c-0.8,0.8-1.6,2.1-2,2.7
	c-0.4,0.6-1.1,1.9-1.4,2.7c-0.3,0.8-0.7,1.4-0.6,4.7c0.1,3.3,0.1,3.6,0.5,4.7c0.3,0.8,0.4,1.5,0.6,2.2c0.2,0.7,1.2,2.1,1.9,2.9
	c0.7,0.9,0.7,1,1.7,2.1s2.2,1.6,4.5,2.7c2.3,1.1,4.4,1.9,5,2.1c0.5,0.2,1.1,0.5,2,0.6s2.2,0.2,3.1,0.1c1.3-0.1,2.7-0.1,3.6-0.2
	c0.9-0.1,1.7-0.4,2-0.6c0.4-0.2,0.5-0.5,0.5-0.5l-1.7,0.4l-2.6,0.2h-1.9l-2.1-0.3l-2.4-0.9l-4.7-1.7l-2.8-1.9l-2.8-3l2-2.2l-3.3,0.6
	l-0.9-1.1l-0.2-1L52,25.5l-0.5-1.3l0.3,0.6l0.2-2.6l0.2-2.3l-0.5-3.1v-0.5l1.6-1.8l2.3-2.3l1.9-2.4l0.8-1l3.3-2.6L59.5,5.6z"/>
<path class="st1" d="M24.1,3.6c0.5-0.1,1-0.3,1.5-0.4c0.6-0.1,1.2-0.1,1.7-0.2c1.1-0.2,2.4,0,3.5,0.1c0.6,0.1,1.1,0.1,1.6,0.4
	c0.4,0.2,0.9,0.4,1.4,0.6c0.9,0.5,1.9,0.9,2.8,1.5c0.3,0.2,0.7,0.4,1,0.5c0.3,0.2,0.6,0.4,0.9,0.6c0.3,0.2,0.7,0.3,1,0.4
	s0.9,0.3,1.2,0c-0.1-0.2-0.4-0.3-0.5-0.4c-0.2-0.2-0.3-0.4-0.5-0.6c-0.2-0.4,0.3-0.3-0.1-0.6c-0.4-0.3-2.6-1.7-4-2.2
	c-0.6-0.2-1.3-0.4-1.9-0.6c-0.9-0.2-1.8-0.3-1.9-0.3c-0.5,0-0.7-0.1-0.9-0.1c-0.3,0-0.2-0.3-0.4-0.3c-0.7-0.1-1.3,0.2-1.9,0.2
	c-0.7,0-1.3,0-1.9,0.2C26.2,2.5,25.5,2.8,25,3c-0.1,0.1-1.4,0.7-1.1,0.9"/>
<path class="st1" d="M19.8,9.5c0-0.1-0.2,0.3-0.4,0.5c-0.2,0.4-0.2,0.4-0.3,0.7c-0.2,0.6-0.3,1.3-0.2,1.9c0.1,0.5,0.3,0.7,0.6,1.1
	c0.4,0.5,1,0.6,1.5,0.8c1,0.4,1.9,0.8,2.9,1c0.6,0.1,1,0,1.4-0.4c0.2-0.1,0.3-0.3,0.4-0.5s0-0.6,0.1-0.9c0.1-0.8,0.2-1.8,0.3-2.6
	c0-0.2,0-0.5-0.1-0.6s-0.3-0.3-0.4-0.4c-0.3-0.4-0.6-0.3-1.1-0.4c-0.4-0.1-0.7-0.3-1.1-0.4C23,9.1,22.6,9,22.1,8.9
	c-0.5-0.1-1-0.1-1.4,0C20.5,9.1,20.2,9.4,19.8,9.5"/>
<path class="st1" d="M33.9,8.3c0,0.1,0.1,0.5,0.2,0.6c-0.7,0-0.6,0.8-0.5,1.2c0,0.3,0.1,0.5,0.2,0.8c0,0.3,0.1,0.5,0.1,0.8
	c0.2,0.9,0.6,1.8,0.8,2.7c0.1,0.5,0.5,0.8,1,1c0.2,0.1,0.5,0.1,0.8,0.1s0.6,0.1,0.9,0.1c0.1,0,0.3,0,0.4,0c0.1,0,0.2,0.1,0.3,0.1
	c0.3,0.1,0.6,0,0.9-0.1c0.5-0.1,0.6-0.5,1-0.9c0.1-0.1,0.3-0.1,0.3-0.2c0.1-0.1,0.1-0.3,0.2-0.4c0.2-0.3,0.2-0.6,0.2-1
	c0-0.3,0.1-0.6,0.2-0.9c0.1-0.2,0.3-0.8,0.1-1c0.1-0.1,0.1-0.4,0.1-0.6c0-0.1,0.1-0.2,0.1-0.3s-0.1-0.2-0.1-0.4
	c0-0.5,0.4-0.8,0.4-1.4c0-0.6-0.5-0.5-0.8-0.8c-0.2-0.2-0.3-0.3-0.6-0.4c-0.2-0.1-0.4-0.2-0.6-0.2c-1-0.4-2.3-0.5-3.3-0.2
	c-0.4,0.1-0.9,0.3-1.3,0.4c-0.2,0.1-0.4,0.3-0.6,0.4C34.2,8.1,33.9,8.1,33.9,8.3"/>
<path class="st1" d="M36,20.1c0.2,1.1,1.6,5.7,1.7,6c0.1,0.3,0.3,0,0.5-0.1c0.4-0.1,0.8-0.2,1.2-0.4c0.2-0.1,0.3-0.2,0.5-0.3
	c0.2-0.1,0.2-0.3,0.4-0.4c0-0.2,0.1-0.4,0.1-0.6s0.1-0.4,0.1-0.6s0-0.5,0-0.7s-0.1-0.4-0.1-0.6c0-0.4,0.3-0.8,0.4-1.2
	c0-0.3,0-0.7,0-1.4c0-0.4-0.5-0.5-0.9-0.5c-0.2,0-0.5,0-0.7,0.1c-0.2,0-0.5,0.1-0.7,0.1c-0.4,0.1-0.8,0.3-1.2,0.4s-0.9,0-1.4,0
	L36,20.1z"/>
<path class="st1" d="M28.8,21.1c-0.1,0.2-0.2,0.4-0.3,0.6c-0.2,0.6-0.4,0.8-0.6,1.4c-0.2,0.5-0.5,1.3-0.8,1.8
	c-0.2,0.4-0.2,0.5-0.4,0.9c-0.2,0.4-1.2,2.6-0.1,2.4c0.3,0,0.6-0.2,0.8-0.1c0.1,0,0.2,0.2,0.3,0.2c0.1,0,0.3,0,0.5,0
	c0.5,0.1,1.1,0.1,1.6,0.2c0.6,0.1,1.1-0.2,1.6-0.2c0.1,0,0.3,0.1,0.4,0.1s0.1-0.1,0.1-0.1c0.1,0,0.1,0.1,0.1,0.1c0.3,0,0.6,0,0.9,0
	c0.5,0.1,1,0.3,1.1-0.3c0.1-0.4-0.2-0.9-0.3-1.4c-0.2-0.5-0.4-0.8-0.6-1.3c-0.2-0.5-0.3-1-0.5-1.5s-0.4-1-0.6-1.5
	c-0.1-0.5-0.3-1-0.6-1.4c-0.3-0.5-0.7-0.8-1.1-1.1c-0.4-0.3-0.9,0-1.2,0.3C29,20.5,28.9,20.8,28.8,21.1z"/>
<path class="st1" d="M20.1,19c-1.4-0.3-0.8,5.4-0.4,6.1s1.1-0.3,1.5-0.6c0.5-0.5,0.9-0.9,1.3-1.4c0.6-0.9,1.2-1.7,1.5-2.6
	c0.3-0.8-1.2-1-1.7-1.1c-0.4-0.1-0.9,0.1-1.4,0c-0.2,0-0.4-0.1-0.6-0.2c-0.2,0-0.4-0.2-0.6-0.2"/>
<path class="st1" d="M68.9,6.1c-0.2,0.2-0.4,0.5-0.6,0.7c-0.1,0.1-0.2,0.3-0.3,0.4c0,0.1,0,0.2,0,0.3c0,0,0,0,0,0.1
	c0,0-0.1,0-0.1,0.1c-0.1,0.3-0.3,0.6-0.3,1s0,0.7,0.2,1c0.1,0.3,0.2,0.6,0.4,0.9c0.2,0.3,0.4,0.5,0.5,0.8c0.1,0.1,0.2,0.3,0.3,0.4
	c0.1,0.1,0.2,0.3,0.2,0.4h0.1c0.1,0.2,0.2,0.3,0.3,0.5c0.1,0.2,0.2,0.4,0.2,0.6c0,0.5-0.1,0.8-0.3,1.2c-0.2,0.3-0.5,0.6-0.9,0.7
	c-0.2,0.1-0.4,0.1-0.5,0.2c-0.2,0.1-0.4,0.2-0.5,0.3c0,0.1-0.3,0.3-0.4,0.5c-0.1,0.2-0.2,0.4-0.3,0.6c0,0.2-0.1,0.5-0.1,0.7
	c0,0.3,0.1,0.5,0.2,0.7c0.1,0.4,0.2,0.9,0.2,1.4c0,0.2-0.1,0.4-0.2,0.6c0,0.7,0,1.3-0.1,2c0,0.2,0,0.4-0.1,0.6
	c-0.1,0.1-0.1,0.3-0.2,0.4c-0.2,0.3-0.3,0.6-0.4,1c0,0.2,0,0.5,0.1,0.6s0.2,0.4,0.3,0.4c0.1,0.3,0.4,0.6,0.5,0.9
	c0.2,0.4,0.2,0.7,0.1,1.1s-0.1,0.9-0.1,1.3s-0.1,0.9,0,1.3c0,0.2,0.1,0.4,0.1,0.5c0.1,0.2,0,0.4,0.1,0.6c0,0.4,0,0.8,0.1,1.2
	c0.1,0.3,0.4,0.6,0.6,0.8c0.3,0.2,0.4,0.6,0.5,0.9c0.2,0.8,0.2,1.7,0.9,2.2c0.2,0.1,0.4,0.2,0.6,0.3c0.3,0.1,0.5,0,0.7,0.1
	c0.4,0.1,0.8,0,1.2,0.1c0.5,0.1,0.9-0.2,1.3-0.3s0.8-0.4,1.2-0.6c0.4-0.2,0.8-0.6,1.2-0.9c0.3-0.2,0.7-0.5,1.1-0.6
	c0.1,0,0.1,0,0.3,0c0.1,0,0.2-0.1,0.3-0.2c0.2-0.1,0.3-0.2,0.5-0.3c0.2-0.2,0.5-0.4,0.7-0.5c0.3-0.3,0.5-0.5,0.8-0.8
	c0.2-0.2,0.4-0.4,0.5-0.7c0.1-0.2,0.3-0.5,0.4-0.7c0.2-0.4,0.6-0.7,0.9-1c0.4-0.4,0.8-0.8,1.2-1.1c0.4-0.4,1-0.7,1.3-1.1
	s0.5-1,0.6-1.4s0.3-0.9,0.5-1.3c0.4-0.9,0.3-1.9,0.4-2.9c0.1-0.5,0.3-0.9,0.5-1.4c0.1-0.2,0.1-0.4,0.2-0.6s0-0.4,0.1-0.7
	c0.1-0.5,0.6-0.5,1-0.5c0.2,0,0.3,0,0.5,0.2c0.2,0.1,0.2,0.3,0.2,0.5c0.2,0.8,0.2,1.7,0.2,2.6c0,0.4-0.1,0.8-0.3,1.2
	c-0.1,0.4-0.2,0.8-0.3,1.2c-0.1,0.8-0.4,1.4-0.7,2.1c-0.1,0.2-0.2,0.3-0.3,0.5c-0.1,0.2-0.1,0.4-0.3,0.5c-0.3,0.3-0.3,0.6-0.5,0.9
	s-0.3,0.6-0.5,0.9s-0.5,0.6-0.7,0.9c-0.1,0.1-0.2,0.3-0.2,0.4c-0.1,0.3-0.4,0.5-0.5,0.7h-0.1c0,0.1-0.2,0.3-0.3,0.4
	c-0.1,0.1-0.2,0.2-0.3,0.3c-0.2,0.2-0.3,0.5-0.5,0.7s-0.4,0.4-0.6,0.6c-0.2,0.2-0.5,0.4-0.8,0.6c-0.5,0.4-1.1,0.7-1.6,1.1
	c-0.4,0.3-1,0.5-1.4,0.8s-0.9,0.4-1.4,0.7c-0.4,0.2-0.8,0.3-1.2,0.5c-0.7,0.3-1.6,0.3-2.3,0.5c-0.2,0-0.4,0.1-0.6,0.1
	s-0.4,0.1-0.6,0.1c-0.4,0-0.8,0.2-1.2,0.1c-0.2,0-0.4-0.1-0.6-0.1s-0.4,0-0.6,0s-0.3-0.1-0.5-0.1c-0.1,0-0.1-0.1-0.3-0.1
	c-0.1,0-0.2,0-0.4,0.1c-0.8,0-1.7-0.2-2.4-0.5c-0.4-0.2-0.7-0.3-1.1-0.4c-0.2-0.1-0.4-0.2-0.6-0.3c-0.2-0.1-0.5-0.2-0.7-0.3
	S63,36.1,62.8,36c-0.2-0.1-0.4-0.3-0.6-0.4c-0.2-0.1-0.4-0.2-0.6-0.2c-0.2-0.1-0.4-0.3-0.5-0.4c-0.3-0.2-0.6-0.4-0.9-0.5
	c-0.2-0.1-0.3,0-0.4-0.1c-0.1-0.1,0-0.1-0.1-0.2c-0.2-0.4-0.2-0.8-0.2-1.3s-0.2-1.2-0.2-1.7c0-0.2-0.1-0.4-0.2-0.6
	c-0.1-0.2,0-0.5,0-0.7c-0.1-0.6-0.2-1.2-0.3-1.7c-0.1-0.4-0.2-0.8-0.3-1.2c-0.1-0.5-0.1-1-0.3-1.4c-0.3-0.9-0.8-1.8-1.2-2.7
	c-0.3-0.7-0.7-1.5-1-2.2c-0.3-0.6-0.6-1.2-0.7-1.9c-0.1-0.6-0.4-1.2-0.4-1.8c0-0.3-0.1-0.5-0.1-0.8c0-0.3,0.1-0.6,0.2-0.9
	c0.3-0.6,0.5-1.1,0.9-1.5c0.2-0.2,0.4-0.5,0.7-0.7c0.3-0.3,0.6-0.5,0.9-0.8c0.5-0.5,0.8-1,1.3-1.5c0.4-0.4,0.7-0.8,1.2-1.2
	c0.4-0.3,0.8-0.7,1.2-1c0.6-0.3,1.2-0.6,1.8-1c0.4-0.2,0.8-0.4,1.1-0.6s0.7-0.3,0.9-0.5c0.3-0.3,0.4-0.6,0.7-0.9
	C66,5.2,66.6,5,67,4.8c0.6-0.2,1.2-0.4,1.8-0.4c0.2,0,0.4,0,0.7,0.1c0.1,0,0.2,0,0.3,0.1c0.1,0.1,0.1,0.1,0.3,0.2
	c0.1,0.3,0.1,0.4-0.2,0.6c-0.2,0.1-0.4,0.1-0.6,0.3c-0.1,0.1-0.1,0.2-0.1,0.2C69.1,5.9,69,6,68.9,6.1z"/>
<path class="st1" d="M23.3,3c0,0-3.3,2-6.4,4.4c-2,1.6-2.9,2.3-3.4,4.1c-0.5,1.7-1.7,5.3-1.9,6.7s1,2.5,1.3,3.4
	c0.3,1,0.4,1.8,0.7,1.9s2.1,1.2,2.1,1.2s-1.5,1.4-1,2.1c0.3,0.4,2.4,3.5,3,4.4s2.3,3.1,3.5,3.9c1.2,0.9,3.6,0.8,5.6,1.1
	c2.1,0.3,12.5-3.8,13.5-4.1s5.5-12.7,5.9-13.5c1.6-3.1,0.9,5,0.9,5l-1.8,3.8L43,30.6c0,0-2.6,5-6.5,5.7c-0.6,0.1-1.5,0.6-2,0.9
	c-0.5,0.4-0.7,0.4-0.8,0.5s-0.5,0.9-5.1,0.7c-1.9-0.1-5-0.1-7.9-2.1c-1.5-1.1-3.8-3.7-4.9-5.3c-1.1-1.6-2.1-3.7-3.4-5.5
	c-1.2-1.8-2.9-3-2.5-5.8c0.5-2.8,1.7-5.5,2.4-7.6C13,10.7,14,8.8,15,7.6c0.4-0.5,2.2-1.9,2.6-2.1C21.2,3.1,23.3,3,23.3,3z"/>
<g>
	<path class="st2" d="M36.3,21.3c0,0.1,0.1,0.2,0.1,0.3c1.6-0.1,3-0.8,4.3-1.7c0-0.1,0-0.2-0.1-0.3C39.3,20.6,37.9,21.3,36.3,21.3z"
		/>
	<path class="st2" d="M36.6,22.3c1.5-0.2,2.9-0.8,4.1-1.6v-0.1c0-0.1,0-0.2,0-0.3c-1.3,0.9-2.7,1.4-4.2,1.6
		C36.5,22.1,36.5,22.2,36.6,22.3z"/>
	<path class="st2" d="M36.6,20.1c1,0.1,1.8-0.2,2.5-0.5c0.5-0.2,0.7-0.2,0.8-0.2c-1.1,0.8-2.4,1.4-3.8,1.4c0,0.1,0.1,0.2,0.1,0.4
		c1.5-0.1,2.9-0.8,4.2-1.7c0,0,0.1,0,0.1,0.1c0.1,0.1,0.1,0.2,0.1,0.3v-0.6l0,0c-1.6,0.1-3.7-0.1-4.9-0.1l0.3,1
		C36.1,20.1,36.3,20.1,36.6,20.1z"/>
	<path class="st2" d="M31.3,16.5c-0.2-1.7-0.6-3.5-0.9-5c0,0.2-0.7,3.9-1,5C29.9,16.5,30.8,16.6,31.3,16.5z"/>
	<path class="st2" d="M25.1,28.9c0.1-0.2,2.8-7,3-7.4l0,0c0.5-2.5,2.1-10.8,2.1-10.8c0-0.2-0.2-1.1-0.3-2c-0.2,0-0.3,0-0.4,0
		c-0.3,1.5-2.2,12-2.4,12.8c-0.3,1-2.5,6.7-2.8,7.5C24.4,28.9,24.9,28.9,25.1,28.9z"/>
	<path class="st2" d="M40.6,21.1c-0.5,0.4-1,0.7-1.6,1c-0.7,0.3-1.5,0.5-2.3,0.6c0,0.1,0.1,0.2,0.1,0.4c0.8-0.1,1.6-0.3,2.3-0.7
		c0.5-0.2,0.9-0.5,1.3-0.7c0,0.1-0.1,0.2-0.1,0.3c-0.4,0.3-0.9,0.5-1.4,0.7c-0.7,0.3-1.4,0.6-2.1,0.8c0,0.1,0.1,0.2,0.1,0.3
		c0.6-0.2,1.2-0.4,1.8-0.6c0.5-0.2,1-0.5,1.5-0.8c0,0,0,0,0,0.1s0,0.2-0.1,0.3c-0.4,0.3-0.9,0.5-1.4,0.8s-1.1,0.5-1.7,0.6
		c0,0.1,0.1,0.2,0.1,0.3c0.6-0.1,1.1-0.3,1.7-0.6c0.4-0.2,0.8-0.4,1.2-0.6c0,0.1,0,0.2-0.1,0.2c-0.9,0.6-1.8,0.9-2.8,1.1
		c0,0.1,0.1,0.2,0.1,0.3c0.9-0.2,1.8-0.5,2.6-1c0,0,0,0,0,0.1v0.1c-0.8,0.5-1.6,0.9-2.5,1.1c0,0.2,0.1,0.3,0.1,0.4
		c0.8-0.2,1.5-0.5,2.2-0.9c0,0.1-0.1,0.2-0.1,0.3c-0.6,0.4-1.3,0.7-2,0.9c0.1,0.1,0.1,0.2,0.2,0.2c-0.1,0-0.1,0-0.1,0l0.8,2.8
		l2.5-2.6L40.7,21C40.7,20.9,40.7,21,40.6,21.1z"/>
	<path class="st2" d="M47.3,16.9c-0.2-2.5-1-3.8-1.4-4.7s-0.8-1.5-1.9-3.1c-1.1-1.5-2-2.8-2.5-3.3S38.8,4,37.1,3.1
		c-1.6-0.9-4.5-1.3-6-1.4s-5.5,0.5-7.1,1c-1.6,0.4-1.9,0.5-2,0.5c0.1,0.1,0.6,0.2,0.6,0.3S22.3,3.6,22,3.7c-0.6,0.1-2,1-3.3,1.7
		s-2.6,1.9-3.4,3.2c-0.8,1.3-1.4,3.2-1.6,4.1c-0.2,0.9-1,3.3-1.5,4.5s-0.5,2.9-0.5,3.2s0.4,0.5,0.5,0.8c0.2,0.3,0.1,1,0.1,1.1
		c-0.1,0.1-0.3-0.5-0.5-0.9s-0.3-0.9-0.2-2.1c0.1-1.1,0.5-2.5,0.6-3c0.2-0.5,0.9-2.6,1.3-4.3c0.5-1.7,1.8-4,2.3-4.7
		c0.7-0.7,2.2-1.7,3-2.1c0.8-0.5,2.5-1.5,2.5-1.5V3.3c0,0-1.8,1-2.8,1.5C17.6,5.2,17,5.9,15.9,7c-0.4,0.4-0.7,0.8-1,1.1l-0.3-0.2
		c-0.1,0.1-0.2,0.2-0.3,0.3l0.3,0.2c-0.1,0.1-0.1,0.2-0.2,0.3l-0.3-0.2C14,8.7,14,8.8,13.9,9l0.4,0.2c0,0.1-0.1,0.2-0.1,0.3
		l-0.5-0.3c-0.1,0.1-0.1,0.2-0.2,0.4l0.4,0.3c0,0,0,0.1-0.1,0.1c0,0.1-0.1,0.2-0.1,0.3l0,0L13.2,10c-0.1,0.1-0.1,0.3-0.2,0.4
		l0.5,0.3c0,0.1-0.1,0.2-0.1,0.3l-0.6-0.2c-0.1,0.1-0.1,0.3-0.2,0.4l0.6,0.2c0,0.1-0.1,0.3-0.1,0.4l-0.7-0.2
		c-0.1,0.1-0.1,0.3-0.2,0.4l0.7,0.2c0,0.1-0.1,0.2-0.1,0.3l-0.5-0.3c0,0.1-0.1,0.3-0.1,0.4l0.7,0.2c0,0.1-0.1,0.3-0.1,0.4L12.1,13
		c0,0.1-0.1,0.3-0.1,0.4l0.7,0.2l0,0c0,0.1,0,0.2-0.1,0.3l-0.7-0.2c0,0.1-0.1,0.3-0.1,0.4l0.7,0.2c0,0.1-0.1,0.3-0.1,0.4l-0.8-0.2
		c0,0.1-0.1,0.3-0.1,0.4l0.7,0.2c0-0.1,0.1-0.2,0.1-0.2c-0.3,1-0.6,2.3-0.7,3c-0.1,0.4-0.2,1-0.3,1.6c0-0.1,0-0.1,0-0.2l-0.8-0.2
		c0,0.1-0.1,0.3-0.1,0.4l0.8,0.2c0,0.1,0,0.2,0,0.3l-0.9-0.1c0,0,0,0,0,0.1s0,0.2-0.1,0.4l0.9,0.1c0,0.1,0,0.3,0,0.4l-0.9-0.1
		c0,0.1,0,0.3,0,0.4l0.9,0.1c0,0.1,0,0.2,0,0.3l-0.9,0.1c0,0.2,0,0.3,0,0.4l0.9-0.1v0.1c0,0.1,0,0.2,0.1,0.3l-1,0.1
		c0,0.1,0,0.3,0.1,0.4l1-0.1c0,0.1,0.1,0.2,0.1,0.3l-1,0.4c0,0.1,0.1,0.3,0.2,0.4l1-0.4c0.1,0.1,0.2,0.2,0.2,0.3l-1.1,0.4
		c0.1,0.1,0.1,0.3,0.2,0.4l1.1-0.5c0.1,0.1,0.1,0.1,0.2,0.2L11.1,25c0.1,0.1,0.2,0.2,0.2,0.4l1.4-0.9c0.3,0,0.5,0,0.5,0
		c0.1,0,0.2,0.1,0.4,0.4s0.1,0.6,0.9,1.6c0.8,1,1.1,1.1,1.5,1.6c0.4,0.5,0.6,1.2,1.2,2.1c0.6,1,1.8,2.1,2.6,2.9
		c0.8,0.8,2.2,2.1,3.1,2.6s2.5,0.7,3.7,1.2s3.6,0.2,4.8,0.1c1.2-0.1,2.2-0.7,2.9-1c0.6-0.3,2-0.8,2.9-1.1s1.6-0.8,2.5-1.4
		c0.9-0.6,1.7-1.6,2.3-2.3c0.6-0.7,1.2-1.7,1.6-2.4c0.4-0.6,1-1.4,1.4-2.3c0.5-0.9,0.6-1.2,0.8-1.8c0.2-0.5,0.4-1.3,0.4-2.2
		c0.1-0.9,0.4-1.2,0.4-2.1c0.1-0.9-0.4-1.3-0.4-2.1s0-1.6,0-2.3c-0.1-0.7-0.2-1.4-0.5-1.7c-0.3-0.4-0.3-0.7-0.6-1.4
		s-0.5-0.8-0.9-1.3c-0.3-0.5-0.4-0.8-0.9-1.8s-0.9-1.6-1.3-2c-0.4-0.4-0.7-0.5-1.1-0.8c-0.4-0.3-0.9-0.8-1.5-1.3
		c-0.5-0.5-1.1-0.8-1.8-0.8s-1.7-0.4-2.5-0.7c-0.7-0.3-1.7-1.1-2.3-1.3c-0.5-0.2-1.1-0.4-1.4-0.5c0,0-0.1,0-0.2,0
		c1.3,0.1,2.6,0.3,3.5,0.5c1.7,0.3,4.3,1.8,4.9,2.2s2.6,2.1,3.1,2.7c0.5,0.7,1.3,2,1.6,2.6s1,1.1,1.7,2.8c0.8,1.7,0.7,2.8,0.7,3.4
		c0.1,0.6,0.3,2.8,0.2,4.1c-0.1,1.3-0.3,2.1-0.6,3.3c-0.3,1.1-0.5,1.7-1,2.6s-0.5,0.9-1.1,1.9s-1.7,2.6-2,2.9s-0.6,0.6-1.1,1.1
		c-0.5,0.6-0.9,1.2-1.6,1.7c-0.6,0.4-1.2,0.3-2.3,0.9c-1.2,0.6-1.2,1.1-3.4,1.8s-4.7,0.5-5.7,0.5c-1-0.1-1.3-0.3-2.4-0.5
		s-2.5-0.7-3.2-1.2c-0.7-0.4-0.9-0.9-1.4-1.3c-0.5-0.4-1.3-0.9-1.6-1.3c-0.3-0.3-0.6-0.7-1.4-1.8c-0.9-1.2-2.2-2.9-2.7-3.8
		s-1.6-1.7-1.7-1.6c-0.1,0,0,0.2,0.2,0.3L12.8,27c0.1,0.1,0.2,0.2,0.3,0.3l1.2-0.8l0.1,0.1l0.1,0.1l-1.1,0.8
		c0.1,0.1,0.2,0.2,0.3,0.3l1.1-0.8c0.1,0.1,0.2,0.2,0.2,0.3l-1.1,0.8c0.1,0.1,0.2,0.2,0.3,0.3l1.1-0.8c0.1,0.1,0.1,0.2,0.2,0.2
		l-1.1,0.8c0.1,0.1,0.2,0.2,0.3,0.3l1.1-0.8c0.1,0.1,0.2,0.2,0.2,0.3l-1.1,0.8c0.1,0.1,0.2,0.2,0.3,0.3l1.1-0.8
		c0,0.1,0.1,0.1,0.2,0.2l-1,0.8c0.1,0.1,0.2,0.2,0.3,0.3l1-0.8c0.1,0.1,0.2,0.2,0.2,0.3l-1,0.8c0.1,0.1,0.1,0.2,0.2,0.3
		c0,0,0,0.1,0.1,0.1l1-0.8c0.1,0.1,0.1,0.2,0.2,0.2l-1.1,0.8c0.1,0.1,0.2,0.2,0.3,0.3l1.1-0.8c0.1,0.1,0.2,0.2,0.2,0.3l-1.1,0.8
		c0.1,0.1,0.2,0.2,0.3,0.3l1.1-0.7l0,0c0.2,0.3,0.5,0.6,0.7,0.9l-1,0.8c0.1,0.1,0.2,0.2,0.3,0.3l1-0.7c0.1,0.1,0.1,0.1,0.2,0.2
		l-0.9,0.8c0.1,0.1,0.2,0.2,0.3,0.3l0.9-0.7c0.1,0.1,0.2,0.2,0.3,0.3L19.2,34c0.1,0.1,0.2,0.2,0.3,0.3l0.9-0.7l0.1,0.1l-0.7,0.9
		c0.1,0.1,0.2,0.2,0.3,0.3l0.7-0.9c0.1,0.1,0.2,0.2,0.3,0.3l-0.7,0.9c0.1,0.1,0.2,0.2,0.3,0.3l0.7-0.9c0.1,0,0.1,0.1,0.2,0.1l-0.5,1
		c0.1,0.1,0.2,0.1,0.2,0.2l0.1,0.1l0.5-1c0.1,0.1,0.2,0.2,0.3,0.2l-0.5,1c0.1,0.1,0.2,0.1,0.4,0.2l0.5-1c0.1,0,0.2,0.1,0.2,0.1
		l-0.5,1c0.1,0.1,0.3,0.1,0.4,0.2l0.5-1c0.1,0.1,0.2,0.1,0.4,0.2l-0.5,1c0.1,0.1,0.3,0.1,0.4,0.2l0.5-1c0.1,0,0.2,0.1,0.2,0.1
		l-0.3,1c0.1,0,0.3,0.1,0.4,0.1l0.3-1c0.6,0.2,1.3,0.4,1.9,0.5L26,38.2c0.1,0,0.3,0,0.4,0.1l0.1-0.9c0.1,0,0.2,0,0.3,0v0.9
		c0.1,0,0.3,0,0.4,0v-0.9c0.1,0,0.3,0,0.4,0v0.9c0.2,0,0.3,0,0.4,0v-0.8c0.1,0,0.2,0,0.3,0v0.8c0.1,0,0.3,0,0.4,0v-0.8
		c0.1,0,0.3,0,0.4,0v0.8c0.1,0,0.3,0,0.4,0v-0.8c0.1,0,0.2,0,0.3,0v0.7c0.2,0,0.3,0,0.4,0v-0.7c0.1,0,0.3,0,0.4,0v0.7
		c0.2,0,0.3,0,0.4,0v-0.7c0.1,0,0.2,0,0.3,0v0.7c0.2,0,0.3,0,0.4,0v-0.7c0.1,0,0.3,0,0.4,0v0.6c0.2,0,0.3,0,0.4-0.1v-0.6
		c0.1,0,0.2,0,0.3,0v0.5c0.2,0,0.3-0.1,0.4-0.1v-0.5c0.1,0,0.1,0,0.2,0c0.1,0,0.2,0,0.2-0.1v0.3c0.1,0,0.1-0.1,0.1-0.1
		c0.1-0.1,0.2-0.1,0.3-0.1v-0.2c0.1,0,0.2-0.1,0.3-0.1v0.2c0.1,0,0.2-0.1,0.3-0.2c0,0,0.1-0.1,0.2-0.1v-0.2c0.1-0.1,0.3-0.2,0.4-0.3
		v0.2c0.1-0.1,0.3-0.1,0.4-0.2v-0.3c0.1,0,0.2-0.1,0.3-0.1v0.4c0.1-0.1,0.3-0.1,0.4-0.2v-0.4c0.1-0.1,0.3-0.1,0.4-0.2v0.3
		c0.1-0.1,0.3-0.2,0.4-0.2v-0.2c0.1,0,0.2-0.1,0.3-0.1v0.2c0.2-0.1,0.4-0.1,0.4-0.1v-0.2c0.5-0.2,1.1-0.5,1.7-0.9
		c0.4-0.3,0.9-0.8,1.4-1.3c1-1.1,2-2.6,2.9-3.7c1.3-1.6,2.2-3.5,3-5.4C47.6,22.7,47.6,19.5,47.3,16.9z M29.1,2.3
		c0.7-0.1,1.3-0.1,2-0.1c-0.3,0-0.6,0-0.6,0s0.1,0.4-0.2,0.9c-0.2,0.6-0.4,0.9-1.2,1.3c-0.8,0.4-1.5,0.2-2.5-0.2
		C26,4,25.4,3.5,25.2,3.1C25.2,3.1,27,2.5,29.1,2.3z M21.9,9.4c0.6,0,1.3,0.2,1.8,0.4c-0.3,0-0.6,0-0.9-0.1
		c-0.6-0.1-1.3-0.2-1.9-0.4C21.2,9.4,21.6,9.4,21.9,9.4z M22.5,10.1c0.8,0.1,1.6,0.1,2.4,0.1c0.3,0.1,0.6,0.2,0.8,0.3
		c-0.9,0-1.8,0-2.8-0.1c-0.2,0-0.5-0.1-0.7-0.1c-0.8-0.1-1.7-0.3-2.4-0.7l0,0c0,0,0.2-0.1,0.4-0.1C20.9,9.8,21.7,10,22.5,10.1z
		 M40.6,10.5c0.1,0.7,0.1,1.4-0.1,2.1c-0.2,0.9-0.7,1.8-1.3,2.5c-0.2,0-0.4,0.1-0.6,0.1c0.4-0.4,0.8-0.9,1-1.5
		C40.2,12.7,40.5,11.8,40.6,10.5L40.6,10.5z M40.2,11.1L40.2,11.1c-0.1,0.9-0.4,1.7-0.8,2.5c-0.3,0.6-0.8,1.1-1.2,1.6
		c-0.3,0-0.5,0-0.8,0c0.5-0.4,1-0.9,1.5-1.5C39.4,13,39.9,12.1,40.2,11.1z M39.8,11.3c-0.3,0.8-0.7,1.6-1.2,2.2
		c-0.5,0.6-1.1,1.2-1.7,1.6c-0.3,0-0.6-0.1-0.9-0.1c0.9-0.4,1.7-1,2.4-1.7c0.5-0.5,0.9-1.2,1.3-2C39.7,11.3,39.7,11.3,39.8,11.3z
		 M39.3,11.4C39,12,38.6,12.6,38.2,13c-0.8,0.8-1.8,1.5-2.8,1.9c-0.1,0-0.2-0.1-0.2-0.1s0,0-0.1-0.1c0.9-0.3,1.8-0.8,2.6-1.5
		C38.3,12.7,38.8,12.1,39.3,11.4C39.2,11.4,39.3,11.4,39.3,11.4z M38.8,11.4c-0.4,0.7-1,1.3-1.6,1.7c-0.7,0.5-1.5,1-2.4,1.3
		c-0.1-0.1-0.2-0.3-0.3-0.5c1.1-0.3,2.2-0.8,3.2-1.6c0.3-0.3,0.6-0.6,0.9-1C38.7,11.4,38.8,11.4,38.8,11.4z M35.7,7.7
		c0.4-0.1,0.4-0.1,0.4-0.1s0,0.1,0,0.2V7.7c-0.3,0.1-0.7,0.1-1,0.1C35.4,7.8,35.6,7.7,35.7,7.7z M33,7.4c0.1,0,0.7-0.2,1.2-0.2
		c0,0.2,0,0.4,0,0.8c-0.5,0.1-1.1,0.2-1.7,0.3c0.3,2.9,0.6,5.7,1.3,8.3c0.1,0,0.3,0,0.7,0L33,9c0,0,0.6-0.4,0.8-0.5c0,0,0,0,0.1,0
		l0,0l0,0c0.1-0.1,0.3-0.2,0.5-0.3c0.1,0,0.2,0,0.3,0c0.5,0,1-0.1,1.5-0.1v0.1c-0.6,0.2-1.1,0.3-1.7,0.4c-0.2,0-0.4,0-0.6,0.1
		L34,8.9c0.3,0,0.5,0,0.8-0.1c0.5-0.1,1-0.2,1.5-0.3c0,0,0,0.1,0,0.2c-0.5,0.2-1.1,0.3-1.6,0.4c-0.4,0-0.8,0.1-1.2,0.1
		c0,0.1,0,0.2,0,0.3c1-0.1,2-0.2,2.9-0.5c0,0.1,0,0.1,0.1,0.2c-0.9,0.3-1.9,0.5-2.9,0.5c0,0.1,0,0.2,0.1,0.4c1-0.1,2-0.3,2.9-0.6
		c0,0.1,0.1,0.2,0.1,0.3c-0.9,0.4-2,0.5-3,0.6c0,0.1,0,0.3,0.1,0.4c1-0.1,2.1-0.3,3-0.7c0,0,0,0.1,0.1,0.1c-0.9,0.5-2,0.7-3,0.9
		c0,0.1,0,0.2,0.1,0.4c1.1-0.2,2.2-0.5,3.1-1l0.1,0.1c-0.9,0.6-2.1,0.9-3.2,1.1c0,0.1,0.1,0.2,0.1,0.3c1.2-0.2,2.3-0.5,3.3-1.2
		c0,0.1,0.1,0.1,0.1,0.1c-0.9,0.7-2.1,1.2-3.3,1.4c0,0.1,0.1,0.2,0.1,0.3c1.3-0.2,2.6-0.7,3.6-1.5c0.1,0,0.1,0,0.2,0.1
		c-0.2,0.2-0.5,0.4-0.7,0.6c-0.9,0.6-1.9,0.9-2.9,1.1c0,0.1,0.1,0.2,0.1,0.3c1.1-0.2,2.1-0.6,3-1.2c0.3-0.2,0.6-0.4,0.9-0.7h0.1
		c-0.3,0.3-0.5,0.6-0.8,0.9c-0.9,0.7-1.9,1.2-3,1.4c-0.1-0.2-0.1-0.3-0.2-0.5l0.8,3.5c1.3,0,3.5,0,4.6,0.3c0.2,0,0.6,0,1.1,0
		l0.7-6.6c-0.3,1.2-0.9,4.1-1.5,4.4c-0.1,0-0.2,0.1-0.2,0.1c0.5-0.7,0.8-1.5,1-2.3c0.2-1.1,0.3-2.1,0-3.1l0,0c0-0.1,0-0.1-0.1-0.2
		c0.1-0.3,0-0.3,0-0.3V8.5l1.1,0.9l-0.5,7.5c0.4,0,0.7,0.1,0.8,0.1c0,0.9,0,1.6-0.1,2.4c-0.3,0-0.5-0.1-0.7-0.2c0,0,0,0-0.1,0
		c0.1,1,0.3,3.6,0.3,4.1c0,0.7,0,2.5,0,2.5l-0.4,0.4l0,0l-3.6,3.7l-0.1-0.5l0.4-0.4l-2.8-9.9c-0.1,0-0.2,0-0.2,0
		c0,0.6,0.2,1.5,0.3,2c0.2,1.5,0.3,2.7,0.7,4.1c0.4,1.5,0.7,3.4,1.1,5.1c0.4,0.1,0.9,0,1.3,0c0.1,0.6,0.3,1,0.3,1.4
		c-1.4,0-3.6,0.1-5.2,0c-0.1-0.4-0.1-1-0.1-1.3c0.4-0.1,0.9,0,1.4,0c-0.7-3.2-1.5-6.7-2.2-10c-0.2-0.8-0.2-1.1-0.3-1.5
		c-1,0.1-2.2-0.1-3.2,0c-0.1,0.6-0.5,2.1-0.6,2.6l0,0c0,0.1-0.3,0.9-0.7,1.9c0.3-0.6,0.5-1.1,0.8-1.5c0,0.1-0.1,0.2-0.2,0.3
		c0.4-0.2,0.7-0.4,1.1-0.5s1.3-0.4,1.8-0.3c0,0.1,0.1,0.2,0.1,0.3c-1.1,0-2.2,0.2-3.2,0.7c-0.1,0.2-0.2,0.3-0.3,0.5
		c1.1-0.6,2.3-0.8,3.6-0.8c0,0.1,0.1,0.2,0.1,0.3c-1.3,0-2.6,0.1-3.8,0.6c-0.1,0.2-0.2,0.3-0.2,0.5c1.3-0.6,2.7-0.7,4.1-0.7
		c0,0.1,0.1,0.2,0.1,0.2c-1.5-0.1-3,0.1-4.3,0.7c-0.1,0.2-0.1,0.3-0.2,0.5c1.4-0.7,3.1-0.9,4.7-0.7c0,0.1,0.1,0.2,0.1,0.2
		c-1.7-0.1-3.3,0.2-4.9,0.7c-0.1,0.1-0.1,0.2-0.2,0.4c1.6-0.6,3.4-0.9,5.2-0.8c0,0.1,0.1,0.1,0.1,0.2c-1.8-0.1-3.6,0.1-5.3,0.7
		c-0.1,0.2-0.1,0.3-0.2,0.5c1.8-0.7,3.8-1,5.7-0.8c0.1,0.1,0.1,0.3,0.2,0.4c-1.1-0.1-2.2-0.1-3.3,0c-0.9,0.1-1.8,0.3-2.6,0.7
		c-0.1,0.1-0.1,0.3-0.2,0.4c0.9-0.4,2-0.6,3-0.8c1.1-0.1,2.2-0.1,3.3,0c0,0.1,0.1,0.2,0.1,0.3c-1.1-0.1-2.2-0.1-3.3,0.1
		c-1,0.1-2.2,0.4-3.2,0.7c-0.1,0.2-0.1,0.3-0.1,0.4c1.1-0.5,2.5-0.7,3.7-0.9c1.1-0.1,2.1-0.1,3.1,0c0,0.1,0.1,0.2,0.1,0.3
		c-1.1-0.1-2.2,0-3.4,0.1c-1.2,0.2-2.5,0.4-3.6,0.9c0,0.1,0,0.2,0,0.2c0-0.1,0-0.3,0-0.5c-0.4,1-0.7,1.7-0.7,1.8c1.7,0.1,4,0,5.9,0
		c0.7,0,1.5,0,2.1,0c0.1,0.1,0,0.4-0.1,0.5c-2.8,0-6.3,0-9.4,0c-0.2,0.5-0.4,0.9-0.5,1.4c0.2,0,0.4,0,0.6,0.1c0,0.3,0,0.7,0,1.1
		c-1.4-0.2-3.3,0.1-4.7-0.1c-0.1-0.4-0.2-0.7-0.2-1.1c0.4-0.1,0.9,0,1.3,0c1.5-3.6,2.9-7.3,4.4-11c0-0.3,0.1-0.4,0.1-0.6
		c-2.5,0-5.2-0.1-7.5-0.3h-0.1c-0.2,0.7-0.4,2-0.3,2.6c0,0.7,0.5,2.1,0.9,3.2c0.1,0.3,0.2,0.5,0.3,0.8c0.4,1.2,1.5,3.4,1.5,3.5
		l-0.3,0.3c0-0.1-1.2-2.4-1.6-3.6c-0.1-0.2-0.2-0.5-0.3-0.8c-0.4-1.2-0.8-2.5-0.9-3.3c0-0.7,0.2-2,0.4-2.7c-0.9-0.1-1.2-0.1-1.6-0.4
		c0.2-0.9,0.4-1.8,0.6-2.6c0.2,0,0.4,0,0.6,0.1l2.1-6l0.3-0.7l0.5,0.1l-0.2,0.5c0,0.1-0.1,0.1-0.1,0.2c0.9,0.4,1.9,0.7,2.9,0.8
		c1.2,0.2,2.4,0.2,3.5,0.2c0,0.1,0.1,0.2,0.1,0.3c-1.1,0-2.2,0-3.4-0.2c-0.2,0-0.5-0.1-0.7-0.1c-0.8-0.2-1.6-0.4-2.4-0.8
		c-0.1,0-0.1-0.1-0.2-0.1c0,0.1-0.1,0.2-0.1,0.3c0.9,0.5,1.9,0.8,2.9,1c1.3,0.2,2.5,0.3,3.8,0.3c0,0.1,0,0.2,0,0.3c-1,0-2-0.1-3-0.2
		c-0.3,0-0.5-0.1-0.8-0.1c-0.9-0.2-1.9-0.5-2.7-0.9c-0.1,0-0.2-0.1-0.3-0.1c0,0.1-0.1,0.2-0.1,0.3c1,0.5,2.2,0.9,3.2,1.1
		c1.2,0.2,2.4,0.3,3.7,0.4c0,0.1,0,0.2,0,0.3c-1.1,0-2.1-0.1-3.2-0.3c-0.2,0-0.5-0.1-0.7-0.2c-0.8-0.2-1.7-0.5-2.4-0.9
		c-0.2-0.1-0.4-0.2-0.5-0.3c0,0.1-0.1,0.2-0.1,0.3c0.9,0.6,2.1,1,3.1,1.2c1.3,0.3,2.5,0.4,3.8,0.4c0,0.1,0,0.3,0,0.4
		c-1,0-2-0.1-3-0.4c-0.3-0.1-0.5-0.1-0.8-0.2c-0.9-0.2-1.7-0.6-2.5-1c-0.2-0.1-0.4-0.2-0.6-0.4c0,0,0,0,0-0.1l0,0l0,0l0,0l-0.1,0.4
		h-0.3L17,15.9c0.4,0.1,1,0.3,2.2,0.5c2.1,0.2,4.4,0.4,6.4,0.3c0.4-2,0.8-3.8,1.2-6c0-0.2,0-0.5,0-0.9c-0.9-0.2-1.6,0-2.5-0.1
		C24,9.2,23.8,8.6,24,8.2C27.1,8.2,30,7.8,33,7.4z M31.5,28.2L31.5,28.2c-0.5,0.1-1.2,0-1.8,0c0.4-0.1,0.7-0.2,1.1-0.3
		c0.9-0.2,2-0.3,2.9-0.3v0.1C33,27.8,32.2,27.9,31.5,28.2z M33.6,28.2c-0.2,0.2-0.6,0.1-1,0.1C32.9,28.2,33.2,28.2,33.6,28.2z
		 M29.6,27.4c1.3-0.3,2.7-0.4,4-0.3v0.1c-0.9,0-1.9,0.1-2.8,0.3c-0.6,0.1-1.2,0.3-1.8,0.5c-0.1,0-0.3,0.1-0.4,0.1
		c-0.4,0-0.9,0-1.4-0.1C28,27.8,28.8,27.6,29.6,27.4z M26.6,27.9c-0.2-0.1-0.3-0.2-0.4-0.3c1-0.5,2.2-0.7,3.2-0.9
		c1.1-0.2,2.2-0.2,3.2-0.2c0.2,0,0.4,0,0.7,0c0,0.1,0.1,0.1,0.1,0.2c-1.2-0.1-2.5,0-3.6,0.2C28.7,27.2,27.6,27.5,26.6,27.9z
		 M31,20.9c0,0,0.1,0.1,0.1,0.2c-0.4,0-0.9,0.1-1.2,0.2c-0.5,0.1-0.9,0.2-1.3,0.4c0,0,0,0,0-0.1c0.1-0.1,0.1-0.2,0.2-0.3
		C29.5,21,30.2,20.7,31,20.9z M29.3,20.8c0.2-0.2,0.5-0.4,0.8-0.4c0.2,0,0.4,0,0.5,0.1C30.1,20.5,29.7,20.6,29.3,20.8z M20.8,19.6
		c0.1-0.1,0.3-0.1,0.5-0.2c0.1,0,0.3,0.1,0.5,0.1c-0.7,0.3-1.5,0.6-2.1,1.1c0-0.1,0-0.2,0.1-0.3C20,20,20.4,19.8,20.8,19.6z
		 M19.8,19.8c0.1-0.4,0.2-0.6,0.2-0.6s0.3,0,0.7,0.1c-0.1,0-0.2,0.1-0.3,0.1C20.2,19.5,20,19.6,19.8,19.8z M22.1,19.7
		c0.1,0,0.2-0.1,0.3-0.1c0.2,0,0.4,0.1,0.5,0.1c-0.3,0.1-0.6,0.2-0.9,0.3c-0.9,0.3-1.8,0.8-2.6,1.4c0-0.1,0-0.3,0.1-0.4
		C20.3,20.4,21.2,20,22.1,19.7z M22.3,20.3c0.4-0.1,0.8-0.3,1.3-0.4c0.2,0.1,0.4,0.2,0.4,0.2s0,0,0,0.1c-0.7,0.1-1.5,0.3-2.1,0.6
		c-0.8,0.4-1.7,0.8-2.3,1.4c0-0.1,0-0.2,0-0.3C20.2,21.2,21.3,20.7,22.3,20.3z M22,21c0.5-0.2,1.1-0.4,1.8-0.5
		c-0.1,0.1-0.1,0.2-0.2,0.4c-0.6,0.1-1.2,0.3-1.7,0.5c-0.8,0.4-1.7,0.9-2.3,1.5c0-0.1,0-0.2,0-0.3C20.1,21.9,21,21.4,22,21z
		 M22,21.7c0.4-0.2,0.9-0.3,1.3-0.4c-0.1,0.1-0.1,0.3-0.2,0.4c-0.6,0.1-1.1,0.3-1.6,0.6c-0.7,0.4-1.5,0.9-2,1.5c0-0.1,0-0.2,0-0.3
		C20.1,22.6,21.1,22.1,22,21.7z M21.7,22.5c0.3-0.2,0.7-0.3,1.1-0.4c-0.1,0.1-0.3,0.3-0.5,0.5c-0.4,0.1-0.7,0.3-1.1,0.5
		c-0.6,0.4-1.2,0.8-1.7,1.3c0-0.1,0-0.2,0-0.2C20.1,23.4,20.9,22.9,21.7,22.5z M21.5,23.3L21.5,23.3c0,0.1-0.2,0.2-0.3,0.3
		c-0.7,0.6-1.5,1.5-1.5,1.5s0-0.1-0.1-0.3C20.1,24.2,20.8,23.7,21.5,23.3z M21.7,13.9c-0.8-0.3-1.5-0.6-2.2-1.1
		c-0.1-0.1-0.1-0.2-0.1-0.3c0.8,0.5,1.8,0.9,2.6,1.2c1.2,0.4,2.5,0.6,3.8,0.6c0,0.1,0,0.1-0.1,0.2C24.3,14.5,23,14.3,21.7,13.9z
		 M25.5,14.9c-0.1,0.1-0.2,0.2-0.2,0.2s0,0-0.3,0c-1.2-0.1-2.3-0.4-3.4-0.9c-0.4-0.2-0.8-0.4-1.2-0.6c0.4,0.2,0.8,0.3,1.2,0.5
		C22.8,14.6,24.2,14.8,25.5,14.9z M22.8,13.6c-0.3-0.1-0.5-0.1-0.8-0.2c-0.9-0.3-1.7-0.6-2.5-1.1c-0.1-0.1-0.3-0.2-0.4-0.3
		c0-0.1,0-0.1-0.1-0.2c0.9,0.6,2.1,1.1,3,1.3c1.2,0.3,2.5,0.5,3.7,0.6c0,0.1,0,0.2,0,0.3C24.8,14,23.8,13.8,22.8,13.6z"/>
	<path class="st2" d="M11.5,18.1c0-0.1,0-0.3,0.1-0.4l-0.7-0.1c0,0.1-0.1,0.3-0.1,0.4L11.5,18.1L11.5,18.1z"/>
	<path class="st2" d="M11.4,18.4l-0.7-0.2c0,0.1-0.1,0.3-0.1,0.4l0.8,0.2C11.4,18.7,11.4,18.5,11.4,18.4z"/>
	<path class="st2" d="M11.7,16.9L11,16.7c0,0.1-0.1,0.3-0.1,0.4l0.7,0.1C11.7,17.2,11.7,17,11.7,16.9z"/>
	<path class="st2" d="M12.2,15.4l-0.8-0.2c0,0.1-0.1,0.3-0.1,0.4l0.7,0.2C12.1,15.7,12.1,15.5,12.2,15.4z"/>
	<path class="st2" d="M11.9,16.2L11.2,16c0,0.1-0.1,0.3-0.1,0.4l0.7,0.2C11.9,16.5,11.9,16.3,11.9,16.2z"/>
	<path class="st2" d="M13.5,25.5l-1.2,0.9c0.1,0.1,0.2,0.2,0.3,0.3l1.2-0.9C13.6,25.7,13.6,25.6,13.5,25.5z"/>
	<path class="st2" d="M13.2,24.8l-1.4,0.9c0.1,0.1,0.2,0.2,0.3,0.4l1.3-0.9C13.3,25.1,13.3,25,13.2,24.8z"/>
	<path class="st2" d="M25.1,38.1c0.1,0,0.3,0.1,0.4,0.1l0.1-0.9c-0.1,0-0.3-0.1-0.4-0.1L25.1,38.1z"/>
	<path class="st2" d="M24.3,37.9c0.1,0,0.3,0.1,0.4,0.1l0.3-0.9c-0.1,0-0.3-0.1-0.4-0.1L24.3,37.9z"/>
	<path class="st2" d="M18.1,31.8l-1,0.8c0.1,0.1,0.2,0.2,0.3,0.3l1-0.8C18.2,32,18.1,31.9,18.1,31.8z"/>
</g>
<g>
	<path class="st2" d="M64.4,17.5c-0.1,0-0.1,0-0.1,0.1c0,0-0.4,2.6,0.1,4.5c0.6,2.3,1.8,3.8,1.8,3.8s0,0,0.1,0c0,0,0,0,0.1,0v-0.1
		c0,0-1.2-1.4-1.7-3.7c-0.5-1.9-0.1-4.4-0.1-4.4C64.5,17.5,64.5,17.5,64.4,17.5z"/>
	<path class="st2" d="M64.9,18c-0.1,0-0.1,0-0.1,0.1c0,0-0.3,1.9,0.1,3.5c0.4,1.8,1.2,3,1.2,3s0,0,0.1,0c0,0,0,0,0.1,0
		c0,0,0.1-0.1,0-0.1c0,0-0.8-1.2-1.2-3c-0.4-1.6-0.1-3.4-0.1-3.4C65,18,64.9,18,64.9,18z"/>
	<path class="st2" d="M65.3,18.1c0,0-0.1,0-0.1,0.1s-0.3,1.6,0,3c0.4,1.5,1,2.5,1,2.6c0,0,0,0,0.1,0c0,0,0,0,0.1,0
		c0,0,0.1-0.1,0-0.1c0,0-0.7-1-1-2.5c-0.3-1.4,0-2.9,0-2.9C65.4,18.2,65.3,18.1,65.3,18.1z"/>
	<path class="st2" d="M65.7,18.3c0,0-0.1,0-0.1,0.1c0,0-0.2,1-0.1,2c0.2,1.3,0.6,2,0.7,2c0,0,0,0,0.1,0l0,0c0,0,0.1-0.1,0-0.1
		c0,0-0.5-0.7-0.6-2C65.6,19.3,65.8,18.3,65.7,18.3C65.8,18.4,65.7,18.3,65.7,18.3z"/>
	<path class="st2" d="M63.4,16.5C63.3,16.5,63.3,16.5,63.4,16.5c-1,5.7,0.4,9.9,3.3,11.6c0,0,0.1,0,0.1-0.1v-0.1
		c-1.8-1.1-2.6-2.7-3.1-4.6C63.2,21.3,63.2,18.7,63.4,16.5C63.5,16.5,63.5,16.5,63.4,16.5z"/>
	<path class="st2" d="M71,32C71,32,71.1,32,71,32c0.1-0.2,0.2-0.5,0.2-0.7l0,0c-0.1,0-0.2,0-0.2,0h-0.1h-0.1c0,0,0,0-0.1,0
		c-0.1,0.1-0.2,0.3-0.3,0.4c-0.4,0.5-0.8,1.1-1.5,1.1c-0.6,0-0.8-0.4-1-0.8c-0.2-0.4-0.4-0.8-0.9-0.9l0,0c0,0,0,0-0.1,0
		c-0.1,0.1-0.2,0.2-0.3,0.3v0.1c0.4,0.2,0.5,0.5,0.5,1c0,0,0,0,0,0.1c0.4,0.1,1,0.5,1.2,0.6c0.1,0,0.1,0.1,0.2,0.2
		c0.1,0.1,0.2,0.2,0.3,0.2c0,0,0,0,0.1,0c0.5,0,0.7-0.2,0.8-0.3c0.1-0.1,0.2-0.1,0.3-0.2c0.1,0,0.2,0,0.3,0c0.1,0,0.1,0,0.2-0.1l0,0
		c0-0.1,0-0.2,0-0.3c0-0.2,0-0.4,0-0.5C70.4,32.1,70.7,32,71,32z"/>
	<path class="st2" d="M64.1,16.7C64.1,16.7,64.1,16.6,64.1,16.7C64.1,16.6,64.1,16.6,64.1,16.7c-0.1-0.1-0.2,0-0.2,0
		c-0.4,1.9-0.3,4.5,0.2,6.5c0.2,0.8,0.9,2.7,2.4,4.1l0,0l0,0l0,0v-0.1c-2-1.8-3.1-5.5-2.6-9.3C64,17.4,64,17.1,64.1,16.7z"/>
	<path class="st2" d="M62.9,16.5C62.8,16.5,62.8,16.4,62.9,16.5c-0.1,0-0.1,0-0.2,0l0,0c-1.2,6.4,1,10.7,4.3,13c0,0,0.1,0,0.1-0.2
		c0,0,0-0.1-0.1-0.1c-3-2.3-4.4-5.2-4.4-9.4C62.6,18.6,62.7,17.6,62.9,16.5L62.9,16.5z"/>
	<path class="st2" d="M66.1,18.4c0,0-0.1,0-0.1,0.1c0,0-0.2,0.7-0.1,1.3c0.1,0.8,0.3,1.3,0.3,1.3s0,0.1,0.1,0.1l0,0
		c0,0,0.1-0.1,0-0.1c0,0-0.2-0.5-0.3-1.2c-0.1-0.6,0.1-1.3,0.1-1.3C66.2,18.5,66.1,18.4,66.1,18.4z"/>
	<path class="st2" d="M66.5,18.8c0,0-0.1,0-0.1,0.1c-0.1,0.4,0,0.8,0,0.8s0,0.1,0.1,0.1l0,0c0,0,0.1-0.1,0-0.1c0,0-0.1-0.3,0-0.6
		C66.6,18.9,66.5,18.8,66.5,18.8z"/>
	<path class="st2" d="M67.3,27.7L67.3,27.7L67.3,27.7C67.4,27.7,67.4,27.7,67.3,27.7c0.9-0.6,1.7-1,2.5-1c0.3,0,0.5,0,0.8,0.1l0,0
		l0,0c0-0.1,0-0.1,0.1-0.2c0-0.1,0.1-0.2,0.1-0.2v-0.1c-0.2,0-0.4-0.1-0.6-0.1c-0.5,0-1,0.1-1.4,0.3c-0.5,0.1-0.9,0.3-1.5,0.3l0,0
		l0,0c0.1,0.2,0.1,0.3,0.1,0.5C67.3,27.5,67.3,27.6,67.3,27.7z"/>
	<path class="st2" d="M62.2,16.4c-0.1,0-0.1,0-0.1,0.1c-0.1,0.2-0.1,0.4-0.2,0.6v0.1c-0.4,1.9-0.4,4.6,0,6.4c0.3,1.1,0.7,2.2,1.2,3
		c0.7,1.2,1.8,2.3,2.6,3c0.1,0.1,0.7,0.6,0.9,0.7c0,0,0,0,0.1,0c0,0,0.1,0,0.1-0.1s0.1-0.1,0-0.2l0,0c-1.7-1.4-2.8-2.6-3.5-4.1
		c-0.4-0.7-0.7-1.5-1-2.6c0-0.1,0-0.2-0.1-0.3c0-0.1-0.1-0.2-0.1-0.3c-0.2-1.6-0.2-3.2,0-4.9c0.1-0.6,0.2-0.9,0.2-1.1
		c0-0.1,0-0.2,0.1-0.2l0,0C62.3,16.4,62.3,16.4,62.2,16.4z"/>
	<path class="st2" d="M66.7,31.9L66.7,31.9c-0.9-0.2-1.5-0.6-1.9-1.1c0,0,0,0-0.1,0s-0.2,0-0.3,0c-0.1,0-0.2,0-0.3,0l0,0l0,0
		c0.6,1.7,2.1,2.7,3.6,3.4l0,0l0,0c0.2-0.2,0.4-0.5,0.5-0.7l0,0v-0.1c-0.4-0.4-1-0.6-1.6-0.8c0-0.1,0-0.1,0-0.2
		C66.8,32.2,66.8,32.1,66.7,31.9z"/>
	<path class="st2" d="M69,22.9c-0.3,0-0.7,0-0.8,0l0,0c-0.3,0-0.6,0-0.9-0.1c0,0,0,0-0.1,0c-0.1,0.2-0.2,0.5-0.1,0.8l0,0l0,0l0,0
		c0.1-0.1,0.2-0.1,0.3-0.2c0.2-0.1,0.5-0.3,0.7-0.3s0.3,0,0.5,0c0.3,0,0.6,0.1,0.7,0.1s0.1,0,0.1,0c0.1,0,0.1-0.1,0.1-0.1V23v-0.1
		l0,0l0,0C69.6,22.9,69.3,22.9,69,22.9z"/>
	<path class="st2" d="M66.7,21.7L66.7,21.7C66.6,21.7,66.6,21.7,66.7,21.7C66.6,21.8,66.6,21.8,66.7,21.7c0.1,0.3,0.2,0.5,0.4,0.7
		l0.1,0.1l0,0l0,0c0.3,0,0.6,0,1,0c0.9,0,1.7-0.1,2.5-0.2l0,0c0.4-0.3,1-1.2,0.6-2c0,0,0,0-0.1,0s-0.1,0.1-0.1,0.1
		c0,0.8-0.4,1.2-0.7,1.6c-0.1,0-0.1,0-0.1,0c-0.2,0-0.3-0.2-0.4-0.3c0-0.1-0.1-0.1-0.1-0.2l0,0c-1.4-0.1-2.3-0.3-2.4-1.4l0,0
		c-0.1,0-0.2-0.1-0.2-0.1h-0.1l0,0l0,0c-0.1,0.5,0,0.9,0,1.3c0,0.1,0,0.2,0.1,0.4C66.8,21.7,66.8,21.7,66.7,21.7z"/>
	<path class="st2" d="M67.1,19L67.1,19L67.1,19c0.4-0.3,0.9-0.5,1.5-0.5c0.2,0,0.4,0,0.6,0.1l0,0l0,0v-0.4c0,0,0,0,0-0.1
		C68.9,18,68.4,18,68,18c-0.6,0-1,0.2-1.1,0.5c0,0.1,0,0.1,0.1,0.4C67,18.9,67,18.9,67.1,19L67.1,19z"/>
	<path class="st2" d="M66.9,19.7c0.1,0.1,0.3,0.2,0.4,0.2l0,0c0.1,0,0.2-0.1,0.3-0.2c0.1-0.1,0.3-0.2,0.5-0.3
		c0.3-0.1,0.5-0.1,0.8-0.1c0.1,0,0.2,0,0.2,0l0,0l0,0v-0.1c0,0,0-0.1,0-0.2l0,0l0,0c-0.1,0-0.1,0-0.2,0
		C67.7,18.9,67.1,19.2,66.9,19.7L66.9,19.7z"/>
	<path class="st2" d="M70.3,18.1C70.2,18.1,70.2,18.1,70.3,18.1c0,0.6,0.1,1.1,0.3,1.4l0,0l0,0l0,0c0-0.2,0-0.4-0.1-0.5
		c0-0.1-0.1-0.2-0.1-0.4c0.3-0.1,0.6-0.5,0.7-1c0.1-0.4,0.1-0.7-0.1-1c0,0,0,0-0.1,0c0,0,0,0,0,0.1C71.1,17.3,70.8,17.9,70.3,18.1z"
		/>
	<path class="st2" d="M79.2,12.4c-0.1-0.1-0.2,0.1-0.1,0.2c0.5,0.3,0.9,0.7,1.2,1.2c0.1,0.1,0.2,0,0.1-0.1
		C80.2,13.2,79.7,12.7,79.2,12.4z"/>
	<path class="st2" d="M64.8,12.1L64.8,12.1c-1.5-0.2-2.8,0.1-4.1,0.7c-0.1,0.1-0.1,0.3,0.1,0.2c1.1-0.5,2.2-0.8,3.3-0.7l0,0
		c0,0.1-0.1,0.2-0.3,0.2c-0.8-0.1-1.6,0.1-2.3,0.6c-0.1,0.1,0.1,0.1,0.1,0.1c0.6-0.5,1.3-0.6,2-0.6c0,0,0,0,0,0.1l0,0
		c-0.4,0.2-0.8,0.3-1.1,0.5c-0.2,0.1-0.5,0.3-0.8,0.4l0,0l0,0c0,0.1-0.1,0.2,0,0.3l0.1,0.1l0,0l0,0c0.5-0.3,1.1-0.6,1.8-0.8
		c0.6-0.2,1.2-0.5,1.8-0.8c0.1,0,0.1,0,0.2,0c0.2,0,0.4-0.1,0.6-0.3c0,0,0.1,0,0.1-0.1c0.2-0.1,0.5-0.1,0.8-0.1
		c0.2,0,0.3,0.1,0.5,0.1l0,0c0.7,0.1,1.6,0.6,2.7,0.2c0.5-0.1,0.9-0.3,1.3-0.6c0.1,0,0.1-0.2,0-0.1c-0.5,0.3-1,0.6-1.6,0.7
		c-0.6,0.1-1.3,0-1.9-0.2c-0.2-0.1-0.4-0.1-0.7-0.2c-0.1,0-0.1,0-0.2-0.1c-0.2,0-0.3-0.1-0.4-0.1c0,0,0,0,0.1-0.1l0.1-0.1l0,0l0,0
		c-0.4,0-0.4-0.4-0.5-0.9v-0.1c-0.1-1,0.1-2.2,0.5-2.7l0,0c0.1,0.3,0.2,0.6,0.5,0.7c0.1,0,0.2-0.1,0.1-0.1c-0.4,0.1-0.5-0.1-0.6-0.4
		c0-0.1-0.1-0.1-0.1,0c0,0,0,0,0.1-0.1l0,0c0,0,0-0.1,0.1-0.1c0,0.2,0.1,0.4,0.3,0.6c0.1,0.1,0.2,0,0.1-0.1
		c-0.2-0.2-0.3-0.4-0.3-0.6c0-0.1-0.1-0.1-0.1-0.1c0-0.1,0-0.3,0-0.4s0-0.2,0-0.2c0-0.3,0.1-0.6,0.2-0.7c0,0.7-0.1,1.2,0.3,1.8
		c0,0.1,0.2,0,0.2,0c-0.4-0.6-0.3-1.1-0.3-1.8c0-0.1-0.1-0.1-0.1-0.1c0.1-0.2,0.3-0.3,0.5-0.4c0.1,0,0.1-0.1,0.2-0.1c0,0,0,0,0-0.1
		c0,0,0,0-0.1,0c-0.2,0-0.5,0-0.7,0.1c-0.8,0.3-0.9,1.1-1.1,2c0,0.2-0.1,0.4-0.1,0.7c-0.3,0.6-0.5,1.7-0.6,2.5c0,0.1,0,0.3,0,0.4
		c0,0.2,0,0.3,0,0.5C65.5,11.8,65.2,12,64.8,12.1z"/>
	<path class="st2" d="M80.6,12.9L80.6,12.9c0-0.3,0.1-0.4,0.2-0.5s0.2-0.3,0.2-0.5l0,0c-1-1.2-2.5-1.9-4.1-1.9c-0.3,0-0.6,0-0.9,0.1
		L75.9,10c-0.1-0.1-0.1-0.1-0.2-0.2c0,0,0,0-0.1,0c-0.6,0.4-1.6,0.8-2,1l0,0c-0.1,0.4-0.5,0.6-0.8,0.6s-0.5-0.1-0.7-0.3
		c0,0,0,0-0.1,0l0,0v0.1c-0.1,0.3-0.1,0.6-0.1,1c0,0,0,0,0,0.1c0.2,0.1,0.4,0.2,0.6,0.3c1,0.5,2,1.1,3.3,1.2h0.1h0.2
		c0.1,0,0.1,0,0.2,0s0.2,0.1,0.3,0.1c0.1,0,0.2,0.1,0.2,0.1l0,0l0,0c0,0,0.3-0.6,0.3-0.7c-0.1-0.1-0.3-0.2-0.7-0.3
		c-0.2,0-0.3-0.1-0.4-0.2c-0.1-0.1-0.3-0.2-0.4-0.2s-0.1,0-0.2,0c-0.2,0-0.3,0-0.5,0.1c-0.1,0-0.3,0.1-0.4,0.1h-0.1
		c-0.3-0.1-0.5-0.3-0.7-0.4c-0.1-0.1-0.1-0.1-0.1-0.1v-0.1l0,0c0.3-0.6,0.8-1.1,1.7-1.4l0.1,0.1c0.2,0.1,0.3,0.2,0.6,0.3h0.1
		c0-0.1,0-0.2,0-0.3v-0.1c0.2,0,0.4,0,0.5,0c1.7,0,3.1,0.6,3.9,1.5c-0.1,0.1-0.1,0.1-0.2,0.1c-0.2-0.1-0.5-0.3-0.7-0.3l0,0
		c0,0,0,0,0,0.1s0.1,0.2,0.4,0.4C80.1,12.5,80.4,12.7,80.6,12.9C80.5,12.9,80.6,12.9,80.6,12.9z"/>
	<path class="st2" d="M72,29.6C72.1,29.6,72.1,29.6,72,29.6c0.1,0,1.9-1.6,3.2-4c1.2-2.4,1.4-5.2,1.4-5.3c0,0,0-0.1-0.1-0.1
		c0,0-0.1,0-0.1,0.1c0,0-0.2,2.9-1.4,5.2c-1.3,2.4-3.1,3.9-3.1,4C71.9,29.5,71.9,29.5,72,29.6L72,29.6z"/>
	<path class="st2" d="M67.9,6.3c-0.1,0.3,0,0.6,0.1,0.9c0.1,0.1,0.2,0,0.2-0.1c-0.1-0.2-0.2-0.5-0.1-0.8C68.1,6.2,68,6.2,67.9,6.3z"
		/>
	<path class="st2" d="M61.8,3.7c0.3,0,1,0.1,1.4,0.1c0.5,0,0.5-0.1,0.7-0.2c0.3-0.1,0.6-0.2,1.2-0.3c1-0.1,2.9-0.1,3.9-0.1
		c1.2,0.1,2.6,0.3,3.6,0.3s2,0.2,2.7,0.3c0.6,0,0.8-0.4,1.6-0.4c0.6,0,0.8,0.2,1.3,0.4c0.5,0.2,1.1,0.4,1.3,0.4
		c0.2,0.1,0.3,0,0.4-0.1s0.1-0.2-0.1-0.3c-0.1-0.1-1.3-0.9-2.8-1.1c-0.7-0.1-1.3-0.1-1.8-0.1s-1.1-0.1-1.6-0.1c-0.8,0-0.7,0-1.9,0
		c-1.2-0.1-3.1-0.4-4.3-0.3c-0.5,0-1.2,0-1.8,0.1c-0.4,0.1-1.3,0.3-1.8,0.4c-1.3,0.3-2.1,0.7-2.3,0.9C61.2,3.8,61.5,3.7,61.8,3.7z"
		/>
	<path class="st2" d="M86,12.1c-0.6-1.7-2.5-4.6-3-5.4c-0.5-0.7-1.1-1-1.5-1.5s-0.7-0.8-0.7-0.8s-0.1-0.1-0.2-0.1s-0.1,0.1-0.3,0.1
		c-0.1,0-0.3,0.1-0.4,0.2c0,0.1,0.2,0.2,0.4,0.4c0.2,0.2,0.4,0.3,0.6,0.5s0.3,0.3,0.3,0.5c0,0.1,0.1,0.1,0.2,0.2s0.2,0.2,0.2,0.1
		s0-0.3,0-0.4s0-0.2,0.1,0c0.1,0.1,1.2,1.9,1.6,2.7c0.4,0.7,1.2,1.9,1.5,2.4c0.3,0.5,0.6,0.9,0.8,1.2c0.3,0.6,0.6,1.9,0.7,2.7
		s0.2,1,0.3,1.3c0.2,0.3,0.3,0.5,0.5,1s0.5,2.2,0.5,3.4c0,1.3-0.5,4.1-1,5.3c-1,2.3-1.2,2.2-1.5,2.5c-0.6,0.7-1.7,3.1-2.2,3.6
		c-0.3,0.3-1.1,1-2,1.7c-0.8,0.7-1.8,1.3-2.4,1.6c-0.8,0.4-2.9,1.4-3.7,1.6c-0.8,0.2-1.3,0.5-3.4,0.7c-2,0.2-3.8-0.3-4.3-0.4
		c-0.5-0.2-2.2-0.9-3.4-1.3c-1.2-0.5-2.9-1-3.4-1.3s-1.5-1.3-2-1.6s-0.5,0-1.9-1.1c-1.3-1-1.6-1.6-1.7-1.7c0-0.1,0-0.2,0-0.2l0,0
		c0.9,0.7,1.6,1.9,2.8,2.3c0.6,0.2,1.1,0.7,1.7,0.9c0.1-1.5,1.1-2.3,1.7-3.3c-1.2-1.5-2.1-3.5-2.6-5.7c-0.1-1.3-0.4-3.2,0.7-3.7
		c0.1-1.1,0.3-2.5,0.6-3.5c-0.3-0.5-0.1-1.4-0.2-2.1c0-0.1,0-0.2-0.1-0.3c-0.1,0-0.1,0-0.3,0.2s-0.3,0.5-0.6,0.7
		c-0.1,0-0.3-0.1-0.4,0c-0.1,0.1-0.4,0.4-0.6,0.4c-0.1-0.1-0.2-0.1-0.3-0.2c0,0,0.3-0.7,0.7-1.4c0-0.1,0.1-0.2,0-0.2
		c0.2-0.1,0.2,0.1-0.1,0.4c-0.4,0.3-0.8,0.8-0.9,0.9c0,0-0.1-0.1-0.2-0.3c0.7-0.6,0.7-0.9,1.2-1.6c0.1-0.2,0.6-0.5,0.7-0.7
		c0.1-0.1,0-0.1,0-0.2c-0.8,0.5-1.4,1.1-2.1,1.9c0,0-0.1-0.1-0.1-0.2c0.4-0.6,0.8-1.1,1.2-1.6v-0.5c0.5-0.5,1.2-0.9,1.8-1.2
		c0.9-0.1,1.7-0.5,2.6-0.6c0.2,0,0.5-0.1,0.7-0.1c0.9,0,1.7,1.5,2.4,1.3c0.3-0.5,0.1-1.1,0.2-1.7c0.2-0.8,0.6-1.3,0.6-2.2
		c0.1-1.1,0.4-2.1,1.5-2.4C68,5,68.5,5.3,69,5.5c0.8,0.9,2.1,1.9,2.7,3.1c0.2,0.4,0,1.3,0.2,1.8c0.3,0.1,0.4,0.5,0.7,0.5
		c0.4,0,0.5-0.6,1-0.6c0.9-0.1,1.3-0.5,1.8-1c0.3,0.3,0.7,0.2,1.1,0.2c2.1,0,4.1,0.9,4.8,2.2c0.2,0.4,0.1,0.9-0.1,1.3
		c0.2,0.2,0.7,0.3,0.5,0.8c0.1,0.1,0.2-0.1,0.2,0.1c-0.1,0.4-0.7,0.3-0.9,0.4c0.2,0.1,0.3,0.1,0.4,0.3c-0.3,0-0.5,0.3-0.7,0.3
		c-0.9,0.1-1.2-1.2-2-1.3c0.1,0.2-0.1,0.2-0.1,0.3c0.6,0.3,1.9,1.3,1.2,1.8c-0.5,0-1.2,0.1-1.7,0.2c0,0.6,0,1.2,0.2,1.7
		c0.1,0.3,0.5,0.7,0.5,0.9c0,0.1-0.2,0.3-0.2,0.4c-0.2,0.5-0.3,0.9-0.2,1.6c0.1,0.9,0.2,1.9,0.1,2.7c-0.1,0.7-0.3,1.4-0.4,2
		c-0.3,1.2-1,2.2-1.3,3.5v0.5c-0.7,0.3-1.2,0.8-1.7,1.4c-0.1,0.1,0.4,0.4,0.4,0.5c-0.4,0.5-0.5,1.5-0.9,2.3c-0.4,0.5-1.2,1-1.6,1.5
		l0.2,0.4c0,0.1-0.2,0.4-0.5,0.5c-0.1,0-0.2-0.1-0.4-0.1c-0.8-0.1-1.3,0.2-1.7,0.4c0,0-0.1,0.1-0.1,0V36c-0.1-0.4-0.3-0.7-0.4-0.8
		c-0.6-0.4-1.7-0.3-1.8,0.5c0,0.1-0.1,0.3-0.1,0.3l-0.1,0.1c-0.1,0-0.2-0.1-0.3-0.2c-0.8-0.5-1.7-1.2-1.9-1.3c-0.1,0-0.3,0-0.4-0.1
		c-0.7-0.4-1.1-1.2-1.9-1.6c-0.3,0-0.1,0.4-0.2,0.7c0,0.3-0.3,0.9-0.5,0.8c-0.7-0.2-1.6-0.4-1.9-1.1l0,0c-0.2,0-0.3,0.2-0.4,0.4
		c0.4,0.4,0.8,0.8,1.5,1c1.9,0.2,3.2,1.7,5.1,2.1c0.1,0,0.3,0.1,0.4,0.1c0.8,0.1,1.5,0.1,2.3,0.2c0.5,0.1,0.8,0.2,1.4,0.1
		c0.6-0.2,1,0,1.4-0.1c0.8-0.1,1.8-0.6,2.5-0.8s1.5-0.4,2.2-0.6c0.4-0.1,1.3-0.5,1.7-0.7c2.1-1.4,3.4-3.3,4.7-5.5
		c0.3-0.5,0.5-1,0.9-1.2c1.2-0.6,1.7-1.6,2.1-3c0.1-0.6,0.2-0.8,0.3-1.2c0.4-1.6,0.5-3.6,0.4-5.2c-0.1-1.5-1.4-3.2-1.5-4.7
		c-0.1-1.1-0.3-1.7-0.7-2.4c-0.2-0.4-1.3-1.6-2.2-3.2C82.8,8,82.4,7.5,82,7s-0.8-1.1-1.2-1.5c-0.5-0.4-1.3-0.7-1.8-1
		c-0.4-0.2-0.8-0.5-1.1-0.7c-1.3-0.4-1.9,0.4-2.7,0.4c-0.4,0-0.4,0-0.7-0.1c-1.8-0.6-4.3-0.3-6.5-0.4c-0.9-0.1-1.8-0.1-2.6,0
		c-0.6,0.1-1,0.3-1.5,0.6c-0.2,0.1-0.5,0.1-0.6,0.3c-0.1,0.1-0.1,0.3-0.1,0.4c-0.1,0.3-0.2,0.6-0.3,1c0,0.3-0.1,0.6-0.2,0.5
		c-0.4-0.4-1-0.7-1.6-1c-0.1-0.1-0.3,0-0.4,0.2c-0.2,0.3-0.4,0.4-0.9,0.6c-0.9,0.2-1.5,0.6-2,1.2c-0.2,0.4-0.4,0.9-0.6,1.3
		c-0.5,0.7-1.2,1.4-1.8,2.2s-1.1,1.6-1.7,2.3c-0.6,0.8-1.5,1.6-1.6,2.9c-0.2,2.9-0.7,5.5-0.2,8.5c0,0.2,0.1,0.4,0.2,0.7
		c0.5,1.2,0.3,1.4,0.4,1.6c0.2,0.5,1.2,0.6,2.2,0.5c0.1,0,0.2,0,0.3,0c0.3,0.1,0.3,0.3,0.4,0.6c0,0.1,0.1,0.2,0.2,0.3
		c0,0-0.1-0.1-0.2-0.2c-0.1-0.1-0.2-0.2-0.3-0.2c-0.3-0.1-0.4,0-0.8,0c-0.4,0.1-0.5,0.2-0.9,0.2c-0.7,0-0.8-0.4-1-0.9
		s-0.2-0.9-0.3-1.6c-0.1-0.6-0.2-0.5-0.4-1.1c-0.2-0.5-0.3-1.2-0.3-1.8c0-0.6,0.1-1,0-1.4c0-0.4-0.1-0.5-0.1-1.4s0.4-1.7,0.5-2.6
		c0-0.9,0-1,0.4-2.1s1.1-1.7,1.5-2.3s0.6-1.1,1.4-2.1c0.8-1,1.3-1.6,1.9-2.2c0.5-0.6,0.7-1.2,1.1-1.7c0.3-0.5,0.7-0.6,1.2-0.9
		s1.3-0.4,1.2-0.5c0,0-0.4,0-0.6-0.2c-0.1-0.2,0-0.4-0.1-0.4s-1.2,0.9-2,1.6l0,0h-0.1c0,0-0.1,0.1-0.3,0.2l0.2,0.1
		c-0.1,0.1-0.2,0.2-0.2,0.3L57,6.9c-0.1,0.1-0.2,0.2-0.3,0.3l0.4,0.3C57,7.6,57,7.7,56.9,7.8l-0.4-0.4c-0.1,0.1-0.1,0.1-0.1,0.2
		c0,0-0.1,0.1-0.1,0.2l0.5,0.4c-0.1,0.1-0.2,0.2-0.2,0.3L56,8.1c-0.1,0.1-0.2,0.2-0.2,0.4l0.4,0.4C56.1,9,56.1,9.1,56,9.1l-0.4-0.4
		c-0.1,0.1-0.2,0.2-0.2,0.4l0.4,0.3c-0.1,0.1-0.1,0.1-0.2,0.2l-0.1,0.1l-0.4-0.3c-0.1,0.1-0.2,0.2-0.2,0.4l0.4,0.3
		c-0.1,0.1-0.1,0.2-0.2,0.2L54.7,10c-0.1,0.1-0.2,0.2-0.3,0.3l0.4,0.3c-0.1,0.1-0.2,0.2-0.2,0.3l-0.4-0.3c-0.1,0.1-0.1,0.2-0.2,0.2
		l-0.1,0.1l0.4,0.3c-0.1,0.1-0.1,0.2-0.2,0.2l-0.4-0.3c-0.1,0.1-0.2,0.2-0.3,0.3l0.4,0.3c-0.1,0.1-0.2,0.2-0.3,0.3l-0.4-0.3
		c-0.1,0.1-0.2,0.2-0.3,0.4l0.4,0.3c-0.1,0.1-0.1,0.2-0.2,0.2l0,0l-0.4-0.2c-0.1,0.1-0.2,0.2-0.2,0.4l0.6,0.4
		c-0.1,0.1-0.1,0.2-0.2,0.4l-0.5-0.3c-0.1,0.1-0.2,0.3-0.2,0.4l0.5,0.3c0,0.1-0.1,0.2-0.1,0.3l-0.6-0.2c-0.1,0.1-0.1,0.2-0.2,0.4
		l0.6,0.2c-0.1,0.1-0.1,0.3-0.2,0.4l-0.6-0.2c-0.1,0.1-0.1,0.3-0.2,0.4l0.6,0.2c0,0.1-0.1,0.2-0.1,0.3l-0.6-0.2
		c-0.1,0.1-0.1,0.3-0.2,0.4l0.6,0.2c0,0.1-0.1,0.2-0.1,0.4l-0.7-0.2c0,0.1-0.1,0.2-0.1,0.3c0,0,0,0.1-0.1,0.1l0.7,0.3
		c0,0.1,0,0.1,0,0.2v0.1l-0.8-0.1c0,0.1-0.1,0.3-0.1,0.4l0.9,0.1c0,0.1,0,0.3-0.1,0.4L50.3,18c0,0.1,0,0.3-0.1,0.4l0.9,0.2
		c0,0.1,0,0.2,0,0.3l-1-0.1c0,0.1,0,0.3,0,0.4l1,0.1c0,0.1,0,0.3,0,0.4l-1-0.1c0,0.1,0,0.3,0,0.4l1,0.1c0,0.1,0,0.2,0,0.3l0,0
		l-1-0.1c0,0.1,0,0.3,0,0.4l1,0.1c0,0.1,0,0.3,0,0.4l-1-0.1v0.1c0,0.1,0,0.2,0,0.3l1,0.1c0,0.1,0,0.2,0,0.3l-1,0.1
		c0,0.1,0,0.3,0,0.4l1-0.1c0,0.1,0,0.3,0,0.4l-1,0.1c0,0.2,0,0.3,0,0.4l1-0.1c0,0.1,0,0.2,0,0.3l-1,0.1c0,0.2,0,0.3,0,0.4l1-0.1
		c0,0.1,0,0.3,0.1,0.4l-1,0c0,0.2,0,0.3,0.1,0.4l1.1-0.1c0,0.1,0.1,0.2,0.1,0.3L50.4,25c0,0.1,0.1,0.3,0.1,0.4l1.2-0.3
		c0.1,0.1,0.1,0.3,0.2,0.4l-1.2,0.3c0.1,0.1,0.1,0.3,0.1,0.4L52,26c0,0.1,0,0.2,0,0.2l-1.1,0.4c0,0.1,0.1,0.3,0.1,0.4l1.1-0.4
		c0,0.1,0,0.3,0.1,0.4l-1,0.4c0,0.1,0.1,0.3,0.1,0.4l1.1-0.4l0,0c0,0.1,0.1,0.2,0.1,0.3l-1.2,0.5c0.1,0.1,0.1,0.2,0.2,0.4l1.1-0.4
		c0.1,0.1,0.1,0.2,0.2,0.4L51.7,29c0.1,0.1,0.2,0.2,0.2,0.4L53,29c0,0.1,0.1,0.1,0.1,0.1l-0.9,0.7c0.1,0.1,0.2,0.2,0.3,0.3l1-0.7
		c0.1,0,0.4,0,0.8-0.3c0.2-0.2,0.4-0.3,0.6-0.4c0.4-0.2,0.5-0.2,0.6-0.3c0.1,0,0.2,0,0.3,0h0.1c0,0.1-0.1,0.2-0.2,0.2
		c-0.1,0-0.2-0.1-0.2-0.1c-0.1,0-0.7,0.4-0.9,0.6c-0.2,0.1-0.4,0.3-0.6,0.4l-1.2,0.9c0.1,0.1,0.2,0.2,0.3,0.3l1-0.7
		c0,0.1,0.1,0.2,0.2,0.2l-1,0.7c0.1,0.1,0.2,0.2,0.3,0.3l1-0.7c0.1,0.1,0.2,0.2,0.2,0.3l-0.9,0.7c0.1,0.1,0.2,0.2,0.3,0.3l0.9-0.7
		c0,0.1,0.1,0.1,0.1,0.2l-1,0.9c0.1,0.1,0.2,0.2,0.3,0.3l0.8-0.8c0.1,0.1,0.2,0.2,0.3,0.3l-0.8,0.8l0.1,0.1C55,33,55,33,55.1,33.1
		l0.8-0.8l0.1,0.1c0,0,0,0,0.1,0.1l-0.8,0.8c0.1,0.1,0.2,0.2,0.3,0.3l0.7-0.8c0.1,0.1,0.2,0.2,0.3,0.3l-0.7,0.8
		c0.1,0.1,0.2,0.2,0.4,0.2l0.7-0.7c0.1,0,0.1,0.1,0.2,0.1l-0.6,0.8c0.1,0.1,0.3,0.1,0.4,0.2l0.6-0.8c0.1,0.1,0.2,0.1,0.4,0.2
		l-0.6,0.8c0.1,0.1,0.3,0.1,0.4,0.2l0.6-0.8h0.1c0,0,0,0,0.1,0L58.2,35c0.1,0.1,0.3,0.1,0.4,0.2l0.4-0.9c0.1,0.1,0.2,0.1,0.4,0.2
		L59,35.4c0.1,0.1,0.3,0.1,0.4,0.2l0.4-0.9c0.1,0,0.2,0.1,0.3,0.1l-0.4,0.9c0.1,0.1,0.3,0.1,0.4,0.2l0.4-0.9
		c0.1,0.1,0.2,0.1,0.4,0.2l-0.7,1c0.1,0.1,0.3,0.1,0.4,0.2l0.4-0.9c0.1,0,0.2,0.1,0.3,0.1l-0.4,0.9c0.1,0.1,0.3,0.1,0.4,0.2l0.4-0.8
		c0.1,0.1,0.3,0.1,0.4,0.2l-0.3,0.8c0.1,0.1,0.3,0.1,0.4,0.2l0.3-0.8h0.1c0.1,0,0.1,0,0.2,0.1l-0.3,0.8c0.1,0.1,0.3,0.1,0.4,0.2
		l0.3-0.8c0.1,0.1,0.3,0.1,0.4,0.2l-0.3,0.8c0.1,0.1,0.3,0.1,0.4,0.2L64,37c0.1,0,0.2,0.1,0.2,0.1L64,38c0.2,0.1,0.3,0.1,0.4,0.1
		l0.2-0.9c0.1,0,0.3,0.1,0.4,0.1l-0.2,0.9c0.1,0.1,0.3,0.1,0.4,0.2l0.2-0.9c0.1,0,0.2,0.1,0.3,0.1l-0.1,1c0.1,0,0.3,0.1,0.4,0.1
		l0.1-0.9c0.1,0,0.3,0.1,0.4,0.1l-0.1,0.8l0,0c0.1,0,0.3,0,0.4,0l0.1-0.8c0.1,0,0.2,0,0.3,0.1v0.7c0.1,0,0.3,0,0.4,0V38
		c0.1,0,0.2,0,0.3,0H68v0.7c0.1,0,0.3,0,0.4,0V38c0.1,0,0.2,0,0.3,0v0.7c0.1,0,0.3,0,0.4,0V38c0.1,0,0.3,0,0.4,0v0.6
		c0.1,0,0.3,0,0.4,0V38c0.1,0,0.2,0,0.3,0v0.6c0.1,0,0.3,0,0.4,0V38c0.1,0,0.3,0,0.4,0v0.6c0.1,0,0.3,0,0.4,0v-0.5
		c0.1,0,0.2,0,0.3,0v0.5c0.1,0,0.3,0,0.4,0v-0.5c0.1,0,0.3,0,0.4,0v0.5c0.1,0,0.2,0,0.3,0h0.1v-0.5c0.1,0,0.2,0,0.3,0l0.1,0.4
		c0.1,0,0.3-0.1,0.4-0.1L73.6,38c0.1,0,0.3,0,0.4-0.1l0.1,0.3c0.2,0,0.3-0.1,0.4-0.1l-0.1-0.3h0.1c0.1,0,0.1,0,0.2,0V38l0,0
		c0.2-0.1,0.3-0.2,0.3-0.3v-0.1c1.5-0.5,3.2-1.5,3.7-1.8c0.6-0.3,2.6-1.6,3.9-3.1c1.3-1.5,3-3.5,3.8-6s1.2-3.5,1.3-5.7
		C88.2,18.5,86.6,13.8,86,12.1z M77.3,33.2c-0.9,0-1.6,0.4-2.2,0.8c0.1-0.9,1.1-2,0.5-3.1c0.3-0.6,0.6-1.4,1.4-1.4
		c0.2,0.3,0.4,0.6,0.6,0.8C77.8,31.3,77.9,32.6,77.3,33.2z M55.8,28.3L55.8,28.3L55.8,28.3L55.8,28.3z"/>
	<path class="st2" d="M59.5,33.8C59.5,33.8,59.5,33.9,59.5,33.8C59.5,33.9,59.6,33.9,59.5,33.8l0.2,0.1c0.1-0.1,0.2-0.2,0.2-0.3
		c0.3-0.4,0.7-0.8,1.1-1.1c0,0.2,0,0.6-0.1,0.8l0,0l0,0c0.2,0.2,0.5,0.4,0.8,0.5l0,0l0,0c0-0.2,0-0.3,0-0.4c0,0-0.1-0.1-0.2-0.1
		l-0.1-0.1c0,0,0-0.2,0-0.3v-0.1c0-0.1,0-0.1,0.1-0.1l0,0c0.1,0.2,0.2,0.4,0.3,0.6c0.1,0.3,0.2,0.5,0.4,0.7l0,0l0,0l0,0
		c0-0.2,0.1-0.3,0.2-0.5v-0.1c0,0,0,0,0-0.1c-0.5-0.6-0.8-1.4-0.8-2.3v-0.1c0-0.1,0-0.3,0-0.4c0.1-0.1,0.1-0.1,0.2-0.1
		c0.1,0,0.3,0.1,0.4,0.1h0.1c0.2,0.1,0.4,0.2,0.6,0.2c0.1,0,0.2,0,0.2-0.1l0,0c0.1-0.2-0.1-0.5-0.3-0.7c-0.1-0.2-0.3-0.4-0.5-0.5
		l0,0c0,0,0,0-0.1,0s-0.1,0.1-0.1,0.1c0,0.1-0.1,0.1-0.1,0.1c-2-2.1-3.1-4.6-3.3-7.7c0,0,0,0-0.1,0c0,0-0.1,0-0.1,0.1
		c0,2.8,0.9,5.4,2.9,8c-0.1,0.1-0.2,0.2-0.3,0.3c-0.1,0.1-0.2,0.3-0.4,0.5c-0.1,0.1-0.1,0.2-0.2,0.3c-0.3,0.4-0.8,1-0.7,1.7
		c-0.1,0.2-0.3,0.4-0.4,0.6C59.7,33.6,59.6,33.7,59.5,33.8z"/>
	<path class="st2" d="M59.8,23.6c0.5,2.6,1.5,4.2,2.6,5.9l0,0l0,0c0.3-0.2,0.5-0.3,0.9-0.4l0,0c0,0,0,0,0-0.1
		c-2.4-2.3-3.4-6.1-2.9-10.1c0.1-0.7,0.3-1.3,0.5-1.9c0.1-0.4,0.3-0.8,0.4-1.2l0,0l0,0c-0.1,0-0.1,0-0.2,0c-0.2,0-0.4,0-0.5-0.2
		c0.2-0.7,0.6-1.6-0.1-2.2h-0.1c-0.1,0.1-0.2,0.1-0.3,0.2c-0.1,0-0.1-0.1-0.2-0.1c-0.1-0.1-0.1-0.1-0.2-0.1l0,0
		c-0.6,0.3-1.1,0.8-1.4,1.2c0,0,0,0-0.1,0.1C58.1,14.9,58,15,58,15.1l0,0c0.1,0,0.1,0.1,0.2,0.1h0.1c0,0,0.1-0.1,0.2-0.2
		c0.1-0.1,0.1-0.2,0.2-0.2c0.2-0.2,0.5-0.4,0.8-0.4c0.1,0,0.1,0,0.2,0l0,0c0,0.2,0.1,0.3,0.2,0.5C60,15,60,15.1,60,15.2
		c0,0.2,0,0.4-0.1,0.6c-0.1,0.2-0.1,0.4-0.1,0.6s0.1,0.2,0.2,0.3c0.1,0.1,0.1,0.1,0.2,0.2C59.8,18.5,59.3,21.2,59.8,23.6z"/>
	<path class="st2" d="M71.9,27.5L71.9,27.5c0.1,0,1.6-1.4,2.3-3.4c0.8-2.1,0.7-3.4,0.7-3.4s0-0.1-0.1-0.1c0,0-0.1,0-0.1,0.1
		c0,0,0.1,1.3-0.7,3.4c-0.7,2-2.2,3.3-2.2,3.3C71.8,27.4,71.8,27.5,71.9,27.5C71.8,27.5,71.8,27.5,71.9,27.5z"/>
	<path class="st2" d="M72.2,28.4v0.1c0,0,0,0,0.1,0c0,0,0,0,0.1,0c0,0,1.7-2.1,2.6-4.2c0.8-2.1,0.8-4.1,0.8-4.2c0,0,0-0.1-0.1-0.1
		l0,0c0,0-0.1,0-0.1,0.1c0,0,0,2-0.8,4.1C73.9,26.4,72.2,28.4,72.2,28.4z"/>
	<path class="st2" d="M71.6,26.4L71.6,26.4c0.1,0,1.1-0.8,1.9-3c0.7-1.9,0.5-3.2,0.5-3.2l-0.1-0.1l-0.1,0.1c0,0,0.2,1.3-0.4,3.1
		c-0.8,2.2-1.8,2.9-1.8,2.9C71.5,26.3,71.5,26.3,71.6,26.4L71.6,26.4z"/>
	<path class="st2" d="M78.9,15.4c0.1,0,0.2,0,0.2,0l0,0c0,0,0-0.1,0.1-0.2c0.1-0.2,0.1-0.4,0-0.5c-0.2-0.1-0.4-0.2-0.6-0.4
		c-0.4-0.3-0.8-0.5-1.3-0.6h-0.1c-0.1,0.2-0.1,0.4-0.2,0.6c-0.2,0.5-0.4,1.1-0.4,1.8l0,0c0.5,1,0.9,2.1,1,3.4l0,0l0,0l0,0
		c0.1-0.1,0.1-0.2,0.2-0.3c0.1-0.2,0.2-0.4,0.2-0.6s-0.1-0.5-0.2-0.9c-0.1-0.2-0.2-0.5-0.2-0.7s-0.1-0.3-0.1-0.5
		C77.6,15.6,78.3,15.5,78.9,15.4z"/>
	<path class="st2" d="M75,29.5c0-0.1,0.1-0.1,0.1-0.2c0.1-0.2,0.2-0.3,0.1-0.5l0,0l0,0c-0.1,0.1-0.1,0.1-0.2,0.2
		c-0.2,0.2-0.5,0.5-0.6,0.7c-0.3,0.1-0.5,0.4-0.7,0.6c-0.1,0.1-0.2,0.2-0.3,0.3h-0.1l0,0c-0.1,0-0.1,0-0.2,0s-0.1,0-0.2,0l0,0l0,0
		c0,0.3,0,0.4,0,0.5c-0.4,0.3-0.8,0.4-1.2,0.6c-0.2,0.1-0.4,0.1-0.6,0.2c-0.3,0.1-0.3,0.4-0.2,0.6c0,0.2,0,0.4-0.1,0.6
		c-0.1,0-0.2,0-0.4,0c-0.1,0-0.3,0-0.4,0s-0.1,0.1-0.1,0.1l0,0c0,0,0,0,0,0.1l0,0c0.2,0,0.4,0,0.6,0c0.3,0,0.6,0,1,0.1
		c0,0,0,0,0.1,0c0.1-0.2,0.3-0.3,0.4-0.5c0.4-0.4,0.7-0.8,1.2-1.2c0.1-0.1,0.2-0.1,0.3,0c0.3,0.5-0.2,0.8-0.5,1.1l-0.1,0.1
		c-0.2,0.1-0.3,0.3-0.5,0.4c-0.1,0.1-0.2,0.2-0.4,0.3c0,0-0.1,0.1-0.2,0.1c-0.2,0.2-0.7,0.5-0.8,0.5l0,0c-0.3-0.3-0.8-0.5-1.5-0.5
		c-0.4,0-0.9,0.1-1.4,0.5c-1.6-0.4-2.8-1.4-3.6-3l0,0h-0.1c-0.1,0-0.1,0-0.2,0s-0.2,0-0.2,0s0,0-0.1,0c0,0,0,0,0,0.1
		c0.1,0.1,0.1,0.1,0.2,0.2s0.2,0.2,0.2,0.3c0.1,0.2,0.2,0.5,0.3,0.9c0,0.1,0,0.2,0,0.2c0,0.2,0,0.4,0.2,0.6c0.1,0.1,0.4,0.3,0.8,0.5
		c0.7,0.4,1.7,0.9,2.3,1.5c0,0,0,0,0.1,0l0,0c0.2-0.6,0.7-1,1.4-1c0.2,0,0.4,0,0.6,0.1c0.5,0.2,0.6,0.6,0.7,1l0,0l0,0l0,0
		c0.5-0.3,1-0.4,1.3-0.4c0.2,0,0.4,0.1,0.5,0.2c0,0,0,0,0.1,0s0.2-0.1,0.2-0.2l0,0c0,0,0,0,0-0.1s-0.2-0.2-0.2-0.3
		c0.2-0.4,0.6-0.7,0.9-1c0.2-0.2,0.5-0.4,0.7-0.7c0.1-0.2,0.2-0.6,0.3-0.9c0.1-0.2,0.1-0.4,0.2-0.5c0.1-0.3,0.2-0.4,0.1-0.5l0,0l0,0
		c0,0,0,0-0.1,0.1c-0.2,0.1-0.4,0.3-0.6,0.3c0.1-0.3,0.6-1.2,0.9-1.7C74.9,29.8,75,29.6,75,29.5z"/>
	<path class="st2" d="M72,23.8v0.1c0,0,0,0,0.1,0c0,0,0,0,0.1,0c0,0,0.7-0.7,0.9-2c0.3-1.3,0-2.1,0-2.1L73,19.7l-0.1,0.1
		c0,0,0.2,0.8,0,2C72.6,23.1,72,23.8,72,23.8z"/>
	<path class="st2" d="M71.6,22.4v0.1c0,0,0,0,0.1,0c0,0,0,0,0.1,0c0,0,0.3-0.3,0.5-0.9c0.1-0.5,0-0.9,0-1l-0.1-0.1l-0.1,0.1
		c0,0,0.1,0.4,0,0.9C71.8,22.1,71.6,22.4,71.6,22.4z"/>
	<path class="st2" d="M76.4,15.7c-0.4-0.2-1-0.3-1.8-0.4c-0.2-0.1-0.4-0.2-0.6-0.3s-0.5-0.2-0.8-0.4c-0.1-0.1-0.3-0.2-0.4-0.3
		c-0.3-0.2-0.7-0.4-1-0.5c-0.3,0-0.6,0.2-1,0.4c-0.2,0.2-0.5,0.4-0.7,0.4s-0.4,0.1-0.7,0.1c-0.3,0-0.5,0-0.8,0s-0.6-0.1-0.9-0.1
		c-0.2,0-0.4,0-0.6,0c-0.2-0.1-0.4-0.2-0.6-0.3c-0.4-0.2-0.8-0.4-1.3-0.5l0,0c-0.1,0.1-0.3,0.2-0.4,0.4c-0.4,0.4-0.8,0.9-1.5,0.9
		l0,0c-0.1,0.1-0.2,0.1-0.3,0.2c-0.2,0.1-0.5,0.3-0.8,0.3c-0.1,0-0.2-0.1-0.3-0.1l0,0c0,0,0,0-0.1,0c0,0,0,0,0,0.1s0,0.1,0,0.2
		c0,0.1,0,0.3,0.1,0.4c0,0,0,0,0.1,0c0.2-0.2,0.5-0.2,0.9-0.2c0.2,0,0.3,0,0.5,0s0.3,0,0.5,0l0,0l0,0v-0.1c0.3-0.5,0.9-1.2,1.5-1.2
		l0,0c0.4,0,0.8,0.4,1.1,0.8c0,0.1-0.1,0.2-0.1,0.3s0,0.2-0.1,0.3l0,0c-0.6,0-0.8,0.3-1,0.6c0,0,0,0,0,0.1c0.1,0.1,0.2,0.3,0.2,0.5
		c0,0.1-0.1,0.2-0.2,0.2l0,0l0,0c0.1,0,0.2,0.1,0.2,0.1c0.1,0.1,0.3,0.1,0.4,0.2l0,0l0,0c0.2-0.1,0.4-0.4,0.4-0.6s0-0.4-0.1-0.5
		c0.4-0.9,1.2-1.4,2.3-1.4c0.2,0,0.5,0,0.7,0.1c0.8,0.1,1.2,0.6,1.7,1.1c0.2,0.2,0.4,0.4,0.6,0.6l0,0c0,0,0.1,0,0.3,0
		c0.1,0,0.1,0,0.2,0c0.2,0,0.3,0,0.4,0c0,0,0,0,0.1,0c0,0,0,0,0-0.1c-0.1-0.3-0.5-0.5-0.8-0.7c-0.3-0.1-0.6-0.3-0.7-0.5
		s-0.1-0.4,0-0.5c0.2-0.3,0.7-0.5,1.2-0.5c0.2,0,0.4,0,0.5,0.1c0.5,0.2,0.7,0.8,0.8,1.2l0,0l0,0l0,0c0.3-0.2,0.8-0.3,1.5-0.3
		c0.2,0,0.3,0,0.5,0c0.1,0,0.1,0,0.2,0.1c0.1,0,0.2,0.1,0.3,0.1C76.4,15.9,76.4,15.9,76.4,15.7C76.5,15.8,76.5,15.7,76.4,15.7
		C76.5,15.7,76.5,15.7,76.4,15.7z"/>
	<path class="st2" d="M67.7,31.1L67.7,31.1L67.7,31.1c0.3-0.1,0.5-0.2,0.8-0.2c0.2,0,0.4,0,0.6,0s0.4,0,0.6,0c0.3,0,0.6,0,0.8-0.2
		l0,0v-0.3c0,0,0-0.1-0.1-0.1l0,0c-0.2,0-0.4,0.1-0.6,0.1c-0.1,0-0.3,0.1-0.4,0.1s-0.1,0-0.2,0c-0.2,0-0.5,0-0.7-0.1
		c-0.2,0-0.4-0.1-0.7-0.1c-0.2,0-0.4,0-0.6,0.1l0,0C67.3,30.7,67.5,30.9,67.7,31.1z"/>
	<path class="st2" d="M77.3,13.2c-0.1,0-0.1,0.2,0,0.1c0.3,0,0.7,0,0.9,0.2c0.1,0,0.2-0.1,0.1-0.1C78,13.2,77.6,13.2,77.3,13.2z"/>
	<path class="st2" d="M70.7,9c-0.1-1.3-0.9-1.6-1.5-1.6l0,0c-0.4,0-0.8,0.1-1,0.4c-0.3,0.3-0.4,0.7-0.4,1.1c0,0.8,0.6,1.6,0.9,2
		c0,0.1,0.1,0.1,0.1,0.2c0.2,0.2,0.1,0.4,0.1,0.5s-0.2,0.1-0.2,0.2h-0.1c0,0,0,0-0.1,0l0,0c0,0-0.1,0-0.1,0.1V12c0,0,0,0,0,0.1
		c0,0,0,0,0.1,0c0,0,0,0,0.1,0h0.1c0.1,0,0.4,0,0.7,0c0.2,0,0.5,0,0.5,0l0,0c0,0,0,0,0.1,0s0.2,0,0.2-0.1v-0.1c0,0,0,0-0.1,0l0,0
		c-0.1,0-0.2,0-0.2-0.1c-0.1-0.1-0.1-0.2-0.1-0.3c0-0.2,0.1-0.3,0.2-0.5s0.2-0.3,0.3-0.4c0-0.1,0.1-0.1,0.1-0.2
		c0.1-0.1,0.2-0.2,0.2-0.2l0,0c0,0,0-0.1-0.1-0.1c0,0,0,0-0.1,0L70.3,10l0,0l0,0c-0.1,0.1-0.4,0.4-0.9,0.4l0,0l0,0
		c-0.5,0-1.1-0.4-1.1-1.1c0-0.3,0.1-0.6,0.3-0.8c0.2-0.2,0.5-0.3,0.8-0.3c0,0,0,0,0.1,0c0.7,0,1.2,0.5,1.2,1.2c0,0.1,0,0.2,0.1,0.2
		l0,0l0,0C70.7,9.2,70.7,9.2,70.7,9C70.7,9.1,70.7,9,70.7,9z"/>
	<path class="st2" d="M76.7,12.7c0.4,0,0.9,0.1,1.3,0.3c0.1,0,0.2-0.1,0.1-0.1c-0.4-0.2-0.9-0.3-1.3-0.3
		C76.6,12.6,76.6,12.7,76.7,12.7z"/>
	<path class="st2" d="M74.8,12.2c0.4-0.3,0.9-0.5,1.4-0.3c0.1,0,0.2-0.1,0.1-0.1C75.7,11.6,75.1,11.8,74.8,12.2
		C74.6,12.2,74.7,12.3,74.8,12.2z"/>
	<path class="st2" d="M74.3,12.2c0.3-0.5,0.8-0.8,1.4-0.9c0.1,0,0-0.2-0.1-0.2c-0.6,0.1-1.1,0.5-1.5,1C74,12.2,74.2,12.3,74.3,12.2z
		"/>
	<path class="st2" d="M75.3,11c0.1,0,0-0.2-0.1-0.1c-0.6,0.2-1.1,0.6-1.4,1.1c-0.1,0.1,0.1,0.1,0.2,0.1C74.3,11.5,74.8,11.1,75.3,11
		z"/>
	<path class="st2" d="M66.5,9.1c0.3,0.4,0.7,0.7,1.2,0.8c0.1,0,0.1-0.2,0-0.2c-0.5-0.1-0.8-0.4-1.1-0.8C66.5,8.8,66.4,9,66.5,9.1z"
		/>
	<path class="st2" d="M75.9,12.4c0.4-0.1,0.8-0.1,1.2,0.1c0.1,0,0.2-0.1,0.1-0.1c-0.4-0.2-0.8-0.2-1.3-0.1
		C75.8,12.3,75.8,12.4,75.9,12.4z"/>
	<path class="st2" d="M67.4,9.2c0.1,0,0.2-0.2,0.1-0.2c-0.3-0.1-0.5-0.3-0.7-0.6c-0.1-0.1-0.2,0.1-0.1,0.1C66.8,8.8,67.1,9,67.4,9.2
		z"/>
	<path class="st2" d="M60.8,10.9c-1,0.1-2.8,1-3,1.5v0.1l0,0l0,0c0.4-0.4,1.9-1.1,3-1.4C60.9,11,60.9,11,60.8,10.9
		C60.9,10.9,60.8,10.9,60.8,10.9z"/>
	<path class="st2" d="M58.5,13.3L58.5,13.3C58.6,13.3,58.6,13.3,58.5,13.3c0.5-0.6,1.4-1.2,2.1-1.6c0,0,0,0,0-0.1c0,0,0,0-0.1,0
		C60,11.8,58.8,12.7,58.5,13.3L58.5,13.3z"/>
	<path class="st2" d="M67.6,6.2c0,0.5,0,0.9,0.2,1.3c0.1,0.1,0.2,0,0.1-0.1C67.7,7,67.7,6.6,67.6,6.2C67.7,6.1,67.6,6,67.6,6.2z"/>
	<path class="st2" d="M75.4,29.4c0.1,0,0.1-0.1,0.3-0.2c0.1-0.1,0.2-0.2,0.3-0.3l0,0c0,0,0,0,0,0.1c0,0,0,0.1,0.1,0.1c0,0,0,0,0.1,0
		l0,0c0.1-0.1,0.1-0.3,0.1-0.6c0.1-0.2,0.1-0.5,0.2-0.7s0.2-0.5,0.3-0.7c0.2-0.3,0.4-0.7,0.5-1.1c0.1-0.2,0.1-0.4,0.2-0.7
		c0.2-0.6,0.4-1.3,0.5-1.9l0,0c0,0,0,0-0.1,0c0,0-0.1,0-0.1,0.2c0,0,0,0.1-0.1,0.1c-0.1,0.1-0.2,0.3-0.2,0.4
		c-0.1,0.1-0.2,0.3-0.3,0.5c-0.3,1.2-0.9,2.3-1.6,3.2c0,0,0,0,0,0.1s0.1,0.1,0.2,0.2c0.1,0,0.1,0.1,0.1,0.1
		c-0.1,0.2-0.2,0.3-0.3,0.5C75.6,28.8,75.4,29,75.4,29.4C75.3,29.3,75.3,29.3,75.4,29.4C75.3,29.3,75.4,29.4,75.4,29.4z"/>
	<path class="st2" d="M58.4,13.9L58.4,13.9C58.5,13.9,58.5,13.9,58.4,13.9c0.2-0.1,0.3-0.2,0.4-0.4c0.5-0.5,1.2-1.2,2-1.6
		c0,0,0,0,0-0.1l0,0l0,0c0,0,0,0-0.1,0l0,0C59.8,12.3,59,13,58.4,13.9L58.4,13.9z"/>
	<path class="st2" d="M66.4,9.7c0.4,0.4,1,0.7,1.6,0.9c0.1,0,0.2-0.2,0-0.2c-0.6-0.1-1.1-0.4-1.5-0.8C66.5,9.4,66.4,9.6,66.4,9.7z"
		/>
	<path class="st2" d="M66.4,10.2c0.4,0.5,1,0.8,1.7,0.8c0.1,0,0.1-0.2,0-0.2c-0.6,0-1.1-0.3-1.5-0.7C66.5,10,66.3,10.1,66.4,10.2z"
		/>
	<path class="st2" d="M66.6,11c0.3,0.1,0.5,0.3,0.8,0.3c0.3,0.1,0.6,0.2,1,0.2c0.1,0,0.2-0.2,0-0.2c-0.3,0-0.6-0.1-0.9-0.1
		S67,11,66.7,10.9C66.7,10.8,66.5,11,66.6,11z"/>
	<path class="st2" d="M71.7,10.8c-0.2,0.3-0.5,0.5-0.8,0.7c-0.2,0.1-0.5,0.2-0.7,0.3c-0.1,0.1,0.1,0.2,0.1,0.1
		c0.3-0.2,0.6-0.3,0.9-0.4c0.2-0.2,0.4-0.4,0.6-0.6C72,10.8,71.8,10.7,71.7,10.8z"/>
	<path class="st2" d="M67.9,13.2c-0.5,0.1-0.9,0.5-1.2,0.8c-0.1,0.1,0.1,0.2,0.2,0.1c0.3-0.3,0.7-0.6,1.1-0.8
		C68.1,13.3,68.1,13.2,67.9,13.2z"/>
	<path class="st2" d="M68.6,13.3c-0.5,0.2-0.9,0.4-1.3,0.8c-0.1,0.1,0,0.3,0.1,0.2c0.4-0.3,0.8-0.6,1.2-0.7
		C68.7,13.4,68.7,13.2,68.6,13.3z"/>
	<path class="st2" d="M68.6,14.4c0.6-0.5,1.4-0.9,2.2-1.1c0.1,0,0-0.2-0.1-0.2c-0.8,0.2-1.6,0.6-2.2,1.1
		C68.3,14.4,68.5,14.5,68.6,14.4z"/>
	<path class="st2" d="M67.3,13.1c-0.4,0.1-0.8,0.3-1.1,0.6c-0.1,0.1,0.1,0.2,0.2,0.1c0.2-0.3,0.6-0.5,1-0.5
		C67.4,13.3,67.4,13.1,67.3,13.1z"/>
	<path class="st2" d="M69.7,13.2c-0.7,0.2-1.3,0.5-1.9,0.9c-0.1,0.1,0,0.2,0.1,0.2c0.6-0.4,1.2-0.7,1.9-0.9
		C69.8,13.4,69.8,13.2,69.7,13.2z"/>
	<path class="st2" d="M72.3,12.8c-1.1,0.3-2.2,0.8-3.1,1.5c-0.1,0.1,0,0.2,0.1,0.1c0.9-0.7,2-1.2,3.1-1.5
		C72.5,13,72.5,12.8,72.3,12.8z"/>
	<path class="st2" d="M71.2,29.2L71.2,29.2c-0.1-0.1-0.2-0.1-0.3-0.1c-0.3,0-0.6,0.2-0.8,0.3c-0.2,0.1-0.4,0.3-0.6,0.3
		s-0.3,0.1-0.5,0.1l0,0c-0.4,0-0.7-0.1-1-0.3c-0.1-0.1-0.2-0.1-0.4-0.2c0,0,0,0-0.1,0c-0.1,0.1-0.1,0.2-0.2,0.3
		c0,0.1-0.1,0.1-0.1,0.2l0,0l0,0c0.3,0.1,0.6,0.2,1.1,0.2c0.3,0,0.5,0,0.8,0c0.2,0,0.5,0,0.7,0c0.3,0,0.5,0,0.6,0.1l0,0
		c0,0,0,0,0.1,0c0.1-0.2,0.3-0.4,0.4-0.6C71.1,29.5,71.1,29.4,71.2,29.2L71.2,29.2z"/>
	<path class="st2" d="M71.4,23.7L71.4,23.7C71.3,23.7,71.3,23.7,71.4,23.7c-0.2,0.8-0.5,1.3-1.1,1.8c-0.2,0-0.3,0-0.5,0
		c-0.3,0-0.6,0.1-0.9,0.2s-0.6,0.2-1,0.2c-0.5-0.3-0.8-0.9-1-1.5c0,0,0,0-0.1,0l0,0c-0.1,0.5,0,1,0.3,1.3c0.2,0.3,0.2,0.5,0.3,0.6
		c0,0.1,0,0.2,0.1,0.2s0.1,0.1,0.3,0.1c0.3,0,0.8-0.1,1.1-0.2c0.1,0,0.1,0,0.2-0.1c0.4-0.1,0.8-0.3,1.3-0.3c0.1,0,0.2,0,0.3,0l0,0
		C71.1,25.5,71.6,24.8,71.4,23.7z"/>
	<path class="st2" d="M71.1,12.4L71,12.5c-0.5,0.3-1.5,0.5-2.4,0.4c-0.8-0.1-1.4-0.6-2.3-0.5c0,0,0,0-0.1,0c0,0.1-0.1,0.1-0.1,0.2
		c0.2,0,0.4,0,0.6,0.1c0.7,0.1,1.3,0.5,2,0.6c0.9,0.1,1.8-0.1,2.6-0.5c0.1,0,0.1-0.1,0.1-0.1s-0.1,0-0.1-0.1
		C71.4,12.5,71.2,12.4,71.1,12.4z"/>
	<path class="st2" d="M62.1,14c-0.3,0.3-0.4,0.7-0.5,1.1c0,0.1,0.1,0.2,0.2,0c0.1-0.4,0.2-0.7,0.5-1C62.3,14.1,62.2,13.9,62.1,14z"
		/>
	<path class="st2" d="M63,13.6c-0.4,0.4-0.7,0.9-0.8,1.5c0,0.1,0.2,0.1,0.2,0c0.1-0.5,0.3-1.1,0.7-1.4C63.2,13.6,63,13.5,63,13.6z"
		/>
	<path class="st2" d="M63.9,13.3c-0.5,0.4-1,0.9-1.1,1.6c0,0.1,0.2,0.1,0.2,0c0.1-0.6,0.5-1.1,1-1.4C64,13.4,64,13.2,63.9,13.3z"/>
	<path class="st2" d="M61.5,16.4c-0.2,0.3-0.3,1.1-0.4,1.3c-0.5,2.2-0.4,4.7,0.2,6.7c0.4,1.3,1.1,2.7,2,3.8c0.7,0.8,1.3,1.5,2.1,2.2
		c0,0,0.7,0.6,0.8,0.6l0,0c0.1,0,0.1-0.1,0.2-0.1c0,0,0-0.1,0-0.2l0,0c-0.8-0.5-1.5-1.3-2.2-2.1l-0.1-0.2c-2.1-2.3-3.1-5.8-2.7-9.2
		c0.1-1.1,0.4-2.2,0.6-2.7v-0.1c0,0-0.1-0.1-0.2-0.1C61.6,16.3,61.5,16.3,61.5,16.4z"/>
	<path class="st2" d="M77.4,20.8C77.4,20.8,77.3,20.7,77.4,20.8c-0.1-0.1-0.2-0.1-0.2,0c0,0-0.2,2.6-1.4,5c-1.5,3.1-3.9,4.8-3.9,4.8
		v0.1c0,0,0,0,0.1,0l0,0c0,0,2.4-1.7,4-4.8C77.2,23.4,77.4,20.8,77.4,20.8z"/>
	<path class="st2" d="M65.7,13.6c-0.1,0.1,0.1,0.2,0.2,0.1c0.2-0.3,0.6-0.5,1-0.7c0.1,0,0-0.2-0.1-0.1C66.3,13,65.9,13.2,65.7,13.6z
		"/>
	<path class="st2" d="M65.1,12.7c-0.7,0.5-1.4,1-1.7,1.9c0,0.1,0.2,0.1,0.2,0C63.8,13.8,64.5,13.3,65.1,12.7
		C65.3,12.8,65.1,12.7,65.1,12.7z"/>
	<path class="st2" d="M65.8,12.7c-0.7,0.3-1.3,0.8-1.7,1.5c-0.1,0.1,0.1,0.2,0.2,0.1c0.4-0.6,1-1.1,1.7-1.5
		C66.1,12.8,65.9,12.7,65.8,12.7z"/>
</g>
<g>
	<path class="st3" d="M34.5,50.1c0,0-2.5-2.3-2.6-2.4c-0.1-0.1-0.1-0.1-0.1-0.2c0-0.1,0.1-0.1,0.1-0.1l1.8-0.1
		c0.2,0,0.3-0.1,0.3-0.3v-0.4c0-0.2-0.1-0.3-0.3-0.3c0,0-1.5,0.1-1.6,0.1s-0.2,0-0.2,0c0-0.1,0.1-0.2,0.1-0.2
		c0.1-0.1,2.3-2.4,2.3-2.4c0.1-0.1,0.1-0.3,0-0.4L34,43.1c-0.1-0.1-0.3-0.1-0.4,0l-3.2,3.3c0,0-0.3,0.3-0.4,0.5
		c-0.1,0.1-0.1,0.3,0,0.4c0.1,0.1,0.5,0.5,0.5,0.5l3.3,3c0.1,0.1,0.3,0.1,0.4,0l0.3-0.3C34.6,50.4,34.6,50.2,34.5,50.1z"/>
	<path class="st3" d="M66.2,50c0,0-2.5-2.3-2.6-2.4c-0.1-0.1-0.1-0.1-0.1-0.2c0-0.1,0.1-0.1,0.1-0.1l1.8-0.1c0.2,0,0.3-0.1,0.3-0.3
		v-0.4c0-0.2-0.1-0.3-0.3-0.3c0,0-1.5,0.1-1.6,0.1s-0.2,0-0.2,0c0-0.1,0.1-0.2,0.1-0.2c0.1-0.1,2.3-2.4,2.3-2.4
		c0.1-0.1,0.1-0.3,0-0.4L65.7,43c-0.1-0.1-0.3-0.1-0.4,0l-3.2,3.3c0,0-0.3,0.3-0.4,0.5c-0.1,0.1-0.1,0.3,0,0.4
		c0.1,0.1,0.5,0.5,0.5,0.5l3.3,3c0.1,0.1,0.3,0.1,0.4,0l0.3-0.3C66.3,50.3,66.3,50.1,66.2,50z"/>
	<path class="st3" d="M75,50c0,0-2.5-2.3-2.6-2.4c-0.1-0.1-0.1-0.1-0.1-0.2c0-0.1,0.1-0.1,0.1-0.1l1.8-0.1c0.2,0,0.3-0.1,0.3-0.3
		v-0.4c0-0.2-0.1-0.3-0.3-0.3c0,0-1.5,0.1-1.6,0.1s-0.2,0-0.2,0c-0.1-0.1,0.1-0.2,0.1-0.2c0.1-0.1,2.3-2.4,2.3-2.4
		c0.1-0.1,0.1-0.3,0-0.4L74.5,43c-0.1-0.1-0.3-0.1-0.4,0L71,46.4c0,0-0.3,0.3-0.4,0.5c-0.1,0.1-0.1,0.3,0,0.4
		c0.1,0.1,0.5,0.5,0.5,0.5l3.3,3c0.1,0.1,0.3,0.1,0.4,0l0.3-0.3C75.1,50.3,75.1,50.1,75,50z"/>
	<path class="st3" d="M40.2,50c0,0-3-2.7-3-2.8c-0.1-0.1-0.1-0.2,0-0.3s2.9-2.9,2.9-2.9c0.1-0.1,0.1-0.3,0-0.4l-0.3-0.3
		c-0.1-0.1-0.3-0.1-0.4,0l-3.1,3.1c0,0-0.3,0.3-0.5,0.5c-0.1,0.1-0.1,0.3,0,0.4c0.1,0.1,0.5,0.5,0.5,0.5l3.2,2.9
		c0.1,0.1,0.3,0.1,0.4,0l0.3-0.3C40.4,50.2,40.4,50.1,40.2,50z"/>
	<path class="st3" d="M29.9,50.4l-3.2-7.2c-0.1-0.1-0.2-0.1-0.3,0l-0.2,0.5l0,0l-2,6.1c-0.1,0.2,0,0.3,0.3,0.2l0.6-0.2
		c0.2-0.1,0.2-0.2,0.3-0.4l1.2-3.8c0,0,0-0.1,0.1-0.1s0.1,0.1,0.1,0.1l2.3,5c0.1,0.1,0.2,0.2,0.4,0.1l0.3-0.2
		C29.9,50.7,30,50.5,29.9,50.4z"/>
	<path class="st3" d="M23.3,50.4L20,43.3c-0.1-0.1-0.2-0.1-0.3,0l-0.2,0.5l0,0l-2,6.1c-0.1,0.2,0,0.3,0.3,0.2l0.6-0.2
		c0.2-0.1,0.2-0.2,0.3-0.4l1.2-3.8c0,0,0-0.1,0.1-0.1s0.1,0.1,0.1,0.1l2.3,5c0.1,0.1,0.2,0.2,0.4,0.1l0.3-0.2
		C23.3,50.7,23.4,50.5,23.3,50.4z"/>
	<path class="st3" d="M16.6,43.3L16.6,43.3l-2.8,3.1c0,0-0.1,0.1-0.2,0.1c-0.1,0,0-0.1,0-0.1l0.3-2.6c0-0.2-0.1-0.3-0.3-0.3h-0.4
		c-0.1,0-0.1,0-0.2,0.1c-0.1,0-0.1,0.1-0.1,0.2l-0.4,5.4c0,0.1,0,0.2,0.1,0.2l0,0h0.1c0.1-0.1,0.3-0.3,0.4-0.4l0,0l2.7-3
		c0,0,0.1-0.1,0.2-0.1s0.1,0.2,0.1,0.2v4.5c0,0.2,0.1,0.3,0.3,0.3h0.4c0.2,0,0.3-0.1,0.3-0.3v-7.1C16.8,43.2,16.7,43.2,16.6,43.3z"
		/>
	<path class="st3" d="M50.5,43.4L50.5,43.4l-2.7,3.2c0,0-0.1,0.1-0.2,0.1c-0.1,0-0.1-0.1-0.1-0.1l0.2-2.6c0-0.2-0.1-0.3-0.3-0.3H47
		c-0.1,0-0.1,0-0.2,0.1c-0.1,0.1-0.1,0.1-0.1,0.2l-0.2,5.5c0,0.1,0,0.2,0.1,0.2l0,0h0.1c0.1-0.1,0.2-0.3,0.4-0.4l0,0l2.5-3.1
		c0,0,0.1-0.1,0.2-0.1c0.1,0,0.1,0.2,0.1,0.2l0.1,4.5c0,0.2,0.1,0.3,0.3,0.3h0.4c0.2,0,0.3-0.1,0.3-0.3l-0.2-7.1
		C50.7,43.3,50.6,43.3,50.5,43.4z"/>
	<path class="st3" d="M80,50.1l-0.7-6.5c0-0.2-0.1-0.2-0.3-0.3h-0.1l0,0h-2.1l0,0h-0.1c-0.2,0-0.3,0.1-0.3,0.3l-0.7,6.5
		c0,0.2,0.1,0.3,0.3,0.3h0.4c0.2,0,0.3-0.1,0.3-0.3c0,0,0.6-5.5,0.6-5.7s0.2-0.2,0.2-0.2h0.8c0,0,0.2,0,0.2,0.2s0.6,5.8,0.6,5.8
		c0,0.2,0.2,0.3,0.3,0.3h0.4C79.9,50.4,80,50.2,80,50.1z"/>
	<path class="st3" d="M70.7,45.3c-0.2-0.1-0.6-0.3-0.6-0.3L68,43.9c-0.3-0.1-0.5-0.3-0.7-0.4c-0.2-0.1-0.4,0-0.4,0.2v6.5
		c0,0.2,0.1,0.3,0.3,0.3h0.4c0.2,0,0.3-0.1,0.3-0.3v-5c0-0.1,0-0.3,0.2-0.2c0.5,0.2,1,0.5,1.1,0.6c0.2,0.1,0,0.2,0,0.2l-0.8,0.7
		c-0.1,0.1-0.1,0.3,0,0.4l0.2,0.3c0.1,0.1,0.3,0.1,0.4,0l1.3-1.1c0,0,0.4-0.3,0.5-0.4c0.1-0.1,0.1-0.1,0.1-0.2
		C70.9,45.5,70.8,45.4,70.7,45.3z"/>
	<path class="st3" d="M60.8,43.8h-0.4c-0.2,0-0.3,0.1-0.3,0.3v0.5c0,0,0,0.2-0.2,0.2c-0.1,0-0.9,0-1.6,0.1c-0.2,0-0.2-0.2-0.1-0.2
		c0-0.1,0.8-1.9,0.8-1.9c0.1-0.1,0-0.3-0.2-0.4l-0.4-0.2c-0.1-0.1-0.3,0-0.4,0.2l-0.9,2.3l0,0l0,0l-0.3,0.8l0,0
		c-0.1,0.2-0.1,0.3-0.1,0.4c0,0.1,0.1,0.1,0.2,0.1c0,0,2.7-0.1,2.9-0.2C60,45.8,60,46,60,46l0,4.6c0,0.2,0.1,0.3,0.3,0.3h0.4
		c0.2,0,0.3-0.1,0.3-0.3l0.1-6.5C61,43.9,60.9,43.8,60.8,43.8z"/>
	<path class="st3" d="M11.2,49.8L9.4,47c0,0-0.1-0.1-0.1-0.2c0-0.1,0-0.2,0-0.2l1.7-3.2c0.1-0.1,0-0.3-0.1-0.4l-0.3-0.2
		c-0.1-0.1-0.3,0-0.4,0.1l-1.5,2.7c0,0,0,0.1-0.1,0.1s-0.1-0.1-0.1-0.1L7,43.3c-0.1-0.1-0.3-0.2-0.4-0.1l-0.3,0.2
		c-0.1,0.1-0.2,0.3-0.1,0.4L8,46.5c0,0,0.1,0.1,0.1,0.2c0,0.1-0.1,0.2-0.1,0.2l-1.6,3.3c-0.1,0.1,0,0.3,0.1,0.4l0.3,0.2
		c0.1,0.1,0.3,0,0.4-0.1l1.4-2.6c0,0,0-0.1,0.1-0.1s0.1,0.1,0.1,0.1l1.5,2.3c0.1,0.1,0.3,0.2,0.4,0.1l0.3-0.2
		C11.2,50.1,11.3,50,11.2,49.8z"/>
	<path class="st3" d="M91.6,49.7l-1.8-2.8c0,0-0.1-0.1-0.1-0.2c0-0.1,0-0.1,0-0.1l1.7-3.2c0.1-0.1,0-0.3-0.1-0.4H91
		c-0.1-0.1-0.3,0-0.4,0.1l-1.5,2.7c0,0,0,0.1-0.1,0.1s0-0.2,0-0.2l-1.5-2.3c-0.1-0.1-0.3-0.2-0.4-0.1l-0.3,0.2
		c-0.1,0.1-0.2,0.3-0.1,0.4l1.8,2.7c0,0,0.1,0.1,0.1,0.2c0,0.1-0.1,0.2-0.1,0.2l-1.7,3.1c-0.1,0.1,0,0.3,0.1,0.4l0.3,0.2
		c0.1,0.1,0.3,0,0.4-0.1L89,48c0,0,0-0.1,0.1-0.1s0.1,0.1,0.1,0.1l1.5,2.3c0.1,0.1,0.3,0.2,0.4,0.1l0.3-0.2
		C91.6,50,91.7,49.9,91.6,49.7z"/>
	<path class="st3" d="M5.7,50.4l-3.3-7.1c-0.1-0.1-0.2-0.1-0.3,0L2,43.8l0,0l-2,6c0,0.3,0,0.4,0.3,0.3L3,49.3l0.2-0.1
		c0.2-0.1,0.2-0.2,0.2-0.4l-0.1-0.4c0-0.1-0.2-0.2-0.4-0.2l-1.2,0.4c0,0-0.1,0.1-0.2,0c0-0.1,0-0.2,0-0.2s0.8-2.4,0.8-2.5
		s0.1-0.2,0.1-0.2c0.1,0,0.1,0.1,0.2,0.2c0,0.1,2.2,4.8,2.2,4.8c0.1,0.1,0.2,0.2,0.4,0.1l0.3-0.2C5.7,50.7,5.8,50.5,5.7,50.4z"/>
	<path class="st3" d="M86.3,50.3L83,43.2c-0.1-0.1-0.2-0.1-0.3,0l-0.2,0.5l0,0l-2,6.1c-0.1,0.2,0,0.3,0.3,0.2l2.7-0.9l0.3-0.1
		c0.2-0.1,0.2-0.2,0.2-0.4l-0.1-0.4C83.8,48,83.7,48,83.5,48l-1.2,0.4c0,0-0.1,0.1-0.2,0c0-0.1,0-0.2,0-0.2s0.8-2.4,0.8-2.5
		s0.1-0.2,0.1-0.2c0.1,0,0.1,0.1,0.2,0.2c0,0.1,2.3,4.8,2.3,4.8c0.1,0.1,0.2,0.2,0.4,0.1L86.3,50.3C86.3,50.6,86.4,50.5,86.3,50.3z"
		/>
	<path class="st3" d="M97.7,50.3l-3.3-7.1c-0.1-0.1-0.2-0.1-0.3,0L94,43.8l0,0l-2,6.1c-0.1,0.2,0,0.3,0.3,0.2l2.7-0.9l0.3-0.1
		c0.2-0.1,0.2-0.2,0.2-0.4l-0.1-0.4c-0.1-0.2-0.2-0.2-0.4-0.2l-1.2,0.4c0,0-0.1,0.1-0.2,0c0-0.1,0-0.2,0-0.2s0.8-2.4,0.8-2.5
		s0.1-0.2,0.1-0.2c0.1,0,0.1,0.1,0.2,0.2c0,0.1,2.3,4.8,2.3,4.8c0.1,0.1,0.2,0.2,0.4,0.1l0.3-0.2C97.7,50.6,97.8,50.5,97.7,50.3z"/>
</g>
<polygon class="st4" points="48.8,65.1 46.5,66.3 46.9,63.6 45.1,61.8 47.6,61.4 48.8,59.1 50,61.4 52.6,61.8 50.7,63.6 51.2,66.3 
	"/>
<polygon class="st4" points="38,65.1 35.8,66.3 36.2,63.6 34.3,61.8 36.9,61.4 38,59.1 39.3,61.4 41.8,61.8 40,63.6 40.4,66.3 "/>
<polygon class="st4" points="59.5,65.1 57.3,66.3 57.7,63.6 55.8,61.8 58.4,61.4 59.5,59.1 60.8,61.4 63.3,61.8 61.5,63.6 
	61.9,66.3 "/>
</svg>
