<?xml version="1.0" encoding="utf-8"?>
<!-- Generator: Adobe Illustrator 20.0.0, SVG Export Plug-In . SVG Version: 6.00 Build 0)  -->
<svg version="1.1" id="Слой_1" xmlns="http://www.w3.org/2000/svg" xmlns:xlink="http://www.w3.org/1999/xlink" x="0px" y="0px"
	 viewBox="0 0 110.1 73" style="enable-background:new 0 0 110.1 73;" xml:space="preserve">
<style type="text/css">
	.st0{fill:#FFFFFF;}
	.st1{fill:#DCD6C3;}
	.st2{fill:#366A7E;}
	.st3{fill:#B17D0C;}
	.st4{fill:#4C4638;}
</style>
<path class="st0" d="M67,42.8c2.7,1.4,5.2,2.3,5.9,2.5c0.1,0,0.2,0.1,0.3,0.1c0.6,0.2,1.3,0.6,2.4,0.7c0.9,0.1,2.1,0.1,3.2,0.1
	c0.2,0,0.5,0,0.7,0h0.3c1.5-0.1,3-0.1,4-0.2c1.3-0.2,2.3-0.6,2.9-0.8c0.3-0.1,0.6-0.3,0.7-0.6c1.6-0.6,3.1-1.5,3.9-1.8l0.1-0.1
	c0.1-0.1,3-1.7,5-3.9c1.8-2.1,3.7-4.5,4.7-7.5l0.1-0.3c0.9-2.7,1.3-3.9,1.4-6.7c0.1-2.9-1.7-8.4-2.5-10.7c-0.9-2.4-3.6-6.5-3.7-6.6
	c-0.5-0.7-1-1.2-1.5-1.5c-0.2-0.1-0.3-0.2-0.5-0.3c-0.5-0.6-0.8-0.9-0.9-1c-0.2-0.1-0.5-0.3-0.8-0.5c-0.1-0.1-0.3-0.3-0.5-0.5
	c-1.3-0.8-2.5-1.4-3.8-1.5c-0.7-0.1-1.4-0.1-1.8-0.1h-0.3c-0.2,0-0.5,0-0.8-0.1c-0.3,0-0.7-0.1-1-0.1c-0.2,0-0.3,0-0.6,0
	c-0.1,0-0.3,0-0.5,0c-0.1,0-0.2,0-0.5,0c-0.2,0-0.5,0-0.8,0c-0.5,0-1.2-0.1-1.8-0.2c-1-0.1-2-0.2-2.9-0.2c-0.1,0-0.2,0-0.3,0
	c-0.6,0-1.4,0.1-2.2,0.1c-0.3,0-0.9,0.1-1.6,0.3c-0.2,0-0.5,0.1-0.6,0.1c-2.1,0.5-3.1,1.2-3.5,1.4c-0.5,0.3-0.7,0.8-0.8,1.2h-0.1
	c-0.8,0-2.1,1-3,1.8c-0.1,0-0.2,0.1-0.3,0.2c0,0-0.2,0.1-0.5,0.3c-0.1,0-0.1,0.1-0.2,0.2c-0.1,0-0.1,0.1-0.2,0.1
	C64,6.8,63.8,6.9,63.6,7l-0.1,0.1c-0.1,0-0.1,0.1-0.2,0.1c-0.1,0.1-0.1,0.2-0.2,0.2c-0.2,0.2-0.2,0.3-0.3,0.5c0,0.1-0.1,0.1-0.1,0.2
	c0,0,0,0,0,0.1l-0.1,0.1c-0.1,0.1-0.2,0.2-0.2,0.5L62.1,9L62,9.1l-0.3,0.5c0,0.1-0.1,0.1-0.1,0.2l0,0l-0.1,0.1
	c-0.1,0.1-0.2,0.2-0.2,0.3l-0.1,0.1L61,10.5c-0.1,0.1-0.1,0.2-0.2,0.3l-0.1,0.1l-0.1,0.1c0,0.1-0.1,0.1-0.1,0.1l-0.1,0.1l-0.1,0.1
	l-0.1,0.1c-0.1,0.1-0.2,0.3-0.3,0.5c0,0.1-0.1,0.1-0.1,0.2c-0.1,0.1-0.1,0.1-0.1,0.2c-0.1,0.1-0.2,0.3-0.3,0.5
	c0,0.1-0.1,0.1-0.1,0.2l-0.1,0.1c-0.1,0.1-0.2,0.3-0.3,0.5c0,0.1-0.1,0.1-0.1,0.2c0,0,0,0,0,0.1l-0.1,0.1l-0.2,0.5
	c0,0.1-0.1,0.1-0.1,0.2c0,0,0,0,0,0.1c0,0-0.1,0.1-0.1,0.2c-0.1,0.1-0.1,0.3-0.2,0.5c0,0,0,0.1-0.1,0.1c0,0,0,0.1-0.1,0.1L57.3,16
	c-0.1,0.1-0.1,0.3-0.2,0.5c0,0,0,0.1-0.1,0.1l-0.1,0.1c-0.1,0.1-0.1,0.3-0.2,0.5c0,0.1,0,0.1-0.1,0.2c0,0,0,0.1-0.1,0.1
	c0,0-0.1,0.1-0.1,0.2c0,0.1-0.1,0.2-0.1,0.3L56,18.2v0.1c0,0.1-0.1,0.2-0.1,0.3c0,0,0,0.1-0.1,0.1c-0.1,0.2-0.1,0.3-0.2,0.6v0.1l0,0
	c0-0.1,0-0.2,0-0.3c-0.2-3-1.2-4.6-1.6-5.8l-0.1-0.2c-0.6-1.2-1-2-2.4-3.8c-0.3-0.5-0.7-0.9-0.9-1.4c-0.9-1.3-1.6-2.2-2.1-2.7
	c-0.9-0.9-4.7-3-5.4-3.5c-2.3-1.3-6-1.7-7.6-1.8c-0.1,0-0.2,0-0.5,0c-2.2,0-6.5,0.7-8.3,1.2c-0.9,0.2-1.4,0.3-1.7,0.5
	c-0.3,0.1-0.5,0.1-0.7,0.2c-0.1,0-0.1,0-0.2,0c-0.2,0-0.6,0.1-0.8,0.2c0,0-2.1,1.2-3.1,1.6c-0.9,0.5-1.6,1-2.4,1.8
	c-0.7,0.6-1.7,1.3-2.2,1.8c-0.2,0.1-0.3,0.2-0.6,0.5c-0.1,0.1-0.2,0.3-0.3,0.5c0,0.1-0.1,0.1-0.1,0.2c-0.1,0.1-0.1,0.1-0.1,0.2
	c-0.1,0.1-0.2,0.3-0.3,0.5l-0.1,0.1l-0.1,0.1c-0.1,0.1-0.2,0.3-0.2,0.5c0,0.1-0.1,0.1-0.1,0.2c-0.1,0.3-0.2,0.5-0.2,0.5
	c-0.1,0.1-0.1,0.3-0.2,0.5c0,0.1-0.1,0.2-0.1,0.2c0,0.1-0.1,0.1-0.1,0.2c-0.1,0.1-0.1,0.3-0.2,0.5c0,0.1-0.1,0.1-0.1,0.2
	s-0.1,0.1-0.1,0.2c-0.1,0.3-0.1,0.5-0.2,0.7v0.1c0,0,0,0.1-0.1,0.2l-0.1,0.5c0,0.1,0,0.1-0.1,0.2c0,0.1-0.1,0.1-0.1,0.2l-0.1,0.5
	c0,0.1,0,0.1,0,0.2c0,0.1,0,0.1-0.1,0.2l-0.1,0.5c0,0.1,0,0.1,0,0.2c0,0.1-0.1,0.1-0.1,0.2l0,0c-0.7,1.8-1.5,4-1.8,6.2
	c-0.2,1.4-0.1,2.4,0.2,3.3c0,0.1,0,0.1,0,0.2c0,0.2,0.1,0.5,0.1,0.7c0,0.1,0.1,0.3,0.1,0.5s0,0.3,0.1,0.5c0.1,0.2,0.1,0.3,0.2,0.6
	c0,0.1,0.1,0.2,0.1,0.2c0,0.1,0.1,0.2,0.1,0.2c0.1,0.1,0.2,0.3,0.3,0.5s0.1,0.2,0.2,0.2c0,0.1,0.1,0.2,0.1,0.2
	c0.1,0.1,0.2,0.3,0.3,0.5c0,0.1,0.1,0.1,0.1,0.2c0,0.1,0.1,0.1,0.1,0.2c0.1,0.1,0.2,0.2,0.3,0.5l0.1,0.1c0,0.1,0.1,0.1,0.1,0.2
	l0.3,0.5c0,0.1,0.1,0.1,0.1,0.1c0,0.1,0.1,0.1,0.1,0.2l0.3,0.3l0.1,0.1l0.1,0.1l0.3,0.3c0,0.1,0.1,0.1,0.2,0.2
	c0,0.1,0.1,0.1,0.1,0.2l0.2,0.3l0.1,0.1l0.1,0.1l0.3,0.3c0,0.1,0.1,0.1,0.1,0.1c0,0.1,0.1,0.1,0.1,0.2l0.3,0.3l0.1,0.1
	c0,0,0,0.1,0.1,0.1l0.3,0.3c0,0.1,0.1,0.1,0.1,0.2c0,0.1,0.1,0.1,0.1,0.2l0.3,0.5c0,0,0,0.1,0.1,0.1c0,0,0,0.1,0.1,0.1
	c0,0,0,0,0,0.1c0,0,0,0,0.1,0.1c1.4,1.8,3.9,4.8,5.8,6.1c3.6,2.5,7.4,2.7,9.7,2.8h0.2c0.6,0,1,0,1.5,0c2.2,0,3.5-0.2,4.4-0.6
	c0.2,0,0.3-0.1,0.5-0.2c0.1-0.1,0.3-0.1,0.5-0.2c0.1-0.1,0.3-0.1,0.5-0.2l0,0c0.1,0,0.2-0.1,0.2-0.1c0.1,0,0.2-0.1,0.2-0.1
	c0.1-0.1,0.2-0.2,0.5-0.3c0,0,0.1,0,0.1-0.1h0.1c0.1,0,0.2-0.1,0.5-0.1c0,0,0.1,0,0.1-0.1h0.1c0.2-0.1,0.3-0.1,0.6-0.2
	c0.1,0,0.2-0.1,0.2-0.1c3.6-0.9,6.2-4.4,7.4-6.2c0.2-0.2,0.3-0.5,0.5-0.7c0.3-0.5,0.7-1,1-1.4c1.4-1.8,2.7-3.9,3.7-6.6
	c0.1-0.3,0.2-0.7,0.3-1l0,0l0,0l0,0c0,0.2,0,0.3,0,0.6l0,0l0,0c0.1,0.9,0.2,1.5,0.6,2.3c0.2,0.5,0.3,0.9,0.3,1.4
	c0,0.1,0,0.1,0.1,0.2l0,0c0,0.1,0,0.2,0.1,0.3c0,0.1,0.1,0.2,0.1,0.3c0.2,0.8,0.9,2,2.5,3.9c0.2,0.2,0.3,0.5,0.5,0.7
	c0.3,0.5,0.7,0.9,1.6,1.8c1.2,1.4,2.5,2,4.4,2.9C66.1,42.3,66.5,42.5,67,42.8z"/>
<path class="st0" d="M11.4,53.4l-0.1,0.2l-0.6-1.3L11.4,53.4z"/>
<path class="st0" d="M94.4,53.3L94.4,53.3l-0.2-0.2L94.4,53.3z"/>
<path class="st1" d="M68,6.5L66,7.4c0,0-1,0.7-1.5,1.3c-0.5,0.6-1.7,2.9-2.7,3.9c-0.9,0.9-1.8,2.4-2.3,3.1c-0.5,0.7-1.3,2.2-1.6,3.1
	c-0.3,0.9-0.8,1.6-0.7,5.4c0.1,3.8,0.1,4.1,0.6,5.4c0.3,0.9,0.5,1.7,0.7,2.5c0.2,0.8,1.4,2.4,2.2,3.3c0.8,1,0.8,1.2,2,2.4
	c1.2,1.3,2.5,1.8,5.2,3.1c2.7,1.3,5.1,2.2,5.8,2.4c0.6,0.2,1.3,0.6,2.3,0.7c1,0.1,2.5,0.2,3.6,0.1c1.5-0.1,3.1-0.1,4.1-0.2
	c1-0.1,2-0.5,2.3-0.7c0.5-0.2,0.6-0.6,0.6-0.6l-2,0.5l-3,0.2h-2.2l-2.4-0.3l-2.8-1l-5.4-2l-3.2-2.2l-3.2-3.5l2.3-2.5l-3.8,0.7
	l-1-1.3l-0.2-1.2l-0.1-0.8l-0.6-1.5l0.3,0.7l0.2-3l0.2-2.7L59,19.4v-0.6l1.8-2.1l2.7-2.7l2.2-2.8l0.9-1.2l3.8-3L68,6.5z"/>
<path class="st1" d="M28.2,4.1C28.8,4,29.4,3.8,30,3.7c0.7-0.1,1.4-0.1,2-0.2c1.3-0.2,2.8,0,4,0.1c0.7,0.1,1.3,0.1,1.8,0.5
	c0.5,0.2,1,0.5,1.6,0.7c1,0.6,2.2,1,3.2,1.7C43,6.7,43.4,6.9,43.8,7c0.3,0.2,0.7,0.5,1,0.7C45.2,8,45.6,8.1,46,8.2
	c0.3,0.1,1,0.3,1.4,0c-0.1-0.2-0.5-0.3-0.6-0.5c-0.2-0.2-0.3-0.5-0.6-0.7c-0.2-0.5,0.3-0.3-0.1-0.7s-3-2-4.6-2.5
	c-0.7-0.2-1.5-0.5-2.2-0.7c-1-0.2-2.1-0.3-2.2-0.3c-0.6,0-0.8-0.1-1-0.1c-0.3,0-0.2-0.3-0.5-0.3c-0.8-0.1-1.5,0.2-2.2,0.2
	c-0.8,0-1.5,0-2.2,0.2c-0.6,0.1-1.4,0.5-2,0.7c-0.1,0.1-1.6,0.8-1.3,1"/>
<path class="st1" d="M22.3,10.9c0-0.1-0.2,0.3-0.5,0.6c-0.2,0.5-0.2,0.5-0.3,0.8c-0.2,0.7-0.3,1.5-0.2,2.2c0.1,0.6,0.3,0.8,0.7,1.3
	c0.5,0.6,1.2,0.7,1.7,0.9c1.2,0.5,2.2,0.9,3.3,1.2c0.7,0.1,1.2,0,1.6-0.5c0.2-0.1,0.3-0.3,0.5-0.6s0-0.7,0.1-1
	c0.1-0.9,0.2-2.1,0.3-3c0-0.2,0-0.6-0.1-0.7c-0.1-0.1-0.3-0.3-0.5-0.5c-0.3-0.5-0.7-0.3-1.3-0.5c-0.5-0.1-0.8-0.3-1.3-0.5
	c-0.5-0.2-0.9-0.3-1.5-0.5s-1.2-0.1-1.6,0C23.1,10.5,22.7,10.8,22.3,10.9"/>
<path class="st1" d="M38.5,9.6c0,0.1,0.1,0.6,0.2,0.7c-0.8,0-0.7,0.9-0.6,1.4c0,0.3,0.1,0.6,0.2,0.9c0,0.3,0.1,0.6,0.1,0.9
	c0.2,1,0.7,2.1,0.9,3.1c0.1,0.6,0.6,0.9,1.2,1.2c0.2,0.1,0.6,0.1,0.9,0.1s0.7,0.1,1,0.1c0.1,0,0.3,0,0.5,0c0.1,0,0.2,0.1,0.3,0.1
	c0.3,0.1,0.7,0,1-0.1c0.6-0.1,0.7-0.6,1.2-1c0.1-0.1,0.3-0.1,0.3-0.2c0.1-0.1,0.1-0.3,0.2-0.5c0.2-0.3,0.2-0.7,0.2-1.2
	c0-0.3,0.1-0.7,0.2-1c0.1-0.2,0.3-0.9,0.1-1.2c0.1-0.1,0.1-0.5,0.1-0.7c0-0.1,0.1-0.2,0.1-0.3s-0.1-0.2-0.1-0.5
	c0-0.6,0.5-0.9,0.5-1.6s-0.6-0.6-0.9-0.9c-0.2-0.2-0.3-0.3-0.7-0.5c-0.2-0.1-0.5-0.2-0.7-0.2c-1.2-0.5-2.7-0.6-3.8-0.2
	c-0.5,0.1-1,0.3-1.5,0.5c-0.2,0.1-0.5,0.3-0.7,0.5C38.9,9.3,38.5,9.3,38.5,9.6"/>
<path class="st1" d="M40.9,23.2c0.2,1.3,1.8,6.6,2,6.9c0.1,0.3,0.3,0,0.6-0.1c0.5-0.1,0.9-0.2,1.4-0.5c0.2-0.1,0.3-0.2,0.6-0.3
	s0.2-0.3,0.5-0.5c0-0.2,0.1-0.5,0.1-0.7c0-0.2,0.1-0.5,0.1-0.7c0-0.2,0-0.6,0-0.8c0-0.2-0.1-0.5-0.1-0.7c0-0.5,0.3-0.9,0.5-1.4
	c0-0.3,0-0.8,0-1.6c0-0.5-0.6-0.6-1-0.6c-0.2,0-0.6,0-0.8,0.1c-0.2,0-0.6,0.1-0.8,0.1c-0.5,0.1-0.9,0.3-1.4,0.5c-0.5,0.1-1,0-1.6,0
	L40.9,23.2z"/>
<path class="st1" d="M32.6,24.3c-0.1,0.2-0.2,0.5-0.3,0.7c-0.2,0.7-0.5,0.9-0.7,1.6c-0.2,0.6-0.6,1.5-0.9,2.1
	c-0.2,0.5-0.2,0.6-0.5,1s-1.4,3-0.1,2.8c0.3,0,0.7-0.2,0.9-0.1c0.1,0,0.2,0.2,0.3,0.2c0.1,0,0.3,0,0.6,0c0.6,0.1,1.3,0.1,1.8,0.2
	c0.7,0.1,1.3-0.2,1.8-0.2c0.1,0,0.3,0.1,0.5,0.1c0.1,0,0.1-0.1,0.1-0.1c0.1,0,0.1,0.1,0.1,0.1c0.3,0,0.7,0,1,0
	c0.6,0.1,1.2,0.3,1.3-0.3c0.1-0.5-0.2-1-0.3-1.6c-0.2-0.6-0.5-0.9-0.7-1.5c-0.2-0.6-0.3-1.2-0.6-1.7s-0.5-1.2-0.7-1.7
	c-0.1-0.6-0.3-1.2-0.7-1.6c-0.3-0.6-0.8-0.9-1.3-1.3c-0.5-0.3-1,0-1.4,0.3C32.9,23.6,32.8,24,32.6,24.3z"/>
<path class="st1" d="M22.6,21.9c-1.6-0.3-0.9,6.2-0.5,7c0.5,0.8,1.3-0.3,1.7-0.7c0.6-0.6,1-1,1.5-1.6c0.7-1,1.4-2,1.7-3
	c0.3-0.9-1.4-1.2-2-1.3c-0.5-0.1-1,0.1-1.6,0c-0.2,0-0.5-0.1-0.7-0.2c-0.2,0-0.5-0.2-0.7-0.2"/>
<path class="st1" d="M78.9,7c-0.2,0.2-0.5,0.6-0.7,0.8c-0.1,0.1-0.2,0.3-0.3,0.5c0,0.1,0,0.2,0,0.3c0,0,0,0,0,0.1c0,0-0.1,0-0.1,0.1
	c-0.1,0.3-0.3,0.7-0.3,1.2c0,0.5,0,0.8,0.2,1.2c0.1,0.3,0.2,0.7,0.5,1c0.2,0.3,0.5,0.6,0.6,0.9c0.1,0.1,0.2,0.3,0.3,0.5
	c0.1,0.1,0.2,0.3,0.2,0.5h0.1c0.1,0.2,0.2,0.3,0.3,0.6c0.1,0.2,0.2,0.5,0.2,0.7c0,0.6-0.1,0.9-0.3,1.4c-0.2,0.3-0.6,0.7-1,0.8
	c-0.2,0.1-0.5,0.1-0.6,0.2c-0.2,0.1-0.5,0.2-0.6,0.3c0,0.1-0.3,0.3-0.5,0.6c-0.1,0.2-0.2,0.5-0.3,0.7c0,0.2-0.1,0.6-0.1,0.8
	c0,0.3,0.1,0.6,0.2,0.8c0.1,0.5,0.2,1,0.2,1.6c0,0.2-0.1,0.5-0.2,0.7c0,0.8,0,1.5-0.1,2.3c0,0.2,0,0.5-0.1,0.7
	c-0.1,0.1-0.1,0.3-0.2,0.5c-0.2,0.3-0.3,0.7-0.5,1.2c0,0.2,0,0.6,0.1,0.7c0.1,0.1,0.2,0.5,0.3,0.5c0.1,0.3,0.5,0.7,0.6,1
	c0.2,0.5,0.2,0.8,0.1,1.3c-0.1,0.5-0.1,1-0.1,1.5s-0.1,1,0,1.5c0,0.2,0.1,0.5,0.1,0.6c0.1,0.2,0,0.5,0.1,0.7c0,0.5,0,0.9,0.1,1.4
	c0.1,0.3,0.5,0.7,0.7,0.9c0.3,0.2,0.5,0.7,0.6,1c0.2,0.9,0.2,2,1,2.5c0.2,0.1,0.5,0.2,0.7,0.3c0.3,0.1,0.6,0,0.8,0.1
	c0.5,0.1,0.9,0,1.4,0.1c0.6,0.1,1-0.2,1.5-0.3c0.5-0.1,0.9-0.5,1.4-0.7c0.5-0.2,0.9-0.7,1.4-1c0.3-0.2,0.8-0.6,1.3-0.7
	c0.1,0,0.1,0,0.3,0c0.1,0,0.2-0.1,0.3-0.2c0.2-0.1,0.3-0.2,0.6-0.3c0.2-0.2,0.6-0.5,0.8-0.6c0.3-0.3,0.6-0.6,0.9-0.9
	c0.2-0.2,0.5-0.5,0.6-0.8c0.1-0.2,0.3-0.6,0.5-0.8c0.2-0.5,0.7-0.8,1-1.2c0.5-0.5,0.9-0.9,1.4-1.3c0.5-0.5,1.2-0.8,1.5-1.3
	c0.3-0.5,0.6-1.2,0.7-1.6c0.1-0.5,0.3-1,0.6-1.5c0.5-1,0.3-2.2,0.5-3.3c0.1-0.6,0.3-1,0.6-1.6c0.1-0.2,0.1-0.5,0.2-0.7
	c0.1-0.2,0-0.5,0.1-0.8c0.1-0.6,0.7-0.6,1.2-0.6c0.2,0,0.3,0,0.6,0.2c0.2,0.1,0.2,0.3,0.2,0.6c0.2,0.9,0.2,2,0.2,3
	c0,0.5-0.1,0.9-0.3,1.4c-0.1,0.5-0.2,0.9-0.3,1.4c-0.1,0.9-0.5,1.6-0.8,2.4c-0.1,0.2-0.2,0.3-0.3,0.6c-0.1,0.2-0.1,0.5-0.3,0.6
	c-0.3,0.3-0.3,0.7-0.6,1c-0.2,0.3-0.3,0.7-0.6,1c-0.2,0.3-0.6,0.7-0.8,1c-0.1,0.1-0.2,0.3-0.2,0.5c-0.1,0.3-0.5,0.6-0.6,0.8h-0.1
	c0,0.1-0.2,0.3-0.3,0.5c-0.1,0.1-0.2,0.2-0.3,0.3c-0.2,0.2-0.3,0.6-0.6,0.8c-0.2,0.2-0.5,0.5-0.7,0.7c-0.2,0.2-0.6,0.5-0.9,0.7
	c-0.6,0.5-1.3,0.8-1.8,1.3c-0.5,0.3-1.2,0.6-1.6,0.9c-0.5,0.3-1,0.5-1.6,0.8c-0.5,0.2-0.9,0.3-1.4,0.6c-0.8,0.3-1.8,0.3-2.7,0.6
	c-0.2,0-0.5,0.1-0.7,0.1c-0.2,0-0.5,0.1-0.7,0.1c-0.5,0-0.9,0.2-1.4,0.1c-0.2,0-0.5-0.1-0.7-0.1s-0.5,0-0.7,0s-0.3-0.1-0.6-0.1
	c-0.1,0-0.1-0.1-0.3-0.1c-0.1,0-0.2,0-0.5,0.1c-0.9,0-2-0.2-2.8-0.6c-0.5-0.2-0.8-0.3-1.3-0.5c-0.2-0.1-0.5-0.2-0.7-0.3
	s-0.6-0.2-0.8-0.3c-0.2-0.1-0.5-0.2-0.7-0.3c-0.2-0.1-0.5-0.3-0.7-0.5c-0.2-0.1-0.5-0.2-0.7-0.2c-0.2-0.1-0.5-0.3-0.6-0.5
	c-0.3-0.2-0.7-0.5-1-0.6c-0.2-0.1-0.3,0-0.5-0.1s0-0.1-0.1-0.2C68,39,68,38.5,68,37.9c0-0.6-0.2-1.4-0.2-2c0-0.2-0.1-0.5-0.2-0.7
	s0-0.6,0-0.8c-0.1-0.7-0.2-1.4-0.3-2c-0.1-0.5-0.2-0.9-0.3-1.4c-0.1-0.6-0.1-1.2-0.3-1.6c-0.3-1-0.9-2.1-1.4-3.1
	c-0.3-0.8-0.8-1.7-1.2-2.5c-0.3-0.7-0.7-1.4-0.8-2.2c-0.1-0.7-0.5-1.4-0.5-2.1c0-0.3-0.1-0.6-0.1-0.9c0-0.3,0.1-0.7,0.2-1
	c0.3-0.7,0.6-1.3,1-1.7c0.2-0.2,0.5-0.6,0.8-0.8c0.3-0.3,0.7-0.6,1-0.9c0.6-0.6,0.9-1.2,1.5-1.7c0.5-0.5,0.8-0.9,1.4-1.4
	c0.5-0.3,0.9-0.8,1.4-1.2c0.7-0.3,1.4-0.7,2.1-1.2c0.5-0.2,0.9-0.5,1.3-0.7c0.3-0.2,0.8-0.3,1-0.6c0.3-0.3,0.5-0.7,0.8-1
	c0.3-0.5,1-0.7,1.5-0.9c0.7-0.2,1.4-0.5,2.1-0.5c0.2,0,0.5,0,0.8,0.1c0.1,0,0.2,0,0.3,0.1s0.1,0.1,0.3,0.2C80.4,5.9,80.4,6,80,6.2
	c-0.2,0.1-0.5,0.1-0.7,0.3c-0.1,0.1-0.1,0.2-0.1,0.2C79.1,6.8,79,6.9,78.9,7z"/>
<path class="st1" d="M26.3,3.5c0,0-3.8,2.3-7.4,5.1c-2.3,1.8-3.3,2.7-3.9,4.7c-0.6,2-2,6.1-2.2,7.7c-0.2,1.6,1.2,2.9,1.5,3.9
	c0.3,1.2,0.5,2.1,0.8,2.2c0.3,0.1,2.4,1.4,2.4,1.4s-1.7,1.6-1.2,2.4c0.3,0.5,2.8,4,3.5,5.1s2.7,3.6,4,4.5c1.4,1,4.1,0.9,6.5,1.3
	c2.4,0.3,14.4-4.4,15.6-4.7c1.2-0.3,6.3-14.6,6.8-15.6c1.8-3.6,1,5.8,1,5.8l-2.1,4.4L49,35.3c0,0-3,5.8-7.5,6.6
	c-0.7,0.1-1.7,0.7-2.3,1c-0.6,0.5-0.8,0.5-0.9,0.6s-0.6,1-5.9,0.8c-2.2-0.1-5.8-0.1-9.1-2.4c-1.7-1.3-4.4-4.3-5.6-6.1
	s-2.4-4.3-3.9-6.3c-1.4-2.1-3.3-3.5-2.9-6.7c0.6-3.2,2-6.3,2.8-8.8c0.8-1.6,2-3.8,3.1-5.2c0.5-0.6,2.5-2.2,3-2.4
	C23.9,3.6,26.3,3.5,26.3,3.5z"/>
<g>
	<path class="st2" d="M41.3,24.6c0,0.1,0.1,0.2,0.1,0.3c1.8-0.1,3.5-0.9,5-2c0-0.1,0-0.2-0.1-0.3C44.7,23.7,43.1,24.6,41.3,24.6z"/>
	<path class="st2" d="M41.6,25.7c1.7-0.2,3.3-0.9,4.7-1.8v-0.1c0-0.1,0-0.2,0-0.3c-1.5,1-3.1,1.6-4.8,1.8
		C41.5,25.5,41.5,25.6,41.6,25.7z"/>
	<path class="st2" d="M41.6,23.2c1.2,0.1,2.1-0.2,2.9-0.6c0.6-0.2,0.8-0.2,0.9-0.2c-1.3,0.9-2.8,1.6-4.4,1.6c0,0.1,0.1,0.2,0.1,0.5
		c1.7-0.1,3.3-0.9,4.8-2c0,0,0.1,0,0.1,0.1c0.1,0.1,0.1,0.2,0.1,0.3v-0.7l0,0c-1.8,0.1-4.3-0.1-5.6-0.1l0.3,1.2
		C41.1,23.2,41.3,23.2,41.6,23.2z"/>
	<path class="st2" d="M35.5,19c-0.2-2-0.7-4-1-5.8c0,0.2-0.8,4.5-1.2,5.8C33.9,19,34.9,19.1,35.5,19z"/>
	<path class="st2" d="M28.4,33.3c0.1-0.2,3.2-8.1,3.5-8.5l0,0c0.6-2.9,2.4-12.4,2.4-12.4c0-0.2-0.2-1.3-0.3-2.3c-0.2,0-0.3,0-0.5,0
		c-0.3,1.7-2.5,13.8-2.8,14.8c-0.3,1.2-2.9,7.7-3.2,8.6C27.6,33.3,28.1,33.3,28.4,33.3z"/>
	<path class="st2" d="M46.2,24.3c-0.6,0.5-1.2,0.8-1.8,1.2c-0.8,0.3-1.7,0.6-2.7,0.7c0,0.1,0.1,0.2,0.1,0.5c0.9-0.1,1.8-0.3,2.7-0.8
		c0.6-0.2,1-0.6,1.5-0.8c0,0.1-0.1,0.2-0.1,0.3c-0.5,0.3-1,0.6-1.6,0.8c-0.8,0.3-1.6,0.7-2.4,0.9c0,0.1,0.1,0.2,0.1,0.3
		c0.7-0.2,1.4-0.5,2.1-0.7c0.6-0.2,1.2-0.6,1.7-0.9c0,0,0,0,0,0.1c0,0.1,0,0.2-0.1,0.3c-0.5,0.3-1,0.6-1.6,0.9
		c-0.6,0.3-1.3,0.6-2,0.7c0,0.1,0.1,0.2,0.1,0.3c0.7-0.1,1.3-0.3,2-0.7c0.5-0.2,0.9-0.5,1.4-0.7c0,0.1,0,0.2-0.1,0.2
		c-1,0.7-2.1,1-3.2,1.3c0,0.1,0.1,0.2,0.1,0.3c1-0.2,2.1-0.6,3-1.2c0,0,0,0,0,0.1v0.1c-0.9,0.6-1.8,1-2.9,1.3c0,0.2,0.1,0.3,0.1,0.5
		c0.9-0.2,1.7-0.6,2.5-1c0,0.1-0.1,0.2-0.1,0.3c-0.7,0.5-1.5,0.8-2.3,1c0.1,0.1,0.1,0.2,0.2,0.2c-0.1,0-0.1,0-0.1,0l0.9,3.2l2.9-3
		l-0.2-6.1C46.4,24.1,46.4,24.2,46.2,24.3z"/>
	<path class="st2" d="M54,19.5c-0.2-2.9-1.2-4.4-1.6-5.4s-0.9-1.7-2.2-3.6c-1.3-1.7-2.3-3.2-2.9-3.8c-0.6-0.6-3.1-2.1-5.1-3.1
		c-1.8-1-5.2-1.5-6.9-1.6S29,2.5,27.1,3.1c-1.8,0.5-2.2,0.6-2.3,0.6c0.1,0.1,0.7,0.2,0.7,0.3c0,0.1-0.3,0.1-0.7,0.2
		c-0.7,0.1-2.3,1.2-3.8,2c-1.5,0.8-3,2.2-3.9,3.7c-0.9,1.5-1.6,3.7-1.8,4.7c-0.2,1-1.2,3.8-1.7,5.2c-0.6,1.4-0.6,3.3-0.6,3.7
		c0,0.3,0.5,0.6,0.6,0.9c0.2,0.3,0.1,1.2,0.1,1.3c-0.1,0.1-0.3-0.6-0.6-1c-0.2-0.5-0.3-1-0.2-2.4c0.1-1.3,0.6-2.9,0.7-3.5
		c0.2-0.6,1-3,1.5-5c0.6-2,2.1-4.6,2.7-5.4c0.8-0.8,2.5-2,3.5-2.4C22,5.4,24,4.3,24,4.3V3.8c0,0-2.1,1.2-3.2,1.7
		c-1,0.5-1.7,1.3-3,2.5C17.3,8.5,17,9,16.6,9.3l-0.3-0.2c-0.1,0.1-0.2,0.2-0.3,0.3l0.3,0.2C16.2,9.8,16.2,9.9,16,10l-0.3-0.2
		c-0.1,0.2-0.1,0.3-0.2,0.6l0.5,0.2c0,0.1-0.1,0.2-0.1,0.3l-0.6-0.3c-0.1,0.1-0.1,0.2-0.2,0.5l0.5,0.3c0,0,0,0.1-0.1,0.1
		c0,0.1-0.1,0.2-0.1,0.3l0,0l-0.6-0.3c-0.1,0.1-0.1,0.3-0.2,0.5l0.6,0.3c0,0.1-0.1,0.2-0.1,0.3l-0.7-0.2c-0.1,0.1-0.1,0.3-0.2,0.5
		l0.7,0.2c0,0.1-0.1,0.3-0.1,0.5l-0.8-0.2c-0.1,0.1-0.1,0.3-0.2,0.5l0.8,0.2c0,0.1-0.1,0.2-0.1,0.3l-0.6-0.3c0,0.1-0.1,0.3-0.1,0.5
		l0.8,0.2c0,0.1-0.1,0.3-0.1,0.5L13.4,15c0,0.1-0.1,0.3-0.1,0.5l0.8,0.2l0,0c0,0.1,0,0.2-0.1,0.3l-0.8-0.2c0,0.1-0.1,0.3-0.1,0.5
		l0.8,0.2c0,0.1-0.1,0.3-0.1,0.5l-0.9-0.2c0,0.1-0.1,0.3-0.1,0.5l0.8,0.2c0-0.1,0.1-0.2,0.1-0.2c-0.3,1.2-0.7,2.7-0.8,3.5
		c-0.1,0.5-0.2,1.2-0.3,1.8c0-0.1,0-0.1,0-0.2L11.5,22c0,0.1-0.1,0.3-0.1,0.5l0.9,0.2c0,0.1,0,0.2,0,0.3l-1-0.1c0,0,0,0,0,0.1
		s0,0.2-0.1,0.5l1,0.1c0,0.1,0,0.3,0,0.5l-1-0.1c0,0.1,0,0.3,0,0.5l1,0.1c0,0.1,0,0.2,0,0.3l-1,0.1c0,0.2,0,0.3,0,0.5l1-0.1v0.1
		c0,0.1,0,0.2,0.1,0.3l-1.2,0.1c0,0.1,0,0.3,0.1,0.5l1.2-0.1c0,0.1,0.1,0.2,0.1,0.3l-1.2,0.5c0,0.1,0.1,0.3,0.2,0.5l1.2-0.5
		c0.1,0.1,0.2,0.2,0.2,0.3l-1.3,0.5c0.1,0.1,0.1,0.3,0.2,0.5l1.3-0.6c0.1,0.1,0.1,0.1,0.2,0.2l-1.3,0.8c0.1,0.1,0.2,0.2,0.2,0.5
		l1.6-1c0.3,0,0.6,0,0.6,0c0.1,0,0.2,0.1,0.5,0.5c0.2,0.3,0.1,0.7,1,1.8s1.3,1.3,1.7,1.8c0.5,0.6,0.7,1.4,1.4,2.4
		c0.7,1.2,2.1,2.4,3,3.3s2.5,2.4,3.6,3c1,0.6,2.9,0.8,4.3,1.4c1.4,0.6,4.1,0.2,5.5,0.1c1.4-0.1,2.5-0.8,3.3-1.2
		c0.7-0.3,2.3-0.9,3.3-1.3c1-0.3,1.8-0.9,2.9-1.6c1-0.7,2-1.8,2.7-2.7s1.4-2,1.8-2.8c0.5-0.7,1.2-1.6,1.6-2.7c0.6-1,0.7-1.4,0.9-2.1
		c0.2-0.6,0.5-1.5,0.5-2.5c0.1-1,0.5-1.4,0.5-2.4c0.1-1-0.5-1.5-0.5-2.4c0-0.9,0-1.8,0-2.7c-0.1-0.8-0.2-1.6-0.6-2
		c-0.3-0.5-0.3-0.8-0.7-1.6c-0.3-0.8-0.6-0.9-1-1.5c-0.3-0.6-0.5-0.9-1-2.1c-0.6-1.2-1-1.8-1.5-2.3c-0.5-0.5-0.8-0.6-1.3-0.9
		c-0.5-0.3-1-0.9-1.7-1.5c-0.6-0.6-1.3-0.9-2.1-0.9c-0.8,0-2-0.5-2.9-0.8c-0.8-0.3-2-1.3-2.7-1.5c-0.6-0.2-1.3-0.5-1.6-0.6
		c0,0-0.1,0-0.2,0c1.5,0.1,3,0.3,4,0.6c2,0.3,5,2.1,5.6,2.5c0.7,0.5,3,2.4,3.6,3.1c0.6,0.8,1.5,2.3,1.8,3c0.3,0.7,1.2,1.3,2,3.2
		c0.9,2,0.8,3.2,0.8,3.9c0.1,0.7,0.3,3.2,0.2,4.7c-0.1,1.5-0.3,2.4-0.7,3.8c-0.3,1.3-0.6,2-1.2,3c-0.6,1-0.6,1-1.3,2.2
		c-0.7,1.2-2,3-2.3,3.3s-0.7,0.7-1.3,1.3c-0.6,0.7-1,1.4-1.8,2c-0.7,0.5-1.4,0.3-2.7,1c-1.4,0.7-1.4,1.3-3.9,2.1
		c-2.5,0.8-5.4,0.6-6.6,0.6c-1.2-0.1-1.5-0.3-2.8-0.6s-2.9-0.8-3.7-1.4c-0.8-0.5-1-1-1.6-1.5c-0.6-0.5-1.5-1-1.8-1.5
		c-0.3-0.3-0.7-0.8-1.6-2.1c-1-1.4-2.5-3.3-3.1-4.4s-1.8-2-2-1.8c-0.1,0,0,0.2,0.2,0.3l-1.3,0.9c0.1,0.1,0.2,0.2,0.3,0.3l1.4-0.9
		l0.1,0.1l0.1,0.1l-1.3,0.9c0.1,0.1,0.2,0.2,0.3,0.3l1.3-0.9c0.1,0.1,0.2,0.2,0.2,0.3l-1.3,0.9c0.1,0.1,0.2,0.2,0.3,0.3l1.3-0.9
		c0.1,0.1,0.1,0.2,0.2,0.2L16,33c0.1,0.1,0.2,0.2,0.3,0.3l1.3-0.9c0.1,0.1,0.2,0.2,0.2,0.3l-1.3,0.9c0.1,0.1,0.2,0.2,0.3,0.3
		l1.3-0.9c0,0.1,0.1,0.1,0.2,0.2l-1.2,0.9c0.1,0.1,0.2,0.2,0.3,0.3l1.2-0.9c0.1,0.1,0.2,0.2,0.2,0.3l-1.2,0.9
		c0.1,0.1,0.1,0.2,0.2,0.3c0,0,0,0.1,0.1,0.1l1.2-0.9c0.1,0.1,0.1,0.2,0.2,0.2l-1.3,0.9c0.1,0.1,0.2,0.2,0.3,0.3L20,35
		c0.1,0.1,0.2,0.2,0.2,0.3l-1.3,0.9c0.1,0.1,0.2,0.2,0.3,0.3l1.3-0.8l0,0c0.2,0.3,0.6,0.7,0.8,1l-1.2,0.9c0.1,0.1,0.2,0.2,0.3,0.3
		l1.2-0.8c0.1,0.1,0.1,0.1,0.2,0.2l-1,0.9c0.1,0.1,0.2,0.2,0.3,0.3l1-0.8c0.1,0.1,0.2,0.2,0.3,0.3l-1,0.8c0.1,0.1,0.2,0.2,0.3,0.3
		l1-0.8l0.1,0.1l-0.8,1c0.1,0.1,0.2,0.2,0.3,0.3l0.8-1c0.1,0.1,0.2,0.2,0.3,0.3l-0.8,1c0.1,0.1,0.2,0.2,0.3,0.3l0.8-1
		c0.1,0,0.1,0.1,0.2,0.1l-0.6,1.2c0.1,0.1,0.2,0.1,0.2,0.2l0.1,0.1l0.6-1.2c0.1,0.1,0.2,0.2,0.3,0.2l-0.6,1.2
		c0.1,0.1,0.2,0.1,0.5,0.2l0.6-1.2c0.1,0,0.2,0.1,0.2,0.1l-0.6,1.2c0.1,0.1,0.3,0.1,0.5,0.2l0.6-1.2c0.1,0.1,0.2,0.1,0.5,0.2
		l-0.6,1.2c0.1,0.1,0.3,0.1,0.5,0.2l0.6-1.2c0.1,0,0.2,0.1,0.2,0.1L27,42.9c0.1,0,0.3,0.1,0.5,0.1l0.3-1.2c0.7,0.2,1.5,0.5,2.2,0.6
		L29.4,44c0.1,0,0.3,0,0.5,0.1l0.1-1c0.1,0,0.2,0,0.3,0v1c0.1,0,0.3,0,0.5,0v-1c0.1,0,0.3,0,0.5,0v1c0.2,0,0.3,0,0.5,0v-0.9
		c0.1,0,0.2,0,0.3,0v0.9c0.1,0,0.3,0,0.5,0v-0.9c0.1,0,0.3,0,0.5,0v0.9c0.1,0,0.3,0,0.5,0v-0.9c0.1,0,0.2,0,0.3,0V44
		c0.2,0,0.3,0,0.5,0v-0.8c0.1,0,0.3,0,0.5,0V44c0.2,0,0.3,0,0.5,0v-0.8c0.1,0,0.2,0,0.3,0V44c0.2,0,0.3,0,0.5,0v-0.8
		c0.1,0,0.3,0,0.5,0v0.7c0.2,0,0.3,0,0.5-0.1v-0.7c0.1,0,0.2,0,0.3,0v0.6c0.2,0,0.3-0.1,0.5-0.1V43c0.1,0,0.1,0,0.2,0
		c0.1,0,0.2,0,0.2-0.1v0.3c0.1,0,0.1-0.1,0.1-0.1c0.1-0.1,0.2-0.1,0.3-0.1v-0.2c0.1,0,0.2-0.1,0.3-0.1v0.2c0.1,0,0.2-0.1,0.3-0.2
		c0,0,0.1-0.1,0.2-0.1v-0.2c0.1-0.1,0.3-0.2,0.5-0.3v0.2c0.1-0.1,0.3-0.1,0.5-0.2v-0.3c0.1,0,0.2-0.1,0.3-0.1V42
		c0.1-0.1,0.3-0.1,0.5-0.2v-0.5c0.1-0.1,0.3-0.1,0.5-0.2v0.3c0.1-0.1,0.3-0.2,0.5-0.2v-0.2c0.1,0,0.2-0.1,0.3-0.1V41
		c0.2-0.1,0.5-0.1,0.5-0.1v-0.2c0.6-0.2,1.3-0.6,2-1c0.5-0.3,1-0.9,1.6-1.5c1.2-1.3,2.3-3,3.3-4.3c1.5-1.8,2.5-4,3.5-6.2
		C54.3,26.2,54.3,22.5,54,19.5z M33,2.7c0.8-0.1,1.5-0.1,2.3-0.1c-0.3,0-0.7,0-0.7,0s0.1,0.5-0.2,1c-0.2,0.7-0.5,1-1.4,1.5
		c-0.9,0.5-1.7,0.2-2.9-0.2c-0.7-0.2-1.4-0.8-1.6-1.3C28.5,3.6,30.6,2.9,33,2.7z M24.7,10.8c0.7,0,1.5,0.2,2.1,0.5
		c-0.3,0-0.7,0-1-0.1c-0.7-0.1-1.5-0.2-2.2-0.5C23.9,10.8,24.3,10.8,24.7,10.8z M25.4,11.6c0.9,0.1,1.8,0.1,2.8,0.1
		c0.3,0.1,0.7,0.2,0.9,0.3c-1,0-2.1,0-3.2-0.1c-0.2,0-0.6-0.1-0.8-0.1c-0.9-0.1-2-0.3-2.8-0.8l0,0c0,0,0.2-0.1,0.5-0.1
		C23.5,11.3,24.5,11.5,25.4,11.6z M46.2,12.1c0.1,0.8,0.1,1.6-0.1,2.4c-0.2,1-0.8,2.1-1.5,2.9c-0.2,0-0.5,0.1-0.7,0.1
		c0.5-0.5,0.9-1,1.2-1.7C45.8,14.6,46.1,13.6,46.2,12.1L46.2,12.1z M45.8,12.8L45.8,12.8c-0.1,1-0.5,2-0.9,2.9
		c-0.3,0.7-0.9,1.3-1.4,1.8c-0.3,0-0.6,0-0.9,0c0.6-0.5,1.2-1,1.7-1.7C44.9,15,45.4,13.9,45.8,12.8z M45.3,13
		c-0.3,0.9-0.8,1.8-1.4,2.5s-1.3,1.4-2,1.8c-0.3,0-0.7-0.1-1-0.1c1-0.5,2-1.2,2.8-2c0.6-0.6,1-1.4,1.5-2.3C45.2,13,45.2,13,45.3,13z
		 M44.7,13.1c-0.3,0.7-0.8,1.4-1.3,1.8c-0.9,0.9-2.1,1.7-3.2,2.2c-0.1,0-0.2-0.1-0.2-0.1s0,0-0.1-0.1c1-0.3,2.1-0.9,3-1.7
		C43.6,14.6,44.2,13.9,44.7,13.1C44.6,13.1,44.7,13.1,44.7,13.1z M44.2,13.1c-0.5,0.8-1.2,1.5-1.8,2c-0.8,0.6-1.7,1.2-2.8,1.5
		c-0.1-0.1-0.2-0.3-0.3-0.6c1.3-0.3,2.5-0.9,3.7-1.8c0.3-0.3,0.7-0.7,1-1.2C44.1,13.1,44.2,13.1,44.2,13.1z M40.6,8.9
		c0.5-0.1,0.5-0.1,0.5-0.1s0,0.1,0,0.2V8.9C40.7,9,40.2,9,39.9,9C40.2,9,40.5,8.9,40.6,8.9z M37.5,8.5c0.1,0,0.8-0.2,1.4-0.2
		c0,0.2,0,0.5,0,0.9c-0.6,0.1-1.3,0.2-2,0.3c0.3,3.3,0.7,6.6,1.5,9.6c0.1,0,0.3,0,0.8,0l-1.7-8.8c0,0,0.7-0.5,0.9-0.6c0,0,0,0,0.1,0
		l0,0l0,0c0.1-0.1,0.3-0.2,0.6-0.3c0.1,0,0.2,0,0.3,0c0.6,0,1.2-0.1,1.7-0.1v0.1c-0.7,0.2-1.3,0.3-2,0.5c-0.2,0-0.5,0-0.7,0.1
		l0.1,0.2c0.3,0,0.6,0,0.9-0.1c0.6-0.1,1.2-0.2,1.7-0.3c0,0,0,0.1,0,0.2c-0.6,0.2-1.3,0.3-1.8,0.5c-0.5,0-0.9,0.1-1.4,0.1
		c0,0.1,0,0.2,0,0.3c1.2-0.1,2.3-0.2,3.3-0.6c0,0.1,0,0.1,0.1,0.2c-1,0.3-2.2,0.6-3.3,0.6c0,0.1,0,0.2,0.1,0.5
		c1.2-0.1,2.3-0.3,3.3-0.7c0,0.1,0.1,0.2,0.1,0.3c-1,0.5-2.3,0.6-3.5,0.7c0,0.1,0,0.3,0.1,0.5c1.2-0.1,2.4-0.3,3.5-0.8
		c0,0,0,0.1,0.1,0.1c-1,0.6-2.3,0.8-3.5,1c0,0.1,0,0.2,0.1,0.5c1.3-0.2,2.5-0.6,3.6-1.2l0.1,0.1c-1,0.7-2.4,1-3.7,1.3
		c0,0.1,0.1,0.2,0.1,0.3c1.4-0.2,2.7-0.6,3.8-1.4c0,0.1,0.1,0.1,0.1,0.1c-1,0.8-2.4,1.4-3.8,1.6c0,0.1,0.1,0.2,0.1,0.3
		c1.5-0.2,3-0.8,4.1-1.7c0.1,0,0.1,0,0.2,0.1c-0.2,0.2-0.6,0.5-0.8,0.7c-1,0.7-2.2,1-3.3,1.3c0,0.1,0.1,0.2,0.1,0.3
		c1.3-0.2,2.4-0.7,3.5-1.4c0.3-0.2,0.7-0.5,1-0.8h0.1c-0.3,0.3-0.6,0.7-0.9,1c-1,0.8-2.2,1.4-3.5,1.6c-0.1-0.2-0.1-0.3-0.2-0.6
		l0.9,4c1.5,0,4,0,5.3,0.3c0.2,0,0.7,0,1.3,0l0.8-7.6c-0.3,1.4-1,4.7-1.7,5.1c-0.1,0-0.2,0.1-0.2,0.1c0.6-0.8,0.9-1.7,1.2-2.7
		c0.2-1.3,0.3-2.4,0-3.6l0,0c0-0.1,0-0.1-0.1-0.2c0.1-0.3,0-0.3,0-0.3V9.8l1.3,1l-0.6,8.6c0.5,0,0.8,0.1,0.9,0.1c0,1,0,1.8-0.1,2.8
		c-0.3,0-0.6-0.1-0.8-0.2c0,0,0,0-0.1,0c0.1,1.2,0.3,4.1,0.3,4.7c0,0.8,0,2.9,0,2.9l-0.5,0.5l0,0L43,34.5l-0.1-0.6l0.5-0.5L40.1,22
		c-0.1,0-0.2,0-0.2,0c0,0.7,0.2,1.7,0.3,2.3c0.2,1.7,0.3,3.1,0.8,4.7c0.5,1.7,0.8,3.9,1.3,5.9c0.5,0.1,1,0,1.5,0
		c0.1,0.7,0.3,1.2,0.3,1.6c-1.6,0-4.1,0.1-6,0c-0.1-0.5-0.1-1.2-0.1-1.5c0.5-0.1,1,0,1.6,0c-0.8-3.7-1.7-7.7-2.5-11.5
		c-0.2-0.9-0.2-1.3-0.3-1.7c-1.2,0.1-2.5-0.1-3.7,0c-0.1,0.7-0.6,2.4-0.7,3l0,0c0,0.1-0.3,1-0.8,2.2c0.3-0.7,0.6-1.3,0.9-1.7
		c0,0.1-0.1,0.2-0.2,0.3c0.5-0.2,0.8-0.5,1.3-0.6c0.5-0.1,1.5-0.5,2.1-0.3c0,0.1,0.1,0.2,0.1,0.3c-1.3,0-2.5,0.2-3.7,0.8
		c-0.1,0.2-0.2,0.3-0.3,0.6c1.3-0.7,2.7-0.9,4.1-0.9c0,0.1,0.1,0.2,0.1,0.3c-1.5,0-3,0.1-4.4,0.7c-0.1,0.2-0.2,0.3-0.2,0.6
		c1.5-0.7,3.1-0.8,4.7-0.8c0,0.1,0.1,0.2,0.1,0.2c-1.7-0.1-3.5,0.1-5,0.8c-0.1,0.2-0.1,0.3-0.2,0.6c1.6-0.8,3.6-1,5.4-0.8
		c0,0.1,0.1,0.2,0.1,0.2c-2-0.1-3.8,0.2-5.6,0.8c-0.1,0.1-0.1,0.2-0.2,0.5c1.8-0.7,3.9-1,6-0.9c0,0.1,0.1,0.1,0.1,0.2
		c-2.1-0.1-4.1,0.1-6.1,0.8c-0.1,0.2-0.1,0.3-0.2,0.6c2.1-0.8,4.4-1.2,6.6-0.9c0.1,0.1,0.1,0.3,0.2,0.5c-1.3-0.1-2.5-0.1-3.8,0
		c-1,0.1-2.1,0.3-3,0.8c-0.1,0.1-0.1,0.3-0.2,0.5c1-0.5,2.3-0.7,3.5-0.9c1.3-0.1,2.5-0.1,3.8,0c0,0.1,0.1,0.2,0.1,0.3
		c-1.3-0.1-2.5-0.1-3.8,0.1c-1.2,0.1-2.5,0.5-3.7,0.8C30,30.7,30,30.8,30,30.9c1.3-0.6,2.9-0.8,4.3-1c1.3-0.1,2.4-0.1,3.6,0
		c0,0.1,0.1,0.2,0.1,0.3c-1.3-0.1-2.5,0-3.9,0.1c-1.4,0.2-2.9,0.5-4.1,1c0,0.1,0,0.2,0,0.2c0-0.1,0-0.3,0-0.6
		c-0.5,1.2-0.8,2-0.8,2.1c2,0.1,4.6,0,6.8,0c0.8,0,1.7,0,2.4,0c0.1,0.1,0,0.5-0.1,0.6c-3.2,0-7.3,0-10.8,0c-0.2,0.6-0.5,1-0.6,1.6
		c0.2,0,0.5,0,0.7,0.1c0,0.3,0,0.8,0,1.3c-1.6-0.2-3.8,0.1-5.4-0.1c-0.1-0.5-0.2-0.8-0.2-1.3c0.5-0.1,1,0,1.5,0
		c1.7-4.1,3.3-8.4,5.1-12.7c0-0.3,0.1-0.5,0.1-0.7c-2.9,0-6-0.1-8.6-0.3h-0.1c-0.2,0.8-0.5,2.3-0.3,3c0,0.8,0.6,2.4,1,3.7
		c0.1,0.3,0.2,0.6,0.3,0.9c0.5,1.4,1.7,3.9,1.7,4l-0.3,0.3c0-0.1-1.4-2.8-1.8-4.1c-0.1-0.2-0.2-0.6-0.3-0.9c-0.5-1.4-0.9-2.9-1-3.8
		c0-0.8,0.2-2.3,0.5-3.1c-1-0.1-1.4-0.1-1.8-0.5c0.2-1,0.5-2.1,0.7-3c0.2,0,0.5,0,0.7,0.1l2.4-6.9l0.3-0.8l0.6,0.1L22,11.2
		c0,0.1-0.1,0.1-0.1,0.2c1,0.5,2.2,0.8,3.3,0.9c1.4,0.2,2.8,0.2,4,0.2c0,0.1,0.1,0.2,0.1,0.3c-1.3,0-2.5,0-3.9-0.2
		c-0.2,0-0.6-0.1-0.8-0.1c-0.9-0.2-1.8-0.5-2.8-0.9c-0.1,0-0.1-0.1-0.2-0.1c0,0.1-0.1,0.2-0.1,0.3c1,0.6,2.2,0.9,3.3,1.2
		c1.5,0.2,2.9,0.3,4.4,0.3c0,0.1,0,0.2,0,0.3c-1.2,0-2.3-0.1-3.5-0.2c-0.3,0-0.6-0.1-0.9-0.1c-1-0.2-2.2-0.6-3.1-1
		c-0.1,0-0.2-0.1-0.3-0.1c0,0.1-0.1,0.2-0.1,0.3c1.2,0.6,2.5,1,3.7,1.3c1.4,0.2,2.8,0.3,4.3,0.5c0,0.1,0,0.2,0,0.3
		c-1.3,0-2.4-0.1-3.7-0.3c-0.2,0-0.6-0.1-0.8-0.2c-0.9-0.2-2-0.6-2.8-1c-0.2-0.1-0.5-0.2-0.6-0.3c0,0.1-0.1,0.2-0.1,0.3
		c1,0.7,2.4,1.2,3.6,1.4c1.5,0.3,2.9,0.5,4.4,0.5c0,0.1,0,0.3,0,0.5c-1.2,0-2.3-0.1-3.5-0.5c-0.3-0.1-0.6-0.1-0.9-0.2
		c-1-0.2-2-0.7-2.9-1.2c-0.2-0.1-0.5-0.2-0.7-0.5c0,0,0,0,0-0.1l0,0l0,0l0,0l-0.1,0.5h-0.3l-1.8,5c0.5,0.1,1.2,0.3,2.5,0.6
		c2.4,0.2,5.1,0.5,7.4,0.3c0.5-2.3,0.9-4.4,1.4-6.9c0-0.2,0-0.6,0-1c-1-0.2-1.8,0-2.9-0.1c-0.3-0.6-0.6-1.3-0.3-1.7
		C30.7,9.5,34,9,37.5,8.5z M35.8,32.5L35.8,32.5c-0.6,0.1-1.4,0-2.1,0c0.5-0.1,0.8-0.2,1.3-0.3c1-0.2,2.3-0.3,3.3-0.3v0.1
		C37.5,32,36.6,32.2,35.8,32.5z M38.2,32.5c-0.2,0.2-0.7,0.1-1.2,0.1C37.4,32.5,37.7,32.5,38.2,32.5z M33.6,31.6
		c1.5-0.3,3.1-0.5,4.6-0.3v0.1c-1,0-2.2,0.1-3.2,0.3c-0.7,0.1-1.4,0.3-2.1,0.6c-0.1,0-0.3,0.1-0.5,0.1c-0.5,0-1,0-1.6-0.1
		C31.7,32,32.6,31.8,33.6,31.6z M30.1,32.2c-0.2-0.1-0.3-0.2-0.5-0.3c1.2-0.6,2.5-0.8,3.7-1c1.3-0.2,2.5-0.2,3.7-0.2
		c0.2,0,0.5,0,0.8,0c0,0.1,0.1,0.1,0.1,0.2c-1.4-0.1-2.9,0-4.1,0.2C32.5,31.4,31.3,31.7,30.1,32.2z M35.2,24.1c0,0,0.1,0.1,0.1,0.2
		c-0.5,0-1,0.1-1.4,0.2c-0.6,0.1-1,0.2-1.5,0.5c0,0,0,0,0-0.1c0.1-0.1,0.1-0.2,0.2-0.3C33.4,24.2,34.3,23.9,35.2,24.1z M33.2,24
		c0.2-0.2,0.6-0.5,0.9-0.5c0.2,0,0.5,0,0.6,0.1C34.1,23.6,33.7,23.7,33.2,24z M23.4,22.6c0.1-0.1,0.3-0.1,0.6-0.2
		c0.1,0,0.3,0.1,0.6,0.1c-0.8,0.3-1.7,0.7-2.4,1.3c0-0.1,0-0.2,0.1-0.3C22.5,23.1,23,22.8,23.4,22.6z M22.3,22.8
		c0.1-0.5,0.2-0.7,0.2-0.7s0.3,0,0.8,0.1c-0.1,0-0.2,0.1-0.3,0.1C22.7,22.5,22.5,22.6,22.3,22.8z M24.9,22.7c0.1,0,0.2-0.1,0.3-0.1
		c0.2,0,0.5,0.1,0.6,0.1c-0.3,0.1-0.7,0.2-1,0.3c-1,0.3-2.1,0.9-3,1.6c0-0.1,0-0.3,0.1-0.5C22.8,23.5,23.9,23.1,24.9,22.7z
		 M25.1,23.4c0.5-0.1,0.9-0.3,1.5-0.5c0.2,0.1,0.5,0.2,0.5,0.2s0,0,0,0.1c-0.8,0.1-1.7,0.3-2.4,0.7c-0.9,0.5-2,0.9-2.7,1.6
		c0-0.1,0-0.2,0-0.3C22.7,24.4,24,23.9,25.1,23.4z M24.8,24.2c0.6-0.2,1.3-0.5,2.1-0.6c-0.1,0.1-0.1,0.2-0.2,0.5
		c-0.7,0.1-1.4,0.3-2,0.6c-0.9,0.5-2,1-2.7,1.7c0-0.1,0-0.2,0-0.3C22.6,25.2,23.7,24.7,24.8,24.2z M24.8,25c0.5-0.2,1-0.3,1.5-0.5
		c-0.1,0.1-0.1,0.3-0.2,0.5c-0.7,0.1-1.3,0.3-1.8,0.7c-0.8,0.5-1.7,1-2.3,1.7c0-0.1,0-0.2,0-0.3C22.6,26,23.8,25.5,24.8,25z
		 M24.5,25.9c0.3-0.2,0.8-0.3,1.3-0.5c-0.1,0.1-0.3,0.3-0.6,0.6c-0.5,0.1-0.8,0.3-1.3,0.6c-0.7,0.5-1.4,0.9-2,1.5c0-0.1,0-0.2,0-0.2
		C22.6,27,23.5,26.4,24.5,25.9z M24.2,26.9L24.2,26.9c0,0.1-0.2,0.2-0.3,0.3c-0.8,0.7-1.7,1.7-1.7,1.7s0-0.1-0.1-0.3
		C22.6,27.9,23.4,27.3,24.2,26.9z M24.5,16c-0.9-0.3-1.7-0.7-2.5-1.3c-0.1-0.1-0.1-0.2-0.1-0.3c0.9,0.6,2.1,1,3,1.4
		c1.4,0.5,2.9,0.7,4.4,0.7c0,0.1,0,0.1-0.1,0.2C27.5,16.7,26,16.5,24.5,16z M28.8,17.2c-0.1,0.1-0.2,0.2-0.2,0.2s0,0-0.3,0
		c-1.4-0.1-2.7-0.5-3.9-1c-0.5-0.2-0.9-0.5-1.4-0.7c0.5,0.2,0.9,0.3,1.4,0.6C25.7,16.8,27.3,17.1,28.8,17.2z M25.7,15.7
		c-0.3-0.1-0.6-0.1-0.9-0.2c-1-0.3-2-0.7-2.9-1.3c-0.1-0.1-0.3-0.2-0.5-0.3c0-0.1,0-0.1-0.1-0.2c1,0.7,2.4,1.3,3.5,1.5
		c1.4,0.3,2.9,0.6,4.3,0.7c0,0.1,0,0.2,0,0.3C28,16.1,26.9,15.9,25.7,15.7z"/>
	<path class="st2" d="M12.7,20.9c0-0.1,0-0.3,0.1-0.5L12,20.3c0,0.1-0.1,0.3-0.1,0.5L12.7,20.9L12.7,20.9z"/>
	<path class="st2" d="M12.6,21.2L11.8,21c0,0.1-0.1,0.3-0.1,0.5l0.9,0.2C12.6,21.6,12.6,21.3,12.6,21.2z"/>
	<path class="st2" d="M12.9,19.5l-0.8-0.2c0,0.1-0.1,0.3-0.1,0.5l0.8,0.1C12.9,19.8,12.9,19.6,12.9,19.5z"/>
	<path class="st2" d="M13.5,17.8l-0.9-0.2c0,0.1-0.1,0.3-0.1,0.5l0.8,0.2C13.4,18.1,13.4,17.9,13.5,17.8z"/>
	<path class="st2" d="M13.2,18.7l-0.8-0.2c0,0.1-0.1,0.3-0.1,0.5l0.8,0.2C13.2,19,13.2,18.8,13.2,18.7z"/>
	<path class="st2" d="M15,29.4l-1.4,1c0.1,0.1,0.2,0.2,0.3,0.3l1.4-1C15.1,29.6,15.1,29.5,15,29.4z"/>
	<path class="st2" d="M14.7,28.6l-1.6,1c0.1,0.1,0.2,0.2,0.3,0.5l1.5-1C14.8,28.9,14.8,28.8,14.7,28.6z"/>
	<path class="st2" d="M28.4,43.9c0.1,0,0.3,0.1,0.5,0.1l0.1-1c-0.1,0-0.3-0.1-0.5-0.1L28.4,43.9z"/>
	<path class="st2" d="M27.5,43.7c0.1,0,0.3,0.1,0.5,0.1l0.3-1c-0.1,0-0.3-0.1-0.5-0.1L27.5,43.7z"/>
	<path class="st2" d="M20.3,36.7l-1.2,0.9c0.1,0.1,0.2,0.2,0.3,0.3l1.2-0.9C20.4,36.9,20.3,36.8,20.3,36.7z"/>
</g>
<g>
	<path class="st2" d="M73.7,20.2c-0.1,0-0.1,0-0.1,0.1c0,0-0.5,3,0.1,5.2c0.7,2.7,2.1,4.4,2.1,4.4s0,0,0.1,0c0,0,0,0,0.1,0v-0.1
		c0,0-1.4-1.6-2-4.3c-0.6-2.2-0.1-5.1-0.1-5.1C73.8,20.2,73.8,20.2,73.7,20.2z"/>
	<path class="st2" d="M74.3,20.7c-0.1,0-0.1,0-0.1,0.1c0,0-0.3,2.2,0.1,4c0.5,2.1,1.4,3.5,1.4,3.5s0,0,0.1,0c0,0,0,0,0.1,0
		c0,0,0.1-0.1,0-0.1c0,0-0.9-1.4-1.4-3.5c-0.5-1.8-0.1-3.9-0.1-3.9C74.4,20.7,74.3,20.7,74.3,20.7z"/>
	<path class="st2" d="M74.7,20.9c0,0-0.1,0-0.1,0.1c0,0.1-0.3,1.8,0,3.5c0.5,1.7,1.2,2.9,1.2,3c0,0,0,0,0.1,0c0,0,0,0,0.1,0
		c0,0,0.1-0.1,0-0.1c0,0-0.8-1.2-1.2-2.9c-0.3-1.6,0-3.3,0-3.3C74.8,21,74.7,20.9,74.7,20.9z"/>
	<path class="st2" d="M75.2,21.1c0,0-0.1,0-0.1,0.1c0,0-0.2,1.2-0.1,2.3c0.2,1.5,0.7,2.3,0.8,2.3c0,0,0,0,0.1,0l0,0
		c0,0,0.1-0.1,0-0.1c0,0-0.6-0.8-0.7-2.3C75.1,22.2,75.3,21.1,75.2,21.1C75.3,21.2,75.2,21.1,75.2,21.1z"/>
	<path class="st2" d="M72.5,19C72.4,19,72.4,19,72.5,19c-1.2,6.6,0.5,11.4,3.8,13.4c0,0,0.1,0,0.1-0.1v-0.1c-2.1-1.3-3-3.1-3.6-5.3
		C72.3,24.6,72.3,21.6,72.5,19C72.6,19,72.6,19,72.5,19z"/>
	<path class="st2" d="M81.3,36.9C81.3,36.9,81.4,36.9,81.3,36.9c0.1-0.2,0.2-0.6,0.2-0.8l0,0c-0.1,0-0.2,0-0.2,0h-0.1h-0.1
		c0,0,0,0-0.1,0c-0.1,0.1-0.2,0.3-0.3,0.5c-0.5,0.6-0.9,1.3-1.7,1.3c-0.7,0-0.9-0.5-1.2-0.9s-0.5-0.9-1-1l0,0c0,0,0,0-0.1,0
		c-0.1,0.1-0.2,0.2-0.3,0.3v0.1c0.5,0.2,0.6,0.6,0.6,1.2c0,0,0,0,0,0.1c0.5,0.1,1.2,0.6,1.4,0.7c0.1,0,0.1,0.1,0.2,0.2
		c0.1,0.1,0.2,0.2,0.3,0.2c0,0,0,0,0.1,0c0.6,0,0.8-0.2,0.9-0.3c0.1-0.1,0.2-0.1,0.3-0.2c0.1,0,0.2,0,0.3,0c0.1,0,0.1,0,0.2-0.1l0,0
		c0-0.1,0-0.2,0-0.3c0-0.2,0-0.5,0-0.6C80.6,37,80.9,36.9,81.3,36.9z"/>
	<path class="st2" d="M73.3,19.2C73.3,19.2,73.3,19.1,73.3,19.2C73.3,19.1,73.3,19.1,73.3,19.2c-0.1-0.1-0.2,0-0.2,0
		c-0.5,2.2-0.3,5.2,0.2,7.5c0.2,0.9,1,3.1,2.8,4.7l0,0l0,0l0,0v-0.1c-2.3-2.1-3.6-6.3-3-10.7C73.2,20.1,73.2,19.7,73.3,19.2z"/>
	<path class="st2" d="M71.9,19C71.8,19,71.8,18.9,71.9,19c-0.1,0-0.1,0-0.2,0l0,0c-1.4,7.4,1.2,12.3,5,15c0,0,0.1,0,0.1-0.2
		c0,0,0-0.1-0.1-0.1c-3.5-2.7-5.1-6-5.1-10.8C71.6,21.4,71.7,20.3,71.9,19L71.9,19z"/>
	<path class="st2" d="M75.6,21.2c0,0-0.1,0-0.1,0.1c0,0-0.2,0.8-0.1,1.5c0.1,0.9,0.3,1.5,0.3,1.5s0,0.1,0.1,0.1l0,0
		c0,0,0.1-0.1,0-0.1c0,0-0.2-0.6-0.3-1.4c-0.1-0.7,0.1-1.5,0.1-1.5C75.7,21.3,75.6,21.2,75.6,21.2z"/>
	<path class="st2" d="M76.1,21.7c0,0-0.1,0-0.1,0.1c-0.1,0.5,0,0.9,0,0.9s0,0.1,0.1,0.1l0,0c0,0,0.1-0.1,0-0.1c0,0-0.1-0.3,0-0.7
		C76.2,21.8,76.1,21.7,76.1,21.7z"/>
	<path class="st2" d="M77,31.9L77,31.9L77,31.9C77.1,31.9,77.1,31.9,77,31.9c1-0.7,2-1.2,2.9-1.2c0.3,0,0.6,0,0.9,0.1l0,0l0,0
		c0-0.1,0-0.1,0.1-0.2c0-0.1,0.1-0.2,0.1-0.2v-0.1c-0.2,0-0.5-0.1-0.7-0.1c-0.6,0-1.2,0.1-1.6,0.3c-0.6,0.1-1,0.3-1.7,0.3l0,0l0,0
		c0.1,0.2,0.1,0.3,0.1,0.6C77,31.7,77,31.8,77,31.9z"/>
	<path class="st2" d="M71.1,18.9c-0.1,0-0.1,0-0.1,0.1c-0.1,0.2-0.1,0.5-0.2,0.7v0.1c-0.5,2.2-0.5,5.3,0,7.4
		c0.3,1.3,0.8,2.5,1.4,3.5c0.8,1.4,2.1,2.7,3,3.5c0.1,0.1,0.8,0.7,1,0.8c0,0,0,0,0.1,0c0,0,0.1,0,0.1-0.1c0-0.1,0.1-0.1,0-0.2l0,0
		c-2-1.6-3.2-3-4-4.7c-0.5-0.8-0.8-1.7-1.2-3c0-0.1,0-0.2-0.1-0.3c0-0.1-0.1-0.2-0.1-0.3c-0.2-1.8-0.2-3.7,0-5.6
		c0.1-0.7,0.2-1,0.2-1.3c0-0.1,0-0.2,0.1-0.2l0,0C71.3,18.9,71.3,18.9,71.1,18.9z"/>
	<path class="st2" d="M76.3,36.8L76.3,36.8c-1-0.2-1.7-0.7-2.2-1.3c0,0,0,0-0.1,0c-0.1,0-0.2,0-0.3,0s-0.2,0-0.3,0l0,0l0,0
		c0.7,2,2.4,3.1,4.1,3.9l0,0l0,0c0.2-0.2,0.5-0.6,0.6-0.8l0,0v-0.1c-0.5-0.5-1.2-0.7-1.8-0.9c0-0.1,0-0.1,0-0.2
		C76.4,37.1,76.4,37,76.3,36.8z"/>
	<path class="st2" d="M79,26.4c-0.3,0-0.8,0-0.9,0l0,0c-0.3,0-0.7,0-1-0.1c0,0,0,0-0.1,0c-0.1,0.2-0.2,0.6-0.1,0.9l0,0l0,0l0,0
		c0.1-0.1,0.2-0.1,0.3-0.2c0.2-0.1,0.6-0.3,0.8-0.3s0.3,0,0.6,0c0.3,0,0.7,0.1,0.8,0.1s0.1,0,0.1,0c0.1,0,0.1-0.1,0.1-0.1v-0.1v-0.1
		l0,0l0,0C79.7,26.4,79.3,26.4,79,26.4z"/>
	<path class="st2" d="M76.3,25L76.3,25C76.2,25,76.2,25,76.3,25C76.2,25.1,76.2,25.1,76.3,25c0.1,0.3,0.2,0.6,0.5,0.8l0.1,0.1l0,0
		l0,0c0.3,0,0.7,0,1.2,0c1,0,2-0.1,2.9-0.2l0,0c0.5-0.3,1.2-1.4,0.7-2.3c0,0,0,0-0.1,0c-0.1,0-0.1,0.1-0.1,0.1
		c0,0.9-0.5,1.4-0.8,1.8c-0.1,0-0.1,0-0.1,0c-0.2,0-0.3-0.2-0.5-0.3c0-0.1-0.1-0.1-0.1-0.2l0,0c-1.6-0.1-2.7-0.3-2.8-1.6l0,0
		c-0.1,0-0.2-0.1-0.2-0.1h-0.1l0,0l0,0c-0.1,0.6,0,1,0,1.5c0,0.1,0,0.2,0.1,0.5C76.4,25,76.4,25,76.3,25z"/>
	<path class="st2" d="M76.8,21.9L76.8,21.9L76.8,21.9c0.5-0.3,1-0.6,1.7-0.6c0.2,0,0.5,0,0.7,0.1l0,0l0,0V21c0,0,0,0,0-0.1
		c-0.3-0.1-0.9-0.1-1.4-0.1c-0.7,0-1.2,0.2-1.3,0.6c0,0.1,0,0.1,0.1,0.5C76.7,21.8,76.7,21.8,76.8,21.9L76.8,21.9z"/>
	<path class="st2" d="M76.6,22.7c0.1,0.1,0.3,0.2,0.5,0.2l0,0c0.1,0,0.2-0.1,0.3-0.2c0.1-0.1,0.3-0.2,0.6-0.3
		c0.3-0.1,0.6-0.1,0.9-0.1c0.1,0,0.2,0,0.2,0l0,0l0,0v-0.1c0,0,0-0.1,0-0.2l0,0l0,0c-0.1,0-0.1,0-0.2,0
		C77.5,21.8,76.8,22.1,76.6,22.7L76.6,22.7z"/>
	<path class="st2" d="M80.5,20.9C80.4,20.9,80.4,20.9,80.5,20.9c0,0.7,0.1,1.3,0.3,1.6l0,0l0,0l0,0c0-0.2,0-0.5-0.1-0.6
		c0-0.1-0.1-0.2-0.1-0.5c0.3-0.1,0.7-0.6,0.8-1.2c0.1-0.5,0.1-0.8-0.1-1.2c0,0,0,0-0.1,0c0,0,0,0,0,0.1
		C81.4,19.9,81.1,20.6,80.5,20.9z"/>
	<path class="st2" d="M90.7,14.3c-0.1-0.1-0.2,0.1-0.1,0.2c0.6,0.3,1,0.8,1.4,1.4c0.1,0.1,0.2,0,0.1-0.1
		C91.9,15.2,91.3,14.6,90.7,14.3z"/>
	<path class="st2" d="M74.1,13.9L74.1,13.9c-1.7-0.2-3.2,0.1-4.7,0.8c-0.1,0.1-0.1,0.3,0.1,0.2c1.3-0.6,2.5-0.9,3.8-0.8l0,0
		c0,0.1-0.1,0.2-0.3,0.2c-0.9-0.1-1.8,0.1-2.7,0.7c-0.1,0.1,0.1,0.1,0.1,0.1c0.7-0.6,1.5-0.7,2.3-0.7c0,0,0,0,0,0.1l0,0
		c-0.5,0.2-0.9,0.3-1.3,0.6c-0.2,0.1-0.6,0.3-0.9,0.5l0,0l0,0c0,0.1-0.1,0.2,0,0.3l0.1,0.1l0,0l0,0c0.6-0.3,1.3-0.7,2.1-0.9
		c0.7-0.2,1.4-0.6,2.1-0.9c0.1,0,0.1,0,0.2,0c0.2,0,0.5-0.1,0.7-0.3c0,0,0.1,0,0.1-0.1c0.2-0.1,0.6-0.1,0.9-0.1
		c0.2,0,0.3,0.1,0.6,0.1l0,0c0.8,0.1,1.8,0.7,3.1,0.2c0.6-0.1,1-0.3,1.5-0.7c0.1,0,0.1-0.2,0-0.1c-0.6,0.3-1.2,0.7-1.8,0.8
		c-0.7,0.1-1.5,0-2.2-0.2c-0.2-0.1-0.5-0.1-0.8-0.2c-0.1,0-0.1,0-0.2-0.1c-0.2,0-0.3-0.1-0.5-0.1c0,0,0,0,0.1-0.1l0.1-0.1l0,0l0,0
		c-0.5,0-0.5-0.5-0.6-1V12c-0.1-1.2,0.1-2.5,0.6-3.1l0,0c0.1,0.3,0.2,0.7,0.6,0.8c0.1,0,0.2-0.1,0.1-0.1c-0.5,0.1-0.6-0.1-0.7-0.5
		c0-0.1-0.1-0.1-0.1,0c0,0,0,0,0.1-0.1l0,0c0,0,0-0.1,0.1-0.1c0,0.2,0.1,0.5,0.3,0.7c0.1,0.1,0.2,0,0.1-0.1C77,9.2,76.9,9,76.9,8.8
		c0-0.1-0.1-0.1-0.1-0.1c0-0.1,0-0.3,0-0.5s0-0.2,0-0.2c0-0.3,0.1-0.7,0.2-0.8c0,0.8-0.1,1.4,0.3,2.1c0,0.1,0.2,0,0.2,0
		c-0.5-0.7-0.3-1.3-0.3-2.1C77.2,7,77.1,7,77.1,7c0.1-0.2,0.3-0.3,0.6-0.5c0.1,0,0.1-0.1,0.2-0.1c0,0,0,0,0-0.1c0,0,0,0-0.1,0
		c-0.2,0-0.6,0-0.8,0.1c-0.9,0.3-1,1.3-1.3,2.3c0,0.2-0.1,0.5-0.1,0.8c-0.3,0.7-0.6,2-0.7,2.9c0,0.1,0,0.3,0,0.5c0,0.2,0,0.3,0,0.6
		C74.9,13.6,74.6,13.8,74.1,13.9z"/>
	<path class="st2" d="M92.3,14.9L92.3,14.9c0-0.3,0.1-0.5,0.2-0.6c0.1-0.1,0.2-0.3,0.2-0.6l0,0c-1.2-1.4-2.9-2.2-4.7-2.2
		c-0.3,0-0.7,0-1,0.1l-0.1-0.1c-0.1-0.1-0.1-0.1-0.2-0.2c0,0,0,0-0.1,0c-0.7,0.5-1.8,0.9-2.3,1.2l0,0c-0.1,0.5-0.6,0.7-0.9,0.7
		s-0.6-0.1-0.8-0.3c0,0,0,0-0.1,0l0,0v0.1c-0.1,0.3-0.1,0.7-0.1,1.2c0,0,0,0,0,0.1c0.2,0.1,0.5,0.2,0.7,0.3c1.2,0.6,2.3,1.3,3.8,1.4
		h0.1h0.2c0.1,0,0.1,0,0.2,0s0.2,0.1,0.3,0.1s0.2,0.1,0.2,0.1l0,0l0,0c0,0,0.3-0.7,0.3-0.8c-0.1-0.1-0.3-0.2-0.8-0.3
		c-0.2,0-0.3-0.1-0.5-0.2c-0.1-0.1-0.3-0.2-0.5-0.2c-0.1,0-0.1,0-0.2,0c-0.2,0-0.3,0-0.6,0.1c-0.1,0-0.3,0.1-0.5,0.1h-0.1
		c-0.3-0.1-0.6-0.3-0.8-0.5c-0.1-0.1-0.1-0.1-0.1-0.1v-0.1l0,0c0.3-0.7,0.9-1.3,2-1.6l0.1,0.1c0.2,0.1,0.3,0.2,0.7,0.3h0.1
		c0-0.1,0-0.2,0-0.3v-0.1c0.2,0,0.5,0,0.6,0c2,0,3.6,0.7,4.5,1.7c-0.1,0.1-0.1,0.1-0.2,0.1c-0.2-0.1-0.6-0.3-0.8-0.3l0,0
		c0,0,0,0,0,0.1s0.1,0.2,0.5,0.5C91.8,14.4,92.1,14.6,92.3,14.9C92.2,14.9,92.3,14.9,92.3,14.9z"/>
	<path class="st2" d="M82.4,34.1C82.5,34.1,82.5,34.1,82.4,34.1c0.1,0,2.2-1.8,3.7-4.6c1.4-2.8,1.6-6,1.6-6.1c0,0,0-0.1-0.1-0.1
		c0,0-0.1,0-0.1,0.1c0,0-0.2,3.3-1.6,6c-1.5,2.8-3.6,4.5-3.6,4.6C82.3,34,82.3,34,82.4,34.1L82.4,34.1z"/>
	<path class="st2" d="M77.7,7.3c-0.1,0.3,0,0.7,0.1,1c0.1,0.1,0.2,0,0.2-0.1c-0.1-0.2-0.2-0.6-0.1-0.9C77.9,7.1,77.8,7.1,77.7,7.3z"
		/>
	<path class="st2" d="M70.7,4.3c0.3,0,1.2,0.1,1.6,0.1c0.6,0,0.6-0.1,0.8-0.2c0.3-0.1,0.7-0.2,1.4-0.3c1.2-0.1,3.3-0.1,4.5-0.1
		C80.4,3.8,82,4,83.1,4c1.2,0,2.3,0.2,3.1,0.3c0.7,0,0.9-0.5,1.8-0.5c0.7,0,0.9,0.2,1.5,0.5c0.6,0.2,1.3,0.5,1.5,0.5
		c0.2,0.1,0.3,0,0.5-0.1c0.1-0.1,0.1-0.2-0.1-0.3c-0.1-0.1-1.5-1-3.2-1.3C87.4,3,86.7,3,86.1,3s-1.3-0.1-1.8-0.1c-0.9,0-0.8,0-2.2,0
		c-1.4-0.1-3.6-0.5-5-0.3c-0.6,0-1.4,0-2.1,0.1C74.6,2.8,73.6,3,73,3.1c-1.5,0.3-2.4,0.8-2.7,1C70,4.4,70.3,4.3,70.7,4.3z"/>
	<path class="st2" d="M98.6,13.9c-0.7-2-2.9-5.3-3.5-6.2c-0.6-0.8-1.3-1.2-1.7-1.7c-0.5-0.6-0.8-0.9-0.8-0.9S92.5,5,92.3,5
		c-0.1,0-0.1,0.1-0.3,0.1c-0.1,0-0.3,0.1-0.5,0.2c0,0.1,0.2,0.2,0.5,0.5c0.2,0.2,0.5,0.3,0.7,0.6C92.9,6.6,93,6.7,93,6.9
		C93,7,93.2,7,93.3,7.1s0.2,0.2,0.2,0.1s0-0.3,0-0.5s0-0.2,0.1,0C93.7,6.9,95,9,95.5,9.9c0.5,0.8,1.4,2.2,1.7,2.8
		c0.3,0.6,0.7,1,0.9,1.4c0.3,0.7,0.7,2.2,0.8,3.1c0.1,0.9,0.2,1.2,0.3,1.5c0.2,0.3,0.3,0.6,0.6,1.2s0.6,2.5,0.6,3.9
		c0,1.5-0.6,4.7-1.2,6.1c-1.2,2.7-1.4,2.5-1.7,2.9c-0.7,0.8-2,3.6-2.5,4.1c-0.3,0.3-1.3,1.2-2.3,2c-0.9,0.8-2.1,1.5-2.8,1.8
		c-0.9,0.5-3.3,1.6-4.3,1.8c-0.9,0.2-1.5,0.6-3.9,0.8c-2.3,0.2-4.4-0.3-5-0.5c-0.6-0.2-2.5-1-3.9-1.5c-1.4-0.6-3.3-1.2-3.9-1.5
		c-0.6-0.3-1.7-1.5-2.3-1.8c-0.6-0.3-0.6,0-2.2-1.3c-1.5-1.2-1.8-1.8-2-2c0-0.1,0-0.2,0-0.2l0,0c1,0.8,1.8,2.2,3.2,2.7
		c0.7,0.2,1.3,0.8,2,1c0.1-1.7,1.3-2.7,2-3.8c-1.4-1.7-2.4-4-3-6.6c-0.1-1.5-0.5-3.7,0.8-4.3c0.1-1.3,0.3-2.9,0.7-4
		C67.8,19,68,18,67.9,17.2c0-0.1,0-0.2-0.1-0.3c-0.1,0-0.1,0-0.3,0.2c-0.2,0.2-0.3,0.6-0.7,0.8c-0.1,0-0.3-0.1-0.5,0
		c-0.1,0.1-0.5,0.5-0.7,0.5c-0.1-0.1-0.2-0.1-0.3-0.2c0,0,0.3-0.8,0.8-1.6c0-0.1,0.1-0.2,0-0.2c0.2-0.1,0.2,0.1-0.1,0.5
		c-0.5,0.3-0.9,0.9-1,1c0,0-0.1-0.1-0.2-0.3c0.8-0.7,0.8-1,1.4-1.8c0.1-0.2,0.7-0.6,0.8-0.8c0.1-0.1,0-0.1,0-0.2
		c-0.9,0.6-1.6,1.3-2.4,2.2c0,0-0.1-0.1-0.1-0.2c0.5-0.7,0.9-1.3,1.4-1.8v-0.6c0.6-0.6,1.4-1,2.1-1.4c1-0.1,2-0.6,3-0.7
		c0.2,0,0.6-0.1,0.8-0.1c1,0,2,1.7,2.8,1.5c0.3-0.6,0.1-1.3,0.2-2c0.2-0.9,0.7-1.5,0.7-2.5c0.1-1.3,0.5-2.4,1.7-2.8
		c0.8-0.3,1.4,0,2,0.2c0.9,1,2.4,2.2,3.1,3.6c0.2,0.5,0,1.5,0.2,2.1c0.3,0.1,0.5,0.6,0.8,0.6c0.5,0,0.6-0.7,1.2-0.7
		c1-0.1,1.5-0.6,2.1-1.2c0.3,0.3,0.8,0.2,1.3,0.2c2.4,0,4.7,1,5.5,2.5c0.2,0.5,0.1,1-0.1,1.5c0.2,0.2,0.8,0.3,0.6,0.9
		c0.1,0.1,0.2-0.1,0.2,0.1c-0.1,0.5-0.8,0.3-1,0.5c0.2,0.1,0.3,0.1,0.5,0.3c-0.3,0-0.6,0.3-0.8,0.3c-1,0.1-1.4-1.4-2.3-1.5
		c0.1,0.2-0.1,0.2-0.1,0.3c0.7,0.3,2.2,1.5,1.4,2.1c-0.6,0-1.4,0.1-2,0.2c0,0.7,0,1.4,0.2,2c0.1,0.3,0.6,0.8,0.6,1
		c0,0.1-0.2,0.3-0.2,0.5c-0.2,0.6-0.3,1-0.2,1.8c0.1,1,0.2,2.2,0.1,3.1c-0.1,0.8-0.3,1.6-0.5,2.3c-0.3,1.4-1.2,2.5-1.5,4v0.6
		c-0.8,0.3-1.4,0.9-2,1.6c-0.1,0.1,0.5,0.5,0.5,0.6c-0.5,0.6-0.6,1.7-1,2.7c-0.5,0.6-1.4,1.2-1.8,1.7l0.2,0.5c0,0.1-0.2,0.5-0.6,0.6
		c-0.1,0-0.2-0.1-0.5-0.1c-0.9-0.1-1.5,0.2-2,0.5c0,0-0.1,0.1-0.1,0v-0.1c-0.1-0.5-0.3-0.8-0.5-0.9c-0.7-0.5-2-0.3-2.1,0.6
		c0,0.1-0.1,0.3-0.1,0.3l-0.1,0.1c-0.1,0-0.2-0.1-0.3-0.2c-0.9-0.6-2-1.4-2.2-1.5c-0.1,0-0.3,0-0.5-0.1c-0.8-0.5-1.3-1.4-2.2-1.8
		c-0.3,0-0.1,0.5-0.2,0.8c0,0.3-0.3,1-0.6,0.9c-0.8-0.2-1.8-0.5-2.2-1.3l0,0c-0.2,0-0.3,0.2-0.5,0.5c0.5,0.5,0.9,0.9,1.7,1.2
		c2.2,0.2,3.7,2,5.9,2.4c0.1,0,0.3,0.1,0.5,0.1c0.9,0.1,1.7,0.1,2.7,0.2c0.6,0.1,0.9,0.2,1.6,0.1c0.7-0.2,1.2,0,1.6-0.1
		c0.9-0.1,2.1-0.7,2.9-0.9c0.8-0.2,1.7-0.5,2.5-0.7c0.5-0.1,1.5-0.6,2-0.8c2.4-1.6,3.9-3.8,5.4-6.3c0.3-0.6,0.6-1.2,1-1.4
		c1.4-0.7,2-1.8,2.4-3.5c0.1-0.7,0.2-0.9,0.3-1.4c0.5-1.8,0.6-4.1,0.5-6c-0.1-1.7-1.6-3.7-1.7-5.4c-0.1-1.3-0.3-2-0.8-2.8
		c-0.2-0.5-1.5-1.8-2.5-3.7c-0.3-0.7-0.8-1.3-1.3-1.8S93,6.8,92.6,6.3c-0.6-0.5-1.5-0.8-2.1-1.2C90,5,89.6,4.6,89.2,4.4
		c-1.5-0.5-2.2,0.5-3.1,0.5c-0.5,0-0.5,0-0.8-0.1c-2.1-0.7-5-0.3-7.5-0.5c-1-0.1-2.1-0.1-3,0c-0.7,0.1-1.2,0.3-1.7,0.7
		c-0.2,0.1-0.6,0.1-0.7,0.3c-0.1,0.1-0.1,0.3-0.1,0.5c-0.1,0.3-0.2,0.7-0.3,1.2c0,0.3-0.1,0.7-0.2,0.6c-0.5-0.5-1.2-0.8-1.8-1.2
		c-0.1-0.1-0.3,0-0.5,0.2c-0.2,0.3-0.5,0.5-1,0.7c-1,0.2-1.7,0.7-2.3,1.4c-0.2,0.5-0.5,1-0.7,1.5c-0.6,0.8-1.4,1.6-2.1,2.5
		c-0.7,0.9-1.3,1.8-2,2.7c-0.7,0.9-1.7,1.8-1.8,3.3c-0.2,3.3-0.8,6.3-0.2,9.8c0,0.2,0.1,0.5,0.2,0.8c0.6,1.4,0.3,1.6,0.5,1.8
		c0.2,0.6,1.4,0.7,2.5,0.6c0.1,0,0.2,0,0.3,0c0.3,0.1,0.3,0.3,0.5,0.7c0,0.1,0.1,0.2,0.2,0.3c0,0-0.1-0.1-0.2-0.2
		c-0.1-0.1-0.2-0.2-0.3-0.2c-0.3-0.1-0.5,0-0.9,0c-0.5,0.1-0.6,0.2-1,0.2c-0.8,0-0.9-0.5-1.2-1s-0.2-1-0.3-1.8
		c-0.1-0.7-0.2-0.6-0.5-1.3c-0.2-0.6-0.3-1.4-0.3-2.1c0-0.7,0.1-1.2,0-1.6c0-0.5-0.1-0.6-0.1-1.6c0-1,0.5-2,0.6-3c0-1,0-1.2,0.5-2.4
		s1.3-2,1.7-2.7c0.5-0.7,0.7-1.3,1.6-2.4c0.9-1.2,1.5-1.8,2.2-2.5c0.6-0.7,0.8-1.4,1.3-2c0.3-0.6,0.8-0.7,1.4-1
		c0.6-0.3,1.5-0.5,1.4-0.6c0,0-0.5,0-0.7-0.2c-0.1-0.2,0-0.5-0.1-0.5c-0.1,0-1.4,1-2.3,1.8l0,0H66c0,0-0.1,0.1-0.3,0.2L65.8,8
		c-0.1,0.1-0.2,0.2-0.2,0.3L65.1,8c-0.1,0.1-0.2,0.2-0.3,0.3l0.5,0.3C65.1,8.8,65.1,8.9,65,9l-0.5-0.5c-0.1,0.1-0.1,0.1-0.1,0.2
		c0,0-0.1,0.1-0.1,0.2l0.6,0.5c-0.1,0.1-0.2,0.2-0.2,0.3L64,9.3c-0.1,0.1-0.2,0.2-0.2,0.5l0.5,0.5c-0.1,0.1-0.1,0.2-0.2,0.2L63.5,10
		c-0.1,0.1-0.2,0.2-0.2,0.5l0.5,0.3c-0.1,0.1-0.1,0.1-0.2,0.2l-0.1,0.1L63,10.8c-0.1,0.1-0.2,0.2-0.2,0.5l0.5,0.3
		c-0.1,0.1-0.1,0.2-0.2,0.2l-0.5-0.3c-0.1,0.1-0.2,0.2-0.3,0.3l0.5,0.3c-0.1,0.1-0.2,0.2-0.2,0.3l-0.5-0.3c-0.1,0.1-0.1,0.2-0.2,0.2
		l-0.1,0.1l0.5,0.3c-0.1,0.1-0.1,0.2-0.2,0.2l-0.5-0.3c-0.1,0.1-0.2,0.2-0.3,0.3l0.5,0.3c-0.1,0.1-0.2,0.2-0.3,0.3l-0.5-0.3
		c-0.1,0.1-0.2,0.2-0.3,0.5l0.5,0.3c-0.1,0.1-0.1,0.2-0.2,0.2l0,0l-0.5-0.2c-0.1,0.1-0.2,0.2-0.2,0.5l0.7,0.5
		c-0.1,0.1-0.1,0.2-0.2,0.5l-0.6-0.3c-0.1,0.1-0.2,0.3-0.2,0.5l0.6,0.3c0,0.1-0.1,0.2-0.1,0.3l-0.7-0.2c-0.1,0.1-0.1,0.2-0.2,0.5
		l0.7,0.2c-0.1,0.1-0.1,0.3-0.2,0.5l-0.7-0.2c-0.1,0.1-0.1,0.3-0.2,0.5l0.7,0.2c0,0.1-0.1,0.2-0.1,0.3L58.5,18
		c-0.1,0.1-0.1,0.3-0.2,0.5l0.7,0.2c0,0.1-0.1,0.2-0.1,0.5L58,18.9c0,0.1-0.1,0.2-0.1,0.3c0,0,0,0.1-0.1,0.1l0.8,0.3
		c0,0.1,0,0.1,0,0.2v0.1l-0.9-0.1c0,0.1-0.1,0.3-0.1,0.5l1,0.1c0,0.1,0,0.3-0.1,0.5l-1-0.2c0,0.1,0,0.3-0.1,0.5l1,0.2
		c0,0.1,0,0.2,0,0.3l-1.2-0.1c0,0.1,0,0.3,0,0.5l1.2,0.1c0,0.1,0,0.3,0,0.5l-1.2-0.1c0,0.1,0,0.3,0,0.5l1.2,0.1c0,0.1,0,0.2,0,0.3
		l0,0l-1.2-0.1c0,0.1,0,0.3,0,0.5l1.2,0.1c0,0.1,0,0.3,0,0.5l-1.2-0.1v0.1c0,0.1,0,0.2,0,0.3l1.2,0.1c0,0.1,0,0.2,0,0.3l-1.2,0.1
		c0,0.1,0,0.3,0,0.5l1.2-0.1c0,0.1,0,0.3,0,0.5l-1.2,0.1c0,0.2,0,0.3,0,0.5l1.2-0.1c0,0.1,0,0.2,0,0.3l-1.2,0.1c0,0.2,0,0.3,0,0.5
		l1.2-0.1c0,0.1,0,0.3,0.1,0.5h-1.2c0,0.2,0,0.3,0.1,0.5l1.3-0.1c0,0.1,0.1,0.2,0.1,0.3l-1.3,0.2c0,0.1,0.1,0.3,0.1,0.5l1.4-0.3
		c0.1,0.1,0.1,0.3,0.2,0.5l-1.4,0.3c0.1,0.1,0.1,0.3,0.1,0.5l1.4-0.2c0,0.1,0,0.2,0,0.2l-1.3,0.5c0,0.1,0.1,0.3,0.1,0.5l1.3-0.5
		c0,0.1,0,0.3,0.1,0.5l-1.2,0.5c0,0.1,0.1,0.3,0.1,0.5l1.3-0.5l0,0c0,0.1,0.1,0.2,0.1,0.3l-1.4,0.6c0.1,0.1,0.1,0.2,0.2,0.5l1.3-0.5
		c0.1,0.1,0.1,0.2,0.2,0.5L59,33.4c0.1,0.1,0.2,0.2,0.2,0.5l1.3-0.5c0,0.1,0.1,0.1,0.1,0.1l-1,0.8c0.1,0.1,0.2,0.2,0.3,0.3l1.2-0.8
		c0.1,0,0.5,0,0.9-0.3c0.2-0.2,0.5-0.3,0.7-0.5c0.5-0.2,0.6-0.2,0.7-0.3c0.1,0,0.2,0,0.3,0h0.1c0,0.1-0.1,0.2-0.2,0.2
		c-0.1,0-0.2-0.1-0.2-0.1c-0.1,0-0.8,0.5-1,0.7c-0.2,0.1-0.5,0.3-0.7,0.5l-1.4,1c0.1,0.1,0.2,0.2,0.3,0.3l1.2-0.8
		c0,0.1,0.1,0.2,0.2,0.2l-1.2,0.8c0.1,0.1,0.2,0.2,0.3,0.3l1.2-0.8c0.1,0.1,0.2,0.2,0.2,0.3l-1,0.8c0.1,0.1,0.2,0.2,0.3,0.3l1-0.8
		c0,0.1,0.1,0.1,0.1,0.2l-1.2,1c0.1,0.1,0.2,0.2,0.3,0.3l0.9-0.9c0.1,0.1,0.2,0.2,0.3,0.3l-0.9,0.9l0.1,0.1c0.1,0.1,0.1,0.1,0.2,0.2
		l0.9-0.9l0.1,0.1c0,0,0,0,0.1,0.1l-0.9,0.9c0.1,0.1,0.2,0.2,0.3,0.3l0.8-0.9c0.1,0.1,0.2,0.2,0.3,0.3l-0.8,0.9
		c0.1,0.1,0.2,0.2,0.5,0.2l0.8-0.8c0.1,0,0.1,0.1,0.2,0.1l-0.7,0.9c0.1,0.1,0.3,0.1,0.5,0.2l0.7-0.9c0.1,0.1,0.2,0.1,0.5,0.2
		L65.6,40c0.1,0.1,0.3,0.1,0.5,0.2l0.7-0.9h0.1c0,0,0,0,0.1,0l-0.5,1c0.1,0.1,0.3,0.1,0.5,0.2l0.5-1c0.1,0.1,0.2,0.1,0.5,0.2l-0.5,1
		c0.1,0.1,0.3,0.1,0.5,0.2l0.5-1c0.1,0,0.2,0.1,0.3,0.1l-0.5,1c0.1,0.1,0.3,0.1,0.5,0.2l0.5-1c0.1,0.1,0.2,0.1,0.5,0.2l-0.8,1.2
		c0.1,0.1,0.3,0.1,0.5,0.2l0.5-1c0.1,0,0.2,0.1,0.3,0.1l-0.5,1c0.1,0.1,0.3,0.1,0.5,0.2l0.5-0.9c0.1,0.1,0.3,0.1,0.5,0.2l-0.3,0.9
		c0.1,0.1,0.3,0.1,0.5,0.2l0.3-0.9h0.1c0.1,0,0.1,0,0.2,0.1l-0.3,0.9c0.1,0.1,0.3,0.1,0.5,0.2l0.3-0.9c0.1,0.1,0.3,0.1,0.5,0.2
		l-0.3,0.9c0.1,0.1,0.3,0.1,0.5,0.2l0.3-0.9c0.1,0,0.2,0.1,0.2,0.1l-0.2,1c0.2,0.1,0.3,0.1,0.5,0.1l0.2-1c0.1,0,0.3,0.1,0.5,0.1
		l-0.2,1c0.1,0.1,0.3,0.1,0.5,0.2l0.2-1c0.1,0,0.2,0.1,0.3,0.1l-0.1,1.2c0.1,0,0.3,0.1,0.5,0.1l0.1-1c0.1,0,0.3,0.1,0.5,0.1L76,44.6
		l0,0c0.1,0,0.3,0,0.5,0l0.1-0.9c0.1,0,0.2,0,0.3,0.1v0.8c0.1,0,0.3,0,0.5,0v-0.8c0.1,0,0.2,0,0.3,0h0.1v0.8c0.1,0,0.3,0,0.5,0v-0.8
		c0.1,0,0.2,0,0.3,0v0.8c0.1,0,0.3,0,0.5,0v-0.8c0.1,0,0.3,0,0.5,0v0.7c0.1,0,0.3,0,0.5,0v-0.7c0.1,0,0.2,0,0.3,0v0.7
		c0.1,0,0.3,0,0.5,0v-0.7c0.1,0,0.3,0,0.5,0v0.7c0.1,0,0.3,0,0.5,0v-0.6c0.1,0,0.2,0,0.3,0v0.6c0.1,0,0.3,0,0.5,0v-0.6
		c0.1,0,0.3,0,0.5,0v0.6c0.1,0,0.2,0,0.3,0h0.1v-0.6c0.1,0,0.2,0,0.3,0l0.1,0.5c0.1,0,0.3-0.1,0.5-0.1l-0.1-0.5c0.1,0,0.3,0,0.5-0.1
		l0.1,0.3c0.2,0,0.3-0.1,0.5-0.1l-0.1-0.3h0.1c0.1,0,0.1,0,0.2,0v0.2l0,0c0.2-0.1,0.3-0.2,0.3-0.3v-0.1c1.7-0.6,3.7-1.7,4.3-2.1
		c0.7-0.3,3-1.8,4.5-3.6c1.5-1.7,3.5-4,4.4-6.9c0.9-2.9,1.4-4,1.5-6.6C101.1,21.3,99.3,15.9,98.6,13.9z M88.5,38.3
		c-1,0-1.8,0.5-2.5,0.9c0.1-1,1.3-2.3,0.6-3.6c0.3-0.7,0.7-1.6,1.6-1.6c0.2,0.3,0.5,0.7,0.7,0.9C89.1,36.1,89.2,37.6,88.5,38.3z
		 M63.8,32.6L63.8,32.6L63.8,32.6L63.8,32.6z"/>
	<path class="st2" d="M68,39C68,39,68,39.1,68,39C68,39.1,68.1,39.1,68,39l0.2,0.1c0.1-0.1,0.2-0.2,0.2-0.3c0.3-0.5,0.8-0.9,1.3-1.3
		c0,0.2,0,0.7-0.1,0.9l0,0l0,0c0.2,0.2,0.6,0.5,0.9,0.6l0,0l0,0c0-0.2,0-0.3,0-0.5c0,0-0.1-0.1-0.2-0.1l-0.1-0.1c0,0,0-0.2,0-0.3
		v-0.1c0-0.1,0-0.1,0.1-0.1l0,0c0.1,0.2,0.2,0.5,0.3,0.7c0.1,0.3,0.2,0.6,0.5,0.8l0,0l0,0l0,0c0-0.2,0.1-0.3,0.2-0.6v-0.1
		c0,0,0,0,0-0.1c-0.6-0.7-0.9-1.6-0.9-2.7v-0.1c0-0.1,0-0.3,0-0.5c0.1-0.1,0.1-0.1,0.2-0.1s0.3,0.1,0.5,0.1h0.1
		c0.2,0.1,0.5,0.2,0.7,0.2c0.1,0,0.2,0,0.2-0.1l0,0c0.1-0.2-0.1-0.6-0.3-0.8c-0.1-0.2-0.3-0.5-0.6-0.6l0,0c0,0,0,0-0.1,0
		S71,34,71,34c0,0.1-0.1,0.1-0.1,0.1c-2.3-2.4-3.6-5.3-3.8-8.9c0,0,0,0-0.1,0c0,0-0.1,0-0.1,0.1c0,3.2,1,6.2,3.3,9.2
		c-0.1,0.1-0.2,0.2-0.3,0.3c-0.1,0.1-0.2,0.3-0.5,0.6c-0.1,0.1-0.1,0.2-0.2,0.3c-0.3,0.5-0.9,1.2-0.8,2c-0.1,0.2-0.3,0.5-0.5,0.7
		C68.3,38.7,68.1,38.8,68,39z"/>
	<path class="st2" d="M68.4,27.2c0.6,3,1.7,4.8,3,6.8l0,0l0,0c0.3-0.2,0.6-0.3,1-0.5l0,0c0,0,0,0,0-0.1c-2.8-2.7-3.9-7-3.3-11.6
		c0.1-0.8,0.3-1.5,0.6-2.2c0.1-0.5,0.3-0.9,0.5-1.4l0,0l0,0c-0.1,0-0.1,0-0.2,0c-0.2,0-0.5,0-0.6-0.2c0.2-0.8,0.7-1.8-0.1-2.5h-0.1
		c-0.1,0.1-0.2,0.1-0.3,0.2c-0.1,0-0.1-0.1-0.2-0.1c-0.1-0.1-0.1-0.1-0.2-0.1l0,0c-0.7,0.3-1.3,0.9-1.6,1.4c0,0,0,0-0.1,0.1
		c-0.1,0.2-0.2,0.3-0.2,0.5l0,0c0.1,0,0.1,0.1,0.2,0.1h0.1c0,0,0.1-0.1,0.2-0.2c0.1-0.1,0.1-0.2,0.2-0.2c0.2-0.2,0.6-0.5,0.9-0.5
		c0.1,0,0.1,0,0.2,0l0,0c0,0.2,0.1,0.3,0.2,0.6c0.1,0.1,0.1,0.2,0.1,0.3c0,0.2,0,0.5-0.1,0.7c-0.1,0.2-0.1,0.5-0.1,0.7
		c0,0.2,0.1,0.2,0.2,0.3c0.1,0.1,0.1,0.1,0.2,0.2C68.4,21.3,67.8,24.4,68.4,27.2z"/>
	<path class="st2" d="M82.3,31.7L82.3,31.7c0.1,0,1.8-1.6,2.7-3.9c0.9-2.4,0.8-3.9,0.8-3.9s0-0.1-0.1-0.1c0,0-0.1,0-0.1,0.1
		c0,0,0.1,1.5-0.8,3.9c-0.8,2.3-2.5,3.8-2.5,3.8C82.2,31.6,82.2,31.7,82.3,31.7C82.2,31.7,82.2,31.7,82.3,31.7z"/>
	<path class="st2" d="M82.7,32.7v0.1c0,0,0,0,0.1,0c0,0,0,0,0.1,0c0,0,2-2.4,3-4.8c0.9-2.4,0.9-4.7,0.9-4.8c0,0,0-0.1-0.1-0.1l0,0
		c0,0-0.1,0-0.1,0.1c0,0,0,2.3-0.9,4.7C84.6,30.4,82.7,32.7,82.7,32.7z"/>
	<path class="st2" d="M82,30.4L82,30.4c0.1,0,1.3-0.9,2.2-3.5c0.8-2.2,0.6-3.7,0.6-3.7l-0.1-0.1l-0.1,0.1c0,0,0.2,1.5-0.5,3.6
		c-0.9,2.5-2.1,3.3-2.1,3.3C81.9,30.3,81.9,30.3,82,30.4L82,30.4z"/>
	<path class="st2" d="M90.4,17.8c0.1,0,0.2,0,0.2,0l0,0c0,0,0-0.1,0.1-0.2c0.1-0.2,0.1-0.5,0-0.6c-0.2-0.1-0.5-0.2-0.7-0.5
		c-0.5-0.3-0.9-0.6-1.5-0.7h-0.1c-0.1,0.2-0.1,0.5-0.2,0.7c-0.2,0.6-0.5,1.3-0.5,2.1l0,0c0.6,1.2,1,2.4,1.2,3.9l0,0l0,0l0,0
		c0.1-0.1,0.1-0.2,0.2-0.3c0.1-0.2,0.2-0.5,0.2-0.7s-0.1-0.6-0.2-1c-0.1-0.2-0.2-0.6-0.2-0.8c0-0.2-0.1-0.3-0.1-0.6
		C88.9,18,89.7,17.9,90.4,17.8z"/>
	<path class="st2" d="M85.9,34c0-0.1,0.1-0.1,0.1-0.2c0.1-0.2,0.2-0.3,0.1-0.6l0,0l0,0c-0.1,0.1-0.1,0.1-0.2,0.2
		c-0.2,0.2-0.6,0.6-0.7,0.8c-0.3,0.1-0.6,0.5-0.8,0.7c-0.1,0.1-0.2,0.2-0.3,0.3h-0.1l0,0c-0.1,0-0.1,0-0.2,0c-0.1,0-0.1,0-0.2,0l0,0
		l0,0c0,0.3,0,0.5,0,0.6c-0.5,0.3-0.9,0.5-1.4,0.7c-0.2,0.1-0.5,0.1-0.7,0.2c-0.3,0.1-0.3,0.5-0.2,0.7c0,0.2,0,0.5-0.1,0.7
		c-0.1,0-0.2,0-0.5,0c-0.1,0-0.3,0-0.5,0c-0.1,0-0.1,0.1-0.1,0.1l0,0c0,0,0,0,0,0.1l0,0c0.2,0,0.5,0,0.7,0c0.3,0,0.7,0,1.2,0.1
		c0,0,0,0,0.1,0c0.1-0.2,0.3-0.3,0.5-0.6c0.5-0.5,0.8-0.9,1.4-1.4c0.1-0.1,0.2-0.1,0.3,0c0.3,0.6-0.2,0.9-0.6,1.3l-0.1,0.1
		c-0.2,0.1-0.3,0.3-0.6,0.5c-0.1,0.1-0.2,0.2-0.5,0.3c0,0-0.1,0.1-0.2,0.1c-0.2,0.2-0.8,0.6-0.9,0.6l0,0c-0.3-0.3-0.9-0.6-1.7-0.6
		c-0.5,0-1,0.1-1.6,0.6c-1.8-0.5-3.2-1.6-4.1-3.5l0,0h-0.1c-0.1,0-0.1,0-0.2,0c-0.1,0-0.2,0-0.2,0s0,0-0.1,0c0,0,0,0,0,0.1
		c0.1,0.1,0.1,0.1,0.2,0.2s0.2,0.2,0.2,0.3c0.1,0.2,0.2,0.6,0.3,1c0,0.1,0,0.2,0,0.2c0,0.2,0,0.5,0.2,0.7c0.1,0.1,0.5,0.3,0.9,0.6
		c0.8,0.5,2,1,2.7,1.7c0,0,0,0,0.1,0l0,0c0.2-0.7,0.8-1.2,1.6-1.2c0.2,0,0.5,0,0.7,0.1c0.6,0.2,0.7,0.7,0.8,1.2l0,0l0,0l0,0
		c0.6-0.3,1.2-0.5,1.5-0.5c0.2,0,0.5,0.1,0.6,0.2c0,0,0,0,0.1,0c0.1,0,0.2-0.1,0.2-0.2l0,0c0,0,0,0,0-0.1s-0.2-0.2-0.2-0.3
		c0.2-0.5,0.7-0.8,1-1.2c0.2-0.2,0.6-0.5,0.8-0.8c0.1-0.2,0.2-0.7,0.3-1c0.1-0.2,0.1-0.5,0.2-0.6c0.1-0.3,0.2-0.5,0.1-0.6l0,0l0,0
		c0,0,0,0-0.1,0.1c-0.2,0.1-0.5,0.3-0.7,0.3c0.1-0.3,0.7-1.4,1-2C85.8,34.3,85.9,34.1,85.9,34z"/>
	<path class="st2" d="M82.4,27.4v0.1c0,0,0,0,0.1,0c0,0,0,0,0.1,0c0,0,0.8-0.8,1-2.3c0.3-1.5,0-2.4,0-2.4l-0.1-0.1l-0.1,0.1
		c0,0,0.2,0.9,0,2.3C83.1,26.6,82.4,27.4,82.4,27.4z"/>
	<path class="st2" d="M82,25.8v0.1c0,0,0,0,0.1,0c0,0,0,0,0.1,0c0,0,0.3-0.3,0.6-1c0.1-0.6,0-1,0-1.2l-0.1-0.1l-0.1,0.1
		c0,0,0.1,0.5,0,1C82.2,25.5,82,25.8,82,25.8z"/>
	<path class="st2" d="M87.5,18.1c-0.5-0.2-1.2-0.3-2.1-0.5c-0.2-0.1-0.5-0.2-0.7-0.3c-0.2-0.1-0.6-0.2-0.9-0.5
		c-0.1-0.1-0.3-0.2-0.5-0.3c-0.3-0.2-0.8-0.5-1.2-0.6c-0.3,0-0.7,0.2-1.2,0.5c-0.2,0.2-0.6,0.5-0.8,0.5s-0.5,0.1-0.8,0.1
		c-0.3,0-0.6,0-0.9,0s-0.7-0.1-1-0.1c-0.2,0-0.5,0-0.7,0c-0.2-0.1-0.5-0.2-0.7-0.3c-0.5-0.2-0.9-0.5-1.5-0.6l0,0
		c-0.1,0.1-0.3,0.2-0.5,0.5c-0.5,0.5-0.9,1-1.7,1l0,0c-0.1,0.1-0.2,0.1-0.3,0.2c-0.2,0.1-0.6,0.3-0.9,0.3c-0.1,0-0.2-0.1-0.3-0.1
		l0,0c0,0,0,0-0.1,0c0,0,0,0,0,0.1s0,0.1,0,0.2c0,0.1,0,0.3,0.1,0.5c0,0,0,0,0.1,0c0.2-0.2,0.6-0.2,1-0.2c0.2,0,0.3,0,0.6,0
		c0.2,0,0.3,0,0.6,0l0,0l0,0v-0.1c0.3-0.6,1-1.4,1.7-1.4l0,0c0.5,0,0.9,0.5,1.3,0.9c0,0.1-0.1,0.2-0.1,0.3s0,0.2-0.1,0.3l0,0
		c-0.7,0-0.9,0.3-1.2,0.7c0,0,0,0,0,0.1c0.1,0.1,0.2,0.3,0.2,0.6c0,0.1-0.1,0.2-0.2,0.2l0,0l0,0c0.1,0,0.2,0.1,0.2,0.1
		c0.1,0.1,0.3,0.1,0.5,0.2l0,0l0,0c0.2-0.1,0.5-0.5,0.5-0.7c0-0.2,0-0.5-0.1-0.6c0.5-1,1.4-1.6,2.7-1.6c0.2,0,0.6,0,0.8,0.1
		c0.9,0.1,1.4,0.7,2,1.3c0.2,0.2,0.5,0.5,0.7,0.7l0,0c0,0,0.1,0,0.3,0c0.1,0,0.1,0,0.2,0c0.2,0,0.3,0,0.5,0c0,0,0,0,0.1,0
		c0,0,0,0,0-0.1c-0.1-0.3-0.6-0.6-0.9-0.8c-0.3-0.1-0.7-0.3-0.8-0.6c-0.1-0.2-0.1-0.5,0-0.6c0.2-0.3,0.8-0.6,1.4-0.6
		c0.2,0,0.5,0,0.6,0.1c0.6,0.2,0.8,0.9,0.9,1.4l0,0l0,0l0,0c0.3-0.2,0.9-0.3,1.7-0.3c0.2,0,0.3,0,0.6,0c0.1,0,0.1,0,0.2,0.1
		c0.1,0,0.2,0.1,0.3,0.1C87.5,18.3,87.5,18.3,87.5,18.1C87.6,18.2,87.6,18.1,87.5,18.1C87.6,18.1,87.6,18.1,87.5,18.1z"/>
	<path class="st2" d="M77.5,35.8L77.5,35.8L77.5,35.8c0.3-0.1,0.6-0.2,0.9-0.2c0.2,0,0.5,0,0.7,0s0.5,0,0.7,0c0.3,0,0.7,0,0.9-0.2
		l0,0V35c0,0,0-0.1-0.1-0.1l0,0c-0.2,0-0.5,0.1-0.7,0.1c-0.1,0-0.3,0.1-0.5,0.1c-0.1,0-0.1,0-0.2,0c-0.2,0-0.6,0-0.8-0.1
		c-0.2,0-0.5-0.1-0.8-0.1c-0.2,0-0.5,0-0.7,0.1l0,0C77,35.4,77.2,35.6,77.5,35.8z"/>
	<path class="st2" d="M88.5,15.2c-0.1,0-0.1,0.2,0,0.1c0.3,0,0.8,0,1,0.2c0.1,0,0.2-0.1,0.1-0.1C89.3,15.2,88.9,15.2,88.5,15.2z"/>
	<path class="st2" d="M80.9,10.4c-0.1-1.5-1-1.8-1.7-1.8l0,0c-0.5,0-0.9,0.1-1.2,0.5c-0.3,0.3-0.5,0.8-0.5,1.3c0,0.9,0.7,1.8,1,2.3
		c0,0.1,0.1,0.1,0.1,0.2c0.2,0.2,0.1,0.5,0.1,0.6s-0.2,0.1-0.2,0.2h-0.1c0,0,0,0-0.1,0l0,0c0,0-0.1,0-0.1,0.1v0.1c0,0,0,0,0,0.1
		c0,0,0,0,0.1,0c0,0,0,0,0.1,0h0.1c0.1,0,0.5,0,0.8,0c0.2,0,0.6,0,0.6,0l0,0c0,0,0,0,0.1,0c0.1,0,0.2,0,0.2-0.1v-0.1c0,0,0,0-0.1,0
		l0,0c-0.1,0-0.2,0-0.2-0.1c-0.1-0.1-0.1-0.2-0.1-0.3c0-0.2,0.1-0.3,0.2-0.6c0.1-0.2,0.2-0.3,0.3-0.5c0-0.1,0.1-0.1,0.1-0.2
		c0.1-0.1,0.2-0.2,0.2-0.2l0,0c0,0,0-0.1-0.1-0.1c0,0,0,0-0.1,0l-0.1-0.1l0,0l0,0c-0.1,0.1-0.5,0.5-1,0.5l0,0l0,0
		c-0.6,0-1.3-0.5-1.3-1.3c0-0.3,0.1-0.7,0.3-0.9c0.2-0.2,0.6-0.3,0.9-0.3c0,0,0,0,0.1,0c0.8,0,1.4,0.6,1.4,1.4c0,0.1,0,0.2,0.1,0.2
		l0,0l0,0C80.9,10.6,80.9,10.6,80.9,10.4C80.9,10.5,80.9,10.4,80.9,10.4z"/>
	<path class="st2" d="M87.9,14.6c0.5,0,1,0.1,1.5,0.3c0.1,0,0.2-0.1,0.1-0.1c-0.5-0.2-1-0.3-1.5-0.3C87.7,14.5,87.7,14.6,87.9,14.6z
		"/>
	<path class="st2" d="M85.7,14.1c0.5-0.3,1-0.6,1.6-0.3c0.1,0,0.2-0.1,0.1-0.1C86.7,13.4,86,13.6,85.7,14.1
		C85.4,14.1,85.5,14.2,85.7,14.1z"/>
	<path class="st2" d="M85.1,14.1c0.3-0.6,0.9-0.9,1.6-1c0.1,0,0-0.2-0.1-0.2c-0.7,0.1-1.3,0.6-1.7,1.2C84.7,14.1,85,14.2,85.1,14.1z
		"/>
	<path class="st2" d="M86.2,12.7c0.1,0,0-0.2-0.1-0.1c-0.7,0.2-1.3,0.7-1.6,1.3c-0.1,0.1,0.1,0.1,0.2,0.1
		C85.1,13.3,85.7,12.8,86.2,12.7z"/>
	<path class="st2" d="M76.1,10.5c0.3,0.5,0.8,0.8,1.4,0.9c0.1,0,0.1-0.2,0-0.2c-0.6-0.1-0.9-0.5-1.3-0.9
		C76.1,10.1,76,10.4,76.1,10.5z"/>
	<path class="st2" d="M86.9,14.3c0.5-0.1,0.9-0.1,1.4,0.1c0.1,0,0.2-0.1,0.1-0.1c-0.5-0.2-0.9-0.2-1.5-0.1
		C86.8,14.2,86.8,14.3,86.9,14.3z"/>
	<path class="st2" d="M77.1,10.6c0.1,0,0.2-0.2,0.1-0.2c-0.3-0.1-0.6-0.3-0.8-0.7c-0.1-0.1-0.2,0.1-0.1,0.1
		C76.4,10.1,76.8,10.4,77.1,10.6z"/>
	<path class="st2" d="M69.5,12.6c-1.2,0.1-3.2,1.2-3.5,1.7v0.1l0,0l0,0c0.5-0.5,2.2-1.3,3.5-1.6C69.6,12.7,69.6,12.7,69.5,12.6
		C69.6,12.6,69.5,12.6,69.5,12.6z"/>
	<path class="st2" d="M66.9,15.3L66.9,15.3C67,15.3,67,15.3,66.9,15.3c0.6-0.7,1.6-1.4,2.4-1.8c0,0,0,0,0-0.1c0,0,0,0-0.1,0
		C68.6,13.6,67.2,14.6,66.9,15.3L66.9,15.3z"/>
	<path class="st2" d="M77.4,7.1c0,0.6,0,1,0.2,1.5c0.1,0.1,0.2,0,0.1-0.1C77.5,8.1,77.5,7.6,77.4,7.1C77.5,7,77.4,6.9,77.4,7.1z"/>
	<path class="st2" d="M86.4,33.9c0.1,0,0.1-0.1,0.3-0.2c0.1-0.1,0.2-0.2,0.3-0.3l0,0c0,0,0,0,0,0.1c0,0,0,0.1,0.1,0.1c0,0,0,0,0.1,0
		l0,0c0.1-0.1,0.1-0.3,0.1-0.7c0.1-0.2,0.1-0.6,0.2-0.8c0.1-0.2,0.2-0.6,0.3-0.8c0.2-0.3,0.5-0.8,0.6-1.3c0.1-0.2,0.1-0.5,0.2-0.8
		c0.2-0.7,0.5-1.5,0.6-2.2l0,0c0,0,0,0-0.1,0c0,0-0.1,0-0.1,0.2c0,0,0,0.1-0.1,0.1c-0.1,0.1-0.2,0.3-0.2,0.5
		c-0.1,0.1-0.2,0.3-0.3,0.6c-0.3,1.4-1,2.7-1.8,3.7c0,0,0,0,0,0.1c0,0.1,0.1,0.1,0.2,0.2c0.1,0,0.1,0.1,0.1,0.1
		c-0.1,0.2-0.2,0.3-0.3,0.6C86.6,33.2,86.4,33.4,86.4,33.9C86.2,33.8,86.2,33.8,86.4,33.9C86.2,33.8,86.4,33.9,86.4,33.9z"/>
	<path class="st2" d="M66.8,16L66.8,16C66.9,16,66.9,16,66.8,16c0.2-0.1,0.3-0.2,0.5-0.5c0.6-0.6,1.4-1.4,2.3-1.8c0,0,0,0,0-0.1l0,0
		l0,0c0,0,0,0-0.1,0l0,0C68.4,14.2,67.5,15,66.8,16L66.8,16z"/>
	<path class="st2" d="M76,11.2c0.5,0.5,1.2,0.8,1.8,1c0.1,0,0.2-0.2,0-0.2c-0.7-0.1-1.3-0.5-1.7-0.9C76.1,10.8,76,11.1,76,11.2z"/>
	<path class="st2" d="M76,11.8c0.5,0.6,1.2,0.9,2,0.9c0.1,0,0.1-0.2,0-0.2c-0.7,0-1.3-0.3-1.7-0.8C76.1,11.5,75.9,11.6,76,11.8z"/>
	<path class="st2" d="M76.2,12.7c0.3,0.1,0.6,0.3,0.9,0.3c0.3,0.1,0.7,0.2,1.2,0.2c0.1,0,0.2-0.2,0-0.2c-0.3,0-0.7-0.1-1-0.1
		s-0.6-0.2-0.9-0.3C76.3,12.4,76.1,12.7,76.2,12.7z"/>
	<path class="st2" d="M82.1,12.4c-0.2,0.3-0.6,0.6-0.9,0.8c-0.2,0.1-0.6,0.2-0.8,0.3c-0.1,0.1,0.1,0.2,0.1,0.1
		c0.3-0.2,0.7-0.3,1-0.5c0.2-0.2,0.5-0.5,0.7-0.7C82.4,12.4,82.2,12.3,82.1,12.4z"/>
	<path class="st2" d="M77.7,15.2c-0.6,0.1-1,0.6-1.4,0.9c-0.1,0.1,0.1,0.2,0.2,0.1c0.3-0.3,0.8-0.7,1.3-0.9
		C77.9,15.3,77.9,15.2,77.7,15.2z"/>
	<path class="st2" d="M78.5,15.3c-0.6,0.2-1,0.5-1.5,0.9c-0.1,0.1,0,0.3,0.1,0.2c0.5-0.3,0.9-0.7,1.4-0.8
		C78.6,15.4,78.6,15.2,78.5,15.3z"/>
	<path class="st2" d="M78.5,16.6c0.7-0.6,1.6-1,2.5-1.3c0.1,0,0-0.2-0.1-0.2c-0.9,0.2-1.8,0.7-2.5,1.3
		C78.2,16.6,78.4,16.7,78.5,16.6z"/>
	<path class="st2" d="M77,15.1c-0.5,0.1-0.9,0.3-1.3,0.7c-0.1,0.1,0.1,0.2,0.2,0.1c0.2-0.3,0.7-0.6,1.2-0.6
		C77.1,15.3,77.1,15.1,77,15.1z"/>
	<path class="st2" d="M79.8,15.2c-0.8,0.2-1.5,0.6-2.2,1c-0.1,0.1,0,0.2,0.1,0.2c0.7-0.5,1.4-0.8,2.2-1
		C79.9,15.4,79.9,15.2,79.8,15.2z"/>
	<path class="st2" d="M82.8,14.8c-1.3,0.3-2.5,0.9-3.6,1.7c-0.1,0.1,0,0.2,0.1,0.1c1-0.8,2.3-1.4,3.6-1.7C83,15,83,14.8,82.8,14.8z"
		/>
	<path class="st2" d="M81.5,33.7L81.5,33.7c-0.1-0.1-0.2-0.1-0.3-0.1c-0.3,0-0.7,0.2-0.9,0.3c-0.2,0.1-0.5,0.3-0.7,0.3
		s-0.3,0.1-0.6,0.1l0,0c-0.5,0-0.8-0.1-1.2-0.3c-0.1-0.1-0.2-0.1-0.5-0.2c0,0,0,0-0.1,0c-0.1,0.1-0.1,0.2-0.2,0.3
		c0,0.1-0.1,0.1-0.1,0.2l0,0l0,0c0.3,0.1,0.7,0.2,1.3,0.2c0.3,0,0.6,0,0.9,0c0.2,0,0.6,0,0.8,0c0.3,0,0.6,0,0.7,0.1l0,0
		c0,0,0,0,0.1,0c0.1-0.2,0.3-0.5,0.5-0.7C81.4,34,81.4,33.9,81.5,33.7L81.5,33.7z"/>
	<path class="st2" d="M81.7,27.3L81.7,27.3C81.6,27.3,81.6,27.3,81.7,27.3c-0.2,0.9-0.6,1.5-1.3,2.1c-0.2,0-0.3,0-0.6,0
		c-0.3,0-0.7,0.1-1,0.2c-0.3,0.1-0.7,0.2-1.2,0.2c-0.6-0.3-0.9-1-1.2-1.7c0,0,0,0-0.1,0l0,0c-0.1,0.6,0,1.2,0.3,1.5
		c0.2,0.3,0.2,0.6,0.3,0.7c0,0.1,0,0.2,0.1,0.2c0.1,0,0.1,0.1,0.3,0.1c0.3,0,0.9-0.1,1.3-0.2c0.1,0,0.1,0,0.2-0.1
		c0.5-0.1,0.9-0.3,1.5-0.3c0.1,0,0.2,0,0.3,0l0,0C81.4,29.4,82,28.6,81.7,27.3z"/>
	<path class="st2" d="M81.4,14.3l-0.1,0.1c-0.6,0.3-1.7,0.6-2.8,0.5c-0.9-0.1-1.6-0.7-2.7-0.6c0,0,0,0-0.1,0c0,0.1-0.1,0.1-0.1,0.2
		c0.2,0,0.5,0,0.7,0.1c0.8,0.1,1.5,0.6,2.3,0.7c1,0.1,2.1-0.1,3-0.6c0.1,0,0.1-0.1,0.1-0.1s-0.1,0-0.1-0.1
		C81.7,14.4,81.5,14.3,81.4,14.3z"/>
	<path class="st2" d="M71,16.1c-0.3,0.3-0.5,0.8-0.6,1.3c0,0.1,0.1,0.2,0.2,0c0.1-0.5,0.2-0.8,0.6-1.2C71.3,16.3,71.1,16,71,16.1z"
		/>
	<path class="st2" d="M72.1,15.7c-0.5,0.5-0.8,1-0.9,1.7c0,0.1,0.2,0.1,0.2,0c0.1-0.6,0.3-1.3,0.8-1.6
		C72.3,15.7,72.1,15.6,72.1,15.7z"/>
	<path class="st2" d="M73.1,15.3c-0.6,0.5-1.2,1-1.3,1.8c0,0.1,0.2,0.1,0.2,0c0.1-0.7,0.6-1.3,1.2-1.6
		C73.2,15.4,73.2,15.2,73.1,15.3z"/>
	<path class="st2" d="M70.3,18.9c-0.2,0.3-0.3,1.3-0.5,1.5c-0.6,2.5-0.5,5.4,0.2,7.7c0.5,1.5,1.3,3.1,2.3,4.4
		c0.8,0.9,1.5,1.7,2.4,2.5c0,0,0.8,0.7,0.9,0.7l0,0c0.1,0,0.1-0.1,0.2-0.1c0,0,0-0.1,0-0.2l0,0c-0.9-0.6-1.7-1.5-2.5-2.4l-0.1-0.2
		c-2.4-2.7-3.6-6.7-3.1-10.6c0.1-1.3,0.5-2.5,0.7-3.1v-0.1c0,0-0.1-0.1-0.2-0.1C70.4,18.8,70.3,18.8,70.3,18.9z"/>
	<path class="st2" d="M88.7,24C88.7,24,88.5,23.9,88.7,24c-0.1-0.1-0.2-0.1-0.2,0c0,0-0.2,3-1.6,5.8c-1.7,3.6-4.5,5.5-4.5,5.5v0.1
		c0,0,0,0,0.1,0l0,0c0,0,2.8-2,4.6-5.5C88.4,27,88.7,24,88.7,24z"/>
	<path class="st2" d="M75.2,15.7c-0.1,0.1,0.1,0.2,0.2,0.1c0.2-0.3,0.7-0.6,1.2-0.8c0.1,0,0-0.2-0.1-0.1
		C75.9,15,75.4,15.2,75.2,15.7z"/>
	<path class="st2" d="M74.5,14.6c-0.8,0.6-1.6,1.2-2,2.2c0,0.1,0.2,0.1,0.2,0C73,15.9,73.8,15.3,74.5,14.6
		C74.7,14.8,74.5,14.6,74.5,14.6z"/>
	<path class="st2" d="M75.3,14.6c-0.8,0.3-1.5,0.9-2,1.7c-0.1,0.1,0.1,0.2,0.2,0.1c0.5-0.7,1.2-1.3,2-1.7
		C75.6,14.8,75.4,14.6,75.3,14.6z"/>
</g>
<polygon class="st3" points="55.4,71.8 53.1,73 53.5,70.3 51.7,68.5 54.2,68.1 55.4,65.8 56.6,68.1 59.2,68.5 57.3,70.3 57.8,73 "/>
<polygon class="st3" points="44.6,71.8 42.4,73 42.8,70.3 40.9,68.5 43.5,68.1 44.6,65.8 45.9,68.1 48.4,68.5 46.6,70.3 47,73 "/>
<polygon class="st3" points="66.1,71.8 63.9,73 64.3,70.3 62.4,68.5 65,68.1 66.1,65.8 67.4,68.1 69.9,68.5 68.1,70.3 68.5,73 "/>
<g>
	<path class="st4" d="M96.8,49.2l-0.6-0.6l0,0c0,0,0,0,0,0c0,0,0,0,0,0c-0.5,0.6-1,1.3-1.5,1.9c-0.5,0.6-1,1.3-1.5,1.9
		c0,0,0,0-0.1,0.1l0,0c0,0,0,0,0,0c0,0,0,0,0,0c0,0,0,0,0,0v-3.8l-1.1,0.2v8.5l1-0.1v-4.4l0,0l3,4.4l0.9-0.4l-2.6-4.1L96.8,49.2z"/>
	<path class="st4" d="M73.6,57c0-0.1-0.1-0.1-0.1-0.2c-0.1-0.2-0.3-0.4-0.4-0.7c-0.3-0.5-0.6-1.1-1-1.6c-0.3-0.4-0.3-0.7,0-1.1
		c0.3-0.4,0.5-0.8,0.7-1.2c0.1-0.2,0.2-0.4,0.3-0.5l0,0l0,0c-0.5-0.5-3.7-2.6-4-2.7l0,0v8.7l1-0.1v-6.7l1.5,1.1l-1.2,2l2.5,3.7
		l0.7-0.5l0,0C73.7,57,73.7,57,73.6,57z"/>
	<path class="st4" d="M89.6,54.8c-0.6-1.9-1.3-3.8-1.9-5.7l0,0l-0.1,0l-2.8,8l0.9,0.4l2-5.7l0,0l1.3,4.5l-2.1-1l-0.2,0.8l0,0
		c0.4,0.3,3.7,1.9,3.9,2l0.1,0l0-0.1C90.4,56.9,90,55.9,89.6,54.8z"/>
	<path class="st4" d="M110.1,58.1c-0.4-1.1-0.7-2.2-1.1-3.2c-0.6-1.9-1.3-3.8-1.9-5.7l0,0l-0.1,0l-2.8,8l0,0l0.9,0.4l2-5.7l0,0
		l1.3,4.5l-2.1-1l-0.2,0.8l0,0C106.5,56.5,109.8,58.1,110.1,58.1L110.1,58.1L110.1,58.1z"/>
	<path class="st4" d="M2.8,49.3l-2.8,8l0.9,0.4l2-5.6c0.3,0.7,1.2,3.9,1.3,4.4l-2-1l0,0c0,0.1,0,0.1-0.1,0.2c0,0.1-0.1,0.2-0.1,0.3
		c0,0.1,0,0.1,0,0.2c0,0,0,0,0,0.1l0,0l0,0c0.4,0.3,3.7,1.9,3.9,2l0.1,0l-3.1-9.1L2.8,49.3z"/>
	<path class="st4" d="M84.9,51.8L84.9,51.8c-0.6-0.5-3.9-2.9-4.1-3l0,0l0,0c-0.1,0.5,0,8.4,0,8.6l0,0l0.9-0.1v-6.7l1.8,1.3
		c-0.1,0.1-0.1,0.2-0.2,0.2c-0.2,0.2-0.3,0.4-0.5,0.5c-0.2,0.2-0.3,0.4-0.5,0.6c-0.1,0.1-0.1,0.2-0.2,0.3l0,0l0,0c0,0.1,0,0.2,0,0.3
		c0,0.3,0,0.6,0,0.9c0,0,0,0.1,0,0.2c0,0,0,0.1,0,0.1l0,0.1l0,0C82.8,54.5,84.8,52.1,84.9,51.8L84.9,51.8z"/>
	<path class="st4" d="M14.9,51.3L14.9,51.3l-2.2,0.9c0-0.5,0-0.9,0-1.4c0-0.5,0-1,0-1.6l0,0l-1.1,0.3v8.3l1.3-0.3V57
		c0-0.3,0-0.6,0-0.9c0-0.8,0-1.6,0-2.4c0-0.2,0.1-0.4,0.3-0.5c0.5-0.3,1-0.5,1.5-0.8l0.1,0c0,0,0.2-0.1,0.2-0.2c0-0.2,0-0.4,0-0.7
		C14.9,51.5,14.9,51.4,14.9,51.3z"/>
	<path class="st4" d="M59.9,51.2L59.9,51.2c-0.4,0.2-0.7,0.3-1.1,0.4c-0.4,0.2-0.8,0.3-1.2,0.5v-3l-1.1,0.3v8.3l1.3-0.3v-0.4
		c0-0.3,0-0.6,0-0.8c0-0.8,0-1.6,0-2.4c0-0.2,0.1-0.3,0.2-0.4c0.6-0.3,1.1-0.6,1.6-0.9c0,0,0.2-0.1,0.2-0.2
		C60,51.8,60,51.5,59.9,51.2L59.9,51.2z"/>
	<path class="st4" d="M101.3,51.2l0-0.3l-0.3,0.1c-0.2,0.1-0.4,0.1-0.5,0.2c-0.1,0-0.2,0.1-0.3,0.1c-0.1,0.1-0.3,0.1-0.4,0.2
		c-0.1,0-0.1,0.1-0.2,0.1c-0.2,0.1-0.3,0.2-0.5,0.2v-2.9L98,49v8.3l1.2-0.3v-0.4c0-0.3,0-0.6,0-0.9c0-0.8,0-1.6,0-2.4
		c0-0.3,0.1-0.4,0.3-0.5c0.4-0.2,0.8-0.4,1.2-0.6c0.1-0.1,0.3-0.2,0.4-0.2c0,0,0,0,0,0c0.1,0,0.2-0.1,0.2-0.2
		C101.3,51.6,101.3,51.4,101.3,51.2z"/>
	<path class="st4" d="M23.3,48.9L23.3,48.9c-0.1,0-0.2,0-0.2,0.1c-0.1,0-0.2,0.1-0.3,0.1c-0.1,0-0.2,0.1-0.3,0.1c0,0-0.1,0-0.1,0
		l0,0l0,0c-0.1,0.7,0,8,0,8.2l0,0h3.4l0.6-1h-3V48.9z"/>
	<polygon class="st4" points="27.9,48.9 26.8,49.2 26.8,57.5 30.3,57.5 30.9,56.5 27.9,56.5 	"/>
	<polygon class="st4" points="39.9,49.7 39.3,48.9 36.9,51.7 39.4,54.8 37.9,56.9 38.6,57.7 40.9,54.8 38.3,51.7 	"/>
	<path class="st4" d="M55,49.9l-0.6-0.9l-1.8,2.5l-1.2,1.7l0,0c0.2,0.5,3,4.2,3.2,4.3l0,0l0.5-0.7l-2.5-3.6L55,49.9z"/>
	<path class="st4" d="M9.6,50L9.6,50c0-0.1-0.1-0.1-0.1-0.2c-0.1-0.1-0.1-0.2-0.2-0.3c-0.1-0.1-0.1-0.2-0.2-0.3c0,0-0.1-0.1-0.1-0.1
		l0,0l-3.1,4.2l3.3,4.4l0.6-0.7l-2.5-3.6L9.6,50z"/>
	<polygon class="st4" points="18.7,57.7 19.8,57.6 19.8,49.1 18.7,49.4 	"/>
	<path class="st4" d="M46.8,49.1c-0.1,0-0.2,0.1-0.3,0.1c-0.1,0-0.2,0.1-0.4,0.1c-0.1,0-0.1,0-0.2,0l0,0v8.4l1.1-0.2V49l0,0
		C46.9,49.1,46.8,49.1,46.8,49.1z"/>
	<path class="st4" d="M61.4,49.1l-1,0.3l0,0c0,0,0,0,0,0.1c0,0,0,0.1,0,0.1c0,2.5,0,5.1,0,7.8c0,0,0,0.1,0,0.1c0,0,0,0,0,0
		c0,0,0,0,0,0c0,0,0,0,0,0c0,0,0,0,0,0l0,0l0,0c0.1,0,0.1,0,0.2,0c0.1,0,0.3-0.1,0.4-0.1c0.1,0,0.1,0,0.2-0.1c0,0,0.1,0,0.1,0l0,0
		l0,0C61.5,56.7,61.5,49.3,61.4,49.1L61.4,49.1z"/>
	<polygon class="st4" points="15.3,57.6 16.4,57.3 16.4,49.1 15.3,49.4 	"/>
	<path class="st4" d="M102.8,48.7l-1,0.3v8.1l1-0.2l0,0C102.9,56.4,102.8,49,102.8,48.7L102.8,48.7z"/>
	<path class="st4" d="M32.8,54.3L32.8,54.3c-0.1-0.1-0.1-0.1-0.1-0.2c0-0.1,0.1-0.1,0.1-0.1l2-0.1c0.1,0,0.2,0,0.2-0.1
		c0.1-0.1,0.1-0.2,0.1-0.2l0-0.4c0-0.1,0-0.2-0.1-0.2c-0.1-0.1-0.2-0.1-0.2-0.1c0,0-1.6,0.1-1.7,0.1c0,0,0,0,0,0c-0.1,0-0.1,0-0.1,0
		c0-0.1,0-0.1,0.1-0.2c0,0,0,0,0,0c0.1-0.1,2.5-2.5,2.5-2.6c0.1-0.1,0.1-0.1,0.1-0.2c0-0.1,0-0.2-0.1-0.2l-0.3-0.3
		c-0.1-0.1-0.1-0.1-0.2-0.1c-0.1,0-0.2,0-0.2,0.1l-3.4,3.5c0,0-0.3,0.4-0.5,0.5c-0.1,0.1-0.1,0.2-0.1,0.3c0,0.1,0,0.2,0.1,0.2
		c0.1,0.1,0.5,0.5,0.5,0.5l3.5,3.2c0.1,0.1,0.1,0.1,0.2,0.1c0,0,0,0,0,0c0.1,0,0.2,0,0.2-0.1l0.3-0.3c0.1-0.1,0.1-0.2,0.1-0.2
		c0-0.1,0-0.2-0.1-0.2C35.5,56.8,32.9,54.4,32.8,54.3z"/>
	<path class="st4" d="M64.3,54.1L64.3,54.1c-0.1-0.1-0.1-0.1-0.1-0.2c0-0.1,0.1-0.1,0.1-0.1l2-0.1c0.1,0,0.2,0,0.2-0.1
		c0.1-0.1,0.1-0.2,0.1-0.2l0-0.4c0-0.1,0-0.2-0.1-0.2c-0.1-0.1-0.2-0.1-0.2-0.1c0,0-1.6,0.1-1.7,0.1c0,0,0,0,0,0c-0.1,0-0.1,0-0.1,0
		c0-0.1,0-0.1,0.1-0.2c0,0,0,0,0,0c0.1-0.1,2.5-2.5,2.5-2.6c0.1-0.1,0.1-0.1,0.1-0.2c0-0.1,0-0.2-0.1-0.2l-0.3-0.3
		c-0.1-0.1-0.1-0.1-0.2-0.1c-0.1,0-0.2,0-0.2,0.1l-3.4,3.5c0,0-0.3,0.4-0.5,0.5c-0.1,0.1-0.1,0.2-0.1,0.3c0,0.1,0,0.2,0.1,0.2
		c0.1,0.1,0.5,0.5,0.5,0.5l3.5,3.2c0.1,0.1,0.1,0.1,0.2,0.1c0,0,0,0,0,0c0.1,0,0.2,0,0.2-0.1l0.3-0.3c0.1-0.1,0.1-0.2,0.1-0.2
		c0-0.1,0-0.2-0.1-0.2C67,56.6,64.4,54.2,64.3,54.1z"/>
	<path class="st4" d="M76.3,54.1L76.3,54.1c-0.1-0.1-0.1-0.1-0.1-0.2c0-0.1,0.1-0.1,0.1-0.1l2-0.1c0.1,0,0.2,0,0.2-0.1
		c0.1-0.1,0.1-0.2,0.1-0.2l0-0.4c0-0.1,0-0.2-0.1-0.2c-0.1-0.1-0.2-0.1-0.2-0.1c0,0-1.6,0.1-1.7,0.1c0,0,0,0,0,0c-0.1,0-0.1,0-0.1,0
		c0-0.1,0-0.1,0.1-0.2c0,0,0,0,0,0c0.1-0.1,2.5-2.5,2.5-2.6c0.1-0.1,0.1-0.1,0.1-0.2c0-0.1,0-0.2-0.1-0.2l-0.3-0.3
		c-0.1-0.1-0.1-0.1-0.2-0.1c-0.1,0-0.2,0-0.2,0.1l-3.4,3.5c0,0-0.3,0.4-0.5,0.5c-0.1,0.1-0.1,0.2-0.1,0.3c0,0.1,0,0.2,0.1,0.2
		c0.1,0.1,0.5,0.5,0.5,0.5l3.5,3.2c0.1,0.1,0.1,0.1,0.2,0.1c0,0,0,0,0,0c0.1,0,0.2,0,0.2-0.1l0.3-0.3c0.1-0.1,0.1-0.2,0.1-0.2
		c0-0.1,0-0.2-0.1-0.2C79,56.6,76.3,54.2,76.3,54.1z"/>
</g>
</svg>
