<?xml version="1.0" encoding="utf-8"?>
<!-- Generator: Adobe Illustrator 20.0.0, SVG Export Plug-In . SVG Version: 6.00 Build 0)  -->
<svg version="1.1" id="Слой_1" xmlns="http://www.w3.org/2000/svg" xmlns:xlink="http://www.w3.org/1999/xlink" x="0px" y="0px"
	 viewBox="0 0 112.7 73" style="enable-background:new 0 0 112.7 73;" xml:space="preserve">
<style type="text/css">
	.st0{fill:#FFFFFF;}
	.st1{fill:#DCD6C3;}
	.st2{fill:#366A7E;}
	.st3{fill:#4D4435;}
	.st4{fill:#B17D0C;}
</style>
<path class="st0" d="M67.5,42.8c2.7,1.4,5.2,2.3,5.9,2.5c0.1,0,0.2,0.1,0.3,0.1c0.6,0.2,1.3,0.6,2.4,0.7c0.9,0.1,2.1,0.1,3.2,0.1
	c0.2,0,0.5,0,0.7,0h0.3c1.5-0.1,3-0.1,4-0.2c1.3-0.2,2.3-0.6,2.9-0.8c0.3-0.1,0.6-0.3,0.7-0.6c1.6-0.6,3.1-1.5,3.9-1.8l0.1-0.1
	c0.1-0.1,3-1.7,5-3.9c1.8-2.1,3.7-4.5,4.7-7.5l0.1-0.3c0.9-2.7,1.3-3.9,1.4-6.7c0.1-2.9-1.7-8.4-2.5-10.7c-0.9-2.4-3.6-6.5-3.7-6.6
	c-0.5-0.7-1-1.2-1.5-1.5c-0.2-0.1-0.3-0.2-0.5-0.3c-0.5-0.6-0.8-0.9-0.9-1c-0.2-0.1-0.5-0.3-0.8-0.5c-0.1-0.1-0.3-0.3-0.5-0.5
	c-1.3-0.8-2.5-1.4-3.8-1.5c-0.7-0.1-1.4-0.1-1.8-0.1h-0.3c-0.2,0-0.5,0-0.8-0.1c-0.3,0-0.7-0.1-1-0.1c-0.2,0-0.3,0-0.6,0
	c-0.1,0-0.3,0-0.5,0c-0.1,0-0.2,0-0.5,0c-0.2,0-0.5,0-0.8,0c-0.5,0-1.2-0.1-1.8-0.2c-1-0.1-2-0.2-2.9-0.2c-0.1,0-0.2,0-0.3,0
	c-0.6,0-1.4,0.1-2.2,0.1c-0.3,0-0.9,0.1-1.6,0.3c-0.2,0-0.5,0.1-0.6,0.1c-2.1,0.5-3.1,1.2-3.5,1.4c-0.5,0.3-0.7,0.8-0.8,1.2h-0.1
	c-0.8,0-2.1,1-3,1.8c-0.1,0-0.2,0.1-0.3,0.2c0,0-0.2,0.1-0.5,0.3c-0.1,0-0.1,0.1-0.2,0.2c-0.1,0-0.1,0.1-0.2,0.1
	c-0.1,0.1-0.3,0.2-0.5,0.3l-0.1,0.1c-0.1,0-0.1,0.1-0.2,0.1c-0.1,0.1-0.1,0.2-0.2,0.2c-0.2,0.2-0.2,0.3-0.3,0.5
	c0,0.1-0.1,0.1-0.1,0.2c0,0,0,0,0,0.1L63,8.4c-0.1,0.1-0.2,0.2-0.2,0.5L62.7,9l-0.1,0.1l-0.3,0.5c0,0.1-0.1,0.1-0.1,0.2l0,0L62,9.9
	c-0.1,0.1-0.2,0.2-0.2,0.3l-0.1,0.1l-0.1,0.1c-0.1,0.1-0.1,0.2-0.2,0.3l-0.1,0.1l-0.1,0.1c0,0.1-0.1,0.1-0.1,0.1l-0.1,0.1l-0.1,0.1
	l-0.1,0.1c-0.1,0.1-0.2,0.3-0.3,0.5c0,0.1-0.1,0.1-0.1,0.2c-0.1,0.1-0.1,0.1-0.1,0.2c-0.1,0.1-0.2,0.3-0.3,0.5
	c0,0.1-0.1,0.1-0.1,0.2l-0.1,0.1c-0.1,0.1-0.2,0.3-0.3,0.5c0,0.1-0.1,0.1-0.1,0.2c0,0,0,0,0,0.1l-0.1,0.1l-0.2,0.5
	c0,0.1-0.1,0.1-0.1,0.2c0,0,0,0,0,0.1c0,0-0.1,0.1-0.1,0.2c-0.1,0.1-0.1,0.3-0.2,0.5c0,0,0,0.1-0.1,0.1c0,0,0,0.1-0.1,0.1L57.9,16
	c-0.1,0.1-0.1,0.3-0.2,0.5c0,0,0,0.1-0.1,0.1l-0.1,0.1c-0.1,0.1-0.1,0.3-0.2,0.5c0,0.1,0,0.1-0.1,0.2c0,0,0,0.1-0.1,0.1
	c0,0-0.1,0.1-0.1,0.2c0,0.1-0.1,0.2-0.1,0.3l-0.1,0.1v0.1c0,0.1-0.1,0.2-0.1,0.3c0,0,0,0.1-0.1,0.1c-0.1,0.2-0.1,0.3-0.2,0.6v0.1
	l0,0c0-0.1,0-0.2,0-0.3c-0.2-3-1.2-4.6-1.6-5.8l-0.1-0.2c-0.6-1.2-1-2-2.4-3.8c-0.3-0.5-0.7-0.9-0.9-1.4c-0.9-1.3-1.6-2.2-2.1-2.7
	c-0.9-0.9-4.7-3-5.4-3.5c-2.3-1.3-6-1.7-7.6-1.8c-0.1,0-0.2,0-0.5,0c-2.2,0-6.5,0.7-8.3,1.2c-0.9,0.2-1.4,0.3-1.7,0.5
	c-0.3,0.1-0.5,0.1-0.7,0.2c-0.1,0-0.1,0-0.2,0c-0.2,0-0.6,0.1-0.8,0.2c0,0-2.1,1.2-3.1,1.6c-0.9,0.5-1.6,1-2.4,1.8
	c-0.7,0.6-1.7,1.3-2.2,1.8c-0.2,0.1-0.3,0.2-0.6,0.5c-0.1,0.1-0.2,0.3-0.3,0.5c0,0.1-0.1,0.1-0.1,0.2c-0.1,0.1-0.1,0.1-0.1,0.2
	c-0.1,0.1-0.2,0.3-0.3,0.5l-0.1,0.1l-0.1,0.1c-0.1,0.1-0.2,0.3-0.2,0.5c0,0.1-0.1,0.1-0.1,0.2c-0.1,0.3-0.2,0.5-0.2,0.5
	c-0.1,0.1-0.1,0.3-0.2,0.5c0,0.1-0.1,0.2-0.1,0.2c0,0.1-0.1,0.1-0.1,0.2c-0.1,0.1-0.1,0.3-0.2,0.5c0,0.1-0.1,0.1-0.1,0.2
	s-0.1,0.1-0.1,0.2c-0.1,0.3-0.1,0.5-0.2,0.7v0.1c0,0,0,0.1-0.1,0.2l-0.1,0.5c0,0.1,0,0.1-0.1,0.2c0,0.1-0.1,0.1-0.1,0.2L12,14.9
	c0,0.1,0,0.1,0,0.2c0,0.1,0,0.1-0.1,0.2l-0.1,0.5c0,0.1,0,0.1,0,0.2c0,0.1-0.1,0.1-0.1,0.2l0,0c-0.7,1.8-1.5,4-1.8,6.2
	c-0.2,1.4-0.1,2.4,0.2,3.3c0,0.1,0,0.1,0,0.2c0,0.2,0.1,0.5,0.1,0.7c0,0.1,0.1,0.3,0.1,0.5s0,0.3,0.1,0.5c0.1,0.2,0.1,0.3,0.2,0.6
	c0,0.1,0.1,0.2,0.1,0.2c0,0.1,0.1,0.2,0.1,0.2c0.1,0.1,0.2,0.3,0.3,0.5s0.1,0.2,0.2,0.2c0,0.1,0.1,0.2,0.1,0.2
	c0.1,0.1,0.2,0.3,0.3,0.5c0,0.1,0.1,0.1,0.1,0.2c0,0.1,0.1,0.1,0.1,0.2c0.1,0.1,0.2,0.2,0.3,0.5l0.1,0.1c0,0.1,0.1,0.1,0.1,0.2
	l0.3,0.5c0,0.1,0.1,0.1,0.1,0.1c0,0.1,0.1,0.1,0.1,0.2l0.3,0.3l0.1,0.1l0.1,0.1l0.3,0.3c0,0.1,0.1,0.1,0.2,0.2
	c0,0.1,0.1,0.1,0.1,0.2l0.2,0.3l0.1,0.1l0.1,0.1l0.3,0.3c0,0.1,0.1,0.1,0.1,0.1c0,0.1,0.1,0.1,0.1,0.2l0.3,0.3l0.1,0.1
	c0,0,0,0.1,0.1,0.1l0.3,0.3c0,0.1,0.1,0.1,0.1,0.2c0,0.1,0.1,0.1,0.1,0.2l0.3,0.5c0,0,0,0.1,0.1,0.1c0,0,0,0.1,0.1,0.1
	c0,0,0,0,0,0.1c0,0,0,0,0.1,0.1c1.4,1.8,3.9,4.8,5.8,6.1c3.6,2.5,7.4,2.7,9.7,2.8h0.2c0.6,0,1,0,1.5,0c2.2,0,3.5-0.2,4.4-0.6
	c0.2,0,0.3-0.1,0.5-0.2c0.1-0.1,0.3-0.1,0.5-0.2c0.1-0.1,0.3-0.1,0.5-0.2l0,0c0.1,0,0.2-0.1,0.2-0.1c0.1,0,0.2-0.1,0.2-0.1
	c0.1-0.1,0.2-0.2,0.5-0.3c0,0,0.1,0,0.1-0.1h0.1c0.1,0,0.2-0.1,0.5-0.1c0,0,0.1,0,0.1-0.1h0.1c0.2-0.1,0.3-0.1,0.6-0.2
	c0.1,0,0.2-0.1,0.2-0.1c3.6-0.9,6.2-4.4,7.4-6.2c0.2-0.2,0.3-0.5,0.5-0.7c0.3-0.5,0.7-1,1-1.4c1.4-1.8,2.7-3.9,3.7-6.6
	c0.1-0.3,0.2-0.7,0.3-1l0,0l0,0l0,0c0,0.2,0,0.3,0,0.6l0,0l0,0c0.1,0.9,0.2,1.5,0.6,2.3c0.2,0.5,0.3,0.9,0.3,1.4
	c0,0.1,0,0.1,0.1,0.2l0,0c0,0.1,0,0.2,0.1,0.3c0,0.1,0.1,0.2,0.1,0.3c0.2,0.8,0.9,2,2.5,3.9c0.2,0.2,0.3,0.5,0.5,0.7
	c0.3,0.5,0.7,0.9,1.6,1.8c1.2,1.4,2.5,2,4.4,2.9C66.6,42.3,67.1,42.5,67.5,42.8z"/>
<path class="st0" d="M12,52.4l-0.1,0.2l-0.6-1.3L12,52.4z"/>
<path class="st0" d="M95,52.3L95,52.3l-0.2-0.2L95,52.3z"/>
<path class="st1" d="M68.6,6.5l-2.1,0.9c0,0-1,0.7-1.5,1.3c-0.5,0.6-1.7,2.9-2.7,3.9c-0.9,0.9-1.8,2.4-2.3,3.1
	c-0.5,0.7-1.3,2.2-1.6,3.1c-0.3,0.9-0.8,1.6-0.7,5.4c0.1,3.8,0.1,4.1,0.6,5.4c0.3,0.9,0.5,1.7,0.7,2.5c0.2,0.8,1.4,2.4,2.2,3.3
	c0.8,1,0.8,1.2,2,2.4c1.2,1.3,2.5,1.8,5.2,3.1c2.7,1.3,5.1,2.2,5.8,2.4c0.6,0.2,1.3,0.6,2.3,0.7c1,0.1,2.5,0.2,3.6,0.1
	c1.5-0.1,3.1-0.1,4.1-0.2c1-0.1,2-0.5,2.3-0.7c0.5-0.2,0.6-0.6,0.6-0.6l-2,0.5l-3,0.2h-2.2l-2.4-0.3l-2.8-1l-5.4-2L66,37.9l-3.2-3.5
	l2.3-2.5l-3.8,0.7l-1-1.3l-0.2-1.2l-0.1-0.8l-0.6-1.5l0.3,0.7l0.2-3l0.2-2.7l-0.6-3.6v-0.6l1.8-2.1l2.7-2.7l2.2-2.8l0.9-1.2l3.8-3
	L68.6,6.5z"/>
<path class="st1" d="M28.8,4.1c0.6-0.1,1.2-0.3,1.7-0.5c0.7-0.1,1.4-0.1,2-0.2c1.3-0.2,2.8,0,4,0.1c0.7,0.1,1.3,0.1,1.8,0.5
	c0.5,0.2,1,0.5,1.6,0.7c1,0.6,2.2,1,3.2,1.7C43.5,6.7,44,6.9,44.3,7c0.3,0.2,0.7,0.5,1,0.7c0.3,0.2,0.8,0.3,1.2,0.5s1,0.3,1.4,0
	c-0.1-0.2-0.5-0.3-0.6-0.5C47.1,7.5,47,7.3,46.8,7c-0.2-0.5,0.3-0.3-0.1-0.7c-0.5-0.3-3-2-4.6-2.5c-0.7-0.2-1.5-0.5-2.2-0.7
	c-1-0.2-2.1-0.3-2.2-0.3c-0.6,0-0.8-0.1-1-0.1c-0.3,0-0.2-0.3-0.5-0.3c-0.8-0.1-1.5,0.2-2.2,0.2c-0.8,0-1.5,0-2.2,0.2
	c-0.6,0.1-1.4,0.5-2,0.7c-0.1,0.1-1.6,0.8-1.3,1"/>
<path class="st1" d="M22.8,10.9c0-0.1-0.2,0.3-0.5,0.6C22.1,12,22.1,12,22,12.3c-0.2,0.7-0.3,1.5-0.2,2.2c0.1,0.6,0.3,0.8,0.7,1.3
	c0.5,0.6,1.2,0.7,1.7,0.9c1.2,0.5,2.2,0.9,3.3,1.2c0.7,0.1,1.2,0,1.6-0.5c0.2-0.1,0.3-0.3,0.5-0.6s0-0.7,0.1-1
	c0.1-0.9,0.2-2.1,0.3-3c0-0.2,0-0.6-0.1-0.7s-0.3-0.3-0.5-0.5c-0.3-0.5-0.7-0.3-1.3-0.5c-0.5-0.1-0.8-0.3-1.3-0.5
	c-0.5-0.2-0.9-0.3-1.5-0.5s-1.2-0.1-1.6,0C23.6,10.5,23.3,10.8,22.8,10.9"/>
<path class="st1" d="M39.1,9.6c0,0.1,0.1,0.6,0.2,0.7c-0.8,0-0.7,0.9-0.6,1.4c0,0.3,0.1,0.6,0.2,0.9c0,0.3,0.1,0.6,0.1,0.9
	c0.2,1,0.7,2.1,0.9,3.1c0.1,0.6,0.6,0.9,1.2,1.2c0.2,0.1,0.6,0.1,0.9,0.1s0.7,0.1,1,0.1c0.1,0,0.3,0,0.5,0c0.1,0,0.2,0.1,0.3,0.1
	c0.3,0.1,0.7,0,1-0.1c0.6-0.1,0.7-0.6,1.2-1c0.1-0.1,0.3-0.1,0.3-0.2c0.1-0.1,0.1-0.3,0.2-0.5c0.2-0.3,0.2-0.7,0.2-1.2
	c0-0.3,0.1-0.7,0.2-1c0.1-0.2,0.3-0.9,0.1-1.2c0.1-0.1,0.1-0.5,0.1-0.7c0-0.1,0.1-0.2,0.1-0.3s-0.1-0.2-0.1-0.5
	c0-0.6,0.5-0.9,0.5-1.6s-0.6-0.6-0.9-0.9c-0.2-0.2-0.3-0.3-0.7-0.5c-0.2-0.1-0.5-0.2-0.7-0.2c-1.2-0.5-2.7-0.6-3.8-0.2
	c-0.5,0.1-1,0.3-1.5,0.5c-0.2,0.1-0.5,0.3-0.7,0.5C39.4,9.3,39.1,9.3,39.1,9.6"/>
<path class="st1" d="M41.5,23.2c0.2,1.3,1.8,6.6,2,6.9c0.1,0.3,0.3,0,0.6-0.1c0.5-0.1,0.9-0.2,1.4-0.5c0.2-0.1,0.3-0.2,0.6-0.3
	s0.2-0.3,0.5-0.5c0-0.2,0.1-0.5,0.1-0.7c0-0.2,0.1-0.5,0.1-0.7c0-0.2,0-0.6,0-0.8c0-0.2-0.1-0.5-0.1-0.7c0-0.5,0.3-0.9,0.5-1.4
	c0-0.3,0-0.8,0-1.6c0-0.5-0.6-0.6-1-0.6c-0.2,0-0.6,0-0.8,0.1c-0.2,0-0.6,0.1-0.8,0.1c-0.5,0.1-0.9,0.3-1.4,0.5c-0.5,0.1-1,0-1.6,0
	L41.5,23.2z"/>
<path class="st1" d="M33.2,24.3c-0.1,0.2-0.2,0.5-0.3,0.7c-0.2,0.7-0.5,0.9-0.7,1.6c-0.2,0.6-0.6,1.5-0.9,2.1
	c-0.2,0.5-0.2,0.6-0.5,1c-0.2,0.5-1.4,3-0.1,2.8c0.3,0,0.7-0.2,0.9-0.1c0.1,0,0.2,0.2,0.3,0.2c0.1,0,0.3,0,0.6,0
	c0.6,0.1,1.3,0.1,1.8,0.2c0.7,0.1,1.3-0.2,1.8-0.2c0.1,0,0.3,0.1,0.5,0.1c0.1,0,0.1-0.1,0.1-0.1c0.1,0,0.1,0.1,0.1,0.1
	c0.3,0,0.7,0,1,0c0.6,0.1,1.2,0.3,1.3-0.3c0.1-0.5-0.2-1-0.3-1.6c-0.2-0.6-0.5-0.9-0.7-1.5c-0.2-0.6-0.3-1.2-0.6-1.7
	c-0.2-0.6-0.5-1.2-0.7-1.7c-0.1-0.6-0.3-1.2-0.7-1.6c-0.3-0.6-0.8-0.9-1.3-1.3c-0.5-0.3-1,0-1.4,0.3C33.4,23.6,33.3,24,33.2,24.3z"
	/>
<path class="st1" d="M23.2,21.9c-1.6-0.3-0.9,6.2-0.5,7c0.5,0.8,1.3-0.3,1.7-0.7c0.6-0.6,1-1,1.5-1.6c0.7-1,1.4-2,1.7-3
	c0.3-0.9-1.4-1.2-2-1.3c-0.5-0.1-1,0.1-1.6,0c-0.2,0-0.5-0.1-0.7-0.2c-0.2,0-0.5-0.2-0.7-0.2"/>
<path class="st1" d="M79.4,7c-0.2,0.2-0.5,0.6-0.7,0.8c-0.1,0.1-0.2,0.3-0.3,0.5c0,0.1,0,0.2,0,0.3c0,0,0,0,0,0.1c0,0-0.1,0-0.1,0.1
	c-0.1,0.3-0.3,0.7-0.3,1.2c0,0.5,0,0.8,0.2,1.2c0.1,0.3,0.2,0.7,0.5,1c0.2,0.3,0.5,0.6,0.6,0.9c0.1,0.1,0.2,0.3,0.3,0.5
	c0.1,0.1,0.2,0.3,0.2,0.5h0.1c0.1,0.2,0.2,0.3,0.3,0.6c0.1,0.2,0.2,0.5,0.2,0.7c0,0.6-0.1,0.9-0.3,1.4c-0.2,0.3-0.6,0.7-1,0.8
	c-0.2,0.1-0.5,0.1-0.6,0.2c-0.2,0.1-0.5,0.2-0.6,0.3c0,0.1-0.3,0.3-0.5,0.6c-0.1,0.2-0.2,0.5-0.3,0.7c0,0.2-0.1,0.6-0.1,0.8
	c0,0.3,0.1,0.6,0.2,0.8c0.1,0.5,0.2,1,0.2,1.6c0,0.2-0.1,0.5-0.2,0.7c0,0.8,0,1.5-0.1,2.3c0,0.2,0,0.5-0.1,0.7
	c-0.1,0.1-0.1,0.3-0.2,0.5c-0.2,0.3-0.3,0.7-0.5,1.2c0,0.2,0,0.6,0.1,0.7c0.1,0.1,0.2,0.5,0.3,0.5c0.1,0.3,0.5,0.7,0.6,1
	c0.2,0.5,0.2,0.8,0.1,1.3c-0.1,0.5-0.1,1-0.1,1.5s-0.1,1,0,1.5c0,0.2,0.1,0.5,0.1,0.6c0.1,0.2,0,0.5,0.1,0.7c0,0.5,0,0.9,0.1,1.4
	c0.1,0.3,0.5,0.7,0.7,0.9c0.3,0.2,0.5,0.7,0.6,1c0.2,0.9,0.2,2,1,2.5c0.2,0.1,0.5,0.2,0.7,0.3c0.3,0.1,0.6,0,0.8,0.1
	c0.5,0.1,0.9,0,1.4,0.1c0.6,0.1,1-0.2,1.5-0.3c0.5-0.1,0.9-0.5,1.4-0.7c0.5-0.2,0.9-0.7,1.4-1c0.3-0.2,0.8-0.6,1.3-0.7
	c0.1,0,0.1,0,0.3,0c0.1,0,0.2-0.1,0.3-0.2c0.2-0.1,0.3-0.2,0.6-0.3c0.2-0.2,0.6-0.5,0.8-0.6c0.3-0.3,0.6-0.6,0.9-0.9
	c0.2-0.2,0.5-0.5,0.6-0.8c0.1-0.2,0.3-0.6,0.5-0.8c0.2-0.5,0.7-0.8,1-1.2c0.5-0.5,0.9-0.9,1.4-1.3c0.5-0.5,1.2-0.8,1.5-1.3
	c0.3-0.5,0.6-1.2,0.7-1.6c0.1-0.5,0.3-1,0.6-1.5c0.5-1,0.3-2.2,0.5-3.3c0.1-0.6,0.3-1,0.6-1.6c0.1-0.2,0.1-0.5,0.2-0.7
	c0.1-0.2,0-0.5,0.1-0.8c0.1-0.6,0.7-0.6,1.2-0.6c0.2,0,0.3,0,0.6,0.2c0.2,0.1,0.2,0.3,0.2,0.6c0.2,0.9,0.2,2,0.2,3
	c0,0.5-0.1,0.9-0.3,1.4c-0.1,0.5-0.2,0.9-0.3,1.4c-0.1,0.9-0.5,1.6-0.8,2.4c-0.1,0.2-0.2,0.3-0.3,0.6c-0.1,0.2-0.1,0.5-0.3,0.6
	c-0.3,0.3-0.3,0.7-0.6,1s-0.3,0.7-0.6,1c-0.2,0.3-0.6,0.7-0.8,1c-0.1,0.1-0.2,0.3-0.2,0.5c-0.1,0.3-0.5,0.6-0.6,0.8h-0.1
	c0,0.1-0.2,0.3-0.3,0.5c-0.1,0.1-0.2,0.2-0.3,0.3c-0.2,0.2-0.3,0.6-0.6,0.8c-0.2,0.2-0.5,0.5-0.7,0.7c-0.2,0.2-0.6,0.5-0.9,0.7
	c-0.6,0.5-1.3,0.8-1.8,1.3c-0.5,0.3-1.2,0.6-1.6,0.9c-0.5,0.3-1,0.5-1.6,0.8c-0.5,0.2-0.9,0.3-1.4,0.6c-0.8,0.3-1.8,0.3-2.7,0.6
	c-0.2,0-0.5,0.1-0.7,0.1c-0.2,0-0.5,0.1-0.7,0.1c-0.5,0-0.9,0.2-1.4,0.1c-0.2,0-0.5-0.1-0.7-0.1c-0.2,0-0.5,0-0.7,0
	s-0.3-0.1-0.6-0.1c-0.1,0-0.1-0.1-0.3-0.1c-0.1,0-0.2,0-0.5,0.1c-0.9,0-2-0.2-2.8-0.6c-0.5-0.2-0.8-0.3-1.3-0.5
	c-0.2-0.1-0.5-0.2-0.7-0.3c-0.2-0.1-0.6-0.2-0.8-0.3c-0.2-0.1-0.5-0.2-0.7-0.3c-0.2-0.1-0.5-0.3-0.7-0.5c-0.2-0.1-0.5-0.2-0.7-0.2
	c-0.2-0.1-0.5-0.3-0.6-0.5c-0.3-0.2-0.7-0.5-1-0.6c-0.2-0.1-0.3,0-0.5-0.1c-0.1-0.1,0-0.1-0.1-0.2c-0.2-0.5-0.2-0.9-0.2-1.5
	c0-0.6-0.2-1.4-0.2-2c0-0.2-0.1-0.5-0.2-0.7s0-0.6,0-0.8c-0.1-0.7-0.2-1.4-0.3-2c-0.1-0.5-0.2-0.9-0.3-1.4c-0.1-0.6-0.1-1.2-0.3-1.6
	c-0.3-1-0.9-2.1-1.4-3.1c-0.3-0.8-0.8-1.7-1.2-2.5c-0.3-0.7-0.7-1.4-0.8-2.2c-0.1-0.7-0.5-1.4-0.5-2.1c0-0.3-0.1-0.6-0.1-0.9
	c0-0.3,0.1-0.7,0.2-1c0.3-0.7,0.6-1.3,1-1.7c0.2-0.2,0.5-0.6,0.8-0.8c0.3-0.3,0.7-0.6,1-0.9c0.6-0.6,0.9-1.2,1.5-1.7
	c0.5-0.5,0.8-0.9,1.4-1.4c0.5-0.3,0.9-0.8,1.4-1.2c0.7-0.3,1.4-0.7,2.1-1.2c0.5-0.2,0.9-0.5,1.3-0.7c0.3-0.2,0.8-0.3,1-0.6
	c0.3-0.3,0.5-0.7,0.8-1c0.3-0.5,1-0.7,1.5-0.9c0.7-0.2,1.4-0.5,2.1-0.5c0.2,0,0.5,0,0.8,0.1c0.1,0,0.2,0,0.3,0.1s0.1,0.1,0.3,0.2
	c0.1,0.3,0.1,0.5-0.2,0.7c-0.2,0.1-0.5,0.1-0.7,0.3c-0.1,0.1-0.1,0.2-0.1,0.2C79.6,6.8,79.5,6.9,79.4,7z"/>
<path class="st1" d="M26.9,3.5c0,0-3.8,2.3-7.4,5.1c-2.3,1.8-3.3,2.7-3.9,4.7c-0.6,2-2,6.1-2.2,7.7c-0.2,1.6,1.2,2.9,1.5,3.9
	c0.3,1.2,0.5,2.1,0.8,2.2c0.3,0.1,2.4,1.4,2.4,1.4s-1.7,1.6-1.2,2.4c0.3,0.5,2.8,4,3.5,5.1s2.7,3.6,4,4.5c1.4,1,4.1,0.9,6.5,1.3
	c2.4,0.3,14.4-4.4,15.6-4.7c1.2-0.3,6.3-14.6,6.8-15.6c1.8-3.6,1,5.8,1,5.8l-2.1,4.4l-2.7,3.7c0,0-3,5.8-7.5,6.6
	c-0.7,0.1-1.7,0.7-2.3,1c-0.6,0.5-0.8,0.5-0.9,0.6c-0.1,0.1-0.6,1-5.9,0.8c-2.2-0.1-5.8-0.1-9.1-2.4c-1.7-1.3-4.4-4.3-5.6-6.1
	c-1.3-1.8-2.4-4.3-3.9-6.3c-1.4-2.1-3.3-3.5-2.9-6.7c0.6-3.2,2-6.3,2.8-8.8c0.8-1.6,2-3.8,3.1-5.2c0.5-0.6,2.5-2.2,3-2.4
	C24.4,3.6,26.9,3.5,26.9,3.5z"/>
<g>
	<path class="st2" d="M41.8,24.6c0,0.1,0.1,0.2,0.1,0.3c1.8-0.1,3.5-0.9,5-2c0-0.1,0-0.2-0.1-0.3C45.3,23.7,43.7,24.6,41.8,24.6z"/>
	<path class="st2" d="M42.2,25.7c1.7-0.2,3.3-0.9,4.7-1.8v-0.1c0-0.1,0-0.2,0-0.3c-1.5,1-3.1,1.6-4.8,1.8
		C42.1,25.5,42.1,25.6,42.2,25.7z"/>
	<path class="st2" d="M42.2,23.2c1.2,0.1,2.1-0.2,2.9-0.6c0.6-0.2,0.8-0.2,0.9-0.2c-1.3,0.9-2.8,1.6-4.4,1.6c0,0.1,0.1,0.2,0.1,0.5
		c1.7-0.1,3.3-0.9,4.8-2c0,0,0.1,0,0.1,0.1c0.1,0.1,0.1,0.2,0.1,0.3v-0.7l0,0c-1.8,0.1-4.3-0.1-5.6-0.1l0.3,1.2
		C41.6,23.2,41.8,23.2,42.2,23.2z"/>
	<path class="st2" d="M36.1,19c-0.2-2-0.7-4-1-5.8c0,0.2-0.8,4.5-1.2,5.8C34.5,19,35.5,19.1,36.1,19z"/>
	<path class="st2" d="M28.9,33.3c0.1-0.2,3.2-8.1,3.5-8.5l0,0c0.6-2.9,2.4-12.4,2.4-12.4c0-0.2-0.2-1.3-0.3-2.3c-0.2,0-0.3,0-0.5,0
		c-0.3,1.7-2.5,13.8-2.8,14.8c-0.3,1.2-2.9,7.7-3.2,8.6C28.1,33.3,28.7,33.3,28.9,33.3z"/>
	<path class="st2" d="M46.8,24.3c-0.6,0.5-1.2,0.8-1.8,1.2c-0.8,0.3-1.7,0.6-2.7,0.7c0,0.1,0.1,0.2,0.1,0.5c0.9-0.1,1.8-0.3,2.7-0.8
		c0.6-0.2,1-0.6,1.5-0.8c0,0.1-0.1,0.2-0.1,0.3c-0.5,0.3-1,0.6-1.6,0.8c-0.8,0.3-1.6,0.7-2.4,0.9c0,0.1,0.1,0.2,0.1,0.3
		c0.7-0.2,1.4-0.5,2.1-0.7c0.6-0.2,1.2-0.6,1.7-0.9c0,0,0,0,0,0.1c0,0.1,0,0.2-0.1,0.3c-0.5,0.3-1,0.6-1.6,0.9
		c-0.6,0.3-1.3,0.6-2,0.7c0,0.1,0.1,0.2,0.1,0.3c0.7-0.1,1.3-0.3,2-0.7c0.5-0.2,0.9-0.5,1.4-0.7c0,0.1,0,0.2-0.1,0.2
		c-1,0.7-2.1,1-3.2,1.3c0,0.1,0.1,0.2,0.1,0.3c1-0.2,2.1-0.6,3-1.2c0,0,0,0,0,0.1v0.1C45,28.4,44,28.8,43,29c0,0.2,0.1,0.3,0.1,0.5
		c0.9-0.2,1.7-0.6,2.5-1c0,0.1-0.1,0.2-0.1,0.3c-0.7,0.5-1.5,0.8-2.3,1c0.1,0.1,0.1,0.2,0.2,0.2c-0.1,0-0.1,0-0.1,0l0.9,3.2l2.9-3
		l-0.2-6.1C46.9,24.1,46.9,24.2,46.8,24.3z"/>
	<path class="st2" d="M54.5,19.5c-0.2-2.9-1.2-4.4-1.6-5.4s-0.9-1.7-2.2-3.6c-1.3-1.7-2.3-3.2-2.9-3.8s-3.1-2.1-5.1-3.1
		c-1.8-1-5.2-1.5-6.9-1.6c-1.7-0.1-6.3,0.6-8.2,1.2c-1.8,0.5-2.2,0.6-2.3,0.6C25.5,3.8,26,3.9,26,4c0,0.1-0.3,0.1-0.7,0.2
		c-0.7,0.1-2.3,1.2-3.8,2c-1.5,0.8-3,2.2-3.9,3.7s-1.6,3.7-1.8,4.7c-0.2,1-1.2,3.8-1.7,5.2c-0.6,1.4-0.6,3.3-0.6,3.7
		c0,0.3,0.5,0.6,0.6,0.9c0.2,0.3,0.1,1.2,0.1,1.3c-0.1,0.1-0.3-0.6-0.6-1c-0.2-0.5-0.3-1-0.2-2.4c0.1-1.3,0.6-2.9,0.7-3.5
		c0.2-0.6,1-3,1.5-5c0.6-2,2.1-4.6,2.7-5.4c0.8-0.8,2.5-2,3.5-2.4c0.9-0.6,2.9-1.7,2.9-1.7V3.8c0,0-2.1,1.2-3.2,1.7
		c-1,0.5-1.7,1.3-3,2.5c-0.5,0.5-0.8,0.9-1.2,1.3l-0.3-0.2c-0.1,0.1-0.2,0.2-0.3,0.3l0.3,0.2c-0.1,0.1-0.1,0.2-0.2,0.3l-0.3-0.2
		c-0.1,0.2-0.1,0.3-0.2,0.6l0.5,0.2c0,0.1-0.1,0.2-0.1,0.3l-0.6-0.3c-0.1,0.1-0.1,0.2-0.2,0.5l0.5,0.3c0,0,0,0.1-0.1,0.1
		c0,0.1-0.1,0.2-0.1,0.3l0,0l-0.6-0.3c-0.1,0.1-0.1,0.3-0.2,0.5l0.6,0.3c0,0.1-0.1,0.2-0.1,0.3l-0.7-0.2c-0.1,0.1-0.1,0.3-0.2,0.5
		l0.7,0.2c0,0.1-0.1,0.3-0.1,0.5l-0.8-0.2c-0.1,0.1-0.1,0.3-0.2,0.5l0.8,0.2c0,0.1-0.1,0.2-0.1,0.3l-0.6-0.3c0,0.1-0.1,0.3-0.1,0.5
		l0.8,0.2c0,0.1-0.1,0.3-0.1,0.5L13.9,15c0,0.1-0.1,0.3-0.1,0.5l0.8,0.2l0,0c0,0.1,0,0.2-0.1,0.3l-0.8-0.2c0,0.1-0.1,0.3-0.1,0.5
		l0.8,0.2c0,0.1-0.1,0.3-0.1,0.5l-0.9-0.2c0,0.1-0.1,0.3-0.1,0.5l0.8,0.2c0-0.1,0.1-0.2,0.1-0.2c-0.3,1.2-0.7,2.7-0.8,3.5
		c-0.1,0.5-0.2,1.2-0.3,1.8c0-0.1,0-0.1,0-0.2L12.1,22c0,0.1-0.1,0.3-0.1,0.5l0.9,0.2c0,0.1,0,0.2,0,0.3l-1-0.1c0,0,0,0,0,0.1
		s0,0.2-0.1,0.5l1,0.1c0,0.1,0,0.3,0,0.5l-1-0.1c0,0.1,0,0.3,0,0.5l1,0.1c0,0.1,0,0.2,0,0.3l-1,0.1c0,0.2,0,0.3,0,0.5l1-0.1v0.1
		c0,0.1,0,0.2,0.1,0.3l-1.2,0.1c0,0.1,0,0.3,0.1,0.5l1.2-0.1c0,0.1,0.1,0.2,0.1,0.3L12,27.1c0,0.1,0.1,0.3,0.2,0.5l1.2-0.5
		c0.1,0.1,0.2,0.2,0.2,0.3l-1.3,0.5c0.1,0.1,0.1,0.3,0.2,0.5l1.3-0.6c0.1,0.1,0.1,0.1,0.2,0.2l-1.3,0.8c0.1,0.1,0.2,0.2,0.2,0.5
		l1.6-1c0.3,0,0.6,0,0.6,0c0.1,0,0.2,0.1,0.5,0.5s0.1,0.7,1,1.8c0.9,1.2,1.3,1.3,1.7,1.8c0.5,0.6,0.7,1.4,1.4,2.4
		c0.7,1.2,2.1,2.4,3,3.3c0.9,0.9,2.5,2.4,3.6,3c1,0.6,2.9,0.8,4.3,1.4c1.4,0.6,4.1,0.2,5.5,0.1c1.4-0.1,2.5-0.8,3.3-1.2
		c0.7-0.3,2.3-0.9,3.3-1.3c1-0.3,1.8-0.9,2.9-1.6c1-0.7,2-1.8,2.7-2.7c0.7-0.8,1.4-2,1.8-2.8c0.5-0.7,1.2-1.6,1.6-2.7
		c0.6-1,0.7-1.4,0.9-2.1c0.2-0.6,0.5-1.5,0.5-2.5c0.1-1,0.5-1.4,0.5-2.4c0.1-1-0.5-1.5-0.5-2.4c0-0.9,0-1.8,0-2.7
		c-0.1-0.8-0.2-1.6-0.6-2c-0.3-0.5-0.3-0.8-0.7-1.6c-0.3-0.8-0.6-0.9-1-1.5c-0.3-0.6-0.5-0.9-1-2.1c-0.6-1.2-1-1.8-1.5-2.3
		c-0.5-0.5-0.8-0.6-1.3-0.9c-0.5-0.3-1-0.9-1.7-1.5c-0.6-0.6-1.3-0.9-2.1-0.9s-2-0.5-2.9-0.8c-0.8-0.3-2-1.3-2.7-1.5
		c-0.6-0.2-1.3-0.5-1.6-0.6c0,0-0.1,0-0.2,0c1.5,0.1,3,0.3,4,0.6c2,0.3,5,2.1,5.6,2.5c0.7,0.5,3,2.4,3.6,3.1c0.6,0.8,1.5,2.3,1.8,3
		c0.3,0.7,1.2,1.3,2,3.2c0.9,2,0.8,3.2,0.8,3.9c0.1,0.7,0.3,3.2,0.2,4.7c-0.1,1.5-0.3,2.4-0.7,3.8c-0.3,1.3-0.6,2-1.2,3
		c-0.6,1-0.6,1-1.3,2.2s-2,3-2.3,3.3s-0.7,0.7-1.3,1.3c-0.6,0.7-1,1.4-1.8,2c-0.7,0.5-1.4,0.3-2.7,1c-1.4,0.7-1.4,1.3-3.9,2.1
		c-2.5,0.8-5.4,0.6-6.6,0.6c-1.2-0.1-1.5-0.3-2.8-0.6s-2.9-0.8-3.7-1.4c-0.8-0.5-1-1-1.6-1.5c-0.6-0.5-1.5-1-1.8-1.5
		c-0.3-0.3-0.7-0.8-1.6-2.1c-1-1.4-2.5-3.3-3.1-4.4c-0.6-1-1.8-2-2-1.8c-0.1,0,0,0.2,0.2,0.3l-1.3,0.9c0.1,0.1,0.2,0.2,0.3,0.3
		l1.4-0.9l0.1,0.1l0.1,0.1l-1.3,0.9c0.1,0.1,0.2,0.2,0.3,0.3l1.3-0.9c0.1,0.1,0.2,0.2,0.2,0.3L16,32.4c0.1,0.1,0.2,0.2,0.3,0.3
		l1.3-0.9c0.1,0.1,0.1,0.2,0.2,0.2L16.6,33c0.1,0.1,0.2,0.2,0.3,0.3l1.3-0.9c0.1,0.1,0.2,0.2,0.2,0.3l-1.3,0.9
		c0.1,0.1,0.2,0.2,0.3,0.3l1.3-0.9c0,0.1,0.1,0.1,0.2,0.2l-1.2,0.9c0.1,0.1,0.2,0.2,0.3,0.3l1.2-0.9c0.1,0.1,0.2,0.2,0.2,0.3
		l-1.2,0.9c0.1,0.1,0.1,0.2,0.2,0.3c0,0,0,0.1,0.1,0.1l1.2-0.9c0.1,0.1,0.1,0.2,0.2,0.2l-1.3,0.9c0.1,0.1,0.2,0.2,0.3,0.3l1.3-0.9
		c0.1,0.1,0.2,0.2,0.2,0.3l-1.3,0.9c0.1,0.1,0.2,0.2,0.3,0.3l1.3-0.8l0,0c0.2,0.3,0.6,0.7,0.8,1l-1.2,0.9c0.1,0.1,0.2,0.2,0.3,0.3
		l1.2-0.8c0.1,0.1,0.1,0.1,0.2,0.2l-1,0.9c0.1,0.1,0.2,0.2,0.3,0.3l1-0.8c0.1,0.1,0.2,0.2,0.3,0.3l-1,0.8c0.1,0.1,0.2,0.2,0.3,0.3
		l1-0.8l0.1,0.1l-0.8,1c0.1,0.1,0.2,0.2,0.3,0.3l0.8-1c0.1,0.1,0.2,0.2,0.3,0.3l-0.8,1c0.1,0.1,0.2,0.2,0.3,0.3l0.8-1
		c0.1,0,0.1,0.1,0.2,0.1l-0.6,1.2c0.1,0.1,0.2,0.1,0.2,0.2l0.1,0.1l0.6-1.2c0.1,0.1,0.2,0.2,0.3,0.2L25,41.7
		c0.1,0.1,0.2,0.1,0.5,0.2l0.6-1.2c0.1,0,0.2,0.1,0.2,0.1l-0.6,1.2c0.1,0.1,0.3,0.1,0.5,0.2l0.6-1.2c0.1,0.1,0.2,0.1,0.5,0.2
		l-0.6,1.2c0.1,0.1,0.3,0.1,0.5,0.2l0.6-1.2c0.1,0,0.2,0.1,0.2,0.1l-0.3,1.2c0.1,0,0.3,0.1,0.5,0.1l0.3-1.2c0.7,0.2,1.5,0.5,2.2,0.6
		L30,44c0.1,0,0.3,0,0.5,0.1l0.1-1c0.1,0,0.2,0,0.3,0v1c0.1,0,0.3,0,0.5,0v-1c0.1,0,0.3,0,0.5,0v1c0.2,0,0.3,0,0.5,0v-0.9
		c0.1,0,0.2,0,0.3,0v0.9c0.1,0,0.3,0,0.5,0v-0.9c0.1,0,0.3,0,0.5,0v0.9c0.1,0,0.3,0,0.5,0v-0.9c0.1,0,0.2,0,0.3,0V44
		c0.2,0,0.3,0,0.5,0v-0.8c0.1,0,0.3,0,0.5,0V44c0.2,0,0.3,0,0.5,0v-0.8c0.1,0,0.2,0,0.3,0V44c0.2,0,0.3,0,0.5,0v-0.8
		c0.1,0,0.3,0,0.5,0v0.7c0.2,0,0.3,0,0.5-0.1v-0.7c0.1,0,0.2,0,0.3,0v0.6c0.2,0,0.3-0.1,0.5-0.1V43c0.1,0,0.1,0,0.2,0
		c0.1,0,0.2,0,0.2-0.1v0.3c0.1,0,0.1-0.1,0.1-0.1C39,43,39.1,43,39.2,43v-0.2c0.1,0,0.2-0.1,0.3-0.1v0.2c0.1,0,0.2-0.1,0.3-0.2
		c0,0,0.1-0.1,0.2-0.1v-0.2c0.1-0.1,0.3-0.2,0.5-0.3v0.2c0.1-0.1,0.3-0.1,0.5-0.2v-0.3c0.1,0,0.2-0.1,0.3-0.1V42
		c0.1-0.1,0.3-0.1,0.5-0.2v-0.5c0.1-0.1,0.3-0.1,0.5-0.2v0.3c0.1-0.1,0.3-0.2,0.5-0.2v-0.2c0.1,0,0.2-0.1,0.3-0.1V41
		c0.2-0.1,0.5-0.1,0.5-0.1v-0.2c0.6-0.2,1.3-0.6,2-1c0.5-0.3,1-0.9,1.6-1.5c1.2-1.3,2.3-3,3.3-4.3c1.5-1.8,2.5-4,3.5-6.2
		C54.9,26.2,54.9,22.5,54.5,19.5z M33.5,2.7c0.8-0.1,1.5-0.1,2.3-0.1c-0.3,0-0.7,0-0.7,0s0.1,0.5-0.2,1c-0.2,0.7-0.5,1-1.4,1.5
		c-0.9,0.5-1.7,0.2-2.9-0.2C30,4.6,29.3,4,29,3.6C29,3.6,31.1,2.9,33.5,2.7z M25.2,10.8c0.7,0,1.5,0.2,2.1,0.5c-0.3,0-0.7,0-1-0.1
		c-0.7-0.1-1.5-0.2-2.2-0.5C24.4,10.8,24.9,10.8,25.2,10.8z M25.9,11.6c0.9,0.1,1.8,0.1,2.8,0.1c0.3,0.1,0.7,0.2,0.9,0.3
		c-1,0-2.1,0-3.2-0.1c-0.2,0-0.6-0.1-0.8-0.1c-0.9-0.1-2-0.3-2.8-0.8l0,0c0,0,0.2-0.1,0.5-0.1C24.1,11.3,25,11.5,25.9,11.6z
		 M46.8,12.1c0.1,0.8,0.1,1.6-0.1,2.4c-0.2,1-0.8,2.1-1.5,2.9c-0.2,0-0.5,0.1-0.7,0.1c0.5-0.5,0.9-1,1.2-1.7
		C46.3,14.6,46.7,13.6,46.8,12.1L46.8,12.1z M46.3,12.8L46.3,12.8c-0.1,1-0.5,2-0.9,2.9c-0.3,0.7-0.9,1.3-1.4,1.8
		c-0.3,0-0.6,0-0.9,0c0.6-0.5,1.2-1,1.7-1.7C45.4,15,46,13.9,46.3,12.8z M45.9,13c-0.3,0.9-0.8,1.8-1.4,2.5c-0.6,0.7-1.3,1.4-2,1.8
		c-0.3,0-0.7-0.1-1-0.1c1-0.5,2-1.2,2.8-2c0.6-0.6,1-1.4,1.5-2.3C45.8,13,45.8,13,45.9,13z M45.3,13.1C45,13.8,44.5,14.5,44,15
		c-0.9,0.9-2.1,1.7-3.2,2.2c-0.1,0-0.2-0.1-0.2-0.1s0,0-0.1-0.1c1-0.3,2.1-0.9,3-1.7C44.1,14.6,44.7,13.9,45.3,13.1
		C45.2,13.1,45.3,13.1,45.3,13.1z M44.7,13.1c-0.5,0.8-1.2,1.5-1.8,2c-0.8,0.6-1.7,1.2-2.8,1.5c-0.1-0.1-0.2-0.3-0.3-0.6
		c1.3-0.3,2.5-0.9,3.7-1.8c0.3-0.3,0.7-0.7,1-1.2C44.6,13.1,44.7,13.1,44.7,13.1z M41.1,8.9c0.5-0.1,0.5-0.1,0.5-0.1s0,0.1,0,0.2
		V8.9C41.3,9,40.8,9,40.5,9C40.8,9,41,8.9,41.1,8.9z M38,8.5c0.1,0,0.8-0.2,1.4-0.2c0,0.2,0,0.5,0,0.9c-0.6,0.1-1.3,0.2-2,0.3
		c0.3,3.3,0.7,6.6,1.5,9.6c0.1,0,0.3,0,0.8,0L38,10.4c0,0,0.7-0.5,0.9-0.6c0,0,0,0,0.1,0l0,0l0,0c0.1-0.1,0.3-0.2,0.6-0.3
		c0.1,0,0.2,0,0.3,0c0.6,0,1.2-0.1,1.7-0.1v0.1c-0.7,0.2-1.3,0.3-2,0.5c-0.2,0-0.5,0-0.7,0.1l0.1,0.2c0.3,0,0.6,0,0.9-0.1
		c0.6-0.1,1.2-0.2,1.7-0.3c0,0,0,0.1,0,0.2c-0.6,0.2-1.3,0.3-1.8,0.5c-0.5,0-0.9,0.1-1.4,0.1c0,0.1,0,0.2,0,0.3
		c1.2-0.1,2.3-0.2,3.3-0.6c0,0.1,0,0.1,0.1,0.2c-1,0.3-2.2,0.6-3.3,0.6c0,0.1,0,0.2,0.1,0.5c1.2-0.1,2.3-0.3,3.3-0.7
		c0,0.1,0.1,0.2,0.1,0.3c-1,0.5-2.3,0.6-3.5,0.7c0,0.1,0,0.3,0.1,0.5c1.2-0.1,2.4-0.3,3.5-0.8c0,0,0,0.1,0.1,0.1
		c-1,0.6-2.3,0.8-3.5,1c0,0.1,0,0.2,0.1,0.5c1.3-0.2,2.5-0.6,3.6-1.2l0.1,0.1c-1,0.7-2.4,1-3.7,1.3c0,0.1,0.1,0.2,0.1,0.3
		c1.4-0.2,2.7-0.6,3.8-1.4c0,0.1,0.1,0.1,0.1,0.1c-1,0.8-2.4,1.4-3.8,1.6c0,0.1,0.1,0.2,0.1,0.3c1.5-0.2,3-0.8,4.1-1.7
		c0.1,0,0.1,0,0.2,0.1c-0.2,0.2-0.6,0.5-0.8,0.7c-1,0.7-2.2,1-3.3,1.3c0,0.1,0.1,0.2,0.1,0.3c1.3-0.2,2.4-0.7,3.5-1.4
		c0.3-0.2,0.7-0.5,1-0.8h0.1c-0.3,0.3-0.6,0.7-0.9,1c-1,0.8-2.2,1.4-3.5,1.6c-0.1-0.2-0.1-0.3-0.2-0.6l0.9,4c1.5,0,4,0,5.3,0.3
		c0.2,0,0.7,0,1.3,0l0.8-7.6c-0.3,1.4-1,4.7-1.7,5.1c-0.1,0-0.2,0.1-0.2,0.1c0.6-0.8,0.9-1.7,1.2-2.7c0.2-1.3,0.3-2.4,0-3.6l0,0
		c0-0.1,0-0.1-0.1-0.2c0.1-0.3,0-0.3,0-0.3V9.8l1.3,1l-0.6,8.6c0.5,0,0.8,0.1,0.9,0.1c0,1,0,1.8-0.1,2.8c-0.3,0-0.6-0.1-0.8-0.2
		c0,0,0,0-0.1,0c0.1,1.2,0.3,4.1,0.3,4.7c0,0.8,0,2.9,0,2.9l-0.5,0.5l0,0l-4.1,4.3l-0.1-0.6l0.5-0.5L40.7,22c-0.1,0-0.2,0-0.2,0
		c0,0.7,0.2,1.7,0.3,2.3c0.2,1.7,0.3,3.1,0.8,4.7c0.5,1.7,0.8,3.9,1.3,5.9c0.5,0.1,1,0,1.5,0c0.1,0.7,0.3,1.2,0.3,1.6
		c-1.6,0-4.1,0.1-6,0c-0.1-0.5-0.1-1.2-0.1-1.5c0.5-0.1,1,0,1.6,0c-0.8-3.7-1.7-7.7-2.5-11.5c-0.2-0.9-0.2-1.3-0.3-1.7
		c-1.2,0.1-2.5-0.1-3.7,0c-0.1,0.7-0.6,2.4-0.7,3l0,0c0,0.1-0.3,1-0.8,2.2c0.3-0.7,0.6-1.3,0.9-1.7c0,0.1-0.1,0.2-0.2,0.3
		c0.5-0.2,0.8-0.5,1.3-0.6s1.5-0.5,2.1-0.3c0,0.1,0.1,0.2,0.1,0.3c-1.3,0-2.5,0.2-3.7,0.8c-0.1,0.2-0.2,0.3-0.3,0.6
		c1.3-0.7,2.7-0.9,4.1-0.9c0,0.1,0.1,0.2,0.1,0.3c-1.5,0-3,0.1-4.4,0.7c-0.1,0.2-0.2,0.3-0.2,0.6c1.5-0.7,3.1-0.8,4.7-0.8
		c0,0.1,0.1,0.2,0.1,0.2c-1.7-0.1-3.5,0.1-5,0.8c-0.1,0.2-0.1,0.3-0.2,0.6c1.6-0.8,3.6-1,5.4-0.8c0,0.1,0.1,0.2,0.1,0.2
		c-2-0.1-3.8,0.2-5.6,0.8c-0.1,0.1-0.1,0.2-0.2,0.5c1.8-0.7,3.9-1,6-0.9c0,0.1,0.1,0.1,0.1,0.2c-2.1-0.1-4.1,0.1-6.1,0.8
		c-0.1,0.2-0.1,0.3-0.2,0.6c2.1-0.8,4.4-1.2,6.6-0.9c0.1,0.1,0.1,0.3,0.2,0.5c-1.3-0.1-2.5-0.1-3.8,0c-1,0.1-2.1,0.3-3,0.8
		c-0.1,0.1-0.1,0.3-0.2,0.5c1-0.5,2.3-0.7,3.5-0.9c1.3-0.1,2.5-0.1,3.8,0c0,0.1,0.1,0.2,0.1,0.3c-1.3-0.1-2.5-0.1-3.8,0.1
		c-1.2,0.1-2.5,0.5-3.7,0.8c-0.1,0.2-0.1,0.3-0.1,0.5c1.3-0.6,2.9-0.8,4.3-1c1.3-0.1,2.4-0.1,3.6,0c0,0.1,0.1,0.2,0.1,0.3
		c-1.3-0.1-2.5,0-3.9,0.1c-1.4,0.2-2.9,0.5-4.1,1c0,0.1,0,0.2,0,0.2c0-0.1,0-0.3,0-0.6c-0.5,1.2-0.8,2-0.8,2.1c2,0.1,4.6,0,6.8,0
		c0.8,0,1.7,0,2.4,0c0.1,0.1,0,0.5-0.1,0.6c-3.2,0-7.3,0-10.8,0c-0.2,0.6-0.5,1-0.6,1.6c0.2,0,0.5,0,0.7,0.1c0,0.3,0,0.8,0,1.3
		c-1.6-0.2-3.8,0.1-5.4-0.1c-0.1-0.5-0.2-0.8-0.2-1.3c0.5-0.1,1,0,1.5,0c1.7-4.1,3.3-8.4,5.1-12.7c0-0.3,0.1-0.5,0.1-0.7
		c-2.9,0-6-0.1-8.6-0.3h-0.1c-0.2,0.8-0.5,2.3-0.3,3c0,0.8,0.6,2.4,1,3.7c0.1,0.3,0.2,0.6,0.3,0.9c0.5,1.4,1.7,3.9,1.7,4l-0.3,0.3
		c0-0.1-1.4-2.8-1.8-4.1c-0.1-0.2-0.2-0.6-0.3-0.9c-0.5-1.4-0.9-2.9-1-3.8c0-0.8,0.2-2.3,0.5-3.1c-1-0.1-1.4-0.1-1.8-0.5
		c0.2-1,0.5-2.1,0.7-3c0.2,0,0.5,0,0.7,0.1l2.4-6.9l0.3-0.8l0.6,0.1l-0.2,0.6c0,0.1-0.1,0.1-0.1,0.2c1,0.5,2.2,0.8,3.3,0.9
		c1.4,0.2,2.8,0.2,4,0.2c0,0.1,0.1,0.2,0.1,0.3c-1.3,0-2.5,0-3.9-0.2c-0.2,0-0.6-0.1-0.8-0.1c-0.9-0.2-1.8-0.5-2.8-0.9
		c-0.1,0-0.1-0.1-0.2-0.1c0,0.1-0.1,0.2-0.1,0.3c1,0.6,2.2,0.9,3.3,1.2c1.5,0.2,2.9,0.3,4.4,0.3c0,0.1,0,0.2,0,0.3
		c-1.2,0-2.3-0.1-3.5-0.2c-0.3,0-0.6-0.1-0.9-0.1c-1-0.2-2.2-0.6-3.1-1c-0.1,0-0.2-0.1-0.3-0.1c0,0.1-0.1,0.2-0.1,0.3
		c1.2,0.6,2.5,1,3.7,1.3c1.4,0.2,2.8,0.3,4.3,0.5c0,0.1,0,0.2,0,0.3c-1.3,0-2.4-0.1-3.7-0.3c-0.2,0-0.6-0.1-0.8-0.2
		c-0.9-0.2-2-0.6-2.8-1c-0.2-0.1-0.5-0.2-0.6-0.3c0,0.1-0.1,0.2-0.1,0.3c1,0.7,2.4,1.2,3.6,1.4c1.5,0.3,2.9,0.5,4.4,0.5
		c0,0.1,0,0.3,0,0.5c-1.2,0-2.3-0.1-3.5-0.5c-0.3-0.1-0.6-0.1-0.9-0.2c-1-0.2-2-0.7-2.9-1.2c-0.2-0.1-0.5-0.2-0.7-0.5c0,0,0,0,0-0.1
		l0,0l0,0l0,0l-0.1,0.5h-0.3l-1.8,5c0.5,0.1,1.2,0.3,2.5,0.6c2.4,0.2,5.1,0.5,7.4,0.3c0.5-2.3,0.9-4.4,1.4-6.9c0-0.2,0-0.6,0-1
		c-1-0.2-1.8,0-2.9-0.1c-0.3-0.6-0.6-1.3-0.3-1.7C31.2,9.5,34.6,9,38,8.5z M36.3,32.5L36.3,32.5c-0.6,0.1-1.4,0-2.1,0
		c0.5-0.1,0.8-0.2,1.3-0.3c1-0.2,2.3-0.3,3.3-0.3v0.1C38,32,37.1,32.2,36.3,32.5z M38.7,32.5c-0.2,0.2-0.7,0.1-1.2,0.1
		C37.9,32.5,38.3,32.5,38.7,32.5z M34.1,31.6c1.5-0.3,3.1-0.5,4.6-0.3v0.1c-1,0-2.2,0.1-3.2,0.3c-0.7,0.1-1.4,0.3-2.1,0.6
		c-0.1,0-0.3,0.1-0.5,0.1c-0.5,0-1,0-1.6-0.1C32.3,32,33.2,31.8,34.1,31.6z M30.7,32.2c-0.2-0.1-0.3-0.2-0.5-0.3
		c1.2-0.6,2.5-0.8,3.7-1c1.3-0.2,2.5-0.2,3.7-0.2c0.2,0,0.5,0,0.8,0c0,0.1,0.1,0.1,0.1,0.2c-1.4-0.1-2.9,0-4.1,0.2
		C33.1,31.4,31.8,31.7,30.7,32.2z M35.7,24.1c0,0,0.1,0.1,0.1,0.2c-0.5,0-1,0.1-1.4,0.2c-0.6,0.1-1,0.2-1.5,0.5c0,0,0,0,0-0.1
		c0.1-0.1,0.1-0.2,0.2-0.3C34,24.2,34.8,23.9,35.7,24.1z M33.8,24c0.2-0.2,0.6-0.5,0.9-0.5c0.2,0,0.5,0,0.6,0.1
		C34.7,23.6,34.2,23.7,33.8,24z M24,22.6c0.1-0.1,0.3-0.1,0.6-0.2c0.1,0,0.3,0.1,0.6,0.1c-0.8,0.3-1.7,0.7-2.4,1.3
		c0-0.1,0-0.2,0.1-0.3C23.1,23.1,23.5,22.8,24,22.6z M22.8,22.8c0.1-0.5,0.2-0.7,0.2-0.7s0.3,0,0.8,0.1c-0.1,0-0.2,0.1-0.3,0.1
		C23.3,22.5,23.1,22.6,22.8,22.8z M25.5,22.7c0.1,0,0.2-0.1,0.3-0.1c0.2,0,0.5,0.1,0.6,0.1c-0.3,0.1-0.7,0.2-1,0.3
		c-1,0.3-2.1,0.9-3,1.6c0-0.1,0-0.3,0.1-0.5C23.4,23.5,24.4,23.1,25.5,22.7z M25.7,23.4c0.5-0.1,0.9-0.3,1.5-0.5
		c0.2,0.1,0.5,0.2,0.5,0.2s0,0,0,0.1c-0.8,0.1-1.7,0.3-2.4,0.7c-0.9,0.5-2,0.9-2.7,1.6c0-0.1,0-0.2,0-0.3
		C23.3,24.4,24.6,23.9,25.7,23.4z M25.4,24.2c0.6-0.2,1.3-0.5,2.1-0.6c-0.1,0.1-0.1,0.2-0.2,0.5c-0.7,0.1-1.4,0.3-2,0.6
		c-0.9,0.5-2,1-2.7,1.7c0-0.1,0-0.2,0-0.3C23.2,25.2,24.2,24.7,25.4,24.2z M25.4,25c0.5-0.2,1-0.3,1.5-0.5c-0.1,0.1-0.1,0.3-0.2,0.5
		c-0.7,0.1-1.3,0.3-1.8,0.7c-0.8,0.5-1.7,1-2.3,1.7c0-0.1,0-0.2,0-0.3C23.2,26,24.3,25.5,25.4,25z M25,25.9c0.3-0.2,0.8-0.3,1.3-0.5
		c-0.1,0.1-0.3,0.3-0.6,0.6c-0.5,0.1-0.8,0.3-1.3,0.6c-0.7,0.5-1.4,0.9-2,1.5c0-0.1,0-0.2,0-0.2C23.2,27,24.1,26.4,25,25.9z
		 M24.8,26.9L24.8,26.9c0,0.1-0.2,0.2-0.3,0.3c-0.8,0.7-1.7,1.7-1.7,1.7s0-0.1-0.1-0.3C23.2,27.9,24,27.3,24.8,26.9z M25,16
		c-0.9-0.3-1.7-0.7-2.5-1.3c-0.1-0.1-0.1-0.2-0.1-0.3c0.9,0.6,2.1,1,3,1.4c1.4,0.5,2.9,0.7,4.4,0.7c0,0.1,0,0.1-0.1,0.2
		C28,16.7,26.5,16.5,25,16z M29.4,17.2c-0.1,0.1-0.2,0.2-0.2,0.2s0,0-0.3,0c-1.4-0.1-2.7-0.5-3.9-1c-0.5-0.2-0.9-0.5-1.4-0.7
		c0.5,0.2,0.9,0.3,1.4,0.6C26.3,16.8,27.9,17.1,29.4,17.2z M26.3,15.7c-0.3-0.1-0.6-0.1-0.9-0.2c-1-0.3-2-0.7-2.9-1.3
		c-0.1-0.1-0.3-0.2-0.5-0.3c0-0.1,0-0.1-0.1-0.2c1,0.7,2.4,1.3,3.5,1.5c1.4,0.3,2.9,0.6,4.3,0.7c0,0.1,0,0.2,0,0.3
		C28.6,16.1,27.4,15.9,26.3,15.7z"/>
	<path class="st2" d="M13.3,20.9c0-0.1,0-0.3,0.1-0.5l-0.8-0.1c0,0.1-0.1,0.3-0.1,0.5L13.3,20.9L13.3,20.9z"/>
	<path class="st2" d="M13.1,21.2L12.3,21c0,0.1-0.1,0.3-0.1,0.5l0.9,0.2C13.1,21.6,13.1,21.3,13.1,21.2z"/>
	<path class="st2" d="M13.5,19.5l-0.8-0.2c0,0.1-0.1,0.3-0.1,0.5l0.8,0.1C13.5,19.8,13.5,19.6,13.5,19.5z"/>
	<path class="st2" d="M14.1,17.8l-0.9-0.2c0,0.1-0.1,0.3-0.1,0.5l0.8,0.2C13.9,18.1,13.9,17.9,14.1,17.8z"/>
	<path class="st2" d="M13.7,18.7l-0.8-0.2c0,0.1-0.1,0.3-0.1,0.5l0.8,0.2C13.7,19,13.7,18.8,13.7,18.7z"/>
	<path class="st2" d="M15.6,29.4l-1.4,1c0.1,0.1,0.2,0.2,0.3,0.3l1.4-1C15.7,29.6,15.7,29.5,15.6,29.4z"/>
	<path class="st2" d="M15.2,28.6l-1.6,1c0.1,0.1,0.2,0.2,0.3,0.5l1.5-1C15.3,28.9,15.3,28.8,15.2,28.6z"/>
	<path class="st2" d="M28.9,43.9c0.1,0,0.3,0.1,0.5,0.1l0.1-1c-0.1,0-0.3-0.1-0.5-0.1L28.9,43.9z"/>
	<path class="st2" d="M28,43.7c0.1,0,0.3,0.1,0.5,0.1l0.3-1c-0.1,0-0.3-0.1-0.5-0.1L28,43.7z"/>
	<path class="st2" d="M20.9,36.7l-1.2,0.9c0.1,0.1,0.2,0.2,0.3,0.3l1.2-0.9C21,36.9,20.9,36.8,20.9,36.7z"/>
</g>
<g>
	<path class="st2" d="M74.2,20.2c-0.1,0-0.1,0-0.1,0.1c0,0-0.5,3,0.1,5.2c0.7,2.7,2.1,4.4,2.1,4.4s0,0,0.1,0c0,0,0,0,0.1,0v-0.1
		c0,0-1.4-1.6-2-4.3c-0.6-2.2-0.1-5.1-0.1-5.1C74.3,20.2,74.3,20.2,74.2,20.2z"/>
	<path class="st2" d="M74.8,20.7c-0.1,0-0.1,0-0.1,0.1c0,0-0.3,2.2,0.1,4c0.5,2.1,1.4,3.5,1.4,3.5s0,0,0.1,0c0,0,0,0,0.1,0
		c0,0,0.1-0.1,0-0.1c0,0-0.9-1.4-1.4-3.5c-0.5-1.8-0.1-3.9-0.1-3.9C74.9,20.7,74.8,20.7,74.8,20.7z"/>
	<path class="st2" d="M75.3,20.9c0,0-0.1,0-0.1,0.1c0,0.1-0.3,1.8,0,3.5c0.5,1.7,1.2,2.9,1.2,3c0,0,0,0,0.1,0c0,0,0,0,0.1,0
		c0,0,0.1-0.1,0-0.1c0,0-0.8-1.2-1.2-2.9c-0.3-1.6,0-3.3,0-3.3C75.4,21,75.3,20.9,75.3,20.9z"/>
	<path class="st2" d="M75.7,21.1c0,0-0.1,0-0.1,0.1c0,0-0.2,1.2-0.1,2.3c0.2,1.5,0.7,2.3,0.8,2.3c0,0,0,0,0.1,0l0,0
		c0,0,0.1-0.1,0-0.1c0,0-0.6-0.8-0.7-2.3C75.6,22.2,75.8,21.1,75.7,21.1C75.8,21.2,75.7,21.1,75.7,21.1z"/>
	<path class="st2" d="M73.1,19C73,19,73,19,73.1,19c-1.2,6.6,0.5,11.4,3.8,13.4c0,0,0.1,0,0.1-0.1v-0.1c-2.1-1.3-3-3.1-3.6-5.3
		C72.8,24.6,72.8,21.6,73.1,19C73.2,19,73.2,19,73.1,19z"/>
	<path class="st2" d="M81.8,36.9C81.8,36.9,82,36.9,81.8,36.9c0.1-0.2,0.2-0.6,0.2-0.8l0,0c-0.1,0-0.2,0-0.2,0h-0.1h-0.1
		c0,0,0,0-0.1,0c-0.1,0.1-0.2,0.3-0.3,0.5c-0.5,0.6-0.9,1.3-1.7,1.3c-0.7,0-0.9-0.5-1.2-0.9s-0.5-0.9-1-1l0,0c0,0,0,0-0.1,0
		c-0.1,0.1-0.2,0.2-0.3,0.3v0.1c0.5,0.2,0.6,0.6,0.6,1.2c0,0,0,0,0,0.1c0.5,0.1,1.2,0.6,1.4,0.7c0.1,0,0.1,0.1,0.2,0.2
		c0.1,0.1,0.2,0.2,0.3,0.2c0,0,0,0,0.1,0c0.6,0,0.8-0.2,0.9-0.3c0.1-0.1,0.2-0.1,0.3-0.2c0.1,0,0.2,0,0.3,0c0.1,0,0.1,0,0.2-0.1l0,0
		c0-0.1,0-0.2,0-0.3c0-0.2,0-0.5,0-0.6C81.1,37,81.5,36.9,81.8,36.9z"/>
	<path class="st2" d="M73.9,19.2C73.9,19.2,73.9,19.1,73.9,19.2C73.9,19.1,73.9,19.1,73.9,19.2c-0.1-0.1-0.2,0-0.2,0
		c-0.5,2.2-0.3,5.2,0.2,7.5c0.2,0.9,1,3.1,2.8,4.7l0,0l0,0l0,0v-0.1c-2.3-2.1-3.6-6.3-3-10.7C73.8,20.1,73.8,19.7,73.9,19.2z"/>
	<path class="st2" d="M72.5,19C72.4,19,72.4,18.9,72.5,19c-0.1,0-0.1,0-0.2,0l0,0c-1.4,7.4,1.2,12.3,5,15c0,0,0.1,0,0.1-0.2
		c0,0,0-0.1-0.1-0.1c-3.5-2.7-5.1-6-5.1-10.8C72.2,21.4,72.3,20.3,72.5,19L72.5,19z"/>
	<path class="st2" d="M76.2,21.2c0,0-0.1,0-0.1,0.1c0,0-0.2,0.8-0.1,1.5c0.1,0.9,0.3,1.5,0.3,1.5s0,0.1,0.1,0.1l0,0
		c0,0,0.1-0.1,0-0.1c0,0-0.2-0.6-0.3-1.4c-0.1-0.7,0.1-1.5,0.1-1.5C76.3,21.3,76.2,21.2,76.2,21.2z"/>
	<path class="st2" d="M76.6,21.7c0,0-0.1,0-0.1,0.1c-0.1,0.5,0,0.9,0,0.9s0,0.1,0.1,0.1l0,0c0,0,0.1-0.1,0-0.1c0,0-0.1-0.3,0-0.7
		C76.8,21.8,76.6,21.7,76.6,21.7z"/>
	<path class="st2" d="M77.6,31.9L77.6,31.9L77.6,31.9C77.7,31.9,77.7,31.9,77.6,31.9c1-0.7,2-1.2,2.9-1.2c0.3,0,0.6,0,0.9,0.1l0,0
		l0,0c0-0.1,0-0.1,0.1-0.2c0-0.1,0.1-0.2,0.1-0.2v-0.1c-0.2,0-0.5-0.1-0.7-0.1c-0.6,0-1.2,0.1-1.6,0.3c-0.6,0.1-1,0.3-1.7,0.3l0,0
		l0,0c0.1,0.2,0.1,0.3,0.1,0.6C77.6,31.7,77.6,31.8,77.6,31.9z"/>
	<path class="st2" d="M71.7,18.9c-0.1,0-0.1,0-0.1,0.1c-0.1,0.2-0.1,0.5-0.2,0.7v0.1c-0.5,2.2-0.5,5.3,0,7.4
		c0.3,1.3,0.8,2.5,1.4,3.5c0.8,1.4,2.1,2.7,3,3.5c0.1,0.1,0.8,0.7,1,0.8c0,0,0,0,0.1,0c0,0,0.1,0,0.1-0.1c0-0.1,0.1-0.1,0-0.2l0,0
		c-2-1.6-3.2-3-4-4.7c-0.5-0.8-0.8-1.7-1.2-3c0-0.1,0-0.2-0.1-0.3c0-0.1-0.1-0.2-0.1-0.3c-0.2-1.8-0.2-3.7,0-5.6
		c0.1-0.7,0.2-1,0.2-1.3c0-0.1,0-0.2,0.1-0.2l0,0C71.8,18.9,71.8,18.9,71.7,18.9z"/>
	<path class="st2" d="M76.9,36.8L76.9,36.8c-1-0.2-1.7-0.7-2.2-1.3c0,0,0,0-0.1,0c-0.1,0-0.2,0-0.3,0s-0.2,0-0.3,0l0,0l0,0
		c0.7,2,2.4,3.1,4.1,3.9l0,0l0,0c0.2-0.2,0.5-0.6,0.6-0.8l0,0v-0.1c-0.5-0.5-1.2-0.7-1.8-0.9c0-0.1,0-0.1,0-0.2
		C77,37.1,77,37,76.9,36.8z"/>
	<path class="st2" d="M79.5,26.4c-0.3,0-0.8,0-0.9,0l0,0c-0.3,0-0.7,0-1-0.1c0,0,0,0-0.1,0c-0.1,0.2-0.2,0.6-0.1,0.9l0,0l0,0l0,0
		c0.1-0.1,0.2-0.1,0.3-0.2c0.2-0.1,0.6-0.3,0.8-0.3c0.2,0,0.3,0,0.6,0c0.3,0,0.7,0.1,0.8,0.1s0.1,0,0.1,0c0.1,0,0.1-0.1,0.1-0.1
		v-0.1v-0.1l0,0l0,0C80.2,26.4,79.9,26.4,79.5,26.4z"/>
	<path class="st2" d="M76.9,25L76.9,25C76.8,25,76.8,25,76.9,25C76.8,25.1,76.8,25.1,76.9,25c0.1,0.3,0.2,0.6,0.5,0.8l0.1,0.1l0,0
		l0,0c0.3,0,0.7,0,1.2,0c1,0,2-0.1,2.9-0.2l0,0c0.5-0.3,1.2-1.4,0.7-2.3c0,0,0,0-0.1,0c-0.1,0-0.1,0.1-0.1,0.1
		c0,0.9-0.5,1.4-0.8,1.8c-0.1,0-0.1,0-0.1,0c-0.2,0-0.3-0.2-0.5-0.3c0-0.1-0.1-0.1-0.1-0.2l0,0c-1.6-0.1-2.7-0.3-2.8-1.6l0,0
		c-0.1,0-0.2-0.1-0.2-0.1h-0.1l0,0l0,0c-0.1,0.6,0,1,0,1.5c0,0.1,0,0.2,0.1,0.5C77,25,77,25,76.9,25z"/>
	<path class="st2" d="M77.3,21.9L77.3,21.9L77.3,21.9c0.5-0.3,1-0.6,1.7-0.6c0.2,0,0.5,0,0.7,0.1l0,0l0,0V21c0,0,0,0,0-0.1
		c-0.3-0.1-0.9-0.1-1.4-0.1c-0.7,0-1.2,0.2-1.3,0.6c0,0.1,0,0.1,0.1,0.5C77.2,21.8,77.2,21.8,77.3,21.9L77.3,21.9z"/>
	<path class="st2" d="M77.1,22.7c0.1,0.1,0.3,0.2,0.5,0.2l0,0c0.1,0,0.2-0.1,0.3-0.2s0.3-0.2,0.6-0.3c0.3-0.1,0.6-0.1,0.9-0.1
		c0.1,0,0.2,0,0.2,0l0,0l0,0v-0.1c0,0,0-0.1,0-0.2l0,0l0,0c-0.1,0-0.1,0-0.2,0C78,21.8,77.3,22.1,77.1,22.7L77.1,22.7z"/>
	<path class="st2" d="M81,20.9C80.9,20.9,80.9,20.9,81,20.9c0,0.7,0.1,1.3,0.3,1.6l0,0l0,0l0,0c0-0.2,0-0.5-0.1-0.6
		c0-0.1-0.1-0.2-0.1-0.5c0.3-0.1,0.7-0.6,0.8-1.2c0.1-0.5,0.1-0.8-0.1-1.2c0,0,0,0-0.1,0c0,0,0,0,0,0.1C82,19.9,81.6,20.6,81,20.9z"
		/>
	<path class="st2" d="M91.3,14.3c-0.1-0.1-0.2,0.1-0.1,0.2c0.6,0.3,1,0.8,1.4,1.4c0.1,0.1,0.2,0,0.1-0.1
		C92.4,15.2,91.9,14.6,91.3,14.3z"/>
	<path class="st2" d="M74.7,13.9L74.7,13.9c-1.7-0.2-3.2,0.1-4.7,0.8c-0.1,0.1-0.1,0.3,0.1,0.2c1.3-0.6,2.5-0.9,3.8-0.8l0,0
		c0,0.1-0.1,0.2-0.3,0.2c-0.9-0.1-1.8,0.1-2.7,0.7c-0.1,0.1,0.1,0.1,0.1,0.1c0.7-0.6,1.5-0.7,2.3-0.7c0,0,0,0,0,0.1l0,0
		c-0.5,0.2-0.9,0.3-1.3,0.6c-0.2,0.1-0.6,0.3-0.9,0.5l0,0l0,0c0,0.1-0.1,0.2,0,0.3l0.1,0.1l0,0l0,0c0.6-0.3,1.3-0.7,2.1-0.9
		c0.7-0.2,1.4-0.6,2.1-0.9c0.1,0,0.1,0,0.2,0c0.2,0,0.5-0.1,0.7-0.3c0,0,0.1,0,0.1-0.1c0.2-0.1,0.6-0.1,0.9-0.1
		c0.2,0,0.3,0.1,0.6,0.1l0,0c0.8,0.1,1.8,0.7,3.1,0.2c0.6-0.1,1-0.3,1.5-0.7c0.1,0,0.1-0.2,0-0.1c-0.6,0.3-1.2,0.7-1.8,0.8
		c-0.7,0.1-1.5,0-2.2-0.2c-0.2-0.1-0.5-0.1-0.8-0.2c-0.1,0-0.1,0-0.2-0.1c-0.2,0-0.3-0.1-0.5-0.1c0,0,0,0,0.1-0.1l0.1-0.1l0,0l0,0
		c-0.5,0-0.5-0.5-0.6-1V12c-0.1-1.2,0.1-2.5,0.6-3.1l0,0c0.1,0.3,0.2,0.7,0.6,0.8c0.1,0,0.2-0.1,0.1-0.1c-0.5,0.1-0.6-0.1-0.7-0.5
		c0-0.1-0.1-0.1-0.1,0c0,0,0,0,0.1-0.1l0,0c0,0,0-0.1,0.1-0.1c0,0.2,0.1,0.5,0.3,0.7c0.1,0.1,0.2,0,0.1-0.1
		c-0.2-0.2-0.3-0.5-0.3-0.7c0-0.1-0.1-0.1-0.1-0.1c0-0.1,0-0.3,0-0.5s0-0.2,0-0.2c0-0.3,0.1-0.7,0.2-0.8c0,0.8-0.1,1.4,0.3,2.1
		c0,0.1,0.2,0,0.2,0c-0.5-0.7-0.3-1.3-0.3-2.1C77.8,7,77.7,7,77.7,7c0.1-0.2,0.3-0.3,0.6-0.5c0.1,0,0.1-0.1,0.2-0.1c0,0,0,0,0-0.1
		c0,0,0,0-0.1,0c-0.2,0-0.6,0-0.8,0.1c-0.9,0.3-1,1.3-1.3,2.3c0,0.2-0.1,0.5-0.1,0.8c-0.3,0.7-0.6,2-0.7,2.9c0,0.1,0,0.3,0,0.5
		c0,0.2,0,0.3,0,0.6C75.5,13.6,75.2,13.8,74.7,13.9z"/>
	<path class="st2" d="M92.9,14.9L92.9,14.9c0-0.3,0.1-0.5,0.2-0.6c0.1-0.1,0.2-0.3,0.2-0.6l0,0c-1.2-1.4-2.9-2.2-4.7-2.2
		c-0.3,0-0.7,0-1,0.1l-0.1-0.1c-0.1-0.1-0.1-0.1-0.2-0.2c0,0,0,0-0.1,0c-0.7,0.5-1.8,0.9-2.3,1.2l0,0c-0.1,0.5-0.6,0.7-0.9,0.7
		s-0.6-0.1-0.8-0.3c0,0,0,0-0.1,0l0,0v0.1c-0.1,0.3-0.1,0.7-0.1,1.2c0,0,0,0,0,0.1c0.2,0.1,0.5,0.2,0.7,0.3c1.2,0.6,2.3,1.3,3.8,1.4
		h0.1h0.2c0.1,0,0.1,0,0.2,0c0.1,0,0.2,0.1,0.3,0.1s0.2,0.1,0.2,0.1l0,0l0,0c0,0,0.3-0.7,0.3-0.8c-0.1-0.1-0.3-0.2-0.8-0.3
		c-0.2,0-0.3-0.1-0.5-0.2c-0.1-0.1-0.3-0.2-0.5-0.2c-0.1,0-0.1,0-0.2,0c-0.2,0-0.3,0-0.6,0.1c-0.1,0-0.3,0.1-0.5,0.1h-0.1
		c-0.3-0.1-0.6-0.3-0.8-0.5c-0.1-0.1-0.1-0.1-0.1-0.1v-0.1l0,0c0.3-0.7,0.9-1.3,2-1.6l0.1,0.1c0.2,0.1,0.3,0.2,0.7,0.3h0.1
		c0-0.1,0-0.2,0-0.3v-0.1c0.2,0,0.5,0,0.6,0c2,0,3.6,0.7,4.5,1.7c-0.1,0.1-0.1,0.1-0.2,0.1c-0.2-0.1-0.6-0.3-0.8-0.3l0,0
		c0,0,0,0,0,0.1s0.1,0.2,0.5,0.5C92.3,14.4,92.7,14.6,92.9,14.9C92.8,14.9,92.9,14.9,92.9,14.9z"/>
	<path class="st2" d="M83,34.1C83.1,34.1,83.1,34.1,83,34.1c0.1,0,2.2-1.8,3.7-4.6c1.4-2.8,1.6-6,1.6-6.1c0,0,0-0.1-0.1-0.1
		c0,0-0.1,0-0.1,0.1c0,0-0.2,3.3-1.6,6c-1.5,2.8-3.6,4.5-3.6,4.6C82.9,34,82.9,34,83,34.1L83,34.1z"/>
	<path class="st2" d="M78.3,7.3c-0.1,0.3,0,0.7,0.1,1c0.1,0.1,0.2,0,0.2-0.1c-0.1-0.2-0.2-0.6-0.1-0.9C78.5,7.1,78.4,7.1,78.3,7.3z"
		/>
	<path class="st2" d="M71.2,4.3c0.3,0,1.2,0.1,1.6,0.1c0.6,0,0.6-0.1,0.8-0.2C74,4,74.3,3.9,75,3.8c1.2-0.1,3.3-0.1,4.5-0.1
		c1.4,0.1,3,0.3,4.1,0.3s2.3,0.2,3.1,0.3c0.7,0,0.9-0.5,1.8-0.5c0.7,0,0.9,0.2,1.5,0.5c0.6,0.2,1.3,0.5,1.5,0.5
		c0.2,0.1,0.3,0,0.5-0.1c0.1-0.1,0.1-0.2-0.1-0.3c-0.1-0.1-1.5-1-3.2-1.3C87.9,3,87.3,3,86.7,3c-0.6,0-1.3-0.1-1.8-0.1
		c-0.9,0-0.8,0-2.2,0c-1.4-0.1-3.6-0.5-5-0.3c-0.6,0-1.4,0-2.1,0.1c-0.5,0.1-1.5,0.3-2.1,0.5c-1.5,0.3-2.4,0.8-2.7,1
		C70.5,4.4,70.9,4.3,71.2,4.3z"/>
	<path class="st2" d="M99.1,13.9c-0.7-2-2.9-5.3-3.5-6.2c-0.6-0.8-1.3-1.2-1.7-1.7c-0.5-0.6-0.8-0.9-0.8-0.9S93,5,92.9,5
		c-0.1,0-0.1,0.1-0.3,0.1c-0.1,0-0.3,0.1-0.5,0.2c0,0.1,0.2,0.2,0.5,0.5C92.8,6,93,6.1,93.2,6.3c0.2,0.2,0.3,0.3,0.3,0.6
		c0,0.1,0.1,0.1,0.2,0.2s0.2,0.2,0.2,0.1s0-0.3,0-0.5s0-0.2,0.1,0C94.3,6.9,95.6,9,96,9.9c0.5,0.8,1.4,2.2,1.7,2.8
		c0.3,0.6,0.7,1,0.9,1.4c0.3,0.7,0.7,2.2,0.8,3.1s0.2,1.2,0.3,1.5c0.2,0.3,0.3,0.6,0.6,1.2s0.6,2.5,0.6,3.9c0,1.5-0.6,4.7-1.2,6.1
		c-1.2,2.7-1.4,2.5-1.7,2.9c-0.7,0.8-2,3.6-2.5,4.1c-0.3,0.3-1.3,1.2-2.3,2c-0.9,0.8-2.1,1.5-2.8,1.8c-0.9,0.5-3.3,1.6-4.3,1.8
		c-0.9,0.2-1.5,0.6-3.9,0.8c-2.3,0.2-4.4-0.3-5-0.5c-0.6-0.2-2.5-1-3.9-1.5c-1.4-0.6-3.3-1.2-3.9-1.5c-0.6-0.3-1.7-1.5-2.3-1.8
		c-0.6-0.3-0.6,0-2.2-1.3c-1.5-1.2-1.8-1.8-2-2c0-0.1,0-0.2,0-0.2l0,0c1,0.8,1.8,2.2,3.2,2.7c0.7,0.2,1.3,0.8,2,1
		c0.1-1.7,1.3-2.7,2-3.8c-1.4-1.7-2.4-4-3-6.6c-0.1-1.5-0.5-3.7,0.8-4.3c0.1-1.3,0.3-2.9,0.7-4c-0.3-0.6-0.1-1.6-0.2-2.4
		c0-0.1,0-0.2-0.1-0.3c-0.1,0-0.1,0-0.3,0.2c-0.2,0.2-0.3,0.6-0.7,0.8c-0.1,0-0.3-0.1-0.5,0c-0.1,0.1-0.5,0.5-0.7,0.5
		c-0.1-0.1-0.2-0.1-0.3-0.2c0,0,0.3-0.8,0.8-1.6c0-0.1,0.1-0.2,0-0.2c0.2-0.1,0.2,0.1-0.1,0.5c-0.5,0.3-0.9,0.9-1,1
		c0,0-0.1-0.1-0.2-0.3c0.8-0.7,0.8-1,1.4-1.8c0.1-0.2,0.7-0.6,0.8-0.8c0.1-0.1,0-0.1,0-0.2c-0.9,0.6-1.6,1.3-2.4,2.2
		c0,0-0.1-0.1-0.1-0.2c0.5-0.7,0.9-1.3,1.4-1.8v-0.6c0.6-0.6,1.4-1,2.1-1.4c1-0.1,2-0.6,3-0.7c0.2,0,0.6-0.1,0.8-0.1
		c1,0,2,1.7,2.8,1.5c0.3-0.6,0.1-1.3,0.2-2c0.2-0.9,0.7-1.5,0.7-2.5c0.1-1.3,0.5-2.4,1.7-2.8c0.8-0.3,1.4,0,2,0.2
		c0.9,1,2.4,2.2,3.1,3.6c0.2,0.5,0,1.5,0.2,2.1c0.3,0.1,0.5,0.6,0.8,0.6c0.5,0,0.6-0.7,1.2-0.7c1-0.1,1.5-0.6,2.1-1.2
		c0.3,0.3,0.8,0.2,1.3,0.2c2.4,0,4.7,1,5.5,2.5c0.2,0.5,0.1,1-0.1,1.5c0.2,0.2,0.8,0.3,0.6,0.9c0.1,0.1,0.2-0.1,0.2,0.1
		c-0.1,0.5-0.8,0.3-1,0.5c0.2,0.1,0.3,0.1,0.5,0.3c-0.3,0-0.6,0.3-0.8,0.3c-1,0.1-1.4-1.4-2.3-1.5c0.1,0.2-0.1,0.2-0.1,0.3
		c0.7,0.3,2.2,1.5,1.4,2.1c-0.6,0-1.4,0.1-2,0.2c0,0.7,0,1.4,0.2,2c0.1,0.3,0.6,0.8,0.6,1c0,0.1-0.2,0.3-0.2,0.5
		c-0.2,0.6-0.3,1-0.2,1.8c0.1,1,0.2,2.2,0.1,3.1c-0.1,0.8-0.3,1.6-0.5,2.3c-0.3,1.4-1.2,2.5-1.5,4v0.6c-0.8,0.3-1.4,0.9-2,1.6
		c-0.1,0.1,0.5,0.5,0.5,0.6c-0.5,0.6-0.6,1.7-1,2.7c-0.5,0.6-1.4,1.2-1.8,1.7l0.2,0.5c0,0.1-0.2,0.5-0.6,0.6c-0.1,0-0.2-0.1-0.5-0.1
		c-0.9-0.1-1.5,0.2-2,0.5c0,0-0.1,0.1-0.1,0v-0.1c-0.1-0.5-0.3-0.8-0.5-0.9c-0.7-0.5-2-0.3-2.1,0.6c0,0.1-0.1,0.3-0.1,0.3l-0.1,0.1
		c-0.1,0-0.2-0.1-0.3-0.2c-0.9-0.6-2-1.4-2.2-1.5c-0.1,0-0.3,0-0.5-0.1c-0.8-0.5-1.3-1.4-2.2-1.8c-0.3,0-0.1,0.5-0.2,0.8
		c0,0.3-0.3,1-0.6,0.9c-0.8-0.2-1.8-0.5-2.2-1.3l0,0c-0.2,0-0.3,0.2-0.5,0.5c0.5,0.5,0.9,0.9,1.7,1.2c2.2,0.2,3.7,2,5.9,2.4
		c0.1,0,0.3,0.1,0.5,0.1c0.9,0.1,1.7,0.1,2.7,0.2c0.6,0.1,0.9,0.2,1.6,0.1c0.7-0.2,1.2,0,1.6-0.1c0.9-0.1,2.1-0.7,2.9-0.9
		c0.8-0.2,1.7-0.5,2.5-0.7c0.5-0.1,1.5-0.6,2-0.8c2.4-1.6,3.9-3.8,5.4-6.3c0.3-0.6,0.6-1.2,1-1.4c1.4-0.7,2-1.8,2.4-3.5
		c0.1-0.7,0.2-0.9,0.3-1.4c0.5-1.8,0.6-4.1,0.5-6c-0.1-1.7-1.6-3.7-1.7-5.4c-0.1-1.3-0.3-2-0.8-2.8c-0.2-0.5-1.5-1.8-2.5-3.7
		c-0.3-0.7-0.8-1.3-1.3-1.8c-0.5-0.6-0.9-1.3-1.4-1.7c-0.6-0.5-1.5-0.8-2.1-1.2c-0.5-0.2-0.9-0.6-1.3-0.8c-1.5-0.5-2.2,0.5-3.1,0.5
		c-0.5,0-0.5,0-0.8-0.1c-2.1-0.7-5-0.3-7.5-0.5c-1-0.1-2.1-0.1-3,0c-0.7,0.1-1.2,0.3-1.7,0.7c-0.2,0.1-0.6,0.1-0.7,0.3
		c-0.1,0.1-0.1,0.3-0.1,0.5c-0.1,0.3-0.2,0.7-0.3,1.2c0,0.3-0.1,0.7-0.2,0.6c-0.5-0.5-1.2-0.8-1.8-1.2c-0.1-0.1-0.3,0-0.5,0.2
		c-0.2,0.3-0.5,0.5-1,0.7c-1,0.2-1.7,0.7-2.3,1.4c-0.2,0.5-0.5,1-0.7,1.5c-0.6,0.8-1.4,1.6-2.1,2.5s-1.3,1.8-2,2.7
		c-0.7,0.9-1.7,1.8-1.8,3.3c-0.2,3.3-0.8,6.3-0.2,9.8c0,0.2,0.1,0.5,0.2,0.8c0.6,1.4,0.3,1.6,0.5,1.8c0.2,0.6,1.4,0.7,2.5,0.6
		c0.1,0,0.2,0,0.3,0c0.3,0.1,0.3,0.3,0.5,0.7c0,0.1,0.1,0.2,0.2,0.3c0,0-0.1-0.1-0.2-0.2c-0.1-0.1-0.2-0.2-0.3-0.2
		c-0.3-0.1-0.5,0-0.9,0c-0.5,0.1-0.6,0.2-1,0.2c-0.8,0-0.9-0.5-1.2-1c-0.2-0.6-0.2-1-0.3-1.8c-0.1-0.7-0.2-0.6-0.5-1.3
		c-0.2-0.6-0.3-1.4-0.3-2.1c0-0.7,0.1-1.2,0-1.6c0-0.5-0.1-0.6-0.1-1.6c0-1,0.5-2,0.6-3c0-1,0-1.2,0.5-2.4s1.3-2,1.7-2.7
		c0.5-0.7,0.7-1.3,1.6-2.4c0.9-1.2,1.5-1.8,2.2-2.5c0.6-0.7,0.8-1.4,1.3-2c0.3-0.6,0.8-0.7,1.4-1c0.6-0.3,1.5-0.5,1.4-0.6
		c0,0-0.5,0-0.7-0.2c-0.1-0.2,0-0.5-0.1-0.5c-0.1,0-1.4,1-2.3,1.8l0,0h-0.1c0,0-0.1,0.1-0.3,0.2L66.4,8c-0.1,0.1-0.2,0.2-0.2,0.3
		L65.7,8c-0.1,0.1-0.2,0.2-0.3,0.3l0.5,0.3c-0.1,0.1-0.1,0.2-0.2,0.3l-0.5-0.5C65,8.6,65,8.6,65,8.8c0,0-0.1,0.1-0.1,0.2l0.6,0.5
		c-0.1,0.1-0.2,0.2-0.2,0.3l-0.7-0.5c-0.1,0.1-0.2,0.2-0.2,0.5l0.5,0.5c-0.1,0.1-0.1,0.2-0.2,0.2L64.1,10c-0.1,0.1-0.2,0.2-0.2,0.5
		l0.5,0.3c-0.1,0.1-0.1,0.1-0.2,0.2L64,11.2l-0.5-0.3c-0.1,0.1-0.2,0.2-0.2,0.5l0.5,0.3c-0.1,0.1-0.1,0.2-0.2,0.2L63,11.5
		c-0.1,0.1-0.2,0.2-0.3,0.3l0.5,0.3c-0.1,0.1-0.2,0.2-0.2,0.3l-0.5-0.3c-0.1,0.1-0.1,0.2-0.2,0.2l-0.1,0.1l0.5,0.3
		c-0.1,0.1-0.1,0.2-0.2,0.2l-0.5-0.3c-0.1,0.1-0.2,0.2-0.3,0.3l0.5,0.3c-0.1,0.1-0.2,0.2-0.3,0.3l-0.5-0.3c-0.1,0.1-0.2,0.2-0.3,0.5
		l0.5,0.3c-0.1,0.1-0.1,0.2-0.2,0.2l0,0l-0.5-0.2c-0.1,0.1-0.2,0.2-0.2,0.5l0.7,0.5c-0.1,0.1-0.1,0.2-0.2,0.5l-0.6-0.3
		c-0.1,0.1-0.2,0.3-0.2,0.5l0.6,0.3c0,0.1-0.1,0.2-0.1,0.3l-0.7-0.2c-0.1,0.1-0.1,0.2-0.2,0.5l0.7,0.2c-0.1,0.1-0.1,0.3-0.2,0.5
		l-0.7-0.2c-0.1,0.1-0.1,0.3-0.2,0.5l0.7,0.2c0,0.1-0.1,0.2-0.1,0.3L59,18c-0.1,0.1-0.1,0.3-0.2,0.5l0.7,0.2c0,0.1-0.1,0.2-0.1,0.5
		l-0.8-0.2c0,0.1-0.1,0.2-0.1,0.3c0,0,0,0.1-0.1,0.1l0.8,0.3c0,0.1,0,0.1,0,0.2v0.1l-0.9-0.1c0,0.1-0.1,0.3-0.1,0.5l1,0.1
		c0,0.1,0,0.3-0.1,0.5l-1-0.2c0,0.1,0,0.3-0.1,0.5l1,0.2c0,0.1,0,0.2,0,0.3l-1.2-0.1c0,0.1,0,0.3,0,0.5l1.2,0.1c0,0.1,0,0.3,0,0.5
		l-1.2-0.1c0,0.1,0,0.3,0,0.5l1.2,0.1c0,0.1,0,0.2,0,0.3l0,0l-1.2-0.1c0,0.1,0,0.3,0,0.5l1.2,0.1c0,0.1,0,0.3,0,0.5l-1.2-0.1v0.1
		c0,0.1,0,0.2,0,0.3l1.2,0.1c0,0.1,0,0.2,0,0.3l-1.2,0.1c0,0.1,0,0.3,0,0.5l1.2-0.1c0,0.1,0,0.3,0,0.5l-1.2,0.1c0,0.2,0,0.3,0,0.5
		l1.2-0.1c0,0.1,0,0.2,0,0.3l-1.2,0.1c0,0.2,0,0.3,0,0.5l1.2-0.1c0,0.1,0,0.3,0.1,0.5h-1.2c0,0.2,0,0.3,0.1,0.5l1.3-0.1
		c0,0.1,0.1,0.2,0.1,0.3l-1.3,0.2c0,0.1,0.1,0.3,0.1,0.5l1.4-0.3c0.1,0.1,0.1,0.3,0.2,0.5l-1.4,0.3c0.1,0.1,0.1,0.3,0.1,0.5l1.4-0.2
		c0,0.1,0,0.2,0,0.2l-1.3,0.5c0,0.1,0.1,0.3,0.1,0.5l1.3-0.5c0,0.1,0,0.3,0.1,0.5L59,31.6c0,0.1,0.1,0.3,0.1,0.5l1.3-0.5l0,0
		c0,0.1,0.1,0.2,0.1,0.3l-1.4,0.6c0.1,0.1,0.1,0.2,0.2,0.5l1.3-0.5c0.1,0.1,0.1,0.2,0.2,0.5l-1.3,0.5c0.1,0.1,0.2,0.2,0.2,0.5
		l1.3-0.5c0,0.1,0.1,0.1,0.1,0.1l-1,0.8c0.1,0.1,0.2,0.2,0.3,0.3l1.2-0.8c0.1,0,0.5,0,0.9-0.3c0.2-0.2,0.5-0.3,0.7-0.5
		c0.5-0.2,0.6-0.2,0.7-0.3c0.1,0,0.2,0,0.3,0h0.1c0,0.1-0.1,0.2-0.2,0.2c-0.1,0-0.2-0.1-0.2-0.1c-0.1,0-0.8,0.5-1,0.7
		c-0.2,0.1-0.5,0.3-0.7,0.5l-1.4,1c0.1,0.1,0.2,0.2,0.3,0.3l1.2-0.8c0,0.1,0.1,0.2,0.2,0.2l-1.2,0.8c0.1,0.1,0.2,0.2,0.3,0.3
		l1.2-0.8c0.1,0.1,0.2,0.2,0.2,0.3l-1,0.8c0.1,0.1,0.2,0.2,0.3,0.3l1-0.8c0,0.1,0.1,0.1,0.1,0.2l-1.2,1c0.1,0.1,0.2,0.2,0.3,0.3
		l0.9-0.9c0.1,0.1,0.2,0.2,0.3,0.3l-0.9,0.9l0.1,0.1c0.1,0.1,0.1,0.1,0.2,0.2l0.9-0.9l0.1,0.1c0,0,0,0,0.1,0.1l-0.9,0.9
		c0.1,0.1,0.2,0.2,0.3,0.3l0.8-0.9c0.1,0.1,0.2,0.2,0.3,0.3l-0.8,0.9c0.1,0.1,0.2,0.2,0.5,0.2l0.8-0.8c0.1,0,0.1,0.1,0.2,0.1
		l-0.7,0.9c0.1,0.1,0.3,0.1,0.5,0.2l0.7-0.9c0.1,0.1,0.2,0.1,0.5,0.2L66.2,40c0.1,0.1,0.3,0.1,0.5,0.2l0.7-0.9h0.1c0,0,0,0,0.1,0
		l-0.5,1c0.1,0.1,0.3,0.1,0.5,0.2l0.5-1c0.1,0.1,0.2,0.1,0.5,0.2l-0.5,1c0.1,0.1,0.3,0.1,0.5,0.2l0.5-1c0.1,0,0.2,0.1,0.3,0.1
		l-0.5,1c0.1,0.1,0.3,0.1,0.5,0.2l0.5-1c0.1,0.1,0.2,0.1,0.5,0.2l-0.8,1.2c0.1,0.1,0.3,0.1,0.5,0.2l0.5-1c0.1,0,0.2,0.1,0.3,0.1
		l-0.5,1c0.1,0.1,0.3,0.1,0.5,0.2l0.5-0.9c0.1,0.1,0.3,0.1,0.5,0.2l-0.3,0.9c0.1,0.1,0.3,0.1,0.5,0.2l0.3-0.9h0.1
		c0.1,0,0.1,0,0.2,0.1L72,42.9c0.1,0.1,0.3,0.1,0.5,0.2l0.3-0.9c0.1,0.1,0.3,0.1,0.5,0.2L73,43.3c0.1,0.1,0.3,0.1,0.5,0.2l0.3-0.9
		c0.1,0,0.2,0.1,0.2,0.1l-0.2,1c0.2,0.1,0.3,0.1,0.5,0.1l0.2-1c0.1,0,0.3,0.1,0.5,0.1l-0.2,1c0.1,0.1,0.3,0.1,0.5,0.2l0.2-1
		c0.1,0,0.2,0.1,0.3,0.1l-0.1,1.2c0.1,0,0.3,0.1,0.5,0.1l0.1-1c0.1,0,0.3,0.1,0.5,0.1l-0.1,0.9l0,0c0.1,0,0.3,0,0.5,0l0.1-0.9
		c0.1,0,0.2,0,0.3,0.1v0.8c0.1,0,0.3,0,0.5,0v-0.8c0.1,0,0.2,0,0.3,0h0.1v0.8c0.1,0,0.3,0,0.5,0v-0.8c0.1,0,0.2,0,0.3,0v0.8
		c0.1,0,0.3,0,0.5,0v-0.8c0.1,0,0.3,0,0.5,0v0.7c0.1,0,0.3,0,0.5,0v-0.7c0.1,0,0.2,0,0.3,0v0.7c0.1,0,0.3,0,0.5,0v-0.7
		c0.1,0,0.3,0,0.5,0v0.7c0.1,0,0.3,0,0.5,0v-0.6c0.1,0,0.2,0,0.3,0v0.6c0.1,0,0.3,0,0.5,0v-0.6c0.1,0,0.3,0,0.5,0v0.6
		c0.1,0,0.2,0,0.3,0H84v-0.6c0.1,0,0.2,0,0.3,0l0.1,0.5c0.1,0,0.3-0.1,0.5-0.1l-0.1-0.5c0.1,0,0.3,0,0.5-0.1l0.1,0.3
		c0.2,0,0.3-0.1,0.5-0.1l-0.1-0.3h0.1c0.1,0,0.1,0,0.2,0v0.2l0,0c0.2-0.1,0.3-0.2,0.3-0.3v-0.1c1.7-0.6,3.7-1.7,4.3-2.1
		c0.7-0.3,3-1.8,4.5-3.6c1.5-1.7,3.5-4,4.4-6.9c0.9-2.9,1.4-4,1.5-6.6C101.7,21.3,99.8,15.9,99.1,13.9z M89.1,38.3
		c-1,0-1.8,0.5-2.5,0.9c0.1-1,1.3-2.3,0.6-3.6c0.3-0.7,0.7-1.6,1.6-1.6c0.2,0.3,0.5,0.7,0.7,0.9C89.7,36.1,89.8,37.6,89.1,38.3z
		 M64.3,32.6L64.3,32.6L64.3,32.6L64.3,32.6z"/>
	<path class="st2" d="M68.6,39C68.6,39,68.6,39.1,68.6,39C68.6,39.1,68.7,39.1,68.6,39l0.2,0.1c0.1-0.1,0.2-0.2,0.2-0.3
		c0.3-0.5,0.8-0.9,1.3-1.3c0,0.2,0,0.7-0.1,0.9l0,0l0,0c0.2,0.2,0.6,0.5,0.9,0.6l0,0l0,0c0-0.2,0-0.3,0-0.5c0,0-0.1-0.1-0.2-0.1
		l-0.1-0.1c0,0,0-0.2,0-0.3v-0.1c0-0.1,0-0.1,0.1-0.1l0,0c0.1,0.2,0.2,0.5,0.3,0.7c0.1,0.3,0.2,0.6,0.5,0.8l0,0l0,0l0,0
		c0-0.2,0.1-0.3,0.2-0.6v-0.1c0,0,0,0,0-0.1c-0.6-0.7-0.9-1.6-0.9-2.7v-0.1c0-0.1,0-0.3,0-0.5c0.1-0.1,0.1-0.1,0.2-0.1
		s0.3,0.1,0.5,0.1h0.1c0.2,0.1,0.5,0.2,0.7,0.2c0.1,0,0.2,0,0.2-0.1l0,0c0.1-0.2-0.1-0.6-0.3-0.8c-0.1-0.2-0.3-0.5-0.6-0.6l0,0
		c0,0,0,0-0.1,0S71.6,34,71.6,34c0,0.1-0.1,0.1-0.1,0.1c-2.3-2.4-3.6-5.3-3.8-8.9c0,0,0,0-0.1,0c0,0-0.1,0-0.1,0.1
		c0,3.2,1,6.2,3.3,9.2c-0.1,0.1-0.2,0.2-0.3,0.3c-0.1,0.1-0.2,0.3-0.5,0.6c-0.1,0.1-0.1,0.2-0.2,0.3c-0.3,0.5-0.9,1.2-0.8,2
		c-0.1,0.2-0.3,0.5-0.5,0.7C68.8,38.7,68.7,38.8,68.6,39z"/>
	<path class="st2" d="M68.9,27.2c0.6,3,1.7,4.8,3,6.8l0,0l0,0c0.3-0.2,0.6-0.3,1-0.5l0,0c0,0,0,0,0-0.1c-2.8-2.7-3.9-7-3.3-11.6
		c0.1-0.8,0.3-1.5,0.6-2.2c0.1-0.5,0.3-0.9,0.5-1.4l0,0l0,0c-0.1,0-0.1,0-0.2,0c-0.2,0-0.5,0-0.6-0.2c0.2-0.8,0.7-1.8-0.1-2.5h-0.1
		c-0.1,0.1-0.2,0.1-0.3,0.2c-0.1,0-0.1-0.1-0.2-0.1c-0.1-0.1-0.1-0.1-0.2-0.1l0,0c-0.7,0.3-1.3,0.9-1.6,1.4c0,0,0,0-0.1,0.1
		c-0.1,0.2-0.2,0.3-0.2,0.5l0,0c0.1,0,0.1,0.1,0.2,0.1h0.1c0,0,0.1-0.1,0.2-0.2c0.1-0.1,0.1-0.2,0.2-0.2c0.2-0.2,0.6-0.5,0.9-0.5
		c0.1,0,0.1,0,0.2,0l0,0c0,0.2,0.1,0.3,0.2,0.6c0.1,0.1,0.1,0.2,0.1,0.3c0,0.2,0,0.5-0.1,0.7c-0.1,0.2-0.1,0.5-0.1,0.7
		c0,0.2,0.1,0.2,0.2,0.3c0.1,0.1,0.1,0.1,0.2,0.2C68.9,21.3,68.4,24.4,68.9,27.2z"/>
	<path class="st2" d="M82.9,31.7L82.9,31.7c0.1,0,1.8-1.6,2.7-3.9c0.9-2.4,0.8-3.9,0.8-3.9s0-0.1-0.1-0.1c0,0-0.1,0-0.1,0.1
		c0,0,0.1,1.5-0.8,3.9c-0.8,2.3-2.5,3.8-2.5,3.8C82.8,31.6,82.8,31.7,82.9,31.7C82.8,31.7,82.8,31.7,82.9,31.7z"/>
	<path class="st2" d="M83.2,32.7v0.1c0,0,0,0,0.1,0c0,0,0,0,0.1,0c0,0,2-2.4,3-4.8c0.9-2.4,0.9-4.7,0.9-4.8c0,0,0-0.1-0.1-0.1l0,0
		c0,0-0.1,0-0.1,0.1c0,0,0,2.3-0.9,4.7C85.2,30.4,83.2,32.7,83.2,32.7z"/>
	<path class="st2" d="M82.5,30.4L82.5,30.4c0.1,0,1.3-0.9,2.2-3.5c0.8-2.2,0.6-3.7,0.6-3.7l-0.1-0.1l-0.1,0.1c0,0,0.2,1.5-0.5,3.6
		c-0.9,2.5-2.1,3.3-2.1,3.3C82.4,30.3,82.4,30.3,82.5,30.4L82.5,30.4z"/>
	<path class="st2" d="M90.9,17.8c0.1,0,0.2,0,0.2,0l0,0c0,0,0-0.1,0.1-0.2c0.1-0.2,0.1-0.5,0-0.6c-0.2-0.1-0.5-0.2-0.7-0.5
		c-0.5-0.3-0.9-0.6-1.5-0.7H89c-0.1,0.2-0.1,0.5-0.2,0.7c-0.2,0.6-0.5,1.3-0.5,2.1l0,0c0.6,1.2,1,2.4,1.2,3.9l0,0l0,0l0,0
		c0.1-0.1,0.1-0.2,0.2-0.3c0.1-0.2,0.2-0.5,0.2-0.7s-0.1-0.6-0.2-1c-0.1-0.2-0.2-0.6-0.2-0.8c0-0.2-0.1-0.3-0.1-0.6
		C89.4,18,90.3,17.9,90.9,17.8z"/>
	<path class="st2" d="M86.4,34c0-0.1,0.1-0.1,0.1-0.2c0.1-0.2,0.2-0.3,0.1-0.6l0,0l0,0c-0.1,0.1-0.1,0.1-0.2,0.2
		c-0.2,0.2-0.6,0.6-0.7,0.8c-0.3,0.1-0.6,0.5-0.8,0.7c-0.1,0.1-0.2,0.2-0.3,0.3h-0.1l0,0c-0.1,0-0.1,0-0.2,0c-0.1,0-0.1,0-0.2,0l0,0
		l0,0c0,0.3,0,0.5,0,0.6c-0.5,0.3-0.9,0.5-1.4,0.7c-0.2,0.1-0.5,0.1-0.7,0.2c-0.3,0.1-0.3,0.5-0.2,0.7c0,0.2,0,0.5-0.1,0.7
		c-0.1,0-0.2,0-0.5,0c-0.1,0-0.3,0-0.5,0c-0.1,0-0.1,0.1-0.1,0.1l0,0c0,0,0,0,0,0.1l0,0c0.2,0,0.5,0,0.7,0c0.3,0,0.7,0,1.2,0.1
		c0,0,0,0,0.1,0c0.1-0.2,0.3-0.3,0.5-0.6c0.5-0.5,0.8-0.9,1.4-1.4c0.1-0.1,0.2-0.1,0.3,0c0.3,0.6-0.2,0.9-0.6,1.3L84,37.9
		c-0.2,0.1-0.3,0.3-0.6,0.5c-0.1,0.1-0.2,0.2-0.5,0.3c0,0-0.1,0.1-0.2,0.1c-0.2,0.2-0.8,0.6-0.9,0.6l0,0c-0.3-0.3-0.9-0.6-1.7-0.6
		c-0.5,0-1,0.1-1.6,0.6c-1.8-0.5-3.2-1.6-4.1-3.5l0,0h-0.1c-0.1,0-0.1,0-0.2,0c-0.1,0-0.2,0-0.2,0s0,0-0.1,0c0,0,0,0,0,0.1
		c0.1,0.1,0.1,0.1,0.2,0.2s0.2,0.2,0.2,0.3c0.1,0.2,0.2,0.6,0.3,1c0,0.1,0,0.2,0,0.2c0,0.2,0,0.5,0.2,0.7c0.1,0.1,0.5,0.3,0.9,0.6
		c0.8,0.5,2,1,2.7,1.7c0,0,0,0,0.1,0l0,0c0.2-0.7,0.8-1.2,1.6-1.2c0.2,0,0.5,0,0.7,0.1c0.6,0.2,0.7,0.7,0.8,1.2l0,0l0,0l0,0
		c0.6-0.3,1.2-0.5,1.5-0.5c0.2,0,0.5,0.1,0.6,0.2c0,0,0,0,0.1,0c0.1,0,0.2-0.1,0.2-0.2l0,0c0,0,0,0,0-0.1s-0.2-0.2-0.2-0.3
		c0.2-0.5,0.7-0.8,1-1.2c0.2-0.2,0.6-0.5,0.8-0.8c0.1-0.2,0.2-0.7,0.3-1c0.1-0.2,0.1-0.5,0.2-0.6c0.1-0.3,0.2-0.5,0.1-0.6l0,0l0,0
		c0,0,0,0-0.1,0.1c-0.2,0.1-0.5,0.3-0.7,0.3c0.1-0.3,0.7-1.4,1-2C86.3,34.3,86.4,34.1,86.4,34z"/>
	<path class="st2" d="M83,27.4v0.1c0,0,0,0,0.1,0c0,0,0,0,0.1,0c0,0,0.8-0.8,1-2.3c0.3-1.5,0-2.4,0-2.4l-0.1-0.1L84,22.8
		c0,0,0.2,0.9,0,2.3C83.7,26.6,83,27.4,83,27.4z"/>
	<path class="st2" d="M82.5,25.8v0.1c0,0,0,0,0.1,0c0,0,0,0,0.1,0c0,0,0.3-0.3,0.6-1c0.1-0.6,0-1,0-1.2l-0.1-0.1l-0.1,0.1
		c0,0,0.1,0.5,0,1C82.8,25.5,82.5,25.8,82.5,25.8z"/>
	<path class="st2" d="M88.1,18.1c-0.5-0.2-1.2-0.3-2.1-0.5c-0.2-0.1-0.5-0.2-0.7-0.3c-0.2-0.1-0.6-0.2-0.9-0.5
		c-0.1-0.1-0.3-0.2-0.5-0.3c-0.3-0.2-0.8-0.5-1.2-0.6c-0.3,0-0.7,0.2-1.2,0.5c-0.2,0.2-0.6,0.5-0.8,0.5s-0.5,0.1-0.8,0.1
		c-0.3,0-0.6,0-0.9,0c-0.3,0-0.7-0.1-1-0.1c-0.2,0-0.5,0-0.7,0c-0.2-0.1-0.5-0.2-0.7-0.3c-0.5-0.2-0.9-0.5-1.5-0.6l0,0
		c-0.1,0.1-0.3,0.2-0.5,0.5c-0.5,0.5-0.9,1-1.7,1l0,0c-0.1,0.1-0.2,0.1-0.3,0.2C72.4,17.8,72,18,71.7,18c-0.1,0-0.2-0.1-0.3-0.1l0,0
		c0,0,0,0-0.1,0c0,0,0,0,0,0.1s0,0.1,0,0.2c0,0.1,0,0.3,0.1,0.5c0,0,0,0,0.1,0c0.2-0.2,0.6-0.2,1-0.2c0.2,0,0.3,0,0.6,0
		c0.2,0,0.3,0,0.6,0l0,0l0,0v-0.1c0.3-0.6,1-1.4,1.7-1.4l0,0c0.5,0,0.9,0.5,1.3,0.9c0,0.1-0.1,0.2-0.1,0.3s0,0.2-0.1,0.3l0,0
		c-0.7,0-0.9,0.3-1.2,0.7c0,0,0,0,0,0.1c0.1,0.1,0.2,0.3,0.2,0.6c0,0.1-0.1,0.2-0.2,0.2l0,0l0,0c0.1,0,0.2,0.1,0.2,0.1
		c0.1,0.1,0.3,0.1,0.5,0.2l0,0l0,0c0.2-0.1,0.5-0.5,0.5-0.7c0-0.2,0-0.5-0.1-0.6c0.5-1,1.4-1.6,2.7-1.6c0.2,0,0.6,0,0.8,0.1
		c0.9,0.1,1.4,0.7,2,1.3c0.2,0.2,0.5,0.5,0.7,0.7l0,0c0,0,0.1,0,0.3,0c0.1,0,0.1,0,0.2,0c0.2,0,0.3,0,0.5,0c0,0,0,0,0.1,0
		c0,0,0,0,0-0.1c-0.1-0.3-0.6-0.6-0.9-0.8c-0.3-0.1-0.7-0.3-0.8-0.6c-0.1-0.2-0.1-0.5,0-0.6c0.2-0.3,0.8-0.6,1.4-0.6
		c0.2,0,0.5,0,0.6,0.1c0.6,0.2,0.8,0.9,0.9,1.4l0,0l0,0l0,0c0.3-0.2,0.9-0.3,1.7-0.3c0.2,0,0.3,0,0.6,0c0.1,0,0.1,0,0.2,0.1
		c0.1,0,0.2,0.1,0.3,0.1C88.1,18.3,88.1,18.3,88.1,18.1C88.2,18.2,88.2,18.1,88.1,18.1C88.2,18.1,88.2,18.1,88.1,18.1z"/>
	<path class="st2" d="M78,35.8L78,35.8L78,35.8c0.3-0.1,0.6-0.2,0.9-0.2c0.2,0,0.5,0,0.7,0s0.5,0,0.7,0c0.3,0,0.7,0,0.9-0.2l0,0V35
		c0,0,0-0.1-0.1-0.1l0,0c-0.2,0-0.5,0.1-0.7,0.1c-0.1,0-0.3,0.1-0.5,0.1c-0.1,0-0.1,0-0.2,0c-0.2,0-0.6,0-0.8-0.1
		c-0.2,0-0.5-0.1-0.8-0.1c-0.2,0-0.5,0-0.7,0.1l0,0C77.6,35.4,77.8,35.6,78,35.8z"/>
	<path class="st2" d="M89.1,15.2c-0.1,0-0.1,0.2,0,0.1c0.3,0,0.8,0,1,0.2c0.1,0,0.2-0.1,0.1-0.1C89.9,15.2,89.4,15.2,89.1,15.2z"/>
	<path class="st2" d="M81.5,10.4c-0.1-1.5-1-1.8-1.7-1.8l0,0c-0.5,0-0.9,0.1-1.2,0.5c-0.3,0.3-0.5,0.8-0.5,1.3c0,0.9,0.7,1.8,1,2.3
		c0,0.1,0.1,0.1,0.1,0.2c0.2,0.2,0.1,0.5,0.1,0.6s-0.2,0.1-0.2,0.2h-0.1c0,0,0,0-0.1,0l0,0c0,0-0.1,0-0.1,0.1v0.1c0,0,0,0,0,0.1
		c0,0,0,0,0.1,0c0,0,0,0,0.1,0h0.1c0.1,0,0.5,0,0.8,0c0.2,0,0.6,0,0.6,0l0,0c0,0,0,0,0.1,0c0.1,0,0.2,0,0.2-0.1v-0.1c0,0,0,0-0.1,0
		l0,0c-0.1,0-0.2,0-0.2-0.1c-0.1-0.1-0.1-0.2-0.1-0.3c0-0.2,0.1-0.3,0.2-0.6c0.1-0.2,0.2-0.3,0.3-0.5c0-0.1,0.1-0.1,0.1-0.2
		c0.1-0.1,0.2-0.2,0.2-0.2l0,0c0,0,0-0.1-0.1-0.1c0,0,0,0-0.1,0L81,11.5l0,0l0,0c-0.1,0.1-0.5,0.5-1,0.5l0,0l0,0
		c-0.6,0-1.3-0.5-1.3-1.3c0-0.3,0.1-0.7,0.3-0.9c0.2-0.2,0.6-0.3,0.9-0.3c0,0,0,0,0.1,0c0.8,0,1.4,0.6,1.4,1.4c0,0.1,0,0.2,0.1,0.2
		l0,0l0,0C81.5,10.6,81.5,10.6,81.5,10.4C81.5,10.5,81.5,10.4,81.5,10.4z"/>
	<path class="st2" d="M88.4,14.6c0.5,0,1,0.1,1.5,0.3c0.1,0,0.2-0.1,0.1-0.1c-0.5-0.2-1-0.3-1.5-0.3C88.3,14.5,88.3,14.6,88.4,14.6z
		"/>
	<path class="st2" d="M86.2,14.1c0.5-0.3,1-0.6,1.6-0.3c0.1,0,0.2-0.1,0.1-0.1C87.3,13.4,86.6,13.6,86.2,14.1
		C86,14.1,86.1,14.2,86.2,14.1z"/>
	<path class="st2" d="M85.6,14.1c0.3-0.6,0.9-0.9,1.6-1c0.1,0,0-0.2-0.1-0.2c-0.7,0.1-1.3,0.6-1.7,1.2
		C85.3,14.1,85.5,14.2,85.6,14.1z"/>
	<path class="st2" d="M86.8,12.7c0.1,0,0-0.2-0.1-0.1c-0.7,0.2-1.3,0.7-1.6,1.3c-0.1,0.1,0.1,0.1,0.2,0.1
		C85.6,13.3,86.2,12.8,86.8,12.7z"/>
	<path class="st2" d="M76.6,10.5c0.3,0.5,0.8,0.8,1.4,0.9c0.1,0,0.1-0.2,0-0.2c-0.6-0.1-0.9-0.5-1.3-0.9
		C76.6,10.1,76.5,10.4,76.6,10.5z"/>
	<path class="st2" d="M87.5,14.3c0.5-0.1,0.9-0.1,1.4,0.1c0.1,0,0.2-0.1,0.1-0.1c-0.5-0.2-0.9-0.2-1.5-0.1
		C87.4,14.2,87.4,14.3,87.5,14.3z"/>
	<path class="st2" d="M77.7,10.6c0.1,0,0.2-0.2,0.1-0.2c-0.3-0.1-0.6-0.3-0.8-0.7c-0.1-0.1-0.2,0.1-0.1,0.1
		C77,10.1,77.3,10.4,77.7,10.6z"/>
	<path class="st2" d="M70.1,12.6c-1.2,0.1-3.2,1.2-3.5,1.7v0.1l0,0l0,0c0.5-0.5,2.2-1.3,3.5-1.6C70.2,12.7,70.2,12.7,70.1,12.6
		C70.2,12.6,70.1,12.6,70.1,12.6z"/>
	<path class="st2" d="M67.4,15.3L67.4,15.3C67.5,15.3,67.5,15.3,67.4,15.3c0.6-0.7,1.6-1.4,2.4-1.8c0,0,0,0,0-0.1c0,0,0,0-0.1,0
		C69.2,13.6,67.8,14.6,67.4,15.3L67.4,15.3z"/>
	<path class="st2" d="M77.9,7.1c0,0.6,0,1,0.2,1.5c0.1,0.1,0.2,0,0.1-0.1C78,8.1,78,7.6,77.9,7.1C78,7,77.9,6.9,77.9,7.1z"/>
	<path class="st2" d="M86.9,33.9c0.1,0,0.1-0.1,0.3-0.2c0.1-0.1,0.2-0.2,0.3-0.3l0,0c0,0,0,0,0,0.1c0,0,0,0.1,0.1,0.1c0,0,0,0,0.1,0
		l0,0c0.1-0.1,0.1-0.3,0.1-0.7c0.1-0.2,0.1-0.6,0.2-0.8c0.1-0.2,0.2-0.6,0.3-0.8c0.2-0.3,0.5-0.8,0.6-1.3c0.1-0.2,0.1-0.5,0.2-0.8
		c0.2-0.7,0.5-1.5,0.6-2.2l0,0c0,0,0,0-0.1,0c0,0-0.1,0-0.1,0.2c0,0,0,0.1-0.1,0.1c-0.1,0.1-0.2,0.3-0.2,0.5
		c-0.1,0.1-0.2,0.3-0.3,0.6c-0.3,1.4-1,2.7-1.8,3.7c0,0,0,0,0,0.1c0,0.1,0.1,0.1,0.2,0.2c0.1,0,0.1,0.1,0.1,0.1
		c-0.1,0.2-0.2,0.3-0.3,0.6C87.1,33.2,86.9,33.4,86.9,33.9C86.8,33.8,86.8,33.8,86.9,33.9C86.8,33.8,86.9,33.9,86.9,33.9z"/>
	<path class="st2" d="M67.3,16L67.3,16C67.4,16,67.4,16,67.3,16c0.2-0.1,0.3-0.2,0.5-0.5c0.6-0.6,1.4-1.4,2.3-1.8c0,0,0,0,0-0.1l0,0
		l0,0c0,0,0,0-0.1,0l0,0C68.9,14.2,68,15,67.3,16L67.3,16z"/>
	<path class="st2" d="M76.5,11.2c0.5,0.5,1.2,0.8,1.8,1c0.1,0,0.2-0.2,0-0.2c-0.7-0.1-1.3-0.5-1.7-0.9
		C76.6,10.8,76.5,11.1,76.5,11.2z"/>
	<path class="st2" d="M76.5,11.8c0.5,0.6,1.2,0.9,2,0.9c0.1,0,0.1-0.2,0-0.2c-0.7,0-1.3-0.3-1.7-0.8C76.6,11.5,76.4,11.6,76.5,11.8z
		"/>
	<path class="st2" d="M76.8,12.7c0.3,0.1,0.6,0.3,0.9,0.3c0.3,0.1,0.7,0.2,1.2,0.2c0.1,0,0.2-0.2,0-0.2c-0.3,0-0.7-0.1-1-0.1
		c-0.3,0-0.6-0.2-0.9-0.3C76.9,12.4,76.6,12.7,76.8,12.7z"/>
	<path class="st2" d="M82.6,12.4c-0.2,0.3-0.6,0.6-0.9,0.8c-0.2,0.1-0.6,0.2-0.8,0.3c-0.1,0.1,0.1,0.2,0.1,0.1
		c0.3-0.2,0.7-0.3,1-0.5c0.2-0.2,0.5-0.5,0.7-0.7C83,12.4,82.8,12.3,82.6,12.4z"/>
	<path class="st2" d="M78.3,15.2c-0.6,0.1-1,0.6-1.4,0.9c-0.1,0.1,0.1,0.2,0.2,0.1c0.3-0.3,0.8-0.7,1.3-0.9
		C78.5,15.3,78.5,15.2,78.3,15.2z"/>
	<path class="st2" d="M79.1,15.3c-0.6,0.2-1,0.5-1.5,0.9c-0.1,0.1,0,0.3,0.1,0.2c0.5-0.3,0.9-0.7,1.4-0.8
		C79.2,15.4,79.2,15.2,79.1,15.3z"/>
	<path class="st2" d="M79.1,16.6c0.7-0.6,1.6-1,2.5-1.3c0.1,0,0-0.2-0.1-0.2c-0.9,0.2-1.8,0.7-2.5,1.3C78.7,16.6,79,16.7,79.1,16.6z
		"/>
	<path class="st2" d="M77.6,15.1c-0.5,0.1-0.9,0.3-1.3,0.7c-0.1,0.1,0.1,0.2,0.2,0.1c0.2-0.3,0.7-0.6,1.2-0.6
		C77.7,15.3,77.7,15.1,77.6,15.1z"/>
	<path class="st2" d="M80.3,15.2c-0.8,0.2-1.5,0.6-2.2,1c-0.1,0.1,0,0.2,0.1,0.2c0.7-0.5,1.4-0.8,2.2-1
		C80.5,15.4,80.5,15.2,80.3,15.2z"/>
	<path class="st2" d="M83.3,14.8c-1.3,0.3-2.5,0.9-3.6,1.7c-0.1,0.1,0,0.2,0.1,0.1c1-0.8,2.3-1.4,3.6-1.7
		C83.6,15,83.6,14.8,83.3,14.8z"/>
	<path class="st2" d="M82.1,33.7L82.1,33.7c-0.1-0.1-0.2-0.1-0.3-0.1c-0.3,0-0.7,0.2-0.9,0.3c-0.2,0.1-0.5,0.3-0.7,0.3
		s-0.3,0.1-0.6,0.1l0,0c-0.5,0-0.8-0.1-1.2-0.3c-0.1-0.1-0.2-0.1-0.5-0.2c0,0,0,0-0.1,0c-0.1,0.1-0.1,0.2-0.2,0.3
		c0,0.1-0.1,0.1-0.1,0.2l0,0l0,0c0.3,0.1,0.7,0.2,1.3,0.2c0.3,0,0.6,0,0.9,0c0.2,0,0.6,0,0.8,0c0.3,0,0.6,0,0.7,0.1l0,0
		c0,0,0,0,0.1,0c0.1-0.2,0.3-0.5,0.5-0.7C82,34,82,33.9,82.1,33.7L82.1,33.7z"/>
	<path class="st2" d="M82.3,27.3L82.3,27.3C82.2,27.3,82.2,27.3,82.3,27.3c-0.2,0.9-0.6,1.5-1.3,2.1c-0.2,0-0.3,0-0.6,0
		c-0.3,0-0.7,0.1-1,0.2c-0.3,0.1-0.7,0.2-1.2,0.2c-0.6-0.3-0.9-1-1.2-1.7c0,0,0,0-0.1,0l0,0c-0.1,0.6,0,1.2,0.3,1.5
		c0.2,0.3,0.2,0.6,0.3,0.7c0,0.1,0,0.2,0.1,0.2s0.1,0.1,0.3,0.1c0.3,0,0.9-0.1,1.3-0.2c0.1,0,0.1,0,0.2-0.1c0.5-0.1,0.9-0.3,1.5-0.3
		c0.1,0,0.2,0,0.3,0l0,0C82,29.4,82.5,28.6,82.3,27.3z"/>
	<path class="st2" d="M82,14.3l-0.1,0.1c-0.6,0.3-1.7,0.6-2.8,0.5c-0.9-0.1-1.6-0.7-2.7-0.6c0,0,0,0-0.1,0c0,0.1-0.1,0.1-0.1,0.2
		c0.2,0,0.5,0,0.7,0.1c0.8,0.1,1.5,0.6,2.3,0.7c1,0.1,2.1-0.1,3-0.6c0.1,0,0.1-0.1,0.1-0.1s-0.1,0-0.1-0.1
		C82.3,14.4,82.1,14.3,82,14.3z"/>
	<path class="st2" d="M71.6,16.1c-0.3,0.3-0.5,0.8-0.6,1.3c0,0.1,0.1,0.2,0.2,0c0.1-0.5,0.2-0.8,0.6-1.2
		C71.8,16.3,71.7,16,71.6,16.1z"/>
	<path class="st2" d="M72.6,15.7c-0.5,0.5-0.8,1-0.9,1.7c0,0.1,0.2,0.1,0.2,0c0.1-0.6,0.3-1.3,0.8-1.6
		C72.8,15.7,72.6,15.6,72.6,15.7z"/>
	<path class="st2" d="M73.7,15.3c-0.6,0.5-1.2,1-1.3,1.8c0,0.1,0.2,0.1,0.2,0c0.1-0.7,0.6-1.3,1.2-1.6
		C73.8,15.4,73.8,15.2,73.7,15.3z"/>
	<path class="st2" d="M70.9,18.9c-0.2,0.3-0.3,1.3-0.5,1.5c-0.6,2.5-0.5,5.4,0.2,7.7c0.5,1.5,1.3,3.1,2.3,4.4
		c0.8,0.9,1.5,1.7,2.4,2.5c0,0,0.8,0.7,0.9,0.7l0,0c0.1,0,0.1-0.1,0.2-0.1c0,0,0-0.1,0-0.2l0,0c-0.9-0.6-1.7-1.5-2.5-2.4l-0.1-0.2
		c-2.4-2.7-3.6-6.7-3.1-10.6c0.1-1.3,0.5-2.5,0.7-3.1v-0.1c0,0-0.1-0.1-0.2-0.1C71,18.8,70.9,18.8,70.9,18.9z"/>
	<path class="st2" d="M89.2,24C89.2,24,89.1,23.9,89.2,24c-0.1-0.1-0.2-0.1-0.2,0c0,0-0.2,3-1.6,5.8c-1.7,3.6-4.5,5.5-4.5,5.5v0.1
		c0,0,0,0,0.1,0l0,0c0,0,2.8-2,4.6-5.5C89,27,89.2,24,89.2,24z"/>
	<path class="st2" d="M75.7,15.7c-0.1,0.1,0.1,0.2,0.2,0.1c0.2-0.3,0.7-0.6,1.2-0.8c0.1,0,0-0.2-0.1-0.1C76.4,15,76,15.2,75.7,15.7z
		"/>
	<path class="st2" d="M75,14.6c-0.8,0.6-1.6,1.2-2,2.2c0,0.1,0.2,0.1,0.2,0C73.5,15.9,74.3,15.3,75,14.6C75.3,14.8,75,14.6,75,14.6z
		"/>
	<path class="st2" d="M75.8,14.6c-0.8,0.3-1.5,0.9-2,1.7c-0.1,0.1,0.1,0.2,0.2,0.1c0.5-0.7,1.2-1.3,2-1.7
		C76.2,14.8,76,14.6,75.8,14.6z"/>
</g>
<g>
	<path class="st3" d="M39.8,57.7c0,0-2.9-2.7-3-2.8c-0.1-0.1-0.1-0.1-0.1-0.2c0-0.1,0.1-0.1,0.1-0.1l2.1-0.1c0.2,0,0.3-0.1,0.3-0.3
		v-0.5c0-0.2-0.1-0.3-0.3-0.3c0,0-1.7,0.1-1.8,0.1s-0.2,0-0.2,0c0-0.1,0.1-0.2,0.1-0.2c0.1-0.1,2.7-2.8,2.7-2.8
		c0.1-0.1,0.1-0.3,0-0.5l-0.3-0.3c-0.1-0.1-0.3-0.1-0.5,0L35,53.5c0,0-0.3,0.3-0.5,0.6c-0.1,0.1-0.1,0.3,0,0.5
		c0.1,0.1,0.6,0.6,0.6,0.6l3.8,3.5c0.1,0.1,0.3,0.1,0.5,0l0.3-0.3C39.9,58.1,39.9,57.9,39.8,57.7z"/>
	<path class="st3" d="M76.3,57.6c0,0-2.9-2.7-3-2.8c-0.1-0.1-0.1-0.1-0.1-0.2c0-0.1,0.1-0.1,0.1-0.1l2.1-0.1c0.2,0,0.3-0.1,0.3-0.3
		v-0.5c0-0.2-0.1-0.3-0.3-0.3c0,0-1.7,0.1-1.8,0.1c-0.1,0-0.2,0-0.2,0c0-0.1,0.1-0.2,0.1-0.2c0.1-0.1,2.7-2.8,2.7-2.8
		c0.1-0.1,0.1-0.3,0-0.5l-0.3-0.3c-0.1-0.1-0.3-0.1-0.5,0l-3.7,3.8c0,0-0.3,0.3-0.5,0.6c-0.1,0.1-0.1,0.3,0,0.5
		c0.1,0.1,0.6,0.6,0.6,0.6l3.8,3.5c0.1,0.1,0.3,0.1,0.5,0l0.3-0.3C76.4,58,76.4,57.7,76.3,57.6z"/>
	<path class="st3" d="M86.4,57.6c0,0-2.9-2.7-3-2.8c-0.1-0.1-0.1-0.1-0.1-0.2c0-0.1,0.1-0.1,0.1-0.1l2.1-0.1c0.2,0,0.3-0.1,0.3-0.3
		v-0.5c0-0.2-0.1-0.3-0.3-0.3c0,0-1.7,0.1-1.8,0.1c-0.1,0-0.2,0-0.2,0c-0.1-0.1,0.1-0.2,0.1-0.2c0.1-0.1,2.7-2.8,2.7-2.8
		c0.1-0.1,0.1-0.3,0-0.5l-0.3-0.3c-0.1-0.1-0.3-0.1-0.5,0l-3.6,3.9c0,0-0.3,0.3-0.5,0.6c-0.1,0.1-0.1,0.3,0,0.5
		c0.1,0.1,0.6,0.6,0.6,0.6l3.8,3.5c0.1,0.1,0.3,0.1,0.5,0l0.3-0.3C86.6,58,86.6,57.7,86.4,57.6z"/>
	<path class="st3" d="M46.3,57.6c0,0-3.5-3.1-3.5-3.2c-0.1-0.1-0.1-0.2,0-0.3c0.1-0.1,3.3-3.3,3.3-3.3c0.1-0.1,0.1-0.3,0-0.5
		l-0.3-0.3c-0.1-0.1-0.3-0.1-0.5,0l-3.6,3.6c0,0-0.3,0.3-0.6,0.6c-0.1,0.1-0.1,0.3,0,0.5c0.1,0.1,0.6,0.6,0.6,0.6l3.7,3.3
		c0.1,0.1,0.3,0.1,0.5,0l0.3-0.3C46.6,57.9,46.6,57.7,46.3,57.6z"/>
	<path class="st3" d="M34.5,58.1l-3.7-8.3c-0.1-0.1-0.2-0.1-0.3,0l-0.2,0.6l0,0l-2.3,7c-0.1,0.2,0,0.3,0.3,0.2l0.7-0.2
		c0.2-0.1,0.2-0.2,0.3-0.5l1.4-4.4c0,0,0-0.1,0.1-0.1s0.1,0.1,0.1,0.1l2.7,5.8c0.1,0.1,0.2,0.2,0.5,0.1l0.3-0.2
		C34.5,58.4,34.6,58.2,34.5,58.1z"/>
	<path class="st3" d="M26.9,58.1l-3.8-8.2c-0.1-0.1-0.2-0.1-0.3,0l-0.2,0.6l0,0l-2.3,7c-0.1,0.2,0,0.3,0.3,0.2l0.7-0.2
		c0.2-0.1,0.2-0.2,0.3-0.5l1.4-4.4c0,0,0-0.1,0.1-0.1c0.1,0,0.1,0.1,0.1,0.1l2.7,5.8c0.1,0.1,0.2,0.2,0.5,0.1l0.3-0.2
		C26.9,58.4,27,58.2,26.9,58.1z"/>
	<path class="st3" d="M19.1,49.9L19.1,49.9l-3.2,3.6c0,0-0.1,0.1-0.2,0.1c-0.1,0,0-0.1,0-0.1l0.3-3c0-0.2-0.1-0.3-0.3-0.3h-0.5
		c-0.1,0-0.1,0-0.2,0.1c-0.1,0-0.1,0.1-0.1,0.2l-0.5,6.2c0,0.1,0,0.2,0.1,0.2l0,0h0.1c0.1-0.1,0.3-0.3,0.5-0.5l0,0l3.1-3.5
		c0,0,0.1-0.1,0.2-0.1s0.1,0.2,0.1,0.2v5.2c0,0.2,0.1,0.3,0.3,0.3h0.5c0.2,0,0.3-0.1,0.3-0.3v-8.2C19.4,49.8,19.2,49.8,19.1,49.9z"
		/>
	<path class="st3" d="M58.2,50L58.2,50l-3.1,3.7c0,0-0.1,0.1-0.2,0.1c-0.1,0-0.1-0.1-0.1-0.1l0.2-3c0-0.2-0.1-0.3-0.3-0.3h-0.5
		c-0.1,0-0.1,0-0.2,0.1c-0.1,0.1-0.1,0.1-0.1,0.2l-0.2,6.3c0,0.1,0,0.2,0.1,0.2l0,0h0.1c0.1-0.1,0.2-0.3,0.5-0.5l0,0l2.9-3.6
		c0,0,0.1-0.1,0.2-0.1c0.1,0,0.1,0.2,0.1,0.2l0.1,5.2c0,0.2,0.1,0.3,0.3,0.3h0.5c0.2,0,0.3-0.1,0.3-0.3l-0.2-8.2
		C58.4,49.9,58.3,49.9,58.2,50z"/>
	<path class="st3" d="M92.2,57.7l-0.8-7.5c0-0.2-0.1-0.2-0.3-0.3h-0.1l0,0h-2.4l0,0h-0.1c-0.2,0-0.3,0.1-0.3,0.3l-0.8,7.5
		c0,0.2,0.1,0.3,0.3,0.3h0.5c0.2,0,0.3-0.1,0.3-0.3c0,0,0.7-6.3,0.7-6.6s0.2-0.2,0.2-0.2h0.9c0,0,0.2,0,0.2,0.2s0.7,6.7,0.7,6.7
		c0,0.2,0.2,0.3,0.3,0.3H92C92.1,58.1,92.2,57.9,92.2,57.7z"/>
	<path class="st3" d="M81.5,52.2c-0.2-0.1-0.7-0.3-0.7-0.3l-2.4-1.3c-0.3-0.1-0.6-0.3-0.8-0.5c-0.2-0.1-0.5,0-0.5,0.2v7.5
		c0,0.2,0.1,0.3,0.3,0.3h0.5c0.2,0,0.3-0.1,0.3-0.3v-5.8c0-0.1,0-0.3,0.2-0.2c0.6,0.2,1.2,0.6,1.3,0.7c0.2,0.1,0,0.2,0,0.2l-0.9,0.8
		c-0.1,0.1-0.1,0.3,0,0.5l0.2,0.3c0.1,0.1,0.3,0.1,0.5,0l1.5-1.3c0,0,0.5-0.3,0.6-0.5c0.1-0.1,0.1-0.1,0.1-0.2
		C81.7,52.4,81.6,52.3,81.5,52.2z"/>
	<path class="st3" d="M70.1,50.5h-0.5c-0.2,0-0.3,0.1-0.3,0.3v0.6c0,0,0,0.2-0.2,0.2c-0.1,0-1,0-1.8,0.1c-0.2,0-0.2-0.2-0.1-0.2
		c0-0.1,0.9-2.2,0.9-2.2c0.1-0.1,0-0.3-0.2-0.5l-0.5-0.2c-0.1-0.1-0.3,0-0.5,0.2l-1,2.7l0,0l0,0l-0.3,0.9l0,0
		c-0.1,0.2-0.1,0.3-0.1,0.5c0,0.1,0.1,0.1,0.2,0.1c0,0,3.1-0.1,3.3-0.2c0.2,0,0.2,0.2,0.2,0.2v5.3c0,0.2,0.1,0.3,0.3,0.3H70
		c0.2,0,0.3-0.1,0.3-0.3l0.1-7.5C70.3,50.6,70.2,50.5,70.1,50.5z"/>
	<path class="st3" d="M12.9,57.4l-2.1-3.2c0,0-0.1-0.1-0.1-0.2c0-0.1,0-0.2,0-0.2l2-3.7c0.1-0.1,0-0.3-0.1-0.5l-0.3-0.2
		c-0.1-0.1-0.3,0-0.5,0.1L10,52.6c0,0,0,0.1-0.1,0.1c-0.1,0-0.1-0.1-0.1-0.1l-1.7-2.7c-0.1-0.1-0.3-0.2-0.5-0.1L7.3,50
		c-0.1,0.1-0.2,0.3-0.1,0.5l2.1,3.1c0,0,0.1,0.1,0.1,0.2c0,0.1-0.1,0.2-0.1,0.2l-1.8,3.8c-0.1,0.1,0,0.3,0.1,0.5l0.3,0.2
		c0.1,0.1,0.3,0,0.5-0.1l1.6-3c0,0,0-0.1,0.1-0.1c0.1,0,0.1,0.1,0.1,0.1l1.7,2.7c0.1,0.1,0.3,0.2,0.5,0.1l0.3-0.2
		C12.9,57.7,13,57.6,12.9,57.4z"/>
	<path class="st3" d="M105.6,57.3l-2.1-3.2c0,0-0.1-0.1-0.1-0.2c0-0.1,0-0.1,0-0.1l2-3.7c0.1-0.1,0-0.3-0.1-0.5h-0.3
		c-0.1-0.1-0.3,0-0.5,0.1l-1.7,3.1c0,0,0,0.1-0.1,0.1c-0.1,0,0-0.2,0-0.2l-1.7-2.7c-0.1-0.1-0.3-0.2-0.5-0.1l-0.3,0.2
		c-0.1,0.1-0.2,0.3-0.1,0.5l2.1,3.1c0,0,0.1,0.1,0.1,0.2c0,0.1-0.1,0.2-0.1,0.2l-2,3.6c-0.1,0.1,0,0.3,0.1,0.5l0.3,0.2
		c0.1,0.1,0.3,0,0.5-0.1l1.6-3c0,0,0-0.1,0.1-0.1c0.1,0,0.1,0.1,0.1,0.1l1.7,2.7c0.1,0.1,0.3,0.2,0.5,0.1l0.3-0.2
		C105.6,57.6,105.7,57.5,105.6,57.3z"/>
	<path class="st3" d="M6.6,58.1l-3.8-8.2c-0.1-0.1-0.2-0.1-0.3,0l-0.1,0.6l0,0L0,57.4c0,0.3,0,0.5,0.3,0.3l3.1-0.9l0.2-0.1
		c0.2-0.1,0.2-0.2,0.2-0.5l-0.1-0.5c0-0.1-0.2-0.2-0.5-0.2L2,56c0,0-0.1,0.1-0.2,0c0-0.1,0-0.2,0-0.2s0.9-2.8,0.9-2.9
		s0.1-0.2,0.1-0.2c0.1,0,0.1,0.1,0.2,0.2c0,0.1,2.5,5.5,2.5,5.5c0.1,0.1,0.2,0.2,0.5,0.1l0.3-0.2C6.6,58.4,6.7,58.2,6.6,58.1z"/>
	<path class="st3" d="M99.5,58l-3.8-8.2c-0.1-0.1-0.2-0.1-0.3,0l-0.2,0.6l0,0l-2.3,7c-0.1,0.2,0,0.3,0.3,0.2l3.1-1l0.3-0.1
		c0.2-0.1,0.2-0.2,0.2-0.5l-0.1-0.5c-0.1-0.2-0.2-0.2-0.5-0.2l-1.4,0.5c0,0-0.1,0.1-0.2,0c0-0.1,0-0.2,0-0.2s0.9-2.8,0.9-2.9
		c0-0.1,0.1-0.2,0.1-0.2c0.1,0,0.1,0.1,0.2,0.2c0,0.1,2.7,5.5,2.7,5.5c0.1,0.1,0.2,0.2,0.5,0.1L99.5,58C99.5,58.3,99.6,58.2,99.5,58
		z"/>
	<path class="st3" d="M112.6,58l-3.8-8.2c-0.1-0.1-0.2-0.1-0.3,0l-0.1,0.7l0,0l-2.3,7c-0.1,0.2,0,0.3,0.3,0.2l3.1-1l0.3-0.1
		c0.2-0.1,0.2-0.2,0.2-0.5l-0.1-0.5c-0.1-0.2-0.2-0.2-0.5-0.2l-1.4,0.5c0,0-0.1,0.1-0.2,0c0-0.1,0-0.2,0-0.2s0.9-2.8,0.9-2.9
		s0.1-0.2,0.1-0.2c0.1,0,0.1,0.1,0.2,0.2c0,0.1,2.7,5.5,2.7,5.5c0.1,0.1,0.2,0.2,0.5,0.1l0.3-0.2C112.6,58.3,112.7,58.2,112.6,58z"
		/>
</g>
<polygon class="st4" points="56,71.8 53.7,73 54.1,70.3 52.3,68.5 54.8,68.1 56,65.8 57.2,68.1 59.8,68.5 57.9,70.3 58.4,73 "/>
<polygon class="st4" points="45.2,71.8 43,73 43.4,70.3 41.5,68.5 44.1,68.1 45.2,65.8 46.5,68.1 49,68.5 47.2,70.3 47.6,73 "/>
<polygon class="st4" points="66.7,71.8 64.5,73 64.9,70.3 63,68.5 65.6,68.1 66.7,65.8 68,68.1 70.5,68.5 68.7,70.3 69.1,73 "/>
</svg>
