<?xml version="1.0" encoding="utf-8"?>
<!-- Generator: Adobe Illustrator 19.2.1, SVG Export Plug-In . SVG Version: 6.00 Build 0)  -->
<svg version="1.1" id="Слой_1" xmlns="http://www.w3.org/2000/svg" xmlns:xlink="http://www.w3.org/1999/xlink" x="0px" y="0px"
	 viewBox="0 0 97.8 54.8" style="enable-background:new 0 0 97.8 54.8;" xml:space="preserve">
<style type="text/css">
	.st0{fill:#FFFFFF;}
	.st1{fill:#DCD6C3;}
	.st2{fill:#366A7E;}
	.st3{fill:#4D4435;}
	.st4{fill:#BCA064;}
</style>
<path class="st0" d="M58.6,36.9c2.3,1.2,4.5,2,5.1,2.2c0.1,0,0.2,0.1,0.3,0.1c0.5,0.2,1.1,0.5,2.1,0.6c0.8,0.1,1.8,0.1,2.8,0.1
	c0.2,0,0.4,0,0.6,0l0.3,0c1.3-0.1,2.6-0.1,3.5-0.2c1.1-0.2,2-0.5,2.5-0.7c0.3-0.1,0.5-0.3,0.6-0.5c1.4-0.5,2.7-1.3,3.4-1.6l0.1-0.1
	c0.1-0.1,2.6-1.5,4.3-3.4c1.6-1.8,3.2-3.9,4.1-6.5l0.1-0.3c0.8-2.3,1.1-3.4,1.2-5.8c0.1-2.5-1.5-7.3-2.2-9.3
	c-0.8-2.1-3.1-5.6-3.2-5.7c-0.4-0.6-0.9-1-1.3-1.3c-0.2-0.1-0.3-0.2-0.4-0.3c-0.4-0.5-0.7-0.8-0.8-0.9c-0.2-0.1-0.4-0.3-0.7-0.4
	c-0.1-0.1-0.3-0.3-0.4-0.4c-1.1-0.7-2.2-1.2-3.3-1.3c-0.6-0.1-1.2-0.1-1.6-0.1l-0.3,0c-0.2,0-0.4,0-0.7-0.1c-0.3,0-0.6-0.1-0.9-0.1
	c-0.2,0-0.3,0-0.5,0c-0.1,0-0.3,0-0.4,0c-0.1,0-0.2,0-0.4,0c-0.2,0-0.4,0-0.7,0c-0.4,0-1-0.1-1.6-0.2c-0.9-0.1-1.7-0.2-2.5-0.2
	c-0.1,0-0.2,0-0.3,0c-0.5,0-1.2,0.1-1.9,0.1c-0.3,0-0.8,0.1-1.4,0.3c-0.2,0-0.4,0.1-0.5,0.1c-1.8,0.4-2.7,1-3,1.2
	c-0.4,0.3-0.6,0.7-0.7,1c0,0-0.1,0-0.1,0c-0.7,0-1.8,0.9-2.6,1.6c-0.1,0-0.2,0.1-0.3,0.2c0,0-0.2,0.1-0.4,0.3
	c-0.1,0-0.1,0.1-0.2,0.2c-0.1,0-0.1,0.1-0.2,0.1c-0.1,0.1-0.3,0.2-0.4,0.3c0,0-0.1,0.1-0.1,0.1c-0.1,0-0.1,0.1-0.2,0.1
	c-0.1,0.1-0.1,0.2-0.2,0.2C55,6.5,55,6.6,54.9,6.7c0,0.1-0.1,0.1-0.1,0.2c0,0,0,0,0,0.1c0,0-0.1,0.1-0.1,0.1
	c-0.1,0.1-0.2,0.2-0.2,0.4c0,0-0.1,0.1-0.1,0.1c0,0-0.1,0.1-0.1,0.1L54,8.1c0,0.1-0.1,0.1-0.1,0.2c0,0,0,0,0,0c0,0-0.1,0.1-0.1,0.1
	c-0.1,0.1-0.2,0.2-0.2,0.3c0,0-0.1,0.1-0.1,0.1c0,0-0.1,0.1-0.1,0.1c-0.1,0.1-0.1,0.2-0.2,0.3c0,0-0.1,0.1-0.1,0.1
	c0,0-0.1,0.1-0.1,0.1c0,0.1-0.1,0.1-0.1,0.1c0,0-0.1,0.1-0.1,0.1c0,0-0.1,0.1-0.1,0.1c0,0-0.1,0.1-0.1,0.1c-0.1,0.1-0.2,0.3-0.3,0.4
	c0,0.1-0.1,0.1-0.1,0.2c-0.1,0.1-0.1,0.1-0.1,0.2c-0.1,0.1-0.2,0.3-0.3,0.4c0,0.1-0.1,0.1-0.1,0.2c0,0-0.1,0.1-0.1,0.1
	c-0.1,0.1-0.2,0.3-0.3,0.4c0,0.1-0.1,0.1-0.1,0.2c0,0,0,0,0,0.1c0,0-0.1,0.1-0.1,0.1l-0.2,0.4c0,0.1-0.1,0.1-0.1,0.2c0,0,0,0,0,0.1
	c0,0-0.1,0.1-0.1,0.2c-0.1,0.1-0.1,0.3-0.2,0.4c0,0,0,0.1-0.1,0.1c0,0,0,0.1-0.1,0.1c0,0-0.1,0.1-0.1,0.1c-0.1,0.1-0.1,0.3-0.2,0.4
	c0,0,0,0.1-0.1,0.1c0,0-0.1,0.1-0.1,0.1c-0.1,0.1-0.1,0.3-0.2,0.4c0,0.1,0,0.1-0.1,0.2c0,0,0,0.1-0.1,0.1c0,0-0.1,0.1-0.1,0.2
	c0,0.1-0.1,0.2-0.1,0.3l-0.1,0.1c0,0,0,0.1,0,0.1c0,0.1-0.1,0.2-0.1,0.3c0,0,0,0.1-0.1,0.1c-0.1,0.2-0.1,0.3-0.2,0.5
	c0,0,0,0.1,0,0.1l0,0c0-0.1,0-0.2,0-0.3c-0.2-2.6-1-4-1.4-5l-0.1-0.2c-0.5-1-0.9-1.7-2.1-3.3c-0.3-0.4-0.6-0.8-0.8-1.2
	c-0.8-1.1-1.4-1.9-1.8-2.3c-0.8-0.8-4.1-2.6-4.7-3c-2-1.1-5.2-1.5-6.6-1.6c-0.1,0-0.2,0-0.4,0c-1.9,0-5.6,0.6-7.2,1
	c-0.8,0.2-1.2,0.3-1.5,0.4c-0.3,0.1-0.4,0.1-0.6,0.2c-0.1,0-0.1,0-0.2,0c-0.2,0-0.5,0.1-0.7,0.2c0,0-1.8,1-2.7,1.4
	c-0.8,0.4-1.4,0.9-2.1,1.6c-0.6,0.5-1.5,1.1-1.9,1.6c-0.2,0.1-0.3,0.2-0.5,0.4c-0.1,0.1-0.2,0.3-0.3,0.4c0,0.1-0.1,0.1-0.1,0.2
	c-0.1,0.1-0.1,0.1-0.1,0.2c-0.1,0.1-0.2,0.3-0.3,0.4c0,0-0.1,0.1-0.1,0.1c0,0-0.1,0.1-0.1,0.1c-0.1,0.1-0.2,0.3-0.2,0.4
	c0,0.1-0.1,0.1-0.1,0.2C12,8.9,11.9,9,11.9,9c-0.1,0.1-0.1,0.3-0.2,0.4c0,0.1-0.1,0.2-0.1,0.2c0,0.1-0.1,0.1-0.1,0.2
	c-0.1,0.1-0.1,0.3-0.2,0.4c0,0.1-0.1,0.1-0.1,0.2c0,0.1-0.1,0.1-0.1,0.2C11,10.9,11,11,10.9,11.2c0,0,0,0.1,0,0.1c0,0,0,0.1-0.1,0.2
	l-0.1,0.4c0,0.1,0,0.1-0.1,0.2c0,0.1-0.1,0.1-0.1,0.2l-0.1,0.4c0,0.1,0,0.1,0,0.2c0,0.1,0,0.1-0.1,0.2l-0.1,0.4c0,0.1,0,0.1,0,0.2
	c0,0.1-0.1,0.1-0.1,0.2l0,0c-0.6,1.6-1.3,3.5-1.6,5.4c-0.2,1.2-0.1,2.1,0.2,2.9c0,0.1,0,0.1,0,0.2c0,0.2,0.1,0.4,0.1,0.6
	c0,0.1,0.1,0.3,0.1,0.4c0,0.1,0,0.3,0.1,0.4c0.1,0.2,0.1,0.3,0.2,0.5c0,0.1,0.1,0.2,0.1,0.2c0,0.1,0.1,0.2,0.1,0.2
	c0.1,0.1,0.2,0.3,0.3,0.4c0.1,0.1,0.1,0.2,0.2,0.2c0,0.1,0.1,0.2,0.1,0.2c0.1,0.1,0.2,0.3,0.3,0.4c0,0.1,0.1,0.1,0.1,0.2
	c0,0.1,0.1,0.1,0.1,0.2c0.1,0.1,0.2,0.2,0.3,0.4c0,0,0.1,0.1,0.1,0.1c0,0.1,0.1,0.1,0.1,0.2l0.3,0.4c0,0.1,0.1,0.1,0.1,0.1
	c0,0.1,0.1,0.1,0.1,0.2l0.3,0.3c0,0,0.1,0.1,0.1,0.1c0,0,0.1,0.1,0.1,0.1l0.3,0.3c0,0.1,0.1,0.1,0.2,0.2c0,0.1,0.1,0.1,0.1,0.2
	l0.2,0.3c0,0,0.1,0.1,0.1,0.1c0,0,0.1,0.1,0.1,0.1l0.3,0.3c0,0.1,0.1,0.1,0.1,0.1c0,0.1,0.1,0.1,0.1,0.2l0.3,0.3
	c0,0,0.1,0.1,0.1,0.1c0,0,0,0.1,0.1,0.1l0.3,0.3c0,0.1,0.1,0.1,0.1,0.2c0,0.1,0.1,0.1,0.1,0.2l0.3,0.4c0,0,0,0.1,0.1,0.1
	c0,0,0,0.1,0.1,0.1c0,0,0,0,0,0.1c0,0,0,0,0.1,0.1c1.2,1.6,3.4,4.2,5,5.3c3.1,2.2,6.4,2.3,8.4,2.4l0.2,0c0.5,0,0.9,0,1.3,0
	c1.9,0,3-0.2,3.8-0.5c0.2,0,0.3-0.1,0.4-0.2c0.1-0.1,0.3-0.1,0.4-0.2c0.1-0.1,0.3-0.1,0.4-0.2l0,0c0.1,0,0.2-0.1,0.2-0.1
	c0.1,0,0.2-0.1,0.2-0.1c0.1-0.1,0.2-0.2,0.4-0.3c0,0,0.1,0,0.1-0.1c0,0,0.1,0,0.1,0c0.1,0,0.2-0.1,0.4-0.1c0,0,0.1,0,0.1-0.1
	c0,0,0.1,0,0.1,0c0.2-0.1,0.3-0.1,0.5-0.2c0.1,0,0.2-0.1,0.2-0.1c3.1-0.8,5.4-3.8,6.4-5.4c0.2-0.2,0.3-0.4,0.4-0.6
	c0.3-0.4,0.6-0.9,0.9-1.2c1.2-1.6,2.3-3.4,3.2-5.7c0.1-0.3,0.2-0.6,0.3-0.9v0c0,0,0,0,0,0v0c0,0.2,0,0.3,0,0.5v0c0,0,0,0,0,0
	c0.1,0.8,0.2,1.3,0.5,2c0.2,0.4,0.3,0.8,0.3,1.2c0,0.1,0,0.1,0.1,0.2c0,0,0,0,0,0c0,0.1,0,0.2,0.1,0.3c0,0.1,0.1,0.2,0.1,0.3
	c0.2,0.7,0.8,1.7,2.2,3.4c0.2,0.2,0.3,0.4,0.4,0.6c0.3,0.4,0.6,0.8,1.4,1.6c1,1.2,2.2,1.7,3.8,2.5C57.8,36.5,58.2,36.7,58.6,36.9z"
	/>
<path class="st0" d="M10.4,45.3l-0.1,0.2l-0.5-1.1L10.4,45.3z"/>
<path class="st0" d="M82.4,45.2L82.4,45.2L82.2,45L82.4,45.2z"/>
<path class="st1" d="M59.5,5.4l-1.8,0.8c0,0-0.9,0.6-1.3,1.1c-0.4,0.5-1.5,2.5-2.3,3.4c-0.8,0.8-1.6,2.1-2,2.7
	c-0.4,0.6-1.1,1.9-1.4,2.7c-0.3,0.8-0.7,1.4-0.6,4.7c0.1,3.3,0.1,3.6,0.5,4.7c0.3,0.8,0.4,1.5,0.6,2.2c0.2,0.7,1.2,2.1,1.9,2.9
	c0.7,0.9,0.7,1,1.7,2.1c1,1.1,2.2,1.6,4.5,2.7c2.3,1.1,4.4,1.9,5,2.1c0.5,0.2,1.1,0.5,2,0.6c0.9,0.1,2.2,0.2,3.1,0.1
	c1.3-0.1,2.7-0.1,3.6-0.2c0.9-0.1,1.7-0.4,2-0.6c0.4-0.2,0.5-0.5,0.5-0.5l-1.7,0.4l-2.6,0.2l-1.9,0l-2.1-0.3l-2.4-0.9l-4.7-1.7
	l-2.8-1.9l-2.8-3l2-2.2l-3.3,0.6l-0.9-1.1l-0.2-1L52,25.3L51.5,24l0.3,0.6L52,22l0.2-2.3l-0.5-3.1l0-0.5l1.6-1.8l2.3-2.3l1.9-2.4
	l0.8-1l3.3-2.6L59.5,5.4z"/>
<path class="st1" d="M24.1,3.4c0.5-0.1,1-0.3,1.5-0.4c0.6-0.1,1.2-0.1,1.7-0.2c1.1-0.2,2.4,0,3.5,0.1C31.4,3,31.9,3,32.4,3.3
	c0.4,0.2,0.9,0.4,1.4,0.6c0.9,0.5,1.9,0.9,2.8,1.5c0.3,0.2,0.7,0.4,1,0.5c0.3,0.2,0.6,0.4,0.9,0.6c0.3,0.2,0.7,0.3,1,0.4
	c0.3,0.1,0.9,0.3,1.2,0c-0.1-0.2-0.4-0.3-0.5-0.4c-0.2-0.2-0.3-0.4-0.5-0.6c-0.2-0.4,0.3-0.3-0.1-0.6C39.2,5,37,3.6,35.6,3.1
	c-0.6-0.2-1.3-0.4-1.9-0.6c-0.9-0.2-1.8-0.3-1.9-0.3c-0.5,0-0.7-0.1-0.9-0.1c-0.3,0-0.2-0.3-0.4-0.3c-0.7-0.1-1.3,0.2-1.9,0.2
	C27.9,2,27.3,2,26.7,2.2c-0.5,0.1-1.2,0.4-1.7,0.6c-0.1,0.1-1.4,0.7-1.1,0.9"/>
<path class="st1" d="M19.8,9.3c0-0.1-0.2,0.3-0.4,0.5c-0.2,0.4-0.2,0.4-0.3,0.7c-0.2,0.6-0.3,1.3-0.2,1.9c0.1,0.5,0.3,0.7,0.6,1.1
	c0.4,0.5,1,0.6,1.5,0.8c1,0.4,1.9,0.8,2.9,1c0.6,0.1,1,0,1.4-0.4c0.2-0.1,0.3-0.3,0.4-0.5c0.1-0.2,0-0.6,0.1-0.9
	c0.1-0.8,0.2-1.8,0.3-2.6c0-0.2,0-0.5-0.1-0.6c-0.1-0.1-0.3-0.3-0.4-0.4c-0.3-0.4-0.6-0.3-1.1-0.4c-0.4-0.1-0.7-0.3-1.1-0.4
	c-0.4-0.2-0.8-0.3-1.3-0.4c-0.5-0.1-1-0.1-1.4,0C20.5,8.9,20.2,9.2,19.8,9.3"/>
<path class="st1" d="M33.9,8.1c0,0.1,0.1,0.5,0.2,0.6c-0.7,0-0.6,0.8-0.5,1.2c0,0.3,0.1,0.5,0.2,0.8c0,0.3,0.1,0.5,0.1,0.8
	c0.2,0.9,0.6,1.8,0.8,2.7c0.1,0.5,0.5,0.8,1,1c0.2,0.1,0.5,0.1,0.8,0.1c0.3,0,0.6,0.1,0.9,0.1c0.1,0,0.3,0,0.4,0
	c0.1,0,0.2,0.1,0.3,0.1c0.3,0.1,0.6,0,0.9-0.1c0.5-0.1,0.6-0.5,1-0.9c0.1-0.1,0.3-0.1,0.3-0.2c0.1-0.1,0.1-0.3,0.2-0.4
	c0.2-0.3,0.2-0.6,0.2-1c0-0.3,0.1-0.6,0.2-0.9c0.1-0.2,0.3-0.8,0.1-1c0.1-0.1,0.1-0.4,0.1-0.6c0-0.1,0.1-0.2,0.1-0.3
	c0-0.1-0.1-0.2-0.1-0.4c0-0.5,0.4-0.8,0.4-1.4c0-0.6-0.5-0.5-0.8-0.8c-0.2-0.2-0.3-0.3-0.6-0.4c-0.2-0.1-0.4-0.2-0.6-0.2
	c-1-0.4-2.3-0.5-3.3-0.2c-0.4,0.1-0.9,0.3-1.3,0.4c-0.2,0.1-0.4,0.3-0.6,0.4C34.2,7.9,33.9,7.9,33.9,8.1"/>
<path class="st1" d="M36,19.9c0.2,1.1,1.6,5.7,1.7,6c0.1,0.3,0.3,0,0.5-0.1c0.4-0.1,0.8-0.2,1.2-0.4c0.2-0.1,0.3-0.2,0.5-0.3
	c0.2-0.1,0.2-0.3,0.4-0.4c0-0.2,0.1-0.4,0.1-0.6c0-0.2,0.1-0.4,0.1-0.6c0-0.2,0-0.5,0-0.7c0-0.2-0.1-0.4-0.1-0.6
	c0-0.4,0.3-0.8,0.4-1.2c0-0.3,0-0.7,0-1.4c0-0.4-0.5-0.5-0.9-0.5c-0.2,0-0.5,0-0.7,0.1c-0.2,0-0.5,0.1-0.7,0.1
	c-0.4,0.1-0.8,0.3-1.2,0.4c-0.4,0.1-0.9,0-1.4,0L36,19.9z"/>
<path class="st1" d="M28.8,20.9c-0.1,0.2-0.2,0.4-0.3,0.6c-0.2,0.6-0.4,0.8-0.6,1.4c-0.2,0.5-0.5,1.3-0.8,1.8
	c-0.2,0.4-0.2,0.5-0.4,0.9c-0.2,0.4-1.2,2.6-0.1,2.4c0.3,0,0.6-0.2,0.8-0.1c0.1,0,0.2,0.2,0.3,0.2c0.1,0,0.3,0,0.5,0
	c0.5,0.1,1.1,0.1,1.6,0.2c0.6,0.1,1.1-0.2,1.6-0.2c0.1,0,0.3,0.1,0.4,0.1c0.1,0,0.1-0.1,0.1-0.1c0.1,0,0.1,0.1,0.1,0.1
	c0.3,0,0.6,0,0.9,0c0.5,0.1,1,0.3,1.1-0.3c0.1-0.4-0.2-0.9-0.3-1.4c-0.2-0.5-0.4-0.8-0.6-1.3c-0.2-0.5-0.3-1-0.5-1.5
	c-0.2-0.5-0.4-1-0.6-1.5c-0.1-0.5-0.3-1-0.6-1.4c-0.3-0.5-0.7-0.8-1.1-1.1c-0.4-0.3-0.9,0-1.2,0.3C29,20.3,28.9,20.6,28.8,20.9z"/>
<path class="st1" d="M20.1,18.8c-1.4-0.3-0.8,5.4-0.4,6.1c0.4,0.7,1.1-0.3,1.5-0.6c0.5-0.5,0.9-0.9,1.3-1.4c0.6-0.9,1.2-1.7,1.5-2.6
	c0.3-0.8-1.2-1-1.7-1.1c-0.4-0.1-0.9,0.1-1.4,0c-0.2,0-0.4-0.1-0.6-0.2c-0.2,0-0.4-0.2-0.6-0.2"/>
<path class="st1" d="M68.9,5.9c-0.2,0.2-0.4,0.5-0.6,0.7C68.2,6.7,68.1,6.9,68,7c0,0.1,0,0.2,0,0.3c0,0,0,0,0,0.1c0,0-0.1,0-0.1,0.1
	c-0.1,0.3-0.3,0.6-0.3,1c0,0.4,0,0.7,0.2,1c0.1,0.3,0.2,0.6,0.4,0.9c0.2,0.3,0.4,0.5,0.5,0.8c0.1,0.1,0.2,0.3,0.3,0.4
	c0.1,0.1,0.2,0.3,0.2,0.4c0,0,0.1,0,0.1,0c0.1,0.2,0.2,0.3,0.3,0.5c0.1,0.2,0.2,0.4,0.2,0.6c0,0.5-0.1,0.8-0.3,1.2
	c-0.2,0.3-0.5,0.6-0.9,0.7c-0.2,0.1-0.4,0.1-0.5,0.2c-0.2,0.1-0.4,0.2-0.5,0.3c0,0.1-0.3,0.3-0.4,0.5c-0.1,0.2-0.2,0.4-0.3,0.6
	c0,0.2-0.1,0.5-0.1,0.7c0,0.3,0.1,0.5,0.2,0.7c0.1,0.4,0.2,0.9,0.2,1.4c0,0.2-0.1,0.4-0.2,0.6c0,0.7,0,1.3-0.1,2
	c0,0.2,0,0.4-0.1,0.6c-0.1,0.1-0.1,0.3-0.2,0.4c-0.2,0.3-0.3,0.6-0.4,1c0,0.2,0,0.5,0.1,0.6c0.1,0.1,0.2,0.4,0.3,0.4
	c0.1,0.3,0.4,0.6,0.5,0.9c0.2,0.4,0.2,0.7,0.1,1.1c-0.1,0.4-0.1,0.9-0.1,1.3c0,0.4-0.1,0.9,0,1.3c0,0.2,0.1,0.4,0.1,0.5
	c0.1,0.2,0,0.4,0.1,0.6c0,0.4,0,0.8,0.1,1.2c0.1,0.3,0.4,0.6,0.6,0.8c0.3,0.2,0.4,0.6,0.5,0.9c0.2,0.8,0.2,1.7,0.9,2.2
	c0.2,0.1,0.4,0.2,0.6,0.3c0.3,0.1,0.5,0,0.7,0.1c0.4,0.1,0.8,0,1.2,0.1c0.5,0.1,0.9-0.2,1.3-0.3c0.4-0.1,0.8-0.4,1.2-0.6
	c0.4-0.2,0.8-0.6,1.2-0.9c0.3-0.2,0.7-0.5,1.1-0.6c0.1,0,0.1,0,0.3,0c0.1,0,0.2-0.1,0.3-0.2c0.2-0.1,0.3-0.2,0.5-0.3
	c0.2-0.2,0.5-0.4,0.7-0.5c0.3-0.3,0.5-0.5,0.8-0.8c0.2-0.2,0.4-0.4,0.5-0.7c0.1-0.2,0.3-0.5,0.4-0.7c0.2-0.4,0.6-0.7,0.9-1
	c0.4-0.4,0.8-0.8,1.2-1.1c0.4-0.4,1-0.7,1.3-1.1c0.3-0.4,0.5-1,0.6-1.4c0.1-0.4,0.3-0.9,0.5-1.3c0.4-0.9,0.3-1.9,0.4-2.9
	c0.1-0.5,0.3-0.9,0.5-1.4c0.1-0.2,0.1-0.4,0.2-0.6c0.1-0.2,0-0.4,0.1-0.7c0.1-0.5,0.6-0.5,1-0.5c0.2,0,0.3,0,0.5,0.2
	c0.2,0.1,0.2,0.3,0.2,0.5c0.2,0.8,0.2,1.7,0.2,2.6c0,0.4-0.1,0.8-0.3,1.2c-0.1,0.4-0.2,0.8-0.3,1.2c-0.1,0.8-0.4,1.4-0.7,2.1
	c-0.1,0.2-0.2,0.3-0.3,0.5c-0.1,0.2-0.1,0.4-0.3,0.5c-0.3,0.3-0.3,0.6-0.5,0.9c-0.2,0.3-0.3,0.6-0.5,0.9c-0.2,0.3-0.5,0.6-0.7,0.9
	c-0.1,0.1-0.2,0.3-0.2,0.4c-0.1,0.3-0.4,0.5-0.5,0.7c0,0-0.1,0-0.1,0c0,0.1-0.2,0.3-0.3,0.4c-0.1,0.1-0.2,0.2-0.3,0.3
	c-0.2,0.2-0.3,0.5-0.5,0.7c-0.2,0.2-0.4,0.4-0.6,0.6c-0.2,0.2-0.5,0.4-0.8,0.6c-0.5,0.4-1.1,0.7-1.6,1.1c-0.4,0.3-1,0.5-1.4,0.8
	c-0.4,0.3-0.9,0.4-1.4,0.7c-0.4,0.2-0.8,0.3-1.2,0.5c-0.7,0.3-1.6,0.3-2.3,0.5c-0.2,0-0.4,0.1-0.6,0.1c-0.2,0-0.4,0.1-0.6,0.1
	c-0.4,0-0.8,0.2-1.2,0.1c-0.2,0-0.4-0.1-0.6-0.1c-0.2,0-0.4,0-0.6,0c-0.2,0-0.3-0.1-0.5-0.1c-0.1,0-0.1-0.1-0.3-0.1
	c-0.1,0-0.2,0-0.4,0.1c-0.8,0-1.7-0.2-2.4-0.5c-0.4-0.2-0.7-0.3-1.1-0.4c-0.2-0.1-0.4-0.2-0.6-0.3c-0.2-0.1-0.5-0.2-0.7-0.3
	c-0.2-0.1-0.4-0.2-0.6-0.3c-0.2-0.1-0.4-0.3-0.6-0.4c-0.2-0.1-0.4-0.2-0.6-0.2c-0.2-0.1-0.4-0.3-0.5-0.4c-0.3-0.2-0.6-0.4-0.9-0.5
	c-0.2-0.1-0.3,0-0.4-0.1c-0.1-0.1,0-0.1-0.1-0.2c-0.2-0.4-0.2-0.8-0.2-1.3c0-0.5-0.2-1.2-0.2-1.7c0-0.2-0.1-0.4-0.2-0.6
	c-0.1-0.2,0-0.5,0-0.7c-0.1-0.6-0.2-1.2-0.3-1.7c-0.1-0.4-0.2-0.8-0.3-1.2c-0.1-0.5-0.1-1-0.3-1.4c-0.3-0.9-0.8-1.8-1.2-2.7
	c-0.3-0.7-0.7-1.5-1-2.2c-0.3-0.6-0.6-1.2-0.7-1.9c-0.1-0.6-0.4-1.2-0.4-1.8c0-0.3-0.1-0.5-0.1-0.8c0-0.3,0.1-0.6,0.2-0.9
	c0.3-0.6,0.5-1.1,0.9-1.5c0.2-0.2,0.4-0.5,0.7-0.7c0.3-0.3,0.6-0.5,0.9-0.8c0.5-0.5,0.8-1,1.3-1.5c0.4-0.4,0.7-0.8,1.2-1.2
	c0.4-0.3,0.8-0.7,1.2-1c0.6-0.3,1.2-0.6,1.8-1c0.4-0.2,0.8-0.4,1.1-0.6c0.3-0.2,0.7-0.3,0.9-0.5c0.3-0.3,0.4-0.6,0.7-0.9
	C66,5,66.6,4.8,67,4.6c0.6-0.2,1.2-0.4,1.8-0.4c0.2,0,0.4,0,0.7,0.1c0.1,0,0.2,0,0.3,0.1c0.1,0.1,0.1,0.1,0.3,0.2
	c0.1,0.3,0.1,0.4-0.2,0.6c-0.2,0.1-0.4,0.1-0.6,0.3c-0.1,0.1-0.1,0.2-0.1,0.2C69.1,5.7,69,5.8,68.9,5.9z"/>
<path class="st1" d="M23.3,2.8c0,0-3.3,2-6.4,4.4c-2,1.6-2.9,2.3-3.4,4.1C13,13,11.8,16.6,11.6,18c-0.2,1.4,1,2.5,1.3,3.4
	c0.3,1,0.4,1.8,0.7,1.9c0.3,0.1,2.1,1.2,2.1,1.2s-1.5,1.4-1,2.1c0.3,0.4,2.4,3.5,3,4.4c0.6,0.9,2.3,3.1,3.5,3.9
	c1.2,0.9,3.6,0.8,5.6,1.1c2.1,0.3,12.5-3.8,13.5-4.1c1-0.3,5.5-12.7,5.9-13.5c1.6-3.1,0.9,5,0.9,5l-1.8,3.8L43,30.4
	c0,0-2.6,5-6.5,5.7c-0.6,0.1-1.5,0.6-2,0.9c-0.5,0.4-0.7,0.4-0.8,0.5c-0.1,0.1-0.5,0.9-5.1,0.7c-1.9-0.1-5-0.1-7.9-2.1
	c-1.5-1.1-3.8-3.7-4.9-5.3c-1.1-1.6-2.1-3.7-3.4-5.5c-1.2-1.8-2.9-3-2.5-5.8c0.5-2.8,1.7-5.5,2.4-7.6C13,10.5,14,8.6,15,7.4
	c0.4-0.5,2.2-1.9,2.6-2.1C21.2,2.9,23.3,2.8,23.3,2.8z"/>
<g>
	<path class="st2" d="M36.3,21.1c0,0.1,0.1,0.2,0.1,0.3c1.6-0.1,3-0.8,4.3-1.7c0-0.1,0-0.2-0.1-0.3C39.3,20.4,37.9,21.1,36.3,21.1z"
		/>
	<path class="st2" d="M36.6,22.1c1.5-0.2,2.9-0.8,4.1-1.6c0,0,0-0.1,0-0.1c0-0.1,0-0.2,0-0.3c-1.3,0.9-2.7,1.4-4.2,1.6
		C36.5,21.9,36.5,22,36.6,22.1z"/>
	<path class="st2" d="M36.6,19.9c1,0.1,1.8-0.2,2.5-0.5c0.5-0.2,0.7-0.2,0.8-0.2c-1.1,0.8-2.4,1.4-3.8,1.4c0,0.1,0.1,0.2,0.1,0.4
		c1.5-0.1,2.9-0.8,4.2-1.7c0,0,0.1,0,0.1,0.1c0.1,0.1,0.1,0.2,0.1,0.3l0-0.6c0,0,0,0,0,0c-1.6,0.1-3.7-0.1-4.9-0.1l0.3,1
		C36.1,19.9,36.3,19.9,36.6,19.9z"/>
	<path class="st2" d="M31.3,16.3c-0.2-1.7-0.6-3.5-0.9-5c0,0.2-0.7,3.9-1,5C29.9,16.3,30.8,16.4,31.3,16.3z"/>
	<path class="st2" d="M25.1,28.7c0.1-0.2,2.8-7,3-7.4h0c0.5-2.5,2.1-10.8,2.1-10.8c0-0.2-0.2-1.1-0.3-2c-0.2,0-0.3,0-0.4,0
		c-0.3,1.5-2.2,12-2.4,12.8c-0.3,1-2.5,6.7-2.8,7.5C24.4,28.7,24.9,28.7,25.1,28.7z"/>
	<path class="st2" d="M40.6,20.9c-0.5,0.4-1,0.7-1.6,1c-0.7,0.3-1.5,0.5-2.3,0.6c0,0.1,0.1,0.2,0.1,0.4c0.8-0.1,1.6-0.3,2.3-0.7
		c0.5-0.2,0.9-0.5,1.3-0.7c0,0.1-0.1,0.2-0.1,0.3c-0.4,0.3-0.9,0.5-1.4,0.7c-0.7,0.3-1.4,0.6-2.1,0.8c0,0.1,0.1,0.2,0.1,0.3
		c0.6-0.2,1.2-0.4,1.8-0.6c0.5-0.2,1-0.5,1.5-0.8c0,0,0,0,0,0.1c0,0.1,0,0.2-0.1,0.3c-0.4,0.3-0.9,0.5-1.4,0.8
		c-0.5,0.3-1.1,0.5-1.7,0.6c0,0.1,0.1,0.2,0.1,0.3c0.6-0.1,1.1-0.3,1.7-0.6c0.4-0.2,0.8-0.4,1.2-0.6c0,0.1,0,0.2-0.1,0.2
		c-0.9,0.6-1.8,0.9-2.8,1.1c0,0.1,0.1,0.2,0.1,0.3c0.9-0.2,1.8-0.5,2.6-1c0,0,0,0,0,0.1c0,0,0,0.1,0,0.1c-0.8,0.5-1.6,0.9-2.5,1.1
		c0,0.2,0.1,0.3,0.1,0.4c0.8-0.2,1.5-0.5,2.2-0.9c0,0.1-0.1,0.2-0.1,0.3c-0.6,0.4-1.3,0.7-2,0.9c0.1,0.1,0.1,0.2,0.2,0.2
		c-0.1,0-0.1,0-0.1,0l0.8,2.8l2.5-2.6l-0.2-5.3C40.7,20.7,40.7,20.8,40.6,20.9z"/>
	<path class="st2" d="M47.3,16.7c-0.2-2.5-1-3.8-1.4-4.7c-0.4-0.9-0.8-1.5-1.9-3.1c-1.1-1.5-2-2.8-2.5-3.3c-0.5-0.5-2.7-1.8-4.4-2.7
		c-1.6-0.9-4.5-1.3-6-1.4c-1.5-0.1-5.5,0.5-7.1,1C22.4,2.9,22.1,3,22,3c0.1,0.1,0.6,0.2,0.6,0.3c0,0.1-0.3,0.1-0.6,0.2
		c-0.6,0.1-2,1-3.3,1.7c-1.3,0.7-2.6,1.9-3.4,3.2c-0.8,1.3-1.4,3.2-1.6,4.1c-0.2,0.9-1,3.3-1.5,4.5c-0.5,1.2-0.5,2.9-0.5,3.2
		s0.4,0.5,0.5,0.8c0.2,0.3,0.1,1,0.1,1.1c-0.1,0.1-0.3-0.5-0.5-0.9c-0.2-0.4-0.3-0.9-0.2-2.1c0.1-1.1,0.5-2.5,0.6-3
		c0.2-0.5,0.9-2.6,1.3-4.3c0.5-1.7,1.8-4,2.3-4.7C16.5,6.4,18,5.4,18.8,5c0.8-0.5,2.5-1.5,2.5-1.5l0-0.4c0,0-1.8,1-2.8,1.5
		C17.6,5,17,5.7,15.9,6.8c-0.4,0.4-0.7,0.8-1,1.1l-0.3-0.2c-0.1,0.1-0.2,0.2-0.3,0.3l0.3,0.2c-0.1,0.1-0.1,0.2-0.2,0.3l-0.3-0.2
		C14,8.5,14,8.6,13.9,8.8L14.3,9c0,0.1-0.1,0.2-0.1,0.3L13.7,9c-0.1,0.1-0.1,0.2-0.2,0.4l0.4,0.3c0,0,0,0.1-0.1,0.1
		c0,0.1-0.1,0.2-0.1,0.3c0,0,0,0,0,0l-0.5-0.3c-0.1,0.1-0.1,0.3-0.2,0.4l0.5,0.3c0,0.1-0.1,0.2-0.1,0.3l-0.6-0.2
		c-0.1,0.1-0.1,0.3-0.2,0.4l0.6,0.2c0,0.1-0.1,0.3-0.1,0.4l-0.7-0.2c-0.1,0.1-0.1,0.3-0.2,0.4l0.7,0.2c0,0.1-0.1,0.2-0.1,0.3
		L12.3,12c0,0.1-0.1,0.3-0.1,0.4l0.7,0.2c0,0.1-0.1,0.3-0.1,0.4l-0.7-0.2c0,0.1-0.1,0.3-0.1,0.4l0.7,0.2c0,0,0,0,0,0
		c0,0.1,0,0.2-0.1,0.3l-0.7-0.2c0,0.1-0.1,0.3-0.1,0.4l0.7,0.2c0,0.1-0.1,0.3-0.1,0.4l-0.8-0.2c0,0.1-0.1,0.3-0.1,0.4l0.7,0.2
		c0-0.1,0.1-0.2,0.1-0.2c-0.3,1-0.6,2.3-0.7,3c-0.1,0.4-0.2,1-0.3,1.6c0-0.1,0-0.1,0-0.2l-0.8-0.2c0,0.1-0.1,0.3-0.1,0.4l0.8,0.2
		c0,0.1,0,0.2,0,0.3l-0.9-0.1c0,0,0,0,0,0.1c0,0.1,0,0.2-0.1,0.4l0.9,0.1c0,0.1,0,0.3,0,0.4l-0.9-0.1c0,0.1,0,0.3,0,0.4l0.9,0.1
		c0,0.1,0,0.2,0,0.3l-0.9,0.1c0,0.2,0,0.3,0,0.4l0.9-0.1c0,0,0,0.1,0,0.1c0,0.1,0,0.2,0.1,0.3l-1,0.1c0,0.1,0,0.3,0.1,0.4l1-0.1
		c0,0.1,0.1,0.2,0.1,0.3l-1,0.4c0,0.1,0.1,0.3,0.2,0.4l1-0.4c0.1,0.1,0.2,0.2,0.2,0.3l-1.1,0.4c0.1,0.1,0.1,0.3,0.2,0.4l1.1-0.5
		c0.1,0.1,0.1,0.1,0.2,0.2l-1.1,0.7c0.1,0.1,0.2,0.2,0.2,0.4l1.4-0.9c0.3,0,0.5,0,0.5,0c0.1,0,0.2,0.1,0.4,0.4
		c0.2,0.3,0.1,0.6,0.9,1.6c0.8,1,1.1,1.1,1.5,1.6c0.4,0.5,0.6,1.2,1.2,2.1c0.6,1,1.8,2.1,2.6,2.9c0.8,0.8,2.2,2.1,3.1,2.6
		c0.9,0.5,2.5,0.7,3.7,1.2c1.2,0.5,3.6,0.2,4.8,0.1c1.2-0.1,2.2-0.7,2.9-1c0.6-0.3,2-0.8,2.9-1.1c0.9-0.3,1.6-0.8,2.5-1.4
		c0.9-0.6,1.7-1.6,2.3-2.3c0.6-0.7,1.2-1.7,1.6-2.4c0.4-0.6,1-1.4,1.4-2.3c0.5-0.9,0.6-1.2,0.8-1.8c0.2-0.5,0.4-1.3,0.4-2.2
		c0.1-0.9,0.4-1.2,0.4-2.1c0.1-0.9-0.4-1.3-0.4-2.1s0-1.6,0-2.3c-0.1-0.7-0.2-1.4-0.5-1.7c-0.3-0.4-0.3-0.7-0.6-1.4
		c-0.3-0.7-0.5-0.8-0.9-1.3c-0.3-0.5-0.4-0.8-0.9-1.8c-0.5-1-0.9-1.6-1.3-2c-0.4-0.4-0.7-0.5-1.1-0.8c-0.4-0.3-0.9-0.8-1.5-1.3
		c-0.5-0.5-1.1-0.8-1.8-0.8c-0.7,0-1.7-0.4-2.5-0.7c-0.7-0.3-1.7-1.1-2.3-1.3c-0.5-0.2-1.1-0.4-1.4-0.5c0,0-0.1,0-0.2,0
		c1.3,0.1,2.6,0.3,3.5,0.5C36.4,3,39,4.5,39.6,4.9c0.6,0.4,2.6,2.1,3.1,2.7c0.5,0.7,1.3,2,1.6,2.6c0.3,0.6,1,1.1,1.7,2.8
		c0.8,1.7,0.7,2.8,0.7,3.4c0.1,0.6,0.3,2.8,0.2,4.1c-0.1,1.3-0.3,2.1-0.6,3.3c-0.3,1.1-0.5,1.7-1,2.6c-0.5,0.9-0.5,0.9-1.1,1.9
		c-0.6,1-1.7,2.6-2,2.9c-0.3,0.3-0.6,0.6-1.1,1.1c-0.5,0.6-0.9,1.2-1.6,1.7c-0.6,0.4-1.2,0.3-2.3,0.9c-1.2,0.6-1.2,1.1-3.4,1.8
		c-2.2,0.7-4.7,0.5-5.7,0.5c-1-0.1-1.3-0.3-2.4-0.5c-1.1-0.2-2.5-0.7-3.2-1.2c-0.7-0.4-0.9-0.9-1.4-1.3c-0.5-0.4-1.3-0.9-1.6-1.3
		c-0.3-0.3-0.6-0.7-1.4-1.8c-0.9-1.2-2.2-2.9-2.7-3.8c-0.5-0.9-1.6-1.7-1.7-1.6c-0.1,0,0,0.2,0.2,0.3l-1.1,0.8
		c0.1,0.1,0.2,0.2,0.3,0.3l1.2-0.8c0,0,0.1,0.1,0.1,0.1c0,0,0.1,0.1,0.1,0.1l-1.1,0.8c0.1,0.1,0.2,0.2,0.3,0.3l1.1-0.8
		c0.1,0.1,0.2,0.2,0.2,0.3l-1.1,0.8c0.1,0.1,0.2,0.2,0.3,0.3l1.1-0.8c0.1,0.1,0.1,0.2,0.2,0.2l-1.1,0.8c0.1,0.1,0.2,0.2,0.3,0.3
		l1.1-0.8c0.1,0.1,0.2,0.2,0.2,0.3l-1.1,0.8c0.1,0.1,0.2,0.2,0.3,0.3l1.1-0.8c0,0.1,0.1,0.1,0.2,0.2l-1,0.8c0.1,0.1,0.2,0.2,0.3,0.3
		l1-0.8c0.1,0.1,0.2,0.2,0.2,0.3l-1,0.8c0.1,0.1,0.1,0.2,0.2,0.3c0,0,0,0.1,0.1,0.1l1-0.8c0.1,0.1,0.1,0.2,0.2,0.2l-1.1,0.8
		c0.1,0.1,0.2,0.2,0.3,0.3l1.1-0.8c0.1,0.1,0.2,0.2,0.2,0.3l-1.1,0.8c0.1,0.1,0.2,0.2,0.3,0.3l1.1-0.7c0,0,0,0,0,0
		c0.2,0.3,0.5,0.6,0.7,0.9l-1,0.8c0.1,0.1,0.2,0.2,0.3,0.3l1-0.7c0.1,0.1,0.1,0.1,0.2,0.2l-0.9,0.8c0.1,0.1,0.2,0.2,0.3,0.3l0.9-0.7
		c0.1,0.1,0.2,0.2,0.3,0.3l-0.9,0.7c0.1,0.1,0.2,0.2,0.3,0.3l0.9-0.7c0,0,0.1,0.1,0.1,0.1l-0.7,0.9c0.1,0.1,0.2,0.2,0.3,0.3l0.7-0.9
		c0.1,0.1,0.2,0.2,0.3,0.3l-0.7,0.9c0.1,0.1,0.2,0.2,0.3,0.3l0.7-0.9c0.1,0,0.1,0.1,0.2,0.1l-0.5,1c0.1,0.1,0.2,0.1,0.2,0.2
		c0,0,0.1,0.1,0.1,0.1l0.5-1c0.1,0.1,0.2,0.2,0.3,0.2l-0.5,1c0.1,0.1,0.2,0.1,0.4,0.2l0.5-1c0.1,0,0.2,0.1,0.2,0.1l-0.5,1
		c0.1,0.1,0.3,0.1,0.4,0.2l0.5-1c0.1,0.1,0.2,0.1,0.4,0.2l-0.5,1c0.1,0.1,0.3,0.1,0.4,0.2l0.5-1c0.1,0,0.2,0.1,0.2,0.1l-0.3,1
		c0.1,0,0.3,0.1,0.4,0.1l0.3-1c0.6,0.2,1.3,0.4,1.9,0.5L26,38c0.1,0,0.3,0,0.4,0.1l0.1-0.9c0.1,0,0.2,0,0.3,0l0,0.9
		c0.1,0,0.3,0,0.4,0l0-0.9c0.1,0,0.3,0,0.4,0l0,0.9c0.2,0,0.3,0,0.4,0l0-0.8c0.1,0,0.2,0,0.3,0l0,0.8c0.1,0,0.3,0,0.4,0l0-0.8
		c0.1,0,0.3,0,0.4,0l0,0.8c0.1,0,0.3,0,0.4,0l0-0.8c0.1,0,0.2,0,0.3,0l0,0.7c0.2,0,0.3,0,0.4,0l0-0.7c0.1,0,0.3,0,0.4,0l0,0.7
		c0.2,0,0.3,0,0.4,0l0-0.7c0.1,0,0.2,0,0.3,0l0,0.7c0.2,0,0.3,0,0.4,0l0-0.7c0.1,0,0.3,0,0.4,0l0,0.6c0.2,0,0.3,0,0.4-0.1l0-0.6
		c0.1,0,0.2,0,0.3,0l0,0.5c0.2,0,0.3-0.1,0.4-0.1l0-0.5c0.1,0,0.1,0,0.2,0c0.1,0,0.2,0,0.2-0.1l0,0.3c0.1,0,0.1-0.1,0.1-0.1
		c0.1-0.1,0.2-0.1,0.3-0.1l0-0.2c0.1,0,0.2-0.1,0.3-0.1l0,0.2c0.1,0,0.2-0.1,0.3-0.2c0,0,0.1-0.1,0.2-0.1l0-0.2
		c0.1-0.1,0.3-0.2,0.4-0.3l0,0.2c0.1-0.1,0.3-0.1,0.4-0.2l0-0.3c0.1,0,0.2-0.1,0.3-0.1l0,0.4c0.1-0.1,0.3-0.1,0.4-0.2l0-0.4
		c0.1-0.1,0.3-0.1,0.4-0.2l0,0.3c0.1-0.1,0.3-0.2,0.4-0.2l0-0.2c0.1,0,0.2-0.1,0.3-0.1l0,0.2c0.2-0.1,0.4-0.1,0.4-0.1v-0.2
		c0.5-0.2,1.1-0.5,1.7-0.9c0.4-0.3,0.9-0.8,1.4-1.3c1-1.1,2-2.6,2.9-3.7c1.3-1.6,2.2-3.5,3-5.4C47.6,22.5,47.6,19.3,47.3,16.7z
		 M29.1,2.1C29.8,2,30.4,2,31.1,2c-0.3,0-0.6,0-0.6,0s0.1,0.4-0.2,0.9c-0.2,0.6-0.4,0.9-1.2,1.3c-0.8,0.4-1.5,0.2-2.5-0.2
		c-0.6-0.2-1.2-0.7-1.4-1.1C25.2,2.9,27,2.3,29.1,2.1z M21.9,9.2c0.6,0,1.3,0.2,1.8,0.4c-0.3,0-0.6,0-0.9-0.1
		c-0.6-0.1-1.3-0.2-1.9-0.4C21.2,9.2,21.6,9.2,21.9,9.2z M22.5,9.9c0.8,0.1,1.6,0.1,2.4,0.1c0.3,0.1,0.6,0.2,0.8,0.3
		c-0.9,0-1.8,0-2.8-0.1c-0.2,0-0.5-0.1-0.7-0.1c-0.8-0.1-1.7-0.3-2.4-0.7c0,0,0,0,0,0c0,0,0.2-0.1,0.4-0.1
		C20.9,9.6,21.7,9.8,22.5,9.9z M40.6,10.3c0.1,0.7,0.1,1.4-0.1,2.1c-0.2,0.9-0.7,1.8-1.3,2.5c-0.2,0-0.4,0.1-0.6,0.1
		c0.4-0.4,0.8-0.9,1-1.5C40.2,12.5,40.5,11.6,40.6,10.3C40.6,10.3,40.6,10.3,40.6,10.3z M40.2,10.9C40.2,10.9,40.2,10.9,40.2,10.9
		c-0.1,0.9-0.4,1.7-0.8,2.5c-0.3,0.6-0.8,1.1-1.2,1.6c-0.3,0-0.5,0-0.8,0c0.5-0.4,1-0.9,1.5-1.5C39.4,12.8,39.9,11.9,40.2,10.9z
		 M39.8,11.1c-0.3,0.8-0.7,1.6-1.2,2.2c-0.5,0.6-1.1,1.2-1.7,1.6c-0.3,0-0.6-0.1-0.9-0.1c0.9-0.4,1.7-1,2.4-1.7
		c0.5-0.5,0.9-1.2,1.3-2C39.7,11.1,39.7,11.1,39.8,11.1z M39.3,11.2c-0.3,0.6-0.7,1.2-1.1,1.6c-0.8,0.8-1.8,1.5-2.8,1.9
		c-0.1,0-0.2-0.1-0.2-0.1c0,0,0,0-0.1-0.1c0.9-0.3,1.8-0.8,2.6-1.5C38.3,12.5,38.8,11.9,39.3,11.2C39.2,11.2,39.3,11.2,39.3,11.2z
		 M38.8,11.2c-0.4,0.7-1,1.3-1.6,1.7c-0.7,0.5-1.5,1-2.4,1.3c-0.1-0.1-0.2-0.3-0.3-0.5c1.1-0.3,2.2-0.8,3.2-1.6
		c0.3-0.3,0.6-0.6,0.9-1C38.7,11.2,38.8,11.2,38.8,11.2z M35.7,7.5c0.4-0.1,0.4-0.1,0.4-0.1s0,0.1,0,0.2c0,0,0-0.1,0-0.1
		c-0.3,0.1-0.7,0.1-1,0.1C35.4,7.6,35.6,7.5,35.7,7.5z M33,7.2c0.1,0,0.7-0.2,1.2-0.2c0,0.2,0,0.4,0,0.8c-0.5,0.1-1.1,0.2-1.7,0.3
		c0.3,2.9,0.6,5.7,1.3,8.3c0.1,0,0.3,0,0.7,0L33,8.8c0,0,0.6-0.4,0.8-0.5c0,0,0,0,0.1,0c0,0,0,0,0,0c0,0,0,0,0,0
		c0.1-0.1,0.3-0.2,0.5-0.3c0.1,0,0.2,0,0.3,0c0.5,0,1-0.1,1.5-0.1c0,0,0,0.1,0,0.1c-0.6,0.2-1.1,0.3-1.7,0.4c-0.2,0-0.4,0-0.6,0.1
		L34,8.7c0.3,0,0.5,0,0.8-0.1c0.5-0.1,1-0.2,1.5-0.3c0,0,0,0.1,0,0.2c-0.5,0.2-1.1,0.3-1.6,0.4C34.3,8.9,33.9,9,33.5,9
		c0,0.1,0,0.2,0,0.3c1-0.1,2-0.2,2.9-0.5c0,0.1,0,0.1,0.1,0.2c-0.9,0.3-1.9,0.5-2.9,0.5c0,0.1,0,0.2,0.1,0.4c1-0.1,2-0.3,2.9-0.6
		c0,0.1,0.1,0.2,0.1,0.3c-0.9,0.4-2,0.5-3,0.6c0,0.1,0,0.3,0.1,0.4c1-0.1,2.1-0.3,3-0.7c0,0,0,0.1,0.1,0.1c-0.9,0.5-2,0.7-3,0.9
		c0,0.1,0,0.2,0.1,0.4c1.1-0.2,2.2-0.5,3.1-1c0,0,0.1,0.1,0.1,0.1c-0.9,0.6-2.1,0.9-3.2,1.1c0,0.1,0.1,0.2,0.1,0.3
		c1.2-0.2,2.3-0.5,3.3-1.2c0,0.1,0.1,0.1,0.1,0.1c-0.9,0.7-2.1,1.2-3.3,1.4c0,0.1,0.1,0.2,0.1,0.3c1.3-0.2,2.6-0.7,3.6-1.5
		c0.1,0,0.1,0,0.2,0.1c-0.2,0.2-0.5,0.4-0.7,0.6c-0.9,0.6-1.9,0.9-2.9,1.1c0,0.1,0.1,0.2,0.1,0.3c1.1-0.2,2.1-0.6,3-1.2
		c0.3-0.2,0.6-0.4,0.9-0.7c0,0,0.1,0,0.1,0c-0.3,0.3-0.5,0.6-0.8,0.9c-0.9,0.7-1.9,1.2-3,1.4c-0.1-0.2-0.1-0.3-0.2-0.5l0.8,3.5
		c1.3,0,3.5,0,4.6,0.3c0.2,0,0.6,0,1.1,0l0.7-6.6c-0.3,1.2-0.9,4.1-1.5,4.4c-0.1,0-0.2,0.1-0.2,0.1c0.5-0.7,0.8-1.5,1-2.3
		c0.2-1.1,0.3-2.1,0-3.1c0,0,0,0,0,0c0-0.1,0-0.1-0.1-0.2c0.1-0.3,0-0.3,0-0.3l0-0.4l1.1,0.9l-0.5,7.5c0.4,0,0.7,0.1,0.8,0.1
		c0,0.9,0,1.6-0.1,2.4c-0.3,0-0.5-0.1-0.7-0.2c0,0,0,0-0.1,0c0.1,1,0.3,3.6,0.3,4.1c0,0.7,0,2.5,0,2.5L41.4,26l0,0l-3.6,3.7
		l-0.1-0.5l0.4-0.4l-2.8-9.9c-0.1,0-0.2,0-0.2,0c0,0.6,0.2,1.5,0.3,2c0.2,1.5,0.3,2.7,0.7,4.1c0.4,1.5,0.7,3.4,1.1,5.1
		c0.4,0.1,0.9,0,1.3,0c0.1,0.6,0.3,1,0.3,1.4c-1.4,0-3.6,0.1-5.2,0c-0.1-0.4-0.1-1-0.1-1.3c0.4-0.1,0.9,0,1.4,0
		c-0.7-3.2-1.5-6.7-2.2-10c-0.2-0.8-0.2-1.1-0.3-1.5c-1,0.1-2.2-0.1-3.2,0c-0.1,0.6-0.5,2.1-0.6,2.6h0c0,0.1-0.3,0.9-0.7,1.9
		c0.3-0.6,0.5-1.1,0.8-1.5c0,0.1-0.1,0.2-0.2,0.3c0.4-0.2,0.7-0.4,1.1-0.5c0.4-0.1,1.3-0.4,1.8-0.3c0,0.1,0.1,0.2,0.1,0.3
		c-1.1,0-2.2,0.2-3.2,0.7c-0.1,0.2-0.2,0.3-0.3,0.5c1.1-0.6,2.3-0.8,3.6-0.8c0,0.1,0.1,0.2,0.1,0.3c-1.3,0-2.6,0.1-3.8,0.6
		c-0.1,0.2-0.2,0.3-0.2,0.5c1.3-0.6,2.7-0.7,4.1-0.7c0,0.1,0.1,0.2,0.1,0.2c-1.5-0.1-3,0.1-4.3,0.7c-0.1,0.2-0.1,0.3-0.2,0.5
		c1.4-0.7,3.1-0.9,4.7-0.7c0,0.1,0.1,0.2,0.1,0.2c-1.7-0.1-3.3,0.2-4.9,0.7c-0.1,0.1-0.1,0.2-0.2,0.4c1.6-0.6,3.4-0.9,5.2-0.8
		c0,0.1,0.1,0.1,0.1,0.2c-1.8-0.1-3.6,0.1-5.3,0.7c-0.1,0.2-0.1,0.3-0.2,0.5c1.8-0.7,3.8-1,5.7-0.8c0.1,0.1,0.1,0.3,0.2,0.4
		c-1.1-0.1-2.2-0.1-3.3,0c-0.9,0.1-1.8,0.3-2.6,0.7c-0.1,0.1-0.1,0.3-0.2,0.4c0.9-0.4,2-0.6,3-0.8c1.1-0.1,2.2-0.1,3.3,0
		c0,0.1,0.1,0.2,0.1,0.3c-1.1-0.1-2.2-0.1-3.3,0.1c-1,0.1-2.2,0.4-3.2,0.7c-0.1,0.2-0.1,0.3-0.1,0.4c1.1-0.5,2.5-0.7,3.7-0.9
		c1.1-0.1,2.1-0.1,3.1,0c0,0.1,0.1,0.2,0.1,0.3c-1.1-0.1-2.2,0-3.4,0.1c-1.2,0.2-2.5,0.4-3.6,0.9c0,0.1,0,0.2,0,0.2
		c0-0.1,0-0.3,0-0.5c-0.4,1-0.7,1.7-0.7,1.8c1.7,0.1,4,0,5.9,0c0.7,0,1.5,0,2.1,0c0.1,0.1,0,0.4-0.1,0.5c-2.8,0-6.3,0-9.4,0
		c-0.2,0.5-0.4,0.9-0.5,1.4c0.2,0,0.4,0,0.6,0.1c0,0.3,0,0.7,0,1.1c-1.4-0.2-3.3,0.1-4.7-0.1c-0.1-0.4-0.2-0.7-0.2-1.1
		c0.4-0.1,0.9,0,1.3,0c1.5-3.6,2.9-7.3,4.4-11c0-0.3,0.1-0.4,0.1-0.6c-2.5,0-5.2-0.1-7.5-0.3c0,0-0.1,0-0.1,0
		c-0.2,0.7-0.4,2-0.3,2.6c0,0.7,0.5,2.1,0.9,3.2c0.1,0.3,0.2,0.5,0.3,0.8c0.4,1.2,1.5,3.4,1.5,3.5l-0.3,0.3c0-0.1-1.2-2.4-1.6-3.6
		c-0.1-0.2-0.2-0.5-0.3-0.8c-0.4-1.2-0.8-2.5-0.9-3.3c0-0.7,0.2-2,0.4-2.7c-0.9-0.1-1.2-0.1-1.6-0.4c0.2-0.9,0.4-1.8,0.6-2.6
		c0.2,0,0.4,0,0.6,0.1L19,9.6l0.3-0.7L19.8,9l-0.2,0.5c0,0.1-0.1,0.1-0.1,0.2c0.9,0.4,1.9,0.7,2.9,0.8c1.2,0.2,2.4,0.2,3.5,0.2
		c0,0.1,0.1,0.2,0.1,0.3c-1.1,0-2.2,0-3.4-0.2c-0.2,0-0.5-0.1-0.7-0.1c-0.8-0.2-1.6-0.4-2.4-0.8c-0.1,0-0.1-0.1-0.2-0.1
		c0,0.1-0.1,0.2-0.1,0.3c0.9,0.5,1.9,0.8,2.9,1c1.3,0.2,2.5,0.3,3.8,0.3c0,0.1,0,0.2,0,0.3c-1,0-2-0.1-3-0.2c-0.3,0-0.5-0.1-0.8-0.1
		c-0.9-0.2-1.9-0.5-2.7-0.9c-0.1,0-0.2-0.1-0.3-0.1c0,0.1-0.1,0.2-0.1,0.3c1,0.5,2.2,0.9,3.2,1.1c1.2,0.2,2.4,0.3,3.7,0.4
		c0,0.1,0,0.2,0,0.3c-1.1,0-2.1-0.1-3.2-0.3c-0.2,0-0.5-0.1-0.7-0.2c-0.8-0.2-1.7-0.5-2.4-0.9c-0.2-0.1-0.4-0.2-0.5-0.3
		c0,0.1-0.1,0.2-0.1,0.3c0.9,0.6,2.1,1,3.1,1.2c1.3,0.3,2.5,0.4,3.8,0.4c0,0.1,0,0.3,0,0.4c-1,0-2-0.1-3-0.4
		c-0.3-0.1-0.5-0.1-0.8-0.2c-0.9-0.2-1.7-0.6-2.5-1c-0.2-0.1-0.4-0.2-0.6-0.4c0,0,0,0,0-0.1l0,0v0v0l-0.1,0.4l-0.3,0L17,15.7
		c0.4,0.1,1,0.3,2.2,0.5c2.1,0.2,4.4,0.4,6.4,0.3c0.4-2,0.8-3.8,1.2-6c0-0.2,0-0.5,0-0.9c-0.9-0.2-1.6,0-2.5-0.1C24,9,23.8,8.4,24,8
		C27.1,8,30,7.6,33,7.2z M31.5,28C31.5,28,31.5,28,31.5,28c-0.5,0.1-1.2,0-1.8,0c0.4-0.1,0.7-0.2,1.1-0.3c0.9-0.2,2-0.3,2.9-0.3
		c0,0,0,0.1,0,0.1C33,27.6,32.2,27.7,31.5,28z M33.6,28c-0.2,0.2-0.6,0.1-1,0.1C32.9,28,33.2,28,33.6,28z M29.6,27.2
		c1.3-0.3,2.7-0.4,4-0.3c0,0,0,0.1,0,0.1c-0.9,0-1.9,0.1-2.8,0.3c-0.6,0.1-1.2,0.3-1.8,0.5c-0.1,0-0.3,0.1-0.4,0.1
		c-0.4,0-0.9,0-1.4-0.1C28,27.6,28.8,27.4,29.6,27.2z M26.6,27.7c-0.2-0.1-0.3-0.2-0.4-0.3c1-0.5,2.2-0.7,3.2-0.9
		c1.1-0.2,2.2-0.2,3.2-0.2c0.2,0,0.4,0,0.7,0c0,0.1,0.1,0.1,0.1,0.2c-1.2-0.1-2.5,0-3.6,0.2C28.7,27,27.6,27.3,26.6,27.7z M31,20.7
		c0,0,0.1,0.1,0.1,0.2c-0.4,0-0.9,0.1-1.2,0.2c-0.5,0.1-0.9,0.2-1.3,0.4c0,0,0,0,0-0.1c0.1-0.1,0.1-0.2,0.2-0.3
		C29.5,20.8,30.2,20.5,31,20.7z M29.3,20.6c0.2-0.2,0.5-0.4,0.8-0.4c0.2,0,0.4,0,0.5,0.1C30.1,20.3,29.7,20.4,29.3,20.6z M20.8,19.4
		c0.1-0.1,0.3-0.1,0.5-0.2c0.1,0,0.3,0.1,0.5,0.1c-0.7,0.3-1.5,0.6-2.1,1.1c0-0.1,0-0.2,0.1-0.3C20,19.8,20.4,19.6,20.8,19.4z
		 M19.8,19.6C19.9,19.2,20,19,20,19s0.3,0,0.7,0.1c-0.1,0-0.2,0.1-0.3,0.1C20.2,19.3,20,19.4,19.8,19.6z M22.1,19.5
		c0.1,0,0.2-0.1,0.3-0.1c0.2,0,0.4,0.1,0.5,0.1c-0.3,0.1-0.6,0.2-0.9,0.3c-0.9,0.3-1.8,0.8-2.6,1.4c0-0.1,0-0.3,0.1-0.4
		C20.3,20.2,21.2,19.8,22.1,19.5z M22.3,20.1c0.4-0.1,0.8-0.3,1.3-0.4c0.2,0.1,0.4,0.2,0.4,0.2s0,0,0,0.1c-0.7,0.1-1.5,0.3-2.1,0.6
		c-0.8,0.4-1.7,0.8-2.3,1.4c0-0.1,0-0.2,0-0.3C20.2,21,21.3,20.5,22.3,20.1z M22,20.8c0.5-0.2,1.1-0.4,1.8-0.5
		c-0.1,0.1-0.1,0.2-0.2,0.4c-0.6,0.1-1.2,0.3-1.7,0.5c-0.8,0.4-1.7,0.9-2.3,1.5c0-0.1,0-0.2,0-0.3C20.1,21.7,21,21.2,22,20.8z
		 M22,21.5c0.4-0.2,0.9-0.3,1.3-0.4c-0.1,0.1-0.1,0.3-0.2,0.4c-0.6,0.1-1.1,0.3-1.6,0.6c-0.7,0.4-1.5,0.9-2,1.5c0-0.1,0-0.2,0-0.3
		C20.1,22.4,21.1,21.9,22,21.5z M21.7,22.3c0.3-0.2,0.7-0.3,1.1-0.4c-0.1,0.1-0.3,0.3-0.5,0.5c-0.4,0.1-0.7,0.3-1.1,0.5
		c-0.6,0.4-1.2,0.8-1.7,1.3c0-0.1,0-0.2,0-0.2C20.1,23.2,20.9,22.7,21.7,22.3z M21.5,23.1C21.5,23.1,21.5,23.1,21.5,23.1
		c0,0.1-0.2,0.2-0.3,0.3c-0.7,0.6-1.5,1.5-1.5,1.5s0-0.1-0.1-0.3C20.1,24,20.8,23.5,21.5,23.1z M21.7,13.7c-0.8-0.3-1.5-0.6-2.2-1.1
		c-0.1-0.1-0.1-0.2-0.1-0.3c0.8,0.5,1.8,0.9,2.6,1.2c1.2,0.4,2.5,0.6,3.8,0.6c0,0.1,0,0.1-0.1,0.2C24.3,14.3,23,14.1,21.7,13.7z
		 M25.5,14.7c-0.1,0.1-0.2,0.2-0.2,0.2c0,0,0,0-0.3,0c-1.2-0.1-2.3-0.4-3.4-0.9c-0.4-0.2-0.8-0.4-1.2-0.6c0.4,0.2,0.8,0.3,1.2,0.5
		C22.8,14.4,24.2,14.6,25.5,14.7z M22.8,13.4c-0.3-0.1-0.5-0.1-0.8-0.2c-0.9-0.3-1.7-0.6-2.5-1.1c-0.1-0.1-0.3-0.2-0.4-0.3
		c0-0.1,0-0.1-0.1-0.2c0.9,0.6,2.1,1.1,3,1.3c1.2,0.3,2.5,0.5,3.7,0.6c0,0.1,0,0.2,0,0.3C24.8,13.8,23.8,13.6,22.8,13.4z"/>
	<path class="st2" d="M11.5,17.9c0-0.1,0-0.3,0.1-0.4l-0.7-0.1c0,0.1-0.1,0.3-0.1,0.4L11.5,17.9C11.5,17.9,11.5,17.9,11.5,17.9z"/>
	<path class="st2" d="M11.4,18.2l-0.7-0.2c0,0.1-0.1,0.3-0.1,0.4l0.8,0.2C11.4,18.5,11.4,18.3,11.4,18.2z"/>
	<path class="st2" d="M11.7,16.7L11,16.5c0,0.1-0.1,0.3-0.1,0.4l0.7,0.1C11.7,17,11.7,16.8,11.7,16.7z"/>
	<path class="st2" d="M12.2,15.2L11.4,15c0,0.1-0.1,0.3-0.1,0.4l0.7,0.2C12.1,15.5,12.1,15.3,12.2,15.2z"/>
	<path class="st2" d="M11.9,16l-0.7-0.2c0,0.1-0.1,0.3-0.1,0.4l0.7,0.2C11.9,16.3,11.9,16.1,11.9,16z"/>
	<path class="st2" d="M13.5,25.3l-1.2,0.9c0.1,0.1,0.2,0.2,0.3,0.3l1.2-0.9C13.6,25.5,13.6,25.4,13.5,25.3z"/>
	<path class="st2" d="M13.2,24.6l-1.4,0.9c0.1,0.1,0.2,0.2,0.3,0.4l1.3-0.9C13.3,24.9,13.3,24.8,13.2,24.6z"/>
	<path class="st2" d="M25.1,37.9c0.1,0,0.3,0.1,0.4,0.1l0.1-0.9c-0.1,0-0.3-0.1-0.4-0.1L25.1,37.9z"/>
	<path class="st2" d="M24.3,37.7c0.1,0,0.3,0.1,0.4,0.1l0.3-0.9c-0.1,0-0.3-0.1-0.4-0.1L24.3,37.7z"/>
	<path class="st2" d="M18.1,31.6l-1,0.8c0.1,0.1,0.2,0.2,0.3,0.3l1-0.8C18.2,31.8,18.1,31.7,18.1,31.6z"/>
</g>
<g>
	<path class="st2" d="M64.4,17.3c-0.1,0-0.1,0-0.1,0.1c0,0-0.4,2.6,0.1,4.5c0.6,2.3,1.8,3.8,1.8,3.8c0,0,0,0,0.1,0c0,0,0,0,0.1,0
		c0,0,0-0.1,0-0.1c0,0-1.2-1.4-1.7-3.7c-0.5-1.9-0.1-4.4-0.1-4.4C64.5,17.3,64.5,17.3,64.4,17.3z"/>
	<path class="st2" d="M64.9,17.8c-0.1,0-0.1,0-0.1,0.1c0,0-0.3,1.9,0.1,3.5c0.4,1.8,1.2,3,1.2,3c0,0,0,0,0.1,0c0,0,0,0,0.1,0
		c0,0,0.1-0.1,0-0.1c0,0-0.8-1.2-1.2-3c-0.4-1.6-0.1-3.4-0.1-3.4C65,17.8,64.9,17.8,64.9,17.8z"/>
	<path class="st2" d="M65.3,17.9c0,0-0.1,0-0.1,0.1c0,0.1-0.3,1.6,0,3c0.4,1.5,1,2.5,1,2.6c0,0,0,0,0.1,0c0,0,0,0,0.1,0
		c0,0,0.1-0.1,0-0.1c0,0-0.7-1-1-2.5c-0.3-1.4,0-2.9,0-2.9C65.4,18,65.3,17.9,65.3,17.9z"/>
	<path class="st2" d="M65.7,18.1c0,0-0.1,0-0.1,0.1c0,0-0.2,1-0.1,2c0.2,1.3,0.6,2,0.7,2c0,0,0,0,0.1,0c0,0,0,0,0,0
		c0,0,0.1-0.1,0-0.1c0,0-0.5-0.7-0.6-2c-0.1-1,0.1-2,0.1-2C65.8,18.2,65.7,18.1,65.7,18.1z"/>
	<path class="st2" d="M63.4,16.3c-0.1,0-0.1,0-0.1,0c-0.9,5.7,0.5,9.9,3.4,11.6c0,0,0.1,0,0.1-0.1c0,0,0-0.1,0-0.1
		c-1.8-1.1-2.6-2.7-3.1-4.6C63.2,21.1,63.2,18.5,63.4,16.3C63.5,16.3,63.5,16.3,63.4,16.3z"/>
	<path class="st2" d="M71,31.8C71,31.8,71.1,31.8,71,31.8c0.1-0.2,0.2-0.5,0.2-0.7c0,0,0,0,0,0c-0.1,0-0.2,0-0.2,0c0,0-0.1,0-0.1,0
		c0,0-0.1,0-0.1,0c0,0,0,0-0.1,0c-0.1,0.1-0.2,0.3-0.3,0.4c-0.4,0.5-0.8,1.1-1.5,1.1c-0.6,0-0.8-0.4-1-0.8c-0.2-0.4-0.4-0.8-0.9-0.9
		c0,0,0,0,0,0c0,0,0,0-0.1,0c-0.1,0.1-0.2,0.2-0.3,0.3c0,0,0,0.1,0,0.1c0.4,0.2,0.5,0.5,0.5,1c0,0,0,0,0,0.1c0.4,0.1,1,0.5,1.2,0.6
		c0.1,0,0.1,0.1,0.2,0.2c0.1,0.1,0.2,0.2,0.3,0.2c0,0,0,0,0.1,0c0.5,0,0.7-0.2,0.8-0.3c0.1-0.1,0.2-0.1,0.3-0.2c0.1,0,0.2,0,0.3,0
		c0.1,0,0.1,0,0.2-0.1c0,0,0,0,0,0c0-0.1,0-0.2,0-0.3c0-0.2,0-0.4,0-0.5C70.4,31.9,70.7,31.8,71,31.8z"/>
	<path class="st2" d="M64.1,16.5C64.1,16.5,64.1,16.4,64.1,16.5C64.1,16.4,64.1,16.4,64.1,16.5c-0.1-0.1-0.2,0-0.2,0
		c-0.4,1.9-0.3,4.5,0.2,6.5c0.2,0.8,0.9,2.7,2.4,4.1l0,0h0c0,0,0,0,0,0c0,0,0-0.1,0-0.1c-2-1.8-3.1-5.5-2.6-9.3
		C64,17.2,64,16.9,64.1,16.5z"/>
	<path class="st2" d="M62.9,16.3C62.8,16.3,62.8,16.2,62.9,16.3c-0.1,0-0.1,0-0.2,0c0,0,0,0,0,0c-1.2,6.4,1,10.7,4.3,13
		c0,0,0.1,0,0.1-0.2c0,0,0-0.1-0.1-0.1c-3-2.3-4.4-5.2-4.4-9.4C62.6,18.4,62.7,17.4,62.9,16.3C62.9,16.3,62.9,16.3,62.9,16.3z"/>
	<path class="st2" d="M66.1,18.2c0,0-0.1,0-0.1,0.1c0,0-0.2,0.7-0.1,1.3c0.1,0.8,0.3,1.3,0.3,1.3c0,0,0,0.1,0.1,0.1c0,0,0,0,0,0
		c0,0,0.1-0.1,0-0.1c0,0-0.2-0.5-0.3-1.2c-0.1-0.6,0.1-1.3,0.1-1.3C66.2,18.3,66.1,18.2,66.1,18.2z"/>
	<path class="st2" d="M66.5,18.6c0,0-0.1,0-0.1,0.1c-0.1,0.4,0,0.8,0,0.8c0,0,0,0.1,0.1,0.1c0,0,0,0,0,0c0,0,0.1-0.1,0-0.1
		c0,0-0.1-0.3,0-0.6C66.6,18.7,66.5,18.6,66.5,18.6z"/>
	<path class="st2" d="M67.3,27.5C67.3,27.5,67.3,27.5,67.3,27.5C67.3,27.5,67.3,27.5,67.3,27.5C67.4,27.5,67.4,27.5,67.3,27.5
		c0.9-0.6,1.7-1,2.5-1c0.3,0,0.5,0,0.8,0.1c0,0,0,0,0,0c0,0,0,0,0,0c0-0.1,0-0.1,0.1-0.2c0-0.1,0.1-0.2,0.1-0.2c0,0,0-0.1,0-0.1
		c-0.2,0-0.4-0.1-0.6-0.1c-0.5,0-1,0.1-1.4,0.3c-0.5,0.1-0.9,0.3-1.5,0.3c0,0,0,0,0,0c0,0,0,0,0,0c0.1,0.2,0.1,0.3,0.1,0.5
		C67.3,27.3,67.3,27.4,67.3,27.5z"/>
	<path class="st2" d="M62.2,16.2c-0.1,0-0.1,0-0.1,0.1c-0.1,0.2-0.1,0.4-0.2,0.6l0,0.1c-0.4,1.9-0.4,4.6,0,6.4
		c0.3,1.1,0.7,2.2,1.2,3c0.7,1.2,1.8,2.3,2.6,3c0.1,0.1,0.7,0.6,0.9,0.7c0,0,0,0,0.1,0c0,0,0.1,0,0.1-0.1c0-0.1,0.1-0.1,0-0.2
		c0,0,0,0,0,0c-1.7-1.4-2.8-2.6-3.5-4.1c-0.4-0.7-0.7-1.5-1-2.6c0-0.1,0-0.2-0.1-0.3c0-0.1-0.1-0.2-0.1-0.3c-0.2-1.6-0.2-3.2,0-4.9
		c0.1-0.6,0.2-0.9,0.2-1.1c0-0.1,0-0.2,0.1-0.2c0,0,0,0,0,0C62.3,16.2,62.3,16.2,62.2,16.2z"/>
	<path class="st2" d="M66.7,31.7C66.7,31.7,66.7,31.7,66.7,31.7c-0.9-0.2-1.5-0.6-1.9-1.1c0,0,0,0-0.1,0c-0.1,0-0.2,0-0.3,0
		c-0.1,0-0.2,0-0.3,0c0,0,0,0,0,0c0,0,0,0,0,0c0.6,1.7,2.1,2.7,3.6,3.4c0,0,0,0,0,0c0,0,0,0,0,0c0.2-0.2,0.4-0.5,0.5-0.7l0,0
		c0,0,0-0.1,0-0.1c-0.4-0.4-1-0.6-1.6-0.8c0-0.1,0-0.1,0-0.2C66.8,32,66.8,31.9,66.7,31.7z"/>
	<path class="st2" d="M69,22.7c-0.3,0-0.7,0-0.8,0h0c-0.3,0-0.6,0-0.9-0.1c0,0,0,0-0.1,0c-0.1,0.2-0.2,0.5-0.1,0.8c0,0,0,0,0,0
		c0,0,0,0,0,0c0,0,0,0,0,0c0.1-0.1,0.2-0.1,0.3-0.2c0.2-0.1,0.5-0.3,0.7-0.3c0.2,0,0.3,0,0.5,0c0.3,0,0.6,0.1,0.7,0.1
		c0.1,0,0.1,0,0.1,0c0.1,0,0.1-0.1,0.1-0.1c0,0,0-0.1,0-0.1c0,0,0-0.1,0-0.1c0,0,0,0,0,0c0,0,0,0,0,0C69.6,22.7,69.3,22.7,69,22.7z"
		/>
	<path class="st2" d="M66.7,21.5L66.7,21.5C66.6,21.5,66.6,21.5,66.7,21.5C66.6,21.6,66.6,21.6,66.7,21.5c0.1,0.3,0.2,0.5,0.4,0.7
		c0,0,0.1,0.1,0.1,0.1c0,0,0,0,0,0h0c0.3,0,0.6,0,1,0c0.9,0,1.7-0.1,2.5-0.2c0,0,0,0,0,0c0.4-0.3,1-1.2,0.6-2c0,0,0,0-0.1,0
		c-0.1,0-0.1,0.1-0.1,0.1c0,0.8-0.4,1.2-0.7,1.6c-0.1,0-0.1,0-0.1,0c-0.2,0-0.3-0.2-0.4-0.3c0-0.1-0.1-0.1-0.1-0.2c0,0,0,0,0,0
		c-1.4-0.1-2.3-0.3-2.4-1.4c0,0,0,0,0,0c-0.1,0-0.2-0.1-0.2-0.1c0,0-0.1,0-0.1,0c0,0,0,0,0,0c0,0,0,0,0,0c-0.1,0.5,0,0.9,0,1.3
		c0,0.1,0,0.2,0.1,0.4C66.8,21.5,66.8,21.5,66.7,21.5z"/>
	<path class="st2" d="M67.1,18.8C67.1,18.8,67.1,18.8,67.1,18.8C67.1,18.8,67.1,18.8,67.1,18.8c0.4-0.3,0.9-0.5,1.5-0.5
		c0.2,0,0.4,0,0.6,0.1c0,0,0,0,0,0c0,0,0,0,0,0V18c0,0,0,0,0-0.1c-0.3-0.1-0.8-0.1-1.2-0.1c-0.6,0-1,0.2-1.1,0.5
		c0,0.1,0,0.1,0.1,0.4C67,18.7,67,18.7,67.1,18.8C67.1,18.8,67.1,18.8,67.1,18.8z"/>
	<path class="st2" d="M66.9,19.5c0.1,0.1,0.3,0.2,0.4,0.2c0,0,0,0,0,0c0.1,0,0.2-0.1,0.3-0.2c0.1-0.1,0.3-0.2,0.5-0.3
		c0.3-0.1,0.5-0.1,0.8-0.1c0.1,0,0.2,0,0.2,0c0,0,0,0,0,0c0,0,0,0,0,0c0,0,0-0.1,0-0.1c0,0,0-0.1,0-0.2c0,0,0,0,0,0c0,0,0,0,0,0
		c-0.1,0-0.1,0-0.2,0C67.7,18.7,67.1,19,66.9,19.5C66.9,19.5,66.9,19.5,66.9,19.5z"/>
	<path class="st2" d="M70.3,17.9C70.2,17.9,70.2,17.9,70.3,17.9c0,0.6,0.1,1.1,0.3,1.4c0,0,0,0,0,0l0,0c0,0,0,0,0,0
		c0-0.2,0-0.4-0.1-0.5c0-0.1-0.1-0.2-0.1-0.4c0.3-0.1,0.6-0.5,0.7-1c0.1-0.4,0.1-0.7-0.1-1c0,0,0,0-0.1,0c0,0,0,0,0,0.1
		C71.1,17.1,70.8,17.7,70.3,17.9z"/>
	<path class="st2" d="M79.2,12.2c-0.1-0.1-0.2,0.1-0.1,0.2c0.5,0.3,0.9,0.7,1.2,1.2c0.1,0.1,0.2,0,0.1-0.1
		C80.2,13,79.7,12.5,79.2,12.2z"/>
	<path class="st2" d="M64.8,11.9C64.8,11.9,64.8,11.9,64.8,11.9c-1.5-0.2-2.8,0.1-4.1,0.7c-0.1,0.1-0.1,0.3,0.1,0.2
		c1.1-0.5,2.2-0.8,3.3-0.7c0,0,0,0,0,0c0,0.1-0.1,0.2-0.3,0.2c-0.8-0.1-1.6,0.1-2.3,0.6c-0.1,0.1,0.1,0.1,0.1,0.1
		c0.6-0.5,1.3-0.6,2-0.6c0,0,0,0,0,0.1c0,0,0,0,0,0c-0.4,0.2-0.8,0.3-1.1,0.5c-0.2,0.1-0.5,0.3-0.8,0.4c0,0,0,0,0,0l0,0
		c0,0.1-0.1,0.2,0,0.3c0,0,0.1,0.1,0.1,0.1h0c0,0,0,0,0,0c0.5-0.3,1.1-0.6,1.8-0.8c0.6-0.2,1.2-0.5,1.8-0.8c0.1,0,0.1,0,0.2,0
		c0.2,0,0.4-0.1,0.6-0.3c0,0,0.1,0,0.1-0.1c0.2-0.1,0.5-0.1,0.8-0.1c0.2,0,0.3,0.1,0.5,0.1c0,0,0,0,0,0c0.7,0.1,1.6,0.6,2.7,0.2
		c0.5-0.1,0.9-0.3,1.3-0.6c0.1,0,0.1-0.2,0-0.1c-0.5,0.3-1,0.6-1.6,0.7c-0.6,0.1-1.3,0-1.9-0.2c-0.2-0.1-0.4-0.1-0.7-0.2
		c-0.1,0-0.1,0-0.2-0.1c-0.2,0-0.3-0.1-0.4-0.1c0,0,0,0,0.1-0.1c0,0,0.1-0.1,0.1-0.1c0,0,0,0,0,0c0,0,0,0,0,0
		c-0.4,0-0.4-0.4-0.5-0.9l0-0.1c-0.1-1,0.1-2.2,0.5-2.7c0,0,0,0,0,0c0.1,0.3,0.2,0.6,0.5,0.7c0.1,0,0.2-0.1,0.1-0.1
		C67.2,8.2,67.1,8,67,7.7c0-0.1-0.1-0.1-0.1,0c0,0,0,0,0.1-0.1c0,0,0,0,0,0c0,0,0-0.1,0.1-0.1c0,0.2,0.1,0.4,0.3,0.6
		c0.1,0.1,0.2,0,0.1-0.1c-0.2-0.2-0.3-0.4-0.3-0.6c0-0.1-0.1-0.1-0.1-0.1c0-0.1,0-0.3,0-0.4c0-0.1,0-0.2,0-0.2
		c0-0.3,0.1-0.6,0.2-0.7c0,0.7-0.1,1.2,0.3,1.8c0,0.1,0.2,0,0.2,0c-0.4-0.6-0.3-1.1-0.3-1.8c0-0.1-0.1-0.1-0.1-0.1
		c0.1-0.2,0.3-0.3,0.5-0.4c0.1,0,0.1-0.1,0.2-0.1c0,0,0,0,0-0.1c0,0,0,0-0.1,0c-0.2,0-0.5,0-0.7,0.1c-0.8,0.3-0.9,1.1-1.1,2
		c0,0.2-0.1,0.4-0.1,0.7c-0.3,0.6-0.5,1.7-0.6,2.5c0,0.1,0,0.3,0,0.4c0,0.2,0,0.3,0,0.5C65.5,11.6,65.2,11.8,64.8,11.9z"/>
	<path class="st2" d="M80.6,12.7C80.6,12.7,80.6,12.7,80.6,12.7c0-0.3,0.1-0.4,0.2-0.5c0.1-0.1,0.2-0.3,0.2-0.5c0,0,0,0,0,0
		c-1-1.2-2.5-1.9-4.1-1.9c-0.3,0-0.6,0-0.9,0.1c0,0-0.1-0.1-0.1-0.1c-0.1-0.1-0.1-0.1-0.2-0.2c0,0,0,0-0.1,0c-0.6,0.4-1.6,0.8-2,1
		c0,0,0,0,0,0c-0.1,0.4-0.5,0.6-0.8,0.6c-0.3,0-0.5-0.1-0.7-0.3c0,0,0,0-0.1,0c0,0,0,0,0,0l0,0.1c-0.1,0.3-0.1,0.6-0.1,1
		c0,0,0,0,0,0.1c0.2,0.1,0.4,0.2,0.6,0.3c1,0.5,2,1.1,3.3,1.2c0,0,0.1,0,0.1,0l0.2,0c0.1,0,0.1,0,0.2,0c0.1,0,0.2,0.1,0.3,0.1
		c0.1,0,0.2,0.1,0.2,0.1c0,0,0,0,0,0c0,0,0,0,0,0c0,0,0.3-0.6,0.3-0.7c-0.1-0.1-0.3-0.2-0.7-0.3c-0.2,0-0.3-0.1-0.4-0.2
		c-0.1-0.1-0.3-0.2-0.4-0.2c-0.1,0-0.1,0-0.2,0c-0.2,0-0.3,0-0.5,0.1c-0.1,0-0.3,0.1-0.4,0.1c0,0-0.1,0-0.1,0
		c-0.3-0.1-0.5-0.3-0.7-0.4c-0.1-0.1-0.1-0.1-0.1-0.1c0,0,0-0.1,0-0.1c0,0,0,0,0,0c0.3-0.6,0.8-1.1,1.7-1.4c0,0,0.1,0.1,0.1,0.1
		c0.2,0.1,0.3,0.2,0.6,0.3c0,0,0.1,0,0.1,0c0-0.1,0-0.2,0-0.3c0,0,0-0.1,0-0.1c0.2,0,0.4,0,0.5,0c1.7,0,3.1,0.6,3.9,1.5
		c-0.1,0.1-0.1,0.1-0.2,0.1c-0.2-0.1-0.5-0.3-0.7-0.3c0,0,0,0,0,0c0,0,0,0,0,0.1c0,0.1,0.1,0.2,0.4,0.4
		C80.1,12.3,80.4,12.5,80.6,12.7C80.5,12.7,80.6,12.7,80.6,12.7z"/>
	<path class="st2" d="M72,29.4C72.1,29.4,72.1,29.4,72,29.4c0.1,0,1.9-1.6,3.2-4c1.2-2.4,1.4-5.2,1.4-5.3c0,0,0-0.1-0.1-0.1
		c0,0-0.1,0-0.1,0.1c0,0-0.2,2.9-1.4,5.2c-1.3,2.4-3.1,3.9-3.1,4C71.9,29.3,71.9,29.3,72,29.4C72,29.4,72,29.4,72,29.4z"/>
	<path class="st2" d="M67.9,6.1c-0.1,0.3,0,0.6,0.1,0.9c0.1,0.1,0.2,0,0.2-0.1c-0.1-0.2-0.2-0.5-0.1-0.8C68.1,6,68,6,67.9,6.1z"/>
	<path class="st2" d="M61.8,3.5c0.3,0,1,0.1,1.4,0.1c0.5,0,0.5-0.1,0.7-0.2c0.3-0.1,0.6-0.2,1.2-0.3C66.1,3,68,3,69,3
		c1.2,0.1,2.6,0.3,3.6,0.3c1,0,2,0.2,2.7,0.3c0.6,0,0.8-0.4,1.6-0.4c0.6,0,0.8,0.2,1.3,0.4c0.5,0.2,1.1,0.4,1.3,0.4
		c0.2,0.1,0.3,0,0.4-0.1c0.1-0.1,0.1-0.2-0.1-0.3c-0.1-0.1-1.3-0.9-2.8-1.1c-0.7-0.1-1.3-0.1-1.8-0.1c-0.5,0-1.1-0.1-1.6-0.1
		c-0.8,0-0.7,0-1.9,0c-1.2-0.1-3.1-0.4-4.3-0.3c-0.5,0-1.2,0-1.8,0.1c-0.4,0.1-1.3,0.3-1.8,0.4c-1.3,0.3-2.1,0.7-2.3,0.9
		C61.2,3.6,61.5,3.5,61.8,3.5z"/>
	<path class="st2" d="M86,11.9c-0.6-1.7-2.5-4.6-3-5.4c-0.5-0.7-1.1-1-1.5-1.5c-0.4-0.5-0.7-0.8-0.7-0.8s-0.1-0.1-0.2-0.1
		c-0.1,0-0.1,0.1-0.3,0.1c-0.1,0-0.3,0.1-0.4,0.2c0,0.1,0.2,0.2,0.4,0.4c0.2,0.2,0.4,0.3,0.6,0.5c0.2,0.2,0.3,0.3,0.3,0.5
		c0,0.1,0.1,0.1,0.2,0.2c0.1,0.1,0.2,0.2,0.2,0.1c0-0.1,0-0.3,0-0.4c0-0.1,0-0.2,0.1,0c0.1,0.1,1.2,1.9,1.6,2.7
		c0.4,0.7,1.2,1.9,1.5,2.4c0.3,0.5,0.6,0.9,0.8,1.2c0.3,0.6,0.6,1.9,0.7,2.7c0.1,0.8,0.2,1,0.3,1.3c0.2,0.3,0.3,0.5,0.5,1
		c0.2,0.5,0.5,2.2,0.5,3.4c0,1.3-0.5,4.1-1,5.3c-1,2.3-1.2,2.2-1.5,2.5c-0.6,0.7-1.7,3.1-2.2,3.6c-0.3,0.3-1.1,1-2,1.7
		c-0.8,0.7-1.8,1.3-2.4,1.6c-0.8,0.4-2.9,1.4-3.7,1.6c-0.8,0.2-1.3,0.5-3.4,0.7c-2,0.2-3.8-0.3-4.3-0.4c-0.5-0.2-2.2-0.9-3.4-1.3
		c-1.2-0.5-2.9-1-3.4-1.3c-0.5-0.3-1.5-1.3-2-1.6c-0.5-0.3-0.5,0-1.9-1.1c-1.3-1-1.6-1.6-1.7-1.7c0-0.1,0-0.2,0-0.2c0,0,0,0,0,0
		c0.9,0.7,1.6,1.9,2.8,2.3c0.6,0.2,1.1,0.7,1.7,0.9c0.1-1.5,1.1-2.3,1.7-3.3c-1.2-1.5-2.1-3.5-2.6-5.7c-0.1-1.3-0.4-3.2,0.7-3.7
		c0.1-1.1,0.3-2.5,0.6-3.5c-0.3-0.5-0.1-1.4-0.2-2.1c0-0.1,0-0.2-0.1-0.3c-0.1,0-0.1,0-0.3,0.2c-0.2,0.2-0.3,0.5-0.6,0.7
		c-0.1,0-0.3-0.1-0.4,0c-0.1,0.1-0.4,0.4-0.6,0.4c-0.1-0.1-0.2-0.1-0.3-0.2c0,0,0.3-0.7,0.7-1.4c0-0.1,0.1-0.2,0-0.2
		C58,13.8,58,14,57.7,14.3c-0.4,0.3-0.8,0.8-0.9,0.9c0,0-0.1-0.1-0.2-0.3c0.7-0.6,0.7-0.9,1.2-1.6c0.1-0.2,0.6-0.5,0.7-0.7
		c0.1-0.1,0-0.1,0-0.2c-0.8,0.5-1.4,1.1-2.1,1.9c0,0-0.1-0.1-0.1-0.2c0.4-0.6,0.8-1.1,1.2-1.6v-0.5c0.5-0.5,1.2-0.9,1.8-1.2
		c0.9-0.1,1.7-0.5,2.6-0.6c0.2,0,0.5-0.1,0.7-0.1c0.9,0,1.7,1.5,2.4,1.3c0.3-0.5,0.1-1.1,0.2-1.7c0.2-0.8,0.6-1.3,0.6-2.2
		c0.1-1.1,0.4-2.1,1.5-2.4C68,4.8,68.5,5.1,69,5.3c0.8,0.9,2.1,1.9,2.7,3.1c0.2,0.4,0,1.3,0.2,1.8c0.3,0.1,0.4,0.5,0.7,0.5
		c0.4,0,0.5-0.6,1-0.6c0.9-0.1,1.3-0.5,1.8-1c0.3,0.3,0.7,0.2,1.1,0.2c2.1,0,4.1,0.9,4.8,2.2c0.2,0.4,0.1,0.9-0.1,1.3
		c0.2,0.2,0.7,0.3,0.5,0.8c0.1,0.1,0.2-0.1,0.2,0.1c-0.1,0.4-0.7,0.3-0.9,0.4c0.2,0.1,0.3,0.1,0.4,0.3c-0.3,0-0.5,0.3-0.7,0.3
		c-0.9,0.1-1.2-1.2-2-1.3c0.1,0.2-0.1,0.2-0.1,0.3c0.6,0.3,1.9,1.3,1.2,1.8c-0.5,0-1.2,0.1-1.7,0.2c0,0.6,0,1.2,0.2,1.7
		c0.1,0.3,0.5,0.7,0.5,0.9c0,0.1-0.2,0.3-0.2,0.4c-0.2,0.5-0.3,0.9-0.2,1.6c0.1,0.9,0.2,1.9,0.1,2.7c-0.1,0.7-0.3,1.4-0.4,2
		c-0.3,1.2-1,2.2-1.3,3.5V29c-0.7,0.3-1.2,0.8-1.7,1.4c-0.1,0.1,0.4,0.4,0.4,0.5c-0.4,0.5-0.5,1.5-0.9,2.3c-0.4,0.5-1.2,1-1.6,1.5
		c0,0,0.2,0.4,0.2,0.4c0,0.1-0.2,0.4-0.5,0.5c-0.1,0-0.2-0.1-0.4-0.1c-0.8-0.1-1.3,0.2-1.7,0.4c0,0-0.1,0.1-0.1,0c0,0,0-0.1,0-0.1
		c-0.1-0.4-0.3-0.7-0.4-0.8c-0.6-0.4-1.7-0.3-1.8,0.5c0,0.1-0.1,0.3-0.1,0.3c0,0-0.1,0.1-0.1,0.1c-0.1,0-0.2-0.1-0.3-0.2
		c-0.8-0.5-1.7-1.2-1.9-1.3c-0.1,0-0.3,0-0.4-0.1c-0.7-0.4-1.1-1.2-1.9-1.6c-0.3,0-0.1,0.4-0.2,0.7c0,0.3-0.3,0.9-0.5,0.8
		c-0.7-0.2-1.6-0.4-1.9-1.1c0,0,0,0,0,0c-0.2,0-0.3,0.2-0.4,0.4c0.4,0.4,0.8,0.8,1.5,1c1.9,0.2,3.2,1.7,5.1,2.1
		c0.1,0,0.3,0.1,0.4,0.1c0.8,0.1,1.5,0.1,2.3,0.2c0.5,0.1,0.8,0.2,1.4,0.1c0.6-0.2,1,0,1.4-0.1c0.8-0.1,1.8-0.6,2.5-0.8
		c0.7-0.2,1.5-0.4,2.2-0.6c0.4-0.1,1.3-0.5,1.7-0.7c2.1-1.4,3.4-3.3,4.7-5.5c0.3-0.5,0.5-1,0.9-1.2c1.2-0.6,1.7-1.6,2.1-3
		c0.1-0.6,0.2-0.8,0.3-1.2c0.4-1.6,0.5-3.6,0.4-5.2c-0.1-1.5-1.4-3.2-1.5-4.7c-0.1-1.1-0.3-1.7-0.7-2.4c-0.2-0.4-1.3-1.6-2.2-3.2
		c-0.3-0.6-0.7-1.1-1.1-1.6c-0.4-0.5-0.8-1.1-1.2-1.5c-0.5-0.4-1.3-0.7-1.8-1c-0.4-0.2-0.8-0.5-1.1-0.7C76.6,3.2,76,4,75.2,4
		c-0.4,0-0.4,0-0.7-0.1c-1.8-0.6-4.3-0.3-6.5-0.4c-0.9-0.1-1.8-0.1-2.6,0c-0.6,0.1-1,0.3-1.5,0.6c-0.2,0.1-0.5,0.1-0.6,0.3
		c-0.1,0.1-0.1,0.3-0.1,0.4c-0.1,0.3-0.2,0.6-0.3,1c0,0.3-0.1,0.6-0.2,0.5c-0.4-0.4-1-0.7-1.6-1c-0.1-0.1-0.3,0-0.4,0.2
		c-0.2,0.3-0.4,0.4-0.9,0.6c-0.9,0.2-1.5,0.6-2,1.2c-0.2,0.4-0.4,0.9-0.6,1.3c-0.5,0.7-1.2,1.4-1.8,2.2c-0.6,0.8-1.1,1.6-1.7,2.3
		c-0.6,0.8-1.5,1.6-1.6,2.9c-0.2,2.9-0.7,5.5-0.2,8.5c0,0.2,0.1,0.4,0.2,0.7c0.5,1.2,0.3,1.4,0.4,1.6c0.2,0.5,1.2,0.6,2.2,0.5
		c0.1,0,0.2,0,0.3,0c0.3,0.1,0.3,0.3,0.4,0.6c0,0.1,0.1,0.2,0.2,0.3c0,0-0.1-0.1-0.2-0.2c-0.1-0.1-0.2-0.2-0.3-0.2
		c-0.3-0.1-0.4,0-0.8,0c-0.4,0.1-0.5,0.2-0.9,0.2c-0.7,0-0.8-0.4-1-0.9c-0.2-0.5-0.2-0.9-0.3-1.6c-0.1-0.6-0.2-0.5-0.4-1.1
		c-0.2-0.5-0.3-1.2-0.3-1.8c0-0.6,0.1-1,0-1.4c0-0.4-0.1-0.5-0.1-1.4c0-0.9,0.4-1.7,0.5-2.6c0-0.9,0-1,0.4-2.1
		c0.4-1.1,1.1-1.7,1.5-2.3c0.4-0.6,0.6-1.1,1.4-2.1c0.8-1,1.3-1.6,1.9-2.2c0.5-0.6,0.7-1.2,1.1-1.7c0.3-0.5,0.7-0.6,1.2-0.9
		c0.5-0.3,1.3-0.4,1.2-0.5c0,0-0.4,0-0.6-0.2c-0.1-0.2,0-0.4-0.1-0.4c-0.1,0-1.2,0.9-2,1.6l0,0l-0.1,0c0,0-0.1,0.1-0.3,0.2l0.2,0.1
		c-0.1,0.1-0.2,0.2-0.2,0.3L57,6.7c-0.1,0.1-0.2,0.2-0.3,0.3l0.4,0.3C57,7.4,57,7.5,56.9,7.6l-0.4-0.4c-0.1,0.1-0.1,0.1-0.1,0.2
		c0,0-0.1,0.1-0.1,0.2l0.5,0.4c-0.1,0.1-0.2,0.2-0.2,0.3L56,7.9c-0.1,0.1-0.2,0.2-0.2,0.4l0.4,0.4c-0.1,0.1-0.1,0.2-0.2,0.2
		l-0.4-0.4c-0.1,0.1-0.2,0.2-0.2,0.4l0.4,0.3c-0.1,0.1-0.1,0.1-0.2,0.2c0,0-0.1,0.1-0.1,0.1l-0.4-0.3c-0.1,0.1-0.2,0.2-0.2,0.4
		l0.4,0.3c-0.1,0.1-0.1,0.2-0.2,0.2l-0.4-0.3c-0.1,0.1-0.2,0.2-0.3,0.3l0.4,0.3c-0.1,0.1-0.2,0.2-0.2,0.3l-0.4-0.3
		c-0.1,0.1-0.1,0.2-0.2,0.2c0,0-0.1,0.1-0.1,0.1l0.4,0.3c-0.1,0.1-0.1,0.2-0.2,0.2l-0.4-0.3c-0.1,0.1-0.2,0.2-0.3,0.3l0.4,0.3
		c-0.1,0.1-0.2,0.2-0.3,0.3l-0.4-0.3c-0.1,0.1-0.2,0.2-0.3,0.4l0.4,0.3c-0.1,0.1-0.1,0.2-0.2,0.2l0,0l-0.4-0.2
		c-0.1,0.1-0.2,0.2-0.2,0.4L53,13c-0.1,0.1-0.1,0.2-0.2,0.4l-0.5-0.3c-0.1,0.1-0.2,0.3-0.2,0.4l0.5,0.3c0,0.1-0.1,0.2-0.1,0.3
		l-0.6-0.2c-0.1,0.1-0.1,0.2-0.2,0.4l0.6,0.2c-0.1,0.1-0.1,0.3-0.2,0.4l-0.6-0.2c-0.1,0.1-0.1,0.3-0.2,0.4l0.6,0.2
		c0,0.1-0.1,0.2-0.1,0.3l-0.6-0.2c-0.1,0.1-0.1,0.3-0.2,0.4l0.6,0.2c0,0.1-0.1,0.2-0.1,0.4l-0.7-0.2c0,0.1-0.1,0.2-0.1,0.3
		c0,0,0,0.1-0.1,0.1l0.7,0.3c0,0.1,0,0.1,0,0.2c0,0,0,0.1,0,0.1l-0.8-0.1c0,0.1-0.1,0.3-0.1,0.4l0.9,0.1c0,0.1,0,0.3-0.1,0.4
		l-0.9-0.2c0,0.1,0,0.3-0.1,0.4l0.9,0.2c0,0.1,0,0.2,0,0.3l-1-0.1c0,0.1,0,0.3,0,0.4l1,0.1c0,0.1,0,0.3,0,0.4l-1-0.1
		c0,0.1,0,0.3,0,0.4l1,0.1c0,0.1,0,0.2,0,0.3c0,0,0,0,0,0l-1-0.1c0,0.1,0,0.3,0,0.4l1,0.1c0,0.1,0,0.3,0,0.4l-1-0.1c0,0,0,0.1,0,0.1
		c0,0.1,0,0.2,0,0.3l1,0.1c0,0.1,0,0.2,0,0.3l-1,0.1c0,0.1,0,0.3,0,0.4l1-0.1c0,0.1,0,0.3,0,0.4l-1,0.1c0,0.2,0,0.3,0,0.4l1-0.1
		c0,0.1,0,0.2,0,0.3l-1,0.1c0,0.2,0,0.3,0,0.4l1-0.1c0,0.1,0,0.3,0.1,0.4L50.2,24c0,0.2,0,0.3,0.1,0.4l1.1-0.1
		c0,0.1,0.1,0.2,0.1,0.3l-1.1,0.2c0,0.1,0.1,0.3,0.1,0.4l1.2-0.3c0.1,0.1,0.1,0.3,0.2,0.4l-1.2,0.3c0.1,0.1,0.1,0.3,0.1,0.4l1.2-0.2
		c0,0.1,0,0.2,0,0.2l-1.1,0.4c0,0.1,0.1,0.3,0.1,0.4l1.1-0.4c0,0.1,0,0.3,0.1,0.4l-1,0.4c0,0.1,0.1,0.3,0.1,0.4l1.1-0.4c0,0,0,0,0,0
		c0,0.1,0.1,0.2,0.1,0.3L51.3,28c0.1,0.1,0.1,0.2,0.2,0.4l1.1-0.4c0.1,0.1,0.1,0.2,0.2,0.4l-1.1,0.4c0.1,0.1,0.2,0.2,0.2,0.4
		l1.1-0.4c0,0.1,0.1,0.1,0.1,0.1l-0.9,0.7c0.1,0.1,0.2,0.2,0.3,0.3l1-0.7c0.1,0,0.4,0,0.8-0.3c0.2-0.2,0.4-0.3,0.6-0.4
		c0.4-0.2,0.5-0.2,0.6-0.3c0.1,0,0.2,0,0.3,0c0,0,0.1,0,0.1,0c0,0.1-0.1,0.2-0.2,0.2c-0.1,0-0.2-0.1-0.2-0.1c-0.1,0-0.7,0.4-0.9,0.6
		c-0.2,0.1-0.4,0.3-0.6,0.4l-1.2,0.9c0.1,0.1,0.2,0.2,0.3,0.3l1-0.7c0,0.1,0.1,0.2,0.2,0.2l-1,0.7c0.1,0.1,0.2,0.2,0.3,0.3l1-0.7
		c0.1,0.1,0.2,0.2,0.2,0.3l-0.9,0.7c0.1,0.1,0.2,0.2,0.3,0.3l0.9-0.7c0,0.1,0.1,0.1,0.1,0.2L54.2,32c0.1,0.1,0.2,0.2,0.3,0.3
		l0.8-0.8c0.1,0.1,0.2,0.2,0.3,0.3l-0.8,0.8c0,0,0.1,0.1,0.1,0.1c0.1,0.1,0.1,0.1,0.2,0.2l0.8-0.8c0,0,0.1,0.1,0.1,0.1
		c0,0,0,0,0.1,0.1l-0.8,0.8c0.1,0.1,0.2,0.2,0.3,0.3l0.7-0.8c0.1,0.1,0.2,0.2,0.3,0.3l-0.7,0.8c0.1,0.1,0.2,0.2,0.4,0.2l0.7-0.7
		c0.1,0,0.1,0.1,0.2,0.1l-0.6,0.8c0.1,0.1,0.3,0.1,0.4,0.2l0.6-0.8c0.1,0.1,0.2,0.1,0.4,0.2l-0.6,0.8c0.1,0.1,0.3,0.1,0.4,0.2
		l0.6-0.8c0,0,0.1,0,0.1,0c0,0,0,0,0.1,0l-0.4,0.9c0.1,0.1,0.3,0.1,0.4,0.2l0.4-0.9c0.1,0.1,0.2,0.1,0.4,0.2l-0.4,0.9
		c0.1,0.1,0.3,0.1,0.4,0.2l0.4-0.9c0.1,0,0.2,0.1,0.3,0.1l-0.4,0.9c0.1,0.1,0.3,0.1,0.4,0.2l0.4-0.9c0.1,0.1,0.2,0.1,0.4,0.2
		L60.2,36c0.1,0.1,0.3,0.1,0.4,0.2l0.4-0.9c0.1,0,0.2,0.1,0.3,0.1l-0.4,0.9c0.1,0.1,0.3,0.1,0.4,0.2l0.4-0.8
		c0.1,0.1,0.3,0.1,0.4,0.2l-0.3,0.8c0.1,0.1,0.3,0.1,0.4,0.2l0.3-0.8c0,0,0.1,0,0.1,0c0.1,0,0.1,0,0.2,0.1l-0.3,0.8
		c0.1,0.1,0.3,0.1,0.4,0.2l0.3-0.8c0.1,0.1,0.3,0.1,0.4,0.2l-0.3,0.8c0.1,0.1,0.3,0.1,0.4,0.2l0.3-0.8c0.1,0,0.2,0.1,0.2,0.1
		l-0.2,0.9c0.2,0.1,0.3,0.1,0.4,0.1l0.2-0.9c0.1,0,0.3,0.1,0.4,0.1l-0.2,0.9c0.1,0.1,0.3,0.1,0.4,0.2l0.2-0.9c0.1,0,0.2,0.1,0.3,0.1
		l-0.1,1c0.1,0,0.3,0.1,0.4,0.1l0.1-0.9c0.1,0,0.3,0.1,0.4,0.1l-0.1,0.8c0,0,0,0,0,0c0.1,0,0.3,0,0.4,0l0.1-0.8c0.1,0,0.2,0,0.3,0.1
		l0,0.7c0.1,0,0.3,0,0.4,0l0-0.7c0.1,0,0.2,0,0.3,0c0,0,0.1,0,0.1,0l0,0.7c0.1,0,0.3,0,0.4,0l0-0.7c0.1,0,0.2,0,0.3,0l0,0.7
		c0.1,0,0.3,0,0.4,0l0-0.7c0.1,0,0.3,0,0.4,0l0,0.6c0.1,0,0.3,0,0.4,0l0-0.6c0.1,0,0.2,0,0.3,0l0,0.6c0.1,0,0.3,0,0.4,0l0-0.6
		c0.1,0,0.3,0,0.4,0l0,0.6c0.1,0,0.3,0,0.4,0l0-0.5c0.1,0,0.2,0,0.3,0l0,0.5c0.1,0,0.3,0,0.4,0l0-0.5c0.1,0,0.3,0,0.4,0l0,0.5
		c0.1,0,0.2,0,0.3,0c0,0,0.1,0,0.1,0l0-0.5c0.1,0,0.2,0,0.3,0l0.1,0.4c0.1,0,0.3-0.1,0.4-0.1l-0.1-0.4c0.1,0,0.3,0,0.4-0.1l0.1,0.3
		c0.2,0,0.3-0.1,0.4-0.1l-0.1-0.3c0,0,0.1,0,0.1,0c0.1,0,0.1,0,0.2,0l0,0.2c0,0,0,0,0,0c0.2-0.1,0.3-0.2,0.3-0.3l0-0.1
		c1.5-0.5,3.2-1.5,3.7-1.8c0.6-0.3,2.6-1.6,3.9-3.1c1.3-1.5,3-3.5,3.8-6c0.8-2.5,1.2-3.5,1.3-5.7C88.2,18.3,86.6,13.6,86,11.9z
		 M77.3,33c-0.9,0-1.6,0.4-2.2,0.8c0.1-0.9,1.1-2,0.5-3.1c0.3-0.6,0.6-1.4,1.4-1.4c0.2,0.3,0.4,0.6,0.6,0.8
		C77.8,31.1,77.9,32.4,77.3,33z M55.8,28.1L55.8,28.1L55.8,28.1L55.8,28.1z"/>
	<path class="st2" d="M59.5,33.6C59.5,33.6,59.5,33.7,59.5,33.6c0,0.1,0.1,0.1,0.1,0.1c0,0,0.1,0,0.1,0c0.1-0.1,0.2-0.2,0.2-0.3
		c0.3-0.4,0.7-0.8,1.1-1.1c0,0.2,0,0.6-0.1,0.8l0,0c0,0,0,0,0,0c0.2,0.2,0.5,0.4,0.8,0.5c0,0,0,0,0,0c0,0,0,0,0,0c0-0.2,0-0.3,0-0.4
		c0,0-0.1-0.1-0.2-0.1c0,0-0.1-0.1-0.1-0.1c0,0,0-0.2,0-0.3c0,0,0-0.1,0-0.1c0-0.1,0-0.1,0.1-0.1c0,0,0,0,0,0
		c0.1,0.2,0.2,0.4,0.3,0.6c0.1,0.3,0.2,0.5,0.4,0.7c0,0,0,0,0,0c0,0,0,0,0,0c0,0,0,0,0,0c0-0.2,0.1-0.3,0.2-0.5l0-0.1c0,0,0,0,0-0.1
		c-0.5-0.6-0.8-1.4-0.8-2.3l0-0.1c0-0.1,0-0.3,0-0.4c0.1-0.1,0.1-0.1,0.2-0.1c0.1,0,0.3,0.1,0.4,0.1l0.1,0c0.2,0.1,0.4,0.2,0.6,0.2
		c0.1,0,0.2,0,0.2-0.1c0,0,0,0,0,0c0.1-0.2-0.1-0.5-0.3-0.7c-0.1-0.2-0.3-0.4-0.5-0.5c0,0,0,0,0,0c0,0,0,0-0.1,0
		c-0.1,0-0.1,0.1-0.1,0.1c0,0.1-0.1,0.1-0.1,0.1c-2-2.1-3.1-4.6-3.3-7.7c0,0,0,0-0.1,0c0,0-0.1,0-0.1,0.1c0,2.8,0.9,5.4,2.9,8
		c-0.1,0.1-0.2,0.2-0.3,0.3c-0.1,0.1-0.2,0.3-0.4,0.5c-0.1,0.1-0.1,0.2-0.2,0.3c-0.3,0.4-0.8,1-0.7,1.7c-0.1,0.2-0.3,0.4-0.4,0.6
		C59.7,33.4,59.6,33.5,59.5,33.6z"/>
	<path class="st2" d="M59.8,23.4c0.5,2.6,1.5,4.2,2.6,5.9c0,0,0,0,0,0c0,0,0,0,0,0c0.3-0.2,0.5-0.3,0.9-0.4c0,0,0,0,0,0
		c0,0,0,0,0-0.1c-2.4-2.3-3.4-6.1-2.9-10.1c0.1-0.7,0.3-1.3,0.5-1.9c0.1-0.4,0.3-0.8,0.4-1.2c0,0,0,0,0,0c0,0,0,0,0,0
		c-0.1,0-0.1,0-0.2,0c-0.2,0-0.4,0-0.5-0.2c0.2-0.7,0.6-1.6-0.1-2.2c0,0-0.1,0-0.1,0c-0.1,0.1-0.2,0.1-0.3,0.2
		c-0.1,0-0.1-0.1-0.2-0.1c-0.1-0.1-0.1-0.1-0.2-0.1c0,0,0,0,0,0c-0.6,0.3-1.1,0.8-1.4,1.2c0,0,0,0-0.1,0.1c-0.1,0.2-0.2,0.3-0.2,0.4
		c0,0,0,0,0,0c0.1,0,0.1,0.1,0.2,0.1c0,0,0.1,0,0.1,0c0,0,0.1-0.1,0.2-0.2c0.1-0.1,0.1-0.2,0.2-0.2c0.2-0.2,0.5-0.4,0.8-0.4
		c0.1,0,0.1,0,0.2,0c0,0,0,0,0,0c0,0.2,0.1,0.3,0.2,0.5c0.1,0.1,0.1,0.2,0.1,0.3c0,0.2,0,0.4-0.1,0.6c-0.1,0.2-0.1,0.4-0.1,0.6
		c0,0.2,0.1,0.2,0.2,0.3c0.1,0.1,0.1,0.1,0.2,0.2C59.8,18.3,59.3,21,59.8,23.4z"/>
	<path class="st2" d="M71.9,27.3C71.9,27.3,71.9,27.3,71.9,27.3c0.1,0,1.6-1.4,2.3-3.4c0.8-2.1,0.7-3.4,0.7-3.4c0,0,0-0.1-0.1-0.1
		c0,0-0.1,0-0.1,0.1c0,0,0.1,1.3-0.7,3.4c-0.7,2-2.2,3.3-2.2,3.3C71.8,27.2,71.8,27.3,71.9,27.3C71.8,27.3,71.8,27.3,71.9,27.3z"/>
	<path class="st2" d="M72.2,28.2c0,0,0,0.1,0,0.1c0,0,0,0,0.1,0c0,0,0,0,0.1,0c0,0,1.7-2.1,2.6-4.2c0.8-2.1,0.8-4.1,0.8-4.2
		c0,0,0-0.1-0.1-0.1h0c0,0-0.1,0-0.1,0.1c0,0,0,2-0.8,4.1C73.9,26.2,72.2,28.2,72.2,28.2z"/>
	<path class="st2" d="M71.6,26.2C71.6,26.2,71.6,26.2,71.6,26.2c0.1,0,1.1-0.8,1.9-3C74.2,21.3,74,20,74,20c0,0-0.1-0.1-0.1-0.1
		c0,0-0.1,0.1-0.1,0.1c0,0,0.2,1.3-0.4,3.1c-0.8,2.2-1.8,2.9-1.8,2.9C71.5,26.1,71.5,26.1,71.6,26.2C71.6,26.2,71.6,26.2,71.6,26.2z
		"/>
	<path class="st2" d="M78.9,15.2c0.1,0,0.2,0,0.2,0c0,0,0,0,0,0c0,0,0-0.1,0.1-0.2c0.1-0.2,0.1-0.4,0-0.5c-0.2-0.1-0.4-0.2-0.6-0.4
		c-0.4-0.3-0.8-0.5-1.3-0.6c0,0-0.1,0-0.1,0c-0.1,0.2-0.1,0.4-0.2,0.6c-0.2,0.5-0.4,1.1-0.4,1.8c0,0,0,0,0,0c0.5,1,0.9,2.1,1,3.4
		c0,0,0,0,0,0l0,0c0,0,0,0,0,0c0.1-0.1,0.1-0.2,0.2-0.3c0.1-0.2,0.2-0.4,0.2-0.6c0-0.2-0.1-0.5-0.2-0.9c-0.1-0.2-0.2-0.5-0.2-0.7
		c0-0.2-0.1-0.3-0.1-0.5C77.6,15.4,78.3,15.3,78.9,15.2z"/>
	<path class="st2" d="M75,29.3c0-0.1,0.1-0.1,0.1-0.2c0.1-0.2,0.2-0.3,0.1-0.5c0,0,0,0,0,0c0,0,0,0,0,0c-0.1,0.1-0.1,0.1-0.2,0.2
		c-0.2,0.2-0.5,0.5-0.6,0.7c-0.3,0.1-0.5,0.4-0.7,0.6c-0.1,0.1-0.2,0.2-0.3,0.3c0,0-0.1,0-0.1,0l0,0c-0.1,0-0.1,0-0.2,0
		c-0.1,0-0.1,0-0.2,0c0,0,0,0,0,0c0,0,0,0,0,0c0,0.3,0,0.4,0,0.5c-0.4,0.3-0.8,0.4-1.2,0.6c-0.2,0.1-0.4,0.1-0.6,0.2
		c-0.3,0.1-0.3,0.4-0.2,0.6c0,0.2,0,0.4-0.1,0.6c-0.1,0-0.2,0-0.4,0c-0.1,0-0.3,0-0.4,0c-0.1,0-0.1,0.1-0.1,0.1l0,0c0,0,0,0,0,0.1
		c0,0,0,0,0,0c0.2,0,0.4,0,0.6,0c0.3,0,0.6,0,1,0.1c0,0,0,0,0.1,0c0.1-0.2,0.3-0.3,0.4-0.5c0.4-0.4,0.7-0.8,1.2-1.2
		c0.1-0.1,0.2-0.1,0.3,0c0.3,0.5-0.2,0.8-0.5,1.1l-0.1,0.1c-0.2,0.1-0.3,0.3-0.5,0.4c-0.1,0.1-0.2,0.2-0.4,0.3c0,0-0.1,0.1-0.2,0.1
		c-0.2,0.2-0.7,0.5-0.8,0.5c0,0,0,0,0,0c-0.3-0.3-0.8-0.5-1.5-0.5c-0.4,0-0.9,0.1-1.4,0.5c-1.6-0.4-2.8-1.4-3.6-3c0,0,0,0,0,0
		c0,0-0.1,0-0.1,0c-0.1,0-0.1,0-0.2,0c-0.1,0-0.2,0-0.2,0c0,0,0,0-0.1,0c0,0,0,0,0,0.1c0.1,0.1,0.1,0.1,0.2,0.2
		c0.1,0.1,0.2,0.2,0.2,0.3c0.1,0.2,0.2,0.5,0.3,0.9c0,0.1,0,0.2,0,0.2c0,0.2,0,0.4,0.2,0.6c0.1,0.1,0.4,0.3,0.8,0.5
		c0.7,0.4,1.7,0.9,2.3,1.5c0,0,0,0,0.1,0c0,0,0,0,0,0c0.2-0.6,0.7-1,1.4-1c0.2,0,0.4,0,0.6,0.1c0.5,0.2,0.6,0.6,0.7,1c0,0,0,0,0,0
		c0,0,0,0,0,0c0,0,0,0,0,0c0.5-0.3,1-0.4,1.3-0.4c0.2,0,0.4,0.1,0.5,0.2c0,0,0,0,0.1,0c0.1,0,0.2-0.1,0.2-0.2c0,0,0,0,0,0
		c0,0,0,0,0-0.1c0-0.1-0.2-0.2-0.2-0.3c0.2-0.4,0.6-0.7,0.9-1c0.2-0.2,0.5-0.4,0.7-0.7c0.1-0.2,0.2-0.6,0.3-0.9
		c0.1-0.2,0.1-0.4,0.2-0.5c0.1-0.3,0.2-0.4,0.1-0.5c0,0,0,0,0,0c0,0,0,0,0,0c0,0,0,0-0.1,0.1c-0.2,0.1-0.4,0.3-0.6,0.3
		c0.1-0.3,0.6-1.2,0.9-1.7C74.9,29.6,75,29.4,75,29.3z"/>
	<path class="st2" d="M72,23.6c0,0,0,0.1,0,0.1c0,0,0,0,0.1,0c0,0,0,0,0.1,0c0,0,0.7-0.7,0.9-2c0.3-1.3,0-2.1,0-2.1
		c0,0-0.1-0.1-0.1-0.1c0,0-0.1,0.1-0.1,0.1c0,0,0.2,0.8,0,2C72.6,22.9,72,23.6,72,23.6z"/>
	<path class="st2" d="M71.6,22.2c0,0,0,0.1,0,0.1c0,0,0,0,0.1,0c0,0,0,0,0.1,0c0,0,0.3-0.3,0.5-0.9c0.1-0.5,0-0.9,0-1
		c0,0-0.1-0.1-0.1-0.1c0,0-0.1,0.1-0.1,0.1c0,0,0.1,0.4,0,0.9C71.8,21.9,71.6,22.2,71.6,22.2z"/>
	<path class="st2" d="M76.4,15.5c-0.4-0.2-1-0.3-1.8-0.4c-0.2-0.1-0.4-0.2-0.6-0.3c-0.2-0.1-0.5-0.2-0.8-0.4
		c-0.1-0.1-0.3-0.2-0.4-0.3c-0.3-0.2-0.7-0.4-1-0.5c-0.3,0-0.6,0.2-1,0.4c-0.2,0.2-0.5,0.4-0.7,0.4c-0.2,0-0.4,0.1-0.7,0.1
		c-0.3,0-0.5,0-0.8,0c-0.3,0-0.6-0.1-0.9-0.1c-0.2,0-0.4,0-0.6,0c-0.2-0.1-0.4-0.2-0.6-0.3c-0.4-0.2-0.8-0.4-1.3-0.5c0,0,0,0,0,0
		c-0.1,0.1-0.3,0.2-0.4,0.4c-0.4,0.4-0.8,0.9-1.5,0.9c0,0,0,0,0,0c-0.1,0.1-0.2,0.1-0.3,0.2c-0.2,0.1-0.5,0.3-0.8,0.3
		c-0.1,0-0.2-0.1-0.3-0.1l0,0c0,0,0,0-0.1,0c0,0,0,0,0,0.1c0,0.1,0,0.1,0,0.2c0,0.1,0,0.3,0.1,0.4c0,0,0,0,0.1,0
		c0.2-0.2,0.5-0.2,0.9-0.2c0.2,0,0.3,0,0.5,0c0.2,0,0.3,0,0.5,0l0,0c0,0,0,0,0,0l0-0.1c0.3-0.5,0.9-1.2,1.5-1.2h0
		c0.4,0,0.8,0.4,1.1,0.8c0,0.1-0.1,0.2-0.1,0.3c0,0.1,0,0.2-0.1,0.3h0c-0.6,0-0.8,0.3-1,0.6c0,0,0,0,0,0.1c0.1,0.1,0.2,0.3,0.2,0.5
		c0,0.1-0.1,0.2-0.2,0.2c0,0,0,0,0,0c0,0,0,0,0,0c0.1,0,0.2,0.1,0.2,0.1c0.1,0.1,0.3,0.1,0.4,0.2c0,0,0,0,0,0c0,0,0,0,0,0
		c0.2-0.1,0.4-0.4,0.4-0.6c0-0.2,0-0.4-0.1-0.5c0.4-0.9,1.2-1.4,2.3-1.4c0.2,0,0.5,0,0.7,0.1c0.8,0.1,1.2,0.6,1.7,1.1
		c0.2,0.2,0.4,0.4,0.6,0.6c0,0,0,0,0,0c0,0,0.1,0,0.3,0c0.1,0,0.1,0,0.2,0c0.2,0,0.3,0,0.4,0c0,0,0,0,0.1,0c0,0,0,0,0-0.1
		c-0.1-0.3-0.5-0.5-0.8-0.7c-0.3-0.1-0.6-0.3-0.7-0.5c-0.1-0.2-0.1-0.4,0-0.5c0.2-0.3,0.7-0.5,1.2-0.5c0.2,0,0.4,0,0.5,0.1
		c0.5,0.2,0.7,0.8,0.8,1.2l0,0c0,0,0,0,0,0c0,0,0,0,0,0c0.3-0.2,0.8-0.3,1.5-0.3c0.2,0,0.3,0,0.5,0c0.1,0,0.1,0,0.2,0.1
		c0.1,0,0.2,0.1,0.3,0.1C76.4,15.7,76.4,15.7,76.4,15.5C76.5,15.6,76.5,15.5,76.4,15.5C76.5,15.5,76.5,15.5,76.4,15.5z"/>
	<path class="st2" d="M67.7,30.9C67.7,30.9,67.7,30.9,67.7,30.9C67.7,30.9,67.7,30.9,67.7,30.9c0.3-0.1,0.5-0.2,0.8-0.2
		c0.2,0,0.4,0,0.6,0c0.2,0,0.4,0,0.6,0c0.3,0,0.6,0,0.8-0.2c0,0,0,0,0,0v-0.3c0,0,0-0.1-0.1-0.1h0c-0.2,0-0.4,0.1-0.6,0.1
		c-0.1,0-0.3,0.1-0.4,0.1c-0.1,0-0.1,0-0.2,0c-0.2,0-0.5,0-0.7-0.1c-0.2,0-0.4-0.1-0.7-0.1c-0.2,0-0.4,0-0.6,0.1c0,0,0,0,0,0
		C67.3,30.5,67.5,30.7,67.7,30.9z"/>
	<path class="st2" d="M77.3,13c-0.1,0-0.1,0.2,0,0.1c0.3,0,0.7,0,0.9,0.2c0.1,0,0.2-0.1,0.1-0.1C78,13,77.6,13,77.3,13z"/>
	<path class="st2" d="M70.7,8.8c-0.1-1.3-0.9-1.6-1.5-1.6h0c-0.4,0-0.8,0.1-1,0.4c-0.3,0.3-0.4,0.7-0.4,1.1c0,0.8,0.6,1.6,0.9,2
		c0,0.1,0.1,0.1,0.1,0.2c0.2,0.2,0.1,0.4,0.1,0.5c0,0.1-0.2,0.1-0.2,0.2c0,0-0.1,0-0.1,0c0,0,0,0-0.1,0c0,0,0,0,0,0
		c0,0-0.1,0-0.1,0.1c0,0,0,0.1,0,0.1c0,0,0,0,0,0.1c0,0,0,0,0.1,0c0,0,0,0,0.1,0c0,0,0.1,0,0.1,0c0.1,0,0.4,0,0.7,0
		c0.2,0,0.5,0,0.5,0c0,0,0,0,0,0c0,0,0,0,0.1,0c0.1,0,0.2,0,0.2-0.1c0,0,0-0.1,0-0.1c0,0,0,0-0.1,0c0,0,0,0,0,0
		c-0.1,0-0.2,0-0.2-0.1c-0.1-0.1-0.1-0.2-0.1-0.3c0-0.2,0.1-0.3,0.2-0.5c0.1-0.2,0.2-0.3,0.3-0.4c0-0.1,0.1-0.1,0.1-0.2
		c0.1-0.1,0.2-0.2,0.2-0.2l0,0c0,0,0-0.1-0.1-0.1c0,0,0,0-0.1,0c0,0-0.1-0.1-0.1-0.1c0,0,0,0,0,0c0,0,0,0,0,0
		c-0.1,0.1-0.4,0.4-0.9,0.4c0,0,0,0,0,0l0,0c-0.5,0-1.1-0.4-1.1-1.1c0-0.3,0.1-0.6,0.3-0.8c0.2-0.2,0.5-0.3,0.8-0.3c0,0,0,0,0.1,0
		c0.7,0,1.2,0.5,1.2,1.2c0,0.1,0,0.2,0.1,0.2c0,0,0,0,0,0c0,0,0,0,0,0C70.7,9,70.7,9,70.7,8.8C70.7,8.9,70.7,8.8,70.7,8.8z"/>
	<path class="st2" d="M76.7,12.5c0.4,0,0.9,0.1,1.3,0.3c0.1,0,0.2-0.1,0.1-0.1c-0.4-0.2-0.9-0.3-1.3-0.3
		C76.6,12.4,76.6,12.5,76.7,12.5z"/>
	<path class="st2" d="M74.8,12c0.4-0.3,0.9-0.5,1.4-0.3c0.1,0,0.2-0.1,0.1-0.1C75.7,11.4,75.1,11.6,74.8,12
		C74.6,12,74.7,12.1,74.8,12z"/>
	<path class="st2" d="M74.3,12c0.3-0.5,0.8-0.8,1.4-0.9c0.1,0,0-0.2-0.1-0.2c-0.6,0.1-1.1,0.5-1.5,1C74,12,74.2,12.1,74.3,12z"/>
	<path class="st2" d="M75.3,10.8c0.1,0,0-0.2-0.1-0.1c-0.6,0.2-1.1,0.6-1.4,1.1c-0.1,0.1,0.1,0.1,0.2,0.1
		C74.3,11.3,74.8,10.9,75.3,10.8z"/>
	<path class="st2" d="M66.5,8.9c0.3,0.4,0.7,0.7,1.2,0.8c0.1,0,0.1-0.2,0-0.2c-0.5-0.1-0.8-0.4-1.1-0.8C66.5,8.6,66.4,8.8,66.5,8.9z
		"/>
	<path class="st2" d="M75.9,12.2c0.4-0.1,0.8-0.1,1.2,0.1c0.1,0,0.2-0.1,0.1-0.1c-0.4-0.2-0.8-0.2-1.3-0.1
		C75.8,12.1,75.8,12.2,75.9,12.2z"/>
	<path class="st2" d="M67.4,9c0.1,0,0.2-0.2,0.1-0.2c-0.3-0.1-0.5-0.3-0.7-0.6c-0.1-0.1-0.2,0.1-0.1,0.1C66.8,8.6,67.1,8.8,67.4,9z"
		/>
	<path class="st2" d="M60.8,10.7c-1,0.1-2.8,1-3,1.5c0,0,0,0.1,0,0.1c0,0,0,0,0,0c0,0,0,0,0,0c0.4-0.4,1.9-1.1,3-1.4
		C60.9,10.8,60.9,10.8,60.8,10.7C60.9,10.7,60.8,10.7,60.8,10.7z"/>
	<path class="st2" d="M58.5,13.1C58.5,13.1,58.5,13.1,58.5,13.1C58.6,13.1,58.6,13.1,58.5,13.1c0.5-0.6,1.4-1.2,2.1-1.6
		c0,0,0,0,0-0.1c0,0,0,0-0.1,0C60,11.6,58.8,12.5,58.5,13.1C58.5,13.1,58.5,13.1,58.5,13.1z"/>
	<path class="st2" d="M67.6,6c0,0.5,0,0.9,0.2,1.3c0.1,0.1,0.2,0,0.1-0.1c-0.2-0.4-0.2-0.8-0.2-1.2C67.7,5.9,67.6,5.8,67.6,6z"/>
	<path class="st2" d="M75.4,29.2c0.1,0,0.1-0.1,0.3-0.2c0.1-0.1,0.2-0.2,0.3-0.3c0,0,0,0,0,0c0,0,0,0,0,0.1c0,0,0,0.1,0.1,0.1
		c0,0,0,0,0.1,0c0,0,0,0,0,0c0.1-0.1,0.1-0.3,0.1-0.6c0.1-0.2,0.1-0.5,0.2-0.7c0.1-0.2,0.2-0.5,0.3-0.7c0.2-0.3,0.4-0.7,0.5-1.1
		c0.1-0.2,0.1-0.4,0.2-0.7c0.2-0.6,0.4-1.3,0.5-1.9c0,0,0,0,0,0c0,0,0,0-0.1,0c0,0-0.1,0-0.1,0.2c0,0,0,0.1-0.1,0.1
		c-0.1,0.1-0.2,0.3-0.2,0.4c-0.1,0.1-0.2,0.3-0.3,0.5c-0.3,1.2-0.9,2.3-1.6,3.2c0,0,0,0,0,0.1c0,0.1,0.1,0.1,0.2,0.2
		c0.1,0,0.1,0.1,0.1,0.1c-0.1,0.2-0.2,0.3-0.3,0.5C75.6,28.6,75.4,28.8,75.4,29.2C75.3,29.1,75.3,29.1,75.4,29.2
		C75.3,29.1,75.4,29.2,75.4,29.2z"/>
	<path class="st2" d="M58.4,13.7C58.4,13.7,58.4,13.7,58.4,13.7C58.5,13.7,58.5,13.7,58.4,13.7c0.2-0.1,0.3-0.2,0.4-0.4
		c0.5-0.5,1.2-1.2,2-1.6c0,0,0,0,0-0.1l0,0c0,0,0,0,0,0c0,0,0,0-0.1,0c0,0,0,0,0,0C59.8,12.1,59,12.8,58.4,13.7
		C58.4,13.7,58.4,13.7,58.4,13.7z"/>
	<path class="st2" d="M66.4,9.5c0.4,0.4,1,0.7,1.6,0.9c0.1,0,0.2-0.2,0-0.2c-0.6-0.1-1.1-0.4-1.5-0.8C66.5,9.2,66.4,9.4,66.4,9.5z"
		/>
	<path class="st2" d="M66.4,10c0.4,0.5,1,0.8,1.7,0.8c0.1,0,0.1-0.2,0-0.2c-0.6,0-1.1-0.3-1.5-0.7C66.5,9.8,66.3,9.9,66.4,10z"/>
	<path class="st2" d="M66.6,10.8c0.3,0.1,0.5,0.3,0.8,0.3c0.3,0.1,0.6,0.2,1,0.2c0.1,0,0.2-0.2,0-0.2c-0.3,0-0.6-0.1-0.9-0.1
		c-0.3,0-0.5-0.2-0.8-0.3C66.7,10.6,66.5,10.8,66.6,10.8z"/>
	<path class="st2" d="M71.7,10.6c-0.2,0.3-0.5,0.5-0.8,0.7c-0.2,0.1-0.5,0.2-0.7,0.3c-0.1,0.1,0.1,0.2,0.1,0.1
		c0.3-0.2,0.6-0.3,0.9-0.4c0.2-0.2,0.4-0.4,0.6-0.6C72,10.6,71.8,10.5,71.7,10.6z"/>
	<path class="st2" d="M67.9,13c-0.5,0.1-0.9,0.5-1.2,0.8c-0.1,0.1,0.1,0.2,0.2,0.1c0.3-0.3,0.7-0.6,1.1-0.8
		C68.1,13.1,68.1,13,67.9,13z"/>
	<path class="st2" d="M68.6,13.1c-0.5,0.2-0.9,0.4-1.3,0.8c-0.1,0.1,0,0.3,0.1,0.2c0.4-0.3,0.8-0.6,1.2-0.7
		C68.7,13.2,68.7,13,68.6,13.1z"/>
	<path class="st2" d="M68.6,14.2c0.6-0.5,1.4-0.9,2.2-1.1c0.1,0,0-0.2-0.1-0.2c-0.8,0.2-1.6,0.6-2.2,1.1
		C68.3,14.2,68.5,14.3,68.6,14.2z"/>
	<path class="st2" d="M67.3,12.9c-0.4,0.1-0.8,0.3-1.1,0.6c-0.1,0.1,0.1,0.2,0.2,0.1c0.2-0.3,0.6-0.5,1-0.5
		C67.4,13.1,67.4,12.9,67.3,12.9z"/>
	<path class="st2" d="M69.7,13c-0.7,0.2-1.3,0.5-1.9,0.9c-0.1,0.1,0,0.2,0.1,0.2c0.6-0.4,1.2-0.7,1.9-0.9C69.8,13.2,69.8,13,69.7,13
		z"/>
	<path class="st2" d="M72.3,12.6c-1.1,0.3-2.2,0.8-3.1,1.5c-0.1,0.1,0,0.2,0.1,0.1c0.9-0.7,2-1.2,3.1-1.5
		C72.5,12.8,72.5,12.6,72.3,12.6z"/>
	<path class="st2" d="M71.2,29C71.2,29,71.2,29,71.2,29c-0.1-0.1-0.2-0.1-0.3-0.1c-0.3,0-0.6,0.2-0.8,0.3c-0.2,0.1-0.4,0.3-0.6,0.3
		c-0.2,0-0.3,0.1-0.5,0.1l0,0c-0.4,0-0.7-0.1-1-0.3c-0.1-0.1-0.2-0.1-0.4-0.2c0,0,0,0-0.1,0c-0.1,0.1-0.1,0.2-0.2,0.3
		c0,0.1-0.1,0.1-0.1,0.2c0,0,0,0,0,0c0,0,0,0,0,0c0.3,0.1,0.6,0.2,1.1,0.2c0.3,0,0.5,0,0.8,0c0.2,0,0.5,0,0.7,0c0.3,0,0.5,0,0.6,0.1
		c0,0,0,0,0,0c0,0,0,0,0.1,0c0.1-0.2,0.3-0.4,0.4-0.6C71.1,29.3,71.1,29.2,71.2,29C71.2,29,71.2,29,71.2,29z"/>
	<path class="st2" d="M71.4,23.5C71.4,23.5,71.4,23.5,71.4,23.5c-0.1,0-0.1,0-0.1,0c-0.1,0.8-0.4,1.3-1,1.8c-0.2,0-0.3,0-0.5,0
		c-0.3,0-0.6,0.1-0.9,0.2c-0.3,0.1-0.6,0.2-1,0.2c-0.5-0.3-0.8-0.9-1-1.5c0,0,0,0-0.1,0c0,0,0,0,0,0c-0.1,0.5,0,1,0.3,1.3
		c0.2,0.3,0.2,0.5,0.3,0.6c0,0.1,0,0.2,0.1,0.2c0.1,0,0.1,0.1,0.3,0.1c0.3,0,0.8-0.1,1.1-0.2c0.1,0,0.1,0,0.2-0.1
		c0.4-0.1,0.8-0.3,1.3-0.3c0.1,0,0.2,0,0.3,0c0,0,0,0,0,0C71.1,25.3,71.6,24.6,71.4,23.5z"/>
	<path class="st2" d="M71.1,12.2L71,12.3c-0.5,0.3-1.5,0.5-2.4,0.4c-0.8-0.1-1.4-0.6-2.3-0.5c0,0,0,0-0.1,0c0,0.1-0.1,0.1-0.1,0.2
		c0.2,0,0.4,0,0.6,0.1c0.7,0.1,1.3,0.5,2,0.6c0.9,0.1,1.8-0.1,2.6-0.5c0.1,0,0.1-0.1,0.1-0.1c0,0-0.1,0-0.1-0.1
		C71.4,12.3,71.2,12.2,71.1,12.2z"/>
	<path class="st2" d="M62.1,13.8c-0.3,0.3-0.4,0.7-0.5,1.1c0,0.1,0.1,0.2,0.2,0c0.1-0.4,0.2-0.7,0.5-1
		C62.3,13.9,62.2,13.7,62.1,13.8z"/>
	<path class="st2" d="M63,13.4c-0.4,0.4-0.7,0.9-0.8,1.5c0,0.1,0.2,0.1,0.2,0c0.1-0.5,0.3-1.1,0.7-1.4C63.2,13.4,63,13.3,63,13.4z"
		/>
	<path class="st2" d="M63.9,13.1c-0.5,0.4-1,0.9-1.1,1.6c0,0.1,0.2,0.1,0.2,0c0.1-0.6,0.5-1.1,1-1.4C64,13.2,64,13,63.9,13.1z"/>
	<path class="st2" d="M61.5,16.2c-0.2,0.3-0.3,1.1-0.4,1.3c-0.5,2.2-0.4,4.7,0.2,6.7c0.4,1.3,1.1,2.7,2,3.8c0.7,0.8,1.3,1.5,2.1,2.2
		c0,0,0.7,0.6,0.8,0.6h0c0.1,0,0.1-0.1,0.2-0.1c0,0,0-0.1,0-0.2c0,0,0,0,0,0c-0.8-0.5-1.5-1.3-2.2-2.1l-0.1-0.2
		c-2.1-2.3-3.1-5.8-2.7-9.2c0.1-1.1,0.4-2.2,0.6-2.7c0,0,0-0.1,0-0.1c0,0-0.1-0.1-0.2-0.1C61.6,16.1,61.5,16.1,61.5,16.2z"/>
	<path class="st2" d="M77.4,20.6C77.4,20.6,77.3,20.5,77.4,20.6c-0.1-0.1-0.2-0.1-0.2,0c0,0-0.2,2.6-1.4,5c-1.5,3.1-3.9,4.8-3.9,4.8
		c0,0,0,0.1,0,0.1c0,0,0,0,0.1,0c0,0,0,0,0,0c0,0,2.4-1.7,4-4.8C77.2,23.2,77.4,20.6,77.4,20.6z"/>
	<path class="st2" d="M65.7,13.4c-0.1,0.1,0.1,0.2,0.2,0.1c0.2-0.3,0.6-0.5,1-0.7c0.1,0,0-0.2-0.1-0.1C66.3,12.8,65.9,13,65.7,13.4z
		"/>
	<path class="st2" d="M65.1,12.5c-0.7,0.5-1.4,1-1.7,1.9c0,0.1,0.2,0.1,0.2,0c0.2-0.8,0.9-1.3,1.6-1.8
		C65.3,12.6,65.1,12.5,65.1,12.5z"/>
	<path class="st2" d="M65.8,12.5c-0.7,0.3-1.3,0.8-1.7,1.5c-0.1,0.1,0.1,0.2,0.2,0.1c0.4-0.6,1-1.1,1.7-1.5
		C66.1,12.6,65.9,12.5,65.8,12.5z"/>
</g>
<g>
	<path class="st3" d="M34.5,53.9c0,0-2.5-2.3-2.6-2.4c-0.1-0.1-0.1-0.1-0.1-0.2c0-0.1,0.1-0.1,0.1-0.1l1.8-0.1
		c0.2,0,0.3-0.1,0.3-0.3l0-0.4c0-0.2-0.1-0.3-0.3-0.3c0,0-1.5,0.1-1.6,0.1c-0.1,0-0.2,0-0.2,0c0-0.1,0.1-0.2,0.1-0.2
		c0.1-0.1,2.3-2.4,2.3-2.4c0.1-0.1,0.1-0.3,0-0.4l-0.3-0.3c-0.1-0.1-0.3-0.1-0.4,0l-3.2,3.3c0,0-0.3,0.3-0.4,0.5
		c-0.1,0.1-0.1,0.3,0,0.4c0.1,0.1,0.5,0.5,0.5,0.5l3.3,3c0.1,0.1,0.3,0.1,0.4,0l0.3-0.3C34.6,54.2,34.6,54,34.5,53.9z"/>
	<path class="st3" d="M66.2,53.8c0,0-2.5-2.3-2.6-2.4c-0.1-0.1-0.1-0.1-0.1-0.2c0-0.1,0.1-0.1,0.1-0.1l1.8-0.1
		c0.2,0,0.3-0.1,0.3-0.3l0-0.4c0-0.2-0.1-0.3-0.3-0.3c0,0-1.5,0.1-1.6,0.1c-0.1,0-0.2,0-0.2,0c0-0.1,0.1-0.2,0.1-0.2
		c0.1-0.1,2.3-2.4,2.3-2.4c0.1-0.1,0.1-0.3,0-0.4l-0.3-0.3c-0.1-0.1-0.3-0.1-0.4,0l-3.2,3.3c0,0-0.3,0.3-0.4,0.5
		c-0.1,0.1-0.1,0.3,0,0.4c0.1,0.1,0.5,0.5,0.5,0.5l3.3,3c0.1,0.1,0.3,0.1,0.4,0l0.3-0.3C66.3,54.1,66.3,53.9,66.2,53.8z"/>
	<path class="st3" d="M75,53.8c0,0-2.5-2.3-2.6-2.4c-0.1-0.1-0.1-0.1-0.1-0.2c0-0.1,0.1-0.1,0.1-0.1l1.8-0.1c0.2,0,0.3-0.1,0.3-0.3
		l0-0.4c0-0.2-0.1-0.3-0.3-0.3c0,0-1.5,0.1-1.6,0.1c-0.1,0-0.2,0-0.2,0c-0.1-0.1,0.1-0.2,0.1-0.2c0.1-0.1,2.3-2.4,2.3-2.4
		c0.1-0.1,0.1-0.3,0-0.4l-0.3-0.3c-0.1-0.1-0.3-0.1-0.4,0L71,50.2c0,0-0.3,0.3-0.4,0.5c-0.1,0.1-0.1,0.3,0,0.4
		c0.1,0.1,0.5,0.5,0.5,0.5l3.3,3c0.1,0.1,0.3,0.1,0.4,0l0.3-0.3C75.1,54.1,75.1,53.9,75,53.8z"/>
	<path class="st3" d="M40.2,53.8c0,0-3-2.7-3-2.8c-0.1-0.1-0.1-0.2,0-0.3c0.1-0.1,2.9-2.9,2.9-2.9c0.1-0.1,0.1-0.3,0-0.4l-0.3-0.3
		c-0.1-0.1-0.3-0.1-0.4,0l-3.1,3.1c0,0-0.3,0.3-0.5,0.5c-0.1,0.1-0.1,0.3,0,0.4c0.1,0.1,0.5,0.5,0.5,0.5l3.2,2.9
		c0.1,0.1,0.3,0.1,0.4,0l0.3-0.3C40.4,54,40.4,53.9,40.2,53.8z"/>
	<path class="st3" d="M29.9,54.2L26.7,47c-0.1-0.1-0.2-0.1-0.3,0l-0.2,0.5c0,0,0,0,0,0l-2,6.1c-0.1,0.2,0,0.3,0.3,0.2l0.6-0.2
		c0.2-0.1,0.2-0.2,0.3-0.4l1.2-3.8c0,0,0-0.1,0.1-0.1c0.1,0,0.1,0.1,0.1,0.1l2.3,5c0.1,0.1,0.2,0.2,0.4,0.1l0.3-0.2
		C29.9,54.5,30,54.3,29.9,54.2z"/>
	<path class="st3" d="M23.3,54.2l-3.3-7.1c-0.1-0.1-0.2-0.1-0.3,0l-0.2,0.5c0,0,0,0,0,0l-2,6.1c-0.1,0.2,0,0.3,0.3,0.2l0.6-0.2
		c0.2-0.1,0.2-0.2,0.3-0.4l1.2-3.8c0,0,0-0.1,0.1-0.1c0.1,0,0.1,0.1,0.1,0.1l2.3,5c0.1,0.1,0.2,0.2,0.4,0.1l0.3-0.2
		C23.3,54.5,23.4,54.3,23.3,54.2z"/>
	<path class="st3" d="M16.6,47.1L16.6,47.1l-2.8,3.1c0,0-0.1,0.1-0.2,0.1c-0.1,0,0-0.1,0-0.1l0.3-2.6c0-0.2-0.1-0.3-0.3-0.3l-0.4,0
		c-0.1,0-0.1,0-0.2,0.1c-0.1,0-0.1,0.1-0.1,0.2l-0.4,5.4c0,0.1,0,0.2,0.1,0.2c0,0,0,0,0,0c0,0,0.1,0,0.1,0c0.1-0.1,0.3-0.3,0.4-0.4
		v0l2.7-3c0,0,0.1-0.1,0.2-0.1c0.1,0,0.1,0.2,0.1,0.2l0,4.5c0,0.2,0.1,0.3,0.3,0.3l0.4,0c0.2,0,0.3-0.1,0.3-0.3l0-7.1
		C16.8,47,16.7,47,16.6,47.1z"/>
	<path class="st3" d="M50.5,47.2L50.5,47.2l-2.7,3.2c0,0-0.1,0.1-0.2,0.1c-0.1,0-0.1-0.1-0.1-0.1l0.2-2.6c0-0.2-0.1-0.3-0.3-0.3
		l-0.4,0c-0.1,0-0.1,0-0.2,0.1c-0.1,0.1-0.1,0.1-0.1,0.2l-0.2,5.5c0,0.1,0,0.2,0.1,0.2c0,0,0,0,0,0c0,0,0.1,0,0.1,0
		c0.1-0.1,0.2-0.3,0.4-0.4v0l2.5-3.1c0,0,0.1-0.1,0.2-0.1c0.1,0,0.1,0.2,0.1,0.2l0.1,4.5c0,0.2,0.1,0.3,0.3,0.3l0.4,0
		c0.2,0,0.3-0.1,0.3-0.3l-0.2-7.1C50.7,47.1,50.6,47.1,50.5,47.2z"/>
	<path class="st3" d="M80,53.9l-0.7-6.5c0-0.2-0.1-0.2-0.3-0.3c0,0-0.1,0-0.1,0l0,0l-2.1,0l0,0l-0.1,0c-0.2,0-0.3,0.1-0.3,0.3
		l-0.7,6.5c0,0.2,0.1,0.3,0.3,0.3l0.4,0c0.2,0,0.3-0.1,0.3-0.3c0,0,0.6-5.5,0.6-5.7c0-0.2,0.2-0.2,0.2-0.2l0.8,0c0,0,0.2,0,0.2,0.2
		c0,0.2,0.6,5.8,0.6,5.8c0,0.2,0.2,0.3,0.3,0.3l0.4,0C79.9,54.2,80,54,80,53.9z"/>
	<path class="st3" d="M70.7,49.1c-0.2-0.1-0.6-0.3-0.6-0.3L68,47.7c-0.3-0.1-0.5-0.3-0.7-0.4c-0.2-0.1-0.4,0-0.4,0.2l0,6.5
		c0,0.2,0.1,0.3,0.3,0.3l0.4,0c0.2,0,0.3-0.1,0.3-0.3c0,0,0-5,0-5c0-0.1,0-0.3,0.2-0.2c0.5,0.2,1,0.5,1.1,0.6c0.2,0.1,0,0.2,0,0.2
		l-0.8,0.7c-0.1,0.1-0.1,0.3,0,0.4l0.2,0.3c0.1,0.1,0.3,0.1,0.4,0l1.3-1.1c0,0,0.4-0.3,0.5-0.4c0.1-0.1,0.1-0.1,0.1-0.2
		C70.9,49.3,70.8,49.2,70.7,49.1z"/>
	<path class="st3" d="M60.8,47.6l-0.4,0c-0.2,0-0.3,0.1-0.3,0.3l0,0.5c0,0,0,0.2-0.2,0.2c-0.1,0-0.9,0-1.6,0.1
		c-0.2,0-0.2-0.2-0.1-0.2c0-0.1,0.8-1.9,0.8-1.9c0.1-0.1,0-0.3-0.2-0.4L58.4,46c-0.1-0.1-0.3,0-0.4,0.2l-0.9,2.3v0c0,0,0,0,0,0
		l-0.3,0.8l0,0c-0.1,0.2-0.1,0.3-0.1,0.4c0,0.1,0.1,0.1,0.2,0.1c0,0,2.7-0.1,2.9-0.2c0.2,0,0.2,0.2,0.2,0.2L60,54.4
		c0,0.2,0.1,0.3,0.3,0.3l0.4,0c0.2,0,0.3-0.1,0.3-0.3l0.1-6.5C61,47.7,60.9,47.6,60.8,47.6z"/>
	<path class="st3" d="M11.2,53.6l-1.8-2.8c0,0-0.1-0.1-0.1-0.2c0-0.1,0-0.2,0-0.2l1.7-3.2c0.1-0.1,0-0.3-0.1-0.4l-0.3-0.2
		c-0.1-0.1-0.3,0-0.4,0.1l-1.5,2.7c0,0,0,0.1-0.1,0.1c-0.1,0-0.1-0.1-0.1-0.1l-1.5-2.3c-0.1-0.1-0.3-0.2-0.4-0.1l-0.3,0.2
		c-0.1,0.1-0.2,0.3-0.1,0.4l1.8,2.7c0,0,0.1,0.1,0.1,0.2c0,0.1-0.1,0.2-0.1,0.2L6.4,54c-0.1,0.1,0,0.3,0.1,0.4l0.3,0.2
		c0.1,0.1,0.3,0,0.4-0.1l1.4-2.6c0,0,0-0.1,0.1-0.1c0.1,0,0.1,0.1,0.1,0.1l1.5,2.3c0.1,0.1,0.3,0.2,0.4,0.1l0.3-0.2
		C11.2,53.9,11.3,53.8,11.2,53.6z"/>
	<path class="st3" d="M91.6,53.5l-1.8-2.8c0,0-0.1-0.1-0.1-0.2c0-0.1,0-0.1,0-0.1l1.7-3.2c0.1-0.1,0-0.3-0.1-0.4L91,46.8
		c-0.1-0.1-0.3,0-0.4,0.1l-1.5,2.7c0,0,0,0.1-0.1,0.1S89,49.5,89,49.5l-1.5-2.3c-0.1-0.1-0.3-0.2-0.4-0.1l-0.3,0.2
		c-0.1,0.1-0.2,0.3-0.1,0.4l1.8,2.7c0,0,0.1,0.1,0.1,0.2c0,0.1-0.1,0.2-0.1,0.2l-1.7,3.1c-0.1,0.1,0,0.3,0.1,0.4l0.3,0.2
		c0.1,0.1,0.3,0,0.4-0.1l1.4-2.6c0,0,0-0.1,0.1-0.1c0.1,0,0.1,0.1,0.1,0.1l1.5,2.3c0.1,0.1,0.3,0.2,0.4,0.1l0.3-0.2
		C91.6,53.8,91.7,53.7,91.6,53.5z"/>
	<path class="st3" d="M5.7,54.2l-3.3-7.1c-0.1-0.1-0.2-0.1-0.3,0L2,47.6c0,0,0,0,0,0l-2,6C0,53.9,0,54,0.3,53.9L3,53.1L3.2,53
		c0.2-0.1,0.2-0.2,0.2-0.4l-0.1-0.4C3.3,52.1,3.1,52,2.9,52l-1.2,0.4c0,0-0.1,0.1-0.2,0c0-0.1,0-0.2,0-0.2s0.8-2.4,0.8-2.5
		c0-0.1,0.1-0.2,0.1-0.2c0.1,0,0.1,0.1,0.2,0.2c0,0.1,2.2,4.8,2.2,4.8c0.1,0.1,0.2,0.2,0.4,0.1l0.3-0.2C5.7,54.5,5.8,54.3,5.7,54.2z
		"/>
	<path class="st3" d="M86.3,54.1L83,47c-0.1-0.1-0.2-0.1-0.3,0l-0.2,0.5c0,0,0,0,0,0l-2,6.1c-0.1,0.2,0,0.3,0.3,0.2l2.7-0.9l0.3-0.1
		c0.2-0.1,0.2-0.2,0.2-0.4l-0.1-0.4c-0.1-0.2-0.2-0.2-0.4-0.2l-1.2,0.4c0,0-0.1,0.1-0.2,0c0-0.1,0-0.2,0-0.2s0.8-2.4,0.8-2.5
		c0-0.1,0.1-0.2,0.1-0.2c0.1,0,0.1,0.1,0.2,0.2c0,0.1,2.3,4.8,2.3,4.8c0.1,0.1,0.2,0.2,0.4,0.1l0.3-0.2
		C86.3,54.4,86.4,54.3,86.3,54.1z"/>
	<path class="st3" d="M97.7,54.1L94.4,47c-0.1-0.1-0.2-0.1-0.3,0L94,47.6c0,0,0,0,0,0l-2,6.1c-0.1,0.2,0,0.3,0.3,0.2L95,53l0.3-0.1
		c0.2-0.1,0.2-0.2,0.2-0.4l-0.1-0.4c-0.1-0.2-0.2-0.2-0.4-0.2l-1.2,0.4c0,0-0.1,0.1-0.2,0c0-0.1,0-0.2,0-0.2s0.8-2.4,0.8-2.5
		c0-0.1,0.1-0.2,0.1-0.2c0.1,0,0.1,0.1,0.2,0.2c0,0.1,2.3,4.8,2.3,4.8c0.1,0.1,0.2,0.2,0.4,0.1l0.3-0.2
		C97.7,54.4,97.8,54.3,97.7,54.1z"/>
</g>
<polygon class="st4" points="49,43 47.4,43.9 47.7,42 46.4,40.7 48.2,40.4 49,38.8 49.9,40.4 51.7,40.7 50.4,42 50.7,43.9 "/>
<polygon class="st4" points="41.4,43 39.8,43.9 40.1,42 38.8,40.7 40.6,40.4 41.4,38.8 42.3,40.4 44.1,40.7 42.8,42 43.1,43.9 "/>
<polygon class="st4" points="56.6,43 55,43.9 55.3,42 54,40.7 55.8,40.4 56.6,38.8 57.5,40.4 59.3,40.7 58,42 58.3,43.9 "/>
</svg>
