<?xml version="1.0" encoding="utf-8"?>
<!-- Generator: Adobe Illustrator 17.1.0, SVG Export Plug-In . SVG Version: 6.00 Build 0)  -->
<!DOCTYPE svg PUBLIC "-//W3C//DTD SVG 1.1//EN" "http://www.w3.org/Graphics/SVG/1.1/DTD/svg11.dtd">
<svg version="1.1" id="Слой_1" xmlns="http://www.w3.org/2000/svg"  x="0px" y="0px"
	 viewBox="290.4 0.1 379.1 559.9" enable-background="new 290.4 0.1 379.1 559.9" xml:space="preserve">
<g>
	<path fill="#e8e8e8" d="M419.8,516.7c2,1.9,1.9,3.6-0.7,4.7c-8,3.2-11,9.7-11.1,17.8c-0.2,6.5,0,13.1,0,19.7
		c-0.3-0.2-0.7-0.3-0.7-0.5c-0.5-7.9-1.6-15.9-1.3-23.8c0.2-6.1,3.5-11.2,9.3-14.3c0.8-0.5,1.5-1,2.2-1.4c-0.2-0.6-0.2-1-0.3-1.1
		c-5-5.3-5.1-11.7-3.8-18.4c2.5-11.9,5-23.7,7.5-35.6c0.2-0.8,0.4-1.5,0.5-2.3c0.5-4.7,0.3-5-4.1-6.9c-1.1-0.5-2.1-1.1-3.4-1.8
		c0.5-1.1,0.8-2,1.3-2.8c0.4-0.7,1-1.2,1.8-2.3c-1.4-0.8-2.7-1.5-3.9-2.4c-3.1-2.2-3.9-5.3-1.9-8.6c1.4-2.3,2.9-4.8,5-6.1
		c2.3-1.4,2.5-3.2,2.6-5.3c1.1-26.9,2.3-53.9,3.4-80.9c0.8-21.2,1.4-42.3,2.2-63.6c0.2-5.9,0.5-11.8,0.8-17.8
		c0.2-2.3-0.1-4.1-2.3-5.6c-2-1.3-3.5-3.3-1.5-5.9c0.4-0.5,0.3-1.5,0.1-2.1c-1.1-2.6-1.1-4.8,0.5-7.4c0.8-1.3,0.2-3.8-0.5-5.6
		c-0.9-2.3-2.4-4.4-3.9-6.9c-5.9-0.5-10.1-5-6.4-13c-9.4,0.1-14.1-5.9-17.8-13.4l-0.1,0.1c0.3,0.2,0.7,0.2,0.8,0.4
		c5,7,11.7,11.1,21.1,11c-1.6,3.5-5.1,6.5-1.9,10c1.3,1.4,3.4,2.1,5.9,3.6c-0.5-3.5-1.1-5.9-1.2-8.3c-0.2-2.5-0.1-5-0.1-7.4
		c-0.4-0.5-0.6-1-0.9-1.2c-7-4.6-8.9-11.5-9.4-19.3c-0.3-5-1.3-9.9-1.8-14.8c-0.3-2.8-0.5-5.7,2.1-6.9c-0.5-2-0.8-3.6-1.2-5.1
		c-0.2-0.8-0.5-1.7-1-2.4c-2.9-4.8-2.9-5.9,1.3-10.1c0.3-0.3,0.6-0.7,1.4-1.7c-5-11.7-10-23.5-15.4-36.3c-1.4,2.5-2.4,4.1-3,5.8
		c-5,12.9-9.9,25.8-14.7,38.7c1.2,2.1,2.9,4.4,3.8,6.8c0.3,0.8-1,2.3-1.5,3.5l0.1,0.1c0.1-5.2,0.1-5.2-4.1-9
		c4.8-13.3,9.6-26.6,14.6-40.4c-3.1-0.2-5.5,0.3-6.7-2.4c-0.8-1.9-2.2-3.6-3.4-5.6c-4.5,2-9.1,2.6-11.7,7.7c2-1.1,3.6-1.9,5.5-2.9
		c0.4,0.9,0.7,1.7,1,2.5c-2.2,0.4-4.4,1.1-6.5,1.1c-0.9,0-2.3-1.6-2.5-2.6c-0.6-3.7-0.8-7.4-1-11.1c-0.2-3.8-0.1-3.8-2.8-6.2
		c1.9-3.4,3.8-6.8,6.1-10.7c-0.1-0.2-0.8-1.2-0.8-2.3c-0.1-0.9,0.6-1.8,0.9-2.7c0.9,0.7,2.6,1.5,2.6,2c-1.2,4.9,4,7.1,4.5,11.2
		c0.1,0.6,1.1,1,1.1,1c-0.3,4.1-0.5,7.5-0.8,10.2c2.8,0.8,5.5,1,7.1,2.3c1.7,1.5,2.1,4.2,3.2,6.5c2.4-1.7,5.2-3.7,7.7-5.5
		c-0.5-3.9-5.1-5.9-3.8-10.8c3.2,2.7,7.1,3.6,7.4,8.7c2.9-0.9,5.2-1.7,7.5-2.3c0-0.4,0-0.8-0.1-1.2c-1.1-0.3-2.3-0.4-3.2-0.9
		c-1.1-0.6-2-1.7-2.9-2.5c0.9-0.9,1.7-1.9,2.6-2.6c0.4-0.3,1.1-0.2,1.7-0.4c-0.4-1.9-0.7-3.6-1.1-5.3c3.8,1.6,4.7,4.4,5.3,7.4
		c2.4,14.6,4.8,29.1,7.4,43.7c0.3,1.8,1.2,3.5,2.8,5.3c0.7-1.7,1.7-3.5,2-5.3c2-12.3,3.8-24.6,5.6-36.9c0.4-2.3,0.5-4.6,0.8-7.1
		c-5.4-0.5-8.3,2.8-10.8,6.9c1.2-0.8,2.3-1.9,3.6-2.4c1.3-0.5,2.8-0.7,4.1-0.7c0.3,0,1,2,0.8,2.3c-0.9,0.8-2.2,1.7-3.3,1.8
		c-8.3,0.7-9,0.1-9.3-8.3c-0.2-3.1-0.2-6.2-0.7-9.3c-0.3-1.7-1.4-3.3-2.3-5.2c0.5-1.4,1.1-3.4,2.2-5.3c1.1-2,2.6-3.8,4.2-6.2
		c-0.2-0.6-1.1-1.9-1.2-3.2c-0.1-0.8,0.8-1.7,1.2-2.6c1,0.5,2.3,0.9,2.8,1.7c0.5,0.8,0.1,2.1,0.3,3.2c0.2,1,0.6,2,1.1,2.9
		c1.1,1.9,2.6,3.5,3.3,5.5c0.7,1.9,1.7,2.5,3.5,2.2c-2.9,4-2.5,8.6-2.5,14c2.2-1.7,3.8-2.9,5.4-4.1c1.1,1.6,2.2,3.2,3.2,4.7
		c0.8,2.4,1.6,4.8,2.4,7.2c3.4-2.7,3.9-4.2,3.8-8c-0.1-2.6-1.9-6.1,2.6-7.4c0.4-0.2,0.8-1,0.8-1.6c0.3-2.6-0.5-5.3,2.1-7.5
		c0.6-0.5-0.5-3.5-1.3-5c-0.6-1.1-2.2-1.7-3.2-2.3c6.6-13.8,11.4-27.1,14.8-40.4c-3.2-0.5-5.8-0.9-8.7-1.4c-0.3,1.7-0.7,3.4-1,4.7
		c1.8,0.1,4-0.3,4.5,0.4c0.8,1.2,1.1,3.3,0.6,4.7c-2.3,6.6-5,13.1-7.8,20.6c0.4-4.1,0.7-7.1,1-10.1c-3.2,6.3-2.6,13.8-7.6,20.7
		c-1.3-2.6-2.3-4.1-2.8-5.7c-1.4-5.3-2.6-10.5-3.8-15.9c-1.4-6.2-2.5-12.5-3.8-19.2c-2.5,1.5-4.4,2.7-6.5,4
		c4.4,12,8.7,23.8,13.2,35.7c-4.7,2-5.4,5.6-5,9.8c0.3,2.6,2.3,3.5,4.1,3.7c0.3,1.7,0.1,3.5,0.9,4.3c2.9,2.9,2,5.8,0.7,8.8
		c0.1-3,0.7-6.2-2.6-8.3c-0.5-0.3-0.9-1.4-0.8-2c0.4-2.4-1.5-3.2-2.9-4.4c-2-6.2-1.1-9.3,4-13.3c-5.9-14.4-11.4-29-18.9-43
		c3.3,0.7,6.1,1.7,6.7,5.8c1.6-0.8,2.7-1.4,3.7-2c-1.1-1.7-2.1-2.9-3-4.3c1.4-1,2.8-2,4.4-3c-0.2-1-0.4-2.4-0.7-4.7
		c3.3,2.3,4.1,4.9,4.7,7.9c2,12.7,4.2,25.4,6.5,38.1c0.3,1.7,1.1,3.5,2.3,5.1c4.9-12.3,5.9-25.2,7.7-38.3c-3.2-0.7-5.9-1.2-8.6-1.8
		c-4.7-1.1-5-1.4-5-6.2c0-1.9,0.3-3.8,0-5.6c-0.3-1.7-1.2-3.4-2.2-5.9c1.4-2.4,3.2-5.8,5.5-9.9c0.1,0.2-0.2-0.7-0.5-1.5
		c-0.6-1.4-1-3,0.9-3.4c0.7-0.2,2.5,1.7,2.5,2.5c-0.4,5.4,4.4,8.1,5.7,12.6c-0.2,1.3-0.8,2.9-0.8,4.5c0.2,4.5-1.1,8.3-5,11.4
		c2.3-0.4,4.5-0.7,7-1.1c-1.4-2-2.9-3.5,0.5-4.7c1.1-0.5,1.8-2.1,2.9-3.4c1.9,1.8,0,5.9,5.3,5.1c-0.4,0.4-0.7,0.8-1.1,1.2
		c-0.7,0.5-1.4,0.9-2,1.5c-0.7,0.7-1.1,1.4-1.7,2.2c0.8,0.5,1.4,1.1,2.2,1.3c0.9,0.2,2,0.1,2.7-0.3c1.3-0.6,2.3-1.5,3.5-2.3
		c1.1-0.8,2.2-1.4,4.2-2.9c-0.2,1.9,0.1,3-0.3,3.9c-5.5,14.1-11.1,28.1-16.7,42.3c0.8,0.9,2,2,3,3.2c1.7,2.2,2.3,4.7,0.5,6.8
		c-1.4,1.7-1.4,3.2-1.1,5c0.2,1-0.1,2.6-0.8,3c-4.6,3-2.8,7.7-4.4,12.4c2.1-1,3.3-1.6,5-2.4c0.2,4.1,2.2,8-2.3,10.8
		c-0.7,0.5-1,1.9-1.1,2.9c-0.2,2.6-0.1,5.3-0.1,8.3c1.4-0.2,2.3-0.2,3.5-0.4c-0.1-1.2-0.2-2.3-0.3-3.8c0.8,0.4,1.4,0.5,1.6,0.8
		c0.8,2,1.7,4,2.1,6.1c1.9,10.1,3.5,20.2,5.3,30.3c0.3,1.6,1,3.1,2,4.5c4.6-11.4,4.7-23.6,6.8-35.4c0.5,0,0.8,0.1,1.3,0.1
		c-0.2,2.7-0.4,5.3-0.5,7.9c1.4,0,3.2-0.5,3.8,0.2c0.8,0.8,0.9,2.6,0.5,3.8c-2,6.2-4.3,12.3-6.6,19c-0.5-1.3-0.7-2.1-1-3
		c-1.1,3.2-2.2,6.3-3.3,9.5c-3-0.8-3.2-3.1-3.7-4.9c-2-8.7-3.8-17.3-5.6-26c-1.1-5.2-2.3-5.9-7.3-4.1c-0.1-1.3-0.2-2.5-0.2-3.7
		c-0.1-1.2,0-2.5-0.7-3.8c-0.5,1-1.1,2-1.4,3c-1.1,2.6-2,5.3-2.9,7.9c-1.3,3.8-3.3,7-2.6,11.7c0.8,5.2-0.5,10.8-1.4,16.2
		c-1.1,6.5,0.5,12.7,0.7,19c0.1,1.5,0,3,0,4.6c-0.4,0.1-0.8,0.1-1.2,0.2c-0.9-2-1.6-4.1-2.7-6c-1.1-1.9-2.6-3.5-4-5.2
		c1.8,0.8,3.6,1.5,5.9,2.5c-0.1-5,0.3-9.8-0.5-14.4c-2.9,3.8-1.4,9.1-5.4,12.1c-0.7-0.6-1.4-1.2-1.9-1.7c1.5-3,2.9-5.9,4.2-8.7
		c1.7-3.7,0-6.6-2.3-8.9c7.4-13.8,11.6-28.7,16.2-43.9c-6,2-6.9-3-9.9-5.9c-0.7,4.1-1.3,8.1-2,12.1c0.2,0.1,0.5,0.2,0.6,0.3
		c0.3-0.4,0.6-1.1,1-1.1c1.3-0.4,3-1.2,3.7-0.7c1,0.8,1.6,2.6,1.5,3.8c-0.1,1.7-0.9,3.3-1.5,4.9c-2.5,6.4-5,12.7-7.8,19.9
		c0.7-6.3,1.3-12,1.9-17.5c-3.2,9.4-3.8,19.5-8.1,28.7c-3.2-0.9-3.6-3.3-4.1-5.3c-2-8.1-3.8-16.3-5.7-24.5
		c-0.9-4.1-1.7-8.1-2.6-12.6c-2.8,0.9-5.1,1.6-7.7,2.4c4.8,13,9.5,25.7,14.1,38.4c-5,7.1-4.8,9,1.4,12.6c-0.6,0.9-1.2,1.7-1.9,2.8
		c0.9,1,1.8,2,2.8,3c-0.3,0.4-0.5,0.9-0.8,1.1c-2.3,0.9-3.4,2.6-3.5,5c-0.1,8-0.1,16.1,3.2,23.4c2.1,4.7,5.9,8.7,9.2,13.4
		c-2.4,3.3-1.9,7.1,1.4,10.6l-0.2-0.2c1.7,1.9,3.3,3.8,4.9,5.6c-1.2,0.1-2.8,0.2-4.9,0.2c0,1.4-0.5,3.5,0.1,4
		c3.2,2.1,2.3,5.6,3.2,8.5c-3.5,2.9-3.6,4.4-0.6,9c-0.8,0.8-1.6,1.7-2.6,2.9c0.9,1.1,1.6,2.5,2.6,3.1c2.6,1.3,2.9,3.2,2.8,5.8
		c-1.1,23.7-2.3,47.4-3.3,71c-0.5,9.3-0.8,18.7-1.1,28.1c-0.5,21.5-0.8,43-1.1,64.6c0,1.4,0,2.8,0,4c-5,0.9-7.3,3.3-8.3,8.1
		c-1.2,5.8,4.7,5.3,7.5,8.3c-1,1.6-2,3.3-3.2,5.1c0,0.1,0,0.2,0.2,0.3c5.8,4.8,5.9,4.8,4.5,12.9c-1.6,9.3-3.4,18.7-5,28.1
		c-0.7,4.1-1.3,8.3-1.7,12.5c-0.3,3.3,0.2,6.5,3.3,8.7C419,515.3,419.4,516.1,419.8,516.7z M425.7,157.3c0-4.5,0-8.2,0-12.5
		C421.4,150.8,421.4,150.8,425.7,157.3z"/>
	<path fill="#e8e8e8" d="M554.7,415.4c-21.7-10-43.8-17.1-64.6-28.8c-0.6,22.7-1.2,44.5-1.7,66.2c-2.2-22.4,1.6-44.7,0.2-68.2
		c23.2,10.2,45.4,19.9,67.6,29.7c-1.2,4.3-5.6,7.6-2.7,12.8c5.4,0,11.1,0,17.5,0c0.5,44.3,1.1,88.2,1.7,132.2
		c-0.4,0-0.8,0.1-1.1,0.1c0-5.9,0-11.7,0-17.6c-5.9,0-11.2,0-16.9,0c0,5.8,0,11.8,0,17.8c-0.5,0-0.9,0.1-1.4,0.1
		c-0.1-1.7-0.3-3.4-0.3-5c-0.4-39.3-0.8-78.6-1.2-117.9c0-2.3-0.1-4.7-0.2-7C551.2,424.8,550.7,419.9,554.7,415.4z M564,507.3
		c-0.5-8.6-0.9-16.2-1.3-23.8c-4.4-0.6-5.3-0.2-5.3,3.7c0,6.2,0.4,12.3,0.6,18.8C559.8,506.4,561.4,506.7,564,507.3z M563.9,534.7
		c-0.4-7.2-0.8-14.3-1.2-21.7c-1.8,0.3-3.1,0.5-3.9,0.6c0,7.3,0,14.1,0,21.1C560.7,534.7,562,534.7,563.9,534.7z M568.7,476.7
		c-5.1-2.7-10.1-0.8-15.3-0.2c0.4,1.1,1,2.2,1.5,2.2C559.5,478.6,564.4,479.4,568.7,476.7z M562.1,453.7c-1.4,0-2.6,0-4,0
		c0,3.1,0,5.9,0,9c1.4,0.2,2.5,0.4,4,0.6C562.1,460,562.1,457,562.1,453.7z M557.5,436.6c0.2,2.8,0.3,5.1,0.6,7.4
		c0.1,0.6,0.8,1.4,1.4,1.6c0.6,0.2,1.9-0.4,2-0.7c0.3-2.7,0.5-5.4,0.6-8.3C560.4,436.6,559.3,436.6,557.5,436.6z M564.4,537.1
		c-2.6-0.5-4.5-0.9-6.5-1.1c-0.5-0.1-1.3,0.7-1.7,1.3c-0.2,0.2,0.5,1.4,0.7,1.4C559.2,538.9,561.7,539.5,564.4,537.1z M555.9,507.3
		c1.4,3.5,3.7,2.2,5.9,1.1C559.8,508,557.8,507.6,555.9,507.3z"/>
	<path fill="#e8e8e8" d="M543.3,345.5c0,7.4-0.4,14.9,0.1,22.3c0.5,7.1-2.7,14.1-1.1,22c9,0,17.5,0,26.1,0c6.1,0,12.2,0.2,18.3,0.1
		c2.8-0.1,4.1,0.9,3.9,3.8c-0.2,2.3,0,4.6,0,7.1c-2.1,0.1-3.5,0.2-4.8,0.2c-9.9-0.2-19.6-0.6-29.5-0.5c-2.2,0-4.4,1.4-6.5,2.3
		c0,0.4,0,0.8,0.1,1.1c-8.3-4.7-16.5-9.5-24.7-14.2c-0.3,0.2-0.5,0.4-0.8,0.6c0.5,0.9,0.8,2.1,1.4,2.6c8.9,5.2,17.8,10.3,27,15.6
		c0.5-1.7,0.9-3.3,1.4-5.3c6.8,0.6,13.8,1.5,20.7,1.8c6.8,0.3,13.7,0.1,20.6,0.6c-13.2,0-26.3,0-39.6,0c-0.7,1.7-1.3,3.2-2.2,5.5
		c-2.5-1-5.3-1.7-7.5-3.1c-7.4-4.6-14.7-9.4-21.8-14.4c-1.1-0.8-1.2-2.9-1.4-4.5c-1.7-12.3-0.8-24.7-0.9-37
		c-0.1-5.8-3.5-8.8-9.3-8.6c-1.4-4.4-0.1-8.3,2.8-11.9c7.3-0.5,9,1,9,8.5c0,5.8,0,11.6,0,17.3c0,5.3,0,5.3,5.5,7.4
		c0.2-1.2,0.5-2.3,0.4-3.5c-0.2-6.4-0.6-12.8-0.9-19.2c-0.2-2.9-0.5-5.9,2.3-8.1c0.6-0.5,0.7-1.7,1.3-3.2c2.6,0.4,6.4-0.2,7.7,1.4
		c2.6,2.9,5,6.8,2.7,11.7c-1.4-0.1-2.9-0.2-4.4-0.2c-3.9-0.1-5.6,1.4-6.3,5.3c-0.1,0.6-0.2,1.3-0.2,1.9c0.5,12,0.8,24,1.3,36
		c0,0.6,0.3,1.2,0.4,1.8c0.3,0,0.7,0.1,1,0.1c0.2-1.8,0.5-3.5,0.5-5.3c-0.2-10.3-0.2-20.6-0.6-30.9
		C534.6,347.2,537.4,343.4,543.3,345.5z M549.5,402c1.7-2.9,4.3-3,7.1-2.9c9.5,0.3,19,0.5,28.6,0.6c1.2,0,2.4-0.2,3.8-0.2
		c0.1-1.5,0.2-2.8,0.2-4c0-1.2-0.2-2.4-0.2-3.5c-7.6-1.5-53.9-1.9-57.5-0.4C537.4,395.1,543.1,398.4,549.5,402z M538.7,346.1
		c-1.1,1.2-2.1,1.8-2.1,2.5c-0.3,10.1-0.4,20.2,0.7,30.9C539.8,375.8,540.4,354.9,538.7,346.1z"/>
	<path fill="#e8e8e8" d="M433.8,351.9c0.5,23.5,1.1,47.1,1.6,70.6c0,1.6,0.2,3.2-0.1,4.7c-0.5,2.9-2.6,4.7-5.5,4.7
		c-2.9,0-5-1.7-5.5-4.7c-0.2-0.9-0.2-1.9-0.2-2.8c0.6-26.5,1.2-53,1.8-79.5c0.4-17.1,0.8-34.3,1.3-51.4c0.2-5.1,0.4-10.3,0.8-15.4
		c0.1-1.1,1.1-2.2,1.7-3.2c0.6,1.1,1.7,2.1,1.8,3.2c0.4,5.9,0.6,11.8,0.8,17.8C432.8,314.5,433.3,333.1,433.8,351.9
		C433.7,351.9,433.8,351.9,433.8,351.9z"/>
	<path fill="#e8e8e8" d="M509.3,182.7c0.4-4.2,0.2-8.2-3.9-10.5c0.5-1.9,0.8-3.7,1.4-5.3c0.4-1.2,0.9-2.5,1.7-3.3
		c2.7-2.6,2.6-6.2-0.6-8.1c-1.1-0.7-2.5-1.1-4.1-1.7c6-13,10.8-26.3,14.4-39.6c-3.1-0.2-5.9-0.4-9.3-0.6c-0.3,1.4-0.5,2.8-1,4.9
		c1.3-0.5,2-0.8,2.8-1c2.2-0.5,3.3,0.7,3.2,2.8c-0.1,1.5-0.5,3.1-1.1,4.5c-2.2,5.8-4.5,11.6-7.1,18.4c0.4-4.2,0.7-7.4,1-10.6
		c-3.1,6.6-2.6,14.3-7.4,21.5c-1.3-2.6-2.5-4.3-2.9-6c-2.3-10-4.4-20-6.6-30c-0.2-0.8-0.4-1.5-0.8-2.8c-2.3,0.8-4.4,1.4-6.8,2.2
		c4.4,12,8.7,23.6,13.1,35.4c-4.7,2-5.3,5.6-5,9.8c0.3,2.6,2.3,3.5,5,3.8c-2.1,2.8-0.5,4.3,2.2,5.9c-1.1,0.8-1.9,1.6-2.8,1.8
		c-13.5,3.8-26.9,7.5-40.7,11.4c0.3-2.8-1.1-5.8,2.5-7.6c0.5-0.2,0.5-1.7,0.5-2.6c0.1-0.7-0.3-1.5-0.1-2.1c2.3-4.7,2.3-4.7-1.4-8.4
		c-0.1-0.1-0.2-0.2-0.5-0.8c0.5-0.8,1.2-1.7,1.9-2.7l-0.1-0.1c0.5,1.2,0.6,2.7,1.4,3.7c2.1,2.6,3.3,5,0.7,7.8
		c-0.4,0.4-0.7,1.1-0.5,1.7c0.6,2.4,0.1,4.1-2,5.7c-0.8,0.5-0.6,2.2-1.2,4.4c13.2-4.3,25.6-8.2,37.8-12.1c-0.2-3.3-0.6-5.7-2.9-8
		c-2.6-2.6-1.4-8.9,1.7-11.4c0.6-0.5,1.2-0.8,2.1-1.4c-5.9-14.7-11.7-29.3-18.9-43.3c3.6,0.7,6.1,2.3,6.9,6.4
		c2.3-0.8,4.4-1.6,6.5-2.3c0-0.3-0.1-0.7-0.1-1c-1-0.2-2-0.3-2.9-0.8c-1.1-0.5-2.8-1.2-3-2.1c-0.6-2,1.1-2.6,2.9-2.7
		c0.5-0.1,0.9-0.2,1.4-0.3c-0.2-1.5-0.5-2.9-0.8-5c3.5,1.8,4.1,4.5,4.6,7.4c2.1,12.7,4.3,25.4,6.5,38.1c0.3,1.9,1.3,3.7,2,5.6
		c0.4,0,0.8,0,1.1,0c0.9-3.4,2.1-6.7,2.6-10.2c1.4-9,2.6-17.9,3.8-26.9c0.2-1.7,1.1-4-2.2-5.3c0.1,1.4,0.4,2.3,0.2,2.9
		c-0.4,1-1.2,2.6-1.7,2.6c-3.2-0.2-6.3-0.9-9.6-1.4c1-6.9,4-13.5-2-19.1c0.7-1.5,1.4-3.3,2.3-5c1-1.7,2.2-3.3,3.6-5.4
		c-0.2-0.5-0.9-1.7-1-2.8c-0.1-0.8,0.8-1.7,1.2-2.6c0.8,0.6,2.3,1.3,2.3,1.8c-0.8,5.3,4.1,8,5.5,12.2c0.2,0.8,0.3,1.6,0.3,2.4
		c0,3.9,0.1,7.8,1.1,12.6c1.3-2.5,2-3.8,2.8-5.2c0.3,0,0.5,0.1,0.8,0.1c0.2,1.4,0.4,2.9,0.6,4.2c1.2,0.4,2.5,0.8,3.7,1.2
		c0.1,0.3,0.2,0.7,0.2,1c-1.5,0.8-3,1.5-4.9,2.5c1.9,1.8,3.8,1.4,5.6,0.2c2.3-1.4,4.4-3.1,7.7-5.4c-0.2,2.1,0.1,3.2-0.3,4.1
		c-5.5,14.1-11.1,28.1-16.6,42.1c7.5,4.7,8.2,8.1,2.4,12.6c-0.3,2.3-0.5,4.6-0.8,7.1c3.3,2.9,3.4,6.6,1.8,10.8L509.3,182.7z"/>
	<path fill="#e8e8e8" d="M419.8,516.7c-0.4-0.8-0.8-1.4-1.2-2.2c-2.5-5.7-2-11.5-0.6-17.4c2.6-11.7,5-23.4,7.4-35.1
		c0.2-0.9,0.4-2,0.8-2.6c0.6-0.8,1.7-1.9,2.3-1.8c1,0.2,2.3,1.1,2.7,2c0.7,1.5,0.8,3.3,1.1,5c2.1,12.4,4.3,24.8,6.2,37.2
		c0.5,2.9,0.8,5.9,0.4,8.8c-1.4,8.1-8.5,11.4-15.8,7.7C422,517.7,420.9,517.3,419.8,516.7z"/>
	<path fill="#e8e8e8" d="M437,221.4c0.2,2.3,0.5,4.6,0.7,6.9c0.2,1.6,0.5,3.1,0.5,4.7c0.1,1.8-0.8,3.1-2.6,3.3
		c-2,0.2-3.4-0.9-3.7-2.8c-0.3-1.8-0.2-3.8-0.1-5.6c0.7-9,1.4-18,2-27c0.2-1.7,0.2-3.4,0.3-5.6c1-0.5,2.3-1.2,3.8-1.6
		c16.9-5.3,33.8-10.8,50.7-15.8c3.9-1.2,8.3-1.1,12.4-1.4c1.4-0.1,3.1,0.6,4.4,1.3c0.6,0.3,1.1,1.7,1,2.3c-0.2,0.7-1.1,1.5-1.8,1.7
		c-1.2,0.3-2.5-0.1-3.7,0.1c-6,0.6-12,1.2-17.9,1.8c-0.2,0.5-0.5,1-0.8,1.5c1.1,0.8,2.3,1.3,3.2,2.3c1.7,1.9,2.9,4.1,1.5,6.8
		c-1.2,2.2-4.6,3.6-7.3,3.1c-3.3-0.8-3.9-2.6-2-7.7c0.5,0.7,1.1,1.1,1.4,1.7s0.5,1.4,0.8,2.2c2.5-0.8,4.1-2.3,2.9-4.5
		c-1-2-3.2-2-4.9-0.9c-2.1,1.5-4.3,3.2-5.6,5.3c-2.3,3.5-4,7.4-5.8,11.2c-3.8,8.1-8.1,11.4-20.8,8.6c-2-0.5-3.8-1.4-6.6-2.3
		c0.7,3.8,0.9,7.1,2,10.2c1,2.9,4.5,3.2,5.8,0.9c0.5-0.8,0.3-2.4-0.3-3.2c-0.7-0.9-2-1.7-3,0.1c-0.2,0.5-0.9,0.6-1.5,0.9
		c-0.8-3.5,0.5-5.5,3.2-4.4c1.9,0.8,4.4,2.3,4.7,3.8c0.3,1.8-1.1,4.5-2.5,5.9c-1.8,1.7-4.4,1.1-6.5-0.3c-1.2-0.8-2-2.2-3-3.3
		C437.5,221.3,437.3,221.4,437,221.4z M456.1,191.1c-6.8,1.8-13.7,3.5-20.9,5.4c0.5,6.1,0.9,11.7,1.4,17.1c0.2,0,0.2,0,0.4,0
		c0.5-4.8,0.9-9.6,1.4-14.5c0.8,1.1,0.7,2.2,0.8,3.3c0.1,5.2,2.2,7,7.2,5.7c1.6-0.4,3.2-1.4,4.3-2.6c3.5-4.1,6.7-8.5,10.1-12.8
		c0.6-0.8,1.1-1.6,1.7-2.4c0.8,4.5-0.5,8.6-2.8,11.8c-2.3,3.2-5.7,5.6-8.8,8.6c4.8,0.1,8.5-1.9,11.1-5.7c4.4-6.5,8.7-12.9,13.5-20.3
		C468.5,187.1,462.3,189.2,456.1,191.1L456.1,191.1z"/>
	<path fill="#e8e8e8" d="M365.6,172.9c-3.2,2.7-0.8,4.2,0.8,5.9c-3.1,0.9-4.6,0-5.3-2.9c-0.3-1.1-0.2-2.5-0.8-3.4
		c-4.1-5.8-3.5-10.6,2.8-15.1c-6.2-14.1-12.6-28.3-19-42.9c4,0.6,5.9,3,7.2,6.6c2.3-0.8,4.2-1.5,6.2-2.2c0-0.3,0-0.6,0-0.9
		c-0.9-0.3-1.7-0.8-2.6-0.8c-1.7-0.2-3.3-0.4-3.4-2.4c-0.1-2.1,1.6-2.4,3.2-2.6c0.4-0.1,0.8-0.3,1.2-0.5c-0.2-1.6-0.5-2.9-0.8-5.2
		c3.2,2,4.1,4.4,4.5,6.9c2,11.8,3.7,23.6,5.7,35.4c0.5,3,1.6,5.9,2.4,8.8c0.5,0,0.8,0,1.3,0c0.7-2.1,1.7-4.1,2-6.2
		c1.7-10.9,3.2-21.9,4.8-32.8c0.2-1.5,0.7-2.9,1.1-4.4c0.5,0.1,1,0.2,1.5,0.3c-0.3,3.2-0.6,6.5-0.9,9.8c1.8,0,4.4-0.5,4.7,0.1
		c0.8,1.4,0.9,3.6,0.4,5.2c-2.2,6.4-4.8,12.6-7.6,20c0.4-4.3,0.7-7.4,1-10.6c-3,6.5-2.6,14.1-6.8,20.3c-3-1-3.3-3.2-3.8-5.3
		c-2.2-9.9-4.3-19.7-6.5-29.6c-0.2-0.8-0.4-1.5-0.7-2.9c-2.3,0.8-4.4,1.4-6.8,2.2c4.4,12.1,8.8,23.9,13.2,35.7
		c-1.5,1.3-2.7,2.3-3.9,3.3c0.1,0.2,0.2,0.4,0.3,0.5c1.7-0.6,3.3-1.3,5-1.7c3.5-0.8,6.6,0.5,7.5,3.1c1,2.8-0.3,4.8-4.2,6.5
		c-0.4,0.2-0.8,0.5-2.1,1.2c2.3,1.1,3.9,1.9,5.8,2.9c-2,1.9-4.1,1.1-5.6,0.2c-0.8-0.5-0.5-2.6-0.8-3.8c-2.1-1.6-4.4-3.2-6.5-4.8
		C358.9,170.9,359.5,171.9,365.6,172.9z"/>
	<path fill="#e8e8e8" d="M503.4,330.9c3.5,3.2,4.4,6.6,3.8,10.8c-0.4,2.1-0.2,4.4-0.5,6.5c-0.5,3.4,0.8,5.3,4.7,5.9
		c0.1-1.6,0.2-3,0.2-4.5c0-1.7,0.5-3.5,2.3-3.5c1.3,0,3,0.9,3.8,2c0.9,1.3,1.4,3.2,1.4,4.8c0,9.8-0.2,19.6-0.3,29.4
		c0,2.3-0.2,4.7-0.3,7c-5.1-1.7-6.2-3.2-6.5-10c-1.3-0.4-2.7-0.8-3.8-1.1c-2.2,1.4-0.7,5.6-5,4.5c0-2-0.1-4.1,0-6.2
		c0.2-8.9,0.5-17.8,0.7-26.6c0.1-3.1-0.6-5.6-4.6-6.3C500.7,339.2,497.6,333.8,503.4,330.9z M516.5,349.1
		c-1.8,4.9-1.3,19.6,0.4,23.1c0.5-0.3,1.4-0.5,1.4-0.8c0.4-1.4,0.7-2.7,0.5-4.1C518.5,361.1,518.5,355,516.5,349.1z"/>
	<path fill="#e8e8e8" d="M439.2,465.5c-0.5-1.6-1.3-3.1-1.6-4.7c-0.8-3.6,0.2-5.4,3.5-7.2c0.8-0.5,1.6-0.8,2.6-1.4
		c-0.9-1.1-1.7-2-2.6-3.2c4-2.5,9-4.2,8.2-10c-0.7-5-3.5-7.8-8.7-8.9c-1.5-57.2-3-114.6-4.5-172.2c4.2-2.3,4.2-2.3,3.1-6.8l-0.2,0.1
		c3.1,3.3,2.7,5-2.2,8.3c0.5,13.7,1,27.5,1.6,41.4c0.4,9.2,1.1,18.4,1.4,27.5c1,32.6,1.9,65.1,2.8,97.6c0,0.9,0.2,1.9,0.2,3.1
		c6.5,0.2,8,5.1,9.2,10c0.8,3.5-0.2,4.7-7.1,9.7c6.7,5.5,3.8,13,4.1,19.9c-1.9-4.7-0.6-9.7-1.4-15.3c-0.8,1-1.4,1.4-1.4,2
		c0.2,4.2,0.5,8.4,0.5,12.6c0,2.8,1.4,3.5,4.1,3.1c0-6.8,0.1-13.5-0.1-20.3c0-0.8-1-1.4-1.5-2.2c0.7,0.1,1.7,0.2,3,0.2
		c0,8,0,15.8,0,23.5c-6,0.7-6.8,0.1-6.8-5.6c-0.1-3.7,0-7.4,0-11.2c-4.7,0.6-5.9,1.7-6.1,5.6c-0.1,1.4,0,2.8,0,4.2L439.2,465.5z"/>
	<path fill="#e8e8e8" d="M511,559.5c-0.8-24.1-1.5-48.2-2.2-72.3c0-0.5,0.8-0.9,0.9-1.1c-0.7-2.2-1.6-4.3-2-6.4
		c-0.5-2.3,1-3.5,3.2-3.5c1.2,0,2.6,0,3.7,0.3c10.5,3.2,21.1,6.5,31.6,9.9c0.4,0.2,0.8,0.5,1.1,0.7c-2.6,4-3.8,4.5-8.5,3.5
		c-4.7-1-9.4-2.1-14.1-3.1c-0.9-0.2-1.8-0.2-2.9,0.6c6.5,1.7,12.9,3.4,19.4,4.8c2.5,0.5,3.5,1.7,3.5,4.1c0,20.6,0,41.1,0.1,61.8
		c0,0.3-0.2,0.6-0.3,0.9c-0.2,0-0.3,0.1-0.5,0c-0.2,0-0.3-0.1-0.4-0.2c-0.2-0.3-0.2-0.6-0.2-0.9c0-21.1,0-42.1,0-63.8
		c-10.7-1.9-21.1-3.8-32.4-5.8c0.5,23.7,0.8,47.2,1.3,70.6C511.8,559.5,511.4,559.5,511,559.5z M544.9,488.8c0-0.5,0-1.1,0-1.6
		c-11.7-3-23.2-6.8-35.4-8.7c-0.1,3.2,1.6,4,3.5,4.4c9,2.1,18.1,4.3,27.2,6.2C541.7,489.5,543.4,489,544.9,488.8z"/>
	<path fill="#e8e8e8" d="M525,206.6c2.2,5.2,4.4,10.4,1.2,16.2c-0.7,1.2-0.2,2.9-0.3,4c-4.4,2.9-8.7,5.5-12.6,8.5
		c-8,5.9-11.2,14.2-11.5,23.9c-0.1,3.7,0.9,7.6-3.2,10.5c-1.1,0.8-2.8,4.4-0.3,7.1c1.1,1.3,1.2,3.8,1.3,5.8c0.1,2.8-0.1,5.6-0.5,8.3
		c-0.2,1.1-1.2,2.6-2.3,2.9c-1.7,0.7-2.3-0.9-2.8-2.3c-0.3-0.8-0.7-1.6-1.1-2.5c-2.7,0.5-2.6,2.3-2.3,3.9c0.4,1.9,0.5,3.5-0.9,5.2
		c-0.5,0.6-0.1,2.3,0.2,3.4c1.1,4.4,1.1,4.4-3.3,5.8c-0.4,0.2-0.8,0.5-1.5,0.9c1.3,1.6,2.1,3.7,3.7,4.5c2.6,1.4,2.9,3.5,2.7,5.9
		c-0.4,4.7,1.3,9.6-1.3,14.2c-0.2,0.2-0.2,0.8-0.2,0.8c2.6,2.7,1.2,6.2,1.9,9.3c0.1,0.4,0.7,0.6,1.5,1.4c0.7-3.8,1.3-7.1,1.8-10.2
		c1.5,3.1,0.9,29-1.2,42.3c-1.7-0.8-3.4-1.5-5-2.3c0-3.6-0.2-7,0.1-10.4c0.1-1.3,1-2.6,1.9-3.6c2.7-3.3,4.1-6.7,1.9-11
		c-1.7-3.2-2.6-6.5-2.4-10.3c0.2-1.7-1.1-3.4-1.7-5c1.5-8,1.4-15.9-3.5-22.9c-2.6-3.6-2.5-4.2,1.3-6.4c0.8-0.5,1.4-1.1,2.1-1.5
		c-1.7-5.3-1.7-5.3,0.5-12c0.5-1.3,1.7-2.9,2.8-3.2c2-0.6,2.9,1.1,3.4,2.9c0.2,0.5,0.5,1.1,1.6,1.8c0.3-1,0.9-2,0.8-2.9
		c-0.4-3.2-0.9-6.5-1.7-9.6c-0.7-2.9-0.5-5.7,0.4-8.7c1.5-5.2,2.5-10.5,3.8-15.7c1-3.8,1.9-7.6,3.3-11.1c3.4-8.2,9-14.1,17.8-16.6
		c1.2-0.3,2.3-0.8,2.4-0.9c1.1-2.6,2.3-4.5,2.3-6.3c-0.1-3.9-0.8-7.9-1.4-11.8c-0.1-0.6-0.6-1.2-0.9-1.8
		C524.1,206.9,524.6,206.7,525,206.6z M492.7,362.1c-2.9,3.3-2.7,5.9,0,9.1C492.7,368,492.7,365.1,492.7,362.1z"/>
	<path fill="#e8e8e8" d="M390.7,423.6c-11.7-1.6-22.6-2.3-32.9-0.4c-0.3-5.1-0.7-9.9-0.8-14.6c-0.2-18.9-0.5-37.8-0.5-56.6
		c0-4.6,0.6-5.1,5.1-5c8.3,0.2,16.5,0.5,24.7,0.7c2.8,0.1,4,1.1,4.1,3.8c0.1,7.3,0.5,14.7,0.5,22c0,14.8-0.2,29.6-0.3,44.4
		C390.7,419.5,390.7,421.1,390.7,423.6z M388.5,420.8c0-2.5,0-5,0-7.4c0.2-13.7,0.5-27.4,0.6-41.1c0-6.4-0.4-12.7-0.6-19.1
		c-0.1-2.9-1.7-4.1-4.5-4.1c-7,0.2-14,0.3-21.1,0.5c-1.4,0.1-2.7,0.5-4.1,0.7c-0.2,0.8-0.3,1.4-0.3,2c0,18.1-0.1,36.2,0.2,54.2
		c0.1,4.6,0.9,9.2,1.4,14.1C369.5,420.8,378.6,420.8,388.5,420.8z"/>
	<path fill="#e8e8e8" d="M543.5,481.8c-0.8-18.9-1.5-37.8-2.3-56.6c-0.3,0-0.6,0-0.9,0c-0.3,18.6-0.5,37.2-0.8,55.8
		c-0.5,0.1-1,0.2-1.4,0.3c-0.5-1.1-1.2-2.2-1.3-3.3c-0.8-10.5-1.4-20.8-2-31.3c-0.5-8.4-0.6-16.8-0.9-25.3c0-0.8-0.4-1.7-1.1-2.4
		c-1.4,4.7-0.8,9.6-0.8,14.4c-0.1,5,0.1,10,0.2,15c0.1,4.8,0.2,9.7,0.2,14.5c0,4.9,0,9.9,0,14.7c-0.4,0-0.7,0-1.1,0
		c0-20.1,0-40.1,0-60.2c3.6,0.1,4.5,0.7,5,4.8c0.5,4.8,0.9,9.6,1.1,14.4c0.2,5.4,0.1,10.8,0.1,16.2c0.4,0,0.7,0,1.1,0
		c0-11.2,0-22.4,0-33.8c3.1,0.2,3.6,2,3.7,4.1c0.5,8.9,1.2,17.8,1.7,26.6c0.5,9,0.6,18.1,0.9,27.2c0.1,1.5,0,3.1,0,4.6
		C544.3,481.8,543.9,481.8,543.5,481.8z"/>
	<path fill="#e8e8e8" d="M558.3,240c-2.7-6.4-8.7-9-14.6-12.1c0.4-1.3,0.7-2.4,1.1-3.5c-4.2-4.4-4.1-13.5,0.3-17.8
		c0.2,0.2,0.5,0.7,0.4,0.8c-2.5,2.6-2.2,5.8-2.4,9c-0.2,3.2,0.2,5.6,3.5,6.8c-0.3,1.4-0.6,2.5-0.8,3.6c0.2,0.2,0.3,0.6,0.5,0.8
		c15.5,6.8,21.7,19.6,22.8,35.7c0.2,2.6,0.1,4.9,2,7.4c1.4,1.7,1,4.9,0.9,7.4c-0.1,3.8-0.7,7.4-0.8,11.1c-0.1,1.4,0.8,2.7,1.1,4
		c0.4,0,0.7-0.1,1.1-0.1c0.2-0.9,0.2-2.1,0.8-2.7c0.9-1.1,2.2-2.3,3.5-2.3c0.8-0.1,1.9,1.7,2.5,2.8c0.4,0.8,0.3,2-0.1,2.7
		c-1.1,2.5-1.4,4.7,0.9,6.8c0.6,0.5,0.8,1.7,0.8,2.6c-0.3,2.3-0.1,4.1,1.7,5.9c0.6,0.6,0.5,2.6-0.1,3.6c-1.1,1.8-2.6,3.3-3.9,5
		c-0.2,0.2-0.5,0.4-0.6,0.7c-1.1,1.7-0.5,12.9,1,14.4c1.6,1.6,1.8,2.9,0.7,4.9c-0.8,1.4-1,3.2-0.9,4.9c0.2,12.6,0.6,25.3,0.9,37.9
		c0.2,5.9,0.5,6.1,6.2,5.2c0.6-0.1,1.2-0.3,2.6-0.7c-0.4-4.4-0.7-8.8-1.2-13.2c-0.1-0.8-0.8-1.5-1.4-2.3c-1.3-1.7-2.6-3.5-3.9-5.2
		c0.2-0.2,0.5-0.4,0.8-0.5c1.7,1.9,3.5,3.8,5.2,5.6c0.3-0.2,0.6-0.2,1-0.4c0,5.9,0,11.7,0,17.8c-3.5,0-6.8,0-10.6,0
		c-0.3-15.2-0.7-30.2-0.9-45.3c0-2,0.7-4.1,1.2-6.8c-4.3-3-1.7-8-2.5-12.4c-1-5.4,4.5-7.3,5.5-10.8c-0.7-2.9-0.7-5.9-2-8
		c-2.3-4-2.9-7.8-1.7-12.1c0.2-0.5-1.1-1.4-2-2.6c-1,2.6-1.6,4.4-2.6,7c-1.8-1.5-3.8-2.3-4.1-3.5c-0.9-4.9-3.4-9.8,0.2-14.8
		c0.9-1.3,0.8-4.4-0.1-5.6c-3.2-3.9-2.4-8.6-3.6-12.8c-0.5-1.9-1.4-3.7-2-5.6C562.5,248.9,560.4,244.5,558.3,240z"/>
	<path fill="#e8e8e8" d="M615.1,412.6c-3.8,3.2-7.2,6-10.5,8.9c-5.8,5-5.9,5-13.5,1.1c4.5-4.5,8.7-9.2,13.4-13.2
		c1.7-1.4,4.7-1.1,7-1.9c5.3-2,7.8,0.8,10.2,5c3.2,5.7,6.9,11.1,10.3,16.7c1.5,2.6,3.4,4.3,6.1,5.4c5,2.1,9.9,4.4,14.6,7.4
		c-3.9-1.7-7.7-3.5-11.7-4.8c-5.4-1.8-9.3-5-12-10.2c-2.4-4.7-5.6-9-8.3-13.5c-3,0.5-2.5,2.1-1.5,3.7c2.6,3.9,5.1,7.8,7.7,11.7
		c1.5,2.2,3.1,4.3,4.9,6.2c1,1.1,2.3,2.1,3.6,2.7c7.4,3.3,14.8,6.5,22.3,9.6c0.9,0.4,1.8,0.9,2.5,1.9c-1-0.3-2-0.6-2.9-1
		c-8.4-3.3-16.8-6.6-25.2-9.9c-1.8-0.7-2.9-1.6-3.8-3.5C624.1,427.6,619.6,420.4,615.1,412.6z"/>
	<path fill="#e8e8e8" d="M421.7,559.8c-3.5,0-6.9,0-10.5,0c-0.2-1.1-0.7-2.1-0.7-3.1c0.2-7,0.2-14,0.8-20.9
		c0.8-7.2,6-10.9,12.2-13.4c0.8-0.3,2.4-0.1,2.9,0.5c0.5,0.6,0.1,2,0.1,3c0,0.2-0.2,0.3-0.3,0.4c-5.6,4.7-4.9,10.9-4.5,17.2
		C421.9,548.8,421.7,554.1,421.7,559.8z"/>
	<path fill="#e8e8e8" d="M607.8,349.5c-3.8,4.3-7.4,8-10.6,12c-2.6,3.2-5.9,3.2-10.3,3.1c7.8-2.4,7.7-2.4,13.6-9
		c2.2-2.5,4.4-4.9,6.5-7.3c0.2-0.2,0.5-0.3,1.4-0.8c5.2,6,10.5,12.1,15.8,18.2c0.5-0.1,0.8-0.2,1.3-0.3c0.8-4.9,1.6-9.8,2.5-15.2
		c-2.4-0.4-4.4-0.5-6.2-1c-1.6-0.4-4-0.7-4.4-1.7c-0.5-1.4,0.7-3.2,1.1-5.2c-0.6-1.4-1.2-3.5-2.1-5.3c-0.7-1.4-1.4-3.2-2.7-4.1
		c-1.7-1.2-2-2.6-2.1-4.4c-0.2-1.7-0.5-3.4-1.1-5c-0.3-0.8-1.7-1.6-2.5-1.5c-0.8,0.2-1.7,1.2-2.1,2.1c-0.4,0.6-0.3,1.5-0.2,2.3
		c0.3,3.2-0.2,5.7-3.4,7.4c-1.1,0.6-1.4,2.6-2,4.1c-0.8,1.5-1.5,3-2.6,5.3c0.1,0.2,0.9,1.6,0.8,2.7c-0.2,1.1-1.5,2.9-2.2,2.9
		c-3.9-0.4-5.1,2.2-6.3,5c-0.3,0.6-0.8,1.2-1.3,1.7c1.1-4.6,2.3-9.2,10-7.7c-2.1-2.7-3.1-4-4.2-5.5c3.4-1.4,4-4.6,5.6-7.1
		c2.3-3.7,5.1-6.7,4.6-11.4c-0.1-0.7,1-1.5,1.7-2.2c2.4-2.5,2.3-4.5-0.1-7c0.8-2,1.7-3.8,2.5-5.7c0,2.6,1.9,4.7,0.6,7.7
		c-0.5,1.1,0.8,3,1.4,4.5c0.2,0.5,1,0.9,1.1,1.5c1.2,4.7,2.8,9.1,5.9,13c1.5,1.9,2,4.6,3.1,7.4c-0.6,0.8-1.5,2.1-3.2,4.4
		c2.7-0.3,4.3-0.5,5.8-0.8c5.8-0.9,7.4,0.1,9.2,5.6c1.2,3.8,2.3,7.7,3.3,11.7c0.9,3.5,0.3,5.9-2.9,7.4c-2.5,1.1-2.6,2.6-2.6,4.7
		c0.2,6.2,0.5,12.5,0.7,18.7c0.1,1.2-0.1,2.4-0.9,3.7c-0.2-0.8-0.6-1.4-0.6-2.2c0-6.8,0.1-13.7,0.1-20.6c0-2.3,0.4-4.2,2.3-5.9
		c2.2-1.9,2.9-4.2,2-7.1c-1-3.2-1.5-6.7-2.4-10c-0.2-1-0.8-1.8-1.3-2.7c-0.3,0.1-0.6,0.1-1,0.2c0,4,0.1,8,0,12c0,2,0.6,4.2-2.2,5
		c-2.8,0.9-5.2,0.8-7.1-1.9c-3.1-4.3-6.2-8.6-9.4-12.8C609.7,351.9,608.9,351,607.8,349.5z"/>
	<path fill="#e8e8e8" d="M299.7,517.6c-0.8-24.3-1.4-48.1-2.2-72.5c17.9,0.4,35.3-0.9,53.3,0.9c0,2.1,0,3.8,0,5.3
		c-0.2,14.7-0.5,29.3-0.6,43.9c0,6.2,0.5,12.5,0.7,18.7c0.2,2.6-0.6,4.1-3.6,4.1c-14,0-28.1,0.2-42,0.2
		C303.6,518.2,301.9,517.8,299.7,517.6z M300.4,517.7c16.3-0.5,32-1.1,47.7-1.5c0.5-23.4,0.9-46.3,1.4-69c-17,0-33.2,0-50.2,0
		C299.7,470.6,300,493.7,300.4,517.7z"/>
	<path fill="#e8e8e8" d="M297.8,350.7c16.1-1.3,31.5-2.3,47.6-1.1c0,23.9,0,47.5,0,71.6c-15.1,0.5-30.2,0.9-45.2,1.4
		c0-0.2,0-0.5,0-0.7c14.3-0.8,28.6-1.6,42.8-2.3c1.6-5.5,2.6-58.9,1.4-69.7c-14.6,0.8-29.3,1.7-44.6,2.5
		c-0.9,21.9-0.1,43.6-0.8,65.5c-0.3-0.7-0.8-1.4-0.8-2.1c0-4.4,0.2-8.7,0.2-13.1c-0.1-15.4-0.2-30.8-0.3-46.3
		C297.8,354.9,297.8,353.1,297.8,350.7z"/>
	<path fill="#e8e8e8" d="M457,161.3c0.5-1.6,0.9-3.2,1.5-4.8c3.1-8.4,6.2-16.8,9.4-25.8c-3.5-0.2-5.6-0.9-6.7-3.9
		c-1.1-2.9-4.6-2.9-7.9-0.5c-1.3,0.9-2.3,2-3.1,3.8c0.7-0.2,1.4-0.5,2.1-0.7c0.7-0.2,1.4-0.5,2.2-0.8c-0.4,2.9-0.5,3-6.2,2.3
		c-3.8-4.9,0.9-11.7-3.8-16.6c1.5-2.6,3-5.3,5.1-9c0.2-0.5-2.7-2.7,1.1-4.1c0.4,5,3,8.6,5.4,12.4c0.5,0.8-0.5,2.3-0.5,3.5
		c-0.1,1.8,0,3.7,0,5.5c5.7-0.4,6.5,0.2,8.3,6.7c2.1-1.4,4.2-2.9,6.8-4.6c0,1.5,0.2,2.5-0.1,3.2c-4.1,10.5-8.1,20.8-12.3,31.2
		c-0.3,0.8-1.1,1.4-1.6,2.2L457,161.3z"/>
	<path fill="#e8e8e8" d="M509.5,407.4c4.8,1.7,6.8,3.9,7.4,8.1c1.9,12.5,0.6,24.9,0.6,37.4c0,6.4,0,12.8,0,20.2
		c-1-1.1-1.3-1.3-1.3-1.4c-0.7-16.8-1.3-33.6-1.9-50.5c-0.1-2.3-0.1-4.7,0.1-7c0.1-2.2-0.6-3.6-3.3-4.2c0.3,10.8,0.7,21.3,0.8,31.8
		c0.1,10.5-0.2,20.8-1,31.3c-2.6-10.7-1.7-21.5-1.5-32.3C509.7,429.8,509.5,419,509.5,407.4z"/>
	<path fill="#e8e8e8" d="M366.6,443.9c7.7,0,15.4,0,23.8,0c0.2,24.7-0.3,49.3-1.2,74.3c-9.9,0-19.4,0-29.4,0
		c-1.5-24.2-0.7-48-1.3-71.8c0.3,0,0.7,0,1,0c0.7,23.2,1.3,46.3,2,70c8.9,0.3,17.4,0.7,26.6,1c1.3-24.2,0.2-48,1.7-72.2
		c-8,0-15.6,0-23.2,0C366.5,444.8,366.6,444.3,366.6,443.9z"/>
	<path fill="#e8e8e8" d="M335.7,296.6c-0.1-1.4-0.2-2.5-0.2-4.1c2-0.4,3.9-0.7,5.9-1.1c0.7,1.6,1.3,2.9,1.8,4.2c0.3,0,0.6,0,0.9,0
		c0.3-1.4,0.7-2.6,1.1-4.4c1.8-0.2,3.8-0.3,5.9-0.5c0.5,1.8,0.8,3.3,1.1,4.6c14.8,0,29.6,0,44.5,0c0.3-1.8,0.6-3.4,0.8-5
		c4.8-1.1,4.7-1.1,6.8,3.1c0.4,0.8,1.4,1.4,2.3,1.7c0.4,0.1,1.1-1.1,1.7-1.7c0.8-0.8,1.6-2.4,2.1-2.3c1.7,0.3,4.7,1.1,4.7,2
		c0.2,3.3,2.3,4.4,4.7,5.6c0.2,0.2,0.2,0.8,0.5,1.7c-3.2-1-6.4-1.2-6.8-5.3c-0.1-0.8-1.2-1.4-2.2-2.5c-0.8,1.7-1.3,2.8-1.7,3.8
		c-2.1,1.7-5.9,0.9-6.9-1.4c-0.5-1.1-1.1-2.3-2.2-4.3c-0.8,2.8-1.3,4.4-1.8,6.2c-8.1-0.3-16.1-1-24.1-0.8c-7.9,0.2-15.8,1.2-24,2
		c-0.2-2-0.3-3.6-0.5-5.6c-0.8-0.1-1.7-0.1-2.8-0.2c0,1.5,0,2.9,0,4.7c-2.1,0.4-3.9,0.7-6.1,1.1c-0.2-1.9-0.4-3.2-0.5-4.5
		c-2.6,0.2-2.6,0.2-2.9,5c-15.6,2.5-31.2,5-46.9,7.4c-0.2-0.5-0.2-0.9-0.4-1.3c1.1-0.3,2.3-0.7,3.4-0.8c12.3-2,24.6-3.8,36.9-5.7
		C332.3,297.7,333.9,297.1,335.7,296.6z"/>
	<path fill="#e8e8e8" d="M575.1,559.5c-0.8-43.6-1.5-87.3-2.3-131.7c2.6,0.8,4.3,1.4,5.9,2c5.4,2,10.8,4,16.2,6
		c1.9,0.7,3.4,1.6,3.3,3.9c-0.2,9.2-0.5,18.4-1.6,27.5c0-9.6,0-19.3,0-29.3c-7.2-2.6-14.4-5.3-22.4-8.3c0.8,43.9,1.4,86.9,2.1,130
		C575.9,559.5,575.6,559.5,575.1,559.5z"/>
	<path fill="#e8e8e8" d="M291.3,524.9c38.1-1,76.2-2.7,114.3-0.4C367.5,526.8,329.5,526.5,291.3,524.9z"/>
	<path fill="#e8e8e8" d="M363.5,449.3c7.6,0,14.7,0,22,0c0,21.1,0,41.7,0,63.1c-7.1,0-13.8,0-20.9,0
		C364.2,491.6,363.9,470.6,363.5,449.3z M384.8,450.5c-6.7,0-12.6,0-19,0c0.4,20.3-0.1,40.6,0.9,60.8c6.2,0,11.5,0,17.2,0
		C384.2,490.9,384.5,471.1,384.8,450.5z"/>
	<path fill="#e8e8e8" d="M522.4,475.1c-1.7-3.2-2.2-55.1-1.1-61.6c4,0.4,4.9,0.9,5.4,4.8c0.6,4.1,1,8.3,1.1,12.6
		c0.2,14.5,0.2,29,0.2,43.5c0,0.6-0.2,1.2-0.8,2c-0.2-0.9-0.6-1.7-0.6-2.6c-0.6-18.2-1.2-36.4-1.8-54.6c-0.1-1.4-0.6-2.6-0.9-3.9
		c-0.5,0.1-0.9,0.2-1.4,0.2C522.4,435.2,522.4,455.1,522.4,475.1z"/>
	<path fill="#e8e8e8" d="M340.8,354.1c-0.3,21.4-0.6,42.1-0.9,62.8c-11.9,0-23.9,0-36.1,0c0-16.5,0-32.4,0-48.3c0.4,0,0.8,0,1.1,0
		c0.8,15.5-1.1,31.1-0.5,47.2c11.6,0,22.9,0,34.4,0c0-19.6,0-39.5,0-59.6c-11.8-3.3-23.6,1-35.4-0.2
		C315.6,353.7,327.9,354.2,340.8,354.1z"/>
	<path fill="#e8e8e8" d="M553.7,385.3c-3.2-4.7-3.9-9.6-3.9-14.8c0-10-0.2-19.9-0.8-29.9c-0.2-3.5,1.8-5.5,3.1-8
		c0.8-1.4,4-1.2,4.8,0.4c1,1.9,1.7,4,2,6c0.4,2.1,0.1,4.4,0.1,6.6c-5.2,1.9-5.6,6.2-5.6,10.5c-0.1,8.3,0.2,16.5,0.2,24.8
		C553.7,382.3,553.7,383.8,553.7,385.3z"/>
	<path fill="#e8e8e8" d="M436.5,139c3.7,8.3,7.3,16.6,10.9,25c0.1,0.2-0.7,0.9-1.3,1.7c2-0.2,3.7-0.5,5.4-0.4
		c2.7,0.2,4.6,2.5,4.2,4.7c-0.4,2.2-2.9,4.1-5.3,3.4c-2.2-0.6-4.1-2-5.9-2.9c-0.5,2.9-0.3,3.1,3.3,4.3c0.4,1.7,0.7,3.2,1.1,5
		c-5.1,1.2-8.7,6.5-15.2,8c0.5-16.5,1.1-32.4,1.6-48.4C435.6,139.3,436,139.2,436.5,139z M445.7,162c-2.8-5.6-5.6-11.4-8.5-17.1
		c-0.3,0.1-0.5,0.2-0.8,0.3c0,12.9,0,25.9,0,39.6c3.5-1.8,6.5-3.4,9.6-5c-0.3-1.9-0.2-3.5-0.9-4.8
		C441.6,168.6,441.5,167.2,445.7,162z"/>
	<path fill="#e8e8e8" d="M597.6,395.2c0-7.5-0.2-14.4,0.1-21.1c0.2-4.2,4.1-7.5,8.1-7.5c4.8-0.1,8,2.3,8.6,7.2
		c0.6,6,0.7,12.1,0.9,18.1c0.1,2-0.8,3.3-3,3.3C607.7,395.2,603,395.2,597.6,395.2z M614.2,393.6c-0.4-7.1-0.6-13.8-1.2-20.5
		c-0.3-3.3-2.1-4.5-4.5-4.2c-2.3,0.3-3.6,2-3.7,5c-0.2,5.6-0.3,11.2-0.5,16.8c0,0.9,0.3,1.7,0.5,2.8
		C607.8,393.6,610.6,393.6,614.2,393.6z"/>
	<path fill="#e8e8e8" d="M425.8,444.1c-1.9-0.5-5.2-1.1-8.3-2.3c-1.1-0.4-2.5-1.9-2.4-2.9c0.1-1.2,1.1-2.9,2.2-3.5
		c3.2-1.9,6.8-3,10.7-2.5c4.3,0.6,8.6,1.3,12.9,2c0.8,0.2,1.7,0.2,2.2,0.8c1,1.1,2.3,2.3,2.4,3.5c0.1,0.9-1.4,2.1-2.3,3
		c-0.5,0.5-1.4,0.6-2.2,0.7C436.3,443.3,431.8,443.6,425.8,444.1z"/>
	<path fill="#e8e8e8" d="M421.4,224c-0.4-8.5-0.4-8.5,1.3-12.3c-1-0.9-2-1.8-3.1-2.7c-4.1-3.6-7.1-8-7.8-13.4
		c-0.8-5.7-1.2-11.4-1.7-17.1c-0.2-1.8,0.2-3.6,2.4-3.8c2.5-0.2,3.1,1.5,3.2,3.6c0.8,7.4,1.5,14.8,2.3,22.3c0.5,4.7,2.6,8.3,7,10.2
		c0.7,0.3,1.1,1,2,1.7c-2.9,2.5-4.6,5.2-1,8.7c0.5-1.6,1-2.9,1.4-4.2c0.2,0,0.5,0,0.7,0c0.2,0.8,0.6,1.7,0.5,2.4
		c-0.3,2-0.1,4.8-1.3,5.9c-2,2-4.2-0.5-6.2-1.4L421.4,224z"/>
	<path fill="#e8e8e8" d="M352.9,303.5c-3,0.2-5,0.3-7.4,0.5c0.4,3.9,0.7,7.5,1.1,11.9c-18.9,1.2-37.4,2.5-55.9,3.7
		c0-0.5-0.1-0.9-0.1-1.4c8.9-1,17.8-1.1,26.8-1.6c9-0.5,17.9-1.5,27-2.3c0.1-4.4-1.8-8.2-0.5-12.3c3.5,0,6.8,0,10.8,0
		c0,4.2,0,8.2,0,12.1c3.7,1.4,6.4,0.9,9.2-1.1c8.6-6,8.7-6,16.9-0.1c3.2,2.3,5.9,2.3,9.4,0.5c0.2-1.7,0.4-3.5,0.5-5.3
		c0.1,0,0.2,0,0.3,0c0,2.2,0,4.4,0,6.5c-4.4,2.3-8.3,2-12-0.8c-1.1-0.8-2.6-1.2-3.7-2c-1.8-1.2-3.4-0.9-5.2,0.1
		c-2,1.2-4.2,2-6.2,3.2c-3.3,1.8-6.8,2-11,0.8C352.9,312.2,352.9,308.2,352.9,303.5z"/>
	<path fill="#e8e8e8" d="M439.1,465.6c1.5,4.9,2.9,9.7,4.4,14.6c0.4,1.3,0.9,2.6,1.6,4.7c0.5-2.2,0.7-3.5,1-4.7
		c5.9,0.6,5.9,0.6,5.9,5.6c0.1,5.6,0.2,11.2,0.2,16.8c0,1-0.2,2-1,3c-0.2-6.8-0.5-13.6-0.8-20.5c-0.1-2-0.2-3.9-3.2-3.3
		c-0.8,3.9-1.7,7.7-0.2,11.7c1.1,2.9,1.2,6.1,2.3,9c1.7,4.7,0.1,8.5-2.8,12.1c-0.8,1-1.4,2-2.3,3.1c0.6,0.5,1,1,1.5,1.3
		c7.6,3.8,10.5,10.4,10.8,18.4c0.2,5.7,0,11.5,0,17.2c-0.4,0-0.8,0-1.2,0c-0.1-1.2-0.2-2.4-0.2-3.6c-0.4-5.1-0.5-10.3-1.1-15.3
		c-1-7.9-5-13.6-12.9-15.6c0-0.7-0.1-1.1,0.1-1.3c6.8-6.3,7.1-13.9,4.8-22.3c-2.3-8.6-4.2-17.2-6.2-25.9
		C439.4,469,439.3,467.3,439.1,465.6L439.1,465.6z"/>
	<path fill="#e8e8e8" d="M291.2,438.4c4.4-0.2,9-0.4,13.4-0.5c21.5-0.5,43-0.8,64.5-1.2c3.6-0.1,7.1-0.8,10.7-0.8
		c8.3,0.2,16.5,0.5,24.7,0.9c0.7,0,1.3,0.6,1.9,0.8c-0.2,0.5-0.2,0.6-0.2,0.7c-0.1,0.2-0.2,0.4-0.2,0.4c-1.1,0.2-2.1,0.5-3.2,0.5
		c-37.2,0-74.5,0-111.7,0C291.2,438.9,291.2,438.7,291.2,438.4z"/>
	<path fill="#e8e8e8" d="M484.8,437.1c-5.8-1.4-11-2.7-16.1-4.1c0.1-0.4,0.2-0.8,0.2-1.1c4.7,1.1,9.4,2.2,14.7,3.5
		c0.2-2,0.3-3.5,0.4-5c0.4-21.8,0.8-43.6,1.2-65.4c0.1-2.9,0.9-5.9,1.5-9.8c-6.1-3-13.1-6.5-20.8-10.3c-0.2,2-0.6,3.6-0.6,5.2
		c0.1,9.3,0.2,18.7,0.3,28.1c0,1.5-0.2,3.1-0.3,5c-0.4-0.7-0.7-0.9-0.7-1.1c-0.4-11.1-0.8-22.1-1-33.2c-0.1-1.9,0.6-3.8,1.1-6.1
		c9,4.4,17.3,8.6,26.1,12.9c-4,2.5-4.2,6.1-4.3,9.9c-0.4,21.8-0.9,43.6-1.4,65.4C485.1,432.6,484.9,434.2,484.8,437.1z"/>
	<path fill="#e8e8e8" d="M533.8,559.5c0-19,0-37.8,0-57.2c-6.5-1.4-12.3-2.6-18.6-3.8c0.5,20.8,1.1,41,1.6,61.2
		c-0.4,0.1-0.7,0.1-1.1,0.2c-0.2-0.9-0.5-1.8-0.6-2.8c-0.4-13.1-0.6-26.2-1.1-39.3c-0.2-5.3-0.7-10.5-0.9-15.8
		c-0.1-1.4,0.2-2.7,0.2-4.4c1.6,0,2.9-0.2,4.3,0c4.7,0.8,9.5,1.9,14.2,2.8c1.8,0.4,2.7,1.2,2.7,3.1c0.2,18.4,0.5,36.8,0.7,55.2
		c0,0.2-0.2,0.5-0.4,0.8C534.6,559.5,534.2,559.5,533.8,559.5z"/>
	<path fill="#e8e8e8" d="M508.9,301.8c1.5-0.3,2.9-0.7,4.4-0.8c9.5-0.8,19-2,28.4-2.2c10.2-0.2,20.5,0.6,30.8,1.4
		c4.3,0.3,5.3,1.4,4.7,6.2c-22.5-4.5-45.3-2.6-68.1-2.9C509.1,302.8,509,302.3,508.9,301.8z M527.5,301.1
		c16.6,0.9,32.4,1.8,48.4,2.6C572.3,299.6,551.4,298.5,527.5,301.1z"/>
	<path fill="#e8e8e8" d="M568.4,384.6c0-1.7,0.1-3.3,0-5c-0.2-8.6-0.5-17.1-0.9-25.6c-0.1-1.8-0.5-3.8-1.5-5.2
		c-3.8-5-2.6-9.9-0.2-14.7c0.4-0.8,1.7-1.5,2.4-1.4c0.8,0.1,2,1.1,2.1,2c0.5,2.1,0.8,4.3,0.8,6.5c0.1,11.7,0,23.3,0.2,35
		C571.4,379.3,570.8,382,568.4,384.6z"/>
	<path fill="#e8e8e8" d="M467.6,517c5.9,0.5,10.6,0.9,15.6,1.4c0.2-2,0.3-3.5,0.5-5.7c0.3,2.7,0.5,4.7,0.7,7.2
		c-5.9-0.5-11.7-1.1-17.9-1.7c-0.4-4.5-1-8.5-0.9-12.5c0.2-17.1,0.6-34.3,1-51.4c0.1-2.8,0-5.5,0-9c6.1,1.9,11.5,3.6,17.2,5.3
		c0,10.5,0,20.9,0,31.3c-0.2,0-0.5,0-0.8,0c0-9.9,0-19.9,0-30c-5.1-1.7-9.6-3.2-14.9-4.8C468.1,470.6,466,493.7,467.6,517z"/>
	<path fill="#e8e8e8" d="M468.7,365.6c4.7,1.9,8.9,3.5,13.3,5.3c0,20.3,0,40.5,0,61.4c-4.1-1.2-7.9-2.1-11.5-3.3
		c-0.8-0.2-1.4-1.5-1.7-2.4c-0.2-0.5-0.1-1.2-0.1-1.9c-0.1-17.9-0.2-35.8-0.2-53.8C468.5,369.3,468.6,367.8,468.7,365.6z
		 M470.1,368.5c-0.1,1.4-0.2,2.8-0.2,4.2c0,17,0,34,0.1,51c0,0.6-0.2,1.4,0.1,1.9c0.5,0.9,1,2.1,1.7,2.4c2.9,1,5.9,1.6,9.5,2.5
		c0-2.4,0-4.1,0-5.8c-0.2-14.7-0.3-29.3-0.5-44c-0.1-9.8-0.2-9.8-9.6-12.4C471.1,368.2,470.9,368.3,470.1,368.5z"/>
	<path fill="#e8e8e8" d="M576.8,424.2c6.7,2.9,13.3,5.7,20,8.7c-0.2,0.4-0.2,0.7-0.4,1.1c-4.4-1.4-8.8-2.9-13.2-4.3
		c-4.4-1.4-8.8-3.3-13.3-4.2c-4.7-0.9-9.5-0.9-14.2-1.3c0-0.5,0-0.8,0-1.3c4.1-0.2,8.3-0.4,12.5-0.6c0-0.2,0.1-0.3,0.1-0.5
		c-3.5-0.6-6.9-1.2-10.9-2c4.6-1.4,12.9-1.5,16.3-0.2c8,3.1,15.9,6.2,23.9,9.3c0.5,0.2,1,0.5,1.5,0.7c-0.2,0.3-0.2,0.6-0.4,0.9
		c-7.1-2.6-14.3-5-21.4-7.6C577.1,423.4,577,423.8,576.8,424.2z"/>
	<path fill="#e8e8e8" d="M413.8,145.5c-0.9-5.8-1.8-11.7-2.6-17.5c-0.5-3.4-0.9-6.8-1.1-10.2c-0.2-3.5,1.6-5.4,4.4-5.3
		c2.6,0.2,4.2,1.8,3.9,5.2c-0.6,6.8-1.6,13.5-2.4,20.4c-0.3,2.4-0.8,4.8-1.2,7.3C414.5,145.4,414.1,145.4,413.8,145.5z"/>
	<path fill="#e8e8e8" d="M401.1,516.3c3.7-0.2,7-0.5,10.3-0.8c0,0.4,0.1,0.8,0.1,1.1c-3.2,0.3-6.5,0.8-9.8,0.8
		c-0.8,0-1.8-1.4-2.3-2.3c-0.4-0.8-0.2-1.8-0.2-2.8c-0.2-21.4-0.2-42.6-0.4-64c0-1.4,0.2-2.8,0.2-4.7c3.1-0.2,5.9-0.4,8.8-0.5
		c0.1,0.3,0.1,0.7,0.2,1c-2.4,0.4-4.8,0.8-8,1.2c0.2,2.9-0.1,6,0.6,9c2.2,9.5,0.7,18.9,0.5,28.4
		C400.9,493.6,401.1,504.6,401.1,516.3z"/>
	<path fill="#e8e8e8" d="M576.8,418.1c6.8-9.3,11.4-10.9,25.2-9c-5.1,4.1-9.6,8-14.4,11.7c-0.6,0.5-2,0.3-3,0
		C582.1,420.1,579.6,419.1,576.8,418.1z"/>
	<path fill="#e8e8e8" d="M299,429.4c37.6-1.4,75.1-4.7,112.8-1.7c0,0.4,0,0.5-0.1,0.7s-0.2,0.2-0.4,0.3c-0.6,0.1-1.2,0.2-1.8,0.2
		C372.6,426.3,335.8,429.4,299,429.4z"/>
	<path fill="#e8e8e8" d="M308.3,546.6c-0.5,4.9-1.1,9-1.5,13.2c-0.2,0.1-0.5,0.1-0.8,0.2c-0.3-0.7-1-1.4-1-2c0-3.5,0.1-6.8,0.2-10.3
		c0.2-3.3,0.9-4.1,4.4-4c4.8,0.2,9.6,0.5,14.5,0.7c3.5,0.2,6.8,0.1,10.3,0.2c4.4,0.2,5.3,1,5.2,5.3c-0.1,3.5,0.4,7-2.1,10.2
		c-0.5-3.8-0.8-7.5-1.4-11.9C327,547.5,317.9,547.1,308.3,546.6z"/>
	<path fill="#e8e8e8" d="M387.4,342.2c-9.8,0-19.4,0-29.5,0c-0.2-6.8-0.3-13-0.3-19.2c0-0.9,0.8-2,1.5-2.6c3.7-2.3,7.5-4.4,11.2-6.7
		c1.8-1.1,3.5-1.1,5.2,0.2c3.3,2.3,6.7,4.5,10,6.9c0.8,0.6,1.8,1.7,1.8,2.5C387.5,329.6,387.4,335.9,387.4,342.2z M386.4,341.8
		c0-5.9,0.1-11.4-0.1-16.8c0-1.1-0.9-2.3-1.7-3c-9.6-7.1-12-7.2-22.4-1.6c-0.2,0.1-0.3,0.2-0.4,0.2c-1.6,0.7-2.4,1.7-2.3,3.6
		c0.3,5.4,0.5,10.8,0.8,16.5c7.2,0.4,14.1,0.7,20.8,1C382.7,341.9,384.4,341.8,386.4,341.8z"/>
	<path fill="#e8e8e8" d="M558.3,240c2,4.4,4.1,8.9,6.2,13.3c0.2,4.6,0.5,9.1,0.8,13.7c-0.3,0.1-0.7,0.2-1,0.2
		c-2.3-13-3.5-26.6-17.5-33.9c2.6,5.3,5.3,10.2,7.3,15.2c2,5,2.5,10.4,1.4,15.9c-1.8-12.2-4.4-24.1-13.7-33.2
		c0.2-0.3,0.5-0.6,0.7-0.9c1.7,0.6,3.7,0.8,5.1,1.8C551.3,234.5,554.8,237.3,558.3,240z"/>
	<path fill="#e8e8e8" d="M617.2,490.6c-1.6,20.6-3.1,40.4-4.7,61.4c-0.4-2-0.7-3-0.7-3.9c-0.1-16.2-0.1-32.3-0.2-48.5
		C611.7,495.8,612.7,492.9,617.2,490.6z M613.2,513.4c0.3,0,0.7,0,1,0.1c0.5-6.2,0.9-12.5,1.4-18.7c-0.5,0-1.1-0.1-1.6-0.1
		C612.4,500.9,613.2,507.2,613.2,513.4z"/>
	<path fill="#e8e8e8" d="M662.1,389.9c0-4.8,0.1-9.6-0.1-14.4c-0.1-2.3-0.3-4.7-3.1-5.7c-4.1-1.6-7.2,0.1-7.5,4.5
		c-0.4,5.3-0.6,10.6-0.7,15.9c-0.1,4,0.2,4.1,4.2,4.4c1.5,0.2,3.1,0.3,4.6,0.5c0.1,0,0.2,0.2,0.5,0.8c-3.6,0-7.1,0-10.8,0
		c-0.3-1.1-0.8-2.2-0.9-3.4c-0.5-5.7-0.8-11.5-1.2-17.2c-0.2-3.2,0.8-6,4.1-7.1c3.5-1.1,7.3-1.7,10.2,0.9c1.3,1.1,1.9,3.5,2,5.4
		c0,5.3-0.4,10.5-0.7,15.8C662.7,390,662.4,389.9,662.1,389.9z"/>
	<path fill="#e8e8e8" d="M608,487.5c-1.2,21.4-2.4,41.7-3.6,62.2c-0.1,0-0.2,0.1-0.3,0.1c-0.2-1.4-0.6-2.9-0.6-4.3
		c-0.6-16-1.2-32-1.7-48.1C601.7,493.5,602.3,489.7,608,487.5z M606,490.3c-3.5,3.8-4,16.7-1.4,31.6c0.5-6.7,1.1-12.3,1.3-18
		C606.1,499.7,606,495.3,606,490.3z"/>
	<path fill="#e8e8e8" d="M442.5,310.4c3.2,0.5,5.9,2.3,8.4,4.1c6.5,4.9,12.8,9.9,19.4,14.6c3,2.1,6.3,3.9,9.8,5.3
		c2.6,1.1,4.4,2.6,5.7,5c1.7,3.5,3.8,6.8,5.5,10.3c0.6,1.1,0.8,2.4,1.2,3.5c-0.3,0.2-0.6,0.4-0.9,0.6c-7.3-4.4-14.6-8.7-21.9-13
		c0.2-0.2,0.2-0.5,0.4-0.8c5.9,3.1,11.7,6.2,17.5,9.3c0.2-0.2,0.5-0.5,0.8-0.8c-3-4.9-4.4-10.4-10.4-13.8c-9-5.1-17.3-11.6-26-17.4
		c-3.3-2.2-6.7-4.1-10.1-6.2C442.1,311.2,442.3,310.8,442.5,310.4z"/>
	<path fill="#e8e8e8" d="M450.9,393.3c0,7.8,0,15.4,0,22.9c-5.3,1.3-6,0.7-6-4.3c0-5,0.1-9.9,0.1-14.9
		C445.1,392.3,445.6,391.9,450.9,393.3z"/>
	<path fill="#e8e8e8" d="M417.2,350c-5.9,0-11.8,0-18.2,0c0,4.7-0.1,9.4,0,14.1c0.1,3.4,0.6,6.8,0.5,10.2c-0.4,14.5-1,29-1.5,43.5
		c-0.1,1.9-0.5,4,2.4,4.4c-1.1,0-2.1,0-3.1,0c0-24.4,0-48.7,0-73.8C404.1,348.6,410.7,348.6,417.2,350z"/>
	<path fill="#e8e8e8" d="M622.8,549.7c-0.2-1-0.5-2-0.6-3.1c-0.8-15.2-1.4-30.5-2.2-45.7c-0.2-3.3,0.9-5.7,4.7-7.3
		c0.2,2,0.5,3.8,0.5,5.6c-0.5,13-1.2,26.1-1.7,39.1c-0.2,3.7,0,7.4,0,11.1C623.3,549.6,623,549.6,622.8,549.7z M624,496
		c-2.9,3.3-3.3,16.2-1.1,22.6C623.3,511.3,623.6,504.1,624,496z"/>
	<path fill="#e8e8e8" d="M402.1,352.3c3.9,0.9,6.8,1.6,9.6,2.3c0,0.2-0.1,0.3-0.1,0.5c-2.2,0-4.3,0-7.2,0c0,1.8,0.1,3.5,0,5
		c-0.5,17.3-1.1,34.5-1.4,51.8c-0.1,1.7,0.8,3.3,1.3,5.4c-0.8,0.3-2.1,0.2-2.6-1.7c-0.3-1.1-0.2-2.2-0.2-3.2
		c0.1-10.9,0.1-21.8,0.4-32.7c0.1-5,0.8-9.9,1-14.8c0.1-2.3-0.5-4.7-0.6-7C402,356.2,402.1,354.6,402.1,352.3z"/>
	<path fill="#e8e8e8" d="M367.9,152.2c-0.5-2.6-1.1-5.3-1.4-8c-0.8-4.9-1.4-9.8-2-14.7c-0.1-0.5-0.1-0.9-0.1-1.4
		c0-3.3,1.5-5.3,4-5.1c2.3,0.1,3.8,1.8,3.5,5c-0.8,8-2,16.1-3,24.1C368.5,152.2,368.2,152.2,367.9,152.2z"/>
	<path fill="#e8e8e8" d="M431.3,66.7c-1.1-8-2.2-15.9-3.2-23.8c-0.1-0.5-0.1-0.9,0-1.4c0.3-2.3,1.4-3.8,3.8-3.8c2.6,0,3.7,1.7,3.5,4
		c-0.2,4.4-0.7,8.7-1.2,12.9c-0.5,4.1-1.4,8.1-2,12.3C431.9,66.9,431.6,66.8,431.3,66.7z"/>
	<path fill="#e8e8e8" d="M478,475.8c-5.3,0.8-5.9,0.3-5.9-4.6c0-4.5,0.1-9,0.2-13.5c0.1-1.6,0.5-3.2,0.8-4.7c3.5-0.4,5,0.9,5,3.8
		C478,463.1,478,469.4,478,475.8z"/>
	<path fill="#e8e8e8" d="M347.7,535.7c-16.3,0-31.9,0-48,0c0,3.5,0,7,0,10.5c-0.3,0-0.5,0-0.8,0c0-3.8,0-7.7,0-11.5
		c16.7,0,33.2,0,49.9,0c0,8.6,0,16.5,0,24.6c-0.4,0-0.8,0-1.1,0.1C347.2,551.6,347.9,543.9,347.7,535.7z"/>
	<path fill="#e8e8e8" d="M489.1,461.3c0.3,32.6,0.6,65.2,0.9,97.8c-0.4,0-0.8,0-1.2,0c-0.4-32.6-0.8-65.3-1.1-97.9
		C488.2,461.2,488.6,461.2,489.1,461.3z"/>
	<path fill="#e8e8e8" d="M426,209.9c-0.3-0.8-0.6-1.7-1-2.6c-3.2-6.3-5.2-13-6.2-19.9c-0.1-0.5-0.2-1,0-1.4c0.5-1.1,1-2,1.5-3
		c0.9,0.5,2.2,0.7,2.7,1.4c2.9,3.9,5.3,8.2,5.6,13.2c0.2,3.8-0.5,7.5-0.7,11.4C427.2,209.3,426.6,209.6,426,209.9z M423.1,189.7
		c-0.5,0.1-1,0.2-1.4,0.2c1.1,3.8,2.1,7.6,3.2,11.4c0.3-0.1,0.7-0.2,1-0.3C426.7,196.8,425.3,193.2,423.1,189.7z"/>
	<path fill="#e8e8e8" d="M473.8,484c2.1-0.1,4,0.5,4,3.1c0.1,7.2,0,14.5,0,21.7c-3.8,0.7-4.7,0.4-4.7-2.5c-0.1-7.1,0-14.3,0.1-21.4
		C473.2,484.6,473.5,484.4,473.8,484z"/>
	<path fill="#e8e8e8" d="M451.4,386.8c-5.3-1-5.3-1.1-5.7-5.2c-0.7-5.9-1.3-11.7,0.6-18.1c1.7,0.5,3.3,0.9,5.1,1.4
		C451.4,372.2,451.4,379.3,451.4,386.8z"/>
	<path fill="#e8e8e8" d="M508.9,400c2.5,0.2,5-0.1,7.1,0.8c9.1,3.6,18.1,7.5,27.1,11.4c1.4,0.6,3.7,1,2.7,3.5
		c-0.8,2.2-2.9,2.3-4.7,1.7c-9.5-3.4-19-6.8-28.4-10.4C510,406,508.4,403.9,508.9,400z M510.5,402c1,2.9,1,2.9,3.2,4
		c10.3,5.2,27.2,10.4,30.5,9.3C540.4,411.3,514.8,401.1,510.5,402z"/>
	<path fill="#e8e8e8" d="M492.3,309.1c25-1.4,49.9-2.6,74.8-0.8c3,0.2,5.9,1.1,8.8,2.4c-0.9,0-1.7,0.1-2.6,0
		c-5.1-0.5-10.2-1.6-15.3-1.6c-20.1-0.2-40.2-0.1-60.2,0C496,309.1,494.1,309.1,492.3,309.1z"/>
	<path fill="#e8e8e8" d="M474.8,197.7c-1,1.4-2.1,2.6-2.9,4c-1.7,3.2-2.9,6.5-4.7,9.6c-1.8,3.2-4.4,5.6-8.5,5.6
		c-1.2,0-2.4,0.5-4,0.8c0,2.9,1.7,6.5-1.6,8.5c-2.6,1.7-5.4,2.8-8.6,4.4c0.2,2.8-1.1,5.4-4.9,6.9c0.6,2,0.8,4.2,1.7,6
		c1.7,3.5-0.7,5.5-2.4,7.8l0.2-0.1c-0.2-0.4-0.5-0.9-0.5-1.1c2.3-2.6,3.5-5,0.1-8c-0.8-0.7-0.2-3-0.2-5.3c1.9-1.7,4.2-4.2,3.3-7.5
		c3.5-1.4,6.6-2.3,9.4-3.7c3.5-1.9,3.1-5,1.7-8.2c0.5-0.2,0.8-0.6,1.2-0.6c7.3-0.3,11.6-4.5,14.5-10.7c1.7-3.6,3.3-7.2,5.4-11.7
		C474.4,196.1,474.5,196.9,474.8,197.7L474.8,197.7z"/>
	<path fill="#e8e8e8" d="M407.9,382.4c0-7.4,0-14.7,0-22.1c4.6-0.5,4.9-0.3,4.9,3.3c0,5.3,0,10.6-0.2,15.9
		C412.3,382.9,412,383,407.9,382.4z"/>
	<path fill="#e8e8e8" d="M560.8,416.3c3.7-3.2,6.6-5.7,9.6-8c0.8-0.5,2-0.5,3.1-0.5c2.9,0.2,5.9,0.5,8.9,0.8
		C578.2,415.4,572.9,417.3,560.8,416.3z"/>
	<path fill="#e8e8e8" d="M303.7,540.1c-0.4,6.8-0.7,12.9-1,19.1c-0.5,0-0.8-0.1-1.3-0.1c0.4-6.5,0.7-13,1.1-20
		c1.8-0.2,3.2-0.3,4.7-0.3c11.1,0.3,22.1,0.7,33.2,0.8c2.9,0.1,3.9,1.2,3.8,3.9c-0.1,5.1,0,10.2-0.8,15.5c-0.3-5.8-0.6-11.6-1-18
		C329.7,540.7,317.1,540.4,303.7,540.1z"/>
	<path fill="#e8e8e8" d="M541.3,201.1c-4.1-5.7-7.8-11.4-6.1-19c0.9-0.5,2-1,3.5-1.7c-1.6-1.1-2.9-1.8-4.3-2.8
		c-1,0.5-2.1,1.1-3.2,1.7c0.1,0.3,0.1,0.8,0.2,0.8c2.3,1.4,2.1,3.5,2,5.7c-0.1,4.3-0.2,8.3-4.1,11.6c-1.7,1.4-2,4.7-3,7
		c-0.5-3.7,0.2-6.8,3.3-9.5c3.2-2.8,2.9-10.9,0.1-14.4c-0.3-0.4-0.4-0.8-0.8-1.6c1.2-0.9,2.6-1.6,3.5-2.7c0.8-1,0.8-2.5,1.3-4
		c2.2,2.8,4.1,5.2,6.2,8c-0.3,0.4-0.7,1.1-1.4,1.7c-2,1.7-3.2,4.9-2.2,7.3c1.1,2.5,2.4,4.8,3.5,7.3
		C540.7,198.1,540.9,199.6,541.3,201.1z"/>
	<path fill="#e8e8e8" d="M497.5,164.6c-2.2-1.1-5.9-1.4-5.6-5.6c0.2-2.3,3-3.9,6.5-4.1c3.1-0.2,5.6,1.4,6.1,3.9
		c0.6,2.9-0.5,4.2-6.4,7.3c2.3,1.1,3.9,1.8,5.9,2.7c-2.1,1.8-4.2,1.1-5.7,0.2C497.6,168.6,497.8,166.5,497.5,164.6z"/>
	<path fill="#e8e8e8" d="M623.2,434.9c-7.1-2.3-13.5-4.3-20.8-6.5c4.4-4.3,8.1-8,11.8-11.6C617.3,419.3,620.5,425.8,623.2,434.9z
		 M614.3,421.3c-2.5,2.6-4.5,4.7-6.9,7.1c4.7,1.5,8.3,3.1,13.3,3.6C618.2,428,616.4,424.9,614.3,421.3z"/>
	<path fill="#e8e8e8" d="M443.1,355.8c4.2,2.2,8.4,4.3,12.7,6.5c0.4,20.4,0.8,40.9,1.1,62.2c-2.9-0.8-5.1-1.5-7.4-2.1
		c0.1-0.2,0.1-0.4,0.2-0.6c1.7,0.2,3.2,0.5,5.3,0.8c0-19.9,0-39.8,0-59.5C450.9,360.5,445.7,360.3,443.1,355.8z"/>
	<path fill="#e8e8e8" d="M503,556.7c-3.1-0.4-5-0.7-7.2-1c-0.4-7.4-0.8-14.5-1.1-21.6c-0.1-1.7,0.8-2.7,2.4-2.8
		c1.7-0.1,3.5-0.2,5,0.2c1,0.2,2.3,1.6,2.3,2.3C504.2,541.3,503.6,548.7,503,556.7z M501.9,555c0-5.9,0-11.1,0-16.3
		c0-4.8-0.1-4.9-5.9-4.6c0.4,6.8,0.7,13.5,1.1,20.4C498.6,554.7,499.8,554.7,501.9,555z"/>
	<path fill="#e8e8e8" d="M568.3,275.4c-22.4-3-44.8-2.6-67-0.5C509.8,270.3,558.9,270.6,568.3,275.4z"/>
	<path fill="#e8e8e8" d="M393.3,203.3c-0.8-0.5-1.5-1-2.3-1.4c-3.7,3.3-6.8,4-10.4,2c-4.2-2.4-4.7-6.2-3-10.9
		c-7.6,0.9-15.3,3.1-19.4-6c3.4,1.7,6.7,4,10.3,4.8c3.8,0.8,7.9,0.2,12.5,0.2c-0.5,1.1-0.8,2.3-1.3,3.5c-1.4,3.3-1,5,2.3,6.3
		c4.4,1.7,5.5,2.9,8.6-2.7c1,1.7,1.8,3,2.6,4.4L393.3,203.3z"/>
	<path fill="#e8e8e8" d="M620.1,474.5c1,0.8,1.8,1.4,3.1,2.3c-5-0.8-5.1-0.8-4.9-4.4c0.5-9.2,1.2-18.4,1.7-27.5
		c0.2-3,2.3-4.4,4.1-6.2c0.3,0.1,0.7,0.2,1,0.3C623.4,450.7,621.7,462.4,620.1,474.5z M623,443.4c-0.5-0.1-1-0.2-1.4-0.2
		c-0.3,3.5-0.6,6.9-0.9,10.4c0.3,0,0.5,0.1,0.8,0.1C622,450.2,622.6,446.8,623,443.4z"/>
	<path fill="#e8e8e8" d="M616.3,435.9c-0.2,1.8-0.4,3.6-0.7,5.4c-1.7,8.7-3.5,17.3-5,26c-0.3,2,0.8,4.3,1.3,6.4
		c-2-0.2-3.2-1.5-3-4.2c0.7-9.5,1.4-18.9,2-28.4C611.1,438.4,613.2,437,616.3,435.9z M614.5,439c-3.2,2.1-1.9,4.9-1.2,7.5
		C613.6,444.1,614,441.5,614.5,439z"/>
	<path fill="#e8e8e8" d="M325.3,387.4c2.8-0.2,5.2-0.2,8.4-0.4c0.4,8,0.7,15.8,1,23.9c-3.2,0-6.1,0-9.5,0
		C325.3,403.3,325.3,395.6,325.3,387.4z M326.9,389.7c0,6.9,0,13.2,0,20c2.2,0.2,4.2,0.3,6.6,0.5c0.1-7.5-0.7-14.3-1.9-21.3
		C329.8,389.3,328.4,389.5,326.9,389.7z"/>
	<path fill="#e8e8e8" d="M582.9,510.3c-2.7-0.5-4-1.4-4-3.5c0-7.7,0-15.5,0-23.6c1.7,0.2,2.9,0.4,4,0.5
		C582.9,492.6,582.9,501.3,582.9,510.3z M581.1,485.3c-1.1,4-1.1,19.2,0.2,22.3C582.3,500.7,582.2,488.1,581.1,485.3z"/>
	<path fill="#e8e8e8" d="M308.8,381.6c-0.5-7-0.8-13-1.1-19c-0.1-2,1.1-3.3,3.1-3.5c2.3-0.2,4.6-0.1,7.2-0.1c0,6.8,0,13.4,0,20.6
		C315.3,380.2,312.5,380.8,308.8,381.6z M317.4,378.5c-0.4-6.2-0.7-11.8-1-18c-2.5,0.4-4.4,0.7-6.8,1.1c0.5,5.9,0.8,11.7,1.3,17.8
		C313.1,379.1,314.9,378.9,317.4,378.5z"/>
	<path fill="#e8e8e8" d="M450.8,158c-0.8-7-1.6-14-2.3-21c-0.2-2,0.4-3.8,2.9-3.8c2.6,0.1,2.9,2,2.7,4c-0.7,6.9-1.5,13.8-2.3,20.7
		C451.5,157.9,451.2,158,450.8,158z"/>
	<path fill="#e8e8e8" d="M502.6,471.5c-2.3-0.8-4.7-1.4-6.9-2.4c-0.8-0.4-1.6-1.7-1.6-2.6c0.2-6.8,0.7-13.6,1.1-20.5
		c0-0.2,0.4-0.5,0.5-0.7c6.5,1.8,6.7,2.1,6.8,8.4C502.7,459.4,502.6,464.9,502.6,471.5z M500,448.5l0.2,0.2c-1.1-0.6-2.1-1.1-3.7-2
		c0,6.3-0.1,11.7,0,17.1c0.1,3.8,0.9,4.6,5.8,5.1c-0.4-5.5-0.6-10.8-1.1-16.2C501.1,451.2,500.3,450,500,448.5z"/>
	<path fill="#e8e8e8" d="M607.2,433c-0.6,5.6-1.1,11.4-1.8,17c-0.7,5.6-1.7,11.1-2.2,16.5c-0.2,1.5,1.1,3.2,1.9,5
		c-2-0.4-3.2-1.4-3.2-3.6c0-9.9-0.1-19.9,0.1-29.9c0-2.8,2.4-4.1,4.3-5.5C606.6,432.7,606.9,432.9,607.2,433z M605.5,436.6
		c-0.5-0.1-1-0.2-1.5-0.3c-2.1,4.7-0.6,9.6-0.2,14.4C604.4,446,605,441.2,605.5,436.6z"/>
	<path fill="#e8e8e8" d="M309,410.8c0-7.9,0-15.2,0-22.9c3.3-0.4,6.3-0.8,10.1-1.2c0.2,8,0.3,15.5-0.8,23.2
		C315.2,410.3,312.5,410.5,309,410.8z M309.6,409.7c3.2-0.2,5.4-0.4,7.7-0.5c0-7,0-13.4,0-20.1c-2.4,0.3-4.3,0.5-6.6,0.8
		C310.3,396.5,309.9,402.8,309.6,409.7z"/>
	<path fill="#e8e8e8" d="M464.5,534.6c6.8,0,12.4,0,18.4,0c0,8.3,0,16.2,0,24.1c-0.2,0-0.5,0-0.7,0c0-7.4,0-14.9,0-22.6
		c-5.6,0-10.5,0-15.7,0c0,7.7,0,15.3,0,23c-0.3,0-0.7,0-1,0C465.1,551,464.8,542.9,464.5,534.6z"/>
	<path fill="#e8e8e8" d="M363.3,540.5c2.9-4,6.8-5.3,11.4-4.1c2.1,0.5,4.1,1.2,6.2,2.1c3.7,1.6,5.9,4.5,6.3,8.5
		c0.5,4.4,0.5,8.7,0,13c-0.5,0-1,0-1.5,0.1c-0.2-1.1-0.4-2-0.4-3.1c-0.2-3.1-0.2-6.2-0.2-9.3c0-3.6-2-5.7-5-7.3
		c-5.6-2.9-11.3-2.7-16.9,0.1L363.3,540.5z"/>
	<path fill="#e8e8e8" d="M397.3,302.9c-1.5-0.6-2.6-1-4.6-1.7c2.3,0,3.7,0,5.7,0c0,4.5,0,8.8,0,13.5c7.7-1.7,14.4,0.5,21.1,2.2
		c0,0.3-0.1,0.7-0.1,1c-7.2-0.5-14.4-0.8-22.1-1.3C397.3,311.6,397.3,307.3,397.3,302.9z"/>
	<path fill="#e8e8e8" d="M503.1,434c-2.7-1-4.3-1.3-5.6-2.1c-0.9-0.5-2-1.7-2-2.7c0-8.3,0.2-16.7,0.3-25c6.5,0.4,7.3,1.4,7.3,7.1
		C503.1,418.6,503.1,425.9,503.1,434z M501.6,431.8c0-8.5,0-16.5,0-25c-1.1-0.4-2.5-0.8-4.6-1.4c0,8.2,0,15.6,0,23.1
		C497,431,498.9,431.2,501.6,431.8z"/>
	<path fill="#e8e8e8" d="M458.7,527.7c6.3,0.4,12.7,0.8,19,1c1.8,0.1,5,1.2,5.1-1.4c0.2-3.2-3.2-2-5.1-2.1c-7.3-0.5-14.6-0.8-22-1.5
		c0.8-0.2,1.5-0.7,2.2-0.7c7.5,0.2,15,0.5,22.4,0.8c2,0.1,3.8,0.5,4.1,2.9c0.2,1.7-0.3,3.3-2.3,3.3c-7.8-0.2-15.6-0.6-23.5-1
		C458.6,528.6,458.7,528.2,458.7,527.7z"/>
	<path fill="#e8e8e8" d="M441.9,333.9c3.5-0.6,5.8,0.6,6,3.5c0.4,4.3,0,8.7-0.2,13c0,0.5-0.6,1.1-0.9,1.5c-4.9-0.7-5-0.7-5-5
		C441.8,342.6,441.9,338.3,441.9,333.9z M444.6,336.6c-0.7,4.2-1.5,8.5,0.4,12.6C445.9,345,446.3,340.7,444.6,336.6z"/>
	<path fill="#e8e8e8" d="M502.7,513c-1.1,0.2-1.4,0.3-1.7,0.2c-7.2-0.9-7.7-1.6-7.1-8.7c0.4-3.8,0.5-7.7,0.7-11.6
		c0.2-1.8,0.4-3.6,0.6-5.4c0.9-0.1,1.4-0.2,1.8-0.1c7.2,2.2,6.5,1.2,6.3,8.8C503.2,501.9,502.9,507.3,502.7,513z M495,510.4
		c2.4,0.5,4.2,1,6.6,1.6c0-7.7,0-14.6,0-21.7c-1.7-0.5-3.3-0.8-5.3-1.3C495.9,496.2,495.5,503,495,510.4z"/>
	<path fill="#e8e8e8" d="M377.3,169.6c-0.2,2.2-0.1,4.5-0.8,6.5c-0.7,1.8-2.3,3.3-4,5.6c11.1,1.6,21.4,3.1,31.7,4.5
		c0,0.2-0.1,0.5-0.1,0.7c-2.5-0.2-5-0.5-7.4-0.7c-6.5-0.5-13-1-19.5-1.7c-1.6-0.2-3.4-0.8-4.6-1.8c-2.3-1.7-2-3.1,0.6-4.7
		c2.3-1.4,2.6-3.1,0.8-6.6C375.1,170.9,376.2,170.3,377.3,169.6L377.3,169.6z"/>
	<path fill="#e8e8e8" d="M402.4,529.8c-19.6,0-39,0-58.6,0c0-0.1,0-0.1,0-0.2c19.6-0.5,39-1,58.6-1.5
		C402.4,528.7,402.4,529.2,402.4,529.8z"/>
	<path fill="#e8e8e8" d="M603.8,479.3c9.3,2.5,18.1,6.3,27.2,9.6c-1.1,3.8-3.5,3.2-5.6,2.4c-6.6-2.1-13.2-4.3-20.7-6.7
		c4.9-0.7,8.3,1.4,12,2.5c3.8,1.1,7.5,2.3,11.4,3.5c0.2-0.4,0.3-0.8,0.5-1.2c-8.3-3.1-16.5-6.1-24.8-9.2
		C603.6,479.9,603.7,479.6,603.8,479.3z"/>
	<path fill="#e8e8e8" d="M557.2,382.9c-0.6-11-1.5-22,0-32.9c0.5,0,1.1,0,1.6,0c0,5.6,0.2,11.2-0.1,16.8
		C558.6,372.1,560.1,377.7,557.2,382.9z"/>
	<path fill="#e8e8e8" d="M335.4,322c2.9-0.2,5.6-0.4,8.7-0.5c0,6.8,0,13.1,0,19.8c-2.9,0-5.6,0-8.7,0
		C335.4,335.2,335.4,329,335.4,322z M336.7,339.9c2.3,0,4.1,0,5.9,0c0-5.6,0-11,0-16.5c-2.3,0-4.1,0-5.9,0
		C336.7,329.2,336.7,334.5,336.7,339.9z"/>
	<path fill="#e8e8e8" d="M403.8,208.2c-1.9-1.5-4.1-2.9-5.6-4.7c-2.5-2.9-4.6-6.2-6.8-9.3c0.2-0.3,0.4-0.6,0.5-0.8
		c2.7,0.3,5.4,0.5,8,1.1c1,0.2,2,1.5,2.5,2.5c1.6,2.7,2.6,5.7,4.5,8.1c1.7,2.3,4.3,4,6.5,5.9c-3.2,0.5-5.9-0.3-9.8-3
		c1.4,0.2,2.7,0.5,4,0.6c-1.8-3-3.9-5.6-5-8.6c-1.5-4.1-4.1-5.3-8.4-4.9c0.4,0.9,0.5,1.7,1,2.2C397.9,201.1,400.8,204.6,403.8,208.2
		z"/>
	<path fill="#e8e8e8" d="M407.5,503.4c-0.4-7.4-0.8-14.7-0.9-22.1c0-0.8,1.6-2,2.7-2.4c1.3-0.4,2.7,0,4.4,0.2c0.3,1.5,0.7,2.9,1,4.4
		c-0.2,0.1-0.5,0.2-0.8,0.3c-0.5-1-1-2-1.5-2.9c-2.8-0.2-3,1.7-3.1,3.6c-0.1,5-0.2,10-0.2,15c0,1.4-0.2,2.8-0.2,4.1
		C408.4,503.4,408,503.4,407.5,503.4z"/>
	<path fill="#e8e8e8" d="M414.1,472.4c-2.7,0-5.3,0-8.7,0c0-2.7,0.1-5.2,0-7.6c-0.2-2.3-0.2-4.7-0.9-6.9c-1-3.2-0.7-6.1,0.6-9.5
		c1.7,0.2,3.2,0.2,4.9,0.4c0,0.2,0,0.3,0,0.5c-1.3,0.2-2.5,0.4-4.1,0.6c0.4,7.1,0.8,14.1,1.1,21.2c2,0,3.7,0,5.8,0
		c0.2-2.3,0.4-4.6,0.6-6.8c0.2,0,0.5,0,0.7,0C414.1,466.8,414.1,469.4,414.1,472.4z"/>
	<path fill="#e8e8e8" d="M627.1,372.1c-0.5,8.4-0.8,16.5-1.3,24.4c0,0.5-0.6,0.9-0.9,1.4c-0.5-0.3-0.8-0.5-0.8-0.6
		c-0.3-6.9-0.7-13.9-0.8-20.8C623.2,374.4,623.6,372,627.1,372.1z"/>
	<path fill="#e8e8e8" d="M429.3,249.6c-0.5-0.1-1.5,0.2-2-0.2c-1.1-0.8-2.6-1.9-2.7-3.1c-0.2-0.9,1.3-2.8,2.2-2.9
		c2.5-0.5,5.2-0.6,7.7-0.2c1,0.2,2.3,1.9,2.3,2.9s-1.2,2.6-2.3,2.9C433,249.6,431.2,249.4,429.3,249.6z"/>
	<path fill="#e8e8e8" d="M589.5,510.8c-0.8-1.1-2.3-2-2.3-3.1c-0.2-7.7-0.1-15.4-0.1-23.2c3.2,0,5.3,0.4,5.3,3.4
		c-0.3,7.4-0.9,14.8-1.4,22.2C590.5,510.3,589.9,510.6,589.5,510.8z M588.8,508c2.2-6.4,2.3-19.5,0-22.5
		C588.8,493.7,588.8,500.9,588.8,508z"/>
	<path fill="#e8e8e8" d="M550.5,312.6c-18.7,0.5-37.4,1.1-56,1.7C513.1,311.3,531.8,312.2,550.5,312.6z"/>
	<path fill="#e8e8e8" d="M529.8,205.5c0.1-1.2,0-2.2,0.2-3c0.5-3.5,2.3-5.1,5-4.8c2.4,0.3,4.6,3.5,4.3,6.2c-0.2,2.6-2.3,2.6-4.1,2.6
		C533.5,206.5,531.9,205.9,529.8,205.5z"/>
	<path fill="#e8e8e8" d="M445.1,154.3c-2.5-5.3-5-10.6-7.3-15.9c-0.7-1.6-1-3.5,1.4-4.2c2.2-0.6,3.2,1.1,3.5,2.8
		c1.2,5.7,2.2,11.5,3.3,17.2C445.6,154.2,445.4,154.3,445.1,154.3z"/>
	<path fill="#e8e8e8" d="M398,341.6c0-6.4,0-12.3,0-18.1c0.3-0.2,0.6-0.5,0.8-0.5c8.7,1.1,8.3-1.2,8.3,9.1c0,3.2,0,6.5,0,10.2
		C404,342.1,401.3,341.9,398,341.6z M399.1,340.1c2.2,0.4,4.1,0.7,6.2,1.1c0-5.6,0-10.8,0-16c-2.3-0.2-4.1-0.4-6.2-0.5
		C399.1,330.1,399.1,334.9,399.1,340.1z"/>
	<path fill="#e8e8e8" d="M326.1,379.9c-0.4-6.3-0.8-12.5-1.1-18.7c0.5,0,1-0.1,1.4-0.1c0,5.9,0,11.7,0,17.5c5.6,1.4,6.6,0.8,6.8-3.9
		c0.2-4.7,0.1-9.6,0.1-14.6c-2.1,0-3.8,0-5.6,0c0-0.3,0-0.6,0-0.9c2,0,3.9,0,6.6,0c0,2.2-0.1,4.3,0,6.4c0.1,3.9,0.3,7.7,0.4,11.7
		c0.1,3.2-0.6,3.9-3.8,3.5C329.4,380.5,327.9,380.2,326.1,379.9z"/>
	<path fill="#e8e8e8" d="M499.1,380.1c-0.5-0.6-1.4-1.2-1.4-1.9c-0.8-4.1,1.2-28.6,2.4-31c0,11.1,0,21.8,0,32.6
		C499.7,379.9,499.4,380,499.1,380.1z"/>
	<path fill="#e8e8e8" d="M332,341.2c-2.5,0-4.6,0-7.2,0c0.4-6.4,0.8-12.4,1.1-18.7c2.3,0,4,0,6.1,0C332,328.8,332,334.7,332,341.2z
		 M330.8,340c0-5,0.1-9.4-0.1-13.8c-0.1-0.9-1.2-1.7-1.8-2.6c-0.7,0.9-1.9,1.7-2,2.6c-0.3,4.3-0.3,8.7-0.4,12.9c0,0.2,0.3,0.5,0.6,1
		C328.2,340,329.4,340,330.8,340z"/>
	<path fill="#e8e8e8" d="M639.2,365.6c1.8-5.6,3.5-11.4,5.6-17c0.3-0.8,2.3-1.4,3.5-1.5c2-0.2,4-0.1,6.5-0.1
		c-1.3-2.6-3.1-4.7-2.9-6.5c0.2-1.8,2.5-3.4,4.5-4.7c-1,1.9-2,3.8-3,5.8c0.6,1.3,1.4,3.1,2.6,5.6c-2.9,0.5-4.9,1-6.8,1
		c-2.4,0-3.6,0.9-4.3,3.2c-1.1,3.9-2.4,7.7-3.7,11.6c-0.3,1-0.8,1.9-1.1,2.9C639.9,365.9,639.5,365.7,639.2,365.6z"/>
	<path fill="#e8e8e8" d="M547.2,443.9c-0.6-0.7-1.7-1.3-1.7-2c-0.2-6.3-0.1-12.7-0.1-20.1c1.4,1.2,3.1,2,3.1,2.8
		c0.2,6.3,0.2,12.6,0.2,19C548.1,443.8,547.7,443.9,547.2,443.9z M546.2,432.5c0.2,0,0.4,0,0.6,0c0.2-2.3,0.2-4.7,0.4-7.1
		c-0.3,0-0.6,0-1,0C546.2,427.8,546.2,430.1,546.2,432.5z"/>
	<path fill="#e8e8e8" d="M376.2,241.3c1.7-6.1,1-12.6,5-17.9c-1.5,6.5-2.9,12.6-4.5,19.3c-11.3-3.2-22.6-5-33.2,2.1
		C353.4,236.7,364.6,238.5,376.2,241.3z"/>
	<path fill="#e8e8e8" d="M512.2,326.4c20.6,0.2,41.3-2.4,61.6,2.6C553.4,325,532.7,327.4,512.2,326.4z"/>
	<path fill="#e8e8e8" d="M470.8,442.2c4,1.3,7.9,2.6,11.9,3.8c1.1-1.4,0.9-2.3-0.7-2.9c-8-2.7-16.1-5.5-23.7-8
		c9.1,0.2,17.3,5.2,26.5,7.5c0,1.6,0,3.1,0,5.4c-5.1-1.8-9.8-3.5-14.5-5.1C470.4,442.7,470.6,442.4,470.8,442.2z"/>
	<path fill="#e8e8e8" d="M643.7,521.3c-0.8-0.8-2.2-1.7-2.3-2.5c-0.5-6.9-0.7-13.8-1-20.9c1.8,0,3,0,4.5,0c0,7.7,0,15.2,0,22.7
		C644.6,520.7,644.2,521,643.7,521.3z M642.5,518.1c2.2-4.6,2-15.9,0-18.9C642.5,505.8,642.5,511.9,642.5,518.1z"/>
	<path fill="#e8e8e8" d="M457.5,337.8c2.1,0.5,2.9,1.8,2.7,4.8c-0.5,6-0.2,12.1-0.2,18.2c0,10.5,0,20.9,0,31.4
		c-0.4-15.9-0.8-31.9-1.2-47.8C458.8,342.1,458,339.9,457.5,337.8z"/>
	<path fill="#e8e8e8" d="M549.3,482.1c-3-2.6-3.6-16.8-1.8-22.9c0.7,0.5,1.7,0.9,1.7,1.3C549.3,467.6,549.3,474.9,549.3,482.1z"/>
	<path fill="#e8e8e8" d="M574.4,380.3c-0.2-14.6-2.3-29.3,1.3-43.9c-0.3,7.3-0.8,14.6-0.8,21.8c0,7.3,0.6,14.6,0.9,21.9
		C575.3,380.3,574.9,380.3,574.4,380.3z"/>
	<path fill="#e8e8e8" d="M304.3,324.3c-1.8,0.1-3.3,0.2-4.8,0.2c0-0.3-0.1-0.7-0.1-1c2-0.2,4-0.5,6.3,0.2c0,5.6,0,11.1,0,17.1
		c-2.6,0-5,0-7.4,0c0-3.5,0-6.8,0-10c0.3,0,0.5,0,0.8,0c0,2.8,0,5.6,0,9c1.7,0.1,3.3,0.2,5.2,0.3
		C304.3,334.5,304.3,329.5,304.3,324.3z"/>
	<path fill="#e8e8e8" d="M418.1,342.5c-2.3-0.1-4.4-0.2-6.7-0.3c-0.4-6.5-0.8-12.5-1.1-18.7c2.9,0,5.1,0,7.8,0
		C418.1,329.8,418.1,335.7,418.1,342.5z M411.7,324.3c0.3,5.9,0.5,11.2,0.8,16.8c1.9-0.1,3-0.2,4.5-0.2c0-5.3,0-10.5,0-15.9
		C415.4,324.8,413.9,324.6,411.7,324.3z"/>
	<path fill="#e8e8e8" d="M536.8,232.7c4.3,10.2,3.6,20.8,3.3,31.4c-0.3,0-0.6,0.1-0.9,0.1C538.4,253.6,537.7,243.1,536.8,232.7z"/>
	<path fill="#e8e8e8" d="M409,391.2c0,3.4,0,6.5,0,9.8c-0.2,0-0.5,0-0.7,0c0-3.8,0-7.7,0-12c2,0.2,3.9,0.5,6.2,0.7
		c0,7.4,0,14.7,0,22.2c-1.1,0.2-2.3,0.4-3.5,0.5c0-0.5,0-0.8,0-0.8c1.7-0.2,2.9-0.6,2.8-2.8c-0.3-5.1-0.5-10.2-0.5-15.3
		C413.2,390.8,412,390.2,409,391.2z"/>
	<path fill="#e8e8e8" d="M317.3,341.6c-2.3,0-4.1,0-5.9,0c0-0.2-0.1-0.3-0.1-0.5c1.4-0.4,2.9-0.7,4.8-1.2c0-5,0-10.2,0-15.9
		c-1.9,0.2-3.8,0.5-6.1,0.8c0,3.4,0,6.4,0,9.5c-0.2,0-0.5,0-0.8,0c0-3.4,0-6.7,0-10c0.3-0.3,0.5-0.6,0.8-0.7c8.3-2,8.3-2,8,6.7
		C317.7,334,317.5,337.7,317.3,341.6z"/>
	<path fill="#e8e8e8" d="M562.6,290.4c-1.4-0.3-2.4-0.3-3-0.8c-1.7-1.4-2.7-8.8-1.4-10.5c0.5-0.8,1.8-1.5,2.6-1.4
		c0.7,0.1,1.7,1.4,1.7,2.2C562.8,283.3,562.6,286.7,562.6,290.4z"/>
	<path fill="#e8e8e8" d="M629.5,470.1c0-7.4,0-14.9,0-23c8.7,2.6,16.8,5.1,25.1,7.6c-0.1,0.3-0.2,0.5-0.2,0.8
		c-7.7-2.2-15.5-4.4-24.1-6.8c0,7.6,0,14.5,0,21.4C630.1,470.2,629.8,470.2,629.5,470.1z"/>
	<path fill="#e8e8e8" d="M420.3,451.7c5.9-1.9,11.8-2.8,18.5-0.1c-1.4,0.8-2.3,1.5-3.1,1.6C430.5,453.5,425.3,454.2,420.3,451.7z"/>
	<path fill="#e8e8e8" d="M622.6,278.6c-11.1,1.3-18.1,5.3-20.2,12.2c-1.1-3.2-1.7-6-2.9-8.7c-1.2-2.6-2.9-5-3.6-8
		c2.3,3.6,4.5,7.1,7.1,11.4C608.5,280.5,615.1,277.7,622.6,278.6z"/>
	<path fill="#e8e8e8" d="M547.3,286.3c0.2,2.3-1.1,3.3-3.3,3.4c-1.9,0.1-3.5-0.3-3.5-2.6c-0.1-2.5-0.2-4.9-0.1-7.4
		c0-2,1.1-3.2,3.1-3.5c2.2-0.2,3,1.4,3.2,3.2C547,281.7,547.1,284,547.3,286.3z M545,278.3c-0.5,0-1.1,0-1.6,0
		c-0.5,3.3-0.8,6.6-1.3,9.9c2.9,0.5,4.1-0.5,3.8-2.6C545.8,283.2,545.3,280.8,545,278.3z"/>
	<path fill="#e8e8e8" d="M549.8,281.8c0-0.8-0.2-1.7,0.1-2.3c0.5-0.9,1.2-2.2,1.9-2.2c1.1-0.1,2.9,0.7,3,1.4c0.7,3,1,6.2,1.1,9.3
		c0,0.8-1.4,2-2.4,2.2c-0.7,0.2-2.3-0.8-2.5-1.4c-0.8-2.2-1-4.5-1.4-6.8C549.7,281.8,549.8,281.8,549.8,281.8z M552.5,288.5
		c0.5,0,1.1,0,1.6,0c0.4-2.9,1.1-5.9-1.6-8.7C552.5,282.7,552.5,285.6,552.5,288.5z"/>
	<path fill="#e8e8e8" d="M629.1,497c0,15.1,0,30.2,0,45.3C627.5,539.2,627.6,506.8,629.1,497z"/>
	<path fill="#e8e8e8" d="M596.9,365.9c2.9-3.5,5.9-7,8.8-10.5c1.6-1.9,3.1-2,4.4,0.2c2.2,3.5,4.3,6.9,5.9,10.8
		c-2.6-3.2-5.1-6.4-8.2-10.2c-3.6,3.5-7.1,6.8-10.5,10.2C597.2,366.2,597,366.1,596.9,365.9z"/>
	<path fill="#e8e8e8" d="M450.7,339.5c5.1,1.7,5.3,1.8,5.3,6.3c0.1,3.5,0,7.1,0,11.3c-2-0.5-3.5-0.9-5.3-1.4
		C450.7,350.2,450.7,344.9,450.7,339.5z M452.9,342.3c-2.6,7.1-2,11.7,1.8,13C454,350.7,455.4,346.3,452.9,342.3z"/>
	<path fill="#e8e8e8" d="M564.5,381.5c0-10,0-19.9,0-29.9c2.6,9.9,1.8,20,1,30C565.2,381.6,564.8,381.6,564.5,381.5z"/>
	<path fill="#e8e8e8" d="M341.4,306.1c0,2,0,3.9,0,6.5c-11.7,0.5-23.5,1-35.2,1.4c0-0.2,0-0.5-0.1-0.8c11.2-0.6,22.3-1.2,33.6-1.8
		c0.2-2.2,0.5-3.8,0.6-5.4C340.8,306.1,341.1,306.1,341.4,306.1z"/>
	<path fill="#e8e8e8" d="M567.7,408.4c-2.9,2-5.7,4-9.1,6.3c-0.6-2.8-1.1-5-1.7-8c4,0.3,7.3,0.6,10.5,0.9
		C567.5,407.8,567.6,408.1,567.7,408.4z"/>
	<path fill="#e8e8e8" d="M376.1,432.9c-10.7,0.3-21.4,0.6-32.1,0.9c0-0.5,0-0.9-0.1-1.4c10.7,0,21.4,0,32,0
		C376,432.6,376.1,432.7,376.1,432.9z"/>
	<path fill="#e8e8e8" d="M579.7,478.8c-1.8-1.5-1.4-3.2-0.4-5.5c3.8,1.1,7.4,2.2,11.1,3.3c2.9,0.8,2.2,3.3,2.9,6.2
		c-5-1.1-9.7-1.2-13.7-4.1c3.8,0.7,7.7,1.4,11.4,2.1c0.2-0.4,0.2-0.8,0.4-1.2c-2.9-3.5-7.3-3.2-11.7-4.7
		C579.7,476.7,579.7,477.8,579.7,478.8z"/>
	<path fill="#e8e8e8" d="M635.7,514.1c0-3.8,0-7.7,0-11.4c0.2,0,0.5,0,0.7,0c0,5,0,10.1,0,15.1c-0.3,0.2-0.6,0.3-1,0.5
		c-0.7-0.9-2-1.8-2-2.7c0-5.7,0.2-11.5,0.5-17.2c0.1-0.7,1.2-1.4,2.1-1.7c-3,5.9-0.4,11.7-1.4,17.5
		C635.1,514.1,635.4,514.1,635.7,514.1z"/>
	<path fill="#e8e8e8" d="M524.9,236.9c-5.4,8.5-4,18.5-6.5,27.5C517.6,254.6,518.8,245.1,524.9,236.9z"/>
	<path fill="#e8e8e8" d="M459.2,497.6c0,6.7,0,13.4,0,20.5c-2.2-0.5-4.2-1-6.2-1.4c0-0.3,0.1-0.6,0.1-0.9c1.5,0.1,3,0.2,4.9,0.4
		c0-6.4,0-12.6,0-18.7C458.4,497.5,458.8,497.5,459.2,497.6z"/>
	<path fill="#e8e8e8" d="M526.9,288.8c-2.3,0.2-4.3,0.3-7.2,0.5c-0.2-3.1-0.7-5.8-0.5-8.4c0.2-2,1.4-4.4,3.5-4.1
		c1.5,0.2,3.5,2.3,3.9,3.8C527.3,283.1,526.9,285.8,526.9,288.8z M525.6,287.5c0.4-3.7,1.1-7.1-2.9-9.6c-3.3,2.8-2,6.2-2,9.6
		C522.5,287.5,524,287.5,525.6,287.5z"/>
	<path fill="#e8e8e8" d="M530.4,289.1c0.3-3.5,0.4-6.8,0.9-9.9c0.2-1,1.5-2.4,2.3-2.4c1.1,0,3.1,0.9,3.3,1.9c1,3.3,2.3,6.8,0.4,10.5
		C535.2,289.1,533.2,289.1,530.4,289.1z M533,277.3c-0.5,4-0.9,7-1.3,10.5c2-0.1,3.4-0.2,4.9-0.2C536.5,283.9,537.7,280.3,533,277.3
		z"/>
	<path fill="#e8e8e8" d="M458.3,453c0.4,0.5,1.1,0.9,1.1,1.4c1.1,10.5,1.7,21-0.3,31.4C458.9,474.9,458.6,463.9,458.3,453L458.3,453
		z"/>
	<path fill="#e8e8e8" d="M441.8,324.4c7.7,2,14,6.4,19.9,11.5c-6.8-3.5-13.6-7-20.5-10.5C441.4,325.1,441.5,324.8,441.8,324.4z"/>
	<path fill="#e8e8e8" d="M580,454.5c5,2,5.3,3.5,3.2,13.1c-3.5,0.6-4.1,0.2-4.2-3c0-0.5,0-0.9,0.1-1.4
		C579.3,460.4,579.6,457.6,580,454.5z M581.4,466.3c1.4-2.9,1.5-6,0.4-9.1C580.3,460.1,580.1,463.1,581.4,466.3z"/>
	<path fill="#e8e8e8" d="M504.8,267.1c-2.9-4.1-1-16.3,3.2-22.6C504.5,251.7,506,259.6,504.8,267.1z"/>
	<path fill="#e8e8e8" d="M580.3,437.4c1.1,1.2,2.6,2.2,2.6,3.1c0,3.2,1.2,6.8-1.1,9.9C579,448.2,578.5,444.1,580.3,437.4z"/>
	<path fill="#e8e8e8" d="M591.1,469.3c-4.6-2.5-1.1-7.4-3.1-11c2.9-0.5,4.5,0.2,4.6,2.8c0.1,2.6,0,5.3,0,7.8
		C592,469.1,591.6,469.1,591.1,469.3z"/>
	<path fill="#e8e8e8" d="M474.7,197.7c3.8,2.6,11.3,1.7,13.7-2.1c1.2-2,1.1-4.8,1.4-6.6c2.9,4.1,1.5,8.7-3.8,10.5
		c-1.9,0.7-3.9,1.2-5.9,1.4C477.7,201.1,475.4,200.8,474.7,197.7L474.7,197.7z"/>
	<path fill="#e8e8e8" d="M472.8,361.2c-4.7-0.5-5.3-2.9-3.1-11.1C474,350.4,475.1,354.2,472.8,361.2z M471.8,351.7c-0.3,0-0.7,0-1,0
		c-1,2.6-1.5,5.3,1,7.8C471.8,356.9,471.8,354.4,471.8,351.7z"/>
	<path fill="#e8e8e8" d="M480.9,366.3c-3.7-2.6-3.9-3.5-2.7-10.8C481.4,356.2,482.1,359,480.9,366.3z"/>
	<path fill="#e8e8e8" d="M595.6,559c0-10,0-20,0-29.9c1,9.9,0.8,19.9,1.2,29.9C596.3,559,595.9,559,595.6,559z"/>
	<path fill="#e8e8e8" d="M508.2,266.1c-1.3-9.9-0.1-19.1,6-27.4C509.1,247.2,508.4,256.6,508.2,266.1z"/>
	<path fill="#e8e8e8" d="M504.9,290.2c-1.3-5.2-1.1-7.7,0.9-11.2c2.9,1.3,3,2,2.6,7.9C508.2,289.1,507.9,290.6,504.9,290.2z
		 M507.1,281.4c-0.5,0-0.8-0.1-1.3-0.1c0,2.3,0,4.5,0,6.7c0.3,0,0.7,0,1,0C507,285.8,507,283.6,507.1,281.4z"/>
	<path fill="#e8e8e8" d="M638.3,371.4c2.6,2.4,3,5.9,1.4,18.1C639.1,383.4,638.7,377.1,638.3,371.4z"/>
	<path fill="#e8e8e8" d="M604.1,404.1c9.1-0.8,18.2-1.5,27.3-2.3c0,0.4,0.1,0.8,0.1,1.1c-9.1,0.6-18.2,1.2-27.4,1.8
		C604.1,404.6,604.1,404.4,604.1,404.1z"/>
	<path fill="#e8e8e8" d="M649.5,281.4c7.4,2.8,14.4,6.8,20,12.9C662.8,289.9,656.1,285.6,649.5,281.4z"/>
	<path fill="#e8e8e8" d="M458.7,428.7c0.2-3.2,0.3-5.6,0.5-8.3c1.5,2.7,1.5,4.1,0,9.8c-3.5-0.9-7.1-1.8-10.7-2.8
		c0.1-0.4,0.2-0.8,0.2-1.1C451.8,427,454.9,427.8,458.7,428.7z"/>
	<path fill="#e8e8e8" d="M483.7,255.1c0.5-0.2,1.1-0.5,2.6-1c-1.1,1.6-1.8,2.6-2.7,3.8c-1.6-2.8-2.6-5.5-4.3-7.5c-2-2.4-5-1.5-8-0.5
		c-0.2-1.3-0.2-2.1-0.3-3c2.8,0.6,5.7,0.6,7.7,2C480.7,250.1,481.9,252.7,483.7,255.1z"/>
	<path fill="#e8e8e8" d="M592.2,451.4c-4.4-0.6-4.7-1.5-3.8-9.6C592.9,442.4,593.2,443.2,592.2,451.4z M590.8,443.7
		c-0.5,0-1,0.1-1.5,0.1c0.2,1.9,0.5,3.7,0.7,5.6c0.3-0.1,0.5-0.1,0.8-0.2C590.8,447.4,590.8,445.5,590.8,443.7z"/>
	<path fill="#e8e8e8" d="M566.5,280.3c0.6,3.8,2.5,7.6,0,11.4C563.7,287.9,565.6,284.1,566.5,280.3z"/>
	<path fill="#e8e8e8" d="M511.6,289.2c-0.2-2.6-0.6-5-0.6-7.3c0-1.7,0.6-3.6,2.9-3.6c2.3-0.1,2,2,2.1,3.4c0.2,1.2,0.3,2.5,0.3,3.7
		C516.2,288.6,515.8,289,511.6,289.2z M513.8,279.3c-2.3,4.1-2.1,5.8,0.8,8.7C515.4,284.9,515.1,282.4,513.8,279.3z"/>
	<path fill="#e8e8e8" d="M499.5,397.6c-2.2,1.7-3.9,2.9-6,4.4c-0.4-3.6,0.6-4.6,6.2-6.7c1.4,1.7,2.7,3.6,4.1,5.5
		c-0.2,0.2-0.5,0.4-0.8,0.6C501.9,400.2,500.7,398.9,499.5,397.6z"/>
	<path fill="#e8e8e8" d="M536.4,209.9c0.1,3.5,0.2,6.9,0.1,10.5c0,0.3-1.6,0.5-2.5,0.8c-0.4-2.7-1-5.4-1.1-8.1c0-1.2,1-2.4,1.6-3.6
		C535.1,209.5,535.7,209.6,536.4,209.9z M535.2,212.7c-0.5,0.1-0.8,0.1-1.3,0.2c0.3,1.9,0.5,3.8,0.8,5.6c0.3-0.1,0.5-0.1,0.8-0.2
		C535.5,216.5,535.3,214.6,535.2,212.7z"/>
	<path fill="#e8e8e8" d="M434.8,253.3c-2.5,3-5.3,2.7-8,2.2c-0.5-0.1-1.4-1.1-1.3-1.6c0-0.5,0.8-1.4,1.4-1.5
		C429.4,252.2,432,251.5,434.8,253.3z"/>
	<path fill="#e8e8e8" d="M410.7,454.7c-0.8,4.6,2,9.4,0.4,15C408.7,466.4,408.7,461.2,410.7,454.7z"/>
	<path fill="#e8e8e8" d="M595.2,523.5c0-4.9,0-9.8,0-15.5C596.6,511.9,596.6,519.8,595.2,523.5z"/>
	<path fill="#e8e8e8" d="M634.2,453.6c4.4,1.7,4.5,2.3,2.9,9.8C632.8,462.7,632.1,460.9,634.2,453.6z M635.3,455.3
		c-0.5,2.6-1.4,4.8,0.9,7.2C636.9,459.7,637.8,457.6,635.3,455.3z"/>
	<path fill="#e8e8e8" d="M638,473.6c-0.3,2-0.5,3.2-0.7,4.5c-4.4-1.1-4.6-1.7-3.8-10.5c1,0.2,2,0.2,3.8,0.5c-4,2.3-2.3,5.3-2.3,9
		C636.2,475.7,636.9,474.9,638,473.6z"/>
	<path fill="#e8e8e8" d="M616.8,481.4c-4.4-1.4-8.8-2.8-13.2-4.1c-2.2-0.7-2.2-0.5-3.8,2.2c0-1.4,0-2.6,0-4.7
		c6.1,2,11.7,3.9,17.4,5.8C616.9,480.9,616.9,481.2,616.8,481.4z"/>
	<path fill="#e8e8e8" d="M434.2,238.2c-3.9,2.9-3.9,2.9-8.5,1C428,236.5,429.6,236.3,434.2,238.2z"/>
	<path fill="#e8e8e8" d="M383.8,199c-1.7-2.3-1.7-4,0.2-5c0.8-0.5,2.3-0.3,2.9,0.2c0.6,0.5,1.1,2.4,0.8,2.7
		C386.5,197.8,385,198.4,383.8,199z"/>
	<path fill="#e8e8e8" d="M643.9,481.2c-2.8-1.7-2.8-1.7-1.1-12c0.8,0.5,1.3,0.9,1.8,1.3C641.6,473.9,643,477.6,643.9,481.2z"/>
	<path fill="#e8e8e8" d="M328.9,374.2c0-3.5,0-6.8,0-10.3c0.4,0,0.7,0,1.1,0c0.8,3.4,0.6,6.8-0.1,10.2
		C329.6,374.1,329.2,374.1,328.9,374.2z"/>
	<path fill="#e8e8e8" d="M538.9,220.5c0-3.2,0-6.5,0-9.8c2,3.2,0.9,6.5,1.2,9.7C539.6,220.4,539.2,220.4,538.9,220.5z"/>
	<path fill="#e8e8e8" d="M629.2,441.2c4.4,1.7,8.7,3.2,13.2,4.9c-0.1,0.3-0.2,0.5-0.3,0.8c-4.4-1.6-8.8-3.2-13.2-4.7
		C629,441.8,629.1,441.5,629.2,441.2z"/>
	<path fill="#e8e8e8" d="M596.6,485.2c0,4.3,0,8.6,0,12.9c-0.2,0-0.5,0-0.7,0c0-4.3,0-8.6,0-12.9
		C596.1,485.2,596.3,485.2,596.6,485.2z"/>
	<path fill="#e8e8e8" d="M385.2,224.8c-1.5,3.6-3,7.2-4.5,10.8C380.6,231.3,382.1,227.6,385.2,224.8z"/>
	<path fill="#e8e8e8" d="M529.5,219.5c0-2.9,0-5.9,0-8.8c0.2,0,0.5,0,0.8,0c0,2.9,0,5.9,0,8.8C530.1,219.5,529.8,219.5,529.5,219.5z
		"/>
	<path fill="#e8e8e8" d="M458.4,452.9c-0.2-2-0.4-4-0.5-6.2c-1.3-0.4-2.6-0.8-4.4-1.4c2.1,0,3.6,0,5.1,0
		C460,448.1,459.5,450.6,458.4,452.9L458.4,452.9z"/>
	<path fill="#e8e8e8" d="M483.9,494.1c0,4.6,0,9.3,0,13.8c-0.2,0-0.3,0-0.4,0c0-4.6,0-9.3,0-13.8
		C483.7,494.1,483.8,494.1,483.9,494.1z"/>
	<path fill="#e8e8e8" d="M571.8,258.8c4.7-0.7,7.7,2,10.8,4.3C579.2,261.7,575.8,260.3,571.8,258.8z"/>
	<path fill="#e8e8e8" d="M516.4,235.9c2.6-2,5.3-4,8-6c0.2,0.2,0.4,0.5,0.5,0.8c-2.6,2-5.2,4.1-7.8,6
		C516.8,236.4,516.6,236.1,516.4,235.9z"/>
	<path fill="#e8e8e8" d="M509.4,182.8c-1.1,0.8-2.1,2.3-3.2,2.5c-2.4,0.3-4.8-0.2-7.3-0.7c3.5-0.6,7.4,1.5,10.3-2L509.4,182.8z"/>
	<path fill="#e8e8e8" d="M360.8,549.5c0,3.2,0,6.4,0,9.6c-0.8-3.2-2-6.4,0-9.5V549.5z"/>
	<path fill="#e8e8e8" d="M464.8,399.8c0-3.5,0-7,0-10.5c0.1,0,0.2,0,0.3,0c0,3.5,0,7,0,10.5C465.1,399.8,464.9,399.8,464.8,399.8z"
		/>
	<path fill="#e8e8e8" d="M460,411.4c0-3.4,0-6.7,0-10.1c0.2,0,0.2,0,0.4,0c0,3.4,0,6.8,0,10.1C460.2,411.4,460.1,411.4,460,411.4z"
		/>
	<path fill="#e8e8e8" d="M313.4,329c0,2.5,0,5,0,7.4c-0.4,0-0.8,0-1.1-0.1c0.2-2.5,0.4-5,0.5-7.4C313,329,313.1,329,313.4,329z"/>
	<path fill="#e8e8e8" d="M605.4,468.2c0-1.6,0-3.1,0-4.7c0.2,0,0.5,0,0.8,0c0,1.6,0,3.2,0,4.7C605.8,468.2,605.6,468.2,605.4,468.2z
		"/>
	<path fill="#e8e8e8" d="M401.3,304.3c0.4,2.5,0.8,5,1.3,7.7C399.8,309.7,401.4,306.7,401.3,304.3z"/>
	<path fill="#e8e8e8" d="M562.6,313.5c-2.3,0-4.6,0-6.8,0c0-0.1,0-0.2,0-0.2c2.3,0,4.4,0,6.7,0C562.4,313.4,562.5,313.4,562.6,313.5
		z"/>
	<path fill="#e8e8e8" d="M454.5,177.8c-1.7-0.5-3.3-1-5-1.4c0.1-0.4,0.2-0.8,0.3-1.2c1.7,0.5,3.2,0.8,4.9,1.3
		C454.6,176.9,454.5,177.4,454.5,177.8z"/>
	<path fill="#e8e8e8" d="M547.9,416.6c0.4,2,0.6,2.9,0.8,4.2c-1.4-0.3-2.4-0.6-4.5-1.1C545.6,418.6,546.3,417.9,547.9,416.6z"/>
	<path fill="#e8e8e8" d="M512.8,249.6c-0.4,2.5-0.8,5-1.1,7.5c-0.2,0-0.4-0.1-0.6-0.1c0.4-2.5,0.8-5,1.1-7.5
		C512.5,249.6,512.6,249.6,512.8,249.6z"/>
	<path fill="#e8e8e8" d="M501.2,289.3c0-2.6,0-5.2,0-7.7c0.2,0,0.3,0,0.5,0c0,2.6,0,5.2,0,7.7C501.6,289.3,501.4,289.3,501.2,289.3z
		"/>
	<path fill="#e8e8e8" d="M360.8,549.5c0-3.2-1.4-6.8,2.5-9l-0.1-0.1C361.6,543.3,360.7,546.2,360.8,549.5L360.8,549.5z"/>
	<path fill="#e8e8e8" d="M436.3,90.3c-1.7,1.9-3.8,0.9-5.3,0.2c-0.8-0.4-0.7-2.5-1.1-4.6c-1.9-1.1-6.1-1.3-5.4-5.8
		c0.3-2.2,3.4-3.8,6.8-3.8c2.9,0,5.2,1.5,5.8,3.8c0.8,2.9-0.5,4.5-5.5,6.8C431.4,90.4,435.3,88.1,436.3,90.3z"/>
	<path fill="#e8e8e8" d="M456,191.3c0.5,0.4,1.7,1,1.6,1c-2.6,5.1-5,10.4-10.7,12.9c-1.1,0.5-2.6,0.5-4.4,0.8
		c2.6-4.1,4.6-7.7,7.2-10.8c1.6-1.8,4.3-2.7,6.5-4.1L456,191.3z M445.7,203.6c4.6-1.3,7.1-4.5,9-9.2
		C448.7,195.3,449,201.2,445.7,203.6z"/>
	<path fill="#e8e8e8" d="M385.6,417.2c-7.7,0-15,0-22.7,0c-0.1-0.1-0.4-0.7-0.4-1.2c-0.6-13.2-1.4-26.5-1.7-39.7
		c-0.2-6.8,0.5-13.7,0.8-20.5c0.2-2.8,1.7-3.8,4.3-3.7c5.1,0.1,10.3-0.1,15.4,0.1c3.9,0.1,4.1,0.3,4.1,4.4
		c0.1,12.9,0.1,25.9,0.2,38.8C385.6,402.3,385.6,409.3,385.6,417.2z M364,353.5c0.2,21.1-0.3,41.7,0.9,62.4c6.8,0,12.8,0,19,0
		c0-20.8,0-41.4,0-62.4C377.2,353.5,371,353.5,364,353.5z"/>
	<path fill="#e8e8e8" d="M343.3,511.6c0-19.9,0-39.5,0-59.5c-11.7,0-23.2,0-35.4,0c3.1-1.8,25.9-2.3,36.1-1c0.2,1,0.5,2,0.5,3
		c0.3,18.1,0.6,36.2,0.9,54.2c0.1,5.8,0,5.8-5.6,5.8c-11.5-0.1-23,0-35.2,0c-0.6-4.4-1.8-8.6-1.7-12.9c0.2-16.3,0.6-32.7,1-49
		c0.3,0,0.6,0,0.9,0c0,20,0,40,0,60.8C317.9,512.5,330.4,512,343.3,511.6z"/>
	<path fill="#e8e8e8" d="M313,486.1c0,6.2,0,12,0.1,17.6c0,0.3,1.4,0.5,2.6,1.1c-1.8,0.5-3.1,0.8-4.9,1.2
		c-0.2-6.5-0.4-12.5-0.5-18.5c-0.1-1.8,0.8-3,2.8-3c2.4,0,4.9,0,7.5,0c0,5.1,0,9.5,0,13.9c-0.3,0-0.5,0-0.8,0
		c-0.2-3.8-0.5-7.7-0.7-12C316.9,486.3,315.1,486.1,313,486.1z"/>
	<path fill="#e8e8e8" d="M336.9,476.5c-2.8,0.2-5.2,0.4-8.2,0.5c0-7.4,0-14.2,0-21.4c2.9,0,5.6,0,9,0
		C338,462.7,337.2,469.4,336.9,476.5z M330.7,457.9c0,6,0,11.7,0,17.6c2,0,3.5,0,5,0c0-6.2,0-12,0-18.1
		C333.7,457.6,332.2,457.8,330.7,457.9z"/>
	<path fill="#e8e8e8" d="M330.7,502.7c2.9,0.9,4.4,0.5,4.6-2.6c0.2-4.4,0.7-8.9,1.1-13.7c-2.8,0.2-5,0.4-7.1,0.5
		c2.3-2.9,4.8-1.6,7.5-1.4c0,6.4,0,12.6,0,19.2c-2.6,0.2-4.8,0.2-7.5,0.4c-0.8-5.3-1.8-10.2-0.5-15.1
		C331.1,493.7,329.8,498.2,330.7,502.7z"/>
	<path fill="#e8e8e8" d="M310,476.5c0-6.3,0-12.1,0-17.8c0-2.3,1.3-3,3.3-2.8c1.8,0.2,3.6,0.5,5.8,0.8c0.3,6.6,0.6,13,0.9,19.9
		C316.6,476.5,313.6,476.5,310,476.5z M311.5,458.2c-0.4,5.9-0.7,11.4-1,17.4c2.9-0.2,5.1-0.3,7.7-0.5c0.4-6.1,0.4-11.9,0.2-18.1
		C315.8,457.4,314,457.7,311.5,458.2z"/>
	<path fill="#e8e8e8" d="M378.4,504c-2.8-0.5-4.6-0.8-6.4-1.1c0-7.3,0-14.2,0-21.7c2.4,0.2,4.4,0.3,6.4,0.5
		C378.4,489.1,378.4,496.2,378.4,504z M377.2,483.1c-3.5-0.2-3.6-0.2-3.8,2.4c-0.2,4.5-0.5,9-0.5,13.5c-0.1,3.1,0.3,3.2,4.2,2.4
		C377.2,495.5,377.2,489.4,377.2,483.1z"/>
	<path fill="#e8e8e8" d="M378.9,475.6c-2.5,0.2-4.4,0.5-7.1,0.7c-0.2-3.9-0.5-7.4-0.7-10.9c-0.1-3.4,0-6.8,0-10.5
		c1.1-0.1,2.1-0.3,3.2-0.3c5.3,0.3,5.6,0.8,5.3,6.2C379.3,465.6,379.1,470.4,378.9,475.6z M372.6,456.3c0,3.5-0.1,6.4,0,9.3
		c0.1,3,0.2,6,0.3,9.1c2.3,0.2,4.4,0.5,4.7-1.7c0.7-5.5,1-11,0.6-16.6C376,456.3,374.5,456.3,372.6,456.3z"/>
	<path fill="#e8e8e8" d="M477.3,424.6c-2.8-0.4-4.3-1.1-4.4-3.5c-0.2-5.9-0.5-11.8-0.7-17.7c0-0.5-0.1-1.1,0.2-1.4
		c0.8-0.8,1.7-1.7,2.6-2c0.5-0.1,1.6,1.2,1.9,2.1c0.4,1.1,0.4,2.5,0.4,3.7C477.3,412,477.3,418,477.3,424.6z"/>
	<path fill="#e8e8e8" d="M473,373.2c2.5-0.2,4.2,0.3,4.3,2.8c0.1,5.1,0,10.2,0,15.3c-2.3,0.3-4.1,0.2-4.2-2
		C472.9,383.9,473,378.6,473,373.2z M475,375c-1.7,5.2-1.2,11.8,1,14.7C475.9,384.4,476.1,379.7,475,375z"/>
	<path fill="#e8e8e8" d="M383.2,338.1c-2.8,0-5.3,0-8.3,0c-0.3-3-0.7-5.9-0.9-8.8c-0.1-0.9,0.1-2,0.6-2.6c1.1-1.3,2.6-3.2,4-3.2
		c1.4,0,3.5,1.7,4,3.2C383.9,330.2,383.8,334,383.2,338.1z M378.6,324.4c-3.5,3-2.1,7-2.3,11c1.9,0.4,3.5,0.8,5.3,1.1
		C382.8,328.8,382.4,327.3,378.6,324.4z"/>
	<path fill="#e8e8e8" d="M367,322.4c1.1,0.8,2.8,1.3,3,2.3c1,3.4,1.7,6.9,2,10.5c0.2,2.7-1.7,3.3-7,1.8c1.7-0.2,2.3-0.3,2.9-0.4
		c0.8-0.1,1.5-0.2,2.3-0.2C371.2,331.1,369.7,325.6,367,322.4z"/>
	<path fill="#e8e8e8" d="M330.1,392.1c0,5,0,10,0,15c-0.4,0-0.7,0-1.1,0c0-5,0-10,0-15C329.4,392.1,329.7,392.1,330.1,392.1z"/>
	<path fill="#e8e8e8" d="M500,448.5c0.6,5,0.2,12.5-1.4,16.4c-0.5-5-0.9-9.1-1.2-13.2c-0.2-1.9,0.8-2.9,2.7-3.1L500,448.5z"/>
	<path fill="#e8e8e8" d="M498.5,429c0-6.5,0-13.1,0-19.8C500,411.7,500.3,422.7,498.5,429z"/>
	<path fill="#e8e8e8" d="M498.8,492.5c0,4.7,0,9.4,0,14.1c-0.2,0-0.4,0-0.6,0c0-4.7,0-9.4,0-14.1
		C498.4,492.5,498.5,492.5,498.8,492.5z"/>
	<path fill="#e8e8e8" d="M402.6,328.1c0.3,2.6,0.7,5.2,1,7.8c-0.4,0.1-0.8,0.1-1.1,0.2C401.4,333.6,402,330.8,402.6,328.1z"/>
	<path fill="#e8e8e8" d="M415.3,327.9c0,3,0,6,0,9.9c-1.7-3.7-1.3-6.8-1.1-9.9C414.6,327.9,415,327.9,415.3,327.9z"/>
	<path fill="#e8e8e8" d="M368.4,357.1c3-0.2,5.6-0.5,8.3-0.7c2.1-0.2,3.2,0.9,3.2,3c0,7.3,0,14.6,0,22.3c-4,0-7.6,0-11.6,0
		C368.4,373.5,368.4,365.6,368.4,357.1z M378,380.3c0-7.4,0-14.4,0-22c-2.9,0.2-5.4,0.2-8.3,0.4c-0.2,7.4-0.2,14.5-0.1,21.6
		C373,380.3,375.4,380.3,378,380.3z"/>
	<path fill="#e8e8e8" d="M379.5,412.4c-3.5,0-7.1,0-11.4,0c0.5-8.4,0.8-16.5,1.2-24.4c0.5-0.3,0.8-0.6,1.1-0.6
		c9.6-0.6,9.6-0.6,9.7,8.9c0,5,0,10,0,15C380,411.5,379.8,411.8,379.5,412.4z M370.7,389c-0.6,7.7-1.7,14.9-0.8,22.3
		c3,0,5.6,0,8.1,0c0-7.6,0-14.9,0-22.3C375.4,389,373.3,389,370.7,389z"/>
	<path fill="#e8e8e8" d="M332.8,472.6c-1.6-4.1-1-8.1,0.3-12.2C334.3,464.5,334.2,468.5,332.8,472.6z"/>
	<path fill="#e8e8e8" d="M314.6,472.6c-1.1-3.8-1.1-7.6,0.5-11.4C316.4,465.1,315.4,468.8,314.6,472.6z"/>
	<path fill="#e8e8e8" d="M374.6,498.2c0.2-4,0.5-7.9,0.8-11.9c0.2,0,0.5,0,0.7,0.1c0,3.9,0,7.8,0,11.8
		C375.6,498.2,375.1,498.2,374.6,498.2z"/>
	<path fill="#e8e8e8" d="M374.6,470.8c0.2-3.8,0.5-7.5,0.8-11.4c0.2,0,0.4,0,0.6,0.1c0,3.8,0,7.6,0,11.4
		C375.5,470.9,375,470.9,374.6,470.8z"/>
	<path fill="#e8e8e8" d="M372.3,378.3c-1.4-6.2,0.6-11.2,0.8-16.5c0.4,0,0.8,0,1.1,0c0.2,2.9,0.6,5.6,0.5,8.5
		C374.6,372.9,376.2,375.9,372.3,378.3z"/>
	<path fill="#e8e8e8" d="M375.9,392.5c0.4,5.6,0.8,10.8-2,16.1C371.6,404.1,372.6,395.8,375.9,392.5z"/>
</g>
</svg>
