<svg id="Слой_1" data-name="Слой 1" xmlns="http://www.w3.org/2000/svg" viewBox="0 0 1172.09 641.7" fill="#bca064"><title>номера</title><path d="M759.91,411.36H739.46c-1.45,1.37-1.53,2.4-.62,3.91,8.64,0.84,17.43,2.47,26.43,2.19,2-3.85,1.87-7.94,2.7-11.79,1.22-5.67,2-11.43,2.92-17.17,1-6.35,0-12.61-1.23-18.82a10.06,10.06,0,0,1-.34-4.44c1-2.39,3-3,5.29-2.79,4.13,0.42,8.26.86,12.35,1.51a17,17,0,0,0,6.37.25c2.58-5.33,1.26-11.14,2-16.33a5.21,5.21,0,0,1,4.75-1.94c7.76,1,15.59.67,23.37,1.45,12.39,1.24,24.81,2.22,37.25,2.81,8.79,0.42,17.61.67,26.43-.41a119,119,0,0,1,17.27-.34,4.84,4.84,0,0,1,1.38,5.25c-2.72,11.34-3.77,22.91-4.84,34.49-0.61,6.61-1.78,13.16-1.86,19.83,0,1.16,0,2.32,0,3.93,7.94,2.3,16.19,1.32,24.27,3,1.17,1.29.72,2.92,0.39,4.83-4,1.17-8.14.41-12.23,0.49a73.33,73.33,0,0,1-12.12-.31c-1.42.88-1.1,2.38-2.59,3.63-5.5,2.53-11.84-1-18.11.12-1.28,2.32-.33,4.62-0.56,6.55a5.71,5.71,0,0,0,4.2,2.18c11.2,1.75,18.34,8.72,23.45,18.27,5.63,10.52,8.82,21.71,10.56,33.56C918.79,502,911.4,514.21,900,525a8.76,8.76,0,0,1-2.48,1.64c-1.67.72-3.41,1.27-4.84,1.8-7-.81-8.82-5.67-9.89-11.06a2.2,2.2,0,0,0-2.38.55c-0.66.49-1.23,1.11-2,1.82,0.94,5,.61,10.17.76,15.29a18.62,18.62,0,0,1-5.79,14.39c-5.71,5.59-11.58,11-17.48,16.41-4.17,3.81-8.56,7.39-12.77,11.17-9.53,8.57-19.24,16.92-29,25.18C806,609,798,616.11,789.94,623c-4.54,3.9-9.13,7.76-13.72,11.6-3,2.53-6.51,2.31-10,1.36q-13.22-3.65-26.38-7.52-36.4-10.61-72.77-21.29c-18.5-5.44-37-11-55.48-16.45-21.06-6.19-42.14-12.29-63.2-18.47q-27.52-8.07-55-16.24c-7.34-2.17-14.65-4.41-22-6.52a13.38,13.38,0,0,1-5.08-2.3c-2.3-6.65-1.66-14.26-3.13-21.51a3.43,3.43,0,0,1,1.5-3.9c4.62,1.16,9.57,2.35,14.5,3.64,15.43,4.06,31.18,6.95,46.23,12.34,15.66,5.61,31.25,11.45,47.05,16.66,14.7,4.85,29.78,8.29,44.82,11.84,21.17,5,42.4,9.75,63.77,13.87,14.67,2.83,29.41,5.28,44,8.32,8.44,1.76,16.7,4.35,25.25,6.61,1.14-1.89.78-3.83,0.65-5.94-4.25-2-8.88-2.6-13.35-3.75a283.53,283.53,0,0,0-30.32-5.71c-5.75-.83-11.52-1.53-17.28-2.2a293.05,293.05,0,0,1-43.41-8.8q-33.42-9.17-66.84-18.35c-7.37-2-14.73-4.12-22.09-6.21L509.34,530.4l-69.68-19.78L436,514c-6.15,2.3-12.5,1.44-18.79,1.23a4.3,4.3,0,0,1-2.34-.81c-3.33-2.55-6.8-1.83-10.47-.91-12.73,3.21-25.5,6.23-38.24,9.4a11.2,11.2,0,0,1-7.84-.41c-0.87-130.68,1.44-261.4.5-392.75l-149-26.83c-1.13,1.37-.79,2.59-0.81,3.72s0.13,2.3.21,3.49a7.08,7.08,0,0,0,1.79,1.05q40.91,8.77,81.83,17.48c12.5,2.67,25,5.33,37.47,8.15a16.73,16.73,0,0,0,7.36.08c4.52-.94,9.11-1.53,13.57-2.25,2,2.6,1.88,5.45,1.88,8.27q0,55.25,0,110.5c0,49.83-.52,99.67.25,149.49,0.58,37.15.2,74.29,0.55,111.44,0,2,.39,4-0.78,6.26-7.43-1-14.25-4.07-21-5.66-1.44-1.74-1.08-3.3-1.08-4.76,0-53.83-.53-107.67.3-161.49,1-65.65.25-131.29,0.75-196.93,0-2.68,0-5.34-1.8-7.92-13.14-3.19-26.67-5.68-40.18-8.29s-27-5.44-40.6-7.61-26.75-6.53-40.22-6.59c-2.57,2.41-2.23,5-2.23,7.46q0,40.25-.06,80.5c0,6,.25,12-0.13,18-1.42,22.8-.54,45.62-1,68.43a16.46,16.46,0,0,1-.49,3.94c-0.48,1.77-.58,1.74-4,2.56-1.11-7.19-3.7-14-3.32-21.52,1.27-24.79.39-49.63,1.31-74.42,0.73-19.82-.1-39.65.92-59.43,1-18.49.45-37,.87-55.43,0-1.46-.28-3,1.18-4.46,5.15,0.13,10.21,1.83,15.32,3,27,6.28,54,12.79,81,19.15,19.72,4.65,39.47,9.16,59.19,13.81,6.92,1.63,7.18,2.08,7.19,9.05,0.05,27-.43,54,0.26,81,1.37,53.14-.17,106.3,1,159.43,1.05,46.82.27,93.63,0.82,140.43,0,1.64-.33,3.33.7,5.51,12.11-2.68,24.2-5.89,36.86-9-3.61-4.86-8.13-8.67-9.59-13.65,0.47-3.15,3.27-4.19,3.35-7-7,1.65-13.48,4.81-20.42,6.2-1.14-4.07-1.15-5.18-.11-9.89,3.89-.49,7.94-1.23,12-1.46s8.2-1.35,12.4-1.23c2.28,0.06,3.93-1.48,5.5-3.08,6-6.06,11.87-12.18,18-18a139,139,0,0,1,23-17.56c8.54-5.25,18.22-7.12,27.83-9.1,12.69-2.61,25.55-4.18,38.37-5.89,10.69-1.43,21.47-2.17,32.2-3.26,8.91-.91,17.8-2.19,26.74-2.71,6-.34,11.89-1.48,17.9-1.3a14.15,14.15,0,0,0,9.69-2.91H613c1.26-.84,2.49-1.29,3.15-2.17,5-6.61,12.38-7.15,19.68-7.8,3-.26,6-0.08,9-0.07,8.54,0,12.57-3.89,15-10.72,2.8-7.82,2.93-16,1.78-24.15-0.63-4.42-1.57-8.79-2.37-13.24,1.74-1.58,3.45-.84,5.16-0.25,3.77,1.29,7.41,3,11.34,3.84a14.92,14.92,0,0,0,6.73.27c-0.39-6.86-.46-13.73-0.28-20,2.39-2.36,4.6-1.82,6.71-1.56a7.47,7.47,0,0,1,2.36.8c7.2,3.62,14.86,4.52,22.81,4.22,3.65-.14,7.24.82,10.93,0.8a234.06,234.06,0,0,0,31.25-2.6c3.71-.52,7.43-2.07,11.13-1.13,2.66,1.54,2.74,3.55,2.14,6.12-1.25,5.33-2.78,10.58-3.67,16-1.05,6.43-1,12.91-1.56,19.35A178.13,178.13,0,0,1,761,409.3,12.57,12.57,0,0,1,759.91,411.36Zm36.31,92.44c-4.37-7.4-10.1-12.47-18.35-13.84-10.3-1.71-20.66-3.08-31-4.48-9.2-1.24-18.47-1.94-27.59-3.76a13.43,13.43,0,0,0-9.18,1.21c-12.41,6.43-25,12.44-37.38,19-7.4,4-11.82,9.81-14.78,17.37-5.84,14.9-7.31,30.5-8.11,46.59,7.6,1.58,14.84,3.85,22.44,4.92,11.18,1.58,22.39,2.64,33.62,3.68,7.26,0.67,14.55,1.07,21.72,2.6,8.25,1.76,16.54,3.34,24.89,5,0.75-1.6,1.69-3,.83-5a79.59,79.59,0,0,0-19.43-5.53c-10.69-1.39-21.42-2.4-32.08-4.06-10.16-1.58-20.37-2.81-30.53-4.36-1.57-.24-3.57-0.16-4.76-1.77a2.38,2.38,0,0,1,2.49-.87c3.94,0.71,7.93.79,11.89,1.16,8.42,0.78,16.8,2,25.23,2.64,8.95,0.67,17.9,1.42,26.9,1.14a47.27,47.27,0,0,1,14.23,2.15,39.12,39.12,0,0,0,7.81,1.74c2-10.31,4.46-20.39,2.44-31,1.69,4.61,4.4,9,4.43,13.77,0.07,11.3.83,22.63-.63,33.91a8.82,8.82,0,0,0,.71,5.85c6.6,2.64,13.54,5.22,21,4.48,6.47-4,9.22-6.85,11.08-11.44-2-4.9-4.17-9.76-6-14.75-4.34-11.89-8.14-23.87-8.07-36.79a31.14,31.14,0,0,1,6.5-18.95C789.28,510.68,792.78,507.6,796.23,503.8ZM641.58,563.13c1.7-4.34,1.64-9,2.45-13.57a278.11,278.11,0,0,1,9.19-36.68A27.7,27.7,0,0,1,667.87,496c9.28-4.51,18.35-9.43,27.85-13.48,2.27-1,4.44-2.16,7.09-3.45a14.34,14.34,0,0,0-1.75-.64c-7.66-1.42-15.33-2.8-23-4.25q-24.93-4.71-49.85-9.48a10.53,10.53,0,0,0-5.87.51c-4.66,1.77-9.4,3.34-14.07,5.07-10.6,3.93-21.24,7.72-31.59,12.31a20.1,20.1,0,0,0-10.41,10.24c-6.81,14.42-9.39,29.66-9.06,45.48a2.24,2.24,0,0,0,.47.85C562.41,541.32,636,562.37,641.58,563.13ZM462.65,511.81c9.54,2.84,19.06,5.72,28.61,8.51S510.4,525.9,520,528.6s18.79,6.07,28.28,7.91c2.14-3.41,1.7-6.7,2.21-9.78,1.68-10.19,5.18-19.91,7.56-29.92,2.71-11.39,9.17-19.08,20.62-22.83,9.94-3.26,19.69-7.14,29.63-10.45,0.86-.29,2.06-0.22,2-1.69-4.41-.78-8.8-1.59-13.2-2.34q-22.8-3.9-45.6-7.77c-9.65-1.64-19.15-3.31-29-.31-11.42,3.48-23.29,5.36-34.72,8.95-5.22,1.64-8.89,5-11.8,9.47-3,4.61-5.15,9.7-7.25,14.76a68.64,68.64,0,0,0-4.45,16.63c4.55,1.52,8.93,3,13.33,4.45s8.88,2.79,13.3,4.23,8.83,3,13.26,4.39c4.59,1.47,9.21,2.84,13.8,4.31,4.43,1.42,8.88,2.81,13.25,4.42,4.2,1.55,8.81,2.16,12.42,5.25-4.73.55-8.88-1.55-13.21-2.68-4.5-1.17-8.91-2.67-13.37-4s-8.91-2.69-13.37-4-8.93-2.62-13.38-4-8.9-2.72-13.36-4-8.84-2.58-13.15-3.83A5.89,5.89,0,0,0,462.65,511.81Zm342.08-10.16c7,18.47,11.47,37.48,17,56.68,15.54-11.07,30.5-22,44.11-34a8.82,8.82,0,0,0,.16-1.63c-2.42-13.78-5.8-27.28-11.42-40.16-5.55-12.71-14.85-21-28.33-24.55A95.59,95.59,0,0,0,810,455.59a252.9,252.9,0,0,1-28.58-3.86,9.7,9.7,0,0,0-6.31.68c-14.91,7-29.85,13.95-44.76,20.94-1.1.52-2.52,0.79-2.9,2.26a3.56,3.56,0,0,0,.94.63c13.83,2.78,27.75,5,41.53,8.08C781.85,487,793.7,489.6,802.4,499c17.94-12.36,24.7-16.12,28.36-15.81,0.62,1.53-.52,2.07-1.52,2.65-2.45,1.42-5,2.73-7.36,4.22A182.56,182.56,0,0,0,804.73,501.65Zm-29.1-131.73c-2.36,8.22-.84,16.33-1.88,24.21S773.86,410,772.34,418c5.95,1.79,11.8,1.65,17.51,2.41,4.44,0.59,8.93.79,13.38,1.31,7.41,0.85,14.81,1.78,22.21,2.73,8.88,1.14,17.76,2.28,26.62,3.53,6.51,0.92,13,2,20,3.12A182.74,182.74,0,0,1,874.09,402c1.39-9.44,2.94-18.85,4.42-28.26a11.13,11.13,0,0,0-5.36.2c-8.16,1.6-16.42,3.1-24.73,2.27-9.57-.95-19.18-1.56-28.75-2.56-12.87-1.34-25.76-2.48-38.6-4.07C779.31,369.36,777.44,369,775.63,369.92Zm-36.63.6a3,3,0,0,0-2.7-1.12c-20,.28-39.93.48-59.82-2a48,48,0,0,1-5.94-.64c-1.7-.42-3.56-0.91-5.4.65,2.45,14.07.93,27.94-3.83,42.17,3.59,0,6.47-.38,9.19.08,6.41,1.08,12.9,1,19.34,1.59,5.77,0.53,11.59,1,17.38,1.46,4.29,0.33,8.69.12,12.9,1,4.59,1,9.16.23,14.37,1.27,0-8.17-.08-15.65,0-23.12S737.61,377.43,739,370.52ZM457.34,498.44c0.87-2,1.78-3.74,2.43-5.6,2.87-8.18,7-15.8,10.59-23.66,3.46-7.6,9.12-13,17.64-14.85,5.67-1.23,11.33-2.53,17-4,4.11-1,8.41-1.45,13.32-3.47-12.89-1.91-24.77-3.74-36.68-5.37a25.54,25.54,0,0,0-8.94.26,73.61,73.61,0,0,0-28.73,13.27c-13.63,10.24-25.61,22.2-36.77,35-1.51,1.73-2.78,3.67-4.06,5.39,5,12.49,22.2,17.46,31.91,14.11,0-7.16,3.52-13.34,6-19.83s5-12.9,7.51-19.35c-1.19,7.73-4.32,14.91-5.29,22.82A58.85,58.85,0,0,0,457.34,498.44Zm435.72,18.07a8,8,0,0,0,1.4-.42,4.82,4.82,0,0,0,1.19-.89c4.93-5.54,8.82-11.63,10.47-19,1.22-5.45.72-10.81,0.16-16.32a79.21,79.21,0,0,0-6.82-25.38c-3.75-8.14-8.93-14.89-19.25-15.63a95.91,95.91,0,0,1-11.73,10.24c-6.05-4.58-12.29-8.43-19.52-10.19-5.64-1.38-11.34-2.5-17.06-3.49-9.15-1.58-18.33-3-27.51-4.39-8.36-1.27-16.71-2.63-25.12-3.54-9.56-1-19.11-2.27-28.66-3.41-8.57-1-17.17-1.69-25.75-2.51-9.08-.86-18.21-1.62-27.31-1.9-10.14-.32-20.24-1.27-30.39-1.41-8-.12-15.92-1.08-23.9-0.94a2.05,2.05,0,0,1-1.76-.74c-0.93-1.8,1.21-2.57,1.85-4-14.53-1-18-.14-26.3,7.29,10.19-2,19.29.69,28.65-.21,8.68-.83,17.6.22,26.34,1.15,4.65,0.5,9.3.32,13.92,0.81,6.27,0.66,12.54,1.42,18.83,1.68,5.82,0.25,11.59.91,17.38,1.36,10.4,0.8,20.73,2.55,31.12,3.6,12.88,1.3,25.66,3.23,38.48,5,16.77,2.29,33.47,4.92,50.08,8.15,12,2.33,21.64,7.82,28.51,18.25a102.07,102.07,0,0,1,11.54,23.7c2.86,8.5,5.3,17.14,8,25.7C890.72,511.57,891,514.3,893.06,516.51ZM632.95,461.42l0.16,0.85c4.74,0.71,9.48,1.47,14.24,2.11,10.84,1.46,21.7,2.78,32.53,4.3,10.33,1.46,20.64,3.14,31,4.64a13.79,13.79,0,0,0,7.77-1.07c14-6.17,28.06-12.16,42.08-18.25a36.23,36.23,0,0,0,7-3.6,3.88,3.88,0,0,0-1-.82q-14.52-2-29.05-4c-5.58-.75-11.18-1.43-16.77-2.12-6.41-.8-12.87-1.32-19.23-2.46a21.5,21.5,0,0,0-11.23.78c-14,4.85-28,9.6-42,14.37Q640.7,458.81,632.95,461.42Zm-92-13.27c2.46,0.23,3.63.28,4.77,0.46,11.79,1.9,23.56,3.89,35.36,5.73,10.16,1.58,20.37,2.84,30.51,4.56a27,27,0,0,0,13.24-.75c18-5.82,36.13-11.46,54.19-17.22,1.5-.48,3.3-0.5,4.44-2.24-2-.19-3.78-0.31-5.59-0.55-8.87-1.19-17.73-2.49-26.61-3.62-9.54-1.21-19.11-2.23-28.65-3.48a12.51,12.51,0,0,0-4.39.16c-22.24,4.7-44.51,9.32-66.75,14C548.27,445.91,544.91,446.07,540.93,448.15Zm257.16-83.37c5.45,2,10.65,1.9,15.7,2.61,6.74,1,13.53,1.47,20.28,2.31,6.92,0.86,13.83,1.88,20.83,1.75a26.14,26.14,0,0,0,4.47-.33,199.86,199.86,0,0,0,19.84-4.86c1.43-.43,2.82-1.1,4.68-0.21,2.18,1.87,2.46,4.37,1.68,7.42-3,11.58-5.89,23.19-8,35a28.07,28.07,0,0,0,.16,12c5.47-.27,10.67.55,16.14,0.74-0.28-3.57-.63-6.52-0.7-9.48-0.14-6.16.07-12.34-.24-18.49a67.9,67.9,0,0,1,4-26c1.51-4.34,2.65-8.81,4-13.21a5.7,5.7,0,0,0-3.22-.62c-3.83-.05-7.63.61-11.42,0.79-10.63.51-21.28,0.4-31.93,1-10.8.59-21.66,0.05-32.49,0.23A43.48,43.48,0,0,1,807.16,353c-2.46-.82-4.84-2-7.79-2.11C798.86,355.65,799.2,360.26,798.08,364.78ZM774.41,624.25C785,615.87,795.07,608,805.05,600q18.88-15.09,37.67-30.31c9.71-7.82,19.34-15.73,28.4-24.31,1.72-1.63,3.31-3.5,3.65-5.83a75.19,75.19,0,0,0,.16-15.63,4.21,4.21,0,0,0-1.53,0c-9.18,7.4-18.59,14.54-27.44,22.32-10.86,9.55-21.57,19.23-33.4,27.61-3.9,2.76-8,5.32-11.54,9.24,1.34,4.41-1.33,7.4-4.25,10.29-1.54,1.52-3.08,3-4.58,4.6-4.15,4.33-9.31,6.21-15.21,6.36-1.47,0-3-.27-4.46,1.43C771.34,611.67,773.22,617.56,774.41,624.25Zm-10.81-1.33c-1-2.48-3.21-2.59-5-3.16-10.79-3.35-21.66-6.48-32.43-9.89-23.15-7.32-46.32-14.56-69.36-22.19-26.54-8.78-53.71-15.23-80.74-22.18-30.08-7.74-60.25-15.15-90.38-22.7-3.06-.77-6.11-1.63-9.2-2.24-1.8-.36-3.74-0.41-4.16,2.92,96.46,27.84,193.59,53.33,290,81.6A2.75,2.75,0,0,0,763.6,622.92ZM739.7,405.18c5.84,1.82,11.81,2.07,17.74,3.09a21,21,0,0,0,1.65-8.88q0-14.49,0-29a55.18,55.18,0,0,1,.77-8.41c0.52-3.36,2.22-6.55,1.87-10.62-12.33.42-24.43,1.8-36.51,0.77s-24.48-1.23-36.9-3.41c-1.85,5.38-2,10.78-2.84,16.65,9.16,0,18,0,26.76,0a40.21,40.21,0,0,0,6-.22c6.72-1,13.54-1.25,20.23-2.6,2-.41,4.36-0.72,6.18,1.26,1,1.91.37,3.75-.49,5.63a20.25,20.25,0,0,0-2.06,8.66c0,7.5-1.54,14.84-2.46,22.25C739.42,401.83,738.88,403.25,739.7,405.18ZM880.81,512.25a13.53,13.53,0,0,0,.06-5.85c-0.57-3.6-1.15-7.2-1.84-10.78a180.69,180.69,0,0,0-7.17-27.46c-4.22-11.69-11.92-19.42-24.49-21.66-0.16,0-.33,0-0.49-0.07-12.38-3.24-25.08-4.78-37.67-6.88a13.4,13.4,0,0,0-9.19,1.39c-2.87,1.65-6.06,2.74-9.05,4.19-2.16,1.05-4.54,1.8-6.71,3.74,9.12,2.47,18,1.33,26.7,2.38,4.92,0.59,9.94.44,14.88,1.21,14.7,2.28,25.69,9.61,31.83,23.43a124.35,124.35,0,0,1,8.5,27.57c1.09,5.8,2.21,11.6,3.43,17.95A120.53,120.53,0,0,0,880.81,512.25Zm-82.66-5a65.38,65.38,0,0,0-8.46,8.68A25,25,0,0,0,784,533.47c0.34,9.45,3,18.27,6.64,26.86a2.68,2.68,0,0,0,1,.6c5-1.87,9.57-5.08,15.88-6.29-3.87,6.07-9.85,8.73-13.47,13.88A42.08,42.08,0,0,0,799,578.64l16.57-14.48c-3.27-9.4-5.34-19-8.14-28.31S802.35,517,798.14,507.26ZM488.63,439c12.63,2.09,24.56,4,36.48,6.08a13.54,13.54,0,0,0,4.94.2c9.11-1.79,18.2-3.66,27.32-5.4,11.56-2.2,23.15-4.29,34.72-6.46,5.67-1.06,11.32-2.19,17.43-3.38-3.82-1.66-7.37-1.46-10.81-1.86-7-.83-13.94-2.69-21.16-1.77-2.47.31-4.9,0.82-7.38,1.07-9.9,1-19.8,2-29.66,3.22q-17,2.17-34,4.86C500.69,436.43,494.72,436.89,488.63,439Zm215.26-.66c3.11,0,6,.7,9,1.07,9,1.15,18.09,2.1,27.11,3.32,10.66,1.45,21.29,3.12,31.93,4.65a11.07,11.07,0,0,0,6.31-.89c5.14-2.33,10.36-4.48,15.55-6.72,1-.43,2.41-0.28,2.62-1.93-8.2-1.1-16.37-2.33-24.58-3.26-7.9-.89-15.85-1.26-23.73-2.27-4.12-.53-8.29-0.51-12.36-1.23-5.68-1-11.15-1-16.61,1.21-4,1.6-8.18,2.76-12.28,4.11C705.76,436.73,704.56,436.85,703.89,438.29Zm-70.23-10.42-0.06,1.08c2.54,0.36,5.08.73,7.63,1.07q9.37,1.23,18.74,2.42c6.25,0.8,12.53,1.42,18.74,2.4,7.91,1.25,15.7,2.5,23.41-1.12,2.68-1.26,5.74-1.66,8.56-2.65,0.94-.33,2.33-0.14,2.77-1.43a2.14,2.14,0,0,0-2.21-1.09c-6,.25-11.9-1.07-17.89-1.29-5.29-.19-10.64-0.46-15.88-1.18-6.1-.84-12.25-0.68-18.35-1.53C650.41,423.36,642.09,426.28,633.66,427.87Zm8.74-4.15c-6.89-.5-13.53-1.48-20.29-1.37-10,.16-17.4,1.06-19.8,2.58C615.53,427.61,628.93,428.24,642.4,423.72Z" transform="translate(-60.12 -26.82)"/><path d="M1080,323.25c-0.73-1.1-1.34-2.09-2-3-4.31-5.89-9.86-9-17.41-8.82-14.49.27-29,.09-43.49,0.13-5.65,0-11.25,1.2-16.93.84-1.65-.1-3.32,0-5.09,0a31.26,31.26,0,0,1-4.77-9.4,13,13,0,0,1,2.15-.46c24.3-.61,48.6-1.52,72.92-1a19.71,19.71,0,0,1,12.86,4.72c4.4,3.81,8.72,7.75,11.87,13.33v80.58a11.55,11.55,0,0,0,3.27-4.08,44.34,44.34,0,0,1,10.39-11.38c5.93-4.68,13.07-5.54,20.2-6.15,20.11-1.72,40.27-1.2,60.41-1a169.42,169.42,0,0,1,20.31,1.66c10,1.33,16.75,7.51,21.82,15.83A40.28,40.28,0,0,1,1232,416c0.07,6.5.41,13-.11,19.49-0.82,10.08-.92,20.22-2.52,30.26-0.78,4.91-1.29,9.87-2.27,14.75-1.79,8.89-3.67,17.74-12.15,23.2,0.4,6.88-.32,13.49-0.89,20.1-0.74,8.52-2.4,16.77-7.5,24a36,36,0,0,1-5.13,5.43c4.64,8.75,2.87,17.71,1,26.65a35.13,35.13,0,0,1-2.91,8,14.94,14.94,0,0,0-1,11.6,5.49,5.49,0,0,1,.21,3.76,9.4,9.4,0,0,1-6.85,2.07,3.39,3.39,0,0,1-.84-3c0.39-6.3-.67-12.66.83-18.92a7.44,7.44,0,0,0-.42-3.43c-1.24-5.42-4.47-9.95-6.25-15.74-8.54,3.83-16.26,8-24.64,10.66a157.05,157.05,0,0,1-26,6c-0.63,6.35-3.09,12.14-5.43,18-1.26,3.14,0,6.22.35,9.29,0.27,2.13.93,4.21,1.36,6.32a4.52,4.52,0,0,1-.44,3.69c-3.71.75-7.62,0.38-11.69,0.11-1-2-.52-3.9,0-5.85,1.31-5.31,3.15-10.57,2.35-16.18-0.7-4.91-1.51-9.81-2.29-14.89-4.89-2.57-10.38-2.67-15.47-5-1.68,2.51-2.53,5.82-6.68,5.84-4.7-1.51-3.46-5.63-3.09-9.64-18.37-8.24-35.44-18.81-52.14-30.08-4,3.66-3.74,8.12-3.05,12.3a90.64,90.64,0,0,1,.78,11.42,69.26,69.26,0,0,0,.43,7c0.73,5.24-.19,6.94-5.38,9.13-3.09-.51-5-2.35-5.77-5.76,0.62-2.28,1.18-4.89,2-7.39a9.68,9.68,0,0,0-.6-8.19c-0.71-1.32-1.31-2.7-2-4-3.77-7.27-3.87-14.66-.8-22.17,0.25-.61.5-1.23,0.72-1.86a2,2,0,0,0,0-.57c-0.53-1.45-1.91-2.14-3.07-3.07a19.92,19.92,0,0,1-7.49-12.57c-1-6.06-1.92-12.13-2.85-18.19-0.43-2.78.55-5.21,1.93-7.56,4.29-7.26,11.19-10.16,19.05-11.25,3.12-.43,6.17-1.35,9.39-1.17a5.85,5.85,0,0,0,4.77-2.06,2.89,2.89,0,0,0,.4-3c-3.2-5.23-3-10.7-1.27-16.6,2.19-3.5,6-4.78,10-5.21,5.27-.57,10.55-1.4,15.9-1a8.75,8.75,0,0,0,6.85-2l2.82-4.52c-2.16-3.57-2.13-7.54-2.09-11.54q0.08-7.5-.07-15-0.62-32.21-1.29-64.42C1080.59,343.28,1080.46,333.45,1080,323.25Zm87.56,182.51c6.18-.41,11.31-0.4,16.37-1.3,7.85-1.4,15.71-2.64,23-6.28a17,17,0,0,0,9-10.79c1-3.17,1.62-6.44,2.26-9.7,1.64-8.31,2.29-16.75,3.27-25.15,1.06-9.12,0-18.29,1.57-27.36,0.65-3.82-.93-7.59-0.75-11.41,0.34-7.11-2.65-13-6.86-18.28a19.35,19.35,0,0,0-11.21-7,97.67,97.67,0,0,0-11.78-1.91c-9.43-.81-18.87-1.7-28.32-1.93-13.82-.33-27.65-0.26-41.48-0.06-7.72.11-14.81,2.29-19.81,8.78-6.23,8.08-10.45,17-10.58,27.4-0.06,5,.18,10-0.13,15-0.64,10.26-3.92,17.51-16.34,20-3.09.62-6.19,1.52-9.3,1.56a18,18,0,0,0-11.16,3.95c-0.41,5.07-.71,10.11,1.6,14.83a243.66,243.66,0,0,1,100.63,13.46c13-8.07,27.54-8.19,42.1-10.17a3,3,0,0,1-2.39,1.79c-9.11,1.64-17.46,5.33-25.62,9.53a25.62,25.62,0,0,0-10.41,9.06c-3.25,5.16-3.79,10.94-4,16.75-0.24,6.82,0,13.66-.19,20.48-0.24,9,.55,17.94,1.29,26.89A1.17,1.17,0,0,0,1159,565a3.47,3.47,0,0,0,1,0,128.21,128.21,0,0,0,33.09-17.24,26.54,26.54,0,0,0,10.95-18.86c0.17-1.31.5-2.61,0.64-3.93a118.82,118.82,0,0,0,.26-17.79C1181.09,509.38,1171.61,509.22,1167.54,505.77Zm-145.66-5.28a6,6,0,0,0-1.62,5.14c0.44,2.95,1.09,5.86,1.61,8.8,0.67,3.73,2.6,6.67,5.11,9.5,3.51,3.94,8,6.57,12.2,9.44,16.55,11.21,33.62,21.6,52.23,29.06,7.94,3.18,15.43,7.5,24.35,8.38,10,1,19.87.88,29.68-1.4a5.44,5.44,0,0,0,3.74-2.2l-2.31-30.94a3.15,3.15,0,0,0-2.73-.36c-7.62.77-15.24,1.23-22.84-.24-17.32-3.34-34.22-8.32-51-13.78-14.41-4.71-28.05-11.34-41.62-18.08C1026.52,502.7,1024.27,501.64,1021.89,500.49Zm130.1-5.86c-1-2.44-2.91-2.71-4.6-3.27-13.71-4.58-27.42-8.82-42-10.3a198.72,198.72,0,0,0-33.25-.45c-9.09.6-18.15,1.7-27.19,2.87-5.08.66-10.25,1.06-15.12,2.92-2.89,1.11-5.48,2.5-5.63,6,1.06,2.55,3.36,3.33,5.4,4.38,11.11,5.75,22.9,9.87,34.62,14.09,16.89,6.08,33.78,12.19,51.06,17.1,3,0.86,6.12,1.89,9.31,1.33a140.19,140.19,0,0,0,17.5-3.76c2-.63,3.8-1.55,3.94-3.92s-1.38-3.58-3.4-4.07c-11,1.58-21.66,1.44-32.26-1.52-7.2-2-14.47-3.74-21.68-5.69-17.49-4.73-34.86-9.86-51.94-15.93-2-.7-4-1.3-5.4-2.77a2.16,2.16,0,0,1,1.59-1.58c1.73-.59,3.46-1.2,5.22-1.64,17.16-4.28,34.51-6.69,52.27-6.17a142.84,142.84,0,0,1,28.07,3.75c9.42,2.18,18.44,5.61,27.6,8.61C1148,495.26,1149.81,496.25,1152,494.63Z" transform="translate(-60.12 -26.82)"/><path d="M1095.89,269.64a10.92,10.92,0,0,1-7.94,2.76c-8.66-.26-17.26.89-25.89,1.28-11.27.51-22.54,1.3-33.82,1.94-11.11.63-22.21,1.36-33.31,2-5.64.35-11.27,0.71-16.92,0.85a12.31,12.31,0,0,1-4.83-.44c-2.52-4-5.21-8.13-7.85-12.33q-16.07-25.56-32.12-51.14Q909.61,177,886,139.35q-15.67-24.93-31.41-49.81c-1.06-1.69-2-3.46-3.16-5.08a6.54,6.54,0,0,1-.85-6.62c2.56-3,6.36-2.64,9.67-3.26,14.34-2.7,28.72-5.17,43.1-7.69,12.41-2.18,24.84-4.31,37.25-6.49C950.73,58.62,960.85,56.79,971,55c8-1.41,16-2.8,24.39-4.27Zm-88.76-149.12c-19.69,3.17-39.14,5.64-59.07,8.85l49.47,90.86,62.17-7c-0.42-1.18-.58-1.82-0.86-2.41q-11.09-23.75-22.2-47.49c-3-6.33-5.64-12.79-8.79-19-5-9.94-8.95-20.39-14.36-30.14a28.22,28.22,0,0,1-2.72-6.42,13.62,13.62,0,0,0-1.9-4.59c-4.1-5.53-6.23-12.13-9-18.22-3-6.59-6.59-13-8.79-20-0.5-1.6-1.13-3.15-3.38-3.35-2.35,1.87-1.37,4.54-1.56,6.89s0.26,5-.51,8L902.88,91.08c-0.94,1.72-1,2.94.42,4.41,5.29-.79,10.85-1.55,16.39-2.45,11.13-1.82,22.24-3.73,33.36-5.57,11.45-1.89,22.91-3.74,34.36-5.63,1.78-.29,3.55-0.86,5.34.4a29.48,29.48,0,0,1-.13,9.29l-81.16,13.34c-0.27,2.17.28,3.42,1.65,4.34q19.66-3.36,39.25-6.71,20.11-3.4,40.23-6.73c2.11-.35,4.24-0.87,6.29.32,0.38,3,2,5.77.57,9-26.31,4.67-52.78,8.67-79.24,13.65,0.65,2.17.51,3.89,1.7,5.3l83.25-14.46C1006.73,113.27,1006.06,116.64,1007.13,120.52ZM862.57,83.84a4.38,4.38,0,0,0,0,1.46q54.57,90.11,109.19,180.18c0.69,1.13,1.5,2.19,2.27,3.27a0.7,0.7,0,0,0,.44.21,4.9,4.9,0,0,0,1-.23L989,238.23c-0.7-1-1.29-1.84-1.8-2.69q-21.34-35.23-42.66-70.47c-4.73-7.83-9.35-15.74-14.09-23.57-1.11-1.82-2-3.5-.5-5.23a3.22,3.22,0,0,1,2.51-.9,22.38,22.38,0,0,1,2.38.42L990.67,235l74.61-8.76a2.44,2.44,0,0,0-1.17-2.63c-3.53,0-7.37-.3-11.15.06-11.1,1-22.23,1.21-33.35,1.79-3.32.17-6.61,0.26-9.94,0.67a78.13,78.13,0,0,1-15.62.09c-9.65-15.38-18.48-31.56-27.81-47.44s-18.71-32.13-28-48l-20.11,2.71c-2.8-1.64-4.25-3.37-4.64-5.18-0.19-3.23,1.67-5.58,1.08-8.46l-4.69-.54c-5.8-3.47-3-8.7-3-13.55-5.34,1.29-8.61-.89-10.15-4.22-1.33-3.8.92-6.14,0.59-8.7-1.81-.71-3.6.05-5.75-1.34-3.67-1.54-2.9-6.43-5.15-10.1ZM979.86,272.29l101.46-13.12c-4.17-8.89-7.62-17.3-12-25-3.48-1.52-6.53.15-9.64,0.22-7.3.15-14.61,0.57-21.89,0.77-12.62.34-25.21,1.68-37.85,1.38a20.56,20.56,0,0,0-8.61,1.51C988,249.19,983.25,260.13,979.86,272.29Z" transform="translate(-60.12 -26.82)"/><path d="M191.43,76.32a133.73,133.73,0,0,0-1.27,17.81c0,46,.25,92-0.4,138-0.23,16.47-.32,33-0.65,49.43,0,0.66-.13,1.31-0.2,2a7.91,7.91,0,0,1-4.88,1.73c-1.19-1.38-.86-2.77-0.88-4.06-0.05-4.33,0-8.67-.06-13-0.12-32.81-.82-65.62-1.37-98.42-0.37-21.81.08-43.64-.89-65.42-0.5-11.31-.44-22.62-0.81-33.46a9.26,9.26,0,0,0-3.89-4.38Q168.83,61.29,161.55,56a13.79,13.79,0,0,1-4.12-4.11v-19a34.5,34.5,0,0,1,6.41,4.91c7.35,7,14.77,13.95,22,21.07a13.33,13.33,0,0,0,7,3.51q37.52,7.9,75,15.78c26.49,5.51,53,10.87,79.49,16.41,22.75,4.76,45.46,9.68,68.19,14.51,9.74,2.07,19.49,4.09,29.24,6.12,3.54,0.74,6.9-.71,10.33-1.09,8.23-.91,16.4-2.4,24.6-3.63,10.82-1.62,21.65-3.25,32.48-4.81,10.18-1.47,20.38-2.78,30.55-4.3,12-1.78,23.92-3.74,35.89-5.56,10-1.52,20-2.88,30-4.42,11.64-1.8,23.26-3.72,34.88-5.58C654.73,84,665.87,82.26,677,80.45q17.19-2.78,34.37-5.63,16.2-2.67,32.4-5.38,16-2.67,31.9-5.4,19.13-3.29,38.24-6.66c12.09-2.13,24.17-4.33,36.25-6.47,14.21-2.52,28.43-5,42.64-7.53q14.21-2.53,28.41-5.15l42.58-7.81c6.68-1.22,13.36-2.41,20-3.61,1.68,1.62,2.13,3.52,3.12,5.56-176,35.81-352.2,67.61-530.35,89.89,0.68,2.47,2.29,3.46,3.5,4.68,33.54,33.63,67.33,67,100.59,100.91,19.72,20.1,39.72,39.91,59.46,60a9,9,0,0,1,2.57,3.24,16.91,16.91,0,0,1-6.27.15c-2.88-2.59-5.93-5.17-8.79-7.94-15-14.48-29.7-29.19-44.88-43.44-9.11-8.55-17.73-17.61-27-26s-17.75-17.6-27-26c-8.89-8.06-17-16.89-25.92-24.94-9.39-8.51-18.15-17.65-27.32-26.38-3.74-3.55-7.62-7-12.11-11Z" transform="translate(-60.12 -26.82)"/><path d="M752.81,288.67c-1.3,2.36-3.17,2.64-5.26,2.88-8.46,1-16.94.81-25.42,0.88-18.14.15-36.25,1.43-54.41,1.17-3.8-.06-7.57.85-11.42,0.84a10.49,10.49,0,0,1-8.35-3.61q-15.41-17-31-33.85c-5-5.38-10.16-10.54-15-16-6.52-7.34-13.45-14.31-20.14-21.5-13-14-26.13-28-39-42.09-8.31-9.09-16.61-18.18-25.12-27.09-2.76-2.88-5.34-5.94-8-8.87a4.61,4.61,0,0,1-1.16-5.06,5.88,5.88,0,0,1,3.92-1.87c21.07-3.7,42.15-7.38,63.2-11.17,15.51-2.79,31-5.75,46.48-8.62,5.3-1,9.47,0,12.92,4.94,9.94,14.36,20.36,28.38,30.61,42.52Q685.72,190,706,217.88q19.91,27.48,39.79,55c1.76,2.43,3.44,4.91,5.23,7.3A9.21,9.21,0,0,1,752.81,288.67Zm-85.7-32.34c-4.56-5.37-8.94-10.56-13.36-15.73-6.7-7.83-13.45-15.63-20.15-23.47q-10.53-12.33-21-24.71-8.06-9.51-16.09-19.05c-1.12-1.33-2.06-2.66-.83-4.5,2.42-1.19,3.48.49,4.79,2.11,8.42,10.3,16.94,20.51,25.37,30.8s16.77,20.64,25.18,30.95c5.88,7.2,11.8,14.36,17.75,21.62,12.19-2.15,24.28-4.21,36.33-6.46,2.26-.42,4.71-0.07,6.8-1.36a1.28,1.28,0,0,0,.76-1.53,4,4,0,0,0-1.62-1.84c-14.47.42-28.81,2.27-43.71,2.28l-66.66-78.89c-5.2-.47-9.88,2.82-14.33.37-2.9-2.92-3.2-6.42-3.37-10-1.66-.76-3.4-1-5.19-2.89-1.74-1.56,0-4.9-1.49-7.28-7.39-1.08-7.22-2.47-9.08-8.81-0.41-1.4.22-3-1.45-4.78-16.14,1.57-32.52,4.41-49.28,6.55a11.79,11.79,0,0,0,1,1.69c9.63,10.58,19.17,21.24,29,31.67,7.74,8.25,15.37,16.6,23,25,12.56,13.76,25.27,27.39,38,41,6.91,7.43,14,14.74,20.86,22.19,4.74,5.12,9.29,10.43,14,15.58,2.65,2.9,5.46,5.65,8.66,8.95Zm-92-120.71c16.27-2.2,32.41-5.55,48.8-7.58,0.44,3.72-.26,6.86.74,10.13-5.09.81-9.82,1.55-14.55,2.33s-9.2,1.37-13.73,2.38-9.34.91-13.66,3c7.93-.52,15.68-2.09,23.51-3.08s15.51-3.33,23.29-3.13c2.06,3,1.61,6.13,2.82,9.5-7.19,1.15-14,2.08-20.84,3.36s-13.54,1.44-20.78,3.93c2.54,1.4,4.3.93,6.05,0.64,11.12-1.86,22.24-3.79,33.39-5.49,2.7-.41,5.6-0.77,8.51.73l1.15,6.89-29,5.26L670,239.05c11.55-2,22.63-3.36,33.87-5.87-0.79-1.23-1.2-1.94-1.68-2.61l-32.75-45.3c-5.95-8.22-12.2-16.25-17.73-24.74-3.45-5.29-8.42-9.47-10.87-15.44a3.61,3.61,0,0,0-1.37-1.41,13.43,13.43,0,0,1-4.71-6.31c-2-4.65-5.8-8-7.63-13L575,131.66C574.05,132.91,574.11,133.84,575.06,135.62Zm80.74,151.9c9.58,0.5,18.46-.91,27.38-1.38,4.79-.25,9.67-0.14,14.41-0.93,6.75-1.13,13.59-.72,20.36-1.62,6.41-.85,12.92-0.86,19.39-1.27a7.82,7.82,0,0,0,1.8-.75l-20-27.52a7.72,7.72,0,0,0-4.93-.33c-3.28.9-6.62,0.63-9.94,0.74-7.31.24-14.6,0.94-21.91,1.29a92.73,92.73,0,0,0-13.19,1.12Z" transform="translate(-60.12 -26.82)"/><path d="M144.85,533.69c-7.19,6.73-7.47,15.23-6.44,24.06,0.09,0.82.56,1.61,0.58,2.42,0.15,10.31,1.62,20.53,2.06,30.81,0.29,6.86-1.1,13.53-2.31,20-4.77,3.23-7.62,3.24-13.14.13a8.61,8.61,0,0,1,1.22-8.89c5-6.43,4.39-13,1.77-20.18-4.49-12.35-8-25-12.68-37.33a20.45,20.45,0,0,1,.91-17.3c2.85-5.6,2.62-11.22,1.76-17-0.32-2.16-.29-4.31-0.45-6.46-0.4-5.46-.84-10.91-1.23-16-1.26-1.81-3.23-1.8-4.39-3.12-2-4.27-2.82-11.52-2.2-19.55a8,8,0,0,1,4.27-3.88c8.23-3.62,16.41-7.33,24.61-11,1.81-.81,3.63-1.8,5.52-0.26,0.66,2.35-1.13,2.93-2.54,3.73-4.76,2.73-9.55,5.43-14.31,8.16-0.85.48-1.9,0.73-2.22,1.88,1.77,1.94,4.33,1.49,6.52,2,13,2.83,26.1,4.81,39.28,6.42a208.56,208.56,0,0,0,35.9.92c21.57-1.09,43-3.38,64-8.91,5.78-1.52,11.58-3.17,16.26-7.23,3-2.64,5.62-5.61,6.59-10-4.05-4.75-10.3-5.06-15.39-7.55a8.65,8.65,0,0,1-1.09-5.36c6.47,2.1,12.78,3.45,18.36,6.83a8.08,8.08,0,0,1,4,7.06,51.17,51.17,0,0,1-3.19,19.56c-1.3,3.44-4,5.63-7,7.65C288.59,487,289.33,498.58,289,510c2.65,4.58,5.6,8.6,7.59,13.22a18.83,18.83,0,0,1,.45,14.08q-4.25,12.53-8.43,25.08c-2.51,7.57-4.94,15.16-7.38,22.68,0.95,4.82,5.75,7.43,6.81,12.13-2.89,5.45-7.74,4.33-12,4.24a5,5,0,0,1-3-3.52c-1.58-6.33-2.47-12.69-1.51-19.24,0.72-4.92,1.26-9.86,1.76-14.82,0.58-5.78.51-11.6,1.52-17.36,1.57-8.95-.91-16.7-7.65-23.21-6.35,2.3-12.23,5.42-18.18,7.2a4,4,0,0,0-.78,3.26,41.22,41.22,0,0,1-1.59,12.81c-1.65,6.25-2.5,12.69-4.27,18.93a12.86,12.86,0,0,0,.1,7.48c1.58,1.85,4.21,2.7,5.61,5.87a11.58,11.58,0,0,1-.11,4.89,6.79,6.79,0,0,1-5.89,3.65,5.85,5.85,0,0,1-5.89-5.68c-0.24-4-.81-7.94-1.18-11.9-1-11.1-.45-22.29-2-33.34a13.41,13.41,0,0,0-.62-1.86c-14.42,3-28.91,5.19-43.76,5S159.39,535.6,144.85,533.69Zm-23.23-44.77a7.23,7.23,0,0,0,0,1.46c1.83,8.44,3.43,16.93,5.63,25.28a16.87,16.87,0,0,1-2.58,15.06c-2.92,4.16-4.57,8.87-2.62,14.12a44.65,44.65,0,0,1,1.1,4.34c3.26,12.53,7.37,24.82,10.22,37.47a23.51,23.51,0,0,1,0,11.81c-0.75,2.69-1.43,5.41-2.11,8a4.56,4.56,0,0,0,4.27,1.17,80.2,80.2,0,0,0,2.59-13.42c0.24-1.94.93-3.77,0.59-5.89-0.77-4.74-1-9.56-1.58-14.34-0.76-6.76-1.39-13.54-2.44-20.25-1.38-8.8.19-17.19,2.74-25.52a4.64,4.64,0,0,1,.9-1.21c1.7-1,3.55-.74,5.36-0.56,3.47,0.34,7,.63,10.38,1.25,9,1.63,18.15,2,27.24,2.51a158.42,158.42,0,0,0,27.41-.54c10.07-1.2,20-2.75,29.92-4.93A227.33,227.33,0,0,0,272.07,515a3.18,3.18,0,0,1,2.75,0,1.91,1.91,0,0,1,1,1.76c-0.16,1.18-1.53,1.8-1.41,3.29a33.84,33.84,0,0,0,1.73,3.39c4.12,6.38,4.74,13.46,3.84,20.68-1.33,10.69-3.05,21.34-4.52,32-0.94,6.85-.83,13.59,2.66,19.8,1.38,0.64,2.62.84,3.74-.26a2.8,2.8,0,0,0,.13-1,8.3,8.3,0,0,0-.68-1.86,16.48,16.48,0,0,1-1.19-13.51c0.84-2.52,1.4-5.13,2.1-7.69,3.13-11.54,6.89-22.9,9.32-34.64a17.06,17.06,0,0,0-1.24-11.13,58.14,58.14,0,0,0-6.12-9.7,11.46,11.46,0,0,1-2.2-7.46c0.13-5.17,1.14-10.22,1.67-15.34,0.49-4.74,1-9.47,1.6-14.78-3.11,1.31-5.56,2.3-8,3.36a162.85,162.85,0,0,1-29.86,9.56c-16.26,3.65-32.83,4.7-49.38,5.79a152.5,152.5,0,0,1-30.89-.94c-13.64-1.89-27.23-4.11-40.65-7.22C124.88,488.72,123.33,488,121.62,488.92Zm-5.35-9.24a15.78,15.78,0,0,0,5.26,1.8c10.1,1.92,20.18,3.86,30.38,5.24,8.55,1.16,17.1,2.49,25.71,2.63,17.78,0.3,35.53.28,53.29-1.7a150.5,150.5,0,0,0,40.46-9.91,82.07,82.07,0,0,0,15.87-8.31c2.93-2,4.22-4.85,4.95-8.32-1.86-.06-2.73,1.07-3.74,1.76a44.59,44.59,0,0,1-8.84,4.58c-21.56,8.6-44.18,12-67.15,12.83-19.09.65-38.22,0.86-57.28-1.66-7.71-1-15.46-1.86-23.17-3-4.73-.69-9.47-1.33-14.27-2C116.58,475.57,117.23,477.69,116.26,479.68Z" transform="translate(-60.12 -26.82)"/><path d="M1009.19,395.87c14.43-2.19,28.85-1,42.85-1.5,1.52,1.84,1.1,3.4,1.11,4.85,0,8.83.21,17.66,0,26.48a38.61,38.61,0,0,0,3.29,17.76l-10.48,4.89c-2.49-1.6-1.78-4.71-3.62-6.68a37.25,37.25,0,0,0-9,3.27c1.64,3.82,5.28,6,7.15,10.21-1.09,4.68.07,10.18-.71,15.91-3.73.15-7.12,1.83-10.69,1.26-1.78-1.77-2.4-3.83-3.05-5.9a60.68,60.68,0,0,0-3.52-8.25,9.45,9.45,0,0,0-7.76-5.55,34.37,34.37,0,0,0-10.95.16q-7.07,1.45-14,3.34A92.94,92.94,0,0,1,977,458.25c-5.61.71-10.78-1.48-15.92-3.44-1.81-.69-3.46-1.91-5.57-1.61-0.91,1.79.32,3.26,0.65,4.81a99.89,99.89,0,0,1,1.71,17.82c0.33,9.72-2.31,19.07-5.91,28.09a7.75,7.75,0,0,1-3.15,3.76,9.84,9.84,0,0,0-4.76,7.75,16.7,16.7,0,0,1-3.8,9c-5.72-.92-11.68-0.89-17.41-2.28-1.45-6.58.44-8.17,11.06-9.16a17.68,17.68,0,0,0-.09-14.25c-5-11.26-10-22.51-14.84-33.81a21.78,21.78,0,0,1-2.15-11.08c0.73-6.78,4.35-11.69,9.79-15.49,1.47-1,3.44-1.42,4.45-3.87,0.52-10.22-.24-21-0.81-31,1.58-3.15,3.78-3.09,6-3.08,11.66,0.06,23.36-.49,35,0.28,17.31,1.15,34.61.37,51.9,0.86a39.85,39.85,0,0,1,5.94.57c2.49,0.45,4.35,1.51,6.09,4.56-1.35,10.46-2.83,21.74-3.65,33.5,4.16-.24,7.68-1.79,11.34-3.66,2.15-12.24,2.55-24.64,4.42-37.49C1034.14,398,1021.66,396.8,1009.19,395.87Zm7.53,15.79a66.69,66.69,0,0,0-8.24-1c-22.62-.14-45.24-0.16-67.86-0.19-1.44,0-3-.39-4.47,1.34,0.24,6.72-.47,13.81.38,20.81a24.47,24.47,0,0,0,9.62,1.85c7.48,0,14.9.91,22.36,1.31,9.09,0.49,18.17,1.39,27.28,1.75,2.48,0.1,4.93.28,7.41,0.62a31.82,31.82,0,0,0,12.06-.15c3.63-6.3.68-13.47,2.59-20A6.57,6.57,0,0,0,1016.72,411.66ZM950.06,500.2c0-5,.54-9.54-0.55-14.13a130.59,130.59,0,0,0-4.8-14.65c-1.42-3.87-3.07-7.75-2.36-12.07,0.51-3.08.94-6.17,1.41-9.21-1.61-.94-3-1-4.46.14-0.18,2.86-1.52,5.68-1,8.72q2.94,18.38,5.91,36.76C944.64,498.59,946.13,500.22,950.06,500.2Zm36.33-55c-4.36-2.46-9.31-1.92-14.19-1.19a4.53,4.53,0,0,0-3.93,4,4.7,4.7,0,0,0,3.27,3.4c4.67-.31,9.93.87,14.67-0.61C987.44,448.7,987.46,447.14,986.38,445.22Z" transform="translate(-60.12 -26.82)"/><path d="M937,284.33a7.57,7.57,0,0,1,6.56-2.79q16.49,0,33,0a7.72,7.72,0,0,1,5.06,1.3,2.48,2.48,0,0,1,.3,1.1c-3.2,5.93-1,11.25,1.75,16.55q8.22,16,16.39,32c0.75,1.46,1.41,3,2,4.21a3.77,3.77,0,0,1-3.21,2.57c-6.94,1.69-13.84,3.64-21.1,3.25a30,30,0,0,0-8.15,1.15c-0.6,1.47.31,2.1,1,2.8,5,5.31,6.48,11.28,4,18.34-2.23,6.29-5.17,12.25-7.85,18.34-0.39.89-.74,1.8-1.09,2.64,4.16,3.77,10.6,4.67,12.54,10.37a4.63,4.63,0,0,1-4.31,3c-8.63.19-17.29,1.07-25.87-.7-1.5-.31-2.92-0.68-3.83-2.56,1.92-5.78,8.44-6.22,12.47-10.1-1-4.41-3.77-8.28-5.22-12.66-1-3-2.13-5.95-3.24-8.91-2.42-6.5-.54-12.05,3.71-17.1,0.73-.87,1.87-1.44,2-2.89-0.51-1.8-2.1-1.79-3.57-1.74-8.06.3-15.84-1.48-23.65-3.05a10.16,10.16,0,0,1-5.25-2.29l7.74-18.78c2.6-6.3,5.22-12.6,7.78-18.92C939,294.42,940.37,289.31,937,284.33Zm21.88,90.76c0.7-8.09-1.73-16.12-.83-24.2a2.82,2.82,0,0,0-.63-2.34,6.21,6.21,0,0,0-1.08-.77,2.81,2.81,0,0,0-2.79,1.94c-1.53,4-3.25,7.93-1.6,12.5,1.35,3.74,2.4,7.6,4,11.28C956.33,374.44,956.63,375.43,958.91,375.1Z" transform="translate(-60.12 -26.82)"/><path d="M613.57,415.26c-5,2.23-9.44.51-14.16-.15-1.76-11.3-1.18-22.63-2.69-33.86-10-.07-19.74,2-29.19,2.52-1.69,1.55-1.35,3.13-1.37,4.59-0.08,6.49-.16,13-0.15,19.48a33.25,33.25,0,0,1-1.57,9.25c-2.08-4.61-1.06-8.39-1.25-12s-0.11-7.33,0-11c0.07-3.81-.34-7.65.25-11.12,1.41-2.69,3.67-2.5,5.84-2.51,7.49,0,14.92-1,22.39-1.32,7.94-.37,15.84-1.61,23.81-1.73,1.65,0,3.32.39,5.33-.31,1.49-2,3.35-4.08,4.36-7-1.77-4.06-3.57-8.16-5.33-12.27-0.85-2-1.65-4-2.46-6-2.22-5.46-1.47-10.41,2.55-14.8a2.4,2.4,0,0,0,.85-2.06c-0.85-1.9-2.85-1.42-4.58-1.48-4.48-.15-9,0.24-13.37-1.13a6,6,0,0,1-3.41-1.89c-0.78-2.24.68-3.78,1.68-5.48,4.47-7.58,9.13-15.07,12.81-23.18l-2.53-4.3c4.18-2.23,21.16-3.09,28.3-1.51a3.44,3.44,0,0,1,.1,2.88c-0.2.79-.39,1.59-0.63,2.57,5.14,9.87,12.37,18.47,17.63,28.24-0.89,2.47-2.9,2.58-4.93,2.66-5.47.22-10.88,1.46-16.4,1.12a2.83,2.83,0,0,0-3,1.37c-0.43,1.61,1,2.38,1.67,3.4a14.7,14.7,0,0,1,2.36,12.75c-1.62,6.47-4.27,12.58-6.34,18.87,0.65,3,2.8,4.89,4.5,7.48h19.34c1.22,0.88,1.55,1.6,1.47,2.49a3.19,3.19,0,0,1-2.35.52c-14.8-.11-29.56,1.54-44.38,1-1.84-.06-4.07-0.71-5.37,1.85,1,1.87,2.84,2.1,4.66,2,8.67-.28,17.26.91,25.9,1.26,7.11,0.29,14.22,1,21.54,1,1.22,4.44,1.93,8.57.57,12.85-1.13,3.56-3.5,5.67-7.21,5.93a31.9,31.9,0,0,1-9.45-.35c-6.58-1.52-12.86-.33-19.06,1.93C616.84,409.18,615.21,412.08,613.57,415.26Z" transform="translate(-60.12 -26.82)"/><path d="M795.17,665.38c-3,2-6,2-8.89,3.15-11.77-3.23-23.62-6.46-35.47-9.73Q717.89,649.7,685,640.58q-26.9-7.46-53.8-15-32.42-9-64.82-18.15c-18.87-5.34-37.74-10.69-56.55-16.24-38.61-11.39-76.89-23.83-115-36.77-3.47-1.18-6.93-2.37-10.32-3.73a18,18,0,0,0-10.3-1.08c-6.24,1.27-12.59.93-18.87,1.51-6.75.62-13.59,1.07-20.38,1.53-5.94.41-11.92,0.61-17.86,1.4-6.37.84-12.84,0.85-19.49,1.24,0-2.63,1.47-4.32,1.87-6.51,4.35-.46,8.45-1,12.56-1.31,6.45-.51,12.91-0.92,19.33-1.81,4.11-.57,8.27-0.31,12.42-1,5.39-.87,10.92-0.86,16.38-1.3,5.29-.43,10.61-0.74,15.86-1.51a15.43,15.43,0,0,1,7.82.64c19.66,7.26,39.27,14.67,59,21.73,26.46,9.47,52.94,18.93,80.09,26.35,30.46,8.32,60.85,16.92,91.3,25.28,21.79,6,43.65,11.75,65.46,17.65q35.86,9.69,71.7,19.43c11.87,3.2,23.78,6.29,35.65,9.48C789.64,663.18,792.4,663.63,795.17,665.38Z" transform="translate(-60.12 -26.82)"/><path d="M121,314.43c2.32-1.13,2.6-3.15,3-5.06a81.33,81.33,0,0,0,1.75-8.78,8.14,8.14,0,0,1,4.59-6.65c1.44-.8,2.58-2.14,4.53-2.42,4.42,1.08,6.49,5.92,11,7.49,2.06-2.59,1.84-6.35,4.46-9.15,5.47-.48,11.12-1.85,16.58-1.36,2.87,1.17,3.62,3.86,5.42,5.48,1.86-.33,1.55-2.58,3.92-3.42,4.2,0.66,9.3,1.17,14.33-1.24,5.24,5.95,4.74,12.71,4.2,19.52,4.36,2.36,8.19-1.22,12.38-1.49,3.15,3.25,4.44,7.6,7.6,10.73a25.05,25.05,0,0,0,7.46-2.14c4.54,0.52,8.46,2,11.3,5.7-1.57,5.64.69,11.46-1.08,17.09s-3.92,10.91-5.93,16.2c1.28,1.67,2.91,2.07,4.48,2.59a6.92,6.92,0,0,1,5.17,7.09A69.78,69.78,0,0,1,234.77,380c-1.06,5-4.58,7.95-7.67,10.88-4.52,2.08-8-.94-11.87-1.48-1.8.29-1.85,2.48-3.57,3l-7.28.53c3.73-9.71,11.2-10,19-8.25l6.44-3.67c2.18-4.62,2-10.06,3.22-14.77-1-5.92-5.92-6.05-9.63-7.28-1.86-1.81-1.26-3.52-.55-5.28q2.7-6.71,5.34-13.45a22.47,22.47,0,0,0,1.13-14.13c-1.05-4.25-2.91-6.95-7.53-7.33-2.38,1.34-4.28,3.59-7.46,4.69-4.71-2.44-5.42-8.33-9.31-12-5.68,2.35-11.54,4.68-18,3.93-3.48-3-3.72-4.91-1-8.36,1.75-2.21,4.31-3.69,5.82-6.41a16.44,16.44,0,0,0-2.83-7.71c-3.83-1.14-7.2,1-10.61,1-2.86,3.06.61,7.6-3.17,10.55-4.34-3.3-5.77-8.79-9.37-12.7-4.34,1-8.74.42-13.24,2.19l-4.27,10.55c-6.26.21-8.38-6.36-14-7.94-1.39.07-2.58,1.52-4.21,2.83-0.17,6.25,2.25,12.63.54,18.91-2.83,2.05-5.5,3.66-8.81,3-4.09-2-5.71-6-8.13-9.57-6.2,2.25-6.95,8.28-9.8,12.61,1,5.92,5.18,10.68,5.17,15.87-1.54,3.25-4.2,3.38-6.13,4.57-2.69,1.67-4.25,3.79-3.91,6.94,0.78,7.25,1.72,14.47,4.76,21.23,2.79,1,5.33.52,8-.13,2.36-.58,2.4-0.42,4.19,2.25-1.9,3.53-6.71,3.61-8.7,7.09-0.56,2.06-.39,3.94,1.22,5.39,1.85,1.32,4,.5,6.61,1.58,2.51,0.88,2.54,4.56,4.63,6.74,5,0.33,8-4.46,12.9-5.06,0.65,3.14-1.91,5-2.33,7.83,1.83,6.54,7.66,6.63,13,7.52,2.19-.86,1.39-3.76,4.11-5.13,2.47-.49,5.61-2.46,9-1.05,1.17,1.56-.42,2.78.31,4.77,4.05,3.51,9.83,2.47,14.42,3.82,5.58-2,8.84-7.67,15.27-7,0.65,2.51,1.76,4.74,1.26,7.36-3.84,2.66-7.94,3.59-12.63,3.84-8.62.45-16.09-1.6-22.53-7.34a2.63,2.63,0,0,0-2.8-.6c-1.53,1-1.54,3.52-3.63,5.63-3.85,2.11-8.67,1-12.65,1-6.12-2.63-6.08-8.25-8-12.67-2.38.11-4,2.21-7.11,1.37s-3.3-4.84-5.39-7.16c-2.41-1.09-5.22.08-7.73-2.19-2.71-3.64-3.23-8-.74-12.58-6.47-1.6-9.75-4.89-10.24-11.31a73.12,73.12,0,0,1,.39-16.42,11.82,11.82,0,0,1,6.49-9.37c1.16-.63,2.29-1.3,3.79-2.15-1.27-3.14-2.42-6.21-3.74-9.2-1.68-3.8-1.69-7.34.84-10.84,1.26-1.74,2-3.83,3.19-5.65,2.52-3.91,6-6.06,10.57-5.7C118.38,309.36,118.39,312.56,121,314.43Z" transform="translate(-60.12 -26.82)"/><path d="M977.21,624.16c-37.22-7.69-74.12-15.3-111-22.94-3.74-.77-7.48-1.6-11.13-2.67-3.25-1-3.5-1.55-3.78-5.39a8.86,8.86,0,0,1,2.54-3c7.83-7.22,15.81-14.28,23.48-21.66,10.06-9.68,21.05-18.43,29.39-29.82,2.46-3.36,5.55-4.52,10-3.66,7,1.34,14.17,1.64,21.24,2.56,10.38,1.36,20.87,1.26,31.25,2.72,4.42,0.62,8.95.67,13.41,0.94,6,0.36,12,.87,17.87,1.5,5.73,0.61,11.69-.13,16.88,1.92,1.58,1,1.95,2.27,2.45,3.53a7.34,7.34,0,0,1-.35,1.44c-1.56,3.36-4,6.1-6.24,9a121.6,121.6,0,0,0-11.08,17.76Q995.31,589.69,988.4,603c-2.75,5.32-5.53,10.64-7.12,16.46C980.69,621.63,979.85,623.57,977.21,624.16Zm-117-31.3c5.62,1.26,10.59,2.44,15.59,3.49,30,6.29,60,12.61,90.1,18.74,3,0.6,6,2.3,8.89,1,10.7-22.7,25.07-43,36.25-64.76-1-1.76-2.37-1.76-3.7-1.85-1.49-.11-3-0.15-4.47-0.34-9.36-1.22-18.72-2.48-28.08-3.71-6.73-.89-13.46-1.82-20.21-2.63s-13.49-1.77-20.26-2.21a103.44,103.44,0,0,0-21.56,1.11C893.28,556.4,877.73,575.32,860.21,592.85Z" transform="translate(-60.12 -26.82)"/><path d="M930.31,304.42c-1.47,3.36-2.09,5.94-3.57,8-1.81,1.33-3.7.94-5.5,1-8.5.07-17,0-25.5,0.14-25.81.35-51.63,0.64-77.42,1.31-20.48.53-41-.16-61.43,0.91-19.65,1-39.32,0-58.93,1-12.82.68-25.63,0.43-38.44,0.75-1.65,0-3.31,0-4.6,0-2.52-1.78-3.29-4.15-4.7-6a3.81,3.81,0,0,1,3.25-1c20.32,0.41,40.61-.93,60.92-1.29,17.47-.31,35-0.21,52.42-1.09,12.16-.61,24.31-0.09,36.43-0.83,16.14-1,32.32-.21,48.42-1.15,13.33-.78,26.65-0.08,39.93-0.91,11-.69,22-0.76,32.93-0.83C926.18,304.41,927.81,304.42,930.31,304.42Z" transform="translate(-60.12 -26.82)"/><path d="M1185.83,281.21a30.89,30.89,0,0,1,0,8.24c-0.88,1.1-1.92,1-2.9,1-16.64.16-33.27,0.87-49.91,1.24-14.81.34-29.65,0.1-44.41,1-13.49.84-27,0-40.42,0.94-13.65.95-27.3,0.33-40.92,1-5.31.27-10.61,0.66-15.93,0.71a14.54,14.54,0,0,1-5-.35c-1.89-2.2-1.52-4.56-.86-7.1a9.87,9.87,0,0,1,2.07-.4c10.17,0.38,20.27-1.13,30.42-1.08,12.65,0.07,25.27-1,37.91-1.33,8.13-.23,16.32-0.1,24.41-0.87,9-.86,18-0.21,26.92-1s17.66-.2,26.41-1,17.67-.1,26.42-1c7.66-.82,15.29-0.47,22.93-0.79A3.86,3.86,0,0,1,1185.83,281.21Z" transform="translate(-60.12 -26.82)"/><path d="M377.23,364.79a97.87,97.87,0,0,1,12.69-1.09c10.16-.1,20.25-1.16,30.4-1.26,10.64-.1,21.26-0.95,31.89-1.3,6.63-.22,13.29-0.35,19.91-0.8,15.26-1,30.54-1.33,45.8-2.14,7.47-.4,15-0.4,22.41-0.88,14.93-.95,29.89-1.25,44.8-2.16,9.29-.57,18.59-0.21,27.69-1.09,1.3,1.08,1.46,2.39,1.62,3.82a4.71,4.71,0,0,1-1.3.47c-11.45.51-22.85,1.67-34.29,2.27-9.6.5-19.2,1.32-28.81,2-9.77.66-19.53,1.36-29.3,2-9.44.64-18.86,1.46-28.31,2-11.09.6-22.15,1.83-33.22,2.69-5.13.4-10.29,0.59-15.41,0.87-7.3.39-14.56,1.3-21.89,1.43-6.28.11-12.55,1-18.83,1.6a4.27,4.27,0,0,1-.49.07c-7.66-.23-15.24,1.29-22.89,1.21a18,18,0,0,1-2.16-.3C376.58,371.2,377,368.26,377.23,364.79Z" transform="translate(-60.12 -26.82)"/><path d="M934.5,290.38a9.37,9.37,0,0,1-.95,5,4.12,4.12,0,0,1-3.2,1c-15,.4-29.94.7-44.89,1.22-14.3.5-28.64,0.08-42.89,1-12,.79-24,0-35.9.93-14,1.06-28,.08-41.9,1.06-12.15.86-24.31,0-36.4,1-13.47,1-27,0-40.4,1-14,1.11-27.93.09-41.73,1.15a2.45,2.45,0,0,1-1.61-2c1.3-1.28,3-1.34,4.64-1.3,14.15,0.37,28.26-.92,42.39-1.32,10.3-.29,20.63-0.3,30.9-1.08,7.32-.55,14.64-0.24,21.92-0.84,10.63-.87,21.3-0.37,31.89-1.17,7.65-.58,15.31-0.18,22.91-0.88,9.47-.87,19-0.25,28.4-1.07,9-.78,18-0.26,26.91-0.95,13.43-1,26.88-1.34,40.33-1.71,11.47-.32,22.9-1.64,34.39-1.18C930.94,290.44,932.58,290.38,934.5,290.38Z" transform="translate(-60.12 -26.82)"/><path d="M257.29,312.74c-1.18,7.8,1.59,14.13,4.32,20.75,4.32-1.34,4-7,8.41-7.73a3.29,3.29,0,0,1,2.73,2.44c-0.06,2.72-2.19,3.93-4.86,5.82a84,84,0,0,0,16.94.21c5.31-.36,10.52-0.92,15.85,0s10.91-1,16.52,1.75c-1.64,10.28-6.44,18.41-15.23,25.28h20.76c1.4,1.37,1.45,2.4.49,3.84H242.94a2.62,2.62,0,0,1-.16-3.29c3.31-1,7,.15,11-0.79-3.41-3.94-7.22-7.27-8.89-12.11-1.19-3.44-3-6.67-3.65-10.57,2.71-5.47,8.22-1.47,12.17-3.63-1-2.23-3.91-4-3.14-7,0.93-2.2,2.94-1.91,4.92-2.14-0.88-4.4-1.61-8.64-.88-13.5,4.07-6.39,10.78-8.81,18.28-9.58a8.1,8.1,0,0,1,6.67,2.93A13.34,13.34,0,0,1,282.76,317c-1.72,1.74-3.19,1.8-5,.42-1.42-3.59-.6-8.69-5.76-10.81C266.7,307.3,261.47,308.59,257.29,312.74ZM312,339.42c-11.21-.09-22.09,1.16-33,1.08s-21.71-1.84-32.65-.64c1.3,8.95,6.4,15.71,14.66,21.32H295.5C303.08,355.37,310,349.65,312,339.42Z" transform="translate(-60.12 -26.82)"/><path d="M130.86,161.54c8.07,1.93,29,9.62,32.65,12,0.89,1.33.65,2.86,0.69,4.34,0.08,3-.1,6,0.63,8.94a10.08,10.08,0,0,1,.09,3.48c-1.48,13.11-.6,26.26-0.81,39.39a25.28,25.28,0,0,0,.6,5.44c0.49,2.41.88,4.92-.21,7.07-1.68,1.71-3.59,1.38-5.38,1.38-8.33,0-16.65,0-25-.1-5.36-.05-6.34-1.25-7.22-6.68a97.44,97.44,0,0,1-.8-13.42c-0.41-17.12-1.57-34.23-1-51.38,0-1.16,0-2.33,0-3.5C125.38,164.2,126.25,163.16,130.86,161.54Zm2.58,8.48c-1,4.92.7,9.11,0.67,13.43-0.11,15.81,0,31.61,0,47.42,0,1.76-.59,3.67.78,5.22,8.22,1.32,16.43,1.5,25,1.57,0.22-4.77,1.22-9.1,1.31-13.61,0.21-10.32-1.23-20.57-1-30.88,0.08-4.49,0-9,0-13.48,0-1.29.33-2.69-.94-3.88C150.77,174.06,142.36,171.46,133.43,170Z" transform="translate(-60.12 -26.82)"/><path d="M266.86,396.94c1.82,16.33,4.81,32.6,5.41,49.73-12.85,2-25.22,4-37.64,5.71-12.24,1.71-24.41,4.06-36.67,5.18-1.19-5-4.84-54.19-4.31-57.84,4.64-.41,9.39-1.22,14.14-1.19,11.49,0.08,22.92-1.09,34.39-1.4,6.45-.17,12.94-0.57,19.41-0.76C263.23,396.32,264.9,396.07,266.86,396.94Zm-69.77,8.14,5.35,46.69a6,6,0,0,0,4.75.55c18.85-3.55,37.87-6.19,56.5-10,0.79-5.92-1.42-37.08-2.82-40.59a36,36,0,0,0-11.81,0c-7.92,1.31-15.91.82-23.85,1.46-8.58.69-17.21,1.62-25.87,1.41A12.49,12.49,0,0,0,197.09,405.08Z" transform="translate(-60.12 -26.82)"/><path d="M105,219.5c-0.84,1.91-2.23,1.92-3.56,1.87-7-.27-13.95.34-20.94-0.63-4.21-.58-8.56-0.11-13.13-0.11-0.4,3.82-1,7.25-1.06,10.68-0.14,21.82-.14,43.65-0.17,65.47,0,1,.13,2,0.23,3.51,15.7-3.6,31.07-7.18,45.88-11,1-23.26-.7-45.59,1-67.88a1.85,1.85,0,0,1,.68-0.65c1.31-.11,1.74.82,1.87,1.82a32.72,32.72,0,0,1,.15,4c0,18.33,0,36.65,0,55,0,3.36-.76,6.55-1.13,9.72-3.8,2.19-7.82,2.7-11.61,3.84-11.14,3.35-22.38,6.35-33.55,9.59-2.62.76-5.11,1.25-7.15,0.38A4.87,4.87,0,0,1,61,300.85c0.44-15.32-1.1-30.6-.88-45.92,0.16-11.33,0-22.66,0-34,0-2.15-.27-4.38,1.55-6C68.35,213.66,100.21,217,105,219.5Z" transform="translate(-60.12 -26.82)"/><path d="M448.86,215.45l39,8.48c1.49,1.52,1.14,3.26,1.16,4.89,0.06,4.82.23,9.66,0.06,14.47-0.34,9.65,1.26,19.23.93,28.88-0.07,2.19.09,4.39-3.12,6.29-13.05-1-27-2.53-40-4.16-2-1.86-1.84-3.41-1.83-4.89,0.05-14.81,0-29.62.24-44.42C445.33,221.63,445.25,218,448.86,215.45Zm33.6,56c1.58-8.41,2.12-39,.89-43.7-3.85-1.26-25.67-4.44-30.76-4.49-0.85,5.74-.78,41.06.18,45Z" transform="translate(-60.12 -26.82)"/><path d="M489.11,389.56c-1.4,11.58-1.75,23.54-3.84,35.35-1.38-3.52.08-7-.14-10.52-0.24-3.82,0-7.66.06-11.49,0.08-3.62.27-7.23,0.42-11-2-.83-4-0.53-5.91-0.35-32.33,3.18-64.66,6.42-96.79,9.63a7.72,7.72,0,0,0-.67,1.92c0.17,9-1.17,17.94-1,26.92,0.18,11-1.25,21.93-1.08,32.92,0,1.63-.39,3.32.49,5,1.36,0.85,2.86.51,4.32,0.33,6.91-.88,13.81-1.87,20.73-2.66,1.83-.21,4.07-0.79,5.16,1.55-0.16,1.91-1.47,2.16-2.82,2.4-7.35,1.3-14.69,2.72-22.07,3.86-2.58.4-5.12,1.75-8.47,0.51-0.63-12.81-.25-25.89-0.33-39s0-26.27,0-39.93c4.3-.52,8.2-1.38,12.1-1.4,8.66,0,17.27-1,25.91-1.38,10.95-.48,21.89-1.32,32.84-2,10.78-.63,21.53-1.75,32.34-1.88C483,388.33,485.84,386.34,489.11,389.56Z" transform="translate(-60.12 -26.82)"/><path d="M385.42,175.19c16.13,2.55,32.44,6.83,48.24,9.93,2.3,2.05,2.41,4,2.4,6.06,0,6.82,0,13.64,0,20.46-0.05,5.43-1.86,7.23-7.38,6.74-5.27-.47-10.51-1.41-15.75-2.21-8-1.22-16-2.56-24.06-3.72a26.31,26.31,0,0,1-5.43-1.49,7.65,7.65,0,0,1-2.3-5.69c0-7.65,0-15.31.08-23C381.24,178.91,381.67,178.35,385.42,175.19Zm2.92,7.14v23c13.42,2.35,26.74,4.37,40.08,6.18,1.06-5.59.93-16.52-.23-20.66Z" transform="translate(-60.12 -26.82)"/><path d="M215.41,150.88c-0.33-2.36-.74-4.31.54-6.52,2.22,0.61,4.45,1.16,6.63,1.85a113,113,0,0,1,11.83,3.94c5.31,2.34,10.56,2,16,1,13.08-2.3,26.18-4.42,39.28-6.62,4.06-.68,7.92.6,11.84,1.23a19.63,19.63,0,0,1,4.43,1.25c-9.09,2.32-18.45,3.36-27.68,5-9.46,1.72-19,3-29.18,4.57,1.74,2.2,3,4.07,4.54,5.71,5.77,6.23,11.64,12.37,17.43,18.57q22.33,23.9,44.59,47.87c2.25,2.44,4.38,5,6.67,7.42,1.31,1.38,1.26,1.42,1.43,4.4a1.18,1.18,0,0,1-.37.2,0.65,0.65,0,0,1-.48-0.08c-10-10-20.1-20-29.94-30.14-17.12-17.71-34.08-35.58-51.29-53.57Z" transform="translate(-60.12 -26.82)"/><path d="M377.69,384.18c-0.8-1.78-.78-2.86.31-4a4.89,4.89,0,0,1,1.64-.49c6.51,0.19,12.93-.86,19.39-1.32,7.11-.51,14.25-0.65,21.34-1.63,4.92-.68,9.95-0.74,14.9-1,6.8-.36,13.61-0.9,20.38-1.47,10.74-.91,21.54-1.17,32.25-2.58,4.93-.65,9.95-0.65,14.91-0.94,6.8-.4,13.61-1,20.38-1.51,6.44-.52,12.94-0.38,19.36-1.5,4.56-.8,9.28-0.7,13.9-1,6.64-.38,13.28-0.88,19.88-1.47s13.25-.63,19.86-1.49,13.24-.88,19.65-1.26a2.94,2.94,0,0,1,1.78,2.59,3.34,3.34,0,0,1-1,.89,11.3,11.3,0,0,1-2.45.36c-11.44.74-22.89,1.27-34.31,2.23q-19.6,1.66-39.22,3c-8.77.62-17.53,1.42-26.32,2-10.43.65-20.81,2.12-31.24,2.62-6.48.31-13,.81-19.38,1.43-6.61.63-13.27,0.42-19.85,1.54-4.57.78-9.28,0.68-13.9,1-6.46.4-12.93,1-19.38,1.48-6.61.54-13.27,0.46-19.84,1.58C386.44,383.92,382.05,383,377.69,384.18Z" transform="translate(-60.12 -26.82)"/><path d="M158,416.36c-1.26,7-3.68,13.68-2.67,20.58,5,4.92,13.73,5.91,21.41,2.3,1.2-6.3.36-12.84-.48-19.14a3.58,3.58,0,0,1,4.31-1.29,8.54,8.54,0,0,1,.83,1.13c2.48,4.79,3.57,10,4.5,15.24,0.82,4.6-.16,9-3.83,11.88a1.19,1.19,0,0,0,.29,1.61c3.19,4.8,1.44,8.6-4.23,8.77-6,.18-12,0.11-18,0-5.09-.07-6.53-1.8-5.93-6.83a19.77,19.77,0,0,1,.48-2.05c-3-1.84-6.17-3.54-7.5-7.66-1.48-9.39,2.72-17.85,6.44-26.27C155.61,414.41,156.66,415.19,158,416.36Z" transform="translate(-60.12 -26.82)"/><path d="M1062.8,320.81a33.52,33.52,0,0,0-10.34-1.35q-25,0-50-.15c-1.79,0-4.05.72-5-1.73,0.9-1.51,2.19-1,3.26-1,12.17,0,24.35-.35,36.49.16,7.14,0.3,14.3.92,21.43,0.64,7.39-.28,14.74,7.19,15.41,14.38,0.06,0.66,0,1.33.06,2,1.14,24.46,1,48.95,1,73.43,0,10.67,0,21.33-.07,32,0,1.46.77,3.43-1.41,4.06-1.54-.38-1.5-1.49-1.46-2.45,0.39-10-1.21-19.92-1-29.92,0.3-16.65-1-33.27-1.28-49.92-0.13-8.12-.28-16.3-0.89-24.42C1068.49,330.76,1068.22,324.72,1062.8,320.81Z" transform="translate(-60.12 -26.82)"/><path d="M424,267.47c-7.72,0-16,.1-24.35,0-3.75-.06-5.37-1.83-5.55-5.63-0.14-3.16,0-6.33,0-9.49,0-7.16,0-14.32,0-21.48,0-1.65-.26-3.34.45-4.89a6.05,6.05,0,0,1,3.92-2.38c7.83,1.37,15.34,2.66,22.85,4,2.18,0.39,4.19,1.13,5.51,3.45,0.58,4.07.22,8.4,0.29,12.71,0.09,6,0,12,.08,18C427.2,264,426.89,266,424,267.47Zm-2.14-34.76c-6.91-.82-13.51-1.94-20.87-2.14,0.1,10.46-.38,20.45.34,30.56,7.12,0.57,13.7,0,20.53,1V232.71Z" transform="translate(-60.12 -26.82)"/><path d="M292.78,235.85c-10-1.56-61.57-7-66.82-6.19-1.42,1.67-.78,3.75-0.79,5.66,0,23.16,0,46.32,0,69.49,0,1.74.41,3.59-.54,5.13a1.79,1.79,0,0,1-2.28-1.72,28.42,28.42,0,0,1-.12-3.49q0-36.24,0-72.49c0-2.26-.59-4.79,2.37-6.43,11.7,1.19,23.73,2.42,35.77,3.63,11.81,1.18,23.65,2,35.14,3.74,1,6.36.62,84.21-.29,88.54-3.7,1.11-28,1.21-32.55.14,0-1.19.88-1.29,1.69-1.27,3.82,0.1,7.62.1,11.45,0.43,5.77,0.49,11.62.13,17.48,0.13,1.29-1.16.85-2.76,0.85-4.19q0-36.74-.11-73.49A29.74,29.74,0,0,0,292.78,235.85Z" transform="translate(-60.12 -26.82)"/><path d="M186.62,320.48c5.6,1.13,10.92-2,16.4-.83a9.75,9.75,0,0,1,4.18,3.46,49.43,49.43,0,0,1,2.66,4.22c3.28,0.07,6-2.61,9.93-1.46,4.51,2.81,4.93,7.81,4.14,12.84a73.18,73.18,0,0,1-4.27,15.34,8.5,8.5,0,0,1-4.56,5.18c-4.33.09-6.69-3.94-10.45-5.37a8.36,8.36,0,0,0-4.29,5.58c0.44,1.6,1.57,1.84,2.77,1.89a24.54,24.54,0,0,0,5.44-.47c9.25-1.67,15.37,2.07,18.36,11.13a11.21,11.21,0,0,1-6.9,8.48c-4,1.67-5.56,1.08-7.74-3.22,0-3.69,3-4.85,5.36-6.17,1-2.62.49-4.52-1.14-5.81-5.75-3.07-12.33-.38-17.57-3.63-1.56-5.93.26-9.72,5.67-12.06,3.44,0.48,5.49,3.59,9.18,4.89,3.52-7.72,1.76-16.28,4.48-24.48-4.59,0-7.59,2-10.52,5.23A26.12,26.12,0,0,1,206,330c-1.41-5-3.55-8.13-9.38-7.67a5.61,5.61,0,0,1-2.47-.18C191.73,321.19,189,321.78,186.62,320.48Z" transform="translate(-60.12 -26.82)"/><path d="M404.29,145.54a6.44,6.44,0,0,1,2.69-4.06c8.61-.8,16.64,4,25.56,5.06,2.73,7.91.93,15.59,1.64,22.52-1.37,3.27-3.54,3.78-6,3.15-5.31-1.33-10.61-2.71-15.86-4.28a7,7,0,0,1-5.3-6C406.2,156.56,405.23,151.18,404.29,145.54Zm9.22,15.23c4.45,2,8.57,3.34,13.37,3.5a40.1,40.1,0,0,0-.25-11.69,61.79,61.79,0,0,0-14.38-3.77C411.7,153.08,413.36,156.65,413.5,160.77Z" transform="translate(-60.12 -26.82)"/><path d="M499.6,224.59c5.81,0,11.93,0,18,0,1.43,0,2.35,1.11,3.22,2.47,0,9.93,0,20.05,0,30.17a5.11,5.11,0,0,1-2.11,3.86,48.21,48.21,0,0,1-17.07-1,4.4,4.4,0,0,1-2.46-4.23c0.35-9-1.39-17.88-1.11-26.86A5.42,5.42,0,0,1,499.6,224.59Zm14.9,30.36c0.55-2.66,1.25-22.25.81-24.31-3.74-.75-7.53-2-11.72-0.35a83.15,83.15,0,0,1,.51,12.53,40.83,40.83,0,0,0,1.47,12.13c2.11,0.85,4.12.44,6.09,0.54A3.69,3.69,0,0,0,514.5,254.95Z" transform="translate(-60.12 -26.82)"/><path d="M451.05,180.16a4.93,4.93,0,0,1,4.17-.44c9,2.57,18.48,3.43,27.55,6.62,0.92,9.28,2.64,18.17,2.16,27.73-6.27.4-11.55-1.7-17-2.63a110.86,110.86,0,0,1-15.8-3.58C450.08,202.39,449.41,185.56,451.05,180.16Zm27.61,9.25c-9.47-2.91-20.51-4.94-24.22-4.41-1,6.55.79,13,.82,19.78,8.78,1.4,16.87,4.08,26,4.58C479.82,202.36,480.62,195.84,478.67,189.41Z" transform="translate(-60.12 -26.82)"/><path d="M400.25,280.84c11.92-1.06,22.87.52,34.41,1,0.14,7.5,2,14.4,1.14,21.53-3.53,1.78-7.1,1.56-10.46,1.91-6.43.67-13-.3-19.38,1a5,5,0,0,1-4.43-1.49C399.65,297.26,400.13,289.37,400.25,280.84Zm5.15,20.89c8.75-.65,17.52.46,26.42-1.79,0.52-4.83-1.13-9.4-.85-14.5-9.21.21-17.81-2-26.56-.46A54.54,54.54,0,0,0,405.41,301.73Z" transform="translate(-60.12 -26.82)"/><path d="M494.1,271.12c1-.49,1.69-1.12,2.18-1,6.93,1.65,14.08,1.08,20.89,1.74,1.19,3.81,1.45,23.5.54,30.14a4.08,4.08,0,0,1-4.23,1.8c-4.29-.41-8.57-0.68-12.84.46-2.21.59-2.58,0.22-5.5-2.41C495.55,291.8,494.25,281.45,494.1,271.12Zm19.82,27.8c0.09-7.53.12-14.74,0-22.89-5.22,1.4-9.74-1.32-14.85-.18,0.41,8-.92,15.81,1.46,23.43C505,299.23,508.92,299.62,513.92,298.93Z" transform="translate(-60.12 -26.82)"/><path d="M227.44,555.77c1,1.73.91,3.14,0,5-4.44,1.25-9.28.63-14,.67s-9.52,1.54-14.26.93l-43.9,29.7c-3-.61-3.62-2-2.64-4.58,2.31-1.55,4.89-3.34,7.53-5,11.19-7.16,22.48-14.16,33.53-21.53a21.06,21.06,0,0,1,9.78-3.21C211.36,556.85,219.29,556.4,227.44,555.77Z" transform="translate(-60.12 -26.82)"/><path d="M102.59,272.77c-7,2.29-14.45,2.9-21.52,4.34-1.76-.67-2-2-1.93-3.36,0.4-10.66-1.33-21.25-1-31.91,0-1.15.13-2.31,0.19-3.38,5-2.7,19.64-2.64,24.19.07a10.88,10.88,0,0,1,1.43,6.66c-0.68,6.14.27,12.25,0.07,18.38A35.86,35.86,0,0,1,102.59,272.77ZM81.51,240.56c-0.62,5.68.49,29.54,1.41,32.62,4,0.25,13.11-1.48,16.85-3.22,2.54-4.76-.39-9.78.52-14.61s0.22-9.76-.58-14.79H81.51Z" transform="translate(-60.12 -26.82)"/><path d="M481.34,289.31a3,3,0,0,1,.86,2.26c0,5.65,0,11.3,0,16.36-1.8,2.5-3.84,2.52-5.84,2.39-7.83-.49-15.85,1.27-23.39-1.19-1.31-3.69-.72-6.88-0.87-10s0.16-6.28-.74-9a2.89,2.89,0,0,1,2.7-1.75C461.49,287.78,478.19,288.32,481.34,289.31Zm-24.64,16.14c4.39,1.25,17.37,1.21,21.34-.08,0-4.15.66-8.39-.36-12.52-6.63-.91-18-0.64-21.49.51,0,3.41,0,6.88,0,10.35A6.72,6.72,0,0,0,456.69,305.46Z" transform="translate(-60.12 -26.82)"/><path d="M198.45,381.73c4.2,4.05,4.58,6.1,2.11,11.26a15.4,15.4,0,0,1-6.48.24c-2-1.35-1.48-3.51-2.45-5.3-3.57-1.65-7.26-2.46-11.35-.26,0.48,4,1.73,8-1.13,11.84-3.76,2.43-5.3,2.44-8.63-.16-3.69-2.88-5.54-6.72-6.41-12.36,3.27,3.93,5.24,7.87,9.89,8.36,2.51-2.75,2.09-6,2.12-8.88C179.56,382.34,188.18,380.55,198.45,381.73Z" transform="translate(-60.12 -26.82)"/><path d="M546.34,386.25L513.18,389c-1.42,1.86-1.13,3.23-1.18,4.54-0.24,6.47.35,13-.7,19.43-0.41,2.49-.07,5.11-0.48,7.68-0.81-11.08-2.38-22.11-1.65-33.14a6,6,0,0,1,4.66-1.92c11.75,0,23.38-2.67,35-2.1,2,3.38,1.55,6.74,1,9.64-1.55,7.57.54,15.47-1.7,22.9-2.06-.16-2-1.28-2-2.24,0.19-5.14-.16-10.28.58-15.44C547.28,394.56,547.67,390.54,546.34,386.25Z" transform="translate(-60.12 -26.82)"/><path d="M121.8,361c2-4,2.62-8.58,7.2-11.41,3.8-.4,8.14-0.67,12.42.92-1.52,1.39-3.29.87-4.94,0.86-7.49,0-9.82,2.32-10,10.22,1,1.17,2.45.73,3.73,0.83s2.31,0.14,3.19.19c2.38,1.43,2.17,3.93,3.25,5.84,1.7,1.31,3.54,2.33,5.76,1.66,2.21-1.15,2.28-3.63,3.58-5.44,1.79,4.47,1.35,7.26-1.24,8.86-2.9,1.78-6.72.89-10.18-2.34-1.33-2.25.63-5.1-1.57-7.32-2.77.37-5.09,2.51-7.6,2.3-2.1-.4-2.24-2.35-3.61-3.15-2.59,0-4.94,2-7.83,1.08-6.27-4.3-6.74-11.56-.91-19.08,2.19-.91,4.59-1.9,7.54-1.3-7.28,4.72-9.23,10.22-5.76,16.39C116.89,360.37,118.95,361.81,121.8,361Z" transform="translate(-60.12 -26.82)"/><path d="M144.72,389.43c4,2.42,7,.08,10.23-1.64,0.14,2.79-1.28,4.45-2.1,5.94-3.64,3.2-7.19,2.84-11,1.17-4-1.74-3.41-6.26-5.79-9-2.3-.9-4.17.57-6.13,1.23s-4,1.8-6.43,1c-3.29-1.72-2.48-4.82-2.23-7.75,1.26-2.58,3.34-4,6.62-5-1.44,2.62-3.29,4.51-2.37,7.61,3.8-1.32,7-3.86,11-4.35C142.79,379.51,142.86,385.13,144.72,389.43Z" transform="translate(-60.12 -26.82)"/><path d="M323.71,209c-10.21-10.75-20.06-21.11-29.9-31.49-1.22-1.28-2.91-2.34-2.6-4.23a2.87,2.87,0,0,1,2.55-1.82c10-1.21,19.79-3.63,29.68-4,1,2.13.06,2.69-1.26,2.88-7.56,1.07-15.11,2.13-22.68,3.13a7.88,7.88,0,0,0-3.71,1.23c0.33,1.74,1.73,2.5,2.71,3.55q11.67,12.33,23.42,24.59C323.52,204.48,324.7,206.12,323.71,209Z" transform="translate(-60.12 -26.82)"/><path d="M119.48,575.44L95.86,588c-1.9-3-2-6-1.54-9.32,7.44-3.73,14.9-7.26,22.72-10.52A15,15,0,0,1,119.48,575.44Z" transform="translate(-60.12 -26.82)"/><path d="M1007.19,490.76c0.47,1.58-.26,2.75-0.47,4.39L963,490.89a4.39,4.39,0,0,1,.94-4.14Z" transform="translate(-60.12 -26.82)"/><path d="M178.85,545.81c-10.92,6.45-22,11.66-32.93,17.27-0.92-3.14-.92-3.14-0.45-6.47,3.09-2.5,7.09-3.38,10.66-5.09,4.65-2.22,9.47-4.08,14.18-6.18C173.09,544.1,175.73,544.22,178.85,545.81Z" transform="translate(-60.12 -26.82)"/><path d="M172.5,309.25c4.34-2.68,8.34-5,10.81-9.62,0.37,5.07-4.42,11.29-8.67,11.69-2.38.22-4.07-1-5.5-2.79-2.34-3-4.22-6.4-7.31-8.64-2.31-.85-4-0.17-5.44,1.93l-1,6.22c2.27,2.8,7,2.45,8.58,6.35-1.33,1.53-2.78,1.27-4.16.73-4.77-1.85-8.36-8.37-7.48-13.44a7.25,7.25,0,0,1,5.9-6,21.42,21.42,0,0,1,3.9,0C167.66,298.45,168.08,305.12,172.5,309.25Z" transform="translate(-60.12 -26.82)"/><path d="M201.47,369.83c1,2.16.23,3.6-1,5.43-5.44,2.37-11.12,1.53-16.23-1.47-3.79-2.23-3.8-6.68-3.79-10.7a13.86,13.86,0,0,1,.92-3.24c2.42,3.76,4.89,7,8.5,9.1S197.16,373,201.47,369.83Z" transform="translate(-60.12 -26.82)"/><path d="M150.26,314.67l-11.61-6.15c-1.29,4.49.54,8.05,1.4,11.15,2.81,3.07,6.33,2.63,9.09,4.07-0.61,1.25-1.84.59-2.76,0.87s-1.93.45-2.28,0.53c-6-.31-8.34-3.53-9.28-8.56a44.1,44.1,0,0,1-.71-8.38,4.38,4.38,0,0,1,2.78-4.45C143,304.58,146.32,309.15,150.26,314.67Z" transform="translate(-60.12 -26.82)"/><path d="M322.4,429.6c0.82,1.39.82,2.18,0.5,3-5.34,1.93-23.11,2.66-28.39,1.11,0-2.09,1.42-2.82,3.15-3.05,1.47-.19,3-0.09,4.47-0.16,5.28-.25,10.6.34,15.86-0.85A20.64,20.64,0,0,1,322.4,429.6Z" transform="translate(-60.12 -26.82)"/><path d="M267.69,551.91a7.89,7.89,0,0,1-.1,5.31c-2.44,1-12.7,2-16.9,1.61-0.77-.95-0.23-1.88.09-2.78s0.31-1.65,1.14-2.23C257,552.64,262.23,552.51,267.69,551.91Z" transform="translate(-60.12 -26.82)"/><path d="M636.16,548.8c1.62,3.62.52,5.31-1.93,6.42-5.12-.89-54.89-16.28-62.24-19.55C593.33,540.51,615,543.88,636.16,548.8Z" transform="translate(-60.12 -26.82)"/><path d="M827.6,542.28a15.06,15.06,0,0,1,4.32-4.92A267.76,267.76,0,0,0,853.22,518c1.44-1.48,2.77-3.49,5.36-2.06,0.36,2.07-.91,3.15-2.14,4.26-6.38,5.79-13.24,11-20.15,16.09C833.79,538.14,831.67,540.53,827.6,542.28Z" transform="translate(-60.12 -26.82)"/><path d="M865.3,426.35c-1.92-1.27-2.34-3.13-3-4.79s-0.91-3.22-1.61-4.71c-3.59-7.65-2.84-15.12.61-22.59a186.42,186.42,0,0,1,9.22-17.12,2.19,2.19,0,0,1,1-.3,2.94,2.94,0,0,1,.41,1.29c-1.77,7.44-2.49,15.06-3.48,22.6-0.79,6.06-.28,12.3-0.35,18.46,0,1.5,0,3-.08,4.49A2.65,2.65,0,0,1,865.3,426.35Z" transform="translate(-60.12 -26.82)"/><path d="M727.73,408.76c-6.35-6-3-25.24,2.53-34.07a2.23,2.23,0,0,1,.81.42C730.54,386.12,729.17,397,727.73,408.76Z" transform="translate(-60.12 -26.82)"/><path d="M1130.09,436.44c0.21,1.67-1.55,2.52-1.72,4,2.93,9.6,5.37,14.31,9.15,17.51,4.36-1.22,6.65-5.16,10-8.23-1.76,5.71-5.88,10.54-10.4,12.38-3.39-.49-4.53-3.22-5.44-5.87-1.35-3.92-2.39-8-3.53-11.94a2.76,2.76,0,0,0-1.61-2.25c-6.49,8.14-13.82,15.76-19.36,24.9-0.13-2.26,1.34-4,2.18-5.86,0.94-2.13,2-4.21,3.07-6.28,1-1.91,1.8-3.93,3.38-5.5a54.18,54.18,0,0,1,5.28-4.56,16.79,16.79,0,0,0,5-5.08c-2.46-6.95-7.33-13-9.24-20.56,3.82-1,4.34,1.24,5,3,1.2,3.45,2.2,7,3.28,10.46a15.49,15.49,0,0,0,2.55,5.43l2.55-1.53Z" transform="translate(-60.12 -26.82)"/><path d="M1165.68,461.73c5.16-3.58,7.68-9.38,11.85-13.77-1.95,5.66-4.32,11-8.14,15.65-1.56,1.88-3.54,2.34-6.24,1.45-5.56-4.54-6.71-11.58-8.71-18.11,1.21-6.48,8.4-21.38,12-24.9,1.15,0,1.78.71,2.23,2.23-2.09,3.37-4.35,7-6.63,10.66a25.35,25.35,0,0,1-2.51,3.72c-4.44,4.87-3.87,9.9-.59,15C1160.71,456.4,1161.68,459.8,1165.68,461.73Z" transform="translate(-60.12 -26.82)"/><path d="M1130.11,436.45c1.33-4.46,3.65-8.5,5.51-12.73,0.85-1.93,2.21-3.76,4.75-4.17,2.71,0,4.13,2,5.05,4,3.08,7,4.73,14.4,6.92,21.85-1.88-.19-1.85-1.44-2.15-2.35a98.3,98.3,0,0,0-6.36-15.13c-0.84-1.6-1.53-3.35-3.39-4.25-2.13.19-2.71,2.12-3.85,3.47-2.44,2.89-3.42,6.81-6.5,9.24Z" transform="translate(-60.12 -26.82)"/><path d="M1011.62,434a13.47,13.47,0,0,1-6.22,0,12.56,12.56,0,0,0-2.94-.47c-7.68.32-15.29-.76-22.9-1.32-13.06-.95-26.19-1.18-39.28-2.93-2.49-5.58-1.9-11.47-3.29-17.45,8.9-1.15,17.28,1.13,25.7.62s16.65,0.54,24.89,1.28,16.94-.44,25.06,1.88A45.89,45.89,0,0,1,1011.62,434Z" transform="translate(-60.12 -26.82)"/><path d="M997,557.86c1.63,2.27,1.14,3.87-.11,5.46-1.86,2.34-3.5,4.88-5.54,7-2.68,2.85-4.4,6.22-6.14,9.64-4.08,8-8.23,16-12.32,24-1.08,2.11-2.3,4.05-4.24,5-2.86,1.12-5.25-.15-7.61-0.67-26.91-5.85-53.78-11.86-80.68-17.79-2.71-.6-5.12-1.44-6.07-4a3.81,3.81,0,0,1,1.48-3.36c11.26-10.71,22.78-21.11,34.8-31-8.74,11.09-18.51,21.24-28.66,32.58l83.82,16.6c9.57-14.16,20.61-27.32,26.85-43.16a14,14,0,0,1,2.48-.63A8.94,8.94,0,0,1,997,557.86Z" transform="translate(-60.12 -26.82)"/><path d="M151.12,226.2c-3.12-1.31-6.75-.12-9.49-1.05a4.23,4.23,0,0,1-1.54-3.69c0-3.15-.16-6.31,0-9.46,0.32-7.31-.73-14.56-0.84-21.84,0-1.77-.52-3.7,1.53-5.55,4,0,7.8,1.87,12,3.53,0.43,4.36,1.06,8.6,1.21,12.85,0.22,6.63.1,13.28,0.16,19.92C154.1,223,154,224.94,151.12,226.2Zm-7.28-4.14c2.41,0.28,4.6.92,7.2-.43-1.35-10.17-.58-20.41-1.06-30.57a10.51,10.51,0,0,0-6.47-2.18C142.83,194.07,143,217.51,143.84,222.06Z" transform="translate(-60.12 -26.82)"/><path d="M210.38,443.28a4.54,4.54,0,0,1-3.27-4.28c-0.87-7.91-1.82-15.81-2.79-23.71a5.4,5.4,0,0,1,1.19-4.3,8.19,8.19,0,0,1,4.6-1.4c6.34,0.22,12.59-1,18.9-1.23,7.12-.29,14.22-1.12,21.33-1.7a11.47,11.47,0,0,1,6.21.64c3.41,8.7,2.57,18.55,4.58,27.63a12,12,0,0,1-6.67,2.49c-11.83,1.59-23.65,3.22-35.49,4.78C216,442.58,213,442.49,210.38,443.28Zm43.52-30.41c-13.39-2-24.41,11.94-25,23.71L256,433C256.5,426,254.91,419.59,253.9,412.87Z" transform="translate(-60.12 -26.82)"/><path d="M476.11,266.44c-5.89-1-12.22-.58-17.83-1.91A5.75,5.75,0,0,1,456.2,260q-0.05-13.72-.09-27.44a3.61,3.61,0,0,1,1.37-2.88c6.82-.22,13.95,1.34,21.66,2.67,0,10.66.16,20.75-.25,30.85C478.83,264.43,477.91,265.3,476.11,266.44Zm-15.89-32.63c0,9.15-.47,18,0.41,27.28l14,0.76c0.9-7.71.7-22.55-.31-26C469.88,234.54,465.26,234.43,460.22,233.81Z" transform="translate(-60.12 -26.82)"/><path d="M423.35,194.13c1.92,7.62,1.89,8.81-.33,12.32l-28.77-5.1a4.19,4.19,0,0,1-1.89-3.7c0.17-4.85.82-7.65,2.5-10.09C404.31,189.75,414,191.45,423.35,194.13Zm-27.94,5c8.95,1.43,17.4,3.53,26.47,4.38,0.19-2.75.67-5-.66-7.55l-25.43-5.61C394.75,193.4,395,196,395.41,199.08Z" transform="translate(-60.12 -26.82)"/></svg>