<?xml version="1.0" encoding="utf-8"?>
<!-- Generator: Adobe Illustrator 19.2.0, SVG Export Plug-In . SVG Version: 6.00 Build 0)  -->
<svg version="1.1" id="Слой_1" xmlns="http://www.w3.org/2000/svg" xmlns:xlink="http://www.w3.org/1999/xlink" x="0px" y="0px"
	 viewBox="0 0 724.97333 386.54071" style="enable-background:new 0 0 724.97333 386.54071;" xml:space="preserve">
<style type="text/css">
	.st0{fill:#BB9F64;}
	.st1{fill:#BCA167;}
	.st2{fill:#BBA064;}
	.st3{fill:#BB9F65;}
	.st4{fill:#BCA065;}
	.st5{fill:#F4EFE5;}
	.st6{fill:#BBA065;}
	.st7{fill:#BCA066;}
	.st8{fill:#BCA064;}
	.st9{fill:#BCA166;}
	.st10{fill:#BDA167;}
	.st11{fill:#BCA168;}
	.st12{fill:#F8F5EE;}
	.st13{fill:#BDA168;}
	.st14{fill:#BFA46B;}
	.st15{fill:#BDA268;}
	.st16{fill:#BEA46D;}
	.st17{fill:#BEA46C;}
	.st18{fill:#BDA36A;}
	.st19{fill:#BFA46D;}
	.st20{fill:#C0A770;}
	.st21{fill:#C0A66F;}
	.st22{fill:#BEA36B;}
	.st23{fill:#C7B07F;}
	.st24{fill:#C1A871;}
	.st25{fill:#BEA36A;}
	.st26{fill:#C6AF7D;}
	.st27{fill:#ECE4D3;}
	.st28{fill:#C4AC7A;}
	.st29{fill:#E4D8C1;}
	.st30{fill:#EBE3D1;}
	.st31{fill:#D6C6A1;}
	.st32{fill:#FEFEFE;}
	.st33{fill:#FDFCFB;}
	.st34{fill:#FDFDFB;}
	.st35{fill:#FAF8F5;}
	.st36{fill:#FCFBF9;}
	.st37{fill:#FAF9F6;}
	.st38{fill:#FAF8F3;}
	.st39{fill:#F9F7F2;}
	.st40{fill:#F4F0E7;}
	.st41{fill:#F8F6F1;}
	.st42{fill:#F7F4EE;}
	.st43{fill:#D6C49F;}
	.st44{fill:#FEFEFD;}
	.st45{fill:#FCFBFA;}
	.st46{fill:#E3D7BF;}
	.st47{fill:#E2D5BB;}
	.st48{fill:#F0E8DB;}
	.st49{fill:#FAF8F4;}
	.st50{fill:#F0EADD;}
	.st51{fill:#F6F2EB;}
	.st52{fill:#FAF9F5;}
	.st53{fill:#F9F7F3;}
	.st54{fill:#E9E0CE;}
	.st55{fill:#FBF9F7;}
	.st56{fill:#FBF9F6;}
	.st57{fill:#FBFAF8;}
	.st58{fill:#FDFDFC;}
	.st59{fill:#FEFDFD;}
	.st60{fill:#BDA269;}
	.st61{fill:#C1A771;}
	.st62{fill:#BFA66F;}
	.st63{fill:#C3AA77;}
	.st64{fill:#C0A772;}
	.st65{fill:#FDFDFD;}
	.st66{fill:#FCFBF8;}
	.st67{fill:#FBF9F2;}
</style>
<g>
	<path class="st0" d="M137.48102,231.57172c2.46338,6.92159,2.7617,14.84013,5.15674,22.30968
		c3.91124,1.01056,7.81163,1.82819,11.5876,3.03505c7.02579,2.24554,9.95926,6.32309,10.16687,13.60999
		c0.2991,10.49756,0.2991,10.49756-8.75983,18.12476c-2.55702,27.66553-5.13882,55.59897-7.70645,83.37924
		c-5.00783,2.11334-6.66483,1.13992-6.62344-4.04297c0.14888-18.65247-0.29935-37.31006,0.43292-55.95819
		c0.01035-0.26331-0.27589-0.53827-0.55254-1.04263c-5.28033,2.75397-10.71146,5.18799-16.62428,7.06454
		c-0.6214,12.46976-1.23865,24.85593-1.84831,37.08987c-5.99306,0.97818-7.09534,0.01129-7.67386-5.07819
		c-1.08847-9.57544-0.65381-19.26239-2.22728-29.10156c-4.7753-1.19962-9.49367,0.37628-14.12866,0.9642
		c-25.41483,3.22375-50.45504,3.12381-74.63482-6.83575c-0.27699-0.11407-0.6421-0.01422-1.5528-0.01422
		c0,18.31335,0,36.6629,0,54.66531c-2.41086,1.69016-4.34449,2.27548-7.15697,1.11981
		c-2.61797-26.95383-5.24839-54.03589-7.84821-80.80286c-7.33377-6.29773-9.62094-17.74094-5.33704-25.95477
		c1.76287-3.38007,4.52797-5.71103,8.29342-6.70691c13.33469-3.5266,26.61448-7.33836,40.68154-7.84074
		c3.30905-3.94913,4.05524-8.37494,2.11679-13.63307c-5.42923-1.45468-12.34305,1.43694-15.89998-4.65556
		c-4.07517-1.25551-8.57603,3.60577-11.68483-1.75854c1.76774-1.9216,4.72104-1.91544,6.24485-4.49666
		c-0.49607-2.59962-1.85316-4.9697-3.60059-7.16501c-2.71609-0.3082-4.87801,1.3821-7.3516,1.54039
		c-8.07767-5.19202-9.29913-10.52242-3.67694-18.05965c2.80048-3.75441,3.89238-7.20958,0.9792-11.30931
		c-0.6448-0.90742-0.85832-2.12131-1.30182-3.27582c1.80383-2.57593,4.12049-4.38243,6.72438-6.35156
		c3.06986,5.31456,6.93517,8.96338,13.45751,7.94992c1.50378-3.09416,2.27365-5.88998,2.09254-9.01263
		c-1.68291-1.26117-3.24791-2.43398-5.03038-3.76974c2.16969-2.74521,4.11559-4.86545,7.94415-4.11256
		c3.01705,0.59331,5.09671-0.97681,5.99733-3.9832c0.42809-1.42899,0.92307-2.83794,1.4243-4.36755
		c3.14079-0.78398,6.29424-0.22537,9.36169-0.32512c3.41069,1.60823,4.34649,6.00893,8.06608,7.12494
		c2.53932-1.71741,0.09423-4.82803,2.25836-6.49603c2.16534-1.15158,4.51601-1.80592,7.04707-1.584
		c2.86912,4.45305,2.83059,6.02377-0.38451,9.62521c-1.44386,1.61737-3.32096,3.0811-2.54212,5.57336
		c0.88607,2.8354,3.53765,2.5287,5.79147,2.96396c1.66668,0.32188,3.25768,0.55333,4.90269-0.06102
		c1.38783-0.51831,2.81644-0.92738,4.19334-1.3739c2.96059,1.76482,4.60693,4.96826,7.2209,6.20717
		c2.81879,0.07751,3.81499-2.20882,5.72166-2.7394c5.51871,3.11208,5.67274,3.90573,5.35013,9.79346
		c-0.36076,6.58464-3.39116,12.46886-4.49838,19.01183c3.51006,3.75023,7.28534,7.46028,5.87718,13.64594
		c-1.79497,1.74457-4.29825,2.61732-6.89856,3.79501c-1.2487-1.30774-2.54262-2.54742-3.70033-3.90338
		c-1.58894-1.86095-3.13226-3.43845-5.93449-2.22197c-2.70714,1.17522-3.65637,3.14764-3.42104,5.96465
		c0.09511,1.13837,0.19507,2.34019-0.58734,3.66293c-2.47385,1.11142-5.16977,1.0153-7.72064,0.41109
		c-0.8474-1.21034-0.176-2.18979-0.23782-3.1554c-0.2481-3.8754-2.91706-5.27484-6.06985-3.15092
		c-0.80723,0.54379-1.25496,1.58148-2.35841,1.73807c-0.84141,0.1194-1.61815,0.37769-2.61359,1.6136
		c-1.21133,4.63965,2.10717,9.43512,1.70004,14.6942c-4.34544,2.14337-6.95586-2.31351-11.19118-2.73514
		c-3.17869,5.90781-3.7887,12.47739-3.92059,18.97499c4.83373,2.95081,7.63988,3.18231,12.77063,1.19876
		c2.62843-4.46606-0.51857-9.25612,0.23079-13.77779c2.52763-1.63269,2.72992,1.09744,3.90469,1.82272
		c5.83315-1.48633,11.7993-1.32608,17.90806-1.76398c0.85916-3.27402,0.00995-6.30164-0.4323-9.37671
		c-0.53929-3.74959,0.73878-5.35287,4.48013-5.58026c12.78244-0.77682,25.57002-1.47083,38.35826-2.14709
		C133.81982,230.43854,135.53931,230.14371,137.48102,231.57172z"/>
	<path class="st1" d="M193.3571,309.77802c-0.97641,1.60513-2.47652,2.48349-4.22096,1.86285
		c-3.43639-1.2225-6.84848-2.57751-10.11534-4.19196c-2.5663-1.26822-2.05623-3.94855-2.04578-6.24249
		c0.08659-18.99719,0.15598-37.99466,0.31584-56.99132c0.35333-41.98404,0.54535-83.97125,1.26019-125.94937
		c0.2325-13.65314,0.30916-27.30861,0.56387-40.96124c0.03053-1.63583,0.00415-3.27274,0.00415-5.33066
		c-25.97705-4.71789-51.59534-9.37061-77.07971-13.99902c-1.283,1.28562-0.85852,2.68805-0.87289,3.95705
		c-0.42491,37.48404-0.8248,74.96837-1.22093,112.45274c-0.0526,4.9767-0.0334,4.9769-3.73984,7.15607
		c-1.6795-0.98499-1.002-2.66017-1.00558-4.01614c-0.11702-44.32784-0.1973-88.65578-0.24983-132.98375
		c-0.00641-5.40446,1.7301-6.78761,7.14975-5.6354c20.64455,4.38901,41.27426,8.84773,61.90987,13.27883
		c10.0688,2.16209,20.14058,4.31037,30.20544,6.49068c1.77295,0.38408,3.51828,0.8956,5.94456,1.52031
		c0,82.45352,0,164.80592,0,247.32082c8.19965,0.37354,15.31203-2.88495,22.7726-2.13275
		c0.44885,0.04523,0.81131,0.94727,1.08762,1.29263c-0.02905,1.89182-1.01056,2.68982-2.43677,2.97229
		c-7.17155,1.4205-14.34537,2.83093-21.53027,4.18176c-2.09723,0.39429-4.01607,0.07037-5.07101-2.14426
		c-0.81924-2.5816-0.78539-5.24332-0.78467-7.9101c0.00882-33.45129-0.42242-66.90961,0.12474-100.35197
		c0.56352-34.44272,0.10056-68.87961,0.39005-103.31757c0.01257-1.49604-0.05424-2.99768,0.22536-4.47379
		c1.84766-9.65031,0.44319-19.40557,0.86214-29.08321c-0.03537-0.44113-0.0959-0.89925-0.20662-1.327
		c-0.28221-0.52435-0.65187-0.98127-1.20663-1.25847c-0.74094-0.2608-1.51328-0.40311-2.26282-0.62698
		c-0.77612-0.22807-1.56111-0.40729-2.36757-0.49574c-0.84117-0.07633-1.67242-0.19694-2.48753-0.416
		c-0.82631-0.22171-1.65558-0.42394-2.51291-0.49326c-1.09596-0.083-2.19128-0.16045-3.25929-0.43446
		c-0.84653-0.22181-1.69061-0.45613-2.56209-0.57157c-0.8741-0.10133-1.74153-0.23644-2.59015-0.46935
		c-1.03926-0.31742-2.09729-0.54691-3.18329-0.64426c-0.65479-0.0648-1.29572-0.19576-1.92711-0.37248
		c-1.03461-0.32134-2.09056-0.52922-3.17735-0.57442c-0.87895-0.04546-1.74655-0.15962-2.59671-0.38593
		c-0.83797-0.22533-1.6727-0.46666-2.53902-0.5728c-0.86972-0.0966-1.733-0.22608-2.57889-0.45054
		c-0.83955-0.22241-1.67937-0.44392-2.55086-0.51566c-1.09781-0.08823-2.19659-0.16425-3.26744-0.43833
		c-0.84349-0.21799-1.68098-0.46444-2.54919-0.57914c-0.86754-0.10236-1.72954-0.23357-2.57304-0.46177
		c-0.83183-0.22661-1.66263-0.45985-2.52385-0.56155c-0.86539-0.09361-1.72337-0.22462-2.56264-0.45614
		c-1.03288-0.31563-2.08505-0.5388-3.16408-0.63463c-0.65288-0.06423-1.29178-0.19473-1.92123-0.37103
		c-1.03284-0.32066-2.0869-0.52782-3.17165-0.57291c-0.87698-0.04522-1.74269-0.15891-2.59087-0.38479
		c-0.83443-0.22444-1.66521-0.4669-2.52754-0.57475c-0.86398-0.09692-1.72191-0.22519-2.56143-0.45261
		c-0.83159-0.22622-1.6628-0.45527-2.52385-0.55486c-0.86873-0.09246-1.72961-0.22389-2.5728-0.45203
		c-1.04147-0.313-2.10187-0.52309-3.19284-0.57026c-0.88348-0.04668-1.75572-0.16132-2.61063-0.38755
		c-0.84244-0.2254-1.68112-0.46908-2.55154-0.57711c-0.87329-0.09824-1.74022-0.22895-2.58986-0.45363
		c-0.84172-0.22193-1.68376-0.44278-2.55705-0.5132c-1.08778-0.0866-2.17641-0.16445-3.23746-0.42813
		c-0.8148-0.19382-1.617-0.46956-2.46994-0.39536c-1.12297,0.27592-1.56516,1.0549-1.5929,2.1227
		c0.09415,0.50675,0.30016,0.94907,0.75732,1.23868c0.65405,0.26967,1.34807,0.38736,2.01495,0.60217
		c0.72675,0.23029,1.46051,0.41734,2.21161,0.54578c0.59427,0.08716,1.17438,0.22298,1.74649,0.39685
		c0.77087,0.23466,1.54968,0.42996,2.35254,0.52408c0.82149,0.07856,1.63466,0.19676,2.42944,0.41911
		c0.78741,0.23139,1.57387,0.46722,2.3833,0.61763c0.61272,0.09708,1.21358,0.24114,1.80554,0.42094
		c0.7854,0.23832,1.57942,0.4393,2.39813,0.5356c0.83296,0.08075,1.65807,0.19986,2.46455,0.4238
		c0.80028,0.22623,1.60301,0.44228,2.43137,0.54902c0.83563,0.08804,1.6651,0.20688,2.47484,0.43328
		c0.79642,0.23128,1.59058,0.47336,2.40805,0.62837c0.61554,0.09922,1.21957,0.24493,1.81461,0.4258
		c0.78719,0.23909,1.58296,0.44189,2.40375,0.53876c0.83357,0.08109,1.65941,0.20039,2.46658,0.42445
		c0.80038,0.22623,1.60324,0.44246,2.43173,0.54928c0.83533,0.08804,1.66455,0.20679,2.474,0.43309
		c0.79533,0.2309,1.58829,0.47327,2.40454,0.62833c0.61336,0.09898,1.21527,0.24433,1.80795,0.4251
		c0.78128,0.23878,1.57063,0.44469,2.38571,0.54208c0.82462,0.08058,1.64166,0.19936,2.44002,0.42249
		c0.78773,0.23129,1.57439,0.46823,2.38416,0.619c0.61156,0.09704,1.21135,0.24097,1.80211,0.42084
		c0.78203,0.23841,1.57242,0.44143,2.38803,0.53807c0.82863,0.08053,1.64914,0.20099,2.45123,0.42504
		c0.79439,0.23186,1.58879,0.46463,2.40515,0.61474c0.61734,0.09768,1.22243,0.24387,1.81845,0.42602
		c0.98183,0.32539,1.98947,0.52644,3.02213,0.61079c0.62856,0.05837,1.24287,0.18314,1.84741,0.35705
		c0.79901,0.23459,1.60347,0.44614,2.43355,0.54903c0.84087,0.08581,1.67451,0.20728,2.48927,0.43316
		c0.80684,0.22624,1.6132,0.45521,2.44995,0.55453c0.83801,0.08858,1.66975,0.20939,2.48276,0.42937
		c0.59439,0.15125,1.18495,0.32246,1.78479,0.44661c0.97681,0.15858,1.96126,0.19205,2.9469,0.15216
		c0.76054-0.05367,1.50745-0.186,2.23672-0.41376c0.54309-0.18121,1.09705-0.32144,1.651-0.46335
		c0.56406-0.1845,1.12358-0.37921,1.69086-0.5668c0.6317-0.18672,1.27084-0.23727,1.93127-0.15894
		c0.47308,0.10318,0.90181,0.28683,1.30765,0.56104c0.38182,0.36466,0.68718,0.77146,0.94714,1.22783
		c0.55913,1.01662,0.8961,2.09698,1.08536,3.23868c0.32533,41.25354,0.52701,82.50566,0.00655,123.74426
		c-0.4554,36.08418-0.03716,72.16284-0.37299,108.24213C194.15422,305.24268,194.69803,307.6344,193.3571,309.77802z"/>
	<path class="st2" d="M507.14606,32.54654c1.29108-2.99282,3.05188-3.43922,4.88635-3.79716
		c27.07422-5.28255,54.14532-10.58081,81.22229-15.84941c5.40619-1.05194,7.01605-0.29551,9.44073,4.87601
		c15.53711,33.13864,31.01465,66.30524,46.51801,99.45969c4.51105,9.6469,9.10681,19.25476,13.54272,28.93597
		c2.9444,6.4259,1.58905,8.42844-5.33832,8.71353c-21.78339,0.89656-43.56348,1.87364-65.34668,2.77585
		c-2.14398,0.08879-4.3244,0.3707-6.54401-0.28781C559.30438,115.61185,533.05573,73.80933,507.14606,32.54654z"/>
	<path class="st2" d="M258.37613,59.21105c34.97614,35.09873,69.25116,69.49389,103.69342,104.05688
		c-3.3718,1.4845-5.15903-0.14433-7.0329-1.95218c-16.54669-15.96356-33.13696-31.88193-49.70697-47.82133
		c-17.29102-16.63301-34.6066-33.24084-51.81667-49.95725c-2.03226-1.97396-4.25848-3.05936-6.91287-3.57569
		c-32.9568-6.411-65.91524-12.81349-98.86948-19.23769c-17.94542-3.49834-35.88499-7.02676-53.82132-10.57141
		c-0.98994-0.19564-1.93808-0.47039-3.47905-0.00403c0,48.21185,0,96.59117,0,145.37971
		c-2.31837-0.20808-3.93959,0.61717-5.65936,1.04723c-1.42905-1.70499-0.78056-3.6017-0.80602-5.33827
		c-0.68822-46.9705-0.52493-93.94488-0.451-140.9178c0.00632-4.01163-1.30281-6.43188-4.5768-8.56948
		c-5.01194-3.27232-9.7584-6.95983-14.53916-10.57477c-3.5139-2.65701-4.24932-5.87613-2.15639-8.49839
		c2.1337-2.67334,5.4053-2.6454,8.71507,0.37933c5.28724,4.83188,10.45742,9.79288,15.63183,14.74656
		c1.46732,1.40474,2.94381,2.48271,5.05932,2.92293c52.72168,10.97108,105.43274,21.99351,158.12247,33.11676
		c2.07635,0.43833,3.90262,0.15923,5.85104-0.12144c35.36378-5.09396,70.70631-10.32414,106.0103-15.82473
		c40.39661-6.29406,80.75519-12.80243,121.0108-19.9486c33.37988-5.92559,66.77991-11.73794,100.159-17.66836
		c2.11041-0.37496,3.97211-1.01915,4.62262,3.08136c-36.1911,7.49681-72.51495,14.10197-108.79108,20.9195
		c-36.25797,6.81412-72.5784,13.27796-109.10385,18.54896C332.85751,48.12092,296.21652,53.62486,258.37613,59.21105z"/>
	<path class="st0" d="M384.15536,239.52202c0.50616-1.92451,0.8649-3.90288,1.54471-5.76398
		c2.5957-7.10648,2.60977-14.27449,0.89969-21.55984c-0.52396-2.23222-1.21185-4.65744,1.66864-6.36984
		c3.79535,0.19286,7.19257,2.97105,11.61725,2.84888c2.38919-5.62668,0.35135-11.76886,1.89502-18.51073
		c17.66821,6.78432,35.53674,4.52582,53.7941,1.75342c1.87689,6.04436-1.72443,11.01485-1.8627,16.33095
		c-0.14218,5.46872-1.05032,10.91327-1.34918,16.38336c-0.3067,5.61288-2.11603,10.71097-4.46277,15.67108
		c-3.4895,1.53821-7.55396-0.5603-10.82516,1.99225c5.24823,2.32523,10.67661,2.42953,16.47089,2.349
		c1.16455-6.03659,2.17957-11.89413,3.44589-17.69685c1.30264-5.96909,0.5719-11.82709-0.86185-17.9182
		c5.46432-3.47932,10.90741,0.75439,16.58246-0.6194c0.59991-5.66315,1.2196-11.51346,1.90448-17.97882
		c23.15991,0.60304,45.92804,4.26073,69.89954,1.62811c-2.68011,20.00989-5.05066,39.14944-5.58038,57.92641
		c-2.42694,2.46848-4.54657,0.93802-6.60394,0.87448c-2.12201-0.06546-4.26428-0.72064-6.40143-0.03238
		c-1.04248,2.47897,0.80847,3.09198,2.349,3.34915c10.3811,1.73312,14.82306,9.37148,17.93854,18.1299
		c2.91003,8.18106,5.2041,16.547,3.07782,25.36084c-1.48389,6.151-4.52075,11.46707-9.44659,15.48972
		c-5.43011,4.43433-9.72125,3.09064-11.28668-3.72357c-1.96967-8.57349-3.10138-17.33289-5.58801-25.80042
		c-0.74762-2.54553-1.46478-5.07867-2.4317-7.57507c-2.44202-6.30478-6.89673-9.95081-13.38098-11.44485
		c-12.15576-2.80087-24.48297-4.58475-36.86404-5.86829c-18.34525-1.90182-36.72748-3.44679-55.09396-5.14366
		c-0.93213-2.23819,0.58917-2.57779,2.20062-2.84695c12.40958,0.41971,24.7186,2.13101,37.09384,2.94348
		c10.88129,0.86743,21.69412,2.42836,32.56735,3.43657c7.60046,0.70477,15.15149,1.8381,22.70441,2.98752
		c8.03143,1.22223,13.22137,5.54675,16.54578,12.7562c3.95709,8.5813,5.30896,17.81805,7.21863,26.92389
		c0.57422,2.73782,1.03796,5.51764,3.58649,7.16028c3.02753-0.05637,3.71033-2.75513,5.37665-4.21371
		c0.66815-1.06329,1.47803-2.04578,2.00018-3.14563c-0.01715,0.05331,0.04987-0.27072,0.04987-0.27072
		s-0.09088,0.29898-0.09863,0.31964c-0.60742,1.05508-1.2514,2.06128-1.94202,3.04922
		c-0.61041,0.80261-1.26361,1.57318-1.99805,2.23135c-2.5401,2.27621-4.43726,1.96289-5.66412-1.20782
		c-1.38226-3.57248-1.57715-7.42792-2.05286-11.20914c-0.86755-6.89536-1.16327-13.92847-4.91479-20.14197
		c-4.09442-6.78146-9.8161-10.9744-17.78601-12.24625c-12.92938-2.06339-25.92255-3.43869-38.96176-4.54799
		c-3.41956-0.29089-6.90112-0.6434-10.27789-1.49228c-15.46594-0.98141-30.86578-2.73026-46.32925-3.72409
		c-1.09265-0.50229-1.79568-1.44269-2.45731-2.36472c-2.50916-3.4968-1.54352-5.80765,2.71249-6.53458
		c1.13068-0.19315,2.29312-0.12903,3.43347-0.21692c4.47522-0.06915,8.95831,0.09683,14.28659,0.18213
		c0.63394-9.19142-0.58746-18.40434,3.3299-27.94807c-15.10495,0.95685-29.03061-0.85876-44.01901-1.45917
		c0.14902,9.02415-1.1217,17.47742-1.60812,25.59344c1.23911,1.77089,2.97134,1.78252,4.0972,2.78056
		c1.27969,1.95758,1.341,4.23502-0.77832,5.10886c-3.09164,1.27472-6.53394,1.13144-9.36795-1.04453
		C382.25,243.0024,382.08987,241.16777,384.15536,239.52202z"/>
	<path class="st2" d="M291.53534,67.35689c5.02179-2.15438,10.70779-2.42172,16.17004-3.46294
		c18.26849-3.48233,36.59952-6.63538,54.88779-10.0161c4.02713-0.74445,6.81116,0.18244,9.35562,3.71967
		c23.99362,33.35534,48.15512,66.58994,72.26736,99.85994c0.29291,0.40417,0.60388,0.79913,0.85748,1.22739
		c2.61829,4.42181,1.28064,6.89342-3.74347,7.222c-11.79642,0.77148-23.61316,0.6602-35.42047,0.95558
		c-6.6489,0.16632-13.29733,0.42157-19.93909,0.76834c-2.88846,0.1508-5.01904-0.79156-7.0072-2.94525
		c-24.83298-26.90041-49.73737-53.73484-74.62195-80.58759c-3.73233-4.02752-7.46027-8.05912-11.18295-12.09551
		C292.0455,70.79562,290.65091,69.6897,291.53534,67.35689z"/>
	<path class="st3" d="M454.78799,366.6102c0.44498,5.20218,0.88058,10.29489,1.37906,16.12259
		c-64.11838-18.23169-127.64832-36.29608-191.49121-54.44946c-0.8909-5.46588-0.29153-10.73108-0.4617-15.87521
		c0.58545-0.22775,0.93607-0.50836,1.15259-0.42792c26.8736,9.97873,55.07535,15.36847,82.37637,23.84033
		c26.09119,8.09644,52.70435,13.95331,79.51852,18.82574C437.41199,356.49072,445.92642,361.05545,454.78799,366.6102z"/>
	<path class="st2" d="M558.38824,307.23334c1.38074-4.48199,1.48322-8.61606-0.29663-12.83771
		c-2.58221-6.12488-4.81537-12.39792-7.4386-18.50421c-2.87378-6.68961-1.86096-12.31784,3.89832-16.92657
		c0.91394-0.73129,1.89752-1.37564,2.2644-1.63959c0.90063-7.55424-1.55988-14.14314-0.23065-20.57013
		c1.5354-1.61476,3.29706-1.15833,4.89984-1.13026c20.14594,0.35251,40.2915,0.7328,60.43622,1.15031
		c4.28986,0.08888,5.39404,1.13348,4.98871,5.46434c-0.48199,5.14944-0.50854,10.30414-0.78973,15.45323
		c-0.13538,2.47879,0.48334,4.52158,2.08661,6.42014c5.55457,6.57751,6.93927,13.51007,2.75031,21.58267
		c-2.8927,5.57458-4.80127,11.66742-7.04388,17.56885c-1.36115,3.58167-1.25043,7.12277,0.74536,10.36636
		c1.46204,0.45532,2.39783-0.49667,3.50543-0.74542c1.81091-0.40674,3.30743,0.12851,4.36682,1.65848
		c0.93976,1.35727,0.98932,2.83578,0.12598,4.22665c-0.96716,1.55817-2.47668,2.28394-4.27576,1.94589
		c-3.55035-0.66705-6.698-1.96234-8.17651-5.6958c-1.73169-4.37292-1.5188-8.80643-0.4743-13.2464
		c1.33197-5.66153,2.87811-11.27386,4.1488-16.94843c2.16937-9.68832-0.15039-13.48666-9.67126-16.26166
		c-4.78015-1.39322-9.57983-1.46469-14.20135,0.39755c-6.80939,2.74393-13.33856,3.14246-20.20544-0.1933
		c-4.46326-2.16815-9.50031-3.03882-14.55255-3.02347c-5.90454,0.01794-7.9187,2.38397-6.763,8.13834
		c1.63464,8.13904,3.44446,16.24286,5.18652,24.39481c1.03021,0.87234,2.21643,1.37238,3.74213,1.36899
		c0.26526-0.2886,0.72705-0.58078,0.87732-0.98795c1.18616-3.21313,0.2287-6.25504-1.08771-9.13232
		c-1.17267-2.56314-2.68097-4.9769-4.10071-7.42197c-3.27533-5.6405-2.60718-9.49963,2.5473-14.01297
		c2.06665-0.12482,3.31482,0.74554,3.76019,2.94949c1.11609,5.52225,2.91608,10.97272,3.39752,16.54227
		c0.86377,9.99255-0.96558,15.97113-9.87256,19.64041c-0.94092,2.57233-1.85199,5.32935-5.11017,6.09497
		c-2.06189,0.48453-4.01361,0.38016-5.48663-1.33966c-0.81769-0.95465-0.94244-2.11072-0.20203-3.23724
		c1.21912-1.85486,2.90778-1.96005,4.82587-1.32733C557.23615,307.505,557.59259,307.34448,558.38824,307.23334z"/>
	<path class="st0" d="M389.04251,251.75307c-11.4751,0.56192-22.86954-1.55533-34.34332-1.03375
		c-1.16019,0.05273-2.31982,0.11734-3.47974,0.17648c-8.4794,3.3667-17.39938,2.39053-26.1933,2.6572
		c-14.67166,0.95352-29.23077,2.83635-43.71997,5.29607c-4.02966,2.83237-8.68048,2.5831-13.26285,2.67328
		c-7.95999,0.95108-14.2766,5.29559-20.29362,10.08279c-8.6203,6.8584-16.14337,14.82898-23.13779,23.34839
		c4.46698,8.11694,11.45511,10.23871,20.21451,9.53827c0.14813-5.40012,2.7265-9.90298,4.47986-14.68149
		c1.77139-0.06921,1.46967,0.89206,0.97012,1.95166c-0.67117,2.89191-1.34235,5.78384-2.08261,8.97342
		c4.75333,2.13208,9.73854,3.27475,14.60924,4.69089c38.95053,11.32486,77.84872,22.82742,116.9137,33.76242
		c13.74448,3.84735,27.77216,5.01587,41.82214,6.30237c6.99405,0.64044,13.7738,2.20511,20.59906,3.638
		c1.13678,0.23868,2.22925,0.62021,3.93387,0.31107c1.9686-8.35397,3.57355-16.88541,3.49533-25.71463
		c4.52142,10.31674,1.755,21.15427,1.94287,31.72092c2.76288,1.85391,5.6951,2.57736,8.59201,3.11966
		c7.93994,1.48642,13.07877-4.16696,11.10666-11.92969c-2.29089-9.01761-4.63837-18.02533-6.6778-27.10104
		c-1.69217-7.53027,2.48129-12.97952,10.18164-13.63739c-0.27344,0.46326-0.40491,0.98001-0.73468,1.20187
		c-8.60178,5.78503-8.64856,5.79205-5.86124,15.6297c1.84631,6.51633,3.83847,12.99133,5.94785,20.09995
		c16.67084-12.54199,32.76282-24.64847,48.8548-36.75494c0.3924,0.50604,0.78479,1.01208,1.17719,1.51816
		c-15.9256,12.72519-31.85114,25.45041-47.47827,37.93713c-1.08655,3.27258,1.20569,5.49799,1.28876,8.09949
		c-8.27252,11.75388-18.06021,13.35565-30.70123,5.25934c-10.38174-6.64929-21.36359-10.79489-33.37219-11.99075
		c-24.43268-2.43311-48.18927-7.83682-71.67151-14.80063c-25.50784-7.56445-50.73636-16.05374-76.40839-23.06522
		c-5.75003-1.5704-11.68437-2.42722-17.16878-4.36362c-9.82758,6.09683-21.71799,3.52081-27.87265-7.37067
		c-1.16083-2.05426-0.65292-3.79874,0.77658-5.48047c8.10751-9.5379,16.83102-18.41153,26.76044-26.11343
		c9.07866-7.04199,19.804-9.17941,30.66396-10.93565c21.18256-3.42557,42.5087-5.60303,63.89706-7.33139
		c5.42969-0.43878,10.99924-0.15768,16.83847-1.8288c2.63934-6.65627,8.51425-6.46532,14.55078-5.86383
		c2.17703,4.97354,6.17142,6.34113,11.25739,5.91998c2.79355-0.23135,5.61508,0.21115,8.4281,0.24686
		c1.90256,0.02417,3.59897,0.49896,4.87473,2.7662C396.93491,253.74303,392.74475,252.09129,389.04251,251.75307z"/>
	<path class="st0" d="M604.28424,194.81281c-6.86865,3.33817-13.92279,3.12859-21.58447,4.14172
		c9.8324,9.642,0.79352,17.61203-1.56604,26.37971c1.83264,2.93405,6.76575,2.8978,7.56567,7.07407
		c-5.55139,2.90305-17.15833,2.60818-21.44391-0.5602c1.20227-3.54897,5.0329-3.98645,7.60468-6.24725
		c-1.70648-8.57222-11.06946-16.76076-1.10468-26.4826c-7.03851-2.0414-14.10199-0.89125-20.48785-4.13054
		c2.22253-11.82367,11.82111-21.55045,10.17798-34.90956c8.98737,0,17.88818,0,27.06396,0
		c0.92816,0.52779,0.58258,1.51245,0.20471,2.4462c-1.03741,2.56319-0.2879,4.86728,0.88062,7.16743
		C595.73743,177.84575,599.84509,186.01735,604.28424,194.81281z"/>
	<path class="st4" d="M659.88379,299.94809c-6.93713,2.99686-13.73444-0.29639-20.51172-0.29419
		c-0.39447-2.57373,0.97375-3.91446,1.69373-5.4787c4.20343-0.86734,8.12524,1.11374,12.85602,0.09412
		c0-5.75009,0.30261-11.68451-0.06689-17.57681c-0.64728-10.32437-0.35632-20.64655-0.43512-30.96852
		c-0.14252-18.66072-0.15271-37.32242-0.23358-55.98364c-0.02747-6.33228-4.4726-11.03319-10.82587-11.06602
		c-12.82849-0.06631-25.65808,0.07001-38.48718,0.11108c-1.48425,0.00476-2.99493,0.29977-4.53894-0.34561
		c-1.25977-1.45387-2.28448-3.10448-2.55286-5.18224c1.40167-0.98215,2.93054-0.5425,4.3457-0.5406
		c12.82074,0.01706,25.61279-0.96809,38.44122-0.93784c7.24286,0.01706,12.86871,2.39429,17.38513,8.00372
		c1.87054,2.3233,3.02838,4.68753,3.03595,7.67702c0.09302,36.65607,0.21051,73.31209,0.30957,109.96815
		C660.30023,297.91629,660.14441,298.40497,659.88379,299.94809z"/>
	<path class="st5" d="M123.13492,55.84843c-0.94048-0.11263-1.88095-0.22527-2.82143-0.33791
		c-0.68056-0.3632-1.50987-0.25754-2.16904-0.68819c-0.6266-0.07253-1.25319-0.14505-1.87979-0.21758
		c-0.62976-0.49335-1.45987-0.37363-2.14398-0.70068c-0.93796-0.12631-1.87592-0.25262-2.81387-0.37893
		c-0.67387-0.38274-1.50284-0.27689-2.16769-0.68803c-0.62755-0.07309-1.2551-0.14617-1.88264-0.21926
		c-0.62444-0.51009-1.44591-0.39806-2.14299-0.67878c-0.94395-0.11095-1.88789-0.2219-2.83185-0.33286
		c-0.41631-0.24178-0.73608-0.58714-1.03027-0.95997c0-1.43078,0-2.86156,0-3.9962c0.94522-1.29185,1.97444-0.80024,2.88438-0.86057
		c0.63435,0.49062,1.4492,0.39071,2.15189,0.65776c1.2706,0.13639,2.54118,0.27279,3.81178,0.40918
		c0.67049,0.39677,1.48598,0.30849,2.17308,0.64968c0.94751,0.10696,1.895,0.21391,2.84251,0.32085
		c0.65355,0.4399,1.47556,0.33812,2.16197,0.67234c0.95659,0.09146,1.91316,0.18291,2.86975,0.27437
		c0.90176,0.78991,2.17453,0.12931,3.10808,0.79497c0.94711,0.09861,1.89423,0.19722,2.84134,0.29583
		c0.67264,0.38829,1.49492,0.29106,2.17075,0.66901c0.95061,0.09499,1.90121,0.18999,2.85182,0.28499
		c0.64954,0.45093,1.47025,0.34978,2.16037,0.66981c0.95312,0.10014,1.90625,0.20028,2.85938,0.30042
		c0.91232,0.76291,2.17844,0.11706,3.11528,0.78234c0.63728,0.0578,1.27455,0.11561,1.91183,0.17342
		c0.88249,0.84087,2.16153,0.16122,3.09486,0.80714c0.95596,0.08384,1.91193,0.16767,2.86789,0.25151
		c0.64044,0.47258,1.45934,0.36965,2.15385,0.66785c0.94881,0.11084,1.8976,0.22168,2.84641,0.33252
		c0.64334,0.47012,1.45433,0.37832,2.15865,0.64404c1.27179,0.13342,2.54358,0.26684,3.81537,0.40026
		c0.66435,0.41148,1.49045,0.30839,2.16698,0.68111c0.94817,0.09982,1.89633,0.19965,2.8445,0.29948
		c0.65486,0.43737,1.4752,0.3382,2.16347,0.6673c0.95799,0.08992,1.91597,0.17983,2.87396,0.26975
		c0.89493,0.80552,2.17299,0.13394,3.10284,0.80479c0.63362,0.06352,1.26724,0.12704,1.90086,0.19056
		c0.90494,0.80089,2.15347,0.1778,3.1133,0.75123c0.94894,0.10489,1.89787,0.20978,2.84682,0.31467
		c0.6543,0.43962,1.47371,0.34158,2.16383,0.6645c1.27155,0.12462,2.54309,0.24924,3.81464,0.37386
		c0.67088,0.3899,1.50389,0.27856,2.16454,0.70011c0.94691,0.09735,1.89384,0.19469,2.84076,0.29204
		c0.66902,0.39836,1.49257,0.29893,2.16904,0.67331c0.94586,0.09408,1.89171,0.18816,2.83757,0.28223
		c0.38049,0.26294,0.772,0.50829,1.17455,0.73604l0.0786,0.09335c0.55934,10.37225,0.49895,20.74506,0.02744,31.11823
		c-0.12437,30.82863,0.15649,61.66554-0.47244,92.48387c-0.84654,41.48051-0.34564,82.9637-0.93176,124.44151
		c-0.54166-0.63589-1.08331-1.27179-1.62497-1.90768c-0.04518-40.58484-0.08551-81.16968-0.13693-121.7545
		c-0.05037-39.75352-0.11205-79.50704-0.16876-119.26056c-0.41864-0.60857-0.18034-1.52636-0.93124-1.97855l-0.01341-0.00739
		c-0.26353-0.41055-0.58437-0.46167-0.96246-0.1534c-0.621,0.07747-1.24202,0.15494-1.86302,0.23241
		c-0.39818,0.23405-0.80489,0.45229-1.21889,0.65699c-0.60426,0.09702-1.20854,0.19403-1.81281,0.29105
		c-0.64017,0.46028-1.49353,0.31941-2.14093,0.75928c-1.26279-0.00864-2.52557-0.0173-3.78836-0.02595
		c-0.39246-0.23091-0.80016-0.43034-1.22557-0.59316c-0.93851-0.12159-1.877-0.24318-2.81551-0.36477
		c-0.64714-0.45537-1.46875-0.35175-2.15761-0.67344c-0.94073-0.12173-1.88148-0.24345-2.82222-0.36519
		c-0.66441-0.40553-1.49829-0.29105-2.16028-0.70404c-0.62807-0.0729-1.25613-0.14579-1.8842-0.21869
		c-0.89751-0.78992-2.18239-0.10889-3.1015-0.81678c-0.6259-0.07198-1.2518-0.14397-1.8777-0.21594
		c-0.63998-0.46693-1.47337-0.3467-2.1483-0.70754c-0.94-0.11802-1.87999-0.23605-2.81999-0.35406
		c-0.67352-0.38178-1.50516-0.27187-2.16502-0.69615c-0.62448-0.07675-1.24896-0.1535-1.87344-0.23025
		c-0.63568-0.48174-1.46117-0.36951-2.1494-0.68681c-0.94241-0.11829-1.88483-0.23659-2.82724-0.35487
		c-0.65524-0.42699-1.49374-0.3047-2.15338-0.71851c-0.62967-0.06958-1.25932-0.13917-1.88899-0.20876
		c-0.61816-0.52486-1.43793-0.41205-2.13853-0.67614c-0.94559-0.12177-1.89117-0.24352-2.83676-0.36529
		c-0.6407-0.46827-1.47-0.35338-2.15143-0.69572c-0.93843-0.12272-1.87688-0.24544-2.81531-0.36816
		c-0.67487-0.38001-1.50401-0.27411-2.168-0.6884c-0.62589-0.07532-1.25179-0.15063-1.87767-0.22595
		c-0.62875-0.4981-1.45477-0.38277-2.14499-0.68973c-0.94264-0.11951-1.88528-0.23901-2.82793-0.35852
		C124.63589,56.12737,123.79977,56.24699,123.13492,55.84843z"/>
	<path class="st0" d="M365.39499,213.71527c-1.74139-6.75572-10.5249-12.12944-2.60962-20.2852
		c-5.45969-1.53897-10.88885,0.36322-15.84802-2.98576c1.84827-7.78923,7.35513-14.61375,7.74857-23.3474
		c6.63251,0,13.2117,0,20.23251,0c-1.35651,3.46881,0.4213,6.06465,2.02725,8.79233
		c2.8331,4.81201,6.16913,9.35751,8.59293,14.92181c-5.21417,1.46428-10.11008,1.77271-15.31586,1.95807
		c0.59915,3.58241,4.08966,6.17827,2.38226,9.94901c-1.36978,3.02516-2.58636,6.11969-4.01038,9.51599
		c0.36194,2.04065,1.90952,3.78439,3.08987,5.58984c2.7677,1.06682,5.47287,0.45883,8.09848,0.73376
		c3.89456,0.40778,5.845,2.61005,5.0593,6.31331c-0.6174,2.9102-1.36676,5.80513-2.08176,8.69522
		c-0.84253,3.40569-3.55905,4.31076-9.57523,3.54823c0-3.53821,0.04868-7.16324-0.01202-10.78645
		c-0.08078-4.82343-0.63077-5.37958-5.57721-5.43471c-7.82489-0.08719-15.65076-0.09264-23.4762-0.12888
		c-1.79681-0.00832-3.59369-0.00122-5.41721-0.63425c7.42316-2.37141,15.10345-1.28896,22.83273-1.73389
		C363.17078,217.41415,364.23795,215.74957,365.39499,213.71527z"/>
	<path class="st6" d="M524.65179,309.41565c2.53229,5.66754,0.36597,10.90344,0.31714,16.0752
		c-0.00854,0.89899-1.24695,1.91943-2.1106,2.65775c-20.10242,17.18488-40.23016,34.34015-60.36395,51.48831
		c-0.47977,0.40863-0.99686,0.90878-2.21133,0.49753c-0.0433-3.55936-0.15335-7.26144,0.49854-11.15421
		c3.77774-0.70911,7.80206,0.85324,11.04672-2.13962c3.98834-3.6788,7.12323-7.86707,9.17523-12.94666
		c-0.64636-2.05655-1.28918-4.10199-2.12549-6.76285C493.98694,334.68207,509.19208,322.15372,524.65179,309.41565z"/>
	<path class="st4" d="M383.54486,180.79338c-0.93594-1.18268-1.59055-1.92192-2.13852-2.73322
		c-0.36606-0.54198-0.63129-1.17737-0.31171-1.95126c58.84061-0.814,117.72092-1.62854,176.72458-2.44479
		c0.12457,2.29753-0.65308,3.85818-2.06439,5.85785C498.48065,179.63361,440.92337,179.91486,383.54486,180.79338z"/>
	<path class="st4" d="M507.91748,356.79861c5.14233-4.80426,10.29651-9.6951,15.53461-14.49429
		c6.74359-6.17865,13.72186-12.116,19.38843-19.37051c1.87921-2.40585,4.14478-3.57837,7.36542-3.02798
		c12.95453,2.21371,26.09924,2.5502,39.15472,3.77704c7.10925,0.66809,14.22607,1.25861,21.3418,1.85577
		c1.86047,0.15613,3.74017,0.18881,4.28064,2.42743c0.09387,0.97775-0.21332,1.73965-0.78052,2.38348
		c-9.30994,10.5665-15.5528,23.14227-22.90558,34.98871c-3.49188,5.62595-5.47192,6.64554-11.84125,5.13962
		c-14.41907-3.40909-29.18188-4.5495-43.78174-6.75824c-7.71271-1.16687-15.46295-2.08521-23.19568-3.12036
		C510.59808,360.34756,508.89679,359.8183,507.91748,356.79861z"/>
	<path class="st4" d="M278.03018,252.2827c-5.05154,1.15781-9.70798,2.31464-14.40332,3.28262
		c-9.92232,2.04561-18.32576,6.67351-25.21742,14.15443c-3.37988,3.66888-6.9415,7.19122-10.63113,10.54883
		c-5.17899,4.71292-13.48735,5.47433-18.22369,1.92511c-2.034-13.26294-1.58405-46.88091,1.0443-51.48177
		c21.85973-1.66968,44.12852-3.37059,66.74722-5.09824C279.6821,234.77342,276.59204,243.355,278.03018,252.2827z"/>
	<path class="st7" d="M153.09264,352.20331c1.27797-2.18399,3.02663-2.15372,4.58813-2.54773
		c20.78963-5.24597,41.53271-10.66556,62.00934-17.04541c2.32736-0.72513,4.42834-0.74496,6.7775,0.01282
		c56.65019,18.27429,114.19066,33.45267,171.53914,49.30115c1.67197,0.46207,3.72946,0.45959,4.88794,2.57513
		c-0.62836,2.74554-2.43549,2.12213-4.47403,1.53299c-12.77423-3.69186-25.58844-7.24557-38.358-10.95334
		c-43.73282-12.69809-87.48959-25.3063-131.52959-36.91406c-4.18646-1.10342-8.06796-0.89062-12.18427-0.04868
		c-19.38271,3.96451-38.489,9.05786-57.65105,13.9248C156.95172,352.4845,155.26514,353.20062,153.09264,352.20331z"/>
	<path class="st4" d="M594.28864,168.08453c-1.42041-1.41003-1.29425-2.65599-0.80792-4.36557
		c3.57874-0.28758,7.18073-0.71829,10.79333-0.84274c15.12781-0.52115,30.26215-0.86147,45.38782-1.43436
		c22.42902-0.8495,44.85254-1.84471,67.27905-2.76082c1.66058-0.06783,3.34766-0.16049,4.98486,0.05005
		c1.83136,0.23549,3.10376,1.43001,3.04565,3.34865c-0.05231,1.72649-1.3114,2.62569-2.98761,2.78062
		c-2.64642,0.24461-5.29669,0.54678-7.94995,0.60248c-24.453,0.51329-48.92316,0.58922-73.35474,1.60239
		c-14.95905,0.62033-29.94684,0.03265-44.87805,1.33565C595.33179,168.44183,594.83838,168.20618,594.28864,168.08453z"/>
	<path class="st4" d="M351.38528,209.81648c2.15927-0.04161,4.32855,0.0316,6.47522-0.15498
		c2.4776-0.21533,3.70813,0.92021,4.20312,3.53166c-1.79736,1.1636-3.98962,1.14236-5.99484,1.29898
		c-15.06006,1.17622-30.13528,2.15765-45.19681,3.31616c-28.46054,2.18921-56.91454,4.46405-85.37273,6.68414
		c-5.62393,0.43875-11.25284,0.82011-16.88321,1.16676c-1.82741,0.11252-4.06223,0.28343-4.22629-2.24883
		c-0.16223-2.50407,1.95496-2.60344,3.86015-2.7596c3.63716-0.29814,7.26561-0.70242,10.89766-1.06264
		c3.21771-2.27319,7.13571-1.69901,10.60971-1.95015c10.9259-0.78983,21.86459-1.5336,32.78154-2.42139
		c11.90628-0.96828,23.83347-1.64471,35.74188-2.56534c10.91946-0.84421,21.83899-1.90387,32.78983-2.31425
		C337.83752,210.08344,344.57489,208.36087,351.38528,209.81648z"/>
	<path class="st4" d="M212.99231,218.60176c-1.82922,0.0015-3.65846,0.00536-5.48769,0.00388
		c-2.32616-0.00188-3.75894-1.06799-4.12361-3.4678c0.80446-2.76839,2.98883-3.23434,5.45108-3.33829
		c16.11568-0.6801,32.23067-1.37698,48.34561-2.07457c31.89655-1.38069,63.79211-2.78571,95.69141-4.09944
		c1.9762-0.08139,4.38715-1.10414,5.95389,1.48126c-2.62717,1.94662-5.74957,1.15688-8.57516,1.7388
		c-4.27591,1.63301-8.88235,1.36676-13.25226,1.57031c-11.45837,0.53377-22.8674,1.69727-34.30225,2.44151
		c-11.73953,0.76408-23.52417,1.17506-35.2226,2.64056c-4.93207,0.61783-9.92758,0.58882-14.8886,0.98573
		c-9.233,0.73868-18.50577,1.0477-27.71564,2.18773C220.90752,219.1615,216.95845,217.3279,212.99231,218.60176z"/>
	<path class="st4" d="M635.59204,259.4404c2.51276,2.98779,5.23615,5.45288,7.21558,8.57471
		c2.73157,4.30814,3.23419,8.64487,0.76947,13.2052c-2.60938,4.82797-5.2486,9.64008-7.81757,14.48947
		c-1.09534,2.06778-2.22589,4.19736-0.56451,6.5296c0.93408,0.84653,1.82776,0.34589,2.77301-0.01654
		c1.7406-0.66745,2.91058,0.30402,3.76624,1.61703c0.78235,1.20062,0.75037,2.5694-0.04779,3.77725
		c-0.88824,1.34387-2.17352,1.99954-3.83606,1.82407c-4.07593-0.43024-6.81494-3.45221-6.87787-7.78476
		c-0.08112-5.58112,1.69012-10.8667,3.33685-16.04224c2.56305-8.05524,2.65869-15.39999-1.95551-22.93188
		c-2.89594-4.72708-0.89563-10.42546-0.6333-15.66811c0.18274-3.6517,0.38507-7.28326,0.39197-11.50182
		c-13.89862-1.90508-27.909-1.74205-41.68945-3.75049c0.34985-2.67685,1.68048-2.85365,3.04492-2.8576
		c13.32428-0.03859,26.64899-0.12366,39.9726-0.03996c4.0741,0.02557,5.71021,2.12675,5.22644,6.03741
		C637.66962,242.96581,636.64789,251.02684,635.59204,259.4404z"/>
	<path class="st1" d="M560.91571,165.33197c0.55927,2.7623-0.69678,3.52379-2.95264,3.5932
		c-3.15503,0.09708-6.30255,0.46158-9.45734,0.53378c-21.13019,0.48366-42.26605,0.77022-63.39136,1.4088
		c-27.94128,0.8446-55.88364,1.57349-83.83139,2.16573c-6.1409,0.13013-12.29486,0.50323-18.44815,0.59827
		c-1.43066,0.02208-2.97079,0.44572-4.24564-0.61845c0.03638-1.74414,1.33551-1.27841,2.15112-1.30887
		c19.78116-0.7388,39.56439-1.42311,59.34604-2.14912c27.591-1.01262,55.1955-1.77496,82.76428-3.21671
		c10.79315-0.56444,21.62708-0.15842,32.38947-1.42145C557.00031,164.71057,558.87744,164.45506,560.91571,165.33197z"/>
	<path class="st0" d="M428.11758,299.26389c-1.28995-5.33469-3.3226-10.40259-2.9169-16.34
		c9.84927-0.41605,19.42447-0.8205,29.12463-1.23026c3.60992,4.24457,4.67099,9.51639,6.97549,14.65024
		C450.56378,300.18234,439.884,301.26898,428.11758,299.26389z"/>
	<path class="st4" d="M251.79655,117.25906c10.1898,2.18539,18.53914,3.97606,27.54015,5.90649
		c0,6.25121-0.02655,12.35597,0.0097,18.46037c0.02261,3.8131,0.00201,7.62115,0.49344,11.42879
		c0.34155,2.64606-0.63672,4.76662-3.79138,4.49255c-7.2608-0.63075-14.51114-1.39041-21.75569-2.18919
		c-0.92105-0.10158-1.78186-0.74976-3.13525-1.35118C251.41103,142.07028,251.0161,130.1134,251.79655,117.25906z"/>
	<path class="st4" d="M211.11528,92.45351c12.32022,0.6898,22.97516,4.05061,33.91257,6.2674c0,7.02819,0,13.4217,0,19.75799
		c-4.22165,2.58199-8.11765,0.27791-11.91534-0.05156c-5.92874-0.51431-11.78598-1.82047-17.6879-2.69403
		c-2.1626-0.3201-4.17091-1.03419-4.24388-3.4006C210.9877,106.0729,211.11528,99.80321,211.11528,92.45351z"/>
	<path class="st8" d="M392.39246,293.50314c-0.7485-4.08957,0.41272-7.86771-2.29092-11.75681
		c10.16461,1.022,19.43347,0.78705,29.02988,1.22134c-2.14117,5.28433,1.5451,9.44727,2.09036,14.84177
		C411.59726,295.92114,402.14911,294.76544,392.39246,293.50314z"/>
	<path class="st1" d="M365.71213,227.81952c-7.80353-1.54008-15.39081-0.97232-23.21558-1.22087
		c-0.55286,4.01328-0.5217,7.4158-0.12772,10.91528c5.43524,1.92093,10.88873,0.55779,16.08066,1.58368
		c-0.95673,5.58228-6.00992,7.33365-18.89877,6.37408c-1.164-7.33987-1.27924-14.8306-1.32648-22.69577
		c10.66217-0.81012,20.83481,1.08348,31.36075,1.05804c1.20471,4.58339,0.21893,8.99275,0.61096,12.93558
		c-1.27243,1.27942-2.25723,0.90408-3.36053,0.85147C365.48743,234.63458,366.63574,231.36121,365.71213,227.81952z"/>
	<path class="st8" d="M416.00229,267.96527c0.81915,3.18591,1.55759,6.05798,2.43506,9.47067
		c-10.33551,2.27356-20.59525,0.54843-30.89749,2.04416c-0.80701-4.02817-0.31784-7.60648-0.50839-11.51483
		C396.77014,267.96527,406.1431,267.96527,416.00229,267.96527z"/>
	<path class="st4" d="M354.1532,278.77823c-10.22217-0.47427-19.72382,1.25012-29.63132,0.67618
		c-0.41455-3.9837-0.65521-7.65576,1.03928-11.5871c8.61063,0,17.18234,0,26.05228,0
		C352.37732,271.14896,353.15286,274.48083,354.1532,278.77823z"/>
	<path class="st4" d="M467.35321,293.50848c-1.17294-3.96466-2.96277-7.67819-5.03891-11.63965
		c9.32358-1.23593,18.41208-0.82504,27.05869-2.37558c2.1048,2.01636,2.76068,4.24567,3.86377,7.03174
		c-7.89594,3.94424-15.29498,8.87012-24.00714,11.15558c-1.19144-2.10745,0.2702-3.06952,1.79977-3.77368
		c3.45529-1.59076,7.04312-2.86081,11.64926-4.92523c-4.23541,1.72549-7.28259,3.11209-10.41583,4.26535
		C470.73291,293.81009,469.08292,295.45691,467.35321,293.50848z"/>
	<path class="st9" d="M380.75522,253.68755c1.80862,3.46999,2.33694,6.88991,3.2247,10.63591
		c-9.59094,0.75357-18.79422-0.83585-28.12448-0.36163c-2.17059-3.30811-1.54092-6.79688-1.61359-10.60854
		C363.26071,251.7964,372.06186,253.88152,380.75522,253.68755z"/>
	<path class="st9" d="M447.08807,266.76505c1.89383,3.00839,3.36526,5.7243,4.35971,9.4794
		c-9.82132,0.53192-19.29099,1.04477-28.5416,1.54578c-2.05499-3.07556-2.87326-6.14246-4.42731-9.73782
		C428.03973,266.64212,437.33331,265.7887,447.08807,266.76505z"/>
	<path class="st4" d="M411.55869,255.83644c0.87747,2.82179,1.70334,5.47771,2.5285,8.13127
		c-6.60938,2.41016-19.30487,2.52887-27.409,0.26187c-1.19788-3.19717-1.42813-6.62418-2.24402-10.51424
		C393.75473,254.26909,402.62851,254.69289,411.55869,255.83644z"/>
	<path class="st8" d="M356.08502,267.53247c9.85535,0,19.08041,0,28.55334,0c0.30365,4.22476-0.75122,7.60977-1.76349,11.10764
		c-7.29645,0-14.38055,0-21.5463,0C359.25287,275.05011,357.53986,271.55832,356.08502,267.53247z"/>
	<path class="st4" d="M348.18817,252.71199c2.03589,0.08301,2.93372,1.13452,2.88297,3.17554
		c-0.06537,2.62914-0.01593,5.26112-0.01593,8.36873c-8.1123,0.42715-16.04807,1.73026-24.42404,1.6041
		c-0.85767-3.34116-1.69022-6.58441-2.46698-9.61044c1.94565-2.01024,4.12006-1.12859,5.96378-1.64531
		C335.9985,252.54698,342.06192,252.32951,348.18817,252.71199z"/>
	<path class="st10" d="M219.08189,123.32555c7.27939-0.74426,13.31125,1.81744,20.39294,2.6367
		c1.14169,8.09479,0.60364,16.03279,0.44226,24.66507c-6.51022,0-12.27264,0.09537-18.02887-0.05266
		c-1.96692-0.05057-2.79138-1.64099-2.79691-3.51094C219.06874,139.42964,219.08189,131.79544,219.08189,123.32555z"/>
	<path class="st9" d="M482.40137,267.12561c2.17957,2.43463,3.75641,4.87408,5.17291,8.59335
		c-10.86346-2.1741-20.98932,0.47427-31.29807-0.03268c-2.05377-2.45349-3.15576-5.35205-4.70468-8.56067
		C462.0686,267.12561,472.08453,267.12561,482.40137,267.12561z"/>
	<path class="st4" d="M318.4454,279.2377c-7.54514,0.77078-14.53784-0.82004-21.93076-0.26581
		c0.31161-3.97998,0.56577-7.22644,0.84677-10.8154c7.81982,0,15.52475,0,23.46799,0
		C321.06451,272.08344,319.3403,275.32474,318.4454,279.2377z"/>
	<path class="st11" d="M384.97269,182.90211c56.48148-0.12759,112.95639-1.54395,170.18051-0.95508
		C551.69519,183.88904,390.81366,184.70941,384.97269,182.90211z"/>
	<path class="st12" d="M212.99231,218.60176c5.09605-1.81926,10.48039-0.99156,15.71172-1.55081
		c11.5321-1.23279,23.15631-1.58478,34.73576-2.39816c17.35953-1.21944,34.69955-2.77341,52.07352-3.7094
		c11.58426-0.62411,23.11426-2.1277,34.73453-2.09779c0.37915,0.32362,0.7583,0.64725,1.13745,0.97089
		c-4.92856,1.81267-10.15872,1.07753-15.21954,1.55508c-15.83432,1.49417-31.73877,2.22861-47.60629,3.39101
		c-20.6554,1.51317-41.30019,3.17079-61.95308,4.71925c-2.47501,0.18556-4.97198,0.078-7.4588,0.10631
		C217.32066,217.85625,215.00851,219.15234,212.99231,218.60176z"/>
	<path class="st13" d="M137.15529,356.52155c-1.61171,2.12662-3.75272,2.047-5.62633,2.50513
		c-20.60811,5.03894-40.74834,11.87521-61.58967,16.02545c-1.98904,0.39609-3.89032,1.27267-5.30139-1.0842
		c0.09399-2.2999,1.65826-2.91696,3.62499-3.23724c21.6297-3.52203,42.743-9.3168,63.97958-14.56934
		C133.78349,355.78018,135.36185,354.96503,137.15529,356.52155z"/>
	<path class="st14" d="M361.88034,288.90393c-0.80145-1.50092-0.70709-2.94263-0.07419-4.88898
		c7.0296-0.64001,14.23508-1.29608,21.23804-1.93365c2.89963,2.97339,1.78867,6.62592,2.9021,9.48523
		c-0.94843,1.76779-2.59659,0.65533-3.71344,1.35037c0.71921,1.53827,3.16428-0.14474,3.74307,2.65012
		c-8.27957-0.75613-16.1958-2.16238-24.34921-3.99921c1.54272-1.87543,3.47372-0.23419,4.78946-1.35733
		C365.08527,289.50629,363.42154,290.21841,361.88034,288.90393z"/>
	<path class="st8" d="M294.2771,267.76773c-1.06061,4.49817-1.6033,8.07828-3.03836,11.37952
		c-11.71158,0.11298-25.84247-3.99612-28.03406-8.62155C273.42609,268.88004,283.54059,268.51379,294.2771,267.76773z"/>
	<path class="st15" d="M292.38425,248.78578c-0.40842-7.50607-0.78445-14.12296-1.11987-20.74188
		c-0.11761-2.32097,0.88599-4.10197,3.31567-4.11925c7.2998-0.05194,14.51584-1.86719,22.35092-1.12682
		c0,7.4827,0,14.84111,0,22.73099C309.01666,247.1002,301.00351,247.73308,292.38425,248.78578z"/>
	<path class="st4" d="M389.04251,251.75307c3.10855-0.33807,6.81418,1.05414,8.8082-3.2529
		c-6.89917-4.31934-14.88977,0.3378-21.78137-2.28793c-0.98126-2.31604-1.93961-4.23917-1.86987-6.46805
		c3.31863-0.07405,6.63727-0.1481,9.9559-0.22217c-1.5231,3.11099,0.00308,4.63406,2.89572,5.10724
		c2.03516,0.33289,4.13989,0.24066,6.13898,0.33472c1.39236-1.21777,0.89554-2.77066,1.00888-4.18484
		c3.16461-2.31624,6.43405-1.87852,9.73776-0.38113c0.69446,3.33646-2.71201,1.7182-3.90887,3.4422
		c1.68488,1.77875,3.8298,1.46707,5.55826,1.42044c2.06989-1.19406,1.44867-3.81241,3.51834-4.45682
		c3.27655-0.28989,6.83838-2.0681,9.29938,1.80048c-2.27396,0.50885-4.97226-0.87543-6.86002,1.50681
		c-0.33835,2.44305,2.93173,3.11554,2.65836,5.48676c-1.02725,1.57739,0.52362,0.50027,0.69241,0.5647
		c0.90646,0.34598,2.5509-0.57959,2.37363,1.50665c-1.27097,0.02283-2.04135,0.5798-2.06421,1.93445
		c-3.43958,0.01102-6.91266,0.45718-10.25531-0.78992c0.47543-1.09497,0.87442-2.07928-0.76755-2.6604
		c-2.41028-0.853-3.01465,1.03113-3.9798,2.42484C396.45987,252.59874,392.6778,253.16859,389.04251,251.75307z"/>
	<path class="st9" d="M225.24052,71.89278c6.71472-3.29405,12.07141,2.30794,18.36124,1.79345
		c0.97577,5.65289,0.68271,10.71712,0.65726,15.33745c-1.4176,1.61605-2.6467,1.57301-4.0322,1.17616
		c-3.03271-0.86868-6.07382-1.7226-9.14575-2.43495c-2.44675-0.5674-3.62405-1.98567-3.95346-4.45504
		C226.64711,79.7078,225.95348,76.13417,225.24052,71.89278z"/>
	<path class="st16" d="M648.01978,287.55682c-1.54279,1.26245-2.66901,1.06509-3.81396,0.9566
		c-0.06653-0.43863-0.22028-0.90823-0.13312-0.95834c1.69714-0.97485,2.32349-2.26508,2.38202-4.35703
		c0.82935-29.64073,0.65131-59.28607,0.51312-88.9305c-0.03571-7.65175-2.94708-10.39482-10.59009-10.45399
		c-9.99512-0.07741-19.99109-0.05695-29.9859-0.155c-1.56873-0.01538-3.29816,0.58365-4.72168-0.68127
		c0.24048-1.53114,1.44763-1.12962,2.29431-1.12869c12.15363,0.01341,24.31268-0.20761,36.45135,0.63756
		c4.39252,0.30585,7.53015,3.66356,7.86005,8.73332c0.23767,3.65196,0.16522,7.32695,0.1579,10.99152
		c-0.05396,26.98782-0.12311,53.97562-0.20221,80.96338C648.22723,284.65302,648.09167,286.13123,648.01978,287.55682z"/>
	<path class="st15" d="M298.91666,146.19257c-12.55917,1.82143-13.42471,1.1485-13.6745-10.33252
		c-0.08594-3.94978-0.65195-7.91785,0.12732-12.19554c4.41501-1.88306,8.73352,0.40994,13.60764-0.05914
		C299.73376,131.3391,299.40137,138.65034,298.91666,146.19257z"/>
	<path class="st7" d="M320.49374,255.63655c0.23929,3.80406-1.80103,6.89049-0.66345,10.19743c-7.45267,0-14.76041,0-22.11981,0
		c-0.39832-2.9935,0.44159-5.16678,0.68732-7.73508C305.81482,257.27237,313.1322,256.45694,320.49374,255.63655z"/>
	<path class="st17" d="M297.38422,173.52531c-5.03757,0-9.26932,0-14.03793,0c-0.19705-7.03137-1.35822-13.81488-0.84848-21.18388
		c5.00507,0.3075,9.67343,0.59431,14.98453,0.92061C298.47372,160.17725,297.58331,166.70374,297.38422,173.52531z"/>
	<path class="st18" d="M276.58304,116.87138c-7.54108-0.44322-14.23029-2.57423-21.45341-4.05011
		c0.46066-6.1356-1.99762-11.90954,0.08182-18.0548c6.91331,1.02154,13.24406,2.63041,19.63472,4.16801
		C276.20407,104.89104,276.52682,110.55317,276.58304,116.87138z"/>
	<path class="st4" d="M415.09473,255.95448c8.93817,0.96965,16.95947,1.9485,25.00461,2.65639
		c3.00586,0.26447,4.32843,1.69492,4.8266,4.66299c-9.12268-0.31204-17.94052,0.85391-27.04166,1.36502
		C416.98355,261.83472,416.14655,259.229,415.09473,255.95448z"/>
	<path class="st9" d="M577.33167,289.94897c13.9054,0.86819,27.69,1.72885,41.23993,2.57486
		c0.67957,2.0217-0.40814,3.08017-0.55383,4.80731c-12.78772-1.31934-25.40338-2.58713-38.00616-3.97272
		C578.73041,293.21759,576.79431,293.16507,577.33167,289.94897z"/>
	<path class="st19" d="M245.20607,174.08617c-7.29785,0.82919-14.19833,0.62029-21.64505,0.7917
		c-0.7547-5.42754-0.40189-10.4496-0.57343-16.00073c7.48376-0.06284,14.36084-0.40372,21.70209,1.09853
		C245.47578,164.37695,245.3994,168.76413,245.20607,174.08617z"/>
	<path class="st10" d="M363.76999,236.76146c-6.64969,0.08676-12.76883-0.03513-19.12015-1.17488
		c-0.78491-2.32535-1.78128-4.71179-1.17181-7.88118c6.85593,0.01758,13.46527,1.16006,20.03711,1.76662
		C364.33444,232.27248,364.16965,234.46925,363.76999,236.76146z"/>
	<path class="st20" d="M256.5759,177.47086c-0.88551-4.61366-1.48067-8.79921-1.05608-13.61342
		c6.37694-0.23282,12.57405-0.34435,18.89629,0.04065c1.39261,4.66917,0.5451,8.8343,0.42957,13.48688
		C268.42938,177.8645,262.57205,177.79613,256.5759,177.47086z"/>
	<path class="st10" d="M283.30978,259.79428c3.74026-0.28964,7.4805-0.57928,11.42953-0.88507
		c0.47656,2.37509,0.49896,4.414-0.41794,6.34067c-9.73755,0-19.21655,0-28.89215,0c0.72647-2.19238,2.32913-2.2507,3.67825-2.70102
		C273.47491,259.7402,278.48044,260.22134,283.30978,259.79428z"/>
	<path class="st4" d="M506.00006,275.58398c-4.93115,0-9.53003,0-14.08282,0c-1.93982-2.48865-3.48499-4.99829-4.66223-7.74966
		C497.21136,264.2934,506.39288,267.85834,506.00006,275.58398z"/>
	<path class="st20" d="M354.54095,284.41556c1.13797,2.09601,1.8522,3.72729,1.09946,6.37653
		c-10.54248-1.73328-21.13748-3.47519-31.73248-5.2171c0.02628-0.39108,0.05252-0.78217,0.0788-1.17325
		C334.08276,282.86456,344.22214,284.98215,354.54095,284.41556z"/>
	<path class="st21" d="M325.87823,245.55025c-1.02191-7.78972-0.59308-15.4128-0.48093-22.76283
		c3.2435-1.75398,5.85016-0.94591,8.65323-1.25052c-0.58609,2.94521-3.36914,1.70929-4.69574,3.8674
		c-0.95178,5.32332-1.21423,11.37009-0.92395,17.50951c2.17664,0.6853,4.31677-0.82623,6.87851,0.64041
		C332.10458,244.90999,329.46259,245.90144,325.87823,245.55025z"/>
	<path class="st22" d="M222.91875,287.55313c-4.67209,3.36438-9.58482,5.86102-14.98428,7.19946
		c-1.75275,0.43451-3.32191-0.38223-3.6812-2.40015c-0.34419-1.93314,0.63658-3.19955,2.45755-3.71338
		C211.96114,287.15747,217.4015,287.95935,222.91875,287.55313z"/>
	<path class="st23" d="M575.88361,282.85013c14.90259-0.12155,29.6889,1.67484,44.52893,2.58575
		C616.69769,287.1344,578.82648,284.83841,575.88361,282.85013z"/>
	<path class="st24" d="M429.70599,302.10657c5.75134,0.82062,11.52594,0.89783,17.27463,0.32462
		c5.25687-0.52417,10.16458-3.45685,15.57214-3.05255C456.74548,306.38916,439.77908,305.61554,429.70599,302.10657z"/>
	<path class="st25" d="M449.68701,263.5069c-1.00742-0.82224-1.6716-1.87161-1.82993-3.64389
		c10.55469,1.039,20.89343,2.05676,31.23215,3.07452c-0.00391,0.18979-0.00781,0.37958-0.01172,0.56937
		C469.45438,263.5069,459.83124,263.5069,449.68701,263.5069z"/>
	<path class="st26" d="M392.35928,295.87784c10.2193,0.51279,20.29651,1.81522,29.97644,5.32574
		C412.20044,300.22403,402.08783,299.11819,392.35928,295.87784z"/>
	<path class="st27" d="M348.18817,252.71199c-6.00351,0.78891-11.98563,1.78207-18.06021,1.89261
		c-1.42194-1.70255-3.45877-0.42184-5.10181-1.05161c3.66623-1.77228,7.70599-0.7973,11.55469-1.53406
		c4.77618-0.91428,9.75009-0.79562,14.63861-1.12314C350.56857,252.10127,348.78323,251.41331,348.18817,252.71199z"/>
	<path class="st26" d="M493.50037,279.13226c3.37604,0,6.24927,0,9.86328,0c-2.13647,2.78357-4.5174,4.04956-7.01398,5.56494
		C494.77429,283.23553,494.11096,281.49802,493.50037,279.13226z"/>
	<path class="st28" d="M554.67108,244.62148c-4.15497-0.22394-8.48297,1.09613-12.33002-1.98212
		c4.29602-1.14026,8.50989-1.34763,12.61426-0.05893C554.8606,243.26079,554.76581,243.94112,554.67108,244.62148z"/>
	<path class="st0" d="M400.20135,252.57817c-0.08652-1.14478-0.17303-2.28955-0.2774-3.67044
		c3.03021-0.17529,6.2309-1.20746,7.97128,2.59378c-0.53827,1.64526-1.94724,0.99686-2.94656,1.31223
		C403.36621,252.73521,401.78378,252.65669,400.20135,252.57817z"/>
	<path class="st29" d="M467.35321,293.50848c4.17725,0.27759,7.40039-2.48441,11.17078-3.49585
		c1.3501-0.36218,2.46478-1.82919,4.30066-0.85098c-3.17053,2.36032-6.89545,3.25366-10.24615,4.90573
		c-1.54971,0.7641-3.67477,1.07727-3.34888,3.61319C467.69775,296.69751,468.07782,294.85458,467.35321,293.50848z"/>
	<path class="st30" d="M283.30978,259.79425c-4.7341,0.91821-9.4682,1.8364-14.2023,2.75458
		c-0.35471-0.34213-0.70944-0.68433-1.06415-1.02649c4.22043-1.88596,8.76926-2.14264,13.26285-2.67328
		C281.74582,259.64792,282.57965,259.61121,283.30978,259.79425z"/>
	<path class="st31" d="M250.27641,291.76196c-0.1908-0.71646-0.04736-1.59906-0.97012-1.95166
		c1.32535-3.82806,2.65073-7.65616,3.9761-11.48422c0.30908,0.09744,0.61816,0.19489,0.92725,0.29236
		C253.47783,283.15005,251.89717,287.46121,250.27641,291.76196z"/>
	<path class="st32" d="M7.23292,270.36929c0.19098-3.23849,1.70365-5.46408,4.40225-6.38846
		c11.31475-3.87585,22.6234-7.83902,34.61306-9.17009c1.11003-0.12326,2.32787-0.43375,3.8337,0.71329
		c-3.38508,5.47319,1.81992,9.47923,2.88911,14.40501c0.13208,0.60849,1.19889,1.39319,1.88038,1.44312
		c5.24888,0.38437,10.51881,0.78229,15.49164-0.24185c2.18958-6.14972,5.61601-11.53128,2.26501-18.25459
		c6.48003,0,12.10007,0,18.00835,0c1.65176,5.07368,1.2263,10.63829,2.36423,15.95116
		c0.96243,4.49356,1.38148,4.85815,5.94246,4.11661c12.9583-2.10684,25.91516-4.22287,38.87819-6.30032
		c5.3633-0.85956,6.30797-1.9725,5.9929-7.73322c3.87474,0.21848,7.49432,1.36078,10.95029,2.8157
		c4.5105,1.89883,5.0061,7.47998,0.95258,10.33005c-8.64006,6.07489-18.55339,8.8009-28.79254,10.57343
		c-19.07623,3.30234-38.29695,4.95364-57.63529,3.88065c-15.08419-0.83694-30.24305-1.52884-44.90051-5.79926
		c-3.18607-0.92828-6.32985-2.03046-9.42991-3.21759C11.37908,276.12976,8.7699,273.67548,7.23292,270.36929z"/>
	<path class="st32" d="M16.59939,294.32986c43.7778,12.17996,87.42222,12.00403,131.38426-1.07489
		c0.9133,1.85556,0.00867,4.15012,0.26483,6.88461c-8.13316,6.8558-17.44569,11.67447-28.15094,13.49625
		c-12.63773,2.1506-25.4225,2.70795-38.21381,3.42108c-12.388,0.69061-24.58243-0.0275-36.68258-2.43985
		c-7.67368-1.52991-15.13078-3.92966-22.13157-7.50644C17.27704,304.15118,15.79062,300.99075,16.59939,294.32986z"/>
	<path class="st33" d="M4.24262,278.71759c8.66425,6.47141,18.19246,9.07004,27.82382,10.70767
		c17.72139,3.01315,35.65314,4.44598,53.63987,4.00046c17.79898-0.44083,35.45157-2.42703,52.82002-6.59433
		c7.87155-1.8887,14.96904-5.42288,22.71243-10.20923c-1.23447,3.62823-3.39244,5.25119-5.55806,6.79922
		c-7.3582,5.2598-15.86978,7.64951-24.57147,9.16394c-38.88052,6.76669-77.45761,5.51651-115.60315-4.99539
		c-2.54568-0.70151-5.0086-1.78839-7.40643-2.91626C5.93472,283.6553,4.34199,282.04584,4.24262,278.71759z"/>
	<path class="st34" d="M138.7923,261.34595c-14.22295,2.33447-27.29709,4.48041-40.95467,6.72208
		c-1.16226-10.25241-2.26973-20.02153-3.42975-30.25418c12.89163-1.09081,25.43378-1.96805,38.65047-2.31038
		C135.94925,243.78548,136.41397,252.5042,138.7923,261.34595z"/>
	<path class="st33" d="M30.49327,200.21794c-2.32544,1.20903-1.5218,3.68214-3.90393,4.31711
		c-0.74705-2.46248-1.37729-5.01089,0.64201-6.85529c2.65179-2.42206,5.23711,0.46783,7.89318,0.79199
		c5.31975-5.20892,7.75769-4.79185,10.84084,1.90799c0.62319,1.35425,1.2401,2.73152,1.65411,4.1579
		c1.00753,3.47116-0.69332,6.32857-4.15195,6.12289c-2.40301-0.14288-4.06496,1.09988-6.04185,1.69493
		c-2.17736-0.31592-3.93375-1.11868-4.21156-3.52812c-0.31013-2.68974,1.89977-3.6002,3.73149-4.80165
		C36.36438,199.52609,32.68378,200.92987,30.49327,200.21794z"/>
	<path class="st35" d="M144.48277,368.71915c0-18.79907-0.03314-37.5983,0.04721-56.397
		c0.0088-2.06012,0.05397-4.51062,3.40108-4.96774c-0.97261,20.46548-1.94014,40.82388-2.90767,61.18228
		C144.84319,368.5975,144.66298,368.65833,144.48277,368.71915z"/>
	<path class="st36" d="M15.31788,311.04941c2.42412,0.26941,3.94363,1.18066,3.94924,3.38217
		c0.0452,17.73932,0.02532,35.47882,0.02532,53.21826c-0.35959,0.01285-0.71917,0.0257-1.07876,0.03854
		C17.25083,348.8558,16.28797,330.02325,15.31788,311.04941z"/>
	<path class="st37" d="M46.56272,176.90543c3.52745-0.53253,4.43985,2.68375,6.52193,4.08124
		c0.29765-0.04024,0.70868,0.03154,0.87397-0.13727c1.90797-1.94875,3.96824-2.55165,6.01469-0.3761
		c1.58044,1.68018,1.68085,3.63652-0.14062,5.26675c-2.21777,1.98494-4.2365,1.06487-6.16279-0.64253
		c-1.6018-1.4198-3.27535-2.75865-4.83123-4.06143c-1.62305,0.59706-1.65413,1.72351-1.53803,2.85533
		c0.5835,1.48969,2.6704,0.48003,3.19043,2.03069c-0.19691,0.241-0.34764,0.61472-0.55402,0.6485
		c-1.87989,0.30772-3.77391,0.31995-4.76543-1.66534C43.66745,181.89346,44.19441,179.17628,46.56272,176.90543z"/>
	<path class="st37" d="M71.8855,193.84343c2.73946,0.75612,4.31584,2.65858,4.88612,5.57144
		c-0.84341,2.50058-2.60275,3.93405-5.46793,4.90637c0.09409-2.41823,2.44167-2.6321,2.85032-4.37274
		c0.02894-1.2392-0.82716-1.84613-2.09836-2.12308c-1.8571,0.59776-2.07584,2.43568-2.85079,3.82207
		c-1.18172,2.11406-2.99925,2.61194-5.06664,1.82707c-1.75605-0.66664-2.35703-2.27931-2.07893-4.09073
		c0.31523-2.05327,1.86397-3.89847,3.61098-3.25851C68.60162,197.1991,69.24162,194.13042,71.8855,193.84343z"/>
	<path class="st38" d="M118.96159,351.81009c-1.55013-10.48334-2.60872-20.98727-2.4998-31.56442
		c0.00784-0.76065,1.10228-1.11859,2.4998-0.83954C118.96159,330.14148,118.96159,340.97577,118.96159,351.81009z"/>
	<path class="st39" d="M49.56343,219.17723c-1.52495,2.62938-2.71717,4.91235-5.37671,4.52872
		c-3.19224-0.46048-4.35446-3.11777-4.91549-5.90311c2.77079-3.50325,3.12011-3.61397,8.6349-2.78674
		c-0.79603,2.03003-3.41924,1.30797-4.3134,3.00455c-0.86225,1.49046,0.2932,2.38979,0.89632,3.36839
		C46.70678,222.03401,46.94786,219.28493,49.56343,219.17723z"/>
	<path class="st40" d="M67.56233,210.86575c2.11822,0.05838,1.2184,2.25598,2.85539,2.3347
		c2.50014-0.16165,1.59528-2.73761,2.6219-4.41806c2.43733,1.22057,2.84538,3.19069,2.08836,5.29456
		c-0.68859,1.91371-2.41803,2.69342-4.437,2.15115C68.05093,215.51901,67.01329,213.7643,67.56233,210.86575z"/>
	<path class="st41" d="M88.44412,200.90727c0.4445-2.69075,2.883-2.87285,3.34987-4.09898
		c0.91275-1.96169-1.28259-2.48651-0.84621-4.2307c2.42447,0.155,4.15465,1.24515,5.38449,3.47629
		C95.1815,199.9086,92.39394,200.87863,88.44412,200.90727z"/>
	<path class="st42" d="M88.57483,220.16464c-1.02275-1.97334,1.32309-2.34766,1.1371-3.71184
		c-0.80806-1.36063-2.91536-1.55803-3.25763-3.70341c3.07588-0.0412,5.43224,1.18124,7.63161,2.63834
		C93.37778,219.46671,93.37778,219.46671,88.57483,220.16464z"/>
	<path class="st43" d="M196.38628,94.76031c-0.00916-10.37274-0.0183-20.74548-0.02744-31.11823
		c0.88573,0.70878,0.85651,1.70969,0.85411,2.69759c-0.02068,8.55081-0.04515,17.10162-0.06465,25.65244
		C197.14603,92.98724,197.12845,93.97182,196.38628,94.76031z"/>
	<path class="st43" d="M123.25481,49.56862c-1.13657,0.12812-2.26869,0.23885-3.10808-0.79497
		C121.27846,48.66448,122.40907,48.55965,123.25481,49.56862z"/>
	<path class="st43" d="M164.1534,64.80132c1.1349-0.11151,2.26303-0.19732,3.1015,0.81678
		C166.11818,65.73653,164.98802,65.83,164.1534,64.80132z"/>
	<path class="st43" d="M171.25435,58.57019c-1.13103,0.10473-2.27228,0.24889-3.10284-0.80479
		C169.28334,57.65757,170.41359,57.55579,171.25435,58.57019z"/>
	<path class="st43" d="M139.25374,52.57101c-1.13678,0.13084-2.26221,0.21655-3.11528-0.78234
		C137.27818,51.64608,138.40167,51.56812,139.25374,52.57101z"/>
	<path class="st43" d="M176.26851,59.51198c-1.14288,0.18521-2.25859,0.2578-3.1133-0.75123
		C174.28578,58.62656,175.39867,58.56563,176.26851,59.51198z"/>
	<path class="st43" d="M144.26044,53.55157c-1.13144,0.11371-2.26617,0.24001-3.09486-0.80714
		C142.29176,52.65085,143.42368,52.53538,144.26044,53.55157z"/>
	<path class="st43" d="M109.13911,52.83711c0.83633-0.12909,1.59552-0.01513,2.16769,0.68803
		C110.44879,53.72255,109.70764,53.55175,109.13911,52.83711z"/>
	<path class="st43" d="M105.11348,51.93908c0.8495-0.2005,1.58572-0.04337,2.14299,0.67877
		C106.42825,52.75117,105.68604,52.61293,105.11348,51.93908z"/>
	<path class="st43" d="M118.14445,54.82232c0.83707-0.13007,1.59383-0.00702,2.16904,0.68819
		C119.4514,55.71947,118.71593,55.52932,118.14445,54.82232z"/>
	<path class="st43" d="M149.28218,54.47092c-0.85298,0.21287-1.58578,0.03812-2.15385-0.66785
		C147.9642,53.64539,148.70039,53.80916,149.28218,54.47092z"/>
	<path class="st43" d="M133.27908,51.48824c-0.84758,0.18781-1.59744,0.06049-2.16037-0.6698
		C131.95518,50.66646,132.70154,50.80511,133.27908,51.48824z"/>
	<path class="st43" d="M128.26689,50.53345c-0.84621,0.17487-1.59247,0.02544-2.17075-0.66901
		C126.94987,49.66517,127.68336,49.85603,128.26689,50.53345z"/>
	<path class="st43" d="M114.12068,53.90407c0.84906-0.1777,1.58798-0.01837,2.14398,0.70068
		C115.42711,54.74724,114.68739,54.59035,114.12068,53.90407z"/>
	<path class="st43" d="M117.27698,48.49928c-0.84467,0.17464-1.59126,0.03394-2.16197-0.67234
		C115.95901,47.65438,116.70125,47.80914,117.27698,48.49928z"/>
	<path class="st43" d="M112.27249,47.50609c-0.85304,0.21384-1.59413,0.05325-2.17308-0.64968
		C110.94443,46.66938,111.6776,46.85648,112.27249,47.50609z"/>
	<path class="st43" d="M106.28763,46.44724c-0.84781,0.20774-1.59145,0.07464-2.15189-0.65776
		C104.96143,45.65411,105.70894,45.77455,106.28763,46.44724z"/>
	<path class="st43" d="M192.12016,66.78441c0.91127,0.37671,1.04439,1.11968,0.93126,1.97855
		C192.37456,68.27592,192.17368,67.56484,192.12016,66.78441z"/>
	<path class="st43" d="M184.10864,68.56334c0.54393-0.73162,1.29918-0.86741,2.14093-0.75927
		C185.70222,68.52608,184.96756,68.71987,184.10864,68.56334z"/>
	<path class="st43" d="M174.1216,66.90601c0.85091-0.19747,1.59039-0.03799,2.15761,0.67345
		C175.43935,67.74153,174.70157,67.57655,174.1216,66.90601z"/>
	<path class="st43" d="M169.1391,65.83679c0.83888-0.1298,1.59395-0.00244,2.16028,0.70404
		C170.44147,66.72903,169.70386,66.54812,169.1391,65.83679z"/>
	<path class="st43" d="M160.1274,63.87784c0.84648-0.16003,1.58798-0.00131,2.1483,0.70754
		C161.42902,64.74603,160.69238,64.5725,160.1274,63.87784z"/>
	<path class="st43" d="M155.14238,62.82762c0.83812-0.13011,1.59256,0.00006,2.16502,0.69615
		C156.44547,63.72792,155.71107,63.53542,155.14238,62.82762z"/>
	<path class="st43" d="M192.26813,62.53047c-0.84352,0.1638-1.59547,0.03258-2.16904-0.67331
		C190.95021,61.66892,191.69,61.83929,192.26813,62.53047z"/>
	<path class="st43" d="M151.11954,61.91057c0.84924-0.1866,1.58817-0.02795,2.1494,0.68681
		C152.4312,62.74797,151.6916,62.59139,151.11954,61.91057z"/>
	<path class="st43" d="M187.25833,61.56512c-0.83923,0.13059-1.60356,0.02959-2.16454-0.70011
		C185.94714,60.69077,186.69164,60.8531,187.25833,61.56512z"/>
	<path class="st43" d="M154.28723,55.44749c-0.84665,0.2113-1.58453,0.05812-2.15865-0.64404
		C152.96056,54.64133,153.70328,54.77834,154.28723,55.44749z"/>
	<path class="st43" d="M123.13492,55.84843c0.83849-0.12676,1.59181,0.00412,2.15439,0.71209
		C124.43393,56.73839,123.69418,56.56641,123.13492,55.84843z"/>
	<path class="st43" d="M160.26958,56.52886c-0.84033,0.14841-1.60405,0.05307-2.16698-0.68111
		C158.94791,55.68351,159.69933,55.81799,160.26958,56.52886z"/>
	<path class="st43" d="M128.11723,56.91904c0.8483-0.18465,1.58743-0.02979,2.14499,0.68973
		C129.42769,57.75061,128.68616,57.6032,128.11723,56.91904z"/>
	<path class="st43" d="M165.27754,57.49564c-0.84567,0.18128-1.59273,0.04281-2.16347-0.6673
		C163.95648,56.65765,164.69916,56.81034,165.27754,57.49564z"/>
	<path class="st43" d="M132.13989,57.83472c0.83659-0.12934,1.59508-0.01265,2.168,0.6884
		C133.44855,58.72408,132.70895,58.54796,132.13989,57.83472z"/>
	<path class="st43" d="M137.1232,58.89128c0.84305-0.15743,1.59009-0.01796,2.15143,0.69572
		C138.43134,59.74522,137.68825,59.59353,137.1232,58.89128z"/>
	<path class="st43" d="M142.11139,59.95229c0.85164-0.21359,1.58286-0.04633,2.13853,0.67614
		C143.42555,60.75578,142.68512,60.61765,142.11139,59.95229z"/>
	<path class="st43" d="M181.27916,60.49115c-0.84286,0.17442-1.59212,0.04403-2.16383-0.6645
		C179.95753,59.65437,180.70296,59.79723,181.27916,60.49115z"/>
	<path class="st43" d="M146.13892,60.83719c0.84103-0.12984,1.59303,0.00715,2.15338,0.71851
		C147.43555,61.73267,146.69966,61.54736,146.13892,60.83719z"/>
	<path class="st43" d="M196.28024,63.54874c-0.39151-0.24535-0.78304-0.49069-1.17455-0.73604
		C195.67087,62.78094,196.04942,63.04697,196.28024,63.54874z"/>
	<path class="st43" d="M101.25136,50.64625c0.34341,0.31999,0.68684,0.63998,1.03027,0.95998
		C101.69479,51.54747,101.35713,51.22129,101.25136,50.64625z"/>
	<path class="st43" d="M191.14429,66.62361c0.42538-0.60487,0.76054-0.64376,0.96246,0.1534
		C191.78093,66.75727,191.4601,66.70613,191.14429,66.62361z"/>
	<path class="st43" d="M179.09471,67.94423c0.55237-0.09949,0.93822,0.14508,1.22557,0.59315
		C179.91176,68.33967,179.50323,68.14194,179.09471,67.94423z"/>
	<path class="st43" d="M188.06238,67.51302c0.4063-0.21899,0.81259-0.438,1.21889-0.657
		C188.87497,67.07502,188.46867,67.29402,188.06238,67.51302z"/>
	<path class="st32" d="M606.5249,57.67465c0.67957-2.59608,0.49841-4.51199-0.81232-7.00307
		c-17.36951,3.00208-34.94629,6.03999-52.57745,9.0873c-1.40936-2.48549-0.69574-3.57811,1.69391-3.96844
		c8.19574-1.33865,16.38855-2.69505,24.57782-4.0727c7.50757-1.26296,15.00903-2.56221,22.31079-3.81084
		c0.86682-2.24971,0.737-3.99031,0.05396-5.75336c-1.83618-0.8924-3.60571-0.35205-5.3894-0.05173
		c-15.39758,2.59238-30.79877,5.163-46.19641,7.7544c-1.39679,0.23508-2.97021,1.26428-3.95605-2.06445
		c17.14655-2.84642,34.17505-5.67323,51.38361-8.52995c0.8175-2.08385,0.70331-4.11776-0.10278-6.53724
		c-7.12164,1.08158-14.15845,2.07906-21.16974,3.23172c-10.65454,1.75162-21.29034,3.61709-31.93689,5.41778
		c-1.59332,0.26949-3.33942,0.75573-4.03925-2.26752c17.86536-3.16943,35.5592-6.30843,53.0766-9.41611
		c0.69812-2.28182,0.84106-4.03503-0.33423-6.47985c-18.7381,3.19972-37.63934,6.42731-56.54053,9.65489
		c-0.11115-0.67714-0.22223-1.35427-0.33337-2.0314c19.77985-3.29525,39.55975-6.5905,59.80157-9.9627
		c14.31427,31.5448,29.01624,63.24358,44.83801,95.32064c-13.54364,1.51608-26.32465,2.94681-39.86133,4.46211
		c-10.29614-18.91005-20.66046-37.94532-31.30292-57.4914C582.44659,61.26391,594.39307,59.48309,606.5249,57.67465z"/>
	<path class="st32" d="M596.65741,129.99478c-5.93951-10.58244-11.7019-20.87088-17.48541-31.1474
		c-5.46838-9.71664-10.95428-19.42343-16.44366-29.12817c-1.1568-2.04502-2.25989-4.3914-5.61072-1.12633
		c12.75189,21.12411,25.52032,42.27548,38.38062,63.57903c-2.85687,6.44632-5.67841,12.81297-8.92383,20.13618
		c-24.02246-39.5629-47.63153-78.44503-71.49054-117.73878c5.18085-1.6815,10.27991-1.75724,15.37482-2.98451
		c1.44,3.70996,1.16809,8.66062,6.85187,8.28935c-0.61597,6.84185-0.31763,7.30985,5.90601,9.26097
		c-0.26245,3.8118-0.40424,7.82321,5.07715,8.26011c-0.08203,1.28231-0.17834,2.26472-0.20203,3.24889
		c-0.10162,4.21943,1.16217,5.40342,5.38477,4.86013c3.11444-0.4007,6.20782-0.96577,9.90558-1.55193
		c11.73547,20.13323,23.513,40.33858,35.47205,60.85538c15.1814-0.71521,30.06689-1.41647,44.95233-2.11775
		c0.04456,0.48515,0.08911,0.97031,0.13367,1.45546C628.32025,126.65114,612.54559,127.9968,596.65741,129.99478z"/>
	<path class="st32" d="M589.58069,153.78827c2.78766-7.97345,5.1908-14.84717,7.76056-22.19748
		c16.54962-1.00607,33.07477-1.85757,49.83691-2.14125c3.0899,6.36545,6.03973,12.4424,9.2796,19.11691
		C634.0592,150.31535,612.29199,152.01495,589.58069,153.78827z"/>
	<path class="st32" d="M514.24005,251.83653c-13.91638-2.46558-27.9939-3.60654-42.02832-5.09827
		c-4.45111-0.47314-8.91147-0.85962-14.13989-1.35959c0.21661-11.09619,1.20853-22.04875,2.26059-33.30238
		c21.89267,1.06554,43.24655,6.63519,65.41562,2.45296c-2.29736,12.7937-4.21436,25.04137-4.44141,37.15494
		c-1.00842,1.26413-2.12317,0.70425-3.02869,0.98456c-1.28406-10.36093-0.3642-20.62201,1.29095-28.39769
		c-0.75403,2.63005-4.18079,6.78877-4.89001,11.96745c-0.73328,5.3548,1.63147,10.05881,2.95685,14.55423
		C516.46295,252.59547,515.3501,252.20836,514.24005,251.83653z"/>
	<path class="st32" d="M476.65271,193.8472c20.93439,5.06273,41.31989,1.47891,61.64545,1.16063
		c0.82141-0.01286,1.6626-0.19113,3.14838,0.88802c-7.8855,16.45328-4.82587,34.39584-5.4541,52.26201
		c-3.64276,1.15753-6.86456-0.91614-10.35358-0.65793c-2.93604-12.98688,4.21661-24.69319,4.48981-38.06082
		c-9.67731,1.30888-18.21735,5.13472-27.51648,3.42538c-8.77856-1.6136-17.74457-2.20708-27.09717-3.30432
		C475.90314,204.20015,476.26788,199.16232,476.65271,193.8472z"/>
	<path class="st32" d="M404.30627,241.65498c-3.26718-1.46835-6.72333-0.75565-10.10733-0.87585
		c-1.80011-0.17072-3.60022-0.34143-6.00934-0.56989c0.94229-9.99341,2.84094-19.74062,1.90909-30.05341
		c15.85391,1.23183,31.13516,2.9521,47.10464,1.58392c-0.33517,5.76947-3.20612,10.54927-2.89929,15.89326
		c0.29272,5.09888,0.06308,10.22772,0.06308,14.97127c-5.77652,0-10.8699,0-15.96332,0
		c-3.31351-1.33691-6.78409-0.79565-10.20456-0.85327C406.87781,242.68367,405.57425,242.88994,404.30627,241.65498z"/>
	<path class="st44" d="M451.85135,196.75648c-4.63525,12.30832-0.76904,24.73268-3.77005,36.59064
		c-0.43915,1.73518-0.72662,3.58521-2.02405,5.1787c-2.88528,0.75302-5.30786-1.19035-8.71951-1.17957
		c1.28265-9.75189,1.21719-19.116,3.86462-28.11584c-2.38568-2.66286-5.20251-1.62471-7.64429-1.18713
		c-9.56921,1.71481-19.19693,1.54048-28.83734,1.33153c-0.47055-0.01021-0.9361-0.25037-1.6666-0.45813
		c-0.37192-4.64256,0.99326-9.02867,1.5867-14.00899C420.29031,197.32599,435.66629,196.93274,451.85135,196.75648z"/>
	<path class="st45" d="M461.31082,253.5602c16.3638,1.35583,32.72958,2.74232,48.96268,5.25883
		c12.80426,1.98495,20.97577,11.15463,22.89594,25.26379c0.69336,5.09467,1.3454,10.19623,1.91547,15.30588
		c0.24164,2.16605,0.64978,4.21997,1.98407,6.1069c2.96521,0.11398,3.7171-3.12265,6.01807-3.90414l0.24194,0.21841
		c-1.00073,3.11703-2.77539,5.55588-5.96155,6.96252c-3.84235-1.65445-4.36627-5.25519-5.1413-8.56897
		c-1.8891-8.07819-2.98065-16.32462-6.02625-24.14822c-3.1994-8.21863-8.11078-13.59293-17.48273-14.90698
		c-11.68115-1.63785-23.39728-2.90863-35.09564-4.35757c-6.09845-0.75531-12.20151-1.4731-18.30249-2.20781
		C456.89813,251.79195,459.26837,253.63628,461.31082,253.5602z"/>
	<path class="st10" d="M514.24005,251.83653c0.66064-0.06958,1.32129-0.13916,2.45422-0.25845
		c-1.9975-5.36166-4.85065-10.57944-3.41296-16.45309c1.34979-5.51436,4.32654-10.26515,7.56537-15.35243
		c0.96484,3.21158-0.33374,5.70856-0.70612,8.23015c-0.92816,6.28381-1.15033,12.58273-0.94061,18.88806
		c0.06891,2.07141-1.26776,3.76233-0.922,5.77798C516.89886,252.55217,515.36169,253.20238,514.24005,251.83653z"/>
	<path class="st46" d="M461.31082,253.5602c-1.93579,0.70102-4.24185-0.76733-5.99179,1.02264
		c-8.55548-0.73767-17.1377-1.25787-25.65491-2.30637c-4.14838-0.51065-8.26489-0.42511-12.39594-0.60727
		c-1.37854-1.77338-3.61731-0.33493-5.23642-1.35672c0.54132-0.92703,1.47375-0.45377,2.17038-0.71463
		c14.95776,0.83887,29.84073,2.73132,44.82654,3.19644C459.79657,252.8181,460.55045,253.29451,461.31082,253.5602z"/>
	<path class="st45" d="M543.08704,301.59146c0.38605-1.46732,0.94379-2.83853,2.15247-3.8454l-0.06-0.0549
		c0.06207,1.67792-0.20502,3.20798-1.85052,4.11871L543.08704,301.59146z"/>
	<path class="st45" d="M545.2395,297.74606c0.08807-0.46289,0.17615-0.92578,0.27686-1.45514
		c0.75049,0.74841,0.28375,1.09549-0.33685,1.40024L545.2395,297.74606z"/>
	<path class="st32" d="M420.71524,137.37549c-9.3884,1.62735-18.4967,3.20615-27.68768,4.79927
		c-15.50574-18.25778-29.83441-37.09126-45.5896-55.03948c-2.21759,2.96883-0.12869,4.06734,0.92569,5.31079
		c13.44876,15.86019,26.94226,31.68244,40.43292,47.50706c0.96817,1.13568,2.03214,2.19502,2.6423,4.19167
		c-3.07327,5.60725-6.31879,11.52881-9.89182,18.04791c-28.51926-30.83685-56.61453-61.21529-85.35147-92.28754
		c10.95581-1.56007,21.15475-3.01235,31.24289-4.44886c2.04752,3.45189,0.81488,8.71726,6.65103,8.61794
		c0.37155,3.03803,0.79593,5.94759,4.28671,6.32004c1.56085,7.21506,1.56085,7.21506,11.35785,6.34746
		c6.31973,7.46146,12.85867,15.17567,19.39078,22.89565c6.66156,7.87299,13.3739,15.70418,19.94083,23.65536
		c2.08685,2.52672,4.36905,3.6974,7.73401,3.40834c6.79123-0.58344,13.61365-0.7955,20.41803-1.24004
		C418.57599,135.37231,419.9043,134.94766,420.71524,137.37549z"/>
	<path class="st32" d="M369.99649,75.39522c-0.50327-1.67424-1.00653-3.34848-1.46719-4.88096
		c-0.99942-1.08885-2.20178-0.74669-3.2822-0.89757c-1.04169-1.56762-1.02509-3.25925-0.70969-5.04016
		c0.34079-1.92442-0.3501-2.81883-2.39062-2.02385c-9.55405,1.16231-18.93793,3.75507-28.70413,3.34405
		c10.62979-3.4169,21.77133-3.83382,32.55191-5.94334c15.63107,23.39254,32.62314,45.53094,49.19763,69.0106
		c-7.37183,1.25844-14.27457,2.4368-21.45953,3.66335c-12.32178-15.5444-24.58539-31.01543-37.40317-47.18555
		c6.46771-1.20049,12.07251-2.2408,17.6712-3.27999c0.67764-3.38945,0.02887-5.53738-3.79437-5.36348
		C369.76376,76.38634,369.69382,75.91864,369.99649,75.39522z"/>
	<path class="st32" d="M384.61285,163.63022c3.06241-7.04401,5.7514-13.22911,8.60449-19.79172
		c10.36429-0.67563,20.72302-1.35089,31.32724-2.04216c4.20547,5.81573,8.34216,11.53633,12.98044,17.95062
		C419.68692,161.05611,402.73145,162.30049,384.61285,163.63022z"/>
	<path class="st47" d="M362.14679,62.55268c0.79218-0.85745,1.65778-0.96396,2.70569-0.17803
		c0.64978,2.32313,0.20255,4.8043,0.39462,7.24204c-5.27664,2.09378-10.97626,1.93877-16.45084,2.99006
		c-3.30518,0.63469-6.65237,1.74506-11.33099,0.98137c9.21219-2.87367,17.88004-2.97324,26.67194-5.26404
		C361.89163,66.68382,365.9314,63.67912,362.14679,62.55268z"/>
	<path class="st48" d="M369.99649,75.39523c0.06995,0.46769,0.13989,0.93539,0.20984,1.40309
		c-8.59985,2.0415-17.33963,3.14833-26.06335,4.36221c-0.08109-0.4427-0.16214-0.8854-0.24323-1.3281
		C352.59866,78.35336,361.29758,76.8743,369.99649,75.39523z"/>
	<path class="st49" d="M562.43439,255.84373c-0.36365-5.43671-0.33521-9.86487,0.14172-15.07715
		c18.74475,1.79181,37.40839,0.27786,56.45654,1.49484c-0.13391,5.72287,0.65637,10.63007-1.10675,16.21602
		C599.46967,257.6015,581.16827,256.73288,562.43439,255.84373z"/>
	<path class="st50" d="M584.71619,264.99487c2.30701-1.72101,4.73029-1.43134,7.76019-0.74423
		C589.74878,266.76791,587.14032,265.20593,584.71619,264.99487z"/>
	<path class="st36" d="M569.34204,166.58347c-1.34265,7.6192-2.6897,15.23764-4.02502,22.85811
		c-0.39954,2.27989-1.55798,3.75194-4.03827,3.26637c-2.37585-0.46515-2.74231-2.49707-2.1427-4.28471
		c2.55151-7.60631,5.51605-15.05557,8.92725-22.30548C568.48956,166.27299,568.91577,166.42822,569.34204,166.58347z"/>
	<path class="st51" d="M584.2251,231.38988c-4.51776,0-8.31085,0-12.43561,0
		C577.09631,226.69859,578.6972,226.66762,584.2251,231.38988z"/>
	<path class="st52" d="M575.02948,215.07278c-2.88446-3.28017-2.95538-3.58356-1.94177-7.3663
		C576.70001,209.65028,574.87891,212.59204,575.02948,215.07278z"/>
	<path class="st53" d="M355.73019,189.04262c-2.36874-2.94658-2.36874-2.94658,3.27332-15.39973
		C357.86212,178.54933,358.77652,183.87579,355.73019,189.04262z"/>
	<path class="st54" d="M361.95206,199.64267c1.63458,1.60947,1.34616,3.00729,0.89557,4.582
		C361.73148,202.8839,360.45251,201.74019,361.95206,199.64267z"/>
	<path class="st32" d="M515.52875,356.0535c-0.03064-0.15979-0.14557-0.39706-0.08032-0.46762
		c9.81213-10.60693,19.52692-21.31055,30.76245-30.48593c1.5697-1.28189,3.31445-1.24619,5.14807-1.37354
		c10.36426-0.71997,20.53583,1.13,30.75598,2.25974c7.08893,0.78357,14.14893,1.82767,21.22571,2.72424
		c1.94714,0.24673,3.87079,0.51959,5.91571,1.48093c-4.88477,9.1246-11.17499,17.08841-16.6228,25.58957
		c-1.88263,2.93784-3.94342,5.76114-5.84668,8.68631c-1.25226,1.92462-2.89545,2.57751-5.11597,2.08551
		c-21.25623-4.70978-42.96735-6.43405-64.42859-9.80023C516.62012,356.65491,515.91309,356.7431,515.52875,356.0535z"/>
	<path class="st32" d="M214.10327,278.88925c0-14.0433,0-28.26714,0-43.43495c19.49327-1.76517,39.40987-3.56866,59.71091-5.40697
		c1.30823,6.49725,1.36682,13.00304,1.21884,19.70888c-3.93674,1.01944-7.60281,2.00165-11.28561,2.91647
		c-12.76088,3.16989-23.46779,9.89009-32.98134,18.79253C226.28371,275.65967,221.79973,280.10495,214.10327,278.88925z"/>
	<path class="st52" d="M256.11044,122.70717c6.91922,0.12473,13.1084,1.73515,19.69601,2.51236
		c0.68329,9.2874-0.09183,18.133-0.70895,27.46469c-6.62503,0.15274-12.87402-1.11157-19.50343-1.5519
		C254.81367,141.44173,256.33902,132.28568,256.11044,122.70717z"/>
	<path class="st55" d="M240.97084,102.15446c0.35397,4.36915,0.39178,8.2831-0.02185,12.67388
		c-8.66522-0.40152-16.82806-2.31561-25.48218-3.44884c-0.49693-4.86514-0.23849-9.56312-0.08975-14.6933
		C224.11198,98.55247,232.326,100.30744,240.97084,102.15446z"/>
	<path class="st49" d="M223.48869,146.63557c0-6.70204,0-12.62459,0-18.85851c4.65283-0.23604,9.02048-0.48886,13.30652,1.30952
		c0,5.79517,0,11.39581,0,17.27222C232.35725,147.53287,228.15211,146.38043,223.48869,146.63557z"/>
	<path class="st44" d="M294.51752,227.84848c6.4339-1.58569,12.76196-1.07176,19.40729-2.2439c0,6.07417,0,11.73947,0,17.75395
		c-6.33646,1.16483-12.63028,2.32184-19.40729,3.56766C294.51752,240.3734,294.51752,234.21831,294.51752,227.84848z"/>
	<path class="st0" d="M404.30627,241.65498c1.29767,0.03201,2.59531,0.06403,3.89297,0.09604
		c0.12549,1.28647,0.25098,2.57294,0.37296,3.82355c-5.55548,2.2439-9.91986,0.96768-10.99768-3.23248
		C399.70798,241.08611,402.07941,241.99498,404.30627,241.65498z"/>
	<path class="st56" d="M240.06508,85.72303c-3.35379-0.9258-5.73724-1.58375-8.29083-2.28866
		c-0.664-2.36593-1.57962-4.63861-1.25388-7.54089c3.31622-0.36085,6.1131,1.00073,9.04376,1.98106
		C240.52058,80.37349,239.94066,82.79543,240.06508,85.72303z"/>
	<path class="st33" d="M288.24258,126.95584c2.97345-0.19708,5.10117-0.45158,7.56244,0.32184
		c0.42725,5.00685,0.52509,10.03441-0.64499,15.00523c-1.90079,0.90141-3.64182,0.66425-5.77731,0.05006
		C289.01508,137.37434,288.64267,132.35172,288.24258,126.95584z"/>
	<path class="st57" d="M286.2395,170.39803c0.02383-4.84134-1.27676-9.34921-0.62491-14.26044
		c2.83127-0.79947,5.57956,0.11275,8.63025-0.21266c1.6846,4.85329-0.50916,9.41028,0.26801,13.95613
		C291.6514,171.07198,289.09418,170.57185,286.2395,170.39803z"/>
	<path class="st58" d="M257.27533,97.92715c5.41882,0.96455,10.44009,1.66047,15.5358,3.50993
		c0.40454,3.90662,0.80548,7.77812,1.27161,12.27948c-5.84109-0.32552-10.98499-1.81879-16.27832-3.01688
		C256.93961,106.38513,257.3103,102.31207,257.27533,97.92715z"/>
	<path class="st58" d="M242.84132,171.41272c-5.55566,0.64046-10.72049,0.07909-15.8486,1.23448
		c-2.1059-3.37009-1.53876-6.81363-1.42307-10.62741c5.49777,0,10.8526,0,16.43497,0
		C242.41118,165.10532,243.26677,167.95248,242.84132,171.41272z"/>
	<path class="st59" d="M258.52661,166.68575c4.66452,0,8.77759,0,13.02814,0c1.22198,2.58627,0.74823,5.09526,0.31818,7.95282
		c-4.45801,0.23878-8.67126,0.37936-13.06384-0.11679C258.08746,171.97919,258.26175,169.59026,258.52661,166.68575z"/>
	<path class="st60" d="M130.71945,238.02611c2.05553,6.3974,3.24268,12.57513,3.7399,19.59816
		c-11.12007,1.49344-21.70027,2.91434-32.73877,4.39682c-2.12883-6.942-2.09377-13.61562-2.72841-20.67836
		C109.58662,239.4581,119.77983,238.99832,130.71945,238.02611z"/>
	<path class="st61" d="M429.61459,239.35828c-3.0686-7.39496-0.84174-14.23424,2.32913-20.97447
		C432.04437,225.46733,431.51944,232.4852,429.61459,239.35828z"/>
	<path class="st8" d="M563.53552,241.65205c17.51672,1.2439,34.87195,1.4227,52.38776,3.30884c0,3.45987,0,6.70685,0,10.67349
		c-17.20923-0.79724-34.18481-1.58368-51.1723-2.37064C563.91431,249.38094,562.64056,246.08958,563.53552,241.65205z"/>
	<path class="st9" d="M544.32446,332.81625c-4.31158,6.50937-10.74402,11.24255-15.55853,18.36215
		c17.27502,1.97867,34.00494,3.8949,50.8587,5.82532c5.46008-6.55643,11.77179-12.06631,15.61493-19.59915
		c1.02112-2.00146,2.10962-3.91974,4.39069-1.97467c0.54309,1.42862,0.0531,2.18347-0.53937,2.71762
		c-6.05597,5.45956-9.6806,12.65726-13.82336,19.45724c-1.95825,3.21448-4.22461,4.72662-8.13074,4.16412
		c-16.76599-2.41455-33.55627-4.66104-50.34265-6.9324c-1.56903-0.21231-2.91071-0.59641-4.1076-3.16516
		c6.69733-6.54941,13.67468-13.20444,21.34363-19.14413L544.32446,332.81625z"/>
	<path class="st9" d="M545.13135,331.62878c0.16241-0.23212,0.32483-0.46423,0.48724-0.69635
		c0.69141,0.63922,0.04694,0.67691-0.36823,0.81784C545.25037,331.75027,545.13135,331.62881,545.13135,331.62878z"/>
	<path class="st9" d="M545.25037,331.75027c-0.01569,0.60977-0.35297,0.94022-0.9259,1.06598l-0.29431-0.28906
		c0.14539-0.57117,0.47662-0.91455,1.1012-0.89838L545.25037,331.75027z"/>
	<path class="st62" d="M272.49753,149.55568c-5.18109,0.17009-9.44269,0.39343-13.8761-1.60487c0-6.88438,0-13.77664,0-20.92451
		c4.78772-1.0318,9.15286,0.71539,14.09943,1.22417C273.31116,135.41205,273.39151,142.25117,272.49753,149.55568z"/>
	<path class="st63" d="M237.68736,104.41323c0.94162,2.3411,0.48578,4.46593,0.61121,7.26968
		c-6.88138-0.13356-13.1474-1.96096-19.51672-3.0444c-1.16415-2.79723-0.53528-5.33248-0.42957-7.82753
		C222.90047,100.39097,230.61729,101.85794,237.68736,104.41323z"/>
	<path class="st64" d="M233.84724,142.53712c-2.49387,1.51831-4.61392,1.12048-7.1543,0.84328
		c-2.14249-3.9126-1.24536-8.06198-0.88345-12.17546c2.80032-1.12817,5.15704-0.7861,7.71606,0.07678
		C234.7466,135.00603,234.2704,138.71512,233.84724,142.53712z"/>
	<path class="st32" d="M128.95963,240.75621c0.99774,5.11719,2.62807,9.48868,2.21729,14.52527
		c-9.16098,1.49156-18.22577,2.78813-27.59692,3.51698c-0.78616-5.30446-1.67155-10.13326-1.60512-15.5229
		C110.86142,242.44588,119.67197,241.62331,128.95963,240.75621z"/>
	<path class="st65" d="M261.40851,146.37318c-0.46957-5.62888-0.39212-10.85265-0.14487-16.41165
		c3.12521-0.53162,5.92459-0.32016,8.71988,0.98648c0,5.22614,0,10.28041,0,15.55577
		C267.10834,147.04398,264.53885,146.68292,261.40851,146.37318z"/>
	<path class="st66" d="M235.45107,105.1729c1.03735,1.52264,1.58173,2.67629,0.98734,4.4551
		c-5.38846,0.35241-10.47409-1.86977-15.60385-2.16251c-1.14999-1.90881-0.99438-3.46687-0.2623-5.48103
		C225.49431,103.03923,230.4128,104.09322,235.45107,105.1729z"/>
	<path class="st67" d="M228.49849,140.59509c-0.28564-2.77693-0.48428-5.03238,0.10272-7.37509
		c2.69263-0.61058,2.96323,1.07555,2.71796,2.76521C231.07121,137.69356,232.70125,140.60686,228.49849,140.59509z"/>
</g>
</svg>
