<?xml version="1.0" encoding="iso-8859-1"?>
<!-- Generator: Adobe Illustrator 17.1.0, SVG Export Plug-In . SVG Version: 6.00 Build 0)  -->
<!DOCTYPE svg PUBLIC "-//W3C//DTD SVG 1.1//EN" "http://www.w3.org/Graphics/SVG/1.1/DTD/svg11.dtd">
<svg version="1.1" id="&#x421;&#x43B;&#x43E;&#x439;_1"
	 xmlns="http://www.w3.org/2000/svg" xmlns:xlink="http://www.w3.org/1999/xlink" x="0px" y="0px" viewBox="0 0 485.424 340.598"
	 style="enable-background:new 0 0 485.424 340.598;" xml:space="preserve">
<path style="fill:#BCA064;" d="M224.849,283.286c12.738,6.433,25.204,13.492,38.27,19.17c28.984,12.595,58.269,24.496,88.227,37.013
	c3.649-8.557,7.413-17.384,11.177-26.21l-0.242,0.275c0.59-1.148,1.179-2.296,1.769-3.444l-0.196,0.288
	c0.592-1.148,1.184-2.297,1.775-3.445l-0.224,0.218c0.967,0.789,2.89,2.033,2.763,2.301c-4.851,10.179-9.678,20.389-15.179,30.218
	c-0.677,1.21-5.416,1.169-7.728,0.285c-27.178-10.393-53.944-21.953-81.436-31.41c-30.243-10.404-61.133-18.93-91.731-28.305
	c-2.927-0.897-5.785-2.016-9.622-3.365c4.125-5.004,7.548-9.156,11.436-13.872c-6.014-3.667-11.426-7.316-17.159-10.359
	c-5.016-2.662-5.259-5.477-2.187-9.94c4.451-6.468,8.38-13.295,13.234-21.098c-8.309-1.716-15.796-3.262-23.34-4.82
	c-3.186,24.192-8.467,27.318-31.035,18.706c-8.824-3.367-17.577-6.939-26.239-10.7c-2.1-0.912-6.714-1.126-3.509-5.693
	c2.068,0.563-2.105,1.376,6.395,3.987c1.105,0.154,27.403,9.879,28.468,10.055c0.008-0.265,1.865-1.885-11.135-7
	c-1.145,0.115-21.824-6.456-23.881-7.035c-7.414-2.709-14.78-5.56-22.254-8.094c-12.309-4.175-14.715-9.754-8.66-21.113
	c2.946-5.527,5.779-11.171,9.334-16.298c2.4-3.462,5.644-6.579,9.103-9.005c4.245-2.977,9.617-4.457,13.561-7.722
	c3.969-3.286,7.197-3.38,11.116-0.821c1.952,1.876,3.905,3.752,5.857,5.627c13.859,7.769,10.644,20.628,9.257,32.583
	c-0.655,5.645,0.578,7.558,6.331,8.843c40.43,9.031,81.263,16.834,120.869,28.697c16.805,5.033,33.65,9.068,50.68,12.677
	c3.548,0.752,7.64-1.289,11.515-1.788c3.026-0.39,6.283-1.132,9.129-0.442c43.575,10.57,87.131,21.228,130.594,32.247
	c4.964,1.259,6.813,1.348,7.813-4.296c8.74-49.327,17.794-98.598,26.664-147.902c1.859-10.331,4.992-34.454,6.304-36.135
	c5.333,0,4.829,4.223,4.507,6.089c-7.86,45.505-15.989,90.963-23.896,136.46c-2.651,15.252-4.832,30.585-7.217,45.883
	c-1.504,9.652-2.685,9.613-11.593,7.164c-20.7-5.693-41.609-10.669-62.541-15.463c-21.218-4.859-42.579-9.094-63.848-13.736
	c-4.281-0.934-7.514-1.415-10.821,3.022c-1.779,2.386-7.093,3.948-10.201,3.231c-16.6-3.829-33.005-8.504-49.483-12.865
	c-3.742-0.99-7.029-2.036-6.548-7.203c0.116-1.244-2.158-3.656-3.653-3.962c-19.53-3.994-39.167-7.476-58.656-11.651
	c-4.895-1.049-7.137,0.349-9.342,4.287c-3.207,5.726-6.828,11.226-10.399,16.74c-2.621,4.046-1.128,5.72,3.155,6.053
	c0.576,0.623,1.152,1.246,1.728,1.869c1.046,0.46,2.091,0.919,3.137,1.379l-0.243-0.174c1.145,0.582,2.289,1.165,3.434,1.747
	l-0.273-0.189c3.066,2.622,8.873,5.602,8.588,7.788c-0.491,3.766-4.794,7.021-7.443,10.532c-0.43,0.57-0.579,1.351-1.369,3.286
	c14.542,3.912,45.99,12.826,47.48,13.442c1.424,0.673,11.202,3.712,12.438,3.712c-0.022-0.167-0.044-0.334-0.065-0.501
	c-1.224,0.159-15.07-4.836-16.541-5.465c-12.222-4.432-24.862-8.317-37.271-12.816c7.077-11.8,7.023-11.685,17.665-6.698
	c10.098,4.732,20.325,9.189,30.495,13.766l-0.293-0.189c1.143,0.591,2.287,1.183,3.43,1.774L224.849,283.286z M113.006,226.483
	c-1.823-0.398-1.612-0.599,0.194-0.195c2.23,0.41,4.46,0.82,6.691,1.23c11.081,7.044,15.164,4.65,19.689-11.713
	c-9.285-1.802-18.577-3.493-27.818-5.429c-9.12-1.911-10.486-4.152-8.329-13.08c1.478-6.118,3.36-12.156,4.482-18.334
	c0.382-2.102-0.25-5.474-1.713-6.632c-5.343-4.229-11.153-7.896-16.975-11.468c-1.267-0.777-3.628-0.925-4.951-0.275
	c-9.849,4.836-20.364,8.996-23.38,21.439c-0.732,3.021-2.412,5.807-3.612,8.72c-4.401,10.678-4.042,11.723,6.616,15.352
	c17.143,5.837,34.375,11.417,51.49,17.334c1.722,0.595,2.902,2.758,4.284,4.234C117.457,227.268,115.239,226.869,113.006,226.483z
	 M227.776,289.887c-0.644-0.173-2.344-1.531-2.988-1.704c-12.028-6.179-24.022-12.427-36.099-18.509
	c-6.352-3.199-6.418-3.067-10.406,4.719C193.946,278.959,227.632,290.059,227.776,289.887z M253.228,301.807l0.084-0.485"/>
<path style="fill:#BCA064;" d="M271.244,119.615c-7.57-5.452-11.951-18.717-23.38-3.174c0.016-1.129,0.032-2.259,0.048-3.388
	c-0.229-1.89-0.797-3.81-0.637-5.667c2.499-28.982,5.08-57.956,7.69-86.928c0.163-1.812,0.685-3.597,1.105-5.38
	c1.403-5.96,0.925-14.73,8.478-15.06c7.04-0.309,14.307,3.732,21.356,6.198c0.492,0.172,0.459,3.349-0.144,4.787
	c-0.855,2.037-3.425,3.665-3.613,5.626c-2.88,29.991-5.438,60.012-8.229,90.012C273.547,110.633,272.314,114.547,271.244,119.615z
	 M271.692,70.862c-5.419,4.212-14.239,4.529-15.872,13.076C261.357,79.862,270.751,80.202,271.692,70.862z M254.816,71.904
	c0.596,0.855,1.193,1.71,1.789,2.566c5.502-3.478,11.004-6.956,16.506-10.434c-0.499-0.739-0.999-1.478-1.498-2.217
	C266.014,65.18,260.415,68.542,254.816,71.904z"/>
<path style="fill:#BCA064;" d="M457.379,75.141c-2.939,26.89-5.904,53.778-8.809,80.672c-3.02,27.954-6.024,55.911-8.918,83.878
	c-0.374,3.616-0.051,7.305,1.519,11.086c4.136-31.396,17.822-141.663,21.957-173.059c0.591,0.084,1.181,0.168,1.772,0.252
	c-2.793,24.48-15.158,127.828-17.921,152.312c-1.237,10.963-2.979,21.919-3.33,32.915c-0.226,7.062-3.182,7.372-8.35,5.707
	c-11.991-3.863-23.905-7.979-35.96-11.629c-29.811-9.024-58.712-21.397-90.031-24.893c-4.052-0.452-8.246,0.52-12.367,0.444
	c-1.541-0.028-3.062-1.166-4.592-1.798c1.134-1.169,2.214-3.275,3.412-3.345c5.38-0.313,11.097-1.174,16.146,0.188
	c39.473,10.645,78.818,21.764,118.212,32.706c1.996,0.555,4.07,0.829,6.108,1.234c0.481-0.571,0.963-1.143,1.444-1.714
	c-2.096-1.755-3.921-4.184-6.332-5.154c-14.05-5.648-28.238-10.953-41.866-17.989l45.219,15.19c0.568-0.715,1.136-1.429,1.704-2.144
	c-1.828-1.584-3.405-3.898-5.527-4.631c-11.408-3.943-23.07-7.161-34.42-11.253c-18.755-6.761-37.16-14.535-56.067-20.811
	c-9.543-3.168-19.796-4.808-29.854-5.666c-12.789-1.091-22.735,4.973-29.37,14.462c4.078,6.417,7.862,12.369,11.645,18.322
	c-0.66,0.954-0.715,1.034-1.375,1.989c-12.622-2.624-25.23-5.245-38.616-8.028c4.476-8.547,11.564-9.706,18.862-10.998
	c2.904-0.514,6.515-1.965,8.104-4.199c12.922-18.173,27.096-23.345,49.189-16.79c5.995,1.779,11.958,4.171,17.394,7.242
	c26.304,14.859,55.259,22.742,83.544,32.423c5.152,1.763,6.084-0.261,6.632-4.905c6.259-52.953,12.705-105.883,19.18-158.81
	c0.132-1.078,1.203-2.041,1.835-3.058L457.379,75.141z M264.306,231.531c-0.11,0.456-0.219,0.912-0.329,1.367
	c5.914,1.563,11.806,3.219,17.764,4.587c0.904,0.208,2.115-0.921,3.184-1.431c-0.911-1.015-1.727-2.79-2.75-2.92
	C276.245,232.386,270.267,232.024,264.306,231.531z"/>
<path style="fill:#BCA064;" d="M35.619,179.57c-7.707-1.219-12.608-4.968-15.727-11.472c-5.544-11.561-11.325-23.011-16.711-34.644
	c-2.9-6.264-5.492-12.989,0.21-19.053c1.449-1.541,4.498-1.577,6.811-2.305C10,113.93,9.73,115.76,9.619,117.6
	c-0.088,1.449-0.513,3.218,0.123,4.318c6.672,11.539,13.106,23.252,20.455,34.354c6.955,10.508,9.063,10.905,19.952,5.029
	c22.853-12.334,45.5-25.05,68.249-37.578c2.055-1.132,4.161-2.521,6.386-2.866c1.415-0.22,3.776,0.886,4.46,2.102
	c0.655,1.163,0.209,3.631-0.689,4.815c-1.2,1.583-3.235,2.599-5.03,3.658c-24.178,14.256-48.298,28.614-72.64,42.584
	C46.259,176.672,40.731,177.759,35.619,179.57z"/>
<path style="fill:#BCA064;" d="M270.957,155.353c12.683-6.407,23.682-2.526,34.57,5.243c-5.278-5.979-1.94-16.854-12.268-20.136
	c-0.865-0.275-1.752-4.349-1.112-4.901c8.03-6.937,12.666-16.3,17.6-25.304c2.53-4.617,2.142-8.695,1.236-12.746
	c-1.553-6.942-9.068-11.085-15.102-9.577c-6.687,1.671-11.347,8.744-10.213,16.606c0.895,6.209,3.003,12.226,4.007,18.437
	c2.351,14.538-6.554,8.406-6.523,13.002c-1,3.035,4,10.153-7.674,14.182c8.424-7.024-2.076-11.775,8.919-20.702
	c1.46-1.186,0.226-4.124-0.21-6.1c-1.073-4.861-2.679-9.611-3.634-14.491c-1.653-8.455,0.784-15.699,7.729-20.948
	c6.114-4.62,12.799-4.49,19.226-0.689c7.251,4.289,11.027,10.931,9.208,19.24c-1.548,7.072-4.838,13.744-6.893,20.73
	c-0.955,3.249-2.984,5.445-2.296,8.634c0.629,2.92,2.25,6.304-0.375,8.429c-5.853,4.738,2.229,13.643,2.523,22.318
	c0.132,3.898-0.181,7.834-0.634,11.713c-0.113,0.971-1.465,2.358-2.406,2.5c-0.815,0.123-2.364-1.053-2.721-1.986
	c-4.883-12.785-16.732-11.917-27.017-13.282c-2.75-0.365-9.161-0.612-9.023,4.735c-0.139,4.576,3.408,8.294,6.394,9.679
	c5.295,2.458,11.372,4.846,17.301,5.697c3.585,0.515,6.217,0.667,11.538,0.003c-2.874,0.586-5.723,1.437-8.627,1.712
	c-10.485,0.995-19.757-1.903-27.352-9.355c-6.958-6.828-6.672-13.107,0.708-20.003c-0.368,3.153-0.507,4.751,4.175,4.196
	c11.384-1.35,23.322-3.681,32.893,6.242c-3.902-8.201-10.691-11.921-19.065-12.815C280.924,155.093,275.92,155.413,270.957,155.353z
	"/>
<path style="fill:#BCA064;" d="M118.651,188.597c1.39,1.064,2.68,2.879,4.186,3.08c32.773,4.375,65.571,8.56,98.361,12.804
	c11.16,1.445,22.382,2.567,33.443,4.57c6.689,1.211,11.336,5.695,14.205,13.73c-20.179-15.705-43.694-12.602-65.403-16.532
	c-27.367-4.954-54.987-8.539-82.542-12.401c-4.452-0.624-5.974-2.065-5.199-6.418c0.781-4.384,1.006-8.871,1.893-13.228
	c0.304-1.494,1.873-2.731,2.865-4.086c1.014,1.485,2.028,2.97,2.853,4.178c0.84-2.075,1.887-4.662,2.934-7.249
	c0.313,0.024,0.626,0.047,0.94,0.071c0,3.923,0.337,7.883-0.081,11.761c-0.587,5.447,0.734,7.863,6.94,8.334
	c35.86,2.721,71.722,5.544,107.489,9.249c8.851,0.917,17.588,4.665,25.935,8.166c7.014,2.943,8.608,9.634,8.446,19.204
	c-8.242-18.407-23.194-21.793-38.503-22.101c-37.453-0.753-74.285-6.005-110.969-12.91c-2.212-0.416-4.363-1.149-6.543-1.735
	C119.484,187.589,119.068,188.093,118.651,188.597z M121.392,181.876c-0.056,0.175-0.112,0.35-0.168,0.525
	c0.183-0.111,0.366-0.222,0.548-0.333C121.646,182.004,121.519,181.94,121.392,181.876z"/>
<path style="fill:#BCA064;" d="M91.212,62.187c-2.145,1.118-4.258,2.305-6.442,3.343c-20.402,9.693-40.869,19.25-61.203,29.082
	c-9.609,4.646-10.642,7.912-5.288,17.336c5.968,10.506,12.284,20.828,18.814,30.995c4.568,7.111,10.236,9.124,17.518,5.324
	c23.059-12.035,45.83-24.621,68.749-36.926c4.636-2.489,3.81-5.498,1.446-9.053c-6.407-9.634-12.735-19.321-19.067-29.005
	c-1.391-2.127-2.667-4.328-3.059-7.416c1.021,0.769,2.28,1.356,3.026,2.335c7.97,10.457,16.049,20.839,23.705,31.523
	c5.597,7.81,4.382,12.788-4.267,17.135c-22.53,11.323-45.136,22.505-67.874,33.404c-10.41,4.99-16.768,3.151-22.915-6.381
	c-6.69-10.374-13.107-20.948-19.111-31.732c-5.213-9.364-3.309-14.996,6.374-19.67c21.287-10.277,42.698-20.297,64.085-30.367
	c1.519-0.715,3.247-0.988,4.877-1.466C90.79,61.163,91.001,61.675,91.212,62.187z"/>
<path style="fill:#BCA064;" d="M118.536,78.641c6.56-11.698,14.854-15.406,24.082-11.293c16.549,7.375,32.988,15.015,49.278,22.944
	c9.762,4.752,10.582,11.217,3.145,19.365c-3.014,3.302-6.066,6.57-9.454,10.234c1.312,0.937,3.111,2.221,6.786,4.846
	c-6.837,0.893-11.724,1.531-17.298,2.259c1.164,1.901,1.311,2.487,1.662,2.658c2.142,1.043,4.33,1.992,6.502,2.972
	c-2.48,0.733-5.123,2.408-7.408,2.013c-5.611-0.97-9.343,1.184-13.276,4.842c-8.646,8.043-17.738,15.607-28.074,22.219
	c1.444-1.707,2.756-3.551,4.354-5.1c16.434-15.939,32.989-31.753,49.351-47.765c8.963-8.772,8.658-10.572-2.272-16.283
	c-13.039-6.814-26.382-13.072-39.204-20.266c-8.854-4.968-16.314-4.787-23.351,2.737C122.482,75.958,121.29,76.597,118.536,78.641z"
	/>
<path style="fill:#BCA064;" d="M101.577,161.677c-1.952-1.876-3.905-3.752-5.857-5.627c-0.616-1.616-1.233-3.231-1.849-4.847
	c0.387-0.466,0.773-0.932,1.16-1.398c4.354,2.986,8.859,5.777,13.023,9.008c5.388,4.182,9.863,4.285,15.268-0.563
	c18.784-16.849,37.952-33.269,56.935-49.897c7.219-6.323,7.113-8.63-1.339-13.067c-9.746-5.117-19.787-9.669-29.673-14.523
	c-8.614-4.229-17.088-6.542-25.861,3.244c3.075-7.535,9.045-11.88,14.557-9.635c15.973,6.506,31.709,13.691,47.096,21.483
	c4.625,2.342,3.873,8.126,0.266,11.573c-20.714,19.795-41.428,39.609-62.85,58.619c-2.688,2.385-9.608,0.504-14.436-0.244
	C105.712,165.447,103.714,163.114,101.577,161.677z"/>
<path style="fill:#BCA064;" d="M417.656,55.827c-5.128-1.783-10.441-3.164-15.348-5.424c-15.5-7.139-30.701-14.941-46.299-21.852
	c-14.358-6.362-28.389-2.365-41.933,3.355c-1.729,0.73-2.951,3.816-3.486,6.033c-3.415,14.141-6.572,28.345-9.814,42.528
	c-0.653-0.121-1.306-0.243-1.959-0.364c1.65-14.734,3.061-29.502,5.177-44.168c0.365-2.529,3.266-5.607,5.767-6.766
	c17.521-8.119,35.105-11.869,53.507-1.572c17.804,9.963,36.139,18.978,54.241,28.409L417.656,55.827z"/>
<path style="fill:#BCA064;" d="M161.925,252.08c-0.576-0.623-1.152-1.246-1.728-1.869c-0.022-1.925-0.848-4.459,0.071-5.673
	c4.65-6.145,9.753-11.946,15.979-17.012c-3.58,6.143-7.16,12.285-11.881,20.387c38.121,18.941,75.606,37.566,113.091,56.191
	c-0.133,0.337-0.266,0.674-0.399,1.011c-5.129-2.178-10.246-4.384-15.389-6.528c-12.267-5.115-24.545-10.202-36.819-15.3
	l0.245,0.189c-1.143-0.591-2.287-1.183-3.43-1.774l0.293,0.189c-17.992-9.015-35.985-18.031-53.977-27.046l0.273,0.189
	c-1.145-0.582-2.289-1.165-3.433-1.747l0.243,0.174C164.017,253,162.971,252.54,161.925,252.08z"/>
<path style="fill:#BCA064;" d="M254.912,11.843c-10.985,1.539-21.93,3.885-32.965,4.449c-22.308,1.141-44.664,1.561-67.004,1.726
	c-6.112,0.045-8.917,1.067-9.173,7.933c-0.38,10.214-1.976,20.387-3.18,30.563c-0.291,2.456-1.075,4.853-1.632,7.277
	c-0.785-0.019-1.571-0.039-2.356-0.058c-0.118-2.26-0.622-4.579-0.29-6.772c1.843-12.202,4.291-24.329,5.681-36.578
	c0.616-5.432,2.713-6.24,7.517-6.132c19.712,0.444,39.461,1.19,59.14,0.409c12.243-0.486,24.384-3.525,36.577-5.376
	c2.415-0.367,4.86-0.542,7.291-0.806C254.65,9.601,254.781,10.722,254.912,11.843z"/>
<path style="fill:#BCA064;" d="M362.524,313.258c-3.528,5.718-6.728,11.684-10.77,17.013c-1.33,1.753-5.398,3.243-7.262,2.491
	c-15.522-6.259-30.825-13.062-46.175-19.742c-0.651-0.283-1.123-0.98-2.922-2.612c2.931,0.395,4.527,0.337,5.921,0.84
	c13.791,4.972,27.701,9.67,41.235,15.274c4.816,1.994,5.917-0.236,7.748-3.329c7.891-13.323,15.861-26.6,23.831-39.877
	c1.307-2.177,2.76-4.267,4.146-6.396c0.551,0.292,1.103,0.583,1.654,0.875c-4.842,9.785-9.683,19.57-14.525,29.354l0.224-0.218
	c-0.592,1.148-1.184,2.297-1.776,3.445l0.197-0.288c-0.589,1.148-1.179,2.296-1.769,3.444L362.524,313.258z"/>
<path style="fill:#BCA064;" d="M115.36,197.61c43.728,9.836,87.456,19.673,131.184,29.509c-0.194,0.881-0.389,1.762-0.583,2.643
	c-43.615-9.786-87.23-19.573-130.845-29.359C115.197,199.471,115.278,198.54,115.36,197.61z"/>
<path style="fill:#BCA064;" d="M303.103,234.905c20.526,0.149,39.747,5.806,58.112,15.129c-19.497-4.329-38.994-8.659-58.49-12.988
	C302.851,236.332,302.977,235.618,303.103,234.905z"/>
<path style="fill:#BCA064;" d="M300.551,121.119c-1.219-7.635-2.424-12.91-2.751-18.238c-0.154-2.508,0.893-5.466,2.362-7.533
	c0.683-0.961,4.643-1.1,5.411-0.182c1.631,1.947,3.469,5.227,2.864,7.256C306.697,108.247,303.783,113.722,300.551,121.119z"/>
<path style="fill:#BCA064;" d="M324.884,113.213c8.6-4.364,35.804,2.033,42.215,9.405
	C352.217,119.303,338.551,116.258,324.884,113.213z"/>
<path style="fill:#BCA064;" d="M217.534,144.208c2.099-0.379,4.21-1.134,6.296-1.07c7.291,0.225,14.587,0.586,21.849,1.248
	c1.638,0.149,3.145,1.723,4.713,2.641c-1.461,0.735-2.94,2.136-4.38,2.097c-9.423-0.255-18.837-0.822-28.255-1.287
	C217.682,146.628,217.608,145.418,217.534,144.208z"/>
<path style="fill:#BCA064;" d="M69.782,124.003c3.152-0.235,5.447-0.406,8.229-0.614c-0.573-2.29-1.104-4.413-1.847-7.381
	c3.027,2.007,5.462,3.622,8.057,5.343c1.832-2.235,3.516-4.291,5.656-6.903c2.594,6.231,3.317,9.742-4.447,11.845
	C74.259,129.319,74.469,130.095,69.782,124.003z"/>
<path style="fill:#BCA064;" d="M380.292,115.545c-11.646-4.174-23.293-8.347-34.901-12.507
	C351.692,98.832,372.809,105.429,380.292,115.545z"/>
<path style="fill:#BCA064;" d="M211.223,127.464c-5.782-0.289-9.702-0.333-13.574-0.789c-0.949-0.112-1.74-1.572-2.604-2.413
	c0.909-0.703,1.836-2.034,2.725-2.01c7.284,0.203,14.57,0.549,21.829,1.16c1.058,0.089,1.977,1.814,2.961,2.782
	c-1.294,0.688-2.585,1.945-3.884,1.952C215.57,128.165,212.459,127.596,211.223,127.464z"/>
<path style="fill:#BCA064;" d="M348.744,164.913c-9.645-2.175-19.291-4.349-28.936-6.524c0.255-1.182,0.509-2.364,0.764-3.546
	c9.704,2.031,19.409,4.063,29.113,6.094C349.371,162.262,349.058,163.588,348.744,164.913z"/>
<path style="fill:#BCA064;" d="M253.661,124.648c-1.37,0.779-2.679,2.074-4.122,2.246c-5.47,0.652-10.978,1.11-16.482,1.255
	c-1.538,0.04-3.111-1.244-4.668-1.92c1.223-1.003,2.371-2.753,3.68-2.883c6.949-0.692,13.939-0.977,20.914-1.403
	C253.209,122.844,253.435,123.746,253.661,124.648z"/>
<path style="fill:#BCA064;" d="M176.282,139.488c2.899,0.35,6.303,0.546,9.598,1.253c1.502,0.322,2.788,1.652,4.172,2.525
	c-1.681,0.805-3.372,2.309-5.041,2.285c-4.933-0.073-9.887-0.559-14.765-1.314c-1.352-0.209-2.472-1.919-3.698-2.94
	c1.259-0.603,2.466-1.51,3.789-1.734C172.111,139.261,173.974,139.488,176.282,139.488z"/>
<path style="fill:#BCA064;" d="M209.35,133.301c9.13,0,16.367-0.078,23.597,0.091c0.995,0.023,2.071,1.17,2.869,2.022
	c0.219,0.233-0.253,1.473-0.721,1.929C232.64,139.737,214.156,137.842,209.35,133.301z"/>
<path style="fill:#BCA064;" d="M296.349,174.79c-2.794,8.33-8.901,5.381-14.737,6.179c0.939-3.155,1.613-5.421,2.541-8.538
	c-4.082,0.675-7.528,1.245-10.973,1.815c-0.144-0.737-0.288-1.474-0.432-2.212c4.919-1.042,9.839-2.084,15.723-3.331
	c-0.435,2.907-0.524,4.136-0.825,5.31c-0.246,0.957-0.746,1.848-1.912,4.614C289.952,177.103,292.712,176.105,296.349,174.79z"/>
<path style="fill:#BCA064;" d="M47.336,89.247c-5.251,11.455-10.484,14.181-21.916,10.508C33.25,96,40.168,92.683,47.336,89.247z"/>
<path style="fill:#BCA064;" d="M249.84,158.329c-6.883,0-13.769,0.093-20.646-0.108c-0.939-0.027-1.926-1.449-2.674-2.396
	c-0.147-0.186,0.706-1.695,1.093-1.693c7.47,0.038,14.94,0.211,22.41,0.356C249.961,155.767,249.9,157.048,249.84,158.329z"/>
<path style="fill:#BCA064;" d="M396.251,132.698c-8.301-2.374-16.603-4.749-24.904-7.123c0.325-1.196,0.649-2.392,0.974-3.588
	c8.291,2.284,16.582,4.568,24.873,6.852C396.88,130.125,396.565,131.412,396.251,132.698z"/>
<path style="fill:#BCA064;" d="M339.884,278.647c-4.132,5.671-7.436,10.28-10.939,14.734c-0.138,0.176-2.169-1.137-3.318-1.757
	c3.104-4.967,6.15-9.973,9.462-14.797C335.276,276.554,337.64,277.774,339.884,278.647z"/>
<path style="fill:#BCA064;" d="M417.509,56.005c12.87,2.17,25.741,4.34,38.611,6.509c-0.208,0.993-0.415,1.986-0.623,2.979
	c-12.726-2.678-25.895-3.234-37.839-9.667C417.656,55.827,417.509,56.005,417.509,56.005z"/>
<path style="fill:#BCA064;" d="M117.72,109.72c-6.606,3.103-13.213,6.207-19.995,9.393
	C102.085,108.353,103.807,107.441,117.72,109.72z"/>
<path style="fill:#BCA064;" d="M278.236,214.632c0.655-7.968,1.31-15.936,1.985-24.15
	C285.398,193.033,284.888,205.154,278.236,214.632z"/>
<path style="fill:#BCA064;" d="M335.141,131.137c7.374,2.032,14.748,4.063,22.122,6.095c-0.329,1.193-0.658,2.387-0.987,3.58
	c-7.373-2.035-14.746-4.07-22.119-6.106C334.485,133.517,334.813,132.327,335.141,131.137z"/>
<path style="fill:#BCA064;" d="M71.449,133.05c-6.629,3.151-13.205,6.276-19.343,9.194C56.341,130.977,64.886,126.521,71.449,133.05
	z"/>
<path style="fill:#BCA064;" d="M206.749,136.692c-5.597-0.263-11.203-0.42-16.783-0.889c-0.987-0.083-2.059-1.345-2.678-2.325
	c-0.192-0.304,1.008-2.158,1.525-2.138c6.158,0.243,12.307,0.706,18.458,1.112C207.096,133.865,206.922,135.278,206.749,136.692z"/>
<path style="fill:#BCA064;" d="M290.857,263.405c-2.956,4.15-5.879,8.368-8.994,12.441c-0.291,0.38-2.13,0.16-2.644-0.37
	c-0.586-0.604-0.988-2.154-0.615-2.799c2.332-4.037,4.829-7.986,7.472-11.827c0.406-0.59,2.016-0.875,2.758-0.563
	C289.565,260.595,289.902,261.841,290.857,263.405z"/>
<path style="fill:#BCA064;" d="M386.73,189.677c-7.334-2.85-14.668-5.701-22.003-8.551c0.438-1.18,0.875-2.359,1.313-3.539
	c7.28,2.802,14.559,5.605,21.839,8.407C387.496,187.222,387.113,188.45,386.73,189.677z"/>
<path style="fill:#BCA064;" d="M305.327,29.842c-6.118-5.658-11.25-10.404-16.748-15.489
	C296.768,13.597,304.269,20.296,305.327,29.842z"/>
<path style="fill:#BCA064;" d="M90.002,68.487c-7.484,12.635-7.616,12.694-20.713,10.521C75.735,75.734,81.968,72.567,90.002,68.487
	z"/>
<path style="fill:#BCA064;" d="M198.784,155.649c-5.268-0.418-10.55-0.726-15.792-1.362c-0.896-0.109-1.84-1.522-2.294-2.541
	c-0.139-0.311,1.341-1.962,1.986-1.907c5.599,0.48,11.177,1.208,16.761,1.863C199.224,153.017,199.004,154.333,198.784,155.649z"/>
<path style="fill:#BCA064;" d="M202.51,153.584c6.647-1.058,13.409-2.966,19.279,1.949
	C215.085,157.443,208.536,157.945,202.51,153.584z"/>
<path style="fill:#BCA064;" d="M372.717,131.873c7.125,2.245,14.25,4.489,22.294,7.023c-6.226,3.331-16.298,0.737-22.873-4.946
	C372.331,133.258,372.524,132.566,372.717,131.873z"/>
<path style="fill:#BCA064;" d="M353.022,162.229c6.819,2.616,13.637,5.233,20.456,7.849c-0.431,1.139-0.862,2.277-1.293,3.416
	c-6.852-2.527-13.703-5.054-20.555-7.582C352.093,164.685,352.557,163.457,353.022,162.229z"/>
<path style="fill:#BCA064;" d="M302.551,265.45c-0.575,0.995-0.891,1.701-1.346,2.302c-2.827,3.729-5.677,7.441-8.606,11.089
	c-0.043,0.054-1.776-1.058-1.731-1.152c2.154-4.499,4.315-9.004,6.766-13.344c0.429-0.76,2.158-1.149,3.225-1.05
	C301.49,263.354,302.003,264.705,302.551,265.45z"/>
<path style="fill:#BCA064;" d="M401.725,129.492c6.726,0.949,13.453,1.899,20.179,2.848c-0.102,0.928-0.203,1.857-0.305,2.785
	c-6.942,1.553-13.546-0.705-20.21-2.281C401.501,131.727,401.613,130.609,401.725,129.492z"/>
<path style="fill:#BCA064;" d="M325.247,277.456c-2.541,3.66-4.789,7.105-7.335,10.314c-0.339,0.427-2.194-0.35-3.347-0.57
	c0.87-2.562,1.352-5.361,2.725-7.617c1.24-2.037,3.454-3.48,5.239-5.185C323.311,275.279,324.094,276.159,325.247,277.456z"/>
<path style="fill:#BCA064;" d="M365.12,132.655c-6.032-2.171-12.065-4.342-18.097-6.513c0.405-1.146,0.81-2.292,1.215-3.438
	c6.029,2.173,12.058,4.346,18.087,6.52C365.923,130.367,365.522,131.511,365.12,132.655z"/>
<path style="fill:#BCA064;" d="M367.779,140.951c5.643,1.861,11.286,3.722,16.929,5.582c-0.358,1.135-0.716,2.27-1.074,3.404
	c-5.671-1.766-11.343-3.532-17.014-5.298C367.007,143.409,367.393,142.18,367.779,140.951z"/>
<path style="fill:#BCA064;" d="M323.998,120.091c6.436,0.351,12.871,0.701,19.307,1.052c-0.049,1.198-0.098,2.396-0.148,3.594
	c-6.387-0.335-12.773-0.67-19.16-1.004C323.998,122.518,323.998,121.305,323.998,120.091z"/>
<path style="fill:#BCA064;" d="M316.149,260.807c1.982,4.313-0.381,12.274-4.233,13.828c-0.766,0.309-2.433,0.141-2.654-0.311
	c-0.516-1.055-0.981-2.812-0.449-3.586c2.319-3.374,5.001-6.498,7.551-9.713L316.149,260.807z"/>
<path style="fill:#BCA064;" d="M276.754,262.048c-3.013,3.408-5.635,6.373-8.256,9.338c-0.839-1.027-2.596-2.642-2.373-2.991
	c2.145-3.356,4.624-6.499,7.007-9.703C274.101,259.589,275.069,260.487,276.754,262.048z"/>
<path style="fill:#BCA064;" d="M250.21,249.477c1.287,3.136,2.541,4.832,2.14,5.446c-1.863,2.849-4.184,5.397-6.341,8.053
	c-0.701-1.125-2.263-2.666-1.955-3.305C245.518,256.634,247.492,253.842,250.21,249.477z"/>
<path style="fill:#BCA064;" d="M410.703,183.359c-5.165-0.813-10.33-1.626-15.496-2.44c0.168-1.146,0.337-2.292,0.505-3.438
	c5.172,0.767,10.344,1.534,15.515,2.301C411.053,180.975,410.878,182.167,410.703,183.359z"/>
<path style="fill:#BCA064;" d="M407.624,193.729c-5.168-1.014-10.336-2.028-15.504-3.041c0.228-1.216,0.456-2.431,0.684-3.647
	c5.149,1.039,10.297,2.078,15.446,3.117C408.04,191.349,407.832,192.539,407.624,193.729z"/>
<path style="fill:#BCA064;" d="M334.129,263.484c-2.718,3.217-4.977,5.891-7.237,8.565c-0.868-0.974-2.665-2.479-2.459-2.84
	c1.72-3.015,3.81-5.82,5.787-8.689C331.279,261.322,332.336,262.124,334.129,263.484z"/>
<path style="fill:#BCA064;" d="M326.727,98.682c4.854,0.549,9.709,1.097,14.563,1.646c-0.071,1.013-0.141,2.026-0.212,3.039
	c-4.927-0.254-9.855-0.509-14.782-0.763C326.44,101.297,326.583,99.989,326.727,98.682z"/>
<path style="fill:#BCA064;" d="M346.066,173.094c-4.826-0.713-9.653-1.427-14.479-2.14c0.123-1.04,0.245-2.079,0.368-3.119
	c4.852,0.536,9.704,1.072,14.556,1.609C346.362,170.661,346.214,171.877,346.066,173.094z"/>
<path style="fill:#BCA064;" d="M235.192,243.576c-2.693,2.979-4.857,5.373-7.021,7.766c-0.866-1.053-2.683-2.65-2.442-3.07
	c1.493-2.611,3.391-5.008,5.38-7.278C231.241,240.844,233.234,242.324,235.192,243.576z"/>
<path style="fill:#BCA064;" d="M402.528,117.287c4.451,0.821,8.903,1.641,13.354,2.462c-0.161,1.051-0.323,2.102-0.484,3.153
	c-4.497-0.639-8.995-1.278-13.492-1.916C402.114,119.753,402.321,118.52,402.528,117.287z"/>
<path style="fill:#BCA064;" d="M51.226,94.184c0-3.301,0-6.602,0-9.903c1.391,0.088,2.782,0.177,4.174,0.265
	c-0.234,3.299-0.467,6.598-0.701,9.897C53.541,94.357,52.384,94.271,51.226,94.184z"/>
<path style="fill:#BCA064;" d="M400.841,154.102c-3.842-1.202-7.687-2.394-11.497-3.688c-0.063-0.022,0.369-1.899,0.449-1.889
	c4.004,0.477,7.995,1.065,11.987,1.641C401.467,151.479,401.154,152.79,400.841,154.102z"/>
<path style="fill:#BCA064;" d="M174.061,152.993c-2.864-0.163-5.748-0.193-8.571-0.627c-0.438-0.067-0.592-1.983-0.878-3.044
	c3.111-0.147,6.221-0.294,9.332-0.442C173.983,150.251,174.022,151.622,174.061,152.993z"/>
<path style="fill:#BCA064;" d="M60.523,83.976c0.875-1.491,2.334-4.352,2.536-4.266c2.555,1.09,4.928,2.604,7.347,4.009
	c-0.232,0.791-0.464,1.581-0.697,2.372c-2.372,0-4.745,0-7.117,0C61.904,85.386,61.213,84.681,60.523,83.976z"/>
<path style="fill:#BCA064;" d="M60.523,83.976c0.69,0.705,1.38,1.41,2.07,2.115c0.867,2.701,1.734,5.402,2.601,8.103
	c-0.891,0.456-1.782,0.913-2.673,1.369c-1.651-2.904-3.449-5.744-4.791-8.785C57.538,86.34,59.538,84.934,60.523,83.976z"/>
<path style="fill:#BCA064;" d="M401.415,140.238c4.1,0.887,8.201,1.774,12.301,2.66c-0.227,1.09-0.454,2.18-0.681,3.27
	c-4.109-0.846-8.219-1.691-12.328-2.537C400.943,142.5,401.179,141.369,401.415,140.238z"/>
<path style="fill:#BCA064;" d="M388.443,179.495c-3.908-1.409-7.816-2.818-11.724-4.227c0.331-0.985,0.663-1.97,0.994-2.954
	c3.946,1.306,7.891,2.613,11.837,3.919C389.181,177.32,388.812,178.408,388.443,179.495z"/>
<path style="fill:#BCA064;" d="M396.316,119.723c-3.792-0.65-7.584-1.3-11.376-1.949c0.177-1.107,0.354-2.213,0.531-3.32
	c3.793,0.627,7.586,1.254,11.378,1.881C396.671,117.464,396.493,118.594,396.316,119.723z"/>
<path style="fill:#BCA064;" d="M246.797,131.959c2.167,1.45,3.664,2.452,5.161,3.454c-1.672,0.868-3.298,2.289-5.029,2.431
	c-1.414,0.116-2.953-1.294-4.437-2.027C243.788,134.655,245.084,133.494,246.797,131.959z"/>
<path style="fill:#BCA064;" d="M217.981,246.811c-1.262-2.551-2.691-4.27-2.312-4.898c1.061-1.757,2.868-3.064,4.381-4.548
	c0.646,0.922,2.028,2.126,1.803,2.716C221.095,242.069,219.764,243.838,217.981,246.811z"/>
<path style="fill:#BCA064;" d="M326.558,169.655c-2.645-0.211-5.29-0.421-7.935-0.632c0.098-0.99,0.196-1.98,0.294-2.97
	c2.633,0.306,5.267,0.612,7.9,0.918C326.731,167.866,326.645,168.76,326.558,169.655z"/>
<path style="fill:#BCA064;" d="M353.018,172.219c2.789,1.156,5.579,2.313,8.368,3.469c-0.406,0.95-0.813,1.899-1.219,2.849
	c-2.769-1.204-5.539-2.407-8.308-3.611C352.245,174.024,352.631,173.121,353.018,172.219z"/>
<path style="fill:#BCA064;" d="M241.681,253.05c-2.127,1.41-3.589,2.53-5.221,3.279c-0.217,0.099-2.049-2.25-1.856-2.508
	c1.075-1.435,2.476-2.676,3.963-3.692C238.761,249.997,240.101,251.545,241.681,253.05z"/>
<path style="fill:#BCA064;" d="M216.365,145.763c-3.113,0.836-4.754,1.754-6.182,1.497c-1.008-0.182-1.729-1.959-2.578-3.023
	c1.312-0.51,2.655-1.483,3.927-1.396C212.704,142.92,213.799,144.136,216.365,145.763z"/>
<path style="fill:#BCA064;" d="M309.748,279.773c-1.737,1.509-2.87,2.864-4.32,3.542c-0.476,0.222-1.773-1.312-2.695-2.043
	c1.275-1.429,2.5-2.913,3.923-4.176C306.764,277.001,308.271,278.483,309.748,279.773z"/>
<path style="fill:#BCA064;" d="M261.802,260.128c-1.223-1.299-2.701-2.215-2.604-2.909c0.179-1.27,1.289-2.408,2.011-3.601
	c1.046,0.793,2.878,1.528,2.941,2.392C264.231,257.127,262.899,258.347,261.802,260.128z"/>
<path style="fill:#BCA064;" d="M321.956,130.335c1.754,0.196,3.508,0.392,5.261,0.589c-0.152,0.888-0.288,2.541-0.457,2.545
	c-1.718,0.033-3.441-0.203-5.163-0.363C321.717,132.181,321.836,131.258,321.956,130.335z"/>
<path style="fill:#BCA064;" d="M260.01,263.797c-1.141,0.914-1.857,1.931-2.632,1.979c-0.725,0.044-1.513-0.939-2.274-1.47
	c0.717-0.878,1.299-1.999,2.22-2.507C257.664,261.611,258.801,262.865,260.01,263.797z"/>
<path style="fill:#BCA064;" d="M199.63,148.507c-0.763-2.111-1.504-3.264-1.469-4.393c0.023-0.717,1.403-2.081,1.821-1.958
	c1.023,0.302,2.003,1.186,2.636,2.09C202.791,144.494,201.674,145.643,199.63,148.507z"/>
<path style="fill:#BCA064;" d="M316.364,261.025c0.964-1.266,1.928-2.531,2.892-3.797c0.61,0.738,1.22,1.475,1.83,2.213
	c-1.64,0.461-3.281,0.922-4.929,1.374C316.149,260.807,316.364,261.025,316.364,261.025z"/>
</svg>
