<?xml version="1.0" encoding="iso-8859-1"?>
<!-- Generator: Adobe Illustrator 17.1.0, SVG Export Plug-In . SVG Version: 6.00 Build 0)  -->
<!DOCTYPE svg PUBLIC "-//W3C//DTD SVG 1.1//EN" "http://www.w3.org/Graphics/SVG/1.1/DTD/svg11.dtd">
<svg version="1.1" id="&#x421;&#x43B;&#x43E;&#x439;_1"
	 xmlns="http://www.w3.org/2000/svg" xmlns:xlink="http://www.w3.org/1999/xlink" x="0px" y="0px" viewBox="0 0 299.014 322.504"
	 style="enable-background:new 0 0 299.014 322.504;" xml:space="preserve">
<g>
	<path style="fill:#BCA064;" d="M86.995,128.037c11.176-5.852,22.964-7.302,35.317-5.246c4.688,0.78,8.584,3.17,12.305,5.835
		c3.486,2.497,6.854,5.193,10.045,8.056c2.41,2.162,4.664,4.573,6.609,7.157c1.846,2.452,3.2,5.274,4.68,7.781
		c-0.924-14.64-22.193-32.68-42.334-34.636c-23.058-2.239-49.347,7.468-58.211,44.025c-1.355-0.371-2.704-0.741-4.02-1.102
		c1.601-19.127,16.681-37.254,40.998-42.839c-1.924-0.649-3.189-1.017-4.41-1.497c-5.114-2.012-6.803-6.477-4.032-10.58
		c2.577-3.816,5.389-3.941,9.064-0.22c-1.942,1.16-4.509-1.123-6.335,1.495c0.468,0.501,0.984,1.093,1.542,1.644
		c1.555,1.535,3.341,2.621,5.564,1.708c2.213-0.91,3.535-2.762,3.779-5.098c0.199-1.894,0.273-3.928-0.223-5.727
		c-0.391-1.418-1.49-2.926-2.708-3.77c-2.293-1.59-4.885-2.755-7.377-4.052c-4.616-2.403-9.367-2.418-14.183-0.678
		c-0.971,0.351-1.875,0.889-2.849,1.232c-4.199,1.483-4.809,1.236-7.093-2.88c-5.182,1.429-10.423,2.877-15.666,4.318
		c-1.424,0.391-2.846,0.799-4.285,1.128c-4.26,0.974-6.77-0.171-8.683-4.069c-0.579-1.18-0.982-2.478-1.268-3.766
		c-1.125-5.064,0.89-7.971,5.987-8.777c0.875-0.138,1.746-0.295,2.537-0.429c2.674-4.168,3.5-4.538,8.409-3.77
		c1.714,0.268,3.42,0.585,5.468,0.937c-3.921-6.526-3.077-14.657,1.677-18.594c3.286-2.722,7.218-3.06,11.304-3.055
		c4.413,0.006,7.491,2.312,10.297,5.93c1.827-2.642,2.411-5.871,5.965-6.864c-2.007,3.2-3.792,6.047-5.853,9.335
		c-2.978-4.443-6.704-7.345-12.148-7.056c-3.56,0.189-6.496,1.464-8.977,4.162c-4.895,5.322-4.067,10.822,3.313,18.227
		c-1.218,0.12-2.143,0.323-3.055,0.279c-2.366-0.114-4.734-0.274-7.089-0.528c-5.246-0.565-9.313,2.904-14.034,4.162
		c-2.258,0.602-2.792,4.579-1.787,7.56c1.012,3,2.833,4.427,6.024,3.93c4.81-0.749,9.569-1.842,14.331-2.874
		c2.738-0.593,5.441-1.353,8.486-2.12c0.959,2.341,2.956,2.654,5.305,2.356c3.228-0.409,6.475-0.664,9.715-0.974
		c5.376-0.515,10.148,1.464,14.915,3.555c5.18,2.272,6.826,12.255,3.738,16.477c-2.474,3.383-4.815,4.081-8.821,2.301
		c-0.503-0.223-0.985-0.493-2.111-1.062c0.631,2.761,1.826,4.2,4.028,4.587c4.224,0.742,8.95-2.673,9.351-6.871
		c0.267-2.792,0.222-5.625,0.145-8.435c-0.083-3.012-1.835-5.278-3.864-7.265c-3.626-3.551-8.008-5.649-13.113-5.698
		c-3.829-0.037-7.661,0.372-11.492,0.57c-0.879,0.045-2.225,0.416-2.565-0.004c-1.91-2.361-4.113-0.996-6.103-0.59
		c-5.929,1.211-11.809,2.663-17.721,3.963c-1.289,0.284-2.637,0.5-3.946,0.448c-2.673-0.105-4.457-1.855-4.751-4.391
		c-0.313-2.7,1.219-4.901,4.015-5.505c1.586-0.343,3.741,0.165,4.756-0.722c3.724-3.253,7.615-1.495,11.516-1.051
		c4.666,0.531,9.182-0.313,13.465-2.067c6.184-2.533,7.455-9.009,2.647-13.573c-1.444-1.371-3.362-2.424-5.25-3.107
		c-3.299-1.194-6.21-0.06-7.682,2.55c-1.765,3.13-1.106,6.433,1.973,9.087c1.178-0.643,2.436-1.329,3.904-2.13
		c0.727,2.278-0.997,2.88-2.294,3.573c-1.481,0.791-2.835,0.378-3.997-0.848c-3.525-3.718-2.306-11.087,2.254-13.485
		c6.745-3.547,16.498,1.616,17.293,9.224c0.337,3.222-1.18,5.846-3.629,7.69c-2.058,1.55-4.496,2.596-7.45,4.247
		c5.931-0.337,11.193-0.636,17.225-0.978c-5.064-4.59-5.116-9.963-4.809-15.327c0.234-4.09,2.409-7.268,5.774-9.521
		c1.961-1.313,4.057-2.452,6.18-3.487c3.129-1.526,5.948-3.3,7.19-6.866c0.388,3.988-0.953,7.077-4.478,9.016
		c-2.201,1.211-4.495,2.252-6.722,3.417c-2.141,1.12-3.821,2.644-4.361,5.296c2.292-1.468,4.352-2.93,6.542-4.158
		c3.518-1.973,7.723-2.918,9.608-7.268c3.258,2.486,0.367,4.916,0.674,7.168c0.312,2.281,0.069,4.638,0.069,7.124
		c-5.999-4.728-8.229-4.833-10.414-0.164c2.221-0.639,4.012-2.072,6.267-0.64c4.817,3.059,5.81,8.559,1.997,12.831
		c-0.576,0.645-1.276,1.18-2.475,2.273c2.734,0,4.687,0,7.155,0c0-5.129,0.104-10.269-0.033-15.403
		c-0.11-4.129-0.665-8.248-0.749-12.377c-0.146-7.11-0.09-14.224-0.091-21.336c0-1.176-0.132-2.475,0.316-3.488
		c0.322-0.727,1.477-1.398,2.318-1.477c0.595-0.056,1.632,0.803,1.857,1.463c0.366,1.079,0.302,2.328,0.296,3.505
		c-0.041,8.149-0.271,16.301-0.13,24.447c0.128,7.397,0.63,14.789,1.013,22.18c0.053,1.017,0.366,2.021,0.617,3.336
		c4.448,0,8.846,0.113,13.236-0.027c6.502-0.207,13-0.893,19.496-0.84c11.698,0.094,23.392,0.753,35.09,0.84
		c6.195,0.046,12.396-0.611,18.594-0.965c2.212-0.126,4.434-0.53,6.629-0.408c12.119,0.671,24.231,1.467,36.346,2.213
		c1.774,0.109,3.553,0.141,5.325,0.272c10.768,0.798,21.535,1.62,32.302,2.421c2.644,0.197,5.293,0.342,8.812,0.566
		c-1.232,0.711-1.736,1.241-2.275,1.278c-12.244,0.842-24.418,2.971-36.76,2.017c-4.426-0.342-8.85-0.749-13.283-0.969
		c-7.686-0.383-15.382-0.572-23.067-0.975c-7.237-0.38-14.46-1.077-21.7-1.364c-5.745-0.228-11.507-0.046-17.282,0.115
		c13.589,1.095,26.862,3.392,39.488,8.843c12.447,5.374,23.891,12.328,35.029,21.486c-0.395-1.529-0.473-2.291-0.78-2.944
		c-4.347-9.25,2.086-18.526,10.944-20.319c4.121-0.834,8.509-0.497,12.771-0.407c1.528,0.032,3.038,0.9,4.915,1.501
		c-0.515,1.346-0.902,2.358-1.299,3.394c-2.776-0.923-5.268-1.788-7.782-2.58c-7.213-2.272-15.788,4.98-16.806,12.112
		c-0.468,3.28,0.249,6.478,1.634,9.502c1.362,2.973,3.698,4.515,6.941,4.731c3.484,0.232,4.61-0.818,4.563-4.259
		c-0.01-0.712-0.022-1.424-0.002-2.135c0.003-0.119,0.168-0.234,0.387-0.52c2.898,0.295,2.064,2.958,2.85,4.755
		c2.935-1.718,5.3-3.918,5.701-7.411c0.502-4.374-2.068-7.515-6.261-5.202c-0.334,0.184-0.809,0.115-1.95,0.25
		c0.447-1.191,0.511-2.271,1.076-2.716c2.946-2.319,7.8-1.371,9.621,2.023c1.93,3.595,2.122,7.361-0.224,10.948
		c-4.155,6.353-9.546,8.609-17.193,7.125c1.976,2.367,3.908,4.576,5.723,6.876c5.886,7.46,9.161,16.037,11.473,25.209
		c3.338,13.239,3.47,26.607,3.028,40.365c-1.993-0.927-1.456-2.586-1.531-3.838c-0.4-6.652-0.238-13.368-1.088-19.957
		c-2.062-15.986-5.907-31.401-16.505-44.266c-5.991-7.273-13.218-13.147-20.813-18.599c-11.631-8.348-24.227-14.951-38.135-18.352
		c-8.716-2.132-17.757-3.079-26.707-4.057c-6.757-0.739-13.601-0.917-20.406-0.921c-7.731-0.004-15.28,1.433-22.625,3.942
		c-5.883,2.009-9.727,6.183-12.102,11.642c-0.883,2.03-1.082,4.661-0.713,6.871c0.843,5.044,5.188,7.715,10.201,6.813
		c1.701-0.306,3.178-0.966,3.733-2.712c0.576-1.811-0.289-3.13-1.782-4.142c-0.456-0.309-0.818-0.757-0.998-1.447
		c2.139,0.019,3.558,1.149,4.32,3.104c0.73,1.874,0.192,3.773-1.284,4.827c-2.173,1.551-4.697,2.609-6.826,3.746
		c0.685,0.237,1.938,0.645,3.174,1.1c17.681,6.523,29.904,18.483,34.933,36.772c4.51,16.399,2.983,32.662-4.358,48.027
		c-4.789,10.022-12.496,17.517-22.739,22.176c-0.505,0.23-1.067,0.336-1.804,0.31c20.143-10.41,28.598-27.389,28.236-49.361
		c-1.079,8.605-3.388,16.874-7.225,24.698c-3.565,7.269-8.821,13.049-16.012,16.708c-4.706,2.395-9.775,4.11-14.765,5.896
		c-1.543,0.552-3.362,0.334-5.284-0.354c0.398-0.294,0.785-0.826,1.195-0.844c4.894-0.219,9.122-2.298,13.282-4.608
		c5.231-2.904,9.814-6.647,13.858-11.013c4.418-4.768,7.211-10.385,8.478-16.811c2.146-10.885,2.569-21.778-0.343-32.533
		c-1.863-6.881-5.036-13.237-9.625-18.829c-3.652-4.451-8.06-7.809-13.359-10.01c-1.636-0.68-3.35-1.183-4.959-1.917
		c-17.569-8.015-40.946,3.603-48.19,16.388c-6.513,11.496-10.282,23.33-8.562,36.84c1.422,11.164,5.769,20.676,13.007,29.059
		c6.333,7.336,14.917,10.387,23.986,12.442c2.517,0.57,5.091,0.889,7.648,2.034c-0.731,0.134-1.51,0.5-2.187,0.363
		c-4.484-0.906-8.984-1.78-13.403-2.947c0.619,0.368-6.27-1.733-9.462-3.047c-3.664-2.579-6.221-4.378-9.885-6.957
		c-2.597-0.785-4.005-2.923-5.462-4.939c-5.226-7.227-7.826-15.473-9.265-24.166c-2.028-12.252,0.784-23.787,5.311-35.019
		c0.853-2.117,2.483-3.92,3.754-5.869c-0.62,1.481-1.262,2.954-1.855,4.446c-1.05,2.646-2.736,5.11-2.604,8.658
		c0.475-0.838,0.727-1.198,0.897-1.593c3.185-7.414,7.143-14.294,13.326-19.69C81.401,131.585,85.336,128.906,86.995,128.037z
		 M144.975,82.193c-11.712-0.469-23.536,2.304-35.223,2.571c-0.222,10.321-0.433,20.128-0.648,30.117
		c2.437,0.319,4.892,0.641,8.077,1.058c-1.425-1.22-2.315-1.899-3.11-2.675c-4.368-4.262-5.215-9.998-2.288-15.329
		c3.573-6.508,9.421-10.164,16.253-12.12C133.673,84.201,139.522,83.33,144.975,82.193z M93.342,72.436
		c0.14,0.286,0.28,0.571,0.42,0.857c-2.191,0.188-4.381,0.376-6.287,0.539c3.165,2.599,7.894,2.169,10.404-1.229
		c1.641-2.222,0.723-4.626-2.914-7.331c-0.428,0.188-0.925,0.507-1.466,0.628c-3.024,0.677-4.566-0.964-3.725-3.922
		c0.66-2.321,3.383-3.665,6.13-2.91c1.317,0.362,2.571,0.95,4.331,1.616c-0.277-2.43-0.485-4.258-0.744-6.531
		c-4.036,2.03-7.67,3.612-11.046,5.626c-3.214,1.918-4.159,5.559-2.797,8.896C87.065,72.145,89.219,73.198,93.342,72.436z
		 M87.077,83.907c5.95,2.381,11.366,5.406,16.083,11.293c0-4.507,0-7.814,0-11.293C97.619,83.907,92.348,83.907,87.077,83.907z
		 M58.62,83.766c-3.935,0-7.162-0.01-10.389,0.005c-1.327,0.006-2.656,0.039-3.982,0.109c-1.654,0.088-3.26,0.284-3.392,2.454
		C44.765,88.447,47.391,88.079,58.62,83.766z M63.371,165.473c-1.172,9.316-0.459,17.101,1.853,22.659
		C64.645,181.051,64.022,173.427,63.371,165.473z M104.126,114.794c-0.19-1.545-0.332-2.694-0.487-3.952
		c-2.162,1.638-4.195,3.18-7.043,5.338C99.594,115.628,101.684,115.243,104.126,114.794z M66.966,192.642
		c1.034,5.11,2.14,7.179,5.056,10.09C70.188,199.072,68.577,195.857,66.966,192.642z"/>
	<path style="fill:#BCA064;" d="M189.912,281.211c-2.874-1.386-2.363-3.211-2.373-4.743c-0.069-10.069-0.027-20.139-0.096-30.207
		c-0.217-31.835-0.464-63.669-0.714-95.503c-0.007-0.854-0.18-1.706-0.297-2.75c-2.317,0.654-4.4,1.241-6.961,1.963
		c0,1.005-0.005,2.305,0.001,3.606c0.03,6.22-0.152,12.449,0.139,18.657c0.617,13.143,1.546,26.272,2.208,39.413
		c0.238,4.725,0.204,9.475,0.07,14.207c-0.386,13.614-0.882,27.225-1.349,40.836c-0.05,1.447-0.193,2.891-0.878,4.381
		c-0.167-0.898-0.476-1.795-0.479-2.693c-0.022-8.723,0.082-17.446,0.002-26.168c-0.088-9.616-0.3-19.232-0.516-28.846
		c-0.319-14.207-0.727-28.412-1.024-42.619c-0.142-6.81-0.118-13.623-0.166-20.435c-0.01-1.438-0.001-2.876-0.001-4.646
		c3.64-0.166,6.825-0.312,10.392-0.475c0.454,4.272,1.157,8.337,1.271,12.419c0.388,13.905,0.717,27.816,0.773,41.726
		c0.036,9.026-0.528,18.054-0.652,27.083c-0.061,4.434,0.265,8.874,0.425,13.311c0.032,0.887,0.22,1.784,0.138,2.658
		c-1.075,11.543,0.874,23.048,0.398,34.581C190.172,278.206,190.044,279.444,189.912,281.211z"/>
	<path style="fill:#BCA064;" d="M223.885,22.313c-2.34-0.092-4.698-0.409-7.018-0.233c-7.063,0.534-11.926,4.777-16.029,10.061
		c-3.629,4.673-5.555,10.116-6.231,15.921c-0.786,6.756-1.24,13.55-1.826,20.328c-0.201,2.328-0.364,4.659-0.56,7.177
		c1.585,0.159,3.176,0.319,4.767,0.479c-0.002,0.179-0.003,0.358-0.005,0.537c-19.309,0.338-38.618,0.675-57.928,1.013
		c-0.075-0.23-0.151-0.459-0.226-0.689c1.567-0.867,3.511-1.412,4.598-2.688c1.161-1.363,1.957-3.381,2.095-5.177
		c0.138-1.792-0.288-3.953-1.254-5.441c-2.372-3.654-8.594-3.958-13.421-0.832c-1.667-5.136-5.38-8.649-9.299-12.028
		c-2.915-2.513-5.658-5.224-8.574-7.736c-2.925-2.519-4.097-5.628-3.934-9.446c0.151-3.527,0.032-7.066,0.032-10.649
		c-1.809,0.202-3.318,0.714-4.642,0.411c-1.087-0.249-2.52-1.312-2.785-2.289c-0.415-1.534,0.975-2.195,2.483-2.363
		c0.939-0.105,1.851-0.441,2.726-1.284c-1.181-0.192-2.362-0.385-4.6-0.749c2.474-1.003,3.997-1.621,5.519-2.238
		c-0.054-0.265-0.108-0.531-0.161-0.796c-3.19,0.346-6.379,0.691-9.638,1.044c0.254-0.294,0.621-1.012,1.207-1.35
		c3.603-2.076,7.402-2.012,11.099-0.435c2.821,1.204,4.097,3.656,4.361,6.703c0.244,2.82-2.028,3.694-3.878,5.122
		c-0.171,4.389,0.396,8.738,1.58,13.029c0.9,3.263,2.685,5.912,5.411,7.9c2.75,2.006,5.54,3.957,8.316,5.927
		c2.815,1.998,5.523,4.073,5.643,7.509c2.64-0.478,5.13-1.597,7.352-1.202c6.094,1.083,9.41,7.183,7.676,13.191
		c-0.204,0.708-0.392,1.426-0.668,2.106c-0.276,0.681-0.654,1.32-1.163,2.325c1.105,0.072,1.987,0.13,3.209,0.21
		c0.269-8.813,0.705-17.434-1.835-25.728c-2.658-8.678-9.287-13.426-17.724-15.854c-4.368-1.257-8.74-1.459-13.003,0.584
		c-0.579,0.277-1.311,0.235-2.116,0.363c0.122-0.502,0.11-0.692,0.19-0.747c6.406-4.36,17.387-3.881,23.295,0.97
		c8.092,6.645,12.517,15.177,13.286,25.616c0.348,4.717,0.721,9.431,1.11,14.512c12.949,0,26.026,0,39.422,0
		c0-1.526-0.002-3.1,0-4.675c0.01-9.188,0.404-18.342,2.902-27.257c1.454-5.189,3.878-9.912,7.444-13.983
		c5.838-6.665,12.689-10.611,21.922-7.917C223.304,21.814,223.595,22.064,223.885,22.313z"/>
	<path style="fill:#BCA064;" d="M288.77,214.554c1.028,0.721,2.056,1.442,3.334,2.338c0.97-1.794,1.761-3.255,2.589-4.787
		c2.838,2.847,3.274,4.562,1.941,7.045c-1.414,2.632-5.494,4.522-8.334,3.852c-2.275-0.536-3.906-1.88-5.285-3.769
		c-0.83-1.136-2.144-1.919-4.048-2.528c-0.082-1.873-0.243-3.746-0.234-5.618c0.089-19.41,0.244-38.82,0.285-58.231
		c0.009-4.29-0.47-8.58-0.528-12.872c-0.066-4.883,0.112-9.769,0.138-14.653c0.029-5.445,0.007-10.891,0.007-16.574
		c1.324,0,2.57,0,4.388,0c0.095,2.54,0.601,4.926,0.199,7.148c-2.635,14.541-2.362,29.168-1.846,43.84
		c0.349,9.919,0.247,19.854,0.336,29.782c0.021,2.361,0.003,4.722,0.748,7.091c0.536-19.15,1.071-38.301,1.607-57.451
		c0.071-0.013,0.142-0.026,0.213-0.039c0.29,3.34,0.826,6.68,0.821,10.02c-0.013,8.442-0.44,16.885-0.388,25.326
		c0.08,12.883,0.368,25.766,0.721,38.645c0.046,1.688,0.786,3.462,1.582,5c1.037,2.002,3.079,2.11,5.067,1.823
		c1.728-0.249,3.005-1.018,2.945-3.183c-4.263,2.109-5,1.815-6.154-2.287L288.77,214.554z"/>
	<path style="fill:#BCA064;" d="M65.611,119.907c4.486-1.945,8.396-3.64,12.527-5.431c0.145-3.08-2.13-6.377,0.491-9.298
		c1.228-1.369,2.349-2.867,4.663-2.972c-4.771,3.572-2.947,8.449-2.989,13.159c-2.778,1.107-5.644,2.242-8.506,3.39
		c-7.536,3.023-13.336,8.088-17.703,14.899c-6.323,9.864-10.015,20.588-11.766,32.2c-2.481,16.456,2.128,31.123,10.688,44.699
		c6.931,10.994,17.493,17.459,29.923,20.789c10.767,2.884,21.644,2.708,32.52,0.48c1.301-0.267,2.602-0.536,3.912-0.749
		c0.243-0.039,0.529,0.187,1.322,0.495c-1.124,0.523-1.888,1.043-2.728,1.245c-16.37,3.931-32.331,2.941-47.546-4.582
		c-14.009-6.927-23.386-18.025-27.472-33.122c-3.763-13.902-4.257-28.071-0.983-42.161c2.586-11.133,8.516-20.393,17.131-27.912
		c1.668-1.456,3.38-2.859,5.33-4.504c0-1.181-0.001-2.502,0-3.823c0.002-1.507-0.014-2.903-1.759-3.702
		c-0.664-0.304-1.272-1.309-1.401-2.079c-0.219-1.311-0.814-1.869-1.97-2.554c-2.724-1.613-2.916-2.831-1.663-6.715
		c0.176,4.751,5.389,6.055,6.686,10.268c0.434,1.411,1.295,2.768,1.292,4.381C65.61,117.331,65.611,118.352,65.611,119.907z"/>
	<path style="fill:#BCA064;" d="M193.664,128.261c2.184,0,4.368,0,6.984,0c0,1.828,0.565,3.694-0.109,4.815
		c-1.837,3.058-4.197,5.802-6.63,9.044c0,5.971-0.301,12.486,0.057,18.965c1.013,18.328,1.761,36.652,1.493,55.017
		c-0.097,6.638,0.497,13.285,0.744,19.93c0.083,2.218,0.096,4.439,0.092,6.659c-0.019,11.101-0.054,22.202-0.082,33.303
		c-0.004,1.388-0.001,2.776-0.001,4.165c-0.338,0.035-0.677,0.071-1.015,0.106c-0.205-0.719-0.542-1.428-0.597-2.158
		c-1.822-24.247-0.915-48.508-0.53-72.775c0.176-11.09-0.42-22.193-0.722-33.289c-0.23-8.431-0.542-16.86-0.831-25.29
		c-0.055-1.596-0.177-3.191-0.269-4.813c-4.818-0.889-9.294-1.715-14.127-2.608c5.557-3.197,11.425-2.131,17.136-2.698
		c-3.551-0.479-7.093-1.058-10.657-1.407c-3.552-0.348-7.126-0.465-10.688-1.069c7.801-1.488,15.672-0.176,23.952-0.616
		c0.118-1.073,0.252-2.291,0.376-3.414c-1.75-0.715-3.162-1.291-4.573-1.868L193.664,128.261z"/>
	<path style="fill:#BCA064;" d="M257.597,322.504c-0.193-0.478-0.545-0.951-0.557-1.434c-0.38-14.511-0.748-29.021,0.238-43.526
		c0.17-2.508,0.074-5.036,0.038-7.555c-0.147-10.37-0.185-20.743-0.519-31.107c-0.295-9.167-1.034-18.319-1.375-27.485
		c-0.203-5.468-0.051-10.951,0.002-16.427c0.083-8.44,0.328-16.881,0.299-25.32c-0.024-7.097-0.393-14.193-0.492-21.291
		c-0.028-2.006,0.357-4.018,1.313-5.987c0.081,0.929,0.213,1.858,0.234,2.788c0.494,21.022,1,42.044,1.447,63.067
		c0.16,7.554-0.224,15.141,0.33,22.662c1.235,16.744,0.387,33.459-0.044,50.185c-0.095,3.698-0.649,7.392-0.602,11.083
		c0.104,8.14,0.474,16.276,0.692,24.414c0.052,1.953-0.065,3.91-0.105,5.865C258.197,322.459,257.897,322.482,257.597,322.504z"/>
	<path style="fill:#BCA064;" d="M3.361,152.059c0.628-0.759,1.103-1.515,1.754-2.061c0.519-0.435,1.253-0.612,2.169-1.03
		c-0.346-7.745-0.753-15.415-1.002-23.091c-0.117-3.627-1.734-6.395-4.386-8.62c-2.236-1.876-2.302-4.112-1.193-6.823
		c0.353,0.525,0.842,1.006,1.033,1.585c0.556,1.683,1.592,2.771,2.877,4.06c1.96,1.967,4.011,4.46,3.905,7.815
		c-0.271,8.575-0.393,17.155-0.676,25.729c-0.034,1.027-0.692,2.032-1.308,3.729c3.479,8.34,1.87,17.801,1.755,27.179
		c-0.071,5.747,0.227,11.498,0.242,17.247c0.013,5.175-0.126,10.35-0.212,15.524c-0.148,8.876-0.573,17.758-0.391,26.627
		c0.213,10.339,0.983,20.666,1.428,31.002c0.061,1.421,0.713,3.265-1.77,4.286c-0.247-1.021-0.581-1.796-0.597-2.577
		c-0.073-3.552-0.022-7.106-0.079-10.658c-0.307-19.087-0.655-38.173-0.939-57.26c-0.088-5.92-0.086-11.843,0.011-17.763
		c0.038-2.349,0.588-4.688,0.661-7.039c0.257-8.25-0.033-16.474-1.859-24.565C4.532,154.239,3.871,153.214,3.361,152.059z"/>
	<path style="fill:#BCA064;" d="M170.864,127.886c0-5.85-0.014-11.291,0.043-16.731c0.003-0.266,0.624-0.526,1.39-1.129
		c0.378,1.098,0.92,1.948,0.921,2.8c0.007,4.291-0.161,8.582-0.197,12.874c-0.02,2.37-0.379,4.455-3.323,4.895
		c0.922,2.763,1.789,5.207,2.544,7.684c0.416,1.364,0.967,2.798,0.91,4.177c-1.368,33.013,1.304,65.981,1.096,98.981
		c-0.062,9.91,0.412,19.824,0.63,29.736c0.031,1.409,0.004,2.82-0.769,4.39c-0.262-0.438-0.713-0.859-0.757-1.318
		c-1.924-20.206-2.589-40.434-1.42-60.724c0.399-6.932,0.157-13.906,0.087-20.86c-0.131-13.02-0.381-26.039-0.507-39.06
		c-0.023-2.358,0.255-4.725,0.498-7.077c0.472-4.564-0.836-8.708-3.141-12.515C166.877,130.718,167.187,129.451,170.864,127.886z"/>
	<path style="fill:#BCA064;" d="M195.009,102.849c-1.185-5.321-0.9-6.317,2.83-9.383c-0.329,2.912-3.84,5.154-1.066,8.459
		c0.338-0.873,0.565-1.358,0.715-1.866c1.309-4.417,2.855-5.673,7.327-5.086c2.44,0.32,4.975,1.015,7.138,2.162
		c10.21,5.413,20.018,11.551,28.9,18.928c5.202,4.321,10.024,9.277,14.213,14.583c2.957,3.745,4.687,8.498,6.75,12.902
		c5.555,11.86,8.255,24.222,6.996,37.435c-0.414,4.347,0.212,8.851,0.816,13.22c0.511,3.696,1.105,3.91,4.883,4.282
		c0.412,0.041,0.81,0.234,1.478,0.436c-0.601,0.254-0.942,0.491-1.308,0.538c-5.422,0.704-6.675-0.254-6.913-5.669
		c-0.208-4.73-0.321-9.471-0.26-14.204c0.148-11.544-2.248-22.621-6.28-33.331c-3.114-8.272-8.653-15.083-14.246-21.807
		c-4.494-5.403-9.645-9.944-15.932-13.226c-6.68-3.488-13.194-7.293-19.846-10.839c-1.803-0.961-3.789-1.721-5.781-2.155
		c-2.969-0.646-4.003-0.18-5.296,2.58C199.019,103.171,197.578,103.844,195.009,102.849z"/>
	<path style="fill:#BCA064;" d="M247.643,139.639c0.62,1.065,1.125,1.524,1.112,1.969c-1.483,52.771,2.413,105.537,0.47,159.015
		c-1.804-1.452-1.269-2.849-1.277-3.958c-0.114-16.14-0.113-32.281-0.252-48.421c-0.179-20.877-0.412-41.753-0.71-62.629
		c-0.159-11.098-0.559-22.193-0.735-33.29c-0.052-3.249,0.251-6.508,0.479-9.756C246.784,141.795,247.191,141.045,247.643,139.639z"
		/>
	<path style="fill:#BCA064;" d="M104.189,159.813c6.294-1.443,8.047-0.107,9.154,7.478c2.069,0.115,4.199,0.234,6.634,0.37
		c3.148-4.519,7.863-5.965,13.378-5.712c1.844,0.085,3.71-0.334,6.199-0.587c-3.046,3.485-5.314,6.918-8.386,9.326
		c-2.402,1.883-5.8,2.496-9.336,3.904c0.036,2.605-1.51,5.026-4.526,6.628c-4.226,2.244-7.591,0.933-8.769-3.683
		c-0.25-0.978-0.195-2.033-0.302-3.312c-1.359,0.14-2.615,0.304-3.876,0.393c-3.516,0.248-5.618-1.013-5.765-4.505
		c-0.165-3.907-2.107-6.657-4.382-9.365c-3.137-3.735-6.375-7.386-9.581-11.064c-1.04-1.193-2.114-2.357-2.752-4.2
		c0.541,0.15,1.189,0.157,1.605,0.471c3.895,2.94,7.639,6.093,11.654,8.854C97.901,156.711,101.025,158.091,104.189,159.813z
		 M113.784,169.938c-2.039,0.377-2.725-0.63-3.031-2.534c-0.25-1.555-1.04-3.023-1.591-4.529l0.146,0.148
		c-0.329-0.263-0.691-0.786-0.981-0.749c-4.144,0.536-7.587-1.082-10.842-3.368c-0.064-0.045-0.379,0.266-0.765,0.548
		c0.74,0.91,1.542,1.766,2.183,2.729c0.469,0.704,1.166,1.666,0.995,2.31c-0.505,1.907-0.438,3.568,1.169,4.809
		c1.499,1.157,3.04,2.734,4.753,3.032c2.728,0.475,3.904,1.402,4.586,4.256c1.037,4.34,5.752,5.248,8.565,2.036
		c2.143-2.447,1.069-7.874-1.862-9.277c-1.299-0.621-2.546-0.683-3.464,0.709L113.784,169.938z M122.146,169.627
		c4.093,2.374,7.581,0.609,9.413-4.764C125.247,164.708,123.762,165.459,122.146,169.627z"/>
	<path style="fill:#BCA064;" d="M288.872,214.47c-1.725-1.864-1.569-4.265-1.737-6.516c-1.847-24.845-0.81-49.726-0.805-74.592
		c0.003-14.063,0.512-28.126,0.722-42.189c0.23-15.395,0.382-30.791,0.558-46.187c0.026-2.3,0.004-4.601,0.821-7.008
		c0.132,0.563,0.362,1.122,0.382,1.689c0.312,9.028,0.768,18.056,0.828,27.086c0.042,6.203-0.531,12.407-0.723,18.614
		c-0.16,5.181-0.07,10.37-0.259,15.549c-0.427,11.68-0.972,23.356-1.433,35.035c-0.076,1.92,0.008,3.848,0.054,5.772
		c0.229,9.623,0.506,19.245,0.698,28.869c0.293,14.654,0.53,29.308,0.791,43.962L288.872,214.47z"/>
	<path style="fill:#BCA064;" d="M115.679,228.458c-4.013,0.729-17.11,1.199-26.092-0.783c-3.422-0.416-6.914-1.822-9.946-3.535
		c-5.267-2.976-10.784-5.92-15.145-10c-7.345-6.872-12.041-15.523-13.161-26.049c1.321-0.512,2.517-0.976,4.166-1.614
		c0.721,2.317,1.384,4.359,1.991,6.417c2.529,8.59,6.979,15.903,14.178,21.391c2.942,2.243,5.858,4.523,8.861,6.682
		c5.051,3.632,10.788,5.426,16.931,6.013c6.009,0.574,11.887,0.51,17.898,1.065C115.36,228.045,116.418,228.055,115.679,228.458z"/>
	<path style="fill:#BCA064;" d="M244.489,306.127c-0.078-0.698-0.219-1.396-0.226-2.094c-0.226-21.777-1.069-43.571-0.492-65.327
		c0.689-25.947-0.378-51.846-0.597-77.766c-0.05-5.923-0.385-11.843-0.546-17.766c-0.041-1.512-0.329-2.704-1.443-3.976
		c-1.69-1.93-2.908-4.29-4.227-6.525c-1.716-2.908-0.627-5.022,2.82-5.599c0.716-0.12,1.449-0.145,2.42-0.237
		c0.159-1.214,0.305-2.32,0.515-3.926c1.31,1.657,1.32,3.123,1.206,4.931c-1.942,0.353-3.865,0.703-6.031,1.097
		c0.126,1.164-0.095,2.284,0.363,2.795c1.694,1.886,2.379,4.56,3.97,6.181c2.015,2.052,2.006,4.099,2.025,6.418
		c0.435,52.592,0.86,105.183,1.276,157.775c0.01,1.297-0.111,2.595-0.171,3.893C245.065,306.042,244.777,306.085,244.489,306.127z"
		/>
	<path style="fill:#BCA064;" d="M223.885,22.313c-0.29-0.25-0.581-0.499-0.871-0.749c-4.415-3.226-9.428-3.763-14.666-3.231
		c-17.845,1.813-27.41,13.024-32.408,29.042c-2.301,7.375-2.361,15.151-2.675,22.83c-0.053,1.285-0.007,2.575-0.738,4.019
		c-0.226-0.433-0.668-0.876-0.647-1.297c0.398-7.966,0.321-16.004,2.269-23.794c2.654-10.612,7.661-19.902,16.898-26.222
		c8.892-6.084,18.827-7.654,29.174-4.825c3.299,0.902,6.557,2.825,9.219,5.024c7.836,6.476,13.462,14.508,15.151,24.792
		c0.931,5.668,1.647,11.374,2.36,17.075c0.132,1.058-0.214,2.176-0.426,4.019c-1.969-1.883-1.872-3.669-2.092-5.289
		c-0.435-3.213-0.755-6.441-1.198-9.653c-0.074-0.538-0.531-1.024-0.812-1.533l0.113,0.098c-0.386-3.342-0.521-6.738-1.218-10.014
		c-0.959-4.506-3.153-8.242-7.3-10.829c-2.186-1.364-3.798-3.635-5.709-5.454C226.868,24.951,225.362,23.647,223.885,22.313z"/>
	<path style="fill:#BCA064;" d="M37.103,60.801c0.933-0.409,1.867-0.818,2.929-1.283c-7.784-1.42-13.974,0.631-19.613,5.829
		C13.437,71.783,10.131,79.983,8.8,89.042c-0.768,5.227-0.737,10.574-1.005,15.87c-0.096,1.898-0.015,3.806-0.015,6.332
		c-1.92-3.351-1.271-6.343-1.196-9.222c0.221-8.412,0.665-16.785,3.836-24.779c1.991-5.02,4.921-9.384,8.262-13.551
		c3.08-3.842,7.538-5.403,11.949-6.233c6.451-1.215,12.993-0.916,18.794,2.954c0.703,0.469,1.319,1.067,2.33,1.896
		c-2.378-0.306-4.233-0.614-6.101-0.772c-5.04-0.426-8.954,2.033-11.958,5.599c-5.044,5.987-8.297,12.775-8.233,20.938
		c0.041,5.3-0.499,10.609-0.884,15.906c-0.125,1.727-0.582,3.431-1.139,5.078c0-5.653-0.122-11.31,0.046-16.958
		c0.1-3.373,0.57-6.745,1.022-10.097c1.138-8.45,4.922-15.365,12.02-20.313c0.314-0.219,0.462-0.676,0.687-1.023L37.103,60.801z"/>
	<path style="fill:#BCA064;" d="M12.512,160.153c3.391,0.205,6.25,0.379,9.291,0.563c0.284,6.124,0.557,11.698,0.762,17.274
		c0.01,0.267-0.575,0.556-1.451,1.35c-0.851-5.527,0.473-10.65-0.509-15.981c-1.943,0-3.891,0-6.166,0
		c0.239,6.135,0.029,12.213,0.823,18.158c0.969,7.262,0.732,14.457,0.236,21.678c-0.831,12.116-0.882,24.204,0.011,36.331
		c0.542,7.362,0.335,14.78,0.426,22.173c0.006,0.5-0.308,1.003-0.742,2.324c-0.547-1.331-0.957-1.911-1-2.518
		c-0.104-1.472,0.012-2.958-0.049-4.435c-0.287-6.938-0.744-13.871-0.875-20.812c-0.184-9.752-0.32-19.512-0.136-29.263
		c0.242-12.867,0.491-25.722-0.591-38.567C12.334,165.962,12.512,163.464,12.512,160.153z"/>
	<path style="fill:#BCA064;" d="M278.268,45.231c2.691,1.118,4.183,1.737,5.899,2.45c0,10.403,0,20.833,0,31.624
		c-2.46,0-4.854,0-7.688,0C275.899,67.924,277.396,56.966,278.268,45.231z"/>
	<path style="fill:#BCA064;" d="M273.48,225.342c-5.04-0.431-6.22-3.861-6.742-7.755c-0.384-2.858,0.262-3.472,3.783-3.828
		c0.711,1.025,1.449,2.086,2.46,3.542c2.08-2.601,1.774-5.427,1.938-8.055c0.171-2.733,0.038-5.485,0.038-8.553
		c2.547,4.036,1.794,13.959-1.47,18.54c-1.499-1.288-2.959-2.543-4.426-3.804c-1.469,5.215-0.475,6.672,6.366,9.198
		c-0.49,1.771-1.096,3.553-1.467,5.384c-0.884,4.353,0.842,8.542,4.326,10.88c1.316,0.884,2.563,1.081,4.148,0.465
		c5.143-2,7.689-6.713,6.329-12.106c-0.276-1.093-0.582-2.178-0.936-3.495c2.516-0.519,4.821-0.598,6.733-1.506
		c1.73-0.822,3.03-2.549,4.455-3.819c-0.302,4.435-2.725,6.649-8.728,7.831c0.207,1.871,0.368,3.752,0.629,5.619
		c1.047,7.501-9.596,13.077-15.453,9.925c-1.788-0.962-2.997-2.279-3.625-4.249C270.438,235.172,270.793,231.26,273.48,225.342z"/>
	<path style="fill:#BCA064;" d="M178.778,102.126c0.722-2.033,1.099-3.096,1.483-4.178c0.635,0,1.224-0.181,1.45,0.028
		c2.172,2.017,2.342,4.524,0.524,6.573c-2.67,3.01-7.503,3.363-10.882,0.796c-3.773-2.867-4.569-6.667-1.947-10.48
		c3.749-5.453,9.285-7.354,15.523-6.436c4.614,0.679,9.081,2.352,13.486,4.431c-1.443-0.224-2.884-0.471-4.331-0.667
		c-5.311-0.719-10.616-1.002-15.843,0.54c-1.72,0.507-3.623,1.162-3.952,3.132c-0.223,1.333,0.016,3.06,0.745,4.14
		C175.697,100.991,177.3,101.343,178.778,102.126z"/>
	<path style="fill:#BCA064;" d="M27.148,268.065c-0.086-1.581-0.237-3.161-0.248-4.742c-0.241-33.922-0.406-67.844-0.828-101.763
		c-0.028-2.278,1.993-2.957,2.265-5.07c-5.738-1.634-11.71,0.019-17.239-2.33c6.117,0,12.234,0,18.641,0
		c0.222-1.456,0.389-2.552,0.584-3.832c0.365,0.237,0.915,0.42,0.925,0.63c0.057,1.112,0.288,2.363-0.119,3.32
		c-0.849,1.999-2.23,3.775-3.059,5.78c-0.533,1.289-0.658,2.824-0.647,4.247c0.156,19.848,0.385,39.696,0.56,59.544
		c0.121,13.628,0.191,27.256,0.269,40.884c0.007,1.169-0.096,2.34-0.148,3.509C27.786,268.183,27.467,268.124,27.148,268.065z"/>
	<path style="fill:#BCA064;" d="M158.243,205.22c9.157-16.366,9.626-33.55,4.842-50.871c-4.844-17.537-15.737-30.547-32.038-37.961
		c0.438-3.255,1.196-5.988,1.063-8.676c-0.15-3.038-2.471-4.777-5.906-5.806c7.018-0.021,9.2,4.945,6.254,13.473
		c1.422,0.784,2.952,1.575,4.431,2.452c17.054,10.12,26.46,25.234,29.258,44.705c1.207,8.404,1.541,16.782-0.033,25.173
		C164.9,194.174,162.25,200.013,158.243,205.22z"/>
	<path style="fill:#BCA064;" d="M150.049,293.739c-0.31-1.087-0.784-1.98-0.787-2.875c-0.042-11.093-0.055-22.186,0.031-33.278
		c0.015-1.899,0.547-3.79,0.804-5.69c1.258-9.313-0.1-18.582-0.482-27.867c-0.087-2.114-0.976-4.301,0.522-6.549
		c2.084,0.969,1.601,2.743,1.618,4.189c0.093,8.282,0.165,16.565,0.145,24.848c-0.034,14.05-0.12,28.099-0.247,42.148
		C151.638,290.306,152.364,292.252,150.049,293.739z"/>
	<path style="fill:#BCA064;" d="M274.278,79.793c-19.309-0.779-38.196-1.542-57.083-2.304c0.005-0.22,0.009-0.441,0.014-0.661
		c18.392,0.333,36.783,0.665,55.466,1.003c0-4.414,0.032-8.22-0.009-12.026c-0.043-3.985,0.055-7.888,1.037-11.847
		c0.84-3.389,0.688-7.037,0.855-10.576c0.153-3.249,0.098-6.507,0.238-9.757c0.04-0.93,0.438-1.846,1.101-2.698
		C276.128,46.967,275.065,62.908,274.278,79.793z"/>
	<path style="fill:#BCA064;" d="M143.258,87.9c1.211,2.931,2.331,4.827,4.671,6.029c1.049,0.539,1.645,2.315,2.047,3.65
		c0.327,1.085,0.202,2.372,0.027,3.531c-0.91,6.046-0.935,12.086-0.293,18.162c0.144,1.368-0.346,2.803-0.544,4.207
		c-0.326-0.02-0.651-0.039-0.976-0.059c-0.227-8.878-0.453-17.756-0.665-26.036c-2.088-1.821-3.944-3.058-5.251-4.724
		c-0.779-0.993-0.696-2.661-1.09-4.428c-7.137,0.77-14.232,2.292-20.253,7.603c0.462-0.713,0.805-1.554,1.407-2.117
		c3.111-2.908,6.926-4.471,10.994-5.473c8.397-2.069,16.935-2.814,25.551-2.325c5.138,0.292,10.257,0.926,15.371,1.831
		C163.971,87.291,153.713,86.784,143.258,87.9z"/>
	<path style="fill:#BCA064;" d="M253.546,0c1.859,2.681,2.091,5.659,2.064,8.634c-0.122,13.166-0.796,26.349-0.321,39.492
		c0.311,8.597,0.611,17.136-0.149,25.701c-0.064,0.721-0.141,1.44-0.774,2.26c-0.244-0.857-0.662-1.706-0.702-2.573
		c-0.21-4.583-0.45-9.17-0.451-13.756c-0.003-18.95,0.073-37.901,0.134-56.851C253.351,1.938,253.477,0.969,253.546,0z"/>
	<path style="fill:#BCA064;" d="M29.965,115.014c-0.292,0.021-6.967,3.483-10.747,4.212c-2.165,0.417-4.384,0.553-6.559,0.928
		c-2.168,0.375-3.582-0.484-5.004-2.78c3.926-0.27,7.389-0.508,10.852-0.746c-0.002-0.134-0.005-0.267-0.007-0.401
		c-4.713-0.426-9.425-0.853-14.272-1.291c0.31-2.752,1.964-2.48,3.356-2.498c6.205-0.078,12.41-0.119,18.615-0.165
		c1.901-0.014,3.803-0.002,5.876-0.002C31.605,113.724,29.965,115.014,29.965,115.014z"/>
	<path style="fill:#BCA064;" d="M192.363,28.477c-1.293,0.931-2.774,1.683-3.847,2.821c-6.653,7.056-10.084,15.56-10.81,25.161
		c-0.379,5.016-0.48,10.053-0.784,15.076c-0.064,1.063-0.47,2.105-0.718,3.156c-0.319,0.036-0.638,0.071-0.956,0.107
		c-0.396-0.789-1.155-1.594-1.123-2.365c0.111-2.647,0.461-5.288,0.79-7.922c0.549-4.395,0.989-8.813,1.763-13.17
		c2.234-12.58,9.42-21.799,20.002-28.52c2.952-1.875,6.261-3.03,9.965-2.739c-2.839,2.36-5.442,4.524-8.26,6.866
		c-0.787-0.424-1.643-0.885-2.888-1.555c-0.813,0.772-1.834,1.742-2.856,2.713C192.606,28.272,192.513,28.396,192.363,28.477z"/>
	<path style="fill:#BCA064;" d="M121.586,73.83c-4.848-2.071-4.5-6.308-4.668-10.436c-4.714,0.823-3.313,5.474-5.61,8.592
		c-0.556-1.828-1.14-2.876-1.153-3.931c-0.083-6.883-0.043-13.767-0.043-21.007c0.586,0.523,1.294,0.912,1.644,1.51
		c1.84,3.137,4.242,5.566,7.585,7.172c1.693,0.813,3.265,2.062,4.601,3.403C128.839,64.047,127.887,70.089,121.586,73.83z
		 M121.996,71.057c3.356-2.175,3.624-2.448,2.219-5.547c-0.951-2.098-2.284-4.156-3.891-5.796c-2.758-2.817-5.864-5.293-8.733-7.833
		c0,4.111,0,8.286,0,13.276c0.985-1.04,1.343-1.435,1.719-1.812c1.062-1.066,2.168-2.23,3.827-1.304
		c1.48,0.826,1.804,2.171,1.393,3.821C117.793,68.824,119.483,70.244,121.996,71.057z"/>
	<path style="fill:#BCA064;" d="M37.215,60.666c-5.831,2.192-8.027,4.618-13.711,15.378c-0.305-1.126-0.301-1.985-0.721-2.499
		c-1.51-1.85-3.692-1.756-5.223,0.215c-3.435,4.424-5.249,9.587-6.125,15.012c-0.633,3.921-0.69,7.939-0.936,11.918
		c-0.099,1.593-0.016,3.197-0.758,4.841c-0.145-0.886-0.383-1.768-0.421-2.658c-0.393-9.123,0.43-18.054,4.721-26.32
		c4.581-8.824,11.291-15.005,21.464-16.62c0.474-0.075,1.062,0.562,1.596,0.867L37.215,60.666z"/>
	<path style="fill:#BCA064;" d="M275.265,155.483c-3.301-11.061-3.046-22.372-1.353-34.514c-3.731,3.131-7.032,5.473-12.541,4.229
		c3.188-1.814,5.811-2.953,8.001-4.652c2.134-1.656,3.823-3.884,6.008-6.174c0.298,13.944,0.587,27.505,0.877,41.065
		C275.926,155.452,275.595,155.467,275.265,155.483z"/>
	<path style="fill:#BCA064;" d="M84.456,294.988c-0.59-20.069-0.219-39.455-0.083-59.574c1.862,2.958,2.65,13.376,2.659,29.774
		C87.04,280.922,86.216,291.878,84.456,294.988z"/>
	<path style="fill:#BCA064;" d="M65.403,226.687c0.181,17.363,0.371,34.725,0.514,52.088c0.006,0.764-0.421,1.532-0.917,3.217
		c-2.022-4.306-0.996-7.974-1.233-11.472c-0.249-3.686-0.131-7.396-0.229-11.093c-0.099-3.697-0.304-7.392-0.395-11.09
		c-0.09-3.698-0.231-7.403-0.101-11.096c0.127-3.583-0.93-7.36,1.222-10.684C64.643,226.6,65.023,226.643,65.403,226.687z"/>
	<path style="fill:#BCA064;" d="M104.356,236.032c1.152,1.277,1.803,1.694,1.97,2.256c0.247,0.825,0.202,1.754,0.189,2.638
		c-0.218,14.808-0.477,29.615-0.656,44.423c-0.034,2.8,0.255,5.603,0.346,8.406c0.025,0.772-0.127,1.549-0.67,2.318
		c-1.786-9.869-0.491-19.819-0.762-29.714C104.507,256.596,103.012,246.81,104.356,236.032z"/>
	<path style="fill:#BCA064;" d="M11.751,125.563c3.497,0,6.665,0,10.141,0c0,6.086,0,11.938,0,18.276
		c-3.476-5.354-2.925-11.387-4.416-17.14c-1.712,0.078-3.279,0.15-4.778,0.218c0.532,7.373,1.045,14.48,1.58,21.894
		c2.526,0,4.827,0,7.128,0c-2.32,2.244-5.055,1.796-7.657,1.436c-0.583-0.08-1.233-1.536-1.386-2.437
		c-0.245-1.44-0.082-2.946-0.121-4.424C12.091,137.648,11.927,131.911,11.751,125.563z"/>
	<path style="fill:#BCA064;" d="M178.457,123.02c3.447,0.872,5.992,1.517,8.912,2.256c0-3.943,0-7.866,0-11.789
		c0.26-0.009,0.521-0.017,0.781-0.026c0.349,4.93,0.699,9.86,1.09,15.38c-4.533,0.555-8.663-0.048-13.379-0.549
		c0-4.937-0.065-9.623,0.07-14.304c0.02-0.703,0.975-1.378,1.498-2.066c0.343,0.113,0.685,0.226,1.028,0.339
		C178.457,115.835,178.457,119.409,178.457,123.02z"/>
	<path style="fill:#BCA064;" d="M116.348,135.367c-0.404,1.366-0.808,2.733-1.301,4.399c-2.251,0.243-4.706,1.091-6.421-1.637
		c-1.126,0.668-2.212,1.312-3.298,1.956c-0.243-0.211-0.485-0.422-0.728-0.633c0.587-1.883,1.173-3.766,1.789-5.742
		c-0.696-1.524-1.423-3.116-2.129-4.662c1.62-1.728,2.591-0.086,3.642,0.469c1.474-1.008,0.812-3.993,4.28-3.746
		c-0.371,1.437-0.464,2.719-1.015,3.758c-1.655,3.123-1.349,5.901,1.48,8.924c0.441-4.173,0.843-7.974,1.256-11.879
		c1.416-0.401,2.391-0.232,2.409,1.419c0.027,2.507-0.038,5.015-0.065,7.523L116.348,135.367z"/>
	<path style="fill:#BCA064;" d="M21.791,184.04c0.335,23.933,0.669,47.866,1.004,71.799c-0.372,0.044-0.743,0.088-1.115,0.131
		c-0.1-1.006-0.443-2.06-0.26-3.011c0.911-4.722,0.242-9.402,0.077-14.131c-0.547-15.67-0.73-31.353-0.958-47.032
		c-0.038-2.602,0.401-5.21,0.619-7.816C21.369,184,21.58,184.02,21.791,184.04z"/>
	<path style="fill:#BCA064;" d="M251.003,88.618c-8.275,5.473-8.275,5.473-10.065,18.244c-11.316-7.123-22.744-13.754-35.268-18.288
		c6.079,0.986,11.677,3.335,17.042,6.166c5.453,2.878,10.719,6.111,16.329,9.34c-0.249-5.344,1.302-9.916,5.189-13.49
		C246.047,88.92,248.001,88.44,251.003,88.618z"/>
	<path style="fill:#BCA064;" d="M170.61,90.415c-2.559,2.901-4.044,6.059-3.691,10.005c0.466,5.209,5.603,9.069,10.691,7.778
		c1.562-0.397,3.165-0.866,4.56-1.642c4.248-2.361,4.511-7.691,0.612-10.641c-0.534-0.404-1.15-0.7-1.594-1.52
		c0.818,0.098,1.763-0.037,2.433,0.33c4.306,2.36,5.071,9.836,1.41,13.131c-3.598,3.238-11.036,3.09-15.725-0.314
		c-3.854-2.797-5.122-7.979-3.139-12.739C167.029,92.734,168.483,91.292,170.61,90.415z"/>
	<path style="fill:#BCA064;" d="M267.906,97.516c-9.405-1.917-12.172-1.087-14.815,4.444c-2.431,5.087-2.042,7.843,1.858,11.19
		c0.974-1.391,1.918-2.74,2.936-4.194c1.107,2.934,0.712,4.48-1.282,5.647c-1.685,0.986-3.937,0.674-5.117-1.068
		c-0.88-1.3-1.554-2.869-1.85-4.409c-0.704-3.66,0.399-7.036,2.393-10.083C255.706,93.427,262.69,92.79,267.906,97.516z"/>
	<path style="fill:#BCA064;" d="M89.555,236.08c0.387,7.049,0.716,13.057,1.035,18.876c3.289,0,6.147,0,9.441,0
		c0.97-5.375-0.413-11.199,0.732-16.906c0.683,6.132,1.56,12.243,1.036,18.518c-3.549,0.544-6.697,1.131-9.871,1.478
		c-2.346,0.256-3.922-1.038-3.869-3.168c0.139-5.579,0.423-11.154,0.676-16.729C88.753,237.793,89.004,237.446,89.555,236.08z"/>
	<path style="fill:#BCA064;" d="M279.437,234.335c2.108,1.411,3.227,0.489,4.138-1.135c1.222-2.177,0.995-4.473-0.581-6.137
		c-2.211-2.334-3.944,0.217-6.226,0.137c1.263-0.946,2.526-1.892,3.677-2.754c5.837,2.219,7.907,7.75,4.853,12.393
		c-1.368,2.079-3.989,3.144-6.135,2.492c-1.659-0.504-3.213-2.534-3.325-4.344c-0.121-1.953,0.871-3.079,3.957-4.186
		C279.67,232.023,279.565,233.067,279.437,234.335z"/>
	<path style="fill:#BCA064;" d="M135.678,70.427c0.419,2.103,0.723,3.632,1.032,5.183c-3.588-0.14-5.769-1.622-6.565-4.397
		c-0.683-2.38,0.424-5.186,2.554-6.476c3.098-1.876,6.468-1.858,8.602,0.047c1.993,1.779,2.345,3.888,0.977,5.849
		c-1.329,1.903-2.203,1.934-5.159,0.215C136.878,70.708,136.571,70.682,135.678,70.427z M133.493,72.619
		c0.69-1.323,1.115-3.338,2.025-3.589c1.235-0.341,2.843,0.67,4.404,1.134c0.16-0.558,0.386-1.105,0.466-1.672
		c0.198-1.404,0.047-2.947-1.505-3.249c-1.144-0.223-2.654,0.092-3.651,0.722C132.939,67.416,132.56,69.298,133.493,72.619z"/>
	<path style="fill:#BCA064;" d="M76.6,174.583c-2.133,1.073-4.475,2.251-6.855,3.447c-1.573-3.328,1.658-3.359,2.916-4.898
		c-0.386-1.843-4.849-1.257-2.82-4.956c2.335,1.096,4.683,2.198,7.307,3.429c1.547-0.987,3.356-2.143,5.246-3.35
		c1.612,2.252-0.04,3.065-1.301,4.079c0.735,1.068,1.475,2.145,2.415,3.512C80.641,176.92,78.979,174.607,76.6,174.583z"/>
	<path style="fill:#BCA064;" d="M32.075,115.416c0.934-1.228,0.63-2.036,1.661-3.176c0.426-0.471,1.2-0.627,2.387-1.205
		c-0.429,4.051-1.609,6.575-5.586,7.049c0.186,2.495,0.468,5.028-3.324,5.29c0,4.446,0.083,8.703-0.023,12.954
		c-0.107,4.246-0.404,8.487-1.434,12.755c-0.036-2.75-0.1-5.499-0.099-8.249c0.001-2.951,0.078-5.901,0.096-8.852
		c0.018-2.949,0.004-5.898,0.004-8.095c2.049-3.144,3.977-5.132,5.609-7.636L32.075,115.416z"/>
	<path style="fill:#BCA064;" d="M113.182,203.381c1.959-0.498,2.762,0.188,3.116,1.801c0.815,3.718,1.731,7.415,2.627,11.209
		c-1.128,0.827-2.124,1.259-2.75-0.385c-0.603-1.583-1.073-3.217-1.648-4.969c-2.131,1.814-0.244,5.752-4.594,6.249
		C110.407,212.246,111.988,207.789,113.182,203.381z"/>
	<path style="fill:#BCA064;" d="M181.489,47.088c1.007-4.061,2.585-7.385,4.657-10.957c1.611,1.345,2.811,2.347,4.107,3.429
		c-0.815,3.091-1.582,6.002-2.505,9.501C185.587,48.38,183.604,47.755,181.489,47.088z"/>
	<path style="fill:#BCA064;" d="M242.424,52.522c0.484,5.382,0.968,10.763,1.501,16.687c-3.339,0.559-6.595,1.105-10.05,1.684
		c-0.086,1.085-0.177,2.219-0.269,3.383c-0.28-0.067-0.586-0.047-0.707-0.188c-0.286-0.33-0.52-0.718-0.711-1.114
		c-1.888-3.9-1.212-5.05,3.082-5.266c0.882-0.044,1.779,0.002,2.645-0.141c1.305-0.216,2.588-0.563,4.442-0.98
		c-0.117-1.606-0.308-3.289-0.347-4.974c-0.07-3.008-1.32-6.096,0.529-8.993L242.424,52.522z"/>
	<path style="fill:#BCA064;" d="M198.892,85.887c14.883-0.664,28.805,0.4,42.734,2.259c-2.64,0-5.284,0.082-7.92-0.022
		c-2.955-0.116-5.9-0.449-8.854-0.595c-2.807-0.138-5.625-0.087-8.431-0.246c-2.95-0.167-5.969-0.157-8.814-0.832
		C204.958,85.823,202.255,88.099,198.892,85.887z"/>
	<path style="fill:#BCA064;" d="M86.801,50.317c10.022-5.736,13.431-14.986,13.902-26.419c1.608,1.909,1.532,3.458,1.183,4.777
		c-1.282,4.844-2.667,9.666-4.232,14.424c-0.383,1.165-1.431,2.287-2.462,3.029c-2.453,1.767-5.078,3.296-7.634,4.921
		C87.305,50.806,87.053,50.561,86.801,50.317z"/>
	<path style="fill:#BCA064;" d="M188.821,66.74c-1.906-13.842,2.239-32.715,10.006-37.306
		C190.159,41.097,189.797,54.008,188.821,66.74z"/>
	<path style="fill:#BCA064;" d="M187.199,52.122c-0.396,1.756-0.642,2.843-0.993,4.401c-0.937-1.521-1.62-2.629-2.348-3.81
		c-2.061,2.046-2.061,2.046-1.552,8.387c0.393,0.164,0.889,0.389,1.398,0.579c0.497,0.186,1.007,0.336,1.5,0.866
		c-1.795,0.983-3.64,0.908-6.108,0.492c0.525-4.062,1.023-7.906,1.594-12.321C182.95,51.204,184.841,51.613,187.199,52.122z"/>
	<path style="fill:#BCA064;" d="M17.767,93.562c0.437-0.661,0.873-1.323,1.31-1.984c0.175,0.053,0.349,0.107,0.524,0.16
		c-0.515,1.709-1.03,3.418-1.514,5.026c-1.856,0-3.146,0-4.525,0c-1.053-3.852,0.272-7.288,1.175-11.305
		c1.682,0.46,3.129,0.856,4.576,1.252c0.007,0.294,0.014,0.588,0.021,0.883c-1.074,0.375-2.149,0.751-3.65,1.275
		c0.298,1.563,0.601,3.151,0.904,4.739C16.98,93.593,17.373,93.577,17.767,93.562z"/>
	<path style="fill:#BCA064;" d="M153.061,65.504c-1.26-12.084-3.426-22.721-14.063-30.246
		C148.628,37.681,154.747,54.186,153.061,65.504z"/>
	<path style="fill:#BCA064;" d="M13.174,111.116c0-2.807-0.081-4.993,0.019-7.17c0.157-3.429,1.387-3.936,4.808-2.083
		c-2.892,1.768-2.892,1.768-1.808,6.049c0.476-1.55,0.786-2.562,1.096-3.574c1.571,1.849,1.115,3.799,1.163,6.175
		C16.704,110.712,15.119,110.893,13.174,111.116z"/>
	<path style="fill:#BCA064;" d="M186.348,67.15c0.304,2.331,0.577,4.428,0.851,6.525c-0.296,0.076-0.592,0.152-0.888,0.228
		c-0.287-0.787-0.593-1.568-0.857-2.363c-0.313-0.945-0.591-1.901-0.893-2.884c-3.61,0.162-2.275,3.817-4.054,5.088
		c-1.816-1.244-2.399-3.209-1.571-5.318C179.738,66.384,180.996,66.138,186.348,67.15z"/>
	<path style="fill:#BCA064;" d="M193.668,128.259c-0.222-0.171-0.62-0.322-0.641-0.515c-1.226-11.134-1.681-22.29-0.819-33.476
		c0.007-0.091,0.175-0.17,0.419-0.394c1.426,0.921,0.774,2.357,0.747,3.525c-0.098,4.269-0.482,8.539-0.425,12.804
		c0.061,4.556,0.525,9.105,0.759,13.66c0.075,1.462-0.024,2.932-0.043,4.399L193.668,128.259z"/>
	<path style="fill:#BCA064;" d="M83.093,179.628c-1.188,0.366-2.356,0.835-3.569,1.078c-2.728,0.548-5.477,0.985-8.218,1.468
		c-1.358,0.239-1.9-0.418-1.879-1.699c2.742-1.398,9.64-2.297,13.453-1.757C82.951,179.021,83.022,179.325,83.093,179.628z"/>
	<path style="fill:#BCA064;" d="M106.952,217.097c-0.694-4.861,0.484-12.091,2.616-14.373c0.196,1.038,0.51,1.807,0.45,2.547
		c-0.259,3.228-0.601,6.45-0.967,9.667C108.914,216.142,108.638,217.338,106.952,217.097z"/>
	<path style="fill:#BCA064;" d="M140.104,171.963c4.244,0,7.851,0,11.583,0c0,0.792,0,1.344,0,2.096
		c-3.652,0-7.26,0.023-10.865-0.066C140.632,173.989,140.466,173.025,140.104,171.963z"/>
	<path style="fill:#BCA064;" d="M116.247,135.516c0.331-2.133,0.697-4.261,0.98-6.4c0.156-1.18,0.119-2.42,2.372-2.434
		c0.866,4.562-1.153,8.64-2.039,13.46c-1.801-1.695-1.118-3.33-1.214-4.775L116.247,135.516z"/>
	<path style="fill:#BCA064;" d="M139.744,169.826c3.17-2.362,6.087-2.764,12.04-2.014c-0.141,0.633-0.169,1.717-0.428,1.775
		C147.718,170.404,144.083,170.111,139.744,169.826z"/>
	<path style="fill:#BCA064;" d="M192.363,28.477c0.151-0.081,0.243-0.205,0.278-0.371c0.823-0.064,1.646-0.127,2.734-0.212
		c0.054,3.821-2.575,5.608-4.452,8.164c-0.948-0.862-1.673-1.521-2.505-2.278C189.792,31.933,191.077,30.205,192.363,28.477z"/>
	<path style="fill:#BCA064;" d="M153.499,95.318c0,6.757,0,13.207,0,19.657c-0.135,0.012-0.27,0.024-0.404,0.036
		c-0.111-0.757-0.263-1.511-0.326-2.273c-0.402-4.856-0.738-9.718-1.207-14.567C151.442,96.945,151.019,95.802,153.499,95.318z"/>
	<path style="fill:#BCA064;" d="M140.271,176.647c3.898-0.753,7.428-0.523,10.94-0.119c0.302,0.035,0.48,1.144,0.728,1.786
		C148.099,179.134,143.614,178.534,140.271,176.647z"/>
	<path style="fill:#BCA064;" d="M21.042,76.105c-3.189,2.009-3.443,3.594-1.073,6.148c-0.842,1.188-2.002,2.129-3.237,0.965
		c-0.668-0.63-0.901-2.163-0.703-3.164c0.278-1.402,1.05-2.74,1.779-4.008C18.576,74.713,19.646,74.744,21.042,76.105z"/>
	<path style="fill:#BCA064;" d="M54.926,166.544c-1.377-0.279-2.762-0.559-4.312-0.873c0-1.174,0-2.145,0-3.622
		c1.372,0.134,2.722-0.022,3.813,0.437C56.31,163.277,55.713,164.793,54.926,166.544z"/>
	<path style="fill:#BCA064;" d="M84.652,217.121"/>
	<path style="fill:#BCA064;" d="M61.34,90.849c2.782,6.267,2.852,7.728,0.52,9.833C60.109,97.402,61.417,94.077,61.34,90.849z"/>
	<path style="fill:#BCA064;" d="M54.99,168.256c-0.067,1.36-0.107,2.18-0.155,3.155c-1.733,0-3.25,0-4.858,0
		c0-1.075,0-1.867,0-2.911C51.614,168.421,53.021,168.352,54.99,168.256z"/>
	<path style="fill:#BCA064;" d="M49.704,177.804c0.694-3.029,0.694-3.029,4.899-3.02c0.063,0.904,0.127,1.828,0.211,3.02
		C53.086,177.804,51.591,177.804,49.704,177.804z"/>
	<path style="fill:#BCA064;" d="M116.143,77.49c-1.909,0-3.818,0-5.776,0c0.453-3.787,1.071-4.212,3.537-2.729
		c0.848,0.51,1.609,1.164,2.409,1.752C116.257,76.839,116.2,77.165,116.143,77.49z"/>
	<path style="fill:#BCA064;" d="M50.317,182.01c1.786-0.378,3.016-0.638,4.477-0.947c0.121,1.09,0.214,1.927,0.347,3.123
		c-1.448,0.317-2.787,0.611-4.426,0.97C50.565,183.965,50.463,183.159,50.317,182.01z"/>
	<path style="fill:#BCA064;" d="M20.919,94.659c0,4.769,0,9.537,0,14.306c-0.154-0.001-0.308-0.001-0.463-0.002
		c0-4.756,0-9.511,0-14.267C20.611,94.684,20.765,94.672,20.919,94.659z"/>
	<path style="fill:#BCA064;" d="M24.886,121.896c-4.585,0-9.17,0-13.754,0c-0.003-0.214-0.006-0.428-0.008-0.642
		c4.592,0,9.184,0,13.776,0C24.895,121.468,24.89,121.682,24.886,121.896z"/>
	<path style="fill:#BCA064;" d="M109.161,162.875c0,2.457,0,4.914,0,7.637c-0.948,0.112-1.801,0.406-2.581,0.272
		c-2.797-0.482-4.365-1.861-4.276-3.552c0.111-2.11,2.213-4.047,4.813-4.338c0.716-0.08,1.459,0.08,2.189,0.129L109.161,162.875z"/>
	<path style="fill:#BCA064;" d="M113.644,170.057c3.27,0.811,4.315,1.682,4.445,3.903c0.123,2.103-0.576,3.688-3.267,4.213
		c0.501-1.629,1.427-3.098,1.189-4.344c-0.202-1.056-1.751-1.854-2.734-2.795c0.141-0.306,0.324-0.701,0.506-1.096L113.644,170.057z
		"/>
</g>
</svg>
