<?xml version="1.0" encoding="utf-8"?>
<!-- Generator: Adobe Illustrator 19.2.1, SVG Export Plug-In . SVG Version: 6.00 Build 0)  -->
<svg version="1.1" id="Слой_1" xmlns="http://www.w3.org/2000/svg" xmlns:xlink="http://www.w3.org/1999/xlink" x="0px" y="0px"
	 viewBox="0 0 72.7 71.7" style="enable-background:new 0 0 72.7 71.7;" xml:space="preserve">
<style type="text/css">
	.st0{fill:#AB8232;}
</style>
<g>
	<path class="st0" d="M13.3,64.3c0-3.7-0.9-43.5-0.9-43.5l4.2-0.1c0,0-0.1,6.4-0.3,8.9c0,0.3-0.2,0.7-0.5,0.9
		c-1.6,1.8-1.9,4.5-0.6,6.4c0.8,1.1,2,1.3,2.9,0.4c1.4-1.4,1.4-5.1,0.1-6.5c-0.4-0.5-0.8-1.2-0.8-1.9c-0.1-1.9-0.1-8.3-0.1-8.3
		l5.6-0.2c0,0-4.6-13.6-6.6-19c-0.2-0.6-1.2-1.4-1.8-1.4C12.2,0,6.3,0,6.3,0L0,20.8l10.6,0.1c0,0-0.8,41.2-0.8,42.2
		c-0.2,5.5-6.1,8.7-6.1,8.7h15.8C19.5,71.7,13.3,68.7,13.3,64.3z M4.5,16C4.3,14.1,7.1,7.5,8.2,3.1c0,0.8,0.1,8.8,0.6,11.2
		c0,1.7,7.3,2.4,7.3,2.6C13.1,17.2,4.8,17.9,4.5,16z"/>
	<path class="st0" d="M72.7,46.3c-0.1-2.1-1.3-3.7-3.3-4.3c-3.3-1.1-6.6-1.1-9.8,0c-1.7,0.5-2.8,1.7-2.9,3.5
		c-0.1,1.4-0.1,2.9,0.1,4.3c0.2,2.4-0.1,2.9-2.6,3c-0.5,0-0.9,0-1.4,0c-5.2,0-10.3,0-15.5,0c-3.6,0-3.6,0-3.9-3.6
		c-0.5-5.2-5.2-8.7-9.7-6.9c-2.8,1.1-4,3.6-5.1,6.2c-1.7,4.1,2.3,8.9,6.1,7.9c0.2-0.1,0.5,0,0.7,0c-0.2,2.2-0.5,4.2-0.5,6.3
		c0,3.4,1.3,4.7,4.6,5c0.8,0.1,1.6,0.3,2.4,0.4c-0.2,0.4-0.2,0.6-0.3,0.8c-0.4,0.8-1.4,1.6-0.5,2.5c1.1,1,1.8-0.2,2.5-0.8
		c2-1.8,4.1-2.4,6.9-2.4c5,0.1,10.1-0.3,15.1-0.5c1.3-0.1,2.4,0.2,3.3,1.2c0.8,0.9,1.7,1.7,2.6,2.4c0.4,0.3,1.2,0.4,1.5,0.1
		c0.3-0.2,0.4-1,0.2-1.5c-0.3-0.9-0.8-1.8-1.3-2.7c0.4-0.1,0.6-0.2,0.8-0.3c3.3-0.6,4.8-1.8,4.4-6.2c-0.1-1.7-0.5-3.3-0.8-5.2
		c0.5,0.1,0.9,0.1,1.3,0.1c2.6,0.3,4.3-0.8,4.8-3.3C72.7,50.4,72.8,48.3,72.7,46.3z M68.9,50.3c-0.1,1.4-0.7,2.4-2.2,2.7
		c-1.5,0.3-2,1.1-2,2.6c0,1.8-0.3,3.5-0.6,5.3c-0.2,1.4-1,2.1-2.4,2.3c-8.7,1.1-17.5,1.4-26.3,1c-1.9-0.1-3.8-0.3-5.8-0.4
		c-1.2-0.1-2-0.7-2.2-1.8c-0.3-1.8-0.6-3.7-0.7-5.5c0-0.6,0.4-1.2,0.8-2.1c-0.7-0.2-1.5-0.4-2.3-0.6c-3.5-0.8-4.6-2.7-3.3-6
		c0.1-0.3,0.3-0.7,0.4-1c1.4-2.9,4.7-3.5,6.9-1.2c0.7,0.7,0.9,2.1,1,3.1c0.1,1.9-0.1,3.8,0,5.7c0.1,1.6,0.7,2.2,2.3,2.1
		c4.2-0.2,8.3-0.6,12.5-0.9c3-0.2,5.9-0.6,8.9-0.7c1.2,0,6.5,0,6.5,0s-1-7.7-0.2-8.7c1-1.4,7.3-1.6,8.4-0.1c0.2,0.3,0.3,0.8,0.4,1.2
		C69,48.2,69,49.3,68.9,50.3z"/>
	<path class="st0" d="M35.2,45.7c0.2,0.8,0.6,1.5,0.8,2.3c0.2-1.3,0.2-2.5,0.2-3.7c0-2.1-1-3.6-2.8-4.5c-0.9-0.4-1.8-0.7-2.7-1.2
		c-0.3-0.2-0.7-0.7-0.6-1c0.9-3.1,2-6.1,5-8c3.7-2.2,7.7-2.9,12-2.6c7,0.4,10.9,3.4,13.2,10c0.2,0.6,0.8,3.6,0.8,3.6l1,0
		c0,0-0.4-3.8-0.5-4.9c-0.7-5.1-5.5-13.2-18-12.4C29,25.2,27.3,40.1,27.3,40.1s0.3,0.1,1.6,0.3C31.9,41,34.3,42.5,35.2,45.7z"/>
	<path class="st0" d="M65.6,47c-1.2,0.2-2.5,0.6-3.6,1.2c-0.4,0.2-0.6,1.4-0.4,1.9c0.2,0.5,1.1,1.2,1.6,1.1c1.1-0.2,2.2-0.7,3.3-1.2
		c0.4-0.2,0.5-0.8,0.7-1.1C67.1,47.7,66.5,46.8,65.6,47z"/>
	<path class="st0" d="M25.8,46.8c-1.1,0-1.9,0.7-1.9,1.8c0,1.1,1.4,2.4,2.6,2.4c1,0,1.9-0.8,1.9-1.8C28.4,48,27.1,46.8,25.8,46.8z"
		/>
</g>
</svg>
