<?xml version="1.0" encoding="utf-8"?>
<!-- Generator: Adobe Illustrator 19.2.1, SVG Export Plug-In . SVG Version: 6.00 Build 0)  -->
<svg version="1.1" id="Слой_1" xmlns="http://www.w3.org/2000/svg" xmlns:xlink="http://www.w3.org/1999/xlink" x="0px" y="0px"
	 viewBox="0 0 76.3 59.3" style="enable-background:new 0 0 76.3 59.3;" xml:space="preserve">
<style type="text/css">
	.st0{fill:#AB8232;}
</style>
<path class="st0" d="M69.3,0.7c1,0,2.2,0.4,3.1,1.1c4.3,3.2,4.2,3.3,3.8,8.7c-0.4,5.5-0.7,11.1-1,16.6c-0.2,3-0.3,6.1-0.5,9.1
	c-0.1,1.1-0.7,1.7-1.8,1.8c-3.3,0.1-6.7,0.1-10,0.1c-3.2,0-5.9-1.3-8.2-3.5c-2-1.8-4.4-2.3-7-2.3c-12.7,0-25.5,0-38.2,0
	c-2.1,0-4.1,0-6.2,0c-1.7,0-2.4-0.6-2.7-2.3c-0.1-0.4-0.1-0.8-0.1-1.2C0.3,21.2,0.2,13.5,0,5.8c0-1.5,0.6-2.6,1.8-3.5
	C4.1,0.8,6.5,0,9.4,0C19,0.1,59,0.6,69.3,0.7z M30.5,4.9C23,5,15.4,5.1,7.8,5.2c-2,0-3.2,0.9-3.2,2.4c-0.1,6.5-0.2,13-0.4,19.5
	c0,1.4,0.5,1.6,1.7,1.7c10.6,0.3,21.2,0.6,31.8,0.9c3.6,0.1,7.3,0.3,10.9,0.6c2.8,0.2,5.5,0.8,8,2.3c1.3,0.7,2.8,1.4,4.2,1.5
	c3.4,0.3,6.9,0.3,10.3,0.3c1.8,0,1.8,0,1.7-1.8c-0.4-8.3-0.8-16.6-1.2-24.9c-0.1-1.6-1.8-3.1-3.5-3.1C58.3,4.6,33.1,4.8,30.5,4.9z"
	/>
<path class="st0" d="M16.7,50.7c0.4,1.3,0.8,2.5,1.1,3.8c0.2,0.7,0.3,1.3,0.4,2c0.1,1.3-0.3,2.4-1.5,2.7c-0.8,0.2-2,0.1-2.7-0.2
	c-1.2-0.6-1.4-1.9-1.1-3.1c0.2-0.9,0.6-1.7,0.8-2.5c0.2-0.5,1.2-2.3,1.1-3c-0.5,0.6-1.9,2.7-2.4,3.3c-0.5,0.7-1,1.4-1.6,2
	c-1.1,1.1-2.4,1.4-3.6,0.8c-1.2-0.6-2-1.6-2-2.9c0-1.4,0.8-2.6,2.1-3.1c1.1-0.4,2.3-0.6,3.4-0.9c1.2-0.3,2.4-0.7,3.6-1
	c0-0.2,0-0.3,0-0.5c-0.4-0.1-0.8-0.4-1.2-0.4c-1.4-0.2-2.8-0.3-4.1-0.7c-1-0.3-1.9-0.9-2.6-1.7c-0.7-0.9-0.2-2.4,0.6-3
	c1-0.8,2.5-0.8,3.5,0.3c1.1,1.3,2,2.8,3,4.2c0.4,0.5,1,0.9,1.4,1.4c0.1-0.1,0.3-0.2,0.4-0.3c-0.1-0.3-0.1-0.7-0.3-1
	c-0.6-1.7-1.3-3.3-1.9-5c-0.2-0.6-0.3-1.2-0.3-1.9c0-1.5,1-2.4,2.4-2.4c1.5,0,2.7,0.9,2.5,2.4c-0.2,1.7-0.7,3.4-1.1,5.2
	c-0.2,0.7-0.4,1.4-0.3,2.2c0.4-0.4,0.9-0.7,1.3-1.1c1.2-1.2,2.3-2.6,3.6-3.7c0.7-0.6,1.7-1,2.6-0.9c1,0,1.7,0.9,1.8,2
	c0.1,1.2-0.6,2.1-1.6,2.6c-1.7,0.7-3.5,1.3-5.3,1.9c-0.6,0.2-1.1,0.5-1.7,0.7c0,0.2,0,0.4,0,0.5c1,0.1,1.9,0.3,2.9,0.4
	c1.4,0.1,2.8,0.1,4.1,0.3c1.6,0.3,2.6,1.4,2.8,2.8c0.2,1.6-0.5,2.9-1.8,3.5c-1.3,0.6-2.9,0.4-4-0.9c-1.1-1.2-2.1-2.6-3.2-3.9
	c-0.3-0.4-0.6-0.7-1-1C16.9,50.5,16.8,50.6,16.7,50.7z"/>
<path class="st0" d="M67.7,24.4c0.6,0,1.3,0,1.9,0.1c1,0.1,1.6,0.8,1.5,1.7c-0.1,0.6-0.8,1.2-1.3,1.7c-0.3,0.2-0.8,0.2-1.3,0.2
	C59,27.6,49.5,27,40,26.4c-4.2-0.3-8.4-0.7-12.7-0.8c-4.5-0.1-8.9,0.2-13.4,0.4c-1.5,0.1-2.9,0.2-4.4,0.1c-0.4,0-0.8-0.5-1.2-0.8
	c0.3-0.3,0.6-0.7,1-0.9c0.4-0.2,1-0.1,1.5-0.1C13.3,24.3,58.3,24.4,67.7,24.4z"/>
<path class="st0" d="M8.7,20.9c0.5-0.1,1.1-0.2,1.6-0.2c6.1,0.1,12.3,0.4,18.4,0.3c12.3-0.2,24.7-0.6,37-0.9c1.2,0,2.4-0.2,3.5-0.2
	c1.4,0,2.4,0.9,2.3,2c-0.1,1.1-0.9,1.8-2.3,1.7C63,23.3,56.9,23,50.7,22.7c-2.6-0.1-5.1-0.3-7.7-0.4c-10.8-0.5-21.7-1.2-32.6-0.7
	c-0.6,0-1.2-0.1-1.8-0.2C8.7,21.3,8.7,21.1,8.7,20.9z"/>
</svg>
