<?xml version="1.0" encoding="utf-8"?>
<!-- Generator: Adobe Illustrator 19.2.1, SVG Export Plug-In . SVG Version: 6.00 Build 0)  -->
<svg version="1.1" id="Слой_1" xmlns="http://www.w3.org/2000/svg" xmlns:xlink="http://www.w3.org/1999/xlink" x="0px" y="0px"
	 viewBox="0 0 93.7 73.9" style="enable-background:new 0 0 93.7 73.9;" xml:space="preserve">
<style type="text/css">
	.st0{fill:#AB8232;}
</style>
<g>
	<path class="st0" d="M93,35.7C85.3,22.3,78.8,9.4,74.9,2.5c-1-1.8-2.2-2.6-4.3-2.5C66,0.3,61.4,0.4,56.7,0.5
		c-11.9,0.3-30,0.6-41.8,0.9c-1.6,0-3.2,0.1-4.8,0.3C9.7,1.7,8.3,2.2,9,2.5c2.7,1.2,41.8,0.8,58.4,0.8c0.6,0,1.1,0,2,0
		c-0.4,0.8-0.7,1.2-0.9,1.7C57,23.2,45.7,41.3,34.5,59.5c-1,1.7-2.2,2.2-4.1,2.2c-10.8-0.1-17.1-0.2-27.9-0.2c-0.6,0-1.2,0-1.7,0.2
		C0.4,61.8,0,62.3,0,62.6c0,0.3,1.4,1.1,1.8,1.1c4.9,0.3,34.1,2.4,34.1,2.4S60.1,25.4,71.5,6.5c0.3-0.5,0.6-0.9,1-1.6
		C85,25,80.8,17.6,93.2,37.5c0.2-0.1,0.3-0.2,0.5-0.3C93.5,36.7,93.3,36.2,93,35.7z"/>
	<path class="st0" d="M2.9,54.1c7.6,0.4,15.3,0.7,22.9,1.1c1.9,0.1,3.2-0.7,4.1-2.2c6.8-11.5,13.7-23,20.5-34.5
		c0.7-1.1,1.3-2.4,0.5-3.7c-0.8-1.4-0.8-1.4-3.6-1.2C41.4,14.1,26,14.4,26,14.4S9.6,38.2,2.1,49.2C1.7,49.8,1.3,50.4,1,51
		C0.4,52.6,1.2,54,2.9,54.1z M7,48.6c6.3-9.8,19.9-30.7,19.9-30.7S38.1,18,43,18.1c0.6,0,1.1,0.1,1.9,0.2c-0.3,0.6-0.5,1-0.8,1.4
		c-5.9,9.6-11.9,19.3-17.8,28.9c-0.6,1-1.3,1.4-2.5,1.4c-5.3,0-10.7,0.1-16,0.2c-0.5,0-1,0-1.8,0C6.4,49.5,6.7,49,7,48.6z"/>
	<path class="st0" d="M72.5,8.8c0,0-1.6,3.1-2.1,3.8c0.5,0.9,10.5,15.2,21.1,31.5c0.2,0.3,0.4,0.7,0.7,0.9c0.2,0.2,0.8,0.3,0.9,0.2
		c0.3-0.2,0.4-0.6,0.5-1c0-0.3-0.2-0.7-0.4-1C83.3,26.4,72.5,8.8,72.5,8.8z"/>
	<path class="st0" d="M30.8,68.5c-10-0.3-22.2-0.9-24-1c-0.9,0-1.8,0.2-1.9,1.3c-0.1,1.1,1.5,1.4,2.4,1.5c4.4,0.4,22.4,3.2,25.6,3.4
		c1,0.1,2.7,0.5,2.7-1.2C35.6,71,32.6,68.5,30.8,68.5z"/>
	<path class="st0" d="M23.1,48.2c2,0.1,3.1-0.7,4.1-2.4c3.8-6.7,7.6-13.4,11.5-20.1c0.8-1.4,1.6-2.7,2.3-4.1
		c0.4-0.7,0.4-1.3-0.6-1.4c-3.6-0.3-7.3-0.5-10.9-0.9c-1.5-0.1-2.5,0.4-3.4,1.7C20.8,29.3,9,48.3,9,48.3S21.4,48.1,23.1,48.2z
		 M29,22.9c0.2-0.3,0.7-0.5,1-0.5c3-0.4,8.6-0.4,8.6-0.4s-1.6,3.4-2.5,4.7c-0.2,0.3-0.6,0.8-0.9,0.8c-2.9-0.1-5.9-0.2-8.8-0.3
		c-0.1-0.1-0.1-0.3-0.2-0.4C27.1,25.5,28,24.1,29,22.9z M13,46c0.3-0.5,0.4-0.8,0.7-1.1c3.6-5.1,7.1-10.2,10.7-15.3
		c0.3-0.4,0.9-0.9,1.2-0.8c2.7,0.5,5.3,1.1,8.2,1.8c-0.3,0.6-0.5,1-0.7,1.3c-2.7,4.3-5.4,8.5-8,12.8c-0.5,0.8-1,1.1-1.9,1.1
		c-3,0.1-5.9,0.3-8.9,0.4C13.8,46.1,13.5,46,13,46z"/>
</g>
</svg>
