<?xml version="1.0" standalone="no"?>
<!DOCTYPE svg PUBLIC "-//W3C//DTD SVG 20010904//EN"
 "http://www.w3.org/TR/2001/REC-SVG-20010904/DTD/svg10.dtd">
<svg version="1.0" xmlns="http://www.w3.org/2000/svg"
 width="700.000000pt" height="700.000000pt" viewBox="0 0 700.000000 700.000000"
 preserveAspectRatio="xMidYMid meet">
<metadata>
Created by potrace 1.11, written by Peter Selinger 2001-2013
</metadata>
<g transform="translate(0.000000,700.000000) scale(0.100000,-0.100000)"
fill="#000000" stroke="none">
<path d="M3750 6927 c-3 -3 -29 -8 -58 -11 -30 -3 -57 -8 -60 -10 -15 -9 -93
-17 -219 -21 -137 -5 -226 -19 -348 -56 -38 -11 -113 -32 -165 -45 -495 -126
-587 -151 -625 -169 -57 -27 -138 -54 -146 -49 -5 2 -6 11 -2 19 3 8 3 15 0
15 -6 0 -87 -43 -162 -85 -22 -12 -80 -44 -130 -70 -246 -128 -337 -180 -381
-217 -54 -44 -141 -117 -158 -133 -6 -6 -31 -26 -56 -45 -46 -35 -227 -186
-245 -205 -6 -5 -28 -32 -49 -58 -22 -26 -45 -46 -51 -43 -7 2 -26 -9 -41 -25
-23 -24 -26 -32 -14 -39 12 -7 12 -12 0 -35 -11 -20 -19 -25 -37 -20 -18 4
-24 0 -29 -22 -4 -16 -11 -33 -16 -40 -5 -7 -7 -17 -3 -23 12 -19 -5 -50 -27
-47 -25 2 -61 -51 -46 -70 6 -7 3 -23 -8 -45 -22 -43 -21 -43 -37 -30 -19 16
-53 -53 -37 -74 14 -16 -16 -74 -40 -74 -20 -1 -54 -70 -34 -70 11 0 10 -9 -6
-40 -11 -22 -27 -40 -35 -40 -17 0 -46 -62 -34 -71 8 -4 -52 -191 -80 -254
-40 -88 -216 -607 -272 -800 -114 -399 -124 -613 -39 -832 21 -55 24 -73 15
-77 -14 -5 -14 -15 -1 -53 5 -16 13 -20 30 -17 18 3 29 -5 50 -37 30 -45 30
-46 -19 -68 l-34 -16 16 -32 c18 -37 26 -39 78 -17 36 15 39 14 59 -5 24 -25
18 -32 -46 -56 l-46 -17 13 -32 c17 -41 33 -43 95 -11 l51 26 19 -23 c21 -26
25 -38 11 -38 -8 0 -77 -42 -109 -66 -2 -1 4 -18 15 -36 10 -18 19 -34 20 -36
1 -2 30 15 64 37 35 23 66 41 70 41 8 0 39 -46 39 -58 0 -5 -18 -21 -40 -36
-22 -14 -40 -30 -40 -34 1 -4 12 -20 25 -36 22 -28 25 -29 52 -16 15 8 31 16
35 18 5 2 12 -9 18 -23 9 -24 7 -30 -15 -49 l-25 -22 29 -28 c20 -19 31 -24
36 -16 5 8 13 3 26 -16 13 -20 15 -30 7 -35 -8 -5 -2 -18 16 -40 15 -18 47
-71 71 -118 66 -128 122 -223 197 -335 23 -33 131 -180 142 -193 6 -7 16 -18
21 -25 47 -62 141 -165 254 -279 75 -74 161 -164 191 -198 151 -172 376 -398
496 -497 181 -150 472 -288 744 -354 52 -13 122 -31 155 -40 33 -10 62 -14 65
-11 3 4 31 2 63 -4 32 -5 56 -13 53 -16 -4 -4 10 -9 31 -12 23 -4 40 -2 44 5
4 7 20 8 43 4 20 -4 34 -11 31 -17 -4 -5 11 -9 34 -9 23 0 41 5 41 10 0 11 59
11 75 0 13 -9 685 -5 745 4 149 22 180 28 225 42 61 19 102 40 135 69 14 13
41 31 60 41 19 11 49 29 67 42 17 12 34 22 38 22 3 0 21 11 38 24 59 44 221
114 337 145 152 40 209 61 304 111 82 43 198 119 251 164 211 180 325 308 502
561 69 100 204 281 371 498 73 95 157 220 197 292 15 28 31 55 36 61 10 12
199 391 199 398 0 3 11 29 24 58 54 121 69 154 71 163 1 6 5 17 8 25 16 43 28
96 44 200 25 169 24 777 -2 990 -2 19 -7 60 -10 90 -4 30 -8 64 -10 75 -2 11
-7 45 -10 76 -10 96 -70 330 -110 424 -7 17 -22 53 -33 80 -40 97 -160 341
-207 420 -142 238 -584 851 -701 970 -53 55 -270 203 -406 278 -25 14 -63 36
-85 50 -53 34 -271 152 -374 203 -166 83 -455 165 -699 200 -19 2 -44 7 -55 9
-11 2 -49 7 -85 10 -36 4 -76 8 -89 10 -14 3 -68 7 -120 11 -53 3 -103 12
-111 18 -15 12 -111 22 -120 13z m1990 -823 c117 -99 276 -242 326 -295 70
-75 158 -206 274 -409 72 -125 140 -233 160 -250 17 -15 102 -145 137 -210 52
-95 126 -267 158 -363 34 -105 52 -223 54 -348 1 -60 4 -117 5 -126 4 -22 15
-112 21 -177 3 -27 2 -46 -1 -43 -4 4 -14 2 -24 -3 -15 -8 -17 -3 -19 37 0 25
-3 48 -5 52 -2 3 -7 33 -11 66 -9 85 -41 243 -70 355 -14 52 -27 102 -29 110
-6 21 -46 141 -56 165 -4 11 -22 58 -40 105 -35 90 -149 329 -200 418 -63 110
-218 343 -240 362 -3 3 -13 14 -21 26 -16 23 -83 105 -144 174 -61 69 -223
229 -295 290 -35 30 -75 65 -87 77 -31 29 -45 67 -31 81 11 11 25 1 138 -94z"/>
</g>
</svg>
