<?xml version="1.0" encoding="iso-8859-1"?>
<!-- Generator: Adobe Illustrator 17.1.0, SVG Export Plug-In . SVG Version: 6.00 Build 0)  -->
<!DOCTYPE svg PUBLIC "-//W3C//DTD SVG 1.1//EN" "http://www.w3.org/Graphics/SVG/1.1/DTD/svg11.dtd">
<svg version="1.1" id="&#x421;&#x43B;&#x43E;&#x439;_1"
	 xmlns="http://www.w3.org/2000/svg" xmlns:xlink="http://www.w3.org/1999/xlink" x="0px" y="0px" viewBox="0 0 488.374 209.791"
	 style="enable-background:new 0 0 488.374 209.791;" xml:space="preserve">
<g>
	<path style="fill:#BCA064;" d="M463.728,29.186c-3.442-0.211-5.704,2.103-8.387,3.98c-3.867-3.958-9.189-4.852-14.227-5.711
		c-8.649-1.475-17.34-1.48-25.865,1.562c-9.843,3.512-17.39,9.123-20.125,19.772c-0.177,0.69-0.62,1.312-1.069,2.231
		c-11.486,5.71-17.539,16.817-25.147,26.931c2.288,8.737,6.318,16.874,10.446,25.671c-2.9,0.636-5.467,1.199-8.352,1.831
		c-3.372-8.494-4.298-17.219-6.704-25.748c-1.24,0.166-2.321,0.182-3.326,0.465c-6.296,1.774-12.497,1.634-18.843-0.075
		c-8.424-2.268-17.001-3.96-25.449-6.144c-6.492-1.679-12.742-0.804-18.772,1.507c-4.058,1.555-8.022,3.582-11.632,5.992
		c-2.286,1.526-3.843,4.144-6.304,6.924c-0.419-0.063-1.792-0.343-3.179-0.463c-1.98-0.173-4.119-0.754-5.931-0.243
		c-7.292,2.056-8.409,4.545-6.478,10.585c2.21,6.909,4.802,13.695,8.241,20.257c-0.216-1.085-0.342-2.198-0.664-3.251
		c-1.754-5.742-3.762-11.417-5.275-17.221c-1.112-4.263,1.121-7.73,4.837-8.342c1.069-0.176,2.193-0.132,3.281-0.051
		c1.023,0.076,2.033,0.335,3.114,1.359c-2.368,0.336-4.736,0.671-6.985,0.99c-2.347,2.588-2.484,5.291-1.557,8.294
		c2.847,9.215,5.606,18.457,8.421,27.682c0.098,0.32,0.42,0.572,0.974,1.295c1.628-0.201,3.528-0.436,6.208-0.768
		c-1.125-2.517-1.985-4.435-2.839-6.356c-1.704-3.831-3.51-7.62-5.082-11.504c-2.813-6.951-2.678-8.728,1.128-17.085
		c-1.105,13.251,2.294,24.274,9.84,34.521c8.051-2.243,16.214-4.748,24.493-6.775c17.667-4.327,35.388-8.431,53.1-12.574
		c6.538-1.529,13.116-2.887,19.665-4.368c3.819-0.864,4.784,0.023,4.161,3.983c-0.301,0.188-0.597,0.528-0.915,0.55
		c-10.43,0.731-20.328,3.764-30.099,7.172c-10.214,3.562-20.615,5.828-31.433,6.592c-7.432,0.524-14.778,1.939-21.906,4.36
		c-5.141,1.746-10.418,3.091-15.409,4.549c-0.533,3.228-0.566,6.401-1.652,9.159c-1.041,2.643-3.16,4.867-4.837,7.253
		c-0.945,1.344-2.049,2.584-2.914,3.975c-2.01,3.235-1.118,5.968,2.413,7.481c1.335,0.572,2.838,0.793,4.107,1.469
		c3.836,2.046,7.994,3.814,8.314,9.174c0.055,0.917,1.111,1.773,2.022,3.131c-1.684,2.635-3.413,5.339-5.437,8.507
		c1.298,2.266,2.871,5.011,4.771,8.327c1.394-1.924,2.299-3.173,3.345-4.617c0.647,2.497-0.985,3.852-1.911,5.797
		c-5.665-1.707-8.528-5.641-10.509-10.388c0.752-3.952,5.141-4.108,6.889-7.255c-0.726-0.519-1.507-1.077-2.508-1.793
		c-0.095-0.7-0.21-1.583-0.334-2.465c-0.501-3.588-2.516-5.968-5.849-7.271c-0.677-0.265-1.404-0.401-2.087-0.65
		c-5.928-2.164-7.213-5.168-4.43-10.988c1.571-3.286,3.445-6.431,5.259-9.597c1.407-2.455,2.186-4.974,1.37-8.05
		c-2.365-0.909-4.529-0.248-7.098,1.132c0.199,12.042-4.08,22.76-11.988,32.399c1.383-5.276,3.114-10.192,3.871-15.254
		c0.736-4.924,0.913-10.038-0.697-15.108c-9,2.249-17.457,4.267-25.842,6.55c-1.433,0.39-2.722,1.766-3.793,2.945
		c-3.808,4.19-7.573,8.424-11.194,12.775c-2.15,2.583-4.626,3.715-8.044,3.774c-8.575,0.147-17.144,0.665-25.716,1.012
		c-1.429,0.058-2.862,0.008-5.452,0.008c1.492-1.023,1.99-1.643,2.549-1.705c8.149-0.909,16.296-1.888,24.467-2.542
		c4.904-0.393,9.178-1.475,12.491-5.559c2.631-3.243,5.822-6.03,9.252-9.515c-6.626,1.184-12.771,2.074-18.817,3.413
		c-8.7,1.926-17.315,4.227-25.994,6.253c-1.991,0.465-4.091,0.462-6.499,0.711c-0.448,5.785,1.85,11.807,0.552,18.069
		c-1.223,5.898-2.021,11.819-5.766,16.899c1.124-4.251,2.592-8.447,3.278-12.767c0.71-4.471,1.014-9.075,0.841-13.597
		c-0.166-4.332-0.972-8.674-1.866-12.935c-0.925-4.411-2.293-8.73-3.225-13.17c2.786,4.555,4.095,9.652,5.496,15.085
		c1.531-2.64,3.759-3.614,6.556-3.868c4.166-0.379,8.364-0.793,12.439-1.692c6.381-1.408,12.633-3.393,19.005-4.85
		c13.477-3.081,26.998-5.972,40.494-8.971c0.663-0.147,1.263-0.574,2.355-1.089c-2.062-3.258-3.971-6.275-6.009-9.496
		c-4.732,3.204-7.669,8.269-12.787,10.756c0.595-3.961,4.084-6.053,6.214-10.007c-1.78,0.404-2.804,0.462-3.673,0.86
		c-10.938,5.008-21.956,9.857-32.737,15.185c-7.106,3.512-14.364,6.171-22.246,7.045c-0.514,0.057-1.05-0.086-2.141-0.19
		c5.177-3.147,9.823-6.074,15.342-7.424c2.438-0.596,4.812-1.745,7.005-3.008c10.942-6.302,22.636-10.937,34.263-15.732
		c2.166-0.893,4.285-1.901,6.739-2.995c-1.891-4.731-4.181-9.187-2.782-14.295c1.369-4.997,3.266-9.769,7.048-13.402
		c5.281-5.073,11.556-6.636,19.007-4.231c0.671-0.855,1.467-1.786,2.173-2.782c5.487-7.743,21.642-14.081,33.189-10.321
		c9.501,3.094,19.283,5.324,28.943,7.929c7.813,2.107,15.18,0.19,22.365-2.702c1.218-0.49,2.231-1.842,3.005-3.016
		c2.008-3.045,3.87-6.189,5.717-9.337c3.144-5.358,7.34-9.501,13.191-11.847c1.173-0.47,2.245-1.19,3.55-1.894
		c0.615-1.59,1.338-3.245,1.903-4.953c3.91-11.813,18.747-20.731,29.805-20.476c13.878,0.32,15.018-0.334,31.281,5.304
		c4.564-1.798,8.943-3.523,13.829-5.448c0.296,2.051,0.534,3.696,0.814,5.632c1.583,0,3.136,0,4.649,0
		c0.687,5.436-1.771,9.505-7.078,12.102l0.068,0.057c1.25-1.706,2.614-3.343,3.718-5.139c0.995-1.619,1.707-3.413,2.713-5.478
		c-2.229,0.237-3.923,0.417-5.905,0.627c-0.302-1.794-0.559-3.325-0.915-5.444c-1.518,0.857-2.796,1.578-4.073,2.299L463.728,29.186
		z M270.84,130.074c-3.981-9.021-11.361-16.113-11.666-26.566c-1.055,5.956-1.212,7.447,0.668,10.715
		c2.995,5.205,6.366,10.195,9.631,15.241C269.701,129.815,270.374,129.877,270.84,130.074z M272.962,141.318
		c0.31-1.618,1.525-3.409,0-5.845C272.962,137.923,272.962,139.62,272.962,141.318z"/>
	<path style="fill:#BCA064;" d="M464.763,36.863c-0.93,1.266-1.86,2.533-2.614,3.56c1.879,6.402,3.616,12.323,5.283,18.001
		c-0.335,4.36-0.654,8.513-1.007,13.116c-2.406,0.297-5.143,0.331-7.691,1.043c-2.122,0.593-5.376-0.409-6.152,3.228
		c2.695,1.615,5.083,0.597,7.512-0.073c2.255-0.623,4.552-1.096,6.812-1.632c1.32,4.536,1.134,5.586-1.572,9.682
		c0.041-2.012-0.156-2.804-1.355-5.054c-0.299,1.431-0.538,2.574-0.84,4.015c-1.238,0.371-2.54,0.761-4.035,1.208
		c0.228,0.636,0.452,1.26,0.814,2.271c-1.572,0-3.029,0.156-4.435-0.044c-1.41-0.2-2.77-0.756-4.138-1.152
		c-1.522,3.81-2.281,19.627-1.131,24.484c-0.924,0.589-1.886,1.654-2.989,1.828c-4.979,0.786-9.951,1.715-15.003-0.016
		c-3.311-1.134-4.57-2.946-3.704-6.579c0.288-1.206,0.661-2.392,1.075-3.869c-3.085,0-5.873,0-9.1,0
		c1.018,4.715,2.068,8.914,2.798,13.169c0.552,3.218,0.772,6.5,1.005,9.763c0.315,4.406-1.693,7.657-5.133,10.287
		c-3.615,2.764-7.073,5.734-10.801,8.778c1.795,3.166,3.384,6.203,5.203,9.094c1.248,1.984,1.921,2.074,4.522,1.99
		c-0.85-1.084-2.24-2.731-3.489-4.479c-2.798-3.913-2.202-7.441,1.694-10.338c2.05-1.524,4.203-2.916,6.187-4.52
		c2.889-2.336,5.447-4.905,5.326-9.082c-0.024-0.821,0.522-1.659,1.199-3.644c0.806,6.065-0.68,10.025-4.469,13.062
		c-3.399,2.725-6.892,5.332-10.356,8.001c0.122,4.782,2.167,7.875,6.428,9.357c1.882,0.655,3.879,0.973,5.795,1.54
		c6.72,1.989,8.231,7.252,3.568,12.315c-0.488,0.53-0.96,1.074-1.318,1.476c-0.791,7.73-0.71,8.159,2.973,15.308
		c-0.704,1.083-1.583,2.399-2.425,3.739c-0.862,1.373-2.109,2.672-2.452,4.172c-1.09,4.762-4.452,7.26-8.556,9.658
		c-2.941-3.715-2.979-8.284-5.008-12.756c1.47-2.126,3.068-4.438,4.879-7.057c0.702-5.362,1.475-11.278,2.334-17.839
		c-2.949-1.244-6.112-2.453-9.163-3.899c-3.096-1.467-6.082-3.166-9.116-4.763c-0.331-0.325-0.662-0.649-0.993-0.974
		c-1.668-1.052-3.261-2.259-5.024-3.116c-1.934-0.94-3.351-2.125-3.667-4.265c0.543-2.41,2.33-3.189,4.317-3.809
		c4.345-1.357,7.577-4.233,10.369-7.706c3.563-4.432,6.572-9.19,8.628-14.512c1.536-3.977,2.405-7.989,1.157-12.275
		c-0.498-1.712-0.498-3.569-0.786-5.849c-3.248-0.346-6.449-0.914-9.659-0.977c-5.751-0.113-11.128-1.74-16.488-3.532
		c-6.536-2.185-11.388-6.404-14.678-12.422c-1.196-2.187-2.255-4.448-2.779-7.201c0.535,0.468,1.308,0.83,1.571,1.42
		c4.424,9.935,12.469,14.887,22.822,16.625c5.881,0.987,11.785,1.831,18.239,2.826c-0.236-2.819-0.421-5.025-0.679-8.111
		c1.336,0.932,2.259,1.234,2.533,1.832c0.825,1.805,1.398,3.725,2.194,5.949c3.156,0,6.337,0,9.88,0
		c-1.174-2.707-3.718-3.599-5.561-5.166c-1.661-1.413-3.66-2.427-5.331-3.83c-4.255-3.575-4.869-7.42-1.701-11.981
		c2.284-3.288,4.889-6.362,7.46-9.441c2.34-2.802,4.777-5.53,7.275-8.191c1.071-1.141,2.408-2.032,4.349-2.388
		c-0.811,0.951-1.528,2.006-2.448,2.837c-5.647,5.101-9.599,11.44-13.212,18.017c-2.5,4.551-2.096,6.349,1.779,10.04
		c3.414,3.253,6.767,6.571,10.725,10.423c4.211-0.697,9.192-1.522,14.372-2.38c1.456-6.264-1.933-13.059,3.038-18.856
		c-1.896-4.445-3.781-8.866-5.666-13.286c0.154-0.101,0.308-0.202,0.462-0.303c1.096,1.215,2.191,2.431,3.452,3.829
		c3.683-3.928,6.246-8.307,8.579-14.042c-2.584,0.372-4.07,0.586-6.045,0.871c0.386-1.577,0.735-3.002,1.194-4.876
		c-4.961,0.198-8.962,2.174-13.075,4.451c-1.59-0.984-3.082-1.906-4.743-2.934c2.833-6.96,3.591-14.393,8.174-20.339
		c3.634-0.674,6.495,0.543,9.486,2.694c-5.363,5.176-12.396,8.943-12.845,18.533c1.351-1.607,2.097-2.458,2.804-3.342
		c2.838-3.548,5.549-7.206,8.546-10.613c1.301-1.479,2.528-3.844,5.309-2.554c2.758-2.034,5.516-4.068,8.275-6.102l-0.185,0.154
		c1.047,0.391,2.095,0.781,3.364,1.255c-0.906,2.511-1.619,4.49-2.333,6.469L464.763,36.863z M425.295,186.224
		c-2.677,2.467-5.355,4.934-8.347,7.691c0.385,1.049,0.976,2.656,1.758,4.784c2.139-2.005,3.713-3.482,5.082-4.765
		c0.492-2.855,0.921-5.35,1.351-7.846c1.269-1.203,2.537-2.407,3.616-3.43c-1.036-4.73-1.956-8.927-2.875-13.123
		c-0.859,3.101-1.468,6.143-1.515,9.194C424.326,181.222,424.96,183.725,425.295,186.224z M437.056,110.569
		c3.711,0.079,7.518,0.194,10.56-3.281c0.383-2.947,1.198-6.108-0.275-9.557c-5.211,0.781-10.303,1.544-15.613,2.34
		c0.258,2.75-1.905,5.085-0.01,7.533C433.432,107.874,435.071,108.781,437.056,110.569z M459.391,62.655
		c0.562,1.362,0.982,2.38,1.485,3.6c1.417-2.768,5.21-3.45,4.757-7.596c-1.03-2.03-1.897-4.961-6.019-3.997
		c1.766,2.023,4.998,3.002,3.349,6.706C461.953,61.732,460.813,62.143,459.391,62.655z M426.611,166.361
		c1.299-0.965,2.758-2.048,4.055-3.011c0.243-2.822,0.465-5.24-1.896-6.671C427.99,160.178,427.27,163.407,426.611,166.361z"/>
	<path style="fill:#BCA064;" d="M175.959,51.164c-1.511,0-2.779-0.03-4.045,0.01c-0.894,0.028-1.784,0.15-2.972,0.257
		c1.583,2.934,4.412,1.523,6.986,2.787c-3.589,0.742-6.638,1.372-9.933,2.052c1.794,0.183,3.412,0.349,5.582,0.571
		c-0.202,6.092,0.508,12.011-0.832,17.974c-1.15,0.105-1.837,0.168-2.892,0.265c-2.576-5.961-2.795-12.342-4.058-19.017
		c-0.487-0.266-1.442-0.789-2.168-1.186c1.494-4.71,4.743-6.268,8.231-7.627c-0.113-1.016-0.211-1.898-0.301-2.708
		c-0.493-0.137-0.815-0.337-1.087-0.284c-2.292,0.444-4.563,1.272-6.863,1.356c-13.869,0.51-27.771,0.437-41.608,1.369
		c-13.453,0.906-26.783,3.023-39.222,9.458c-0.268,0.851-0.78,1.864-0.891,2.92c-1.529,14.555-2.29,29.179-1.107,43.757
		c1.343,16.546,4.57,32.807,10.016,48.549c0.994,2.873,1.594,6.076,5.064,8.192c7.632-0.072,15.798,0.617,24.473-1.363
		c-8.547-34.949-9.323-70.105-6.132-105.468c0,4.829-0.008,9.658,0.002,14.488c0.022,10.935-0.103,21.873,0.136,32.803
		c0.156,7.106,0.631,14.222,1.356,21.294c0.945,9.223,1.686,18.522,5.27,27.25c0.24,0.585,0.474,1.172,1.144,1.672
		c-2.048-11.577-4.375-23.085-3.536-34.947c0.452,3.259,1.029,6.506,1.334,9.778c1,10.746,2.481,21.35,7.718,31.048
		c1.028,1.903,0.882,1.981-0.448,4.209c-2.702-0.252-2.551-2.606-3.112-4.21c-0.587,1.65-0.736,3.968-1.967,5.016
		c-1.327,1.13-3.678,1.498-5.564,1.451c-6.375-0.157-12.766-0.42-19.105-1.088c-4.099-0.432-6.998-2.909-8.11-7.089
		c-1.73-6.504-3.667-12.963-5.133-19.526c-2.703-12.099-4.645-24.363-5.351-36.726c-0.466-8.166,0.143-16.407,0.502-24.604
		c0.263-6.001,0.902-11.985,1.406-18.399c10.676-4.819,21.769-8.158,33.573-11.397c2.176-5.429,3.345-11.866,7.84-16.709
		c4.127-4.446,7.26-9.844,12.609-13.167c-3.695,3.98-6.608,8.432-8.842,13.319c-2.246,4.914-5.385,9.5-5.918,15.09
		c3.412,0.829,43.642-0.219,47.175-1.256c-0.194-5.304-2.631-10.027-4.231-14.978c-1.662-5.142-4.83-9.248-9.275-13.293
		c7.834,3.261,11.187,8.513,17.572,26.708c2.894-0.197,2.894-0.197,5.856,1.35c-0.104,1.911-0.22,4.042-0.364,6.686
		c1.1,2.496,6.315,2.88,5.485,8.319C178.597,54.231,177.462,52.911,175.959,51.164z"/>
	<path style="fill:#BCA064;" d="M312.252,159.84c-1.735,0.464-3.47,0.929-4.901,1.312c0.628,4.931,1.235,9.693,1.912,15.009
		c2.708,1.629,5.808,3.489,8.902,5.359c2.574,1.555,4.767,3.369,4.987,6.713c0.044,0.666,0.436,1.365,0.825,1.943
		c1.903,2.821,3.86,5.606,5.885,8.53c-3.234,2.933-6.473,3.186-9.833,1.466c-2.807-1.437-1.931-3.897-1.246-5.94
		c-4.704-6.456-12.641-9.528-16.414-16.932c1.058-1.907,2.014-3.63,2.954-5.323c0.081-4.836-2.522-7.73-6.669-9.685
		c-2.607-1.229-5.412-2.33-6.821-5.396c-0.005-3.186,2.259-4.526,4.928-4.499c6.824,0.071,11.153-3.767,14.971-8.68
		c0.559-0.719,1.145-1.43,1.801-2.058c2.446-2.34,4.487-2.457,7.201-0.276c0.685,0.551,1.039,1.514,1.017,1.479
		c4.223,1.082,8.04,0.357,10.26,4.18c-1.445,1.3-2.756,2.481-4.109,3.698c-0.217,2.498-0.431,4.976-0.669,7.717
		c5.575-2.076,7.572-6.987,10.02-11.621c0.41,4.121-0.602,8.1-3.312,10.737c-2.754,2.679-6.642,4.191-10.132,6.273
		c3.329,0.92,6.541,1.795,10.315,0.883c3.827-0.924,6.643,2.342,5.921,6.339c-0.445,2.465-1.455,4.829-2.349,7.673
		c1.102,4.692,0.864,5.701-2.837,9.675c-2.733-1.701-5.569-3.466-8.973-5.585c1.291-1.174,2.07-1.883,3.611-3.286
		c1.215,2.081,2.225,3.811,3.735,6.397c0.715-3.951-0.678-5.131-2.37-6.384c-3.974-2.944-4.006-3.456-1.637-8.339
		c-3.228-0.55-6.394-1.068-9.551-1.638c-1.248-0.225-2.496-0.497-3.708-0.866c-4.968-1.514-5.636-2.916-3.913-7.958
		c0.11-0.321,0.058-0.697,0.082-1.047c2.98-0.249,4.607-2.525,6.516-4.149c0.396-3.642,0.769-7.068,1.142-10.493
		C317.561,150.246,316.793,155.948,312.252,159.84z"/>
	<path style="fill:#BCA064;" d="M151.105,110.513c-1.096-0.833-2.192-1.665-3.302-2.508c-3.553,2.173-5.676,5.026-6.889,8.588
		c-2.172,6.382-3.97,12.82-4.355,19.634c-0.463,8.184-1.108,16.368-2.017,24.514c-0.775,6.946-2.507,8.611-9.455,10.377
		c-0.583,4.323-1.182,8.759-1.763,13.065c-3.987,1.936-7.672,0.868-11.18,0.569c-6.328-0.538-12.608-1.635-19.549-2.586
		c-0.27-1.719-0.563-3.583-0.906-5.764c2.509-0.596,4.646-1.103,7.737-1.837c-1.448-0.998-2.028-1.645-2.731-1.831
		c-1.581-0.419-3.23-0.576-4.839-0.898c-7.566-1.512-13.091-5.694-15.467-13.093c-3.112-9.69-5.631-19.57-8.652-29.291
		c-1.286-4.138-2.898-8.243-4.926-12.063c-1.619-3.05-3.26-6.643-8.038-6.296c2.777-1.18,4.883-0.679,6.635,1.32
		c3.505,3.999,6.675,8.189,8.26,13.382c2.976,9.752,6.043,19.477,8.975,29.243c1.58,5.26,4.369,9.561,8.962,12.677
		c2.79,1.893,5.752,3.12,9.164,3.154c1.051,0.011,2.102,0.134,3.398,0.223c0,2.053,0,3.788,0,5.893
		c-2.073,0.177-3.996,0.341-6.067,0.518c0,1.082,0,1.892,0,3.017c8.657,0.798,17.105,1.541,25.773,1.062
		c1.038-4.073,2.018-7.92,2.962-11.624c0.44-0.337,0.707-0.711,1.021-0.756c6.997-0.998,8.945-2.896,9.586-10.078
		c0.551-6.175,0.964-12.372,1.149-18.568c0.247-8.283,1.994-16.234,4.609-24.044c2.219-6.63,6.876-10.699,13.518-12.307
		c3.507-0.849,7.182-1.139,10.801-1.362c5.777-0.356,10.329,2.25,13.515,6.868c2.434,3.529,5.174,7.124,4.569,12.489
		c-1.391,0.5-2.849,1.455-4.323,1.48c-5.785,0.098-11.623,0.477-17.563-1.135c-1.038-2.413-1.972-4.76-3.048-7.04
		c-1.184-2.508-2.535-4.913-5.77-5.171L151.105,110.513z M178.459,120.286c-1.222-4.481-3.336-7.805-5.519-11.109
		c-2.069-3.133-5.117-4.951-8.667-4.906c-4.041,0.051-8.284-0.023-11.77,2.036c1.658,2.347,3.383,4.456,4.727,6.784
		c1.339,2.321,2.296,4.862,3.437,7.343C166.668,121.426,172.351,120.519,178.459,120.286z"/>
	<path style="fill:#BCA064;" d="M76.423,116.192c-2.496-3.656-4.829-6.287-6.223-9.345c-1.32-2.896-1.981-6.201-2.364-9.394
		c-1.212-10.11-2.149-20.252-3.212-30.38c-0.548-5.22,0.074-10.159,3.137-14.615c3.403-4.951,6.468-10.163,10.193-14.854
		c2.568-3.234,5.778-6.084,9.114-8.548c4.335-3.202,9.078-5.851,14.179-8.033c-3.794,3.333-7.976,6.326-11.276,10.092
		c-3.446,3.932-6.35,8.435-8.925,13.007c-2.576,4.574-4.452,9.542-6.037,13.024c0,5.386,0.311,9.396-0.058,13.341
		c-1.176,12.585-0.672,25.09,1.042,37.585C76.312,110.398,76.254,112.775,76.423,116.192z"/>
	<path style="fill:#BCA064;" d="M241.636,84.049c-1.62,0.072-2.703,0.121-3.942,0.176c-1.405-1.111-1.507-3.273-3.762-4.008
		c-1.319-0.43-2.17-3.124-2.711-4.954c-1.535-5.196-2.803-10.471-4.228-15.914c1.584-1.254,1.584-1.254,4.342-1.809
		c0.386-0.918,0.802-1.911,1.332-3.172c1.143-0.43,2.463-0.925,4.295-1.614c-0.383-2.042-0.467-4.24-1.247-6.155
		c-0.77-1.894-2.782-2.314-4.701-1.883c-2.819,0.634-5.595,1.463-8.169,2.15c-0.571-0.387-1.01-0.52-1.139-0.796
		c-8.476-18.187-23.568-27.782-42.42-32.084c-7.947-1.814-16.132-2.589-24.927-3.947c2.068-0.948,3.717-0.443,5.264-0.459
		c1.643-0.018,3.314-0.085,4.926,0.165c7.552,1.171,15.113,2.315,22.625,3.713c9.462,1.76,17.193,6.88,24.148,13.24
		c2.685,2.455,5.399,5.026,7.442,7.996c2.016,2.932,3.2,6.436,4.894,9.993c2.201-0.397,4.467-0.972,6.765-1.175
		c2.335-0.206,4.703-0.046,6.835-0.046c2.416,3.112,2.416,3.112,2.739,9.59c2.151,0.731,4.849,0.808,5.674,4.015
		c0.254,0.986,2.594,1.437,4.381,2.334c-3.834,4.154-3.68,9.262-4.627,13.961c-0.58,2.878-0.507,5.742-3.094,7.814
		C241.803,81.606,241.907,82.826,241.636,84.049z M239.548,77.223c1.098-5.534,1.727-10.503,1.12-16.085
		c-1.91,0.136-3.561,0.254-5.725,0.408c0.603,5.458,1.135,10.273,1.67,15.106C237.746,76.873,238.432,77.006,239.548,77.223z
		 M242.941,76.009c0.978-4.207,1.993-8.406,2.897-12.629c0.139-0.649-0.232-1.407-0.478-2.696
		C243.209,64.413,242.251,70.162,242.941,76.009z"/>
	<path style="fill:#BCA064;" d="M85.306,107.774c-0.325-4.642-0.792-8.801-0.874-12.967c-0.197-10.047-0.264-20.097-0.284-30.146
		c-0.01-5.129,1.392-6.79,6.428-7.84c4.779-0.996,9.588-1.818,14.35-1.004c1.147,4.439,1.566,44.581,0.574,50.973
		c-1.159,0.382-2.494,1.176-3.846,1.206C96.412,108.111,91.142,108.908,85.306,107.774z M88.323,104.332
		c5.295,1.534,10.345,2.382,15.51,1.464c1.537-4.919,0.994-37.41-0.85-43.92c-0.54,1.746-1.166,2.886-1.192,4.038
		c-0.053,2.358,0.239,4.723,0.349,7.087c0.185,4.002,0.367,8.004,0.493,12.008c0.065,2.084-0.633,3.57-3.4,3.373
		c-0.522-0.78-1.346-1.578-1.652-2.541c-1.594-5.016-3.394-10.005-4.43-15.144c-0.559-2.772-1.251-5.117-3.323-6.495
		c0.121-1.291,0.199-2.129,0.352-3.771c-2.686,2.174-2.6,4.374-2.537,6.51c0.197,6.735,0.524,13.468,0.658,20.204
		C88.412,92.791,88.323,98.441,88.323,104.332z M103.763,57.051c-1.871,0.485-3.214,0.833-5.227,1.355
		c2.216,0.511,3.666,0.845,5.227,1.205C103.763,58.758,103.763,58.238,103.763,57.051z"/>
	<path style="fill:#BCA064;" d="M163.789,125.157c4.259,0.251,7.211,2.448,9.696,5.427c3.488,4.18,5.156,9.131,6.376,14.353
		c3.002,12.848,2.843,25.747,0.28,38.56c-0.876,4.381-3.118,8.531-5.013,12.658c-4.348,9.467-13.995,9.074-20.529,5.808
		c-5.171-2.585-8.364-7.231-9.957-12.561c-1.867-6.247-3.509-12.679-4.173-19.141c-0.988-9.624-0.958-19.388,1.905-28.772
		c1.315-4.31,3.404-8.432,5.531-12.432c2.066-3.885,5.839-5.093,10.149-5.091c-6.549,1.695-9.172,6.93-11.726,12.361
		c-2.618,5.567-3.477,11.54-3.954,17.495c-0.865,10.794,0.103,21.518,3.197,31.938c0.924,3.113,2.315,6.158,3.943,8.974
		c2.267,3.92,5.575,6.631,10.284,7.447c4.899,0.85,7.54-0.226,10.046-4.495c3.286-5.598,4.912-11.743,5.943-18.071
		c1.988-12.209,1.857-24.336-1.631-36.301c-0.509-1.747-1.063-3.491-1.751-5.174C170.416,133.277,168.778,128.156,163.789,125.157z"
		/>
	<path style="fill:#BCA064;" d="M173.867,102.7c-0.579-3.596-1.269-7.536-1.818-11.496c-0.173-1.248-0.118-2.574,0.095-3.819
		c0.499-2.921,1.776-4.036,4.763-4.277c1.453-0.117,2.92-0.082,4.381-0.08c7.852,0.011,15.705-0.066,23.554,0.091
		c4.351,0.087,8.695,0.574,12.466,0.84c2.55,1.931,3.193,3.642,2.213,6.14c-0.632,1.61-0.541,3.504-0.792,5.406
		c7.096,2.417,14.019-2.244,21.273,0.744c-0.256,2.033-0.509,4.044-0.762,6.054c-0.354,0.054-0.709,0.108-1.063,0.161
		c-0.34-1.016-0.679-2.032-1.205-3.602c-1.917-0.073-4.042-0.164-6.168-0.234c-3.263-0.108-6.543-0.028-9.784-0.352
		c-3.194-0.319-4.409-2.099-3.969-5.29c0.267-1.938,0.689-3.855,1.101-6.109c-12.338-3.103-24.249-0.788-36.245-0.589
		c-1.625,4.478-1.952,8.712-1.038,13.221c0.91,0.294,1.74,0.755,2.584,0.78c0.88,0.026,1.763-0.428,2.661-0.568
		c7.003-1.091,8.493,0.52,6.457,7.105c-1.074,3.474-2.239,6.926-3.523,10.328c-0.748,1.982-2.204,2.86-4.38,1.726
		c-0.889-3.05-1.18-6.524-2.852-9.1C180.12,107.169,177.06,105.442,173.867,102.7z"/>
	<path style="fill:#BCA064;" d="M66.708,108.26c-2.221-0.416-3.628-0.769-5.056-0.932c-6.26-0.715-11.405,2.459-12.723,8.587
		c-1.141,5.306-1.53,10.786-2.04,16.209c-0.146,1.553,0.44,3.174,0.68,4.697c1.328,0.255,2.284,0.438,3.239,0.621
		c0.014,0.273,0.028,0.545,0.042,0.818c-1.248,0.207-2.497,0.413-4.052,0.67c-0.432-1.549-0.963-2.709-1.054-3.902
		c-0.489-6.406-0.122-12.8,1.336-19.042c1.612-6.905,7.156-10.587,12.561-9.936c1.603,0.193,3.249,0.03,5.474,0.03
		c-0.506-2.575-1.07-4.965-1.434-7.385c-1.544-10.263-3.372-20.499-4.421-30.814c-0.754-7.419,1.422-14.501,5.439-20.812
		C75.95,29.39,91.701,17.642,111.883,11.962c6.633-1.867,13.357-3.407,20.299-5.161c-0.207-1.021-0.44-2.173-0.742-3.667
		c8.233-4.817,16.442-3.208,24.415-0.944c2.091,2.664,0.766,4.311-0.945,6.425c-0.559-1.343-0.939-2.258-1.546-3.718
		c-6.26-1.033-12.765-2.216-19.816-1.305c0.315,1.641,0.541,2.822,0.791,4.123c-0.452,0.22-0.89,0.565-1.373,0.648
		c-9.727,1.687-19.107,4.522-28.251,8.233c-15.198,6.168-27.112,16.257-36.109,29.89c-6.379,9.665-7.482,20.392-6.042,31.518
		c1.144,8.837,2.627,17.629,3.931,26.446C66.647,105.483,66.618,106.545,66.708,108.26z"/>
	<path style="fill:#BCA064;" d="M363.713,197.073c1.146,2.927,1.589,5.879-0.12,8.995c4.556,3.399,9.263,1.741,14.202,1.76
		c0.118-4.397-0.814-8.028-3.789-11.018c-5.036-5.061-5.505-11.319-3.807-17.644c0.834-3.106,2.31-5.738-0.321-8.572
		c-0.438-0.472-0.577-1.355-0.604-2.057c-0.33-8.603-0.081-17.138,3.324-25.249c0.104-0.248,0.42-0.408,1.403-1.319
		c-2.895,9.136-2.282,17.598-1.364,26.259c1.74-0.717,3.281-1.777,4.893-1.9c1.723-0.131,3.514,0.623,5.445,1.027
		c0.371-1.147,0.751-2.32,1.161-3.586c2.067-1.101,4.113-2.191,5.917-3.153c0.756-2.797-0.462-4.317-2.403-5.266
		c-3.912-1.911-7.894-3.678-11.851-5.496c-0.591-0.272-1.205-0.495-2.564-1.048c2.801-1.152,4.693-0.155,6.28,0.524
		c3.335,1.427,6.621,3.113,9.613,5.154c2.727,1.86,4.939,4.374,3.7,8.786c-2.326,0.808-4.837,1.681-7.653,2.66
		c-0.903,0.922,0.202,3.266-2.474,3.948c-1.403,0.357-2.19,2.904-3.389,4.351c-1.144,1.379-2.461,2.614-3.946,4.168
		c0.135-2.999,0.252-5.601,0.369-8.203c-0.246-0.083-0.491-0.167-0.737-0.25c-0.496,0.777-1.231,1.495-1.442,2.343
		c-0.564,2.263-0.727,4.633-1.369,6.868c-1.302,4.528-1.226,9.268,0.531,14.469c5.212,4.474,6.59,7.393,6.84,15.032
		c-4.72,1.072-9.557,1.085-14.38,0.307c-1.924-0.31-3.313-1.894-3.419-3.833c-0.18-3.284-0.3-6.455-2.315-9.313
		c-0.536-0.761-0.303-2.132-0.266-3.217c0.114-3.285,0.43-6.568,0.42-9.851c-0.006-2.127-0.434-4.254-0.692-6.379
		c-0.152-1.249-0.726-2.588-0.449-3.725c1.677-6.895-1.097-13.246-2.239-19.787c-0.177-1.017-0.799-2.063-1.485-2.865
		c-2.649-3.1-2.083-5.976,0.37-8.819c0.575-0.666,1.127-1.352,2.312-1.74c-1.036,2.177-2.071,4.354-2.933,6.166
		c0.425,0.916,0.486,1.393,0.742,1.55c4.223,2.59,5.378,6.556,5.289,11.212c-0.1,5.262-0.023,10.528-0.023,16.691
		c-0.171-0.237,0.145,0.481,0.688,0.908c2.502,1.969,2.847,4.508,2.155,7.384c-0.932,3.875-1.852,7.753-2.762,11.569
		c0.565,1.662,1.664,2.416,3.346,2.307L363.713,197.073z"/>
	<path style="fill:#BCA064;" d="M416.502,54.426c-5.484,5.661-8.482,12.553-10,20.181c-0.387,1.943-0.801,3.881-1.23,5.953
		c-2.165-0.887-1.574-2.42-1.494-3.779c0.254-4.342,0.508-8.685,0.28-13.088c-3.902,7.189-3.567,15.344-6.127,22.947
		c0-5.314,0-10.628,0-15.943c-2.973,4.72-4.484,9.723-5.661,15.094c-0.234-0.944-0.636-1.881-0.672-2.832
		c-0.174-4.562-0.294-9.127-0.334-13.692c-0.013-1.446,0.122-2.932,0.459-4.335c2.104-8.762,4.856-11.623,13.641-13.251
		c3.687-0.683,7.543-0.457,11.636-0.659c-0.295,1.571-0.486,2.587-0.676,3.602L416.502,54.426z"/>
	<path style="fill:#BCA064;" d="M186.506,142.722c-1.432-2.777-2.573-4.991-3.796-7.361c4.621-9.734,9.21-19.402,13.8-29.07
		c2.602-0.393,4.742-0.979,6.886-0.998c14.232-0.128,28.466-0.141,42.699-0.164c0.877-0.001,1.755,0.237,2.995,0.416
		c0.94,3.508,1.868,6.97,2.942,10.979C230.469,125.52,208.783,133.772,186.506,142.722z M198.242,112.548
		c-0.794,0.908-1.75,1.719-2.355,2.739c-2.884,4.86-5.693,9.765-8.482,14.681c-0.977,1.722-1.822,3.519-2.701,5.231
		c0.459,1.085,0.77,1.937,1.175,2.741c0.39,0.774,0.877,1.498,1.588,2.694c20.909-8.322,41.62-16.564,62.659-24.937
		c-0.794-3.088-1.457-5.667-2.255-8.771c-16.244,0.447-32.192,1.812-48.593,2.479c-0.411,1.127-0.816,2.235-1.22,3.343
		L198.242,112.548z"/>
	<path style="fill:#BCA064;" d="M119.104,54.608c0.213-1.643,1.464-1.987,2.774-2.056c8.547-0.449,17.092-1.057,25.645-1.196
		c5.446-0.089,7.667,2.313,7.854,7.62c0.297,8.424-0.944,16.69-2.79,24.886c-1.785,7.924-6.878,13.154-13.901,16.555
		c-4.071,1.972-8.442,3.329-12.687,4.936c-2.874,1.088-5.33,0.445-7.553-1.99c-0.075-1.141-0.222-2.395-0.23-3.65
		c-0.095-13.496-0.205-26.992-0.2-40.488c0.001-1.628-1.064-3.73,1.278-4.81c-0.244,16.364,0.243,32.704,1.064,48.931
		c2.921,0.995,5.216,0.876,7.392-0.35c4.122-2.322,8.255-4.629,12.303-7.075c4.817-2.911,7.661-7.429,8.686-12.773
		c1.37-7.141,2.253-14.385,3.077-21.615c0.212-1.856-0.579-3.826-0.922-5.818c-8.61-2.197-16.873-3.005-25.291-1.976
		C123.434,54.004,121.27,54.317,119.104,54.608z"/>
	<path style="fill:#BCA064;" d="M253.153,141.788c2.633-1.102,3.746-0.084,4.289,1.71c1.104,3.647,2.624,7.268,3.045,11.004
		c1.323,11.754-0.253,23.246-4.241,34.393c-1.404,3.924-4.105,6.915-7.315,9.361c-5.202,3.964-14.037,2.954-17.668-2.445
		c-4.883-7.261-6.324-15.52-5.536-24.85c1.108,5.847,1.973,11.018,3.112,16.127c0.468,2.1,1.3,4.196,2.356,6.075
		c3.471,6.177,12.871,8.979,17.628,0.506c1.502-2.674,3.031-5.517,3.641-8.469c1.248-6.038,2.131-12.179,2.699-18.321
		c0.608-6.566-0.461-13.072-1.675-19.537C253.137,145.468,253.245,143.51,253.153,141.788z"/>
	<path style="fill:#BCA064;" d="M397.663,170.848c1.691,0.479,3.382,0.959,5.528,1.568c0,2.805-0.081,5.509,0.018,8.207
		c0.17,4.625,1.204,8.996,4.193,12.709c3.516,4.368,3.622,9.618,4.353,15.106c-4.667,0.691-8.789,2.513-12.679,0.265
		c-2.95-2.512-1.649-5.239-1.091-8.133c-3.379-4.517-1.982-10.267-3.35-15.466c-0.847-3.218-0.818-6.667-1.183-10.013l-0.118,0.15
		c1.514-1.515,3.029-3.029,4.543-4.544L397.663,170.848z M409.674,208.438c0.608-5.89-0.861-10.263-3.604-14.227
		c-2.331-3.368-3.89-6.887-4.066-11.072c-0.118-2.798-0.805-5.573-1.237-8.358c-0.211,0.018-0.422,0.036-0.633,0.054
		c0,6.295,0,12.59,0,18.945c5.31,2.415,6.231,6.356,3.93,11.366C405.861,206.201,407.392,207.099,409.674,208.438z"/>
	<path style="fill:#BCA064;" d="M61.061,130.196c-4.551,3.315-5.458,8.476-6.283,13.423c-0.894,5.361-1.249,10.842-1.432,16.284
		c-0.246,7.343,1.364,14.479,3.613,21.41c0.879,2.709,2.46,5.28,4.131,7.623c2.953,4.142,10.213,5.848,13.821-1.283
		c1.854-3.665,2.686-7.876,3.752-11.901c0.805-3.04,0.644-3.083,2.884-5.573c1.849-0.06,2.745,1.047,2.595,2.702
		c-0.511,5.637-1.365,11.195-4.747,16.004c-2.487,3.537-6.119,5.121-10.153,5.782c-3.321,0.544-5.983-1.029-8.215-3.427
		c-3.198-3.435-4.907-7.664-6.134-12.047c-3.187-11.386-3.655-22.956-1.685-34.605c0.696-4.112,1.444-8.231,2.485-12.266
		c1.059-4.106,3.036-7.769,6.661-10.462c2.154,1.843,2.482,3.825,0.93,6.106C62.543,128.71,61.802,129.453,61.061,130.196z"/>
	<path style="fill:#BCA064;" d="M243.391,163.665c0.375,0.682,0.646,0.983,0.7,1.318c0.085,0.526,0.022,1.076,0.022,2.202
		c-1.633,0.431-3.309,1.26-4.979,1.247c-7.284-0.057-14.565-0.402-21.85-0.554c-3.089-0.064-6.183,0.123-9.275,0.136
		c-5.975,0.025-11.95,0.007-18.29,0.007c-0.114-1.016-0.224-1.99-0.352-3.124c0.922-0.272,1.592-0.638,2.263-0.641
		c6.02-0.026,12.043-0.104,18.058,0.062c7.141,0.196,14.164-0.653,21.159-1.912C235.092,161.644,239.162,162.416,243.391,163.665z"
		/>
	<path style="fill:#BCA064;" d="M160.694,194.17c6.225-4.358,8.198-10.868,10.407-17.564c0.047,0.708,0.231,1.438,0.121,2.121
		c-0.798,4.965-2.869,9.401-5.941,13.339c-3.078,3.945-7.749,4.238-11.376,0.724c-1.025-0.993-1.96-2.216-2.54-3.511
		c-4.082-9.112-6.545-18.502-5.088-28.648c0.724-5.042,0.93-10.156,1.482-15.225c0.372-3.418,1.423-6.639,3.887-9.545
		c0.057,0.889,0.429,1.909,0.121,2.646c-1.954,4.671-2.218,9.563-2.075,14.502c0.217,7.462-0.765,15.02,1.239,22.347
		c1.292,4.722,2.936,9.359,4.643,13.952C156.453,191.674,156.701,191.622,160.694,194.17z"/>
	<path style="fill:#BCA064;" d="M269.842,66.071c-2.101-3.754-3.93-7.629-0.88-11.528c3.826-4.89,8.158-9.066,15.561-6.713
		c0.142-1.299,0.491-2.363,0.327-3.341c-1.121-6.685,5.002-12.092,10.351-13.661c3.957-1.161,8.065-1.592,12.392-0.853
		c6.891,1.177,10.579,5.065,12.016,11.59c0.114,0.519,0.213,1.041,0.223,1.087c3.094,1.18,6.275,1.739,8.544,3.485
		c1.57,1.208,1.88,4.053,1.829,6.597c-0.399-0.751-0.899-1.466-1.181-2.259c-1.57-4.421-3.77-5.731-8.246-4.706
		c-1.011,0.231-1.95,0.775-3.604,1.455c0.225-1.266,0.319-1.886,0.447-2.499c1.387-6.637-2.998-10.682-7.918-11.688
		c-4.654-0.951-9.403-1.205-13.978,0.578c-6.244,2.434-8.784,6.266-8.726,12.954c0.008,0.878,0.001,1.756,0.001,3.182
		c-5.235-1.37-9.543-0.702-13.654,3.026C268.985,56.734,270.765,61.51,269.842,66.071z"/>
	<path style="fill:#BCA064;" d="M412.727,118.925c-0.113,3.091-0.971,6.102-2.979,8.454c-3.186,3.73-6.649,7.233-10.145,10.681
		c-0.983,0.969-2.417,1.675-3.769,2.043c-5.61,1.526-11.264,2.89-16.914,4.264c-0.466,0.113-1.022-0.147-2.486-0.393
		c6.568-1.774,12.256-3.31,18.64-5.035c-6.676-8.703-12.917-16.838-19.478-25.391c2.386-0.757,4.214-1.337,6.196-1.966
		c2.658,4.454,5.035,8.955,7.911,13.11c2.774,4.007,6.064,7.656,9.08,11.405C404.834,132.182,407.564,128.68,412.727,118.925z"/>
	<path style="fill:#BCA064;" d="M346.334,25.192c-5.469-2.297-9.022-1.714-12.126,1.841c-5.8,6.641-5.827,8.6-0.243,17.71
		c-5.705-1.401-8.395-6.835-5.571-12.332c1.544-3.005,3.972-5.637,6.361-8.088c1.005-1.031,2.903-1.342,4.46-1.639
		c1.385-0.264,2.86-0.055,4.674-0.055c0.09-1.395,0.418-2.642,0.204-3.788c-1.334-7.128,9.163-12.894,14.902-11.044
		c3.894,1.255,7.556,3.039,10.217,6.072c1.577,1.798,2.784,4.371,3.087,6.733c0.461,3.588-0.709,7.113-2.761,11.424
		c0-3.599-0.117-6.096,0.028-8.576c0.211-3.615-1.273-6.312-4.002-8.528c-3.33-2.705-6.824-4.809-11.378-4.437
		c-5.869,0.48-8.465,3.308-8.201,9.196C346.064,21.479,346.21,23.275,346.334,25.192z"/>
	<path style="fill:#BCA064;" d="M150.899,110.333c1.561,2.55,3.121,5.101,4.598,7.514c-0.662,0.704-0.914,1.182-1.124,1.164
		c-4.848-0.402-5.574-0.188-7.477,4.165c-3.859,8.826-8.296,17.509-8.209,27.531c0.004,0.417-0.458,0.838-0.687,1.23
		c-0.318-0.116-0.595-0.18-0.591-0.221c0.87-10.822,0.563-21.797,4.116-32.276c0.292-0.862,0.64-1.706,0.985-2.549
		c1.578-3.857,4.117-6.427,8.596-6.378L150.899,110.333z"/>
	<path style="fill:#BCA064;" d="M39.847,56.649c-1.558-0.114-2.893,0.047-4.042-0.343c-3.679-1.25-7.264-0.617-10.753,0.468
		c-6.349,1.973-12.022,5.323-16.893,9.79c-1.796,1.647-2.919,4.125-4.037,6.379c-0.789,1.589-1.052,3.439-1.891,4.996
		c-0.079-8.885,4.723-15.034,11.814-19.592c7.127-4.581,15.284-4.093,23.529-3.739c0.214-0.776,0.524-1.425,0.556-2.088
		c0.207-4.344,2.924-6.435,6.701-7.617c5.757-1.802,11.049-0.79,15.902,3.136c-0.853-0.122-1.703-0.272-2.559-0.359
		c-3.043-0.31-6.166-1.166-9.113-0.758c-3.997,0.553-7.889,2.02-8.233,7.184C40.784,54.791,40.324,55.451,39.847,56.649z"/>
	<path style="fill:#BCA064;" d="M295.104,203.169c-5.858,0.898-10.755,0.432-15.73-2.746c0.287-2.626,0.575-5.262,0.894-8.176
		c-1.515-1.269-3.164-2.65-5.058-4.235c0-2.229-0.463-4.69,0.091-6.895c1.403-5.58,0.461-10.833-1.26-16.105
		c-0.485-1.486-0.762-3.04-0.776-4.625c5.589,8.302,3.711,17.646,3.416,26.803c1.572,1.223,2.989,2.324,4.839,3.763
		c-0.114,2.604-0.239,5.447-0.374,8.533c3.644,2.817,7.894,2.42,12.163,2.506c1.016-4.118,0.176-7.264-2.863-9.215
		c-6.164-3.957-7.534-9.971-7.695-16.57c-0.094-3.853-0.73-7.836,2.127-12.326c-0.147,1.885-0.039,2.81-0.311,3.605
		c-1.881,5.497-0.204,10.82,0.81,16.14c0.65,3.41,3.125,5.598,5.829,7.636C295.052,194.159,296.354,198.043,295.104,203.169z"/>
	<path style="fill:#BCA064;" d="M160.777,58.667c-0.9-0.783-1.706-1.483-2.765-2.403c0.72-0.199,1.204-0.51,1.568-0.406
		c2.552,0.733,3.074,2.846,3.319,5.109c0.432,3.981,0.823,7.968,1.306,11.943c0.128,1.054,0.533,2.074,0.867,3.322
		c3.355,0,6.58,0,10.244,0c1.915-6.537,3.839-13.107,5.846-19.959c1.224-0.123,2.368-0.239,4.832-0.487
		c-2.018,1.445-2.952,2.114-3.929,2.813c-1.121,6.772-2.246,13.562-3.29,19.868c-2.652,1.566-4.753,2.807-7.258,4.286
		c-1.677-0.497-4.315-0.068-4.804-3.493c-0.097-0.682-2.065-1.097-3.282-1.69C162.534,71.182,161.651,64.888,160.777,58.667z"/>
	<path style="fill:#BCA064;" d="M57.927,114.057c2.483,2.832,2.251,5.296,0.556,8.189c-2,3.412-3.492,7.125-5.166,10.725
		c-0.83,1.785-0.79,1.804-3.768,2.399c-0.223-1.015-0.623-2.032-0.637-3.055c-0.047-3.452-0.004-6.907,0.093-10.359
		C49.153,116.647,52.01,114.08,57.927,114.057z"/>
	<path style="fill:#BCA064;" d="M213.482,53.013c0.277,0.553,0.796,1.167,0.885,1.838c0.43,3.242,0.835,6.492,1.08,9.753
		c0.436,5.794-1.974,8.455-7.833,8.567c-4.369,0.084-8.747,0.04-13.113-0.143c-1.786-0.075-3.682-0.38-5.28-1.117
		c-1.177-0.543-2.563-1.845-2.776-3.007c-0.431-2.35-0.129-4.834,0.202-7.266c0.557,2.787,1.115,5.573,1.687,8.436
		c7.496,2.203,14.444-0.324,21.817-0.254c3.005-4.899,3.833-9.931,2.215-15.429c-4.1-1.621-8.14-0.854-12.085-0.994
		c-3.788-0.134-7.584-0.029-11.369-0.236C192.988,51.723,207.707,51.746,213.482,53.013z"/>
	<path style="fill:#BCA064;" d="M222.617,50.545c3.896,14.834,3.328,29.515-1.065,44.067c-0.217,0.022-0.414,0.093-0.574,0.045
		c-0.147-0.045-0.367-0.224-0.362-0.335C221.271,79.729,221.944,65.137,222.617,50.545z"/>
	<path style="fill:#BCA064;" d="M157.238,169.125c3.707-4.273,2.294-8.919,3.141-14.173c0.817,1.507,1.448,2.128,1.435,2.736
		c-0.078,3.781,1.757,7.438,0.318,11.348c-1.273,3.459-2.611,5.136-4.9,4.896c-2.167-0.227-5.44-3.409-5.072-6.29
		c0.554-4.331,0.747-8.721,1.535-13.004c0.593-3.224,1.904-3.614,6.417-2.181c-1.786,0.497-2.84,0.79-4.212,1.172
		C155.008,158.65,152.293,163.851,157.238,169.125z"/>
	<path style="fill:#BCA064;" d="M467.937,42.418c1.014,3.678,2.109,7.335,3.017,11.038c0.86,3.505,1.525,6.884,0.541,10.698
		c-0.883,3.426-0.136,7.25-0.309,10.888c-0.18,3.8-0.6,7.589-0.889,11.07c-6.171,3.933-12.725,4.99-17.484,2.792
		c2.906-0.24,5.504-0.221,7.996-0.725c2.466-0.498,4.826-1.523,7.716-2.476c0.515-5.17,2.386-10.461,0.464-15.844
		c-0.991-2.774-1.204-5.287,0.277-7.853c0.978-1.695,0.921-3.38,0.414-5.254c-0.993-3.678-1.815-7.407-2.548-11.147
		c-0.205-1.048-1.127-2.58,0.874-3.129L467.937,42.418z"/>
	<path style="fill:#BCA064;" d="M401.125,153.241c0.331,0.325,0.662,0.649,0.993,0.974c2.214,2.85,4.264,5.795,3.27,9.682
		c-0.466,1.823-1.241,3.567-1.642,4.693c-2.572,0.955-4.327,1.607-6.083,2.259l0.214-0.152c-2.785,0.244-3.971,2.088-4.543,4.544
		l0.118-0.15c-1.736,1.572-3.466,3.151-5.209,4.714c-4.077,3.656-10.893,4.251-15.508,1.275c2.206-0.409,4.303-1.054,6.422-1.136
		c4.114-0.16,7.219-2.247,10.137-4.771c2.062-1.784,3.78-4.082,6.069-5.453c2.087-1.25,4.736-1.561,7.037-2.256
		c3.235-5.039,1.868-9.064-2.682-12.626C400.263,154.218,400.694,153.729,401.125,153.241z"/>
	<path style="fill:#BCA064;" d="M405.434,37.105c0.465,2.638,0.886,5.029,1.306,7.42c0.301,0.034,0.603,0.069,0.904,0.103
		c1.057-2.737,2.114-5.474,3.171-8.212c1.605,3.959-0.477,7.241-0.489,10.659c-4.622,0.982-8.657,1.84-13.177,2.8
		C398.55,44.411,400.986,40.121,405.434,37.105z"/>
	<path style="fill:#BCA064;" d="M316.747,134.785c10.62,4.518,21.764,7.263,34.457,8.144c-1.5,0.76-2.143,1.382-2.744,1.344
		c-6.137-0.38-12.298-0.622-18.39-1.397c-5.357-0.682-9.722-3.707-13.705-7.23c-0.113-0.1-0.209-0.348-0.161-0.466
		C316.26,135.041,316.481,134.967,316.747,134.785z"/>
	<path style="fill:#BCA064;" d="M65.248,162.517c1.002-3.976,1.739-6.899,2.576-10.217c2.452,5.775,2.412,8.637,0.017,13.457
		c-4.103,0.423-6.321-0.71-6.617-4.229c-0.286-3.4,0.121-6.893,0.546-10.306c0.244-1.964,1.741-3.058,4.523-3.098
		c-0.652,0.782-0.968,1.246-1.369,1.62c-0.388,0.362-0.863,0.631-1.441,1.04C62.921,154.392,63.068,157.942,65.248,162.517z"/>
	<path style="fill:#BCA064;" d="M218.266,45.818c-13.554,1.17-26.869-0.507-40.232-1.69c5.24-1.836,10.739-2.138,16.019-1.294
		c6.288,1.005,12.518,2.088,18.901,2.199C214.729,45.064,216.495,45.544,218.266,45.818z"/>
	<path style="fill:#BCA064;" d="M240.447,191.799c1.538-0.713,2.827-1.31,4.144-1.921c0.071,0.418,0.264,0.932,0.156,1.006
		c-1.479,1.008-2.999,1.954-4.283,2.772c-7.379-2.741-10.863-10.538-9.992-22.044c1.04-0.133,2.157-0.277,3.839-0.493
		c0,2.588-0.137,4.741,0.034,6.869c0.218,2.702,0.637,5.392,1.059,8.074C235.838,188.822,237.493,190.607,240.447,191.799z"/>
	<path style="fill:#BCA064;" d="M120.37,170.321c-0.384,2.808-0.711,5.205-1.113,8.144c-5.651-0.817-10.771-1.558-16.195-2.342
		c-0.361-1.435-0.682-2.715-1.179-4.691C108.06,171.076,113.507,168.833,120.37,170.321z M118.03,173.179
		c-5.023-0.247-9.472-0.776-14.586,0.475c3.938,1.798,10.301,2.673,14.367,2.151C117.862,175.188,117.918,174.518,118.03,173.179z"
		/>
	<path style="fill:#BCA064;" d="M434.68,124.361c4.582-3.124,9.588-3.736,14.753-2.375c2.061,0.543,4.024,1.687,5.853,2.842
		c4.271,2.698,6.169,6.443,4.413,11.976c-0.554-0.849-1.072-1.362-1.263-1.976c-2.209-7.128-7.815-11.412-15.254-11.322
		C440.346,123.54,437.514,124.061,434.68,124.361z"/>
	<path style="fill:#BCA064;" d="M25.5,89.183c10.389-6.512,22.602-1.391,23.187,10.089c-3.26-3.518-5.474-7.517-9.786-9.338
		C34.522,88.085,30.181,87.721,25.5,89.183z"/>
	<path style="fill:#BCA064;" d="M488.374,140.875c-4.828-3.197-8.425-6.311-12.586-8.136c-4.456-1.954-9.157-0.414-13.513,1.784
		c3.798-3.582,7.591-6.425,13.274-4.659C481.197,131.618,485.189,134.852,488.374,140.875z"/>
	<path style="fill:#BCA064;" d="M174.642,73.899c-1.956-5.16-1.689-14.169-0.118-18.297c1.194,0.383,2.415,0.775,4.011,1.287
		c-0.692,3.156-1.279,5.929-1.912,8.691C175.986,68.358,175.304,71.126,174.642,73.899z"/>
	<path style="fill:#BCA064;" d="M416.324,54.625c0.756-0.729,1.619-1.378,2.245-2.205c1.098-1.448,2.391-1.355,4.347-0.624
		c-5.613,7.288-9.686,15.183-11.361,24.211c-0.975-2.121-0.602-4.162,0.016-6.149c1.603-5.157,3.282-10.29,4.93-15.433
		L416.324,54.625z"/>
	<path style="fill:#BCA064;" d="M321.936,77.332c2.407,0.691,4.797,1.45,7.224,2.059c6.156,1.545,12.298,3.175,18.513,4.44
		c2.049,0.417,4.321-0.063,6.462-0.349c1.915-0.256,3.79-0.809,6.791-1.478c-3.498,2.669-6.478,3.425-9.53,3.25
		c-4.34-0.248-8.753-0.531-12.958-1.538c-5.791-1.386-11.418-3.46-17.114-5.24C321.528,78.096,321.732,77.714,321.936,77.332z"/>
	<path style="fill:#BCA064;" d="M438.038,86.611c-1.496-0.689-2.959-1.254-4.316-2.01c-2.415-1.345-3.24-3.465-2.44-5.892
		c1.099-3.332,4.663-4.318,7.323-2.027c2.129,1.834,2.624,4.747,1.182,7.303C439.273,84.896,438.628,85.733,438.038,86.611z
		 M433.653,77.434c-0.267,0.45-0.534,0.9-0.802,1.351c0.868,0.996,1.585,2.253,2.667,2.878c0.557,0.322,2.236-0.239,2.549-0.845
		c0.333-0.644-0.067-2.314-0.651-2.644C436.359,77.578,434.928,77.645,433.653,77.434z"/>
	<path style="fill:#BCA064;" d="M75.82,165.005c0.833,6.447-0.97,12.572-3.383,18.381c-2.171,5.227-6.836,5.034-10.962,0.011
		c0.267-0.235,0.511-0.509,0.809-0.695c0.305-0.191,0.663-0.296,1.337-0.583c0.927,1.068,1.933,2.227,2.823,3.252
		c0.612,0.06,0.978,0.185,1.3,0.113c2.756-0.617,3.638-2.905,4.257-5.191C73.375,175.225,74.559,170.104,75.82,165.005z"/>
	<path style="fill:#BCA064;" d="M56.012,159.457c1.428,0,1.808-0.097,2.1,0.022c0.48,0.196,0.902,0.533,1.238,0.742
		c0.547,3.695,1.31,7.226,1.509,10.788c0.125,2.24-0.594,4.527-1.983,6.8C57.944,171.834,57.011,165.859,56.012,159.457z"/>
	<path style="fill:#BCA064;" d="M376.602,205.807c-2.396,0-4.577,0.181-6.715-0.041c-3.453-0.36-4.038-1.443-3.481-5.617
		C371.183,198.524,372.544,199.246,376.602,205.807z"/>
	<path style="fill:#BCA064;" d="M424.682,47.821c-1.824-0.188-3.285-0.338-5.219-0.537c2-5.195,3.774-9.803,5.549-14.411
		c0.346,0.096,0.692,0.192,1.038,0.287c-0.263,1.356-0.619,2.702-0.765,4.07c-0.192,1.789-0.217,3.597-0.316,5.396
		C424.883,44.209,424.794,45.791,424.682,47.821z"/>
	<path style="fill:#BCA064;" d="M129.418,205.66c-0.867-2.969,0.613-3.915,2.649-3.817c5.764,0.279,11.517,0.797,17.298,1.443
		C142.651,203.398,136.261,206.564,129.418,205.66z"/>
	<path style="fill:#BCA064;" d="M58.73,154.09c-0.991,0-1.661,0-2.735,0c0.217-5.1,0.423-10.005,2.328-14.798
		C60.48,141.876,60.577,145.425,58.73,154.09z"/>
	<path style="fill:#BCA064;" d="M387.713,76.191c-0.691-0.279-0.997-0.35-0.995-0.409c0.178-4.828,0.192-9.674,0.702-14.468
		c0.14-1.316,1.768-2.473,3.672-3.248c-0.724,3.063-1.558,6.104-2.139,9.194C388.406,70.171,388.126,73.133,387.713,76.191z"/>
	<path style="fill:#BCA064;" d="M0,72.926c0.383-10.214,4.911-15.345,15.295-17.754c-1.041,0.552-2.052,1.173-3.128,1.645
		c-6.317,2.773-9.774,7.822-11.49,14.288C0.512,71.729,0.229,72.32,0,72.926z"/>
	<path style="fill:#BCA064;" d="M89.288,110.466c5.046,0,10.093-0.02,15.139,0.035c0.436,0.005,0.867,0.504,1.71,1.03
		c-0.701,0.723-1.165,1.47-1.836,1.814c-0.584,0.3-1.416,0.257-2.114,0.172c-4.368-0.532-8.729-1.119-13.092-1.687
		C89.159,111.375,89.224,110.92,89.288,110.466z"/>
	<path style="fill:#BCA064;" d="M419.124,68.036c-0.166-1.252-0.461-1.881-0.266-2.253c2.022-3.851,4.046-7.705,6.238-11.459
		c0.94-1.61,1.12-1.504,4.503-1.287c-1.401,3.008-4.301,4.507-5.9,6.982C422.151,62.415,420.855,64.974,419.124,68.036z"/>
	<path style="fill:#BCA064;" d="M165.806,100.178c-1.332-5.019-1.117-9.944-0.058-15.764c1.281,1.132,2.532,1.732,2.522,2.309
		C168.189,91.329,167.657,95.887,165.806,100.178z"/>
	<path style="fill:#BCA064;" d="M248.031,143.829c2.974,4.731,4.244,14.161,2.579,20.89c-1.269-2.842-0.759-5.142-0.979-7.289
		c-0.222-2.165-0.23-4.353-0.482-6.513C248.882,148.631,248.439,146.365,248.031,143.829z"/>
	<path style="fill:#BCA064;" d="M314.842,127.235c0.719,8.405-3.631,14.184-9.818,18.976c2.127-2.966,4.613-5.745,6.278-8.951
		C312.92,134.146,313.696,130.594,314.842,127.235z"/>
	<path style="fill:#BCA064;" d="M38.108,192.074c5.218,0,10.034,0,14.849,0c-4.432,2.342-9.296,0.899-13.961,2.535
		C38.645,193.608,38.44,193.023,38.108,192.074z"/>
	<path style="fill:#BCA064;" d="M283.588,196.269c0.828-0.883,1.601-1.708,2.315-2.469c3.557,0.844,4.536,3.696,6.243,6.256
		C288.521,200.435,285.698,199.645,283.588,196.269z"/>
	<path style="fill:#BCA064;" d="M434.905,34.49c-1.151,5.06-2.302,10.121-3.505,15.411C428.872,46.84,429.731,42.843,434.905,34.49z
		"/>
	<path style="fill:#BCA064;" d="M50.174,170.688c-0.59-1.813-1.486-3.588-1.714-5.445c-0.73-5.958-1.149-11.942,1.285-18.799
		c0,1.738,0.063,2.467-0.016,3.18c-0.1,0.902-0.489,1.797-0.455,2.683c0.16,4.172,0.444,8.338,0.637,12.509
		c0.092,1.997,0.08,4,0.115,6L50.174,170.688z"/>
	<path style="fill:#BCA064;" d="M416.401,46.684c-0.676-4.52,0.257-8.723,2.698-12.575C419.251,38.5,418.676,42.741,416.401,46.684z
		"/>
	<path style="fill:#BCA064;" d="M446.176,53.751c-6.027,8.003-6.027,8.003-8.647,7.357
		C438.801,56.662,443.399,56.218,446.176,53.751z"/>
	<path style="fill:#BCA064;" d="M375.405,24.128c0.261-5.292-1.335-9.718-6.819-13.181
		C375.258,12.789,377.699,17.837,375.405,24.128z"/>
	<path style="fill:#BCA064;" d="M165.86,136.421c-2.024-1.615-4.049-3.229-6.154-4.908c-1.698,0.632-3.166,1.178-4.896,1.821
		c0-0.675-0.181-1.392,0.03-1.535c1.314-0.898,2.716-1.667,3.991-2.422C162.47,130.69,164.554,133.141,165.86,136.421z"/>
	<path style="fill:#BCA064;" d="M257.566,193.093c1.895-6.213,3.493-11.455,4.825-15.821
		C263.446,182.189,262.602,185.535,257.566,193.093z"/>
	<path style="fill:#BCA064;" d="M169.693,147.447c2.407,6.183,2.246,12.696,2.199,19.028c-0.427,0.263-0.608,0.408-0.633,0.385
		c-0.13-0.122-0.304-0.281-0.314-0.437C170.517,160.098,170.106,153.772,169.693,147.447z"/>
	<path style="fill:#BCA064;" d="M434.861,154.703c4.344,3.698,4.253,5.848-0.629,11.851
		C435.08,162.204,438.321,158.509,434.861,154.703z"/>
	<path style="fill:#BCA064;" d="M464.573,37.065c1.566-1.103,3.133-2.206,5.011-3.528c0.966,3.865-1.943,4.874-4.172,7.416
		c-0.302-1.898-0.476-2.993-0.65-4.089L464.573,37.065z"/>
	<path style="fill:#BCA064;" d="M341.399,180.831c0.82,4.109-0.869,7.446-4.015,10.232
		C338.722,187.652,340.061,184.242,341.399,180.831z"/>
	<path style="fill:#BCA064;" d="M452.248,57.627c-1.126,1.792-2.253,3.585-3.49,5.554c-0.896-0.376-1.486-0.624-2.428-1.02
		c1.03-2.732,3.171-3.87,5.075-5.241C451.685,57.156,451.966,57.391,452.248,57.627z"/>
	<path style="fill:#BCA064;" d="M251.124,171.606c-0.856,4.251-1.712,8.501-2.568,12.752c-0.333-0.063-0.666-0.125-0.999-0.188
		c0.796-4.334,1.591-8.668,2.387-13.002C250.337,171.314,250.73,171.46,251.124,171.606z"/>
	<path style="fill:#BCA064;" d="M61.061,130.196c0.741-0.743,1.482-1.486,2.223-2.229c0.328,0.344,1.005,0.851,0.932,1.006
		c-0.864,1.84-1.839,3.628-3.62,5.122C60.751,132.795,60.906,131.495,61.061,130.196z"/>
	<path style="fill:#BCA064;" d="M382.757,207.511c-0.418-2.805-0.836-5.611-1.337-8.972
		C384.116,201.584,383.601,204.524,382.757,207.511z"/>
	<path style="fill:#BCA064;" d="M363.918,197.223c-0.831-1.564-2.12-3.043-0.926-4.983c1.461,2.944,1.461,2.944,0.721,4.833
		L363.918,197.223z"/>
	<path style="fill:#BCA064;" d="M50.027,170.816c0.394,1.115,0.788,2.231,1.182,3.346c-0.27,0.067-0.539,0.134-0.809,0.2
		c-0.075-1.225-0.15-2.449-0.225-3.674L50.027,170.816z"/>
	<path style="fill:#BCA064;" d="M445.183,105.347c-0.999,1.476-1.779,2.628-2.497,3.689c-2.622,0.526-4.833,0.653-6.847-2.784
		c3.112,1.276,5.46,1.559,7.044-1.406c-0.591-0.887-1.213-1.82-1.977-2.965c0.681,0.053,1.368-0.101,1.615,0.161
		C443.461,103.039,444.257,104.17,445.183,105.347z"/>
	<path style="fill:#BCA064;" d="M214.393,126.047c2.614-5.122,5.228-10.243,7.823-15.328c5.695-0.406,11.09-0.882,16.496-1.111
		c1.315-0.056,2.665,0.702,3.716,1.004c1.152,3.182,0.226,4.95-2.203,6.315c-7.905,4.44-16.649,6.651-24.937,10.064
		C214.99,126.677,214.692,126.362,214.393,126.047z"/>
	<path style="fill:#BCA064;" d="M203.775,131.489c0.826-2.168,1.535-4.389,2.502-6.492c2.194-4.776,4.514-9.493,6.849-14.372
		c2.163,0,4.118,0,6.681,0c-2.715,5.94-5.404,11.621-8.758,16.87c-1.34,2.097-4.236,3.199-6.423,4.754
		C204.342,131.996,204.059,131.743,203.775,131.489z"/>
	<path style="fill:#BCA064;" d="M198.057,112.748c0.786-0.34,1.572-0.68,2.428-1.05c-2.938,10.937-8.289,23.293-11.645,26.196
		c0.14-1.235,0.058-2.046,0.335-2.707c2.797-6.693,5.668-13.356,8.472-20.047c0.338-0.806,0.403-1.726,0.594-2.593L198.057,112.748z
		"/>
	<path style="fill:#BCA064;" d="M206.16,111.454c-1.717,9.113-6.093,16.55-9.619,24.392c-0.513-0.229-1.026-0.457-1.539-0.686
		c3.152-7.536,6.283-15.082,9.501-22.59C204.723,112.057,205.592,111.82,206.16,111.454z"/>
	<path style="fill:#BCA064;" d="M122.789,69.554c0.876,8.954,1.739,17.968,2.684,26.974c0.064,0.607,0.75,1.149,1.313,1.963
		c7.261-2.718,13.855-6.063,18.186-12.863c-1.347,3.949-3.474,7.206-7.055,9.2c-4.117,2.293-8.344,4.389-12.081,6.339
		c-2.471-0.236-3.564-1.357-3.853-3.157c-0.229-1.427-0.345-2.894-0.303-4.338c0.21-7.27,0.478-14.539,0.755-21.807
		C122.466,71.05,122.68,70.242,122.789,69.554z"/>
</g>
</svg>
