<?xml version="1.0" encoding="iso-8859-1"?>
<!-- Generator: Adobe Illustrator 17.1.0, SVG Export Plug-In . SVG Version: 6.00 Build 0)  -->
<!DOCTYPE svg PUBLIC "-//W3C//DTD SVG 1.1//EN" "http://www.w3.org/Graphics/SVG/1.1/DTD/svg11.dtd">
<svg version="1.1" id="&#x421;&#x43B;&#x43E;&#x439;_1"
	 xmlns="http://www.w3.org/2000/svg" xmlns:xlink="http://www.w3.org/1999/xlink" x="0px" y="0px" viewBox="0 0 463.052 348.103"
	 style="enable-background:new 0 0 463.052 348.103;" xml:space="preserve">
<g>
	<path style="fill:#ded1b4;" d="M261.492,187.011c0.346-0.358,0.8-0.659,1.019-1.083c0.706-1.365,1.314-2.78,1.979-4.167
		c1.474-3.072,2.866-6.163,2.419-9.852c1.086,0,1.909,0,3.077,0c0.344,4.049,0.914,7.943-1.45,11.518
		c-1.757,2.657-3.597,5.258-5.54,8.088c4.532,0,8.876,0,13.087,0c1.71-1.294,0.456-4.042,2.898-5.167
		c0.126,0.79,0.337,1.307,0.263,1.78c-0.625,3.999-1.178,8.015-1.997,11.975c-1.004,4.856-1.702,9.69-1.278,14.68
		c0.279,3.285,0.13,6.606,0.249,9.907c0.051,1.404,0.299,2.801,0.47,4.308c2.062,0.109,3.918,0.425,5.73,0.26
		c4.059-0.37,6.367,2.24,9.018,4.677c-0.386,0.483-0.642,0.802-0.844,1.055c-2.595-0.178-3.172-2.1-3.704-4.153
		c-2.062,0-3.996,0-6.081,0c-0.983,2.699-1.82,5.444-1.391,8.309c0.236,1.574,0.727,3.368,1.726,4.525
		c3.948,4.569,8.142,8.926,12.537,13.676c0.356-1.889,0.784-3.342,0.877-4.816c0.197-3.12,1.666-5.389,4.247-7.012
		c2.234-1.405,4.493-2.77,6.732-4.168c0.538-0.336,1.038-0.733,1.635-1.158c-1.14-3.853-0.854-7.724-0.493-11.507
		c0.499-5.233-0.582-10.286-1.046-15.41c-0.168-1.855-0.286-3.763-0.825-5.526c-0.891-2.919-1.956-5.806-3.214-8.587
		c-2.4-5.304-5.085-10.479-7.452-15.797c-1.085-2.437-2.515-4.339-5.373-5.501c-4.49,0.511-9.358,1.065-14.409,1.64
		c0.444-1.74,0.84-3.292,1.244-4.875c5.571,1.098,10.322-0.149,14.365-3.969c0.447-0.422,1.109-0.683,1.718-0.855
		c6.753-1.905,13.512-3.792,20.279-5.648c1.568-0.43,2.65,0.001,3.1,1.067c0.557,1.318-0.034,2.573-1.756,3.349
		c-5.906,2.664-11.835,5.277-17.754,7.914c-0.68,0.303-1.351,0.627-1.947,0.905c0.744,1.378,1.465,2.602,2.08,3.877
		c1.432,2.969,2.694,6.025,4.236,8.933c4.797,9.044,6.918,18.859,8.61,28.826c0.931,5.48,0.71,10.928,0.08,16.404
		c-0.213,1.851-0.203,3.727-0.312,5.945c-1.79,1.01-3.59,2.297-5.585,3.096c-4.285,1.715-6.535,4.848-7.381,9.263
		c-0.41,2.14-1.094,4.228-1.749,6.694c-5.414-5.126-9.845-10.882-15.256-16.043c-1.516,2.624-1.342,5.538-2.05,8.198
		c-0.726,2.728-1.076,5.556-1.623,8.513c-4.411-2.693-8.927-2.191-13.469-1.917c-3.287,2.958-3.193,7.305-4.475,10.969
		c-5.738,0.36-11.285,0.708-16.831,1.056c1.426,1.294,3.007,1.765,4.725,1.749c1.541-0.014,3.081-0.104,4.622-0.124
		c1.235-0.017,2.477,0.007,3.071,1.968c-0.446,0.728-0.927,1.839-1.691,2.697c-1.72,1.931-2.818,4.155-3.72,6.546
		c-2.093,5.547-3.807,11.201-5.402,16.914c-2.95,10.561-6.198,21.039-9.308,31.556c-1.244,4.205-2.433,8.427-3.686,12.629
		c-0.306,1.028-0.764,2.011-1.127,2.949c-3.777,0-7.283,0.03-10.789-0.014c-1.537-0.02-3.071-0.235-4.609-0.288
		c-8.581-0.294-17.171-0.415-25.742-0.887c-8.558-0.471-17.115-1.118-25.638-2.015c-4.676-0.492-9.477-1.099-13.874-2.645
		c-7.428-2.611-15.229-3.74-22.632-6.336c-1.283-0.45-1.291-0.429-2-1.984c0.884,0.154,1.589,0.236,2.273,0.402
		c9.268,2.247,18.607,4.251,27.763,6.89c3.464,0.999,6.91,1.653,10.426,2.187c0.543,0.082,1.088,0.179,1.636,0.204
		c5.276,0.248,10.549,0.588,15.828,0.7c13.651,0.289,27.305,0.476,40.957,0.699c1.205,0.02,2.411,0.003,3.877,0.003
		c0.647-2.011,1.225-3.986,1.915-5.92c2.028-5.684,4.251-11.302,6.106-17.041c1.413-4.37,2.352-8.891,3.557-13.33
		c0.659-2.427,1.076-5.01,2.225-7.196c2.732-5.199,4.644-10.658,6.064-16.313c0.84-3.346,1.952-6.523,4.4-9.077
		c0.218-0.228,0.333-0.562,0.466-0.86c0.033-0.074-0.049-0.199-0.142-0.529c-0.511-0.08-1.119-0.202-1.733-0.268
		c-6.221-0.667-12.443-1.327-18.665-1.981c-0.766-0.081-1.546-0.222-2.303-0.155c-2.497,0.22-4.444-1.226-7.169-1.993
		c1.003-0.777,1.615-1.25,2.526-1.956c-0.271-2.452-0.567-5.135-0.878-7.953c-2.863,1.702-3.642,4.003-3.196,6.896
		c0.333,2.162,0.535,4.344,0.843,6.91c2.437,0.432,4.994,0.876,7.547,1.341c1.186,0.216,2.373,0.436,3.544,0.72
		c1.784,0.433,2.873,1.551,3.099,3.41c0.239,1.967-0.675,3.781-2.407,4.656c-0.779,0.393-1.615,0.704-2.458,0.932
		c-5.903,1.597-11.951,2.105-17.987,1.469c-3.987-0.42-7.97-1.43-11.205-3.88c-0.272-3.453,0.73-5.288,3.731-6.26
		c3.117-1.009,6.332-1.713,9.714-2.605c0.129-0.808,0.209-1.784,0.446-2.72c1.244-4.926,0.193-9.004-3.878-12.361
		c-2.014-1.661-3.64-3.829-5.289-5.889c-3.582-4.476-5.483-9.622-6.415-15.293c-0.861-5.236-0.055-10.298,0.611-15.409
		c0.921-7.07,1.897-14.133,2.884-21.194c0.15-1.072,0.491-2.118,0.824-3.508c8.606-1.158,17.149-2.391,25.792,0.29
		c0.317,0.58,0.774,1.115,0.916,1.723c1.712,7.367,3.41,14.738,5.037,22.125c0.613,2.783,1.321,5.595,1.455,8.419
		c0.123,2.593-0.282,5.256-0.782,7.825c-1.103,5.661-3.178,10.955-6.624,15.649c-0.186,0.253-0.248,0.597-0.351,0.855
		c3.474,8.706,10.688,10.589,18.161,9.636c4.772-0.608,8.267-3.338,11.748-6.209c2.779-2.292,4.432-5.133,5.438-8.731
		c2.012-7.196,3.751-14.395,4.545-21.838c0.851-7.969,1.931-15.906,1.955-23.951c0.009-3.139,0.582-6.274-0.411-9.433
		c-10.745,0.167-21.495,0.333-32.251,0.5c-0.81-2.61-1.576-4.986-2.28-7.379c-0.419-1.426-0.338-2.842,0.481-4.134
		c3.884-6.127,7.679-12.314,11.708-18.345c2.111-3.159,5.361-5.183,8.524-7.202c1.389-0.887,2.8-1.753,4.264-2.506
		c3.865-1.986,7.037-4.871,10.279-7.687c3.141-2.728,4.365-5.983,2.97-10.117c2.867-3.875,5.154-8.143,8.699-11.529
		c1.826-1.744,3.681-2.312,5.955-1.215c2.965,1.43,4.1,3.016,3.972,5.479c-0.269,5.152-1.774,9.913-4.487,14.294
		c-0.834,1.347-1.851,2.442-3.572,2.639c-1.448,0.165-2.279,1.068-2.88,2.387c-2.979,6.531-5.399,13.236-5.823,20.461
		c-0.4,6.825-2.391,13.138-5.518,19.145c-0.419,0.806-0.689,2.009-2.356,1.272c0.102-0.541,0.1-1.179,0.35-1.694
		c0.331-0.684,0.851-1.278,1.302-1.902c3.39-4.704,4.315-9.959,3.588-15.723c-4.994-1.008-9.844-0.948-14.614,0.808
		c-1.339,0.493-2.649,1.119-4.03,1.427c-1.248,0.279-2.574,0.208-3.974,0.298c-0.629-1.232-1.163-2.277-1.695-3.32
		c-1.71,1.915-1.711,2.073,0.171,5.226c0.896-0.14,1.935-0.281,2.965-0.468c4.095-0.741,8.183-1.518,12.284-2.219
		c0.592-0.101,1.243,0.145,1.93,0.239c0.919,2.609-0.118,4.855-0.774,7.131c-0.692,2.401-1.419,4.791-2.13,7.186
		c-1.277,1.938-2.963,3.635-3.534,5.987C260.237,191.648,261.112,189.472,261.492,187.011z M216.563,276.817
		c-0.163-0.847-0.473-1.655-0.444-2.45c0.09-2.523,0.517-5.049,0.426-7.56c-0.155-4.3,1.685-7.26,5.181-9.615
		c3.304-2.225,6.148-5.041,7.534-8.904c1.181-3.291,2.425-6.623,3.009-10.045c0.45-2.64,1.022-5.353,0.403-8.173
		c-1.644-7.488-3.057-15.028-4.572-22.545c-0.517-2.564-1.064-5.121-1.568-7.535c-6.158-2.748-14.585-3.084-17.989-0.56
		c1.495,0.064,2.688,0.126,3.882,0.162c1.1,0.033,2.203,0.006,3.302,0.061c1.072,0.054,2.213-0.219,3.625,0.419
		c-3.171,1.025-12.368,1.223-16.556,0.458c-1.863,9.9-3.631,19.817-4.666,29.844c-0.222,2.152,0.035,4.392,0.344,6.553
		c0.918,6.417,4.116,11.75,8.264,16.572c1.578,1.835,3.215,3.625,4.916,5.347c2.437,2.466,3.192,5.404,2.835,8.765
		c-0.267,2.511-0.401,5.035-0.635,7.55c-0.081,0.872-0.216,1.753-0.466,2.588c-0.125,0.417-0.564,0.739-1.162,1.472
		c-0.238-1.528-0.395-2.541-0.587-3.771c-2.936,0.751-5.712,1.38-8.436,2.183c-2.198,0.648-2.497,1.283-2.337,4.162
		c1.002,0.362,2.099,0.828,3.235,1.157c6.186,1.789,12.527,2.118,18.922,2.04c2.756-0.034,5.154-0.845,7.333-2.568
		c0-0.884,0-1.722,0-2.79C225.901,278.205,221.56,276.789,216.563,276.817z M283.917,124.948c-0.966,0.959-2.2,1.9-3.066,3.106
		c-1.718,2.393-3.18,4.968-4.853,7.396c-0.915,1.328-1.398,2.681-1.303,4.302c0.149,2.534-0.698,4.767-2.39,6.643
		c-1.248,1.385-2.458,2.844-3.895,4.013c-3.918,3.186-7.937,6.25-11.936,9.335c-2.794,2.155-5.395,4.492-7.597,7.437
		c0.486,1.719-0.734,3.732,1.328,5.426c3.314-1.079,6.666-2.5,10.162-3.217c3.623-0.743,7.387-0.802,11.291-1.18
		c0.123-0.81,0.372-1.659,0.357-2.504c-0.044-2.476,0.56-4.829,1.551-7.024c1.623-3.597,3.461-7.097,5.245-10.619
		c0.713-1.407,1.804-2.43,3.234-3.179c0.833-0.436,1.711-1.091,2.172-1.879c2.601-4.444,5.096-8.953,5.607-14.118
		C288.752,126.541,286.888,125.535,283.917,124.948z M277.041,235.114c-3.494,2.223-6.716,4.272-9.939,6.322
		c0.114,0.223,0.229,0.447,0.343,0.67c3.014-1.07,5.926-2.421,8.765-3.904C277.086,237.744,277.487,236.765,277.041,235.114z
		 M274.18,249.372c-3.414,1.994-6.255,3.652-9.095,5.31c0.094,0.205,0.189,0.41,0.283,0.615c2.898-1.044,5.905-1.79,8.635-3.354
		C274.048,251.296,274.084,250.771,274.18,249.372z M267.534,248.005c2.598-0.986,5.197-1.973,7.72-2.93
		c0.24-0.905,0.417-1.574,0.676-2.554C272.361,243.599,269.883,245.708,267.534,248.005z M277.819,230.699
		c-0.669,0.055-1.449-0.093-1.986,0.202c-1.889,1.037-3.698,2.221-5.529,3.362c-0.52,0.324-1.011,0.692-1.854,1.274
		C271.754,235.229,276.368,233.113,277.819,230.699z M274.495,225.338c-1.91,1.268-3.638,2.414-5.366,3.56
		c2.225,0.135,3.979-0.714,5.635-1.921C274.679,226.456,274.611,226.046,274.495,225.338z M274.508,219.737
		c-0.215-0.12-0.43-0.239-0.645-0.359c-1.353,0.979-2.706,1.959-4.422,3.201c2.153,0.221,3.564-0.455,4.816-1.441
		C274.536,220.919,274.434,220.217,274.508,219.737z M270.84,217.009c3.145-0.713,3.145-0.713,2.843-2.676
		C272.689,215.269,271.764,216.139,270.84,217.009z"/>
	<path style="fill:#ded1b4;" d="M246.985,157.295c-0.321-2.309-2.114-2.913-3.979-3.213c-1.413-0.227-2.12,0.777-2.627,2.018
		c-0.693,1.696-1.535,3.332-2.534,5.465c0.396,1.701,1.692,3.38,3.654,4.513c-0.934,1.539-1.74,3.008-2.685,4.382
		c-0.927,1.347-2.283,1.951-4.085,1.902c-0.37-1.544,0.333-2.498,1.227-3.536c1.757-2.04,1.461-4.244-0.701-5.59
		c-0.599-0.373-1.443-0.527-2.162-0.493c-1.296,0.06-2.58,0.476-3.871,0.482c-1.168,0.005-2.338-0.338-3.666-0.553
		c-0.744,5.794-5.18,7.306-10.165,8.269c0.213,1.002,0.581,1.839,0.516,2.64c-0.096,1.165-0.15,2.629-0.848,3.392
		c-1.782,1.949-2.698,4.206-3.372,6.655c-0.111,0.404-0.429,0.751-0.68,1.173c-0.95,0.143-1.888,0.285-2.965,0.447
		c0.774,2.58,1.492,4.972,2.226,7.417c1.149,0.699,2.312,0.355,3.481,0.068c1.488-0.365,2.972-0.763,4.477-1.045
		c2.099-0.393,4.021-0.896,6.27,0.389c1.46,0.834,3.873,0.737,5.874-0.812c0.505-2.788,0.269-5.677-0.676-8.827
		c1.374-2.717,2.846-5.626,4.32-8.54c1.645,0.468,2.067,1.309,1.439,2.556c-0.689,1.369-1.479,2.688-2.22,4.031
		c-0.684,1.24-1.362,2.483-1.949,3.555c0.693,3.15,1.813,5.976,1.04,9.218c-0.437,0.236-0.989,0.785-1.556,0.801
		c-7.229,0.207-14.46,0.337-21.815,0.49c-1.074-3.778-2.079-7.315-3.201-11.267c1.641-0.211,2.999-0.385,4.601-0.59
		c0.276-0.69,0.63-1.576,1.056-2.643c-3.094-0.59-6.156-1.156-6.734-4.828c-0.476-3.02-0.09-5.774,3.44-7.124
		c-0.524-0.857-0.911-1.49-1.416-2.315c-0.945,0.225-1.866,0.505-2.808,0.652c-0.959,0.15-1.939,0.168-2.914,0.244
		c0.201,1.707,0.485,3.288,0.547,4.878c0.059,1.51-0.229,2.992-1.633,4.139c0.049-0.542,0.187-1.094,0.132-1.625
		c-0.155-1.507-0.126-3.104-0.645-4.487c-1.192-3.174-3.453-4.268-6.836-3.668c-2.725,0.483-4.825,2.839-5.072,5.712
		c-0.081,0.939-0.126,1.882-0.206,3.094c-1.862-0.828-1.732-2.176-1.606-3.438c0.127-1.268,0.411-2.52,0.69-4.155
		c-1.311,0.207-2.241,0.45-3.177,0.474c-0.859,0.022-1.723-0.193-2.748-0.325c-0.53,2.543-0.475,5.333-3.24,6.772
		c-2.236,1.164-4.401,0.93-6.809,0.015c0.733-1.199,1.863-0.653,2.706-0.842c3.016-0.676,4.619-2.636,4.337-5.491
		c-0.009-0.09-0.134-0.169-0.316-0.386c-1.976-0.675-2.159,1.731-3.451,2.46c-1.181,0.057-2.363,0.114-3.688,0.177
		c-0.152-0.641-0.271-1.142-0.405-1.707c0.401-0.106,0.701-0.239,1.006-0.254c0.656-0.033,1.327,0.075,1.972-0.017
		c1.863-0.267,3.024-1.571,3.039-3.315c0.014-1.591-1.331-3.297-3.026-3.359c-1.337-0.048-2.692,0.416-4.301,0.698
		c-0.15-0.497-0.388-1.285-0.599-1.981c1.747-1.944,3.668-1.636,5.834-1.044c0.284-3.292,1.67-6.066,4.18-8.078
		c-1.099-6.331-7.316-8.582-12.433-7.207c-2.503,0.673-4.643,1.958-6.509,3.727c-0.799,0.757-1.578,1.536-2.513,2.45
		c-3.182,0.142-6.551,0.292-9.881,0.44c2.973-10.032,11.545-13.704,20.658-8.696c1.808,0,3.666,0,5.724,0
		c0.31-1.887,0.308-3.973,2.246-5.392c1.941-1.422,3.949-0.862,6.264-0.566c0.668-5.14,1.93-9.975,4.908-14.174
		c0-1.911-0.141-3.795,0.042-5.647c0.16-1.613,0.499-3.263,1.089-4.768c0.98-2.498,2.339-2.931,5.63-1.914
		c-1.09,0.923-1.998,1.76-2.976,2.508c-3.296,2.521-3.536,3.193-2.395,7.267c0.086,0.307,0.268,0.586,0.444,0.962
		c0.355,0.163,0.748,0.499,1.14,0.497c3.66-0.016,5.437,2.497,6.879,5.261c0.972,1.863,2.407,3.036,4.281,4.088
		c1.333-1.234,2.299-2.473,2.684-4.313c0.373-1.783,0.947-3.692,2.002-5.129c2.037-2.774,5.022-3.309,8.349-2.252
		c1.893-2.662,4.361-4.372,7.574-4.828c0.331-0.921,0.613-1.739,0.919-2.548c2.906-7.675,9.702-6.666,13.914-2.426
		c4.579,4.61,2.443,10.691-2.577,12.616c-0.606,0.233-1.195,0.511-1.76,0.755c-0.313,1.365-0.504,2.675-0.927,3.905
		c-0.389,1.13-1.028,2.173-1.622,3.389c0.677,1.659,1.4,3.429,2.178,5.336c1.228-0.626,0.709-1.549,0.61-2.3
		c-0.713-5.423,1.46-9.037,6.541-11.134c5.109-2.108,10.184,1.225,10.815,6.241c0.329,2.611,0.434,5.295-0.928,7.73
		c-0.605,1.081-0.616,2.065,0.2,3.254c2.475-0.982,5.009-2.093,7.764-0.696c1.971,0.998,3.333,2.509,4.119,4.514
		c1.745,4.453,0.39,9.177-3.413,10.792c-3.953,1.679-8.613,1.352-11.331-4.151c-1.367,0.618-2.736,1.236-4.326,1.955
		c0.031,0.603,0.066,1.298,0.11,2.158c4.32-0.19,7.397,1.384,9.034,5.366c-0.858,0.625-1.486,1.57-2.606,0.715
		C247.383,158.237,247.184,157.766,246.985,157.295z M186.58,154.054c-3.559-2.122-5.16-1.946-8.894,0.978
		c-2.171,2.261-1.792,4.772-0.508,7.211c1.154,2.193,3.789,3.167,6.157,2.551C188.396,163.48,189.984,158.223,186.58,154.054z
		 M212.397,142.484c-0.453-0.951-0.885-1.859-1.347-2.829c-0.483,0.371-0.72,0.619-1.009,0.765
		c-3.186,1.611-6.279,0.516-7.543-2.653c-1.054-2.644,0.886-7.098,3.462-7.949c1.915-0.632,3.595,0.049,4.949,2.052
		c0.234,0.346,0.336,0.781,0.498,1.175c0.229-0.132,0.458-0.264,0.687-0.396c0.203-0.661,0.406-1.322,0.588-1.915
		c-0.959-0.681-1.707-1.345-2.567-1.793c-1.797-0.936-3.731-1.381-5.667-0.519c-3.165,1.41-4.776,6.579-3.094,9.63
		c0.933,1.693,1.846,3.397,2.719,5.004c-0.633,2.334-1.226,4.52-1.814,6.69c-2.089,0.288-4.109,0.567-6.098,0.842
		c-1.461-1.512-2.891-3.027-4.36-4.503c-1.461-1.468-3.178-2.125-5.326-2.116c-2.742,0.011-5.039,1.127-7.421,2.114
		c-0.459,1.744,0.23,2.868,1.479,3.904c3.553-0.305,6.347,1.053,8.535,3.895c2.189,2.845,1.956,6.001,1.262,9.172
		c1.978,0,3.697,0,5.483,0c-0.2-0.693-0.321-1.323-0.562-1.904c-1.001-2.41-0.101-4.462,1.05-6.544
		c1.089-1.969,2.706-2.692,4.87-2.681c1.14,0.006,2.281-0.281,3.38-0.43C205.281,145.975,206.142,143.381,212.397,142.484z
		 M229.163,137.187c-0.043-3.94-2.436-7.556-5.731-8.311c-5.479-1.255-8.695,1.404-10.096,7.15
		c-0.386,1.585-0.062,3.559,0.537,5.125c1.347,3.519,5.105,5.37,8.542,4.589C226.611,144.784,229.21,141.491,229.163,137.187z
		 M215.449,154.041c-3.96,0.058-7.665,3.894-7.491,7.755c0.171,3.781,3.848,7.335,7.617,7.363c3.854,0.028,7.617-3.55,7.385-7.414
		C222.665,156.82,219.293,154.195,215.449,154.041z M238.431,153.231c-0.033-5.191-3.161-8.555-7.912-8.508
		c-4.103,0.04-8.29,3.526-8.318,6.925c-0.038,4.65,4.049,9.2,8.27,8.936C236.04,160.235,238.867,156.589,238.431,153.231z
		 M239.734,147.684c5.734-1.316,8.08-4.326,6.912-8.737c-1.131-4.272-5.775-6.805-10.061-5.467c-1.968,0.614-3.468,1.846-4.419,3.67
		c-0.902,1.73-1.102,3.507,0.08,5.445C235.597,142.884,237.683,145.336,239.734,147.684z M227.602,128.036
		c2.11-2.494,1.74-5.232,1.377-7.934c-0.064-0.48-0.513-0.977-0.905-1.334c-2.748-2.507-5.963-3.12-9.465-2.062
		c-3.24,0.978-5.083,3.159-5.499,6.604c-0.353,2.923-0.155,3.345,3.119,4.348C219.938,125.568,223.789,125.641,227.602,128.036z
		 M253.06,138.787c-1.174,0.421-2.492,0.893-3.76,1.348c-0.549,1.645-1.111,3.074-1.498,4.548c-0.652,2.488,0.095,4.859,1.744,5.929
		c2.305,1.496,6.127,1.082,7.906-0.858c2.294-2.5,2.374-4.871,0.523-7.678C256.878,140.412,255.516,139.309,253.06,138.787z
		 M230.652,118.908c2.127,0.274,3.079-0.711,3.871-1.99c2.413-3.891,0.94-8.215-3.797-9.984c-3.36-1.255-5.819-0.162-6.982,3.233
		c-0.8,2.335-0.6,2.78,1.419,3.947C227.307,115.352,229.58,116.465,230.652,118.908z M207.278,157.062
		c-2.304-3.343-5.166-4.075-7.992-2.024c-2.796,2.03-3.457,5.543-1.524,8.099c2,2.645,5.1,2.78,8.431,0.32
		C206.529,161.475,206.874,159.438,207.278,157.062z M245.674,133.696c2.523-3.291,2.642-6.246,0.554-8.915
		c-1.66-2.122-5.285-3.179-7.743-2.257c-3.026,1.135-4.411,4.477-3.811,9.191c2.249-1.504,4.718-0.892,6.669-0.827
		C242.966,131.94,244.22,132.753,245.674,133.696z M220.297,153.098c-0.218-1.814-0.399-3.322-0.567-4.72
		c-1.526-0.648-3.015-1.081-4.287-1.866c-2.116-1.305-4.283-1.46-6.605-0.98c-1.568,1.986-2.739,4.043-2.858,6.692
		c1.02,0.921,2.073,1.872,3.138,2.834C213.041,151.73,214.046,151.536,220.297,153.098z M210.931,169.259
		c-3.209,0.985-4.457,2.274-4.257,4.281c0.189,1.9,2.012,3.508,4.095,3.611c1.903,0.094,3.487-0.899,3.854-2.417
		C215.224,172.252,214.185,170.66,210.931,169.259z M204.082,138.532c0.387,0.108,0.795,0.248,1.214,0.334
		c2.946,0.6,4.558-0.575,4.903-3.563c0.214-1.853-0.607-2.956-2.39-3.132c-1.59-0.157-3.119,0.063-4.035,1.538
		C202.863,135.176,202.612,136.737,204.082,138.532z M181.464,140.426c-1.179-3.142-2.021-3.968-3.816-3.752
		c-1.515,0.183-2.545,1.229-2.758,2.804c-0.31,2.284,0.24,3.081,2.98,4.339C179.829,143.47,180.984,142.296,181.464,140.426z
		 M190.195,135.132c0.167,0.113,0.334,0.226,0.501,0.339c1.787-2.422,3.573-4.844,5.226-7.085c-0.304-0.649-0.474-1.011-0.71-1.514
		C193.368,129.909,191.782,132.521,190.195,135.132z M192.003,138.943c2.596-1.57,4.713-3.476,4.883-6.738
		C195.258,134.452,193.631,136.697,192.003,138.943z M192.424,124.482c-0.98,1.192-2.084,2.306-2.903,3.601
		c-0.756,1.195-2.496,2.026-1.765,4.496C188.886,129.213,191.745,127.585,192.424,124.482z"/>
	<path style="fill:#ded1b4;" d="M353.479,239.199c-2.022,0.068-3.916,0.421-5.145,2.184c0.607,3.452,1.193,6.782,1.784,10.147
		c0.772,0.409,1.519,0.805,2.534,1.343c-3.394,0.313-6.456,0.488-9.486,0.902c-4.235,0.578-8.492,1.131-12.653,2.076
		c-3.771,0.857-7.188,2.652-9.987,5.402c-0.652,2.616-0.043,4.776,2.281,6.027c5.239,2.822,10.122,6.474,16.328,7.132
		c5.564,0.591,11.114,1.311,16.674,1.941c14.371,1.628,28.797,1.383,43.215,1.162c10.819-0.165,21.447-1.774,31.751-5.111
		c3.353-1.086,6.066-3.348,8.056-6.325c1.015-1.518,1.074-3.213-0.048-4.63c-1.143-1.443-2.447-2.832-3.918-3.927
		c-3.271-2.435-7.155-3.238-11.13-3.666c-0.533-0.057-1.065-0.19-1.575-0.357c-0.167-0.055-0.262-0.332-0.412-0.538
		c0.08-1.033,0.846-1.226,1.626-1.059c4.961,1.059,9.816,2.528,14.11,5.262c1.494,0.952,2.658,2.631,3.589,4.205
		c1.164,1.968,0.896,4.104-0.759,5.76c-3.79,3.792-7.723,7.193-13.223,8.624c-9.413,2.449-18.855,4.02-28.622,3.903
		c-7.364-0.088-14.734,0.456-22.104,0.626c-3.963,0.091-7.942,0.17-11.893-0.08c-3.937-0.249-7.869-0.779-11.764-1.427
		c-7.146-1.188-14.18-2.867-21.083-5.111c-3.764-1.223-7.106-3.252-10.432-5.259c-1.383-0.835-2.226-2.566-3.395-3.988
		c-0.718,0.11-1.821,0.378-2.934,0.434c-5.036,0.257-6.697,1.071-10.278,5.285c-0.053,0.471-0.171,1.118-0.186,1.768
		c-0.015,0.653,0.073,1.308,0.115,1.954c1.249,1.914,3.29,2.673,5.143,3.517c10.34,4.713,21.114,8.047,32.406,9.508
		c6.097,0.789,12.223,1.347,18.338,1.992c5.788,0.611,11.569,1.349,17.372,1.738c3.27,0.219,6.583-0.094,9.871-0.275
		c3.512-0.194,7.027-0.426,10.523-0.8c7.313-0.783,14.618-1.652,21.921-2.523c2.724-0.325,5.433-0.77,8.153-1.13
		c5.082-0.672,9.612-2.988,14.214-4.812c1.183,0.207,2,0.711,2.101,1.874c0.104,1.199-0.772,1.728-1.704,2.162
		c-4.703,2.193-9.548,3.921-14.763,4.374c-8.102,0.703-16.251,1.055-24.301,2.139c-11.965,1.61-23.95,1.338-35.932,1.031
		c-11.114-0.285-22.043-2.207-32.865-4.735c-3.307-0.772-6.655-1.369-9.983-2.054c-5.274-1.086-10.397-2.638-15.265-4.971
		c-0.406-0.206-0.812-0.412-1.218-0.618c-1.191-0.934-2.381-1.87-3.574-2.801c-2.975-2.322-3.594-6.264-1.421-9.375
		c1.432-2.051,3.237-3.375,5.897-3.679c2.807-0.321,5.559-1.118,8.59-1.762c0.13-2.445,1.995-3.816,4.258-4.95
		c5.463-2.739,11.361-3.996,17.276-5.195c2.77-0.562,5.564-1.003,8.685-1.559c-0.55-2.288-1.075-4.468-1.566-6.509
		c-2.704,0-5.091,0.093-7.467-0.021c-3.956-0.19-7.893-0.613-11.655-1.958c-1.194-0.427-2.124-1.196-2.076-2.656
		c0.048-1.453,0.674-2.597,2.048-3.101c1.021-0.375,2.129-0.54,3.213-0.71c1.63-0.255,3.273-0.423,4.907-0.651
		c0.31-0.043,0.604-0.192,1.073-0.348c0.235-1.698,0.607-3.417,0.688-5.15c0.267-5.717,0.345-11.444,0.67-17.157
		c0.132-2.322-0.845-3.773-2.702-4.84c-1.612-0.925-3.247-1.809-4.665-2.595c-0.2-0.483-0.363-0.687-0.354-0.884
		c0.286-6.665-1.366-13.078-2.532-19.554c-0.195-1.08-0.432-2.158-0.537-3.247c-0.033-0.341,0.303-0.718,0.663-1.493
		c0.471,0.922,0.9,1.425,0.985,1.981c0.698,4.557,1.718,9.11,1.875,13.691c0.15,4.372,4.69,8.648,9.664,8.167
		c2.594-0.251,5.11-0.716,6.931-3.101c1.59-2.083,3.617-3.832,5.9-5.418c-0.246,0.492-0.406,1.057-0.753,1.462
		c-1.561,1.823-3.14,3.633-4.776,5.388c-3.121,3.348-8.758,4.044-12.682,1.576c-1.102-0.693-2.13-1.501-3.216-2.274
		c-0.44,0.984-0.042,1.787,0.96,2.447c1.377,0.908,2.744,1.836,4.08,2.803c1.223,0.885,1.891,2.083,1.951,3.634
		c0.237,6.156,0.532,12.31,0.746,18.467c0.096,2.773-0.437,5.453-1.521,8.005c-3.694,0.906-7.629,0.798-11.27,3.05
		c1.738,1.851,3.568,2.667,5.671,2.725c4.286,0.119,8.579,0.176,12.981-0.816c0.339-0.855,0.554-1.842,1.087-2.609
		c0.478-0.688,1.306-1.132,2.05-1.741c-2.119-1.233-4.279-1.136-6.815-0.003c-0.29-2.897-0.797-5.581-0.778-8.261
		c0.042-6.047,0.347-12.091,0.536-18.137c0.056-1.778,0.849-3.156,2.236-4.215c0.787-0.601,1.561-1.232,2.407-1.74
		c3.612-2.169,6.481-5.17,9.137-8.352c2.928-3.509,4.485-7.466,3.538-12.207c-1.097-5.487-1.969-11.019-2.967-16.527
		c-0.092-0.509-0.386-0.981-0.636-1.591c-9.101,0.338-18.095,0.423-27.753-0.879c7.569-1.209,14.511-0.064,21.933-0.549
		c-8.458-1.615-17.49-1.961-23.287-0.964c-0.584,2.189-1.117,4.418-1.781,6.607c-0.619,2.04-0.348,4.331-1.692,6.438
		c-0.375-2.482,0.906-8.816,2.686-13.664c9.171-2.527,18.55-2.764,28.012-1.568c1.961,0.248,2.883,1.215,3.312,3.51
		c0.747,3.992,1.48,7.989,2.097,12.002c0.5,3.251,1.004,6.519,1.176,9.797c0.25,4.75-1.871,8.678-4.727,12.335
		c-2.477,3.172-5.601,5.532-8.988,7.546c-2.946,1.751-4.312,4.051-4.163,7.56c0.201,4.725-0.064,9.467,0.033,14.199
		c0.043,2.06,0.491,4.112,0.785,6.407c3.88,0.441,7.468,2.025,11.544,1.155c-3.586-1.782-3.586-1.782-2.793-4.895
		c1.302-1.641,3.321-1.528,5.096-1.95c1.674-0.397,3.403-0.557,5.278-0.847c0.233-3.56,0.485-6.836,0.651-10.116
		c0.183-3.627,0.166-7.267,0.46-10.883c0.281-3.458-0.574-6.268-3.591-8.228c-0.449-0.292-0.803-0.728-1.372-1.256
		c1.644-2.733,3.279-5.531,3.436-8.731c0.154-3.119-0.152-6.261-0.273-9.911c1.977,5.655,1.607,10.821-0.156,15.846
		c2.891,1.71,6.198,1.402,8.639-0.772c0.974-0.867,1.75-1.963,2.581-2.983c0.807-0.99,1.57-2.016,2.552-2.839
		c-2.059,4.109-4.48,7.837-9.298,9.271c-1.83,0.545-3.14-0.496-4.931-0.94c0.34,0.544,0.582,1.194,1.036,1.614
		c1.474,1.36,2.088,3.054,2.183,4.99c0.264,5.387,0.645,10.772,0.729,16.161c0.044,2.836-0.443,5.679-0.672,8.52
		c-0.033,0.413,0.038,0.834,0.069,1.388c1.602-0.892,1.394-2.234,1.382-3.531c-0.04-4.403-0.136-8.807-0.054-13.208
		c0.059-3.185,0.328-6.368,0.58-9.546c0.143-1.796,0.83-3.316,2.255-4.585c2.293-2.044,4.559-4.15,6.596-6.442
		c4.176-4.699,5.051-10.323,4.16-16.366c-0.849-5.757-1.634-11.523-2.491-17.279c-0.645-4.331-1.36-8.651-2.017-12.81
		c-5.873-0.171-11.546-0.336-17.559-0.511c-1.514,4.764-1.953,9.976-3.233,14.966c-0.242-0.047-0.485-0.093-0.727-0.14
		c0.392-2.85,0.746-5.705,1.187-8.547c0.37-2.385,0.83-4.757,1.274-7.13c0.373-1.994,0.801-2.524,2.787-2.559
		c4.733-0.083,9.47-0.099,14.201,0.029c2.575,0.07,3.081,0.816,3.438,3.442c0.785,5.768,1.767,11.512,2.427,17.293
		c0.76,6.652,2.053,13.259,1.616,20.028c-0.296,4.587-1.771,8.592-4.931,11.925c-1.513,1.596-3.108,3.12-4.725,4.613
		c-2.438,2.251-3.924,4.785-3.745,8.319c0.161,3.17-0.361,6.369-0.338,9.554c0.021,2.957,0.362,5.912,0.59,9.274
		c0.757-0.736,1.33-1.166,1.744-1.716c4.784-6.352,8.674-13.232,11.824-20.52c1.302-3.011,2.354-6.13,3.537-9.194
		c0.264-0.685,0.6-1.343,1.18-2.628c0,1.095,0.111,1.547-0.016,1.917c-3.979,11.578-9.062,22.611-16.24,32.595
		c-3.866,5.379-8.489,9.799-15.053,11.73c-0.161,0.048-0.257,0.32-0.383,0.487L353.479,239.199z M362.811,230.786
		c-3.356,0.591-6.874,0.711-10.075,2.796C356.963,236.295,358.716,235.82,362.811,230.786z M359.404,143.716
		c9.144,1.431,10.95,1.464,13.068,0.299C369.109,142.831,365.813,142.727,359.404,143.716z"/>
	<path style="fill:#ded1b4;" d="M155.53,260.099c-1.405-5.283-2.209-10.421-1.415-15.756c0.322-2.165,0.204-4.394,0.323-6.592
		c0.196-3.623,0.454-7.243,0.622-10.868c0.084-1.807,1.149-3.025,2.239-4.279c0.68-0.782,1.811-1.297,1.746-2.587
		c-0.26-0.084-0.509-0.236-0.579-0.177c-2.903,2.467-5.931,2.012-8.836,0.167c-1.553-0.986-3.011-2.242-4.206-3.638
		c-1.608-1.878-2.921-4.009-4.36-6.032c0.18-0.156,0.36-0.313,0.54-0.469c0.371,0.392,0.77,0.761,1.108,1.179
		c1.52,1.882,2.916,3.877,4.556,5.646c2.354,2.54,5.459,3.169,8.773,2.779c0.799-0.094,1.543-0.667,2.483-1.099
		c-2.726-6.676-2.477-13.223-0.057-19.754c-0.153,1.35-0.301,2.701-0.461,4.05c-0.453,3.842-0.756,7.701,0.469,11.444
		c0.609,1.859,1.585,3.599,2.415,5.383c0.311,0.667,0.681,1.307,1.155,2.21c-1.303,1.034-2.457,2.014-3.679,2.903
		c-1.548,1.126-2.243,2.541-2.191,4.502c0.171,6.386,0.153,12.778,0.356,19.163c0.101,3.166,0.526,6.322,0.823,9.699
		c2.418,0.379,4.787,0.726,7.145,1.131c1.187,0.204,2.385,0.426,3.525,0.8c1.333,0.437,2.178,1.372,2.466,2.83
		c0.328,1.663-0.109,2.849-1.703,3.4c-1.337,0.462-2.772,0.637-4.162,0.945c-6.473,1.43-13.047,1.517-19.806,1.457
		c0.157,0.713,0.343,1.395,0.455,2.088c0.502,3.118-0.487,5.441-3.166,7.36c-5.29,3.789-11.146,6.113-17.434,7.452
		c-8.471,1.803-16.93,3.687-25.452,5.217c-7.574,1.36-15.251,2.019-22.958,2.109c-5.617,0.066-11.241,0.241-16.851,0.05
		c-4.935-0.168-9.854-0.774-14.78-1.191c-2.958-0.25-5.918-0.482-8.872-0.769c-6.558-0.635-13.118-1.248-19.666-1.972
		c-3.983-0.44-7.609-2.101-11.186-3.773c-2.415-1.129-2.39-2.179,0.023-4.096c1.212,0.473,2.571,0.895,3.834,1.515
		c5.417,2.657,11.262,3.578,17.152,4.329c6.317,0.806,12.632,1.624,18.955,2.384c2.836,0.341,5.684,0.728,8.533,0.789
		c6.469,0.138,12.877,1.204,19.424,0.307c8.045-1.103,16.196-1.412,24.283-2.242c13.947-1.432,27.492-4.509,40.275-10.445
		c1.972-0.915,3.828-2.078,5.365-2.921c1.352-3.489,0.102-5.579-2.223-7.346c-2.076-1.578-4.281-2.609-6.978-2.513
		c-1.265,0.045-2.542-0.26-4.051-0.434c-0.662,2.951-3.322,4.323-6.051,5.806c-9.595,5.214-20.123,6.996-30.693,8.792
		c-11.279,1.916-22.565,1.377-33.888,0.742c-5.273-0.296-10.575-0.046-15.857-0.233c-9.06-0.321-17.849-2.153-26.367-5.237
		c-4.046-1.465-6.728-4.737-9.61-7.671c-1.194-1.216-1.345-2.912-0.69-4.627c0.906-2.373,2.47-4.21,4.636-5.392
		c4.069-2.219,8.46-3.647,12.972-4.661c0.62-0.139,1.356,0.238,2.058,0.38c-0.182,1.543-1.132,1.445-1.981,1.528
		c-3.981,0.392-7.864,1.196-11.141,3.627c-1.473,1.093-2.79,2.47-3.933,3.912c-1.22,1.539-1.088,3.34,0.059,4.913
		c2.095,2.87,4.775,5.128,8.174,6.185c7.88,2.45,15.94,3.973,24.199,4.577c11.994,0.878,23.998,0.697,35.987,0.363
		c8.23-0.229,16.445-1.167,24.653-1.93c2.942-0.273,5.864-0.869,8.761-1.481c5.328-1.125,9.692-4.331,14.334-6.908
		c2.067-1.147,2.584-3.162,2.131-5.77c-2.616-2.779-6.149-4.575-10.006-5.484c-4.151-0.978-8.417-1.498-12.65-2.091
		c-2.876-0.403-5.782-0.587-9.271-0.928c2.385-1.269,4.471-1.82,6.45-1.482c6.699,1.144,13.42,2.282,19.833,4.658
		c1.438,0.533,2.822,1.222,4.207,1.889c2.069,0.995,3.715,2.357,3.796,4.784c2.913,0.566,5.68,1.103,8.641,1.678
		c0.37-3.013,2.608-3.974,5.198-4.537c2.453-0.532,4.899-1.098,7.464-1.676c0.916-5.178,1.392-10.274,1.132-15.451
		c-0.188-3.739-0.323-7.493-0.195-11.231c0.104-3.027-1-5.259-3.22-7.208c-2.48-2.177-4.891-4.45-7.17-6.836
		c-3.958-4.143-5.853-9.219-6.195-14.888c-0.306-5.08,0.427-10.094,1.079-15.11c0.538-4.136,1.024-8.28,1.583-12.413
		c0.735-5.437,1.522-10.866,2.281-16.299c0.137-0.978,0.239-1.961,0.379-2.938c0.266-1.86,1.114-2.922,2.888-3.048
		c6.695-0.474,13.399-0.899,20.092,0.047c0.305,0.043,0.583,0.28,1.179,0.58c1.537,6.999,2.676,14.237,3.359,21.562
		c-1.674-2.796-1.797-5.967-2.453-8.999c-0.647-2.995-1.244-6.001-1.93-9.327c-7.084,0.217-14.075,1.219-21.365,0.336
		c-0.333,1.527-0.761,3.07-0.997,4.643c-0.978,6.51-1.941,13.023-2.826,19.546c-0.768,5.656-1.343,11.338-2.153,16.988
		c-0.657,4.58,0.55,8.706,2.665,12.653c2.28,4.254,5.783,7.455,9.338,10.597c0.742,0.656,1.539,1.257,2.231,1.961
		c1.104,1.124,1.849,2.427,1.912,4.08c0.041,1.094,0.375,2.182,0.379,3.273c0.032,9.14,0.038,18.28-0.012,27.42
		c-0.005,0.929-0.423,1.856-0.717,3.059c-0.902-0.605-1.504-1.009-2.506-1.682c-2.838,0.828-5.983,1.708-9.09,2.706
		c-0.35,0.112-0.487,0.885-0.729,1.365c1.054,1.772,2.809,1.898,4.362,2.102c2.936,0.386,5.903,0.6,8.863,0.723
		c2.859,0.119,5.727,0.067,8.59,0.03c2.463-0.032,4.698-0.773,6.697-2.285C166.725,262.282,162.637,261.008,155.53,260.099z
		 M143.026,155.131c6.272,1.655,11.654-0.057,17.091-0.688C153.455,153.274,147.84,153.493,143.026,155.131z"/>
	<path style="fill:#ded1b4;" d="M246.661,83.869c0-2.501,0-4.3,0-6.448c2.034-1.657,4.79-1.811,7.49-1.272
		c2.336,0.467,3.553,2.428,4.237,4.622c0.257,0.825,0.408,1.702,0.472,2.565c0.081,1.089,0.452,1.901,1.57,2.297
		c1.253-0.601,1.413-1.584,0.829-2.698c-0.352-0.673-0.959-1.207-1.366-1.857c-1.533-2.452-2.249-4.99-0.805-7.777
		c0.498-0.961,0.841-2.001,1.33-3.187c2.243,0,3.08-1.67,3.624-3.542c4.64-1.223,5.424-4.951,6.226-9.155
		c-5.644,0.227-9.961,2.589-13.899,6.934c0.243-2.56,1.058-4.131,2.763-5.268c2.496-1.666,5.171-2.99,8.137-3.406
		c1.676-0.235,3.278-1.507,5.284-0.483c-0.402,3.105-1.09,6.113-3.223,8.975c0.769,0.767,1.571,1.567,2.577,2.571
		c0.606,2.704,0.606,2.704,2.8,3.815c0,1.04-0.026,2.233,0.012,3.424c0.017,0.535-0.025,1.356,0.278,1.55
		c1.428,0.912,1.376,2.306,0.909,3.452c-0.466,1.143-1.477,2.091-2.351,3.03c-0.59,0.634-1.557,0.977-1.994,1.677
		c-0.535,0.856-0.692,1.948-0.996,2.888c2.703,1.342,2.703,1.342,4.47-2.684c1.069-0.499,2.346-1.095,3.371-1.574
		c0.94,0.375,1.595,0.865,2.219,0.829c0.841-0.049,1.643-0.571,2.49-0.768c1.478-0.345,3.038-1.294,4.251,0.674
		c0.238,0.385,1.281,0.194,1.862,0.462c2.108,0.973,4.711,1.276,5.574,4.028c0.102,0.326,0.664,0.526,1.035,0.745
		c1.48,0.873,2.97,1.731,4.543,2.646c-1.104,0.884-2.099,1.68-3.718,2.976c0.84,0.336,1.349,0.539,2.039,0.815
		c-1.412,1.218-2.568,2.215-3.906,3.368c-0.093,0.751-0.212,1.705-0.308,2.485c-2.115,1.666-4.086,3.219-6.237,4.913
		c-1.521,0.115-3.556-1.344-4.902,1.117c-2.057-0.68-3.989-1.319-6.299-2.083c0.55,1.338,1.048,2.547,1.639,3.986
		c-2.065,1.677-1.221,3.954-0.662,6.335c-2.513,1.239-2.884,3.377-2.124,6.229c-1.032-0.309-1.831-0.338-2.339-0.737
		c-1.912-1.502-3.89-1.921-6.265-0.463c-1.023-1.3-1.973-2.509-2.978-3.786c-0.981,0.5-1.618,0.825-2.449,1.249
		c-1.438-1.177-2.945-2.41-4.87-3.986c-0.056-1.146-0.141-2.872-0.231-4.704c-1.655,0-3.186,0-5.348,0
		c-0.274,0.158-1.115,0.641-1.969,1.132c-1.413-3.473-0.342-7.085-1.196-10.662c1.317-2.071,3.132-3.396,5.866-3.293
		c1.699,0.064,3.3-0.252,4.034-2.128c-0.564-1.288-1.504-1.922-2.858-1.857c-2.953,0.14-5.298-1.166-7.339-2.95
		C247.447,86.903,246.96,85.024,246.661,83.869z M254.916,101.763c1.447-1.16,2.907-2.303,4.335-3.485
		c1.285-1.064,2.682-1.41,4.507-0.79c0.376,1.693,0.77,3.463,1.144,5.146c-2.009,1.594-3.533,3.191-4.096,6.049
		c1.739-1.608,2.453-3.825,4.889-3.521c1.883,2.528-1.445,4.606-0.678,7.046c0.815-0.952,1.572-1.836,2.334-2.727
		c2.196,1.662,2.404,4.467,4.49,5.945c-0.123-1.081-0.495-2.045-0.82-3.025c-0.046-0.139,0.139-0.354,0.193-0.479
		c0.669,0.067,1.313,0.132,1.957,0.196c0.054-0.169,0.108-0.338,0.162-0.508c-1.129-0.6-2.257-1.199-3.602-1.914
		c-0.462-1.078-1.003-2.341-1.535-3.582c2.304-1.238,3.828,0.835,5.904,1.129c-1.686-2.509-3.976-2.984-6.555-2.869
		c-0.759-3.121-1.475-6.064-2.153-8.855c-4.135-1.277-6.38,1.374-8.604,3.401c-1.18-0.134-2.129-0.276-3.083-0.331
		c-0.295-0.017-0.604,0.201-1.505,0.531c1.661,0.473,2.374,0.676,3.082,0.878c-0.099,0.642-0.193,1.247-0.286,1.853
		c-1.227,0.205-2.455,0.41-3.682,0.615c0.01,0.144,0.02,0.287,0.03,0.431c0.696,0.202,1.393,0.403,2.204,0.638
		C254.017,102.926,254.467,102.344,254.916,101.763z M278.865,100.779c4.593,2.781,12.492,2.231,13.712-1.169
		c0-0.727,0-1.587,0-2.524c1.01-0.491,1.971-0.958,2.247-1.092c0.932-1.975,1.568-3.321,2.274-4.818
		c-2.529-1.149-4.872-2.215-7.1-3.227c0.092-0.878,0.144-1.372,0.205-1.942c-2.535-0.714-4.987-1.405-7.956-2.241
		c-0.402,0.212-1.324,0.868-2.35,1.192c-0.989,0.312-2.087,0.281-3.25,0.413c-1.425,2.405-4.153,4.111-4.142,7.458
		c1.684,0.524,2.373-0.417,3.152-1.384c1.916-2.378,1.946-2.354,3.744-3.218c-0.607,1.372-1.171,2.647-1.818,4.11
		c0.804,0.065,1.435,0.116,1.893,0.153c2.03-1.427,3.181-3.658,5.873-4.672c-1.212,1.829-2.908,2.745-3.116,5.024
		c1.804,0.187,3.523,0.364,5.577,0.577c-0.765,0.308-1.162,0.468-1.657,0.667c0.599,0.953,1.167,1.857,1.736,2.761
		c-0.141,0.133-0.282,0.266-0.423,0.4c-1.328-0.898-2.657-1.796-4.06-2.745c-1.082,0.089-2.318-0.247-3.484,0.78
		c0.792,1.679,1.557,3.3,2.523,5.348c-2.608-1.288-3.725-3.44-5.216-5.427c-0.6,0.144-1.169,0.281-1.82,0.438
		C276.619,97.437,277.696,99.039,278.865,100.779z M265.295,76.075c-0.674-0.78-1.101-1.274-1.651-1.911
		c0.065,3.773,0.065,3.773-0.744,4.973c-0.445-0.515-0.884-0.996-1.292-1.501c-0.355-0.439-0.675-0.907-1.176-1.587
		c-0.23,3.395,0.021,4.057,2.399,6.762c2.452,2.789,2.769,6.19,0.897,9.633c-1.12,0.351-1.871-0.15-2.531-1.014
		c-0.663-0.869-1.334-1.754-2.132-2.492c-1.162-1.075-2.011-2.208-2.295-3.857c-0.229-1.333-0.925-2.585-1.414-3.873
		c-0.125,0.036-0.25,0.072-0.374,0.108c0.094,1.179,0.187,2.358,0.281,3.537c-0.955-0.778-1.645-1.695-2.126-2.712
		c-0.459-0.968-0.7-2.038-1.037-3.063c-0.366,0.645-0.243,1.28-0.485,1.709c-0.247,0.438-0.852,0.674-1.289,0.99
		c0.629,0.975,1.13,1.754,1.708,2.65c-1.065,0.196-1.88,0.345-2.947,0.541c1.303,1.509,2.921,0.534,4.386,1.182
		c0.279,0.357,0.693,0.888,1.251,1.604c-0.777,0.062-1.213,0.078-1.643,0.136c-0.334,0.045-0.662,0.14-0.993,0.213
		c-0.072,0.223-0.144,0.447-0.216,0.67c4.313-0.231,7.087,2.149,9.484,5.208c1.586-0.152,3.06-0.294,4.647-0.446
		c0-3.189,0-6.013,0-8.862c2.988-2.412,2.988-2.412,3.978-4.479c-1.371,0.62-2.661,1.203-4.066,1.839
		c-0.199-3.419,3.511-4.73,3.3-7.919c-0.781,0.865-1.445,1.599-2.539,2.811c0-2.157,0-3.62,0-5.708
		C266.121,73.167,265.746,74.486,265.295,76.075z M268.444,93.116c2.136-0.445,2.136-0.445,2.406-3.019
		c-0.593-1.281-1.023-2.351-1.582-3.348c-0.208-0.372-0.716-0.576-1.366-1.068C267.351,88.505,266.929,90.878,268.444,93.116z
		 M271.746,99.695c-0.591,1.607-0.397,2.654,0.814,3.142c0.615,0.248,1.413,0.043,2.497,0.043c-0.159-1.168-0.279-2.053-0.415-3.053
		C273.523,99.776,272.689,99.738,271.746,99.695z M259.858,104.148c1.245-0.657,1.561-1.612,1.338-3.276
		C260.021,101.942,259.299,102.724,259.858,104.148z"/>
	<path style="fill:#ded1b4;" d="M262.105,283.179c-3.727-4.593-4.747-9.79-3.645-15.407c0.564-2.871,1.719-5.445,4.55-7.164
		c2.339,0.366,4.875,0.542,7.281,1.197c2.996,0.816,5.668,2.434,7.716,4.813c2.283,2.652,2.693,7.03,0.784,10.788
		c-0.03-1.806-0.079-2.919-0.06-4.031c0.045-2.714-0.978-4.902-3.114-6.582c-2.718-2.138-5.704-3.517-9.307-3.553
		c0.165,3.201,2.794,5.774,1.404,9.486c-0.826-1.341-1.425-2.426-2.135-3.433c-0.736-1.045-1.58-2.015-2.671-3.388
		c-0.588,1.187-1.165,1.888-1.276,2.657c-0.474,3.26-1.06,6.563-0.076,9.809c0.436,1.438,1.131,2.858,1.986,4.094
		c1.005,1.453,1.503,1.392,3.682,0.252c-0.465-1.465-1.696-2.963-0.563-4.55c0.812-1.137,1.705-2.399,2.871-3.059
		c2.094-1.184,4.136,0.062,6.171,3.36c6.228-2.055,8.926,0.024,9.852,7.592c5.058-2.18,8.3-8.892,7.376-15.614
		c-1.626,2-2.925,4.172-5.782,5.109c0.524-2.591,2.492-4.056,3.277-6.325c-2.272-0.543-4.462-0.318-6.785,0.15
		c-0.76,2.503,0.291,5.529-2.239,7.655c-1.207-1.814,0.321-3.321,0.025-4.905c-0.278-1.485-0.06-3.062-0.06-4.547
		c3.905-2.466,10.177-2.874,14.193-0.969c0.121,0.18,0.299,0.345,0.353,0.543c1.01,3.669,1.163,7.443,0.143,11.046
		c-1.557,5.497-4.406,8.767-12.218,9.709c2.994,1.382,5.606,2.588,8.75,4.039c-2.166,1.552-3.886-0.534-5.182,0.317
		c-1.043,1.993-1.991,3.805-2.926,5.593c3.777,0.869,6.458-0.147,12.234-3.562c-0.054-3.208-1.36-5.832-3.936-7.958
		c0.961-1.26,2.04-1.005,3.145-0.289c3.394,2.198,4.855,5.314,4.474,9.83c-5.222,3.346-10.919,4.994-17.589,3.751
		c-1.215,0.183-1.413,1.462-1.789,2.6c-1.315,3.971-3.606,7.275-6.879,9.868c-1.377,1.091-2.81,2.168-4.502,1.934
		c-4.221-1.712-5.107-5.453-6.262-8.995c-0.655-2.009-1.007-4.035,0.073-5.832c2.285-0.528,4.366-1.009,6.814-1.575
		c0.611,1.093,1.45,2.592,2.276,4.068c-0.396,2.813-0.789,5.604-1.256,8.923c2.477-0.955,3.688-2.56,4.909-4.147
		c1.205-1.567,2.068-3.284,2.412-5.295c-3.165,0.22-3.165,0.22-6.424-1.99c-0.315-1.627-0.682-3.526-1.05-5.429
		c-5.809-1.114-6.767-3.179-7.121-7.369c-1.703-1.121-3.423-2.253-5.464-3.596c-3.45,1.843-6.991,3.805-8.089,8.426
		c2.058,0.133,3.566-1.849,5.706-1.051c-0.754,2.124-3.104,1.642-4.154,2.926c1.842,1.452,3.929,1.852,6.205,1.82
		c1.633-0.023,3.269,0.272,4.905,0.405c2.281,0.186,4.625,0.716,6.824-1.067c-0.091,0.454-0.026,1.117-0.302,1.326
		c-0.943,0.71-1.972,1.706-3.031,1.791c-3.794,0.302-7.586,1.264-11.441,0.197c-1.073-0.297-2.021-0.58-2.957-1.229
		c-1.61-1.118-3.37-2.021-5.214-3.101c1.329-4.071,3.575-7.572,5.775-11.06c1.024-1.623,2.951-2.179,4.894-2.669
		c1.217,1.375,2.417,2.729,3.616,4.084C261.556,283.457,261.831,283.318,262.105,283.179z M273.496,289.728
		c-1.608-1.448-1.802-3.075-1.082-5.09c0.632-0.258,1.405-0.574,2.34-0.956c0.848,0.749,2,1.3,2.327,2.164
		c0.488,1.29,1.454,1.478,2.278,1.221c0.95-0.297,1.987-1.007,2.505-1.838c0.813-1.303,0.116-3.472-1.084-4.453
		c-1.643-1.344-3.312-1.557-4.825-0.469c-0.587,0.422-0.985,1.109-1.823,2.091c-0.578-1.384-1.014-2.314-1.355-3.276
		c-0.325-0.919-0.867-1.496-1.871-1.578c-0.983-0.081-1.72,0.281-2.13,1.192c-0.221,0.491-0.382,1.011-0.676,1.805
		c1.237,1.089,2.459,2.165,4.074,3.587c-1.088,0-1.626-0.023-2.162,0.006c-0.54,0.029-1.078,0.109-1.507,0.155
		c-2.035,2.549-2.092,4.351-0.289,6.146C269.732,291.946,271.272,291.802,273.496,289.728z M273.279,296.695
		c1.101,1.791,2.249,2.554,3.642,2.099c2.82-0.921,5.503-2.243,7.5-4.504c1.6-1.811,1.048-3.919-1.222-4.725
		c-1.79-0.635-3.708-0.909-5.741-1.384c-0.095,2.488,2.38,3.965,1.573,6.737c-1.576-1.806-2.893-3.317-4.632-5.31
		C273.95,292.453,273.599,294.668,273.279,296.695z M269.375,300.034c-1.646,0.356-2.926,0.566-4.155,0.943
		c-0.326,0.1-0.495,0.71-0.827,1.228c1.988,1.035,3.334-0.5,4.982-0.291C269.375,301.271,269.375,300.877,269.375,300.034z
		 M270.837,303.015c-2.054-0.285-3.708,0.138-5.362,1.252C267.401,305.432,268.754,305.112,270.837,303.015z M267.101,307.212
		c1.345,0.53,2.522,0.37,3.75-0.788C269.198,305.759,268.183,306.672,267.101,307.212z"/>
	<path style="fill:#ded1b4;" d="M423.844,190.89c-0.786,1.056-1.587,2.101-2.353,3.171c-0.694,0.969-1.351,1.966-2.126,3.1
		c1.013,0.607,1.828,1.095,2.792,1.673c-2.345,6.734-2.038,13.655-1.916,20.851c3.988-0.403,6.223,1.696,7.76,4.64
		c1.73,3.313,1.583,6.678-0.465,10.612c0-2.026-0.005-3.392,0.001-4.757c0.02-4.735-2.074-7.317-6.7-8.324
		c-0.732-0.159-1.428-0.487-2.362-0.814c-1.001-6.928,1.144-13.706,1.037-20.731c-1.442-0.442-2.774-0.851-4.262-1.307
		c-0.434-0.978-0.339-1.936,0.04-3.042c1.129-3.299,2.145-6.639,3.146-9.98c1.568-5.236,3.129-10.475,4.612-15.736
		c0.741-2.628,1.319-5.305,0.982-8.38c-4.249-1.498-8.807-1.555-13.167-1.701c-4.308-0.144-8.647,1.245-13,1.713
		c-4.534,0.487-8.429,2.656-12.913,4.768c0.96-3.923,2.422-7.047,4.059-10.269c-5.213-2.654-6.644-8.207-9.868-12.416
		c2.191-2.821,5.081-3.681,8.237-3.897c4.05-0.277,8.06,0.12,12.168,1.092c-5.089-10.656-2.432-19.45,5.988-27.115
		c0,0.543,0.08,1.031-0.012,1.484c-1.317,6.515-0.255,12.901,1.177,19.228c0.606,2.678,1.942,5.079,3.71,7.276
		c2.828,3.514,5.493,7.123,9.054,10.001c2.514,2.032,5.172,3.253,8.416,3.141c0.316-0.011,0.638,0.138,0.941,0.208
		c1.625,1.359,1.635,3.145,1.06,4.853c-1.884,5.595-3.24,11.384-6.048,16.649c-0.493,0.925-0.748,1.978-0.872,3.091
		c5.585-10.104,10.326-20.742,19.678-28.627c0.151,3.677-0.637,6.974-1.883,10.065c-2.376,5.895-4.993,11.697-7.664,17.466
		c-0.772,1.668-1.995,3.152-3.148,4.613c-1.903,2.41-3.917,4.733-5.884,7.093c0.239-0.71,0.371-1.48,0.735-2.119
		c1.351-2.375,2.737-4.732,4.183-7.05c3.477-5.576,6.865-11.201,8.662-17.588c0.58-2.061,1.673-4.042,1.557-6.863
		c-4.886,7.298-9.01,14.359-12.592,21.733c-0.317,0.653-0.525,1.473-0.446,2.178c0.145,1.3-0.346,2.336-0.916,3.405
		c-1.068,2.002-2.104,4.02-3.288,6.288C422.837,190.716,423.341,190.803,423.844,190.89z M427.922,158.281
		c-0.578-1.247-1.49-1.433-2.488-1.706c-1.554-0.425-3.118-0.974-4.527-1.745c-4.717-2.578-8.474-6.282-11.639-10.571
		c-1.357-1.838-2.622-3.785-3.634-5.829c-2.191-4.425-2.66-9.236-2.721-14.099c-0.018-1.428-0.003-2.856-0.003-4.826
		c-4.215,6.131-4.466,14.813-0.928,20.436c0.776,1.233,1.499,2.421,0.756,4.113c-0.741,0-1.5,0.126-2.201-0.023
		c-2.356-0.499-4.665-1.267-7.039-1.618c-4.291-0.634-8.474-0.302-12.442,2.222c0.379,0.743,0.621,1.344,0.968,1.876
		c2.267,3.475,5.181,6.247,8.916,8.117c1.611,0.807,3.261,1.566,4.561,3.085c-5.397,0.538-6.85,1.432-7.959,4.855
		c0.34-0.113,0.639-0.195,0.925-0.31c7.679-3.097,15.665-4.145,23.881-3.449c3.598,0.305,7.177,0.826,10.766,1.244
		c1.507,0.175,2.789,0.671,3.408,2.703C427.084,160.957,427.527,159.54,427.922,158.281z"/>
	<path style="fill:#ded1b4;" d="M15.663,251.139c-2.476-1.625-2.383-4.347-2.439-6.729c-0.039-1.624,0.841-3.381,1.658-4.891
		c1.424-2.636,3.594-4.324,7.128-3.953c0.775-6.941-0.366-13.587-1.689-20.285c0.831-0.464,1.582-0.885,2.467-1.38
		c-0.495-2.772-3.175-4.117-4.214-6.482c0.505-0.088,1.01-0.176,1.811-0.316c-0.676-1.396-1.284-2.541-1.794-3.729
		c-0.813-1.892-1.969-3.763-2.205-5.735c-0.189-1.575-0.437-2.95-1.225-4.311c-0.822-1.42-1.451-2.951-2.212-4.408
		c-2.841-5.432-6.114-10.599-9.679-15.981c-0.089,0.668-0.233,1.002-0.154,1.271c1.829,6.208,3.749,12.353,7.24,17.922
		c2.669,4.257,4.978,8.741,7.412,13.143c0.305,0.551,0.399,1.219,0.59,1.833c-2.117-2.772-4.312-5.489-6.326-8.334
		c-1.386-1.959-2.72-4.003-3.732-6.17c-2.732-5.851-5.774-11.591-7.414-17.889c-0.599-2.301-0.926-4.672-0.882-7.29
		c0.519,0.437,1.069,0.842,1.552,1.315c4.037,3.946,7.357,8.364,9.729,13.554c2.591,5.667,5.529,11.177,8.335,16.745
		c0.486,0.964,1.07,1.878,1.634,2.857c1.033-1.683,0.051-3.081-0.464-4.444c-2.591-6.867-5.254-13.707-7.93-20.542
		c-0.768-1.962-1.001-3.807,0.451-5.46c0.299-0.144,0.497-0.325,0.69-0.319c3.844,0.111,6.999-1.382,9.805-3.937
		c4.263-3.882,8.257-8.105,10.607-13.329c3.013-6.699,4.061-13.841,1.938-21.145c-0.334-1.148-0.285-1.162,0.275-3.251
		c0.36,0.382,0.737,0.629,0.9,0.977c1.763,3.754,5.711,5.957,6.77,10.333c1.339,5.531,1.954,10.796-1.758,16.102
		c1.358-0.138,2.404-0.091,3.355-0.369c3.251-0.949,6.562-0.69,9.84-0.502c2.917,0.167,5.539,1.239,7.576,3.816
		c-3.318,4.202-4.628,9.844-9.95,12.364c1.642,3.117,3.08,6.04,3.648,9.85c-4.354-1.596-8.08-3.891-12.467-4.308
		c-4.354-0.414-8.663-1.678-13.005-1.744c-4.315-0.065-8.645,0.897-12.943,1.406c-0.738,3.13,0.001,5.806,0.673,8.416
		c1.008,3.913,2.339,7.741,3.444,11.63c0.985,3.466,1.818,6.975,2.781,10.448c0.407,1.466,1.026,2.872,1.45,4.334
		c0.291,1,0.412,2.049,0.624,3.158c-1.712,0.546-3.132,0.999-4.652,1.484c0.076,6.705,1.809,13.172,1.125,19.944
		c-0.871,0.329-1.644,0.732-2.466,0.913c-4.53,0.996-6.685,3.479-6.62,8.003c0.026,1.841,0.412,3.677,0.635,5.515L15.663,251.139z
		 M55.227,178.634c-1.49-4.472-5.102-4.692-8.378-5.099c-0.307-1.69,0.771-2.128,1.673-2.246c3.862-0.508,6.579-2.871,9.149-5.454
		c1.526-1.534,2.867-3.245,3.568-5.363c-2.614-1.819-5.408-2.274-8.271-2.427c-3.559-0.19-6.954,0.727-10.345,1.641
		c-1.033,0.279-2.087,0.824-3.145-0.147c-0.382-1.357,0.047-2.555,0.904-3.633c3.2-4.023,2.974-8.612,1.999-13.215
		c-0.463-2.186-0.846-4.532-2.874-6.547c0,2.213,0.019,4.066-0.004,5.919c-0.064,5.144-1.142,10.132-3.758,14.509
		c-2.596,4.343-5.96,8.222-10.038,11.304c-2.861,2.162-5.678,4.542-9.572,4.786c-0.601,0.038-1.154,0.837-1.711,1.27
		c0.482,1.572,0.896,2.921,1.523,4.967c0.454-2.372,1.802-2.779,3.242-2.957c3.694-0.456,7.386-0.959,11.094-1.27
		C38.732,173.962,46.91,175.162,55.227,178.634z"/>
	<path style="fill:#ded1b4;" d="M141.493,221.231c-4.642-3.928-7.707-8.85-9.07-15.357c-0.594,1.062-1.071,1.581-1.176,2.167
		c-0.271,1.511-0.495,3.05-0.526,4.582c-0.091,4.405-0.171,8.814-0.068,13.217c0.059,2.514,0.482,5.019,0.775,7.864
		c2.162,0.552,4.375,1.06,6.554,1.687c2.976,0.857,3.339,1.483,3.023,4.952c-2.544,1.989-5.584,2.686-8.837,2.452
		c-5.02-0.361-10.031-0.847-15.293-1.302c0.097,2.211-1.583,2.953-3.474,3.437c-3.727,0.954-7.459,1.897-11.365,1.54
		c-0.964-0.088-2.026,0.01-2.462-1.37c0.689-1.261,1.992-0.963,3.126-1.108c3.697-0.473,7.393-0.952,11.086-1.455
		c0.3-0.041,0.574-0.277,0.94-0.463c0.015-1.744-0.97-2.601-2.527-2.906c-2.042-0.401-4.098-0.731-6.053-1.075
		c-0.583,0.44-1.075,0.811-1.725,1.302c-0.298-0.408-0.621-0.651-0.657-0.931c-0.908-7.114-1.106-14.249-0.567-21.403
		c0.116-1.535,0.35-3.071,0.335-4.605c-0.022-2.292,0.899-4.052,2.683-5.382c1.322-0.985,2.713-1.879,4.064-2.825
		c0.901-0.631,1.9-1.173,2.66-1.946c2.051-2.086,3.998-4.274,6.054-6.493c-0.364-0.745-0.584-1.354-0.931-1.88
		c-2.213-3.356-3.059-7.035-2.551-11c0.374-2.922,0.875-5.828,1.594-8.748c0.631,1.007,0.298,2.112,0.278,3.158
		c-0.023,1.208-0.153,2.417-0.29,3.62c-0.455,3.995,0.608,9.515,2.649,13.243c1.865-2.553,2.7-5.349,2.238-8.287
		c-1.106-7.027-2.464-14.015-3.781-21.356c-9.844,0.336-19.363,0.742-29,1.07c-1.619,2.942-0.896,6.693-3.169,9.696
		c-0.399-0.47-0.913-0.824-0.863-1.056c0.824-3.838,1.697-7.666,2.627-11.479c0.119-0.486,0.624-0.877,0.88-1.217
		c7.109-1.424,24.777-1.02,30.221,0.744c0.29,0.841,0.793,1.831,0.966,2.876c1.02,6.167,1.844,12.369,2.972,18.516
		c0.795,4.331-0.179,8.269-1.87,12.151c2.563,4.151,6.812,5.692,10.814,3.828c0.066-0.643,0.227-1.388,0.204-2.127
		c-0.204-6.76,1.151-13.337,2.325-19.933c0.922-5.183,1.992-10.34,2.823-15.537c0.31-1.939,0.134-3.957,0.172-5.939
		c0.079-4.144,0.809-4.988,4.82-5.589c0.512-0.077,1.017-0.202,2.048-0.41c-0.506,0.78-0.701,1.344-1.097,1.62
		c-0.423,0.295-1.042,0.299-1.565,0.463c-1.399,0.437-2.044,1.328-2.281,2.854c-1.348,8.669-2.825,17.318-4.244,25.976
		c-0.727,4.436-1.959,8.849-1.578,13.375c0.412,4.898,1.11,9.777,1.836,14.642c0.552,3.698,2.437,6.787,4.937,9.523
		c0.636,0.696,1.212,1.448,1.815,2.175C141.824,220.93,141.659,221.08,141.493,221.231z M104.927,210.675
		c-0.918,8.692-1.456,17.3,0.344,26.102c2.703,0.428,5.265,0.834,7.998,1.266c0.913-2.379,2.678-3.322,5.081-3.55
		c2.349-0.223,4.665-0.792,7.199-1.245c0.371-7.631,0.639-14.986,1.132-22.326c0.18-2.684-0.857-4.345-3.027-5.691
		c-2.163-1.342-4.594-2.402-5.779-4.991C114.385,204.838,109.172,206.865,104.927,210.675z M119.454,198.226
		c2,1.874,3.623,3.636,5.493,5.08c1.922,1.484,2.762,3.378,2.87,5.656c0.315,6.588,0.679,13.177,0.776,19.77
		c0.036,2.453-0.318,4.995-1.688,7.125c-4.295,0.002-9.113,1.373-10.938,3.155c1.772,1.056,3.599,1.668,5.626,1.653
		c2.641-0.019,5.285,0.037,7.921-0.089c2.408-0.116,4.819-0.346,7.203-0.697c1.226-0.18,2.664-0.304,3.263-2.125
		c-0.606-0.378-1.168-0.967-1.821-1.094c-2.595-0.508-5.076-2.104-8.152-0.544c-0.093-1.43-0.126-2.477-0.235-3.515
		c-0.876-8.353-0.399-16.696,0.269-25.029c0.082-1.017,0.785-1.986,1.216-2.971c0.272-0.623,0.572-1.233,1.029-2.211
		c-1.415,0.317-2.328,0.584-3.26,0.716c-1.605,0.227-3.034-0.223-4.186-1.389c-1.379-1.397-2.725-2.825-4.103-4.222
		c-0.11-0.112-0.356-0.091-0.631-0.151C119.877,197.653,119.625,197.993,119.454,198.226z M90.821,163.437
		c0.068,0.1,0.137,0.201,0.205,0.301c8.39,0,16.779,0,25.767,0c-1.276-0.521-1.976-1.052-2.682-1.058
		c-6.711-0.058-13.423-0.06-20.134,0.014C92.922,162.706,91.872,163.178,90.821,163.437z"/>
	<path style="fill:#ded1b4;" d="M463.052,328.946c-1.024,0.449-1.468,0.759-1.95,0.837c-9.416,1.533-18.818,3.167-28.263,4.5
		c-5.431,0.767-10.937,0.995-16.402,1.541c-5.459,0.545-10.907,1.203-16.364,1.776c-2.84,0.298-5.686,0.543-8.533,0.771
		c-6.244,0.499-12.49,0.958-18.734,1.458c-5.147,0.412-10.294,0.841-15.436,1.316c-0.711,0.066-1.386,0.465-2.089,0.675
		c-0.616,0.184-1.24,0.4-1.874,0.459c-2.844,0.262-5.692,0.488-8.541,0.7c-6.905,0.516-13.823,0.887-20.713,1.553
		c-11.722,1.134-23.454,1.935-35.236,1.878c-1.1-0.005-2.214,0.037-3.297-0.114c-2.036-0.285-2.876-1.223-2.93-3.3
		c-0.051-1.978,0.177-3.968,0.053-5.938c-0.583-9.213-1.223-18.423-1.894-27.63c-0.216-2.968-0.288-2.963,2.628-8.68
		c2.079,0.236,4.319,0.757,6.534,0.664c2.112-0.089,4.197-0.82,6.458-1.305c-2.41,2.859-5.94,3.432-11.93,2.064
		c-2.41,2.647-2.02,5.833-1.688,9.006c0.606,5.785,1.223,11.569,1.823,17.355c0.486,4.682,0.954,9.366,1.47,14.436
		c3.57,0.101,7.166,0.053,10.76-0.12c2.415-0.116,4.828-0.279,7.237-0.488c1.913-0.166,3.96,0.398,5.663-1.059
		c0.273-0.234,0.853-0.12,1.292-0.148c4.28-0.266,8.564-0.484,12.84-0.801c7.561-0.56,15.117-1.186,22.676-1.771
		c3.397-0.263,6.796-0.506,10.196-0.732c7.679-0.51,15.363-0.942,23.036-1.522c6.681-0.504,13.346-1.207,20.024-1.749
		c6.68-0.542,13.377-0.89,20.048-1.51c8.958-0.833,17.939-1.459,26.819-3.045c4.747-0.848,9.552-1.377,14.341-1.976
		C461.526,327.989,462.044,328.469,463.052,328.946z"/>
	<path style="fill:#ded1b4;" d="M200.063,178.436c-7.598,0.031-15.196,0.019-22.793,0.113c-3.078,0.038-6.154,0.287-9.227,0.497
		c-0.474,0.033-0.927,0.378-1.998,0.842c1.072,0.567,1.643,1.128,2.214,1.128c3.301-0.002,6.601-0.168,9.902-0.218
		c5.832-0.088,11.664-0.156,17.496-0.169c0.951-0.002,1.903,0.319,2.833,0.683c-10.991,1.118-21.969,1.698-33.358,0.75
		c-1.148,6.265-2.344,12.6-3.45,18.95c-0.357,2.049-0.499,4.138-0.699,6.212c-0.4,4.153,1.02,7.768,3.299,11.14
		c2.323,3.437,5.424,6.045,8.783,8.391c2.074,1.449,4.151,2.894,6.216,4.356c1.917,1.357,2.743,3.185,3.004,5.567
		c0.843,7.692,0.649,15.396,0.537,23.099c-0.038,2.63-0.403,5.258-0.678,7.88c-0.039,0.371-0.418,0.707-0.772,1.268
		c-0.578-0.538-1.021-0.95-1.703-1.583c-2.105,0.31-4.473,0.643-6.835,1.011c-2.318,0.362-3.779,1.533-3.714,4.581
		c1.066,0.359,2.236,0.938,3.468,1.139c6.735,1.1,13.504,1.89,20.349,1.608c2.609-0.107,4.861-1.123,6.999-2.866
		c-0.296-0.738-0.567-1.413-0.97-2.416c-3.969-0.825-8.028-1.668-12.535-2.605c-1.406-3.285-2.051-7.14-2.003-11.107
		c0.038-3.189,0.253-6.377,0.424-9.563c0.212-3.954,0.459-7.906,0.694-11.859c0.123-2.073,1.433-3.418,2.958-4.544
		c1.762-1.301,3.624-2.467,5.442-3.691c0-0.691,0-1.305,0-2.085c-1.533,1.062-2.867,2.028-4.244,2.929
		c-2.873,1.879-5.919,2.053-9.145,0.985c-4.687-1.552-8.078-4.795-11.224-8.383c-0.507-0.579-0.979-1.191-1.429-1.816
		c-0.1-0.139-0.036-0.395-0.071-1.021c0.649,0.527,1.119,0.849,1.518,1.243c1.882,1.854,3.649,3.837,5.634,5.571
		c4.102,3.583,12.705,4.987,18.167-0.284c0.899-0.868,1.534-1.724,1.703-3.054c0.5-3.916,1.082-7.827,1.806-11.707
		c0.597-3.197,1.444-6.347,2.18-9.518c0.224,0.026,0.449,0.052,0.673,0.078c-0.063,1.261-0.001,2.545-0.212,3.781
		c-0.87,5.08-1.93,10.13-2.706,15.223c-0.477,3.134-0.566,6.326-0.874,10.028c-2.674,1.652-5.721,3.533-8.553,5.282
		c-1.039,6.133-0.11,27.316,1.355,31.659c2.854,0.36,5.784,0.738,8.717,1.096c2.115,0.258,3.778,1.11,4.53,3.261
		c0.797,2.281,0.206,3.858-2.076,4.78c-1.72,0.694-3.519,1.297-5.339,1.617c-7.653,1.347-15.309,1.521-22.873-0.578
		c-1.542-0.428-3.283-0.748-4.082-2.491c0.356-4.123,1.689-5.694,5.556-6.496c1.182-0.245,2.373-0.465,3.569-0.63
		c1.188-0.163,2.388-0.242,3.463-0.347c2.567-3.741,2.174-23.575,0.662-31.492c-1.98-1.425-4.213-3.008-6.419-4.627
		c-2.216-1.626-4.549-3.13-6.58-4.965c-6.45-5.827-8.98-13.07-7.505-21.701c1.237-7.24,2.342-14.503,3.557-21.748
		c0.683-4.071,1.746-4.981,5.875-5.173c4.722-0.219,9.452-0.636,14.167-0.518c5.148,0.129,10.321,0.488,15.328,1.916
		c0.343,0.098,0.616,0.442,0.921,0.671L200.063,178.436z"/>
	<path style="fill:#ded1b4;" d="M308.935,162.81c1.596-4.004,1.267-7.037-2.133-9.404c4.512-4.721,3.385-9.419,0.245-14.318
		c0.045-0.236,0.018-0.723,0.225-1.069c1.17-1.956,1.066-4.017,0.417-6.043c-1.162-3.628-3.604-6.238-6.952-7.959
		c-0.603-0.31-1.476-0.144-2.221-0.112c-0.73,0.031-1.455,0.17-2.432,0.292c-0.075-1.286-0.121-2.356-0.204-3.423
		c-0.49-6.321-5.575-10.028-11.698-8.522c-1.165,0.287-2.317,0.628-3.478,0.945c-0.531,0.921-1.016,1.763-1.529,2.652
		c-0.166-0.14-0.367-0.223-0.388-0.339c-0.541-3.001,0.896-5.296,2.784-7.57c2.796-0.348,5.697-0.709,8.87-1.104
		c0.135-2.517,2.387-3.241,4.548-4.162c-0.586,0.822-1.272,1.593-1.73,2.481c-0.438,0.848-0.639,1.819-1.026,2.98
		c-1.749,0.7-4.114-0.059-6.396,1.476c3.152,0.089,5.626,0.758,7.711,2.593c1.922,1.692,3.044,3.726,3.086,6.306
		c0.023,1.405,0.004,2.811,0.004,4.389c0.89-0.061,1.466,0.033,1.926-0.154c2.645-1.081,4.726-0.177,6.493,1.786
		c1.175,1.306,2.346,2.629,3.377,4.047c1.003,1.379,1.34,2.991,1.046,4.706c-0.369,2.156-0.722,4.314-1.073,6.417
		c4.676,5.292,4.737,9.562,0.245,13.3c3.042,2.143,3.042,2.143,3.335,8.129c1.148,0.032,2.325,0.114,3.5,0.086
		c1.733-0.041,2.92,0.686,3.689,2.245c0.817,1.656,0.81,3.255-0.478,4.58c-0.976,1.004-2.139,1.873-3.338,2.606
		c-4.878,2.982-9.805,5.883-14.705,8.829c-0.453,0.273-0.841,0.654-1.352,1.058c0.763,2.031,1.479,3.967,2.23,5.89
		c0.06,0.152,0.358,0.211,0.661,0.376c0.652-2.409,1.298-4.792,1.98-7.313c7.232-2.207,14.351-1.282,21.594-0.308
		c0.408,2.219,0.84,4.138,1.103,6.08c0.912,6.745,2.014,13.478,2.575,20.255c0.63,7.617-1.252,14.628-6.55,20.444
		c-1.631,1.791-3.227,3.614-4.9,5.365c-1.545,1.617-2.313,3.382-1.822,5.681c0.294,1.377,0.261,2.825,0.385,4.358
		c2.573,0.659,4.989,1.304,7.419,1.893c2.403,0.582,3.781,2.06,4.227,4.801c-0.539,0.484-1.074,1.288-1.808,1.562
		c-2.26,0.842-4.555,1.894-6.908,2.121c-6.496,0.628-12.968,0.426-19.367-2.628c-1.887,3.958-1.398,8.518-3.3,12.394
		c0.041-4.383,0.816-8.636,1.824-13.118c3.432-0.906,5.79-4.067,9.404-4.657c0.123,0.205,0.246,0.411,0.37,0.616
		c-1.928,1.275-3.856,2.551-5.963,3.945c1.262,1.576,3.011,1.996,4.648,2.098c5.85,0.366,11.637-0.203,17.28-1.864
		c0.796-0.234,1.515-0.731,2.231-1.087c-0.067-1.786-0.828-2.668-2.293-3.043c-2.223-0.57-4.434-1.189-6.861-1.844
		c-0.197,0.936-0.362,1.718-0.622,2.957c-0.505-0.707-0.957-1.055-1.006-1.454c-0.285-2.288-0.399-4.598-0.714-6.881
		c-0.474-3.446,0.643-6.217,3.096-8.634c1.719-1.694,3.322-3.528,4.808-5.431c4.088-5.235,6.001-11.116,5.395-17.843
		c-0.71-7.877-2.173-15.615-3.623-23.608c-4.53,0-8.881,0-13.233,0c-0.007-0.154-0.013-0.308-0.02-0.462
		c2.803-0.277,5.605-0.554,9.136-0.903c-5.615-1.402-10.431-1.83-15.48,0.847c-0.625,2.775-1.411,5.845-1.958,8.957
		c-0.156,0.885,0.259,1.941,0.621,2.834c1.687,4.168,3.477,8.293,5.171,12.458c1.798,4.421,2.578,9.053,2.791,13.808
		c0.107,2.384-0.265,4.821,0.563,7.227c3.176,0.804,5.453-0.67,7.234-2.878c1.632-2.023,2.927-4.317,4.499-6.684
		c-1.065,6.061-6.074,10.924-11.859,11.488c-0.096,0.775-0.28,1.607-0.289,2.441c-0.037,3.193,0.015,6.388-0.041,9.581
		c-0.018,1.043,0.36,2.229-0.875,3.219c-1.02-0.439-1.119-1.314-1.073-2.327c0.198-4.285,0.225-8.583,0.581-12.854
		c0.681-8.185-1.351-15.887-3.681-23.597c-2.292-7.585-5.33-14.848-8.769-21.963c-0.239-0.495-0.475-0.993-0.671-1.505
		c-0.465-1.214-0.08-2.175,1.001-2.818c1.132-0.674,2.305-1.28,3.469-1.898c4.364-2.32,8.717-4.662,13.108-6.93
		c1.147-0.593,1.947-1.374,2.379-2.581c0.88-2.462-0.434-4.514-3.022-4.548c-0.971-0.013-1.942,0.313-2.921,0.384
		C310.767,163.001,310.063,162.881,308.935,162.81z M285.21,109.946c-1.205,0.019-2.269-0.469-2.99,1.091
		C283.307,110.64,284.123,110.342,285.21,109.946z"/>
	<path style="fill:#ded1b4;" d="M81.436,229.293c-3.442-3.247-6.597-6.27-8.421-10.377c-2.713-6.108-5.316-12.264-8.01-18.38
		c-0.707-1.605-1.53-3.165-2.385-4.698c-0.74-1.328-0.854-2.667-0.559-4.136c0.947-4.723,1.837-9.457,2.792-14.411
		c5.159-2.33,10.719-1.363,16.137-1.479c5.606-0.12,5.609-0.002,7.866,1.3c0.684,4.357,1.425,8.893,2.098,13.439
		c0.321,2.17,0.544,4.356,0.753,6.541c0.258,2.695,2.109,4.394,4.143,5.514c3.492,1.923,7.296,2.333,11.097,0.583
		c1.08-0.497,1.993-1.078,2.825-2.061c1.767-2.086,3.865-3.892,6.368-6.34c-0.345,1.078-0.366,1.576-0.621,1.871
		c-1.789,2.064-3.36,4.441-5.501,6.053c-5.898,4.443-10.518,5.209-17.531-1.33c0,1.34,0,2.637,0,3.962
		c3-0.454,5.271,0.824,7.195,2.634c0.697,0.656,0.996,1.918,1.128,2.947c0.194,1.519,0.046,3.079,0.097,4.62
		c0.181,5.5,0.398,10.999,0.573,16.5c0.078,2.438-0.269,4.791-1.734,7.222c-0.889-0.351-1.716-0.678-2.475-0.977
		c0.08-0.532,0.038-0.802,0.153-0.927c0.746-0.806,1.428-1.556,1.477-2.804c0.309-7.913,0.692-15.823,1.029-23.259
		c-1.88-3.286-5.183-2.51-7.202-4.046c-0.553,2.578-1.071,5.034-1.609,7.486c-0.824,3.754-3.021,6.753-5.385,9.643
		C84.491,225.904,83.149,227.343,81.436,229.293z M88.346,210.901c0.082,3.368-1.448,5.638-2.874,7.975
		c-1.443,2.364-3.882,4.056-4.916,6.991c2.258-0.787,4.234-2.939,6.583-6.675c3.795-6.033,5.227-12.472,3.488-19.817
		c-5.848-5.121-6.936-11.731-4.559-19.557c0.718,13.994,1.866,14.622,4.51,17.185c-1.114-6.553-2.152-12.664-3.17-18.652
		c-3.035-0.692-3.196-0.695-4.351-0.056c-0.452,0.25-0.875,0.706-1.341,0.75c-4.372,0.416-8.74,1.018-13.148,0.398
		c-0.721-0.101-1.469-0.014-2.347-0.014c-0.13,0.638-0.257,1.156-0.337,1.68c-0.529,3.467-0.917,6.962-1.625,10.391
		c-0.337,1.631-0.315,3.006,0.655,4.346c0.446-2.454,0.808-4.926,1.361-7.355c0.55-2.414,0.44-5.01,1.69-7.587
		c0.268,0.584,0.453,0.789,0.432,0.969c-0.595,5.112-1.283,10.215-1.782,15.336c-0.156,1.602-0.142,3.365,0.37,4.856
		c1.025,2.983,2.449,5.829,3.753,8.835C76.615,210.901,82.297,210.901,88.346,210.901z M76.368,213.592
		c-0.41-2.256-0.744-2.337-3.728-0.903C73.742,214.467,73.742,214.467,76.368,213.592z M72.386,177.93
		c-0.011,0.108-0.022,0.215-0.032,0.323c2.515,0,5.031,0,7.546,0c-0.001-0.108-0.002-0.215-0.002-0.323
		C77.394,177.93,74.89,177.93,72.386,177.93z"/>
	<path style="fill:#ded1b4;" d="M91.416,247.871c-1.023,4.247-1.295,8.498-2.987,12.516c-0.605,1.436-0.011,3.425,0.202,5.14
		c0.118,0.95,0.291,1.742-1.077,2.164c-0.182-0.292-0.563-0.621-0.567-0.955c-0.032-2.721-0.229-5.384,0.916-8.074
		c1.294-3.039,1.193-6.419,1.248-9.949c-1.618-0.69-3.252-1.293-4.795-2.073c-1.351-0.683-2.827-1.346-3.858-2.399
		c-4.616-4.715-9.177-9.49-13.594-14.39c-3.893-4.318-5.887-9.755-8.185-14.979c-2.159-4.907-4.19-9.87-6.497-15.328
		c-0.106,1.257-0.216,2.02-0.228,2.784c-0.057,3.743-0.015,7.49-0.145,11.23c-0.243,6.963,0.691,13.806,1.836,20.642
		c0.815,4.867,1.445,9.765,2.26,14.632c0.96,5.728,2.055,11.434,3.038,17.158c0.271,1.576,0.823,3.19,0.096,4.739
		c-6.523-0.811-12.92-1.621-19.321-2.395c-4.382-0.53-8.619-1.608-12.71-3.251c-0.48-0.193-0.882-0.579-1.214-0.804
		c-0.048-0.407-0.173-0.686-0.083-0.822c1.979-2.991,2.348-6.244,1.826-9.729c-0.222-1.479-0.037-3.02-0.037-4.6
		c2.784-1.124,5.3-2.141,8.005-3.233c-0.281-4.722-0.554-9.305-0.828-13.907c0.395-0.309,0.625-0.586,0.918-0.702
		c5.978-2.361,7.707-7.588,8.32-13.161c0.929-8.439,3.111-16.584,5.043-24.796c0.12-0.51,0.462-0.98,0.76-1.429
		c0.098-0.148,0.384-0.17,0.836-0.35c0.394,0.509,0.98,1.013,1.244,1.65c1.047,2.533,2.025,5.097,2.972,7.67
		c1.779,4.838,3.404,9.736,5.307,14.523c1.84,4.628,4.624,8.767,7.764,12.588c4.189,5.096,8.645,9.971,13.004,14.926
		c1.186,1.349,2.625,2.152,4.448,2.596C87.296,245.979,89.49,246.083,91.416,247.871z M56.985,268.351
		c-1.171-5.791-2.366-11.141-3.294-16.538c-0.445-2.584-0.139-5.298-0.598-7.878c-1.582-8.894-2.325-17.846-2.445-26.871
		c-0.075-5.61-0.323-11.219-0.516-16.827c-0.018-0.532-0.197-1.059-0.429-2.233c-2.033,7.781-3.845,14.863-4.981,22.131
		c-0.767,4.908-2.439,9.585-7.062,12.315c-0.025,0.219-0.059,0.331-0.045,0.437c0.014,0.104,0.069,0.206,0.119,0.303
		c4.939,9.554,9.88,19.108,14.811,28.666c0.03,0.059-0.056,0.199-0.117,0.278c-0.049,0.064-0.143,0.093-0.426,0.264
		c-5.445-8.214-10.226-16.825-15.271-25.454c0,3.164,0,6.329,0,9.443c-2.497,1.335-4.758,2.544-7.223,3.861
		c1.896,1.353,3.663,2.318,5.038,3.679c1.357,1.343,3.447,2.08,4.262,4.45c-3.182-1.875-6.007-3.538-8.86-5.219
		c-0.517,3.443-1.011,6.735-1.545,10.291c2.398,1.617,5.263,3.091,8.427,3.462c5.669,0.665,11.379,0.99,17.073,1.429
		C54.871,268.415,55.85,268.351,56.985,268.351z"/>
	<path style="fill:#ded1b4;" d="M412.717,231.657c0.257,4.807-1.677,9.431-0.214,14.373c2.354,0.951,4.869,1.968,7.569,3.059
		c0,2.378,0.246,4.696-0.071,6.933c-0.298,2.104,0.073,3.877,1.122,5.629c0.39,0.651,0.661,1.374,1.084,2.269
		c-0.666,0.47-1.2,1.025-1.851,1.279c-4,1.563-8.132,2.622-12.407,3.134c-6.403,0.766-12.801,1.583-19.283,2.388
		c-0.829-1.18-0.325-2.546-0.122-3.768c1.295-7.788,2.644-15.569,4.098-23.329c2.662-14.213,3.857-28.521,3.032-42.975
		c-0.012-0.214-0.103-0.423-0.268-1.071c-0.538,1.402-0.904,2.478-1.358,3.516c-2.766,6.341-5.569,12.667-8.327,19.012
		c-2.193,5.046-5.945,8.956-9.452,13.039c-1.505,1.753-3.126,3.41-4.734,5.071c-3.307,3.415-6.729,6.666-11.579,7.808
		c-0.405,0.095-0.756,0.421-1.309,0.742c-0.068,3.672,0.09,7.32,1.508,10.871c1.031,2.583,0.8,5.277,0.449,7.93
		c-1.427,0.052-1.744-0.588-1.651-1.453c0.128-1.199,0.416-2.382,0.527-3.582c0.068-0.739,0.164-1.611-0.145-2.227
		c-1.96-3.916-1.999-8.246-2.993-12.177c1.051-1.8,2.764-1.874,4.18-2.139c3.178-0.596,5.692-2.058,7.748-4.53
		c4.432-5.328,9.084-10.478,13.373-15.916c5.469-6.935,8.094-15.273,10.933-23.479c0.968-2.797,1.998-5.573,3.067-8.333
		c0.298-0.77,0.834-1.448,1.213-2.086c1.825,0.075,1.817,1.449,2.054,2.39c0.993,3.934,1.962,7.881,2.725,11.865
		c0.824,4.302,1.482,8.639,2.073,12.98c0.474,3.484,2.049,6.48,3.891,9.347c0.558,0.867,1.606,1.456,2.506,2.056
		C410.908,230.819,411.818,231.193,412.717,231.657z M390.721,268.345c1.253,0,2.345,0.073,3.425-0.012
		c5.036-0.398,10.063-0.92,15.104-1.238c3.865-0.244,7.099-1.936,10.419-3.755c-0.532-1.784-1.181-3.318-1.412-4.912
		c-0.243-1.68-0.086-3.417-0.108-5.488c-3.276,1.914-6.129,3.58-8.982,5.247c1.087-1.752,2.47-3.098,3.968-4.3
		c1.568-1.259,3.247-2.38,5.023-3.667c-2.591-1.393-4.889-2.63-7.265-3.908c0-3.245,0-6.308,0-10.116
		c-1.921,3.549-3.454,6.448-5.05,9.312c-1.658,2.976-3.289,5.973-5.095,8.858c-1.68,2.683-3.057,5.6-5.529,7.742
		c5.027-9.813,10.054-19.625,15.021-29.321c-1.351-1.212-2.781-2.04-3.55-3.278c-1.787-2.879-3.287-5.923-3.804-9.372
		c-0.536-3.575-1.135-7.148-1.921-10.675c-0.814-3.655-1.886-7.252-2.845-10.874c-0.452,0.594-0.538,1.127-0.554,1.663
		c-0.19,6.379-0.371,12.759-0.549,19.139c-0.049,1.761-0.062,3.523-0.126,5.283c-0.317,8.676-2.445,17.17-2.615,25.863
		c-0.008,0.434-0.133,0.868-0.22,1.298C392.974,257.204,391.888,262.574,390.721,268.345z"/>
	<path style="fill:#ded1b4;" d="M231.685,53.305c0.503,0.663,1.006,1.326,1.516,1.998c0.889-3.272,1.667-6.324,2.565-9.341
		c0.341-1.144,0.869-2.26,1.48-3.289c0.551-0.928,1.263-1.838,2.797-1.52c-0.133,1.48-0.17,2.982-0.415,4.448
		c-1.427,8.534-0.115,16.775,2.319,24.97c1.586,5.34,3.32,10.697,3.148,16.392c-0.016,0.521-0.164,1.038-0.336,2.071
		c-2.303-1.842-4.225-3.59-6.357-5.027c-2.17-1.463-4.545-2.62-7.349-4.205c0.995,3.518,1.576,6.572,4.009,9.365
		c-1.996-0.341-3.063-1.49-3.734-2.745c-1.234-2.308-2.22-4.756-3.201-7.19c-0.409-1.014-0.283-1.064,1.034-2.487
		c4.64,1.577,8.88,4.024,13.32,7.275c-0.203-2.011-0.353-3.496-0.463-4.585c-1.507-1.437-2.669-2.545-4.021-3.835
		c-3.595-1.383-7.387-3.206-11.379-4.291c-5.786-1.573-11.682-3.291-17.736-0.988c-0.3,0.114-0.624,0.17-0.942,0.224
		c-0.082,0.014-0.183-0.082-0.514-0.245c0.074-3.194,3.824-2.76,4.971-4.931c-1.154-1.965-2.356-4.013-3.57-6.081
		c3.603-1.498,7.152-1.066,11.036-0.303c-1.364-3.878-2.57-7.365-1.84-11.208c3.973-0.884,6.862,1.252,9.879,2.96
		c0.833,0.472,1.675,0.929,2.513,1.393C230.838,52.522,231.262,52.913,231.685,53.305z M233.107,70.976
		c-2.963-4.554-6.553-8.637-8.056-14.611c2.215,2.169,3.959,3.737,5.174,5.905c2.421,4.319,5.871,7.806,9.494,11.167
		c1.782-1.188,0.806-2.524,0.412-3.613c-1.698-4.691-2.416-9.525-2.432-14.487c-0.004-1.403-0.001-2.807-0.001-4.914
		c-1.959,3.52-2.134,6.708-2.172,10.179c-5.471-6.842-11.171-10.547-15.492-10.011c-0.798,5.334,1.19,10.06,3.613,14.713
		c-2.795,0.782-5.674-0.682-8.416,1.414C221.286,68.161,227.052,69.534,233.107,70.976z"/>
	<path style="fill:#ded1b4;" d="M310.451,115.347c-2.756,1.398-5.199,1.052-7.601,0.102c-1.539-5.45-0.619-10.68-0.11-15.906
		c0.127-1.307,0.408-2.607,0.441-3.915c0.086-3.409,0.05-6.821,0.106-10.231c0.199-12.097,0.4-24.194,0.649-36.29
		c0.026-1.288,0.375-2.569,0.563-3.789c1.426-0.725,2.24,0.063,3.325,0.747c0.202,1.908,0.44,3.857,0.611,5.812
		c0.971,11.087,0.542,22.202,0.673,33.307c0.035,2.951,0.403,5.919,0.876,8.838c0.605,3.731,0.53,7.396,0.061,11.141
		c-0.308,2.462,0.066,5.011,0.159,7.52C310.233,113.442,310.342,114.198,310.451,115.347z M304.737,113.56
		c0.25,0.016,0.5,0.033,0.75,0.049c0.071-0.558,0.247-1.127,0.189-1.671c-0.104-0.973-0.539-1.939-0.503-2.895
		c0.239-6.254,0.586-12.504,0.86-18.757c0.144-3.286,0.344-6.577,0.285-9.861c-0.109-6.037-0.53-12.071-0.552-18.107
		c-0.017-4.386,0.423-8.773,0.601-13.162c0.039-0.968,0.416-2.172-1.159-2.822c-0.203,3.125-0.538,6.071-0.561,9.02
		c-0.103,13.086-0.095,26.173-0.184,39.26c-0.016,2.408-0.268,4.817-0.457,7.222C303.696,105.789,304.098,109.682,304.737,113.56z"
		/>
	<path style="fill:#ded1b4;" d="M174.49,302.179c-1.421,1.508-2.995,2.887-4.217,4.528c-3.279,4.406-6.376,8.946-9.603,13.392
		c-2.892,3.984-6.07,4.717-10.567,2.554c-3.669-1.765-4.206-2.56-4.182-6.58c0.987-0.647,2.117-1.478,3.327-2.167
		c7.649-4.357,14.911-9.289,22.09-14.663c-0.806-2.382,0.173-4.196,1.911-5.756c5.555-4.986,12.166-7.738,19.392-9.189
		c0.319-0.064,0.659-0.013,0.988-0.039c4.111-0.33,6.288,1.802,5.364,6.291c-0.981,4.766-3.37,8.534-6.825,11.731
		c-3.247,3.005-7.193,2.976-11.171,2.085C178.985,303.915,177.061,303.06,174.49,302.179z M147.016,316.8
		c0.687,2.001,1.86,2.43,3.274,2.351c2.669-0.149,5.227-0.603,7.274-2.589c1.658-1.609,3.453-3.078,5.105-4.694
		c3.779-3.698,7.514-7.441,11.252-11.181c2.201-2.201,4.582-3.088,7.746-1.955c6.665,2.386,13.439-0.887,15.722-7.499
		c0.522-1.511,1.03-3.206-0.497-5.105c-0.797-0.126-2.001-0.612-3.105-0.445c-7.332,1.113-14.097,3.467-19.033,9.439
		c-0.439,0.531-0.742,1.174-1.254,2c1.534-0.148,2.711-0.861,3.774-0.238c-1.628,0.968-3.298,1.783-4.764,2.872
		c-2.649,1.967-5.238,4.027-7.742,6.176c-4.367,3.749-8.957,7.106-14.393,9.174C149.274,315.526,148.257,316.167,147.016,316.8z
		 M188.461,301.547c-2.911,0.823-5.588,0.194-8.286-0.74c-0.858-0.297-1.906-0.046-2.868-0.046
		C180.96,302.463,184.639,303.539,188.461,301.547z"/>
	<path style="fill:#ded1b4;" d="M303.324,140.473c0.963,0.765,1.797,1.311,2.49,1.999c2.318,2.305,2.429,5.226,0.205,7.62
		c-1.034,1.113-2.306,2.006-3.459,2.989c2.169,5.256,0.708,9.865-3.557,11.31c-5.228,1.772-8.825-0.385-10.096-6.053
		c-5.251,0.822-6.985,0.336-9.65-2.927c0.516-1.324,1.098-2.818,1.748-4.488c0.993,3.829,2.639,5.566,5.269,5.72
		c1.99,0.117,4.426-1.339,4.94-3.185c0.962-3.455-0.876-5.592-4.417-7.276c2.736-0.393,3.431,1.509,4.956,2.35
		c0-0.877,0-1.657,0-2.432c-1.06-0.575-2.099-1.139-3.184-1.728c0.701-1.751,1.401-3.354,1.984-4.999
		c0.577-1.627,1.036-3.296,1.577-5.044c1.654,1.646,1.435,3.525,1.204,5.61c1.611-2.743,1.798-3.889,0.131-6.295
		c-1.383-1.995-0.674-3.571,0.404-5.108c1.227-1.749,2.823-3.203,5.213-2.833c4.234,0.655,7.235,4.2,7.337,8.487
		C306.48,136.701,305.258,138.597,303.324,140.473z M290.475,156.874c0.618,2.642,1.606,4.746,4.42,5.283
		c2.211,0.422,4.189-0.227,5.6-1.938c1.575-1.909,1.41-4.001-0.054-6.267c-2.467,0.467-4.7-0.263-6.757-2.154
		C292.582,153.54,291.607,155.083,290.475,156.874z M293.94,146.269c1.41,4.067,3.167,5.623,5.866,5.364
		c2.531-0.243,4.535-2.188,4.754-4.614c0.296-3.275-0.782-4.757-4.249-5.89c-1.581,0.486-3.123,0.96-4.746,1.459
		C295.035,143.788,294.511,144.975,293.94,146.269z M294.234,132.201c3.91-3.015,5.233-2.802,7.487,1.231
		c-2.135-1.407-4.119-1.907-6.167-0.186c0.402,0.916,0.796,1.811,1.201,2.733c3.313-1.207,4.171,1.157,4.964,3.725
		c2.75-2.672,2.354-5.19,1.063-8.034c-0.787-1.735-1.896-2.637-3.639-2.835c-1.977-0.225-3.713,0.348-4.884,2.064
		C294.082,131.16,294.234,131.646,294.234,132.201z"/>
	<path style="fill:#ded1b4;" d="M212.148,109.832c-0.654-0.525-0.985-0.79-1.292-1.037c0.218-3.281,1.69-5.91,3.812-8.359
		c-3.519-1.582-6.869-3.088-10.469-4.707c2.551-3.681,4.039-7.884,8.837-9.287c-2.379-3.085-3.36-6.487-3.517-10.11
		c-0.045-1.046,0.204-2.223,1.403-2.786c1.1-0.07,1.484,0.709,1.879,1.519c2.657,5.443,6.734,9.413,12.254,11.945
		c2.379,1.091,4.646,2.424,7.006,3.56c2.636,1.269,5.468,1.462,8.347,1.323c1.319-0.064,2.65-0.12,3.962-0.015
		c1.039,0.084,2.058,0.42,3.162,0.66c0,1.131,0,1.984,0,3.23c-0.666,0.21-1.424,0.567-2.217,0.678
		c-3.533,0.495-7.138,0.645-10.601,1.429c-7.025,1.59-13.631,4.17-18.918,9.383C214.801,108.24,213.49,108.901,212.148,109.832z
		 M242.068,94.239c-3.992-0.972-7.314-1.601-10.521-2.6c-6.528-2.034-12.787-4.609-17.307-10.825
		c-1.686,2.996,0.846,4.802,1.301,7.048c-3.817,0.925-6.871,2.857-9.325,6.786c3.281,0.551,5.277,3.569,9.315,3.096
		c-1.921-1.506-3.421-2.682-5.074-3.978c2.445-2.862,4.708-5.293,8.422-5.777c-1.718,1.606-3.344,3.127-4.996,4.672
		c3.002,2.694,6.446,2.871,9.823,3.175C229.672,96.372,235.444,94.716,242.068,94.239z M212.71,106.792
		c0.191,0.177,0.382,0.353,0.573,0.53c1.235-1.317,2.437-2.668,3.716-3.941c1.34-1.334,2.755-2.592,4.279-4.014
		c-1.357-0.335-2.41-0.596-3.631-0.897c-1.634,2.484-3.264,4.938-4.857,7.416C212.644,106.111,212.731,106.486,212.71,106.792z"/>
	<path style="fill:#ded1b4;" d="M135.972,294.502c-0.283-1.223-0.478-2.064-0.635-2.742c0.581-1.875,2.073-2.414,3.451-3.086
		c6.443-3.14,13.247-5.27,20.157-7.059c3.283-0.849,6.626-1.482,9.966-2.08c1.056-0.189,2.201-0.03,3.284,0.122
		c0.984,0.137,1.507,0.808,1.475,2.277c-0.843,0.494-1.805,1.166-2.852,1.653c-6.673,3.102-13.364,6.162-20.049,9.238
		c-1.796,0.826-3.625,1.591-5.368,2.516c-1.043,0.554-1.959,1.353-2.912,2.067c-0.788,0.59-1.497,1.3-2.328,1.815
		c-5.514,3.417-11.042,6.811-16.588,10.177c-1.312,0.796-2.67,1.537-4.072,2.155c-1.624,0.716-3.3,0.814-5.128,0.584
		c-3.565-0.449-6.393-2.915-5.163-7.776C117.707,300.585,126.842,297.848,135.972,294.502z M110.362,304.982
		c2.526,1.75,3.442,2.024,5.42,1.475c1.58-0.439,3.13-1.021,4.646-1.652c16.123-6.719,31.889-14.205,47.462-22.106
		c0.631-0.32,1.164-0.833,1.934-1.395c-6.203-1.057-26.778,5.901-31.938,10.694c0.211,0.967,0.438,2.007,0.617,2.829
		c-0.548,1.592-1.741,1.851-2.913,2.207c-4.72,1.431-9.436,2.878-14.141,4.358C117.907,302.505,114.383,303.677,110.362,304.982z
		 M122.531,307.999c-6.45,1.959-5.969,1.378-10.543,0.904C115.461,311.483,117.631,311.378,122.531,307.999z"/>
	<path style="fill:#ded1b4;" d="M325.126,287.184c2.741,1.515,5.356,2.877,7.89,4.377c6.402,3.789,13.493,5.127,20.736,5.857
		c6.776,0.682,13.559,1.429,20.358,1.72c7.354,0.316,14.728,0.681,22.093-0.179c3.707-0.433,7.456-0.504,11.172-0.876
		c2.941-0.295,5.86-0.813,8.792-1.207c2.778-0.373,5.199-1.611,7.544-3.204c-6.792,0.435-13.464,1.891-20.293,1.984
		c-6.895,0.094-13.784,0.7-20.801,0.516c0.495-0.207,0.98-0.561,1.488-0.597c4.277-0.303,8.568-0.444,12.835-0.839
		c4.805-0.444,9.599-1.04,14.382-1.681c5.434-0.729,10.849-1.595,16.278-2.358c0.561-0.079,1.163,0.137,2.233,0.281
		c-0.779,0.802-1.138,1.306-1.616,1.643c-6.422,4.539-13.72,6.699-21.377,8.001c-9.344,1.589-18.724,2.773-28.203,2.064
		c-5.57-0.417-11.136-1.181-16.637-2.161c-7.224-1.287-14.369-3.006-21.573-4.415c-5.786-1.131-10.72-3.785-14.961-7.817
		c-0.153-0.146-0.275-0.333-0.375-0.521C325.049,287.693,325.099,287.561,325.126,287.184z"/>
	<path style="fill:#ded1b4;" d="M64.937,296.739c-6.892-0.383-13.781-0.975-20.677-1.09c-6.82-0.114-13.484-1.439-20.258-2.071
		c2.892,2.319,6.278,3.353,9.814,3.783c11.574,1.41,23.18,2.541,34.858,1.928c7.787-0.409,15.566-1.031,23.331-1.745
		c4.032-0.371,8.064-0.971,12.03-1.784c5.779-1.185,10.836-4.14,15.876-7.063c0.833-0.483,1.623-1.04,2.759-1.315
		c-0.23,0.387-0.386,0.854-0.701,1.15c-4.266,4.013-9.252,6.541-15.046,7.633c-8.506,1.602-16.955,3.507-25.464,5.088
		c-8.466,1.573-17.048,2.078-25.621,1.373c-8.417-0.692-16.759-2.084-24.933-4.281c-4.715-1.268-8.653-4.036-13.149-6.962
		c1.025-0.385,1.572-0.803,2.049-0.735c3.909,0.551,7.796,1.255,11.707,1.79c4.672,0.639,9.351,1.258,14.045,1.699
		c6.125,0.575,12.267,0.959,18.4,1.449c0.377,0.03,0.738,0.265,1.106,0.404C65.022,296.24,64.979,296.489,64.937,296.739z"/>
	<path style="fill:#ded1b4;" d="M353.352,239.311c4.379-0.103,8.172-1.599,11.129-4.883c2.797-3.107,5.525-6.276,8.242-9.453
		c2.815-3.292,4.822-7.064,6.463-11.054c2.126-5.168,4.298-10.317,6.477-15.463c0.411-0.97,0.953-1.886,1.605-3.16
		c0.723,0.771,1.345,1.141,1.508,1.656c0.845,2.673,1.549,5.387,1.154,8.328c-0.763-2.012-1.526-4.023-2.349-6.194
		c-2.378,5.052-4.746,9.849-6.909,14.737c-3.009,6.798-7.062,12.92-11.755,18.634c-2.866,3.49-6.752,5.58-10.833,7.304
		c-1.609,0.68-3.3,1.165-5.116,1.795c-0.681,2.064,0.361,4.053,0.695,6.025c1.026,6.051,2.374,12.046,3.518,18.078
		c0.263,1.386,0.213,2.832,0.331,4.612c2.016,0.217,4.045,0.523,6.085,0.633c2.527,0.136,5.065,0.074,7.596,0.165
		c1.274,0.046,2.618-0.216,3.71,0.884c0.312,0.314,1.039,0.274,1.58,0.294c6.594,0.25,13.188,0.574,19.785,0.671
		c2.672,0.039,5.236-0.533,7.85-1.563c3.735-1.471,7.815-2.072,11.755-3.009c0.263-0.063,0.597,0.172,1.208,0.367
		c-0.378,0.58-0.588,1.332-0.99,1.456c-5.177,1.589-10.324,3.114-15.809,3.615c-8.041,0.734-16.066,0.607-24.082,0.285
		c-6.684-0.269-13.444-0.677-19.977-1.986c-4.303-0.862-8.696-1.784-12.912-3.203c-0.208-0.07-0.401-0.182-0.604-0.266
		c-2.024-0.837-2.616-1.638-2.534-3.361c0.081-1.696,1.074-2.554,2.616-2.945c0.638-0.162,1.263-0.383,1.907-0.516
		c2.038-0.421,4.079-0.835,6.127-1.207c0.83-0.151,1.773-0.495,2.324,0.809c-1.683,1.427-3.763,0.616-5.612,0.908
		c-1.871,0.296-3.652,0.671-5.091,1.789c-0.758,1.723,0.044,2.704,1.384,3.279c1.607,0.688,3.259,1.313,4.945,1.76
		c1.998,0.529,4.053,0.839,6.111,1.249c1.476-2.105,1.451-4.239,0.95-6.434c-1.657-7.268-3.326-14.533-4.979-21.802
		c-0.046-0.201,0.034-0.43,0.07-0.802c0.795-0.667,1.675-1.406,2.555-2.145L353.352,239.311z"/>
	<path style="fill:#ded1b4;" d="M59.939,195.391c2.174,1.672,2.465,3.855,3.154,5.744c4.604,12.608,10.498,24.39,20.492,33.741
		c2.524,2.362,5.443,3.626,8.704,4.359c1.476,0.332,2.955,0.656,4.673,1.037c-0.138,1.099-0.174,1.95-0.36,2.767
		c-1.555,6.834-3.158,13.657-4.699,20.494c-0.513,2.276-0.667,4.555,0.845,6.725c3.736-0.346,7.357-1.087,10.77-2.681
		c1.377-0.643,2.531-1.458,1.854-3.274c-3.042-2.986-7.349-1.351-11.424-2.899c1.003-0.507,1.487-0.98,1.872-0.91
		c3.125,0.569,6.257,1.137,9.333,1.918c1.805,0.458,2.363,1.466,2.388,3.098c0.027,1.734-0.992,2.638-2.48,3.056
		c-2.953,0.829-5.894,1.864-8.912,2.248c-2.582,0.328-4.872,1.478-7.511,1.739c-7.658,0.759-15.296,1.657-23.003,1.704
		c-6.712,0.04-13.434,0.281-20.112-0.659c-2.714-0.382-5.526-0.564-8.078-1.456c-2.017-0.705-4.028-1.426-6.073-2.064
		c-0.324-0.101-0.453-0.823-0.906-1.721c1.275,0.11,2.12,0.077,2.911,0.27c3.088,0.753,6.295,1.244,9.208,2.44
		c7.212,2.962,14.593,1.831,21.968,1.457c1.319-0.067,2.642-0.09,3.958-0.198c1.806-0.148,3.639,0.241,5.356-0.999
		c0.754-0.544,2.137-0.237,3.236-0.281c4.27-0.168,8.541-0.322,12.683-0.476c1.813-9.817,3.558-19.262,5.323-28.822
		c-1.649-0.605-3.073-1.126-4.496-1.649c-5.373-1.975-9.981-4.942-13.465-9.637c-3.814-5.139-7.317-10.434-9.968-16.279
		c-2.262-4.987-4.621-9.93-7.044-15.122c-0.82,2.161-1.583,4.171-2.345,6.18C57.829,201.902,57.771,198.572,59.939,195.391z"/>
	<path style="fill:#ded1b4;" d="M3.698,300.057c0.162-0.404,0.311-0.776,0.527-1.316c0.921,0.229,1.758,0.406,2.576,0.647
		c7.158,2.108,14.211,4.466,20.843,7.982c5.058,2.682,10.387,4.711,16.073,5.638c2.164,0.353,4.349,0.724,6.533,0.783
		c5.863,0.159,11.502,1.564,17.178,2.807c12.956,2.838,25.858,5.873,38.299,10.567c3.898,1.471,7.761,3.034,11.645,4.544
		c1.014,0.394,2.132,0.618,2.701,2.078c-0.567,0.184-1.19,0.628-1.617,0.485c-1.868-0.627-3.695-1.389-5.509-2.166
		c-12.778-5.467-26.127-8.788-39.825-10.981c-9.408-1.506-18.781-3.3-28.088-5.334c-3.922-0.857-7.698-2.515-11.424-4.086
		c-2.822-1.19-5.495-2.756-8.17-4.268c-5.612-3.172-11.646-5.043-17.975-6.077c-0.972-0.159-1.93-0.415-2.88-0.683
		C4.302,300.597,4.074,300.328,3.698,300.057z"/>
	<path style="fill:#ded1b4;" d="M126.836,311.058c7.353-3.462,14.687-6.916,22.168-10.439c0.272-2.418,1.871-3.968,3.775-5.412
		c2.911-2.209,5.968-4.116,9.421-5.327c4.444-1.558,8.884-3.134,13.372-4.554c2.081-0.658,2.131-0.499,4.285,1.143
		c-0.4,0.571-0.683,1.343-1.234,1.704c-6.245,4.089-12.498,8.169-18.837,12.111c-1.258,0.782-2.888,0.966-4.157,1.67
		c-2.648,2.1-5.264,4.243-7.953,6.29c-3.323,2.529-6.663,5.04-10.08,7.439c-1.795,1.26-3.754,2.279-6.121,1.883
		C127.542,316.91,126.585,315.701,126.836,311.058z M127.56,312.132c2.971,1.108,5.045,0.598,7.026-0.484
		c5.88-3.211,11.742-6.457,17.618-9.675c1.055-0.578,2.1-1.388,3.233-1.568c2.948-0.468,5.297-2.035,7.666-3.629
		c2.737-1.841,5.486-3.666,8.193-5.55c1.84-1.281,3.617-2.652,5.421-3.983c-1.487-0.391-2.82-0.398-4.01,0.01
		c-3.941,1.352-7.847,2.81-11.734,4.311c-3.132,1.21-5.763,3.195-7.999,5.68c-0.65,0.723-1.449,1.547-1.61,2.428
		c-0.398,2.178-1.807,3.02-3.661,3.763c-5.807,2.324-11.562,4.778-17.327,7.205C129.608,310.963,128.896,311.419,127.56,312.132z
		 M130.019,315.603c4.266,0.741,4.648,0.654,6.893-1.387C134.78,314.645,132.603,315.083,130.019,315.603z"/>
	<path style="fill:#ded1b4;" d="M291.591,82.531c-1.335-0.471-1.501-1.549-1.528-2.68c-0.037-1.541-0.03-3.083-0.058-4.624
		c-0.168-9.353-0.417-18.705-0.479-28.058c-0.03-4.503,0.448-9.011,0.403-13.513c-0.038-3.723-0.501-7.442-0.8-11.162
		c-0.013-0.167-0.266-0.314-0.676-0.768c-0.191,0.735-0.434,1.26-0.449,1.792c-0.224,7.919-0.602,15.839-0.556,23.757
		c0.032,5.482,0.693,10.958,1.01,16.441c0.298,5.15,0.516,10.305-0.78,15.477c-1.553,0.051-1.566-0.96-1.514-1.945
		c0.126-2.413,0.459-4.826,0.415-7.234c-0.112-6.156-0.647-12.314-0.532-18.463c0.181-9.671,0.763-19.334,1.159-29.001
		c0.057-1.393,0.359-2.614,1.726-3.29c2.475,0.884,2.94,1.72,2.807,4.687c-0.187,4.175-0.291,8.353-0.479,12.528
		c-0.2,4.42,0.334,8.766,1.109,13.103c0.211,1.183,0.226,2.41,0.24,3.618c0.065,5.725,0.068,11.45,0.154,17.175
		c0.046,3.079,0.235,6.155,0.321,9.233C293.118,80.827,293.026,82.044,291.591,82.531z"/>
	<path style="fill:#ded1b4;" d="M308.529,280.275c0.406,0.206,0.812,0.412,1.218,0.618c3.977,5.422,8.479,10.322,13.772,14.518
		c4.568,3.622,8.997,7.421,13.405,11.237c1.471,1.273,2.685,2.843,3.809,4.054c-0.122,1.953-1.016,2.82-2.22,3.522
		c-3.09,1.802-6.436,2.138-9.889,1.718c-1.896-0.231-3.154-1.557-4.133-3.04c-2.966-4.495-5.931-8.994-8.738-13.589
		c-2.577-4.219-5.032-8.519-7.372-12.874c-1.126-2.095-2.577-3.211-4.976-2.952c-1.467,0.158-2.571-0.48-3.356-1.653
		c-0.204-0.304-0.138-0.789-0.27-1.705c1.158,0.617,1.941,1.035,2.556,1.362C304.499,281.067,306.514,280.671,308.529,280.275z
		 M338.957,311.248c-0.615-0.713-0.928-1.178-1.337-1.535c-4.226-3.687-8.401-7.437-12.721-11.01
		c-4.924-4.074-9.878-8.091-13.718-13.279c-0.478-0.646-1.136-1.16-1.711-1.735c-0.194,0.629-0.042,0.984,0.169,1.302
		c4.009,6.048,7.993,12.114,12.056,18.125c1.661,2.457,3.448,4.834,5.281,7.166c0.662,0.842,1.538,1.887,2.47,2.075
		C332.552,312.985,335.723,313.232,338.957,311.248z"/>
	<path style="fill:#ded1b4;" d="M15.588,251.234c1.092-0.981,2.27-1.496,3.84-1.444c1.141,0.038,2.33-0.488,3.439-0.917
		c0.325-0.126,0.446-0.779,0.908-1.665c-1.652,0.405-2.772,0.679-3.892,0.952c-2.617-3.299-0.448-7.383,5.726-10.78
		c-0.156-6.359-0.316-12.905-0.483-19.675c1.382-0.229,3.042-0.504,4.916-0.814c-0.233,6.436-0.463,12.767-0.692,19.091
		c1.121,0.808,2.175,1.403,3.028,2.212c3.128,2.965,2.375,6.454-1.77,7.774c-2.043,0.651-3.832,1.492-5.304,3.08
		c-0.572,0.618-1.392,1.138-2.197,1.384c-2.286,0.697-4.622,1.229-7.104,1.869c-0.111-0.38-0.226-0.772-0.34-1.164L15.588,251.234z
		 M31.21,242.686c0.347-2.982-1.032-3.899-4.215-2.611c0,0.958,0,1.987,0,2.967C29.326,243.519,29.326,243.519,31.21,242.686z
		 M23.55,241.767c0.076,0.242,0.151,0.485,0.227,0.727c0.567-0.08,1.135-0.161,2.071-0.293c-0.554-0.758-0.84-1.15-1.253-1.714
		C24.158,241.023,23.854,241.395,23.55,241.767z"/>
	<path style="fill:#ded1b4;" d="M241.749,116.16c1.045,0.274,2.064,0.608,3.108,0.804c4.485,0.845,7.385,4.074,8.26,8.563
		c0.521,2.676,0.199,5.147-0.49,7.565c2.234,0.174,4.438,0.345,6.83,0.531c0.526-5.137,4.036-7.702,9.06-8.987
		c-0.317-1.193-0.63-2.369-1.078-4.05c2.475,1.317,2.323,3.214,2.641,4.755c-2.406,1.663-5.049,2.858-6.754,4.854
		c-1.595,1.866-2.195,4.582-3.35,7.187c-0.618-0.746-1.193-1.441-1.841-2.223c-2.43-1.222-4.97-0.24-7.775,0.176
		c0.103-0.727,0.216-1.219,0.237-1.715c0.097-2.288,0.536-4.637,0.177-6.855c-0.925-5.716-5.035-8.762-10.627-8.579
		c-1.066-4.353,1.247-7.874,6.228-9.119c0.422,0.522,0.92,1.139,1.535,1.9C245.687,112.684,242.643,113.025,241.749,116.16z"/>
	<path style="fill:#ded1b4;" d="M303.102,293.329c0.72,0.688,1.475,1.268,2.057,1.988c4.353,5.379,8.68,10.778,12.989,16.192
		c0.542,0.682,1.043,1.439,1.371,2.24c0.756,1.844,0.262,3.519-1.371,4.622c-2.164,1.462-4.593,1.951-7.19,1.79
		c-2.694-0.167-4.269-1.778-4.974-4.139c-1.282-4.293-2.368-8.645-3.483-12.986c-0.284-1.105-0.366-2.262-0.538-3.374
		c1.396-0.33,1.602,0.429,1.87,1.171c1.266,3.502,2.551,6.997,3.831,10.494c0.151,0.412,0.292,0.828,0.466,1.229
		c1.986,4.58,5.557,5.615,10.117,2.837c-0.326-1.777-1.572-3.065-2.642-4.405c-4.043-5.065-8.151-10.079-12.231-15.115
		C302.836,295.208,302.095,294.574,303.102,293.329z"/>
	<path style="fill:#ded1b4;" d="M125.367,188.628c-1.136-9.787-2.465-19.624-5.629-29.234c-1.664,0-3.067,0-4.409,0
		c-1.035-1.34-0.612-2.716-0.444-3.945c0.549-4.021,1.311-8.012,1.912-12.027c0.322-2.151,1.505-3.35,3.597-3.709
		c0.756-0.13,1.525-0.264,2.288-0.265c4.957-0.01,9.914,0.01,14.872,0.036c1.086,0.006,2.241-0.083,2.856,1.292
		c-0.688,2.008-2.616,2.43-4.227,2.508c-4.592,0.223-9.203,0.078-13.818-0.094c2.928-1.343,6.103-0.91,9.521-1.312
		c-2.402-1.618-4.817-0.989-7.07-1.049c-2.216-0.059-4.675-0.817-6.58,1.393c-0.749,5.013-1.372,10.097-1.509,15.514
		c3.615-0.294,4.53,2.005,5.226,4.589c2.239,8.313,3.597,16.748,3.577,25.377C125.529,188.012,125.423,188.32,125.367,188.628z"/>
	<path style="fill:#ded1b4;" d="M271.516,134.097c-0.35,2.681-0.701,5.362-1.129,8.64c-0.762,0.824-1.941,2.099-3.07,3.321
		c-4.465-1.242-6.674-6.133-4.963-11.249c1.782-5.33,5.842-7.884,12.444-5.79c-1.292,1.704-1.334,4.031-3.396,5.204
		c-0.225-1.117-0.451-2.234-0.698-3.461c-1.064,0.105-1.79,0.176-2.407,0.237c-0.555,1.002-1.019,1.841-1.584,2.863
		c0.734,0.577,1.375,1.081,1.985,1.561C269.77,134.92,270.643,134.508,271.516,134.097z M265.096,138.186
		c1.318-0.629,1.323-1.225,0.432-2.169c-0.438,0.37-0.803,0.678-1.425,1.204C264.529,137.635,264.823,137.921,265.096,138.186z"/>
	<path style="fill:#ded1b4;" d="M292.937,126.264c-0.913-0.753-1.822-1.503-2.801-2.31c0.585-0.228,1.05-0.408,1.626-0.632
		c0.716-1.788-0.14-2.826-1.659-3.579c-1.685,1.146-1.685,1.146-1.005,3.701c-2.264-0.703-4.28-2.36-6.844-1.189
		c0.784-4.028,2.116-4.783,7.877-4.694c-1.815-1.77-2.596-2.04-4.557-1.237c-2.378,0.973-4.104,2.6-4.17,5.341
		c-0.033,1.384-0.587,2.273-1.71,2.946c-0.785-1.268-1.092-2.478-0.534-4.027c0.871-2.42,1.867-4.718,3.975-6.269
		c2.653-1.952,6.85-1.048,9.709,1.954C295.214,118.757,295.271,122.901,292.937,126.264z"/>
	<path style="fill:#ded1b4;" d="M295.934,235.733c-1.883,1.575-3.56,2.979-5.2,4.351c-0.285,2.478-0.543,4.86-0.841,7.237
		c-0.135,1.077-0.171,1.073-1.933,2.04c-1.628-2.335-2.937-4.743-2.539-7.964c2.545-2.085,5.165-4.231,7.946-6.509
		c-0.17-7.946-1.935-15.759-2.584-23.693C293.339,219.126,295.56,227.114,295.934,235.733z"/>
	<path style="fill:#ded1b4;" d="M412.18,200.338c1.99,0.307,3.482,0.538,5.368,0.829c-0.201,3.366-0.484,6.789-0.588,10.217
		c-0.102,3.397-0.022,6.8-0.022,10.258c0.808,0.493,1.535,0.937,2.303,1.405c-0.202,0.136-0.338,0.307-0.483,0.314
		c-3.233,0.161-6.558-0.525-10.055,1.621c0.831-3.001,2.798-3.816,4.858-4.598c0-5.552,0.065-11.038-0.056-16.521
		C413.48,202.799,412.732,201.75,412.18,200.338z"/>
	<path style="fill:#ded1b4;" d="M251.651,68.771c-1.116,1.957-2.252,3.903-3.342,5.874c-0.916,1.656-2.2,1.666-3.825-0.146
		c0.466-0.544,0.862-1.221,1.442-1.649c2.881-2.127,3.97-5.164,4.27-8.521c0.34-3.811,0.512-7.639,0.675-11.463
		c0.041-0.964-0.27-1.939-0.352-2.914c-0.061-0.722-0.012-1.454,0.484-2.356c0.254,0.375,0.604,0.716,0.746,1.129
		c1.171,3.408,2.476,6.783,3.402,10.259c1.116,4.191,0.42,8.03-3.308,11.047c-0.111-0.519-0.2-0.932-0.288-1.345
		c2.023-3.152,2.499-6.388,1.252-10.775C252.421,61.531,252.036,65.151,251.651,68.771z"/>
	<path style="fill:#ded1b4;" d="M169.765,184.345c5.68,10.158,3.974,22.487-2.97,31.606c-3.503-2.78-4.519-5.224-3.798-9.6
		c0.676-4.108,1.454-8.2,2.228-12.291c0.138-0.731,0.478-1.425,1.21-2.076c-0.076,1.037-0.105,2.081-0.235,3.111
		c-0.561,4.462-1.202,8.915-1.709,13.384c-0.247,2.18,0.265,3.394,2.237,6.376c0.427-0.844,0.83-1.524,1.127-2.247
		c2.104-5.136,3.457-10.437,3.026-16.033c-0.235-3.052-0.762-6.08-1.099-9.126C169.677,186.503,169.765,185.535,169.765,184.345z"/>
	<path style="fill:#ded1b4;" d="M187.973,258.193c0.485-0.481,0.899-1.08,1.466-1.425c3.658-2.219,7.486-3.995,11.725-4.316
		c1.093,1.035,2.132,1.854,2.958,2.848c0.801,0.964,1.809,1.887,1.979,3.469c-0.759,0.168-1.359,0.393-1.968,0.42
		c-4.255,0.189-8.511,0.387-12.768,0.463c-1.034,0.019-2.075-0.405-3.113-0.626C188.159,258.749,188.066,258.471,187.973,258.193z"
		/>
	<path style="fill:#ded1b4;" d="M304.735,121.646c1.227-0.76,1.958-1.212,2.922-1.809c-2.266-0.359-4.337-0.687-7.063-1.118
		c2.585-1.598,4.931-1.226,7.066-1.661c2.135-0.434,4.327-0.585,7.053-0.931c-0.99-0.766-1.564-1.21-2.402-1.858
		c0.847-0.374,1.472-0.795,2.151-0.919c1.356-0.247,2.536,0.389,3.02,1.445c0.561,1.224,0.326,2.796-0.8,3.565
		c-0.871,0.595-1.938,0.986-2.974,1.232c-0.829,0.197-1.742,0.04-2.779,0.04c0.078,0.976,0.149,1.859,0.223,2.782
		C308.894,123.973,307.045,123.126,304.735,121.646z"/>
	<path style="fill:#ded1b4;" d="M153.171,138.175c2.342-2.317,5.248-2.471,8.16-1.775c2.304,0.551,4.491,1.593,7.214,2.596
		c0.057-0.013,0.69-0.159,1.396-0.322c0.878-5.308,5.468-6.342,9.442-8.229c1.438-4.989,1.438-4.989,3.271-6.55
		c-0.716,3.049-1.429,6.089-2.207,9.4c-4.568-0.317-7.685,1.845-8.992,6.591c-2.181,0.503-4.174,0.401-6.287-0.679
		c-3.817-1.953-7.898-2.376-12.073-1.114L153.171,138.175z"/>
	<path style="fill:#ded1b4;" d="M295.388,285.048c4.208-6.818,2.24-13.336,1.701-19.693c-3.416-1.79-11.022-1.607-16.562,0.361
		c-0.613-0.77-1.285-1.614-2.02-2.539c0.518,0.066,1.166,0.155,1.815,0.227c0.634,0.071,1.301,0.279,1.9,0.16
		c3.874-0.766,7.755-1.207,11.683-0.489c1.382,0.252,2.746,0.599,4.317,0.947c0.859,6.123,2.067,12.03,0.292,18.014
		C298.16,283.229,297.774,284.518,295.388,285.048z"/>
	<path style="fill:#ded1b4;" d="M288.212,0.213c1.827-0.639,2.632,0.262,2.774,1.377c0.644,5.044,1.942,10.114-0.266,15.143
		c0.129-2.018,0.471-4.051,0.326-6.048c-0.141-1.928-0.784-3.82-1.674-5.739c-0.431,3.154-0.92,6.301-1.25,9.465
		c-0.082,0.788,0.352,1.63,0.364,2.523c-1.263-1.277-2.621-2.583-2.427-4.508C286.473,8.319,286.784,4.176,288.212,0.213z"/>
	<path style="fill:#ded1b4;" d="M274.169,38.54c0.864-4.074,0.521-8.011-1.161-12.157c-0.835,4.312-1.617,8.299-0.958,12.848
		c-1.47-1.839-2.791-3.331-2.519-5.425c0.505-3.883,1.171-7.744,1.78-11.681c0.822-0.147,1.578-0.487,1.781-0.281
		c0.644,0.651,1.397,1.453,1.54,2.294c0.403,2.365,0.587,4.775,0.734,7.175C275.518,33.77,275.724,36.266,274.169,38.54z"/>
	<path style="fill:#ded1b4;" d="M276.991,164.095c-0.043-2.577,0.735-3.633,3.036-4.079c3.08-0.597,6.773,1.529,7.92,4.561
		c1.298,3.43,0.29,6.118-3.015,8.039c-3.268,1.9-5.728,1.745-8.789-0.613c0-1.008,0-2.077,0-3.704
		c0.975,1.027,1.645,1.653,2.221,2.355c1.395,1.699,4.833,1.581,6.678,0.275c1.899-1.345,2.569-3.91,1.585-6.151
		c-1.116-2.544-4.69-3.735-7.29-2.357C278.488,162.869,277.757,163.539,276.991,164.095z"/>
	<path style="fill:#ded1b4;" d="M350.569,170.878c-0.025,7.349-0.153,14.693,3.66,21.589c1.449-1.307,1.978-2.787,1.831-4.461
		c-0.279-3.167-0.661-6.324-1.012-9.484c-0.131-1.177-0.296-2.349-0.139-3.573c1.134,4.323,2.553,8.585,2.627,13.096
		c0.039,2.378-1.466,4.023-3.335,5.868c-2.264-3.346-3.715-6.843-4.78-10.475C348.167,179.167,349.358,175.021,350.569,170.878z"/>
	<path style="fill:#ded1b4;" d="M272.391,40.888c2.379,0.587,2.858,1.956,2.829,3.423c-0.138,6.789-0.371,13.576-0.59,20.364
		c-0.006,0.173-0.243,0.339-0.405,0.552c-1.049,0.047-1.215-0.646-1.181-1.48c0.137-3.279,0.451-6.562,0.382-9.836
		c-0.071-3.357-0.514-6.706-1.097-10.069c-1.652,2.342-0.283,5.159-1.428,8.064c-0.356-0.766-0.717-1.17-0.693-1.55
		c0.14-2.294,0.238-4.605,0.629-6.861C270.996,42.565,271.85,41.755,272.391,40.888z"/>
	<path style="fill:#ded1b4;" d="M229.046,103.31c2.235-1.676,4.679-1.803,6.604,0.021c1.611,1.527,2.746,3.555,4.066,5.327
		c1.281-0.695,2.687-1.458,4.241-2.302c0-1.274,0-2.749,0-4.273c-0.886-1.04-2.575-1.51-2.892-3.99
		c1.834,1.344,3.16,2.315,4.413,3.233c0,2.356,0,4.504,0,6.864c-0.868,0.099-1.812,0.206-2.768,0.315
		c-1.163,0.908-2.334,1.823-3.571,2.789c-1.128-1.738-2.078-3.175-3-4.631c-1.201-1.897-2.789-3.047-5.154-2.93
		C230.415,103.761,229.831,103.49,229.046,103.31z"/>
	<path style="fill:#ded1b4;" d="M305.315,43.343c-3.785-4.54-3.811-8.996-2.406-13.671c0.478-1.591,0.391-3.584,2.529-4.001
		c1.265,0.526,1.528,1.474,1.689,2.462c0.67,4.117,1.394,8.238-0.477,12.321c0.278-3.529,1.022-7.113-1.31-10.806
		c-0.336,1.733-0.64,3.099-0.857,4.478c-0.222,1.407-0.584,2.846-0.471,4.238C304.13,39.828,304.741,41.25,305.315,43.343z"/>
	<path style="fill:#ded1b4;" d="M390.423,139.612c-0.969-0.206-1.441-0.179-1.747-0.392c-2.276-1.584-3.356-4.015-4.119-6.508
		c-0.632-2.066,0.369-3.24,2.496-3.813c3.258-0.878,6.325-0.578,9.545,1.234c-3.05,0.243-5.765,0.459-8.35,0.664
		C387.13,134.085,387.472,135.51,390.423,139.612z"/>
	<path style="fill:#ded1b4;" d="M54.666,147.354c-3.056-0.241-5.784-0.455-8.806-0.693c3.516-2.087,6.944-2.13,10.444-0.936
		c1.305,0.445,2.008,1.62,1.57,2.874c-0.864,2.47-1.874,4.917-4.15,6.514c-0.17,0.119-0.398,0.202-0.604,0.212
		c-0.201,0.009-0.408-0.096-0.81-0.205C53.759,152.881,55.348,150.684,54.666,147.354z"/>
	<path style="fill:#ded1b4;" d="M261.607,301.34c-2.322,2.314-5.136,1.429-7.565,1.235c-2.303-0.184-4.99,0.231-7.116-1.657
		c2.245-1.716,4.794-2.005,11.572-1.548C259.771,299.457,260.877,299.706,261.607,301.34z M253.373,300.94
		c0.002,0.069,0.004,0.139,0.006,0.208c1.873,0,3.746,0,5.62,0c-0.003-0.069-0.007-0.139-0.01-0.208
		C257.117,300.94,255.245,300.94,253.373,300.94z"/>
	<path style="fill:#ded1b4;" d="M194.105,107.74c1.005,0.304,1.668,0.952,2.07,1.964c-0.465,1.621-1.68,2.499-2.95,3.385
		c-2.231,1.558-2.331,1.796-2.985,5.056c1.224,0.293,2.503,0.491,3.7,0.919c1.101,0.393,2.113,1.033,3.127,1.545
		c0.292,1.47,0.539,2.713,0.814,4.096c-1.222-1.428-2.092-3.031-3.439-3.857c-1.42-0.87-3.295-0.998-4.881-1.426
		c-1.283-2.209-0.578-4.082,0.72-5.602c1.185-1.388,2.782-2.425,4.321-3.72c-0.14-0.806-0.283-1.625-0.426-2.443L194.105,107.74z"/>
	<path style="fill:#ded1b4;" d="M323.615,193.97c0.076-0.901,0.152-1.802,0.228-2.703c0.144-0.017,0.288-0.034,0.432-0.05
		c0.669,2.833,1.338,5.665,2.044,8.651c-3.995-2.952-4.298-3.463-5.653-8.691c-0.463-1.786-0.527-3.463,0.578-4.83
		c0.614,2.482,1.257,5.081,1.9,7.68C323.302,194.008,323.459,193.989,323.615,193.97z"/>
	<path style="fill:#ded1b4;" d="M231.685,53.305c-0.423-0.392-0.847-0.783-1.27-1.175c-2.159-2.74-1.066-5.763-1.111-8.894
		c2.014,0.232,2.41,1.946,3.7,2.473c0,2.552,0,4.939,0,7.595C232.469,53.305,232.077,53.305,231.685,53.305z M230.34,50.625
		c0.554,0.368,0.857,0.57,1.161,0.772c-0.218-1.307,1.659-2.565-0.158-3.735C231.025,48.601,230.725,49.489,230.34,50.625z"/>
	<path style="fill:#ded1b4;" d="M164.848,246.578c1.433-3.015,3.612-4.007,6.086-5.104c0-1.061-0.083-2.251,0.017-3.425
		c0.245-2.871,1.675-4.019,5.474-3.92c-2.87,0.822-3.914,2.473-4.091,4.705c-0.176,2.22,1.16,3.83,2.755,5.864
		c-1.499-0.636-2.5-1.361-3.538-1.42c-1.128-0.064-2.372,0.323-3.416,0.825C167.109,244.596,166.271,245.479,164.848,246.578z"/>
	<path style="fill:#ded1b4;" d="M199.996,178.519c0.734,0,1.468,0,2.317,0c1.349,5.518,2.725,10.851,3.33,16.363
		c-1.281-0.585-1.341-1.669-1.564-2.687c-0.907-4.138-1.797-8.28-2.787-12.398c-0.125-0.522-0.805-0.91-1.229-1.36L199.996,178.519z
		"/>
	<path style="fill:#ded1b4;" d="M132.152,226.385c0.484-0.293,0.948-0.795,1.456-0.846c3.052-0.303,6.111-0.583,9.174-0.698
		c1.35-0.051,2.716,0.306,4.052,0.665c-4.7,1.902-9.619,0.673-14.361,1.552C132.366,226.833,132.259,226.609,132.152,226.385z"/>
	<path style="fill:#ded1b4;" d="M280.702,163.886c3.22-1.376,4.483-0.471,4.68,3.351c-0.876,0.406-1.753,0.813-2.531,1.174
		c-2.548-1.064-2.548-1.064-2.899-3.795C280.202,164.373,280.452,164.129,280.702,163.886z"/>
	<path style="fill:#ded1b4;" d="M202.75,268.217c0-0.732,0-1.045,0-1.675c2.755-0.435,5.355,0.576,7.996,0.784
		c0.262,0.021,0.48,0.593,0.908,1.162C208.478,269.726,205.747,268.396,202.75,268.217z"/>
	<path style="fill:#ded1b4;" d="M383.723,154.512c3.281,1.73,3.501,2.312,2.11,5.554c-1.328-0.866-2.624-1.711-4.129-2.692
		C382.391,156.401,382.997,155.541,383.723,154.512z"/>
	<path style="fill:#ded1b4;" d="M56.578,176.038c-1.354-3.413-1.107-4.029,1.913-5.518c0.182,0.106,0.42,0.171,0.536,0.327
		c0.514,0.689,0.994,1.403,1.626,2.31C59.341,174.085,58.074,174.981,56.578,176.038z"/>
	<path style="fill:#ded1b4;" d="M280.702,163.886c-0.25,0.243-0.5,0.487-0.75,0.73c-1.02,3.113,0.358,5.026,3.362,4.573
		c0.722-0.109,1.393-0.556,2.087-0.848c-0.114,2.076-1.795,2.391-3.247,2.502c-1.606,0.123-2.914-0.872-3.696-2.278
		c-0.74-1.33-0.582-2.703,0.278-3.989C279.233,163.834,279.878,163.634,280.702,163.886z"/>
	<path style="fill:#ded1b4;" d="M86.676,225.98c3.417-0.284,6.834-0.568,10.604-0.881c-1.251,1.546-1.251,1.592-2.041,1.598
		c-2.826,0.021-5.653,0.008-8.479,0.008C86.732,226.464,86.704,226.222,86.676,225.98z"/>
	<path style="fill:#ded1b4;" d="M223.631,104.575c-1.186,2.244-2.295,4.34-3.516,6.65c-0.281-0.399-0.712-0.732-0.678-1.007
		c0.295-2.379,1.362-4.357,3.313-5.798C222.863,104.337,223.146,104.483,223.631,104.575z"/>
	<path style="fill:#ded1b4;" d="M140.624,142.805c1.522,2.367,1.742,3.241,1.61,5.742c-0.362,0.051-0.754,0.106-1.296,0.182
		C140.522,146.907,139.992,145.225,140.624,142.805z"/>
	<path style="fill:#ded1b4;" d="M241.725,90.787c-1.94-0.969-3.557-2.01-4.924-3.794C239.726,87.274,241.07,88.308,241.725,90.787z"
		/>
	<path style="fill:#ded1b4;" d="M153.095,138.093c-1.611,1.358-3.221,2.717-5.062,4.269c0.642-2.619,1.486-3.257,5.137-4.187
		L153.095,138.093z"/>
	<path style="fill:#ded1b4;" d="M243.597,163.457c-1.919,1.604-2.374,1.447-3.94-1.495c0.845,0.406,1.439,0.741,2.069,0.98
		C242.306,163.161,242.924,163.276,243.597,163.457z"/>
	<path style="fill:#ded1b4;" d="M194.176,107.656c-1.221-0.154-2.442-0.308-4.339-0.547c2.459-0.891,2.473-0.924,4.268,0.631
		L194.176,107.656z"/>
	<path style="fill:#ded1b4;" d="M246.985,157.295c0.199,0.471,0.398,0.942,0.597,1.412c-0.257,0.566-0.515,1.133-0.772,1.699
		C246.506,159.283,245.762,158.177,246.985,157.295z"/>
	<path style="fill:#ded1b4;" d="M300.352,113.002c-0.803,1.579-1.712,1.395-3.289,0.94
		C298.413,113.556,299.213,113.327,300.352,113.002z"/>
	<path style="fill:#ded1b4;" d="M186.58,154.054c0.26,0.822,0.548,1.637,0.774,2.468c0.416,1.529,0.168,2.856-1.016,4.952
		c0.145-2.698,0.387-5.055-2.346-6.325c-2.437-1.132-4.268,0.03-6.306,1.391c0-0.662,0-1.085,0-1.508
		C181.42,152.108,183.021,151.931,186.58,154.054z"/>
	<path style="fill:#ded1b4;" d="M228.876,225.584c0.473,1.194,0.72,1.571,0.765,1.97c0.781,6.902-0.086,13.604-2.754,20.011
		c-1.666,4.002-4.875,6.768-8.354,9.125c-1.625,1.101-3.708,0.932-5.338-0.137c-1.814-1.19-3.654-2.537-4.988-4.21
		c-1.836-2.301-3.223-4.963-4.76-7.497c-0.186-0.306-0.105-0.774-0.23-1.919c2.014,3.088,3.63,5.513,5.188,7.974
		c1.038,1.64,2.473,2.787,4.187,3.613c2.329,1.122,4.684,1.157,6.951-0.116c4.572-2.569,6.875-6.689,7.582-11.729
		c0.716-5.101,1.612-10.195,1.405-15.385C228.518,226.971,228.653,226.65,228.876,225.584z"/>
	<path style="fill:#ded1b4;" d="M207.788,205.495c0.418,7.242-0.3,13.577-6.976,18.282c0.937-4.103,1.756-7.691,2.576-11.279
		c0.216,0.034,0.433,0.068,0.649,0.102c-0.166,1.672-0.332,3.343-0.498,5.015c0.104,0.044,0.208,0.088,0.311,0.132
		c0.476-1.162,0.998-2.308,1.417-3.491c0.51-1.44,0.961-2.903,1.386-4.371C207.03,208.58,207.337,207.254,207.788,205.495z"/>
	<path style="fill:#ded1b4;" d="M214.812,138.798c4.553,5.906,9.806,5.363,12.739-1.054c0.666,1.958-0.392,3.192-1.369,4.423
		c-1.062,1.336-2.473,2.19-4.13,2.521C218.534,145.389,215.954,143.387,214.812,138.798z"/>
	<path style="fill:#ded1b4;" d="M233.982,147.512c3.71,2.744,4.19,6.746,1.433,9.861c-2.731,3.086-5.77,3.219-9.071,0.026
		c3.288,0.92,6.267,1.144,8.046-1.774C235.989,153.005,235.271,150.215,233.982,147.512z"/>
	<path style="fill:#ded1b4;" d="M220.291,118.021c2.664-1.017,4.535-0.355,6.098,1.451c1.744,2.017,1.827,2.834,0.636,5.144
		c-0.621-1.447-0.933-3.239-1.98-4.315C224.01,119.239,222.233,118.899,220.291,118.021z"/>
	<path style="fill:#ded1b4;" d="M245.844,126.894c-2.182,1.948-2.422,1.867-4.048-1.064c0.122-0.259,0.197-0.607,0.407-0.821
		c0.288-0.293,0.68-0.485,1.341-0.933C244.349,125.063,245.102,125.985,245.844,126.894z"/>
	<path style="fill:#ded1b4;" d="M241.413,125.398c-1.135,0-1.679,0-2.296,0C239.779,123.728,239.779,123.728,241.413,125.398z"/>
	<path style="fill:#ded1b4;" d="M398.503,156.198c2.432-0.689,4.863-1.378,7.707-2.183c-3.093-1.158-5.986-2.07-8.726-3.316
		c-2.624-1.194-5.09-2.736-7.492-4.412c10.739,3.828,21.799,6.748,31.871,12.52c-2.572-0.343-5.137-0.757-7.718-1.009
		c-2.609-0.255-5.232-0.363-7.851-0.508c-2.576-0.142-5.183,0.283-7.738-0.248C398.538,156.76,398.52,156.479,398.503,156.198z"/>
	<path style="fill:#ded1b4;" d="M408.11,149.056c-0.744-1.06-1.501-2.137-2.6-3.702c3.032,1.386,4.939,3.455,7.098,5.298
		C411.129,150.128,409.65,149.603,408.11,149.056z"/>
	<path style="fill:#ded1b4;" d="M36.252,169.869c2.818,0.811,5.263,1.515,7.708,2.218c-0.013,0.244-0.027,0.487-0.04,0.731
		c-1.398,0.696-2.989,0.243-4.479,0.317c-1.536,0.076-3.078,0.004-4.618,0.018c-1.649,0.015-3.305-0.03-4.945,0.11
		c-1.523,0.13-3.028,0.478-4.543,0.714c-1.59,0.247-3.184,0.475-4.844,0.403c10.145-5.482,21.205-8.416,31.825-12.515
		c0.09,0.2,0.181,0.4,0.271,0.599c-2.663,1.419-5.266,2.97-8.007,4.218C41.942,167.884,39.161,168.772,36.252,169.869z"/>
	<path style="fill:#ded1b4;" d="M36.567,161.675c-0.739,1.066-1.477,2.132-2.217,3.2c-1.518,0.559-3.002,1.105-4.485,1.651
		c-0.061-0.129-0.122-0.259-0.183-0.388c2.164-1.605,4.327-3.21,6.491-4.816C36.304,161.44,36.435,161.557,36.567,161.675z"/>
	<path style="fill:#ded1b4;" d="M115.505,226.502c-3.808,0-7.131,0-10.453,0c-0.06-0.159-0.119-0.318-0.179-0.477
		c0.57-0.353,1.119-0.968,1.713-1.014C109.498,224.784,112.427,224.682,115.505,226.502z"/>
	<path style="fill:#ded1b4;" d="M300.529,148.708c1.277-0.532,1.884-1.535,1.592-2.846c-0.44-1.97-2.11-2.463-4.086-2.703
		c2.988-1.312,4.209-0.644,5.721,2.91c-0.156,1.711-0.914,3.093-2.628,3.732c-0.329,0.123-0.85-0.268-1.282-0.422
		C300.074,149.156,300.302,148.932,300.529,148.708z"/>
	<path style="fill:#ded1b4;" d="M300.529,148.708c-0.228,0.224-0.455,0.448-0.683,0.672c-0.62-0.278-1.241-0.555-2.126-0.951
		c0.723-0.936,1.216-1.575,1.731-2.241c0.442,0.293,0.877,0.425,0.926,0.644C300.514,147.437,300.49,148.08,300.529,148.708z"/>
</g>
</svg>
