<?xml version="1.0" standalone="no"?>
<!DOCTYPE svg PUBLIC "-//W3C//DTD SVG 1.1//EN" "http://www.w3.org/Graphics/SVG/1.1/DTD/svg11.dtd" >
<svg>
<metadata>
Created by FontForge 20090914 at Mon Apr  4 23:02:32 2016
 By www-data
 1993 AG Fonts, created by Andrejs Grinbergs.
</metadata>
<defs>
<font id="AGOpusHR-Bold" horiz-adv-x="556" >
  <font-face 
    font-family="AGOpusHR"
    font-weight="700"
    font-stretch="normal"
    units-per-em="1000"
    panose-1="2 0 8 3 0 0 0 0 0 0"
    ascent="800"
    descent="-200"
    x-height="478.999"
    cap-height="684.002"
    bbox="-33 -263 1099 935.003"
    underline-thickness="38"
    underline-position="-141"
    unicode-range="U+0020-U+25CA"
  />
<missing-glyph horiz-adv-x="500" 
 />
    <glyph glyph-name=".notdef" horiz-adv-x="500" 
 />
    <glyph glyph-name="space" unicode=" " horiz-adv-x="278" 
 />
    <glyph glyph-name="exclam" unicode="!" horiz-adv-x="333" 
d="M88 71c0 22 8.16699 41.167 24.5 57.5s35.5 24.5 57.5 24.5s41.167 -8 57.5 -24s24.5 -35.333 24.5 -58s-8 -42 -24 -58s-35.333 -24 -58 -24s-42 8.16699 -58 24.5s-24 35.5 -24 57.5zM182 218l-28 -0.000976562c-8 36.667 -18 89 -30 157s-19.667 109.667 -23 125
c-10 48.667 -15 87.667 -15 117c0 22.667 8.16699 41.5 24.5 56.5s35.833 22.5 58.5 22.5c25.333 0 45.166 -7.83301 59.499 -23.5s21.5 -36.167 21.5 -61.5c0 -19.333 -8.33301 -70.666 -25 -153.999l-21 -114c-11.333 -58 -18.666 -99.667 -21.999 -125z" />
    <glyph glyph-name="quotedbl" unicode="&#x22;" horiz-adv-x="333" 
d="M124 619l0.000976562 -169c4.66699 -40 -8 -60 -38 -60s-43 20 -39 60v169c-2 28 -0.333008 48.333 5 61s16.666 19 33.999 19c29.333 0 42 -26.667 38 -80zM287.001 619l-0.000976562 -168.999c4.66699 -40 -8 -60 -38 -60c-17.333 0 -28.666 4.66699 -33.999 14
s-7 24.666 -5 45.999v169c-4 53.333 9 80 39 80c29.333 0 42 -26.667 38 -80z" />
    <glyph glyph-name="numbersign" unicode="#" 
d="M498 283v-73h-105l-32 -210h-75l32 210h-108l-32 -210h-75l32 210h-103v73h115l16 104h-103v73h114l30 196h75l-30 -196h107l29 196h75l-29 -196h93v-73h-104l-16 -104h94zM345 387h-107l-16 -104h107z" />
    <glyph glyph-name="dollar" unicode="$" 
d="M303 -121l-7.00098 1.99707c-8 2 -17 3 -27 3c-14 0 -25.333 -1.66699 -34 -5l1 19c0.666992 20 2.33398 49.333 5.00098 88c-84.667 6 -151 28 -199 66c1.33301 5.33301 5.16602 22.333 11.499 51s10.833 51 13.5 67h19c9.33301 -34.667 28.333 -64.167 57 -88.5
s61.334 -39.5 98.001 -45.5v237c-32.667 6.66699 -60.167 14 -82.5 22s-43.5 19.333 -63.5 34s-34.833 33.834 -44.5 57.501s-14.5 52.167 -14.5 85.5c0 92.667 48 154.667 144 186c21.333 6.66699 42.333 10.334 63 11.001l-3 82l7 -1c8 -2 16.667 -3 26 -3
c6.66699 0 18 1.33301 34 4l-6 -81c76 -4.66699 134 -22.667 174 -54c-16.667 -35.333 -29 -68.666 -37 -99.999h-14c-8.66699 28 -24.334 51.5 -47.001 70.5s-48.667 31.167 -78 36.5v-219c32 -6.66699 59.833 -14.667 83.5 -24s46.334 -21.5 68.001 -36.5
s38.167 -34.667 49.5 -59s17 -52.5 17 -84.5c0 -59.333 -21.333 -108.833 -64 -148.5s-94 -61.167 -154 -64.5c0 -40 1.33301 -76 4 -108zM240.999 420.997l2 200.999c-27.333 -4 -49.333 -15.167 -66 -33.5s-25 -41.166 -25 -68.499c0 -48.667 29.667 -81.667 89 -99z
M298.999 256.996l-0.000976562 -220.001c5.33301 0 9.33301 0.333008 12 1c26 6 46.833 19 62.5 39s23.5 43.333 23.5 70c0 48.667 -27.333 83.334 -82 104.001c-1.33301 0 -6.66602 2 -15.999 6z" />
    <glyph glyph-name="percent" unicode="%" horiz-adv-x="1000" 
d="M287 -30l347 724c14.667 -2.66699 32.667 -2.66699 54 0l-348 -724c-14 2.66699 -31.667 2.66699 -53 0zM556 162c0 48 16.832 87.667 50.499 119s74.5 47 122.5 47c48.667 0 88 -15 118 -45c32 -30.667 48 -66.667 48 -108c0 -45.333 -11.333 -82.333 -34 -111
c-12 -16 -23.5 -27.833 -34.5 -35.5s-26.167 -15.167 -45.5 -22.5c-13.333 -4.66699 -34.333 -7 -63 -7c-49.333 0 -88.666 14.833 -117.999 44.5s-44 69.167 -44 118.5zM722.999 29c48 0 72 48 72 144c0 80.667 -22.333 121 -67 121c-48.667 0 -73 -45.333 -73 -136
c0 -16 0.5 -29.833 1.5 -41.5s3.5 -25 7.5 -40s11 -26.667 21 -35s22.667 -12.5 38 -12.5zM94.999 507c0 48.667 16.8311 88.333 50.498 119s74.834 46 123.501 46c47.333 0 86.666 -14.667 117.999 -44s47 -67.666 47 -114.999c0 -43.333 -12 -79.333 -36 -108
c-13.333 -16 -24.666 -27.333 -33.999 -34s-23.666 -13.334 -42.999 -20.001c-15.333 -5.33301 -36.666 -8 -63.999 -8c-48.667 0 -87.834 15 -117.501 45s-44.5 69.667 -44.5 119zM262.997 373.999c47.333 0 71 50.001 71 150.001c0 76.667 -22.333 115 -67 115
c-22.667 0 -39.5 -9.33301 -50.5 -28s-17.5 -40.334 -19.5 -65.001c0 -0.666992 -0.5 -7.5 -1.5 -20.5s-1.5 -22.833 -1.5 -29.5c0 -81.333 23 -122 69 -122z" />
    <glyph glyph-name="ampersand" unicode="&#x26;" horiz-adv-x="722" 
d="M366 390l11.002 -14.001l145 -176c40 46 79.667 109.333 119 190l55 -57c-48 -68 -94.333 -125.667 -139 -173l42 -46.5l51 -56c14.667 -15.667 29.334 -30.5 44.001 -44.5v-13c-35.333 3.33301 -67.333 5 -96 5c-29.333 0 -61.666 -1.66699 -96.999 -5l-48 66
c-27.333 -23.333 -60.5 -42.5 -99.5 -57.5s-76.5 -22.5 -112.5 -22.5c-60 0 -108 14.667 -144 44c-37.333 30.667 -56 71.334 -56 122.001c0 83.333 59.333 152 178 206c-0.666992 0.666992 -4.33398 5.83398 -11.001 15.501s-10.334 15.167 -11.001 16.5
s-3.83398 6.33301 -9.50098 15s-9.16699 14.167 -10.5 16.5l-8.5 15.5c-4.33301 8 -7 13.833 -8 17.5s-2.83301 9 -5.5 16s-4.33398 13.167 -5.00098 18.5s-1.5 11.5 -2.5 18.5s-1.5 13.833 -1.5 20.5c0 45.333 18.5 82.166 55.5 110.499s79.167 42.5 126.5 42.5
c26.667 0 52 -3.83301 76 -11.5s44.833 -21 62.5 -40s26.5 -42.167 26.5 -69.5c0 -36 -11.5 -67.167 -34.5 -93.5s-53.833 -51.833 -92.5 -76.5zM337.002 425.999c20 15.333 38.001 35.334 54.001 60.001s24 48 24 70c0 20.667 -6.33301 38.667 -19 54s-29 23 -49 23
c-22.667 0 -40.334 -6.5 -53.001 -19.5s-19 -30.833 -19 -53.5c0 -4.66699 0.333008 -9.33398 1 -14.001s1.66699 -9.16699 3 -13.5s3 -9.33301 5 -15s3.83301 -10.334 5.5 -14.001s4.16699 -8.5 7.5 -14.5s5.83301 -10.333 7.5 -13l8.5 -13.5l8 -12.5l8.5 -12.5
c4.33301 -6.33301 6.83301 -10.166 7.5 -11.499zM248.003 319c-50.667 -34 -76 -74 -76 -120c0 -30 10.667 -58.667 32 -86c16 -20 37.667 -35.333 65 -46c11.333 -4.66699 29.333 -7 54 -7c16.667 0 35 3.83301 55 11.5s35.667 17.5 47 29.5
c-58.667 68 -117.667 140.667 -177 218z" />
    <glyph glyph-name="quotesingle" unicode="'" horiz-adv-x="278" 
d="M178 619v-169c4.66699 -40 -8 -60 -38 -60s-43 20 -39 60v169c-4 53.333 9 80 39 80c29.333 0 42 -26.667 38 -80z" />
    <glyph glyph-name="parenleft" unicode="(" horiz-adv-x="333" 
d="M274 700l26 -25.001c-86 -92 -129 -225.667 -129 -401c0 -160 42.667 -287 128 -381l-27 -24c-72 58 -124.5 119.5 -157.5 184.5s-49.5 142.5 -49.5 232.5c0 88.667 16.833 165.334 50.5 230.001s86.5 126 158.5 184z" />
    <glyph glyph-name="parenright" unicode=")" horiz-adv-x="333" 
d="M59 -133l-25.001 25.0039c50 56.667 83.833 116.667 101.5 180s26.5 138.666 26.5 225.999c0 156 -42.333 281.333 -127 376l26 24c138.667 -104.667 208 -242.334 208 -413.001c0 -90.667 -16.667 -168.334 -50 -233.001s-86.666 -126.334 -159.999 -185.001z" />
    <glyph glyph-name="asterisk" unicode="*" horiz-adv-x="444" 
d="M88 615l109.998 -84l-14 139c25.333 -2.66699 51.333 -2.66699 78 0l-16 -139l109 86c12.667 -26 26.334 -49 41.001 -69l-128 -55l128 -53c-12 -19.333 -25.333 -43 -40 -71l-110 80l16 -136c-31.333 2 -57.333 2 -78 0l14 136l-106 -84l-14.5 26
c-6.33301 11.333 -11.166 19.333 -14.499 24l-15 18l132 60l-132 53c16 20.667 29.333 43.667 40 69z" />
    <glyph glyph-name="plus" unicode="+" horiz-adv-x="606" 
d="M260 298v207h86v-207h209v-86h-209v-212h-86v212h-209v86h209z" />
    <glyph glyph-name="comma" unicode="," horiz-adv-x="278" 
d="M182 5l-52 -75.999l-26 -37l-31 -43.5l-27 -36.5l-24 11c16 71.333 33.333 140.333 52 207c12 44.667 20.333 72 25 82c12 26 31 39 57 39c19.333 0 36 -5.83301 50 -17.5s21 -26.834 21 -45.501c0 -4.66699 -1 -10 -3 -16s-5 -12.333 -9 -19l-10 -16.5
c-2.66699 -4.33301 -7 -10.333 -13 -18s-9.33301 -12.167 -10 -13.5z" />
    <glyph glyph-name="hyphen" unicode="-" horiz-adv-x="333" 
d="M42 207v107h250v-107h-250z" />
    <glyph glyph-name="period" unicode="." horiz-adv-x="278" 
d="M142 -11c-22.667 0 -42 8.16699 -58 24.5s-24 35.5 -24 57.5s8.16699 41.167 24.5 57.5s35.5 24.5 57.5 24.5s41.333 -8.16699 58 -24.5s25 -35.5 25 -57.5c0 -22.667 -8 -42 -24 -58s-35.667 -24 -59 -24z" />
    <glyph glyph-name="slash" unicode="/" horiz-adv-x="389" 
d="M422 755l-356 -886c-47.333 2.66699 -80.333 2.66699 -99 0l356 886c44 -2.66699 77 -2.66699 99 0z" />
    <glyph glyph-name="zero" unicode="0" 
d="M278 -13c-85.333 0 -147.666 35 -186.999 105c-34.667 60.667 -52 139.334 -52 236.001c0 39.333 4 81 12 125s20 79.667 36 107c44 73.333 108.667 110 194 110c44.667 0 83 -9.16699 115 -27.5s56.333 -43.333 73 -75s28.667 -65.334 36 -101.001s11 -74.5 11 -116.5
c0 -63.333 -4.66699 -118.5 -14 -165.5s-29.333 -88.5 -60 -124.5c-16.667 -19.333 -32.334 -33.333 -47.001 -42s-35.667 -17 -63 -25c-14 -4 -32 -6 -54 -6zM190 318c0 -72.667 2.33301 -127.329 7 -163.996c2 -16.667 4.16699 -30.334 6.5 -41.001
s6.33301 -23.334 12 -38.001s13.834 -25.834 24.501 -33.501s23.667 -11.5 39 -11.5c9.33301 0 17.666 1.5 24.999 4.5s13.5 8 18.5 15s9.16699 13.167 12.5 18.5s6.33301 14 9 26l5.5 24.5c1 4.33301 2.5 13.166 4.5 26.499s3 20.333 3 21c5.33301 42 8 97.333 8 166
c0 70.667 -3 132 -9 184c-8.66699 76 -33.667 114 -75 114c-16.667 0 -30.5 -5 -41.5 -15s-19.333 -24.667 -25 -44s-9.5 -34.833 -11.5 -46.5s-4 -27.5 -6 -47.5c-2.66699 -24.667 -4.66699 -61.667 -6 -111c0 -5.33301 -0.166992 -13.333 -0.5 -24s-0.5 -18.667 -0.5 -24z
" />
    <glyph glyph-name="one" unicode="1" 
d="M221 551l-7.00098 4.99902c-33.333 -19.333 -70 -38 -110 -56c-10 16.667 -23.667 33.334 -41 50.001v8c80.667 26 176.667 67.667 288 125l19 -7c-6.66699 -124 -10 -254.333 -10 -391v-60c0 -50 2 -125 6 -225l-9 1c-30.667 2.66699 -53.667 4 -69 4
c-9.33301 0 -35.666 -1.66699 -78.999 -5c3.33301 26 5.33301 52 6 78c3.33301 86 5 189 5 309v82c0 36.667 0.333008 64 1 82z" />
    <glyph glyph-name="two" unicode="2" 
d="M47 0v43.0029l75.5 72.5c18.333 18.333 42.666 44.666 72.999 78.999s53.833 65 70.5 92s31.667 58.167 45 93.5s20 69.333 20 102c0 39.333 -8 72.666 -24 99.999s-42.333 41 -79 41c-31.333 0 -55.166 -15.5 -71.499 -46.5s-23.833 -63.5 -22.5 -97.5l-10 -2
c-20.667 22 -46.667 44 -78 66c15.333 42.667 42 74.334 80 95.001s81.333 31 130 31c66 0 121 -14.833 165 -44.5s66 -75.834 66 -138.501c0 -46 -12.333 -86.667 -37 -122c-21.333 -31.333 -51.333 -63.333 -90 -96l-38.5 -34l-45.5 -40l-39 -34
c-15.333 -14 -27.333 -26.667 -36 -38c30 0 73.667 0.666992 131 2c15.333 0 31.666 0.333008 48.999 1s36.333 1.5 57 2.5s37 1.83301 49 2.5c-2.66699 -11.333 -4 -33 -4 -65c0 -24.667 1.33301 -46.334 4 -65.001c-6 -0 -15.667 0.333008 -29 1s-23 1 -29 1
c-12 0 -29 0.333008 -51 1s-42 1.16699 -60 1.5s-35 0.5 -51 0.5c-18 0 -45 -0.5 -81 -1.5s-63 -1.5 -81 -1.5c-13.333 0 -32.666 -0.666992 -57.999 -2z" />
    <glyph glyph-name="three" unicode="3" 
d="M104 149l13.002 -1c5.33301 -34.667 16.833 -62.834 34.5 -84.501s42.834 -32.5 75.501 -32.5c34.667 0 61.667 14.833 81 44.5s29 62.5 29 98.5c0 40.667 -9.33301 75.334 -28 104.001s-47.334 43 -86.001 43c-6 0 -14 -0.666992 -24 -2s-16.667 -2 -20 -2v50l10 -1
c45.333 -5.33301 78 5 98 31s30 62.333 30 109c0 31.333 -6.33301 59.333 -19 84s-33.334 37 -62.001 37c-30.667 0 -53 -10.833 -67 -32.5s-24 -51.167 -30 -88.5l-14 -1c-32.667 34 -55 56.333 -67 67c22 36.667 49 61.834 81 75.501s71.333 20.5 118 20.5
c57.333 0 105.333 -11 144 -33c19.333 -10.667 35 -27.334 47 -50.001s18 -45.334 18 -68.001c0 -40 -10.667 -72 -32 -96s-52.333 -43.333 -93 -58l-13 -5c-2.66699 -4 -2.5 -7 0.5 -9s8.16699 -3.66699 15.5 -5l12 -1c42 -7.33301 72 -19.666 90 -36.999
c21.333 -19.333 34.666 -43 39.999 -71c4 -20 6 -35.667 6 -47c0 -52 -19.333 -95.667 -58 -131c-33.333 -30.667 -75 -51.667 -125 -63c-22 -5.33301 -46.667 -8 -74 -8c-90 0 -154.333 25.667 -193 77c29.333 37.333 50 66 62 86z" />
    <glyph glyph-name="four" unicode="4" 
d="M122 386l71.999 109c65.333 96.667 103.666 155 114.999 175l9 -1c25.333 -4 44.333 -6 57 -6c24 0 45.667 2.33301 65 7c-3.33301 -43.333 -5 -82.333 -5 -117c-1.33301 -44 -2 -76.667 -2 -98c-1.33301 -84 -2 -147.333 -2 -190l85 6
c-2.66699 -25.333 -4 -44.333 -4 -57c0 -13.333 1.33301 -32.666 4 -57.999l-85 6c0.666992 -11.333 1.33398 -28.5 2.00098 -51.5s1 -40.167 1 -51.5l3 -42l2 -17l-9 1c-29.333 2.66699 -51.666 4 -66.999 4c-8.66699 0 -34 -1.66699 -76 -5c3.33301 36 6.33301 90 9 162
h-262c2.66699 20 4 35.667 4 47s-1.33301 27.666 -4 48.999l44 64zM104.999 275l5 -6h185v281h-7z" />
    <glyph glyph-name="five" unicode="5" 
d="M82 144l13.9971 -0.00195312c8 -31.333 21 -58.166 39 -80.499s41.333 -33.5 70 -33.5c42.667 0 73.167 16.167 91.5 48.5s27.5 71.5 27.5 117.5c0 44 -9.33301 78 -28 102c-23.333 28 -51.333 42 -84 42s-61.667 -13.333 -87 -40l-24 14c4.66699 62 7 102.333 7 121
c0 90 -4.33301 163.667 -13 221l8 7c36.667 -5.33301 77.334 -8 122.001 -8c33.333 0 83.333 1.33301 150 4c16.667 0.666992 41.667 2.33398 75 5.00098l-6 -63c0 -19.333 1.66699 -40.666 5 -63.999c-101.333 5.33301 -158.333 8 -171 8c-38.667 0 -77 -1 -115 -3
c-4 -31.333 -6.66699 -88 -8 -170l6 -3c28.667 15.333 62.334 23 101.001 23c64 0 115 -16 153 -48c42 -36 63 -82 63 -138c0 -68.667 -29.667 -124.334 -89 -167.001c-47.333 -34.667 -107.666 -52 -180.999 -52c-70 0 -128.667 18.333 -176 55
c14 23.333 30.667 57.333 50 102z" />
    <glyph glyph-name="six" unicode="6" 
d="M420 625l-6.00098 -6.00195c-16 6 -36 9 -60 9c-40.667 0 -78.334 -22.333 -113.001 -67c-6 -8 -11 -15.333 -15 -22s-7.66699 -14.167 -11 -22.5s-5.66602 -15 -6.99902 -20l-6.5 -24.5c-3 -11.333 -5.16699 -20 -6.5 -26c-5.33301 -20 -9.33301 -51.667 -12 -95l7 -4
c30 33.333 67.667 50 113 50c59.333 0 108.333 -17.167 147 -51.5s58 -80.833 58 -139.5c0 -65.333 -22.833 -118.5 -68.5 -159.5s-101.5 -61.5 -167.5 -61.5c-15.333 0 -34 2.33301 -56 7s-39 10 -51 16c-31.333 16 -56.666 38 -75.999 66
c-34.667 51.333 -52 114.333 -52 189c0 69.333 11.333 136.333 34 201s58 115.334 106 152.001c30 22.667 70 38.667 120 48c20 3.33301 38.333 5 55 5c20 0 36.667 -1.66699 50 -5c0.666992 -4 2 -8.16699 4 -12.5s4.5 -9.16602 7.5 -14.499s5.16699 -9.33301 6.5 -12z
M184.999 196.998c0 -112 28.335 -168 85.002 -168c16.667 0 30.834 5.16699 42.501 15.5s20.167 24 25.5 41s9.16602 33.333 11.499 49s3.5 31.167 3.5 46.5c0 106 -28 159 -84 159c-16.667 0 -30.834 -4.66699 -42.501 -14s-20.334 -21.833 -26.001 -37.5
s-9.66699 -31 -12 -46s-3.5 -30.167 -3.5 -45.5z" />
    <glyph glyph-name="seven" unicode="7" 
d="M193 0l-8.99902 1c-4 0 -11.833 0.666992 -23.5 2s-20.5 2 -26.5 2c-7.33301 0 -17.833 -0.833008 -31.5 -2.5s-22.834 -2.5 -27.501 -2.5l-4 7l105 157l75 118c35.333 54 86.333 136.333 153 247l-5 7c-111.333 1.33301 -222.333 -1.66699 -333 -9
c3.33301 36.667 5 58.667 5 66c0 22 -1.66699 45.667 -5 71l230 -8h122h104l7 -11c-140 -238 -252 -453 -336 -645z" />
    <glyph glyph-name="eight" unicode="8" 
d="M249 333c-36.667 -16.667 -54.999 -66.667 -54.999 -150c0 -16.667 1.16699 -33 3.5 -49s6.33301 -32.833 12 -50.5s14.667 -32 27 -43s27.166 -16.5 44.499 -16.5c21.333 0 38.833 9.83301 52.5 29.5s22.5 40.334 26.5 62.001s6 43.5 6 65.5c0 57.333 -7 97 -21 119
c-10.667 17.333 -24.667 29.166 -42 35.499s-35.333 5.5 -54 -2.5zM380.001 370l0.00195312 -7.00195c41.333 -6.66699 74.666 -25.667 99.999 -57s38 -68 38 -110c0 -30 -6 -60 -18 -90c-10 -23.333 -29 -46.666 -57 -69.999c-18 -14.667 -42.833 -26.5 -74.5 -35.5
s-60.834 -13.5 -87.501 -13.5c-69.333 0 -125.333 15.667 -168 47c-46.667 34.667 -70 84.334 -70 149.001c0 42.667 13 81.667 39 117s59.667 56.333 101 63v7c-32.667 6.66699 -60.167 23 -82.5 49s-33.5 55.667 -33.5 89c0 54.667 21 95.5 63 122.5s92 40.5 150 40.5
c63.333 0 113 -12.333 149 -37c44 -30.667 66 -69.667 66 -117c0 -36.667 -10.167 -68 -30.5 -94s-48.5 -43.667 -84.5 -53zM204.003 497.998c0 -34 5.66602 -60.333 16.999 -79c14.667 -26 34.334 -39 59.001 -39c20 0 36.167 7.66699 48.5 23s20.5 32 24.5 50
s6 36.667 6 56c0 80.667 -26.333 121 -79 121c-50.667 0 -76 -44 -76 -132z" />
    <glyph glyph-name="nine" unicode="9" 
d="M97 64l7 6.99902c38 -27.333 67.333 -41 88 -41c30 0 56.667 8.83301 80 26.5s41.333 40.834 54 69.501s22.167 57 28.5 85s10.166 56.333 11.499 85v10l-7 3c-30 -33.333 -69.667 -50 -119 -50c-56 0 -102.833 16.667 -140.5 50s-56.5 77.666 -56.5 132.999
c0 38 4.83301 70 14.5 96s27.167 51.667 52.5 77c38.667 38 90.334 57 155.001 57c84.667 0 148.334 -27.667 191.001 -83c37.333 -50.667 56 -115.667 56 -195c0 -114 -25.333 -208.333 -76 -283c-25.333 -38 -59.833 -68.167 -103.5 -90.5s-88.834 -33.5 -135.501 -33.5
c-21.333 0 -40.333 2.66699 -57 8c-2.66699 1.33301 -5.5 2.5 -8.5 3.5s-5 1.5 -6 1.5s-2.16699 0.833008 -3.5 2.5s-2.33301 4.5 -3 8.5c-6.66699 20.667 -14 38.334 -22 53.001zM364 458.999c0 112 -28.333 167.998 -85 167.998c-16 0 -30 -5.33301 -42 -16
s-20.833 -24.334 -26.5 -41.001s-9.66699 -32.667 -12 -48s-3.5 -30.666 -3.5 -45.999c0 -14.667 1 -29.667 3 -45c2 -21.333 4.83301 -39.166 8.5 -53.499s11.834 -28.166 24.501 -41.499s29 -20 49 -20c21.333 0 38.666 8.66699 51.999 26s22 35.833 26 55.5
s6 40.167 6 61.5z" />
    <glyph glyph-name="colon" unicode=":" horiz-adv-x="278" 
d="M170 311c-22 0 -41.167 8.33301 -57.5 25s-24.5 36 -24.5 58s8.16699 41.167 24.5 57.5s35.5 24.5 57.5 24.5s41.167 -8 57.5 -24s24.5 -35.333 24.5 -58s-8 -42.167 -24 -58.5s-35.333 -24.5 -58 -24.5zM170 -11c-22.667 0 -42 8.16699 -58 24.5s-24 35.5 -24 57.5
s8.16699 41.167 24.5 57.5s35.5 24.5 57.5 24.5s41.167 -8 57.5 -24s24.5 -35.333 24.5 -58s-8 -42 -24 -58s-35.333 -24 -58 -24z" />
    <glyph glyph-name="semicolon" unicode=";" horiz-adv-x="278" 
d="M100 394c0 22 8.16699 41.167 24.5 57.5s35.5 24.5 57.5 24.5s41.167 -8 57.5 -24s24.5 -35.333 24.5 -58s-8 -42.167 -24 -58.5s-35.333 -24.5 -58 -24.5c-22 0 -41.167 8.33301 -57.5 25s-24.5 36 -24.5 58zM74 -188l-24 11l45 185c11.333 46 21 78.333 29 97
c12.667 30.667 34 46 64 46c25.333 0 44.5 -10.167 57.5 -30.5s12.833 -41.5 -0.5 -63.5c-36.667 -55.333 -93.667 -137 -171 -245z" />
    <glyph glyph-name="less" unicode="&#x3c;" horiz-adv-x="606" 
d="M160 255l398 -183v-84l-509 230v74l509 230v-84z" />
    <glyph glyph-name="equal" unicode="=" horiz-adv-x="606" 
d="M555 396v-86h-504v86h504zM555 200v-86h-504v86h504z" />
    <glyph glyph-name="greater" unicode="&#x3e;" horiz-adv-x="606" 
d="M48 72l398 183l-398 183v84l509 -230v-74l-509 -230v84z" />
    <glyph glyph-name="question" unicode="?" horiz-adv-x="444" 
d="M212 -11c-22.667 0 -42 8.16699 -58 24.5s-24 35.5 -24 57.5s8.16699 41.167 24.5 57.5s35.5 24.5 57.5 24.5s41.167 -8 57.5 -24s24.5 -35.333 24.5 -58s-8 -42 -24 -58s-35.333 -24 -58 -24zM308 263l9 -5c-8 -18.667 -13.333 -32.667 -16 -42
c-3.33301 0 -12.166 -1.16699 -26.499 -3.5s-25.5 -3.5 -33.5 -3.5c-40.667 0 -74.334 11.333 -101.001 34c-28 24.667 -42 53 -42 85c0 26 4.66699 47.5 14 64.5s24.666 36.167 45.999 57.5l49 54c8.66699 10 14.834 17.333 18.501 22s7.33398 11.5 11.001 20.5
s5.5 18.167 5.5 27.5c0 20.667 -7.33301 37 -22 49s-32.334 18 -53.001 18c-40.667 0 -70 -17.667 -88 -53h-13l-3 67c14 10.667 33 19.5 57 26.5s45.667 10.5 65 10.5c32 0 57 -2.66699 75 -8c36.667 -10.667 63.667 -26 81 -46c22 -26.667 33 -55.334 33 -86.001
c0 -23.333 -5.5 -46 -16.5 -68s-24.167 -41 -39.5 -57l-46 -46c-15.333 -14.667 -28.5 -29.5 -39.5 -44.5s-16.5 -29.167 -16.5 -42.5s5 -24.166 15 -32.499s21.667 -12.5 35 -12.5c16 0 30 4.66699 42 14z" />
    <glyph glyph-name="at" unicode="@" horiz-adv-x="750" 
d="M640 173l64.9971 0.00195312c-29.333 -57.333 -71.666 -103.5 -126.999 -138.5s-114.666 -52.5 -177.999 -52.5c-100 0 -185 33 -255 99s-105 150 -105 252c0 103.333 33.667 190.166 101 260.499s151.333 105.5 252 105.5c90.667 0 166.167 -28.667 226.5 -86
s90.5 -124.333 90.5 -201c0 -77.333 -23 -141 -69 -191c-20.667 -22 -45.5 -41.667 -74.5 -59s-55.833 -26 -80.5 -26c-22 0 -39 8.33301 -51 25s-19 36.667 -21 60c-19.333 -27.333 -37.166 -47.333 -53.499 -60s-37.5 -19 -63.5 -19c-40.667 0 -72.167 13.333 -94.5 40
s-33.5 61.667 -33.5 105c0 56.667 21 108.5 63 155.5s90.333 70.5 145 70.5c22 0 40.333 -6.33301 55 -19s24 -30 28 -52l16 62h95l-75 -283c-8.66699 -34 -3 -51 17 -51c26 0 56 24 90 72c34.667 49.333 52 105.333 52 168c0 60.667 -23 114.667 -69 162
s-108.333 71 -187 71c-86 0 -157.333 -28.5 -214 -85.5s-85 -129.5 -85 -217.5c0 -90.667 29.667 -163.834 89 -219.501s133.333 -83.5 222 -83.5c45.333 0 88 12.5 128 37.5s73.667 57.833 101 98.5zM315.997 172.002c19.333 0 37 9.83301 53 29.5s29 41.5 39 65.5
c22 52 33 99.667 33 143c0 18 -4 34.5 -12 49.5s-20 22.5 -36 22.5c-23.333 0 -45.5 -15 -66.5 -45s-36.5 -62.333 -46.5 -97s-15 -63.667 -15 -87c0 -54 17 -81 51 -81z" />
    <glyph glyph-name="A" unicode="A" horiz-adv-x="667" 
d="M12 0l0.00292969 8.00098l74 171c84 191.333 153.333 361.666 208 510.999c22 -3.33301 34.667 -5 38 -5c4 0 16.667 1.66699 38 5l7 -17c86.667 -229.333 174 -447 262 -653l5 -11v-9c-46.667 3.33301 -75 5 -85 5c-24.667 0 -52.667 -1.66699 -84 -5
c-27.333 89.333 -50.333 157.333 -69 204c-8 0 -19.5 0.333008 -34.5 1s-28.667 1.16699 -41 1.5s-23.833 0.5 -34.5 0.5c-26.667 0 -67.334 -0.666992 -122.001 -2l-5 -14c-36.667 -104 -57.667 -167.667 -63 -191c-16.667 3.33301 -32.334 5 -47.001 5
s-30.334 -1.66699 -47.001 -5zM203.003 274.001l-2.99902 -9h183c-26.667 73.333 -56.334 151 -89.001 233c-38 -88 -68.333 -162.667 -91 -224z" />
    <glyph glyph-name="B" unicode="B" horiz-adv-x="611" 
d="M372 370l0.000976562 -8.99805c45.333 1.33301 87 -13.667 125 -45c36.667 -32 55 -72 55 -120c0 -50.667 -17.667 -95.334 -53 -134.001c-24.667 -26.667 -65.334 -45.667 -122.001 -57c-14 -3.33301 -36.333 -5 -67 -5c-16.667 0 -41.167 0.5 -73.5 1.5
s-56.833 1.5 -73.5 1.5l-87 -3c4 30.667 6.66699 76.667 8 138c2.66699 122.667 4 214.334 4 275.001c0 19.333 -2.66699 110 -8 272c38 -2 75.667 -3 113 -3c16 0 40 0.333008 72 1s56 1 72 1c57.333 0 104.833 -12.167 142.5 -36.5s56.5 -63.5 56.5 -117.5
c0 -44.667 -15.833 -80.834 -47.5 -108.501s-70.5 -44.834 -116.5 -51.501zM230.001 387.002c14.667 -0.666992 28.167 -1.00195 40.5 -1.00195s25 2.16699 38 6.5s24.833 10.833 35.5 19.5c28.667 24 43 58.667 43 104c0 13.333 -3 29.333 -9 48s-13.333 31.667 -22 39
c-22 18 -47.333 27 -76 27c-17.333 0 -33 -1.33301 -47 -4c-2.66699 -60 -4 -105 -4 -135c0 -11.333 0.166992 -28.666 0.5 -51.999s0.5 -40.666 0.5 -51.999zM230.001 59c21.333 -1.33301 37.666 -1.99902 48.999 -1.99902c40.667 0 70.334 14.667 89.001 44
c18 27.333 27 56.666 27 87.999c0 106 -55.333 152.667 -166 140c-0.666992 -32 -1 -80 -1 -144c0 -14 0.333008 -35 1 -63s1 -49 1 -63z" />
    <glyph glyph-name="C" unicode="C" horiz-adv-x="667" 
d="M609 120l13 -5.00098l-22 -85c-55.333 -28.667 -121.333 -43 -198 -43c-38.667 0 -82.334 5 -131.001 15c-33.333 7.33301 -70 23.666 -110 48.999c-25.333 17.333 -49.333 41 -72 71c-42 56 -63 122 -63 198c0 121.333 38.333 216 115 284c70.667 61.333 165 92 283 92
c76 0 144 -16 204 -48c-3.33301 -12.667 -7.5 -31 -12.5 -55s-8.5 -39.667 -10.5 -47h-14c-18.667 26.667 -43 48 -73 64s-61 24 -93 24c-40 0 -75.5 -8.66699 -106.5 -26s-55.5 -40.666 -73.5 -69.999s-31.5 -61.166 -40.5 -95.499s-13.5 -70.5 -13.5 -108.5
c0 -83.333 19.667 -151 59 -203c20.667 -27.333 47 -48.333 79 -63s65.667 -22 101 -22c30.667 0 62.334 7 95.001 21s60.667 31.667 84 53z" />
    <glyph glyph-name="D" unicode="D" horiz-adv-x="778" 
d="M79 685c41.333 -2 82 -3.00098 122 -3.00098c11.333 0 28.833 0.333008 52.5 1s41.167 1 52.5 1c56.667 0 93 -0.666992 109 -2c52.667 -4.66699 91 -11 115 -19l24 -9c38 -14.667 69.333 -36.667 94 -66c54 -62 81 -138 81 -228c0 -112 -39.667 -203.333 -119 -274
c-36.667 -32.667 -75 -55.167 -115 -67.5s-87.333 -18.5 -142 -18.5c-72 0 -126 0.666992 -162 2c-5.33301 0.666992 -13.666 1 -24.999 1l-87 -3c6 140.667 9 257.334 9 350.001v101c-0.666992 31.333 -2.33398 80 -5.00098 146c0 10 -0.5 24.667 -1.5 44
s-1.83301 34 -2.5 44zM236 59.999c32 -1.33301 56 -2 72 -2c48.667 0 88.667 6.16699 120 18.5s59.333 36.833 84 73.5c37.333 54 56 124.333 56 211c0 36 -5.5 72.167 -16.5 108.5s-27.167 66.5 -48.5 90.5c-24 27.333 -50.833 45.333 -80.5 54s-66.167 13 -109.5 13
c-9.33301 0 -22.333 -0.666992 -39 -2s-27.667 -2 -33 -2c-4 -111.333 -6 -278 -6 -500c0 -7.33301 0.166992 -18 0.5 -32s0.5 -24.333 0.5 -31z" />
    <glyph glyph-name="E" unicode="E" horiz-adv-x="500" 
d="M74 671v13.001c15.333 0 40.833 -1 76.5 -3s63.167 -3 82.5 -3c28 0 67.667 0.833008 119 2.5s87 2.5 107 2.5c-4.66699 -22 -5.33398 -46.667 -2.00098 -74c0.666992 -1.33301 1 -3.33301 1 -6s0.333008 -4.66699 1 -6c-114 8.66699 -190 12.667 -228 12
c-1.33301 -46.667 -2 -81.334 -2 -104.001c0 -12.667 -0.166992 -31.334 -0.5 -56.001s-0.5 -43 -0.5 -55l227 8c-3.33301 -26.667 -5 -42.334 -5 -47.001c0 -3.33301 1.66699 -16 5 -38c-65.333 4.66699 -124.666 7.33398 -177.999 8.00098
c-5.33301 0 -13.5 0.166992 -24.5 0.5s-19.167 0.5 -24.5 0.5c0 -14 -0.166992 -35.167 -0.5 -63.5s-0.5 -49.5 -0.5 -63.5s0.166992 -35 0.5 -63s0.5 -49 0.5 -63c70.667 0 147.667 4.33301 231 13c-4.66699 -22 -5.33398 -46.667 -2.00098 -74
c0.666992 -1.33301 1 -3.33301 1 -6s0.333008 -4.66699 1 -6c-17.333 0 -46.333 1 -87 3s-72 3 -94 3c-13.333 0 -33 -0.5 -59 -1.5s-45.667 -1.5 -59 -1.5c-29.333 0 -59 -1 -89 -3l3 57c2.66699 82.667 4.33398 145 5.00098 187c0 16.667 0.166992 41.834 0.5 75.501
s0.5 59.167 0.5 76.5v117c0 1.33301 -2 54 -6 158z" />
    <glyph glyph-name="F" unicode="F" horiz-adv-x="500" 
d="M74 671v13.001c15.333 0 40.833 -1 76.5 -3s63.167 -3 82.5 -3c28 0 67.667 0.833008 119 2.5s87 2.5 107 2.5c-4.66699 -22 -5.33398 -46.667 -2.00098 -74c0.666992 -1.33301 1 -3.33301 1 -6s0.333008 -4.66699 1 -6c-114 8.66699 -190 12.667 -228 12
c-1.33301 -46.667 -2 -81.334 -2 -104.001c0 -12.667 -0.166992 -31.334 -0.5 -56.001s-0.5 -43 -0.5 -55l227 8c-3.33301 -26.667 -5 -42.334 -5 -47.001c0 -3.33301 1.66699 -16 5 -38c-65.333 4.66699 -124.666 7.33398 -177.999 8.00098
c-5.33301 0 -13.5 0.166992 -24.5 0.5s-19.167 0.5 -24.5 0.5v-115l7 -211c-46.667 3.33301 -74.334 5 -83.001 5c-9.33301 0 -36.333 -1.66699 -81 -5l3 57c2.66699 82.667 4.33398 145 5.00098 187c0 16.667 0.166992 41.834 0.5 75.501s0.5 59.167 0.5 76.5v117
c0 1.33301 -2 54 -6 158z" />
    <glyph glyph-name="G" unicode="G" horiz-adv-x="778" 
d="M668 534l-14 -0.00390625c-45.333 65.333 -111 98 -197 98c-82.667 0 -148.334 -35.333 -197.001 -106c-36.667 -54.667 -55 -123.334 -55 -206.001c0 -41.333 7.66699 -82.666 23 -123.999s37.333 -74 66 -98c18 -14.667 33 -24.667 45 -30s30.667 -11 56 -17
c16.667 -4 34.334 -6 53.001 -6c22 0 44.333 2.33301 67 7c23.333 3.33301 37 7 41 11c0 0.666992 0.333008 2.33398 1 5.00098s1 4.33398 1 5.00098c0.666992 8.66699 1 34 1 76c0 42.667 -2.33301 94.334 -7 155.001c33.333 -2.66699 58.333 -4 75 -4
c18 0 45 1.33301 81 4c-5.33301 -48 -8 -102.333 -8 -163c0 -38 1 -75.333 3 -112c-106 -28.667 -193.333 -43 -262 -43c-54 0 -104.5 6.83301 -151.5 20.5s-89.167 33.834 -126.5 60.501s-66.833 62 -88.5 106s-32.5 94 -32.5 150c0 118.667 38.667 210.167 116 274.5
s176.333 96.5 297 96.5c89.333 0 169.666 -20 240.999 -60c-13.333 -34.667 -22.666 -68 -27.999 -100z" />
    <glyph glyph-name="H" unicode="H" horiz-adv-x="778" 
d="M80 684c45.333 -3.33301 72.334 -4.99512 81.001 -4.99512c10 0 37.333 1.66699 82 5c-0.666992 -15.333 -2 -38.5 -4 -69.5s-3 -54.167 -3 -69.5v-43v-92c11.333 0 35 -0.666992 71 -2s63.667 -2 83 -2s46.666 0.666992 81.999 2s58.666 2 69.999 2
c0 16 -0.166992 39.667 -0.5 71s-0.5 54.666 -0.5 69.999s-1.66699 59.666 -5 132.999c44.667 -3.33301 72 -5 82 -5c8.66699 0 36.334 1.66699 83.001 5c-0.666992 -12.667 -2.16699 -34.334 -4.5 -65.001s-3.83301 -54.334 -4.5 -71.001
c0 -17.333 -0.333008 -41.833 -1 -73.5s-1.16699 -60.334 -1.5 -86.001s-0.5 -50.167 -0.5 -73.5c0 -131.333 3 -236.333 9 -315c-45.333 3.33301 -72 5 -80 5c-10.667 0 -40.334 -1.66699 -89.001 -5l3 43.5l3.5 51.5c1 15.333 1.83301 29.666 2.5 42.999c2 48 3 96 3 144
c0.666992 10.667 1 26.667 1 48c-11.333 0 -27.333 0.333008 -48 1s-39.5 1.16699 -56.5 1.5s-33.167 0.5 -48.5 0.5l-153 -3v-121c0 -58 2.33301 -127.667 7 -209c-43.333 3.33301 -69.666 5 -78.999 5c-10.667 0 -40 -1.66699 -88 -5c8.66699 106 13 228.333 13 367
c0 132.667 -3 238.334 -9 317.001z" />
    <glyph glyph-name="I" unicode="I" horiz-adv-x="333" 
d="M243 684c-4 -58.667 -6.33691 -102.998 -7.00391 -132.998c-4 -130 -6 -195.333 -6 -196c0 -20.667 0.333008 -42.5 1 -65.5s1.5 -48.5 2.5 -76.5s1.83301 -49.667 2.5 -65c0.666992 -18.667 1.83398 -45.334 3.50098 -80.001s2.83398 -57.334 3.50098 -68.001
c-43.333 3.33301 -69.666 5 -78.999 5c-26.667 0 -56 -1.66699 -88 -5c8.66699 106 13 228.333 13 367v54c0 28.667 -0.666992 71.667 -2 129c-1.33301 49.333 -3.66602 94 -6.99902 134c45.333 -3.33301 72.333 -5 81 -5c10 0 37.333 1.66699 82 5z" />
    <glyph glyph-name="J" unicode="J" horiz-adv-x="333" 
d="M29 -159l-14.999 46.998c26 5.33301 44.833 15.333 56.5 30s18.5 35.334 20.5 62.001c4 44.667 6 100.667 6 168c0 19.333 0.166992 48.833 0.5 88.5s0.5 69.5 0.5 89.5c0 14.667 0.333008 37.167 1 67.5s1 53.166 1 68.499c0 11.333 -0.333008 27.833 -1 49.5
s-1 37.834 -1 48.501c-0.666992 14 -1.5 34.667 -2.5 62s-1.83301 48 -2.5 62c46.667 -3.33301 74.334 -5 83.001 -5c28 0 55.667 2 83 6c-2.66699 -29.333 -5.33398 -72.666 -8.00098 -129.999c-1.33301 -53.333 -2 -93.666 -2 -120.999c-0.666992 -8 -1 -20.333 -1 -37
c0 -26 0.5 -64.5 1.5 -115.5s1.5 -89.5 1.5 -115.5c0 -5.33301 0.166992 -16.833 0.5 -34.5s0.333008 -30.334 0 -38.001s-1 -19.167 -2 -34.5s-2.5 -27.833 -4.5 -37.5s-5.16699 -20.667 -9.5 -33s-9.5 -23.5 -15.5 -33.5c-38.667 -65.333 -102.334 -103.333 -191.001 -114
z" />
    <glyph glyph-name="K" unicode="K" horiz-adv-x="611" 
d="M71 0l7.00195 180.001v301l-6 203c45.333 -3.33301 72.666 -5 81.999 -5c26.667 0 52.334 2 77.001 6c-3.33301 -75.333 -5.33301 -150 -6 -224c0 -20.667 -0.666992 -51.667 -2 -93c106.667 123.333 192 228.666 256 315.999c21.333 -3.33301 39.666 -5 54.999 -5
c17.333 0 36 1.66699 56 5l-1 -8l-163 -175c-20.667 -22 -50.334 -56.333 -89.001 -103l263 -386v-12c-48 3.33301 -77.333 5 -88 5c-25.333 0 -54 -1.66699 -86 -5l-97 152l-106 161l6 -313c-44.667 3.33301 -71.667 5 -81 5c-8 0 -33.667 -1.66699 -77 -5z" />
    <glyph glyph-name="L" unicode="L" horiz-adv-x="500" 
d="M75 665l-0.996094 18.998c45.333 -3.33301 72.333 -5 81 -5c9.33301 0 36.666 1.66699 81.999 5c-0.666992 -16 -2 -44.333 -4 -85s-3.33301 -72 -4 -94c-0.666992 -26 -1 -65 -1 -117v-189c0 -14 0.333008 -35 1 -63s1 -49 1 -63l54 2
c39.333 0.666992 97.666 4.33398 174.999 11.001c-2.66699 -12.667 -4 -27 -4 -43s1.33301 -30.333 4 -43l-169 6c-16.667 0.666992 -40.334 0.333984 -71.001 -0.999023s-52.334 -2 -65.001 -2c-27.333 0 -55 -1 -83 -3c6 92.667 9 200.667 9 324
c0 13.333 0.166992 33.333 0.5 60s0.5 46.667 0.5 60c0 22 -0.333008 45.167 -1 69.5s-1.5 51.5 -2.5 81.5s-1.83301 53.333 -2.5 70z" />
    <glyph glyph-name="M" unicode="M" horiz-adv-x="889" 
d="M96 384l41.0049 300.002c3.33301 0 9.66602 -0.833008 18.999 -2.5s16.333 -2.5 21 -2.5c6 0 19.667 1.66699 41 5c45.333 -99.333 122.333 -257 231 -473l59 115c62 120.667 120 240 174 358c1.33301 0 3.16602 -0.333008 5.49902 -1s4.16602 -1 5.49902 -1
c24 -4 48.667 -3.33301 74 2c11.333 -104 29.666 -260 54.999 -468l24 -174l7 -42c-44.667 3.33301 -72 5 -82 5c-8.66699 0 -35.667 -1.66699 -81 -5c-2 46 -5.16699 93.5 -9.5 142.5s-10.166 107.833 -17.499 176.5l-15 142
c-92.667 -186.667 -166.667 -340.334 -222 -461.001c-15.333 2.66699 -28 2.66699 -38 0l-77 160l-75 154.5l-67 135.5c-1.33301 -13.333 -3.5 -32 -6.5 -56l-8 -65.5l-6.5 -55.5c-1.33301 -12.667 -3 -31.5 -5 -56.5s-3.66699 -43.833 -5 -56.5
c-0.666992 -10.667 -1.83398 -26.834 -3.50098 -48.501s-2.83398 -38.167 -3.50098 -49.5c-1.33301 -26.667 -2.66602 -47.334 -3.99902 -62.001c-16.667 3.33301 -32.334 5 -47.001 5c-14 0 -29.333 -1.66699 -46 -5c0 8 2.33301 20.333 7 37
c0.666992 2.66699 9.66699 53.334 27 152.001c4 21.333 13.333 86.333 28 195z" />
    <glyph glyph-name="N" unicode="N" horiz-adv-x="778" 
d="M171 0l-6.99707 0.999023c-13.333 2.66699 -26.333 4 -39 4c-14 0 -29.333 -1.66699 -46 -5c12 126.667 18 285.334 18 476.001c0 17.333 -0.166992 44 -0.5 80s-0.5 63 -0.5 81c0 10 -0.666992 25.667 -2 47c16.667 -3.33301 31.667 -5 45 -5s28.333 1.66699 45 5
l199 -213.5l235 -257.5c0.666992 48.667 1 122 1 220c0 12.667 -0.166992 31.334 -0.5 56.001s-0.5 43 -0.5 55c0 0.666992 -2 41 -6 121l-1 19c25.333 -3.33301 40.333 -5 45 -5c6 0 14.167 0.666992 24.5 2s17.166 2 20.499 2
c-0.666992 -6 -1.33398 -15.167 -2.00098 -27.5s-1 -21.5 -1 -27.5c-0.666992 -9.33301 -1.83398 -28.833 -3.50098 -58.5s-2.83398 -52.5 -3.50098 -68.5c-0.666992 -14 -1.5 -33.667 -2.5 -59s-1.83301 -48.5 -2.5 -69.5s-1 -40.833 -1 -59.5v-102v-211
c-1.33301 0 -3.16602 0.333008 -5.49902 1s-4.16602 1 -5.49902 1c-20.667 4 -44.334 3.33301 -71.001 -2c-119.333 141.333 -228.333 263.666 -327 366.999l-109 114c0 -10 -0.333008 -24 -1 -42s-1.16699 -34.5 -1.5 -49.5s-0.5 -29.167 -0.5 -42.5v-91
c0 -114 2.33301 -199.333 7 -256z" />
    <glyph glyph-name="O" unicode="O" horiz-adv-x="833" 
d="M801 343c0 -51.333 -10.1689 -100.334 -30.502 -147.001s-49.5 -86.667 -87.5 -120c-72.667 -62.667 -164.667 -94 -276 -94c-51.333 0 -101.166 8.33301 -149.499 25s-89.166 41.334 -122.499 74.001c-65.333 64.667 -98 150.667 -98 258c0 110 39.667 199 119 267
c72 61.333 163.667 92 275 92c92 0 169.333 -22.333 232 -67c51.333 -36 87.333 -79.333 108 -130c20 -47.333 30 -100 30 -158zM411.998 40.999c77.333 0 137.333 38.335 180 115.002c28.667 52 43 120.667 43 206c0 46 -6.66699 89.167 -20 129.5
s-36.5 75.166 -69.5 104.499s-73.167 44 -120.5 44c-45.333 0 -83 -11.333 -113 -34c-30.667 -22.667 -54 -50.334 -70 -83.001c-26 -52.667 -39 -123.667 -39 -213c0 -34 4 -66.5 12 -97.5s20 -59.5 36 -85.5s37.833 -46.833 65.5 -62.5s59.5 -23.5 95.5 -23.5z" />
    <glyph glyph-name="P" unicode="P" 
d="M69 684c31.333 -2 62.333 -3.00098 93 -3.00098c14 0 35 0.666992 63 2s49 2 63 2c50 0 86 -2.33301 108 -7c41.333 -9.33301 74.333 -28.833 99 -58.5s37 -65.5 37 -107.5c0 -62 -17.667 -111 -53 -147c-14.667 -14.667 -29.5 -26.334 -44.5 -35.001
s-28.333 -14.5 -40 -17.5s-30.167 -6.83301 -55.5 -11.5c-15.333 -2.66699 -37.666 -4.16699 -66.999 -4.5s-46 -0.5 -50 -0.5c0 -0.666992 1 -47 3 -139c1.33301 -70 3.33301 -122.333 6 -157c-46.667 3.33301 -74.334 5 -83.001 5c-9.33301 0 -36.666 -1.66699 -81.999 -5
c1.33301 22.667 2.66602 40.334 3.99902 53.001c3.33301 60 5 96.333 5 109c0 16.667 0.166992 41.834 0.5 75.501s0.5 59.167 0.5 76.5c0 58.667 -1.33301 148 -4 268c0 45.333 -1 79.333 -3 102zM226 626.999l-3.00098 -119.999v-84c0 -32 -0.333008 -56 -1 -72
c30 1.33301 52 3.66602 66 6.99902c56.667 16 85 61.333 85 136c0 54 -15 93 -45 117c-11.333 9.33301 -27.666 14.833 -48.999 16.5s-39 1.5 -53 -0.5z" />
    <glyph glyph-name="Q" unicode="Q" horiz-adv-x="833" 
d="M412 41c77.333 0 137.333 38.335 180 115.002c28.667 52 43 120.667 43 206c0 46 -6.66699 89.167 -20 129.5s-36.5 75.166 -69.5 104.499s-73.167 44 -120.5 44c-45.333 0 -83 -11.333 -113 -34c-30.667 -22.667 -54 -50.334 -70 -83.001
c-26 -52.667 -39 -123.667 -39 -213c0 -34 4 -66.5 12 -97.5s20 -59.5 36 -85.5s37.833 -46.833 65.5 -62.5s59.5 -23.5 95.5 -23.5zM514 -92.998l-107.999 74.998c-113.333 3.33301 -203.166 35.833 -269.499 97.5s-99.5 148.167 -99.5 259.5c0 110 39.667 199 119 267
c72 61.333 163.667 92 275 92c92 0 169.333 -22.333 232 -67c51.333 -36 87.333 -79.333 108 -130c20 -47.333 30 -100 30 -158c0 -80.667 -23 -151.667 -69 -213s-107.667 -104.666 -185 -129.999l252 -153c-9.33301 -1.33301 -16 -3 -20 -5
c-18.667 -5.33301 -56.334 -21.666 -113.001 -48.999c-66.667 52 -117.334 90 -152.001 114z" />
    <glyph glyph-name="R" unicode="R" horiz-adv-x="611" 
d="M297 205l-31 53.999c-10.667 20 -20.334 37 -29.001 51c-2.66699 3.33301 -5 5.33301 -7 6c-3.33301 0 -5 -2 -5 -6c0 -20 0.333008 -49.667 1 -89s1 -69 1 -89c0.666992 -6 1 -15 1 -27c0.666992 -13.333 1.83398 -32.166 3.50098 -56.499s2.83398 -40.5 3.50098 -48.5
c-45.333 3.33301 -72.333 5 -81 5s-35.667 -1.66699 -81 -5l1 19c1.33301 29.333 2.66602 51.333 3.99902 66c3.33301 43.333 5 109 5 197c0 20 -0.166992 50.167 -0.5 90.5s-0.5 70.5 -0.5 90.5c0 60.667 -2.33301 134.334 -7 221.001l69 -2
c17.333 -0.666992 42.166 -0.333984 74.499 0.999023s55.5 2 69.5 2c82.667 0 136.334 -7 161.001 -21c58.667 -33.333 88 -82 88 -146c0 -48 -14 -87.5 -42 -118.5s-66 -51.5 -114 -61.5c22.667 -39.333 81.667 -133 177 -281l36 -57c-50 3.33301 -80.333 5 -91 5
c-26.667 0 -56.667 -1.66699 -90 -5zM228 627.999l-0.00195312 -119c0 -8.66699 -0.166992 -21.667 -0.5 -39s-0.5 -30.333 -0.5 -39c0 -32 -0.333008 -56 -1 -72c104 -10 156 37.667 156 143c0 16 -1.66699 32.667 -5 50c-2.66699 13.333 -7.16699 24.666 -13.5 33.999
s-12.166 16.5 -17.499 21.5s-14 9 -26 12s-20.833 4.83301 -26.5 5.5s-16.667 1.33398 -33 2.00098s-27.166 1 -32.499 1z" />
    <glyph glyph-name="S" unicode="S" horiz-adv-x="500" 
d="M404 549l-14.999 0.000976562c-22 56.667 -60.333 85 -115 85c-34 0 -60.667 -9 -80 -27c-20 -18 -30 -41 -30 -69c0 -19.333 8.16699 -37.5 24.5 -54.5s37 -32 62 -45l77 -39c26.333 -13 51.166 -28.833 74.499 -47.5s39.666 -38.667 48.999 -60
c11.333 -24.667 17 -54.334 17 -89.001c0 -30.667 -8 -62 -24 -94c-19.333 -40.667 -54.666 -73 -105.999 -97c-37.333 -17.333 -82.333 -26 -135 -26c-62 0 -115.667 14 -161 42c14.667 52 24.334 94 29.001 126h19c7.33301 -33.333 23.5 -59.5 48.5 -78.5
s54.833 -28.5 89.5 -28.5c33.333 0 61.166 8.66699 83.499 26s33.5 42.333 33.5 75c0 28 -12.333 53.667 -37 77c-30 21.333 -67.333 42.333 -112 63c-8 4 -16.5 8.66699 -25.5 14s-19 11.666 -30 18.999l-24.5 16c-22.667 14 -39.834 35 -51.501 63s-17.5 57 -17.5 87
c0 64 25.333 116.667 76 158c23.333 18.667 46.833 31.5 70.5 38.5s51.834 10.5 84.501 10.5c57.333 0 107 -13.333 149 -40c1.33301 -1.33301 3 -2.66602 5 -3.99902s3.33301 -2.33301 4 -3c-8 -21.333 -18.667 -54 -32 -98z" />
    <glyph glyph-name="T" unicode="T" 
d="M355 610l-2.00195 -72.998c0 -18.667 -0.333008 -44.834 -1 -78.501s-1.16699 -64.334 -1.5 -92.001s-0.5 -53.834 -0.5 -78.501c0 -14 0.166992 -35.167 0.5 -63.5s0.5 -49.833 0.5 -64.5c0 -19.333 0.833008 -47.333 2.5 -84s2.5 -62 2.5 -76
c-45.333 3.33301 -72.666 5 -81.999 5c-10 0 -24.333 -0.833008 -43 -2.5s-31.667 -2.5 -39 -2.5c0.666992 10 1.83398 31.667 3.50098 65s2.83398 59 3.50098 77c3.33301 125.333 5 238.333 5 339c0 43.333 -1 86.333 -3 129c-19.333 0 -48.333 -1.33301 -87 -4
c-45.333 -4 -77.666 -7.33301 -96.999 -10c5.33301 20 6.33301 45.333 3 76c0 0.666992 -0.166992 1.66699 -0.5 3s-0.5 2.5 -0.5 3.5s-0.166992 2 -0.5 3s-0.833008 1.83301 -1.5 2.5c33.333 -1.33301 58.333 -2 75 -2c81.333 -2.66699 142 -4 182 -4
c11.333 0 28.5 0.166992 51.5 0.5s40.167 0.5 51.5 0.5c17.333 0 43.166 0.833008 77.499 2.5s60.166 2.5 77.499 2.5c-2.66699 -17.333 -4 -30.666 -4 -39.999c0 -18 1.33301 -34 4 -48c-66.667 10 -125.667 14.667 -177 14z" />
    <glyph glyph-name="U" unicode="U" horiz-adv-x="778" 
d="M698 684c-2 -21.333 -4.66895 -70.0029 -8.00195 -146.003c-2 -64 -3 -96.667 -3 -98s-1 -38 -3 -110c-0.666992 -28 -1.16699 -47.167 -1.5 -57.5s-1.5 -27.333 -3.5 -51s-5.16699 -41.5 -9.5 -53.5s-10.166 -26.833 -17.499 -44.5s-17.166 -33.167 -29.499 -46.5
s-26.833 -25.666 -43.5 -36.999c-48.667 -35.333 -111.667 -53 -189 -53c-69.333 0 -130.5 13 -183.5 39s-88.167 69 -105.5 129c-3.33301 12 -6.33301 30 -9 54c-1.33301 10 -2 33 -2 69c-1.33301 54.667 -2 96 -2 124c0 13.333 -0.166992 34 -0.5 62s-0.5 49 -0.5 63
c0 12.667 -0.166992 31.834 -0.5 57.501s-0.5 44.834 -0.5 57.501c0 4.66699 -0.333008 11.667 -1 21s-1 16.333 -1 21c46.667 -3.33301 74.334 -5 83.001 -5c27.333 0 54.333 2 81 6c-0.666992 -12 -2.33398 -28.333 -5.00098 -49c-5.33301 -84 -8 -162 -8 -234
c0 -99.333 2.33301 -162.333 7 -189c5.33301 -28 11.333 -50.167 18 -66.5s18.334 -32.5 35.001 -48.5c30.667 -28.667 68.667 -43 114 -43c46.667 0 83.667 9.33301 111 28s49.666 49.667 66.999 93c12 29.333 18 98.333 18 207c0 124.667 -2.66699 225 -8 301
c18.667 -3.33301 35.667 -5 51 -5s32 1.66699 50 5z" />
    <glyph glyph-name="V" unicode="V" horiz-adv-x="667" 
d="M655 684l-68.498 -163l-78.5 -188l-60.5 -153l-67.5 -180c-23.333 3.33301 -38 5 -44 5c-14.667 0 -29.667 -1.66699 -45 -5c-72 197.333 -161.333 425.333 -268 684c48.667 -3.33301 78 -5 88 -5c26.667 0 56 1.66699 88 5c14.667 -50.667 31.667 -103.167 51 -157.5
l69 -185.5c26.667 -69.333 46 -121 58 -155c80.667 194 143.334 360 188.001 498c1.33301 0 3.16602 -0.333008 5.49902 -1s4.16602 -1 5.49902 -1c25.333 -4 51.666 -3.33301 78.999 2z" />
    <glyph glyph-name="W" unicode="W" horiz-adv-x="1000" 
d="M321 10l-3 -10c-18 3.33301 -35 5 -51 5s-33.333 -1.66699 -52 -5c-33.333 128.667 -97.333 347 -192 655l-7 29c45.333 -3.33301 72.333 -5 81 -5c9.33301 0 36.666 1.66699 81.999 5c26.667 -112 70.667 -278.667 132 -500l77.5 217.5
c43.667 122.333 75.5 216.5 95.5 282.5c18.667 -3.33301 35.667 -5 51 -5c14.667 0 31 1.66699 49 5c16.667 -61.333 43.834 -148 81.501 -260s63.5 -192 77.5 -240c70 218 119.333 384.667 148 500c24.667 -3.33301 39.667 -5 45 -5c14.667 0 29.667 1.66699 45 5v-8
c-92 -250 -168.333 -475.333 -229 -676c-18 3.33301 -35 5 -51 5s-33.333 -1.66699 -52 -5c-32 119.333 -85 281.333 -159 486l-76.5 -213c-41 -113.333 -71.833 -201 -92.5 -263z" />
    <glyph glyph-name="X" unicode="X" horiz-adv-x="611" 
d="M240 316l-205.001 368c50 -3.33301 79.667 -5 89 -5s39 1.66699 89 5c14.667 -32 37.334 -77.167 68.001 -135.5l56 -106.5l147 242c18.667 -3.33301 35.334 -5 50.001 -5c20.667 0 37 2 49 6v-7l-93 -130l-58.5 -83l-57.5 -82l13 -23
c98.667 -177.333 163.667 -297.333 195 -360c-48 3.33301 -77 5 -87 5c-10.667 0 -25.667 -0.833008 -45 -2.5s-33 -2.5 -41 -2.5c-16.667 34 -60.334 118.333 -131.001 253l-92 -144l-42 -75c-2 -4 -5.16699 -9.66699 -9.5 -17s-7.5 -13 -9.5 -17
c-23.333 3.33301 -38.333 5 -45 5c-16 0 -33 -1.66699 -51 -5l90.5 134.5z" />
    <glyph glyph-name="Y" unicode="Y" horiz-adv-x="611" 
d="M21 684c50 -3.33301 79.998 -5.00098 89.998 -5.00098c30 0 59.667 2 89 6l21 -44l21 -44l45 -94l21.5 -43l21.5 -44c8 -17.333 14.667 -28.333 20 -33c0 -0.666992 1.16699 0.5 3.5 3.5l8.5 10.5l4 6c6 10 11.667 20.333 17 31c10.667 20 30.334 59.333 59.001 118
l37 82l22 50c1.33301 0 3.33301 -0.333008 6 -1s4.66699 -1 6 -1c24 -4.66699 51.333 -4 82 2c-15.333 -29.333 -47.833 -87.833 -97.5 -175.5s-86.5 -155.834 -110.5 -204.501c-1.33301 -50.667 -2 -89 -2 -115c0 -20.667 3.33301 -83.667 10 -189
c-46.667 3.33301 -75 5 -85 5c-25.333 0 -53.666 -1.66699 -84.999 -5c7.33301 79.333 11 155.333 11 228c0.666992 12.667 1 31.334 1 56.001c-28 48.667 -66.5 119.334 -115.5 212.001z" />
    <glyph glyph-name="Z" unicode="Z" horiz-adv-x="611" 
d="M19 0v16.998c145.333 226 263.333 424 354 594c-17.333 -0.666992 -43.333 -1 -78 -1c-78.667 -0.666992 -157 -3.66699 -235 -9c4.66699 15.333 5.66699 39 3 71l-3 12l144 -3c58.667 -1.33301 102.667 -2 132 -2c12.667 0 31.834 0.333008 57.501 1s44.834 1 57.501 1
c13.333 0 27.166 0.166992 41.499 0.5s30.333 0.833008 48 1.5s31.5 1 41.5 1v-17l-96 -153.5l-78 -130.5l-95.5 -165l-81.5 -140l4 -5c121.333 0 236.666 3.33301 345.999 10c-0.666992 -1.33301 -1 -3.16602 -1 -5.49902s-0.333008 -4.16602 -1 -5.49902
c-2.66699 -21.333 -3 -37.333 -1 -48c0 -0.666992 0.666992 -4.66699 2 -12l1 -12l-105 3c-64 1.33301 -112.333 2 -145 2c-22.667 0 -56.5 -0.333008 -101.5 -1s-78.833 -1 -101.5 -1c-0.666992 0 -37 -1 -109 -3z" />
    <glyph glyph-name="bracketleft" unicode="[" horiz-adv-x="333" 
d="M293 685l-0.000976562 -35.001v-15l-110 5l-4 -145c0 -10.667 -0.166992 -26.167 -0.5 -46.5s-0.5 -35.5 -0.5 -45.5c0 -15.333 -0.166992 -38.166 -0.5 -68.499s-0.5 -52.833 -0.5 -67.5v-117c0 -0.666992 2 -66 6 -196v-26l110 4v-50
c-9.33301 0 -22.666 0.333008 -39.999 1s-33.166 1.16699 -47.499 1.5s-27.833 0.5 -40.5 0.5c-30 0 -60 -1 -90 -3v20c4.66699 205.333 7 337 7 395c0 46 -0.666992 115 -2 207c-0.666992 34.667 -2.33398 86.667 -5.00098 156v25l66 -2h43z" />
    <glyph glyph-name="backslash" unicode="\" horiz-adv-x="520" 
d="M124 755l372 -755c-35.333 2.66699 -68.666 2.66699 -99.999 0l-372 755c35.333 -2.66699 68.666 -2.66699 99.999 0z" />
    <glyph glyph-name="bracketright" unicode="]" horiz-adv-x="333" 
d="M35 -118l0.000976562 33.998v16l110 -5l3 144c1.33301 77.333 2 135 2 173c0 13.333 0.166992 33 0.5 59s0.5 45.333 0.5 58c0 6.66699 -0.166992 16.834 -0.5 30.501s-0.5 23.834 -0.5 30.501c-0.666992 41.333 -2.33398 105 -5.00098 191v26l-110 -4v50l60 -2
c8 0 19.333 -0.166992 34 -0.5s25.667 -0.5 33 -0.5c30 0 60 1 90 3v-20c-1.33301 -44 -2.66602 -108.667 -3.99902 -194c-2 -134 -3 -201.333 -3 -202l3 -189c1.33301 -77.333 2.66602 -135 3.99902 -173v-25l-66 2h-43z" />
    <glyph glyph-name="asciicircum" unicode="^" horiz-adv-x="606" 
d="M147 278h-95l206 403h90l206 -403h-95l-156 294z" />
    <glyph glyph-name="underscore" unicode="_" horiz-adv-x="500" 
d="M500 -129h-500v48h500v-48z" />
    <glyph glyph-name="grave" unicode="`" horiz-adv-x="333" 
d="M118 694l128.999 -149.002h-56l-131 81l-11.5 7.5l-12.5 8c-2.66699 1.66699 -6.16699 4.33398 -10.5 8.00098s-7.5 7 -9.5 10s-3.83301 6.83301 -5.5 11.5s-2.5 9.66699 -2.5 15c0 12.667 4.16699 23.167 12.5 31.5s18.833 12.5 31.5 12.5
c14.667 0 26.334 -2.66699 35.001 -8s19 -14.666 31 -27.999z" />
    <glyph glyph-name="a" unicode="a" horiz-adv-x="500" 
d="M196 214c-21.333 -17.333 -32.001 -44.667 -32.001 -82c0 -50.667 18.333 -76 55 -76c49.333 0 74 35 74 105c0 42.667 0.666992 74.667 2 96c-14 -6.66699 -27.333 -12.334 -40 -17.001c-3.33301 -1.33301 -9.66602 -3.66602 -18.999 -6.99902s-17 -6.33301 -23 -9
s-11.667 -6 -17 -10zM77.999 360.999l-7.00977 0.00195312l-13 60c22.667 20.667 51 37 85 49s67.333 18 100 18c48.667 0 91.334 -11 128.001 -33s55.334 -55.667 56.001 -101c0 -7.33301 0.166992 -18.5 0.5 -33.5s0.5 -26.167 0.5 -33.5c0 -16 -0.5 -40.167 -1.5 -72.5
s-1.5 -56.833 -1.5 -73.5c0 -25.333 0.333008 -44.333 1 -57c0.666992 -7.33301 3.33398 -15.5 8.00098 -24.5s10 -14.833 16 -17.5c6.66699 -2 12.834 -3 18.501 -3s9.33398 0.166992 11.001 0.5s2.83398 -0.333984 3.50098 -2.00098s1 -5.83398 1 -12.501v-10
c-6 -3.33301 -22 -10 -48 -20c-18.667 -4 -32.667 -6 -42 -6c-23.333 0 -43.666 6.33301 -60.999 19s-30 30 -38 52c-12.667 -22 -30.667 -39.5 -54 -52.5s-48 -19.5 -74 -19.5c-42.667 0 -77.167 11.333 -103.5 34s-39.5 55 -39.5 97c0 22.667 5.33301 44 16 64
s25.334 35.333 44.001 46c22.667 13.333 63.667 27.333 123 42c34.667 8 59 16.667 73 26c8.66699 7.33301 13 20 13 38c0 23.333 -9.5 43 -28.5 59s-40.5 24 -64.5 24c-39.333 0 -76.333 -15 -111 -45c-1.33301 -1.33301 -3.16602 -3.33301 -5.49902 -6
s-4.16602 -4.66699 -5.49902 -6z" />
    <glyph glyph-name="b" unicode="b" 
d="M74 -2l-22.001 0.000976562c2.66699 38.667 4.66699 96.667 6 174c0.666992 46 1 115.333 1 208c0 20.667 0.166992 51.667 0.5 93s0.5 72.333 0.5 93c0 75.333 -2 138.333 -6 189c30.667 -4 54.334 -6 71.001 -6s41.667 2 75 6l-2 -63
c0 -6.66699 -0.166992 -16.334 -0.5 -29.001s-0.5 -22 -0.5 -28c-1.33301 -56 -2 -98.333 -2 -127c0 -0.666992 -1 -33 -3 -97c13.333 24.667 32 44.334 56 59.001s50 22 78 22c62 0 110.333 -23.5 145 -70.5s52 -102.5 52 -166.5c0 -82.667 -19 -146 -57 -190
c-44 -52 -100.333 -78 -169 -78c-27.333 0 -53.5 6.16699 -78.5 18.5s-44.5 29.5 -58.5 51.5c-14 -8.66699 -42.667 -28.334 -86 -59.001zM191.999 237.001c0 -16 0.166992 -28.335 0.5 -37.002s1.16602 -22.5 2.49902 -41.5s3.83301 -34.5 7.5 -46.5
s8.66699 -24.667 15 -38s14.833 -23.333 25.5 -30s23 -10 37 -10c10 0 20.833 3.33301 32.5 10s20.834 14.334 27.501 23.001c8.66699 12 15.667 29.333 21 52c9.33301 32 14 72.333 14 121c0 22.667 -0.666992 41.834 -2 57.501s-4.5 35 -9.5 58s-14 40.833 -27 53.5
s-29.833 19 -50.5 19c-62.667 0 -94 -63.667 -94 -191z" />
    <glyph glyph-name="c" unicode="c" horiz-adv-x="500" 
d="M480 444l-37.999 -103.001h-24c-4 28.667 -14.833 52.5 -32.5 71.5s-40.834 28.5 -69.501 28.5c-29.333 0 -53.5 -11.333 -72.5 -34s-31.667 -47.5 -38 -74.5s-9.5 -54.833 -9.5 -83.5c0 -62.667 11 -109.667 33 -141c25.333 -36.667 64 -55 116 -55
c18.667 0 37.667 4.33301 57 13s35 20 47 34l17 -14l-24 -59c-12.667 -11.333 -33 -20.5 -61 -27.5s-52.667 -10.5 -74 -10.5c-84.667 0 -148 21 -190 63c-48 48.667 -72 108.334 -72 179.001c0 78.667 24.167 141.5 72.5 188.5s111.833 70.5 190.5 70.5
c68 0 125.333 -15.333 172 -46z" />
    <glyph glyph-name="d" unicode="d" 
d="M353 753l14 -1.00098c20 -2 40.333 -3 61 -3c16.667 0 41.667 1.33301 75 4c-1.33301 -22 -2.66602 -54.333 -3.99902 -97c-2.66699 -81.333 -4 -142 -4 -182c-1.33301 -132 -2 -230.333 -2 -295c0 -59.333 2 -119 6 -179l-14 1c-22.667 2.66699 -40.667 4 -54 4
c-8.66699 0 -20.834 -0.833008 -36.501 -2.5s-26.5 -2.5 -32.5 -2.5c0 4.66699 1.16699 17.167 3.5 37.5s3.5 35.833 3.5 46.5c-12.667 -30 -31.167 -53.667 -55.5 -71s-52.833 -26 -85.5 -26c-35.333 0 -66.166 6.83301 -92.499 20.5s-46.833 32.667 -61.5 57
s-25.5 50.833 -32.5 79.5s-10.5 60 -10.5 94c0 68.667 15.667 126.334 47 173.001c16 23.333 37.5 42.5 64.5 57.5s54.167 22.5 81.5 22.5c63.333 0 108.666 -24.333 135.999 -73v25v29v25c0 24.667 -0.666992 63 -2 115c0 42 -1.66699 89 -5 141zM275 424.999
c-20 0 -37 -6.66992 -51 -20.0029s-24 -30.833 -30 -52.5s-10 -41.667 -12 -60s-3 -37.5 -3 -57.5c0 -122.667 29.333 -184 88 -184c20 0 37 6.83301 51 20.5s24 31.834 30 54.501s10.167 43.334 12.5 62.001s3.5 38 3.5 58c0 18.667 -1 36.5 -3 53.5
s-5.66699 35.833 -11 56.5s-14.5 37.334 -27.5 50.001s-28.833 19 -47.5 19z" />
    <glyph glyph-name="e" unicode="e" horiz-adv-x="500" 
d="M181 286h154.999c-0.666992 2.66699 -1 6.5 -1 11.5s-0.333008 8.83301 -1 11.5c-2 93.333 -25 140 -69 140c-14 0 -26.167 -4.33301 -36.5 -13s-18.166 -18 -23.499 -28s-9.83301 -24.167 -13.5 -42.5s-6 -32 -7 -41s-2.16699 -21.833 -3.5 -38.5zM468.999 238
l-287.999 0.000976562c1.33301 -25.333 2.66602 -44.333 3.99902 -57c1.33301 -14.667 7 -32.334 17 -53.001s20.333 -35.667 31 -45c23.333 -20.667 53 -31 89 -31c42 0 81 15 117 45l12 -9l-22 -56c-42.667 -30 -90.334 -45 -143.001 -45
c-42.667 0 -79.167 5.5 -109.5 16.5s-58.166 30.833 -83.499 59.5c-38.667 42.667 -58 105 -58 187c0 71.333 20.333 129.5 61 174.5s96.667 67.5 168 67.5c74.667 0 129 -23.333 163 -70s48 -108 42 -184z" />
    <glyph glyph-name="f" unicode="f" horiz-adv-x="315" 
d="M83 422l-73.9971 -0.000976562c6 20 7 37 3 51h71c9.33301 72 26.666 129.667 51.999 173c25.333 45.333 53.833 76.333 85.5 93s72.5 20.667 122.5 12c-2.66699 -14.667 -4 -42.667 -4 -84c-0.666992 -10 -1 -24.667 -1 -44l-13 -5c-36 18.667 -65.333 28 -88 28
c-28 0 -46.333 -4.33301 -55 -13c-8 -8 -12 -15 -12 -21c0 -14 14 -58 42 -132l2 -7h101c-4 -21.333 -5.33301 -38.333 -4 -51h-93v-132c0 -16.667 0.166992 -41.5 0.5 -74.5s0.5 -57.833 0.5 -74.5c0 -47.333 1 -94.333 3 -141c-41.333 3.33301 -66 5 -74 5
c-8.66699 0 -21.334 -0.833008 -38.001 -2.5s-28.334 -2.5 -35.001 -2.5c3.33301 24.667 5 61.334 5 110.001c0 16 0.333008 38.5 1 67.5s1.16699 55.333 1.5 79s0.5 46.167 0.5 67.5v98z" />
    <glyph glyph-name="g" unicode="g" horiz-adv-x="500" 
d="M123 -73c-3.33301 -8 -5 -20.334 -5 -37.001c0 -36 13 -63.667 39 -83s57.667 -29 95 -29s67 11.333 89 34c8.66699 9.33301 16.5 21.5 23.5 36.5s10.5 28.5 10.5 40.5c0 18 -3 33.333 -9 46s-13 22.334 -21 29.001s-19.5 11.667 -34.5 15s-27.833 5.33301 -38.5 6
s-25.667 1 -45 1c-28.667 0 -51.667 -3.66699 -69 -11s-29 -23.333 -35 -48zM480 440.999l-89.999 3c35.333 -30 53 -67.333 53 -112c0 -26.667 -6.33301 -52 -19 -76s-30 -43 -52 -57c-32.667 -19.333 -79.334 -29.666 -140.001 -30.999c-25.333 0 -40 -2.33301 -44 -7
c-8 -9.33301 -12 -18 -12 -26c0 -16 6 -29 18 -39l7 -4c4.66699 -2.66699 8.33398 -4.33398 11.001 -5.00098c9.33301 -3.33301 24.333 -5 45 -5l86 -3c49.333 -1.33301 85 -12.333 107 -33c26 -24.667 39 -56.667 39 -96c0 -69.333 -25.833 -122.166 -77.5 -158.499
s-113.5 -54.5 -185.5 -54.5c-22.667 0 -44.834 2.16699 -66.501 6.5s-42.834 11.166 -63.501 20.499s-37.334 23.166 -50.001 41.499s-19 39.833 -19 64.5c0 26 7.33301 48.833 22 68.5s34.667 34.167 60 43.5c8 4.66699 13.333 8.66699 16 12l-8 5
c-32.667 11.333 -49 36 -49 74c0 20.667 8.66699 39.834 26 57.501s37 30.167 59 37.5c0.666992 0 1.83398 0.333008 3.50098 1s2.83398 1 3.50098 1l1 7c-84.667 20 -127 73.333 -127 160c0 25.333 7.16699 49.833 21.5 73.5s32.833 41.5 55.5 53.5
c40 21.333 88.667 30.333 146 27l103 -4h121l-1 -14v-32zM174.001 319.999c0 -16.667 1.33398 -32.833 4.00098 -48.5s9.16699 -30.5 19.5 -44.5s23.833 -21 40.5 -21c44 0 66 44.333 66 133c0 12 -0.833008 23.667 -2.5 35s-4.5 23.5 -8.5 36.5s-10.333 23.333 -19 31
s-19.334 11.5 -32.001 11.5c-45.333 0 -68 -44.333 -68 -133z" />
    <glyph glyph-name="h" unicode="h" 
d="M203 755l-9 -235.999l-2 -108c19.333 21.333 42.5 39.833 69.5 55.5s53.167 23.5 78.5 23.5c46 0 85 -15.667 117 -47c16.667 -16.667 27.667 -34.834 33 -54.501s8 -43.834 8 -72.501v-138v-125c0 -6 0.166992 -14.833 0.5 -26.5s0.5 -20.5 0.5 -26.5
c-42 3.33301 -67 5 -75 5c-8.66699 0 -21.334 -0.833008 -38.001 -2.5s-28.334 -2.5 -35.001 -2.5c2.66699 27.333 4.33398 48.666 5.00098 63.999l3 92c1.33301 19.333 2 48.666 2 87.999c0 46 -2.33301 79.667 -7 101c-4.66699 16.667 -14 30.834 -28 42.501
s-29.667 17.5 -47 17.5c-14 0 -26.333 -2.5 -37 -7.5s-19 -12.667 -25 -23s-10.833 -20.166 -14.5 -29.499s-6.16699 -22 -7.5 -38s-2.16602 -28.167 -2.49902 -36.5s-0.5 -20.5 -0.5 -36.5v-9c0 -28 0.833008 -67.5 2.5 -118.5s2.5 -86.5 2.5 -106.5
c-6.66699 0 -18.167 0.833008 -34.5 2.5s-28.833 2.5 -37.5 2.5s-21.167 -0.833008 -37.5 -2.5s-27.833 -2.5 -34.5 -2.5c0 1.33301 0.5 10.333 1.5 27s1.5 29 1.5 37l4 249c0 12.667 0.166992 31.834 0.5 57.501s0.5 45.167 0.5 58.5c0 101.333 -2.66699 210 -8 326
c20 -3.33301 44.667 -5 74 -5c34 0 59.333 1.66699 76 5z" />
    <glyph glyph-name="i" unicode="i" horiz-adv-x="278" 
d="M63 0l2.99707 66c0.666992 10.667 1.33398 26.667 2.00098 48s1.33398 37.333 2.00098 48c0 11.333 0.333008 27.333 1 48s1.16699 39.334 1.5 56.001s0.5 32.667 0.5 48l-6 165l9 -1c24 -2 48 -3 72 -3c15.333 0 39 1.33301 71 4l-7 -129
c-2.66699 -42.667 -4 -107.334 -4 -194.001c0 -64.667 2.66699 -116.667 8 -156c-45.333 3.33301 -72.666 5 -81.999 5c-8.66699 0 -21 -0.833008 -37 -2.5s-27.333 -2.5 -34 -2.5zM63.9971 663c0 21.333 7.66699 39.833 23 55.5s33.666 23.5 54.999 23.5
s39.833 -7.83301 55.5 -23.5s23.5 -34.167 23.5 -55.5s-7.83301 -39.833 -23.5 -55.5s-34.167 -23.5 -55.5 -23.5s-39.666 7.83301 -54.999 23.5s-23 34.167 -23 55.5z" />
    <glyph glyph-name="j" unicode="j" horiz-adv-x="278" 
d="M3 -205l-11.001 33.9961c14 4 25.833 10.167 35.5 18.5s16.834 15.833 21.501 22.5s8.66699 17.5 12 32.5s5.16602 25.667 5.49902 32s1.16602 18.833 2.49902 37.5c1.33301 32 2 56 2 72v44v151v78c0 12 -0.166992 24.5 -0.5 37.5s-0.833008 27.667 -1.5 44
s-1 28.833 -1 37.5c0 4.66699 -0.333008 11.834 -1 21.501s-1 16.834 -1 21.501l14 -1c22 -2 44.333 -3 67 -3c14.667 0 37.334 1.33301 68.001 4c-5.33301 -90 -8 -143.667 -8 -161c-0.666992 -19.333 -1 -48.666 -1 -87.999c0 -13.333 0.333008 -33.333 1 -60
s1 -46.667 1 -60c0 -65.333 -0.666992 -104.666 -2 -117.999c-3.33301 -36 -9.66602 -64.833 -18.999 -86.5s-27 -42.5 -53 -62.5c-35.333 -27.333 -79 -43.333 -131 -48zM140.999 583.996c-20.667 0 -38.5 7.66699 -53.5 23s-22.5 33.333 -22.5 54s7.5 38.5 22.5 53.5
s32.833 22.5 53.5 22.5c21.333 0 39.5 -7.5 54.5 -22.5s22.5 -32.833 22.5 -53.5s-7.66699 -38.667 -23 -54s-33.333 -23 -54 -23z" />
    <glyph glyph-name="k" unicode="k" horiz-adv-x="500" 
d="M316 297l80.002 -128.002l98 -161v-8c-41.333 3.33301 -66.666 5 -75.999 5c-8.66699 0 -34.667 -1.66699 -78 -5c-3.33301 5.33301 -8 13.5 -14 24.5s-10.333 19.167 -13 24.5c-14.667 26.667 -26 46.667 -34 60c-13.333 22.667 -31.333 51.334 -54 86.001
c-11.333 17.333 -21 26.666 -29 27.999c0 -1.33301 -1 -10 -3 -26c0 -6 -0.166992 -14.833 -0.5 -26.5s-0.5 -20.167 -0.5 -25.5c0 -7.33301 0.166992 -17.666 0.5 -30.999s0.5 -23.666 0.5 -30.999c0 -10.667 0.833008 -25.334 2.5 -44.001s2.5 -31.667 2.5 -39
c-6.66699 0 -18.167 0.833008 -34.5 2.5s-28.833 2.5 -37.5 2.5s-21.167 -0.833008 -37.5 -2.5s-27.833 -2.5 -34.5 -2.5v25c3.33301 47.333 5.66602 100.333 6.99902 159c1.33301 80 2 140.333 2 181c0 42 -0.666992 105.667 -2 191
c-1.33301 88.667 -3.66602 155 -6.99902 199c21.333 -3.33301 47.666 -5 78.999 -5c22 0 45.667 1.66699 71 5c-4.66699 -60.667 -7 -139.334 -7 -236.001c0 -9.33301 -0.166992 -23.333 -0.5 -42s-0.5 -32.667 -0.5 -42c0 -14 -0.333008 -35.167 -1 -63.5
s-1 -49.5 -1 -63.5s1 -28 3 -42c2 -2 5 -2.33301 9 -1c55.333 56.667 116.666 127.667 183.999 213c26.667 -1.33301 42.667 -2 48 -2c10 0 25 0.666992 45 2v-8c-17.333 -21.333 -45.333 -50.666 -84 -87.999s-66.334 -65.666 -83.001 -84.999z" />
    <glyph glyph-name="l" unicode="l" horiz-adv-x="278" 
d="M204 441c0 -168 2.99902 -315.002 8.99902 -441.002c-42 3.33301 -67.333 5 -76 5c-9.33301 0 -34.666 -1.66699 -75.999 -5c3.33301 41.333 5.66602 119 6.99902 233v69v122c0 18.667 -0.333008 46.167 -1 82.5s-1 63.5 -1 81.5c0 11.333 -0.166992 23.5 -0.5 36.5
s-0.833008 27.333 -1.5 43s-1 27.834 -1 36.501c0 6.66699 -0.666992 15.834 -2 27.501s-2 19.5 -2 23.5c20.667 -3.33301 45.667 -5 75 -5c30.667 0 56.334 1.66699 77.001 5c0 -4.66699 -0.5 -11.667 -1.5 -21s-1.5 -16.333 -1.5 -21c0 -12 -0.333008 -30.167 -1 -54.5
s-1 -42.5 -1 -54.5c0 -18 -0.333008 -45.167 -1 -81.5s-1 -63.5 -1 -81.5z" />
    <glyph glyph-name="m" unicode="m" horiz-adv-x="833" 
d="M49 479l9.00391 -0.999023c20 -2 40 -3 60 -3c15.333 0 39 1.33301 71 4l-5 -74c16 24.667 37.667 45 65 61s55.333 24 84 24c32 0 59.5 -7.83301 82.5 -23.5s39.833 -38.5 50.5 -68.5c40.667 62 91.334 93 152.001 93c48.667 0 87 -15 115 -45
c28 -29.333 42 -73.333 42 -132c0 -18 -0.166992 -44.833 -0.5 -80.5s-0.5 -62.5 -0.5 -80.5c0 -16.667 0.166992 -42 0.5 -76s0.5 -59.667 0.5 -77l-9 1c-26.667 2.66699 -47 4 -61 4c-8 0 -32 -1.66699 -72 -5c1.33301 22.667 2 39.667 2 51
c0 17.333 0.833008 49.166 2.5 95.499s2.5 82.166 2.5 107.499c0 38 -1.33301 65.333 -4 82c-2.66699 20.667 -10.334 38.167 -23.001 52.5s-29.334 21.5 -50.001 21.5c-30.667 0 -53 -12.333 -67 -37c-2 -3.33301 -3.83301 -6.66602 -5.5 -9.99902l-4.5 -9
c-1.33301 -2.66699 -2.33301 -5.66699 -3 -9s-1.33398 -6 -2.00098 -8s-1 -5 -1 -9s-0.166992 -7 -0.5 -9s-0.5 -5.33301 -0.5 -10v-11c-1.33301 -34.667 -2 -61.334 -2 -80.001c0 -27.333 0.666992 -66.333 2 -117s2 -84.334 2 -101.001c-6.66699 0 -18 0.833008 -34 2.5
s-28.333 2.5 -37 2.5s-21.334 -0.833008 -38.001 -2.5s-28.334 -2.5 -35.001 -2.5c6.66699 104 10 182.333 10 235c0 23.333 -1 47 -3 71c-4 67.333 -29 101 -75 101c-30.667 0 -51.5 -11.167 -62.5 -33.5s-17.167 -51.166 -18.5 -86.499c-1.33301 -25.333 -2 -44 -2 -56
l6 -231c-40 3.33301 -64.333 5 -73 5s-21 -0.833008 -37 -2.5s-27 -2.5 -33 -2.5c0 20.667 0.666992 63.834 2 129.501s2 116.5 2 152.5c0 43.333 -1.33301 109 -4 197z" />
    <glyph glyph-name="n" unicode="n" 
d="M54 459l-1.00293 19.999c33.333 -2.66699 58 -4 74 -4c14 0 35.667 1.33301 65 4l-3 -73c45.333 56 96 84 152 84c48.667 0 90.334 -18.667 125.001 -56c3.33301 -4 6.5 -8.33301 9.5 -13s5.5 -8.83398 7.5 -12.501s4 -8.5 6 -14.5s3.5 -10.667 4.5 -14
s1.83301 -8.5 2.5 -15.5s1.16699 -11.833 1.5 -14.5s0.666016 -8 0.999023 -16s0.5 -12.833 0.5 -14.5v-16v-15.5c0 -13.333 -0.166992 -33.666 -0.5 -60.999s-0.5 -47.666 -0.5 -60.999c0 -18.667 0.166992 -46.334 0.5 -83.001s0.5 -64.334 0.5 -83.001
c-44.667 3.33301 -71.334 5 -80.001 5s-20.667 -0.833008 -36 -2.5s-26 -2.5 -32 -2.5c0.666992 6 1.33398 14.667 2.00098 26s1.33398 20 2.00098 26c2 26.667 3.66699 65.334 5 116.001c0 8 0.166992 20.333 0.5 37s0.5 29.334 0.5 38.001c0 59.333 -5 99.666 -15 120.999
c-13.333 27.333 -35.666 41 -66.999 41c-14 0 -26.333 -2.5 -37 -7.5s-19 -12.667 -25 -23s-10.833 -20.166 -14.5 -29.499s-6.16699 -22 -7.5 -38s-2.16602 -28.167 -2.49902 -36.5s-0.5 -20.5 -0.5 -36.5v-3v-3v-3c0 -28 0.833008 -67.5 2.5 -118.5s2.5 -86.5 2.5 -106.5
c-6.66699 -0 -18.167 0.833008 -34.5 2.5s-28.833 2.5 -37.5 2.5s-21.167 -0.833008 -37.5 -2.5s-27.833 -2.5 -34.5 -2.5c0 5.33301 0.5 14 1.5 26s1.5 20.667 1.5 26c0 14 0.333008 34.833 1 62.5s1 48.5 1 62.5c0 12.667 0.166992 31.667 0.5 57s0.5 44.333 0.5 57v40
c0 16 -0.833008 38.5 -2.5 67.5s-2.5 49.167 -2.5 60.5z" />
    <glyph glyph-name="o" unicode="o" 
d="M274 -14c-74 0 -133.001 21.668 -177.001 65.001s-66 102 -66 176c0 78 22.333 141.333 67 190c20.667 22.667 47.334 40.667 80.001 54s65 20 97 20c34 0 67.833 -5.5 101.5 -16.5s60.5 -27.5 80.5 -49.5c42.667 -46.667 64 -105.334 64 -176.001
c0 -78 -22 -141.333 -66 -190s-104.333 -73 -181 -73zM280.999 448.001c-30.667 0 -53.668 -14.5029 -69.001 -43.5029s-24.666 -61.833 -27.999 -98.5c-2.66699 -33.333 -4 -58.666 -4 -75.999c0 -133.333 31.333 -200 94 -200c18 0 33.167 5.66699 45.5 17
s21 23.166 26 35.499s9.83301 28.166 14.5 47.499c8.66699 36.667 13 81.667 13 135c0 10.667 -1.33301 27.334 -4 50.001c-1.33301 14.667 -3.5 28.834 -6.5 42.501s-7.66699 27.834 -14 42.501s-15.333 26.334 -27 35.001s-25.167 13 -40.5 13z" />
    <glyph glyph-name="p" unicode="p" 
d="M282 54c20 0 36 6.83398 48 20.501s22.333 32.167 31 55.5c9.33301 24.667 14 60.667 14 108c0 46 -4 85 -12 117c-5.33301 19.333 -14.666 36.666 -27.999 51.999s-29 23 -47 23c-20.667 0 -37.834 -7 -51.501 -21s-23.5 -32.333 -29.5 -55s-10.167 -43.5 -12.5 -62.5
s-3.5 -38.5 -3.5 -58.5c0 -119.333 30.333 -179 91 -179zM185 395.001c30 65.333 76.998 97.999 140.998 97.999c67.333 0 117 -23.167 149 -69.5s48 -104.5 48 -174.5c0 -42.667 -4.16699 -79.167 -12.5 -109.5s-24.5 -59.833 -48.5 -88.5
c-36.667 -41.333 -83 -62 -139 -62c-32 0 -58.667 6.66699 -80 20c-22 15.333 -38.333 32.666 -49 51.999c0 -18.667 0.666992 -73.667 2 -165c1.33301 -80 3 -131.667 5 -155c-22 2.66699 -47 4 -75 4s-53 -1.33301 -75 -4c6 89.333 9 208 9 356
c0 16.667 0.333008 42.334 1 77.001s1 60.334 1 77.001c0 21.333 -0.666992 54 -2 98c0 48.667 -1.33301 92 -4 130c30.667 -2.66699 53.334 -4 68.001 -4s37.334 1.33301 68.001 4c0 -8 -1.16699 -21.5 -3.5 -40.5s-3.5 -33.5 -3.5 -43.5z" />
    <glyph glyph-name="q" unicode="q" 
d="M374 395l-1.00195 13c-0.666992 22.667 -2.66699 46.334 -6 71.001c30.667 -2.66699 53.334 -4 68.001 -4s37.334 1.33301 68.001 4c-3.33301 -123.333 -5 -197.333 -5 -222c0 -18 0.166992 -44.667 0.5 -80s0.5 -62 0.5 -80c0 -38.667 0.666992 -97.334 2 -176.001
c0.666992 -22.667 1.83398 -55 3.50098 -97s2.83398 -69.667 3.50098 -83c-22 2.66699 -47 4 -75 4s-53 -1.33301 -75 -4c2 23.333 3.66699 75 5 155c2 92 2.66699 147 2 165c-13.333 -24.667 -33 -44 -59 -58c-6 -3.33301 -17.167 -6.5 -33.5 -9.5s-28.5 -4.5 -36.5 -4.5
c-64 0 -115.333 26.667 -154 80c-30.667 42.667 -46 98 -46 166c0 76 14 135.667 42 179c33.333 52.667 82.666 79 147.999 79c67.333 0 116.666 -32.667 147.999 -98zM183.998 246c0 -16 1.33301 -39.333 4 -70c2.66699 -29.333 11.667 -57 27 -83s36 -39 62 -39
c60.667 0 91 59 91 177c0 131.333 -32.333 197 -97 197c-58 0 -87 -60.667 -87 -182z" />
    <glyph glyph-name="r" unicode="r" horiz-adv-x="389" 
d="M363 353l-9.00098 -7.99805c-12.667 8.66699 -29.667 13 -51 13c-22.667 0 -42.167 -5.66699 -58.5 -17s-27.5 -27.666 -33.5 -48.999c-4 -12.667 -6 -51.334 -6 -116.001c0 -70.667 2 -129.334 6 -176.001c-40 3.33301 -64.333 5 -73 5s-21 -0.833008 -37 -2.5
s-27.333 -2.5 -34 -2.5c4 56 6 140.333 6 253c0 75.333 -2 150.666 -6 225.999c29.333 -2.66699 51.333 -4 66 -4s37.334 1.33301 68.001 4l-2 -123c15.333 41.333 37.333 75 66 101s63 36.333 103 31c-4 -32 -6 -56 -6 -72c0 -6.66699 0.166992 -17 0.5 -31
s0.5 -24.667 0.5 -32z" />
    <glyph glyph-name="s" unicode="s" horiz-adv-x="389" 
d="M46 126l25.002 -0.000976562c9.33301 -25.333 24 -45.333 44 -60s43.333 -22 70 -22c22.667 0 40.334 5 53.001 15c16 12 24 26.333 24 43c0 8 -2.33301 15.667 -7 23s-11.834 14 -21.501 20l-25 15c-7 4 -16.667 8.5 -29 13.5s-19.833 8.16699 -22.5 9.5l-16 8l-18.5 9
c-5.66699 2.66699 -11.167 5 -16.5 7c-23.333 10 -41.666 26.667 -54.999 50s-20 48.333 -20 75c0 66.667 28.667 112.334 86 137.001c32 14 60.667 21 86 21c56 0 104.333 -15.667 145 -47c-9.33301 -28.667 -17.333 -57.667 -24 -87h-28c-4 22 -15.333 41.333 -34 58
s-39 25 -61 25c-20 0 -37.333 -4.66699 -52 -14s-22 -23.666 -22 -42.999c0 -6 0.833008 -11.5 2.5 -16.5s4.66699 -9.66699 9 -14s8.16602 -8 11.499 -11s8.66602 -6.16699 15.999 -9.5s12.5 -5.83301 15.5 -7.5s8.66699 -4 17 -7s13.166 -4.83301 14.499 -5.5l40.5 -17
c7.66699 -3.33301 19 -8.83301 34 -16.5s25.667 -14.834 32 -21.501s13.5 -15.167 21.5 -25.5s13.5 -22.166 16.5 -35.499s4.5 -28.333 4.5 -45c0 -54 -23 -96.333 -69 -127c-32.667 -21.333 -74 -32 -124 -32c-52 0 -98 13.667 -138 41c6 31.333 11 62.666 15 93.999z" />
    <glyph glyph-name="t" unicode="t" horiz-adv-x="333" 
d="M219 654l10.0029 -4.99707c-6.66699 -78.667 -10 -137.334 -10 -176.001h88v-51h-88c-4 -97.333 -6 -170.333 -6 -219c0 -16 0.666992 -40 2 -72c2 -36.667 8.33301 -61.834 19 -75.501s33.667 -16.5 69 -8.5l12 6v-39
c-0.666992 -0.666992 -1.83398 -1.33398 -3.50098 -2.00098s-2.83398 -1.33398 -3.50098 -2.00098c-38 -12.667 -70.333 -19 -97 -19c-48.667 0 -82.834 13.5 -102.501 40.5s-29.5 65.833 -29.5 116.5c0 17.333 1.66699 70 5 158c1.33301 64.667 2 103.334 2 116.001h-70
c0.666992 13.333 0.666992 27 0 41v10h70c0 14.667 -0.666992 36 -2 64s-2 46.667 -2 56c37.333 14.667 83 35 137 61z" />
    <glyph glyph-name="u" unicode="u" 
d="M358 0l2.99902 72.998c-26 -28.667 -49.5 -49.5 -70.5 -62.5s-47.5 -19.5 -79.5 -19.5c-60.667 0 -105.334 20.667 -134.001 62c-4.66699 6.66699 -8.83398 14.5 -12.501 23.5s-6.33398 16.833 -8.00098 23.5s-3 16.167 -4 28.5s-1.5 20.833 -1.5 25.5v29v25
c0 24.667 0.166992 61.167 0.5 109.5s0.5 84.5 0.5 108.5c0 6 -0.166992 14.833 -0.5 26.5s-0.5 20.5 -0.5 26.5c36 -2.66699 62.667 -4 80 -4c14.667 0 37.334 1.33301 68.001 4c-6.66699 -66.667 -10 -156.667 -10 -270c0 -40 3.66699 -67.667 11 -83
c14.667 -34.667 38.334 -52 71.001 -52c16.667 0 30.834 4.16699 42.501 12.5s20.334 17.833 26.001 28.5s10 25.334 13 44.001s4.66699 33.334 5 44.001s0.5 25 0.5 43v4.5v3.5c0 28 -0.833008 67.5 -2.5 118.5s-2.5 86.5 -2.5 106.5c32 -2.66699 56 -4 72 -4
s40 1.33301 72 4c-2.66699 -34 -4 -72 -4 -114c-1.33301 -72 -2 -125.333 -2 -160v-51c0 -39.333 1.66699 -84 5 -134l1 -20c-6.66699 -0 -18.5 0.833008 -35.5 2.5s-30.167 2.5 -39.5 2.5c-8 0 -29.333 -1.66699 -64 -5z" />
    <glyph glyph-name="v" unicode="v" horiz-adv-x="500" 
d="M19 472l0.000976562 7.00098c33.333 -2.66699 58.333 -4 75 -4c30 0 55.333 1.66699 76 5l112 -347c52 137.333 92.667 252.666 122 345.999c1.33301 -0.666992 3.33301 -1 6 -1s4.66699 -0.333008 6 -1c21.333 -2.66699 43.666 -2 66.999 2
c0.666992 -3.33301 -1.66602 -11 -6.99902 -23c-15.333 -32 -32.333 -71 -51 -117c-70 -173.333 -113 -286.333 -129 -339c-28.667 3.33301 -46.334 5 -53.001 5s-16.167 -0.833008 -28.5 -2.5s-20.5 -2.5 -24.5 -2.5c-68 198.667 -125 356 -171 472z" />
    <glyph glyph-name="w" unicode="w" horiz-adv-x="778" 
d="M17 472l0.00195312 7.00293c33.333 -2.66699 58 -4 74 -4c28.667 0 53 1.66699 73 5l100 -343c42 128 76 242 102 342l10 -1c14.667 -2 30 -3 46 -3c12 0 30.667 1.33301 56 4l102 -342c37.333 110.667 71.333 225 102 343c1.33301 0 3.16602 -0.333008 5.49902 -1
s4.16602 -1.33398 5.49902 -2.00098c20.667 -2.66699 42.667 -2 66 2v-7l-7 -19c-19.333 -46 -54 -141.333 -104 -286c-9.33301 -26.667 -16 -46.667 -20 -60l-18 -57c-6.66699 -18.667 -11.667 -35.334 -15 -50.001l-10 1c-20 2.66699 -35.333 4 -46 4
c-6.66699 0 -25 -1.66699 -55 -5l-99 326c-50.667 -156.667 -84.334 -265.334 -101.001 -326.001l-11 1c-20 2.66699 -35.333 4 -46 4c-7.33301 0 -26.666 -1.66699 -57.999 -5c-50 180.667 -100.667 338 -152 472z" />
    <glyph glyph-name="x" unicode="x" horiz-adv-x="500" 
d="M30 0l-0.00292969 7.99707l154 210c-52.667 92.667 -104 177.334 -154 254.001v7c36 -2.66699 63 -4 81 -4c31.333 0 58.333 1.66699 81 5c42.667 -79.333 71.334 -131.666 86.001 -156.999c38.667 55.333 73.334 107.333 104.001 156c1.33301 -0.666992 3.33301 -1 6 -1
s4.66699 -0.333008 6 -1c26 -3.33301 50 -2.66602 72 2.00098v-7c-42.667 -50.667 -95 -116.667 -157 -198l55 -94l52.5 -87l55.5 -93c-45.333 3.33301 -72.666 5 -81.999 5s-36.333 -1.66699 -81 -5l-93 169c-52.667 -80 -88.667 -136.333 -108 -169
c-21.333 3.33301 -34.333 5 -39 5c-4 0 -17 -1.66699 -39 -5z" />
    <glyph glyph-name="y" unicode="y" horiz-adv-x="500" 
d="M94 -257l126.999 255.998l-200 473l1 7c33.333 -2.66699 58.333 -4 75 -4c16 0 40.667 1.33301 74 4c32.667 -91.333 72.667 -194.666 120 -309.999l38 102c40 106 65.333 175.333 76 208c17.333 -2.66699 30.333 -4 39 -4s21.667 1.33301 39 4v-7l-97 -221
c-81.333 -185.333 -150.666 -354.666 -207.999 -507.999c-4 1.33301 -7.66699 2 -11 2c-16 4 -40.333 3.33301 -73 -2z" />
    <glyph glyph-name="z" unicode="z" horiz-adv-x="500" 
d="M462 479l-0.000976562 -38l-88 -124c-86 -122 -145 -208.333 -177 -259c85.333 -0.666992 171 2.33301 257 9v-67c-48 4 -120.667 6 -218 6c-95.333 0 -166.666 -2 -213.999 -6v41l262 380c-77.333 0 -154.666 -3 -231.999 -9c4 16.667 4.66699 39 2 67
c92 -4 160.667 -6 206 -6c81.333 0 148.666 2 201.999 6z" />
    <glyph glyph-name="braceleft" unicode="{" horiz-adv-x="333" 
d="M116 427l0.000976562 187.998c0 55.333 14.333 92.333 43 111c14.667 9.33301 31.5 16.333 50.5 21s33.5 7.16699 43.5 7.5s28.333 0.5 55 0.5c-36 -9.33301 -60.833 -23.5 -74.5 -42.5s-20.5 -46.833 -20.5 -83.5v-185c0 -39.333 -6.5 -69.333 -19.5 -90
s-39.167 -35.334 -78.5 -44.001c40 -8.66699 66.333 -23.667 79 -45s19 -53 19 -95v-175c0 -35.333 7.16699 -63 21.5 -83s38.833 -34 73.5 -42c-72.667 -1.33301 -122.834 8 -150.501 28s-41.5 62.333 -41.5 127v167c0 36.667 -5.83301 63.334 -17.5 80.001
s-36.167 29.334 -73.5 38.001c29.333 6.66699 52 19.334 68 38.001c10.667 12 17.167 23.333 19.5 34s3.5 25.667 3.5 45z" />
    <glyph glyph-name="bar" unicode="|" horiz-adv-x="606" 
d="M259 0v755h87v-755h-87z" />
    <glyph glyph-name="braceright" unicode="}" horiz-adv-x="333" 
d="M217 598l-0.00195312 -166.004c0 -36.667 6 -63.334 18 -80.001s36.333 -29 73 -37c-29.333 -6.66699 -52 -19.334 -68 -38.001c-7.33301 -8.66699 -12.666 -17.5 -15.999 -26.5s-5.33301 -16.667 -6 -23s-1 -16.166 -1 -29.499v-188
c0 -55.333 -14.333 -92.666 -43 -111.999c-14.667 -9.33301 -31.5 -16.166 -50.5 -20.499s-33.5 -6.66602 -43.5 -6.99902s-28.333 -0.5 -55 -0.5c36 8.66699 60.833 22.5 74.5 41.5s20.5 46.833 20.5 83.5v186c0 39.333 6.5 69.333 19.5 90s39.167 35.334 78.5 44.001
c-40 8.66699 -66.333 23.667 -79 45s-19 53 -19 95v175c0 34.667 -7.33301 62.167 -22 82.5s-39 34.5 -73 42.5c72.667 1.33301 122.834 -8.16699 150.501 -28.5s41.5 -63.166 41.5 -128.499z" />
    <glyph glyph-name="asciitilde" unicode="~" horiz-adv-x="606" 
d="M507 349l47.9971 -55.002c-19.333 -34 -40.166 -61.333 -62.499 -82s-49.5 -31 -81.5 -31c-13.333 0 -27.666 2.33301 -42.999 7s-33.666 11.834 -54.999 21.501s-33 14.834 -35 15.501c-3.33301 1.33301 -9.66602 4 -18.999 8s-16.666 6.83301 -21.999 8.5
s-12 3.5 -20 5.5s-15.333 3 -22 3c-11.333 0 -21.833 -2.33301 -31.5 -7s-19 -12.834 -28 -24.501s-15.167 -20.167 -18.5 -25.5s-9.33301 -15.666 -18 -30.999l-48 55c20 36 41.167 65 63.5 87s49.5 33 81.5 33c25.333 0 64.166 -11.5 116.499 -34.5
s85.833 -34.5 100.5 -34.5c33.333 0 64.666 27 93.999 81z" />
    <glyph glyph-name="nbspace" unicode="&#xa0;" horiz-adv-x="500" 
 />
    <glyph glyph-name="sterling" unicode="&#xa3;" 
d="M138 308l-83.9961 -3.99609c2 10.667 3 21.667 3 33c0 10 -1 20.667 -3 32l78 -2c-3.33301 33.333 -5 63.333 -5 90c0 32 5.66699 63.833 17 95.5s27.666 56.834 48.999 75.501c42.667 37.333 97 56 163 56c63.333 0 116 -17.667 158 -53
c-19.333 -30.667 -38 -64.334 -56 -101.001l-12 2c0 2 -0.666992 8.33301 -2 19s-2.5 18 -3.5 22s-3 9.66699 -6 17s-6.5 13.333 -10.5 18c-16 20.667 -37 31 -63 31c-39.333 0 -64.666 -19.667 -75.999 -59c-6.66699 -24.667 -9.33398 -57.667 -8.00098 -99l5 -114h75
l102 5c-1.33301 -16 -2 -27.667 -2 -35s0.666992 -18.333 2 -33c-8 0 -25.167 0.666992 -51.5 2s-46.5 2 -60.5 2h-68c-6.66699 -70.667 -43.334 -132.334 -110.001 -185.001c162 0 277 2.66699 345 8c-5.33301 -39.333 -8 -61.333 -8 -66c0 -26.667 2 -48.334 6 -65.001
c-26.667 1.33301 -46.334 2 -59.001 2h-174c-14 0 -35 0.333008 -63 1s-49 1 -63 1c-10.667 0 -21.834 -0.166992 -33.501 -0.5s-24.5 -0.833008 -38.5 -1.5s-25 -1 -33 -1l-20 -1c0 2.66699 1.16699 11.167 3.5 25.5s3.5 25.166 3.5 32.499
c0 9.33301 -2.33301 28.666 -7 57.999c40 -0.666992 69 9 87 29s27 50.333 27 91c0 16 -1.33301 40 -4 72z" />
    <glyph glyph-name="currency" unicode="&#xa4;" 
d="M50 155l48 47.999c-28 43.333 -42 88.333 -42 135c0 54.667 14 101 42 139l-48 47l66 68l49 -48c40.667 28.667 88 43 142 43c48.667 0 93.334 -14.333 134.001 -43l48 48l66 -68l-48 -47c29.333 -38 44 -84 44 -138c0 -53.333 -14.333 -98.666 -43 -135.999l48 -48
l-66 -67l-48 48c-40.667 -29.333 -86.334 -44 -137.001 -44c-54 0 -101 14.667 -141 44l-48 -48zM307 481.999c-40.667 0 -75.167 -13.833 -103.5 -41.5s-42.5 -61.834 -42.5 -102.501c0 -39.333 14.167 -72.666 42.5 -99.999s62.5 -41 102.5 -41
c38.667 0 71.667 14.167 99 42.5s41 61.833 41 100.5c0 38 -13.667 71.167 -41 99.5s-60 42.5 -98 42.5z" />
    <glyph glyph-name="section" unicode="&#xa7;" 
d="M426 565l-13 -0.000976562c0 0.666992 -0.666992 3 -2 7s-2.66602 7 -3.99902 9c-8.66699 22 -23.5 38.5 -44.5 49.5s-44.167 16.5 -69.5 16.5c-21.333 0 -39.666 -6.5 -54.999 -19.5s-23 -30.167 -23 -51.5c0 -10.667 2.5 -20.667 7.5 -30s13 -17.833 24 -25.5
s20.333 -13.667 28 -18s19 -9.83301 34 -16.5s24.167 -11 27.5 -13c34.667 -17.333 60.667 -30 78 -38c14 -6.66699 29.333 -18.334 46 -35.001c26.667 -28 40 -60.667 40 -98c0 -46.667 -25 -92 -75 -136c38.667 -26.667 58 -62.667 58 -108
c0 -35.333 -11.167 -67.666 -33.5 -96.999s-50.5 -50.666 -84.5 -63.999c-33.333 -12 -65.666 -18 -96.999 -18c-70.667 0 -131 17 -181 51c8.66699 34.667 14.667 69.667 18 105h18c34 -68.667 83.667 -103 149 -103c24.667 0 47.5 7.66699 68.5 23s31.5 35 31.5 59
c0 17.333 -4.66699 31.333 -14 42s-23.333 21.334 -42 32.001c-22.667 12 -49.334 24.333 -80.001 37c-53.333 24 -92.333 44 -117 60c-32 20.667 -48 59 -48 115c0 26 8.16699 52.167 24.5 78.5s36.166 47.166 59.499 62.499c-30.667 24.667 -46 56 -46 94
c0 51.333 17.667 91.833 53 121.5s79.333 44.5 132 44.5c39.333 0 70.666 -3.33301 93.999 -10s50.333 -21 81 -43c-20 -36 -34.333 -63.667 -43 -83zM395 187.999c18 19.333 27.002 39.334 27.002 60.001c0 10 -2.5 19.5 -7.5 28.5s-13.333 17.5 -25 25.5
s-21 14.167 -28 18.5s-18.5 10 -34.5 17s-25 11.167 -27 12.5c-60 30.667 -99.667 52.667 -119 66c-22 -17.333 -33 -39 -33 -65c0 -8 1.66699 -15.667 5 -23s8.66602 -14.333 15.999 -21s14.166 -12.5 20.499 -17.5s15 -10.333 26 -16s19.5 -9.83398 25.5 -12.501l27 -11.5
c12 -5 19 -7.83301 21 -8.5c5.33301 -2 10.833 -4.33301 16.5 -7l18.5 -9l16 -8c5.33301 -2.66699 11 -5.66699 17 -9l20 -11c7.33301 -4 13.333 -7 18 -9z" />
    <glyph glyph-name="copyright" unicode="&#xa9;" horiz-adv-x="750" 
d="M374 -18c-96 0 -177.833 34.834 -245.5 104.501s-101.5 153.834 -101.5 252.501c0 99.333 33.833 184.166 101.5 254.499s149.5 105.5 245.5 105.5c96.667 0 179 -35 247 -105s102 -155 102 -255c0 -98.667 -34 -182.834 -102 -252.501s-150.333 -104.5 -247 -104.5z
M374 644.001c-80.667 0 -148.667 -29.667 -204 -89s-83 -131.333 -83 -216c0 -83.333 27.833 -154.5 83.5 -213.5s123.5 -88.5 203.5 -88.5c80.667 0 149 29.5 205 88.5s84 130.167 84 213.5c0 84.667 -27.833 156.667 -83.5 216s-124.167 89 -205.5 89zM522 510.001
l0.000976562 -105.001h-33c-4 28.667 -14.167 52.167 -30.5 70.5s-38.166 27.5 -65.499 27.5c-38 0 -67.167 -15 -87.5 -45s-30.5 -65 -30.5 -105c0 -49.333 10.333 -89.666 31 -120.999c23.333 -37.333 55.666 -56 96.999 -56c43.333 0 75.666 17 96.999 51l8 14l26 -11
c-12 -30 -33.167 -53 -63.5 -69s-62.5 -24 -96.5 -24c-55.333 0 -100 18.667 -134 56s-51 84.333 -51 141c0 60 18.167 109 54.5 147s83.5 57 141.5 57c20.667 0 44 -3.33301 70 -10c34 -8 56.333 -14 67 -18z" />
    <glyph glyph-name="guillemotleft" unicode="&#xab;" horiz-adv-x="500" 
d="M229 82l-15.001 -10.999l-127 195l127 197c12.667 -12 34.334 -26.667 65.001 -44c-30 -36.667 -67.333 -87.334 -112 -152.001c49.333 -68 87 -118.333 113 -151c-14.667 -6.66699 -31.667 -18 -51 -34zM376.999 82.001l-15.001 -10.998l-38.5 61l-47.5 74l-41 60
l127 197c16.667 -14.667 38.334 -29.334 65.001 -44.001c-42 -52.667 -79.333 -103.334 -112 -152.001c49.333 -68 87 -118.333 113 -151c-14.667 -6.66699 -31.667 -18 -51 -34z" />
    <glyph glyph-name="logicalnot" unicode="&#xac;" horiz-adv-x="606" 
d="M469 114v196h-418v86h504v-282h-86z" />
    <glyph glyph-name="registered" unicode="&#xae;" horiz-adv-x="750" 
d="M375 -18c-96.667 0 -178.834 35 -246.501 105s-101.5 155 -101.5 255c0 98.667 33.833 182.834 101.5 252.501s149.834 104.5 246.501 104.5c96 0 177.833 -34.833 245.5 -104.5s101.5 -153.834 101.5 -252.501c0 -100 -33.833 -185 -101.5 -255s-149.5 -105 -245.5 -105
zM375 644c-80.667 0 -148.834 -29.5 -204.501 -88.5s-83.5 -130.167 -83.5 -213.5c0 -84.667 27.833 -156.667 83.5 -216s123.834 -89 204.501 -89s148.667 29.667 204 89s83 131.333 83 216c0 83.333 -27.667 154.5 -83 213.5s-123.333 88.5 -204 88.5zM258 206
l-0.00195312 286.999c0 12.667 -1.5 20.5 -4.5 23.5s-11.167 4.83301 -24.5 5.5h-15v21h153c53.333 0 89.333 -5.66699 108 -17c12 -7.33301 22 -18.5 30 -33.5s12 -29.5 12 -43.5c0 -28 -9.33301 -51 -28 -69s-42 -29.333 -70 -34c12.667 -2.66699 24.5 -9.66699 35.5 -21
s18.667 -21.333 23 -30s10.5 -21.667 18.5 -39l13 -26c8.66699 -18 15.334 -30.333 20.001 -37c7.33301 -10 18 -15 32 -15v-20h-69c-15.333 4.66699 -25.666 10 -30.999 16c-7.33301 9.33301 -19.5 34 -36.5 74s-28.5 63.333 -34.5 70c-8 9.33301 -24 14 -48 14h-15v-122
c0.666992 -12 2.5 -20.167 5.5 -24.5s9.83301 -6.5 20.5 -6.5l17 -1v-20h-157v20h14c10 0.666992 16.5 1.33398 19.5 2.00098s5.66699 3 8 7s3.5 10.333 3.5 19zM326.998 480.999v-123l19 -1c32 0 56.667 6 74 18s26 33.667 26 65c0 54 -27 81 -81 81l-21 -2
c-2.66699 0 -5 -0.333008 -7 -1s-3.66699 -2 -5 -4s-2.33301 -3.66699 -3 -5s-1.16699 -3.5 -1.5 -6.5s-0.5 -5.33301 -0.5 -7v-8v-6.5z" />
    <glyph glyph-name="degree" unicode="&#xb0;" horiz-adv-x="400" 
d="M350 520c0 -41.333 -14.668 -76.666 -44.001 -105.999s-64.666 -44 -105.999 -44s-76.666 14.667 -105.999 44s-44 64.666 -44 105.999c-0.666992 41.333 13.833 76.666 43.5 105.999s65.167 44 106.5 44s76.666 -14.667 105.999 -44s44 -64.666 44 -105.999z
M294.999 520c0 26 -9.33203 48.333 -27.999 67s-41.334 28 -68.001 28c-26 0 -48.333 -9.33301 -67 -28s-27.667 -41 -27 -67c0 -26.667 9.16699 -49.167 27.5 -67.5s40.833 -27.5 67.5 -27.5c26 0 48.333 9.16699 67 27.5s28 40.833 28 67.5z" />
    <glyph glyph-name="plusminus" unicode="&#xb1;" horiz-adv-x="606" 
d="M260 365v140h86v-140h209v-86h-209v-145h-86v145h-209v86h209zM555 0h-504v86h504v-86z" />
    <glyph glyph-name="mu" unicode="&#xb5;" 
d="M496 480l-0.00195312 -485c-36.667 3.33301 -58.667 5 -66 5c-8 -0 -30.333 -1.66699 -67 -5v73c-27.333 -29.333 -51.5 -50.333 -72.5 -63s-47.5 -19 -79.5 -19c-8 0 -15.333 2 -22 6v-251c-38 3.33301 -61 5 -69 5s-31 -1.66699 -69 -5v739c38 -3.33301 61 -5 69 -5
s31 1.66699 69 5v-276c0 -90 27.333 -135 82 -135c16.667 0 30.834 3.5 42.501 10.5s20.334 14.833 26.001 23.5s10 21 13 37s4.66699 28.833 5 38.5s0.5 23.167 0.5 40.5v261c38 -3.33301 61 -5 69 -5c7.33301 0 30.333 1.66699 69 5z" />
    <glyph glyph-name="paragraph" unicode="&#xb6;" horiz-adv-x="700" 
d="M537 638l0.00488281 -680.999h49v-46h-363v46h74v374l-34 -2c-60.667 0 -107.334 13.667 -140.001 41c-18.667 16 -33 36.667 -43 62s-15 51 -15 77c0 32.667 7.16699 62.667 21.5 90s35.166 48 62.499 62c6.66699 3.33301 13.667 6.16602 21 8.49902
s14.166 4.33301 20.499 6s14.166 3 23.499 4s16.666 1.83301 21.999 2.5s13.5 1.16699 24.5 1.5s18.333 0.5 22 0.5h23.5h21h259v-46h-49zM446.005 638.001h-58v-681h58v681zM217.005 539.001v-68c0 -74 24.333 -111 73 -111l7 1v277c-32.667 0.666992 -54.167 -7 -64.5 -23
s-15.5 -41.333 -15.5 -76z" />
    <glyph glyph-name="guillemotright" unicode="&#xbb;" horiz-adv-x="500" 
d="M275 450l14.001 11.999c23.333 -39.333 66 -104.666 128 -195.999l-128 -197c-24.667 21.333 -46 36 -64 44c64 85.333 101.333 136 112 152l-62 83l-52 69c13.333 4.66699 30.666 15.667 51.999 33zM127.001 449.999l14.001 11.998
c23.333 -39.333 66 -104.666 128 -195.999l-128 -197c-26.667 22.667 -48.334 37.334 -65.001 44.001c46 59.333 83.667 110 113 152c-64.667 87.333 -102.667 138 -114 152c14.667 6 32 17 52 33z" />
    <glyph glyph-name="divide" unicode="&#xf7;" horiz-adv-x="606" 
d="M51 212v86h504v-86h-504zM303 -14c-18 0 -33.167 6.33301 -45.5 19s-18.5 28 -18.5 46c0 17.333 6.33301 32.5 19 45.5s27.667 19.5 45 19.5c18 0 33.5 -6.33301 46.5 -19s19.5 -28 19.5 -46s-6.5 -33.333 -19.5 -46s-28.5 -19 -46.5 -19zM303 394
c-18 0 -33.167 6.33301 -45.5 19s-18.5 28 -18.5 46c0 17.333 6.33301 32.5 19 45.5s27.667 19.5 45 19.5c18 0 33.5 -6.33301 46.5 -19s19.5 -28 19.5 -46s-6.5 -33.333 -19.5 -46s-28.5 -19 -46.5 -19z" />
    <glyph glyph-name="florin" unicode="&#x192;" 
d="M111 397l110.002 -2.00098c16.667 83.333 42.667 144.666 78 183.999c24 26.667 51.667 48.667 83 66s63.333 26 96 26c4.66699 0 11.667 -0.333008 21 -1s16.333 -1 21 -1l-5 -25l-12 -78l-12 -7c-34 25.333 -60.667 38 -80 38c-12 0 -22 -5.33301 -30 -16
c-0.666992 -1.33301 -4 -11.666 -10 -30.999c-3.33301 -15.333 -7.33301 -43 -12 -83l-9 -72l106 3c-2 -5.33301 -3.66699 -11.166 -5 -17.499s-2.66602 -13.5 -3.99902 -21.5l-3 -18l-104 4c-6 -36.667 -10.667 -66.334 -14 -89.001c-22 -142.667 -48.667 -243 -80 -301
c-27.333 -50.667 -62.333 -90.667 -105 -120s-90.334 -40.666 -143.001 -33.999c1.33301 11.333 3.66602 28.5 6.99902 51.5s5.66602 40.167 6.99902 51.5l10 4c32 -22.667 60 -34 84 -34c26 0 43.333 39.333 52 118c2 21.333 6.33301 53.333 13 96
c2.66699 14.667 6 37.334 10 68.001c1.33301 8 3.16602 20.167 5.49902 36.5s4.16602 28.5 5.49902 36.5c4 20 6.66699 36.333 8 49l6 33.5l6 33.5c-5.33301 0 -13.666 -0.166992 -24.999 -0.5s-20 -0.5 -26 -0.5c-6.66699 0 -16.667 -0.5 -30 -1.5s-23.333 -1.5 -30 -1.5
l5 25c2.66699 13.333 4.33398 23.666 5.00098 30.999z" />
    <glyph glyph-name="afii10023" unicode="&#x401;" horiz-adv-x="500" 
d="M74 671v13.001c15.333 0 40.833 -1 76.5 -3s63.167 -3 82.5 -3c28 0 67.667 0.833008 119 2.5s87 2.5 107 2.5c-4.66699 -22 -5.33398 -46.667 -2.00098 -74c0.666992 -1.33301 1 -3.33301 1 -6s0.333008 -4.66699 1 -6c-114 8.66699 -190 12.667 -228 12
c-1.33301 -46.667 -2 -81.334 -2 -104.001c0 -12.667 -0.166992 -31.334 -0.5 -56.001s-0.5 -43 -0.5 -55l227 8c-3.33301 -26.667 -5 -42.334 -5 -47.001c0 -3.33301 1.66699 -16 5 -38c-65.333 4.66699 -124.666 7.33398 -177.999 8.00098
c-5.33301 0 -13.5 0.166992 -24.5 0.5s-19.167 0.5 -24.5 0.5c0 -14 -0.166992 -35.167 -0.5 -63.5s-0.5 -49.5 -0.5 -63.5s0.166992 -35 0.5 -63s0.5 -49 0.5 -63c70.667 0 147.667 4.33301 231 13c-4.66699 -22 -5.33398 -46.667 -2.00098 -74
c0.666992 -1.33301 1 -3.33301 1 -6s0.333008 -4.66699 1 -6c-17.333 0 -46.333 1 -87 3s-72 3 -94 3c-13.333 0 -33 -0.5 -59 -1.5s-45.667 -1.5 -59 -1.5c-29.333 0 -59 -1 -89 -3l3 57c2.66699 82.667 4.33398 145 5.00098 187c0 16.667 0.166992 41.834 0.5 75.501
s0.5 59.167 0.5 76.5v117c0 1.33301 -2 54 -6 158zM356 889.001c16.667 0 31.5 -6.5 44.5 -19.5s19.5 -28.167 19.5 -45.5s-6.33301 -32.5 -19 -45.5s-27.667 -19.5 -45 -19.5c-18 0 -33.333 6.5 -46 19.5s-19 28.167 -19 45.5s6.5 32.5 19.5 45.5s28.167 19.5 45.5 19.5z
M145 759.001c-16 0 -30.333 6.66699 -43 20s-19 28.333 -19 45c0 17.333 6.16699 32.5 18.5 45.5s26.833 19.5 43.5 19.5c17.333 0 32.5 -6.33301 45.5 -19s19.5 -28 19.5 -46s-6.33301 -33.333 -19 -46s-28 -19 -46 -19z" />
    <glyph glyph-name="afii10051" unicode="&#x402;" horiz-adv-x="815" 
d="M610 209c0.666992 42 -10.666 72.8301 -33.999 92.4971s-53.666 29.5 -90.999 29.5c-45.333 0 -90.333 -12.333 -135 -37v-6c0 -14 0.166992 -35.167 0.5 -63.5s0.5 -49.833 0.5 -64.5c0 -19.333 0.833008 -47.333 2.5 -84s2.5 -62 2.5 -76
c-45.333 3.33301 -72.666 5 -81.999 5c-10 0 -24.333 -0.833008 -43 -2.5s-31.667 -2.5 -39 -2.5c0.666992 10 1.83398 31.667 3.50098 65s2.83398 59 3.50098 77c3.33301 125.333 5 238.333 5 339c0 43.333 -1 86.333 -3 129c-19.333 0 -48.333 -1.33301 -87 -4
c-45.333 -4 -77.666 -7.33301 -96.999 -10c5.33301 20 6.33301 45.333 3 76c0 0.666992 -0.166992 1.66699 -0.5 3s-0.5 2.5 -0.5 3.5s-0.166992 2 -0.5 3s-0.833008 1.83301 -1.5 2.5c33.333 -1.33301 58.333 -2 75 -2c81.333 -2.66699 142 -4 182 -4
c11.333 0 28.5 0.166992 51.5 0.5s40.167 0.5 51.5 0.5c17.333 0 43.166 0.833008 77.499 2.5s60.166 2.5 77.499 2.5c-2.66699 -17.333 -4 -30.666 -4 -39.999c0 -18 1.33301 -34 4 -48c-66.667 10 -125.667 14.667 -177 14l-2 -73l-3 -177c63.333 38 129.333 57 198 57
c61.333 0 112.166 -16.167 152.499 -48.5s60.5 -77.166 60.5 -134.499l2.5 -21c1 -8.66699 1.83301 -25.334 2.5 -50.001s0.5 -48.167 -0.5 -70.5s-4.5 -46.5 -10.5 -72.5s-14 -47.667 -24 -65c-38.667 -65.333 -102.334 -103.333 -191.001 -114l-15 47
c11.333 2.66699 21.166 6.5 29.499 11.5s15.5 10.333 21.5 16s11 14.334 15 26.001s7 21.334 9 29.001s3.66699 20.5 5 38.5s2.16602 31.833 2.49902 41.5s0.833008 26.167 1.5 49.5z" />
    <glyph glyph-name="afii10052" unicode="&#x403;" horiz-adv-x="481" 
d="M74 671v13.001c15.333 0 40.833 -1 76.5 -3s63.167 -3 82.5 -3c28 0 67.667 0.833008 119 2.5s87 2.5 107 2.5c-4.66699 -22 -5.33398 -46.667 -2.00098 -74c0.666992 -1.33301 1 -3.33301 1 -6s0.333008 -4.66699 1 -6c-114 8.66699 -190 12.667 -228 12
c-1.33301 -46.667 -2 -81.334 -2 -104.001c0 -12 -0.166992 -29.833 -0.5 -53.5s-0.5 -42.834 -0.5 -57.501c0 -4.66699 -0.166992 -35.167 -0.5 -91.5s-0.166016 -86.833 0.500977 -91.5l7 -211c-46.667 3.33301 -74.334 5 -83.001 5c-9.33301 0 -36.333 -1.66699 -81 -5
l3 57c2.66699 82.667 4.33398 145 5.00098 187c0 16.667 0.166992 41.834 0.5 75.501s0.5 59.167 0.5 76.5v117c0 1.33301 -2 54 -6 158zM358 831.001l-131.999 -80.998h-55l128 149c13.333 15.333 24 24.666 32 27.999c6 5.33301 17.333 8 34 8c11.333 0 22 -4 32 -12
c8 -8 12 -18.667 12 -32c0 -4 -0.166992 -7.33301 -0.5 -10s-1.33301 -5.33398 -3 -8.00098s-2.83398 -4.66699 -3.50098 -6s-2.5 -3.83301 -5.5 -7.5s-5.16699 -6.16699 -6.5 -7.5c-4 -2 -9.33301 -5.33301 -16 -10z" />
    <glyph glyph-name="afii10053" unicode="&#x404;" horiz-adv-x="667" 
d="M199 325c1.33301 -78.667 21.001 -143.333 59.001 -194c20.667 -27.333 47 -48.333 79 -63s65.667 -22 101 -22c30.667 0 62.334 7 95.001 21s60.667 31.667 84 53l13 -5l-22 -85c-55.333 -28.667 -121.333 -43 -198 -43c-38.667 0 -82.334 5 -131.001 15
c-33.333 7.33301 -70 23.666 -110 48.999c-25.333 17.333 -49.333 41 -72 71c-42 56 -63 122 -63 198c0 121.333 38.333 216 115 284c70.667 61.333 165 92 283 92c76 0 144 -16 204 -48c-3.33301 -12.667 -7.5 -31 -12.5 -55s-8.5 -39.667 -10.5 -47h-14
c-18.667 26.667 -43 48 -73 64s-61 24 -93 24c-67.333 0 -120.333 -23 -159 -69s-62.334 -103.333 -71.001 -172h225c29.333 0 60.333 2.33301 93 7c-3.33301 -13.333 -5 -26.666 -5 -39.999c0 -12.667 1.66699 -26.667 5 -42c-25.333 4.66699 -56.333 7 -93 7h-229z" />
    <glyph glyph-name="afii10054" unicode="&#x405;" horiz-adv-x="500" 
d="M404 549l-14.999 0.000976562c-22 56.667 -60.333 85 -115 85c-34 0 -60.667 -9 -80 -27c-20 -18 -30 -41 -30 -69c0 -19.333 8.16699 -37.5 24.5 -54.5s37 -32 62 -45l77 -39c26.333 -13 51.166 -28.833 74.499 -47.5s39.666 -38.667 48.999 -60
c11.333 -24.667 17 -54.334 17 -89.001c0 -30.667 -8 -62 -24 -94c-19.333 -40.667 -54.666 -73 -105.999 -97c-37.333 -17.333 -82.333 -26 -135 -26c-62 0 -115.667 14 -161 42c14.667 52 24.334 94 29.001 126h19c7.33301 -33.333 23.5 -59.5 48.5 -78.5
s54.833 -28.5 89.5 -28.5c33.333 0 61.166 8.66699 83.499 26s33.5 42.333 33.5 75c0 28 -12.333 53.667 -37 77c-30 21.333 -67.333 42.333 -112 63c-8 4 -16.5 8.66699 -25.5 14s-19 11.666 -30 18.999l-24.5 16c-22.667 14 -39.834 35 -51.501 63s-17.5 57 -17.5 87
c0 64 25.333 116.667 76 158c23.333 18.667 46.833 31.5 70.5 38.5s51.834 10.5 84.501 10.5c57.333 0 107 -13.333 149 -40c1.33301 -1.33301 3 -2.66602 5 -3.99902s3.33301 -2.33301 4 -3c-8 -21.333 -18.667 -54 -32 -98z" />
    <glyph glyph-name="afii10056" unicode="&#x407;" horiz-adv-x="333" 
d="M243 684c-4 -58.667 -6.33691 -102.998 -7.00391 -132.998c-4 -130 -6 -195.333 -6 -196c0 -20.667 0.333008 -42.5 1 -65.5s1.5 -48.5 2.5 -76.5s1.83301 -49.667 2.5 -65c0.666992 -18.667 1.83398 -45.334 3.50098 -80.001s2.83398 -57.334 3.50098 -68.001
c-43.333 3.33301 -69.666 5 -78.999 5c-26.667 0 -56 -1.66699 -88 -5c8.66699 106 13 228.333 13 367v54c0 28.667 -0.666992 71.667 -2 129c-1.33301 49.333 -3.66602 94 -6.99902 134c45.333 -3.33301 72.333 -5 81 -5c10 0 37.333 1.66699 82 5zM271.996 889.002
c16.667 0 31.5 -6.5 44.5 -19.5s19.5 -28.167 19.5 -45.5s-6.33301 -32.5 -19 -45.5s-27.667 -19.5 -45 -19.5c-18 0 -33.333 6.5 -46 19.5s-19 28.167 -19 45.5s6.5 32.5 19.5 45.5s28.167 19.5 45.5 19.5zM60.9961 759.002c-16 0 -30.333 6.66699 -43 20
s-19 28.333 -19 45c0 17.333 6.16699 32.5 18.5 45.5s26.833 19.5 43.5 19.5c17.333 0 32.5 -6.33301 45.5 -19s19.5 -28 19.5 -46s-6.33301 -33.333 -19 -46s-28 -19 -46 -19z" />
    <glyph glyph-name="afii10057" unicode="&#x408;" horiz-adv-x="333" 
d="M29 -159l-14.999 46.998c26 5.33301 44.833 15.333 56.5 30s18.5 35.334 20.5 62.001c4 44.667 6 100.667 6 168c0 19.333 0.166992 48.833 0.5 88.5s0.5 69.5 0.5 89.5c0 14.667 0.333008 37.167 1 67.5s1 53.166 1 68.499c0 11.333 -0.333008 27.833 -1 49.5
s-1 37.834 -1 48.501c-0.666992 14 -1.5 34.667 -2.5 62s-1.83301 48 -2.5 62c46.667 -3.33301 74.334 -5 83.001 -5c28 0 55.667 2 83 6c-2.66699 -29.333 -5.33398 -72.666 -8.00098 -129.999c-1.33301 -53.333 -2 -93.666 -2 -120.999c-0.666992 -8 -1 -20.333 -1 -37
c0 -26 0.5 -64.5 1.5 -115.5s1.5 -89.5 1.5 -115.5c0 -5.33301 0.166992 -16.833 0.5 -34.5s0.333008 -30.334 0 -38.001s-1 -19.167 -2 -34.5s-2.5 -27.833 -4.5 -37.5s-5.16699 -20.667 -9.5 -33s-9.5 -23.5 -15.5 -33.5c-38.667 -65.333 -102.334 -103.333 -191.001 -114
z" />
    <glyph glyph-name="afii10058" unicode="&#x409;" horiz-adv-x="907" 
d="M577 330l-3.00098 -119.999v-84c0 -30.667 -0.333008 -54 -1 -70c30 1.33301 52 3.66602 66 6.99902c56.667 16 85 60.667 85 134c0 54 -15 93 -45 117c-11.333 9.33301 -27.666 14.833 -48.999 16.5s-39 1.5 -53 -0.5zM427.999 603.001
c-44.667 6 -75.999 6.66797 -93.999 2.00098c-5.33301 -14 -33 -79.667 -83 -197l-85 -217c-27.333 -72 -47.666 -135 -60.999 -189c-10 2 -26.333 3 -49 3c-14.667 0 -30.334 -1.66699 -47.001 -5v8l74 171c87.333 198 156.666 367.667 207.999 509
c53.333 -6.66699 99.333 -10 138 -10c51.333 0 104 2 158 6c-0.666992 -16 -2 -44.333 -4 -85s-3.33301 -72 -4 -94c0 -28.667 -0.166992 -53.5 -0.5 -74.5s-0.5 -35.833 -0.5 -44.5c26.667 1.33301 47 2 61 2c50 0 86 -2.33301 108 -7
c41.333 -9.33301 74.333 -28.833 99 -58.5s37 -65.5 37 -107.5c0 -62 -17.667 -111 -53 -147c-43.333 -45.333 -104 -68 -182 -68c-16 0 -38.667 0.5 -68 1.5s-52.333 1.5 -69 1.5l-87 -3c1.33301 12 3 58 5 138c2 92 3 183.667 3 275c0 59.333 -1.33301 122.666 -4 189.999
z" />
    <glyph glyph-name="afii10059" unicode="&#x40a;" horiz-adv-x="962" 
d="M632 330l-3.00098 -119.999v-84c0 -30.667 -0.333008 -54 -1 -70c30 1.33301 52 3.66602 66 6.99902c56.667 16 85 60.667 85 134c0 54 -15 93 -45 117c-11.333 9.33301 -27.666 14.833 -48.999 16.5s-39 1.5 -53 -0.5zM486.999 330.001
c-8 0 -26.501 0.499023 -55.501 1.49902s-53.167 1.5 -72.5 1.5c-20 0 -44.833 -0.5 -74.5 -1.5s-49.167 -1.5 -58.5 -1.5v-121c0 -58 2.33301 -127.667 7 -209c-43.333 3.33301 -69.666 5 -78.999 5c-10 0 -39.333 -1.66699 -88 -5c8.66699 106 13 228.333 13 367
c0 132.667 -3 238.334 -9 317.001c45.333 -3.33301 72.333 -5 81 -5c10 0 37.333 1.66699 82 5c-0.666992 -15.333 -2 -38.5 -4 -69.5s-3 -54.167 -3 -69.5v-43v-92c13.333 0 34.333 -0.666992 63 -2s52.334 -2 71.001 -2c18 0 40.5 0.666992 67.5 2s46.833 2 59.5 2
c0 74.667 -2.33301 159.667 -7 255l-1 19c45.333 -3.33301 72.333 -5 81 -5c9.33301 0 36.666 1.66699 81.999 5c-0.666992 -16 -2 -44.333 -4 -85s-3.33301 -72 -4 -94c0 -28.667 -0.166992 -53.5 -0.5 -74.5s-0.5 -35.833 -0.5 -44.5c26.667 1.33301 47 2 61 2
c50 0 86 -2.33301 108 -7c41.333 -9.33301 74.333 -28.833 99 -58.5s37 -65.5 37 -107.5c0 -62 -17.667 -111 -53 -147c-43.333 -45.333 -104 -68 -182 -68c-16.667 0 -39.667 0.5 -69 1.5s-52 1.5 -68 1.5l-87 -3c1.33301 12 3 58 5 138z" />
    <glyph glyph-name="afii10060" unicode="&#x40b;" horiz-adv-x="815" 
d="M350 294l-0.00292969 -6.00195c0 -14 0.166992 -35.167 0.5 -63.5s0.5 -49.833 0.5 -64.5c0 -19.333 0.833008 -47.333 2.5 -84s2.5 -62 2.5 -76c-45.333 3.33301 -72.666 5 -81.999 5c-10 0 -24.333 -0.833008 -43 -2.5s-31.667 -2.5 -39 -2.5
c0.666992 10 1.83398 31.667 3.50098 65s2.83398 59 3.50098 77c3.33301 125.333 5 238.333 5 339c0 43.333 -1 86.333 -3 129c-19.333 0 -48.333 -1.33301 -87 -4c-45.333 -4 -77.666 -7.33301 -96.999 -10c5.33301 20 6.33301 45.333 3 76
c0 0.666992 -0.166992 1.66699 -0.5 3s-0.5 2.5 -0.5 3.5s-0.166992 2 -0.5 3s-0.833008 1.83301 -1.5 2.5c33.333 -1.33301 58.333 -2 75 -2c81.333 -2.66699 142 -4 182 -4c11.333 0 28.5 0.166992 51.5 0.5s40.167 0.5 51.5 0.5c17.333 0 43.166 0.833008 77.499 2.5
s60.166 2.5 77.499 2.5c-2.66699 -17.333 -4 -30.666 -4 -39.999c0 -18 1.33301 -34 4 -48c-66.667 10 -125.667 14.667 -177 14l-2 -73l-3 -177c63.333 38 129.333 57 198 57c61.333 0 112.166 -16.167 152.499 -48.5s60.5 -77.166 60.5 -134.499
c0.666992 -118.667 2.33398 -196.667 5.00098 -234c-45.333 3.33301 -72.333 5 -81 5c-10 0 -37.333 -1.66699 -82 -5c0.666992 15.333 2 38.5 4 69.5s3 54.167 3 69.5l1 70c0 42 -11.667 72.833 -35 92.5s-53.666 29.5 -90.999 29.5c-45.333 0 -90.333 -12.333 -135 -37z
" />
    <glyph glyph-name="afii10061" unicode="&#x40c;" horiz-adv-x="611" 
d="M71 0l7.00195 180.001v301l-6 203c45.333 -3.33301 72.666 -5 81.999 -5c26.667 0 52.334 2 77.001 6c-3.33301 -75.333 -5.33301 -150 -6 -224c0 -20.667 -0.666992 -51.667 -2 -93c106.667 123.333 192 228.666 256 315.999c21.333 -3.33301 39.666 -5 54.999 -5
c17.333 0 36 1.66699 56 5l-1 -8l-163 -175c-20.667 -22 -50.334 -56.333 -89.001 -103l263 -386v-12c-48 3.33301 -77.333 5 -88 5c-25.333 0 -54 -1.66699 -86 -5l-97 152l-106 161l6 -313c-44.667 3.33301 -71.667 5 -81 5c-8 0 -33.667 -1.66699 -77 -5z
M414.002 831.001l-132 -80.9971h-55l128 149c13.333 15.333 24 24.666 32 27.999c6 5.33301 17.333 8 34 8c11.333 0 22 -4 32 -12c8 -8 12 -18.667 12 -32c0 -4 -0.166992 -7.33301 -0.5 -10s-1.33301 -5.33398 -3 -8.00098s-2.83398 -4.66699 -3.50098 -6
s-2.5 -3.83301 -5.5 -7.5s-5.16699 -6.16699 -6.5 -7.5l-16 -10c-7.33301 -4.66699 -12.666 -8.33398 -15.999 -11.001z" />
    <glyph glyph-name="afii10062" unicode="&#x40e;" horiz-adv-x="648" 
d="M4 684c50 -3.33301 80.999 -5.00293 92.999 -5.00293c30 0 59.667 2 89 6c4.66699 -10 12.167 -24.667 22.5 -44l23.5 -44l23.5 -45l25.5 -49c4.66699 -10 13 -24.667 25 -44s20.333 -33.666 25 -42.999c3.33301 -8 11.166 -22.667 23.499 -44s20.5 -33.666 24.5 -36.999
c0 -0.666992 1.16699 0.5 3.5 3.5s4.83301 6.5 7.5 10.5l5 6c6 10 11.667 20.333 17 31c8 14.667 21.5 43.667 40.5 87s30.833 69.666 35.5 78.999l37 82l22 50c1.33301 0 3.33301 -0.333008 6 -1s4.66699 -1 6 -1c24 -4.66699 51.333 -4 82 2l-63 -115l-74 -137l-64 -128
c-25.333 -52 -43.333 -90.333 -54 -115c-30.667 -71.333 -54.334 -134.333 -71.001 -189c-7.33301 0.666992 -15.166 1.33398 -23.499 2.00098s-14.166 1 -17.499 1s-7.33301 0.166992 -12 0.5s-9.16699 0.333008 -13.5 0s-9.33301 -0.666016 -15 -0.999023
s-13.5 -1.16602 -23.5 -2.49902c36.667 61.333 67.334 119.333 92.001 174c-4.66699 14 -23.667 50.667 -57 110c-48.667 87.333 -129 220.666 -241 399.999zM520.999 830.997c-13.333 -31.333 -33.667 -56.667 -61 -76s-60.333 -29 -99 -29s-71.5 9.5 -98.5 28.5
s-47.5 44.5 -61.5 76.5l32 17c28 -42 71 -63 129 -63c58.667 0 101 21 127 63z" />
    <glyph glyph-name="afii10145" unicode="&#x40f;" horiz-adv-x="758" 
d="M323 6c-98 0 -183.666 -1.99414 -256.999 -5.99414c6.66699 80 10.667 200.667 12 362c0 143.333 -2.66699 250.666 -8 321.999c45.333 -3.33301 72.333 -5 81 -5c10 0 37.333 1.66699 82 5c-0.666992 -17.333 -1.83398 -42.333 -3.50098 -75s-2.83398 -54 -3.50098 -64
c-0.666992 -24.667 -1.16699 -58.334 -1.5 -101.001s-0.5 -70.667 -0.5 -84c0 -54 0.333008 -112.833 1 -176.5s1 -97.167 1 -100.5c11.333 0 35 -0.666992 71 -2s63.667 -2 83 -2s46.5 0.666992 81.5 2s58.167 2 69.5 2v468c0 15.333 -1.66699 59.666 -5 132.999
c44.667 -3.33301 72 -5 82 -5c8.66699 0 36.334 1.66699 83.001 5c-0.666992 -12.667 -2.16699 -34.334 -4.5 -65.001s-3.83301 -54.334 -4.5 -71.001c0 -17.333 -0.333008 -41.833 -1 -73.5s-1.16699 -60.334 -1.5 -86.001s-0.5 -50.167 -0.5 -73.5c0 -126 4 -231 12 -315
c-133.333 3.33301 -218 5 -254 5l3 -80c-18 2 -38 3 -60 3c-21.333 0 -41.333 -1 -60 -3c2.66699 26.667 3.66699 53.667 3 81z" />
    <glyph glyph-name="afii10017" unicode="&#x410;" horiz-adv-x="648" 
d="M6 0l0.00292969 8.00098l74 171c84 191.333 153.333 361.666 208 510.999c21.333 -3.33301 34 -5 38 -5s16.667 1.66699 38 5l7 -17c86.667 -229.333 174 -447 262 -653l5 -11v-9c-46.667 3.33301 -75 5 -85 5c-24.667 0 -52.667 -1.66699 -84 -5
c-27.333 89.333 -50.333 157.333 -69 204c-8 0 -19.5 0.333008 -34.5 1s-28.667 1.16699 -41 1.5s-23.833 0.5 -34.5 0.5c-26.667 0 -67.334 -0.666992 -122.001 -2l-5 -14c-36.667 -104 -57.667 -167.667 -63 -191c-16.667 3.33301 -32.334 5 -47.001 5
s-30.334 -1.66699 -47.001 -5zM197.003 274.001l-2.99902 -9h183c-26.667 73.333 -56.334 151 -89.001 233c-38 -88 -68.333 -162.667 -91 -224z" />
    <glyph glyph-name="afii10018" unicode="&#x411;" horiz-adv-x="592" 
d="M230 59c21.333 -1.33301 37.666 -1.99902 48.999 -1.99902c40.667 0 70.334 14.667 89.001 44c18 27.333 27 56.666 27 87.999c0 106 -55.333 152.667 -166 140c-0.666992 -32 -1 -80 -1 -144c0 -14 0.333008 -35 1 -63s1 -49 1 -63zM232 609.001
c-2 -78 -2.99707 -117.335 -2.99707 -118.002c0 -11.333 0.166992 -28.666 0.5 -51.999s0.5 -40.666 0.5 -51.999c9.33301 -0.666992 30.166 -0.666992 62.499 0s54.833 1 67.5 1c62 0 109.5 -17.5 142.5 -52.5s49.5 -81.5 49.5 -139.5
c0 -50.667 -17.667 -95.334 -53 -134.001c-24.667 -26.667 -65.334 -45.667 -122.001 -57c-14 -3.33301 -36.333 -5 -67 -5c-16.667 0 -41.167 0.5 -73.5 1.5s-56.833 1.5 -73.5 1.5l-87 -3c4 30.667 6.66699 76.667 8 138c2.66699 122.667 4 214.334 4 275.001
c0 19.333 -2.66699 105.333 -8 258v13c76 -4 127 -6 153 -6c8.66699 0 104 1.66699 286 5c-4.66699 -22 -5.33398 -46.667 -2.00098 -74c0.666992 -1.33301 1 -3.33301 1 -6s0.333008 -4.66699 1 -6c-114 8.66699 -190 12.667 -228 12h-59z" />
    <glyph glyph-name="afii10019" unicode="&#x412;" horiz-adv-x="592" 
d="M372 370l0.000976562 -8.99805c45.333 1.33301 87 -13.667 125 -45c36.667 -32 55 -72 55 -120c0 -50.667 -17.667 -95.334 -53 -134.001c-24.667 -26.667 -65.334 -45.667 -122.001 -57c-14 -3.33301 -36.333 -5 -67 -5c-16.667 0 -41.167 0.5 -73.5 1.5
s-56.833 1.5 -73.5 1.5l-87 -3c4 30.667 6.66699 76.667 8 138c2.66699 122.667 4 214.334 4 275.001c0 19.333 -2.66699 110 -8 272c38 -2 75.667 -3 113 -3c16 0 40 0.333008 72 1s56 1 72 1c57.333 0 104.833 -12.167 142.5 -36.5s56.5 -63.5 56.5 -117.5
c0 -44.667 -15.833 -80.834 -47.5 -108.501s-70.5 -44.834 -116.5 -51.501zM230.001 387.002c14.667 -0.666992 28.167 -1.00195 40.5 -1.00195s25 2.16699 38 6.5s24.833 10.833 35.5 19.5c28.667 24 43 58.667 43 104c0 13.333 -3 29.333 -9 48s-13.333 31.667 -22 39
c-22 18 -47.333 27 -76 27c-17.333 0 -33 -1.33301 -47 -4c-2.66699 -60 -4 -105 -4 -135c0 -11.333 0.166992 -28.666 0.5 -51.999s0.5 -40.666 0.5 -51.999zM230.001 59c21.333 -1.33301 37.666 -1.99902 48.999 -1.99902c40.667 0 70.334 14.667 89.001 44
c18 27.333 27 56.666 27 87.999c0 106 -55.333 152.667 -166 140c-0.666992 -32 -1 -80 -1 -144c0 -14 0.333008 -35 1 -63s1 -49 1 -63z" />
    <glyph glyph-name="afii10020" unicode="&#x413;" horiz-adv-x="481" 
d="M74 671v13.001c15.333 0 40.833 -1 76.5 -3s63.167 -3 82.5 -3c28 0 67.667 0.833008 119 2.5s87 2.5 107 2.5c-4.66699 -22 -5.33398 -46.667 -2.00098 -74c0.666992 -1.33301 1 -3.33301 1 -6s0.333008 -4.66699 1 -6c-114 8.66699 -190 12.667 -228 12
c-1.33301 -46.667 -2 -81.334 -2 -104.001c0 -12 -0.166992 -29.833 -0.5 -53.5s-0.5 -42.834 -0.5 -57.501c0 -4.66699 -0.166992 -35.167 -0.5 -91.5s-0.166016 -86.833 0.500977 -91.5l7 -211c-46.667 3.33301 -74.334 5 -83.001 5c-9.33301 0 -36.333 -1.66699 -81 -5
l3 57c2.66699 82.667 4.33398 145 5.00098 187c0 16.667 0.166992 41.834 0.5 75.501s0.5 59.167 0.5 76.5v117c0 1.33301 -2 54 -6 158z" />
    <glyph glyph-name="afii10021" unicode="&#x414;" horiz-adv-x="703" 
d="M156 76c50 -2.66699 108.331 -4.00098 174.998 -4.00098c62.667 0 109 1.33301 139 4c-5.33301 22.667 -26.333 85.667 -63 189c-22 62.667 -51.667 140.334 -89 233.001c-35.333 -81.333 -65.666 -156 -90.999 -224c-5.33301 -14.667 -14.166 -37.167 -26.499 -67.5
s-21.833 -55 -28.5 -74s-12 -37.833 -16 -56.5zM640.998 73.999l42.002 -1.99707c-4 -16 -6 -33.667 -6 -53c0 -20.667 2 -42 6 -64h-15c-18.667 23.333 -46.334 37.666 -83.001 42.999s-99.334 8 -188.001 8h-40c-55.333 0 -95.833 -0.333008 -121.5 -1
s-54.667 -2.5 -87 -5.5s-56.833 -8 -73.5 -15s-30 -16.833 -40 -29.5h-15c3.33301 20 5 41.333 5 64c0 17.333 -1.66699 35 -5 53h44l46 107c84 191.333 153.333 361.666 208 510.999c21.333 -3.33301 34 -5 38 -5s16.667 1.66699 38 5l7 -17
c73.333 -194.667 153.333 -394.334 240 -599.001z" />
    <glyph glyph-name="afii10022" unicode="&#x415;" horiz-adv-x="500" 
d="M74 671v13.001c15.333 0 40.833 -1 76.5 -3s63.167 -3 82.5 -3c28 0 67.667 0.833008 119 2.5s87 2.5 107 2.5c-4.66699 -22 -5.33398 -46.667 -2.00098 -74c0.666992 -1.33301 1 -3.33301 1 -6s0.333008 -4.66699 1 -6c-114 8.66699 -190 12.667 -228 12
c-1.33301 -46.667 -2 -81.334 -2 -104.001c0 -12.667 -0.166992 -31.334 -0.5 -56.001s-0.5 -43 -0.5 -55l227 8c-3.33301 -26.667 -5 -42.334 -5 -47.001c0 -3.33301 1.66699 -16 5 -38c-65.333 4.66699 -124.666 7.33398 -177.999 8.00098
c-5.33301 0 -13.5 0.166992 -24.5 0.5s-19.167 0.5 -24.5 0.5c0 -14 -0.166992 -35.167 -0.5 -63.5s-0.5 -49.5 -0.5 -63.5s0.166992 -35 0.5 -63s0.5 -49 0.5 -63c70.667 0 147.667 4.33301 231 13c-4.66699 -22 -5.33398 -46.667 -2.00098 -74
c0.666992 -1.33301 1 -3.33301 1 -6s0.333008 -4.66699 1 -6c-17.333 0 -46.333 1 -87 3s-72 3 -94 3c-13.333 0 -33 -0.5 -59 -1.5s-45.667 -1.5 -59 -1.5c-29.333 0 -59 -1 -89 -3l3 57c2.66699 82.667 4.33398 145 5.00098 187c0 16.667 0.166992 41.834 0.5 75.501
s0.5 59.167 0.5 76.5v117c0 1.33301 -2 54 -6 158z" />
    <glyph glyph-name="afii10024" unicode="&#x416;" horiz-adv-x="906" 
d="M375 682c27.333 -2 54.0029 -3 80.0029 -3c24.667 0 49.667 2 75 6c-1.33301 -25.333 -2.66602 -100 -3.99902 -224c0 -20.667 -0.666992 -51.667 -2 -93c106.667 123.333 192 228.666 256 315.999c21.333 -3.33301 39.666 -5 54.999 -5c17.333 0 36 1.66699 56 5l-1 -8
l-163 -175c-20.667 -22 -50.334 -56.333 -89.001 -103l263 -386v-12c-48.667 3.33301 -78 5 -88 5c-25.333 0 -54 -1.66699 -86 -5l-97 152l-106 161l8 -313c-43.333 3.33301 -69 5 -77 5c-8.66699 0 -35.667 -1.66699 -81 -5l6 313l-106 -161l-97 -152
c-32 3.33301 -60.667 5 -86 5c-10 0 -39.333 -1.66699 -88 -5v12l263 386c-38.667 46.667 -68.334 81 -89.001 103l-163 175l-1 8c20 -3.33301 38.667 -5 56 -5c15.333 0 33.666 1.66699 54.999 5c64 -87.333 149.333 -192.666 256 -315.999
c-1.33301 41.333 -2 72.333 -2 93z" />
    <glyph glyph-name="afii10025" unicode="&#x417;" horiz-adv-x="536" 
d="M492 195c0 -63.333 -26.002 -114.667 -78.002 -154s-114.333 -59 -187 -59c-63.333 0 -122.666 16.333 -177.999 49l-11 80l13 6c52.667 -50 106 -75 160 -75c36.667 0 66.834 12.333 90.501 37s35.5 58 35.5 100c0 55.333 -12.5 93.333 -37.5 114s-58.833 31 -101.5 31
c-22.667 0 -39.667 -0.666992 -51 -2c4 26 4 51 0 75c16 -1.33301 28.667 -2 38 -2c87.333 0 131 44 131 132c0 34 -10.5 61.167 -31.5 81.5s-46.5 30.5 -76.5 30.5c-58 0 -103.667 -30.667 -137 -92h-16c-2 32.667 -6 68.667 -12 108c60 29.333 125.667 44 197 44
c64.667 0 118.5 -13.5 161.5 -40.5s64.5 -66.833 64.5 -119.5c0 -90.667 -53 -147 -159 -169c-0.666992 -2.66699 -0.666992 -5.66699 0 -9c34 -2.66699 64 -9 90 -19s48.333 -27.5 67 -52.5s28 -56.5 28 -94.5z" />
    <glyph glyph-name="afii10026" unicode="&#x418;" horiz-adv-x="758" 
d="M690 0c-16.667 3.33301 -45.3311 5.00195 -85.998 5.00195c-22 0 -46.333 -1.33301 -73 -4l-7 -1c4.66699 56.667 7 142 7 256v91c0 13.333 -0.166992 27.5 -0.5 42.5s-0.833008 31.5 -1.5 49.5s-1 32 -1 42c-41.333 -48.667 -81.666 -99.334 -120.999 -152.001
l-127.5 -173l-113.5 -156c-26.667 5.33301 -50.334 6 -71.001 2c-1.33301 0 -3.16602 -0.333008 -5.49902 -1s-4.16602 -1 -5.49902 -1v211v102c0 18.667 -0.333008 38.5 -1 59.5s-1.5 44.167 -2.5 69.5s-1.83301 45 -2.5 59c-0.666992 16 -1.83398 38.833 -3.50098 68.5
s-2.83398 49.167 -3.50098 58.5c-0.666992 6 -1.33398 15.167 -2.00098 27.5s-1 21.5 -1 27.5c40 -2.66699 67.333 -4 82 -4c29.333 0 56.666 1.66699 81.999 5l-1 -19c-4 -80 -6 -120.333 -6 -121c0 -12 -0.166992 -30.333 -0.5 -55s-0.5 -43.334 -0.5 -56.001
c0 -98 0.333008 -171.333 1 -220l136 169c81.333 104.667 156 205.334 224 302.001c16.667 -3.33301 31.667 -5 45 -5s28.333 1.66699 45 5c-1.33301 -21.333 -2 -37 -2 -47c0 -18 -0.166992 -45 -0.5 -81s-0.5 -62.667 -0.5 -80c0 -190.667 6 -349.334 18 -476.001z" />
    <glyph glyph-name="afii10027" unicode="&#x419;" horiz-adv-x="758" 
d="M539 831c-13.333 -31.333 -33.667 -56.667 -61 -76s-60.333 -29 -99 -29s-71.5 9.5 -98.5 28.5s-47.5 44.5 -61.5 76.5l32 17c28 -42 71 -63 129 -63c58.667 0 101 21 127 63zM689.999 -0.000976562c-16.667 3.33301 -45.3311 5.00195 -85.998 5.00195
c-22 0 -46.333 -1.33301 -73 -4l-7 -1c4.66699 56.667 7 142 7 256v91c0 13.333 -0.166992 27.5 -0.5 42.5s-0.833008 31.5 -1.5 49.5s-1 32 -1 42c-41.333 -48.667 -81.666 -99.334 -120.999 -152.001l-127.5 -173l-113.5 -156c-26.667 5.33301 -50.334 6 -71.001 2
c-1.33301 0 -3.16602 -0.333008 -5.49902 -1s-4.16602 -1 -5.49902 -1v211v102c0 18.667 -0.333008 38.5 -1 59.5s-1.5 44.167 -2.5 69.5s-1.83301 45 -2.5 59c-0.666992 16 -1.83398 38.833 -3.50098 68.5s-2.83398 49.167 -3.50098 58.5
c-0.666992 6 -1.33398 15.167 -2.00098 27.5s-1 21.5 -1 27.5c40 -2.66699 67.333 -4 82 -4c29.333 0 56.666 1.66699 81.999 5l-1 -19c-4 -80 -6 -120.333 -6 -121c0 -12 -0.166992 -30.333 -0.5 -55s-0.5 -43.334 -0.5 -56.001c0 -98 0.333008 -171.333 1 -220l136 169
c81.333 104.667 156 205.334 224 302.001c16.667 -3.33301 31.667 -5 45 -5s28.333 1.66699 45 5c-1.33301 -21.333 -2 -37 -2 -47c0 -18 -0.166992 -45 -0.5 -81s-0.5 -62.667 -0.5 -80c0 -190.667 6 -349.334 18 -476.001z" />
    <glyph glyph-name="afii10028" unicode="&#x41a;" horiz-adv-x="611" 
d="M71 0l7.00195 180.001v301l-6 203c45.333 -3.33301 72.666 -5 81.999 -5c26.667 0 52.334 2 77.001 6c-3.33301 -75.333 -5.33301 -150 -6 -224c0 -20.667 -0.666992 -51.667 -2 -93c106.667 123.333 192 228.666 256 315.999c21.333 -3.33301 39.666 -5 54.999 -5
c17.333 0 36 1.66699 56 5l-1 -8l-163 -175c-20.667 -22 -50.334 -56.333 -89.001 -103l263 -386v-12c-48 3.33301 -77.333 5 -88 5c-25.333 0 -54 -1.66699 -86 -5l-97 152l-106 161l6 -313c-44.667 3.33301 -71.667 5 -81 5c-8 0 -33.667 -1.66699 -77 -5z" />
    <glyph glyph-name="afii10029" unicode="&#x41b;" horiz-adv-x="648" 
d="M291 498l-92 -224l-33 -83c-27.333 -72 -47.666 -135 -60.999 -189c-10 2 -26.333 3 -49 3c-14.667 0 -30.334 -1.66699 -47.001 -5v8l74 171c84 191.333 153.333 361.666 208 510.999c21.333 -3.33301 34 -5 38 -5c3.33301 0 16 1.66699 38 5l7 -17
c86.667 -229.333 174 -447 262 -653l5 -11v-9c-46.667 3.33301 -75 5 -85 5c-52.667 0 -82 -0.333008 -88 -1c-28 92.667 -49.667 159.334 -65 200.001c-28.667 80.667 -66 178.667 -112 294z" />
    <glyph glyph-name="afii10030" unicode="&#x41c;" horiz-adv-x="889" 
d="M96 384l41.0049 300.002c3.33301 0 9.66602 -0.833008 18.999 -2.5s16.333 -2.5 21 -2.5c6 0 19.667 1.66699 41 5c45.333 -99.333 122.333 -257 231 -473l59 115c62 120.667 120 240 174 358c1.33301 0 3.16602 -0.333008 5.49902 -1s4.16602 -1 5.49902 -1
c24 -4 48.667 -3.33301 74 2c11.333 -104 29.666 -260 54.999 -468l24 -174l7 -42c-44.667 3.33301 -72 5 -82 5c-8.66699 0 -35.667 -1.66699 -81 -5c-2 46 -5.16699 93.5 -9.5 142.5s-10.166 107.833 -17.499 176.5l-15 142
c-92.667 -186.667 -166.667 -340.334 -222 -461.001c-15.333 2.66699 -28 2.66699 -38 0l-77 160l-75 154.5l-67 135.5c-1.33301 -13.333 -3.5 -32 -6.5 -56l-8 -65.5l-6.5 -55.5c-1.33301 -12.667 -3 -31.5 -5 -56.5s-3.66699 -43.833 -5 -56.5
c-0.666992 -10.667 -1.83398 -26.834 -3.50098 -48.501s-2.83398 -38.167 -3.50098 -49.5c-1.33301 -26.667 -2.66602 -47.334 -3.99902 -62.001c-16.667 3.33301 -32.334 5 -47.001 5c-14 0 -29.333 -1.66699 -46 -5c0 8 2.33301 20.333 7 37
c0.666992 2.66699 9.66699 53.334 27 152.001c4 21.333 13.333 86.333 28 195z" />
    <glyph glyph-name="afii10031" unicode="&#x41d;" horiz-adv-x="758" 
d="M70 684c45.333 -3.33301 72.334 -4.99512 81.001 -4.99512c10 0 37.333 1.66699 82 5c-0.666992 -15.333 -2 -38.5 -4 -69.5s-3 -54.167 -3 -69.5v-43v-92c11.333 0 35 -0.666992 71 -2s63.667 -2 83 -2s46.666 0.666992 81.999 2s58.666 2 69.999 2
c0 16 -0.166992 39.667 -0.5 71s-0.5 54.666 -0.5 69.999s-1.66699 59.666 -5 132.999c44.667 -3.33301 72 -5 82 -5c8.66699 0 36.334 1.66699 83.001 5c-0.666992 -12.667 -2.16699 -34.334 -4.5 -65.001s-3.83301 -54.334 -4.5 -71.001
c0 -17.333 -0.333008 -41.833 -1 -73.5s-1.16699 -60.334 -1.5 -86.001s-0.5 -50.167 -0.5 -73.5c0 -131.333 3 -236.333 9 -315c-45.333 3.33301 -72 5 -80 5c-10.667 0 -40.334 -1.66699 -89.001 -5l3 43.5l3.5 51.5c1 15.333 1.83301 29.666 2.5 42.999c2 48 3 96 3 144
c0.666992 10.667 1 26.667 1 48c-11.333 0 -27.333 0.333008 -48 1s-39.5 1.16699 -56.5 1.5s-33.167 0.5 -48.5 0.5s-31.5 -0.166992 -48.5 -0.5s-35.833 -0.833008 -56.5 -1.5s-36.667 -1 -48 -1v-121c0 -58 2.33301 -127.667 7 -209c-43.333 3.33301 -69.666 5 -78.999 5
c-10 0 -39.333 -1.66699 -88 -5c8.66699 106 13 228.333 13 367c0 132.667 -3 238.334 -9 317.001z" />
    <glyph glyph-name="afii10032" unicode="&#x41e;" horiz-adv-x="833" 
d="M801 343c0 -51.333 -10.1689 -100.334 -30.502 -147.001s-49.5 -86.667 -87.5 -120c-72.667 -62.667 -164.667 -94 -276 -94c-51.333 0 -101.166 8.33301 -149.499 25s-89.166 41.334 -122.499 74.001c-65.333 64.667 -98 150.667 -98 258c0 110 39.667 199 119 267
c72 61.333 163.667 92 275 92c92 0 169.333 -22.333 232 -67c51.333 -36 87.333 -79.333 108 -130c20 -47.333 30 -100 30 -158zM411.998 40.999c77.333 0 137.333 38.335 180 115.002c28.667 52 43 120.667 43 206c0 46 -6.66699 89.167 -20 129.5
s-36.5 75.166 -69.5 104.499s-73.167 44 -120.5 44c-45.333 0 -83 -11.333 -113 -34c-30.667 -22.667 -54 -50.334 -70 -83.001c-26 -52.667 -39 -123.667 -39 -213c0 -34 4 -66.5 12 -97.5s20 -59.5 36 -85.5s37.833 -46.833 65.5 -62.5s59.5 -23.5 95.5 -23.5z" />
    <glyph glyph-name="afii10033" unicode="&#x41f;" horiz-adv-x="758" 
d="M70 684c58 -4 161.332 -5.99805 309.999 -5.99805c152.667 0 256.334 2 311.001 6c-0.666992 -12.667 -2.16699 -34.334 -4.5 -65.001s-3.83301 -54.334 -4.5 -71.001c0 -17.333 -0.333008 -41.833 -1 -73.5s-1.16699 -60.334 -1.5 -86.001s-0.5 -50.167 -0.5 -73.5
c0 -131.333 3 -236.333 9 -315c-45.333 3.33301 -72 5 -80 5c-10.667 0 -40.334 -1.66699 -89.001 -5l3 43.5l3.5 51.5c1 15.333 1.83301 29.666 2.5 42.999c2 48 3 186.667 3 416c0.666992 10.667 1 26.334 1 47.001c-56.667 3.33301 -107.667 5 -153 5
s-96.333 -1.66699 -153 -5v-392c0 -58 2.33301 -127.667 7 -209c-43.333 3.33301 -69.666 5 -78.999 5c-10 0 -39.333 -1.66699 -88 -5c8.66699 106 13 228.333 13 367c0 132.667 -3 238.334 -9 317.001z" />
    <glyph glyph-name="afii10034" unicode="&#x420;" 
d="M69 684c31.333 -2 62.333 -3.00098 93 -3.00098c14 0 35 0.666992 63 2s49 2 63 2c50 0 86 -2.33301 108 -7c41.333 -9.33301 74.333 -28.833 99 -58.5s37 -65.5 37 -107.5c0 -62 -17.667 -111 -53 -147c-14.667 -14.667 -29.5 -26.334 -44.5 -35.001
s-28.333 -14.5 -40 -17.5s-30.167 -6.83301 -55.5 -11.5c-15.333 -2.66699 -37.666 -4.16699 -66.999 -4.5s-46 -0.5 -50 -0.5c0 -0.666992 1 -47 3 -139c1.33301 -70 3.33301 -122.333 6 -157c-46.667 3.33301 -74.334 5 -83.001 5c-9.33301 0 -36.666 -1.66699 -81.999 -5
c1.33301 22.667 2.66602 40.334 3.99902 53.001c3.33301 60 5 96.333 5 109c0 16.667 0.166992 41.834 0.5 75.501s0.5 59.167 0.5 76.5c0 58.667 -1.33301 148 -4 268c0 45.333 -1 79.333 -3 102zM226 626.999l-3.00098 -119.999v-84c0 -32 -0.333008 -56 -1 -72
c30 1.33301 52 3.66602 66 6.99902c56.667 16 85 61.333 85 136c0 54 -15 93 -45 117c-11.333 9.33301 -27.666 14.833 -48.999 16.5s-39 1.5 -53 -0.5z" />
    <glyph glyph-name="afii10035" unicode="&#x421;" horiz-adv-x="667" 
d="M617 120l13 -5.00098l-22 -85c-55.333 -28.667 -121.333 -43 -198 -43c-38.667 0 -82.334 5 -131.001 15c-33.333 7.33301 -70 23.666 -110 48.999c-25.333 17.333 -49.333 41 -72 71c-42 56 -63 122 -63 198c0 121.333 38.333 216 115 284c70.667 61.333 165 92 283 92
c76 0 144 -16 204 -48c-3.33301 -12.667 -7.5 -31 -12.5 -55s-8.5 -39.667 -10.5 -47h-14c-18.667 26.667 -43 48 -73 64s-61 24 -93 24c-40 0 -75.5 -8.66699 -106.5 -26s-55.5 -40.666 -73.5 -69.999s-31.5 -61.166 -40.5 -95.499s-13.5 -70.5 -13.5 -108.5
c0 -83.333 19.667 -151 59 -203c20.667 -27.333 47 -48.333 79 -63s65.667 -22 101 -22c30.667 0 62.334 7 95.001 21s60.667 31.667 84 53z" />
    <glyph glyph-name="afii10036" unicode="&#x422;" 
d="M355 610l-2.00195 -72.998c0 -18.667 -0.333008 -44.834 -1 -78.501s-1.16699 -64.334 -1.5 -92.001s-0.5 -53.834 -0.5 -78.501c0 -14 0.166992 -35.167 0.5 -63.5s0.5 -49.833 0.5 -64.5c0 -19.333 0.833008 -47.333 2.5 -84s2.5 -62 2.5 -76
c-45.333 3.33301 -72.666 5 -81.999 5c-10 0 -24.333 -0.833008 -43 -2.5s-31.667 -2.5 -39 -2.5c0.666992 10 1.83398 31.667 3.50098 65s2.83398 59 3.50098 77c3.33301 125.333 5 238.333 5 339c0 43.333 -1 86.333 -3 129c-19.333 0 -48.333 -1.33301 -87 -4
c-45.333 -4 -77.666 -7.33301 -96.999 -10c5.33301 20 6.33301 45.333 3 76c0 0.666992 -0.166992 1.66699 -0.5 3s-0.5 2.5 -0.5 3.5s-0.166992 2 -0.5 3s-0.833008 1.83301 -1.5 2.5c33.333 -1.33301 58.333 -2 75 -2c81.333 -2.66699 142 -4 182 -4
c11.333 0 28.5 0.166992 51.5 0.5s40.167 0.5 51.5 0.5c17.333 0 43.166 0.833008 77.499 2.5s60.166 2.5 77.499 2.5c-2.66699 -17.333 -4 -30.666 -4 -39.999c0 -18 1.33301 -34 4 -48c-66.667 10 -125.667 14.667 -177 14z" />
    <glyph glyph-name="afii10037" unicode="&#x423;" horiz-adv-x="648" 
d="M4 684c50 -3.33301 80.999 -5.00293 92.999 -5.00293c30 0 59.667 2 89 6c4.66699 -10 12.167 -24.667 22.5 -44l23.5 -44l23.5 -45l25.5 -49c4.66699 -10 13 -24.667 25 -44s20.333 -33.666 25 -42.999c3.33301 -8 11.166 -22.667 23.499 -44s20.5 -33.666 24.5 -36.999
c0 -0.666992 1.16699 0.5 3.5 3.5s4.83301 6.5 7.5 10.5l5 6c6 10 11.667 20.333 17 31c8 14.667 21.5 43.667 40.5 87s30.833 69.666 35.5 78.999l37 82l22 50c1.33301 0 3.33301 -0.333008 6 -1s4.66699 -1 6 -1c24 -4.66699 51.333 -4 82 2l-63 -115l-74 -137l-64 -128
c-25.333 -52 -43.333 -90.333 -54 -115c-30.667 -71.333 -54.334 -134.333 -71.001 -189c-7.33301 0.666992 -15.166 1.33398 -23.499 2.00098s-14.166 1 -17.499 1s-7.33301 0.166992 -12 0.5s-9.16699 0.333008 -13.5 0s-9.33301 -0.666016 -15 -0.999023
s-13.5 -1.16602 -23.5 -2.49902c36.667 61.333 67.334 119.333 92.001 174c-4.66699 14 -23.667 50.667 -57 110c-48.667 87.333 -129 220.666 -241 399.999z" />
    <glyph glyph-name="afii10038" unicode="&#x424;" horiz-adv-x="869" 
d="M360 109c3.33301 52 5.00098 128.667 5.00098 230c0 87.333 -2 166 -6 236c-56.667 -10 -98.834 -33.667 -126.501 -71s-41.5 -96.333 -41.5 -177c0 -56.667 13.833 -105.167 41.5 -145.5s70.167 -64.5 127.5 -72.5zM679.001 372c0 54 -13.833 99.332 -41.5 135.999
s-70.167 59.667 -127.5 69c-3.33301 -53.333 -5 -126.666 -5 -219.999c0 -83.333 1.33301 -165 4 -245c56 12 98.333 41.667 127 89s43 104.333 43 171zM515.001 55.999c0 -6 0.5 -15.166 1.5 -27.499s1.83301 -21.833 2.5 -28.5c-43.333 3.33301 -69.666 5 -78.999 5
c-10.667 0 -40 -1.66699 -88 -5c0 6 0.666992 15 2 27s2 21 2 27c-103.333 6 -184.333 34 -243 84s-88 121.333 -88 214c0 80.667 28.833 144.834 86.5 192.501s139.5 76.167 245.5 85.5c-0.666992 6 -1.33398 15 -2.00098 27s-1.33398 21 -2.00098 27
c45.333 -3.33301 72.333 -5 81 -5c9.33301 0 36.666 1.66699 81.999 5c0 -5.33301 -0.333008 -13.833 -1 -25.5s-1 -20.5 -1 -26.5c116.667 -6.66699 200.834 -35.834 252.501 -87.501s77.834 -114.834 78.501 -189.501c0 -80 -29.5 -147.167 -88.5 -201.5
s-139.5 -86.833 -241.5 -97.5z" />
    <glyph glyph-name="afii10039" unicode="&#x425;" horiz-adv-x="611" 
d="M240 316l-205.001 368c50 -3.33301 79.667 -5 89 -5s39 1.66699 89 5c14.667 -32 37.334 -77.167 68.001 -135.5l56 -106.5l147 242c18.667 -3.33301 35.334 -5 50.001 -5c20.667 0 37 2 49 6v-7l-93 -130l-58.5 -83l-57.5 -82l13 -23
c98.667 -177.333 163.667 -297.333 195 -360c-48 3.33301 -77 5 -87 5c-10.667 0 -25.667 -0.833008 -45 -2.5s-33 -2.5 -41 -2.5c-16.667 34 -60.334 118.333 -131.001 253l-92 -144l-42 -75c-2 -4 -5.16699 -9.66699 -9.5 -17s-7.5 -13 -9.5 -17
c-23.333 3.33301 -38.333 5 -45 5c-16 0 -33 -1.66699 -51 -5l90.5 134.5z" />
    <glyph glyph-name="afii10040" unicode="&#x426;" horiz-adv-x="758" 
d="M400 6c-142 0 -253.332 -1.99512 -333.999 -5.99512c6.66699 80 10.667 200.667 12 362c0 143.333 -2.66699 250.666 -8 321.999c45.333 -3.33301 72.333 -5 81 -5c10 0 37.333 1.66699 82 5c-0.666992 -17.333 -1.83398 -42.333 -3.50098 -75s-2.83398 -54 -3.50098 -64
c-0.666992 -24.667 -1.16699 -58.334 -1.5 -101.001s-0.5 -70.667 -0.5 -84c0 -54 0.333008 -112.833 1 -176.5s1 -97.167 1 -100.5c11.333 0 35 -0.666992 71 -2s63.667 -2 83 -2s46.5 0.666992 81.5 2s58.167 2 69.5 2v468c0 15.333 -1.66699 59.666 -5 132.999
c44.667 -3.33301 72 -5 82 -5c8.66699 0 36.334 1.66699 83.001 5c-0.666992 -12.667 -2.16699 -34.334 -4.5 -65.001s-3.83301 -54.334 -4.5 -71.001c0 -17.333 -0.333008 -41.833 -1 -73.5s-1.16699 -60.334 -1.5 -86.001s-0.5 -50.167 -0.5 -73.5
c0 -89.333 1.33301 -169.666 4 -240.999l55 -2c-4 -16 -6 -33.667 -6 -53c0 -20.667 2 -42 6 -64h-15c-19.333 24 -47 38.5 -83 43.5s-99.667 7.5 -191 7.5h-16h-15.5h-17.5z" />
    <glyph glyph-name="afii10041" unicode="&#x427;" horiz-adv-x="703" 
d="M478 551c0 15.333 -1.66504 59.6719 -4.99805 133.005c45.333 -3.33301 72.666 -5 81.999 -5c8.66699 0 36.334 1.66699 83.001 5c-0.666992 -12.667 -2.16699 -34.334 -4.5 -65.001s-3.83301 -54.334 -4.5 -71.001c0 -17.333 -0.333008 -41.833 -1 -73.5
s-1.16699 -60.334 -1.5 -86.001s-0.5 -50.167 -0.5 -73.5c0 -131.333 3 -236.333 9 -315c-44.667 3.33301 -71.334 5 -80.001 5c-11.333 0 -41 -1.66699 -89 -5l3 43.5l3.5 51.5c1 15.333 1.83301 29.666 2.5 42.999c2 48 3 96 3 144l-1 53
c-68 -45.333 -139.667 -68 -215 -68c-61.333 0 -112.166 16.167 -152.499 48.5s-60.5 77.166 -60.5 134.499c-0.666992 118.667 -2.33398 196.667 -5.00098 234c44.667 -3.33301 71.667 -5 81 -5c10 0 37.333 1.66699 82 5c-0.666992 -15.333 -2 -38.5 -4 -69.5
s-3 -54.167 -3 -69.5l-1 -70c0 -42 11.667 -72.833 35 -92.5s53.666 -29.5 90.999 -29.5c53.333 0 104 15.667 152 47c0.666992 68.667 1 119 1 151z" />
    <glyph glyph-name="afii10042" unicode="&#x428;" horiz-adv-x="925" 
d="M535 80c92.667 2 144.336 3.00879 155.003 3.00879c0 1.33301 0.333008 24.666 1 69.999s1 85.666 1 120.999c0 47.333 -0.166992 105.166 -0.5 173.499s-0.5 102.833 -0.5 103.5c0 15.333 -1.66699 59.666 -5 132.999c44.667 -3.33301 72 -5 82 -5
c8.66699 0 36.334 1.66699 83.001 5c-0.666992 -12.667 -2.16699 -34.334 -4.5 -65.001s-3.83301 -54.334 -4.5 -71.001c0 -17.333 -0.333008 -41.833 -1 -73.5s-1.16699 -60.334 -1.5 -86.001s-0.5 -50.167 -0.5 -73.5c0 -131.333 3 -236.333 9 -315
c-57.333 4 -185 6 -383 6c-198.667 0 -328.334 -2 -389.001 -6c6.66699 80 10.667 200.667 12 362c0 143.333 -2.66699 250.666 -8 321.999c45.333 -3.33301 72.333 -5 81 -5c10 0 37.333 1.66699 82 5c-0.666992 -17.333 -1.83398 -42.333 -3.50098 -75
s-2.83398 -54 -3.50098 -64c-0.666992 -24.667 -1.16699 -58.334 -1.5 -101.001s-0.5 -70.667 -0.5 -84c0 -54 0.333008 -112.833 1 -176.5s1 -97.167 1 -100.5c13.333 -0.666992 62.666 -1.66699 147.999 -3c5.33301 88 8 183.667 8 287c0 40.667 -0.666992 101.667 -2 183
c-1.33301 49.333 -3.66602 94 -6.99902 134c44.667 -3.33301 71.667 -5 81 -5s36.666 1.66699 81.999 5c-4 -58.667 -6.33301 -103 -7 -133c-4 -130 -6 -195.333 -6 -196c0 -15.333 -0.166992 -37 -0.5 -65s-0.5 -53.5 -0.5 -76.5s0.333008 -44.833 1 -65.5
c0 -8 0.166992 -19.5 0.5 -34.5s0.833008 -26.167 1.5 -33.5z" />
    <glyph glyph-name="afii10043" unicode="&#x429;" horiz-adv-x="925" 
d="M465 6c-198.667 0 -328.33 -1.99023 -388.997 -5.99023c6.66699 80 10.667 200.667 12 362c0 143.333 -2.66699 250.666 -8 321.999c45.333 -3.33301 72.333 -5 81 -5c10 0 37.333 1.66699 82 5c-0.666992 -17.333 -1.83398 -42.333 -3.50098 -75
s-2.83398 -54 -3.50098 -64c-0.666992 -24.667 -1.16699 -58.334 -1.5 -101.001s-0.5 -70.667 -0.5 -84c0 -54 0.333008 -112.833 1 -176.5s1 -97.167 1 -100.5c13.333 -0.666992 62.666 -1.66699 147.999 -3c5.33301 88 8 183.667 8 287c0 40.667 -0.666992 101.667 -2 183
c-1.33301 49.333 -3.66602 94 -6.99902 134c44.667 -3.33301 71.667 -5 81 -5s36.666 1.66699 81.999 5c-4 -58.667 -6.33301 -103 -7 -133c-4 -130 -6 -195.333 -6 -196c0 -15.333 -0.166992 -37 -0.5 -65s-0.5 -53.5 -0.5 -76.5s0.333008 -44.833 1 -65.5
c0 -8 0.166992 -19.5 0.5 -34.5s0.833008 -26.167 1.5 -33.5c92.667 2 144.334 3 155.001 3c0 1.33301 0.333008 24.666 1 69.999s1 85.666 1 120.999c0 47.333 -0.166992 105.166 -0.5 173.499s-0.5 102.833 -0.5 103.5c0 15.333 -1.66699 59.666 -5 132.999
c44.667 -3.33301 72 -5 82 -5c8.66699 0 36.334 1.66699 83.001 5c-0.666992 -12.667 -2.16699 -34.334 -4.5 -65.001s-3.83301 -54.334 -4.5 -71.001c0 -17.333 -0.333008 -41.833 -1 -73.5s-1.16699 -60.334 -1.5 -86.001s-0.5 -50.167 -0.5 -73.5
c0 -72 3.33301 -152.333 10 -241l56 -2c-4 -16 -6 -33.667 -6 -53c0 -20.667 2 -42 6 -64h-15c-18.667 23.333 -46.334 37.666 -83.001 42.999s-99.334 8 -188.001 8h-40h-114z" />
    <glyph glyph-name="afii10044" unicode="&#x42a;" horiz-adv-x="593" 
d="M261 330l-3.00098 -119.999v-84c0 -30.667 -0.333008 -54 -1 -70c30 1.33301 52 3.66602 66 6.99902c56.667 16 85 60.667 85 134c0 54 -15 93 -45 117c-11.333 9.33301 -27.666 14.833 -48.999 16.5s-39 1.5 -53 -0.5zM111.999 606.001
c-42.667 -4 -74.333 -7.33203 -95 -9.99902c5.33301 20 6.33301 45.333 3 76c0 0.666992 -0.166992 1.66699 -0.5 3s-0.5 2.5 -0.5 3.5s-0.166992 2 -0.5 3s-0.833008 1.83301 -1.5 2.5c10.667 0 27.167 -0.833008 49.5 -2.5s39.5 -2.83398 51.5 -3.50098
c46.667 -1.33301 97.667 0.666992 153 6c-0.666992 -16 -2 -44.333 -4 -85s-3.33301 -72 -4 -94c0 -28.667 -0.166992 -53.5 -0.5 -74.5s-0.5 -35.833 -0.5 -44.5c26.667 1.33301 47 2 61 2c50 0 86 -2.33301 108 -7c41.333 -9.33301 74.333 -28.833 99 -58.5
s37 -65.5 37 -107.5c0 -62 -17.667 -111 -53 -147c-43.333 -45.333 -104 -68 -182 -68c-16 0 -38.667 0.5 -68 1.5s-52.333 1.5 -69 1.5l-87 -3c1.33301 12 3 58 5 138c2 92 3 183.667 3 275c0 62 -1.33301 126.333 -4 193z" />
    <glyph glyph-name="afii10045" unicode="&#x42b;" horiz-adv-x="851" 
d="M783 684c-4 -58.667 -6.33691 -102.998 -7.00391 -132.998c-4 -130 -6 -195.333 -6 -196c0 -20.667 0.333008 -42.5 1 -65.5s1.5 -48.5 2.5 -76.5s1.83301 -49.667 2.5 -65c0.666992 -18.667 1.83398 -45.334 3.50098 -80.001s2.83398 -57.334 3.50098 -68.001
c-43.333 3.33301 -69.666 5 -78.999 5c-26.667 0 -56 -1.66699 -88 -5c8.66699 106 13 228.333 13 367v54c0 28.667 -0.666992 71.667 -2 129c-1.33301 49.333 -3.66602 94 -6.99902 134c44.667 -3.33301 71.667 -5 81 -5c10 0 37.333 1.66699 82 5zM229.996 386.002
c26.667 1.33301 47 2 61 2c50 0 86 -2.33301 108 -7c41.333 -9.33301 74.333 -28.833 99 -58.5s37 -65.5 37 -107.5c0 -62 -17.667 -111 -53 -147c-43.333 -45.333 -104 -68 -182 -68c-16 0 -38.667 0.5 -68 1.5s-52.333 1.5 -69 1.5l-87 -3c1.33301 12 3 58 5 138
c2 92 3 183.667 3 275c0 74.667 -2.33301 158.667 -7 252l-1 19c45.333 -3.33301 72.333 -5 81 -5c10 0 37.333 1.66699 82 5c-0.666992 -16 -2 -44.333 -4 -85s-3.33301 -72 -4 -94c0 -28.667 -0.166992 -53.5 -0.5 -74.5s-0.5 -35.833 -0.5 -44.5zM228.996 330.002
l-3.00098 -119.999v-84c0 -30.667 -0.333008 -54 -1 -70c30 1.33301 52 3.66602 66 6.99902c56.667 16 85 60.667 85 134c0 54 -15 93 -45 117c-11.333 9.33301 -27.666 14.833 -48.999 16.5s-39 1.5 -53 -0.5z" />
    <glyph glyph-name="afii10046" unicode="&#x42c;" 
d="M230 386c26.667 1.33301 47 2 61 2c50 0 86 -2.33301 108 -7c41.333 -9.33301 74.333 -28.833 99 -58.5s37 -65.5 37 -107.5c0 -62 -17.667 -111 -53 -147c-43.333 -45.333 -104 -68 -182 -68c-16 0 -38.667 0.5 -68 1.5s-52.333 1.5 -69 1.5l-87 -3
c1.33301 12 3 58 5 138c2 92 3 183.667 3 275c0 74.667 -2.33301 158.667 -7 252l-1 19c45.333 -3.33301 72.333 -5 81 -5c10 0 37.333 1.66699 82 5c-0.666992 -16 -2 -44.333 -4 -85s-3.33301 -72 -4 -94c0 -28.667 -0.166992 -53.5 -0.5 -74.5s-0.5 -35.833 -0.5 -44.5z
M229 330l-3.00098 -119.999v-84c0 -30.667 -0.333008 -54 -1 -70c30 1.33301 52 3.66602 66 6.99902c56.667 16 85 60.667 85 134c0 54 -15 93 -45 117c-11.333 9.33301 -27.666 14.833 -48.999 16.5s-39 1.5 -53 -0.5z" />
    <glyph glyph-name="afii10047" unicode="&#x42d;" horiz-adv-x="667" 
d="M634 362c0 -123.333 -38.3311 -218.999 -114.998 -286.999c-70 -62 -160.667 -93 -272 -93c-70.667 0 -136.667 16.333 -198 49l-11 80l13 6c23.333 -22 51.666 -40 84.999 -54s65.666 -21 96.999 -21c38.667 0 73 8 103 24s54 37.667 72 65s32 57.333 42 90
s15.667 67.334 17 104.001v0v0v0h-1v0v0h-1v0h-1v0h-1v0h-1h-1h-1h-1h-1h-1h-1h-1h-1h-1h-1h-1h-1h-1h-1h-1h-1h-1h-1h-1h-1h-1h-1h-1h-1h-1h-1h-1h-1h-1h-1h-1h-1h-1h-1h-1h-1h-1h-1h-1h-1h-1h-1h-1h-1h-2h-1h-1h-1h-1h-1h-2h-1h-1h-1h-1h-2h-1h-1h-1h-2h-1h-1h-1h-2h-1h-1
h-2h-1h-1h-2h-1h-1h-2h-1h-1h-2h-1h-2h-1h-1h-2h-1h-2h-1h-2h-1h-1h-2h-1h-2h-1h-2h-1h-2h-1h-2h-1h-2h-1h-2h-2h-1h-2h-1h-2h-1h-2h-2h-1h-2h-1h-2h-2h-1h-2h-1h-2h-2h-1h-2h-2h-1h-2h-2h-1h-2h-2h-2h-1h-2h-2h-2h-1h-2h-2h-1h-2h-2h-2h-2h-1h-2h-2h-2h-2h-1h-2h-2h-2h-2
h-1h-2h-2h-2h-2h-8c-36.667 0 -67.667 -2.33301 -93 -7c3.33301 15.333 5 29.333 5 42c0 13.333 -1.66699 26.666 -5 39.999c32.667 -4.66699 63.667 -7 93 -7h226c-6.66699 66.667 -26 120.667 -58 162c-42.667 56 -99 84 -169 84c-36 0 -69.333 -8.33301 -100 -25
s-54 -39 -70 -67h-14c-2 32.667 -6 68.667 -12 108c58.667 29.333 126.667 44 204 44c48 0 93 -5.66699 135 -17c42 -10.667 80 -27.334 114 -50.001c32 -21.333 58 -46 78 -74c40 -54.667 60 -120 60 -196z" />
    <glyph glyph-name="afii10048" unicode="&#x42e;" horiz-adv-x="1054" 
d="M650 41c70 0 124.666 38.332 163.999 114.999c26 54 39 122.667 39 206c0 34 -3.66699 66.833 -11 98.5s-18.333 61.167 -33 88.5s-34.667 49.333 -60 66s-54.333 25 -87 25c-41.333 0 -75.333 -11.333 -102 -34c-28 -22 -49.333 -49.667 -64 -83
c-24 -54 -36 -125 -36 -213c0 -46 6.16699 -88.667 18.5 -128s33.333 -72.666 63 -99.999s65.834 -41 108.501 -41zM295.999 328.999c-27.333 1.33301 -50.668 1.66504 -70.001 0.998047v-121c0 -58 2.33301 -127.667 7 -209c-43.333 3.33301 -69.666 5 -78.999 5
c-10 0 -39.333 -1.66699 -88 -5c8.66699 106 13 228.333 13 367c0 132.667 -3 238.334 -9 317.001c45.333 -3.33301 72.333 -5 81 -5c10 0 37.333 1.66699 82 5c-0.666992 -15.333 -2 -38.5 -4 -69.5s-3 -54.167 -3 -69.5v-43c0 -10 -0.166992 -25.167 -0.5 -45.5
s-0.5 -35.833 -0.5 -46.5c22 -2 47 -2.33301 75 -1c14.667 80.667 50.334 146.334 107.001 197.001c68.667 61.333 155.667 92 261 92c88 0 161.333 -22.333 220 -67c49.333 -36 83.666 -79.333 102.999 -130c18.667 -46.667 28 -99.334 28 -158.001
c0 -51.333 -9.66699 -100.5 -29 -147.5s-47 -86.833 -83 -119.5c-69.333 -62.667 -156.666 -94 -261.999 -94c-48.667 0 -95.834 8.33301 -141.501 25s-84.5 41.334 -116.5 74.001c-58.667 60 -89 142.667 -91 248z" />
    <glyph glyph-name="afii10049" unicode="&#x42f;" horiz-adv-x="611" 
d="M543 0c-44.667 3.33301 -71.667 5.00098 -81 5.00098s-36.333 -1.66699 -81 -5c0.666992 8 1.83398 24.167 3.50098 48.5s2.83398 43.166 3.50098 56.499c0 12 0.333008 21 1 27c0 20 0.333008 49.667 1 89s1 69 1 89c-8.66699 1.33301 -16 1.33301 -22 0
c-49.333 -79.333 -104.666 -182.666 -165.999 -309.999c-33.333 3.33301 -63.333 5 -90 5c-10.667 0 -41 -1.66699 -91 -5l36 57l55 84.5l63.5 99.5l52.5 87c-44.667 10 -80.834 30.667 -108.501 62s-41.5 70.666 -41.5 117.999c0 61.333 30.333 109 91 143
c42 22.667 94.667 34 158 34c14 0 37.167 -0.666992 69.5 -2s57.166 -1.66602 74.499 -0.999023l69 2c-4.66699 -86.667 -7 -160.334 -7 -221.001c0 -20 -0.166992 -50.167 -0.5 -90.5s-0.5 -70.5 -0.5 -90.5c0 -88 1.66699 -153.667 5 -197
c1.33301 -14.667 2.66602 -36.667 3.99902 -66zM391 627.001c-104 10 -156.001 -37.667 -156.001 -143c0 -16 1.66699 -32.667 5 -50c2 -8 4.33301 -15.333 7 -22s6.33398 -12.5 11.001 -17.5l12 -13c3.33301 -3.66699 8.83301 -6.66699 16.5 -9s13.334 -4.33301 17.001 -6
s10.5 -3 20.5 -4s16.833 -1.66699 20.5 -2s11.167 -0.833008 22.5 -1.5s18.666 -1 21.999 -1v119c0 8.66699 0.166992 21.667 0.5 39s0.5 30.333 0.5 39c0 32 0.333008 56 1 72z" />
    <glyph glyph-name="afii10065" unicode="&#x430;" horiz-adv-x="500" 
d="M205 214c-21.333 -17.333 -32.001 -44.667 -32.001 -82c0 -50.667 18.333 -76 55 -76c49.333 0 74 35 74 105c0 42.667 0.666992 74.667 2 96c-14 -6.66699 -27.333 -12.334 -40 -17.001c-3.33301 -1.33301 -9.66602 -3.66602 -18.999 -6.99902s-17 -6.33301 -23 -9
s-11.667 -6 -17 -10zM86.999 360.999l-7.00977 0.00195312l-13 60c22.667 20.667 51 37 85 49s67.333 18 100 18c48.667 0 91.334 -11 128.001 -33s55.334 -55.667 56.001 -101c0 -7.33301 0.166992 -18.5 0.5 -33.5s0.5 -26.167 0.5 -33.5c0 -16 -0.5 -40.167 -1.5 -72.5
s-1.5 -56.833 -1.5 -73.5c0 -25.333 0.333008 -44.333 1 -57c0.666992 -7.33301 3.33398 -15.5 8.00098 -24.5s10 -14.833 16 -17.5c6.66699 -2 12.834 -3 18.501 -3s9.33398 0.166992 11.001 0.5s2.83398 -0.333984 3.50098 -2.00098s1 -5.83398 1 -12.501v-10
c-6 -3.33301 -22 -10 -48 -20c-18.667 -4 -32.667 -6 -42 -6c-23.333 0 -43.666 6.33301 -60.999 19s-30 30 -38 52c-12.667 -22 -30.667 -39.5 -54 -52.5s-48 -19.5 -74 -19.5c-42.667 0 -77.167 11.333 -103.5 34s-39.5 55 -39.5 97c0 22.667 5.33301 44 16 64
s25.334 35.333 44.001 46c22.667 13.333 63.667 27.333 123 42c34.667 8 59 16.667 73 26c8.66699 7.33301 13 20 13 38c0 23.333 -9.5 43 -28.5 59s-40.5 24 -64.5 24c-39.333 0 -76.333 -15 -111 -45c-1.33301 -1.33301 -3.16602 -3.33301 -5.49902 -6
s-4.16602 -4.66699 -5.49902 -6z" />
    <glyph glyph-name="afii10066" unicode="&#x431;" 
d="M284 448c-30.667 0 -53.668 -14.5029 -69.001 -43.5029s-24.666 -61.833 -27.999 -98.5c-2.66699 -33.333 -4 -58.666 -4 -75.999c0 -133.333 31.333 -200 94 -200c18 0 33.167 5.66699 45.5 17s21 23.166 26 35.499s9.83301 28.166 14.5 47.499
c8.66699 36.667 13 81.667 13 135c0 10.667 -1.33301 27.334 -4 50.001c-1.33301 14.667 -3.5 28.834 -6.5 42.501s-7.66699 27.834 -14 42.501s-15.333 26.334 -27 35.001s-25.167 13 -40.5 13zM454.999 754.997c0 -52.667 5.33496 -90.666 16.002 -113.999
c-9.33301 -8.66699 -28.5 -17.167 -57.5 -25.5l-92.5 -27c-32.667 -9.66699 -65.334 -21.834 -98.001 -36.501s-60.834 -35.667 -84.501 -63s-38.167 -59.666 -43.5 -96.999c22 30.667 50.333 54.834 85 72.501s67.334 26.5 98.001 26.5c34 0 67.833 -5.5 101.5 -16.5
s60.5 -27.5 80.5 -49.5c42.667 -46.667 64 -105.334 64 -176.001c0 -78 -22 -141.333 -66 -190s-104.333 -73 -181 -73c-74 0 -133 21.667 -177 65s-66 102 -66 176c0 50 1.5 94.333 4.5 133s9.83301 73.667 20.5 105s20.167 57.833 28.5 79.5s23.666 42.167 45.999 61.5
s41 34.666 56 45.999s40 24 75 38s63.5 24.667 85.5 32s57 18.333 105 33z" />
    <glyph glyph-name="afii10067" unicode="&#x432;" horiz-adv-x="500" 
d="M325 137c0 65.333 -44.333 95.333 -133 90v-91l4 -84h37c23.333 0 44.5 7.83301 63.5 23.5s28.5 36.167 28.5 61.5zM307 359c0 22 -6.66895 39 -20.002 51s-31.333 18 -54 18c-6 0 -18.333 -0.666992 -37 -2c-2.66699 -28.667 -4 -52 -4 -70v-78h14.5h16
c2.33301 0 6.83301 0.333008 13.5 1s11.834 1.5 15.501 2.5s7.83398 2.5 12.501 4.5s9 4.66699 13 8c20 15.333 30 37 30 65zM169.998 3c-50.667 0 -89.999 -1.00098 -117.999 -3.00098l3 66l3 96c0 11.333 0.333008 27.333 1 48s1.16699 39.334 1.5 56.001
s0.5 32.667 0.5 48l-6 165c6 0 23.667 -0.833008 53 -2.5s52.666 -2.16699 69.999 -1.5c9.33301 0 25 0.833008 47 2.5s39.333 2.5 52 2.5c45.333 0 84.5 -8.5 117.5 -25.5s49.5 -44.167 49.5 -81.5c0 -32 -11.5 -57.667 -34.5 -77s-52.167 -31 -87.5 -35v-7
c22 -1.33301 42.833 -5.16602 62.5 -11.499s38.167 -18.5 55.5 -36.5s26 -40.667 26 -68c0 -44.667 -20.5 -78.834 -61.5 -102.501s-88.167 -35.5 -141.5 -35.5c-12 0 -27.5 0.5 -46.5 1.5s-34.5 1.5 -46.5 1.5z" />
    <glyph glyph-name="afii10068" unicode="&#x433;" horiz-adv-x="370" 
d="M364 479c-3.33301 -12 -5.00488 -23 -5.00488 -33c0 -12 1.66699 -23.667 5 -35c-53.333 6.66699 -99.666 10 -138.999 10h-27c-0.666992 -8 -1.16699 -19.667 -1.5 -35s-0.5 -27.333 -0.5 -36c-1.33301 -5.33301 -1.66602 -39 -0.999023 -101l1 -93
c0 -64.667 2.66699 -116.667 8 -156c-45.333 3.33301 -72.666 5 -81.999 5c-8.66699 0 -21 -0.833008 -37 -2.5s-27.333 -2.5 -34 -2.5l3 66c0.666992 10.667 1.33398 26.667 2.00098 48s1.33398 37.333 2.00098 48c0.666992 34 1 84.667 1 152l-6 165c60 -4 109 -6 147 -6
c68 0 122.667 2 164 6z" />
    <glyph glyph-name="afii10069" unicode="&#x434;" horiz-adv-x="500" 
d="M495 -39h-9.99902c-12.667 14 -32 24.5 -58 31.5s-49 11 -69 12s-49.667 1.5 -89 1.5h-19h-19c-38.667 0 -68.167 -0.5 -88.5 -1.5s-43.5 -5 -69.5 -12s-45.667 -17.5 -59 -31.5h-9c3.33301 15.333 5 33.333 5 54c0 15.333 -1.66699 29.666 -5 42.999h37
c66 140.667 126.333 282 181 424c10 -2 21.333 -3 34 -3c11.333 0 22.666 1 33.999 3c50.667 -138 107 -279.333 169 -424h35c-3.33301 -13.333 -5 -27.666 -5 -42.999c0 -20 1.66699 -38 5 -54zM311.001 62c-18.667 61.333 -49.667 146.333 -93 255
c-39.333 -90 -73 -175 -101 -255c49.333 -2.66699 89 -4 119 -4c32 0 57 1.33301 75 4z" />
    <glyph glyph-name="afii10070" unicode="&#x435;" horiz-adv-x="500" 
d="M181 286h154.999c-0.666992 2.66699 -1 6.5 -1 11.5s-0.333008 8.83301 -1 11.5c-2 93.333 -25 140 -69 140c-14 0 -26.167 -4.33301 -36.5 -13s-18.166 -18 -23.499 -28s-9.83301 -24.167 -13.5 -42.5s-6 -32 -7 -41s-2.16699 -21.833 -3.5 -38.5zM468.999 238
l-287.999 0.000976562c1.33301 -25.333 2.66602 -44.333 3.99902 -57c1.33301 -14.667 7 -32.334 17 -53.001s20.333 -35.667 31 -45c23.333 -20.667 53 -31 89 -31c42 0 81 15 117 45l12 -9l-22 -56c-42.667 -30 -90.334 -45 -143.001 -45
c-42.667 0 -79.167 5.5 -109.5 16.5s-58.166 30.833 -83.499 59.5c-38.667 42.667 -58 105 -58 187c0 71.333 20.333 129.5 61 174.5s96.667 67.5 168 67.5c74.667 0 129 -23.333 163 -70s48 -108 42 -184z" />
    <glyph glyph-name="afii10072" unicode="&#x436;" horiz-adv-x="741" 
d="M371 5c-10 0 -22.8301 -0.833008 -38.4971 -2.5s-26.167 -2.5 -31.5 -2.5c0 7.33301 0.833008 20.333 2.5 39s2.5 33.334 2.5 44.001c0 7.33301 0.166992 17.666 0.5 30.999s0.5 23.666 0.5 30.999c0 5.33301 -0.166992 13.833 -0.5 25.5s-0.5 20.5 -0.5 26.5
c-2 16 -3 24.667 -3 26c-8 -1.33301 -17.667 -10.666 -29 -27.999c-22.667 -34.667 -40.667 -63.334 -54 -86.001c-8 -13.333 -19.333 -33.333 -34 -60c-2.66699 -5.33301 -7 -13.5 -13 -24.5s-10.667 -19.167 -14 -24.5c-43.333 3.33301 -69.333 5 -78 5
s-34 -1.66699 -76 -5v8l98 161l80 128c-16.667 19.333 -44.334 47.666 -83.001 84.999s-66.667 66.666 -84 87.999v8c20 -1.33301 35 -2 45 -2c5.33301 0 21.333 0.666992 48 2c67.333 -85.333 128.666 -156.333 183.999 -213c4 -1.33301 7 -1 9 1c2 14 3 28 3 42
c0 80 -1.33301 137.333 -4 172c20 -3.33301 44.667 -5 74 -5c20.667 0 42.667 1.66699 66 5c-3.33301 -43.333 -5 -98.333 -5 -165c0 -18.667 1 -35 3 -49c2 -2 5 -2.33301 9 -1c55.333 56.667 116.666 127.667 183.999 213c26.667 -1.33301 42.667 -2 48 -2
c10 0 25 0.666992 45 2v-8c-17.333 -21.333 -45.333 -50.666 -84 -87.999s-66.334 -65.666 -83.001 -84.999l80 -128l98 -161v-8c-41.333 3.33301 -66.666 5 -75.999 5c-8.66699 0 -34.667 -1.66699 -78 -5c-2.66699 5.33301 -7 13.5 -13 24.5s-10.667 19.167 -14 24.5
c-14.667 26.667 -26 46.667 -34 60c-13.333 22.667 -31.333 51.334 -54 86.001c-11.333 17.333 -21 26.666 -29 27.999c0 -1.33301 -1 -10 -3 -26c0 -6 -0.166992 -14.833 -0.5 -26.5s-0.5 -20.167 -0.5 -25.5c0 -7.33301 0.166992 -17.666 0.5 -30.999
s0.5 -23.666 0.5 -30.999c0 -10.667 0.833008 -25.334 2.5 -44.001s2.5 -31.667 2.5 -39c-6 -0 -16.5 0.833008 -31.5 2.5s-27.5 2.5 -37.5 2.5z" />
    <glyph glyph-name="afii10073" unicode="&#x437;" horiz-adv-x="426" 
d="M391 129c0 -47.333 -19.3311 -82.9961 -57.998 -106.996s-84.667 -36 -138 -36c-70 0 -121.667 16 -155 48l-12 50l17 14c28 -34 66.667 -51 116 -51c32 0 56.333 8.5 73 25.5s25 37.167 25 60.5c0 24 -8 45 -24 63s-37.667 27 -65 27c-12 0 -26.667 -0.666992 -44 -2
c1.33301 19.333 1.33301 38 0 56c6 -0.666992 15.333 -1 28 -1c27.333 0 48.666 9 63.999 27s23 39.333 23 64c0 25.333 -6.16699 44.666 -18.5 57.999s-27.833 20 -46.5 20c-22 0 -42.5 -8.33301 -61.5 -25s-31.5 -39.334 -37.5 -68.001h-26l-17 104
c42 22 97.333 33 166 33c50.667 0 93 -8.83301 127 -26.5s51 -45.834 51 -84.501c0 -34 -11.5 -61.333 -34.5 -82s-52.167 -33 -87.5 -37v-7c35.333 -2.66699 66.666 -13.334 93.999 -32.001s41 -49 41 -91z" />
    <glyph glyph-name="afii10074" unicode="&#x438;" 
d="M51 0l3 66.001c0 9.33301 0.5 24.333 1.5 45l2.5 51c2 59.333 3 110 3 152l-6 165l9 -1c24 -2 48 -3 72 -3c15.333 0 39 1.33301 71 4c-3.33301 -52.667 -5.66602 -95.667 -6.99902 -129c-2.66699 -56.667 -4 -111.334 -4 -164.001c80.667 89.333 159 187 235 293
c29.333 -2 55.666 -2 78.999 0l-7 -129c-2.66699 -42.667 -4 -107.334 -4 -194.001c0 -64.667 2.66699 -116.667 8 -156c-45.333 3.33301 -72.666 5 -81.999 5c-8.66699 0 -21 -0.833008 -37 -2.5s-27.333 -2.5 -34 -2.5l3 66c0 9.33301 0.5 24.333 1.5 45l2.5 51l1 135
c-85.333 -91.333 -164.333 -191 -237 -299c-34.667 2.66699 -59.334 3.33398 -74.001 2.00098z" />
    <glyph glyph-name="afii10075" unicode="&#x439;" 
d="M438 630c-13.333 -31.333 -33.667 -56.667 -61 -76s-60.333 -29 -99 -29c-76 0 -129.333 35 -160 105l32 17c28 -42 71 -63 129 -63c58.667 0 101 21 127 63zM50.999 -0.000976562l3 66.001c0 9.33301 0.5 24.333 1.5 45l2.5 51c2 59.333 3 110 3 152l-6 165l9 -1
c24 -2 48 -3 72 -3c15.333 0 39 1.33301 71 4c-3.33301 -52.667 -5.66602 -95.667 -6.99902 -129c-2.66699 -56.667 -4 -111.334 -4 -164.001c80.667 89.333 159 187 235 293c29.333 -2 55.666 -2 78.999 0l-7 -129c-2.66699 -42.667 -4 -107.334 -4 -194.001
c0 -64.667 2.66699 -116.667 8 -156c-45.333 3.33301 -72.666 5 -81.999 5c-8.66699 0 -21 -0.833008 -37 -2.5s-27.333 -2.5 -34 -2.5l3 66c0 9.33301 0.5 24.333 1.5 45l2.5 51l1 135c-85.333 -91.333 -164.333 -191 -237 -299
c-34.667 2.66699 -59.334 3.33398 -74.001 2.00098z" />
    <glyph glyph-name="afii10076" unicode="&#x43a;" horiz-adv-x="500" 
d="M316 297l80.002 -128.003l98 -161v-8c-41.333 3.33301 -66.666 5 -75.999 5c-8.66699 0 -34.667 -1.66699 -78 -5c-3.33301 5.33301 -8 13.5 -14 24.5s-10.333 19.167 -13 24.5c-14.667 26.667 -26 46.667 -34 60c-13.333 22.667 -31.333 51.334 -54 86.001
c-11.333 17.333 -21 26.666 -29 27.999c0 -1.33301 -1 -10 -3 -26c0 -6 -0.166992 -14.833 -0.5 -26.5s-0.5 -20.167 -0.5 -25.5c0 -7.33301 0.166992 -17.666 0.5 -30.999s0.5 -23.666 0.5 -30.999c0 -10.667 0.833008 -25.334 2.5 -44.001s2.5 -31.667 2.5 -39
c-6.66699 0 -18.167 0.833008 -34.5 2.5s-28.833 2.5 -37.5 2.5s-21.167 -0.833008 -37.5 -2.5s-27.833 -2.5 -34.5 -2.5v25c3.33301 47.333 5.66602 100.333 6.99902 159c1.33301 86.667 1.33301 147 0 181c-2.66699 48 -5 86.333 -7 115c22 -3.33301 48.333 -5 79 -5
c22 0 45.667 1.66699 71 5c-6.66699 -73.333 -10 -128.333 -10 -165c0 -18.667 1 -35 3 -49c2 -2 5 -2.33301 9 -1c55.333 56.667 116.666 127.667 183.999 213c26.667 -1.33301 42.667 -2 48 -2c10 0 25 0.666992 45 2v-8c-17.333 -21.333 -45.333 -50.666 -84 -87.999
s-66.334 -65.666 -83.001 -84.999z" />
    <glyph glyph-name="afii10077" unicode="&#x43b;" horiz-adv-x="481" 
d="M476 0c-6.66699 0 -18.8311 0.833984 -36.498 2.50098s-31.167 2.5 -40.5 2.5c-10 0 -23.5 -0.833008 -40.5 -2.5s-28.833 -2.5 -35.5 -2.5c-19.333 66 -57.333 171.667 -114 317c-48.667 -102.667 -89.334 -208.334 -122.001 -317.001
c-0.666992 0 -6.33398 0.5 -17.001 1.5s-18.667 1.5 -24 1.5l-39 -3c88.667 192.667 157.667 353.334 207 482.001c18 -3.33301 29.333 -5 34 -5c4 0 15.333 1.66699 34 5c57.333 -152.667 122 -313.334 194 -482.001z" />
    <glyph glyph-name="afii10078" unicode="&#x43c;" horiz-adv-x="647" 
d="M629 0c-4.66699 0 -16.167 0.835938 -34.5 2.50293s-31.833 2.5 -40.5 2.5c-12.667 0 -37.334 -1.66699 -74.001 -5c-0.666992 46.667 -9.33398 144 -26.001 292c-54 -90.667 -104.667 -188.334 -152 -293.001c-14 1.33301 -24.333 1.33301 -31 0
c-47.333 102 -97.666 198.333 -150.999 289c-18.667 -114.667 -27.334 -210.334 -26.001 -287.001c-26 2 -39.333 3 -40 3c-10.667 0 -23 -1 -37 -3c26 138 52.667 297.333 80 478c13.333 -2.66699 24 -4 32 -4c10.667 0 22 1.33301 34 4l71.5 -137l92.5 -174
c60.667 104 116.334 207.667 167.001 311c10 -2.66699 20.667 -4 32 -4c8.66699 0 20.334 1.33301 35.001 4c20 -172.667 42.667 -332.334 68 -479.001z" />
    <glyph glyph-name="afii10079" unicode="&#x43d;" 
d="M196 280c30 -2 56.9951 -3.00098 80.9951 -3.00098s52 1 84 3v34l-6 165l9 -1c24 -2 48 -3 72 -3c15.333 0 39 1.33301 71 4l-7 -129c-2.66699 -42.667 -4 -107.334 -4 -194.001c0 -64.667 2.66699 -116.667 8 -156c-45.333 3.33301 -72.666 5 -81.999 5
c-8.66699 0 -21 -0.833008 -37 -2.5s-27.333 -2.5 -34 -2.5l3 66c0.666992 10.667 1.33398 26.667 2.00098 48s1.33398 37.333 2.00098 48c0 6.66699 0.166992 16.334 0.5 29.001s0.5 22 0.5 28c-31.333 2 -58.333 3 -81 3s-50 -1 -82 -3v-63
c0 -64.667 2.66699 -116.667 8 -156c-45.333 3.33301 -72.666 5 -81.999 5c-8.66699 0 -21 -0.833008 -37 -2.5s-27.333 -2.5 -34 -2.5l3 66c0.666992 10.667 1.33398 26.667 2.00098 48s1.33398 37.333 2.00098 48c0 11.333 0.333008 27.333 1 48
s1.16699 39.334 1.5 56.001s0.5 32.667 0.5 48l-6 165l9 -1c24 -2 48 -3 72 -3c15.333 0 39 1.33301 71 4l-8 -129c-0.666992 -8 -1.33398 -19.667 -2.00098 -35s-1 -27 -1 -35z" />
    <glyph glyph-name="afii10080" unicode="&#x43e;" 
d="M274 -14c-74 0 -133.001 21.668 -177.001 65.001s-66 102 -66 176c0 78 22.333 141.333 67 190c20.667 22.667 47.334 40.667 80.001 54s65 20 97 20c34 0 67.833 -5.5 101.5 -16.5s60.5 -27.5 80.5 -49.5c42.667 -46.667 64 -105.334 64 -176.001
c0 -78 -22 -141.333 -66 -190s-104.333 -73 -181 -73zM280.999 448.001c-30.667 0 -53.668 -14.5029 -69.001 -43.5029s-24.666 -61.833 -27.999 -98.5c-2.66699 -33.333 -4 -58.666 -4 -75.999c0 -133.333 31.333 -200 94 -200c18 0 33.167 5.66699 45.5 17
s21 23.166 26 35.499s9.83301 28.166 14.5 47.499c8.66699 36.667 13 81.667 13 135c0 10.667 -1.33301 27.334 -4 50.001c-1.33301 14.667 -3.5 28.834 -6.5 42.501s-7.66699 27.834 -14 42.501s-15.333 26.334 -27 35.001s-25.167 13 -40.5 13z" />
    <glyph glyph-name="afii10081" unicode="&#x43f;" 
d="M509 479l-9.00488 -129c-2.66699 -42.667 -4 -107.334 -4 -194.001c0 -64.667 2.66699 -116.667 8 -156c-45.333 3.33301 -72.666 5 -81.999 5c-8.66699 0 -21 -0.833008 -37 -2.5s-27.333 -2.5 -34 -2.5l3 66c0.666992 10.667 1.33398 26.667 2.00098 48
s1.33398 37.333 2.00098 48c0 11.333 0.333008 27.333 1 48s1.16699 39.334 1.5 56.001s0.5 32.667 0.5 48c0 14 -0.5 33 -1.5 57s-1.5 38 -1.5 42c-57.333 4 -109 4 -155 0l-4 -63c-2 -32 -3 -96.667 -3 -194c0 -64.667 2.66699 -116.667 8 -156
c-45.333 3.33301 -72.666 5 -81.999 5c-8.66699 0 -21 -0.833008 -37 -2.5s-27.333 -2.5 -34 -2.5l3 66c0.666992 10.667 1.33398 26.667 2.00098 48s1.33398 37.333 2.00098 48c0 11.333 0.333008 27.333 1 48s1.16699 39.334 1.5 56.001s0.5 32.667 0.5 48l-6 165
c106 -4.66699 181 -7 225 -7c43.333 -0.666992 119.666 1.66602 228.999 6.99902z" />
    <glyph glyph-name="afii10082" unicode="&#x440;" 
d="M282 54c20 0 36 6.83398 48 20.501s22.333 32.167 31 55.5c9.33301 24.667 14 60.667 14 108c0 46 -4 85 -12 117c-5.33301 19.333 -14.666 36.666 -27.999 51.999s-29 23 -47 23c-20.667 0 -37.834 -7 -51.501 -21s-23.5 -32.333 -29.5 -55s-10.167 -43.5 -12.5 -62.5
s-3.5 -38.5 -3.5 -58.5c0 -119.333 30.333 -179 91 -179zM185 395.001c30 65.333 76.998 97.999 140.998 97.999c67.333 0 117 -23.167 149 -69.5s48 -104.5 48 -174.5c0 -42.667 -4.16699 -79.167 -12.5 -109.5s-24.5 -59.833 -48.5 -88.5
c-36.667 -41.333 -83 -62 -139 -62c-32 0 -58.667 6.66699 -80 20c-22 15.333 -38.333 32.666 -49 51.999c0 -18.667 0.666992 -73.667 2 -165c1.33301 -80 3 -131.667 5 -155c-22 2.66699 -47 4 -75 4s-53 -1.33301 -75 -4c6 89.333 9 208 9 356
c0 16.667 0.333008 42.334 1 77.001s1 60.334 1 77.001c0 21.333 -0.666992 54 -2 98c0 48.667 -1.33301 92 -4 130c30.667 -2.66699 53.334 -4 68.001 -4s37.334 1.33301 68.001 4c0 -8 -1.16699 -21.5 -3.5 -40.5s-3.5 -33.5 -3.5 -43.5z" />
    <glyph glyph-name="afii10083" unicode="&#x441;" horiz-adv-x="481" 
d="M467 444l-37.999 -103.001h-24c-4 28.667 -14.833 52.5 -32.5 71.5s-40.834 28.5 -69.501 28.5c-29.333 0 -53.5 -11.333 -72.5 -34s-31.667 -47.5 -38 -74.5s-9.5 -54.833 -9.5 -83.5c0 -62.667 11 -109.667 33 -141c25.333 -36.667 64 -55 116 -55
c18.667 0 37.667 4.33301 57 13s35 20 47 34l17 -14l-24 -59c-12.667 -11.333 -33 -20.5 -61 -27.5s-52.667 -10.5 -74 -10.5c-84.667 0 -148 21 -190 63c-48 48.667 -72 108.334 -72 179.001c0 78.667 24.167 141.5 72.5 188.5s111.833 70.5 190.5 70.5
c68 0 125.333 -15.333 172 -46z" />
    <glyph glyph-name="afii10084" unicode="&#x442;" horiz-adv-x="425" 
d="M143 421c-42 0 -88.001 -3.33301 -138.001 -10c3.33301 10 5 21.667 5 35c0 10 -1.66699 21 -5 33c84 -4.66699 154.333 -7 211 -7c55.333 0 123.333 2.33301 204 7c-3.33301 -12 -5 -23 -5 -33c0 -12 1.66699 -23.667 5 -35c-52 6.66699 -97.667 10 -137 10l-1 -71
c-1.33301 -85.333 -2 -150 -2 -194c0 -64.667 2.66699 -116.667 8 -156c-45.333 3.33301 -72.666 5 -81.999 5c-8.66699 0 -21 -0.833008 -37 -2.5s-27.333 -2.5 -34 -2.5l3 66c0 9.33301 0.5 24.333 1.5 45l2.5 51c1.33301 39.333 2 90 2 152c0 47.333 -0.333008 83 -1 107
z" />
    <glyph glyph-name="afii10085" unicode="&#x443;" horiz-adv-x="481" 
d="M84 -257l126.999 255.998l-200 473l1 7c33.333 -2.66699 58.333 -4 75 -4c16 0 40.667 1.33301 74 4c32.667 -91.333 72.667 -194.666 120 -309.999l38 102c40 106 65.333 175.333 76 208c17.333 -2.66699 30.333 -4 39 -4s21.667 1.33301 39 4v-7l-97 -221
c-81.333 -185.333 -150.666 -354.666 -207.999 -507.999c-4 1.33301 -7.66699 2 -11 2c-16 4 -40.333 3.33301 -73 -2z" />
    <glyph glyph-name="afii10086" unicode="&#x444;" horiz-adv-x="834" 
d="M353 245c0 119.333 -28 179 -84 179c-58 -6.66699 -87 -68 -87 -184c0 -126 27 -189 81 -189c18.667 0 34.5 6.83301 47.5 20.5s22.333 31.667 28 54s9.5 42.833 11.5 61.5s3 38 3 58zM652 235c0 126 -27 189 -81 189c-18.667 0 -34.5 -6.83301 -47.5 -20.5
s-22.333 -31.667 -28 -54s-9.5 -42.833 -11.5 -61.5s-3 -38 -3 -58c0 -119.333 28 -179 84 -179c58 6.66699 87 68 87 184zM486 -104c1.33301 -80 3 -131.667 5 -155c-22 2.66699 -47 4 -75 4s-53 -1.33301 -75 -4c4 60 7 135.333 9 226v55.5c0 23 0.333008 40.5 1 52.5
c-25.333 -59.333 -67.666 -89 -126.999 -89c-64.667 0 -112.334 23 -143.001 69s-46 104 -46 174c0 84.667 18.5 149.167 55.5 193.5s82.5 66.5 136.5 66.5c53.333 0 94.666 -24 123.999 -72c0 94 -0.333008 152.667 -1 176c-1.33301 86 -3.33301 140 -6 162
c30.667 -4 55.334 -6 74.001 -6c17.333 0 41.333 2 72 6c-2.66699 -22 -4.66699 -74.667 -6 -158c-0.666992 -25.333 -1 -90.333 -1 -195c25.333 58 67.666 87 126.999 87c64.667 0 112.334 -23 143.001 -69s46 -104 46 -174c0 -84.667 -18.5 -149.167 -55.5 -193.5
s-82.5 -66.5 -136.5 -66.5c-54.667 0 -96 24 -124 72z" />
    <glyph glyph-name="afii10087" unicode="&#x445;" horiz-adv-x="500" 
d="M30 0l-0.00292969 7.99707l154 210c-52.667 92.667 -104 177.334 -154 254.001v7c36 -2.66699 63 -4 81 -4c31.333 0 58.333 1.66699 81 5c42.667 -79.333 71.334 -131.666 86.001 -156.999c38.667 55.333 73.334 107.333 104.001 156c1.33301 -0.666992 3.33301 -1 6 -1
s4.66699 -0.333008 6 -1c26 -3.33301 50 -2.66602 72 2.00098v-7c-42.667 -50.667 -95 -116.667 -157 -198l55 -94l52.5 -87l55.5 -93c-45.333 3.33301 -72.666 5 -81.999 5s-36.333 -1.66699 -81 -5l-93 169c-52.667 -80 -88.667 -136.333 -108 -169
c-21.333 3.33301 -34.333 5 -39 5c-4 0 -17 -1.66699 -39 -5z" />
    <glyph glyph-name="afii10088" unicode="&#x446;" 
d="M276 6c-91.333 0 -166.333 -2 -225 -6l3 66c0 9.33301 0.5 24.333 1.5 45l2.5 51c2 59.333 3 110 3 152l-6 165l9 -1c24 -2 48 -3 72 -3c15.333 0 39 1.33301 71 4l-8 -129c-2 -32 -3 -96.667 -3 -194c0 -43.333 0.666992 -75.666 2 -96.999
c59.333 -3.33301 111.333 -3.33301 156 0c2 42 3.33301 76.333 4 103c2 59.333 3 110 3 152l-6 165l9 -1c24 -2 48 -3 72 -3c15.333 0 39 1.33301 71 4l-7 -129c-2.66699 -42.667 -4 -107.334 -4 -194.001c0 -43.333 0.666992 -76 2 -98h53
c-3.33301 -13.333 -5 -27.666 -5 -42.999c0 -20 1.66699 -38 5 -54h-10c-4.66699 5.33301 -10.334 10.333 -17.001 15s-14.667 8.5 -24 11.5s-18.166 5.66699 -26.499 8s-18.833 4.16602 -31.5 5.49902s-23.167 2.33301 -31.5 3s-20 1.16699 -35 1.5s-26.167 0.5 -33.5 0.5
h-34.5h-31.5z" />
    <glyph glyph-name="afii10089" unicode="&#x447;" horiz-adv-x="519" 
d="M39 316c0 35.333 -1.33594 89.6689 -4.00293 163.002l9 -1c24 -2 48 -3 72 -3c15.333 0 39 1.33301 71 4c-5.33301 -50.667 -8.33301 -93 -9 -127l-1 -35c-0.666992 -22.667 5.33301 -39.334 18 -50.001s29 -16 49 -16c28.667 0 55.667 8.33301 81 25
c1.33301 4 2 16.667 2 38c0 36.667 -1.33301 91.667 -4 165l9 -1c24 -2 48 -3 72 -3c15.333 0 39 1.33301 71 4l-7 -129c-2.66699 -42.667 -4 -107.334 -4 -194.001c0 -64.667 2.66699 -116.667 8 -156c-45.333 3.33301 -72.666 5 -81.999 5
c-8.66699 0 -21 -0.833008 -37 -2.5s-27.333 -2.5 -34 -2.5l3 66c0.666992 10.667 1.33398 26.667 2.00098 48s1.33398 37.333 2.00098 48l-1 63c-44.667 -30 -92.667 -45 -144 -45c-40.667 0 -74.5 10.833 -101.5 32.5s-40.5 51.5 -40.5 89.5v14z" />
    <glyph glyph-name="afii10090" unicode="&#x448;" horiz-adv-x="722" 
d="M51 0l2.99707 65.999c1.33301 42.667 2.66602 74.667 3.99902 96c0 11.333 0.333008 27.333 1 48s1.16699 39.334 1.5 56.001s0.5 32.667 0.5 48l-6 165l9 -1c24 -2 47 -3 69 -3c15.333 0 39 1.33301 71 4l-7 -129c-0.666992 -10.667 -1 -75.334 -1 -194.001
c0 -42.667 0.666992 -74.667 2 -96h90v6c0.666992 10.667 1.33398 26.667 2.00098 48s1.33398 37.333 2.00098 48c0 11.333 0.333008 27.333 1 48s1.16699 39.334 1.5 56.001s0.5 32.667 0.5 48l-6 165l9 -1c24 -2 47 -3 69 -3c15.333 0 39 1.33301 71 4l-6 -129
c-1.33301 -21.333 -2 -86 -2 -194c0 -32 1 -64 3 -96h89v6c0.666992 10.667 1.33398 26.667 2.00098 48s1.33398 37.333 2.00098 48c0 11.333 0.333008 27.333 1 48s1.16699 39.334 1.5 56.001s0.5 32.667 0.5 48c0 16 -0.333008 33.167 -1 51.5s-1.5 38.833 -2.5 61.5
s-1.83301 40 -2.5 52l9 -1c24 -2 47.667 -3 71 -3c16 0 40 1.33301 72 4l-7 -129c-2.66699 -42.667 -4 -107.334 -4 -194.001c0 -64.667 2.66699 -116.667 8 -156c-97.333 4 -200.666 6 -309.999 6c-92.667 0.666992 -196.334 -1.33301 -311.001 -6z" />
    <glyph glyph-name="afii10091" unicode="&#x449;" horiz-adv-x="722" 
d="M362 6c-111.333 0 -215.003 -2.00293 -311.003 -6.00293l3 66c1.33301 42.667 2.66602 74.667 3.99902 96c0 11.333 0.333008 27.333 1 48s1.16699 39.334 1.5 56.001s0.5 32.667 0.5 48l-6 165l9 -1c24 -2 47 -3 69 -3c15.333 0 39 1.33301 71 4l-7 -129
c-0.666992 -10.667 -1 -75.334 -1 -194.001c0 -42.667 0.666992 -74.667 2 -96h90v6c0.666992 10.667 1.33398 26.667 2.00098 48s1.33398 37.333 2.00098 48c0 11.333 0.333008 27.333 1 48s1.16699 39.334 1.5 56.001s0.5 32.667 0.5 48l-6 165l9 -1c24 -2 47 -3 69 -3
c15.333 0 39 1.33301 71 4l-6 -129c-1.33301 -21.333 -2 -86 -2 -194c0 -32 1 -64 3 -96h89v6c0.666992 10.667 1.33398 26.667 2.00098 48s1.33398 37.333 2.00098 48c0 11.333 0.333008 27.333 1 48s1.16699 39.334 1.5 56.001s0.5 32.667 0.5 48
c0 16 -0.333008 33.167 -1 51.5s-1.5 38.833 -2.5 61.5s-1.83301 40 -2.5 52l9 -1c24 -2 47.667 -3 71 -3c16 0 40 1.33301 72 4l-7 -129c-5.33301 -114 -3.33301 -211.333 6 -292h43c-3.33301 -13.333 -5 -27.666 -5 -42.999c0 -20 1.66699 -38 5 -54h-10
c-12.667 14 -32 24.5 -58 31.5s-49 11 -69 12s-49.667 1.5 -89 1.5h-19h-110z" />
    <glyph glyph-name="afii10092" unicode="&#x44a;" horiz-adv-x="518" 
d="M343 144c0 50 -22 77.667 -66 83c-13.333 1.33301 -29.333 1.33301 -48 0c0 -5.33301 -0.333008 -18.833 -1 -40.5s-1 -39.167 -1 -52.5l2 -82c24 0.666992 41 2 51 4c42 10.667 63 40 63 88zM90 422c-16 0 -44.333 -3 -85 -9c3.33301 11.333 5 22.666 5 33.999
c0 10 -1.66699 21 -5 33c38 -2 69 -3.33301 93 -4c35.333 -0.666992 82.666 0.333008 141.999 3l-8 -129c0 -5.33301 -0.166992 -12.833 -0.5 -22.5s-0.666016 -18.667 -0.999023 -27s-0.833008 -16.166 -1.5 -23.499l82 1c57.333 0.666992 100.833 -9.33301 130.5 -30
s44.5 -51.334 44.5 -92.001c0 -58.667 -20 -99.834 -60 -123.501s-90.667 -34.5 -152 -32.5c-33.333 1.33301 -66.333 2 -99 2h-26.5c-9 0 -17.167 -0.166992 -24.5 -0.5s-14 -0.666016 -20 -0.999023s-10.667 -0.5 -14 -0.5h-5l3 66c0.666992 10.667 1.16699 26.667 1.5 48
s0.833008 37.333 1.5 48c0 11.333 0.333008 27.333 1 48s1.16699 39.334 1.5 56.001s0.5 32.667 0.5 48c0 24 -1.33301 60 -4 108z" />
    <glyph glyph-name="afii10093" unicode="&#x44b;" horiz-adv-x="722" 
d="M520 0l3.00195 66c0.666992 10.667 1.16699 26.667 1.5 48s0.833008 37.333 1.5 48c0 11.333 0.333008 27.333 1 48s1.16699 39.334 1.5 56.001s0.5 32.667 0.5 48c0 16 -0.333008 33.167 -1 51.5s-1.5 38.833 -2.5 61.5s-1.83301 40 -2.5 52l9 -1c24 -2 48 -3 72 -3
c15.333 0 39 1.33301 71 4l-7 -129c-2.66699 -42.667 -4 -107.334 -4 -194.001c0 -74 2 -126 6 -156c-45.333 3.33301 -72 5 -80 5c-8.66699 0 -20.834 -0.833008 -36.501 -2.5s-26.834 -2.5 -33.501 -2.5zM308.002 144c0 50 -22 77.667 -66 83
c-13.333 1.33301 -29.333 1.33301 -48 0c0 -5.33301 -0.333008 -18.833 -1 -40.5s-1 -39.167 -1 -52.5l2 -82c24 0.666992 41 2 51 4c42 10.667 63 40 63 88zM50.002 0l2.99902 65.998c0.666992 10.667 1.16699 26.667 1.5 48s0.833008 37.333 1.5 48
c0 11.333 0.333008 27.333 1 48s1.16699 39.334 1.5 56.001s0.5 32.667 0.5 48l-6 165l9 -1c24 -2 48 -3 72 -3c15.333 0 39 1.33301 71 4l-9 -129c0 -5.33301 -0.166992 -12.833 -0.5 -22.5s-0.666016 -18.667 -0.999023 -27s-0.833008 -16.166 -1.5 -23.499l83 1
c116.667 0 175 -40.667 175 -122c0 -58.667 -20 -99.834 -60 -123.501s-90.667 -34.5 -152 -32.5c-33.333 1.33301 -66.333 2 -99 2h-26.5c-9 0 -17.167 -0.166992 -24.5 -0.5s-14 -0.666016 -20 -0.999023s-10.667 -0.5 -14 -0.5h-5z" />
    <glyph glyph-name="afii10094" unicode="&#x44c;" horiz-adv-x="481" 
d="M308 144c0 50 -22 77.667 -66 83c-13.333 1.33301 -29.333 1.33301 -48 0c0 -5.33301 -0.333008 -18.833 -1 -40.5s-1 -39.167 -1 -52.5l2 -82c24 0.666992 41 2 51 4c42 10.667 63 40 63 88zM50 0l2.99902 65.998c0.666992 10.667 1.16699 26.667 1.5 48
s0.833008 37.333 1.5 48c0 11.333 0.333008 27.333 1 48s1.16699 39.334 1.5 56.001s0.5 32.667 0.5 48l-6 165l9 -1c24 -2 48 -3 72 -3c15.333 0 39 1.33301 71 4l-9 -129c0 -5.33301 -0.166992 -12.833 -0.5 -22.5s-0.666016 -18.667 -0.999023 -27
s-0.833008 -16.166 -1.5 -23.499l83 1c116.667 0 175 -40.667 175 -122c0 -58.667 -20 -99.834 -60 -123.501s-90.667 -34.5 -152 -32.5c-33.333 1.33301 -66.333 2 -99 2h-26.5c-9 0 -17.167 -0.166992 -24.5 -0.5s-14 -0.666016 -20 -0.999023s-10.667 -0.5 -14 -0.5h-5z
" />
    <glyph glyph-name="afii10095" unicode="&#x44d;" horiz-adv-x="481" 
d="M449 247c0 -80 -23.999 -143.5 -71.999 -190.5s-111.667 -70.5 -191 -70.5c-63.333 0 -112 16 -146 48l-12 50l17 14c12 -14 27.667 -25.333 47 -34s38.666 -13 57.999 -13c94 0 144.333 57 151 171h-113c-20 0 -40.667 -1.66699 -62 -5c4 22 4 43.667 0 65
c22 -3.33301 42.667 -5 62 -5h112c-4 44.667 -16 83.834 -36 117.501s-48.333 50.5 -85 50.5c-26.667 0 -49 -8.83301 -67 -26.5s-29.667 -39.834 -35 -66.501h-26l-17 104c43.333 22 94.333 33 153 33c79.333 0 142.833 -21.167 190.5 -63.5s71.5 -101.833 71.5 -178.5z
" />
    <glyph glyph-name="afii10096" unicode="&#x44e;" horiz-adv-x="759" 
d="M500 448c-26 0 -45.667 -14.499 -59 -43.499s-21.666 -61.833 -24.999 -98.5c-2 -50 -3 -75.333 -3 -76c0 -133.333 27 -200 81 -200c16 0 29.5 5.66699 40.5 17s18.667 23.166 23 35.499s8.5 28.166 12.5 47.499c6.66699 38 10 83 10 135c0 16.667 -1 33.334 -3 50.001
c-6.66699 88.667 -32.334 133 -77.001 133zM264 221.001c-30 0 -52.667 -0.333008 -68 -1v-64c0 -64.667 2.66699 -116.667 8 -156c-45.333 3.33301 -72.666 5 -81.999 5c-8.66699 0 -21 -0.833008 -37 -2.5s-27.333 -2.5 -34 -2.5l3 66
c0.666992 10.667 1.33398 26.667 2.00098 48s1.33398 37.333 2.00098 48c0 11.333 0.333008 27.333 1 48s1.16699 39.334 1.5 56.001s0.5 32.667 0.5 48l-6 165l9 -1c24 -2 48 -3 72 -3c15.333 0 39 1.33301 71 4l-8 -129c-0.666992 -8 -1.33398 -19.667 -2.00098 -35
s-1 -27 -1 -35c27.333 -2 50.666 -2.33301 69.999 -1c8.66699 56 28.667 102 60 138c19.333 22.667 44.666 40.667 75.999 54s62 20 92 20c32 0 64 -5.5 96 -16.5s57.667 -27.5 77 -49.5c40.667 -46.667 61 -105.334 61 -176.001c0 -78 -20.833 -141.333 -62.5 -190
s-99.167 -73 -172.5 -73c-69.333 0 -124.5 21 -165.5 63s-62.167 99.333 -63.5 172z" />
    <glyph glyph-name="afii10097" unicode="&#x44f;" horiz-adv-x="500" 
d="M306 380c-0.666992 17.333 -2 32.333 -4 45h-21c-29.333 0 -53.333 -7.16699 -72 -21.5s-28 -34.5 -28 -60.5c0 -28.667 9.83301 -51.167 29.5 -67.5s43.167 -24.5 70.5 -24.5h25c2 52.667 2 95.667 0 129zM340 476c54.667 0 91.6729 0.99707 111.006 2.99707l-7 -129
c-2.66699 -56.667 -4 -121.334 -4 -194.001c0 -74 2 -126 6 -156c-44.667 3.33301 -71.334 5 -80.001 5s-20.834 -0.833008 -36.501 -2.5s-26.834 -2.5 -33.501 -2.5l5 66c3.33301 59.333 5 91.333 5 96s0.166992 11 0.5 19s0.5 14 0.5 18h-16l-17.5 -19.5
c-5.66699 -6.33301 -11.334 -13.666 -17.001 -21.999s-10.5 -15.166 -14.5 -20.499s-9 -13.166 -15 -23.499s-10.333 -17.333 -13 -21s-7.33398 -11.834 -14.001 -24.501l-11.5 -22c-1 -2 -5.33301 -10 -13 -24s-11.5 -21.333 -11.5 -22c-34.667 3.33301 -59 5 -73 5
c-11.333 0 -39.333 -1.66699 -84 -5v7c59.333 89.333 109.666 160 150.999 212c-31.333 9.33301 -58.166 24.333 -80.499 45s-33.5 48.334 -33.5 83.001c0 46 17.167 79.833 51.5 101.5s80.166 31.834 137.499 30.501c43.333 -2 79 -3 107 -3z" />
    <glyph glyph-name="afii10071" unicode="&#x451;" horiz-adv-x="500" 
d="M181 286h154.999c-0.666992 2.66699 -1 6.5 -1 11.5s-0.333008 8.83301 -1 11.5c-2 93.333 -25 140 -69 140c-14 0 -26.167 -4.33301 -36.5 -13s-18.166 -18 -23.499 -28s-9.83301 -24.167 -13.5 -42.5s-6 -32 -7 -41s-2.16699 -21.833 -3.5 -38.5zM468.999 238
l-287.999 0.000976562c1.33301 -25.333 2.66602 -44.333 3.99902 -57c1.33301 -14.667 7 -32.334 17 -53.001s20.333 -35.667 31 -45c23.333 -20.667 53 -31 89 -31c42 0 81 15 117 45l12 -9l-22 -56c-42.667 -30 -90.334 -45 -143.001 -45
c-42.667 0 -79.167 5.5 -109.5 16.5s-58.166 30.833 -83.499 59.5c-38.667 42.667 -58 105 -58 187c0 71.333 20.333 129.5 61 174.5s96.667 67.5 168 67.5c74.667 0 129 -23.333 163 -70s48 -108 42 -184zM356 684.001c16.667 0 31.5 -6.5 44.5 -19.5
s19.5 -28.167 19.5 -45.5s-6.33301 -32.5 -19 -45.5s-27.667 -19.5 -45 -19.5c-18 0 -33.333 6.5 -46 19.5s-19 28.167 -19 45.5s6.5 32.5 19.5 45.5s28.167 19.5 45.5 19.5zM145 554.001c-16 0 -30.333 6.66699 -43 20s-19 28.333 -19 45c0 17.333 6.16699 32.5 18.5 45.5
s26.833 19.5 43.5 19.5c17.333 0 32.5 -6.33301 45.5 -19s19.5 -28 19.5 -46s-6.33301 -33.333 -19 -46s-28 -19 -46 -19z" />
    <glyph glyph-name="afii10099" unicode="&#x452;" 
d="M361 244c0 46 -2.33203 79.666 -6.99902 100.999c-4.66699 16.667 -14 30.834 -28 42.501s-29.667 17.5 -47 17.5c-14 0 -26.333 -2.5 -37 -7.5s-19 -12.667 -25 -23s-10.833 -20.166 -14.5 -29.499s-6.16699 -22 -7.5 -38s-2.16602 -28.167 -2.49902 -36.5
s-0.5 -20.5 -0.5 -36.5v-9c0 -28 0.833008 -67.5 2.5 -118.5s2.5 -86.5 2.5 -106.5c-6.66699 0 -18.167 0.833008 -34.5 2.5s-28.833 2.5 -37.5 2.5s-21.167 -0.833008 -37.5 -2.5s-27.833 -2.5 -34.5 -2.5c0 1.33301 0.5 10.333 1.5 27s1.5 29 1.5 37l4 249
c0 12.667 0.166992 31.834 0.5 57.501s0.5 45.167 0.5 58.5c0 55.333 -0.333008 97 -1 125h-51c6 20 7 37 3 51h46c-0.666992 33.333 -2.33398 83.333 -5.00098 150c20 -3.33301 44.667 -5 74 -5c34 0 59.333 1.66699 76 5l-6 -150h151c-4 -21.333 -5.33301 -38.333 -4 -51
h-149l-1 -35l-2 -108c19.333 21.333 42.5 39.833 69.5 55.5s53.167 23.5 78.5 23.5c46 0 85 -15.667 117 -47c16.667 -16.667 27.667 -34.834 33 -54.501s8 -43.834 8 -72.501c1.33301 -182.667 0.666016 -290.667 -2.00098 -324
c-3.33301 -36 -9.66602 -64.833 -18.999 -86.5s-27 -42.5 -53 -62.5c-35.333 -27.333 -79 -43.333 -131 -48l-11 34c14 4 25.833 10.167 35.5 18.5s16.834 15.833 21.501 22.5s8.66699 17.5 12 32.5s5.16602 25.667 5.49902 32s1.16602 18.833 2.49902 37.5
c1.33301 32 2 56 2 72v200z" />
    <glyph glyph-name="afii10100" unicode="&#x453;" horiz-adv-x="370" 
d="M364 479c-3.33301 -12 -5.00488 -23 -5.00488 -33c0 -12 1.66699 -23.667 5 -35c-53.333 6.66699 -99.666 10 -138.999 10h-27c-0.666992 -8 -1.16699 -19.667 -1.5 -35s-0.5 -27.333 -0.5 -36c-1.33301 -5.33301 -1.66602 -39 -0.999023 -101l1 -93
c0 -64.667 2.66699 -116.667 8 -156c-45.333 3.33301 -72.666 5 -81.999 5c-8.66699 0 -21 -0.833008 -37 -2.5s-27.333 -2.5 -34 -2.5l3 66c0.666992 10.667 1.33398 26.667 2.00098 48s1.33398 37.333 2.00098 48c0.666992 34 1 84.667 1 152l-6 165c60 -4 109 -6 147 -6
c68 0 122.667 2 164 6zM305.995 626l-131.999 -80.998h-55l128 149c13.333 15.333 24 24.666 32 27.999c6 5.33301 17.333 8 34 8c11.333 0 22 -4 32 -12c8 -8 12 -18.667 12 -32c0 -4 -0.166992 -7.33301 -0.5 -10s-1.33301 -5.33398 -3 -8.00098
s-2.83398 -4.66699 -3.50098 -6s-2.5 -3.83301 -5.5 -7.5s-5.16699 -6.16699 -6.5 -7.5l-16.5 -11c-7 -4.66699 -12.167 -8 -15.5 -10z" />
    <glyph glyph-name="afii10101" unicode="&#x454;" horiz-adv-x="481" 
d="M183 222c2.66699 -48.667 13.666 -86.668 32.999 -114.001c25.333 -36.667 64 -55 116 -55c18.667 0 37.667 4.33301 57 13s35 20 47 34l17 -14l-24 -59c-12.667 -11.333 -33 -20.5 -61 -27.5s-52.667 -10.5 -74 -10.5c-84.667 0 -148 21 -190 63
c-48 48.667 -72 108.334 -72 179.001c0 78.667 24.167 141.5 72.5 188.5s111.833 70.5 190.5 70.5c68 0 125.333 -15.333 172 -46l-34 -92h-29c-5.33301 26 -16.833 47.333 -34.5 64s-39.834 25 -66.501 25c-37.333 0 -65.666 -16.333 -84.999 -49s-30.666 -71 -33.999 -115
h109c19.333 0 40 1.66699 62 5c-4 -21.333 -4 -43 0 -65c-21.333 3.33301 -42 5 -62 5h-110z" />
    <glyph glyph-name="afii10102" unicode="&#x455;" horiz-adv-x="389" 
d="M46 126l25.002 -0.000976562c9.33301 -25.333 24 -45.333 44 -60s43.333 -22 70 -22c22.667 0 40.334 5 53.001 15c16 12 24 26.333 24 43c0 8 -2.33301 15.667 -7 23s-11.834 14 -21.501 20l-25 15c-7 4 -16.667 8.5 -29 13.5s-19.833 8.16699 -22.5 9.5l-16 8l-18.5 9
c-5.66699 2.66699 -11.167 5 -16.5 7c-23.333 10 -41.666 26.667 -54.999 50s-20 48.333 -20 75c0 66.667 28.667 112.334 86 137.001c32 14 60.667 21 86 21c56 0 104.333 -15.667 145 -47c-9.33301 -28.667 -17.333 -57.667 -24 -87h-28c-4 22 -15.333 41.333 -34 58
s-39 25 -61 25c-20 0 -37.333 -4.66699 -52 -14s-22 -23.666 -22 -42.999c0 -6 0.833008 -11.5 2.5 -16.5s4.66699 -9.66699 9 -14s8.16602 -8 11.499 -11s8.66602 -6.16699 15.999 -9.5s12.5 -5.83301 15.5 -7.5s8.66699 -4 17 -7s13.166 -4.83301 14.499 -5.5l40.5 -17
c7.66699 -3.33301 19 -8.83301 34 -16.5s25.667 -14.834 32 -21.501s13.5 -15.167 21.5 -25.5s13.5 -22.166 16.5 -35.499s4.5 -28.333 4.5 -45c0 -54 -23 -96.333 -69 -127c-32.667 -21.333 -74 -32 -124 -32c-52 0 -98 13.667 -138 41c6 31.333 11 62.666 15 93.999z" />
    <glyph glyph-name="afii10103" unicode="&#x456;" horiz-adv-x="278" 
d="M63 0l2.99707 66c0.666992 10.667 1.33398 26.667 2.00098 48s1.33398 37.333 2.00098 48c0 11.333 0.333008 27.333 1 48s1.16699 39.334 1.5 56.001s0.5 32.667 0.5 48l-6 165l9 -1c24 -2 48 -3 72 -3c15.333 0 39 1.33301 71 4l-7 -129
c-2.66699 -42.667 -4 -107.334 -4 -194.001c0 -64.667 2.66699 -116.667 8 -156c-45.333 3.33301 -72.666 5 -81.999 5c-8.66699 0 -21 -0.833008 -37 -2.5s-27.333 -2.5 -34 -2.5zM63.9971 663c0 21.333 7.66699 39.833 23 55.5s33.666 23.5 54.999 23.5
s39.833 -7.83301 55.5 -23.5s23.5 -34.167 23.5 -55.5s-7.83301 -39.833 -23.5 -55.5s-34.167 -23.5 -55.5 -23.5s-39.666 7.83301 -54.999 23.5s-23 34.167 -23 55.5z" />
    <glyph glyph-name="afii10104" unicode="&#x457;" horiz-adv-x="278" 
d="M63 0l2.99707 66c0.666992 10.667 1.33398 26.667 2.00098 48s1.33398 37.333 2.00098 48c0 11.333 0.333008 27.333 1 48s1.16699 39.334 1.5 56.001s0.5 32.667 0.5 48l-6 165l9 -1c24 -2 48 -3 72 -3c15.333 0 39 1.33301 71 4l-7 -129
c-2.66699 -42.667 -4 -107.334 -4 -194.001c0 -64.667 2.66699 -116.667 8 -156c-45.333 3.33301 -72.666 5 -81.999 5c-8.66699 0 -21 -0.833008 -37 -2.5s-27.333 -2.5 -34 -2.5zM244.997 684c16.667 0 31.5 -6.5 44.5 -19.5s19.5 -28.167 19.5 -45.5
s-6.33301 -32.5 -19 -45.5s-27.667 -19.5 -45 -19.5c-18 0 -33.333 6.5 -46 19.5s-19 28.167 -19 45.5s6.5 32.5 19.5 45.5s28.167 19.5 45.5 19.5zM33.9971 554c-16 0 -30.333 6.66699 -43 20s-19 28.333 -19 45c0 17.333 6.16699 32.5 18.5 45.5s26.833 19.5 43.5 19.5
c17.333 0 32.5 -6.33301 45.5 -19s19.5 -28 19.5 -46s-6.33301 -33.333 -19 -46s-28 -19 -46 -19z" />
    <glyph glyph-name="afii10105" unicode="&#x458;" horiz-adv-x="278" 
d="M3 -205l-11.001 33.9961c14 4 25.833 10.167 35.5 18.5s16.834 15.833 21.501 22.5s8.66699 17.5 12 32.5s5.16602 25.667 5.49902 32s1.16602 18.833 2.49902 37.5c1.33301 32 2 56 2 72v44v151v78c0 12 -0.166992 24.5 -0.5 37.5s-0.833008 27.667 -1.5 44
s-1 28.833 -1 37.5c0 4.66699 -0.333008 11.834 -1 21.501s-1 16.834 -1 21.501l14 -1c22 -2 44.333 -3 67 -3c14.667 0 37.334 1.33301 68.001 4c-5.33301 -90 -8 -143.667 -8 -161c-0.666992 -19.333 -1 -48.666 -1 -87.999c0 -13.333 0.333008 -33.333 1 -60
s1 -46.667 1 -60c0 -65.333 -0.666992 -104.666 -2 -117.999c-3.33301 -36 -9.66602 -64.833 -18.999 -86.5s-27 -42.5 -53 -62.5c-35.333 -27.333 -79 -43.333 -131 -48zM140.999 583.996c-20.667 0 -38.5 7.66699 -53.5 23s-22.5 33.333 -22.5 54s7.5 38.5 22.5 53.5
s32.833 22.5 53.5 22.5c21.333 0 39.5 -7.5 54.5 -22.5s22.5 -32.833 22.5 -53.5s-7.66699 -38.667 -23 -54s-33.333 -23 -54 -23z" />
    <glyph glyph-name="afii10106" unicode="&#x459;" horiz-adv-x="722" 
d="M548 144c0 50 -22 77.667 -66 83c-13.333 1.33301 -29.333 1.33301 -48 0c0 -5.33301 -0.333008 -18.833 -1 -40.5s-1 -39.167 -1 -52.5l2 -82c24 0.666992 41 2 51 4c42 10.667 63 40 63 88zM445 479l-9.00098 -129.002c0 -5.33301 -0.166992 -12.833 -0.5 -22.5
s-0.666016 -18.667 -0.999023 -27s-0.833008 -16.166 -1.5 -23.499l83 1c116.667 0 175 -40.667 175 -122c0 -58.667 -20 -99.834 -60 -123.501s-90.667 -34.5 -152 -32.5c-33.333 1.33301 -66.333 2 -99 2h-26.5c-9 0 -17.167 -0.166992 -24.5 -0.5
s-14 -0.666016 -20 -0.999023s-10.667 -0.5 -14 -0.5h-5l3 66c0.666992 10.667 1.16699 26.667 1.5 48s0.833008 37.333 1.5 48c0 11.333 0.333008 27.333 1 48s1.16699 39.334 1.5 56.001s0.5 32.667 0.5 48c0 42.667 -0.333008 75.667 -1 99
c-20.667 2.66699 -37.667 2.66699 -51 0c-8.66699 -17.333 -22.667 -49.333 -42 -96c-57.333 -136.667 -96.666 -242.334 -117.999 -317.001c-0.666992 0 -6.33398 0.5 -17.001 1.5s-18.667 1.5 -24 1.5l-39 -3c93.333 202.667 162.333 362.334 207 479.001
c22 -4 60 -6 114 -6c55.333 0 94.333 2 117 6z" />
    <glyph glyph-name="afii10107" unicode="&#x45a;" horiz-adv-x="758" 
d="M585 144c0 50 -22 77.667 -66 83c-13.333 1.33301 -29.333 1.33301 -48 0c0 -5.33301 -0.333008 -18.833 -1 -40.5s-1 -39.167 -1 -52.5l2 -82c24 0.666992 41 2 51 4c42 10.667 63 40 63 88zM334 219c-30 2 -52.6709 2.99707 -68.0039 2.99707c-14.667 0 -38 -1 -70 -3
v-63c0 -64.667 2.66699 -116.667 8 -156c-45.333 3.33301 -72.666 5 -81.999 5c-8.66699 0 -21 -0.833008 -37 -2.5s-27.333 -2.5 -34 -2.5l3 66c0.666992 10.667 1.33398 26.667 2.00098 48s1.33398 37.333 2.00098 48c0 11.333 0.333008 27.333 1 48
s1.16699 39.334 1.5 56.001s0.5 32.667 0.5 48l-6 165l9 -1c24 -2 48 -3 72 -3c15.333 0 39 1.33301 71 4l-8 -129c-0.666992 -8 -1.33398 -19.667 -2.00098 -35s-1 -27 -1 -35c30 -2 53 -3 69 -3c16.667 0 40.334 1 71.001 3v34l-6 165l9 -1c24 -2 48 -3 72 -3
c15.333 0 39 1.33301 71 4l-9 -129c0 -5.33301 -0.166992 -12.833 -0.5 -22.5s-0.666016 -18.667 -0.999023 -27s-0.833008 -16.166 -1.5 -23.499l83 1c116.667 0 175 -40.667 175 -122c0 -58.667 -20 -99.834 -60 -123.501s-90.667 -34.5 -152 -32.5
c-33.333 1.33301 -66.333 2 -99 2h-26.5c-9 0 -17.167 -0.166992 -24.5 -0.5s-14 -0.666016 -20 -0.999023s-10.667 -0.5 -14 -0.5h-5l3 66c0.666992 10.667 1.16699 26.667 1.5 48s0.833008 37.333 1.5 48c0 6.66699 0.166992 16.334 0.5 29.001s0.5 22 0.5 28z" />
    <glyph glyph-name="afii10108" unicode="&#x45b;" 
d="M58 605c-0.666992 33.333 -2.33301 83.334 -5 150.001c20 -3.33301 44.667 -5 74 -5c34 0 59.333 1.66699 76 5l-6 -150h151c-4 -21.333 -5.33301 -38.333 -4 -51h-149l-1 -35l-2 -108c19.333 21.333 42.5 39.833 69.5 55.5s53.167 23.5 78.5 23.5
c46 0 85 -15.667 117 -47c16.667 -16.667 27.667 -34.834 33 -54.501s8 -43.834 8 -72.501v-138v-125c0 -6 0.166992 -14.833 0.5 -26.5s0.5 -20.5 0.5 -26.5c-42 3.33301 -67 5 -75 5c-8.66699 0 -21.334 -0.833008 -38.001 -2.5s-28.334 -2.5 -35.001 -2.5
c2.66699 27.333 4.33398 48.666 5.00098 63.999l3 92c1.33301 19.333 2 48.666 2 87.999c0 46 -2.33301 79.667 -7 101c-4.66699 16.667 -14 30.834 -28 42.501s-29.667 17.5 -47 17.5c-14 0 -26.333 -2.5 -37 -7.5s-19 -12.667 -25 -23s-10.833 -20.166 -14.5 -29.499
s-6.16699 -22 -7.5 -38s-2.16602 -28.167 -2.49902 -36.5s-0.5 -20.5 -0.5 -36.5v-9c0 -28 0.833008 -67.5 2.5 -118.5s2.5 -86.5 2.5 -106.5c-6.66699 0 -18.167 0.833008 -34.5 2.5s-28.833 2.5 -37.5 2.5s-21.167 -0.833008 -37.5 -2.5s-27.833 -2.5 -34.5 -2.5
c0 1.33301 0.5 10.333 1.5 27s1.5 29 1.5 37l4 249c0 12.667 0.166992 31.834 0.5 57.501s0.5 45.167 0.5 58.5c0 55.333 -0.333008 97 -1 125h-51c6 20 7 37 3 51h46z" />
    <glyph glyph-name="afii10109" unicode="&#x45c;" horiz-adv-x="500" 
d="M316 297l80.002 -128.003l98 -161v-8c-41.333 3.33301 -66.666 5 -75.999 5c-8.66699 0 -34.667 -1.66699 -78 -5c-3.33301 5.33301 -8 13.5 -14 24.5s-10.333 19.167 -13 24.5c-14.667 26.667 -26 46.667 -34 60c-13.333 22.667 -31.333 51.334 -54 86.001
c-11.333 17.333 -21 26.666 -29 27.999c0 -1.33301 -1 -10 -3 -26c0 -6 -0.166992 -14.833 -0.5 -26.5s-0.5 -20.167 -0.5 -25.5c0 -7.33301 0.166992 -17.666 0.5 -30.999s0.5 -23.666 0.5 -30.999c0 -10.667 0.833008 -25.334 2.5 -44.001s2.5 -31.667 2.5 -39
c-6.66699 0 -18.167 0.833008 -34.5 2.5s-28.833 2.5 -37.5 2.5s-21.167 -0.833008 -37.5 -2.5s-27.833 -2.5 -34.5 -2.5v25c3.33301 47.333 5.66602 100.333 6.99902 159c1.33301 86.667 1.33301 147 0 181c-2.66699 48 -5 86.333 -7 115c22 -3.33301 48.333 -5 79 -5
c22 0 45.667 1.66699 71 5c-6.66699 -73.333 -10 -128.333 -10 -165c0 -18.667 1 -35 3 -49c2 -2 5 -2.33301 9 -1c55.333 56.667 116.666 127.667 183.999 213c26.667 -1.33301 42.667 -2 48 -2c10 0 25 0.666992 45 2v-8c-17.333 -21.333 -45.333 -50.666 -84 -87.999
s-66.334 -65.666 -83.001 -84.999zM356.002 625.997l-131.999 -80.9971h-55l128 149c13.333 15.333 24 24.666 32 27.999c6 5.33301 17.333 8 34 8c11.333 0 22 -4 32 -12c8 -8 12 -18.667 12 -32c0 -4 -0.166992 -7.33301 -0.5 -10s-1.33301 -5.33398 -3 -8.00098
s-2.83398 -4.66699 -3.50098 -6s-2.5 -3.83301 -5.5 -7.5s-5.16699 -6.16699 -6.5 -7.5c-3.33301 -2.66699 -8.5 -6.33398 -15.5 -11.001s-12.5 -8 -16.5 -10z" />
    <glyph glyph-name="afii10110" unicode="&#x45e;" horiz-adv-x="481" 
d="M94 -257l126.999 255.998l-200 473l1 7c33.333 -2.66699 58.333 -4 75 -4c16 0 40.667 1.33301 74 4c32.667 -91.333 72.667 -194.666 120 -309.999l38 102c40 106 65.333 175.333 76 208c17.333 -2.66699 30.333 -4 39 -4s21.667 1.33301 39 4v-7l-97 -221
c-81.333 -185.333 -150.666 -354.666 -207.999 -507.999c-4 1.33301 -7.66699 2 -11 2c-16 4 -40.333 3.33301 -73 -2zM437.999 629.998c-13.333 -31.333 -33.667 -56.667 -61 -76s-60.333 -29 -99 -29c-76 0 -129.333 35 -160 105l32 17c28 -42 71 -63 129 -63
c58.667 0 101 21 127 63z" />
    <glyph glyph-name="afii10193" unicode="&#x45f;" 
d="M226 5c-75.333 -1.33301 -133.669 -3.00098 -175.002 -5.00098l3 66c0 9.33301 0.5 24.333 1.5 45l2.5 51c2 59.333 3 110 3 152l-6 165l9 -1c24 -2 48 -3 72 -3c15.333 0 39 1.33301 71 4l-8 -129c-2 -32 -3 -96.667 -3 -194c0 -43.333 0.666992 -75.666 2 -96.999
c59.333 -3.33301 111.333 -3.33301 156 0c2 42 3.33301 76.333 4 103c2 59.333 3 110 3 152l-6 165l9 -1c24 -2 48 -3 72 -3c15.333 0 39 1.33301 71 4l-7 -129c-2.66699 -42.667 -4 -107.334 -4 -194.001c0 -38 2 -90 6 -156c-82 4 -139.333 6 -172 6
c0 -25.333 1 -47.666 3 -66.999c-11.333 2 -29.666 3 -54.999 3c-27.333 0 -45.666 -1 -54.999 -3c2 20 3 42 3 66z" />
    <glyph glyph-name="endash" unicode="&#x2013;" horiz-adv-x="500" 
d="M0 181v83h500v-83h-500z" />
    <glyph glyph-name="emdash" unicode="&#x2014;" horiz-adv-x="1000" 
d="M0 181v83h1000v-83h-1000z" />
    <glyph glyph-name="quoteleft" unicode="&#x2018;" horiz-adv-x="278" 
d="M218 705l23.999 -10.998l-46 -185c-12.667 -50.667 -21.667 -82.334 -27 -95.001c-12.667 -32 -33.334 -48 -62.001 -48c-19.333 0 -35.833 5.5 -49.5 16.5s-20.5 26.167 -20.5 45.5c0 12 8 30 24 54c4.66699 7.33301 13.834 20.666 27.501 39.999l31.5 45
c46.667 68.667 79.334 114.667 98.001 138z" />
    <glyph glyph-name="quoteright" unicode="&#x2019;" horiz-adv-x="278" 
d="M67 370l-24.001 11.001l45 186c10.667 45.333 20.334 77.666 29.001 96.999c7.33301 16.667 15.5 28.5 24.5 35.5s22.167 10.5 39.5 10.5c25.333 0 44.5 -10.167 57.5 -30.5s12.833 -41.5 -0.5 -63.5c-68 -103.333 -125 -185.333 -171 -246z" />
    <glyph glyph-name="quotedblleft" unicode="&#x201c;" horiz-adv-x="500" 
d="M238 705l25.001 -10.999c-18.667 -82 -36 -151 -52 -207c-12 -45.333 -20.333 -73 -25 -83c-12.667 -25.333 -32 -38 -58 -38c-19.333 0 -35.833 5.5 -49.5 16.5s-20.5 26.167 -20.5 45.5c0 11.333 7 28 21 50c6 8 14.5 20.167 25.5 36.5l24.5 36.5
c41.333 61.333 77.666 112.666 108.999 153.999zM446.001 700.001l23.998 -10c-20.667 -90 -38 -159.333 -52 -208c-13.333 -48.667 -21.666 -76 -24.999 -82c-13.333 -26 -32.666 -39 -57.999 -39c-20 0 -36.667 5.5 -50 16.5s-20 26.5 -20 46.5c0 12 10.333 33.333 31 64
l52 75c35.333 54 68 99.667 98 137z" />
    <glyph glyph-name="quotedblright" unicode="&#x201d;" horiz-adv-x="500" 
d="M266 370l-24 11c17.333 75.333 34.666 144.666 51.999 207.999c12 44.667 20.333 72 25 82c12.667 26 33 39 61 39c18 0 33.667 -6.16699 47 -18.5s20 -27.166 20 -44.499c0 -14 -10.667 -35.667 -32 -65c-4.66699 -7.33301 -12.167 -18.5 -22.5 -33.5l-23.5 -33.5
c-39.333 -58 -73.666 -106.333 -102.999 -145zM59 375l-24.001 10c6.66699 29.333 12 51.333 16 66c15.333 69.333 31 131 47 185c9.33301 31.333 18 50.666 26 57.999c11.333 13.333 25.333 20 42 20c20 0 37.333 -5.5 52 -16.5s22 -26.167 22 -45.5
c0 -14 -8.33301 -32.333 -25 -55c-2.66699 -4.66699 -11.167 -17.167 -25.5 -37.5s-25.166 -36.166 -32.499 -47.499l-55 -78c-22 -31.333 -36.333 -51 -43 -59z" />
    <glyph glyph-name="dagger" unicode="&#x2020;" 
d="M333 569l-3 -99l95 2l72 4c-2.66699 -24 -4 -42 -4 -54s1.33301 -30 4 -54l-97 4l-70 2v-103c0 -96.667 2.33301 -187 7 -271c-20 3.33301 -41.667 5 -65 5c-26.667 0 -48.667 -1.66699 -66 -5c0.666992 9.33301 1.5 22 2.5 38s1.83301 30.5 2.5 43.5s1 25.5 1 37.5
l3 117c0 61.333 -0.333008 107.333 -1 138c-27.333 0.666992 -82.333 -1.33301 -165 -6c0 4 0.333008 9.66699 1 17s1.16699 14 1.5 20s0.5 11.667 0.5 17l-3 54c82.667 -4.66699 137.667 -6.66699 165 -6c0 6 -0.166992 15.167 -0.5 27.5s-0.5 21.833 -0.5 28.5
c-0.666992 52.667 -2.66699 106 -6 160c14 -2.66699 36 -4 66 -4c29.333 0 51 1.33301 65 4c0 -13.333 -0.666992 -33 -2 -59z" />
    <glyph glyph-name="bullet" unicode="&#x2022;" horiz-adv-x="606" 
d="M304 510c47.333 0 87.666 -16.667 120.999 -50s50 -73.333 50 -120s-16.667 -86.667 -50 -120s-73.666 -50 -120.999 -50c-46.667 0 -86.667 16.5 -120 49.5s-50.666 73.167 -51.999 120.5c1.33301 47.333 18.666 87.5 51.999 120.5s73.333 49.5 120 49.5z" />
    <glyph glyph-name="ellipsis" unicode="&#x2026;" horiz-adv-x="1000" 
d="M166 -14c-22 0 -41 8.16699 -57 24.5s-24 35.5 -24 57.5s8 41.167 24 57.5s35 24.5 57 24.5s41.333 -8.16699 58 -24.5s25 -35.5 25 -57.5c0 -22.667 -8 -42 -24 -58s-35.667 -24 -59 -24zM499 -14c-22 0 -41 8.16699 -57 24.5s-24 35.5 -24 57.5s8 41.167 24 57.5
s35 24.5 57 24.5s41.333 -8.16699 58 -24.5s25 -35.5 25 -57.5c0 -22.667 -8 -42 -24 -58s-35.667 -24 -59 -24zM832 -14c-22 0 -41 8.16699 -57 24.5s-24 35.5 -24 57.5s8 41.167 24 57.5s35 24.5 57 24.5s41.333 -8.16699 58 -24.5s25 -35.5 25 -57.5
c0 -22.667 -8 -42 -24 -58s-35.667 -24 -59 -24z" />
    <glyph glyph-name="afii61352" unicode="&#x2116;" horiz-adv-x="1111" 
d="M939 699c52.667 0 92 -13 118 -39c28 -28 42 -63.333 42 -106c0 -46.667 -14.333 -84.5 -43 -113.5s-68 -43.5 -118 -43.5c-48 0 -86.333 13 -115 39s-43 61 -43 105c0 47.333 14.667 85.333 44 114c28 29.333 66.333 44 115 44zM943 674c-36 0 -57.333 -28.667 -64 -86
c-1.33301 -20 -2 -35 -2 -45c0 -80.667 20.333 -121 61 -121c27.333 0 46 20.333 56 61c5.33301 21.333 8 48.333 8 81c0 6.66699 -0.666992 16.667 -2 30c-5.33301 53.333 -24.333 80 -57 80zM790 277v50h299v-50h-299zM171 0l-6.99707 0.999023
c-13.333 2.66699 -26.333 4 -39 4c-14 0 -29.333 -1.66699 -46 -5c12 126.667 18 285.334 18 476.001c0 17.333 -0.166992 44 -0.5 80s-0.5 63 -0.5 81c0 10 -0.666992 25.667 -2 47c16.667 -3.33301 31.667 -5 45 -5s28.333 1.66699 45 5l199 -213.5l235 -257.5
c0.666992 48.667 1 122 1 220c0 12.667 -0.166992 31.334 -0.5 56.001s-0.5 43 -0.5 55c0 0.666992 -2 41 -6 121l-1 19c25.333 -3.33301 40.333 -5 45 -5c6 0 14.167 0.666992 24.5 2s17.166 2 20.499 2c-0.666992 -6 -1.33398 -15.167 -2.00098 -27.5s-1 -21.5 -1 -27.5
c-0.666992 -9.33301 -1.83398 -28.833 -3.50098 -58.5s-2.83398 -52.5 -3.50098 -68.5c-0.666992 -14 -1.5 -33.667 -2.5 -59s-1.83301 -48.5 -2.5 -69.5s-1 -40.833 -1 -59.5v-102v-211c-1.33301 0 -3.16602 0.333008 -5.49902 1s-4.16602 1 -5.49902 1
c-20.667 4 -44.334 3.33301 -71.001 -2c-119.333 141.333 -228.333 263.666 -327 366.999l-109 114c0 -10 -0.333008 -24 -1 -42s-1.16699 -34.5 -1.5 -49.5s-0.5 -29.167 -0.5 -42.5v-91c0 -114 2.33301 -199.333 7 -256z" />
    <glyph glyph-name="trademark" unicode="&#x2122;" horiz-adv-x="975" 
d="M912 621l-0.00195312 -268.999c0 -21.333 2.5 -34.5 7.5 -39.5s18.833 -8.16699 41.5 -9.5v-26h-173v26c22.667 0.666992 36.834 3.5 42.501 8.5s8.5 18.167 8.5 39.5v278l-145 -352h-10l-151 352v-294c0 -10 2.33301 -17.333 7 -22s9.66699 -7.33398 15 -8.00098
s14.666 -1.33398 27.999 -2.00098v-26h-131v26c14.667 0.666992 24.834 1.5 30.501 2.5s10.334 3.83301 14.001 8.5s5.5 12.334 5.5 23.001v284v9v8c0 1.33301 -0.166992 3.33301 -0.5 6s-0.833008 4.33398 -1.5 5.00098s-1.66699 1.83398 -3 3.50098s-3 2.66699 -5 3
s-4.33301 0.666016 -7 0.999023s-6 0.5 -10 0.5h-15v24h132l118 -279l118 279h133v-24h-19c-8 0 -14 -0.5 -18 -1.5s-6.83301 -3.5 -8.5 -7.5s-2.66699 -7.33301 -3 -10s-0.5 -8.33398 -0.5 -17.001zM317.998 277.001h-197.002v26c42.667 0 64 15 64 45v301h-44
c-27.333 0 -46.166 -5 -56.499 -15s-15.833 -28.333 -16.5 -55h-30v102h367v-102h-30c-0.666992 26.667 -6.16699 45 -16.5 55s-29.166 15 -56.499 15h-44v-310c0 -24 20 -36 60 -36v-26z" />
    <glyph glyph-name="Delta" unicode="&#x2206;" horiz-adv-x="333" 
d="M243 684c-4 -58.667 -6.33691 -102.998 -7.00391 -132.998c-4 -130 -6 -195.333 -6 -196c0 -20.667 0.333008 -42.5 1 -65.5s1.5 -48.5 2.5 -76.5s1.83301 -49.667 2.5 -65c0.666992 -18.667 1.83398 -45.334 3.50098 -80.001s2.83398 -57.334 3.50098 -68.001
c-43.333 3.33301 -69.666 5 -78.999 5c-26.667 0 -56 -1.66699 -88 -5c8.66699 106 13 228.333 13 367v54c0 28.667 -0.666992 71.667 -2 129c-1.33301 49.333 -3.66602 94 -6.99902 134c45.333 -3.33301 72.333 -5 81 -5c10 0 37.333 1.66699 82 5z" />
    <glyph glyph-name="approxequal" unicode="&#x2248;" 
d="M266 100l103 338c-8 2 -15.667 3 -23 3c-29.333 0 -53.5 -11.333 -72.5 -34s-31.667 -47.5 -38 -74.5s-9.5 -54.833 -9.5 -83.5c0 -62.667 11 -109.667 33 -141c2.66699 -4 5 -6.66699 7 -8zM197 -124l38.999 125.999c-34.667 10.667 -64 27.334 -88 50.001
c-48.667 48 -73 107.667 -73 179c0 78.667 24.167 141.5 72.5 188.5s111.833 70.5 190.5 70.5c14.667 0 30 -1 46 -3l35 116c18.667 -9.33301 35.334 -14 50.001 -14l-34 -112c28.667 -8.66699 53.667 -19.667 75 -33l-38 -103h-24c-3.33301 29.333 -14.333 53.333 -33 72
l-105 -347c18 -8.66699 39.667 -13 65 -13c18.667 0 37.667 4.33301 57 13s35 20 47 34l18 -14l-25 -59c-12.667 -11.333 -33 -20.5 -61 -27.5s-52.667 -10.5 -74 -10.5c-17.333 0 -34 1 -50 3l-40 -130c-9.33301 5.33301 -17.333 8.33301 -24 9
c-5.33301 2 -14 3.66699 -26 5z" />
    <glyph glyph-name="lozenge" unicode="&#x25ca;" horiz-adv-x="500" 
d="M52 -192l-24 10.002c12 54.667 29.333 123.667 52 207c10.667 42.667 19 70 25 82c12.667 26 31.667 39 57 39c19.333 0 36 -5.83301 50 -17.5s21 -26.834 21 -45.501c0 -6.66699 -2.66699 -15.334 -8 -26.001s-10.666 -20 -15.999 -28l-21 -30
c-8.66699 -12 -13.667 -19 -15 -21l-89 -127c-6.66699 -10 -17.334 -24.333 -32.001 -43zM259 -191.998l-24 10.002c12 54.667 29.333 123.667 52 207c10.667 42.667 19 70 25 82c12.667 26 31.667 39 57 39c19.333 0 36 -5.83301 50 -17.5s21 -26.834 21 -45.501
c0 -6.66699 -2.66699 -15.334 -8 -26.001s-10.666 -20 -15.999 -28l-21 -30c-8.66699 -12 -13.667 -19 -15 -21l-89 -127c-6.66699 -10 -17.334 -24.333 -32.001 -43z" />
    <glyph glyph-name=".null" horiz-adv-x="0" 
 />
    <glyph glyph-name="nonmarkingreturn" horiz-adv-x="333" 
 />
  </font>
</defs>
</svg>
