<svg version="1.1" id="Слой_1" xmlns="http://www.w3.org/2000/svg" xmlns:xlink="http://www.w3.org/1999/xlink" x="0px" y="0px"
	 viewBox="0 0 278.0073242 227.0775146" width="150" height="125" enable-background="new 0 0 278.0073242 227.0775146" xml:space="preserve">
<polygon fill="#35687E" points="68.3068161,172.9282227 0,172.9282227 15.9997015,151.2169495 0,129.2288208 
	68.3068161,129.2288208 "/>
<polygon fill="#564936" points="68.32061,172.914917 26.2387886,154.5715485 26.2387886,110.8720551 68.32061,129.2145081 "/>
<polygon fill="#35687E" points="209.7004395,172.9282227 278.0073242,172.9282227 262.0076294,151.2169495 278.0073242,129.2288208 
	209.7004395,129.2288208 "/>
<polygon fill="#564936" points="209.686676,172.914917 251.7675476,154.5715485 251.7675476,110.8720551 209.686676,129.2145081 "/>
<path fill="#BCA064" d="M137.3057556,227.0775146c-0.78125,0-1.5491486-0.1338501-2.2834015-0.3948975
	c-0.0324707-0.0137787-0.0661011-0.0251617-0.0993042-0.0389404c-0.8955994-0.3445892-22.1622696-8.677948-43.5879517-31.0693054
	c-12.5583344-13.1238708-22.5619888-28.3869171-29.7337189-45.3640289
	c-8.9346046-21.1442719-13.4648857-44.9960175-13.4648857-70.8943558c0-1.6630707,0-6.138298,0-7.7997894v-41.277317
	c0-3.4680309,2.621109-6.3369045,5.9846077-6.7301502l81.9468918-23.3352833C136.4734497,0.0583722,136.8897705,0,137.3057556,0
	c0.4160004,0,0.8339844,0.0583722,1.2386017,0.1734457l81.8252563,23.3368607
	c3.3643341,0.392498,5.982605,3.2612896,5.982605,6.7285728v41.277317c0,1.6614914,0,6.1367188,0,7.7997894
	c0,26.0321884-4.52388,49.9690323-13.4433746,71.1456985c-7.1624298,17.0039215-17.1547852,32.2604065-29.6969299,45.3413544
	c-21.4045105,22.3249359-42.6549988,30.5122375-43.5489349,30.851181c-0.0231628,0.0089569-0.0462494,0.0161896-0.0697479,0.0251617
	C138.8598175,226.9429169,138.0894318,227.0775146,137.3057556,227.0775146L137.3057556,227.0775146z"/>
<path fill="#FFFFFF" d="M215.5510406,79.3159866c-2.0803223,0-3.7657166-1.6866531-3.7657166-3.7657166v-0.2691956
	c0-2.0790634,1.6853943-3.7648773,3.7657166-3.7648773h6.28302v-41.277317c0-1.2470627-1.0124207-2.2582397-2.259079-2.2582397
	L137.3057556,4.5181599L54.9133186,27.9806404c-1.2467422,0-2.2582512,1.0111771-2.2582512,2.2582397v41.277317h6.2830276
	c2.0793953,0,3.764801,1.6858139,3.764801,3.7648773v0.2691956c0,2.0790634-1.6854057,3.7657166-3.764801,3.7657166
	c0,0-2.1715622,0-6.2830276,0c0,110.878334,83.8888626,143.1111755,83.8888626,143.1111755
	c0.246521,0.0883484,0.5036011,0.1321869,0.7618256,0.1321869c0.2570801,0,0.5157166-0.0438385,0.7614136-0.1321869
	c0,0,83.7668915-31.6311798,83.7668915-143.1111755C214.8682709,79.3159866,215.5510406,79.3159866,215.5510406,79.3159866z"/>
<g>
	<path fill="#BCA064" d="M137.3049316,9.2163353l80.011795,22.8178139v34.9638824h-1.765686
		c-4.5672455,0-8.2834625,3.7170563-8.2834625,8.2847061v0.2675323c0,4.5660706,3.716217,8.2838745,8.2834625,8.2838745h1.7173615
		c-0.4901428,23.0692368-4.7520599,44.2831802-12.6864471,63.1189041
		c-6.7333984,15.9838562-16.1167908,30.3151855-27.8922882,42.5974426
		c-17.6732635,18.432663-35.35672,26.6013794-39.3737793,28.3042145
		c-4.0750122-1.765274-22.0365524-10.2121429-39.7496567-28.838623
		c-11.7219391-12.3276672-21.0606689-26.6540985-27.7543793-42.5860596
		c-7.8707008-18.730278-12.1006508-39.7682648-12.5916252-62.5958786h1.7178688c4.5668182,0,8.2833786-3.717804,8.2833786-8.2838745
		v-0.2675323c0-4.5676498-3.7165604-8.2847061-8.2833786-8.2847061h-1.7652817V32.0341492L137.3049316,9.2163353
		L137.3049316,9.2163353z M137.3045197,10.6255722L58.5281601,33.0575294v32.5855675h0.409935
		c5.3147812,0,9.6387253,4.3243637,9.6387253,9.6396408v0.2675323c0,5.3152771-4.3239441,9.6388092-9.6387253,9.6388092h-0.3284798
		c0.6256599,22.1173477,4.8125153,42.5374146,12.4517174,60.7155075
		c6.6277008,15.7762756,15.8760834,29.9665375,27.4869308,42.1773834
		c16.9345856,17.8083344,34.2721405,26.2802887,38.7732697,28.2944946
		c4.4440155-1.9493561,21.4994202-10.1480408,38.3898315-27.7641754
		c11.6590881-12.1605988,20.9524689-26.3540955,27.6218567-42.1855164
		c7.7024841-18.2851105,11.921463-38.881958,12.5462036-61.2376938h-0.3283844
		c-5.3148651,0-9.6388092-4.3235321-9.6388092-9.6388092v-0.2675323c0-5.3152771,4.3239441-9.6396408,9.6388092-9.6396408h0.4102631
		V33.0575294L137.3045197,10.6255722L137.3045197,10.6255722z"/>
</g>
<g>
	<path fill="#BCA064" d="M67.1367798,124.697113c-3.2232628-11.6570892-5.1340103-24.0771713-5.7085228-37.1297302l0,0
		c-0.0101318-0.2456818,0.179184-0.4540939,0.424881-0.466217l0,0c0.2469406-0.0105438,0.4556847,0.179184,0.4662285,0.425705l0,0
		c0.5725136,12.9925156,2.4731369,25.3436813,5.6789627,36.9318542l0,0v0.0015793
		c0.0644302,0.2368088-0.074646,0.4833374-0.313446,0.5481796l0,0c-0.0392761,0.0105515-0.0790482,0.0161972-0.1183243,0.0161972
		l0,0C67.3715134,125.0246811,67.1919098,124.8941498,67.1367798,124.697113L67.1367798,124.697113z"/>
</g>
<g>
	<path fill="#BCA064" d="M137.1448364,209.8789673c-5.803009-2.6847839-21.3501968-10.7691345-36.6257858-26.4481812l0,0
		c-0.1727066-0.17836-0.1690521-0.4597473,0.007309-0.6324615l0,0c0.1779404-0.1727142,0.4597549-0.1694794,0.6324615,0.007309l0,0
		c15.0088043,15.4097595,30.2965164,23.4398041,36.1749191,26.1764984l0,0
		c5.8045959-2.6555634,20.8300018-10.449707,35.7759552-25.6672668l0,0c0.2254333-0.2294922,0.4492035-0.4581757,0.67099-0.6892548
		l0,0c0.1711273-0.1775208,0.4545288-0.1815948,0.6308746-0.0105438l0,0
		c0.177948,0.1694794,0.1832581,0.4524536,0.0121307,0.6308899l0,0c-0.2253571,0.2327423-0.4507904,0.4629974-0.678299,0.6940765
		l0,0c-15.2138977,15.4884033-30.4947205,23.3351898-36.2288055,25.940506l0,0
		c-0.0587921,0.026825-0.1216431,0.0397797-0.1845093,0.0397797l0,0
		C137.2680664,209.9203186,137.2043762,209.9065399,137.1448364,209.8789673L137.1448364,209.8789673z"/>
</g>
<g>
	<path fill="#BCA064" d="M207.6726227,121.9791107c-0.240387-0.0608673-0.3847809-0.3049011-0.3239288-0.5425491l0,0
		c2.6896057-10.6969681,4.3041077-22.031311,4.8205719-33.9089432l0,0l0.0020905,0.0016632
		c0.0084534-0.2473526,0.2172852-0.4386597,0.4625549-0.4281158l0,0c0.2469482,0.0105438,0.4382629,0.2188721,0.4277039,0.4645615
		l0,0c-0.5201111,11.9336014-2.1414948,23.3287201-4.8465424,34.0898056l0,0
		c-0.0514832,0.2019348-0.2339172,0.3373566-0.4330292,0.3373566l0,0
		C207.7455902,121.9928894,207.7090607,121.9879913,207.6726227,121.9791107L207.6726227,121.9791107z"/>
</g>
<g>
	<path fill="#BCA064" d="M212.3578339,61.832798V36.1704407L137.303772,15.8111525L62.1304665,36.1720161V61.832798
		c0,0.2432861-0.1966171,0.4411545-0.4399033,0.4411545l0,0c-0.2432861,0-0.4414902-0.1978683-0.4414902-0.4411545l0,0V35.8355675
		c0-0.1987076,0.134594-0.3738174,0.3259048-0.4257126l0,0l75.613205-20.4801826h0.2310791l75.495636,20.4785233
		c0.1913147,0.0510635,0.3243256,0.2254333,0.3243256,0.4257088l0,0V61.832798c0,0.2432861-0.1966248,0.4411545-0.4399109,0.4411545
		l0,0C212.5561218,62.2739525,212.3578339,62.0760841,212.3578339,61.832798L212.3578339,61.832798z"/>
</g>
<g id="XMLID_96_">
	<path id="XMLID_141_" fill="#BCA064" d="M162.1600647,104.2058334c0.0939789,0.3406067,0.1930542,0.6998978,0.296524,1.0737839
		c5.1623383-0.3304596,9.738739-2.5194397,13.9935303-5.5101013c-0.059021-0.3738861-0.1404572-0.7189102-0.2513885-0.9877625
		C171.941925,101.7885056,167.3800812,103.9808884,162.1600647,104.2058334z"/>
	<path id="XMLID_140_" fill="#BCA064" d="M163.0530243,107.4354858c4.8525848-0.6800613,9.3465424-2.4629135,13.5144806-5.1514664
		c0.0186615-0.1199265,0.0305481-0.2317276,0.0305481-0.3311234c0-0.2524261-0.0061188-0.5716629-0.0237732-0.9157104
		c-4.2472839,2.8402023-8.8145447,4.6868668-13.8157196,5.3362274
		C162.8548889,106.7202988,162.9532776,107.0750122,163.0530243,107.4354858z"/>
	<path id="XMLID_139_" fill="#BCA064" d="M163.3054504,100.1891861c3.3872681,0.1737061,5.7930298-0.4953384,8.1641998-1.4765015
		c1.7601318-0.7284164,2.1489105-0.8003311,2.4759674-0.8033905c-3.6749573,2.5363922-7.8896942,4.4624481-12.2551117,4.5904999
		c0.0963745,0.3504639,0.2066345,0.7509689,0.3277435,1.1903381c4.8861847-0.2134094,9.5993195-2.6051025,13.5823364-5.5799713
		c0.1485901,0.0630951,0.2853394,0.1421356,0.3854218,0.2551117c0.1991425,0.2246017,0.3297729,0.638855,0.4213867,1.1140137
		l-0.0787354-2.0860062c-0.0434265-0.0084763-0.0871887-0.0142441-0.1302795-0.0232391
		c-5.0859833,0.2145996-12.1872559-0.3904953-15.9446716-0.3684692l0.9367371,3.349617
		C161.5422668,100.219902,162.1750031,100.1311722,163.3054504,100.1891861z"/>
	<path id="XMLID_138_" fill="#BCA064" d="M145.9456635,88.3339081c-0.795578-5.4927673-1.9317932-11.3397522-2.8800507-16.241539
		c0.0417175,0.6286774-2.1747284,12.5831833-3.1440125,16.3701172
		C141.4082794,88.4102325,144.2540741,88.6117706,145.9456635,88.3339081z"/>
	<path id="XMLID_137_" fill="#BCA064" d="M125.7332993,128.8005219c0.3114548-0.7314758,9.103981-22.7857132,9.6997604-24.2708664
		c-0.0027161,0.0010071-0.0047607,0.0011826-0.0074615,0.0021896c1.7492523-8.1115952,6.9516144-35.2221451,6.9638367-35.3086929
		c-0.0718994-0.6737671-0.5305939-3.6128769-0.8977051-6.4274368c-0.5360565-0.0675392-1.0809021-0.0101814-1.4381561,0
		c-0.8267975,4.7246704-7.2539368,39.031662-7.948761,41.6372604c-1.0422363,3.126709-8.1641922,21.9739838-9.2064362,24.3675461
		C123.3292389,128.8806,124.9027786,128.744873,125.7332993,128.8005219z"/>
	<path id="XMLID_136_" fill="#BCA064" d="M176.2560577,103.3354263c-1.6569824,1.218483-3.3825226,2.2963257-5.3044739,3.155899
		c-2.4186554,1.0817337-4.9774475,1.7384186-7.5725098,2.1189041c0.1058502,0.380661,0.2123718,0.7636795,0.3192291,1.1467361
		c2.6039276-0.407135,5.1416321-1.0990753,7.6152802-2.1397858c1.5633698-0.6576843,2.9943848-1.4955063,4.3619843-2.4388351
		c-0.0834503,0.2793884-0.1672516,0.5750427-0.2500305,0.8856583c-1.4161224,0.8926086-2.8797455,1.6926346-4.4172821,2.406601
		c-2.1672668,1.006279-4.5506592,1.9930344-6.949295,2.5776291c0.1044922,0.3728409,0.2079926,0.7419662,0.3100891,1.1049805
		c2.0074615-0.5165405,3.9854126-1.3083954,5.8439331-2.1075439c1.6885376-0.7260284,3.3000793-1.5480728,4.856308-2.477684
		c-0.0125427,0.06073-0.026474,0.1160431-0.0386658,0.1774292c-0.0739594,0.3694687-0.1431732,0.7077103-0.208313,1.0213928
		c-1.4558258,0.985054-3.0483246,1.7619629-4.6164398,2.531456c-1.7584381,0.8624191-3.597641,1.6159515-5.5046539,2.0337524
		c0.0983887,0.3474121,0.1943817,0.6849899,0.2870026,1.0108643c1.8826294-0.4011917,3.6943054-1.1184235,5.460907-1.9297714
		c1.3577576-0.6235733,2.7253418-1.2860184,4.0288391-2.0537643c-0.0593719,0.2639236-0.1146851,0.5044785-0.1665955,0.7283859
		c-2.7786255,1.8885651-5.923996,3.016304-9.1942291,3.70755c0.0994263,0.3472443,0.1940613,0.6773529,0.284317,0.9876251
		c2.9957428-0.6200256,5.9080353-1.5954208,8.5479126-3.1326523c-0.0159454,0.0729599-0.0322418,0.1458817-0.0478363,0.2194977
		c-0.025116,0.1175613-0.0549622,0.2522507-0.088562,0.3945923c-2.4668274,1.6808853-5.2671509,3.0562897-8.1075287,3.5594482
		c0.1452179,0.4917603,0.265976,0.8895493,0.355896,1.1684418c2.4898987-0.5060349,4.9482574-1.6341171,7.1823425-3.0369644
		c-0.1272278,0.2719116-0.2754669,0.5465469-0.4549408,0.8161011c-2.0251007,1.2564926-4.2409058,2.2099991-6.5197601,2.7776031
		c0.1696167,0.367424,0.3413086,0.522995,0.6378174,0.5216293c-0.1825256,0.0527496-0.3335114,0.080574-0.4603882,0.0773392
		l2.5187378,9.0069504l8.2049103-8.4977112l-0.6520844-17.2538986
		C176.4589386,102.6706161,176.3673248,102.9808884,176.2560577,103.3354263z"/>
	<path id="XMLID_107_" fill="#BCA064" d="M198.0901337,89.8536682c-0.7816772-8.2510529-3.1701355-12.4634323-4.5597839-15.3295822
		c-1.3896484-2.8661575-2.5187378-4.8637772-6.3402863-10.0749664c-3.6084595-4.9211006-6.5428162-9.2354431-8.1641846-10.8566437
		c-1.6210327-1.6212006-8.9167023-5.9204292-14.243927-8.8155937c-5.3268738-2.8951607-14.5187225-4.2848129-19.4985352-4.5163612
		c-4.9794617-0.2315521-17.7902985,1.6213722-23.1171722,3.1267128c-5.3268814,1.5053368-6.2391815,1.606781-6.6008377,1.8529243
		c0.2008362,0.2488518,1.9229584,0.5918503,2.0987167,0.8829498c0.1411209,0.2336006-1.106369,0.4161301-1.9830322,0.6223869
		c-1.9687881,0.4631004-6.4851532,3.1267128-10.6540985,5.5586014c-4.1689529,2.4318886-8.4535904,6.1377411-11.1172028,10.4223785
		c-2.663269,4.2846413-4.5163651,10.4223747-5.3268814,13.4333992c-0.8105087,3.0110245-3.2424011,10.8854828-4.8637772,14.707016
		c-1.6213684,3.8215408-1.5053329,9.3801422-1.5053329,10.5382462c0,1.1580963,1.1579208,1.6212006,1.7370605,2.6634369
		c0.5791321,1.0422363,0.4199829,3.1991501,0.1879501,3.5465622c-0.2313766,0.3474121-0.8827744-1.6936417-1.5775986-3.0832901
		s-1.042244-3.010849-0.8108673-6.7166977c0.2317276-3.7058487,1.5056915-8.1061783,2.0844803-9.8432465
		c0.5791321-1.7370605,2.7792969-8.4537582,4.2849884-14.0123596c1.5056458-5.5586014,5.9060135-13.0858192,7.643074-15.4020157
		c1.7370605-2.3162003,6.8322144-5.5586014,9.4958267-7.063942c2.6636124-1.5053368,7.9904938-4.7480888,7.9904938-4.7480888
		l0.159111-1.317215c0,0-6.021698,3.2714119-9.0327225,4.7769241c-3.0106812,1.5055122-5.1385803,3.647831-8.7287445,7.1219597
		c-1.2970276,1.2553024-2.3345108,2.5044975-3.1939011,3.7253723l-0.9594498-0.5849037
		c-0.2795639,0.3665886-0.5580826,0.7441864-0.835289,1.1362152l1.0171204,0.6200256
		c-0.2412033,0.3850708-0.4664688,0.7662201-0.6781845,1.1431618l-1.091774-0.6654701
		c-0.2561493,0.3857346-0.5085754,0.7813301-0.7589569,1.182003l1.1898193,0.7253647
		c-0.1414719,0.2807388-0.2788696,0.559433-0.4088058,0.8334045l-1.26548-0.7701416
		c-0.2402039,0.3998337-0.4759903,0.8049164-0.7077179,1.2132339l1.3845825,0.8427505
		c-0.0593796,0.1336823-0.1190948,0.2675095-0.1767654,0.3989716c-0.1177368,0.2673645-0.2415543,0.5650635-0.367775,0.875824
		c0.0054245-0.013237,0.0101852-0.0271301,0.0156021-0.0401917l-1.4995728-0.912796
		c-0.2225494,0.414566-0.4417343,0.8303528-0.6524048,1.2467957l1.6329041,0.9939117
		c-0.1113052,0.2948074-0.223938,0.598793-0.3379211,0.911438l-1.9243546-0.6174545
		c-0.2042465,0.4320374-0.3996658,0.8610611-0.5869217,1.2869873l2.0400391,0.6544571
		c-0.1442108,0.4139099-0.2883835,0.8337555-0.4312363,1.2575302l-2.1292572-0.6831207
		c-0.180481,0.4459381-0.3477249,0.8834381-0.5034714,1.3134613l2.1916809,0.7033081
		c-0.0970306,0.2977295-0.192009,0.5935516-0.285675,0.8875351l-2.2140579-0.7104263
		c-0.1465759,0.4337463-0.293808,0.8783646-0.4423981,1.3331604l2.2367859,0.7175369
		c-0.134697,0.4383392-0.2636185,0.8649979-0.3837204,1.2729645l-2.2608948-0.7253647
		c-0.1394119,0.4395142-0.279213,0.8854828-0.4193268,1.3404541l2.2927856,0.7357178
		c-0.0074692,0.027832-0.0166016,0.0585022-0.0240707,0.0859833c-0.0702515,0.2537842-0.1452179,0.5311279-0.2235947,0.8240967
		l-2.3640442-0.595253c-0.1333313,0.4430923-0.2666397,0.8927841-0.3996582,1.3477554l2.4054489,0.6057816
		c-0.1068649,0.4111938-0.2178268,0.8420563-0.3311539,1.2871628l-2.4430771-0.615097
		c-0.1272202,0.446846-0.2537842,0.8970566-0.3799667,1.353035l2.4390106,0.6139145
		c0.0793839-0.2622604,0.16082-0.526886,0.2415543-0.7908478c-0.8593597,3.3989792-1.8262787,7.4464722-2.3029633,9.750267
		c-0.2700729,1.3058548-0.6276703,3.137413-0.9367218,5.098732c0.0166016-0.1844025,0.0315399-0.3727036,0.0488434-0.5545349
		l-2.6629181-0.5447159c-0.0861893,0.4610901-0.1713409,0.9218292-0.2527771,1.3818741l2.7386169,0.5603027
		c-0.0471802,0.3209457-0.0926514,0.6435852-0.1357346,0.9667511l-2.8121948-0.307045
		c-0.0128937,0.0768433-0.0271378,0.1541824-0.0400238,0.2310257c-0.0651398,0.3979645-0.1224976,0.7813644-0.1757584,1.1581039
		l2.8580246,0.3119736c-0.0488815,0.4468079-0.0916138,0.8893738-0.1269073,1.3234711l-2.8990555-0.3165283
		c-0.0529099,0.483284-0.0953293,0.94944-0.1262131,1.3989944l2.9387589,0.3207626
		c-0.0145874,0.3637085-0.0207062,0.7150116-0.0190048,1.0541229l-2.9831924,0.2827911
		c-0.0037155,0.4870071,0.0074692,0.9557037,0.0335922,1.4074402l3.01474-0.2858124
		c0.0098343,0.0993881,0.0203629,0.1979523,0.0325928,0.2929382c0.0437393,0.3382645,0.1099167,0.6797409,0.1954193,1.0206909
		l-3.120285,0.2960358c0.063118,0.4785233,0.1465683,0.9387436,0.2459641,1.3872528l3.3143539-0.3141632
		c0.1265259,0.3248596,0.2663269,0.6453171,0.4166183,0.9579544l-3.1715012,1.2805634
		c0.1587677,0.4388504,0.3351898,0.8708878,0.5313034,1.3002548l3.3123016-1.3372574
		c0.2432556,0.4035873,0.4977036,0.7823715,0.7538452,1.128952l-3.4717636,1.4016724
		c0.2181778,0.4073029,0.4505615,0.816452,0.7002487,1.2320633l3.7248535-1.5039825
		c0.233429,0.236969,0.4573364,0.4340897,0.664978,0.5843811l-3.5144958,2.3101196
		c0.2483368,0.380661,0.5075378,0.7687454,0.7789688,1.1685944l4.6059265-3.0274582
		c0.8366394,0.0305328,1.555542-0.0480118,1.7920303-0.1267395c0.3474121-0.1156845,0.6948242,0.3474121,1.2742691,1.2737885
		c0.5788269,0.9263763,0.4627914,2.0844803,3.0107117,5.2111893c2.5478897,3.1267166,3.4741287,3.7058487,4.7477417,5.3268738
		c1.2739639,1.621376,1.969101,3.8215408,3.9375763,6.9482498c1.9684372,3.1267242,5.789978,6.9482574,8.4539032,9.4961853
		c2.6632996,2.5479126,7.1796646,6.8325653,10.0749664,8.3378906c2.8950195,1.5053406,7.9904861,2.3162079,11.9273987,3.8215485
		c3.9375763,1.5053406,11.580658,0.5791321,15.6335754,0.23172c4.0532532-0.3474121,7.2956543-2.3161926,9.380127-3.358429
		c2.0844879-1.0422516,6.4851532-2.5475769,9.3801422-3.4741364c2.89534-0.9265442,5.2111969-2.6636047,7.9904938-4.6320496
		s5.558609-5.0955048,7.5273895-7.4116974c1.9687805-2.3162079,4.0532684-5.6742859,5.3268738-7.7587738
		c1.2739716-2.084465,3.126709-4.5163574,4.6324005-7.4115219c1.505661-2.8951569,1.8527527-4.0532608,2.663269-5.7903214
		c0.8108521-1.7370682,1.1582642-4.2846375,1.3896484-7.063942c0.23172-2.7792969,1.1582794-4.0532608,1.3896484-6.9482498
		c0.23172-2.894989-1.1579285-4.2848129-1.1579285-6.7167053c0-2.4318848,0.1156921-5.2111893-0.1156769-7.643074
		c-0.2314148-2.4318848-0.8108673-4.4005051-1.6213837-5.6744614c-0.8105164-1.2739639-0.9265442-2.2001648-1.8527527-4.5163651
		c-0.926239-2.3162003-1.7370605-2.6634369-2.7792969-4.2846375s-1.2739563-2.5477524-3.0110321-5.790329
		c-1.7370605-3.2425728-3.0110168-5.0953255-4.2846375-6.4849739c-1.3326721-1.4537506-2.4318848-1.7370644-3.5901642-2.6634407
		c-1.1579132-0.9263763-3.0106659-2.5477486-4.7477264-4.2848129c-1.7370758-1.7370644-3.5901642-2.5475769-5.9060211-2.6634369
		c-2.3158875-0.1158638-5.6746368-1.1581001-8.1065216-2.2003403c-2.4318848-1.0422363-5.6743011-3.7056732-7.6430817-4.4005013
		c-1.7662506-0.623394-3.5033112-1.2238998-4.64328-1.67939c-0.1465302-0.058506-0.4104919-0.0999184-0.7351837-0.1294136
		c4.2982178,0.2469749,8.3395996,0.9616394,11.2844849,1.7797966c4.6900635,1.3027954,13.2016754,6.2534256,15.025589,7.556221
		c1.8239136,1.3027992,8.5116119,6.6876945,10.2486725,8.9458771c1.7370605,2.2581787,4.1689453,6.5139809,5.2111816,8.4247551
		c1.0422363,1.9107666,3.1267242,3.5175476,5.645462,8.989296s2.1713257,9.0761566,2.4318848,11.0737762
		c0.2605591,1.9976273,1.1290894,9.2932892,0.7816772,13.3753891c-0.3474121,4.0820923-0.9553833,6.8613968-1.9976196,10.5960846
		c-1.0422363,3.7346802-1.6502075,5.5586014-3.213562,8.5984573c-1.5633545,3.0398636-1.5633545,2.7793045-3.6478424,6.1665726
		c-2.0844727,3.3872681-5.6454468,8.4247589-6.6008301,9.4669952s-1.9976196,1.8239136-3.7346954,3.7346802
		c-1.7370605,1.9107666-3.039856,3.9952545-5.1243286,5.384903s-3.8215332,0.9553833-7.6430817,2.7792969
		c-3.8215332,1.8239136-3.8215332,3.5609741-10.9434967,5.8191681c-7.1219482,2.2581787-15.4598541,1.6502075-18.6734161,1.4765015
		c-3.2135773-0.1737061-4.2558136-0.8685303-7.9036407-1.6502075c-3.6478348-0.7816925-8.1641998-2.4319-10.5092316-3.8215485
		c-2.3450394-1.3896484-2.8661575-2.8661499-4.6032181-4.1689453s-4.0820999-3.039856-5.1243362-4.0821075
		c-1.0422363-1.0422363-1.8239136-2.1713257-4.6032181-5.9928589c-2.7792969-3.8215332-7.0785294-9.4669952-8.6418839-12.2462921
		c-1.5633621-2.7793045-5.1677628-5.4717484-5.6888809-5.2111893c-0.3097534,0.1548767,0.0875092,0.5567627,0.6422272,1.1296082
		l-3.6976852,2.6522522c0.2856369,0.3693008,0.574028,0.738739,0.8644257,1.1083832l3.7726974-2.7056808
		c0.0837936,0.1089172,0.1659241,0.2196655,0.2422485,0.3341751c0.0776825,0.1163864,0.1798172,0.2612534,0.29245,0.4178314
		l-3.7089081,2.711937c0.2910995,0.367424,0.5828552,0.7341919,0.8753052,1.1002579l3.6716003-2.6849747
		c0.2507248,0.3304596,0.5224686,0.685997,0.8067932,1.0564804l-3.6464767,2.6666718
		c0.2948151,0.3670654,0.5882721,0.7324829,0.8807297,1.0961914l3.6213531-2.6480179
		c0.1896591,0.247673,0.3793106,0.4956894,0.5659027,0.7409592l-3.602356,2.6347733
		c0.2958603,0.3681183,0.5889664,0.7335052,0.8797226,1.0968628l3.5684433-2.6100082
		c0.2890854,0.3881226,0.5537109,0.7501297,0.7826843,1.0741196l-3.5222778,2.5761108
		c0.295166,0.3718262,0.5849075,0.7399139,0.8698883,1.1039734l3.4520645-2.5241699
		c0.1567535,0.2215424,0.3395996,0.4766541,0.5431824,0.7579193l-3.4215317,2.5021362
		c0.2914124,0.3772583,0.5763931,0.7497864,0.8529053,1.1165161l3.3967896-2.4841461
		c0.2479782,0.3365784,0.512291,0.694519,0.7901535,1.0687103l-3.3950882,2.4827881
		c0.2157745,0.2958527,0.4274902,0.588623,0.6293335,0.8753052c0.0610809,0.086853,0.1262207,0.1771088,0.1896591,0.265976
		l3.4157944-2.4980316c0.185585,0.2473297,0.3755493,0.500412,0.5676041,0.7555542l-3.461937,2.4624176
		c0.2663269,0.3623657,0.5485992,0.7375946,0.8441086,1.1236725l3.4642944-2.4644623
		c0.2656326,0.3508148,0.5343552,0.7043304,0.8043976,1.0588684l-3.4524078,2.4559631
		c0.2839737,0.3596497,0.578125,0.7267151,0.879715,1.0979004l3.4242706-2.4356384
		c-0.024765-0.0335693-0.0447769-0.062439-0.0691986-0.0953369c0.7881012,1.0273285,1.5697784,2.0359802,2.2995529,2.9638824
		l-3.2305145,2.450882c0.306694,0.3524933,0.6167908,0.7050171,0.9306107,1.056839l3.1721878-2.4064636
		c0.193718,0.2429199,0.3809738,0.475647,0.5614929,0.6992493l-3.0510864,2.4654846
		c0.3158722,0.3474121,0.6337891,0.6931152,0.9537201,1.0354156l2.9913254-2.4176025
		c0.2832794,0.3355255,0.5713196,0.6707153,0.8708954,1.0055847l-2.9458542,2.3802948
		c0.3284149,0.3419952,0.6571655,0.6785736,0.9855804,1.0093384l2.9194107-2.3589325
		c0.1519928,0.1584167,0.3036346,0.3172302,0.4600449,0.4749908l-2.3117905,2.9394226
		c0.3436966,0.3324738,0.6849899,0.6564941,1.0239258,0.9703217l2.302269-2.9272308
		c0.320282,0.2999115,0.6490402,0.5977936,0.9883194,0.8932953l-2.3026505,2.9275513
		c0.3623505,0.318924,0.7192535,0.6235962,1.0700684,0.9119568l2.3080673-2.9350128
		c0.1930237,0.1553955,0.3932037,0.3080444,0.5920258,0.4613953l-1.7587738,3.3693085
		c0.2639313,0.1970978,0.5244904,0.3857422,0.7772675,0.5580902c0.1275711,0.086853,0.2557983,0.1682892,0.3837128,0.2530823
		l1.7397766-3.333313c0.3592606,0.2544403,0.7290802,0.5051727,1.1073761,0.7521515l-1.7214661,3.2973938
		c0.4040756,0.2462769,0.8084641,0.4851227,1.2135849,0.7104187l1.7034683-3.2631073
		c0.2649689,0.1587677,0.5309525,0.3168793,0.8050919,0.4715881l-1.6875534,3.2329102
		c0.4196701,0.2188416,0.8396912,0.4247437,1.2593689,0.622879l1.6658401-3.1904602
		c0.388443,0.2001343,0.7860947,0.3959045,1.1921844,0.587616l-1.6437454,3.1487274
		c0.4362793,0.1865997,0.8722458,0.3647156,1.3071747,0.5312958l1.6190109-3.1008911
		c0.2598953,0.1105804,0.5204544,0.2184906,0.7820282,0.3215942l-1.0989075,3.2488708
		c0.4475021,0.1526794,0.8933029,0.2978668,1.3370514,0.4315491l1.0792389-3.1904907
		c2.076004,0.7229614,4.1655502,1.2349396,6.1394119,1.6077881l-0.4125519,3.0415649
		c0.4712677,0.0647888,0.9353638,0.1207886,1.3937378,0.1719971l0.4030457-2.9709625
		c0.3165588,0.0515594,0.6296844,0.1004028,0.9377289,0.1455231l0.0370026,2.9625244
		c0.4780426,0.0423889,0.9468994,0.0786896,1.4059448,0.1102448l-0.0366516-2.8821106
		c0.4583435,0.0573578,0.9031372,0.1089172,1.3319702,0.1554108l0.0352631,2.806778
		c0.4817963,0.025116,0.9503174,0.0464783,1.4052887,0.0647888l-0.0349426-2.7290649
		c0.3249969,0.0312042,0.6361084,0.0596924,0.934021,0.0865021l0.0342407,2.6782074
		c0.4868774,0.0173035,0.9570923,0.0335541,1.4049072,0.0498505l-0.0328979-2.599823
		c0.3962555,0.0373077,0.8437653,0.0739594,1.3306274,0.1085663l0.0322418,2.5336761
		c0.4831085,0.0128937,0.9519806,0.0223694,1.404892,0.0284882l-0.031189-2.4756622
		c0.3134613,0.0166473,0.6364594,0.0322418,0.9675751,0.0461731l0.1000824,2.437973
		c0.4861755,0.0013428,0.9550476-0.0006714,1.4052582-0.0067749l-0.0976868-2.3827057
		c0.436615,0.0118866,0.8814087,0.0207062,1.3312836,0.0257874l0.0953217,2.3270721
		c0.491272-0.0152893,0.9584503-0.0352936,1.403244-0.0593719l-0.0926208-2.2629395
		c0.3107605-0.001709,0.6222076-0.0051117,0.9326172-0.0108795l0.0909576,2.2147522
		c0.4970093-0.0359497,0.9642029-0.0769806,1.4004822-0.1231232l-0.0875092-2.1330109
		c0.449173-0.0179901,0.8929596-0.0410614,1.3278809-0.0698853l0.0834808,2.036972
		c0.5143127-0.0756683,0.9777679-0.1580963,1.3954163-0.2452698L150.6469574,157.25
		c0.3239899-0.0328979,0.6391602-0.0702057,0.9452057-0.1112671l0.094635,1.7913513
		c0.5625305-0.1523285,1.0157623-0.3124542,1.3818665-0.4702148l-0.0821381-1.5535278
		c0.2039032-0.0417175,0.4027252-0.085144,0.5913696-0.1323242c0.2541046-0.063446,0.4943085-0.1282349,0.7229614-0.1940765
		l0.0577087,1.0955353c0.1757202-0.1587982,0.2720947-0.2795563,0.3487701-0.3369141
		c0.234436-0.1757202,0.5584259-0.2629242,1.0157623-0.4559784l-0.0403595-0.7670898
		c0.3348236-0.1309357,0.6405182-0.2656403,0.9231415-0.4037323l0.05867,0.6880493
		c0.2483673-0.1509857,0.520813-0.3348694,0.8220825-0.5665894c0.1513062-0.1163483,0.3256989-0.2273254,0.5109406-0.3351898
		l-0.0471802-0.551651c0.4217224-0.2707367,0.8251038-0.551651,1.262085-0.8431091l0.0661774,0.7759247
		c0.4345856-0.1811829,0.8966827-0.355896,1.3648834-0.529953l-0.0919647-1.0774994
		c0.2561493-0.1455688,0.5309601-0.2931366,0.8295288-0.4424286l0.1401062,1.1911774
		c0.467514-0.1770782,0.9241943-0.3585968,1.3492889-0.5492554l-0.1465454-1.2434235
		c0.413208-0.1679535,0.8400116-0.3301239,1.2807312-0.4905853l0.1248627,1.0578308
		c0.4458008-0.2944946,0.8973694-0.5506439,1.3231201-0.7691345l-0.0912628-0.7725067
		c0.3379211-0.1190948,0.6839905-0.242569,1.0334473-0.3687744l0.0519104,0.67276
		c0.7263641-0.3138123,1.2305298-0.4722748,1.2305298-0.4722748v-0.6785278
		c1.7611389-0.6819305,3.6386566-1.5311279,5.5728455-2.7955933c1.4049072-0.9183807,2.9428253-2.6646271,4.4295044-4.3426514
		c3.2936096-3.7166901,6.6381531-8.5526428,9.5104218-12.2028809c4.1689606-5.2980347,7.3309326-11.3813019,9.8578339-17.4574738
		C199.0889435,108.700798,198.8718109,98.1047134,198.0901337,89.8536682z M138.8128662,42.1712875
		c2.1177216-0.2144203,4.2927704-0.2625732,6.4264374-0.1894798c-1.0612488-0.0176468-2.1126099,0.0157738-2.1126099,0.0157738
		s0.1618195,1.1759224-0.5330048,3.0288467s-1.2878571,2.9209404-3.9514771,4.0790405
		c-2.6636047,1.1581001-4.9041443,0.4953423-8.0308533-0.6627579c-2.0397034-0.7555542-3.8242874-2.3199158-4.555069-3.6079826
		C126.0183182,44.7684059,131.9514618,42.8661118,138.8128662,42.1712875z M115.3625183,65.3610764
		c1.8259277,0.096199,4.0865097,0.7423096,5.7221222,1.3170395c-0.9859161-0.0401917-1.9708328-0.0978622-2.9506454-0.1786041
		c-2.105835-0.1733551-4.2771683-0.5224686-6.3141479-1.2147598
		C112.8966827,65.2674484,114.1235046,65.2959366,115.3625183,65.3610764z M117.1877823,67.5100327
		c2.5937195,0.2966919,5.2437439,0.4011917,7.8744583,0.3328247c0.9594498,0.2653198,1.826622,0.56353,2.4610672,1.0067673
		c-2.9971237,0.0754929-5.9735107-0.0059433-8.968277-0.3221207c-0.7918625-0.0834503-1.6216888-0.1798325-2.4203568-0.3073959
		c-2.6883469-0.4288406-5.483284-1.1189117-7.9331284-2.2790222c0.0481491-0.0602417,0.0926132-0.1123199,0.1258621-0.1457443
		c0.1614761-0.1614761,0.5821991-0.2810898,1.1833572-0.3643646
		C111.8931503,66.6160355,114.5682602,67.2106323,117.1877823,67.5100327z M176.2906647,68.7922974
		c0.2744904,2.2155914,0.163208,4.4788818-0.3955688,6.870224c-0.6659851,2.8505554-2.3019562,5.7484283-4.1174011,8.1650314
		c-0.6259613,0.1525116-1.2977142,0.2675018-1.9962616,0.3484497c1.3051605-1.3840561,2.478714-2.9579391,3.4072876-4.7350235
		c1.7312927-3.3085861,2.7575836-6.3876343,3.006958-10.4503784
		C176.2296143,68.9218826,176.2621765,68.8548965,176.2906647,68.7922974z M174.8199158,70.9096756
		c0.0563202-0.042244,0.1156921-0.0820923,0.1679382-0.1268768c-0.4006653,3.1000671-1.3119354,5.6513977-2.7131195,8.3969269
		c-1.0205231,2.0010223-2.4481812,3.6863174-4.0240784,5.1197433c-0.811554,0.0395432-1.6363068,0.0412445-2.4485168,0.0108795
		c1.7211151-1.3328476,3.3248291-2.9319839,4.7365417-4.7380829
		C172.4087372,77.1848068,173.8333435,74.1112213,174.8199158,70.9096756z M173.4367371,71.5733032
		c-0.9397888,2.6809082-2.2086487,5.2259521-3.8090057,7.3154984c-1.5979614,2.090416-3.5402679,3.8978653-5.6179657,5.3017578
		c-1.0395355-0.1004028-2.015274-0.2490234-2.8600464-0.4327316c2.8003235-1.3031158,5.4395142-3.2091599,7.6858063-5.5843811
		c1.6821136-1.77285,3.0602264-4.0425644,4.1204529-6.4839706
		C173.1215668,71.6562271,173.2823792,71.6179123,173.4367371,71.5733032z M171.8883209,71.8201065
		c-0.9452057,1.9618378-2.1170654,3.7838745-3.5073853,5.2895584c-2.5442047,2.7640533-5.8378448,4.8795547-9.1535187,6.0749588
		c-0.3399353-0.1443481-0.6100159-0.2961655-0.7857361-0.452919c-0.0817871-0.0727463-0.1628723-0.1565781-0.2439575-0.2450943
		c3.0619202-1.1017838,5.9949188-2.7475815,8.5832062-4.8380051c1.9131317-1.5389328,3.5613251-3.5696259,4.8973694-5.8152695
		C171.7502136,71.8313217,171.8177185,71.824028,171.8883209,71.8201065z M170.3812714,71.7814331
		c-1.3876343,2.1966248-3.0985718,4.1686096-5.0720825,5.670578c-2.3430176,1.7904892-5.0222321,3.1774292-7.7848969,4.1229477
		c-0.2785492-0.4502106-0.5513306-0.9808121-0.8176575-1.5685959c3.6464691-0.887886,7.2322235-2.6308899,10.2917786-5.1153412
		c1.0937958-0.8834686,2.0983734-1.9613266,3.0049133-3.1587753
		C170.1298523,71.7495346,170.2570801,71.7687225,170.3812714,71.7814331z M160.2655945,59.802475
		c1.310257-0.2349167,1.3401031-0.2349167,1.3401031-0.2349167s0.0380096,0.2905731,0.1187439,0.7719841
		c-0.0166321-0.0943222-0.0322418-0.1840591-0.0457764-0.2644577c-1.0694122,0.1908417-2.1526794,0.3041649-3.2207031,0.378479
		C159.2267303,60.1224098,159.8913574,59.8694916,160.2655945,59.802475z M151.5802765,58.7892494
		c0.4688721,0.0345993,2.2018738-0.4966965,3.9362183-0.6218681c0.0390167,0.7416534,0.0848083,1.307373,0.001358,2.4747925
		c-1.7058716,0.4308968-3.5331879,0.637989-5.384903,0.9263763c0.9937134,9.5158386,2.0624237,18.5770874,4.4003296,27.2138672
		c0.1960907,0.0537796,1.0378265,0.0454788,2.2697144,0.0234146l-5.2872009-24.9265022c0,0,2.0288544-1.3387566,2.5397949-1.5973015
		c0.0390167-0.0198364,0.1272278-0.0602036,0.2479858-0.1145058c0.0397034,0.0537796,0.0814362,0.1060295,0.1255493,0.1571007
		c-0.0518951,0.0339088-0.1062012,0.0768471-0.1618195,0.1233292c0.4450989-0.2242546,1.0469666-0.5243492,1.7004089-0.8417435
		c0.3548889-0.0050735,0.7107697-0.007122,1.0632629-0.0190048c1.5775909-0.0557938,3.2223816-0.1755486,4.8329163-0.4727592
		c0.0247803,0.1291008,0.0515594,0.2653198,0.0803986,0.4062653c-1.8069611,0.55336-3.679718,0.9351921-5.4456177,1.1567459
		c-0.6527557,0.0812569-1.3102722,0.1519928-1.9704895,0.2176514l0.2164612,0.7940483
		c0.8539429-0.0693779,1.704483-0.1516457,2.550293-0.2547913c1.5955963-0.1954231,3.240036-0.5494347,4.8366394-1.0476608
		c0.0373077,0.1635284,0.0773315,0.3318138,0.1194153,0.5032997c-1.7767487,0.6425743-3.6152496,1.0833015-5.3679199,1.3290977
		c-1.2844849,0.1801682-2.5876312,0.302803-3.9016113,0.3884735c0.026123,0.1811752,0.0790405,0.5348434,0.1564026,1.0238953
		c3.2105103-0.2288132,6.4423828-0.7141495,9.3807983-1.7194138c0.0651398,0.2325897,0.1326752,0.4673386,0.2059479,0.7048264
		c-2.9458771,1.0846634-6.2395325,1.5806503-9.4659882,1.7589569c0.06073,0.3681183,0.1306305,0.7803192,0.2093506,1.2262878
		c3.277359-0.2707367,6.5994873-0.8381653,9.5836945-1.9928589c0.0973816,0.2756348,0.2015381,0.5497818,0.3104553,0.8213577
		c-3.0544586,1.1623383-6.4610748,1.723999-9.7645569,1.896698c0.0726013,0.4003525,0.1513367,0.8208618,0.2361298,1.2576675
		c3.3574371-0.337059,6.8027191-1.01577,9.9124451-2.2688522c0.0627899,0.1345139,0.1272278,0.2675095,0.1937561,0.3984528
		c-2.9950714,1.5506363-6.4353027,2.4264679-9.9134827,2.8454819c0.0773621,0.3820114,0.1584473,0.7721558,0.2436066,1.1677551
		c3.5239716-0.5311203,7.0645905-1.4859848,10.1814728-3.1007614c0.1007538,0.1615143,0.2049408,0.3172226,0.3118134,0.4676895
		c-3.045639,1.9129562-6.6975708,3.008316-10.2917938,3.5497894c0.0848389,0.3764267,0.1730499,0.7553787,0.2643127,1.1348572
		c3.8717346-0.5727081,7.5931854-1.7711792,10.6212006-3.9546967c0.1523132,0.1628265,0.3094025,0.3160019,0.4732819,0.4520493
		c-3.0765076,2.3711624-6.8899231,3.7961121-10.8525848,4.4790497c0.0838013,0.3287582,0.1696472,0.6561508,0.2585144,0.9803314
		c4.2653198-0.6994095,8.363678-2.2251053,11.6291809-4.8347702c0.184906,0.0722656,0.3677368,0.1360474,0.5506134,0.1994858
		c-0.7446747,0.6921082-1.5355225,1.3190918-2.3684387,1.8519211c-2.8569946,1.8395157-6.2727509,3.0749817-9.5487518,3.7129669
		c0.1065216,0.363533,0.2157898,0.7206039,0.3277283,1.0690231c3.4639435-0.7217789,6.8478394-2.0435791,9.8575134-3.9996567
		c0.9950562-0.6422272,1.9317932-1.4254303,2.7972565-2.3076859c0.1299438,0.0340805,0.2588654,0.0658035,0.3871307,0.0955048
		c-0.8403931,1.05513-1.7652435,2.009819-2.7704773,2.811676c-2.8922882,2.3180771-6.3548737,3.8836212-9.8008575,4.711441
		c-0.2181396-0.5431519-0.4308624-1.1202698-0.6368103-1.720253l2.5255585,11.4549255
		c4.3928528-0.0768127,11.5592499-0.1297607,15.000473,1.1233215c0.5374146-0.0464478,2.0315247,0.0196915,3.5843964,0.1348648
		l2.2425385-21.4642563c-0.9407959,4.0495453-3.0558014,13.2379837-4.8511963,14.3307648
		c-0.233078,0.1418152-0.4885712,0.2705688-0.759964,0.3891373c1.5002289-2.302269,2.7535248-4.895668,3.3428345-7.4902115
		c0.7962341-3.5046616,0.9224548-6.8461456,0.0335693-10.0424118c-0.0071259,0.0403671-0.0159454,0.0846634-0.0230713,0.1258621
		c-0.0610809-0.1664047-0.121109-0.4291534-0.1940613-0.5563812c0.1879425-0.8795776,0.1363831-0.9999924,0.137085-1.0168076
		l0.0909119-1.3328094l3.5867615,2.896347l-1.7652435,24.319397c1.2264709,0.1219406,2.2388763,0.2612152,2.4994354,0.3799667
		c0.1601105,2.8661499-0.0983887,5.1859283-0.289093,7.7009201c-0.9241486-0.1214523-1.5205841-0.3455353-2.2639465-0.6478195
		c-0.0661469-0.0035782-0.1278839-0.0081635-0.1930237-0.011879c0.269043,3.2208557,0.9638672,11.5911713,1.0687103,13.3246613
		c0.1302795,2.1569061,0.1445313,8.1786118,0.1445313,8.1786118l-0.7843933,1.0597153l0.0020142,0.038002l-11.8439178,11.9256744
		l-0.4485016-1.6413879l1.3360443-1.2145996l-9.011673-32.2333527c-0.3148651,0.0281448-0.5717163,0.0680237-0.7613678,0.1222916
		c-0.059021,1.8551483,0.5530243,4.7850876,0.8102112,6.5428238c0.7158356,4.9123077,1.0462952,8.7996445,2.2622375,13.2915878
		c1.3408051,4.9611511,2.4176483,11.0305252,3.5365601,16.5022659c1.1881104,0.295166,2.9184113,0.0481873,4.3216095,0.1282349
		c0.4756775,1.866333,0.9967957,3.1979675,1.1128235,4.529953c-4.4586945,0-11.6739655,0.3996582-17.0900574-0.0759888
		c-0.1910095-1.2614136-0.1944122-3.3696594-0.2643127-4.32164c1.2335968-0.2951508,3.008667-0.0488434,4.4539642-0.1323242
		c-2.3345337-10.4533997-4.9017792-21.9645004-7.249527-32.5276871c-0.5791321-2.6055908-0.78508-3.6293106-1.0422363-4.7479095
		c-3.1752472,0.309082-7.0642853-0.2895737-10.3647003-0.1158676c-0.4077911,1.8319092-1.5151672,6.7299423-1.9060059,8.6064529
		c0.0013428,0.0006638,0.0027008,0.0017014,0.0040588,0.0023651c-0.1092682,0.2690277-1.1161957,2.7840576-2.4393616,6.0861816
		c0.909256-1.8815842,1.783905-3.5791473,2.4736176-4.8203506c-0.1533508,0.2765045-0.3151703,0.5748901-0.4855042,0.8949738
		c1.1677856-0.6759949,2.4040833-1.1886139,3.7248535-1.5748901c1.3479156-0.3942108,4.0939789-1.181488,5.8890533-0.8593597
		c0.145874,0.3384094,0.2829285,0.6855087,0.413559,1.0344086c-3.5948792,0.0381927-7.1942139,0.6678772-10.4427338,2.1912079
		c-0.265976,0.5122986-0.5434875,1.0583572-0.8301849,1.6344376c3.5531769-1.9740677,7.6637878-2.6497116,11.7133026-2.5898209
		c0.110611,0.3224716,0.2174835,0.6383362,0.3219757,0.9431534c-4.1930542-0.0415497-8.3321381,0.4378433-12.2296906,2.0395203
		c-0.2449493,0.4963531-0.4939728,1.0091629-0.7450256,1.5346985c4.2530975-1.9608002,8.8033752-2.4349442,13.4242401-2.3153305
		c0.0946655,0.2559738,0.1957703,0.5251846,0.3026276,0.8062744c-4.7565613-0.3986588-9.6315308,0.293808-14.0315399,2.1504517
		c-0.2350922,0.499054-0.4698792,1.0050964-0.7029572,1.5149918c4.7029572-2.1988144,10.0844574-2.9480743,15.2254333-2.3967667
		c0.1031342,0.2627869,0.2093048,0.5316467,0.318573,0.8059235c-5.3971252-0.2371368-10.8430939,0.5284195-15.901947,2.3828735
		c-0.1825256,0.4073105-0.3633575,0.8145828-0.5397797,1.2201843c5.3231659-2.078186,11.1633453-2.8610458,16.8844604-2.4999084
		c0.08992,0.2224121,0.1808319,0.4466629,0.2731018,0.6729355c-5.8808899-0.3684311-11.8635712,0.4571915-17.4143982,2.4251175
		c-0.2208557,0.5161819-0.4335632,1.0264587-0.6364594,1.5263901c5.8860016-2.2452927,12.277832-3.1672592,18.5584259-2.7136765
		c0.1750641,0.4247742,0.3524933,0.8510513,0.5302582,1.2770157c-3.5789337-0.439682-7.2125244-0.4200211-10.7881012,0.1021423
		c-2.9122772,0.4254456-5.8679962,1.0345917-8.6181183,2.1292496c-0.1811676,0.4617538-0.3508148,0.9100876-0.5085754,1.3430023
		c3.0564728-1.4105301,6.5132904-2.0860062,9.7988129-2.5082245c3.5293884-0.4536057,7.100235-0.3920441,10.6123352,0.1170502
		c0.1418152,0.3363647,0.2833099,0.6707153,0.4234314,0.9999924c-3.6037445-0.2990875-7.1701508-0.3033218-10.820694,0.1698151
		c-3.3686066,0.4366302-7.0670013,1.1470566-10.4264374,2.4093094c-0.1672821,0.5084-0.3117981,0.9859161-0.4237366,1.4162979
		c3.7278748-1.6020584,8.0369415-2.3542099,11.8964844-2.8546295c3.4476776-0.4471512,6.8322144-0.3687744,10.2401886-0.0503769
		c0.1204529,0.2800598,0.2384949,0.5541992,0.354538,0.8230667c-3.6427307-0.2213745-7.3183899-0.0899124-10.9346771,0.3857651
		c-3.7974548,0.4995422-8.1197662,1.3382339-11.8086243,2.96315c-0.0318909,0.2761917-0.0356445,0.5085754-0.0115356,0.6989288
		c-0.0556488-0.3453979-0.0030518-0.857872,0.1384125-1.5019684c-1.2698975,3.1616592-2.2279892,5.5392761-2.3396149,5.7943878
		c5.6312103,0.4865112,12.920105-0.1384125,19.2501984,0c2.4074707,0.0522461,4.88414,0.0766754,6.9411316,0
		c0.2534332,0.4173126-0.0661469,1.192215-0.2605591,1.5708313c-9.1789551,0.0067902-20.4590149,0.0379944-30.6452637-0.1289368
		c-0.5801468,1.4731445-1.1952362,2.9082336-1.7024612,4.4505615c0.7423172,0.0223846,1.3272247,0.1078796,2.0950012,0.2639313
		c-0.0661469,0.9764404,0.0369644,2.4220581-0.0790329,3.6956787c-4.6324005-0.6948242-10.7603073,0.3341675-15.373703-0.4230499
		c-0.2605591-1.1813354-0.4932938-2.3864441-0.6568146-3.6654816c1.1463852-0.2951508,2.8315506-0.05159,4.193367-0.1316376
		c4.8359528-11.8400192,9.5504456-23.8013306,14.2717438-35.7524643c0.1132965-0.848175,0.2463226-1.464447,0.4023743-2.0062714
		c-8.1920242,0.0936584-16.8413773-0.4525757-24.5502548-0.9842224c-0.1621704-0.0213623-0.3182678-0.0417252-0.4709167-0.0615616
		c-0.5285873,2.1460342-1.2451248,6.3921814-1.1226273,8.4742966c0.1339951,2.2747879,1.6769943,6.7287216,2.9167023,10.3075256
		c0.3141632,0.907196,0.6126938,1.7684326,0.8705444,2.541626c1.2729568,3.8190079,4.8637772,11.2218857,4.8990707,11.2934494
		l-1.0856628,0.8685303c-0.146225-0.2961578-3.82901-7.8138962-5.1318054-11.7226028
		c-0.2564926-0.7684708-0.6788788-1.6195374-0.9913406-2.5213089c-1.3340302-3.8501968-2.7195816-8.2189865-2.8647995-10.6854782
		c-0.1309738-2.2271194,0.7932129-6.4915695,1.3218002-8.7089005c-2.9828873-0.3820114-3.7706451-0.4895401-5.0992508-1.2486649
		c0.5041656-3.0330887,1.1745682-5.8958359,2.0953445-8.5116119c0.7653885,0.0050735,1.3251724,0.1630096,1.9853973,0.3994904
		l7.6166382-19.3404236l0.8189926-2.1923828l1.7797928,0.2171326l-0.5672531,1.5155182
		c-0.12146,0.1730499-0.2585144,0.3815308-0.4067841,0.6276703c2.9245148,1.4617386,6.2860107,2.2300034,9.4690399,2.6855011
		c3.7821732,0.5413055,7.6566238,0.7350159,11.5029297,0.6371155c0.0956879,0.2605591,0.1659241,0.5460587,0.2137604,0.8541183
		c-3.6593552,0.1204453-7.3143158-0.0596848-10.921463-0.5524902c-0.7619781-0.1041565-1.5284042-0.2288437-2.2954941-0.378479
		c-2.648674-0.5153427-5.2902222-1.3126221-7.6766739-2.576416c-0.1726608-0.0912552-0.3443527-0.1867599-0.5156631-0.2844543
		c-0.1601563,0.2868652-0.3246918,0.6035614-0.4827957,0.9421539c2.8549652,1.7155228,6.3399277,2.6166077,9.509407,3.1954269
		c4.1479034,0.757225,8.2669983,1.0552673,12.472908,0.9335022c0,0.29599-0.0118408,0.6055679-0.0305328,0.9227982
		c-3.3234863-0.0461426-6.6266174-0.2895737-9.8958054-0.7670898c-0.8746414-0.1277466-1.7537003-0.2773361-2.6314087-0.4534454
		c-3.0289841-0.6047363-6.0410156-1.4953308-8.7619858-2.836792c-0.2988815-0.1474075-0.5977936-0.3055267-0.893959-0.4693909
		c-0.121109,0.2907486-0.2340927,0.5920258-0.333168,0.9004211c3.1776047,1.7748871,7.1538467,3.046669,10.4705582,3.6885529
		c3.9192352,0.7587814,7.9236526,1.1255417,11.9423141,1.1993332c-0.0332489,0.3253479-0.0692139,0.6551208-0.1082306,0.9913406
		c-3.5056992-0.0295334-6.9747162-0.3087463-10.402359-0.9301224c-0.8000259-0.1451874-1.6023712-0.3126373-2.4044113-0.506012
		c-2.7585907-0.6642838-5.494812-1.6035461-7.9654007-2.955368c-0.5652084-0.3087463-1.1409378-0.6532822-1.6644592-1.0431061
		c-0.1014404,0.3723602-0.1784286,0.7492676-0.2235565,1.1241608c2.8956451,1.9711838,6.8659515,3.2550125,10.0379715,4.0430756
		c4.6339722,1.1512833,9.1761322,1.6799316,12.4837723,1.4526062c-0.0539093,0.4637985-0.1051483,0.9311371-0.1492767,1.3986511
		c-3.287529-0.1180878-6.5319443-0.467514-9.7431488-1.14608c-0.8298645-0.1755447-1.6610489-0.3757248-2.4912643-0.6038742
		c-2.8515625-0.7833786-5.6698761-1.8542862-8.2140503-3.3338394c-0.5971298-0.3469238-1.312973-0.7465897-1.9097595-1.1983032
		c0.0010071-0.0593643,0.0003433-0.118248,0.0034027-0.1779709l-0.0532913,0.142334
		c-0.0020142-0.0015335-0.0044098-0.0030594-0.006424-0.0045853c-0.000351,0.0071182,0.0003433,0.0141068,0.0003433,0.021225
		l-0.4634476,1.2367935l-0.8787079,0.0651398l-5.2519073,13.3153381c1.3146744,0.4727707,3.2542801,1.0654907,7.1205978,1.4682083
		c6.9238358,0.6147461,14.388443,1.3017578,20.7497406,0.8573151c1.2678909-6.5451965,2.4896011-12.3331528,3.8714218-19.7149734
		c-0.1112671-0.7643738-0.0729523-1.7567596-0.0729523-2.8437805c-3.0154037-0.6602249-5.2145538,0.0678482-8.3100739-0.4322128
		c-0.4030304-1.132843-1.1222839-3.0157852-0.5244904-4.3219528
		C132.2612152,61.4372597,141.6410065,60.025898,151.5802765,58.7892494z M146.6174164,126.450386
		c-0.1054993,0.0434265-0.180481,0.124855-0.2388458,0.2198715c-1.552475-0.0183411-3.8323822-0.063118-5.6641083-0.1340256
		c1.1792908-0.3389359,2.368103-0.6476517,3.5660858-0.9000778c2.9370575-0.6191635,6.352478-0.9676132,9.4869995-0.8379974
		c0.0284882,0.1431732,0.0440979,0.2717514,0.0519104,0.3928528
		C151.3407288,125.1903534,148.8213348,125.5431824,146.6174164,126.450386z M153.2406616,126.5721893
		c-0.5927124,0.5340042-1.8496857,0.4376678-3.2105103,0.2917862
		C151.0818787,126.6814499,152.1624756,126.5891724,153.2406616,126.5721893z M140.2255859,124.0144348
		c4.0732727-0.8770142,8.7032776-1.3145065,13.0259247-0.8255997c0.0359497,0.0919266,0.0688934,0.1794815,0.1010895,0.2656326
		c-3.0011597-0.0466537-6.1648712,0.3187561-8.9692535,0.8694c-1.9908447,0.3914948-3.9535217,0.9923553-5.8856506,1.602684
		c-0.4549713,0.1435165-0.9289551,0.2877274-1.4052887,0.4397202c-1.3058472-0.0224075-3.0032043-0.038002-4.4868317-0.2439499
		C135.0724182,125.2246094,137.6104736,124.5779724,140.2255859,124.0144348z M130.7134552,125.6809311
		c-0.5797882-0.2191772-1.0320587-0.5102386-1.2729492-0.9024734c3.2390289-1.4732666,7.042572-2.232193,10.3928833-2.8025055
		c3.4785309-0.5918884,7.0222168-0.7333527,10.5441742-0.6283264c0.7209625,0.0213623,1.4412079,0.0663147,2.1604614,0.1209335
		c0.0970306,0.2254333,0.1879425,0.4390182,0.2734528,0.6415558c-3.9653778-0.3421555-8.071579,0.0310364-11.8764801,0.7068863
		C137.4286346,123.4400558,133.9921722,124.3333588,130.7134552,125.6809311z M144.8854675,102.8163223
		c0.1105804,0.1679382,0.2167816,0.3435211,0.3192291,0.5258713c-1.3312836-0.0059357-2.7843628,0.3687897-3.8690338,0.598671
		c-1.4703827,0.3111038-2.8698578,0.7601013-4.1950684,1.382843c0.0369568-0.0627518,0.0736237-0.125351,0.1089172-0.1838913
		c0.170639-0.284462,0.3626556-0.5908432,0.5709686-0.9027863
		C140.0179291,103.0884171,142.3467102,102.2943726,144.8854675,102.8163223z M139.3336334,102.3512039
		c0.7714996-0.7665939,1.6529236-1.3389282,2.6059418-1.3803329c0.6249237-0.0271378,1.1701202,0.1498032,1.6525726,0.4705658
		C142.1186981,101.4458466,140.7012329,101.8007278,139.3336334,102.3512039z M111.6936264,98.4937057
		c0.4960403-0.2459946,1.0029144-0.4687271,1.5152054-0.6797409c0.4837723,0.0814362,0.9886322,0.1679382,1.5036392,0.2574997
		c-2.4101715,0.8833008-4.7677536,2.0239258-6.8220367,3.5535126c0.0627441-0.3185806,0.1278839-0.6235733,0.1940613-0.915329
		C109.1762466,99.8121109,110.4546204,99.1082764,111.6936264,98.4937057z M108.4909363,99.093689
		c0.3395996-1.2191696,0.6181488-1.9443588,0.6181488-1.9443588s0.8953171,0.1377487,2.2238922,0.3540497
		c-0.3134689,0.1535187-0.6262741,0.309227-0.9363785,0.4702225C109.756073,98.3064194,109.1121445,98.68013,108.4909363,99.093689z
		 M115.9067001,98.8765564c0.3548813-0.1241608,0.725708-0.2454453,1.1050186-0.3635254
		c0.6072769,0.1421585,1.1762314,0.3007507,1.6939468,0.4630966c-1.0201797,0.2890854-2.009819,0.6222153-2.9390717,0.9694901
		c-2.973053,1.1112671-5.9080658,2.5886078-8.3223038,4.6157608c0.0484924-0.4603958,0.1058502-0.9085541,0.1699524-1.3409805
		C110.0183334,101.2283707,112.9876022,99.8972549,115.9067001,98.8765564z M116.4230576,100.8222809
		c1.2926178-0.4828033,2.7409821-0.8836441,4.2242661-1.1457367c0.7209473,0.2962036,1.1423264,0.5126419,1.1423264,0.5126419
		s-0.0386658,0.0890808-0.1065521,0.2422562c-2.3975983,0.2676773-4.791832,1.062767-6.8871765,1.9643707
		c-2.7243423,1.1719971-5.4052582,2.7005768-7.5100861,4.7123032c0.005455-0.3218079,0.0166397-0.6403809,0.0329285-0.954895
		C109.8581772,103.7386322,113.1657181,102.0383987,116.4230576,100.8222809z M115.4171295,103.2273483
		c1.7312927-0.7438431,3.7387466-1.373848,5.7462006-1.6437531c-0.1723175,0.3750687-0.3687744,0.7959213-0.5760803,1.2266464
		c-1.9555511,0.2915878-3.8785095,0.9217911-5.6311722,1.6741104c-2.7718658,1.1893005-5.5209427,2.8027115-7.6570053,4.9669266
		c-0.00914-0.3280945-0.0152588-0.6659927-0.0183105-1.0125732
		C109.4527512,106.1355743,112.45224,104.5013123,115.4171295,103.2273483z M115.580307,105.3642502
		c1.360466-0.5832062,2.8634415-1.0588455,4.3976212-1.3284073c-0.2347488,0.4544525-0.4651184,0.8756561-0.6720734,1.2138977
		c-1.8354492,0.3837128-3.6156235,1.0785446-5.2597198,1.9084091c-2.3874588,1.2052383-4.7426376,2.7706375-6.6218567,4.7362061
		c-0.0261307-0.3457108-0.0502396-0.7082367-0.0705948-1.0878525
		C109.5345306,108.3459167,112.5822067,106.6485596,115.580307,105.3642502z M114.6629333,108.0432816
		c1.0975418-0.5563812,2.2839584-1.0205231,3.5090714-1.3519897c-0.4346161,0.4704361-0.9557343,0.9889832-1.5267029,1.525383
		c-1.2298737,0.3752441-2.4061127,0.8783646-3.4717636,1.5044708c-1.9766083,1.1615067-3.9253464,2.5810013-5.544014,4.2763367
		c-0.0301895-0.2473221-0.0600662-0.513298-0.0892105-0.7962646
		C109.4758148,111.0013962,112.0763397,109.3415298,114.6629333,108.0432816z M113.8551254,110.5794983
		c0.0926208-0.0544357,0.1886444-0.1046371,0.2826233-0.1572342c-0.4091492,0.3389282-0.8156204,0.6665115-1.2071228,0.9709778
		c-2.3450317,1.8239212-4.9506302,4.8637772-4.9506302,4.8637772s-0.0671844-0.3141708-0.159462-0.8927765
		C109.5073929,113.4242859,111.6807404,111.8573914,113.8551254,110.5794983z M114.6415634,79.9293365
		c-2.5448685-0.8837891-5.0442581-2.0301743-7.3014297-3.5053253c-0.1571045-0.2782059-0.2948151-0.5613098-0.4193268-0.8492126
		c2.6218491,1.7423477,5.9324493,2.9820175,8.5641708,3.8217163c4.0118866,1.2802429,8.1272278,1.8804016,12.2995529,2.1016006
		c-0.0668106,0.2312393-0.1391068,0.4366608-0.2140732,0.6264877
		C123.1487579,81.9761505,118.8732605,81.3994141,114.6415634,79.9293365z M127.0110168,83.1634293
		c-0.2744904,0.3720169-0.5537109,0.6054459-0.7918625,0.7842255c0,0-0.072258,0.0003433-1.1369019,0.123848
		c-3.7845383-0.4804077-7.4466553-1.3206177-11.0313568-2.8329086c-1.3116226-0.5535278-2.6052475-1.1813354-3.8527756-1.8875275
		c1.3523407,0.5843887,2.7080841,1.0712509,3.8877258,1.5015869
		C118.2768555,82.3822784,122.6055832,82.9798965,127.0110168,83.1634293z M118.2978745,78.9989014
		c-0.8244095-0.1993179-1.6481628-0.424263-2.4709015-0.6787109c-2.8193283-0.8702316-5.5976181-2.0278091-8.1051712-3.5696259
		c-0.4783554-0.2936401-0.9764023-0.6166229-1.4327316-0.9781036c-0.0620804-0.2108841-0.1228104-0.4244385-0.1838837-0.6403885
		c2.8895645,2.0147476,6.8264465,3.446991,9.8686676,4.2948151c3.9911804,1.1128006,8.0776901,1.6379852,12.2069626,1.803215
		c-0.0373383,0.4027176-0.0848389,0.7699661-0.1404572,1.105011
		C124.7443542,80.1753082,121.5049744,79.7738037,118.2978745,78.9989014z"/>
	<path id="XMLID_106_" fill="#BCA064" d="M81.2875595,93.6463699c0.0502319-0.3823624,0.1282654-0.8237534,0.2273102-1.3089142
		l-2.2937927-0.4691772c-0.1017914,0.4566345-0.2018433,0.91362-0.2999191,1.372345l2.3565674,0.4819336
		C81.2807846,93.6974411,81.2841873,93.6713104,81.2875595,93.6463699z"/>
	<path id="XMLID_105_" fill="#BCA064" d="M81.1603394,94.6504593l-2.4315414-0.4975662
		c-0.0953293,0.4586945-0.1872559,0.9177246-0.2778625,1.3769379l2.5475769,0.5211182
		C81.0514603,95.5663071,81.1057205,95.0977859,81.1603394,94.6504593z"/>
	<path id="XMLID_104_" fill="#BCA064" d="M82.1466064,89.676239l-2.3100891-0.4726181
		c-0.1089096,0.4539642-0.2154312,0.9106064-0.3212814,1.3679352l2.2887192,0.4682083
		C81.9070969,90.6080399,82.022438,90.151535,82.1466064,89.676239z"/>
	<path id="XMLID_103_" fill="#BCA064" d="M83.5416794,84.7696991l-2.415947-0.608284
		c-0.1214523,0.4485092-0.2415543,0.9019547-0.3613052,1.3574066l2.3775864,0.5988007
		C83.2722931,85.6740494,83.4053192,85.2244949,83.5416794,84.7696991z"/>
	<path id="XMLID_102_" fill="#BCA064" d="M82.7728882,87.3951645l-2.3412857-0.5893173
		c-0.1153412,0.4517441-0.2293625,0.9054947-0.3419952,1.3625183l2.3053284,0.5803223
		C82.5147247,88.3096542,82.6409378,87.8579178,82.7728882,87.3951645z"/>
	<path id="XMLID_101_" fill="#BCA064" d="M87.8792572,117.7253952l-4.0627747,2.9139938
		c0.2768478,0.3733597,0.5581131,0.7477341,0.8437958,1.123497l3.9724884-2.8493729
		C88.3416672,118.5128403,88.0916367,118.1135254,87.8792572,117.7253952z"/>
	<path id="XMLID_100_" fill="#BCA064" d="M86.979187,115.5883179l-4.6171494,3.03479
		c0.2656631,0.379303,0.5370636,0.7608032,0.8156204,1.144516l4.3087158-2.8320389
		C87.2641678,116.4422607,87.0992813,115.9849243,86.979187,115.5883179z"/>
	<path id="XMLID_99_" fill="#BCA064" d="M125.8157425,158.6715393c0.4658432,0.0909576,0.9268951,0.1730499,1.3835678,0.2480316
		l0.4176254-3.0792236c-0.4641037-0.0953369-0.9224854-0.1991425-1.3747101-0.3138275L125.8157425,158.6715393z"/>
	<path id="XMLID_98_" fill="#BCA064" d="M122.9889526,158.0218506c0.458374,0.1217957,0.9150162,0.2364807,1.3676224,0.3406372
		l1.0361252-3.0639343c-0.454628-0.1289215-0.9021301-0.2660217-1.3435135-0.4118958L122.9889526,158.0218506z"/>
	<path id="XMLID_97_" fill="#BCA064" d="M102.7467499,138.2254486l-3.311264,2.5119629
		c0.2948151,0.3565521,0.5960922,0.7161865,0.9031372,1.0774994l3.2685242-2.4790344
		C103.3028183,138.950119,103.0144272,138.5779724,102.7467499,138.2254486z"/>
</g>
<rect x="26.2387714" y="110.8720627" fill="#35687E" width="225.5136108" height="43.6994972"/>
<g id="XMLID_4_">
	<path id="XMLID_20_" fill="#FFFFFF" d="M112.2157516,139.512146c0,0-4.7041092-4.3291626-4.8501282-4.4656982
		c-0.1460114-0.1365051-0.2768097-0.2528687-0.2307053-0.3999634c0.0472031-0.1505585,0.2781372-0.1579437,0.2781372-0.1579437
		l3.5009384-0.2358704c0.2964401-0.0194092,0.5214081-0.2757111,0.5017853-0.5724792l-0.0472031-0.7240906
		c-0.0194016-0.2967682-0.2752533-0.5217438-0.5723419-0.5022278c0,0-2.8895798,0.197525-3.0448532,0.2022705
		c-0.1552734,0.004715-0.3215714,0.0314178-0.3811264-0.0847015c-0.089325-0.1741333,0.0990372-0.3294067,0.2071075-0.4423218
		c0.1080704-0.1129303,4.4244614-4.5815048,4.4244614-4.5815048c0.2064285-0.2136078,0.2006912-0.5548096-0.013237-0.761261
		l-0.5218582-0.5043106c-0.2137222-0.2066803-0.5544968-0.2010574-0.7613754,0.0130081l-6.0523987,6.2630539
		c0,0-0.6043396,0.6283722-0.8458633,0.8751831c-0.23069,0.2356567-0.2448044,0.563858-0.0286636,0.7696381
		c0.1872559,0.1782074,0.9488602,0.8724365,0.9488602,0.8724365l6.2685623,5.7639008
		c0.2187805,0.2011566,0.5595474,0.1868134,0.7606964-0.032196l0.491188-0.5340881
		C112.4491043,140.054184,112.4352112,139.7136383,112.2157516,139.512146z"/>
	<path id="XMLID_19_" fill="#FFFFFF" d="M172.4058838,139.399231c0,0-4.7041016-4.3291779-4.8501282-4.4657135
		c-0.1460114-0.1365051-0.2767944-0.2528534-0.2306976-0.3999634c0.0471954-0.1505432,0.2781372-0.1579285,0.2781372-0.1579285
		l3.500946-0.2358856c0.2964325-0.0194092,0.5213928-0.2757111,0.50177-0.5724792l-0.0471954-0.7240906
		c-0.0194092-0.2967682-0.2752533-0.5217438-0.5723419-0.5022278c0,0-2.8895721,0.197525-3.0448456,0.2022705
		c-0.1552887,0.0047302-0.321579,0.0314178-0.381134-0.0846863c-0.089325-0.1741333,0.0990295-0.3294067,0.2071075-0.442337
		c0.1080627-0.1129303,4.4244537-4.5814972,4.4244537-4.5814972c0.2064362-0.2136154,0.2006989-0.5548096-0.0132294-0.7612686
		l-0.5218658-0.5043106c-0.2137146-0.2066727-0.5544891-0.2010498-0.7613678,0.0130157l-6.0523987,6.2630463
		c0,0-0.6043396,0.6283722-0.845871,0.8751831c-0.2306824,0.2356567-0.2447968,0.5638733-0.028656,0.7696381
		c0.1872559,0.1782074,0.9488525,0.8724365,0.9488525,0.8724365l6.2685699,5.763916
		c0.2187805,0.2011414,0.5595551,0.1867981,0.7606964-0.0322113l0.4911804-0.5340729
		C172.6392365,139.9412537,172.625351,139.600708,172.4058838,139.399231z"/>
	<path id="XMLID_18_" fill="#FFFFFF" d="M189.1190948,139.399231c0,0-4.7041168-4.3291779-4.8501282-4.4657135
		c-0.1460114-0.1365051-0.2768097-0.2528534-0.2307129-0.3999634c0.0472107-0.1505432,0.2781525-0.1579285,0.2781525-0.1579285
		l3.5009308-0.2358856c0.2964325-0.0194092,0.5214081-0.2757111,0.5017853-0.5724792l-0.0471954-0.7240906
		c-0.0194092-0.2967682-0.2752533-0.5217438-0.5723419-0.5022278c0,0-2.8895874,0.197525-3.0448608,0.2022705
		c-0.1552734,0.0047302-0.3215637,0.0314178-0.3811188-0.0846863c-0.089325-0.1741333,0.0990295-0.3294067,0.2071075-0.442337
		c0.1080627-0.1129303,4.4244537-4.5814972,4.4244537-4.5814972c0.2064362-0.2136154,0.2006989-0.5548096-0.0132294-0.7612686
		l-0.5218658-0.5043106c-0.2137146-0.2066727-0.5544891-0.2010498-0.7613678,0.0130157l-6.0523987,6.2630463
		c0,0-0.6043396,0.6283722-0.845871,0.8751831c-0.2306824,0.2356567-0.2447968,0.5638733-0.028656,0.7696381
		c0.1872559,0.1782074,0.9488525,0.8724365,0.9488525,0.8724365l6.2685547,5.763916
		c0.2187958,0.2011414,0.5595551,0.1867981,0.7607117-0.0322113l0.4911804-0.5340729
		C189.3524475,139.9412537,189.338562,139.600708,189.1190948,139.399231z"/>
	<path id="XMLID_17_" fill="#FFFFFF" d="M123.1855545,139.2352295c0,0-5.5971603-5.1814117-5.7182388-5.2973175
		c-0.2033615-0.1946411-0.175354-0.3694305,0.0134354-0.5581055c0.1427155-0.1427155,5.5215225-5.5841751,5.5215225-5.5841751
		c0.2090988-0.2110672,0.2075653-0.5522842-0.003746-0.7613602l-0.5154419-0.5108337
		c-0.2113113-0.2092972-0.5520782-0.2079926-0.7616043,0.0035477l-5.8475037,5.9133377c0,0-0.6122894,0.6207581-0.8568878,0.8645935
		c-0.2335587,0.2326965-0.2516479,0.5606537-0.038147,0.7692108c0.1850433,0.1805267,0.9378128,0.8841095,0.9378128,0.8841095
		l6.0325699,5.5887756c0.2161407,0.2039337,0.5571365,0.1938782,0.7609253-0.0226898l0.4978027-0.5279236
		C123.4120865,139.7801208,123.4026031,139.4394684,123.1855545,139.2352295z"/>
	<path id="XMLID_16_" fill="#FFFFFF" d="M103.6099167,140.0123901l-6.2026062-13.5181808
		c-0.1016846-0.2710724-0.4151001-0.2286072-0.499794,0.0338593l-0.329071,0.9874573
		c-0.0039749,0.0074997-0.0097122,0.014679-0.0125809,0.0221786l-3.8260574,11.5279388
		c-0.1248322,0.4037323,0.037262,0.6221771,0.5668488,0.462616l1.0593414-0.2998505
		c0.3701096-0.1276093,0.4113541-0.4321899,0.5041962-0.7147369l2.3403702-7.1211395c0,0,0.0622025-0.2227631,0.2022552-0.2286072
		c0.140274-0.0058441,0.217926,0.2039185,0.217926,0.2039185l4.3432693,9.4020691
		c0.1248474,0.2699585,0.4453125,0.3872986,0.7150726,0.2622375l0.6583633-0.3048096
		C103.6171875,140.6022797,103.7349701,140.282135,103.6099167,140.0123901z"/>
	<path id="XMLID_15_" fill="#FFFFFF" d="M91.103241,140.0406342l-6.2026062-13.5181885
		c-0.1016846-0.2710724-0.4151001-0.2286148-0.499794,0.0338516l-0.329071,0.9874573
		c-0.0039749,0.0074997-0.0097122,0.014679-0.0125809,0.0221786l-3.8260574,11.5279388
		c-0.1248322,0.4037323,0.037262,0.6221771,0.5668488,0.462616l1.0593414-0.2998505
		c0.3701096-0.1276093,0.4113541-0.4321899,0.5042038-0.7147369l2.3403625-7.1211395c0,0,0.0622025-0.2227478,0.2022552-0.2286072
		c0.1402817-0.0058441,0.217926,0.2039337,0.217926,0.2039337l4.3432693,9.4020538
		c0.1248474,0.2699585,0.4453125,0.3872986,0.7150726,0.2622375l0.6583633-0.3048096
		C91.1105194,140.6305084,91.228302,140.3103638,91.103241,140.0406342z"/>
	<path id="XMLID_14_" fill="#FFFFFF" d="M78.2882309,126.56987c-0.0026627,0.0014267-0.0048523,0.0015335-0.0079498,0.0049744
		l-5.3854218,5.9461975c0,0-0.1532898,0.1825104-0.3004074,0.1236267c-0.1248322-0.0500641-0.0875702-0.2354431-0.0875702-0.2354431
		l0.4883194-4.8841019c0.0231781-0.2941284-0.1967392-0.5513992-0.4907303-0.5744629l-0.7951202-0.0625153
		c-0.1429443-0.0112457-0.2812347,0.0344009-0.388855,0.1263657c-0.107872,0.0919876-0.174469,0.2230072-0.1857224,0.3642578
		l-0.8165054,10.3219147c-0.0110245,0.1412811-0.0278015,0.366684,0.1316757,0.3971252
		c0.0194016,0.0037537,0.0399017,0.0024109,0.0608673-0.0011139c0.0456619-0.0019836,0.09375-0.0266724,0.1398468-0.0618591
		c0.2176743-0.1485443,0.4832382-0.5205231,0.7450485-0.8192596l0.0004272-0.0019836l5.0387192-5.7226715
		c0,0,0.1892395-0.2298279,0.3213654-0.2005005c0.1587982,0.0352783,0.1340866,0.3282013,0.1340866,0.3282013l-0.0485077,8.4631348
		c-0.0017624,0.2974243,0.238205,0.5399323,0.5355225,0.5415802l0.725647,0.0041962
		c0.2973099,0.0016479,0.5399246-0.2379761,0.541687-0.5354156l0.0915375-13.403244
		C78.7377243,126.444252,78.532608,126.33078,78.2882309,126.56987z"/>
	<path id="XMLID_13_" fill="#FFFFFF" d="M142.608139,126.7731171c-0.0024261,0.0015335-0.0046387,0.0016479-0.0077209,0.0051956
		l-5.1600037,6.1427078c0,0-0.1462402,0.1882629-0.2953491,0.1347809c-0.1268158-0.0454559-0.0963745-0.2319336-0.0963745-0.2319336
		l0.3059235-4.8988724c0.0121307-0.294899-0.2172546-0.5436783-0.5119324-0.5558014l-0.7966766-0.0328598
		c-0.1431427-0.0059662-0.2798767,0.0448761-0.3837738,0.1409302c-0.104538,0.0958328-0.1665192,0.2291489-0.1722565,0.3707581
		l-0.4313965,10.3451843c-0.0057373,0.1415863-0.013916,0.3674469,0.1462097,0.3920441
		c0.0196381,0.0028687,0.0401611,0.0008698,0.0608978-0.0036469c0.0458679-0.0036316,0.0928497-0.0299835,0.1374054-0.0668182
		c0.2121735-0.1566162,0.4638367-0.5381775,0.7141724-0.8465271l0.0002136-0.0019684l4.8219147-5.9065094
		c0,0,0.1808319-0.2366486,0.3140717-0.2122803c0.1601257,0.0293121,0.1460114,0.322876,0.1460114,0.322876l0.2670898,8.4591827
		c0.0092621,0.2971954,0.2580719,0.5306702,0.5551605,0.5211792l0.7251892-0.0228271
		c0.2973175-0.0093689,0.5311279-0.2579498,0.5214081-0.5552673l-0.4078064-13.3973007
		C143.0525665,126.6308517,142.8437042,126.5251083,142.608139,126.7731171z"/>
	<path id="XMLID_12_" fill="#FFFFFF" d="M198.6760101,139.4633026l-1.3050537-12.3628769
		c-0.0320129-0.2957764-0.2342529-0.4748611-0.5926666-0.4778366c-0.0727692-0.0005417-0.1572571-0.0003433-0.2452545,0.0005341
		c-0.0066223-0.0008774-0.0165558-0.0036316-0.0213928-0.0035172l-3.9273071,0.0669403
		c-0.0037537,0.0001144-0.0072784,0.0026474-0.0110168,0.0034103l-0.2033691,0.0030975
		c-0.3394623,0-0.5688324,0.2201157-0.6008148,0.5366287l-1.3544617,12.2549973
		c-0.0324097,0.2956696,0.1804352,0.5615692,0.4759827,0.594101l0.7212219,0.0796051
		c0.2957764,0.0326538,0.5622101-0.1805267,0.5948486-0.4761963c0,0,1.1630096-10.483902,1.2086792-10.9110107
		c0.0456543-0.4271088,0.4404602-0.3909454,0.4404602-0.3909454l1.4770966-0.0265808c0,0,0.3506775-0.0405731,0.394577,0.3349304
		c0.0489655,0.4186249,1.1559448,10.9673767,1.1559448,10.9673767c0.0319824,0.2958832,0.2968903,0.509613,0.5924377,0.4778595
		l0.7219086-0.0774231C198.4936066,140.0245209,198.7077637,139.7589722,198.6760101,139.4633026z"/>
	<path id="XMLID_11_" fill="#FFFFFF" d="M180.993866,130.4916687c-0.3032684-0.1629944-1.1378784-0.599823-1.1378784-0.599823
		l-4.0530243-2.1277466c-0.488327-0.2605972-0.984787-0.5271454-1.3577728-0.7296219
		c-0.3628082-0.1969452-0.7156982-0.0710068-0.7156982,0.346077l0.0800629,12.3984833
		c0.002182,0.2973175,0.2454834,0.5364075,0.5423431,0.5341949l0.7260895-0.0056152
		c0.2970886-0.0021057,0.5366058-0.2450562,0.5344238-0.5424957c0,0-0.0723419-9.4370117-0.0668335-9.5642548
		c0.0055084-0.1272736-0.0582275-0.5613403,0.4640656-0.2910461c0.904068,0.4678192,1.8491821,0.973114,2.057373,1.0853729
		c0.2964325,0.1599274,0.0141144,0.3716583,0.0141144,0.3716583l-1.5926514,1.3292084
		c-0.2280731,0.190567-0.258728,0.5304413-0.0686035,0.7582703l0.4651489,0.5574799
		c0.1903534,0.2281647,0.530014,0.2591705,0.7585144,0.0685883l2.4407349-2.0323486c0,0,0.7823334-0.6444702,1.00354-0.8317261
		c0.1786804-0.1513214,0.2404175-0.2743835,0.2212219-0.3905182
		C181.2902985,130.7128754,181.2479401,130.6281738,180.993866,130.4916687z"/>
	<path id="XMLID_10_" fill="#FFFFFF" d="M162.1171722,127.5423355l-0.725647-0.013916
		c-0.2973175-0.0057373-0.5432281,0.2307129-0.5489655,0.5280228l-0.0059662,1.0378418c0,0,0.0374908,0.3387909-0.3246613,0.3575592
		c-0.1215363,0.0062714-1.7360229,0.0886383-3.0620422,0.1441193c-0.4349518,0.0182037-0.2900391-0.3625946-0.2582855-0.4532471
		c0.0317841-0.0906677,1.4376373-3.6824875,1.4376373-3.6824875c0.1076202-0.2771225-0.0298004-0.5892334-0.3068085-0.6969604
		l-0.6762543-0.2631454c-0.2770081-0.1079559-0.5895386,0.0292282-0.697403,0.3063736l-1.7148438,4.3959732l-0.0004578-0.0011902
		c-0.0059662,0.0159912-0.0123596,0.0327454-0.0182953,0.0489655l-0.5840607,1.4970551
		c0.0013275-0.0001221,0.0028687-0.000351,0.0041962-0.000351c-0.1634369,0.4205017-0.1949768,0.555603-0.1182251,0.6881561
		c0.0752106,0.1298065,0.2527771,0.1135864,0.3317261,0.1094055c0,0,5.1125946-0.2585144,5.5407104-0.28862
		c0.4281006-0.0301056,0.3822327,0.3275452,0.3822327,0.3275452l-0.1775513,8.8238678
		c-0.0055084,0.2971954,0.2311401,0.5429077,0.5280304,0.548645l0.7258453,0.0138855
		c0.2971191,0.0057373,0.5432587-0.2307129,0.5487671-0.5280151l0.2485657-12.3508453
		C162.6507111,127.793663,162.4142761,127.5480728,162.1171722,127.5423355z"/>
	<path id="XMLID_9_" fill="#FFFFFF" d="M68.0436249,138.996933l-3.3964233-5.2312622c0,0-0.1153412-0.1564941-0.1153412-0.2872772
		c0-0.1307983,0.0848999-0.2872925,0.0848999-0.2872925l3.2561417-5.9959259
		c0.1416092-0.2618103,0.0445557-0.5889206-0.2165985-0.7303925l-0.6378555-0.3463898
		c-0.2611313-0.1417236-0.5882339-0.0449982-0.7300491,0.2161407l-2.7598724,5.0823669c0,0-0.0906563,0.1628876-0.1965141,0.1628876
		c-0.1094055,0-0.2097511-0.1631927-0.2097511-0.1631927l-2.7887802-4.2952118
		c-0.1625481-0.2492294-0.4962692-0.3201447-0.7452736-0.1581421l-0.6087456,0.3954697
		c-0.2492294,0.1618958-0.3202591,0.4955902-0.1583672,0.7448196l3.3644333,5.1820984c0,0,0.1124763,0.1609955,0.1089554,0.2915649
		c-0.0037498,0.1376495-0.0990372,0.294342-0.0990372,0.294342l-3.2036285,5.8994446
		c-0.141613,0.2619171-0.0445633,0.5888977,0.2165947,0.7304993l0.6378555,0.346283
		c0.2611313,0.1418152,0.5882378,0.0449829,0.730278-0.2161407l2.7201653-5.009491c0,0,0.0776482-0.1781158,0.1976204-0.1781158
		c0.1199951,0,0.2064552,0.1756744,0.2064552,0.1756744l2.8304482,4.3593903
		c0.1625443,0.2493439,0.4962692,0.3200378,0.7452774,0.1581421l0.6087418-0.395462
		C68.1344833,139.5798645,68.205513,139.24617,68.0436249,138.996933z"/>
	<path id="XMLID_8_" fill="#FFFFFF" d="M220.5746002,138.8283081l-3.3964233-5.2312622c0,0-0.1153564-0.1564941-0.1153564-0.2872772
		c0-0.1307983,0.0849152-0.2872925,0.0849152-0.2872925l3.256134-5.9959259
		c0.1416016-0.2618103,0.0445709-0.588913-0.2165833-0.7303925l-0.6378632-0.3463898
		c-0.2611542-0.1417007-0.5882416-0.0449905-0.7300415,0.2161407l-2.759903,5.0823975c0,0-0.0906372,0.1628571-0.1965179,0.1628571
		c-0.109375,0-0.2097473-0.1631927-0.2097473-0.1631927l-2.7887573-4.2952042
		c-0.1625671-0.2492371-0.4962616-0.3201523-0.7452698-0.1581497l-0.6087646,0.3954773
		c-0.2492371,0.1618881-0.3202362,0.4955902-0.1583557,0.7448196l3.3644409,5.1820908c0,0,0.1124725,0.1610107,0.1089478,0.2915802
		c-0.0037384,0.1376343-0.0990295,0.2943268-0.0990295,0.2943268l-3.2036591,5.8994446
		c-0.1415863,0.2619171-0.0445404,0.5888977,0.2165985,0.7304993l0.6378632,0.346283
		c0.2611542,0.1418152,0.5882263,0.0449982,0.7302704-0.2161407l2.7201843-5.009491c0,0,0.0776367-0.1781006,0.1976318-0.1781006
		c0.1199646,0,0.2064209,0.1756897,0.2064209,0.1756897l2.8304749,4.3593597
		c0.1625519,0.2493439,0.4962463,0.3200378,0.7452698,0.1581421l0.6087494-0.395462
		C220.6654663,139.4112396,220.736496,139.0775452,220.5746002,138.8283081z"/>
	<path id="XMLID_7_" fill="#FFFFFF" d="M57.7050591,140.0876923l-6.2026138-13.518158
		c-0.1016769-0.2710724-0.4150963-0.2286072-0.4997902,0.0338516l-0.329071,0.9874573
		c-0.0039749,0.0074997-0.0097122,0.0146637-0.0125809,0.0221786l-3.8011475,11.4601135
		c-0.1248283,0.4037323,0.0372887,0.6221771,0.5668488,0.462616l5.0418091-1.6294098l0.5015564-0.1603241
		c0.2902451-0.0948334,0.4488411-0.4071503,0.3542061-0.6974182l-0.2313652-0.7086639
		c-0.0948334-0.2901459-0.4069443-0.4489441-0.6974144-0.3541107l-2.3496284,0.7533417c0,0-0.2192383,0.0953674-0.3317337-0.069046
		c-0.0899811-0.1314545,0-0.3387909,0-0.3387909s1.4746704-4.5108948,1.524086-4.6559143
		c0.0493927-0.1450195,0.1199722-0.3674622,0.2823181-0.3744049c0.1658669-0.0070648,0.2439461,0.2159271,0.3054657,0.3585358
		c0.0615463,0.1425781,4.243145,9.1856842,4.243145,9.1856842c0.124855,0.2699738,0.4453163,0.3872986,0.7150764,0.2622375
		l0.6583672-0.3048096C57.7123299,140.677597,57.8301125,140.3574524,57.7050591,140.0876923z"/>
	<path id="XMLID_6_" fill="#FFFFFF" d="M210.5792236,139.9348602l-6.3014221-13.47229
		c-0.1036682-0.2703018-0.4168549-0.2255173-0.4995728,0.0374908l-0.3217926,0.9898758
		c-0.0039825,0.0074921-0.0097198,0.014679-0.0123596,0.0222855l-3.7171021,11.4875793
		c-0.1219635,0.4047089,0.041687,0.6219788,0.5701447,0.4585266l5.0296631-1.6663208l0.500473-0.1640015
		c0.2895813-0.0970459,0.4457397-0.4104614,0.3491364-0.700058l-0.2366638-0.7068939
		c-0.0968323-0.2894745-0.4102478-0.4459686-0.6998291-0.3490448l-2.3441315,0.7705231c0,0-0.2185822,0.0970612-0.3321533-0.0666046
		c-0.0911102-0.1307831-0.0026703-0.3387756-0.0026703-0.3387756s1.4416046-4.5214844,1.4901123-4.6669617
		c0.0483246-0.14534,0.1171417-0.3683167,0.2794495-0.3763885c0.1658783-0.008255,0.2454834,0.2140656,0.308136,0.3562164
		c0.0626373,0.1421661,4.3104095,9.1543732,4.3104095,9.1543732c0.1268158,0.2690887,0.4479523,0.3840027,0.7168427,0.256958
		l0.6561432-0.3095551C210.5909119,140.5247498,210.7062683,140.2037201,210.5792236,139.9348602z"/>
	<path id="XMLID_5_" fill="#FFFFFF" d="M232.2612152,139.9348602l-6.3014221-13.47229
		c-0.1036682-0.2703018-0.4168549-0.2255173-0.4995575,0.0374908l-0.3218079,0.9898758
		c-0.0039673,0.0074921-0.0097046,0.014679-0.0123444,0.0222855l-3.7171173,11.4875793
		c-0.1219482,0.4047089,0.0417023,0.6219788,0.5701599,0.4585266l5.0296478-1.6663208l0.500473-0.1640015
		c0.2895966-0.0970459,0.445755-0.4104614,0.3491516-0.700058l-0.2366791-0.7068939
		c-0.096817-0.2894745-0.4102325-0.4459686-0.6998291-0.3490448l-2.3441162,0.7705231c0,0-0.2185822,0.0970612-0.3321686-0.0666046
		c-0.0911102-0.1307831-0.002655-0.3387756-0.002655-0.3387756s1.4416046-4.5214844,1.4901123-4.6669617
		c0.0483093-0.14534,0.1171265-0.3683167,0.2794495-0.3763885c0.165863-0.008255,0.2454834,0.2140656,0.308136,0.3562164
		c0.0626221,0.1421661,4.3104095,9.1543732,4.3104095,9.1543732c0.1268158,0.2690887,0.4479523,0.3840027,0.7168274,0.256958
		l0.6561584-0.3095551C232.2729187,140.5247498,232.3882599,140.2037201,232.2612152,139.9348602z"/>
</g>
</svg>
