<?xml version="1.0" encoding="utf-8"?>
<!-- Generator: Adobe Illustrator 19.2.1, SVG Export Plug-In . SVG Version: 6.00 Build 0)  -->
<svg version="1.1" id="Слой_1" xmlns="http://www.w3.org/2000/svg" xmlns:xlink="http://www.w3.org/1999/xlink" x="0px" y="0px"
	 viewBox="0 0 66.3 60.2" style="enable-background:new 0 0 66.3 60.2;" xml:space="preserve">
<style type="text/css">
	.st0{fill:#AA8230;}
</style>
<path class="st0" d="M30.4,0c3.2,1,5.4,3.1,7.2,5.8c1.3,2.1,1.4,4.1-0.1,6.1c-1.3,1.7-2.8,3.3-4.3,4.8c-0.5,0.6-0.6,0.9-0.2,1.6
	c1.2,2,2.5,3.9,3.6,6c0.7,1.3,1.1,2.6,1.6,4c0.2,0.5,0.1,1.1,0.9,1c0.7-0.1,1.4-0.2,1.4-1.2c0-1.2,0.1-2.5,0.2-3.7
	c0.2-1.5,1.7-2.3,3.1-1.7c1.4,0.6,2.7,1.3,4,1.8c0.3,0.1,1,0,1.1-0.3c1-1.4,1.8-2.8,2.7-4.2c0.5-0.7,0.3-1.2-0.3-1.7
	c-3.5-2.9-7-5.8-10.5-8.7c-0.2-0.2-0.5-0.3-0.8-0.5c0.1-0.1,0.2-0.3,0.3-0.4c0.4,0.1,0.7,0.3,1.1,0.4c4,1.7,7.4,4.3,10.8,6.8
	c2.4,1.7,4.8,3.4,7.1,5.1c1.7,1.2,1.7,2.1,0.3,3.6c-1.4,1.4-2.8,2.8-4.1,4.2c-0.8,0.9-1.6,1-2.6,0.4c-2.8-1.6-5.6-3.2-8.5-4.7
	c-1.3-0.7-1.8-0.4-1.8,1.1c0,10.8,0,21.5,0,32.3c0,1.8-0.6,2.4-2.4,2.2c-3.3-0.2-6.5-0.5-9.8-0.6c-3.7-0.2-7.3-0.4-11-0.5
	c-0.9,0-1.4-0.4-1.4-1.4c-0.1-6.5-0.4-12.9-0.5-19.4c-0.1-4.1-0.2-8.2-0.2-12.4c0-0.5-0.1-1.1-0.2-1.7c-0.3,0.1-0.5,0.1-0.7,0.2
	c-2.3,1.9-4.6,3.6-6.7,5.6c-1.9,1.7-3.1,2-5.2,0.4c-1.5-1.1-2.8-2.5-4.2-3.7c-0.7-0.6-0.7-1.4-0.1-2c6-5.5,11.4-11.8,18.8-15.7
	c0.3-0.2,0.7-0.3,1.1-0.4c0,0.1,0.1,0.2,0.1,0.3c-2.5,1.9-5.1,3.7-7.4,5.8c-2.4,2.1-4.5,4.5-6.8,6.9c1.4,2,2.7,3.8,4.1,5.8
	c2-1.4,3.9-2.7,5.8-4c1.3-0.9,3-0.4,3.5,1.1c0.2,0.5,0.2,1.1,0.3,1.6c0.1,3.1,0.1,3.2,3.2,3.2c0.5,0,0.9-0.4,1.4-0.6
	c0.4-0.2,0.9-0.7,1.3-0.8c1.9-0.1,4-0.4,5.3,1.6c0.1,0.1,0.3,0.3,0.5,0.3c1.5,0,3,0,4.9,0c-0.6-1.1-0.9-2.2-1.5-2.9
	c-2.3-2.7-4.7-5.3-7-7.9c-1.7-2-3.4-3.9-5-6c-1.7-2.1-1.6-4.3-0.4-6.6C24.2,3.3,26.2,1,29.5,0C29.8,0,30.1,0,30.4,0z M27.2,42.7
	c0,1,0.1,2.5,0.2,3.9c0.1,2,0.1,4.1,0.1,6.1c0,0.9-0.4,1.5-1.4,1.6c-1,0.1-1.5-0.4-1.7-1.3c-0.1-0.3-0.1-0.6-0.1-0.9
	C24.2,46,24.1,39.9,24,33.9c0-3.3,0.7-2.9-3-2.3c-0.7,0.1-1,0.3-1,1.1c-0.1,8-0.3,15.9-0.5,23.9c0,0.9,0.2,1.2,1.2,1.2
	c5.1-0.1,10.2,0,15.2,0c1.8,0,1.8,0,1.7-1.8c-0.2-7-0.4-14.1-0.7-21.1c-0.2-4.4,0.3-3.5-4-3.7c-0.7,0-1,0.3-1,1
	c0,3.8-0.1,7.6-0.2,11.4c0,1.3,0.1,2.6-0.1,4c-0.1,0.5-0.5,1.2-1,1.3c-0.4,0.2-1.2-0.1-1.6-0.4c-0.3-0.3-0.4-0.9-0.4-1.4
	c0-4.9,0-9.8,0-14.6c0-0.6,0-1.2-0.9-1.2c-0.9,0-0.7,0.7-0.7,1.2C27.2,35.6,27.2,39,27.2,42.7z M32.1,16.8c0.1,0,0.3,0,0.4,0
	c0.3-1.2,0.8-2.5,1-3.7c0.7-3.4,0.7-6.6-1.1-9.8c-0.6-1-1.3-1.6-2.5-1.4c-1.1,0.1-1.4,1-1.7,1.8C26.4,9.1,29.8,12.8,32.1,16.8z
	 M38.8,31.7c0,0.4-0.1,0.7-0.1,1.1c-0.1,3.6-0.1,7.2-0.2,10.8c-0.1,4.3-0.2,8.5-0.4,12.8c0,1,0.3,1.3,1.3,1.3c1,0,0.9-0.6,0.9-1.3
	c0-7.8,0-15.6,0-23.4C40.4,31.9,40,31.5,38.8,31.7z M2.5,25.8c1.3,1.1,2.5,2.3,3.8,3.4c0.7,0.6,1.3,0.5,2-0.1c0.5-0.4,1-0.7,1.7-1.2
	c-1.7-1.2-2.9-2.2-4.3-3.1C4,23.6,4,23.6,2.7,25.3C2.6,25.4,2.6,25.4,2.5,25.8z M50.6,25.7c1.1,0.6,2,1.1,2.8,1.4
	c0.3,0.1,0.9-0.1,1.1-0.3c0.8-1,1.5-2,2.1-3c0.2-0.3,0-0.9-0.2-1.1c-0.4-0.4-0.8-1.3-1.5-0.6C53.5,23.1,52.1,24.3,50.6,25.7z"/>
<path class="st0" d="M55.8,43c-0.4,1.6-0.6,3.5-1.2,5.3c-0.6,1.9-2,2.7-3.7,2.4c-2.3-0.4-3.1-1.4-3.3-3.7c-0.4-3.3,0.8-6.3,1.8-9.3
	c0.4-1.3,1.6-2,3.1-2c1,0,2.3,0.9,2.6,2.1C55.3,39.4,55.5,41,55.8,43z M54.1,43c0.1-1.6,0.3-2.9,0.2-4.2c0-0.6-0.6-1.6-1-1.6
	c-0.8-0.1-1.9,0.1-2.3,0.6c-0.9,1.2-1.4,2.6-2.1,4.1C50.7,42.3,52.2,42.7,54.1,43z M48.5,43.6c-0.1,0.1-0.2,0.1-0.4,0.2
	c0.3,1.1,0.6,2.2,0.9,3.2c0.5,1.3,1.9,1.6,2.8,0.6c0.5-0.5,0.8-1.2,1.3-2C51.6,44.9,50.1,44.3,48.5,43.6z"/>
<path class="st0" d="M57.6,41.4c0.1-0.6,0.1-1.8,0.3-3c0.2-1.4,1.2-2.4,2.4-2.5c1.4-0.2,2.6,0.5,3.1,1.8c0.3,0.8,0.6,1.6,0.8,2.4
	c0.3,0.9,0.5,1.7,1.4,2.2c0.4,0.2,0.6,1.1,0.6,1.7c-0.1,1.4-0.4,2.8-0.7,4.1c-0.3,1.3-1.3,2.1-2.6,2.2c-1.5,0.2-2.9-0.1-3.7-1.6
	C58.1,46.6,57.6,44.4,57.6,41.4z M64,42.1c-0.8-1.6-1.4-3-2.1-4.3c-0.7-1.1-2.4-1.2-2.6-0.2c-0.4,1.8-0.5,3.6-0.7,5.6
	c0.7-0.1,1.1-0.1,1.5-0.2C61.3,42.8,62.5,42.5,64,42.1z M59,45.1c0.5,1,0.9,2,1.4,2.8c0.6,0.9,2.1,1.2,2.6,0.4
	c0.5-0.8,0.3-1.9,0.4-2.9c0-0.1-0.3-0.2-0.5-0.2C61.6,45.1,60.5,45.1,59,45.1z"/>
</svg>
