<?xml version="1.0" encoding="utf-8"?>
<!-- Generator: Adobe Illustrator 19.2.1, SVG Export Plug-In . SVG Version: 6.00 Build 0)  -->
<svg version="1.1" id="Слой_1" xmlns="http://www.w3.org/2000/svg" xmlns:xlink="http://www.w3.org/1999/xlink" x="0px" y="0px"
	 viewBox="0 0 52 57.4" style="enable-background:new 0 0 52 57.4;" xml:space="preserve">
<style type="text/css">
	.st0{display:none;stroke:#FFFFFF;stroke-miterlimit:10;}
	.st1{fill:#AA8230;}
</style>
<rect x="-28" y="-34" class="st0" width="101" height="116"/>
<g>
	<path class="st1" d="M0,19c0.5-0.9,1.3-1.1,2.3-1.1c11.5,0.1,23,0.2,34.5,0.3c0.8,0,1.7,0.3,2.3,0.8c4.1,3.2,8.2,6.4,12.2,9.7
		c0.4,0.3,0.7,0.9,0.7,1.4c0,8.6-0.1,17.1-0.3,25.7c0,0.6-0.7,1.1-1.1,1.7c-0.6,0-1.3,0-1.9,0c-0.5-0.1-1-0.2-1.5-0.2
		c-3.3-0.1-6.5-0.2-9.8-0.3c-8.6-0.2-17.2-0.4-25.8-0.5c-3-0.1-6.1-0.2-9.1-0.2c-0.8,0-1.2-0.4-1.2-1.2C1,47.8,0.8,40.7,0.6,33.5
		C0.4,29.4,0.4,25.2,0.2,21c0-0.4-0.2-0.9-0.2-1.3C0,19.4,0,19.2,0,19z M25.9,54.8c7.4,0,14.9,0,22.3,0c1,0,1.3-0.3,1.3-1.3
		c0-7.4,0.1-14.9,0.2-22.3c0-0.6-0.3-1.3-0.7-1.7c-3.4-3.2-6.9-6.4-10.5-9.5c-0.4-0.4-1.1-0.6-1.7-0.6c-3.9,0-7.8,0.1-11.8,0.2
		c-7.2,0.2-14.4,0.3-21.6,0.5c-0.8,0-1.1,0.3-1.1,1.1c0,10.8,0,21.5,0,32.3c0,1.1,0.4,1.4,1.5,1.4C11.2,54.8,18.5,54.8,25.9,54.8z"
		/>
	<path class="st1" d="M25.8,0c7,0,14,0,21,0c2.2,0,2.4,0.2,2.3,2.3c-0.1,5.2-0.2,10.3-0.2,15.5c0,1.4,0.2,2.8,0.3,4.2
		c0,0.4,0.2,0.9,0.1,1.3c-0.1,0.3-0.6,0.7-0.9,0.7c-0.3,0-0.6-0.4-0.9-0.7c-0.1-0.1,0-0.3,0-0.5c0.6-6.5-0.4-12.9-0.4-19.4
		c0-1.1-0.6-1.2-1.5-1.2c-5.6,0-11.3,0-16.9,0c-7.5,0-15,0-22.4,0c-1.7,0-1.7,0-1.7,1.6C4.4,7.4,4.4,11,4.3,14.6
		c0,0.4-0.3,0.8-0.5,1.2c-0.2-0.4-0.5-0.8-0.5-1.2c-0.3-4-0.5-8-0.7-12C2.4,0.1,2.5,0,5.1,0C12,0,18.9,0,25.8,0z"/>
	<path class="st1" d="M45.5,9.4c0,1.4,0,2.7,0,4.1c0,1-0.4,1.6-1.5,1.6c-4.2-0.1-8.4-0.2-12.7-0.4c-1,0-1.9-0.1-2.9-0.2
		c-1.4-0.1-1.7-0.4-1.8-1.9c-0.1-2.5-0.3-4.9-0.5-7.4c-0.1-1.1,0.4-1.4,1.4-1.4c2.9-0.1,5.8-0.2,8.8-0.2c2.6,0,5.2,0.2,7.8,0.2
		c1,0,1.3,0.5,1.3,1.4C45.5,6.6,45.5,8,45.5,9.4L45.5,9.4z M35.1,5.8L35.1,5.8c-2-0.1-3.9-0.1-5.9-0.1c-0.9,0-1.2,0.4-1.1,1.2
		c0.1,1.5,0.2,3,0.1,4.5c0,1.1,0.4,1.5,1.5,1.5c4.5,0,8.9,0.2,13.4,0.3c0.8,0,0.9-0.3,0.9-0.9c0-2,0-3.9,0-5.9c0-1-0.3-1.2-1.2-1.2
		C40.2,5.6,37.7,5.7,35.1,5.8z"/>
	<path class="st1" d="M15.6,14.6c-2.6,0-5.1,0-7.7,0c-1.5,0-1.6-0.3-1.7-1.7C6.1,10.5,6.1,8.1,6,5.7C6,4.2,6.2,3.9,7.7,4
		c5,0.1,10.1,0.2,15.1,0.3c0.9,0,1.3,0.3,1.3,1.3c0,2.6,0.1,5.2,0.2,7.8c0,0.8-0.3,1.1-1.1,1.1C20.6,14.5,18.1,14.5,15.6,14.6
		C15.6,14.4,15.6,14.5,15.6,14.6z M23.2,5.6c-0.3-0.1-0.5-0.2-0.6-0.2c-4.5,0-8.9,0-13.4,0.1C8.9,5.5,8.4,6,8.4,6.3
		C8.1,7.7,8,9,7.9,10.3c-0.2,2.6-0.2,2.6,2.5,2.7c3.9,0.1,7.9,0.2,11.8,0.3c0.5,0,1.2,0.1,1.2-0.8C23.3,10.2,23.2,7.9,23.2,5.6z"/>
	<path class="st1" d="M14.5,21.7c7-0.2,14-0.4,21.1-0.6c1.6,0,1.7,0,1.8,1.6c0.2,2.5,0.5,5.1,0.6,7.6c0.1,0.7,0.3,1,1.1,1.1
		c2.5,0.3,5.1,0.6,7.6,0.9c0.7,0.1,1,0.4,1,1.2c0.1,6.2,0.2,12.4,0.3,18.6c0,1.1-0.5,1.5-1.5,1.5c-13.5,0-27.1-0.1-40.7-0.1
		c-1.6,0-2-0.4-2-2C4,46.1,4.3,40.8,4.4,35.4c0-1.9-0.2-3.8-0.4-5.7c-0.2-2,0.2-2.5,2.2-2.4c7.1,0.4,14.3,0.7,21.4,1.1
		c1.8,0.1,3.7,0.2,5.5,0.3c0.3,0,0.6,0.3,0.9,0.4c-0.3,0.2-0.6,0.5-0.9,0.5c-3.9,0-7.8,0-11.6,0c-4.7,0-9.4,0-14,0
		C6.4,29.6,6,29.9,6,31c0,6.1,0.1,12.3,0.2,18.5c0,1.1,0.4,1.5,1.6,1.5c10.6,0.3,21.3,0.6,31.9,0.9c2.3,0.1,4.5,0,6.9,0
		c0.1-0.8,0.2-1.7,0.2-2.6c0.1-5,0.2-9.9,0.4-14.9c0-1-0.2-1.3-1.2-1.2c-2.7,0.1-5.4,0.2-8,0.3c-1.6,0-2.1-0.4-2-2.1
		c0-2.6,0.1-5.1,0.2-7.7c0.1-1.2-0.4-1.5-1.5-1.5C27.9,22.1,21.2,21.9,14.5,21.7z"/>
</g>
</svg>
